<svg id="Layer_3" data-name="Layer 3" xmlns="http://www.w3.org/2000/svg" viewBox="0 0 1549.03 2082.47"><defs><style>.cls-1{fill:none;stroke:#010101;stroke-linecap:round;stroke-miterlimit:10;stroke-width:2px;}</style></defs><title>dve linije</title><path class="cls-1" d="M136.68,273.81c-2.66-1.52-10.05-4.38-16-9.13S106.15,253.05,101,245.27,90.32,224.08,89.87,218s4.82-7.85,8.4-9.23,10.44-.32,13.07.93,2.28,3.74,2.69,6.57,1.18,6.87-.25,10.41-6,8-8.36,10.85-.29,2.48-5.69,6.48S77.45,258.63,73,261.55" transform="translate(-67.52 -154.5)"/><path class="cls-1" d="M83.35,220.45c-.14-1.43-2.19-5.52-.84-8.56s6.2-7.47,8.94-9.69,4.89-2.62,7.48-3.63a34.58,34.58,0,0,1,8-2.4,40.13,40.13,0,0,1,10.24-.21c2.78.44,4.12,1.7,6.46,2.85s5.92,1.87,7.58,4a14.15,14.15,0,0,1,2.38,9c-.26,3.08-3.3,7.9-4,9.49" transform="translate(-67.52 -154.5)"/><path class="cls-1" d="M77.18,451.86c.31-2.06.19-8.35,1.85-12.37s3.89-7.15,8.14-11.78a203.92,203.92,0,0,1,17.39-16,105.63,105.63,0,0,1,13.32-9.06,17,17,0,0,1,5.55-2.11" transform="translate(-67.52 -154.5)"/><path class="cls-1" d="M77.18,369.74c.31,2.22.68,10.12,1.85,13.29s3.46,4.43,5.18,5.73a9.53,9.53,0,0,0,5.18,2.12,28,28,0,0,0,9.62.3A91.51,91.51,0,0,0,113.44,387c3.33-1.3,3.52-1.71,5.55-3.62a46,46,0,0,0,6.66-7.85,11.14,11.14,0,0,0,1.85-6.34,31.19,31.19,0,0,0-1.11-9.66c-.93-2.82-2.9-5.28-4.44-7.25s-2.53-3.27-4.81-4.52a25.74,25.74,0,0,0-8.88-3,57.09,57.09,0,0,0-11.84.3,27.48,27.48,0,0,0-6.29,1.81" transform="translate(-67.52 -154.5)"/><path class="cls-1" d="M89.38,585.05c-1.88,1.45-9.24,6.1-11.28,8.66s-.85,4.78-.95,6.72-1.32,3.31.31,4.89,4.88,2.27,9.47,4.59S100.55,616,105,619.28s7.25,8.46,8.7,10.15" transform="translate(-67.52 -154.5)"/><path class="cls-1" d="M139,584.43c-1.31,0-4.42,2-7.88-.15s-9.4-9.19-12.85-12.77-6.05-4.55-7.83-8.7-2.27-13.07-2.86-16.16-.74-1.71-.63-2.38-.59-2.23,1.26-1.62a23.22,23.22,0,0,1,9.82,5.23c4.91,4.11,16.35,16.18,19.62,19.41" transform="translate(-67.52 -154.5)"/><path class="cls-1" d="M84.7,740.46a103.77,103.77,0,0,0-1.89,14.14c-.25,6.61.81,17.46.39,25.53S80.68,798,80.25,803a20.71,20.71,0,0,0,.35,7.06" transform="translate(-67.52 -154.5)"/><path class="cls-1" d="M132.9,742.73c-.07,2.79-.36,10-.46,16.74s-.69,18.52-.17,23.75,3.35,4.7,3.31,7.63-2.76,7.55-3.59,10-1.18,3.81-1.41,4.57" transform="translate(-67.52 -154.5)"/><path class="cls-1" d="M83.36,961.9c1.27.41,4.83,3.68,7.61,2.49s4.84-9.62,9.08-9.63,13.46,4.84,16.35,9.55-.55,15.55.95,18.71,4.75-.32,8.08.26,9.95,2.65,11.94,3.18" transform="translate(-67.52 -154.5)"/><path class="cls-1" d="M81.66,873.72c2.71,3.18,14.32,14.6,16.28,19.12s-3.3,5.64-4.51,8A32.14,32.14,0,0,0,90.69,907c-.92,2.82-2.54,6.95-2.73,10.81s0,4.48,1.53,12.39,6.29,29.24,7.55,35.09" transform="translate(-67.52 -154.5)"/><path class="cls-1" d="M108.08,1063.91c-.07,1.51.67,6-.37,9.06s-4.87,7.09-5.92,9.36-.31,3.52-.37,4.23" transform="translate(-67.52 -154.5)"/><path class="cls-1" d="M81.81,1168.07c-.43-1.81-4-6.59-2.59-10.87s9.43-11.22,11.1-14.79-1.11-3-1.11-6.64-.87-9.51,1.11-15.4,8.94-16.61,10.73-19.93" transform="translate(-67.52 -154.5)"/><path class="cls-1" d="M125.83,1225.28c1.18,1.46,5.74,6.19,7,8.76s.93,4,.74,6.64-.49,7-1.85,9.36-3.76,3.32-6.29,4.83a65.75,65.75,0,0,1-8.87,4.23,15.93,15.93,0,0,1-5.55,1.2c-2.16.15-4.14-.8-7.4-.3s-9.75,2-12.21,3.32-2.47,3.07-2.59,4.83a10.33,10.33,0,0,0,1.85,5.74c1,1.51,1.79,1.91,4.44,3.32s8.26,2.57,11.47,5.13,4.5,2.67,7.77,10.27,8.63,27.27,11.83,35.32,5.37,9.91,7.4,13a32.91,32.91,0,0,0,4.81,5.44" transform="translate(-67.52 -154.5)"/><path class="cls-1" d="M77.74,1256.38c.18,3-.37,13,1.11,18.11s5.67,10,7.77,12.68,3.7,2.12,4.81,3.63a9,9,0,0,1,1.85,5.43c-.06,2-.25,2.62-2.22,6.34s-8,11.42-9.62,16-.43,9,0,11.47,1.23,2.47,2.59,3.63a13.46,13.46,0,0,0,5.55,3.32c3.27,1.1,11.71,2.76,14.06,3.32" transform="translate(-67.52 -154.5)"/><path class="cls-1" d="M68.77,1506.21c1.12-6.83,5.63-15.86,8.85-22.44s8-12.87,10.43-17,3.42-6.55,4.11-7.86" transform="translate(-67.52 -154.5)"/><path class="cls-1" d="M70.91,1524.76c-.35-3.09-3.26-11.72-2.14-18.55" transform="translate(-67.52 -154.5)"/><path class="cls-1" d="M84.33,1420.47c3,.62,12.17,2.22,17.72,3.68s10.77,2.86,15.55,5.12a70.74,70.74,0,0,1,13.13,8.41c3.93,3.08,8.71,8.38,10.45,10" transform="translate(-67.52 -154.5)"/><path class="cls-1" d="M85.61,1616.82c1.08,1.41,5,4.4,6.49,8.46s2.81,12.29,2.49,15.88-3.29,4.39-4.39,5.64-1.25-.42-2.25,1.86-3.62,8-3.71,11.78,2,7.75,3.13,10.74,2,5.75,3.53,7.18,1.91,1,5.6,1.41,13.85.8,16.58,1.09-1.79,1.42-.17.64,7.82-4,9.92-5.32,1.42-.5,2.65-2.64a75.22,75.22,0,0,0,4.68-10.16,8.77,8.77,0,0,0,.3-5.46c-.37-2,.38-4.1-2.47-6.62s-11.72-6.44-14.65-8.5-3.2-1-2.94-3.84,2.67-9,4.46-13,5.21-9.17,6.25-11" transform="translate(-67.52 -154.5)"/><path class="cls-1" d="M84.23,1582c2.79,1.76,13.33,7.48,16.74,10.61s3,5.39,3.74,8.15-.26,6.61.4,8.46,2.5,2.26,3.53,2.66,1,.78,2.64-.27,3.2-1.57,6.92-6,12.8-17.34,15.36-20.81" transform="translate(-67.52 -154.5)"/><path class="cls-1" d="M94.69,1877.39c1.17-5.17,5.62-23.09,7-31s1.24-13.72,1.49-16.47" transform="translate(-67.52 -154.5)"/><path class="cls-1" d="M107.18,1872.31c1.13-5.12,6.36-21.89,6.8-30.76s-3.46-18.71-4.15-22.46" transform="translate(-67.52 -154.5)"/><path class="cls-1" d="M125.87,2000.82c2.33,7.89,4.39,18.07,4.66,26.39s-2.49,19.59-3,23.51" transform="translate(-67.52 -154.5)"/><path class="cls-1" d="M72.38,2052.64c2.2-2.25,9.28-8.49,13.21-13.51s7.36-9,10.36-16.56,6.28-22.36,7.67-28.89.72-4.72.67-10.26" transform="translate(-67.52 -154.5)"/><path class="cls-1" d="M108.63,2111.75c1.05,1.3,4.5,4.52,6.29,7.85a39.08,39.08,0,0,1,4.44,12.07c.8,4.73,1.42,11.88.37,16.3s-3,7.25-6.66,10.27-12.95,6.54-15.54,7.85" transform="translate(-67.52 -154.5)"/><path class="cls-1" d="M100,2196.49c1.11.29,4.54.29,6.66,1.73s4.54,4.7,6.11,6.91,2.49,3.2,3.33,6.34a75.06,75.06,0,0,1,1.66,12.48,99.19,99.19,0,0,1-.37,10.37" transform="translate(-67.52 -154.5)"/><path class="cls-1" d="M208.88,281.61c.72-2.2,2.34-9.35,4.31-13.23s5.16-6.9,7.54-10,5.5-4.65,6.79-8.84.45-12.16.9-16.28,1.81-5.88,1.77-8.43-2.39-5.84-2-6.88,2.17-.25,4.23.63,5.36,3.84,8.17,4.64a19.14,19.14,0,0,0,8.69.15c2.13-.54,1.73,1,4.07-3.39s7.92-14.51,9.94-22.88,1.83-22.82,2.19-27.38" transform="translate(-67.52 -154.5)"/><path class="cls-1" d="M228.39,194c-1,.85-6.75,2.54-6.07,5.11s8.47,8.6,10.17,10.32" transform="translate(-67.52 -154.5)"/><path class="cls-1" d="M226.28,409.38c.19,1.61,2,6.44,1.11,9.66s-5.49,6.79-6.66,9.66-1.36,3.32-.37,7.55,5.24,14.84,6.29,17.81" transform="translate(-67.52 -154.5)"/><path class="cls-1" d="M244,426.59c-.62,2-3.95,8.4-3.7,11.77s3.76,5.54,5.18,8.46a94.33,94.33,0,0,1,3.33,9.05" transform="translate(-67.52 -154.5)"/><path class="cls-1" d="M224.81,575.6c-.39,2.17-2.86,9.58-2.34,13s3,5.71,5.45,7.71,5.42,3.15,9.08,4.32,8.76,1.57,12.88,2.73,8.8,2.21,11.86,4.24,5,5.58,6.52,7.94a15.59,15.59,0,0,1,2.71,6.26c.51,2.51,1.13,6.76.32,8.78s-2.65,2.52-5.2,3.35A34.39,34.39,0,0,1,256,635.58a124.57,124.57,0,0,1-18-.68c-5.17-.73-9-1.61-13-3.68s-8.51-6.2-11-8.76-2.77-3.06-3.73-6.61-1.68-12.23-2-14.68" transform="translate(-67.52 -154.5)"/><path class="cls-1" d="M212.93,578.61c-.86-2.47-3.57-9.87-5.19-14.83s-5-11-4.52-14.9,5.48-6.56,7.57-8.35a10.83,10.83,0,0,1,5-2.4c1.14-.32.67-.18,1.88.49s2.24,1.45,5.35,3.5,10.79,6,13.35,8.79,1.42,4.32,2,8.18S239.73,571.54,240,574" transform="translate(-67.52 -154.5)"/><path class="cls-1" d="M226.65,700.72c3.27.2,14.92,0,19.61,1.21s7,4,8.51,5.73,1.35,1.92.74,4.53a70.84,70.84,0,0,1-4.44,11.17c-1.11,2-1.36-.05-2.22.91s-.43,3.07-3,4.83-8,2.72-12.21,5.73-10.54,8.66-13.32,12.38-2.77,7.45-3.33,10-.74,1.56,0,5.13,2.22,11.17,4.44,16.3a65.76,65.76,0,0,0,8.88,14.49,35,35,0,0,0,10,8.46,90.65,90.65,0,0,0,15.54,7.24,23.42,23.42,0,0,0,9.25.91c2.09-.05,2,.25,3.33-1.21s4.25-4.53,4.44-7.55-1.36-7.09-3.33-10.56a40.51,40.51,0,0,0-8.51-10.27A32.7,32.7,0,0,0,250.7,775c-2.65-.81-3.82-.15-5.55.3s-4,1.06-4.81,2.42a7.3,7.3,0,0,0-.37,5.73c.68,1.81,2.71,3.73,4.44,5.13a20.08,20.08,0,0,0,5.92,3.33,13.65,13.65,0,0,0,5.92.6,1.79,1.79,0,0,0,1.11-2.42c-.31-.85-2.47-2.26-3-2.71" transform="translate(-67.52 -154.5)"/><path class="cls-1" d="M218.88,719.14c2.78-.21,11.9-1.26,16.65-1.21a65.6,65.6,0,0,1,11.84,1.51c2.71.5,2.1.1,4.44,1.51s7.64,3.57,9.62,6.94,2.83,9.61,2.22,13.28-3.64,6.4-5.92,8.76a27.71,27.71,0,0,1-7.77,5.43c-3.39,1.82-10.48,4.53-12.58,5.44" transform="translate(-67.52 -154.5)"/><path class="cls-1" d="M258.74,866.79c.06,1.16.2,2.34.33,7s1,15.51.47,20.88-3.05,9.07-3.63,11.4,1.75,1.56.19,2.58-6.8,2-9.59,3.53a37.52,37.52,0,0,0-7.12,5.5,12.9,12.9,0,0,0-2.89,3.88,6,6,0,0,0-.85,3.1c-.18,1.7-.89,4.71-.22,7.13s3,5.28,4.25,7.39.38,4.09,3.09,5.3,10,1.07,13.17,2,5.25,1.72,5.7,3.47-2.47,2.62-3,7a111.19,111.19,0,0,0-.28,19.33c.56,5.2,3,9.87,3.65,11.85" transform="translate(-67.52 -154.5)"/><path class="cls-1" d="M208.69,866c.3,3.66,1.72,14.73,1.79,21.94s-1.55,17.3-1.34,21.36,1.46,2.32,2.57,3.05,2.06-.39,4.09,1.31a75.05,75.05,0,0,1,8.12,8.9c1.86,2.47,3,3.76,3,5.87a8.93,8.93,0,0,1-2.61,6.79c-2.15,2.18-8.16,4.34-10.29,6.27s-2.16,2.73-2.48,5.36.78,6.42.59,10.44-1.62,8.54-1.73,13.66.9,14.18,1.08,17" transform="translate(-67.52 -154.5)"/><path class="cls-1" d="M236.71,1109.59c2.19.27,9.12.41,13.14,1.6s9.29,3.91,11,5.52-1.68,1.52-.89,4.17,3.41,4.47,5.62,11.73,6.36,26.53,7.63,31.84" transform="translate(-67.52 -154.5)"/><path class="cls-1" d="M264,1051.83c.86,1.58,4.84,6.41,5.15,9.47a9.87,9.87,0,0,1-3.31,8.94c-3,2.67-12.38,4.3-14.86,7.08s2.64,7.07,0,9.62-13.1,4.74-15.72,5.69" transform="translate(-67.52 -154.5)"/><path class="cls-1" d="M243.11,1237.88c.44,1.61,2.16,6.84,2.59,9.66s.87,3.77,0,7.24-4.19,10.22-5.18,13.59-1,4.68-.74,6.64.25,2.17,2.22,5.13,7.53,9.46,9.62,12.68,1.73,2.17,3,6.65,3.7,16.85,4.44,20.22" transform="translate(-67.52 -154.5)"/><path class="cls-1" d="M213.52,1233.35c-.13,1.46-1.24,5.89-.74,8.75s2.65,6.39,3.7,8.46-1.3-.1,2.59,3.92,17.26,16.86,20.71,20.23" transform="translate(-67.52 -154.5)"/><path class="cls-1" d="M224.58,1411c.39,2.06.48,8.8,2.32,12.38s6,5.87,8.74,9.06,5.88,8,7.59,10.08,3,.84,2.65,2.65-3.47,5.83-4.67,8.21-3,4.12-2.5,6.08,3.23,4.21,5.26,5.72,5.77,2.83,6.92,3.4" transform="translate(-67.52 -154.5)"/><path class="cls-1" d="M256.83,1400.12c1,2,4,7.69,5.94,11.73s4.88,7.57,5.79,12.5-.13,13.42-.36,17.07-.22,3.38-1,4.85-1.06,2.25-3.68,4-10,5.32-12.06,6.39" transform="translate(-67.52 -154.5)"/><path class="cls-1" d="M233,1696.42c-2.43-1-10.85-4.28-14.62-6s-5.87-2.71-8-4.38a20.14,20.14,0,0,1-4.93-5.65c-.61-1.31,1-.31,1.23-2.22s-1-7.34-.11-9.22-.71.46,5.37-2,25.92-10.88,31.1-13.05" transform="translate(-67.52 -154.5)"/><path class="cls-1" d="M239.77,1591.24c-1.65.7-7.26,2.58-9.88,4.2A16.93,16.93,0,0,0,224,1601c-1.8,2.6-4.18,6.87-4.91,10.12s.52,6.47.56,9.37-.89,5.81-.33,8a10.31,10.31,0,0,0,3.7,5.38c1.51,1.13.42,1.13,5.4,1.4s19.5.63,24.48.22,2.64-1.19,5.42-2.69,8.43-3.87,11.23-6.27a17.14,17.14,0,0,0,5.56-8.14c.94-3.07.55-6.4,0-10.31s-1.43-10.2-3.08-13.13-4.52-3.46-6.81-4.5-5.78-1.48-6.93-1.77" transform="translate(-67.52 -154.5)"/><path class="cls-1" d="M224.64,1878.87c-2.48-1.61-11.92-5.38-14.88-9.67s-2.9-10.64-2.88-16.09,1.89-12.28,3-16.65,1.33-5.62,3.76-9.55,7.73-11.38,10.8-14" transform="translate(-67.52 -154.5)"/><path class="cls-1" d="M253.55,1756.64c.19,2.17,2.1,9.06,1.11,13s-4.51,8.28-7,10.65-3.57,2.23-8.13,3.58-15.36,3.18-19.24,4.53-3.39,2.29-4.07,3.59-2.09,3.27,0,4.23,8.7,1.63,12.58,1.53a39.08,39.08,0,0,0,10.73-2.13c3.7-1.1,6.78-1.74,11.47-4.49s12.88-8.41,16.64-12,4.63-5.65,5.92-9.69,1.55-12.11,1.86-14.53" transform="translate(-67.52 -154.5)"/><path class="cls-1" d="M261.24,1933.77c-1.72.81-7.77,3.27-10.36,4.83s-3.33,2.67-5.18,4.53a43.21,43.21,0,0,0-5.92,6.64,29,29,0,0,0-3.7,8.46c-.8,3.17-2,5.78-1.11,10.56s5.25,15.1,6.29,18.12" transform="translate(-67.52 -154.5)"/><path class="cls-1" d="M236.08,2046.38c-1.72-.85-7.83-3.57-10.35-5.13a13.67,13.67,0,0,1-4.81-4.23,83.62,83.62,0,0,1-7.4-10.56c-1.24-2.47-.19-2.72,0-4.23a13.91,13.91,0,0,1,1.11-4.83c.8-1.56-.06-.91,3.7-4.53s15.72-14.34,18.86-17.21" transform="translate(-67.52 -154.5)"/><path class="cls-1" d="M213.7,2111.09c1.59.59,8.85,2,9.54,3.54s-3.73,2.25-5.42,5.36-7.59,8.67-4.73,13.29,14.6,12.18,21.9,14.45a33.11,33.11,0,0,0,21.93-.83c6.71-2.69,14.87-12.13,18.34-15.34s2.54-2.34,2.47-3.95-.71-3.46-2.88-5.7-9.54-6.4-10.12-7.73,4.76.17,6.62-.2a19.22,19.22,0,0,0,4.51-2" transform="translate(-67.52 -154.5)"/><path class="cls-1" d="M240.54,2189.81c2.58-.9,11.47-4.25,15.5-5.39s6.46-1.69,8.64-1.48,3.35,2,4.49,2.74,4.51-1.92,2.32,1.82-11.56,16-15.45,20.63-5.06,5.29-7.88,7-8.75,2-9,3.18,5.71,2.35,7.48,3.93,2.61,4.61,3.14,5.53" transform="translate(-67.52 -154.5)"/><path class="cls-1" d="M385.85,201.06c4.36-.6,6.18-1.94,9.6-4a60.71,60.71,0,0,0,10.95-8.26,13.27,13.27,0,0,0,3.44-7.11c.43-2.13-.72-4.7-.86-5.63" transform="translate(-67.52 -154.5)"/><path class="cls-1" d="M381.13,207.31c1.78-.34-.93-.55-.62-1.08s1.84-6,2.47-2.07,2.12,20.63,1.3,25.83-7,2.4-6.18,5.34,7.89,7.44,11.15,12.3,6.55,13.53,8.4,16.86,1.65.83,2.69,3.1,2.94,8.76,3.53,10.51" transform="translate(-67.52 -154.5)"/><path class="cls-1" d="M336.45,265.64" transform="translate(-67.52 -154.5)"/><path class="cls-1" d="M358.36,393c-.8-1.76-3.95-6.69-4.81-10.57s-.62-9.61-.37-12.68.31-3.62,1.85-5.73a30.32,30.32,0,0,1,7.4-6.95,37.28,37.28,0,0,1,9.62-3.62c2.16-.5,1.85-.25,3.33.61a21,21,0,0,1,5.55,4.52,12,12,0,0,1,2.22,6,28.08,28.08,0,0,1,.37,10.87c-.81,6.19-4.44,19.47-5.18,26.27s-.93,8.6.74,14.49,7.21,16.75,9.25,20.83,1.35,2.36,3,3.62a75.53,75.53,0,0,0,6.65,3.93" transform="translate(-67.52 -154.5)"/><path class="cls-1" d="M351.33,338.65c-.25,1.31-1.36,5.89-1.48,7.85s.25,2.31.74,3.92.49,3.17,2.22,5.74a89.44,89.44,0,0,0,8.14,9.66c2.34,2.36,2.22,2.52,5.92,4.53s12,5.79,16.28,7.55a48.25,48.25,0,0,0,9.62,3c3.45.75,9.24,1.25,11.09,1.5" transform="translate(-67.52 -154.5)"/><path class="cls-1" d="M365.45,534.43c1.61.58,7.55,2,9.66,3.52s2.51,2.2,3,5.52a64.56,64.56,0,0,1-.26,14.39c-.63,5.93-5,14-3.53,21.17s9,15.89,12.52,21.82,5.91,10.14,8.78,13.77,6.29,5.29,8.42,8,3.62,6.94,4.35,8.32" transform="translate(-67.52 -154.5)"/><path class="cls-1" d="M356.65,550.28c.13-1,.66-4.79.79-5.75" transform="translate(-67.52 -154.5)"/><path class="cls-1" d="M351.51,695c-1.11,2.52-5.79,11.17-6.66,15.1s.44,5.94,1.48,8.45a21.84,21.84,0,0,0,4.81,6.64,24.68,24.68,0,0,0,6.29,4.53,26.85,26.85,0,0,0,8.14,3,44.66,44.66,0,0,0,11.1.3,58.23,58.23,0,0,0,11.1-2.41,7.9,7.9,0,0,0,4.07-2.72c1.3-1.26,2.84-1.91,3.7-4.83s2.16-8.35,1.48-12.68-3.88-10.47-5.55-13.28-3.7-3-4.44-3.63" transform="translate(-67.52 -154.5)"/><path class="cls-1" d="M353.36,811.22c-1-1.46-4-4.48-5.92-8.76a126.36,126.36,0,0,1-5.54-16.91,52.25,52.25,0,0,1-1.85-12.37,27.55,27.55,0,0,1,1.48-10,88.67,88.67,0,0,1,5.91-14.79,72.56,72.56,0,0,1,9.25-13.89,138.41,138.41,0,0,1,15.17-14.79c3.76-3,5.68-2.67,7.4-3s2.41.1,3,.91,2.53-.31.37,3.92-11.22,16.2-13.32,21.44-.49,6.64.74,10a24,24,0,0,0,6.66,10c3.89,3.68,12.7,8.61,16.65,12.08s5.24,6,7,8.75a33.73,33.73,0,0,1,3.7,7.55,20,20,0,0,1,1.48,7c.18,3.32-.31,10.81-.37,13" transform="translate(-67.52 -154.5)"/><path class="cls-1" d="M343.49,980.59c1.16-2,5.42-7.68,7-11.66s-1.43-7.38,2.35-12.19,14-13,20.33-16.64,14.12-3.56,17.54-5.36,2.47-4.54,3-5.45" transform="translate(-67.52 -154.5)"/><path class="cls-1" d="M344.51,898.11c.46,2.2,2.12,9.77,2.79,13.21s-.2,6.1,1.24,7.45,4.27.54,7.4.65,7.28.73,11.4.05a74.8,74.8,0,0,0,13.33-4.14c2.87-1.19,2.07-1.19,3.88-3s5-5.52,6.95-8,4.25-4.14,4.52-6.86-1.45-6.78-2.91-9.47-4.32-4.67-5.8-6.64-.89-3.92-3.1-5.22-6.85-2.1-10.17-2.57a38.61,38.61,0,0,0-9.74-.25c-3,.35-7,2-8.41,2.37" transform="translate(-67.52 -154.5)"/><path class="cls-1" d="M385.87,1113.57a32.87,32.87,0,0,1,9.57,3.5c2.74,1.51,6,3.47,6.86,5.52s-.64,4.81-1.75,6.77-.65,3.7-4.9,5-15.4,1.49-20.6,2.84-7.33,3.23-10.61,5.22-8.55,4.14-9,6.67,4.22,5.84,6.2,8.51,3.65,5.61,5.7,7.5,3,2.92,6.63,3.79a65.59,65.59,0,0,0,14.88,1.43c4.73-.17,11.28-2,13.54-2.41" transform="translate(-67.52 -154.5)"/><path class="cls-1" d="M341.36,1172.44c-.68-2.11-3.71-8.26-4.1-12.64s1.39-8.82,1.8-13.65-1-11.52.68-15.3,5.6-4.88,9.26-7.34,9.77-6,12.69-7.44,2.68-1,4.84-1.51a47.12,47.12,0,0,1,8.1-1.29" transform="translate(-67.52 -154.5)"/><path class="cls-1" d="M355.77,1231.66c-1,.84-4.23,3-5.74,5s-3.13,4.81-3.3,7.19A11.14,11.14,0,0,0,349,1251c1.59,2.23,5,4.77,7.23,6.31a16.52,16.52,0,0,0,6.18,3c3,.84,6.93,2.74,11.67,2.11s13.7-5.4,16.73-5.87.15,1.88,1.45,3.07,4.86,1.85,6.39,4a19.24,19.24,0,0,1,2.8,9.18c0,2.89-1.63,6-2.55,8.14a13.61,13.61,0,0,1-2.93,4.5,29.32,29.32,0,0,1-4.9,4c-1.24.77-.61.49-2.56.57a73.64,73.64,0,0,1-9.16-.06c-1.92-.28-2-1.36-2.37-1.63" transform="translate(-67.52 -154.5)"/><path class="cls-1" d="M365.06,1302.68c-1.17,1.26-5.49,5.51-7,7.54a11.54,11.54,0,0,0-2.23,4.67,18.28,18.28,0,0,0-1.11,6.06c.13,2,.56,4.63,1.86,6s3.45,1.66,5.92,2.11a76.17,76.17,0,0,0,8.88.6,79.22,79.22,0,0,0,10,.32c3.46-.25,8.95-1.52,10.73-1.82" transform="translate(-67.52 -154.5)"/><path class="cls-1" d="M381.38,1454.24c-2.21-.75-9.78-3-13.29-4.52a27.85,27.85,0,0,1-7.75-4.84c-2.25-2-5.43-4.57-5.76-6.91s2.08-4.75,3.75-7.14a55.7,55.7,0,0,1,6.28-7.21c1.77-1.67,2.13-1.41,4.35-2.78s4.24-3.92,9-5.45,16.12-3.09,19.34-3.71" transform="translate(-67.52 -154.5)"/><path class="cls-1" d="M385.12,1431.31c-.18,1.55,1.74,5.15-1.07,9.31s-12.9,11.79-15.78,15.63-.38,5.35-1.48,7.46-4.53,3.23-5.12,5.2.27,4.37,1.58,6.59,3.2,5.22,6.27,6.68,9,.85,12.1,2.12a13.29,13.29,0,0,1,6.61,5.51,27.38,27.38,0,0,1,4.34,10.6c1,4.85,1.31,15.4,1.57,18.48" transform="translate(-67.52 -154.5)"/><path class="cls-1" d="M354.05,1603.89c1.73,0,7.15-.61,10.36,0s6.72,3,8.88,3.62-.62.4,4.07.3,22.07-1.56,24.05-.9-6.6,3.27-12.21,4.83a206.25,206.25,0,0,1-21.46,4.52c-5.3.71-8.63-.25-10.36-.3" transform="translate(-67.52 -154.5)"/><path class="cls-1" d="M343.74,1697.46c.07-1.66-.67-5.38.37-10A127.4,127.4,0,0,1,350,1670c2.29-5.43,3.83-9.66,7.77-15.1s9.31-11.12,15.91-17.51" transform="translate(-67.52 -154.5)"/><path class="cls-1" d="M368.86,1777.05c.18,1.46,1.29,6,1.11,8.77a24.86,24.86,0,0,1-2.22,7.58c-.93,2.22-1.36,3.74-3.33,5.74s-6.54,4.54-8.51,6.3a10.2,10.2,0,0,0-3.33,4.24,42,42,0,0,0-3.33,9c-.49,2.67-.56,2.33.37,7s4.31,17.37,5.18,20.85" transform="translate(-67.52 -154.5)"/><path class="cls-1" d="M375,1792.52c.06,1.56.17,6.61.38,9.34s1.51,3.87.91,7-3.17,9.05-4.46,11.73-3.33,2.7-3.26,4.35,2.49,3.37,3.68,5.54,1.4,4.09,3.44,7.51,6.62,9.08,8.8,13,3.79,7.2,4.28,10.63-1.12,8.31-1.34,10" transform="translate(-67.52 -154.5)"/><path class="cls-1" d="M358.1,1991.38c1.25,1.94,5.43,7.27,7.52,11.6s3.06,10.55,5.06,14.39,8.54,5.33,6.94,8.65-13.05,9.09-16.48,11.25-3.07.51-4.12,1.7-4.53,2.13-2.18,5.47,13.56,12.14,16.27,14.57" transform="translate(-67.52 -154.5)"/><path class="cls-1" d="M358.45,1947.35c2.25.9,9.95,1.93,13.53,5.42s6.57,10.91,7.94,15.5,1.44,8.32.29,12.06-5.95,7.84-7.17,10.44-.89,3.89-.19,5.17,3.31,2.21,4.42,2.51.72-.14,2.25-.7,4.82-1.17,6.88-2.63,3.52-1.42,5.49-6.11,5.78-15.52,6.37-22a35.9,35.9,0,0,0-2.81-16.86c-1.87-4.57-7-8.8-8.42-10.56" transform="translate(-67.52 -154.5)"/><path class="cls-1" d="M343.86,2140.84c4.39-.85,19-4.66,26.33-5.07s14.52,2.2,17.42,2.65" transform="translate(-67.52 -154.5)"/><path class="cls-1" d="M359.41,2215.81c2.07-6.55,10.1-30.68,12.43-39.32s.51-9,1.54-12.52a24.54,24.54,0,0,1,4.63-8.31c1.29-1.42,3.06-4,3.1-.23s-2.4,15.53-2.88,23a202.24,202.24,0,0,0,0,21.68c.29,4.8.22,5,1.75,7.12s5.59,3.68,7.38,5.28,2.7,2.18,3.34,4.34.41,7.17.49,8.6" transform="translate(-67.52 -154.5)"/><path class="cls-1" d="M507,172.74c0,3.22,1.41,9.89.25,12.9-.42,1.1-3.07,2.27-3.22,3.43-.17,1.31,2.33,3.32,2.54,4.63.29,1.82-1.66,5.44-1.36,7.26.21,1.26,1.89,3.36,1.95,4.72s-1.56,2.26-1.59,3.45,1.24,1.93,1.41,3.68a56.19,56.19,0,0,1-.4,6.82" transform="translate(-67.52 -154.5)"/><path class="cls-1" d="M482.71,284.26c1-1.46,5.36-6.26,6.13-8.8s-2.19-5-1.47-6.42,4.62-.47,5.85-2,1.53-5.18,1.54-7-2.13-2.29-1.51-3.92,4.47-3.45,5.23-5.83-1.1-6.54-.65-8.45,2.55-1.43,3.37-3,.1-3.73,1.54-6.44,5.92-8.15,7.1-9.78" transform="translate(-67.52 -154.5)"/><path class="cls-1" d="M513.37,346.28c.87,1.26,4.51,4.63,5.18,7.55s-.43,7.55-1.11,10-.8,3.17-3,4.53-7.7,2.42-10,3.62-2.35,1.11-3.7,3.63A77.63,77.63,0,0,0,496.36,387a16.38,16.38,0,0,0-.74,6.64c.12,2.26-.31,2.72,1.48,6.94A186.48,186.48,0,0,0,506.35,419c2.52,4,2.52,3.12,5.91,5.74s10.92,7.14,14.43,10a50.4,50.4,0,0,1,6.66,6.94" transform="translate(-67.52 -154.5)"/><path class="cls-1" d="M480.82,434.44c.61,1.51,1.42,6.79,3.7,9.05s7,3.83,10,4.53,5.67.15,8.14-.3a24,24,0,0,0,6.65-2.41,8.59,8.59,0,0,0,3.33-3,39.86,39.86,0,0,0,2.59-5.14" transform="translate(-67.52 -154.5)"/><path class="cls-1" d="M472,515.26c.72,2.9,2.56,12.65,4.3,17.37s2.06,6.17,6.17,11,14.32,14.06,18.46,17.87,4,3.94,6.43,5,6.91,1.1,8.29,1.32" transform="translate(-67.52 -154.5)"/><path class="cls-1" d="M537.64,522.6c-3.36,6.84-12.54,26.79-20.18,41.06s-21.37,37.08-25.65,44.5" transform="translate(-67.52 -154.5)"/><path class="cls-1" d="M479.64,814.36a48.07,48.07,0,0,1,2.71-10.28c2.3-6,6.41-17.28,11.12-25.73s13.26-21.64,17.09-25,2.47.7,5.91,5.1,11.21,15.52,14.74,21.29a59.38,59.38,0,0,1,6.46,13.28c2.16,5.74,5.41,17.61,6.49,21.13" transform="translate(-67.52 -154.5)"/><path class="cls-1" d="M488.94,689.53c-1.41.85-7.07,3.42-8.48,5.08s-.46,3.72,0,4.87.17,1.75,2.63,2a63.2,63.2,0,0,0,12.17-.49c4.36-.6,9.94-2.92,14-3.11a24.34,24.34,0,0,1,10.38,2,14.88,14.88,0,0,1,5.94,4.75c.93,1.34-.06,2.6-.37,3.31s-1.24.79-1.49.95" transform="translate(-67.52 -154.5)"/><path class="cls-1" d="M506.09,889.08c-.52,1.42-2.79,5.5-3.14,8.51s-.49,7.74,1,9.54,5.78,1.52,8.11,1.27,4.42-1.8,5.87-2.77a14,14,0,0,0,2.82-3.07" transform="translate(-67.52 -154.5)"/><path class="cls-1" d="M520.53,933.1c-2.67,2-12.87,9-16.06,11.89s-2.53,3-3.06,5.52a22.62,22.62,0,0,0-.16,9.81c.85,4.34,4.36,13.54,5.23,16.25" transform="translate(-67.52 -154.5)"/><path class="cls-1" d="M520.56,1051.35c.63,2.26,4.05,9.74,3.79,13.53s-3.81,4.86-5.37,9.19-1.55,12.11-4,16.78" transform="translate(-67.52 -154.5)"/><path class="cls-1" d="M474.2,1168.35c3.08-.71,13.57-1.93,18.46-4.25a28.59,28.59,0,0,0,10.88-9.65c1.6-2.72-1.38-2.62-1.25-6.64s2.13-12.18,2-17.46-2.27-11.85-2.73-14.22" transform="translate(-67.52 -154.5)"/><path class="cls-1" d="M473.15,1263.36c1.54-.4,6.72-2,9.27-2.42a17,17,0,0,1,6,.17c2.66.35,7.22.62,9.95,1.91s5.2,1.77,6.47,5.82,1.83,14,1.12,18.48-2.89,6.16-5.4,8.15-6.65,3.11-9.63,3.8a27.52,27.52,0,0,1-8.25.34,46.36,46.36,0,0,1-6.6-1.26" transform="translate(-67.52 -154.5)"/><path class="cls-1" d="M474.88,1233.19c1.59-1,6.54-4.52,9.56-5.79a24.38,24.38,0,0,1,8.56-1.86,57,57,0,0,1,9.61.67c2.4.3,1.32-.18,4.8,1.13s12.34,3.13,16.05,6.73,4.63,10.62,6.21,14.84,2.49,2.78,3.24,10.51.76,26.88,1.24,35.86,2.61,13.63,1.6,18-4.22,4.62-7.65,8.39-9.69,11-12.88,14.21-3.32,4.08-6.23,5-7.82.6-11.22.72-6.68,0-9.18,0-4.14.92-5.79-.05-3.41-4.83-4.1-5.8" transform="translate(-67.52 -154.5)"/><path class="cls-1" d="M518.18,1405.37c.37,1.41,2.47,5.18,2.22,8.45s-2.34,8.66-3.7,11.17-2.28,2.57-4.44,3.93a37.24,37.24,0,0,1-8.5,4.22c-3.64,1.21-11.1,2.52-13.32,3" transform="translate(-67.52 -154.5)"/><path class="cls-1" d="M479,1520.09c1.17-.9,5.24-3.72,7-5.43s2.22-1.06,3.7-4.83a178.86,178.86,0,0,0,5.18-17.81c.86-4,.67-2.22,0-6s-1.79-11.07-4.07-16.91-8.08-14.79-9.62-18.11,0-1.41.37-1.81a1.46,1.46,0,0,1,1.85-.61c1.23.3,4.31,1.16,5.55,2.42s.3,3.27,1.85,5.13a20.75,20.75,0,0,0,7.4,6c4.13,2.11,13.07,4.22,17.38,6.64s5.68,3.47,8.51,7.85,6.85,13.89,8.51,18.42,1.42,4.83,1.48,8.75-.92,12.33-1.11,14.79" transform="translate(-67.52 -154.5)"/><path class="cls-1" d="M480.52,1698.48c-.74-2.72-3.83-12.49-4.44-16.36s-1.05-2.69.79-6.83,6.92-14.3,10.21-18,4.86-2.82,9.48-4.13,13.83-3.59,18.25-3.74,6.6,2.09,8.24,2.86-.8-.66,1.57,1.77,9.94,8.26,12.64,12.8,3.46,8.58,3.56,14.45-2.45,17.32-2.94,20.78" transform="translate(-67.52 -154.5)"/><path class="cls-1" d="M500.85,1594.57c.52,5.53,3.17,23.09,3.1,33.19s-3.92,21.25-3.56,27.38,4.74,7.38,5.73,9.39.16,2.26.19,2.71" transform="translate(-67.52 -154.5)"/><path class="cls-1" d="M509.09,1874c-1.15-1.52-4-5.82-6.89-9.09s-8.62-8-10.49-10.5-.71-2.87-.71-4.59-.92-2.92.69-5.73,7.51-9.25,9-11.1" transform="translate(-67.52 -154.5)"/><path class="cls-1" d="M479.9,1767.59c1.34.29,5.84.84,8,1.73s3.38,1.11,5.19,3.57a49.26,49.26,0,0,1,5.68,11.15c1.24,3.66,1.44,9,1.73,10.79" transform="translate(-67.52 -154.5)"/><path class="cls-1" d="M499.5,2004.42c2.53,3.67,12.46,17.76,15.17,22s4.5,1.36,1.11,3.62-15.54,6.74-21.46,10a106,106,0,0,0-14.06,9.36c-3,2.32-3.08,3.78-3.7,4.53" transform="translate(-67.52 -154.5)"/><path class="cls-1" d="M481,2025c.31-3.93.37-14.59,1.85-23.55s5.18-23.35,7-30.19.8-11.17,4.07-10.87,11.41,10.11,15.54,12.68a16.87,16.87,0,0,0,9.25,2.72,9.48,9.48,0,0,0,5.92-1.51,15.1,15.1,0,0,0,4.81-4.53,10.05,10.05,0,0,0,1.85-5.74c.12-2.66.49-7.34-1.11-10.26s-7.09-6-8.51-7.25" transform="translate(-67.52 -154.5)"/><path class="cls-1" d="M503.57,2230.39c-2.16-1.91-9.8-7.9-12.95-11.47a31.6,31.6,0,0,1-5.92-10c-1.11-2.92-1.42-4.48-.74-7.55s2.78-8.3,4.81-10.87,4.63-3.27,7.4-4.53a94.66,94.66,0,0,1,9.25-3" transform="translate(-67.52 -154.5)"/><path class="cls-1" d="M483.22,2116c-.31,3.83-2.09,17.16-1.85,23a23.33,23.33,0,0,0,3.33,11.77c1.73,3.12,4.81,5.44,7,6.95s3.82,1.66,6.29,2.11a38.66,38.66,0,0,0,8.51.6,45.37,45.37,0,0,0,8.88-1.51c2.34-.65,3-.4,5.18-2.41a59.16,59.16,0,0,0,7.77-9.66c1.72-2.87,1.72-1.76,2.59-7.55s2.16-22.64,2.59-27.17" transform="translate(-67.52 -154.5)"/><path class="cls-1" d="M619.55,172.71c1.9,1.89,5.86,4.21,11.4,11.35-15.91,11.23-2,28.14,21.88,31.52,4.81,7,4.67,6.72,7,10.54s1.39,10.46,7.08,12.41c33,11.33,18.61,18.41,6.68,21,2.2,5.23,5.47,8.64,6.56,10.37" transform="translate(-67.52 -154.5)"/><path class="cls-1" d="M628.72,273.32c.79-2.51,1.93-8.87,4.76-15.06s9.85-17.78,12.22-22.1.33.7,1.95-3.79,6.4-17.08,7.82-23.13,2.92-4.72.67-13.15,24.58-20.17,22.21-26.41" transform="translate(-67.52 -154.5)"/><path class="cls-1" d="M608.54,334.81c-.26,3-1.79,13.57-1.55,17.79s1.29,5.38,3,7.5a22.18,22.18,0,0,0,7.42,5.19c2.71,1.27,5.67,1.65,8.84,2.43s6.18,2.08,10.19,2.22,9,.41,13.88-1.4,12-6.69,15.5-9.45,4.3-3.11,5.66-7.14,2.1-14.17,2.52-17" transform="translate(-67.52 -154.5)"/><path class="cls-1" d="M607.17,461.27c-.35-3.63-2.57-14.44-2.11-21.77s2.86-16.43,4.86-22.24,4.69-9.19,7.15-12.68,4.1-5.64,7.6-8.25,9.53-5.6,13.35-7.45a52.9,52.9,0,0,1,9.54-3.67,47.36,47.36,0,0,1,9.07-1.52,55.43,55.43,0,0,1,9.4,0,16.53,16.53,0,0,1,6.58,1.7,7.14,7.14,0,0,1,3.07,4.17c.52,1.7.94,4.3.08,6s-3.37,3.18-5.23,4.15-2.34-.3-5.93,1.7A154,154,0,0,0,649,411.74c-3.47,2.82-4.47,4.45-5.22,6.61s-.88,3.07.77,6.36a70.61,70.61,0,0,0,9.16,13.38c4.19,4.8,12.64,11.52,16,15.4s3.29,6.59,4,7.91" transform="translate(-67.52 -154.5)"/><path class="cls-1" d="M634.81,637.56c-1.36-1.84-5.7-7.59-8.15-11.07s-4.87-6.9-6.54-9.79-4.14-4.5-3.45-7.57,5-8.27,7.57-10.86,5.26-3.41,7.85-4.64a74.92,74.92,0,0,1,7.69-2.76" transform="translate(-67.52 -154.5)"/><path class="cls-1" d="M621.15,516.47c-.13,4-.72,18.48-.81,24.09s-.35,6.82.22,9.59a22.86,22.86,0,0,0,3.18,7.05c1.13,1.86.79,3.72,3.59,4.12s9.43-1.2,13.22-1.74,7-.85,9.48-1.49,3.84-.42,5.57-2.38,3.53-6.55,4.8-9.39,2-1.85,2.82-7.61,1.71-22.49,2-27" transform="translate(-67.52 -154.5)"/><path class="cls-1" d="M645.64,694.08c.86,1,4.07,4.63,5.18,6.34a8.3,8.3,0,0,1,1.48,3.92,17.11,17.11,0,0,1,.37,5.74c-.31,2.31-.74,5.68-2.22,8.15s-2,4.63-6.66,6.64-18.5,3.67-21.09,5.44,2,.75,5.55,5.13,11.65,13.79,15.91,21.13,6.53,16.76,9.62,22.95,7.4,11.82,8.88,14.19" transform="translate(-67.52 -154.5)"/><path class="cls-1" d="M666.36,764.12A79.88,79.88,0,0,1,660.81,775c-3.33,5.23-10.79,16.15-14.43,20.53s-2.9,3.17-7.4,5.73-16.34,8-19.61,9.67" transform="translate(-67.52 -154.5)"/><path class="cls-1" d="M643.72,902.4c-.81,7.54-4.08,37.69-4.89,45.23" transform="translate(-67.52 -154.5)"/><path class="cls-1" d="M617.19,996.44c.32-3.54.84-15.67,1.93-21.22s3.18-9.1,4.62-12.11,1.66-4.32,4-6a25.44,25.44,0,0,1,9.93-4,34.06,34.06,0,0,1,11.29.8c2.77.68,3.43,1.58,5.36,3.27s4.72,3.38,6.2,6.9,1.36,9,2.65,14.22,4.25,14.28,5.1,17.13" transform="translate(-67.52 -154.5)"/><path class="cls-1" d="M631.14,1101.11a55,55,0,0,0-1.11,9.06c-.06,4.38.62,14.34.74,17.21" transform="translate(-67.52 -154.5)"/><path class="cls-1" d="M671.72,1058.09c.12,2.87,1,12,.74,17.21a65.21,65.21,0,0,1-2.22,13.89c-.92,3-1.54,2.72-3.33,4.22a47.56,47.56,0,0,1-7.4,4.84,25.19,25.19,0,0,1-7,2.71c-3.82,1-13.56,2.62-15.91,3.32s1.54.76,1.85.91" transform="translate(-67.52 -154.5)"/><path class="cls-1" d="M648.23,1236.15c2.4,2.26,10.91,9.41,14.43,13.59s5.11,8.35,6.66,11.47a26.94,26.94,0,0,1,2.58,7.24,10,10,0,0,1,0,5.74c-.67,2.21-2.21,5.79-4.06,7.55a11.75,11.75,0,0,1-7,3c-3,.4-7.34,0-11.1-.61a67,67,0,0,1-11.47-2.71c-3.09-1.11-5-3.12-7-3.93a10.69,10.69,0,0,0-5.18-.9,20.74,20.74,0,0,0-6.66,1.51c-1.91.85-4,3-4.81,3.62" transform="translate(-67.52 -154.5)"/><path class="cls-1" d="M626.77,1287.17c-.56,1.21-3.15,5-3.33,7.25s1.11,4.53,2.22,6.34,1.05,2.62,4.44,4.53,12.15,4.88,15.91,6.94a19,19,0,0,1,6.66,5.44,22.16,22.16,0,0,1,4.44,7.54,10.27,10.27,0,0,1-.74,6.64c-.87,2.12-1.48,4.23-4.44,6a46.82,46.82,0,0,1-13.32,4.83c-4.38.81-9.62.2-13,0s-4.81-.35-7-1.2-5.24-3.27-6.29-3.93" transform="translate(-67.52 -154.5)"/><path class="cls-1" d="M617.81,1406c.19,1.57-.15,6,1.15,9.39a46.19,46.19,0,0,0,6.67,10.82,39.54,39.54,0,0,0,8.12,7.32c3,2.1,8,4.36,9.61,5.23" transform="translate(-67.52 -154.5)"/><path class="cls-1" d="M617.3,1493.22c.15-1.86-.23-7.12.92-11.14a67.06,67.06,0,0,1,6-13c1.82-3,1.27-4.18,5-5.2s14.32-.74,17.19-.89" transform="translate(-67.52 -154.5)"/><path class="cls-1" d="M629.57,1625.53c3.8.21,12.19,2.93,15.9,5.06s2.55,4.85,6.36,7.75,12.84,6.11,16.49,9.69a18.29,18.29,0,0,1,5.45,11.74,8.85,8.85,0,0,1-4.71,8.49c-3.42,1.77-12.56.5-15.81,2.17s-2,6-3.71,7.84-4.93,1.68-6.27,3-5.52,3.12-1.79,4.91,20.11,4.86,24.13,5.83" transform="translate(-67.52 -154.5)"/><path class="cls-1" d="M625.66,1655.24c3.93-1.31,14.53,1.13,11.91-2.8" transform="translate(-67.52 -154.5)"/><path class="cls-1" d="M627.11,1866.14c-1.45-3.52-7.44-16.7-8.68-21.14s.42-3.59,1.23-5.51a16.11,16.11,0,0,1,3.63-6.06c2-1.88,3.62-3.1,8.37-5.25s16.77-6.37,20.12-7.64" transform="translate(-67.52 -154.5)"/><path class="cls-1" d="M641.19,1756.83c-.92,1.71-4.52,7-5.53,10.28a16.55,16.55,0,0,0-.56,9.41c.81,3.29,2.4,7.48,5.41,10.36s7.9,4.76,12.65,6.91,13.18,5,15.81,6" transform="translate(-67.52 -154.5)"/><path class="cls-1" d="M620.11,1944.73c4.25-.76,19.61-4.08,25.53-4.53s5.24-1.51,10,1.81,16.52,11.37,18.49,18.11-2,18-6.65,22.34-15.05,4-21.09,3.93-10.18-1.16-15.17-4.53-11.41-11.62-14.8-15.7-4.62-7.3-5.55-8.75" transform="translate(-67.52 -154.5)"/><path class="cls-1" d="M613.45,2054c4.38.15,20.35.9,26.27.9s5-.1,9.25-.9,11.59-1.26,16.28-3.93,10.35-7.25,11.83-12.08-1.11-11.82-3-16.9a41.38,41.38,0,0,0-8.13-13.59c-3.21-3.37-6.6-4.33-11.1-6.64s-10.12-4-15.91-7.25a202.35,202.35,0,0,1-18.87-12.07c-4.19-3.17-5.24-5.79-6.29-7" transform="translate(-67.52 -154.5)"/><path class="cls-1" d="M618.58,2133.89c2.44-.76,10.37-3.12,14.64-4.57s4-2.46,11-4.1,24.93-4.83,30.7-5.72,5.73-2.07,4,.38a86.34,86.34,0,0,1-14.53,14.32c-6.58,5-19,12-25,15.82s-8.79,5.73-10.55,6.88" transform="translate(-67.52 -154.5)"/><path class="cls-1" d="M650.22,2135.24c.38,2.45-.4,8,2.25,14.73s11,18.65,13.67,25.4,2.09,9.83,2.58,15.12a132.24,132.24,0,0,1,.37,16.61c-.24,3.61.34,2.24-1.82,5.05s-7.28,9.08-11.11,11.81-6.44,3.49-11.86,4.59a143.7,143.7,0,0,1-20.68,2c-4.24,0-3.26-1-4.8-2.13a22.64,22.64,0,0,1-4.42-4.85,20.65,20.65,0,0,1-2.64-5.35c-.44-1.5-1-1.14,0-3.66s3.9-8.73,6.3-11.49a17.27,17.27,0,0,1,8.11-5.08c2.9-1,7.12-.71,9.28-.67a7.12,7.12,0,0,1,3.69.92c1.11.46,1.89.5,2.94,1.86s4.27,3.84,3.35,6.3-5.8,6.65-8.88,8.46-8,2-9.62,2.41" transform="translate(-67.52 -154.5)"/><path class="cls-1" d="M779,240.46c1.25,3.58,5.3,16.75,7.53,21.5a15.39,15.39,0,0,0,5.87,7c1.26.95.54-.94,1.69-1.27s2.89-.14,5.23-.71,6.84-1.21,8.82-2.72,3.5-3.1,3-6.36-4.84-11-5.81-13.16" transform="translate(-67.52 -154.5)"/><path class="cls-1" d="M743.91,172.73c.45,3.14,1,13.72,2.68,18.84s5.64,9.37,7.48,11.89,1.62,3.15,3.56,3.23,6.42-2.25,8.12-2.75,1.18.61,2.09-.23a46.86,46.86,0,0,0,3.37-4.85" transform="translate(-67.52 -154.5)"/><path class="cls-1" d="M749.13,369.72c2.51-.66,10.5-3.63,15.08-4s6.54,1.12,12.42,1.87,17.34,1.72,22.85,2.67a53.38,53.38,0,0,1,10.18,3" transform="translate(-67.52 -154.5)"/><path class="cls-1" d="M748.21,456.42c1-3.52,4-15.35,5.93-21.14s4.34-9,5.58-13.6-.88-6.28,1.83-14.18,11.83-27.32,14.42-33.2.54-1.66,1.1-2.11.65-2.74,2.26-.63a92,92,0,0,1,7.38,13.29c1.48,3.58.28,4.55,1.46,8.17s2.63,2.59,5.6,13.56S804,450.1,806,458.8" transform="translate(-67.52 -154.5)"/><path class="cls-1" d="M760.51,518.52c4.07,5,18,20.73,24.42,30.19s12,22.14,14.43,26.57" transform="translate(-67.52 -154.5)"/><path class="cls-1" d="M753.11,528.78c.13,1.51-.55,2.52.74,9.06s5.74,23.15,7,30.19.19,8.61.74,12.08-.55,1.66,2.59,8.75,12,26,16.28,33.82,8,10.81,9.62,13" transform="translate(-67.52 -154.5)"/><path class="cls-1" d="M771.75,747c-1.56,2.67-7.34,11.11-9.36,16a36.1,36.1,0,0,0-2.76,13.22,7.7,7.7,0,0,0,3,6c1.36,1.25,3.63,1.21,5.14,1.48s2,.78,3.9.16,4.74-1.31,7.28-3.89,4.93-6.11,8-11.58,8.26-16.41,10.13-21.24.88-6.45,1-7.74" transform="translate(-67.52 -154.5)"/><path class="cls-1" d="M762.75,724.92c1.85-2.62,7.59-12.06,11.1-15.69s7.13-4.88,10-6.1a14.11,14.11,0,0,1,7-1.22,4.23,4.23,0,0,1,3.71,2.29c.87,1.51,2.68,2.7,1.51,6.75s-7.12,14.62-8.55,17.55" transform="translate(-67.52 -154.5)"/><path class="cls-1" d="M780.12,889.56c.68,4.48,3.64,20.48,4.07,26.87S783,926,782.71,927.9" transform="translate(-67.52 -154.5)"/><path class="cls-1" d="M759.79,956.32a11.66,11.66,0,0,1,6.69-4.34,23.62,23.62,0,0,1,9.66-.45c2.86.52,4.85,1.93,7.45,3.58a56.12,56.12,0,0,1,8.17,6.32c3.16,2.88,7.72,8.3,10.83,11a34.84,34.84,0,0,0,7.81,5,4.22,4.22,0,0,0,3,.34" transform="translate(-67.52 -154.5)"/><path class="cls-1" d="M755.29,1051.53c-1.67,1.08-8.61,5.16-10,6.45s1.07.09,1.41,1.3-.31,3.22.67,5.94,2.94,9.55,5.21,10.41,6.54-5.21,8.41-5.21.1,3.93,2.85,5.19a34.7,34.7,0,0,0,13.67,2.39c4.36-.35,10.09-1.53,12.46-4.48s1.42-10.69,1.81-13.21-.25-.51.53-1.91,3.48-5.43,4.17-6.52" transform="translate(-67.52 -154.5)"/><path class="cls-1" d="M747.75,1090.75c2.45-.14,9.44-1.39,14.69-.85s12.94,2.32,16.82,4.06,5.32,4.59,6.46,6.39,1.07,1.14.39,4.36a100.7,100.7,0,0,1-4.48,15c-1.84,4.29-1.93,5.66-6.58,10.78s-16.23,14.78-21.29,20-8.42,8.9-9.11,11.26,4.17,2.43,5,2.91" transform="translate(-67.52 -154.5)"/><path class="cls-1" d="M785.46,1332.12c6.7,4.5,23.09,11.29,27.71,13.54" transform="translate(-67.52 -154.5)"/><path class="cls-1" d="M748.55,1299.26c.63-2.27,3.49-9.82,3.78-13.59s-2.24-6.36-2.07-9.06,2.47-4.8,3.12-7.09-.12-4.91.77-6.66a7,7,0,0,1,4.58-3.85c2.16-.47,6,.8,8.4,1s3.88-.17,6.1.19,4.91,0,7.24,2,5.32,6.52,6.75,9.7,1.4,4,1.83,9.36.63,18.89.76,22.67" transform="translate(-67.52 -154.5)"/><path class="cls-1" d="M743.66,1511.51c.74-1.46,2-5.66,4.44-8.78s6.6-5.68,10-10,2.9-8.2,10.36-15.7,28.67-24.4,34.41-29.28" transform="translate(-67.52 -154.5)"/><path class="cls-1" d="M752.58,1404.51c3.4.37,15.69,1.25,20.39,2.22s5.87,3.57,7.77,3.6-1.59-2.36,3.65-3.38,23.13-2.29,27.75-2.75" transform="translate(-67.52 -154.5)"/><path class="cls-1" d="M804.54,1577.67c-1.89.21-7,.62-11.3,1.28s-10.3,1-14.46,2.68-7.67,5.85-10.52,7.67a31.15,31.15,0,0,1-6.54,3.27c-2.19.86-5.52,1.6-6.62,1.93" transform="translate(-67.52 -154.5)"/><path class="cls-1" d="M808.61,1645.21c-1.91-.15-7.4-.7-11.48-.88s-10-.31-13-.2-2.75-.2-5.11.87-5.56,4.44-9.08,5.54-10,.89-12,1.07" transform="translate(-67.52 -154.5)"/><path class="cls-1" d="M762.62,1770.47c-.77,1.1-2.73,3.69-4.6,6.58s-6,7.59-6.64,10.79,2,5.51,2.62,8.44-1.32,5.83,1,9.1,6.81,6.81,12.82,10.51,17.25,9,23.23,11.73a124.78,124.78,0,0,0,12.62,4.79" transform="translate(-67.52 -154.5)"/><path class="cls-1" d="M757.26,1872.36c1.33-2.4,5-10.5,8-14.39s4.34-6.87,9.53-9,16-2.45,21.66-3.59,10-2.7,12.05-3.25" transform="translate(-67.52 -154.5)"/><path class="cls-1" d="M768.13,1949.08c-2.32,1.41-11.54,6-13.93,8.46s-.93,4.61-.37,6.36,2.46,3,3.77,4.1a15.22,15.22,0,0,0,4.12,2.73c1.27.48,1.33.48,3.53.12s7.6-.75,9.65-2.3.93-6.17,2.65-7,5.21,1.64,7.72,2,5.88-.28,7.35-.13.43.15,1.42,1,3.42,2.51,4.5,4.29,1.66,4.93,2,6.41.5.55.06,2.49-2.44,6.33-2.67,9.11a17,17,0,0,0,1.3,7.56c.82,2.09,2.13,3.23,3.63,5s4.47,4.47,5.36,5.37" transform="translate(-67.52 -154.5)"/><path class="cls-1" d="M742.57,2060c1.56-.83,7.29-3.14,9.34-5s3.25-3.91,3-6.07-2.59-4-4.67-6.87-6.51-7.77-7.8-10.57-.49-3.55,0-6.24.73-8,3.12-9.91,7.76-.64,11.22-1.37a93.52,93.52,0,0,0,9.55-3" transform="translate(-67.52 -154.5)"/><path class="cls-1" d="M749.23,2116.27c0,4-.74,17.72,0,23.85s2.9,9.82,4.44,13,3.14,4.37,4.81,6,1.48,2,5.18,3.93,12.82,5.28,17,7.55,5.18,3.32,8.14,6,6.66,5.33,9.62,10.26a66.84,66.84,0,0,1,8.14,19.32c1.67,7.5,1.54,21.39,1.85,25.66" transform="translate(-67.52 -154.5)"/><path class="cls-1" d="M804,2113.86c.19,3.57,1.3,15.75,1.11,21.43s-.43,8.56-2.22,12.68a42.3,42.3,0,0,1-8.51,12.08c-3.26,3.22-8.07,5.79-11.1,7.25s-4.68.6-7,1.51a37.86,37.86,0,0,0-7,3.92,23,23,0,0,0-5.55,4.53,51.65,51.65,0,0,0-6.29,9.06c-1.48,2.92-1.61,3.17-2.59,8.45S752,2212,751.45,2218a90.83,90.83,0,0,0,0,12.68" transform="translate(-67.52 -154.5)"/><path class="cls-1" d="M906.33,282.26c-2.4-1.92-10.65-7.78-14.37-11.56s-7.22-8.23-7.93-11.17,3-3.4,3.65-6.45-.71-9,.52-11.85,4-4.23,6.82-5.49,8.21-1.68,9.86-2" transform="translate(-67.52 -154.5)"/><path class="cls-1" d="M891.09,169.16c-.26,3.78-1.41,16.68-1.59,22.71s-.14,10,.46,13.48,1.56,5.79,3.17,7.37,3.51,1.71,6.48,2.13a46.61,46.61,0,0,0,11.36.4c3.94-.47,9.92-2.55,12.31-3.22s.2,1,2.07-.79,7.74-7.34,9.12-10.16-1.72-.92-.81-6.73,5.24-23.44,6.29-28.13" transform="translate(-67.52 -154.5)"/><path class="cls-1" d="M913.76,452.32c-.18-2.05-.63-7.91-1.06-12.28s-1.18-10.58-1.53-13.9-1.69-3.62-.58-6,6-7,7.25-8.42" transform="translate(-67.52 -154.5)"/><path class="cls-1" d="M900.58,436.29c-1.07-1.27-5.79-4.58-6.39-7.64A14.31,14.31,0,0,1,897,417.94c2.58-3.66,9.08-8.67,12.71-11.21s6.59-2.27,9.09-4.05,5.17-3.89,5.92-6.63-.25-6.74-1.47-9.81-4.3-6.5-5.89-8.58-2-2.92-3.66-3.85-1-.79-6.08-1.73-20.33-3.27-24.4-3.92" transform="translate(-67.52 -154.5)"/><path class="cls-1" d="M883.31,514.53c-1.41.8-7,3.24-8.5,4.8s-.74,3.55-.37,4.56.92,1.3,2.59,1.49a30.6,30.6,0,0,0,7.4-.34c2.65-.46,5.54-1.95,8.5-2.4s5.68-1.53,9.25-.32,10.06,4.1,12.21,7.53,2,9.37.74,13-5.67,7-8.51,9-5.24,2.65-8.51,3.3a42,42,0,0,1-11.09.56c-3-.35-5.55-2.23-6.66-2.68" transform="translate(-67.52 -154.5)"/><path class="cls-1" d="M903.26,604.16c1.14.49,3.3,2.5,6.85,2.93s11.23-.09,14.42-.34,1.79,0,4.73-1.15S940,601,942.19,600.1" transform="translate(-67.52 -154.5)"/><path class="cls-1" d="M886.52,782.36c-.12,1.45-2.08,4.84-.73,8.7s5.58,11.45,8.82,14.48,7.67,3.08,10.62,3.73,4.69,1,7.06.2,6-2.84,7.13-5.21-.85-6.36-.18-9,1.33-5.37,4.2-7,10.28-1.67,13-3,2.82-2.94,3.35-5,1.25-3.49-.12-7.3-6.52-11.8-8.1-15.54-1.56-3.82-1.37-6.91.8-7.92,2.5-11.59,6.44-8.69,7.73-10.42" transform="translate(-67.52 -154.5)"/><path class="cls-1" d="M882.85,731.3c1,1.83,5,7.53,6,11s-.18,7.08-.33,9.72-1,3.21-.62,6.14.65,8.08,2.75,11.43,6.52,6.65,9.86,8.64,8.14,3.41,10.16,3.29,1.8-3.42,2-4,.75,2-.89.48-7.26-6.79-9-9.64-1.74-2.54-1.35-7.47,2.8-18.07,3.67-22.09,2-.85,1.57-2-1.37-1.84-3.94-5-9.57-10.18-11.52-14-.72-6.25-.18-9a17.24,17.24,0,0,1,3.42-7.25c1.54-1.87,3.68-2.76,5.83-3.95s4.2-2.58,7-3.17a31.12,31.12,0,0,1,10-.38c3.06.47,6.26,2.58,8.36,3.23s2.82,0,4.23.7,3.53,3.1,4.23,3.72" transform="translate(-67.52 -154.5)"/><path class="cls-1" d="M893,883.67c.93,2.59,3.58,11.45,5.6,15.53a32,32,0,0,0,6.47,9c2.09,2,2.55,2,6.1,3.26s11.31,2.56,15.19,4.12a25.33,25.33,0,0,1,8.08,5.19c1.11,1.16-2.15-.76-1.42,1.8s5,9.89,5.83,13.56,0,4.11-.58,8.45-2.58,14.65-3.1,17.58" transform="translate(-67.52 -154.5)"/><path class="cls-1" d="M944.05,889.08c.07,3.09,1.06,13.52.4,18.52s-3.16,9.2-4.37,11.46-1.26.93-2.87,2.11-3.75,2-6.77,5-8.66,9.73-11.32,13.12-2-.16-4.63,7.21-9.36,30.85-11.23,37" transform="translate(-67.52 -154.5)"/><path class="cls-1" d="M913.08,1047.75c-.34,7.92-2.54,32.42-2.05,47.52s4.65,31.4,5,43-2.35,22.37-2.82,26.84" transform="translate(-67.52 -154.5)"/><path class="cls-1" d="M896.08,1064.79c-.32,4-2.13,17-1.93,23.68a54,54,0,0,0,3.11,16.54c1.55,4.44,3.85,7.1,6.18,10.07a50.53,50.53,0,0,0,7.76,7.78,49.56,49.56,0,0,0,8.51,5.72,57.18,57.18,0,0,0,8.07,2.87" transform="translate(-67.52 -154.5)"/><path class="cls-1" d="M895.57,1333.71c-.77-1.6-3.28-6.34-4.59-9.59a57.31,57.31,0,0,1-3.31-9.88c-.52-2.84.12-4.09.18-7.17s-1.31-7.86.2-11.35,6.65-6.57,8.85-9.57,1.4-5.35,4.33-8.44,10.09-7.94,13.28-10.14,4.8-2.38,5.84-3.08.33-1,.4-1.14" transform="translate(-67.52 -154.5)"/><path class="cls-1" d="M934.5,1227.9c0,1.35.74,5.85,0,8.11s-3.18,3.64-4.33,5.46-.55,3.73-2.56,5.45-7.93,4-9.52,4.81" transform="translate(-67.52 -154.5)"/><path class="cls-1" d="M895.36,1513.75c2.66.71,2.53,1.87,7,0s15.11-9,20-11.17,6.35-2.06,9.25-1.81a15.89,15.89,0,0,1,8.14,3.32c2.47,1.86,6.72,5.34,6.66,7.85s-3.95,5.84-7,7.25-8.82,1.31-11.47,1.21-2.65-.61-4.44-1.82a38.13,38.13,0,0,1-6.29-5.43c-2-2.16-3.76-5.54-5.55-7.55a28,28,0,0,0-5.18-4.53c-1.78-1.25-4-2.91-5.55-3s-3.08,2-3.7,2.42" transform="translate(-67.52 -154.5)"/><path class="cls-1" d="M911.64,1464.54c1,2,4.87,8.91,5.92,11.78s1.42,3.77.37,5.43-2.9,3.07-6.66,4.53-11.9,2.21-15.91,4.23" transform="translate(-67.52 -154.5)"/><path class="cls-1" d="M898.35,1596.58c-.78,5.4-5.11,22.62-4.64,32.39s4.32,18.57,7.45,26.2,7.23,13.48,11.34,19.57,10.06,13,13.3,17,3.57,6.22,6.11,7.16,7.61-1.25,9.13-1.5" transform="translate(-67.52 -154.5)"/><path class="cls-1" d="M887.69,1593.08c1.95.45,7.41,1.15,11.72,2.71a98,98,0,0,1,14.13,6.67c5.07,2.85,12.47,7.24,16.31,10.44a21.14,21.14,0,0,1,6.75,8.73c1.87,3.83,3.45,10.59,4.47,14.26s1.4,6.48,1.69,7.78" transform="translate(-67.52 -154.5)"/><path class="cls-1" d="M884.64,1832.57c3.39-.15,14.49-1.31,20.34-.91s10.49,2,14.8,3.32a112.76,112.76,0,0,1,11.1,4.53" transform="translate(-67.52 -154.5)"/><path class="cls-1" d="M890.55,1779.43c2.29.81,8,2,13.69,4.83s13.82,6.64,20.35,12.38,15.73,18.37,18.87,22" transform="translate(-67.52 -154.5)"/><path class="cls-1" d="M887.51,1937.64c1.5,3.77,7.17,16.23,9,22.62s1.51,11.75,2.08,15.68,1.93,5.5,1.37,7.93-3.91,4.72-4.71,6.7,0,2.51,0,5.17-1.13,6.06-.4,10.84,1.56,12.48,4.8,17.83,12.22,11.88,14.66,14.26" transform="translate(-67.52 -154.5)"/><path class="cls-1" d="M906.27,2009.74c2,.33,8.12-.61,11.89,2s8.7,10.65,10.72,13.71.24,1,1.41,4.64,4.7,14.3,5.64,17.16" transform="translate(-67.52 -154.5)"/><path class="cls-1" d="M883.18,2158.35c2,0,9.3-.09,11.9-.17s.89,1,3.69-.3,10.18-5,13.12-7.42,4.1-3,4.57-7.19-3.35-13.09-1.72-17.8,8-8.71,11.45-10.49,7.45-.79,9.43-.17,2.08,3.24,2.49,3.89" transform="translate(-67.52 -154.5)"/><path class="cls-1" d="M879.88,2184.84c1.08,1.25,1.06,5.62,6.43,7.52s20.57,2.55,25.81,3.91,4.13,2.68,5.61,4.24a15.4,15.4,0,0,1,3.3,5.15,8.74,8.74,0,0,1,.35,5.13c-.4,2.17-1,5.65-2.74,7.86a15.66,15.66,0,0,1-7.56,5.42c-3.6,1.25-10.54,1.91-14,2.1a17,17,0,0,1-6.87-1,7.25,7.25,0,0,1-3.69-2,15,15,0,0,1-2.91-4.53,7.23,7.23,0,0,1-.54-4.27c.25-1.86-.28-5.55,2-6.9s9.18-1.41,11.84-1.21,3.17,1.51,4.11,2.41a8.54,8.54,0,0,1,1.49,3" transform="translate(-67.52 -154.5)"/><path class="cls-1" d="M1016.88,170.63c-.46,1.71-2.7,6.24-2.75,10.28s1.11,11,2.45,14,3.16,2.39,5.57,4.07,5.67,4.73,8.92,6" transform="translate(-67.52 -154.5)"/><path class="cls-1" d="M1063,222.54c2.41,0,5.6-.54,7.29,1.07s2.33,6.26,2.87,8.57.05,3.69.37,5.29,3.26,3.59,1.5,4.32-9.27-1.12-12,.06-1.35,5.68-4.46,7-10.29.32-14.24,1.06-8,2-9.49,3.38-.37,3.18.49,4.84,2.25,4.45,4.62,5.12,6.65-1.65,9.65-1.09,5.17,2.2,8.32,4.46a122.75,122.75,0,0,1,10.57,9.11c3.49,3.25,8.65,8.65,10.38,10.38" transform="translate(-67.52 -154.5)"/><path class="cls-1" d="M1027.07,345.89c-.68,2.07-4,6.6-4.07,12.38s2,17.26,3.7,22.34,3,5.29,6.66,8.15,12.64,7.55,15.17,9.06" transform="translate(-67.52 -154.5)"/><path class="cls-1" d="M1027.07,459.71c-1.42-2.31-7.09-9.46-8.51-13.88a22.85,22.85,0,0,1,0-12.68,20.43,20.43,0,0,1,5.92-10.87c3.89-3.93,14.49-10.57,17.39-12.68" transform="translate(-67.52 -154.5)"/><path class="cls-1" d="M1042.61,600.25c-.31,1.31-1.73,5.33-1.85,7.85s-.92,4.68,1.11,7.25,8.2,6.89,11.1,8.15,3.88.45,6.29-.61,6-2.76,8.14-5.73,4-10.07,4.81-12.08" transform="translate(-67.52 -154.5)"/><path class="cls-1" d="M1021.52,541.08a89.32,89.32,0,0,0-.74,9.36,16.6,16.6,0,0,0,1.48,6.64c1,2.46,1.79,5.13,4.81,8.15a56.76,56.76,0,0,0,13.32,10c5,2.47,13.87,4,16.65,4.83" transform="translate(-67.52 -154.5)"/><path class="cls-1" d="M1067.78,735.45c.23,1.27,1.35,4.65,1.38,7.6s-.1,7.3-1.19,10.09-2.52,4.2-5.34,6.7-9.68,6.91-11.61,8.29" transform="translate(-67.52 -154.5)"/><path class="cls-1" d="M1023.64,779c1.23,1.22,6.14,5.66,7.4,7.36s-2.13,1.76.13,2.82,8.79,2.76,13.39,3.48,8.44,1.58,14.18.88,16.88-4.22,20.25-5.06" transform="translate(-67.52 -154.5)"/><path class="cls-1" d="M1043.54,872.66c-.37,1.81-.31,5.13-2.22,10.86s-7.09,16.61-9.25,23.55a88.41,88.41,0,0,0-3.7,18.12c-.5,5.18-.19,7.24.74,13s4.07,15.45,4.81,21.43-.31,12.08-.37,14.5" transform="translate(-67.52 -154.5)"/><path class="cls-1" d="M1049.83,920.05c-1.3,1.41-6.17,5.94-7.77,8.46s-1.61,4.68-1.85,6.64-1,1.06.37,5.13,5.42,14.85,7.77,19.32,4.37,4.78,6.28,7.55,4.51,6.64,5.18,9.06-1.11,3.22-1.11,5.43a68.14,68.14,0,0,0,1.11,7.85" transform="translate(-67.52 -154.5)"/><path class="cls-1" d="M1045.76,1066.93c.49,2.87,2.83,11,3,17.21s-2,13.69-2.22,20.23.61,15.85.74,19" transform="translate(-67.52 -154.5)"/><path class="cls-1" d="M1040.21,1146c3.7.15,18.25-.7,22.19.91s1.61,5.68,1.48,8.75-3.2,8.1-2.22,9.66,6.54-.5,8.14-.3,1.24,1.26,1.48,1.51" transform="translate(-67.52 -154.5)"/><path class="cls-1" d="M1046.5,1145.43h0" transform="translate(-67.52 -154.5)"/><path class="cls-1" d="M1032.46,1235.1c-.08,7.17-1.65,31.5-.48,43.05s5.08,18.46,7.51,26.29,4,14.28,7.06,20.67,9.32,14.7,11.18,17.64" transform="translate(-67.52 -154.5)"/><path class="cls-1" d="M1048.47,1228.33c-.13,5.3-1.44,24-.83,31.85s6.12,10,4.51,15-9.82,9.78-14.18,15-9.1,10.93-12,16.29-5.36,9.69-5.17,15.89,5.73,16.68,6.33,21.36-2.3,5.6-2.76,6.72" transform="translate(-67.52 -154.5)"/><path class="cls-1" d="M1020.8,1447.76c3.63,1.7,15.75,7.57,21.76,10.17s10.16,1.52,14.3,5.44,8.43,12,10.54,18.1,1,11.4,2.15,18.69,3.85,20.9,4.62,25.08" transform="translate(-67.52 -154.5)"/><path class="cls-1" d="M1014.4,1524.88c.15-1.54.53-4.37.87-9.22s-1.48-13.66,1.19-19.94,10.1-12.21,14.82-17.74,8.32-9.49,13.52-15.42l17.64-20.17" transform="translate(-67.52 -154.5)"/><path class="cls-1" d="M1015.19,1590.07c-.62,1-3.3,4.13-3.73,5.74a3.29,3.29,0,0,0,1.19,3.89c1.33.91,4.91.13,6.81,1.54s-.51,6.12,4.58,6.91,19.81-3.25,25.92-2.22,8.3,6.21,10.72,8.38,2.78,1.32,3.81,4.65,2.14,13.37,2.37,15.31-.86-3.06-1-3.68" transform="translate(-67.52 -154.5)"/><path class="cls-1" d="M1017.86,1697.8c-.75-3.18-4.26-14.51-4.48-19s2.43-3.37,3.2-8.18-.38-14.45,1.44-20.66,6.18-11.53,9.48-16.65,7.69-12.17,10.35-14.07,3.25,1.71,5.62,2.69,7.62,2.48,8.64,3.18.21-1.63-2.47,1-10.73,11.48-13.59,14.74-3.26,2.9-3.59,4.84-.31,3.2,1.61,6.79a108.82,108.82,0,0,0,9.89,14.78,36.54,36.54,0,0,0,8.79,7.13c2.11,1.36,2.14-2,3.85,1s4.22,12.17,6.41,17.16,5.59,10.63,6.71,12.76" transform="translate(-67.52 -154.5)"/><path class="cls-1" d="M1052.88,1760.62c.71,1.2,3.8,4.37,4.25,7.21s-.84,7.45-1.54,9.85a9.13,9.13,0,0,1-2.69,4.6c-1.54,1.73-4.94,4-6.54,5.78s-1,2.54-3.06,4.68-8.15,5.2-9.06,8.14,2.87,6.88,3.63,9.48.34,2.42.92,6.17.4,12.6,2.55,16.35,6.44,3.58,10.36,6.2,10.53,6.77,13.14,9.55,2.09,6,2.51,7.16" transform="translate(-67.52 -154.5)"/><path class="cls-1" d="M1018.44,1859c1.32,1.17,5,5,7.93,7s6.47,4.28,9.51,5,6.56-.59,8.75-.87,3.37-.29,4.43-.86,1.14-1.26,1.9-2.54,2.19-4.29,2.63-5.15" transform="translate(-67.52 -154.5)"/><path class="cls-1" d="M1029.72,1936.69c2.79.79,12.55,3.43,16.74,4.73a52.23,52.23,0,0,1,8.4,3,17.72,17.72,0,0,1,5.28,3.76c1.42,1.49,5-1.33,3.28,5.22s-11.46,28.42-13.75,34.1" transform="translate(-67.52 -154.5)"/><path class="cls-1" d="M1029.69,1985.61c-.56,3.91-3.49,17.54-3.34,23.48s3.8,8.86,4.27,12.17-1.82,6-1.4,7.71.89,2.06,3.93,2.74,11.09.36,14.28,1.37.63.5,4.87,4.72,17.13,17.18,20.56,20.62" transform="translate(-67.52 -154.5)"/><path class="cls-1" d="M1040.39,2141c.62,1.71,3.64,5,3.7,10.27s-2.84,15.85-3.33,21.43a45.29,45.29,0,0,0,.37,12.08c.49,3.12,1.6,4.37,2.59,6.64a34.53,34.53,0,0,0,3.33,6.94,97.88,97.88,0,0,0,8.88,11.78c3.76,4.17,10,10,13.69,13.28a87.09,87.09,0,0,0,8.51,6.34" transform="translate(-67.52 -154.5)"/><path class="cls-1" d="M1023.37,2132.88c-.8,1.56-3.76,6.69-4.81,9.36a17.71,17.71,0,0,0-1.48,6.64c-.12,2.57,0,6.59.74,8.76a6.78,6.78,0,0,0,3.7,4.22,17.73,17.73,0,0,0,7,1.21c1.91-.05,2,.2,4.44-1.51a104.52,104.52,0,0,0,10.36-8.76c2.41-2.41,2.47-4.32,4.07-5.73a13.18,13.18,0,0,1,5.55-2.72,13.93,13.93,0,0,1,6.29-.3,19.61,19.61,0,0,1,7,3,19.32,19.32,0,0,1,4.44,5.43c.92,1.56,1,1.21,1.11,3.93s.12,8.6-.74,12.38-3.7,8.55-4.44,10.26" transform="translate(-67.52 -154.5)"/><path class="cls-1" d="M1170.3,155.5c-1.39,2.53-7.65,10.48-8.32,15.14s3.52,9.68,4.28,12.85-.31,4.32.26,6.15a8.47,8.47,0,0,0,3.15,4.81c1.92,1.44,8,.83,8.38,3.83s-4.91,10.2-6.44,14.18-2,3.15-2.75,9.67-1.69,24.56-2,29.47" transform="translate(-67.52 -154.5)"/><path class="cls-1" d="M1206.25,163.66c-.12,3.19.15,14.4-.72,19.17s-3.06,6.94-4.53,9.45a28.24,28.24,0,0,1-4.31,5.62,52.53,52.53,0,0,1-6.58,6.31c-2,1.45-3.76.82-5.48,2.4a21.2,21.2,0,0,0-4.83,7.07,47.92,47.92,0,0,0-3,11.06c-.9,5-2.49,13-2.39,18.72a47.89,47.89,0,0,0,3,15.7c1.55,3.92,3.49,5.39,6.34,7.83s7.8,5.72,10.8,6.82,5.19,0,7.15-.23,2.69-1.55,4.62-1.05,5.78,3.36,6.94,4" transform="translate(-67.52 -154.5)"/><path class="cls-1" d="M1164.24,427.11c2.82-.26,11.59.22,16.92-1.54s10.95-4,15.08-9.05,7.5-14.21,9.7-21.34,2.94-17.89,3.53-21.47" transform="translate(-67.52 -154.5)"/><path class="cls-1" d="M1174.34,350.43c1,2.72,5,11.34,5.81,16.34s-.31,8.4-.77,13.62-.26,10.18-2,17.7-6.05,20-8.39,27.44-4.71,14.57-5.66,17.49" transform="translate(-67.52 -154.5)"/><path class="cls-1" d="M1156.63,521c-.6,1.9-2.94,8.93-3.59,11.43s-1.4,2.1-.28,3.55a14.86,14.86,0,0,0,7,5.11c3.47,1.07,9.7.74,13.82,1.31s7.13,1.3,10.87,2.11,9.52,1.2,11.54,2.71-.68,2.53.58,6.33,5.23,7.6,7,16.45,3.18,29.68,3.72,36.65-.4.13-.47,5.17,0,20.89,0,25.07" transform="translate(-67.52 -154.5)"/><path class="cls-1" d="M1149.42,626.26c.42-2.34.95-9.37,2.48-14s3.57-10.24,6.7-14,5.86-5,12.08-8.63,21.06-10.94,25.27-13.13" transform="translate(-67.52 -154.5)"/><path class="cls-1" d="M1147.35,711.28c1.18.9,5.28,4.28,7.06,5.39s.09.86,3.65,1.29,11.73,1.59,17.73,1.27,13.66-3.73,18.24-3.2,8.53,3.87,9.21,6.39-.86,6.61-5.12,8.68-13.76,3.32-20.45,3.75-15-.54-19.63-1.15-7-2.09-8.46-2.51" transform="translate(-67.52 -154.5)"/><path class="cls-1" d="M1183.28,712.71c1.12,1.43,4.81,5.14,6.71,8.58s4.24,8.2,4.66,12-2.35,7.13-2.14,11,2.83,10.3,3.4,12.36" transform="translate(-67.52 -154.5)"/><path class="cls-1" d="M1224,894c-2.65-.3-11.53-.8-15.9-1.81s-6.29-.35-10.36-4.22-11.16-15.3-14.06-19-2-2.47-3.33-3.33a15.7,15.7,0,0,0-4.81-1.81,10.56,10.56,0,0,0-5.18-.3,19.73,19.73,0,0,0-6.29,3.32,15.09,15.09,0,0,0-4.44,5.13,16.66,16.66,0,0,0-1.48,7.25c.06,2.47-.18,4.23,1.85,7.55s7.65,9.56,10.36,12.38.31,2.26,5.92,4.52a253.28,253.28,0,0,0,27.75,9.06c8,1.86,16.65,1.76,20,2.12" transform="translate(-67.52 -154.5)"/><path class="cls-1" d="M1189.12,879.9c-3.58.05-16.28-.7-21.46.3s-7,3.42-9.62,5.74a30.67,30.67,0,0,0-5.92,8.15c-1.48,2.67-2.22,3.47-3,7.85a179.62,179.62,0,0,0-1.48,18.42c-.06,3.82.43,3.17,1.11,4.52s.56,2.47,3,3.63a45.62,45.62,0,0,0,11.47,3.32c5.24.9,14,.6,20,2.11s12,3.88,15.91,6.95,5.67,6.44,7.4,11.47,2.52,12.78,3,18.72-.31,14.09-.37,16.9" transform="translate(-67.52 -154.5)"/><path class="cls-1" d="M1158.05,1158.25c-.61-1.49-2.71-5.85-3.64-8.92a64.72,64.72,0,0,1-1.91-9.5c-.42-3-2-4.52-.57-8.4a56.2,56.2,0,0,1,9-14.87c3.91-4.54,12-10,14.43-12.37s.11-1.49.13-1.79" transform="translate(-67.52 -154.5)"/><path class="cls-1" d="M1185.9,1080.29c1.83.93,8.11,2.68,11,5.57a27.91,27.91,0,0,1,6.43,11.72c.9,3.71-.26,5.77-1.08,10.5s-2.79,14.17-3.79,17.9-1.85,3.7-2.22,4.44" transform="translate(-67.52 -154.5)"/><path class="cls-1" d="M1160.26,1223.77c-1.11,1.41-5.12,6-6.66,8.46a15.38,15.38,0,0,0-2.59,6,38,38,0,0,0-1.11,10,16,16,0,0,0,2.59,7.24,21.64,21.64,0,0,0,5.18,5.13c1.54,1.16,1.42,1.36,4.07,1.82a64,64,0,0,0,11.84.9c4.93-.1,13.75-1.61,17.76-1.51s4.62,1.31,6.29,2.12,2.4,1,3.7,2.71a29.15,29.15,0,0,1,4.07,7.55c.67,2.37,1.17,3,0,6.64s-5.86,12.83-7,15.4" transform="translate(-67.52 -154.5)"/><path class="cls-1" d="M1179.5,1237.66c.31,1.76,2.22,6.29,1.85,10.57s-2.84,11.22-4.07,15.09-1.3,4.63-3.33,8.15-6.11,8.36-8.88,13-5.61,10.41-7.77,14.79a104.94,104.94,0,0,0-5.18,11.47,92.7,92.7,0,0,0-4.07,13.89,98.11,98.11,0,0,0-1.48,15.09c0,3.43.8,4,1.48,5.44a16,16,0,0,0,2.59,3.32" transform="translate(-67.52 -154.5)"/><path class="cls-1" d="M1173.34,1476.92c0,.89-.9,3.93-.22,5.36s1.11,1.7,4.3,3.21,12,4,14.82,5.88.44,2.72,1.85,5.13,4.65,5.57,6.61,9.33,4.3,11,5.16,13.2" transform="translate(-67.52 -154.5)"/><path class="cls-1" d="M1155.37,1407.36a68.14,68.14,0,0,0-6,6.93,59.08,59.08,0,0,0-5,9.63c-.82,2.24.16,1.39.15,3.82s-1.32,7.08-.22,10.75,4.88,8.87,6.84,11.28,1.21,1.45,4.9,3.18,12.19,7.08,17.2,7.18,9.33-4.1,12.82-6.57,6.73-4.6,8.17-8.23,1.08-7.67.42-13.53-3.61-18-4.33-21.61" transform="translate(-67.52 -154.5)"/><path class="cls-1" d="M1155.39,1591.89c2.07.65,8.06,2.43,12.41,3.93s6.09,1.29,13.66,5,26.46,14.54,31.75,17.45" transform="translate(-67.52 -154.5)"/><path class="cls-1" d="M1188.44,1602.43c-2,2.68-7.18,6.28-12.09,16s-13.39,32-17.32,42.48a165.92,165.92,0,0,0-6.26,20.49c-1.41,5.26-2.07,6.92-2.15,11.06s1.39,11.46,1.67,13.76" transform="translate(-67.52 -154.5)"/><path class="cls-1" d="M1176.73,1774.46c.63,1.31,3.43,5.51,3.81,7.82s-1.51,2.06-1.55,6.06,1.09,15,1.31,18" transform="translate(-67.52 -154.5)"/><path class="cls-1" d="M1153.91,1762.83c-.07,2.91-1.38,13.35-.41,17.47s4,5.71,6.24,7.28,3.91,1.05,6.93,2.16,7.25,4,11.17,4.49,9-.76,12.34-1.39,4.37-.41,7.67-2.35,9.63-6,12.12-9.25,2.27-6.72,2.8-10.08.33-8.4.4-10.08" transform="translate(-67.52 -154.5)"/><path class="cls-1" d="M1174.5,1979.06c1.92,3,9.38,13.48,11.47,18.11s1.36,7.45,1.11,9.66,1.61.81-2.59,3.63-18.68,10.16-22.56,13.28-1.3,3.62-.74,5.43,1.29,3.22,4.06,5.44a65.1,65.1,0,0,0,12.58,7.85c5,2.26,13.14,4.53,17.39,5.73a51,51,0,0,0,8.14,1.51" transform="translate(-67.52 -154.5)"/><path class="cls-1" d="M1190,1994.45c.8,1.56,4.07,6.29,4.81,9.36a18.54,18.54,0,0,1-.37,9.06c-.74,2.57-1.54,3.52-4.07,6.34s-9.25,8.81-11.1,10.57" transform="translate(-67.52 -154.5)"/><path class="cls-1" d="M1162.48,2111.83c-1.17,1.46-5.3,6.14-7,8.76a20.13,20.13,0,0,0-3.33,6.94,107.28,107.28,0,0,0-3.7,15.4,28.27,28.27,0,0,0,.74,10c.56,2.47.49,3.12,2.59,4.83s7,4.18,10,5.43a25.68,25.68,0,0,0,7.77,2.12,44,44,0,0,0,9.25,0c2.9-.3,5.18-.3,8.14-1.81s7.64-5.49,9.62-7.25.06,1.31,2.22-3.32,8.63-19.27,10.73-24.45,1.54-3.78,1.85-6.65,0-8.8,0-10.56" transform="translate(-67.52 -154.5)"/><path class="cls-1" d="M1144.72,2232.59c.56-4.73,2.28-22.09,3.33-28.38s1.79-6.74,3-9.36,1.23-3.42,4.07-6.34,8.57-8.4,13-11.17a51.43,51.43,0,0,1,13.32-5.43,19.42,19.42,0,0,1,8.51-.6" transform="translate(-67.52 -154.5)"/><path class="cls-1" d="M1307.36,163.62c-.52,1.69-2.52,7.35-3.09,10.13a20,20,0,0,0-.33,6.58,9.48,9.48,0,0,0,1.51,4c.63,1,1.07,1.78,2.24,2a10.56,10.56,0,0,0,4.81-.58,13.13,13.13,0,0,0,6.2-5.5" transform="translate(-67.52 -154.5)"/><path class="cls-1" d="M1327.16,234.51c-3.3,1-14.51,3.67-19.82,5.77s-12.14,3.42-12,6.78,7.32,10.13,12.84,13.41,15.84,4.26,20.3,6.3,5.4,4.94,6.48,5.93" transform="translate(-67.52 -154.5)"/><path class="cls-1" d="M1302.1,370.94c2.42.22,10,2.08,14.57,1.32s10.55-4.37,13.08-5.92,1.14-.87,2.09-3.36a62.19,62.19,0,0,0,3.57-11.59c.74-4.5.71-12.86.86-15.43" transform="translate(-67.52 -154.5)"/><path class="cls-1" d="M1276.57,432.51a74.37,74.37,0,0,0,4.9-7.7c2-3.81,4.64-12.43,7.16-15.16s3.55-.79,8-1.24,15.65-1.24,18.78-1.48" transform="translate(-67.52 -154.5)"/><path class="cls-1" d="M1283.82,573.49c1-1.34,4.69-4.82,6.19-8s.74-7.24,2.8-11.21,8.19-10,9.52-12.62-2-2.34-1.54-3.16,1.57-1.74,4.15-1.77" transform="translate(-67.52 -154.5)"/><path class="cls-1" d="M1297.6,632.07c1.6-.4,7.41-1.22,9.59-2.4s3.18-1.58,3.47-4.68-1.24-9.3-1.74-14-1.61-6.56-1.28-14" transform="translate(-67.52 -154.5)"/><path class="cls-1" d="M1298.63,697.92c.31,1.66,1.42,3.47,1.85,10s-.19,21.23.74,29,1.91,9.31,4.81,17.51,10.17,22.09,12.58,31.7,1.54,21.64,1.85,26" transform="translate(-67.52 -154.5)"/><path class="cls-1" d="M1331.55,695.8c.31,1.66,1.67,5.54,1.85,10s.74,12.12-.74,16.6-4.5,7.1-8.13,10.27-10.24,5.78-13.69,8.75-4.87,5.69-7,9.06-4.13,5.13-5.92,11.17a187.34,187.34,0,0,0-4.81,25.06,162.87,162.87,0,0,0-.74,20.83,16.22,16.22,0,0,0,1.11,6.34" transform="translate(-67.52 -154.5)"/><path class="cls-1" d="M1334.22,884.35c-.69-.5-1.84-2.19-4.1-3a36.9,36.9,0,0,0-9.46-1.75c-4.2-.3-12.27-.84-15.73-.1s-3.5,2.51-5,4.5-3.61,4.93-4.26,7.44-1.09,4.31.37,7.58,5.8,9.16,8.42,12,4.12,3.47,7.28,5.26,9.7,4.58,11.64,5.49" transform="translate(-67.52 -154.5)"/><path class="cls-1" d="M1324.78,921.75c1,1,5,2.58,5.93,6.28s1.46,11.52,0,15.88-7.42,7.53-9,10.28-.48,4.66-.23,6.22-.06,2.08,1.75,3.11,7.6,2.55,9.13,3.06" transform="translate(-67.52 -154.5)"/><path class="cls-1" d="M1309.4,927.8c-.79-.47-2.59-2.77-4.75-2.83s-6,.12-8.19,2.47-3.57,8.1-5,11.62-3.49,4.66-3.76,9.49.42,14.28,2.15,19.46,6,8.75,8.23,11.64a31.83,31.83,0,0,0,5,5.67,17.16,17.16,0,0,0,5.73,3.47c1.89.56,2.21-.53,5.63-.09s12.4,2.52,14.88,2.74-.45-.8,0-1.42,2.13-1,2.78-2.26.93-4.32,1.12-5.18" transform="translate(-67.52 -154.5)"/><path class="cls-1" d="M1316.57,1058.18c-.12,5.73-1.36,27.52-.74,34.41s1.54,4,4.44,7,10.79,8.8,13,10.56" transform="translate(-67.52 -154.5)"/><path class="cls-1" d="M1322.12,1058.48c.8,5.58,1.11,25.36,4.81,33.51s14.49,12.83,17.39,15.4" transform="translate(-67.52 -154.5)"/><path class="cls-1" d="M1319.53,1228.3c.86,1.31,4.44,5.59,5.18,7.85s.25,3.07-.74,5.74-1.48,6-5.18,10.26-13,12.08-17,15.4a32,32,0,0,1-7.4,4.53" transform="translate(-67.52 -154.5)"/><path class="cls-1" d="M1343.21,1247.62c-1.6,3.22-3.33,12-9.62,19.32s-22,17.87-28.12,24.46-7,11.42-8.51,15.09-.68,3.58-.37,7-.68,9.26,2.22,13.28,12.64,9.06,15.17,10.87" transform="translate(-67.52 -154.5)"/><path class="cls-1" d="M1300.62,1519c.22-1.77,1.34-7.49,1.32-10.62s-.43-1.69-1.46-8.17-2.89-25.64-4.76-30.71-6.46,1.1-6.43.24,5.93-2.38,6.65-5.35-2.72-8.18-2.37-12.44,2.77-9.67,4.49-13.09,4.83-6.22,5.8-7.47" transform="translate(-67.52 -154.5)"/><path class="cls-1" d="M1287.4,1422.21l59.49-.65" transform="translate(-67.52 -154.5)"/><path class="cls-1" d="M1282.72,1697.68c-.06-4.23-.93-18.67-.37-25.36a40.72,40.72,0,0,1,3.7-14.79c1.85-4.08,2.34-6.14,7.4-9.66s18.37-8.61,22.94-11.48,3.2-3.22,4.44-5.73a33.58,33.58,0,0,0,3-9.36,9.16,9.16,0,0,0-1.48-6.34,25.52,25.52,0,0,0-6.29-6.64,21.3,21.3,0,0,0-8.88-4.53c-4.94-1.36-17.27-2.82-20.72-3.63s0-1,0-1.2" transform="translate(-67.52 -154.5)"/><path class="cls-1" d="M1302,1583.26c2.9.45,11.9,1.26,17.39,2.72s11.4,2.71,15.53,6,7.53,9.82,9.25,13.89,2,7.2,1.11,10.57-4.13,7.14-6.66,9.66a29.14,29.14,0,0,1-8.51,5.43c-2.89,1.36-7.39,2.27-8.87,2.72" transform="translate(-67.52 -154.5)"/><path class="cls-1" d="M1302.43,1762c-2.17,2-10.65,8.38-13,12s-1.27,6-1.2,9.82-.33,8.32,1.61,12.85,5.8,10.67,10,14.36,11.22,5.43,15.35,7.79a68.62,68.62,0,0,1,9.4,6.36c1.87,1.56,1.13.12,1.79,3s1,10.58,2.18,14.48,3.93,7.47,4.72,9" transform="translate(-67.52 -154.5)"/><path class="cls-1" d="M1295.45,1811.92c.51,2.39,2,11.3,3.06,14.35s1.48,2.26,3.64,3.9,6.18,3.15,9.34,5.94a66.87,66.87,0,0,1,9.59,10.8c2.76,3.92,6.49,10.2,7,12.71s-6.07,1-4.13,2.38,11.84,4,15.78,5.85,6.55,4.45,7.87,5.34" transform="translate(-67.52 -154.5)"/><path class="cls-1" d="M1297.23,1933.14c-.63,1.2-3.12,4.19-3.79,7.22s0,8.12-.26,11-5.09,2.52-1.25,6.06,18.46,11.43,24.31,15.17,8.33,4.59,10.77,7.24,3,4.59,3.89,8.65,2.72,11.24,1.43,15.67-7,8.28-9.15,10.91-1.7,2.76-3.66,4.88-3.09,5.7-8.11,7.86-17.54,3.5-22,5.1-3.9,3.75-4.68,4.5" transform="translate(-67.52 -154.5)"/><path class="cls-1" d="M1318.7,1939.44c-1.43,1.36-7.25,5.65-8.59,8.15s-.86,4.66.55,6.88,6.55,4.6,7.94,6.46.26,3.18.42,4.7.47,2.61.57,4.45.68,4.66,0,6.65-3.39,4.38-4.07,5.26" transform="translate(-67.52 -154.5)"/><path class="cls-1" d="M1291,2148.4c-3.18,1-1.7.44-2,1.22a4.31,4.31,0,0,0,.27,3.43c.7,1,.2,2.09,3.93,2.45a95.35,95.35,0,0,0,18.44-.24,67.34,67.34,0,0,0,16.16-4.78,31.9,31.9,0,0,0,9-6.24,15.93,15.93,0,0,0,4.69-5.78c1.32-2.68,2.68-8.54,3.22-10.25" transform="translate(-67.52 -154.5)"/><path class="cls-1" d="M1300.75,2236c-1.85-2.21-8.55-9.17-11.1-13.3s-4-6.16-4.22-11.47,2.12-15.78,2.75-20.35.44-4.9,1-7.07a46.93,46.93,0,0,1,2.57-5.92c.68-1.59-.57-2.73,1.48-3.58a35.65,35.65,0,0,1,10.84-1.5" transform="translate(-67.52 -154.5)"/><path class="cls-1" d="M1419,205.07c.81-1.55,2.93-6.84,4.85-9.33s3.36-3.44,6.69-5.58a92.57,92.57,0,0,1,13.31-7.24c4.91-2.06,11.45-4.4,16.14-5.07a28.57,28.57,0,0,1,12,1.05c2.76.86,3.63,2.85,4.59,4.1s1.46,1,1.22,3.4-2.2,9.06-2.64,10.88" transform="translate(-67.52 -154.5)"/><path class="cls-1" d="M1427,275.73c.08-3.08-1-10.05.49-18.48s5.16-23,8.75-32.09" transform="translate(-67.52 -154.5)"/><path class="cls-1" d="M1425.34,341.37c.68,2.81,2.71,12.78,4.07,16.9a26,26,0,0,0,4.07,7.85,34.12,34.12,0,0,0,4.81,5.44,21.68,21.68,0,0,0,4.44,3.62,25.64,25.64,0,0,0,6.29,2.72c3.08,1,10.17,2.51,12.21,3" transform="translate(-67.52 -154.5)"/><path class="cls-1" d="M1457.16,444.32c-3.39-1.46-14.74-5.44-20.35-8.76s-14.18-7.09-13.32-11.17,12-11.12,18.5-13.28,16.65.5,20.72.3,3.08-1.26,3.7-1.51" transform="translate(-67.52 -154.5)"/><path class="cls-1" d="M1437.47,628.85c1.1-2.35,5.65-8.64,6.6-14.11s-1.19-9.21-.94-18.66.75-32.93,2.47-38,6.13,6,7.85,7.39,1,1.45,2.47,1.16,4.78-3.24,6.24-2.9,3.11.94,2.57,4.93-5.92,11.38-5.82,19,5.59,19.07,6.4,26.62-1.27,15.55-1.53,18.67" transform="translate(-67.52 -154.5)"/><path class="cls-1" d="M1417.78,619.44c.79-2.07,3.48-7,4.74-12.41s2.11-14,2.78-19.8,1.37-11.86,1.24-15.09-1.57-.81-2-4.25a136.81,136.81,0,0,1-.67-16.39c.21-3.35,1.27-3,1.92-3.73s.3-.44,2-.73a79.94,79.94,0,0,1,8-1c2.08-.08,2.69-.21,4.48.55a15.19,15.19,0,0,1,6.22,4c2.24,2.49,5.48,5.92,7.21,10.9s2.6,12.69,3.14,19a134.48,134.48,0,0,1,.06,18.92c-.37,5.54-1.88,11.94-2.25,14.33" transform="translate(-67.52 -154.5)"/><path class="cls-1" d="M1458.43,759.69c-2.4-.54-2.42-.74-6.87.06s-15.51,3.09-19.82,4.7-4.42,3.1-6,5a20.46,20.46,0,0,0-3.71,6.25,37,37,0,0,0-1.71,7.76c-.21,1.85-.07,2.6.44,3.3s2.17.78,2.61.93" transform="translate(-67.52 -154.5)"/><path class="cls-1" d="M1451.92,786.09c-4.18,1.39-20.9,5.73-25.07,8.3s1.19,7,.1,7.08-6.76-8.14-6.63-6.62,2.14,13.17,7.43,15.75,18.08.81,24.34-.28,9.8-5.26,13.22-6.23,6.07.34,7.28.41" transform="translate(-67.52 -154.5)"/><path class="cls-1" d="M1470.68,875.4c-1.29,1.35-3.57,3.52-7.73,8.06s-14,13.53-17.19,19.17-1.54,10-1.94,14.66-1.23,9.34-.51,13.35a26.25,26.25,0,0,0,4.85,10.7c2.32,3.24,6.81,6.79,9.11,8.75s1.08,1.41,4.66,3,14,5.66,16.79,6.79" transform="translate(-67.52 -154.5)"/><path class="cls-1" d="M1468.07,907.56c-1.51.83-5.71,2.07-9,5s-9.32,8.59-10.93,12.53.63,8.83,1.23,11.15,1.18,2.16,2.35,2.81.7.88,4.69,1.07,16,.08,19.23.1" transform="translate(-67.52 -154.5)"/><path class="cls-1" d="M1419.42,1051.71c-.88,1.09-5.66,4.15-5.26,6.52s7.29,6.32,7.63,7.73-5.83-.22-5.61.75,4.07,2.21,7,5.1,10.93,5.89,10.41,12.2-10.84,17.34-13.55,25.68a60.16,60.16,0,0,0-2.68,24.32c.79,7.11,4.84,14.66,7.45,18.28s6.53,1.78,8.23,3.48,1.65,5.6,2,6.72" transform="translate(-67.52 -154.5)"/><path class="cls-1" d="M1468.2,1066.93c.72,1.45,3.8,5.51,4.35,8.69s0,6.32-1,10.41-2.61,10.37-5.35,14.13-7.89,7-11,8.47-4.16.44-7.84.58-11.92.2-14.24.26.28.07.34.09" transform="translate(-67.52 -154.5)"/><path class="cls-1" d="M1438.8,1229.25c-.45,9-2.84,43.23-2.69,54.08s1.59,8.11,3.57,11,5.3,4.17,8.3,6.5,4.27,5.84,9.66,7.5,18.94,2.1,22.72,2.52" transform="translate(-67.52 -154.5)"/><path class="cls-1" d="M1416.28,1236.65c4.44-.06,18.69-.52,26.65-.34s17.6,1.18,21.12,1.42" transform="translate(-67.52 -154.5)"/><path class="cls-1" d="M1425.58,1521.43c2.06-1.38,9.09-5.64,12.34-8.29a37,37,0,0,0,7.15-7.62,42.91,42.91,0,0,0,5-9.07,36.59,36.59,0,0,0,2.66-9.82,120.62,120.62,0,0,0,.64-14.6,43.2,43.2,0,0,0-.85-10c-.65-2.35-2.54-3.47-3-4.16" transform="translate(-67.52 -154.5)"/><path class="cls-1" d="M1415.69,1408.11c1.88-.41,7.76-2.18,11.29-2.49a40.74,40.74,0,0,1,9.88.63c2.56.42,3.9.75,5.45,1.93s2.26,4.51,3.89,5.16,4.4-.53,5.88-1.26,1.11-1.84,3-3.14,4.16-4.51,8.34-4.62,13.93,3.34,16.71,4" transform="translate(-67.52 -154.5)"/><path class="cls-1" d="M1418.87,1664.86c2,1.91,8.26,8.85,11.84,11.47s5.79,3.27,9.61,4.23a62.7,62.7,0,0,0,13.32,1.51,19.83,19.83,0,0,0,7.77-1.81,5.65,5.65,0,0,0,3.33-2.72,14.48,14.48,0,0,0,2.59-6.34c.74-3.68,2.9-9.41,1.85-15.7s-6.78-18.37-8.14-22" transform="translate(-67.52 -154.5)"/><path class="cls-1" d="M1457.34,1672.71l10.73,16" transform="translate(-67.52 -154.5)"/><path class="cls-1" d="M1434.22,1755.19c-.49,2.22-2.65,10.37-3,13.29s-1,1.46,1.11,4.22a156.19,156.19,0,0,0,11.47,12.38c3.39,3.27,7.15,5.49,8.88,7.25s1.17,1.81,1.48,3.32a22.5,22.5,0,0,1,.37,5.74,6.46,6.46,0,0,1-1.48,3.62,14.78,14.78,0,0,1-4.07,3.62c-1.54.86-4.56,1.26-5.18,1.51s1.23,0,1.48,0" transform="translate(-67.52 -154.5)"/><path class="cls-1" d="M1433.48,1818a68.36,68.36,0,0,1,3.7,7.85c.86,2.67,1.91,3.92,1.48,8.15s-3.7,13.13-4.07,17.21.56,5.28,1.85,7.25.62,2.36,5.92,4.52,20,6.19,25.9,8.46,7.7,4.28,9.25,5.13" transform="translate(-67.52 -154.5)"/><path class="cls-1" d="M1458.68,1952c1.25,1.72,4.88,4.46,7.51,10.31a180.3,180.3,0,0,1,8.27,24.8c2.39,9.11,5.21,21.76,6.06,29.83s-.51,14.39-1,18.6-.91,5.18-1.84,6.63-2,2.88-3.75,2.1a12.78,12.78,0,0,1-7-6.76c-1.6-4-.68-12.7-2.59-17.54s-5.61-8.35-8.85-11.51a46.54,46.54,0,0,0-10.61-7.42,19.09,19.09,0,0,0-7.59-1.79c-1.69-.14-1.18-.41-2.58.91a24.29,24.29,0,0,0-5.81,7,80.93,80.93,0,0,0-4.77,13.95c-.69,3.14-.7,2.11.63,4.86a128.39,128.39,0,0,0,7.38,11.64,135.68,135.68,0,0,0,8.68,12.07c2.86,3.27,7.08,6.29,8.5,7.55" transform="translate(-67.52 -154.5)"/><path class="cls-1" d="M1422.18,1973c.9,1.07,2.72,4.28,5.38,6.44a71.45,71.45,0,0,0,10.58,6.52,25.15,25.15,0,0,0,7.56,2.63,27.46,27.46,0,0,0,7.3,0,40.62,40.62,0,0,0,7.86-1.27,5,5,0,0,0,3-2.52,7,7,0,0,0,1.83-4.51c.26-2.81,1.11-9-.26-12.37s-6-6.3-8-7.64-2.2-.31-3.79-.37-4.56-.86-5.77,0a5,5,0,0,0-1.51,5.15c.63,1.94,3.88,4.8,5.28,6.46s2.71,2.45,3.09,3.51a2.85,2.85,0,0,1-.84,2.87,4.83,4.83,0,0,1-3.3,1.44,24.91,24.91,0,0,1-6.9-.42c-2-.5-2.25,0-5-2.55s-9.07-8.61-11.57-12.48-2.85-8.95-3.43-10.74" transform="translate(-67.52 -154.5)"/><path class="cls-1" d="M1472.89,2126" transform="translate(-67.52 -154.5)"/><path class="cls-1" d="M1467.08,2134.73c.93,1.62,5.12,4.8,5.58,9.72s-1.23,15.56-2.8,19.77-3.73,4.14-6.63,5.54-6.53,1.1-10.72,2.83a120.8,120.8,0,0,0-14.45,7.52c-3.41,2.14-4,3.1-6,5.31s-5.29,5.66-6.23,8-.26,4.07.53,5.88,2.29,3.23,4.19,5a43.85,43.85,0,0,0,7.2,5.5c2.43,1.36.92,1,7.33,2.68s25.92,6,31.1,7.16" transform="translate(-67.52 -154.5)"/><path class="cls-1" d="M1427.7,2114.07c-.5,1.62-2.61,6.86-3,9.69s-1.22,5.41.64,7.3,5.27,2.22,10.51,4,16.92,4.75,20.93,6.79,2.58,3.25,3.16,5.46.89,6,.35,7.8-2,2.07-3.61,3a42.7,42.7,0,0,1-6,2.74,31.44,31.44,0,0,1-6.24,2c-1.7.21-1.81.06-3.94-.73s-5.88-3.28-8.88-4-6.49.94-9.14-.52-6.71-5.75-6.77-8.21,5.54-5,6.41-6.54-1-2.29-1.2-2.75" transform="translate(-67.52 -154.5)"/><path class="cls-1" d="M1553.72,225.84c.81-1.39,1.17-5.21,4.84-8.32s11.9-7.71,17.19-10.31,11.13-4.73,14.56-5.26,4.46,1.3,6,2.11a6.73,6.73,0,0,1,3.2,2.78c.75,1.34,1.14,1,1.31,5.3s0,15.6-.33,20.62,1.21,4.21-1.45,9.48-12.16,17.9-14.53,22.11-2,3,.27,3.13,10.18-1.52,13.11-2.41,3.75-2.45,4.5-2.94" transform="translate(-67.52 -154.5)"/><path class="cls-1" d="M1577.71,171.49c2.64-.7,11.69-3.66,15.81-4.16a18.56,18.56,0,0,1,8.9,1.17c2.33.72,3.79,1.1,5.08,3.16s2.21,7.69,2.66,9.23" transform="translate(-67.52 -154.5)"/><path class="cls-1" d="M1556.06,373.66c1.9-.34,8.82-1.71,11.42-2a8.26,8.26,0,0,1,4.2.22,65.51,65.51,0,0,1,6.51,2c2.76.92,6.24,2.79,10.08,3.48a46.57,46.57,0,0,0,13,.68c3.78-.53,8.13-3.22,9.75-3.86" transform="translate(-67.52 -154.5)"/><path class="cls-1" d="M1579.75,359.05c.52,1.49,2.5,5.12,3.1,8.92a52.9,52.9,0,0,1,.5,13.9c-.59,4.46-3.38,10.72-4,12.86" transform="translate(-67.52 -154.5)"/><path class="cls-1" d="M1558.34,524.77c-.12,1.26-1.29,4-.74,7.55s.62,7.7,4.07,13.89,13.14,18.87,16.65,23.25,3.7,2.51,4.44,3" transform="translate(-67.52 -154.5)"/><path class="cls-1" d="M1591.27,628.33c-2.4-2.87-11.53-12.48-14.43-17.21s-2.59-8.3-3-11.17-.18-4.08.74-6,2.65-4.63,4.81-5.74,6.78-.75,8.14-.9" transform="translate(-67.52 -154.5)"/><path class="cls-1" d="M1605.79,726.68c.7,3.27.26,6.22-2.49,10.89s-10.39,13.56-14,17.17-6.38,2.67-7.45,4.46-.49,4.13,1,6.27,4.68.58,8.13,6.57,10.38,23,12.59,29.35.6,7.43.71,8.91" transform="translate(-67.52 -154.5)"/><path class="cls-1" d="M1572.44,727.89" transform="translate(-67.52 -154.5)"/><path class="cls-1" d="M1550.86,709.54c-.69,1.19-2.86,3.46-4.1,7.13s-3.16,11.31-3.35,14.9,1,4.52,2.22,6.64a24.92,24.92,0,0,0,5.22,6.1,12.92,12.92,0,0,0,5.92,3c2.59.58,5.46,1.52,9.59.51s11-4.43,15.21-6.6a100.26,100.26,0,0,0,10-6.4" transform="translate(-67.52 -154.5)"/><path class="cls-1" d="M1566.3,885.34c1.35.65,6.53,2.86,8.14,3.92s1.48.5,1.48,2.42-1.73,6.94-1.48,9.05,2,2.77,3,3.63.55,1.1,3,1.5,8.75.51,11.47.91a10.6,10.6,0,0,1,4.81,1.51c1.66.91,3.88,1.86,5.17,3.92s2.16,7,2.59,8.46" transform="translate(-67.52 -154.5)"/><path class="cls-1" d="M1559.27,953c-.68-2.51-3.45-10.26-4.07-15.09s.12-10.27.37-13.89-.06-4.48,1.11-7.85a110,110,0,0,1,5.92-12.38c1.42-2.56.62-1.71,2.59-3s5.61-3.82,9.25-4.83,8.32-.5,12.58-1.21,9.25-1.46,13-3a32.17,32.17,0,0,0,9.24-6.34,8.14,8.14,0,0,0,2.59-5.44,10.32,10.32,0,0,0-1.11-5.74c-.8-1.4-2.15-2-3.7-2.71a15,15,0,0,0-5.55-1.51,47.62,47.62,0,0,0-9.24.3,16.09,16.09,0,0,0-5.55,2.11c-.87.56.3,1,.37,1.21" transform="translate(-67.52 -154.5)"/><path class="cls-1" d="M1560.93,1051.45c-.06,1.86-.55,8.35-.37,11.17s.37,3.82,1.48,5.74a14.12,14.12,0,0,0,5.18,5.73,86.26,86.26,0,0,0,15.17,8.46c6.48,2.76,18.87,5.88,23.68,8.15s3.88,3.32,5.18,5.43,2.16,6,2.59,7.25" transform="translate(-67.52 -154.5)"/><path class="cls-1" d="M1565.74,1120.59c3,1,13.26,3.87,17.76,6a29.87,29.87,0,0,1,9.25,7c2.22,2.31,2.65,1.91,4.07,6.94s3.7,19.37,4.44,23.25" transform="translate(-67.52 -154.5)"/><path class="cls-1" d="M1547.82,1256.41c.15.88-.18,4.9.9,5.23s2.75-3.36,5.61-3.21,9.62,4.2,11.56,4.06-.9-3,.07-4.89,4.83-5.61,5.79-6.74" transform="translate(-67.52 -154.5)"/><path class="cls-1" d="M1587.86,1246.82c1.11,1,5.41,4.75,6.67,6.07s-.68,1.46.92,1.83,6.11,1,8.64.4,4.58-1.1,6.49-3.65,4.75-9,5-11.65-2.62-3.13-3.73-4.21-.89-1.84-2.9-2.3-7.66-.4-9.2-.47" transform="translate(-67.52 -154.5)"/><path class="cls-1" d="M1589.89,1409.31c.6-1,3.37-4.82,3.59-6.21s-.26-1-2.3-2.13-6.72-4.11-10-4.45-7.2.47-9.41,2.37-2.11,7.36-3.89,9-7.38-1.12-6.85.83,5,5.54,10.06,10.89,16.66,16.68,20.47,21.21-.46.94,2.38,6,11.29,15.57,14.64,24.29,4.52,23.34,5.42,28" transform="translate(-67.52 -154.5)"/><path class="cls-1" d="M1544.92,1403.9c2.15-.22,9-1.21,12.9-1.31s7.78-.1,10.48.73,4.15,2.5,5.73,4.22,2.55,6,3.73,6.1,2-4,3.34-5.47a9.2,9.2,0,0,1,4.61-3.09,40.34,40.34,0,0,1,9.5-1.41c3.62-.17,10.16.32,12.19.38" transform="translate(-67.52 -154.5)"/><path class="cls-1" d="M1556.59,1575.67c-.18,2.34-2.27,9.7-1.07,14s6.28,10.07,8.26,12-.15-1.26,3.61-.67,16.12,2.9,19,4.19-3.59,1.68-1.88,3.53,9.9,5,12.12,7.59,1.72,2.73,1.2,7.64-3.64,16.28-4.3,21.83.28,9.58.34,11.49" transform="translate(-67.52 -154.5)"/><path class="cls-1" d="M1547.59,1687.39c1-2.31,3.69-6.1,6.21-13.86s6.11-24.74,8.9-32.69,4.63-11.17,7.84-15" transform="translate(-67.52 -154.5)"/><path class="cls-1" d="M1584.62,1777.34c-2.16.55-9.31,2.11-12.95,3.32a84.38,84.38,0,0,0-8.88,3.93" transform="translate(-67.52 -154.5)"/><path class="cls-1" d="M1558,1832c2.49,1.55,12.5,7.49,15,9.33s-1.39,1.62-.2,1.7,2.27-.11,7.37-1.2,18.07-3.74,23.2-5.34,6.48-11,7.56-4.25.88,36.2-1.1,44.59-8.26,4.59-10.79,5.75a14,14,0,0,1-4.37,1.2" transform="translate(-67.52 -154.5)"/><path class="cls-1" d="M1589.42,1967.59c-.55,1.76-1.29,6.49-3.33,10.56s-6.53,9.61-8.88,13.89a90.71,90.71,0,0,0-5.18,11.77c-1.17,3.12-1.72,4.58-1.85,7a21.94,21.94,0,0,0,1.11,7.24c.74,2.57,1.17,5,3.33,8.16a90.47,90.47,0,0,0,9.62,10.86c3,3,4.19,4.73,8.51,7s14.49,5.28,17.39,6.34" transform="translate(-67.52 -154.5)"/><path class="cls-1" d="M1572.4,2052.42c-1.42-.9-6.16-3.47-8.51-5.43a23,23,0,0,1-5.55-6.34,45.47,45.47,0,0,1-4.07-10c-.74-2.86-.49-4.58-.37-7.24a48.61,48.61,0,0,1,1.11-8.76,24.21,24.21,0,0,1,3-7.24c1.36-2.07,2.29-2.92,5.18-5.14s10.18-6.79,12.21-8.15" transform="translate(-67.52 -154.5)"/><path class="cls-1" d="M1589.25,2181.86" transform="translate(-67.52 -154.5)"/><path class="cls-1" d="M1589.54,2166.43" transform="translate(-67.52 -154.5)"/><path class="cls-1" d="M1563,2231c-1-.93-4.22-2.53-6.26-5.57a64.67,64.67,0,0,1-6-12.68c-1.48-4.24-2.83-7.94-2.9-12.71s1.11-13.36,2.49-15.92,4.11,2.32,5.76.59,2.43-8.73,4.1-11,3.67-2.09,5.94-2.42,3.85.59,7.68.46,12.68-.35,15.3-1.24" transform="translate(-67.52 -154.5)"/><path class="cls-1" d="M1560.21,2116.49c-.8,1.24-3.9,4.77-4.83,7.44s-.8,6.05-.74,8.57a20,20,0,0,0,1.11,6.52,24.86,24.86,0,0,0,3.34,6.29c1.35,1.84,2.59,3.67,4.81,4.76a20,20,0,0,0,8.52,1.73" transform="translate(-67.52 -154.5)"/></svg>