<?xml version="1.0" encoding="utf-8"?>
<!-- Generator: Adobe Illustrator 24.0.0, SVG Export Plug-In . SVG Version: 6.00 Build 0)  -->
<svg version="1.1" id="Layer_1" xmlns:ev="http://www.w3.org/2001/xml-events"
	 xmlns="http://www.w3.org/2000/svg" xmlns:xlink="http://www.w3.org/1999/xlink" x="0px" y="0px" viewBox="0 0 49.4 87.8"
	 style="enable-background:new 0 0 49.4 87.8;" xml:space="preserve">
<style type="text/css">
	.st0{fill:none;stroke:#000000;}
</style>
<polyline class="st0" points="22.7,3.4 19.5,8.6 15.1,17.6 12,24.5 19.5,26.4 15.1,20 8.4,10.4 "/>
<path class="st0" d="M37.3,55.4c0,0-4.2-1.2-5.1-2.2c-1-1.1-1.7-5.6-1.7-5.6l7.7-7l1.1,2.5c0,0,5.2,6.6,6.1,9.2
	c0.6,1.5,1,4.8,0.8,6.4c-0.1,1.4-1.9,5.5-1.9,5.5l-0.5,1.5c0,0-10.1-2.7-12.9-4.6c-2.6-1.8-6.6-6.7-8.1-9.5c-1.1-2-2.5-8.6-2.5-8.6
	S19,38,18.1,36.6c-0.6-1.1-2-3.7-3.3-3.9c-1-0.2-3.4,1.1-3.3,2.1c0.1,0.9,2.4,1,3.3,1.2c2.9,0.5,10.1,2.4,11.9,0.1
	c0.7-0.9-1.2-3.2-1.2-4.3"/>
<path class="st0" d="M10.3,42.6l-7,6.2l0.9,3l11.3-6c0,0,1.4,7.8,1.4,10.4c0.1,1.8-0.3,5.5-0.6,7.3c-0.3,1.6-1.9,4.6-1.6,6.2
	c0.4,2.2,5,7.4,5,7.4l-2.4,7.5"/>
</svg>
