<?xml version="1.0" encoding="utf-8"?>
<!-- Generator: Adobe Illustrator 24.0.0, SVG Export Plug-In . SVG Version: 6.00 Build 0)  -->
<svg version="1.1" id="Layer_1" xmlns:ev="http://www.w3.org/2001/xml-events"
	 xmlns="http://www.w3.org/2000/svg" xmlns:xlink="http://www.w3.org/1999/xlink" x="0px" y="0px" viewBox="0 0 80 172.5"
	 style="enable-background:new 0 0 80 172.5;" xml:space="preserve">
<style type="text/css">
	.st0{fill:none;stroke:#000000;}
</style>
<path class="st0" d="M75.1,50.3c-16.5-16.9-33.5-31.9-50.5-48"/>
<path class="st0" d="M12.6,121.9l5,42.4l-6.5,3.2l0.8-35.4c0,0,16.8-2.3,19.5-6.6c2.6-4.1-2-14.4-2.1-19.3c0-2.7,1.4-8,0.9-10.6
	c-0.5-3.1-5-11.4-5-11.4S24.8,73,25,69.3c0.2-4.3,0.2-13.1,1.8-17.1c0.6-1.6,3.1-4,4.1-5.3c0.2-0.3,0.5-1.2,0.8-1.2
	c1.1,0,2.2,2.5,2.6,3.5c1.2,2.7,2,8.7,2.1,11.7c0.2,6.2-2.8,24.8-2.8,24.8s4.2,18.2,6.1,24.2c1.3,4.2,4.8,12.2,5.9,16.4
	c1,3.8,2.8,11.6,2.8,15.6"/>
<path class="st0" d="M10.2,31.8c0,2.9-1.6,8.5-2,11.4c-0.3,2.1-1.1,6.2-0.6,8.3c0.4,1.9,2.1,5.8,3.6,7c2.2,1.7,8.2,2.4,11.1,2.6
	c3,0.1,8.9-1.3,11.9-1.6c2-0.3,6.1-0.5,8.1-0.9c2.8-0.5,8.1-2.3,10.9-2.9c1.3-0.3,3.9-1.2,5.2-1.2c1.6,0,6.2,1.1,6.2,1.1"/>
</svg>
