<?xml version="1.0" encoding="utf-8"?>
<!-- Generator: Adobe Illustrator 24.0.0, SVG Export Plug-In . SVG Version: 6.00 Build 0)  -->
<svg version="1.1" id="Layer_1" xmlns:ev="http://www.w3.org/2001/xml-events"
	 xmlns="http://www.w3.org/2000/svg" xmlns:xlink="http://www.w3.org/1999/xlink" x="0px" y="0px" viewBox="0 0 58.4 103.9"
	 style="enable-background:new 0 0 58.4 103.9;" xml:space="preserve">
<style type="text/css">
	.st0{fill:none;stroke:#000000;}
</style>
<path class="st0" d="M46.5,100.8l5.7-13.7c0,0-3.6-3-4.7-4.1C43,78.6,30.9,64.3,30.9,64.3 M27,42.8l8.3,6.9c0,0,3.7,2.2,4.1,3.4
	c0.4,1.2-1.7,4-1,5.1c1.5,2.5,8.3,3.6,11.2,3.2c1.6-0.2,4.9-1.8,5.4-3.3c0.6-2-2.1-6.1-3.6-7.5c-3.9-3.6-19.7-7.9-19.7-7.9l2.8,33.1
	l-3.3-35.9c0,0-3.1-3.4-4.2-2.8c-1,0.5,0.2,4.5,0.2,4.5 M4,12.8l-0.9,7.5c0,0,11.4-12.1,16.2-14.9c1.2-0.7,5.4-1.7,5.4-1.7
	S23.6,7,23,8c-0.4,0.7-1.3,2-1.6,2.8c-0.9,2.6-0.6,8.2-1.4,10.8c-0.9,2.9-5.1,7.6-5.7,10.5C14,33.9,14,37.8,15,39.3
	c0.9,1.3,4.2,2.2,5.7,2.8c1,0.3,3,0.9,4,1c2.1,0.2,7-0.2,7-0.2"/>
</svg>
