<?xml version="1.0" encoding="utf-8"?>
<!-- Generator: Adobe Illustrator 24.0.0, SVG Export Plug-In . SVG Version: 6.00 Build 0)  -->
<svg version="1.1" id="Layer_1" xmlns:ev="http://www.w3.org/2001/xml-events"
	 xmlns="http://www.w3.org/2000/svg" xmlns:xlink="http://www.w3.org/1999/xlink" x="0px" y="0px" viewBox="0 0 45.1 97.3"
	 style="enable-background:new 0 0 45.1 97.3;" xml:space="preserve">
<style type="text/css">
	.st0{fill:none;stroke:#000000;}
</style>
<path class="st0" d="M32.2,4.2c0,0-5.2-1.4-6.5-0.5c-1.5,1.1-1.4,5.3-1.9,7c-1.7,6.4-3.9,19.7-7,25.5c-1.3,2.4-4.8,9.3-7.3,8.2
	c-2.7-1.2-0.9-9.4,0.9-11.8c0.5-0.6,2.1-0.9,2.9-1c2.1-0.5,6.5-0.2,8.7-0.7c1.2-0.3,3.6-1.4,4.7-1.9c1.4-0.6,4.9-0.9,5.6-2.3
	c0.7-1.3,0.4-6.2-1.1-6c-4.9,0.7,2.6,14.8,1.8,19.7c-0.9,6-5,18.3-9.3,22.6c-1.4,1.4-6,1.3-7.2,2.8c-2.7,3.3-1.4,12.7-2.7,16.7
	c-0.4,1.2-1.4,3.5-2.2,4.4c-0.7,0.7-2.6,1.8-3.5,2c-1.2,0.3-4.8-1.1-4.9,0.1c-0.4,2.8,8.1,3,10.9,3.4c5.2,0.7,15.7-0.4,20.9-0.9
	c1.3-0.1,4.8,0.5,5.3-0.7c1.1-2.5-5.8-6.4-6.1-9.1c-0.3-3.2,4.9-8.8,4.9-12.1"/>
</svg>
