<?xml version="1.0" encoding="utf-8"?>
<!-- Generator: Adobe Illustrator 24.0.0, SVG Export Plug-In . SVG Version: 6.00 Build 0)  -->
<svg version="1.1" id="Layer_1" xmlns:ev="http://www.w3.org/2001/xml-events"
	 xmlns="http://www.w3.org/2000/svg" xmlns:xlink="http://www.w3.org/1999/xlink" x="0px" y="0px" viewBox="0 0 52.8 74.4"
	 style="enable-background:new 0 0 52.8 74.4;" xml:space="preserve">
<style type="text/css">
	.st0{fill:none;stroke:#000000;stroke-width:1.0901;}
</style>
<polyline class="st0" points="45.6,14.2 49.5,20.2 46.6,17 43.1,29.7 "/>
<path class="st0" d="M19.5,57.3l7.9-6c0,0-1.5-0.3-1.9-0.7c-3.2-3.5-5-14.7-4.6-19.9c0.3-3,2.3-9.6,4.7-10.8
	c1.2-0.6,3.8,2.1,5.1,1.7c1.4-0.4,3.5-3.2,4.3-4.6c0.8-1.4,1.7-6.3,1.7-6.3L23.3,9.9l-6.4-1.8c0,0-5.8-5.6-8.2-5.9
	C7.1,2,2.9,2.7,2.5,4.6c-0.3,1.3,2,4,3.2,4c1.4,0,2.6-4,3.9-4.6c7.7-3.2,32.3,4.3,32.3,4.3l3.8,5.8"/>
<path class="st0" d="M41,25.4c0,0-1.1,5.7-1.6,7.6c-0.7,2.8-2,8.5-3.1,11.2c-0.5,1.2-2.3,4.4-2.3,4.4L32,51.2c0,0-1,8.9-0.9,11.8
	c0.1,2.2,1.3,8.5,1.3,8.5l5.7-5.4"/>
</svg>
