<?xml version="1.0" encoding="utf-8"?>
<!-- Generator: Adobe Illustrator 24.0.0, SVG Export Plug-In . SVG Version: 6.00 Build 0)  -->
<svg version="1.1" id="Layer_1" xmlns:ev="http://www.w3.org/2001/xml-events"
	 xmlns="http://www.w3.org/2000/svg" xmlns:xlink="http://www.w3.org/1999/xlink" x="0px" y="0px" viewBox="0 0 76.2 127.4"
	 style="enable-background:new 0 0 76.2 127.4;" xml:space="preserve">
<style type="text/css">
	.st0{fill:none;stroke:#000000;stroke-linecap:round;stroke-linejoin:round;}
</style>
<path class="st0" d="M37.7,97.2L4.9,117.8l6.9,3.8l12.6-10.5l4.4,0.2c0,0,19.4,12.1,25.8,9.5c2.9-1.1,4.3-8.3,5.6-11.1
	c2.6-5.8,11.1-17.2,9.8-23.4c-1-4.5-10.6-8.8-13.5-12.3c-0.4-0.5-1.2-1.7-1.3-2.3c-0.3-1.3-0.8-5.2,0.5-5.3c1.4-0.1,2.4,4.7,1.2,5.4
	c-5.1,3-17.6-16-17.6-16l-9.1-5L13.8,47l1.8-6.8c0,0,14.1-0.5,18.5,1c2.3,0.8,6.8,3.5,8.1,5.7c1.1,1.8,1,8.5,1,8.5s-8-5-11-5
	c-4.5-0.1-15.5,6.4-14.3,10.7c0.3,1.1,4.3-0.6,4.7,0.5c0.6,1.5-2.9,5.3-4.4,4.7c-2.6-1-0.1-11-0.1-11l-2.4-4.8l-7-8.7L13,25.5l2.4-9
	l12.2-5.5L39.1,6l3.8,3.7l9.8,6.9l14.8,0"/>
</svg>
