<?xml version="1.0" encoding="utf-8"?>
<!-- Generator: Adobe Illustrator 24.0.0, SVG Export Plug-In . SVG Version: 6.00 Build 0)  -->
<svg version="1.1" id="Layer_1" xmlns:ev="http://www.w3.org/2001/xml-events"
	 xmlns="http://www.w3.org/2000/svg" xmlns:xlink="http://www.w3.org/1999/xlink" x="0px" y="0px" viewBox="0 0 51.9 73.4"
	 style="enable-background:new 0 0 51.9 73.4;" xml:space="preserve">
<style type="text/css">
	.st0{fill:none;stroke:#000000;stroke-width:1.173;}
</style>
<line class="st0" x1="7.9" y1="25.8" x2="6.5" y2="10.5"/>
<line class="st0" x1="5.1" y1="48.7" x2="2.3" y2="59.7"/>
<path class="st0" d="M11.6,38.1l8,3c0,0,0.6,3,1,3.9c0.6,1.4,3.4,4.9,3.4,4.9s-2.2,4.7-3.2,6c-1.6,2.2-7.4,4.2-7.3,7.4
	c0.2,3.6,6.6,6.3,9.1,7.1c4.3,1.2,17.6-2.7,17.6-2.7l0.7-9.1"/>
<path class="st0" d="M7.9,25.8l0.4-6.3c0,0,11.4-7.9,14.8-5.5c0.6,0.4,1.1,2.5,1,3.3c-0.2,2.4-4.3,5.2-4.3,7.6
	c0,2.4,4.2,7.8,4.2,7.8l12.8,3.6l-0.9-5.7"/>
<path class="st0" d="M14.6,36.5l6.3,0.1c0,0,3.2-4.7,4.3-6.3c0.6-0.9,3.6-3.5,4-6.3c0.1-0.7-2-2-3.7-1.1c-1.5,0.8-3,11.4-3,11.4
	s2.1,6.2,3.4,7.4c3.2,3.1,11.4,5.2,15.2,4.6c2.1-0.3,6.9-2.2,7.7-4.9c1.7-6-6.8-23.9-6.8-23.9"/>
<line class="st0" x1="40.7" y1="5.3" x2="32.9" y2="2.6"/>
</svg>
