<?xml version="1.0" encoding="utf-8"?>
<!-- Generator: Adobe Illustrator 24.0.0, SVG Export Plug-In . SVG Version: 6.00 Build 0)  -->
<svg version="1.1" id="Layer_1" xmlns:ev="http://www.w3.org/2001/xml-events"
	 xmlns="http://www.w3.org/2000/svg" xmlns:xlink="http://www.w3.org/1999/xlink" x="0px" y="0px" viewBox="0 0 75.7 130.5"
	 style="enable-background:new 0 0 75.7 130.5;" xml:space="preserve">
<style type="text/css">
	.st0{fill:none;stroke:#000000;stroke-linecap:round;stroke-linejoin:round;}
</style>
<path class="st0" d="M40.2,56.2l3.6-0.9l-0.3,1.4l4.6-5.4l-7.9,13.2l3.9,21.1c0,0-4.8,12.9-5.3,17.3c-0.7,6,1.9,24.2,1.9,24.2
	l10.3-1.3l-7.3-53c0,0-7.2-11.6-11.8-12.6C27.9,59.4,16.5,66,16.5,66L4.3,64L2.5,64c0,0,15.6,11.1,22,12.5c2.2,0.5,9.1-0.6,9.1-0.6
	L24,67.6 M70.3,67.4c0,0-6.1-4.7-6.7-6.9c-0.6-2.6,3.6-7.6,3.6-10.3c-0.1-2.4-3.8-9.1-3.8-9.1s-14.1,0.2-18.1-1.6
	c-2.3-1.1-5.6-4.9-6.6-7c-3.2-6.7-2.9-28.8-2.9-28.8l9.5-0.4c0,0-18.3,21.4-16.8,29.5c0.3,1.6,3.6,3.9,5.3,4.7
	c7.3,3.4,32.5,5.5,32.5,5.5l-1.2,0.6L42.7,65.1l-2.9,10.1l3.4,7.5"/>
</svg>
