<?xml version="1.0" encoding="utf-8"?>
<!-- Generator: Adobe Illustrator 24.0.0, SVG Export Plug-In . SVG Version: 6.00 Build 0)  -->
<svg version="1.1" id="Layer_1" xmlns:ev="http://www.w3.org/2001/xml-events"
	 xmlns="http://www.w3.org/2000/svg" xmlns:xlink="http://www.w3.org/1999/xlink" x="0px" y="0px" viewBox="0 0 101.1 153.2"
	 style="enable-background:new 0 0 101.1 153.2;" xml:space="preserve">
<style type="text/css">
	.st0{fill:none;stroke:#000000;}
</style>
<path class="st0" d="M66,132.4l16.8-40.6l-39.6-34L31.7,84.8l-6.5,58.9 M11.5,45l7,4.3l1-0.6l11.6-13.3c0,0,9.7,3.4,12.7,2.3
	c2.7-1,5-7.2,7.4-8.9c2.1-1.4,7.7-1.7,9.8-3.2c0.7-0.5,1.9-3,1.9-3s-0.7-3.9-1.3-5.1c-0.2-0.3-0.6-0.9-0.9-1
	c-1.6-0.5-5.3,0.3-6.6,1.4c-3.2,2.7-5.5,11.5-6.1,15.6c-0.1,0.9,0.4,2.6,0.4,3.5c0.2,3.5-1.4,10.6-0.3,14c0.2,0.7,1,2.5,1.7,2.3
	c2.9-0.7,0.8-9.1,2.1-11.9c1.3-3,5-8.9,7.9-10.4c4.7-2.4,21.2-0.2,21.2-0.2l2.3,5.4l3.7,1.1l1.7,1.7l-3.5,4.7l-7-0.1l-13,5.9"/>
</svg>
