<?xml version="1.0" encoding="utf-8"?>
<!-- Generator: Adobe Illustrator 24.0.0, SVG Export Plug-In . SVG Version: 6.00 Build 0)  -->
<svg version="1.1" id="Layer_1" xmlns:ev="http://www.w3.org/2001/xml-events"
	 xmlns="http://www.w3.org/2000/svg" xmlns:xlink="http://www.w3.org/1999/xlink" x="0px" y="0px" viewBox="0 0 38.4 44.2"
	 style="enable-background:new 0 0 38.4 44.2;" xml:space="preserve">
<style type="text/css">
	.st0{fill:none;stroke:#000000;}
</style>
<path class="st0" d="M18.9,27.4l5.8-7l-3.5,2c0,0,0.5,7.2-0.4,9.4c-0.7,1.5-4.6,3.1-4.7,4.8c-0.1,1.3,1.9,3.9,3.1,4.4
	c3.6,1.4,14.9-3.2,14.9-3.2l1.4-6"/>
<path class="st0" d="M17.5,1.8c0,0-6.4-0.2-7.9,1.1C8.9,3.4,8.1,5.3,8.4,6.2c1.3,3.4,12.7,7.1,12.7,7.1l-2.8,6
	c0,0-11.8-5.6-11.8-9.3"/>
<line class="st0" x1="14.1" y1="8.1" x2="17.5" y2="1.8"/>
<path class="st0" d="M2.2,35.7l3.1,4.2c0,0,5.9-7,8.7-7.6c1-0.2,4,0.2,4,1.2"/>
</svg>
