<?xml version="1.0" encoding="utf-8"?>
<!-- Generator: Adobe Illustrator 24.0.0, SVG Export Plug-In . SVG Version: 6.00 Build 0)  -->
<svg version="1.1" id="Layer_1" xmlns:ev="http://www.w3.org/2001/xml-events"
	 xmlns="http://www.w3.org/2000/svg" xmlns:xlink="http://www.w3.org/1999/xlink" x="0px" y="0px" viewBox="0 0 86.5 174.3"
	 style="enable-background:new 0 0 86.5 174.3;" xml:space="preserve">
<style type="text/css">
	.st0{fill:none;stroke:#000000;}
</style>
<path class="st0" d="M79.2,166.3c0-2.6-7.5-2.1-9.8-3.1c-5.4-2.5-18.2-7.1-20.3-12.8c-0.5-1.3,1.3-4,1.6-5.3c0.6-2.2,2.5-6.7,2.3-9
	c-0.4-4.9-3.7-15.8-8.2-17.8c-2.1-0.9-6.7,1.5-8.6,2.8c-2.9,2.1-5.3,12.4-8.7,11.3c-1.3-0.4,1.2-5-0.1-5.4
	c-5.3-1.8-14.1,12.4-13.5,18c0.2,1.5,3.2,3.4,4.6,4c4.2,1.8,13.6,1.4,18.1,1.7c2.7,0.2,8.6,1.8,10.8,0.3c0.8-0.5,1.7-2.5,1.3-3.4
	c-0.8-1.8-6.9-0.9-7.3-2.9c-0.3-1.1,1.8-3.1,2.9-3.4c1.8-0.5,7.6,1,6.9,2.7c-0.8,2.1-6.4-2.4-8.5-3.3c-1.7-0.6-6.1-0.9-6.7-2.6
	c-0.8-2.2,5.2-5.9,4.5-8.1c-1.6-4.7-14.6-4.7-18.2-8.1c-3.6-3.4-8.1-12.7-9.3-17.5c-0.8-3.1,0.4-9.7,0.1-12.9
	c-0.8-7-7.1-20.4-6.5-27.4c0.2-1.8,1.6-5.5,2.9-6.7c4.1-3.6,15.6-5.6,21.1-5.7c2.7-0.1,9,0.2,10.7,2.3c1,1.3,0.9,5.1,0.1,6.5
	c-1,1.7-5,2.9-6.7,3.8c-0.8,0.4-2.3,2.2-3.1,1.8C27.2,63.8,27.7,50,30,45.4c0.5-1,2.9-1.7,3.8-2.3c2.8-2.1,10.5-5.8,10.4-9.2
	C43.8,25.6,20.9,22,17.7,14.5c-1-2.4,1.3-10.2,1.3-10.2"/>
</svg>
