<?xml version="1.0" encoding="utf-8"?>
<!-- Generator: Adobe Illustrator 24.0.0, SVG Export Plug-In . SVG Version: 6.00 Build 0)  -->
<svg version="1.1" id="Layer_1" xmlns:ev="http://www.w3.org/2001/xml-events"
	 xmlns="http://www.w3.org/2000/svg" xmlns:xlink="http://www.w3.org/1999/xlink" x="0px" y="0px" viewBox="0 0 57.2 83.1"
	 style="enable-background:new 0 0 57.2 83.1;" xml:space="preserve">
<style type="text/css">
	.st0{fill:none;stroke:#000000;stroke-width:0.9189;}
</style>
<path class="st0" d="M31.9,19.2c0-1.2-3.4-1.7-3.4-2.9c0.2-3.2,8.1-3.4,9.4-6.1C38.7,8.6,39,3.8,37.7,3c-1.4-0.8-4.5,2.5-4.9,4.3
	c-0.6,2.1,1.9,6.2,2.5,8.4c0.9,3.2,1.4,10.2,3.1,12.8c1.5,2.2,6,5,8.3,5.8c0.8,0.3,3.3-0.9,3.3,0.1"/>
<path class="st0" d="M39.1,36.4c0,4.1-1.4,12.3-1.3,16.5c0,1.2,0.4,3.6,0.5,4.9c0.1,1.3,0.5,3.8,0.6,5.1c0.1,2.1-1,6.3-0.4,8.2
	c0.7,2.2,3.7,5.8,5.4,6.9c2.1,1.2,9.2,1,9.2,1l0.1-5"/>
<path class="st0" d="M3.6,24.9c0-0.3,0.6-0.6,0.7-0.8c0.8-0.9,2.3-3.2,3.4-3.8c1.4-0.9,4.9-2.1,6.4-1.4c0.6,0.3,1.3,1.8,1.5,2.6
	c0.4,1.7-0.6,5.1-0.6,6.8c0,1.6,0.1,5,0.8,6.5c0.8,2,3.6,5.4,5.3,6.2c2.4,1.1,8.4,1.9,10.3-0.2c0.8-0.9,0.4-4,0.4-5.3"/>
<path class="st0" d="M24.1,24.6c0,0.5-0.8,1.7-0.5,2.1c1.6,1.7,7.1-1.4,7.9-3.7c0.4-1-1.4-2.9-1.4-4"/>
</svg>
