<?xml version="1.0" encoding="utf-8"?>
<!-- Generator: Adobe Illustrator 24.0.0, SVG Export Plug-In . SVG Version: 6.00 Build 0)  -->
<svg version="1.1" id="Layer_1" xmlns:ev="http://www.w3.org/2001/xml-events"
	 xmlns="http://www.w3.org/2000/svg" xmlns:xlink="http://www.w3.org/1999/xlink" x="0px" y="0px" viewBox="0 0 73.9 100"
	 style="enable-background:new 0 0 73.9 100;" xml:space="preserve">
<style type="text/css">
	.st0{fill:none;stroke:#000000;}
</style>
<path class="st0" d="M17.3,14.4c3,0,2.3-10,5.2-11c1.6-0.6,4.8,1.9,6.2,2.9c2.2,1.5,5.4,9,7.7,7.6c1.1-0.7-1.1-3.8-1.8-4.9
	c-0.4-0.7-2.7-1.6-2.3-2.3c1.1-1.8,7.4,0.6,8,2.6c0.3,1-1.6,3-2.6,3.3c-1.5,0.4-4.2-2.6-5.7-2.6 M65.9,7.1c1.2,0,3.1,2.3,4.3,2
	c0.1,0,0.3-0.3,0.3-0.4c0.2-0.8,0.2-2.5-0.3-3.1c-0.7-0.9-3.2-1.3-4.4-1.3c-1.6,0-4.4,1.6-5.9,2c-1.6,0.5-4.8,1.6-6.5,1.9
	C50.6,8.9,44.3,8.1,42,9.8c-1,0.8-1.3,3.6-2,4.7c-1.1,1.6-4.3,4-5.5,5.6c-2.3,3.1-6,9.9-7.7,13.4c-0.7,1.5-1.9,4.6-2.6,6.2
	c-1.1,2.5-3.9,7.2-4.7,9.8c-0.7,2.6,0,8.3-1.2,10.6c-0.8,1.5-3.5,3.8-5.1,4.4c-1.2,0.4-3.9-0.2-5.2-0.2c-1.3,0-4.9-1.1-5.1,0.2
	c-0.1,0.9,2.6,0.6,3.2,1.2C9,68,9.9,77.2,13.3,78.8c1.1,0.5,3.4-0.9,4.5-0.9c1.9-0.1,5.6,1.1,7.5,1c1.3-0.1,4.3-2.6,5.1-1.5
	c0.2,0.3-0.8,0.9-0.9,1.3c-0.3,2.1,2.3,6.1,2.5,8.3c0.2,2.1,0.7,6.9-0.9,8.4c-2.3,2.1-12.4,1.1-12.4,1.1"/>
</svg>
