<?xml version="1.0" encoding="utf-8"?>
<!-- Generator: Adobe Illustrator 24.0.0, SVG Export Plug-In . SVG Version: 6.00 Build 0)  -->
<svg version="1.1" id="Layer_1" xmlns:ev="http://www.w3.org/2001/xml-events"
	 xmlns="http://www.w3.org/2000/svg" xmlns:xlink="http://www.w3.org/1999/xlink" x="0px" y="0px" viewBox="0 0 50.8 75.6"
	 style="enable-background:new 0 0 50.8 75.6;" xml:space="preserve">
<style type="text/css">
	.st0{fill:none;stroke:#000000;}
</style>
<path class="st0" d="M28.4,69.3l-2.4,3.3c0,0-8-4.4-9.6-7c-0.7-1.1-0.9-4-0.8-5.3c0.3-2.7,2.1-7.9,3.5-10.1c0.7-1.1,2.5-3.3,3.7-3.8
	c2.5-0.9,8.1,1,10.8,0.9c1.6-0.1,6.2-1.9,6.2-1.9l-9.2-27.5l-3.7-1.3l-2.5,1.9l-8.9-6.2l-6.3-1.8l8.9,1.4l13.9,0.3
	c0,0,7.4-3.2,9.4-5c0.9-0.8,3.3-2.7,2.8-3.7c-0.7-1.3-4.7-0.9-6-0.1c-1.9,1.2-4.1,8.1-4.1,8.1l14.8,1.9l-4.6-0.8l-3.8,0.5l1.9-0.6
	l-9.7,3.4L8.1,39.7l-5.3-15"/>
</svg>
