<?xml version="1.0" encoding="utf-8"?>
<!-- Generator: Adobe Illustrator 24.0.0, SVG Export Plug-In . SVG Version: 6.00 Build 0)  -->
<svg version="1.1" id="Layer_1" xmlns:ev="http://www.w3.org/2001/xml-events"
	 xmlns="http://www.w3.org/2000/svg" xmlns:xlink="http://www.w3.org/1999/xlink" x="0px" y="0px" viewBox="0 0 44.5 60.4"
	 style="enable-background:new 0 0 44.5 60.4;" xml:space="preserve">
<style type="text/css">
	.st0{fill:none;stroke:#000000;stroke-linecap:round;}
</style>
<path class="st0" d="M3.5,39.8l-1,1.5c0,0,4.3-7,6.7-8.2c3.2-1.5,11.5,2.1,14.1-0.3c0.7-0.7,0-3.1,0.5-3.9
	c2.5-4.1,11.5-13.1,15.8-10.8c5.3,2.8,0.3,18.2-0.1,24.2c-0.2,2.5,0,7.8-1.3,9.9c-1.3,2.1-5.7,5.6-8.2,5.8c-0.9,0.1-3.4-0.6-3.4-1.6
	c0-1,2.6-1.6,3.5-2c1.1-0.5,3.6-2.1,4.5-1.3c0.5,0.5,0.3,2.8-0.4,2.7c-2.8,0,0.7-9.1-1.3-11c-0.6-0.6-2.9,0.4-3.3-0.3
	c-1.4-2.7,5.8-7.5,6-10.5c0.4-6.1-8.1-16.5-9.6-22.4c-0.5-2,1.4-7.9-0.6-8.1c-0.7-0.1-1.1,2.1-0.8,2.7c1,2.1,6.5,4.3,8.7,3.4
	c0.9-0.4,1.8-2.6,1.5-3.5C34.2,4,26.8,4,26.8,1.6"/>
</svg>
