<?xml version="1.0" encoding="utf-8"?>
<!-- Generator: Adobe Illustrator 24.0.0, SVG Export Plug-In . SVG Version: 6.00 Build 0)  -->
<svg version="1.1" id="Layer_1" xmlns:ev="http://www.w3.org/2001/xml-events"
	 xmlns="http://www.w3.org/2000/svg" xmlns:xlink="http://www.w3.org/1999/xlink" x="0px" y="0px" viewBox="0 0 56.5 86.4"
	 style="enable-background:new 0 0 56.5 86.4;" xml:space="preserve">
<style type="text/css">
	.st0{fill:none;stroke:#000000;}
</style>
<path class="st0" d="M37.4,38.2c0,0-4.4,1.7-5.2,3c-1.2,2-0.6,7-0.2,9.3c0.5,3.1,4.5,8.9,4.1,12c-0.4,3.3-7.6,9.6-9.7,10.9
	c-2.1,1.4-6.4,4.3-8.4,5.9C17.3,80,15.3,82,15.3,82s7-0.6,9.2-1.5c2.9-1.2,10.2-7.2,10.2-7.2 M8.5,18.7c0,0,11.9,5.5,14.3,8.8
	c1.7,2.4,3.2,8.5,2.4,11.3c-0.3,1-2,2.6-3,3c-1.6,0.7-5.4,0.1-7.1,0.5c-1.6,0.4-4.8,1.6-6.2,2.5c-1,0.6-2.9,1.9-3.3,3
	c-1.1,2.8-0.3,9.6,1.7,12c1.3,1.6,7.5,3.8,7.5,3.8l2.3-8.8 M43,17.6c0,0,1.8,5.9,3,7.6c1.3,1.9,6.6,6.3,6.6,6.3l-3.7-2.3
	c0,0-2.5-1.1-3.4-1.2c-0.9-0.1-2.4,0.2-3.3,0.6c-1.8,0.8-3.1,5.6-2.5,7.5c0.4,1.1,2.7,2.9,3.9,2.8c2.8-0.2,8-8.1,8-8.1 M48.2,13
	c-1.8,0-5.5-0.4-7.1-1.3c-2.1-1.2-6.5-7.1-6.5-7.1l0.8,10.2l1.4,7.8"/>
</svg>
