<?xml version="1.0" encoding="utf-8"?>
<!-- Generator: Adobe Illustrator 24.0.0, SVG Export Plug-In . SVG Version: 6.00 Build 0)  -->
<svg version="1.1" id="Layer_1" xmlns:ev="http://www.w3.org/2001/xml-events"
	 xmlns="http://www.w3.org/2000/svg" xmlns:xlink="http://www.w3.org/1999/xlink" x="0px" y="0px" viewBox="0 0 99.2 164.2"
	 style="enable-background:new 0 0 99.2 164.2;" xml:space="preserve">
<style type="text/css">
	.st0{fill:none;stroke:#000000;stroke-width:0.937;}
</style>
<path class="st0" d="M66.6,122.6c0,1.7,4.5,0.3,6,0.5c1.5,0.3,4.4,1.2,5.8,1.5c1.7,0.4,5.1,1.9,6.9,1.7c1.6-0.2,4.9-1.6,5.8-3.2
	c1-1.7,0.1-6.1,0.4-8.1c0.3-2.1,3.1-6.8,1.7-8.2c-2.3-2.3-9,3-11.5,5c-1.4,1.1-3.5,4.3-4.6,5.8c-1.4,1.8-4.2,5.4-5.3,7.4
	c-1.1,2-2.8,6.5-3.5,8.8c-1.1,3.3-1.7,10.5-3.4,13.4c-0.4,0.6-1.5,1.4-2,1.8c-1.2,0.8-3.7,2.3-5,2.8c-3,1.1-9.3,2.8-12.4,2.5
	c-6.1-0.4-18-5.1-23.4-8.4c-2.5-1.5-6.8-5.7-8.7-8c-1.3-1.5-3.7-4.7-4.4-6.7c-0.6-1.6-2.3-6.4-0.9-6.8c2.1-0.5,1.7,6.9,2.1,9.3
	c0.1,0.3,0.1,1.1,0.2,1.4c0.5,0.8,2.3,1.5,3,2.1c1.2,1.1,3.6,3.6,4.5,5.1c1.5,2.8,1.5,10.1,3.5,12.3c0.9,1,3.7,1.4,4.9,1.6
	c7,0.9,21-0.9,27.9-1.5c2.7-0.3,9.1,1.1,10.6-1.5c0.9-1.5-1.7-5.1-1.9-6.9c-0.2-2.4,0.4-7.2,0.7-9.7c0.5-4.9,4.2-15,2.4-19.5
	c-1-2.4-5.5-5.3-7.7-5.8c-2.1-0.5-6.5,2.7-8.4,1.5c-6.9-4.3-9.4-24.7-12.8-32.8C33.9,72,25.7,56.4,23.1,47.9c-2.9-9.7-7.3-40-7.3-40
	"/>
</svg>
