<?xml version="1.0" encoding="utf-8"?>
<!-- Generator: Adobe Illustrator 24.0.0, SVG Export Plug-In . SVG Version: 6.00 Build 0)  -->
<svg version="1.1" id="Layer_1" xmlns:ev="http://www.w3.org/2001/xml-events"
	 xmlns="http://www.w3.org/2000/svg" xmlns:xlink="http://www.w3.org/1999/xlink" x="0px" y="0px" viewBox="0 0 58.1 92.8"
	 style="enable-background:new 0 0 58.1 92.8;" xml:space="preserve">
<style type="text/css">
	.st0{fill:none;stroke:#000000;stroke-width:1.0379;}
</style>
<path class="st0" d="M20.9,32.6c0-2.4-6.5-0.1-8.7,0c-2.4,0-8.1-1.6-9.5,0.4c-0.5,0.7,0,2.7,0.6,3.3c1.8,1.7,7.4-0.8,9.5,0.4
	c2,1.2,4.5,5.6,5.2,7.9c0.9,2.8-0.9,9.4,0.5,12c0.2,0.5,1.2,1.2,1.7,1.1c0.5-0.1,0.9-1.2,1.3-1.5c0.7-0.5,2.5-1.5,3.3-1.1
	c1.1,0.6,1.9,4,1.2,5.1c-0.4,0.6-2.6,1.1-2.8,0.4c-0.4-1.2,3.1-3.1,4.1-2.5c4.3,2.7-1.6,16.3-0.1,21.4c0.9,3.1,7,10.7,7,10.7"/>
<path class="st0" d="M39,19.3c0-2.4,6.2-2.8,8.4-2.7c2.1,0.1,7,1.3,7.7,3.4c0.9,2.5-3.1,7.2-4.3,9.5c-2.3,4.3-5.4,15.8-10,16.7
	c-3.9,0.7-9.7-7.5-12.7-10.3c-2.2-2.1-6.5-6.4-8.4-8.8c-2.8-3.4-7.3-11.2-9.9-14.8c-1-1.4-5.2-4.1-4.2-5.4c1.2-1.5,4.5,4.1,6.4,4.1
	c4,0,9.8-8.5,13.8-8.5c2,0,6.4,2,7,4.1c0.7,2.3-1.6,8.3-3.8,8.6c-1.7,0.3-3.9-3.9-4.5-5.6C24,8,24.2,4.4,24.2,2.7"/>
</svg>
