<?xml version="1.0" encoding="utf-8"?>
<!-- Generator: Adobe Illustrator 24.0.0, SVG Export Plug-In . SVG Version: 6.00 Build 0)  -->
<svg version="1.1" id="Layer_1" xmlns:ev="http://www.w3.org/2001/xml-events"
	 xmlns="http://www.w3.org/2000/svg" xmlns:xlink="http://www.w3.org/1999/xlink" x="0px" y="0px" viewBox="0 0 63 98.4"
	 style="enable-background:new 0 0 63 98.4;" xml:space="preserve">
<style type="text/css">
	.st0{fill:none;stroke:#000000;}
</style>
<path class="st0" d="M58.3,53.2c0-1.2-3.7-0.2-5-0.4c-4.4-0.6-13-2.1-17.3-3.3c-5.1-1.4-15.7-4.3-20-7.5c-1.9-1.5-4.8-5.5-5.5-7.8
	C9.7,31.3,10.2,25,10.9,22c1-4.1,9.9-11.6,7.6-15.2C16.9,4.4,8.1,4.8,7,7.4c-1.2,2.9,7,6.4,8.4,9.2c3,6.3,1.8,20.9,4,27.4
	c1.6,4.7,5.8,14,9.4,17.3c1.5,1.3,5.4,3,7.4,3.1c1.7,0.1,5.6-0.6,6.3-2.1c0.7-1.5-2.4-4.6-3.4-5.3c-2.9-2-6.7-8.2-8.9-10.9
	c-0.7-0.8-2-2.5-2.6-3.4C26,40.4,21,36,21.4,33.2c0.4-3.4,6.7-8.5,10-9.5c2.2-0.7,6.8,1,9,1.6c3.9,1,13.2,2,15.1,5.6
	c1,1.9-1.3,6.3-2,8.4c-2.1,5.6-8.9,15.8-10.8,21.5c-0.2,0.5,0,1.8-0.4,2.2c-1.9,2-8.7,0.4-10.6,2.3c-3.2,3.3-0.9,14-3.4,17.8
	c-1.5,2.4-6.5,5.4-9.1,6.5c-3.7,1.5-15.6,2.7-15.6,2.7"/>
</svg>
