<?xml version="1.0" encoding="utf-8"?>
<!-- Generator: Adobe Illustrator 24.0.0, SVG Export Plug-In . SVG Version: 6.00 Build 0)  -->
<svg version="1.1" id="Layer_1" xmlns:ev="http://www.w3.org/2001/xml-events"
	 xmlns="http://www.w3.org/2000/svg" xmlns:xlink="http://www.w3.org/1999/xlink" x="0px" y="0px" viewBox="0 0 73 100.6"
	 style="enable-background:new 0 0 73 100.6;" xml:space="preserve">
<style type="text/css">
	.st0{fill:none;stroke:#000000;stroke-width:1.0056;}
</style>
<path class="st0" d="M5.9,34.6C28.1,40,23.8,63.4,31.6,64c1.3,0.1,3.7-3.5,5-3.6c1.2-0.1,2.7,3.3,3.8,2.5c1.6-1.2-0.2-7.3,1.3-8.8
	c1.6-1.5,5.1,0.8,6.7,1.3c1.4,0.4,3.9,1.8,5.2,2.3c0.7,0.3,2.4,0.2,2.9,0.8c1.9,2.5-0.5,13.3,2.3,14.3 M2.5,43.5
	c1.9,0.8,6.1,1.3,8,2.1c1.3,0.5,3.8,2.1,5.1,2.9c1.6,0.9,4.4,4,6.3,3.9c2-0.1,6.9-2.4,7.7-4.8c3.5-9.8-18-25.8-11.8-33.7
	c4.6-5.9,15,8.8,20.5,10.3c1.8,0.5,5.7,1.5,7.7,0.7c2.5-1,6.6-6.4,9-8.2c0.9-0.7,2.8-2.6,3.7-2.3c0.6,0.2,0.7,2.2,1.1,2.7
	c0.9,0.9,3.6,2.3,4.9,1.5c2.3-1.4,5-8,5.2-10.9c0.1-1.3-0.7-4.1-1.7-4.3c-2.5-0.4-11.2,3.3-9.5,11 M31.6,64
	c-1.1,2.1-2.4,8.4-1.2,9.8c1.7,1.8,8.2-2.2,9.8-0.3c0.9,1.1-0.5,5.6,0,7.1c0.9,2.5,5.5,4.6,6.5,7c1,2.2,1.2,10.5,1.2,10.5"/>
</svg>
