<?xml version="1.0" encoding="utf-8"?>
<!-- Generator: Adobe Illustrator 24.0.0, SVG Export Plug-In . SVG Version: 6.00 Build 0)  -->
<svg version="1.1" id="Layer_1" xmlns:ev="http://www.w3.org/2001/xml-events"
	 xmlns="http://www.w3.org/2000/svg" xmlns:xlink="http://www.w3.org/1999/xlink" x="0px" y="0px" viewBox="0 0 67.9 99"
	 style="enable-background:new 0 0 67.9 99;" xml:space="preserve">
<style type="text/css">
	.st0{fill:none;stroke:#000000;stroke-width:1.0689;}
</style>
<path class="st0" d="M4,54.2l3.7-1.2c0,0,1.5-21.4,2.4-28.5c0.2-1.5,0.9-5.9,0.9-5.9s4.8-0.2,6.1-1.1c0.9-0.6,2.4-2.4,2.8-3.5
	c0.6-1.7,1-5.8,0-7.1C17.5,3.8,7.7,0.8,5.4,4.2c-3.5,5.2,5.5,19.2,9.4,24.1c2.2,2.7,9.6,10,9.6,10 M49.2,28.3l6.1-2.1
	c0,0,1,4.1,1.4,5.4c1.4,4.6,6.1,18,6.1,18s-6.1-0.6-8.1-0.2c-4,0.9-11.2,6.1-15.1,7.4c-1.7,0.6-7.1,1.6-7.1,1.6l1.1-4.6
	c0,0-8-7.7-9.2-11.4c-0.8-2.4,0.4-10.2,0.4-10.2s6.6,5,7.6,7.7c0.7,2-0.4,8.5-0.4,8.5l0.6,2.2c0,0-4.8,1.3-6.1,2.4
	c-2.8,2.4-6,9.9-8.1,13c-1.7,2.6-6.1,7.1-7.1,10.1c-1.4,4.2-1.1,18-1.1,18l11.4-0.1l-0.4-7.4"/>
</svg>
