<?xml version="1.0" encoding="utf-8"?>
<!-- Generator: Adobe Illustrator 24.0.0, SVG Export Plug-In . SVG Version: 6.00 Build 0)  -->
<svg version="1.1" id="Layer_1" xmlns:ev="http://www.w3.org/2001/xml-events"
	 xmlns="http://www.w3.org/2000/svg" xmlns:xlink="http://www.w3.org/1999/xlink" x="0px" y="0px" viewBox="0 0 77.5 117.6"
	 style="enable-background:new 0 0 77.5 117.6;" xml:space="preserve">
<style type="text/css">
	.st0{fill:none;stroke:#000000;stroke-width:1.1421;}
</style>
<path class="st0" d="M8.7,13.4c0,2.2-2.2,6.7-1.6,8.7C8.5,26.2,17.8,26.8,19,31c0.4,1.3-2,3.9-1.5,5.1c0.7,1.4,4,0.2,5.3,0.4
	c1.1,0.2,3.1,1.4,4.2,1.2c0.5-0.1,1.4-1.6,1.8-1.2c0.6,0.9-1.2,3.2-2,3.8c-1.8,1.5-6.4,1.5-8.6,1.3c-1.8-0.2-5.3-2-7.1-2.5
	c-1.1-0.3-3.5-1-4.6-0.6c-0.8,0.3-2.5,1.8-2.7,2.9c-0.2,1.1,0.8,3.1,1.4,3.9c1.7,2.3,6.5,4.8,8.9,5.6c4.4,1.6,13.6,2.9,18.1,2
	c2.5-0.5,7.1-3.4,9.3-4.9c2-1.4,6.5-4.2,7.7-6.8c1.3-3,1.4-10.4,0.9-13.8c-0.6-4-5.4-10.5-5.7-14.6c-0.1-1.2,1.5-3.8,0.9-4.7
	C43.9,6.3,39,9.1,37,8.8c-3.8-0.6-11-5.5-14.8-5.3c-2.1,0.1-6.4,1.7-7.7,3.7c-2,3-2.2,11.7-2.3,15.7c-0.1,3.5-0.1,10.8,1,14
	C15,42.4,22,51.2,25.8,54.7c3.4,3.1,11.2,7.6,15.3,8.6c1.8,0.4,5.5-0.7,7.3-0.3c4.4,0.8,13.4,3.6,16.9,7.1c2,2.1,4.1,8.5,5.4,11.3
	c0.8,1.7,3,5,3,6.9 M49.1,113.8c0,0-11.6-7.9-14.5-12c-2.4-3.2-5.1-11.7-6.8-15.5c-0.9-2.1-3.8-5.8-3.8-8.3"/>
</svg>
