<?xml version="1.0" encoding="utf-8"?>
<!-- Generator: Adobe Illustrator 24.0.0, SVG Export Plug-In . SVG Version: 6.00 Build 0)  -->
<svg version="1.1" id="Layer_1" xmlns:ev="http://www.w3.org/2001/xml-events"
	 xmlns="http://www.w3.org/2000/svg" xmlns:xlink="http://www.w3.org/1999/xlink" x="0px" y="0px" viewBox="0 0 64.8 108.9"
	 style="enable-background:new 0 0 64.8 108.9;" xml:space="preserve">
<style type="text/css">
	.st0{fill:none;stroke:#000000;}
</style>
<path class="st0" d="M61.2,44c0,1.4-0.8,4.5-1.9,5.3c-6,4.8-22.8,3.8-30.5,3.7c-2.5,0-7.3-1.3-9.8-1.5c-2.7-0.2-9.5,2.2-10.8-0.2
	c-0.9-1.7,4.1-4.5,4.3-6.4c0.1-0.8-1.2-2.2-1.2-3c0.2-3.4,5.4-8.7,6.4-12c0.5-1.6,2.4-6.3,0.8-6.8c-0.4-0.1-1,1.2-0.7,1.6
	c1.4,1.8,6.9-0.4,9-1.2c2-0.8,5.7-3.2,7.2-4.8c0.9-1,2.5-3.5,2.5-4.9c0-1.4-1.6-4-2.5-5.1c-1.1-1.3-4-3.6-5.7-4
	c-2.1-0.5-6.8-0.1-8.7,1c-1.2,0.6-2.8,3-3.5,4.1c-3.3,4.8-11.3,14.8-11,20.7c0.1,1.4,2.6,3.2,3.1,4.5c0.9,2.4,1,7.7,1.3,10.3
	c0.2,1.3,0.3,3.9,0.6,5.2c0.4,1.6,1.2,5,2.4,6.2c0.4,0.4,1.7,0.3,2,0.7c2,2.2,2.2,8.8,2.9,11.8c0.7,3,2.2,9.1,2.8,12.2
	c0.6,3.3,1.9,10,1.7,13.4c-0.2,2.9-3.1,11.3-3.1,11.3"/>
</svg>
