<?xml version="1.0" encoding="utf-8"?>
<!-- Generator: Adobe Illustrator 24.0.0, SVG Export Plug-In . SVG Version: 6.00 Build 0)  -->
<svg version="1.1" id="Layer_1" xmlns:ev="http://www.w3.org/2001/xml-events"
	 xmlns="http://www.w3.org/2000/svg" xmlns:xlink="http://www.w3.org/1999/xlink" x="0px" y="0px" viewBox="0 0 53.8 76.2"
	 style="enable-background:new 0 0 53.8 76.2;" xml:space="preserve">
<style type="text/css">
	.st0{fill:none;stroke:#000000;}
</style>
<path class="st0" d="M31.2,43.2c0,0,1.7,11.1,2.8,14.7c0.3,1.1,1.5,3.4,1.1,4.5c-1.8,4.4-11.1,9.9-15.8,10.1c-1.8,0.1-5-2.1-6.2-3.4
	c-2.2-2.3-5.8-11.4-5.8-11.4 M8.1,42.3l1.7-6.1c0,0,9.4,0.8,11.7-1c3.1-2.4,4.9-14.9,4.9-14.9l13.7,5.5l-8.4,17.8l-10.5-0.1
	c0,0,5.5-9,6.9-12.2c1.4-3,4.5-12.2,4.5-12.2l2.5-5.9l2.2,4.5c0,0,1.7,1.1,2.1,0.8c0.7-0.6-0.6-3.8-0.6-3.8l2.5,1.4l9.3,10.1
	l-7.7,8.9L28,15.7c0,0-6.2-10.3-9.8-11.7C15.9,3.1,10,3.5,8.2,5.3c-1.3,1.3-1.9,5.4-1.3,7.2c0.8,2.3,4.7,6.9,7,6.4
	c2.2-0.5,7.3-8.1,7.3-8.1"/>
</svg>
