<?xml version="1.0" encoding="utf-8"?>
<!-- Generator: Adobe Illustrator 24.0.0, SVG Export Plug-In . SVG Version: 6.00 Build 0)  -->
<svg version="1.1" id="Layer_1" xmlns:ev="http://www.w3.org/2001/xml-events"
	 xmlns="http://www.w3.org/2000/svg" xmlns:xlink="http://www.w3.org/1999/xlink" x="0px" y="0px" viewBox="0 0 55.9 77.1"
	 style="enable-background:new 0 0 55.9 77.1;" xml:space="preserve">
<style type="text/css">
	.st0{fill:none;stroke:#000000;stroke-width:0.946;}
</style>
<path class="st0" d="M13.8,44.4L11.7,50l0.7,2.3L10,60c0,0-7.8-14.1-7-19.1c0.5-3,5-8,7.6-9c2.4-1,7.6,1.8,10.1,1.3
	c2.2-0.4,6.4-2.9,8.3-4.3c2.2-1.6,8.6-4.8,8-7.7c-0.4-2-5.3-2.4-7.1-2c-2.9,0.6-8.8,4.2-9.6,7.4c-0.5,2.1,1.9,6.3,3.2,8.1
	c2.3,3.2,12,9.6,12,9.6l2.3,0.6l5.8,3.6"/>
<path class="st0" d="M34,60.6l-2.3,8.6l-2.1,4.1l-0.7-11.8L27.8,52L27,50.2l0.8,1.8c0,0,8.6-0.7,11.5-1.3c0.4-0.1,1.8,0,1.8-0.5
	c-0.1-2.2-7-3.5-7-3.5"/>
<path class="st0" d="M31.4,41.9c0-0.4,0.8-1,1.1-1.2c0.8-0.4,2.6-0.2,3.5,0c1.2,0.3,4.6,2,4.6,2l12.3-1.5l-1.2-7.3"/>
<polyline class="st0" points="31.7,11 34.7,4.5 23.9,2.1 "/>
</svg>
