<?xml version="1.0" encoding="utf-8"?>
<!-- Generator: Adobe Illustrator 24.0.0, SVG Export Plug-In . SVG Version: 6.00 Build 0)  -->
<svg version="1.1" id="Layer_1" xmlns:ev="http://www.w3.org/2001/xml-events"
	 xmlns="http://www.w3.org/2000/svg" xmlns:xlink="http://www.w3.org/1999/xlink" x="0px" y="0px" viewBox="0 0 34.5 79"
	 style="enable-background:new 0 0 34.5 79;" xml:space="preserve">
<style type="text/css">
	.st0{fill:none;stroke:#000000;}
</style>
<path class="st0" d="M20.4,75c0,0,1.3-7.6,2.5-9.9c1.3-2.5,7.6-8.3,7.6-8.3L28.6,54c0,0-6.1-9.2-7.7-12.5c-1.4-2.8-4.8-8.6-4.8-11.8
	c-0.1-5.6,3.3-17.4,7.5-21c1.2-1.1,5.4-2.5,6.4-1.2c2,2.5-1.6,10.8-4.6,11.8c-1.9,0.6-5.2-2.9-6.8-4.2c-1.5-1.3-5.4-6-5.4-6L8.1,3.4
	c0,0-3.9,8.4-4.1,11.4C3.9,16.9,5.8,23,5.8,23"/>
</svg>
