<?xml version="1.0" encoding="utf-8"?>
<!-- Generator: Adobe Illustrator 24.0.0, SVG Export Plug-In . SVG Version: 6.00 Build 0)  -->
<svg version="1.1" id="Layer_1" xmlns:ev="http://www.w3.org/2001/xml-events"
	 xmlns="http://www.w3.org/2000/svg" xmlns:xlink="http://www.w3.org/1999/xlink" x="0px" y="0px" viewBox="0 0 57 82.8"
	 style="enable-background:new 0 0 57 82.8;" xml:space="preserve">
<style type="text/css">
	.st0{fill:none;stroke:#000000;}
</style>
<path class="st0" d="M8.9,16.1c0-1.8-6.5-3-6.5-3 M7.7,20.4c0,2,6,2.4,6.9,4.3c0.4,0.9,0.4,4-0.7,4.1c-2.1,0.1-2.8-6.1-2.2-8.1
	c0.7-2.3,5.2-5,7.1-6.3c1.1-0.8,3.5-2.4,4.9-2.6c1.8-0.3,6.7,3,7.1,1.3c0.1-0.4-5.6-0.1-6-1.2c-0.4-0.9,2.6-2.2,2.5-3.2
	c-0.3-2.3-5.4-7.1-7.2-5.6c-1.9,1.6,4.1,6.4,4.7,8.8c0.6,2.3,0.3,7,0.3,9.4c0,3.3-1.8,10.1-0.5,13c1.3,3,8.1,5.8,10.1,8.5
	c1.1,1.6,3.3,5.2,3,7.1c-0.4,2.2-4.1,5.6-5.9,6.9c-1.1,0.8-4.5,0.9-5.2,2.1c-0.7,1.2,0.6,4.3,0.6,5.7 M37.6,46.7
	c2.4,1.7-4,8-4.9,10.8c-0.5,1.7-1.9,5.2-1.4,6.9c0.7,2,4.9,4,6.5,5.4c0.8,0.7,2.8,1.9,3,2.9c0.3,1.8-1.7,5.6-3.3,6.5
	c-1.2,0.6-5.2,0.7-5.4-0.7c-0.1-0.6,1.6-0.8,2.2-0.8c1.4-0.2,4.2,1.2,5.5,0.7c0.4-0.2,0.9-1,1.2-1.4c1.4-1.7,3.5-6.1,5.5-7
	c1.7-0.8,7-1.3,7.5,0.5c0.3,1.2-4.2,1.3-4.2,2.5"/>
</svg>
