<?xml version="1.0" encoding="utf-8"?>
<!-- Generator: Adobe Illustrator 24.0.0, SVG Export Plug-In . SVG Version: 6.00 Build 0)  -->
<svg version="1.1" id="Layer_1" xmlns:ev="http://www.w3.org/2001/xml-events"
	 xmlns="http://www.w3.org/2000/svg" xmlns:xlink="http://www.w3.org/1999/xlink" x="0px" y="0px" viewBox="0 0 67.4 143"
	 style="enable-background:new 0 0 67.4 143;" xml:space="preserve">
<style type="text/css">
	.st0{fill:none;stroke:#000000;stroke-linecap:round;}
</style>
<path class="st0" d="M8.3,129.3c0,3.4,9,7.5,12.2,6.3c4.9-1.9,4.5-15.4,7.3-19.9c1-1.6,3.6-4.4,5.1-5.6c1.1-0.9,3.9-2,5.1-2.6
	c1.4-0.8,5.8-1.5,5.8-3.1 M7.3,57.8c0-2.7-1.2-8.4,0.2-10.6c1.6-2.5,7.7-5.1,10.6-5.2c2.4-0.1,6.8,2.6,8.9,3.8
	c1.2,0.6,3.2,2.4,4.4,3c1.8,1,5.7,2.5,7.6,3.3c2.4,1.1,7.3,5.8,9.5,4.4c2.6-1.8-3.6-11.7-0.6-12.6c0.6-0.2,1.9,1.7,1.5,2.2
	c-0.8,1-3.6-1.8-4.9-1.9c-1.1-0.1-3.5-0.2-4.3,0.6c-0.6,0.5-0.7,2.4-0.7,3.2c0.1,2.9,3.8,8.1,3.6,11c-0.1,1.7-2,4.7-3.1,6
	c-0.9,1.1-3.2,2.7-4.3,3.6c-2.1,1.9-6.8,5.6-8.4,8C25,80,21.5,87.7,21.5,91.7 M25,6.3c0,0,6.9,3.1,9.2,3.8
	c5.7,1.8,20.2-0.1,23.4,4.9c5.5,8.7-2.6,29.9-4.9,39.9c-1.3,5.7-3,17.4-4.7,23c-0.8,2.5-7.3,7.5-8.9,9.6c-1.9,2.4-7.2,9-9.6,7.2
	c-1-0.8,0.9-3.8,1.8-4.7c1-1.1,1.4-6.4,0.3-8c-1.2-1.9-1.2-8.9-3.3-8.2"/>
</svg>
