<?xml version="1.0" encoding="utf-8"?>
<!-- Generator: Adobe Illustrator 24.0.0, SVG Export Plug-In . SVG Version: 6.00 Build 0)  -->
<svg version="1.1" id="Layer_1" xmlns:ev="http://www.w3.org/2001/xml-events"
	 xmlns="http://www.w3.org/2000/svg" xmlns:xlink="http://www.w3.org/1999/xlink" x="0px" y="0px" viewBox="0 0 57.7 82.9"
	 style="enable-background:new 0 0 57.7 82.9;" xml:space="preserve">
<style type="text/css">
	.st0{fill:none;stroke:#000000;stroke-width:0.6948;}
</style>
<path class="st0" d="M49.3,78.9l0.1-7.6c0,0,4.6-2,5.1-3.5c0.4-1.2-1.1-3.8-2.1-4.5c-3.8-2.7-14.5,0-18.8-1.9
	c-0.8-0.4-2.5-1.5-2.7-2.4c-1.1-4.8,4.3-14.5,7.6-18.1c0.9-1,3.7-3,4.9-2.4c1.2,0.5,0.1,5.2,1.4,5.1c3.3-0.1,5.8-12,2.6-12.8
	c-2.1-0.5-0.3,8.8-2.5,8.3c-0.9-0.2,1.1-2.9,0.6-3.7c-0.4-0.6-2.3-0.4-2.8-0.8c-1.4-1.2-2.3-4.9-3-6.6c-0.8-2.1-1.5-6.8-2.9-8.5
	c-0.7-0.8-3.2-1.1-3.6-2.1c-0.5-1.5,2.3-4.2,2.5-5.8c0.3-1.8-1.9-5.9-0.7-7.2c0.9-1,4.2-1,5.3-0.2c1.4,1,2.1,4.8,1.8,6.4
	c-0.2,1.1-1.8,3-2.6,3.7c-1,0.9-3.7,1.8-4.7,2.7c-3.4,3.1-6.5,13-10.7,15c-0.5,0.3-1.8,0.2-2.3-0.1c-0.7-0.4-1.5-1.8-1.9-2.5
	c-0.8-1.6-1.5-5-1.9-6.7c-0.3-1-1-3.1-1.2-4.2c-0.4-2.1-0.1-6.6-1-8.6c-0.6-1.3-2.3-4.4-3.7-4.4c-1.6,0-4.4,2.8-4.6,4.4
	c-0.1,1.2,1.5,3.4,1.9,4.5c0.8,1.9,1.7,8.2,1.7,8.2l-3.2-1.7l-5.3-2.5"/>
</svg>
