<?xml version="1.0" encoding="utf-8"?>
<!-- Generator: Adobe Illustrator 24.0.0, SVG Export Plug-In . SVG Version: 6.00 Build 0)  -->
<svg version="1.1" id="Layer_1" xmlns:ev="http://www.w3.org/2001/xml-events"
	 xmlns="http://www.w3.org/2000/svg" xmlns:xlink="http://www.w3.org/1999/xlink" x="0px" y="0px" viewBox="0 0 117.1 204.7"
	 style="enable-background:new 0 0 117.1 204.7;" xml:space="preserve">
<style type="text/css">
	.st0{fill:none;stroke:#000000;}
</style>
<path class="st0" d="M58.4,182.6c0,5,9,12.9,13.7,14.6c5.1,1.8,17.8,1,21.5-3c1.9-2,1.1-8.2,0.6-10.9c-0.3-1.8-3-4.7-3-6.5
	c0-4.4,5.3-12,7.2-16c1.6-3.3,6.9-9.6,6.4-13.2c-1.1-8.6-25.8-18.1-22.7-26.2c2.5-6.4,20.7-5.2,27.4-3.3c0.3,0.1,0.6,0.8,0.9,0.7
	c1.4-0.9-1.2-4.9-1.4-6.6c-0.3-3.5,0.6-10.6,0.3-14.1c-0.6-5.2-2.7-15.7-4.9-20.5c-0.3-0.6-1.1-1.7-1.6-2.2
	c-1.6-1.6-6.5-3.4-7.1-5.5c-0.6-2.2,1.8-6.8,3.3-8.4c1.6-1.7,7.3-1.8,8.7-3.7c1.6-2.3,1.8-8.5,1-11.2c-1.1-3.8-6.8-9.7-9.5-12.5
	c-4.8-4.9-15.9-12.9-21.2-17.3c-3-2.5-8.1-8.8-11.8-10c-1.4-0.4-4.7-0.4-5.7,0.6c-1.4,1.3-2.3,6-1.1,7.4c2.9,3.5,15.9-3.4,18,0.6
	c2.1,3.9-9.1,10.6-9.3,15c-0.2,4.3,4.9,11.9,7.6,15.3c2.1,2.6,9.4,5.4,10.3,8.6c0.5,1.9-1.5,5.8-2.7,7.3c-2,2.6-8.3,5.2-10.6,7.5
	c-2.4,2.3-5,8.8-7.7,10.8c-1.1,0.8-4,1.3-5.3,1.9c-3.5,1.5-10,6.2-13.7,6.6c-7.4,0.6-23.1-3.1-28.6-8.2C13,76.4,6.5,65.7,6.7,60
	C7,51.5,24.6,39.5,24.6,31"/>
</svg>
