<?xml version="1.0" encoding="utf-8"?>
<!-- Generator: Adobe Illustrator 24.0.0, SVG Export Plug-In . SVG Version: 6.00 Build 0)  -->
<svg version="1.1" id="Layer_1" xmlns:ev="http://www.w3.org/2001/xml-events"
	 xmlns="http://www.w3.org/2000/svg" xmlns:xlink="http://www.w3.org/1999/xlink" x="0px" y="0px" viewBox="0 0 60.6 95"
	 style="enable-background:new 0 0 60.6 95;" xml:space="preserve">
<style type="text/css">
	.st0{fill:none;stroke:#000000;}
</style>
<path class="st0" d="M37.7,90.4c0-1.8-2.1-5.1-2.8-6.8c-2.1-4.9-11.7-14.9-8.7-19.4c2.2-3.2,11.6,0.5,15.5,0.6c1.5,0,4.8,0.9,6,0
	c1.9-1.3,0.9-9.4,3.1-8.8c2.5,0.7-1.2,7.8-2.3,10.1c-0.6,1.4-2.5,4-3.6,5c-1.6,1.5-5.7,3.4-7.4,4.7c-1.9,1.5-4.8,7.4-7,6.6
	c-0.9-0.3-3.1-3.7-3.1-4.6c0-1.4-1.4-4.7-4.9-8.3c-7-7.1-15.1-8.6-15.1-10"/>
<path class="st0" d="M6.1,12.7c0,0,2.5-2.3,3.6-2.6c2.7-0.8,8.7-0.9,11.1,0.5c3.1,1.7,6,8.7,7.6,11.8c0.7,1.4,7.3,1.7,9.2,1.2
	c4.4-1.2,15.1-2.8,16.8-7c0.4-1.1-1-3.5-1.8-4.3c-1.7-1.8-7.3-6.1-9.1-4.4c-1.1,1,1.2,4.2,2,5.3c1.6,2,7.3,3.4,8.4,5.8
	c0.7,1.6,0.1,5.6-0.8,7.1c-1.1,1.8-7.7,2.7-6.9,4.6c0.5,1.1,3.6-1.1,4.8-1.2c1.2-0.1,4.4-0.5,4.8,0.7c0.8,2-4.9,4.6-5.6,6.6
	c-1.2,3.2-2.3,11.1,0,13.6c0.7,0.8,3.9,1.3,4.4,0.4"/>
</svg>
