<?xml version="1.0" encoding="utf-8"?>
<!-- Generator: Adobe Illustrator 24.0.0, SVG Export Plug-In . SVG Version: 6.00 Build 0)  -->
<svg version="1.1" id="Layer_1" xmlns:ev="http://www.w3.org/2001/xml-events"
	 xmlns="http://www.w3.org/2000/svg" xmlns:xlink="http://www.w3.org/1999/xlink" x="0px" y="0px" viewBox="0 0 42.2 85.5"
	 style="enable-background:new 0 0 42.2 85.5;" xml:space="preserve">
<style type="text/css">
	.st0{fill:none;stroke:#000000;}
</style>
<path class="st0" d="M20.5,45.3c2.7-0.2,8.1-1.8,10-3.7c0.6-0.6,1.3-2.3,1.2-3.1c-0.2-1.8-2.7-4.9-4-6.2 M4.2,4.8
	C4.2,4,6.8,4,7.4,4.5c2.2,1.6,1.4,8.1,2.5,10.6c0.6,1.4,4.2,3.7,3.6,5.1C12.8,22,7.4,23,6.2,21.5c-0.5-0.6,0.6-2.4,1.2-3
	c2.5-2.2,10.7-0.7,13-3.1c1-1.1,1.6-4.5,1-5.8c-1-2-5.7-5.1-7.8-4.4c-2.3,0.8-4.4,6.7-3.7,9.1c0.5,1.8,4.2,4,6,4.7
	c1.8,0.6,6.3-1.3,7.5,0.1c3.9,5-1.3,19.9-5.3,24.8c-1,1.2-5.2,1.1-5.8,2.6c-0.9,2.3,2.1,7.4,3.7,9.3c1.2,1.4,5.2,2.4,6.5,3.7
	c1,1.1,2.3,3.9,2.8,5.3c0.5,1.5,1.2,4.5,1.1,6.1c-0.1,2.7-3.1,10.5-3.1,10.5s9.2-4.6,11.4-7.2c1.7-1.9,4.5-6.8,4.1-9.3
	c-0.2-1.3-3.7-2.6-3.7-4"/>
</svg>
