<?xml version="1.0" encoding="utf-8"?>
<!-- Generator: Adobe Illustrator 24.0.0, SVG Export Plug-In . SVG Version: 6.00 Build 0)  -->
<svg version="1.1" id="Layer_1" xmlns:ev="http://www.w3.org/2001/xml-events"
	 xmlns="http://www.w3.org/2000/svg" xmlns:xlink="http://www.w3.org/1999/xlink" x="0px" y="0px" viewBox="0 0 80.3 112.3"
	 style="enable-background:new 0 0 80.3 112.3;" xml:space="preserve">
<style type="text/css">
	.st0{fill:none;stroke:#000000;}
</style>
<path class="st0" d="M20.6,80.4c7.5-5.7,14.6-11.3,22.8-15.2c10.9-3.3,21.6,0.6,30,8.4c2.1,3.4,1.2,7.5-1.7,10.5
	C61.4,94,50,102.2,36.3,104.9c-8.9,0.8-20.5-2.5-21.8-12.3c0.6-2.8,2.1-6,3.6-9.3c3.7-3.5,10.4-4.1,13-9.3c2.7-5.2-4.5-9-7.9-12.7
	c-3.5-3.7-3.9-8.2-5.2-12.1c-1.8-4.8-7.3-6-6.9-11c0.5-8.6,6.6-15.9,11.8-22.7s14.7-1,22.8-1.3"/>
<path class="st0" d="M15.5,30.7c-2.1,1.3-6.1-8.1-7.8-6.3C7,25,9.4,26.6,10,27.2c0.4,0.4,1.4,1.1,1.9,1.3c2.9,1.3,9.7,1.5,12.4,3.3
	c4.4,2.9,9.4,12.7,12.7,16.8c2,2.6,6.5,7.3,8.4,10c1.5,2.2,7.4,7.9,5.1,9.3"/>
</svg>
