<?xml version="1.0" encoding="utf-8"?>
<!-- Generator: Adobe Illustrator 24.0.0, SVG Export Plug-In . SVG Version: 6.00 Build 0)  -->
<svg version="1.1" id="Layer_1" xmlns:ev="http://www.w3.org/2001/xml-events"
	 xmlns="http://www.w3.org/2000/svg" xmlns:xlink="http://www.w3.org/1999/xlink" x="0px" y="0px" viewBox="0 0 55 66.9"
	 style="enable-background:new 0 0 55 66.9;" xml:space="preserve">
<style type="text/css">
	.st0{fill:none;stroke:#000000;stroke-width:1.0601;}
</style>
<path class="st0" d="M21,59.9l-8.4,2.4c0,0-2,1.2-4.1,0.8c-2.7-0.6-3-3.2-4.5-5.8c-0.3-0.6-0.7-2.5-0.7-2.5L7,51
	c0,0,5.2-11.8,8.6-11.5c0.8,0.1,0.8,3.5,1.7,3.3c1.3-0.3,1.8-4.9,2.8-5.8c3.7-3.3,16.9,2.2,16.9,2.2s2.5-12,1.7-15.9
	c-0.5-2.4-4.7-8.3-4.7-8.3s-3.2-3.1-4.5-2.8c-1.1,0.3-2.5,2.9-2.5,4.2c0,1.5,1.5,4.5,2.7,5.1c0.6,0.3,2.2,0.2,2.6-0.4
	C34.5,18,35.5,8.9,34,5.3C33.6,4.5,31.7,3,31.7,3l-8.3,6.5 M17.3,42.8c0.9,0,2.8,0.1,3.7,0.4c1.4,0.4,5.4,2.4,5.4,2.4l8-2.8l9.9,3.5
	l7-2.6"/>
</svg>
