<?xml version="1.0" encoding="utf-8"?>
<!-- Generator: Adobe Illustrator 24.0.0, SVG Export Plug-In . SVG Version: 6.00 Build 0)  -->
<svg version="1.1" id="Layer_1" xmlns:ev="http://www.w3.org/2001/xml-events"
	 xmlns="http://www.w3.org/2000/svg" xmlns:xlink="http://www.w3.org/1999/xlink" x="0px" y="0px" viewBox="0 0 66.1 163.9"
	 style="enable-background:new 0 0 66.1 163.9;" xml:space="preserve">
<style type="text/css">
	.st0{fill:none;stroke:#000000;}
</style>
<path class="st0" d="M22.7,157.8c0,0,5.9-3.7,7.8-4.9c1.3-0.8,4.5-1.7,5.2-3.1c1.4-2.5-0.1-8.6-0.6-11.5c-0.6-3.8-1.5-12.1-4.1-15
	c-2.7-3.1-11.9-8.4-15.3-6.1c-2.6,1.8-2.4,10.7,0.2,12.4c1,0.7,3.8-0.8,4.6-1.8c4-5.3,2.7-19.8,2.5-26.4c-0.1-3.8-3.7-11.4-2.3-14.9
	c1.6-3.9,12-6.2,13.7-10.1c1-2.2-2.3-7.5-1-9.6 M33.5,67C41.9,53.9-3,16.8,10.5,9 M24,7c0.5-0.8,3.1-1.2,3.8-0.6
	c1.3,1.3-0.7,5.5-1,7.3c-0.3,1.6-0.9,4.7-1.4,6.2c-0.6,1.7-2.6,4.7-3.1,6.5c-0.5,2,0.2,6.1-0.4,8c-0.3,1.3-1.9,3.4-2.5,4.6
	c-0.1,0.3-0.8,1.2-0.5,1.4c0.9,0.7,3.1-1.4,3.8-2.2c1-1.1,2-4,3-5.2c0.9-1,3.4-2.2,4.3-3.3c1-1.2,2-4.3,3-5.5
	c1.3-1.5,4.6-4.3,6.6-4.6c2.7-0.3,7.5,4,10.3,4c2.7,0,8-2.1,10-3.9"/>
</svg>
