<?xml version="1.0" encoding="utf-8"?>
<!-- Generator: Adobe Illustrator 24.0.0, SVG Export Plug-In . SVG Version: 6.00 Build 0)  -->
<svg version="1.1" id="Layer_1" xmlns:ev="http://www.w3.org/2001/xml-events"
	 xmlns="http://www.w3.org/2000/svg" xmlns:xlink="http://www.w3.org/1999/xlink" x="0px" y="0px" viewBox="0 0 105.7 255.8"
	 style="enable-background:new 0 0 105.7 255.8;" xml:space="preserve">
<style type="text/css">
	.st0{fill:none;stroke:#000000;}
</style>
<path class="st0" d="M94.7,154.7c0,8-21.8,13.8-29.7,12.2c-9.2-1.8-26.4-17-26.4-26.4 M38.6,140.5c0,14.4-4.3,64.2-0.9,78.2
	c1.7,6.8,9.1,26.6,9.1,26.6l1.7-10.1 M37.7,132.6c0-2.4,14.5-3.8,14.5-3.8c10.8-2,14.5-21.9,14.5-24.8 M35.6,74.1
	c0-0.3-0.7-0.5-0.9-0.7c-1.7-1.3-5.2-3.8-6.8-5.2c-2.5-2.2-7.2-6.8-9.2-9.5c-2.2-3-6.7-9.2-7.3-12.8c-0.6-3.8,2-11.4,3.2-15.1
	c0.8-2.5,2.5-7.6,4.3-9.5c2.2-2.4,8.4-5.1,11.5-6.3c3.2-1.2,10-3,13.4-2.8c3.5,0.2,10.6,2.1,13.3,4.4c2.2,1.8,4.8,7.1,5.4,9.9
	c0.4,2.3-0.5,7-1.2,9.2c-0.7,2.3-2.5,7-4.1,8.8c-2.5,2.8-9.7,5.9-12.9,8.1c-2.3,1.6-6.7,5.2-9.1,6.7c-1.7,1.1-5.5,2.6-6.9,4
	c-0.8,0.9-2.2,3-2.3,4.2c-0.1,1.2,1,3.7,1.9,4.6c1.5,1.5,5.8,2.5,7.7,3.5c3.1,1.5,9.2,4.4,12.1,6.2c1.9,1.2,5.7,4,7.3,5.6
	c2.3,2.4,7.8,7.3,7.8,10.6"/>
</svg>
