<?xml version="1.0" encoding="utf-8"?>
<!-- Generator: Adobe Illustrator 24.0.0, SVG Export Plug-In . SVG Version: 6.00 Build 0)  -->
<svg version="1.1" id="Layer_1" xmlns:ev="http://www.w3.org/2001/xml-events"
	 xmlns="http://www.w3.org/2000/svg" xmlns:xlink="http://www.w3.org/1999/xlink" x="0px" y="0px" viewBox="0 0 56.4 82.7"
	 style="enable-background:new 0 0 56.4 82.7;" xml:space="preserve">
<style type="text/css">
	.st0{fill:none;stroke:#000000;stroke-width:1.2083;}
</style>
<path class="st0" d="M46.6,52.8c0,0,2.4-11.8,1.7-15.7c-0.7-4-4.5-11.6-7.3-14.3c-1.2-1.2-6-2.6-6-2.6l-1.5,11c0,0,2.4,6,2.8,8.2
	c0.4,2.8-0.1,11.2-0.1,11.2l1,13.6c0,0,1.1,5.2,0.3,6.6c-1,1.6-5.4,1.4-6.9,2.6c-1,0.8-1.8,3.6-2.8,4.4c-0.7,0.6-3.5,1.5-3.5,1.5
	L21.6,78 M18.4,5c0-2.2-5.9-1.3-7.9-1C8.5,4.4,2.3,5.5,2.8,7.8c0.8,3.5,4.7,5.9,5.9,6.4c1.1,0.4,3.9-0.3,4.4-1.4
	c0.6-1.2-2.1-3.8-1.9-5.1c0.3-1.6,2.5-4.4,4-4.7c2.1-0.5,6.2,2.6,7.9,4C25.9,9.1,32.8,18,32.8,18l0.7,4.7l-0.4,5.4
	c0,0-2.5,12.1-1,15.7c1.6,3.8,12.3,10,12.3,10s6.2-2.3,8-1.5c0.4,0.2,1,0.9,0.9,1.3c-0.6,4-11.9,9.4-11.9,9.4l-0.6,3.3"/>
</svg>
