<?xml version="1.0" encoding="utf-8"?>
<!-- Generator: Adobe Illustrator 24.0.0, SVG Export Plug-In . SVG Version: 6.00 Build 0)  -->
<svg version="1.1" id="Layer_1" xmlns:ev="http://www.w3.org/2001/xml-events"
	 xmlns="http://www.w3.org/2000/svg" xmlns:xlink="http://www.w3.org/1999/xlink" x="0px" y="0px" viewBox="0 0 39.6 59.2"
	 style="enable-background:new 0 0 39.6 59.2;" xml:space="preserve">
<style type="text/css">
	.st0{fill:none;stroke:#000000;}
</style>
<path class="st0" d="M2.7,51.8l7.6,3.1l-2.4,0.3l4-9.9c0,0,5.6-15.9,5-21.3c-0.5-3.7-5.6-9.7-6.8-13.2C9.7,9.5,8.7,6.6,9.2,5.3
	C9.7,4,12.4,2,13.8,2.2c1.5,0.3,3.9,3.4,3.8,5c-0.1,2.1-5.1,4.1-6,6c-0.8,1.7-0.8,5.5-0.6,7.4c0.7,6.7,7.8,25.6,7.8,25.6l5.7,2.6
	l-5.1-2.4L19,44.6l2.3,7.2l14.2,3.1l-0.8-0.8"/>
</svg>
