<?xml version="1.0" encoding="utf-8"?>
<!-- Generator: Adobe Illustrator 24.0.0, SVG Export Plug-In . SVG Version: 6.00 Build 0)  -->
<svg version="1.1" id="Layer_1" xmlns:ev="http://www.w3.org/2001/xml-events"
	 xmlns="http://www.w3.org/2000/svg" xmlns:xlink="http://www.w3.org/1999/xlink" x="0px" y="0px" viewBox="0 0 37.9 83.2"
	 style="enable-background:new 0 0 37.9 83.2;" xml:space="preserve">
<style type="text/css">
	.st0{fill:none;stroke:#000000;}
</style>
<path class="st0" d="M22.5,8.2c3.3,2.3,2.4,5.3,2.1,7.1c-0.3,1.9-3.6,5.7-5.5,5.5c-2.5-0.3-6.3-6.1-5.5-8.5c0.8-2.2,8.6-0.7,8.8-3.1
	s-7.6-4-6.6-6.9c0.1-0.2,0.5-0.1,0.7-0.1c2.3-0.1,7.2,0.2,9.3,1.3c2,1.1,4.3,5.4,6,6.8c0.7,0.6,2.8,1,3.1,1.8
	c0.4,1.2-1.2,3.7-1.9,4.8c-1.3,2-5.1,4.8-6.7,6.6c-1.1,1.2-3.4,3.5-4,4.9c-0.3,0.9,0.2,3-0.1,4c-0.8,2.3-4.2,6-5.6,8
	c-1.1,1.5-4,4.2-4.4,6c-0.4,2,1.4,6.1,2.2,7.9c0.9,1.8,3.3,5.1,4.6,6.6c1.5,1.8,6.8,6.4,6.8,6.4l4.8,3.2l0.9-4.4"/>
<path class="st0" d="M19.8,36.4c-1.1-1.5-7.2-6.3-14.3-3c-1.5,0.7-3.2,3.5-2.7,5.1c1.1,3,7,6.7,9.4,9c1.1,1,3,3.7,4.4,4.2
	c0,0,0.1,0,0.2,0c0.7-0.7-0.6-4,0.5-4.1c7.1-0.5,7.5,20.5,7.3,27.7c0,1.2-0.3,4.6-0.3,4.6s-1.9-1.7-2.6-2c-1.1-0.5-3.6-0.9-4.9-0.9
	c-0.9,0-3.5,0.9-3.5,0.9"/>
</svg>
