<?xml version="1.0" encoding="utf-8"?>
<!-- Generator: Adobe Illustrator 24.0.0, SVG Export Plug-In . SVG Version: 6.00 Build 0)  -->
<svg version="1.1" id="Layer_1" xmlns:ev="http://www.w3.org/2001/xml-events"
	 xmlns="http://www.w3.org/2000/svg" xmlns:xlink="http://www.w3.org/1999/xlink" x="0px" y="0px" viewBox="0 0 40.6 87"
	 style="enable-background:new 0 0 40.6 87;" xml:space="preserve">
<style type="text/css">
	.st0{fill:none;stroke:#000000;}
</style>
<path class="st0" d="M12.2,5.4l-1.4,0.9c0,0,8.3-6.1,10.4-4.2c4.6,4-1.2,22.7,2.4,29.1c2,3.5,4.7,4.4,5.8,5.4c0.8,0.7,3.2,0.7,4,1.5
	c1.3,1.3,0.6,7.1,2.4,6.9c1.6-0.1,2.2-5.3,1-6.5c-1.1-1-10.5,4.9-10.5,6.5 M29.3,36.7c3.2-1.9,4.5-3.6,6.9-6.4
	c0.6-0.6,1.9-2.2,1.7-3c-0.6-2.1-5.2-4.9-7.3-4.4c-0.8,0.2-1.3,2-1.6,2.8c-0.4,1.3-1.1,4-0.7,5.3c0,0.1,0.3,0.2,0.3,0.3
	c0,2.2-3.8,5.5-5.6,6.6c-1.6,1-6.1,0.6-7.5,1.9c-0.8,0.7-1,4.1-1,4.1s5.6-0.1,6.1,1.4c1.2,3.3-7.3,7.8-8.5,11
	c-0.6,1.7,1.6,5.2,1.3,6.9c-0.3,1.7-2.7,4.4-3.2,6.1C9,73.2,9.3,84.3,13.2,84.8c5.8,0.7,2.9-8.5,1.7-11.9c-2.4-6.8-10-8.9-12.3-2.4
	c-1,2.7,5.7,11.4,17.5,8.8c2.3-0.5,2.3-6.8,2.3-9.1"/>
</svg>
