<?xml version="1.0" encoding="utf-8"?>
<!-- Generator: Adobe Illustrator 24.0.0, SVG Export Plug-In . SVG Version: 6.00 Build 0)  -->
<svg version="1.1" id="Layer_1" xmlns:ev="http://www.w3.org/2001/xml-events"
	 xmlns="http://www.w3.org/2000/svg" xmlns:xlink="http://www.w3.org/1999/xlink" x="0px" y="0px" viewBox="0 0 55.8 131.2"
	 style="enable-background:new 0 0 55.8 131.2;" xml:space="preserve">
<style type="text/css">
	.st0{fill:none;stroke:#000000;}
</style>
<path class="st0" d="M8.9,19.4l1.7-3.2l-5-5.7c0,0-0.6-3.3,0.1-4.1c0.9-1.2,5.7-1.5,5.7-1.5s15.3,12,17.8,17.7
	c0.4,1,0.4,3.2,0.1,4.2c-0.4,1.8-3,4.7-3.2,6.5c-0.1,2,2.6,5.6,2.4,7.5c-0.1,1.5-2.1,4-2.6,5.4c-1.1,3.1-2.6,13-2.6,13
	s5.6,8.1,8.4,9.5c1.7,0.9,7.6,0.7,7.6,0.7l-0.9,1.2"/>
<path class="st0" d="M35.5,83.7c0,0,2.5-7,3.6-9.2c1-2,3.8-6,3.3-8.2c-0.6-2.5-5.5-8-7.6-6.6c-2.8,1.8,1,11.1,4,12.6
	c2.9,1.5,12.4-4.1,12.4-4.1s-5.5,11.1-8.6,13.6c-1.9,1.5-7.1,2.3-9.5,2.3c-2.6,0-7.4-2.3-10-2.7c-0.8-0.1-3.3-0.1-3.3-0.1
	S3.8,112,7.1,121.1c0.8,2.2,5.6,4.3,7.8,4.7c2.3,0.4,6.9-1.2,9.2-1.2c0.6,0,1.9,0.5,2.4,0.2c0.8-0.6,1.5-2.9,1.2-3.9
	c-0.3-1.4-3.8-2.5-4-3.9c-0.3-1.7,3.3-4.6,2.9-6.3c-0.5-2.5-7.4-6.9-7.4-6.9l7.6-2.6"/>
</svg>
