<?xml version="1.0" encoding="utf-8"?>
<!-- Generator: Adobe Illustrator 24.0.0, SVG Export Plug-In . SVG Version: 6.00 Build 0)  -->
<svg version="1.1" id="Layer_1" xmlns:ev="http://www.w3.org/2001/xml-events"
	 xmlns="http://www.w3.org/2000/svg" xmlns:xlink="http://www.w3.org/1999/xlink" x="0px" y="0px" viewBox="0 0 59.1 90.5"
	 style="enable-background:new 0 0 59.1 90.5;" xml:space="preserve">
<style type="text/css">
	.st0{fill:none;stroke:#000000;}
</style>
<path class="st0" d="M26.9,56.1l-4-11l-7.2-0.9l1.2,0.8c0,0,2.2,1.1,2.9,1.5c3.4,2.4,11.9,11.5,11.9,11.5l7.1,5.4l-4.5,16l-12,6.6
	l-6.7-12.9c0,0-6.4-10.6-8.3-14.3c-1-1.9-3.6-5.7-3.7-7.9c-0.1-2.1,1.9-6.2,3-8c2.9-4.3,10.8-11.2,15-14.3C25.6,25.9,38,18,38,18
	l8.3-3.9c0,0,4.4,2.1,5.8,1.7c1.2-0.3,3.3-3.5,3.3-3.5l-17.7,5.7l-4.4-5.5c0,0-2.2-5.6-3.7-6.9c-1.6-1.3-6-2.4-8.1-2.4
	c-1.5,0-4.9,0.6-5.9,1.8c-1,1.1-1.6,4.2-1.3,5.6c0.4,1.8,2.7,5.1,4.3,6.1c2,1.1,6.9,1.3,9.1,0.7C32.1,16,43.2,6.5,43.2,6.5"/>
</svg>
