<?xml version="1.0" encoding="utf-8"?>
<!-- Generator: Adobe Illustrator 24.0.0, SVG Export Plug-In . SVG Version: 6.00 Build 0)  -->
<svg version="1.1" id="Layer_1" xmlns:ev="http://www.w3.org/2001/xml-events"
	 xmlns="http://www.w3.org/2000/svg" xmlns:xlink="http://www.w3.org/1999/xlink" x="0px" y="0px" viewBox="0 0 119 201.7"
	 style="enable-background:new 0 0 119 201.7;" xml:space="preserve">
<style type="text/css">
	.st0{fill:none;stroke:#000000;stroke-width:0.7653;}
</style>
<path class="st0" d="M71.6,137.6c0-10.8,9.1-39.9,19.8-38.4c0.9,0.1,1.3,2.9,0.8,3.6c-0.7,1-3.5,0.8-4.7,0.9
	c-1.7,0.2-5.4,1.4-6.8,0.5c-4.4-2.7-8.2-13.8-8.2-19 M52.6,76.6c0-4.7,2.3-13.9,2.4-18.5c0.1-3.8-1.6-11.5-1.3-15.3
	c0.2-3.5,0.7-11,2.9-13.9c1.3-1.7,5.6-3.4,7.7-4.1c3.5-1.3,10.8-2.5,14.4-3.3c2.2-0.5,7-0.8,8.9-2c2.2-1.3,7-5.4,6.4-7.9
	c-0.4-1.6-4.4-2.2-6-2.6C84.1,8,74.2,4.7,72.1,8.1c-1.2,1.9,3.1,6.1,4.2,8.1c1.2,2.3,5.2,6.5,4.9,9c-0.3,2.5-5.4,5.5-6.8,7.6
	c-1.1,1.6-3.2,5-3.9,6.8c-0.3,0.9-0.8,2.9-0.5,3.9c0.9,3.9,6.8,9.8,8.7,13.2c2.5,4.2,4.2,15.7,8.8,17.6c5.1,2.1,17.1-3.2,21.1-7.1
	c1-0.9,1.7-3.7,2-5c0.1-0.5,0.5-1.7,0-2c-1.5-0.9-5.9,1.7-5.9,3.4 M108.2,132.4c0,1.9-5.1,2.1-6.9,2.6c-2.3,0.7-7.1,1.5-9.5,1.8
	c-5.7,0.7-17.6-0.7-22.8,1.6c-1.6,0.7-3.5,3.9-5,4.7c-7.2,4-24.6,4.4-32,8.2c-5.2,2.7-14.8,10-17.8,14.9c-3.8,6.3-6.2,28.8-6.2,28.8
	"/>
</svg>
