<?xml version="1.0" encoding="utf-8"?>
<!-- Generator: Adobe Illustrator 24.0.0, SVG Export Plug-In . SVG Version: 6.00 Build 0)  -->
<svg version="1.1" id="Layer_1" xmlns:ev="http://www.w3.org/2001/xml-events"
	 xmlns="http://www.w3.org/2000/svg" xmlns:xlink="http://www.w3.org/1999/xlink" x="0px" y="0px" viewBox="0 0 30 70.6"
	 style="enable-background:new 0 0 30 70.6;" xml:space="preserve">
<style type="text/css">
	.st0{fill:none;stroke:#000000;}
</style>
<path class="st0" d="M21.4,66.1c0,0-7.3,1.9-9.5,1c-2.8-1.2-6.1-6.7-7.4-9.4c-0.9-1.9-2-6.1-1.6-8.2c0.6-3.4,4.3-9.8,7.2-11.8
	c0.9-0.6,3.2-0.4,4.2-0.8c1.3-0.5,3.6-2.3,4.8-3c0.8-0.5,2.7-1,3.3-1.7c1.4-1.8,2.6-6.4,2.2-8.7c-0.3-1.7-2.1-5.7-3.8-5.7
	c-1.9-0.1-2.6,6.1-4.6,6.1"/>
<path class="st0" d="M5.3,17.2c-1.3,0-0.6-4.1-0.3-5.4c0.6-2,3.1-5.5,4.7-6.7c1.4-1,4.7-2.1,6.4-1.9c2,0.2,5.4,2.6,6.8,4
	c0.4,0.5,1.3,1.7,1.2,2.3c-0.3,1.7-3.9,3.3-4.9,4.7c-1.4,1.8-2.1,7.5-4.3,7.9c-2.2,0.4-7.1-3.4-7-5.7c0.3-5.8,18.9-7,19.4-12.8
	c0-0.4-0.7-1-1.1-1"/>
</svg>
