<?xml version="1.0" encoding="utf-8"?>
<!-- Generator: Adobe Illustrator 24.0.0, SVG Export Plug-In . SVG Version: 6.00 Build 0)  -->
<svg version="1.1" id="Layer_1" xmlns:ev="http://www.w3.org/2001/xml-events"
	 xmlns="http://www.w3.org/2000/svg" xmlns:xlink="http://www.w3.org/1999/xlink" x="0px" y="0px" viewBox="0 0 34.2 72.4"
	 style="enable-background:new 0 0 34.2 72.4;" xml:space="preserve">
<style type="text/css">
	.st0{fill:none;stroke:#000000;}
</style>
<path class="st0" d="M10.3,50.2l4.4-6.6l2.1-9.4c0,0-0.3-3.5,0.4-4.3c1-1.1,4.6-2.1,5.9-1.4c2.5,1.2,5.5,7.2,5,9.9
	c-0.3,1.6-3.2,3.8-4.8,4.3c-1.1,0.4-3.6,0.3-4.6-0.4c-1.1-0.8-2.4-4.9-2.4-4.9l-0.6-5.5l-0.5-6.7c0,0-0.2-1.8,0-2.3
	c0.5-1.4,3.2-3.2,4-4.5c1.3-1.9,4.2-6.1,3.8-8.4C22.6,7.6,16,2.9,16,2.9l-2.9,4 M20.9,50.4l5,6.4c0,0-2.1-0.5-2.9-0.6
	c-3.4-0.3-13.5-0.1-13.5-0.1l0.2-5.5l5.1-5.6l1.6-7.6l0.6-4.3c0,0-5.1-3.1-6.6-4.3c-1.4-1.1-4.9-4.9-4.9-4.9l-1.6,7.8 M10.2,50.4
	l-0.2,4.1l4.8,1.2c0,0,4.1,2.6,4.9,3.9c0.6,1,0.4,3.6,0.9,4.7c0.7,1.6,3.8,5.6,3.8,5.6l6.5-2.3l-1.8-1.5"/>
</svg>
