<?xml version="1.0" encoding="utf-8"?>
<!-- Generator: Adobe Illustrator 24.0.0, SVG Export Plug-In . SVG Version: 6.00 Build 0)  -->
<svg version="1.1" id="Layer_1" xmlns:ev="http://www.w3.org/2001/xml-events"
	 xmlns="http://www.w3.org/2000/svg" xmlns:xlink="http://www.w3.org/1999/xlink" x="0px" y="0px" viewBox="0 0 91.4 133.4"
	 style="enable-background:new 0 0 91.4 133.4;" xml:space="preserve">
<style type="text/css">
	.st0{fill:none;stroke:#000000;}
</style>
<path class="st0" d="M86.5,49.1c0-0.8-3,0.1-3.3-0.6c-0.5-1.4,4.7-3.6,3.7-4.7C81.2,37.8,57.5,55.2,60.2,63c1.1,3.1,10.5-2.7,13-0.6
	c1.3,1.2,1.3,5.4,0.7,7c-1.6,4.5-9.1,11.4-13.3,13.7c-1.7,0.9-14.5,0.6-17.2-0.6C39.2,80.7,32.6,74,29.2,71
	c-0.9-0.8-2.3-3.5-3.4-3.2c-1.7,0.4-0.7,5.6-2.1,6.5C22.9,74.8,13,57.8,10,52.7c-1.1-1.9-5.3-4.9-5-7.1c0.5-3.7,9.1-6.8,11.7-9.5
	c4.3-4.6,14.5-14.3,14.7-20.6c0.1-3.3-3.7-12-7-11.3c-5.9,1.2-5.1,17.9-3.6,23.8c0.7,2.6,6,5.9,6.5,8.5c0.3,1.5-1.9,4.3-1.9,5.8
	c0.3,7.1,4.6,22.9,10.8,26.2c0.8,0.4,2.8-1.1,3.7-0.8c4.7,2,11.9,12.1,11,17.1c-0.3,1.5-3.9,2.6-5,3.8c-1.7,2-3.8,6.9-5.2,9.2
	c-2.7,4.5-7.9,13.7-11.3,17.6c-1.8,2.1-7.8,4.5-8.2,7.2c-0.1,0.8,7.8,5.6,7.8,5.6"/>
</svg>
