<?xml version="1.0" encoding="utf-8"?>
<!-- Generator: Adobe Illustrator 24.0.0, SVG Export Plug-In . SVG Version: 6.00 Build 0)  -->
<svg version="1.1" id="Layer_1" xmlns:ev="http://www.w3.org/2001/xml-events"
	 xmlns="http://www.w3.org/2000/svg" xmlns:xlink="http://www.w3.org/1999/xlink" x="0px" y="0px" viewBox="0 0 44.4 76.9"
	 style="enable-background:new 0 0 44.4 76.9;" xml:space="preserve">
<style type="text/css">
	.st0{fill:none;stroke:#000000;}
</style>
<path class="st0" d="M4.1,13.2c0-2.8,6.1-10.4,8.8-10.7c2.7-0.3,8.2,2.4,10.2,4.3c0.8,0.8,2.2,7.1,1.9,8.2c-0.5,1.7-4.6,2.5-5.8,3.8
	C18,20,15.7,22.9,16,24.5c1.3,7.6,15.2,22.2,22.7,20.6c1.3-0.3,3.2-4,2.2-5c-2.3-2.2-9.5,2-12.4,3.4c-2.9,1.4-9.5,4.5-10.4,7.6
	c-0.8,3,5.1,11.6,5.1,11.6l1.6,2c0,0-5.1-2.6-6.9-3c-3.4-0.8,3.8-4.3,5.2-7.9c1-2.5-3.5-7.6-5.8-8.9c-3.1-1.7-3,8.2-6.5,7.9
	c-1.6-0.1-5.6-2-6.6-0.7C2,55.1,11,62.4,10,65.9c-0.4,1.2-3,2.4-4.2,2.8C5.1,69,3.2,68.2,3,68.9c-0.5,1.7,5.9,3.9,5.9,3.9l10.5,1.1
	 M4.3,17.6c0,0.5-0.3,1.8,0.2,2c1.6,0.6,3.8-3.4,4.9-4.7c1.2-1.5,2.1-6.2,4-6.7c1.4-0.4,4.5,1.7,5.2,3C18.9,12,18,14,18.1,15
	c0.1,1.4,1,4.1,1.7,5.2c1.9,3,8.5,6.5,10.3,9.5c1,1.8,1.9,6,1.9,8"/>
</svg>
