<?xml version="1.0" encoding="utf-8"?>
<!-- Generator: Adobe Illustrator 24.0.0, SVG Export Plug-In . SVG Version: 6.00 Build 0)  -->
<svg version="1.1" id="Layer_1" xmlns:ev="http://www.w3.org/2001/xml-events"
	 xmlns="http://www.w3.org/2000/svg" xmlns:xlink="http://www.w3.org/1999/xlink" x="0px" y="0px" viewBox="0 0 67.1 110.3"
	 style="enable-background:new 0 0 67.1 110.3;" xml:space="preserve">
<style type="text/css">
	.st0{fill:none;stroke:#000000;}
</style>
<path class="st0" d="M19,25.4c-1.3-1.3-3.8-3.8-5-5.1c-1.6-1.8-3.9-8.1-6.3-7.6c-2.4,0.5-4.5,7.9-2.5,9.3c5.8,4,16.3-14.3,23-16.3
	C29.8,5.1,33.5,5,35,5.9c1.2,0.7,2.3,3.4,2.8,4.8c1.1,3.5,1.6,10.8,1.4,14.5c-0.1,2.7-1,8-2.2,10.4c-0.7,1.6-3.1,4.2-4.2,5.5
	c-1.4,1.7-4.5,5-6,6.7c-1.7,2-4.6,6.3-6.5,8.1c-0.9,0.8-2.7,2.8-3.9,2.7c-1.6-0.2-3.7-3.3-4.6-4.7c-1-1.7-2.1-5.7-2.2-7.7
	c-0.1-1-0.4-3.6,0.5-3.9c3.5-1.2,7.7,7.8,10.3,10.4c3.8,3.8,11.1,11.6,15.4,14.9c2.7,2.1,9,5,11.7,7.1c2,1.5,5.4,5,7.1,6.9
	c1.3,1.4,3.8,4.3,4.9,5.8c1,1.3,3.4,4,3.5,5.7c0.1,1.4-1.2,4-2.2,5c-1.7,1.8-6.5,3.7-8.7,4.8c-1.9,0.9-5.6,3.3-7.7,3.4
	c-2.2,0.1-6.3-1.8-8.1-3.1c-2.5-1.8-5.8-7.3-8-9.5c-1.9-1.9-6.3-5-8.3-6.7c-1.9-1.6-5.1-6.4-7.5-6.3c-1.9,0-5.6,5-5.6,5
	s3.2-2.7,3.6-3.9c1.3-3.6-2.8-11.9-0.9-15.1c1.2-2,6.3-3.3,8.6-3.9c4.3-1.1,13.4-2.3,17.9-1.7c4,0.6,12.2,3,15.1,5.8"/>
</svg>
