<?xml version="1.0" encoding="utf-8"?>
<!-- Generator: Adobe Illustrator 24.0.0, SVG Export Plug-In . SVG Version: 6.00 Build 0)  -->
<svg version="1.1" id="Layer_1" xmlns:ev="http://www.w3.org/2001/xml-events"
	 xmlns="http://www.w3.org/2000/svg" xmlns:xlink="http://www.w3.org/1999/xlink" x="0px" y="0px" viewBox="0 0 57.7 120.9"
	 style="enable-background:new 0 0 57.7 120.9;" xml:space="preserve">
<style type="text/css">
	.st0{fill:none;stroke:#000000;}
</style>
<path class="st0" d="M28.5,113.5c0,0,0.3-6.7,0.3-8.9c0-1.1-0.1-3.3,0.2-4.3c0.3-1.1,1.8-2.8,2.4-3.8c0.9-1.3,3-3.6,3.6-5.1
	c0.6-1.8,0.8-5.7,0.7-7.5c-0.1-2.7-0.4-8.6-2.1-10.6c-0.7-0.8-4.2-0.5-4.1-1.6c0.1-1.4,4.6,0,5.3-1.1c1.4-2-0.7-7.2-1.3-9.5
	c-1.4-5.4-9.2-15.2-8.3-20.7c0.5-3,7.4-6.3,7.9-9.3c0.4-2-3.1-5.7-2.8-7.8C30.9,19,36,10.3,40.1,9.4c1.9-0.4,6.1,2,6.8,3.8
	c0.5,1.4-1.4,4.3-2.1,5.6c-0.6,1.1-2,3.4-3.1,3.9c-2.6,1.2-8.7-1.3-11.4-0.5c-4.3,1.2-10.9,11.7-14.8,9.7c-2.1-1.1,2-9.3-0.4-9.3"/>
</svg>
