<?xml version="1.0" encoding="utf-8"?>
<!-- Generator: Adobe Illustrator 24.0.0, SVG Export Plug-In . SVG Version: 6.00 Build 0)  -->
<svg version="1.1" id="Layer_1" xmlns:ev="http://www.w3.org/2001/xml-events"
	 xmlns="http://www.w3.org/2000/svg" xmlns:xlink="http://www.w3.org/1999/xlink" x="0px" y="0px" viewBox="0 0 56.2 146.7"
	 style="enable-background:new 0 0 56.2 146.7;" xml:space="preserve">
<style type="text/css">
	.st0{fill:none;stroke:#000000;}
</style>
<path class="st0" d="M24.8,128.2c0,1.1-2.5,2.1-3.4,2.8c-4,3.1-12.8,15.4-16.4,11.9c-5.6-5.4,14.3-18.7,17.5-25.8
	c5.7-12.4,1.7-46.7,13.9-52.9c2.4-1.2,7.7,2.4,9.8,3.9c1.5,1,3.8,3.9,4.6,5.5c0.8,1.7,1.9,5.6,1.4,7.4c-0.7,2.7-5.1,6.5-7.2,8.3
	C42.6,91.5,34,93.2,34,96.5 M12.9,97.5c0,1.3-1.8,3.6-2.3,4.8c-1.1,2.4-4.7,7.4-3.9,9.9c1.1,3.1,11.3,3.6,11.3,6.9 M12.9,125.5
	c1.4-2.4,4.2-7.5,6.3-9.4c1.3-1.2,4.9-2.4,6.2-3.6c1.4-1.3,3.2-4.7,4.1-6.3c0.7-1.4,2-4.4,2.5-5.9c0.6-1.9,1.7-5.7,1.8-7.7
	c0.2-3.9-0.7-11.8-1.8-15.5c-0.7-2.4-4.3-6.6-4.4-9.1c-0.1-2.8,4.3-7.6,4.5-10.4c0.2-3.8-1.9-11.6-4.4-14.4
	c-1.9-2-10.2-1.1-10.2-3.8 M24.6,33.8c0-2.2-3-5.9-3.2-8.1c-0.2-2.5,0.9-7.5,1.9-9.7c0.6-1.4,2.6-3.9,3.8-4.9
	C29.9,8.7,39.8,4,39.8,4l-3.4,1.5"/>
</svg>
