<?xml version="1.0" encoding="utf-8"?>
<!-- Generator: Adobe Illustrator 24.0.0, SVG Export Plug-In . SVG Version: 6.00 Build 0)  -->
<svg version="1.1" id="Layer_1" xmlns:ev="http://www.w3.org/2001/xml-events"
	 xmlns="http://www.w3.org/2000/svg" xmlns:xlink="http://www.w3.org/1999/xlink" x="0px" y="0px" viewBox="0 0 53 73.6"
	 style="enable-background:new 0 0 53 73.6;" xml:space="preserve">
<style type="text/css">
	.st0{fill:none;stroke:#000000;stroke-width:1.0795;}
</style>
<path class="st0" d="M14.7,37.2c0,1.6-4.4,0.5-5.5,1.6C6.1,42.2,3.5,52.9,4,57.9c0.2,1.8,2.2,4.9,3.2,6.4c0.9,1.3,2.8,4.6,4.2,4.7
	c1.1,0.1,3.5-1.6,3.8-2.9c1-3.7-4.7-10.5-4.7-14.4"/>
<path class="st0" d="M9.2,35.3c0-2,3.9-4,5.4-4.7c2.9-1.4,9.5-0.9,12.5-2c1.7-0.6,5.1-2.3,6.4-3.7c1.1-1.2,3-4.4,3.1-6.2
	c0.1-1.9-1.3-6-2.7-6.8c-1.3-0.7-4,1.5-5.4,1.6c-2.2,0.2-6.5-0.6-8.7-0.8c-1.6-0.2-4.9-0.9-6.5-0.8c-1.2,0.1-4.6,0.2-4.7,1.6
	c-0.2,4.1,9.6,6,13.2,6.2c1.3,0.1,4.6-0.3,4.9-1.7c1.2-5.2-12.4-10.4-12.4-15.7"/>
<path class="st0" d="M49.2,55.8c0,0-3,4-4.3,4.7c-0.2,0.1-0.8,0.1-1.1,0.1c-2.9,0.1-8.8-0.1-11.7,0c-1.8,0.1-5.6,2-7,0.6
	C18.4,54.6,22,30.4,22,20.1"/>
</svg>
