<?xml version="1.0" encoding="utf-8"?>
<!-- Generator: Adobe Illustrator 24.0.0, SVG Export Plug-In . SVG Version: 6.00 Build 0)  -->
<svg version="1.1" id="Layer_1" xmlns:ev="http://www.w3.org/2001/xml-events"
	 xmlns="http://www.w3.org/2000/svg" xmlns:xlink="http://www.w3.org/1999/xlink" x="0px" y="0px" viewBox="0 0 53.5 76.9"
	 style="enable-background:new 0 0 53.5 76.9;" xml:space="preserve">
<style type="text/css">
	.st0{fill:none;stroke:#000000;stroke-linecap:round;stroke-linejoin:round;}
</style>
<path class="st0" d="M17.2,4.6c0-1.2,3.2-2,4.4-1.8c1.6,0.2,3.6,3.2,4.9,4c3.2,1.9,10,5.2,13.6,6.1c1.3,0.3,4,0.1,5.3,0.4
	c1.2,0.3,4.6,1.7,4.6,1.7l-5.6,2.2c0,0-7.1,2.2-7.7,4.3c-0.3,1.1,2.2,2.8,2.2,4 M29.1,48.4c0,0-6.6-1.8-8.4-3
	c-1.5-1-4.3-3.7-4.7-5.4c-0.5-1.9,1-5.7,1.6-7.5c0.8-2.7,1.3-9.1,3.8-10.4c0.6-0.3,1.8,0.5,2.4,0.7c1.8,0.5,5.4,2.3,7.3,2
	c1.7-0.3,4.9-2.4,5.8-3.8c1.5-2.3,1.8-8.1,1.8-10.9 M10.5,74.1C7.3,75.5,4.6,65,4,61.5c-0.1-0.9,0.1-2.8,0.6-3.5
	c2-2.5,8.8-3.5,11.7-4.8c0.9-0.4,2.7-1.3,3.6-1.5c1.3-0.4,3.9-1,5.2-0.8c2,0.2,5.6,2.4,7.4,3.2c1.7,0.8,5.2,2.1,6.6,3.2
	c2.6,2,8.4,6.7,8.6,10c0.1,1.2-2.5,2.8-2.5,3.9"/>
</svg>
