<?xml version="1.0" encoding="utf-8"?>
<!-- Generator: Adobe Illustrator 24.0.0, SVG Export Plug-In . SVG Version: 6.00 Build 0)  -->
<svg version="1.1" id="Layer_1" xmlns:ev="http://www.w3.org/2001/xml-events"
	 xmlns="http://www.w3.org/2000/svg" xmlns:xlink="http://www.w3.org/1999/xlink" x="0px" y="0px" viewBox="0 0 42.5 88"
	 style="enable-background:new 0 0 42.5 88;" xml:space="preserve">
<style type="text/css">
	.st0{fill:none;stroke:#000000;}
</style>
<path class="st0" d="M14.6,51.1l-4.7,5.8c0,0,11.2,4.3,14.6,6.4c1.9,1.2,7,5.6,7,5.6l-6.3,11.8l2.5,4.6 M34.6,54.5
	c0-0.5,1.6,0.1,2.1-0.2c0.8-0.4,2.3-1.6,2.5-2.5c0.2-1.2-1-4.3-2.2-4.4c-3-0.3-7.3,9.5-7.3,9.5l-15.4-0.7 M27.6,63
	c0,0-6.3-7.8-8.1-10.6c-2.6-4.1-9.1-17.1-9.1-17.1 M9.2,31.8c0,0-2.5-9.5-3.4-12.7c-0.6-2-3.1-5.9-2.7-8c0.3-1.6,3.1-4,4.4-5
	c2-1.4,6.7-3.2,9.2-3.4c2.6-0.2,10,2.1,10,2.1l-1.7,0c0,0-1.6,11.6-3.9,14.7c-0.6,0.9-3.7,2.4-3.7,2.4"/>
</svg>
