<?xml version="1.0" encoding="utf-8"?>
<!-- Generator: Adobe Illustrator 24.0.0, SVG Export Plug-In . SVG Version: 6.00 Build 0)  -->
<svg version="1.1" id="Layer_1" xmlns:ev="http://www.w3.org/2001/xml-events"
	 xmlns="http://www.w3.org/2000/svg" xmlns:xlink="http://www.w3.org/1999/xlink" x="0px" y="0px" viewBox="0 0 69.4 95.2"
	 style="enable-background:new 0 0 69.4 95.2;" xml:space="preserve">
<style type="text/css">
	.st0{fill:none;stroke:#000000;}
</style>
<path class="st0" d="M41.4,6c0,0,6.4,3.8,8.6,5c1.8,0.9,5.6,2.2,7.3,3.3c1,0.6,3.5,1.9,3.6,3c0.1,1.1-2.9,2.5-2.7,3.6
	c0.3,1.9,6.4,2.2,6.3,4.1c0,1-3.1,1.1-3.5,2c-0.6,1.3,1.8,4.5,1.2,5.8c-1.4,2.9-8.5,4.7-11.3,6.2c-2.2,1.2-6.7,3.7-9,4.8
	c-0.1,0.1-0.4,0.3-0.6,0.2c-1.4-0.9,0.4-5.1-0.5-6.5c-1.2-1.9-7.7-4.8-7.7-4.8 M63.1,73.3c0,0-7.3,6.5-10.2,7.9
	c-6.6,3.3-28.3,7.6-28.3,7.6s4.7-5.8,5.6-8.1c1-2.4,1.3-7.6,1.5-10.2c0.8-8.2,1.3-25-1.5-32.8c-0.3-0.8-2.1-2.8-2.1-2.8
	s9.2-4.6,11.1-7.4c0.6-0.9,1.4-3.2,1-4.2c-0.6-1.7-4.1-3.9-5.9-4.2c-2-0.3-7.9,2.3-7.9,2.3s-4.7,3.7-4.2,5.3
	c1,2.9,12.1,2.9,12.1,2.9s0.7-1.8,0.5-2.4c-1-2.7-9.1-6.8-9.1-6.8 M3.8,68.3c0,0,4.2,0.6,5.4,0.1c2.1-0.9,6.2-6.4,6.2-6.4
	s-1.3,1.9-1.7,2.5c-0.7,1.2-2.2,3.7-2.5,5.1c-0.5,2.8,1.1,8.5,1.1,11.4c0,2-0.8,7.9-0.8,7.9"/>
</svg>
