<?xml version="1.0" encoding="utf-8"?>
<!-- Generator: Adobe Illustrator 24.0.0, SVG Export Plug-In . SVG Version: 6.00 Build 0)  -->
<svg version="1.1" id="Layer_1" xmlns:ev="http://www.w3.org/2001/xml-events"
	 xmlns="http://www.w3.org/2000/svg" xmlns:xlink="http://www.w3.org/1999/xlink" x="0px" y="0px" viewBox="0 0 88.1 147"
	 style="enable-background:new 0 0 88.1 147;" xml:space="preserve">
<style type="text/css">
	.st0{fill:none;stroke:#000000;}
</style>
<path class="st0" d="M31.6,89.3l27.1-17.2c0,0-6.7,15.6-9.6,20.4c-3.1,5.1-10.3,14.7-14.4,19c-5.2,5.4-23.3,18.9-23.3,18.9
	s4.1-6,4.3-8.4c0.2-2.6-3.3-7.4-3.2-10c0.4-5.8,9.6-21.3,9.6-21.3L6.4,7.1 M72.7,116.1c0,1.6,4,4.1,3.4,5.6
	c-0.5,1.3-4.1,0.8-5.4,1.2c-1.6,0.5-5.4,1.2-6.3,2.7c-1.8,2.8,2.4,10.9,0.3,13.6c-2.3,2.9-14.4,3.1-14.4,3.1l-1.1-0.3l0.1-12.6
	c0,0,23-19.7,26.9-28.8c3.5-8.1-3.2-28.2,2.2-35.3c0.4-0.6,2-1.3,2.7-0.9c2.2,1.1,3.4,7,3,9.4C83,78.8,74.6,86.1,71.4,90
	c-3,3.6-9.1,10.6-12.4,14c-0.7,0.7-2,2-2.7,2.6c-3.6,2.8-11.2,8.1-15.5,9.5c-4.8,1.5-20.2,1-20.2,1"/>
</svg>
