<?xml version="1.0" encoding="utf-8"?>
<!-- Generator: Adobe Illustrator 24.0.0, SVG Export Plug-In . SVG Version: 6.00 Build 0)  -->
<svg version="1.1" id="Layer_1" xmlns:ev="http://www.w3.org/2001/xml-events"
	 xmlns="http://www.w3.org/2000/svg" xmlns:xlink="http://www.w3.org/1999/xlink" x="0px" y="0px" viewBox="0 0 95.5 263"
	 style="enable-background:new 0 0 95.5 263;" xml:space="preserve">
<style type="text/css">
	.st0{fill:none;stroke:#000000;stroke-width:0.9053;}
</style>
<path class="st0" d="M21.5,253.8c0,0,43.5-19.1,43.5-30.9 M54.4,221.3c0-2.8-11.3-1.2-13-3.7c-1-1.5,1-5,1.8-6.5
	c2.2-4,10.8-10.1,12.3-14.3c1.2-3.3-1.4-10.5-0.3-13.8c1.6-4.8,17-13.6,12.6-17c-1.6-1.2-5.7,2.8-7,4.2c-3.7,4-2.3,18.9-8.5,19
	c-4.1,0.1-5.4-9.1-6.7-12.3c-1.6-3.9-2.6-12.1-4.4-15.9c-0.2-0.3-0.6-0.9-0.8-1.2c-1.3-2.2-3.5-6.9-4.7-9.1
	c-0.9-1.7-2.3-5.3-3.6-6.9c-3.7-4.4-15.3-10.5-18.8-15c-2.3-3-5.9-10-5.5-13.5c0.3-3.4,6.1-9.1,7.8-12.2c2.5-4.7,4.4-15.5,8.3-19.5
	c1.9-2,7.5-4.7,10.4-5.4c3.7-1,13.9,2.2,15.5-0.7c1.7-3-9.6-7-10-10.3c-0.3-2.8,3.1-9,6.3-10.1c1-0.3,3.3,0.6,4.1,1.2
	c1.7,1.4,3.5,5.3,3.6,7.3c0.2,3.3-6.7,10.2-4.2,12.8c1.9,2,9.6,0.5,12.6-0.3c5.2-1.4,14-7.3,18.1-10.3c1.8-1.4,6.7-4.3,6.4-6.4
	c-0.4-2.5-8.2-3.8-9.6-5.9c-1.4-2.1,0.7-7.5-0.7-9.5c-3-4.4-17.5-7.1-20.4-11.6c-2.3-3.6,2.7-12.9,0.1-16.4
	c-3.3-4.4-22.5-4.1-22.5-9.3"/>
</svg>
