<?xml version="1.0" encoding="utf-8"?>
<!-- Generator: Adobe Illustrator 24.0.0, SVG Export Plug-In . SVG Version: 6.00 Build 0)  -->
<svg version="1.1" id="Layer_1" xmlns:ev="http://www.w3.org/2001/xml-events"
	 xmlns="http://www.w3.org/2000/svg" xmlns:xlink="http://www.w3.org/1999/xlink" x="0px" y="0px" viewBox="0 0 66.4 127.3"
	 style="enable-background:new 0 0 66.4 127.3;" xml:space="preserve">
<style type="text/css">
	.st0{fill:none;stroke:#000000;}
</style>
<path class="st0" d="M11.7,4.2c0,0,9.4,21.9,9.1,29.6c0,0.7-1.1,1.8-1,2.5c1.1,3.9,11.4,5.9,12.7,9.7c0.4,1-0.7,3.3-1.1,4.3
	c-0.9,2-4.5,5.2-5.1,7.4c-0.3,1,0,3.2,0.4,4.2c0.6,1.6,2.9,4.3,4.3,5.2c2.1,1.3,7.3,2.9,9.8,2.4c0.9-0.2,3-1.5,3-2.4 M60.5,120.8
	c0-2.1-6.3-1.5-8-2.8c-3.5-2.6-8.4-10.3-10.2-14.3c-1.4-3-2.5-9.6-3-12.9c-0.3-2.1,0-6.3-0.6-8.4c-0.3-1-2.1-2.8-1.9-3.9
	c0.1-0.4,0.9-0.9,1.2-1.1c2.5-1.4,8.7-1.3,11.1-2.9c1.3-0.9,3.9-3.7,3.7-5.3c-0.4-3.1-9.6-4.7-9.6-7.8 M16.6,40.3
	c0-2.5-4.1-6.2-6-7.7c-1-0.8-3.6-2.6-4.7-2c-1.4,0.8-2.2,5.2-1.1,6.4c1,1.2,4.8-0.1,6.4-0.1c3.4-0.1,10.8,1.5,13.7-0.3
	c1.1-0.7,2.4-3.2,2.4-4.5"/>
</svg>
