<?xml version="1.0" encoding="utf-8"?>
<!-- Generator: Adobe Illustrator 24.0.0, SVG Export Plug-In . SVG Version: 6.00 Build 0)  -->
<svg version="1.1" id="Layer_1" xmlns:ev="http://www.w3.org/2001/xml-events"
	 xmlns="http://www.w3.org/2000/svg" xmlns:xlink="http://www.w3.org/1999/xlink" x="0px" y="0px" viewBox="0 0 51 79.2"
	 style="enable-background:new 0 0 51 79.2;" xml:space="preserve">
<style type="text/css">
	.st0{fill:none;stroke:#000000;stroke-width:1.0631;}
</style>
<path class="st0" d="M48.6,51.3l-0.6-0.2c0,0-19.4-13.3-18-20.2c0.3-1.4,4.8-1.9,4.8-1.9 M29.2,8.4l14.9-5.1c0,0-2.3,7.1-3.4,9.3
	c-1.4,2.7-6.6,10-6.6,10s1.7,7.7,1.3,10.3c-0.2,1.3-2.1,4.5-2.1,4.5L23,41.5l-10.3,0.3c0,0-5-1.2-6.6-1.6c-0.6-0.1-1.9,0-2.3-0.5
	c-1.4-1.8-0.9-7.2-0.7-9.6c0.1-1.8,1.7-6.8,1.7-6.8l0.7-4.3L6,19.6c0,0,1.4,7.4,1.8,9.9c0.8,4.5,2.4,13.6,3.5,18
	c0.7,2.9,2.5,8.5,3.5,11.3c0.7,2,2.2,6.1,3.4,7.9c1,1.6,4.9,5.3,4.9,5.3s4.6-0.9,6.1-1.6c1.5-0.8,4.6-2.7,5.6-4.2
	c1.9-2.8,3.6-9.9,4.3-13.3c0.7-3.2,1.2-12.9,1.2-12.9s1.1-10,0.2-13c-0.7-2.2-3.6-5.9-5.3-7.1c-1.6-1.2-5.5-3.1-7.4-2.4
	c-1.9,0.7-4.3,4.9-5.2,7c-1,2.5-2.2,8-1.8,10.7c0.5,4.2,5.3,11.2,6.5,15.2c1.1,3.7,1.8,11.7,1.3,15.6c-0.4,2.9-3.9,11-3.9,11"/>
</svg>
