<?xml version="1.0" encoding="utf-8"?>
<!-- Generator: Adobe Illustrator 24.0.0, SVG Export Plug-In . SVG Version: 6.00 Build 0)  -->
<svg version="1.1" id="Layer_1" xmlns:ev="http://www.w3.org/2001/xml-events"
	 xmlns="http://www.w3.org/2000/svg" xmlns:xlink="http://www.w3.org/1999/xlink" x="0px" y="0px" viewBox="0 0 48.8 77.5"
	 style="enable-background:new 0 0 48.8 77.5;" xml:space="preserve">
<style type="text/css">
	.st0{fill:none;stroke:#000000;}
</style>
<path class="st0" d="M11.9,4.7c2.9-0.4,5.1-0.2,7.7,1.3c2.9,2.9-0.5,6.7-2.1,9.3c-3.9,4.6-11,2.7-12.9,9.8c-1.5,8.4,5,17,13.4,18.5
	c1.4-0.3-0.7,3.1-0.3,4.5c0.3,1.4,1.2,1.9,2.1,2.4c4.5,0.3,8.2-2.1,13.2-2.6c1.4-0.3,1.2,1.9,0.7,2.7c-1.5,2.6-4.5,5.5-4.3,9.1
	c0.5,5-2.1,9.3-2.9,14.6c-1.5-0.7,0.9-5.2,0,0c-2.6-1.5,1.5-2.6-0.2-3.6c-2.1-2.4-5.1-3.1-6.1-7.4"/>
<path class="st0" d="M37.3,10.7c0.6-1.1-0.3-4.5,0.8-4.9c1.3-0.4,3,3,3.8,4c1.1,1.3,3.8,4,3.8,5.7c-0.1,1.8-3.7,4.1-4.5,5.8
	c-0.7,1.5-0.9,5-1.7,6.5c-1.2,2-5.7,4.5-6.7,6.7c-0.4,0.8-0.7,3,0,3.7c1.1,1.2,5.5,1.6,6.5,0.4c1.4-1.6-2.6-6.5-1.5-8.2"/>
</svg>
