<?xml version="1.0" encoding="utf-8"?>
<!-- Generator: Adobe Illustrator 24.0.0, SVG Export Plug-In . SVG Version: 6.00 Build 0)  -->
<svg version="1.1" id="Layer_1" xmlns:ev="http://www.w3.org/2001/xml-events"
	 xmlns="http://www.w3.org/2000/svg" xmlns:xlink="http://www.w3.org/1999/xlink" x="0px" y="0px" viewBox="0 0 53.7 74.7"
	 style="enable-background:new 0 0 53.7 74.7;" xml:space="preserve">
<style type="text/css">
	.st0{fill:none;stroke:#000000;}
</style>
<path class="st0" d="M34.2,54.8c0,0-3.8,0.3-5.1-0.1c-1.5-0.4-3.9-2.2-4.4-4.6c-1-3.9,2.2-6.5,4.5-6.6c2.9-0.1,4,2.3,3.8,4.3
	c-0.5,3.5-4,5.3-4,5.3s-1.2,0.8-1.6,0.8c-2.5,0.4-9.8-1.7-9.8-1.7L7.3,44.2c0,0,5.1-8,6.9-10.6c1.8-2.6,5.1-8.1,7.5-10.2
	c1.5-1.4,6.8-2.5,7.1-4.5c0.3-2.1-4.1-4.7-5.4-6.4c-1.4-1.9-5-7.9-5-7.9l0.9-2.3 M40.3,67.4l-5.8,4.1l-12-10.1c0,0-4.1-21-8.6-26.3
	c-1.8-2.2-8.7-2.7-10.1-5.2C2,26.6,2.3,17.8,4.5,14.8c1.2-1.7,6.3-4.4,7.7-2.9c0.2,0.2-0.6,0.8-0.5,1.1c1.3,2.6,8.9,1.3,11.4,2.8
	c1.1,0.6,2.5,2.7,3.4,3.5c1.5,1.3,6.4,2.9,6.4,4.9c0,2-7.2,3.1-6.2,4.9c1.4,2.8,8.9-2.7,11.9-3.5c3.1-0.8,12.4,0.1,12.6-3.1
	c0.1-3.1-9-2.9-12-3.8c-1.2-0.4-3.6-1-4.7-1.4c-1.3-0.4-3.9-1.2-4.9-2c-1.6-1.4-4.7-7.1-4.7-7.1"/>
</svg>
