<?xml version="1.0" encoding="utf-8"?>
<!-- Generator: Adobe Illustrator 24.0.0, SVG Export Plug-In . SVG Version: 6.00 Build 0)  -->
<svg version="1.1" id="Layer_1" xmlns:ev="http://www.w3.org/2001/xml-events"
	 xmlns="http://www.w3.org/2000/svg" xmlns:xlink="http://www.w3.org/1999/xlink" x="0px" y="0px" viewBox="0 0 44.6 63"
	 style="enable-background:new 0 0 44.6 63;" xml:space="preserve">
<style type="text/css">
	.st0{fill:none;stroke:#000000;}
</style>
<path class="st0" d="M41,35.4c0,0-3.4,2.3-4.5,3.1c-0.7,0.6-2.6,2.4-2.6,2.4s-2.9-8.6-4.4-11.2c-0.7-1.2-2.5-3.2-3.7-3.8
	c-2.5-1.2-9.6,1.6-11.1-0.7c-0.8-1.1,0.4-5.5,1.8-5.2c4.1,0.9-2.1,12.4-1.6,16.5c0.2,1.7,1.1,5.3,2.1,6.7c0.9,1.2,3.9,2.3,4.8,3.6
	c0.4,0.6,1.2,2.2,0.8,2.9c-0.9,1.8-6.6,1-7.3,2.8c-0.6,1.4,0.9,5,2.3,5.7c3,1.6,13.5,0.2,13.5,0.2l0.5-5.1 M3.3,4.3
	c0-0.7,1.7-1.4,2.4-1.5c0.7-0.1,2.1,0.4,2.6,0.9C9,4.5,9.6,6.9,9.4,8c-0.2,1-1.7,2.6-2.2,3.5c-1,1.9-4.8,6.1-3.5,7.8
	c0.6,0.9,3.3-0.2,4.2-0.6c3-1.3,8.1-5.5,10-8.1c0.6-0.7,2-2.7,1.4-3.5c-0.8-1-3.9,0.1-5,0.8c-1.2,0.8-3,3.7-2.8,5.1
	c0.1,0.5,0.8,1.1,1.2,1.3c2.7,1.2,9,1.4,11.8,0.4c0.5-0.2,1.4-0.8,1.4-1.3"/>
</svg>
