<?xml version="1.0" encoding="utf-8"?>
<!-- Generator: Adobe Illustrator 24.0.0, SVG Export Plug-In . SVG Version: 6.00 Build 0)  -->
<svg version="1.1" id="Layer_1" xmlns:ev="http://www.w3.org/2001/xml-events"
	 xmlns="http://www.w3.org/2000/svg" xmlns:xlink="http://www.w3.org/1999/xlink" x="0px" y="0px" viewBox="0 0 54.9 111.5"
	 style="enable-background:new 0 0 54.9 111.5;" xml:space="preserve">
<style type="text/css">
	.st0{fill:none;stroke:#000000;stroke-width:1.7214;}
</style>
<path class="st0" d="M26.8,107.9l-4.3-14.6 M33.4,108.8l-13-60.3c0,0,7.4,10.2,10.8,9.2c6.1-1.8,8.5-18.2,7.1-24.4
	c-0.8-3.6-9.8-10.8-9.8-10.8 M43.5,4l-5-0.2l-0.3,2.1l0,10.8l-13.7,7.8l7.6,13.1c0,0,19.1-0.8,19,4c0,1.5-5.8,0.9-5.8,0.9
	 M10.7,55.1l-7.5-3c0,0,1.3-3.4,2.2-4.2c4.4-3.9,22.1-8.4,22.1-8.4s8.5,16,13.4,19.3c1.2,0.8,4.1,1.3,5.6,1.3c0.6,0,2.2-0.7,2.2-0.7
	s-1.4,7.7-2.6,10c-1.9,3.9-9.6,9.4-10.5,13.6c-0.7,3.3,1.3,10.1,2.9,13.1c1,1.8,5.9,6,5.9,6"/>
</svg>
