<?xml version="1.0" encoding="utf-8"?>
<!-- Generator: Adobe Illustrator 24.0.0, SVG Export Plug-In . SVG Version: 6.00 Build 0)  -->
<svg version="1.1" id="Layer_1" xmlns:ev="http://www.w3.org/2001/xml-events"
	 xmlns="http://www.w3.org/2000/svg" xmlns:xlink="http://www.w3.org/1999/xlink" x="0px" y="0px" viewBox="0 0 42.4 70.3"
	 style="enable-background:new 0 0 42.4 70.3;" xml:space="preserve">
<style type="text/css">
	.st0{fill:none;stroke:#000000;}
</style>
<path class="st0" d="M32.7,6.2l5.3-3.5l-0.6,8l-0.2,16.4l-0.8,8.7c0,0-4.8-7.3-8.3-8.2c-1.9-0.5-5.9-0.3-5.9-0.3l-7.3,13.1
	l14.4,10.2c0,0-0.7,2.1-1.4,2.3C24,54.4,12.1,48,12.1,48s-2.2,3.5-2.5,4.8c-0.6,2.5,0.2,10.2,0.2,10.2S6.2,63,5.3,63.6
	c-1.1,0.7-2.8,4.3-2.8,4.3 M10.4,20.1l-4.8-4.3c0,0-1.1,5.9-1.4,8.5c-0.1,1-0.4,5,0.2,5.7c1.2,1.4,5.4,0,7.2,0.1
	c0.8,0.1,2.7,0.1,3.3,0.6c0.4,0.4,0.2,1.9,0.5,2.4c1.5,2.2,7.4,5.2,9.9,4.1c1.2-0.5,2.3-3.6,1.8-4.8c-0.7-1.7-6.6-3.1-6.6-3.1
	 M14.8,40.4c0,0,3.1,2.7,3.8,3.9c0.8,1.3,1.8,4.2,2,5.7c0.4,2.5-0.1,10.2-0.1,10.2s5.5,3.6,7.6,4.1c2.8,0.6,11.3-0.9,11.3-0.9
	l-3.2-6.1"/>
</svg>
