<?xml version="1.0" encoding="utf-8"?>
<!-- Generator: Adobe Illustrator 24.0.0, SVG Export Plug-In . SVG Version: 6.00 Build 0)  -->
<svg version="1.1" id="Layer_1" xmlns:ev="http://www.w3.org/2001/xml-events"
	 xmlns="http://www.w3.org/2000/svg" xmlns:xlink="http://www.w3.org/1999/xlink" x="0px" y="0px" viewBox="0 0 37.5 61.4"
	 style="enable-background:new 0 0 37.5 61.4;" xml:space="preserve">
<style type="text/css">
	.st0{fill:none;stroke:#000000;stroke-width:1.0422;}
</style>
<path class="st0" d="M11,33.4L3.5,31c0,0,12.9-5.6,16.6-8.4c1.6-1.2,5.4-5.9,5.4-5.9s6.1-0.9,7.3-2.3c1.1-1.3,1.4-5.1,0.8-6.7
	c-0.5-1.4-2.9-4.6-4.3-4c-2.2,1,0.3,9.8,0.3,9.8l-5,17.5l-1.2,7.9l2.2,9.7l0.3,4.3c0,0,4.5,1.6,5.8,1c1-0.5,2.2-2.7,2.4-3.8
	c0.4-3.1-2-9.3-3.4-12.1c-0.3-0.7-1.9-2.3-1.9-2.3l-4,8.5l0.8,4.4l-2.6-3.2l0.4,12.9c0,0-1-0.4-1.2-0.7c-0.8-0.9-1-3.5-1.7-4.4
	c-0.4-0.4-1.9-1.3-1.9-1.3l1.2-0.1"/>
</svg>
