<?xml version="1.0" encoding="utf-8"?>
<!-- Generator: Adobe Illustrator 24.0.0, SVG Export Plug-In . SVG Version: 6.00 Build 0)  -->
<svg version="1.1" id="Layer_1" xmlns:ev="http://www.w3.org/2001/xml-events"
	 xmlns="http://www.w3.org/2000/svg" xmlns:xlink="http://www.w3.org/1999/xlink" x="0px" y="0px" viewBox="0 0 37 43.9"
	 style="enable-background:new 0 0 37 43.9;" xml:space="preserve">
<style type="text/css">
	.st0{fill:none;stroke:#000000;}
</style>
<path class="st0" d="M30.2,9.2c0,0-0.8,4.3-0.9,5.8c0,1.8,1.9,5.6,0.9,7.1c-1,1.5-5.5,2.7-7,1.7c-1.9-1.2-0.4-6.8-1.4-8.8
	c-1.1-2.2-7.1-6.7-7.1-6.7l-3-1.1c0,0,12.9,0.1,17.2-0.7c1.5-0.3,5.9-0.3,6-1.8c0.1-1.6-4.2-3-5.7-2.7c-5.1,0.9-14.5,14.5-14.5,14.5
	s2.6,13,4.9,16.7c1.5,2.3,8.3,7.4,8.3,7.4S27.1,41,26.8,41c-6.2,0.6-24.4-4.9-24.4-4.9"/>
</svg>
