<?xml version="1.0" encoding="utf-8"?>
<!-- Generator: Adobe Illustrator 24.0.0, SVG Export Plug-In . SVG Version: 6.00 Build 0)  -->
<svg version="1.1" id="Layer_1" xmlns:ev="http://www.w3.org/2001/xml-events"
	 xmlns="http://www.w3.org/2000/svg" xmlns:xlink="http://www.w3.org/1999/xlink" x="0px" y="0px" viewBox="0 0 127.2 195.6"
	 style="enable-background:new 0 0 127.2 195.6;" xml:space="preserve">
<style type="text/css">
	.st0{fill:none;stroke:#000000;}
</style>
<path class="st0" d="M80.1,5.1c3.2,1.2,3,9.9,3.2,13.4c0,0.8-1.2,3-0.4,3.3c1.3,0.6,2.4-4.5,3.8-4.2c2.8,0.7,2.4,8.4,3.3,11.1
	c3.2,9.9,16.7,14.6,21.2,10.9c4.4-3.5-2.2-13.1-5-16.2c-3.3-3.5-13.1-8.1-17.9-7.2c-0.5,0.1-1.1,1-1.5,1.4c-0.9,1.2-2.8,3.7-3.1,5.2
	c-1.1,4.9,2.6,15,2.1,20.1c-0.3,2.9-0.8,9.9-3.4,11c-0.8,0.3-2.1-1.6-2.9-1.6c-4.5,0.2-10.8,8.5-15.1,9.6c-1.2,0.3-4.1,0.5-5.1-0.2
	c-0.8-0.6-0.5-2.9-1.2-3.6c-2.3-2.6-10.3-3.1-12.5-5.7c-3.5-4.2,0.2-21-5.3-21.2c-1.2,0-0.9,3.6-1.5,4.7c-1.6,3-5.4,9.1-8.4,10.5
	c-1.7,0.8-5.8-0.4-7.7-0.2c-3.8,0.5-12,1.7-14.6,4.5c-0.5,0.6-0.8,2.3-0.8,3c0.1,3,2.3,8.7,3.8,11.3c4.9,8.6,17.7,24.3,25.8,29.9
	c5.1,3.6,17.3,7.5,23.4,8.6c1.9,0.3,6.1-1,7.7,0.1c3.2,2.1,5.6,10.1,6.4,13.8c0.8,3.9-3,12.9-0.5,16c4,4.8,18.5,2.2,24.4,3.8
	c3.1,0.9,11.1,1.8,11.7,4.9c2.9,16.4-48.8,45.4-48.8,45.4s40.3-39.8,55.4-33.9"/>
</svg>
