<?xml version="1.0" encoding="utf-8"?>
<!-- Generator: Adobe Illustrator 24.0.0, SVG Export Plug-In . SVG Version: 6.00 Build 0)  -->
<svg version="1.1" id="Layer_1" xmlns:ev="http://www.w3.org/2001/xml-events"
	 xmlns="http://www.w3.org/2000/svg" xmlns:xlink="http://www.w3.org/1999/xlink" x="0px" y="0px" viewBox="0 0 41.3 44.1"
	 style="enable-background:new 0 0 41.3 44.1;" xml:space="preserve">
<style type="text/css">
	.st0{fill:none;stroke:#000000;}
</style>
<path class="st0" d="M23.1,8.8L22,17c0,0-3.8,0-5.1-0.3c-0.9-0.2-3.4-1.5-3.4-1.5s-1.8-0.3-2.4-0.1c-2.1,1-4.8,5.3-5.8,7.5
	c-1.1,2.2-2.9,7.2-2.3,9.6c0.3,1.3,3.6,3.9,3.6,3.9l4.6-3.4 M9.3,7.1c0,0,6.8,0.6,9-0.1c0.8-0.3,2.8-1.1,2.8-1.9
	c-0.1-0.9-3.2-1.7-3.2-1.7l-4.3,1.3l-1.9,15.1l4.9,1.4 M29.6,18.3l4.1,2.8l4.6,10.5l-5.6,5l-5.6,3.6l-4.9-2c0,0-0.5-7.7-2.5-7.9
	c-1.7-0.1-3.4,4.3-3,5.9c0.3,1.3,2.8,3,4.1,3.1c3,0.1,10-6.6,10-6.6"/>
</svg>
