<?xml version="1.0" encoding="utf-8"?>
<!-- Generator: Adobe Illustrator 24.0.0, SVG Export Plug-In . SVG Version: 6.00 Build 0)  -->
<svg version="1.1" id="Layer_1" xmlns:ev="http://www.w3.org/2001/xml-events"
	 xmlns="http://www.w3.org/2000/svg" xmlns:xlink="http://www.w3.org/1999/xlink" x="0px" y="0px" viewBox="0 0 46.9 77.5"
	 style="enable-background:new 0 0 46.9 77.5;" xml:space="preserve">
<style type="text/css">
	.st0{fill:none;stroke:#000000;}
</style>
<path class="st0" d="M44.2,70.7c0,0-6.6,0-8.8-0.3C32.5,70,24,67.5,24,67.5s-2.4-28.9-0.5-38.3c0.4-1.9,2.1-5.3,3-6.9
	c0.9-1.6,3.1-4.4,4.2-5.8c1.1-1.4,4.2-3.8,4.5-5.6c0.2-1.1-0.5-3.3-1.2-4.2c-1.3-1.6-5.4-4.6-7.3-3.8c-1.1,0.5-0.6,3.5-1.3,4.4
	 M41.8,50c-0.7,0.9-2.4,2.8-3.6,3c-3.1,0.6-8.3-1.7-10.1-4.3c-1.9-2.7-2.9-9.7-1.1-12.5c0.6-0.9,3.2-2.8,4-2.1c1,0.9-0.9,4.2-2,5
	c-2.4,1.5-10.5-3.4-11.5-0.7c-0.7,1.7,4.6,3,5.4,4.6c1.3,2.5,1.1,11.2,1.1,11.2L6.4,54.1c0,0,0.8,2.8,0.1,3.4
	C6.1,57.8,4.6,57,4.6,57l-1,17.6"/>
</svg>
