<?xml version="1.0" encoding="utf-8"?>
<!-- Generator: Adobe Illustrator 24.0.0, SVG Export Plug-In . SVG Version: 6.00 Build 0)  -->
<svg version="1.1" id="Layer_1" xmlns:ev="http://www.w3.org/2001/xml-events"
	 xmlns="http://www.w3.org/2000/svg" xmlns:xlink="http://www.w3.org/1999/xlink" x="0px" y="0px" viewBox="0 0 68.7 120.5"
	 style="enable-background:new 0 0 68.7 120.5;" xml:space="preserve">
<style type="text/css">
	.st0{fill:none;stroke:#000000;}
</style>
<path class="st0" d="M39.8,17.8L4.1,10.9l3,1.1l-0.3-0.3c0,0,5.2-1.6,7-2c2.1-0.4,6.6-0.6,8.7-1.2c2.6-0.7,7.4-3.8,10.1-4
	c1.2-0.1,3.9,0,4.6,1c0.7,1,0,3.7-0.3,4.9c-0.6,2.4-2.4,9.5-2.4,9.5s-2.6,5.9-2.4,8c0.1,1.6,2.6,4.1,2.8,5.7
	c0.2,1.9-1.2,5.7-1.7,7.6c-0.5,1.9-2.4,5.7-2.3,7.7c0,1.9,1.4,5.6,2.3,7.2c1.1,1.9,3.8,5.5,5.6,6.8c1.9,1.4,6.6,2.7,8.8,3.5
	c2.6,1.1,7.9,3.2,10.6,4.2c1.2,0.4,3.5,1.3,4.7,1.4c0.4,0.1,1.5-0.3,1.5,0 M37,117.2c0-3.1-7.2-6.1-9-8.7c-1.8-2.7-3.7-9.1-4.7-12.2
	c-0.9-2.6-3-7.8-3.1-10.6c0-2,0.9-6.1,2-7.8c1.7-2.6,7.3-5.9,9.6-8c2.2-1.9,6.9-5.5,8.5-7.8c0.9-1.3,2.1-4.2,2.4-5.8
	c0.3-1.4,0.6-4.2,0.1-5.6c-0.6-1.6-2.9-4.3-4.3-5.1c-2.2-1.1-7.3-1-9.8-0.8c-1.4,0.1-5.7-0.4-5.7,1"/>
</svg>
