<?xml version="1.0" encoding="utf-8"?>
<!-- Generator: Adobe Illustrator 24.0.0, SVG Export Plug-In . SVG Version: 6.00 Build 0)  -->
<svg version="1.1" id="Layer_1" xmlns:ev="http://www.w3.org/2001/xml-events"
	 xmlns="http://www.w3.org/2000/svg" xmlns:xlink="http://www.w3.org/1999/xlink" x="0px" y="0px" viewBox="0 0 69 92.1"
	 style="enable-background:new 0 0 69 92.1;" xml:space="preserve">
<style type="text/css">
	.st0{fill:none;stroke:#000000;stroke-width:1.181;}
</style>
<path class="st0" d="M64.9,61c0-2-3.7-3.4-5.1-3.5c-0.5-0.1-1.3,0.8-1.8,0.8c-0.6-0.1-1.9-1-2.2-1.7c-0.4-1,0.1-3.6,0-4.8
	c-0.4-3.9-1.1-12.2-3.1-15c-3.6-5.2-17.7-2.4-19.6-9.1c-0.9-3.1,5.2-8.6,4.6-11.8c-0.3-1.4-2.5-2.6-3.6-3c-1.5-0.6-5-1.1-6.4-0.1
	c-1.6,1.1-4.9,5.5-4.2,7.8c1,3.2,10.9,5.3,11.5,1.9 M5.1,34.6l3.8-1.2l-1-8.2c0,0,3.8-20.9,8-20.8c3.1,0.1,3.7,12.2,5.7,15.7
	c0.8,1.4,3.3,3,3.8,4.5c1.2,3.3,0.8,11,0.6,14.7c-0.1,3.2-2.1,9.5-1.6,12.7c0.1,0.8,1.3,1.9,1.4,2.8c1.1,8.7-7.2,25.1-7.2,33.9"/>
</svg>
