<?xml version="1.0" encoding="utf-8"?>
<!-- Generator: Adobe Illustrator 24.0.0, SVG Export Plug-In . SVG Version: 6.00 Build 0)  -->
<svg version="1.1" id="Layer_1" xmlns:ev="http://www.w3.org/2001/xml-events"
	 xmlns="http://www.w3.org/2000/svg" xmlns:xlink="http://www.w3.org/1999/xlink" x="0px" y="0px" viewBox="0 0 57.3 75.8"
	 style="enable-background:new 0 0 57.3 75.8;" xml:space="preserve">
<style type="text/css">
	.st0{fill:none;stroke:#000000;stroke-width:0.9111;}
</style>
<path class="st0" d="M50.3,36.2l1.9-2.6c0,0,2.8-6,1.9-7.7c-1.3-2.3-6.9-1.8-9.1-1.2c-3.5,0.9-12.2,8.9-12.2,8.9"/>
<path class="st0" d="M18.3,72.3l-8.2-3.5c0,0,11.8-2.7,15-5.5c2.3-2,6.5-7.9,6.6-11.4c0.2-4.5-6.8-11.3-6.9-15.8
	c0-1.4,2.7-4.8,2.7-4.8l7.7,3.1"/>
<path class="st0" d="M3.6,11.3L4,19c0,0,3.3,0.2,4.4,0.2c1.4,0,4.2-0.6,5.6-0.4c1.9,0.3,5.7,1.6,7.3,2.9c0.4,0.3,1.2,1.9,1.2,1.9
	l3.5-4.2c0,0-1.4-7-2.3-9.1c-0.4-0.9-1.1-3.2-1.9-3.2c-1.4,0.1-2.4,4.2-2.4,5.8c-0.1,1.3,0.6,4.3,1.5,5.1c1.5,1.3,7.4,1.5,7.4,1.5
	s0.8-2.5,1.2-3.2c1.4-3.1,6.6-11.6,6.6-11.6l-3.4-1.2"/>
</svg>
