<?xml version="1.0" encoding="utf-8"?>
<!-- Generator: Adobe Illustrator 24.0.0, SVG Export Plug-In . SVG Version: 6.00 Build 0)  -->
<svg version="1.1" id="Layer_1" xmlns:ev="http://www.w3.org/2001/xml-events"
	 xmlns="http://www.w3.org/2000/svg" xmlns:xlink="http://www.w3.org/1999/xlink" x="0px" y="0px" viewBox="0 0 54.1 90.8"
	 style="enable-background:new 0 0 54.1 90.8;" xml:space="preserve">
<style type="text/css">
	.st0{fill:none;stroke:#000000;stroke-width:1.17;}
</style>
<path class="st0" d="M9.5,52.8c-0.7,1.1-1.9,5.2-2.9,4.6c-1.2-0.7,0.6-5.3,0.7-7.1c0.1-4.1-0.8-12.3-1-16.4
	c-0.1-2.2-1.6-8.3-0.1-8.9c0.7-0.3,1.4,2.7,2,3.3c0.9,0.8,3.2,1.1,4.2,1.6c2.4,1.2,6.7,6.4,9.2,5.9c2-0.4,4.5-5.3,5.7-7.5
	c0.5-0.9,1-3,1.5-3.8c0.6-0.9,2.5-1.9,3.1-2.8c0.9-1.4,2.6-4.6,2.8-6.4c0.2-1.8-0.2-6-1.3-7.1c-3.4-3.5-13.8-2.7-16.9,1.2
	c-1.5,2-2.1,8.3-2.1,11.2c0,4.1,1.6,12.2,2.8,16c2.6,8,12.1,20.9,14.1,29.2c0.9,3.5-0.2,11.3,0.6,14.8c0.3,1.3,1.1,5.2,2,4.6
	c1.1-0.7-1.7-4.5-1.9-6.2c-0.2-2.4,1.8-7.4,1-9.5c-1-2.4-5.6-5.6-7.3-4.2c-0.8,0.7-0.1,4-0.5,5.3c-0.3,1.2-1.1,4.6-2,4.4
	c-1.9-0.4-1.6-7.6-1.7-10.2c-0.2-5-0.8-16.1,1.6-19.8c2.3-3.5,9.9-3.7,13.3-4.3c3.2-0.6,11.1,2.8,13.1-0.7c0.2-0.4-0.1-1.5-0.3-1.9
	c-0.8-1.7-3.6-6.7-4.6-5.2"/>
</svg>
