<?xml version="1.0" encoding="utf-8"?>
<!-- Generator: Adobe Illustrator 24.0.0, SVG Export Plug-In . SVG Version: 6.00 Build 0)  -->
<svg version="1.1" id="Layer_1" xmlns="http://www.w3.org/2000/svg" xmlns:xlink="http://www.w3.org/1999/xlink" x="0px" y="0px"
	 viewBox="0 0 36 54.7" style="enable-background:new 0 0 36 54.7;" xml:space="preserve">
<style type="text/css">
	.st0{fill:none;stroke:#010101;stroke-width:1.0819;}
</style>
<path class="st0" d="M26,11.7c-0.6,1,3.9,2.1,4.5,2c1.7-0.2,3.1-5.6,2.5-7.5c-0.7-2.1-4.9-4.6-6.7-4c-0.7,0.2-1.6,1.9-1.5,2.6
	c0.2,2.7,7.3,4.4,7.3,7.1"/>
<path class="st0" d="M22.9,39.8c0-2.2,1.9-4.2,0.8-5.9c-1-1.5-1.9-0.4-3.3,0.4C16.2,36.6,5.2,46.6,5.2,46.6S8.2,41.8,8,40
	c-0.3-2.6-5.7-5.2-6-7.8c-0.2-2.1,1.8-6.5,3.4-7.6c4.2-3.1,15.6-3.3,19.8-0.3c1.6,1.1,3,5.6,3.4,7.8c0.3,1.5-0.5,4.4-0.4,5.9
	c0.3,3.2,4.9,15.3,1.9,14.5c-4.5-1.2,3.4-6.3,3.4-8.7"/>
</svg>
