<?xml version="1.0" encoding="utf-8"?>
<!-- Generator: Adobe Illustrator 24.0.0, SVG Export Plug-In . SVG Version: 6.00 Build 0)  -->
<svg version="1.1" id="Layer_1" xmlns:ev="http://www.w3.org/2001/xml-events"
	 xmlns="http://www.w3.org/2000/svg" xmlns:xlink="http://www.w3.org/1999/xlink" x="0px" y="0px" viewBox="0 0 58.5 140.4"
	 style="enable-background:new 0 0 58.5 140.4;" xml:space="preserve">
<style type="text/css">
	.st0{fill:none;stroke:#000000;}
</style>
<path class="st0" d="M34.4,3.1c-2.1,0.7-3.3,8.4-1.1,8.9c0.7,0.1,3.9,0.8,4.4,0.8c1.9,0.1,4.5,3.5,5.9,4.9c2.3,2.3,8.4,6.8,8.3,10
	c-0.1,1.8-3.9,3.7-5,5.1c-2,2.3-7.9,6.7-7.3,9.7c0.8,3.6,12.9,3,13.3,6.7c0.4,4-8.9,10.7-12.8,9.7c-2.4-0.6-1.5-8.3-3.9-9.1
	c-5.4-1.9-17,6.2-20.1,11c-1.1,1.7-0.7,6.1-0.7,8.1c0.1,4.4,4.4,13.7,2.2,17.5c-0.4,0.7-2.2,1.3-3,1.2c-1.5-0.1-3.5-3.3-4.9-3.2
	c-1.8,0.2-4.4,3.5-5.1,5.2c-0.8,2.2-0.5,7.4,0.6,9.6c0.5,1.1,2.5,3.1,3.7,3.4c1.8,0.4,5.7-1.1,6.8-2.4c1.5-1.8-0.3-8.1,1.7-9.4
	 M22.8,82.5c2.1-1.4,8.8,0.5,9.8,2.9c1.5,3.6-5.3,10.3-7.1,13.7c-0.9,1.7-2.3,5.5-3.6,6.9c-0.8,0.9-3.2,1.8-4,2.8
	c-0.9,1.2-1.3,4.2-2.2,5.5c-0.8,1.2-3.6,2.7-4.1,4c-0.6,1.5-0.1,4.9,0.3,6.5c0.8,3.4,5.7,12.5,5.7,12.5l2.6-3 M22,36L7.8,56.2"/>
</svg>
