<?xml version="1.0" encoding="utf-8"?>
<!-- Generator: Adobe Illustrator 24.0.0, SVG Export Plug-In . SVG Version: 6.00 Build 0)  -->
<svg version="1.1" id="Layer_1" xmlns:ev="http://www.w3.org/2001/xml-events"
	 xmlns="http://www.w3.org/2000/svg" xmlns:xlink="http://www.w3.org/1999/xlink" x="0px" y="0px" viewBox="0 0 71.1 119.8"
	 style="enable-background:new 0 0 71.1 119.8;" xml:space="preserve">
<style type="text/css">
	.st0{fill:none;stroke:#000000;}
</style>
<path class="st0" d="M36.9,97.5c-1.4-2-0.5-8.2,1.3-9.9c1.5-1.4,6.1-0.8,8.1-0.5c1.7,0.3,4.9,1.4,6.3,2.4c1.8,1.3,4.4,5.1,5.8,6.8
	c1.7,2.1,5,6.6,6.6,8.8 M7.8,18.2c-0.8-1.1-0.1-4.1,0.4-5.4c0.4-1,2.1-2.6,2.8-3.5c0.3-0.4,0.7-1.3,1.2-1.4C15.1,7,21.6,9.3,24,11.2
	c4.3,3.5,7.3,14.9,10.1,19.7c1.5,2.5,3.9,8.7,6.6,9.6c2.4,0.8,6.9-3.6,9.5-3.6c1.4,0,3.9,1.5,5.1,2.2c2.6,1.7,8.3,5.4,9.3,8.4
	c0.6,1.8,0.4,7-1.4,7.6C62,55.5,60,53,59.4,51.9c-1-1.9-0.7-6.5-1.3-8.6c-0.3-1-0.9-3.3-1.8-3.9c-0.8-0.6-3.1-0.6-4-0.3
	c-2.3,0.9-8.4,4.9-6.9,6.9 M40.8,19.4c1.2,1.6,6,2.4,6.9,4.2c0.8,1.6-0.9,5.3-0.8,7.1c0,1.8,0.7,5.3,1.2,7c0.6,2.5,3.7,7.3,3.3,9.9
	c-1.4,10.4-18.3,25.8-23.4,35c-4.1,7.4-14.1,30.8-14.1,30.8"/>
</svg>
