<?xml version="1.0" encoding="utf-8" ?>
<svg baseProfile="full" height="152.23225922288532" version="1.1" width="117.35827893301806" xmlns="http://www.w3.org/2000/svg" xmlns:ev="http://www.w3.org/2001/xml-events" xmlns:xlink="http://www.w3.org/1999/xlink"><defs /><rect fill="white" height="152.23225922288532" width="117.35827893301806" x="0" y="0" /><path d="M80.26237375978904,36.829369755146175 m0.0,0.0 m-32.569111845765995,1.2992719668471842 l5.09471751305242,2.3552851089761426 2.6648505142896344,-1.3320847371648599 l-5.117992466187227,10.419373427335431 -1.2251056658506658,7.517342046194704 l-2.8911063887398636,9.101431451265071 -1.0978806122691742,4.353540906429242 l-1.448063615264424,-5.988817738913084 8.082378377619396,-1.2899640733824485 l4.1453503485605525,-0.9720682037817302 4.469246062064104,-10.996094373835783 l-1.750068561159183,-7.843298962096059 -3.5015098339033055,-0.27673481780132153 l-9.583514926744762,-7.303985750961118 -5.618961576911412,-7.9047909746406715 l-1.2541869809510287,1.3907731246308668 -7.388555699262889,-4.358548154247741 m-6.27285840236524,27.62596814485511 l1.4875294694009267,5.147977077897243 4.8939939103944985,4.49818762790697 l5.0330054723498385,2.1434504123403375 0.008718806028818237,4.377624492177479 l4.97862701158283,-4.6016332841146745 1.8771512451667218,-0.4280051793360413 l-9.62864903802053,6.63600446529729 5.7065682757390945,15.233398704276512 l15.253890931625484,19.609438599793652 16.112746643372855,0.26085598465841464 l9.792850979002047,0.7490111623516419 2.907431676655466,3.77740461325509 l-7.284170724496121,4.312995494414773 0.13386959287684394,3.3041504810669 l16.084714681339285,3.758254350371537 -0.7330679231277631,5.827176075673092 l-4.277875267250237,-5.976995350142428 " fill="none" stroke="black" stroke-width="1" /></svg>