<?xml version="1.0" encoding="utf-8" ?>
<svg baseProfile="full" height="194.64827452252763" version="1.1" width="157.45130181221958" xmlns="http://www.w3.org/2000/svg" xmlns:ev="http://www.w3.org/2001/xml-events" xmlns:xlink="http://www.w3.org/1999/xlink"><defs /><rect fill="white" height="194.64827452252763" width="157.45130181221958" x="0" y="0" /><path d="M81.03339016642984,31.2335234446562 m0.0,0.0 m-0.6947596217237292,12.917927154114022 m-31.75880560741402,-8.574224973779158 l2.388043146936566,48.798075097753824 8.40476116189042,32.79420439882195 m-24.676372951180017,-36.74757781009396 m-2.1036500389169275,-9.797277300205325 l2.7646136514743946,-14.75754522624008 12.5743575111919,4.47414749534744 l-2.999499902284284,22.272215341264967 3.3813909340299695,1.0758085422701336 l3.910884482344763,8.487900310765566 3.8429690280528144,8.408112092940051 l-23.727001682346067,-4.059965795856324 -3.7218865656448212,-4.283127128778696 l-1.6118123655118999,-20.743072514691423 -2.006621347328892,-33.2625271463245 l16.48490379014289,-13.2365959819647 m14.327013044751073,43.23166157013487 l10.990484437124161,12.688090894029203 15.138634696912465,17.969787517580293 l23.640267671935113,11.090223879556095 10.01191693920226,-5.412488643322408 l-6.185998336168913,2.617501461997139 0.9961356672558341,11.464370797630458 l-7.006624334648022,12.844522151856301 -17.037930858696967,20.513873581031532 l-6.991599590783558,17.640731312034156 24.78327001188398,-5.252448700839835 l25.05417981631315,0.4981166622783306 3.246648856996122,-3.13846826152028 l-16.867484904624956,-4.006701298513377 -10.072827594383499,3.125511752505985 l11.84968082205087,-18.16801284092715 -18.904588708750403,-3.3035577292852016 l24.330842964722308,10.446617635109549 " fill="none" stroke="black" stroke-width="1" /></svg>