<?xml version="1.0" encoding="utf-8" ?>
<svg baseProfile="full" height="136.00541277103693" version="1.1" width="158.78152313113412" xmlns="http://www.w3.org/2000/svg" xmlns:ev="http://www.w3.org/2001/xml-events" xmlns:xlink="http://www.w3.org/1999/xlink"><defs /><rect fill="white" height="136.00541277103693" width="158.78152313113412" x="0" y="0" /><path d="M25,25 m0.0,0.0 m12.639217732501429,9.226554109409921 l4.66292826792343,6.545172813910052 4.855921126009733,-6.16169522137342 l8.32695902446578,-4.704005889331242 8.539481699639367,-1.1193489209209109 l-2.5071071909564533,-2.0516517498010742 1.257921359313821,1.411062706558774 l5.271468019744752,0.8316335958336984 2.705592348741308,9.160012865074398 l-0.6412257816057698,5.37560214131382 -5.396551809063925,-0.02043795417128876 l0.19684175804014797,-1.4541231513980701 14.078864212961978,-3.802053903048314 l-0.5380816372657584,-4.763695108688084 -5.805978911559395,24.177630645357095 l7.7927615516653965,14.172348545832735 18.66495305022814,4.940658065635541 l11.27332126018333,0.6453952610336455 6.253836973389385,-1.8535113043816842 l-2.224830860503612,-4.59876016383972 -9.223791925927882,22.78214294473369 l9.16724982841725,11.486156442695396 9.053540891818516,1.2447256683328667 l5.507554933295916,1.03705258969968 4.870677209677236,-1.5669650450648558 l-2.16191398554479,-1.1865688857733314 m-13.820881272887906,-19.02507478401195 l2.7662467271698348,-8.695451265272556 5.6774013255924665,-0.3592164610372038 l-4.284226926544952,10.556652092369388 0.029712338789065207,4.092114549517394 l0.6979497098771333,2.730221285116826 1.152152647480044,-8.609650415636652 l-2.447586270519937,-11.574415691095476 -2.368790879912882,-6.9852543305670745 l2.0907906125504008,-0.5938210515278447 8.069329118790051,-2.126702292301748 l4.5532925156479065,-7.047913657767044 -6.892329656068632,25.71062364389289 l0.6937209742137194,5.502352525652106 2.029061813691564,4.408519995923251 l3.223930249755168,18.269097530153324 " fill="none" stroke="black" stroke-width="1" /></svg>