<?xml version="1.0" encoding="utf-8" ?>
<svg baseProfile="full" height="194.1961871515698" version="1.1" width="149.4662365635238" xmlns="http://www.w3.org/2000/svg" xmlns:ev="http://www.w3.org/2001/xml-events" xmlns:xlink="http://www.w3.org/1999/xlink"><defs /><rect fill="white" height="194.1961871515698" width="149.4662365635238" x="0" y="0" /><path d="M25,167.04666549981346 m0.0,0.0 m9.96699030160083,2.149521651756336 m-8.990961374427208,-35.16441049126163 l33.67479461840111,-64.44445491301694 0.8695157578608304,-19.589568462155036 l4.3218550000806415,0.7992532756504767 1.3783602162933541,7.705394050765705 l-4.2600502160802005,3.8668476636065106 1.3160292922608041,42.56081952655788 l-7.313785759989504,6.980903693212875 -3.9228422468431488,8.335325014040174 m-13.507541083674589,-24.240966744899882 l10.025293692907084,-6.035402288359772 4.346285933673305,-5.15809274832004 l5.415835071867435,-8.483451447026635 -0.24221882027959385,-2.710927121868217 l3.819541171185644,-2.830644236009144 7.704990824228539,-1.4304770198472465 l13.444211404866348,8.389423134151999 -0.05164769985883666,0.7470955833232962 l3.3078625065287226,-3.5912648215562917 7.829510077320807,-1.775369486776928 l9.890890682224224,-17.010500690605962 20.443317213377217,4.9505730560602075 l-5.663707375911176,5.529795465813178 -9.67823177204124,2.8281692199714024 l-11.029446524117326,-0.8648867766121068 -13.18518600824531,-6.469115571012215 l-7.584601604683511,-3.874739111114263 -12.06310092066416,-3.5787997380418117 l2.5189820392244644,-3.6995906293802343 3.2739231147033476,-12.697770987291017 l5.684123522514719,-10.656362789043117 8.512323942210001,-2.5829907605249507 l1.594380519985391,1.4807131740728092 -4.090248645018695,5.482810449132855 l-5.286891475953075,5.163168709859215 -2.6331389000172787,6.911404448634012 l8.006369817654008,5.321951428060348 " fill="none" stroke="black" stroke-width="1" /></svg>