<?xml version="1.0" encoding="utf-8" ?>
<svg baseProfile="full" height="148.5761882978046" version="1.1" width="145.90077255587403" xmlns="http://www.w3.org/2000/svg" xmlns:ev="http://www.w3.org/2001/xml-events" xmlns:xlink="http://www.w3.org/1999/xlink"><defs /><rect fill="white" height="148.5761882978046" width="145.90077255587403" x="0" y="0" /><path d="M115.81626596294872,111.75581572554582 m0.0,0.0 m5.084506592925311,-49.10175612407979 l-7.92974389896995,1.9357447023615686 -7.845373458375968,6.278009768557666 m-26.981600335935205,-41.02865841109173 l5.556778048441475,-4.839155661293531 4.656786966503958,5.775752347838394 l-3.787005642936544,78.29721135925031 m-41.05176745805755,13.725628799624989 l-9.402145024181763,-12.380664936842527 -1.596561898111732,-4.989459578620332 l9.35628529224748,-5.73236559840624 4.212734090469897,-17.98532504400719 l-5.057400880551329,1.409164817083028 -5.308021710615998,7.083332258728783 l-0.1788074310807214,5.489189346128367 -4.162167018820799,0.3804691762837617 l-3.919449722577332,-4.924116527232365 0.9841699846556223,-7.247283316150264 l-2.1215313762606027,-7.797362761514998 -1.32595108171697,-6.008176779515262 l3.4013067978119857,-3.148418900410751 11.698746700440926,-4.116091019296475 l-5.059428507051457,1.8734038926471024 4.109320750615295,6.486236056920918 l1.2341280222261855,4.821850655225371 -1.6019610994719027,6.647813257828372 l-0.22260082976449716,4.70116434195653 8.587460977037203,-0.3270147121399683 l-3.5867725899591,-7.454242645186012 m-10.729568435120814,38.29908401929406 l5.552946614763186,3.904699385017951 9.523312904450387,-2.2209256365605112 l5.745273486735468,4.012636039859574 m16.206235315677915,-18.39835084440391 l-8.988566844211524,0.26490871611505734 " fill="none" stroke="black" stroke-width="1" /></svg>