<?xml version="1.0" encoding="utf-8" ?>
<svg baseProfile="full" height="111.15228986901292" version="1.1" width="118.41091453505912" xmlns="http://www.w3.org/2000/svg" xmlns:ev="http://www.w3.org/2001/xml-events" xmlns:xlink="http://www.w3.org/1999/xlink"><defs /><rect fill="white" height="111.15228986901292" width="118.41091453505912" x="0" y="0" /><path d="M93.41091453505912,25 m0.0,0.0 m-39.22353481938613,7.936420894443792 l-7.7080120459414445,0.4769568777689237 3.737143637455187,11.873808292929894 l6.1624488316270725,8.837075861641447 2.0119923248871285,-2.4118335402395106 l-6.185371178603348,-1.9217612463627876 -8.621672963754017,-10.917015886482636 l-15.761259523278946,-10.75828664664994 -0.34517503773610736,-2.280220237228459 l-2.477473760328522,3.055116332666048 5.965569343887247,5.3205590287188125 l7.718202190215036,-2.3994443165412416 4.843820848525901,-1.1168382204728888 l1.7159179651503575,8.088290523715784 3.2783763737566427,11.378271454765438 l2.0647596260050958,3.925982884279252 9.783119555208904,11.688611103051961 l-2.6417606493520553,12.729446079541532 -7.019740190508458,-4.052016060093724 l-1.0945506093119288,-3.372007745179959 3.222652917917182,-0.68164078688747 l3.084170307379812,-4.049741552981353 -0.9289237606055917,-8.067196650994775 l-5.789103017695638,-4.353554726025967 m5.691546523022231,-9.671473171557299 l4.099395112085677,0.8343769322174976 6.35765328292575,6.35182406482612 l-0.44558883932248705,5.511937688196351 2.1979800695408187,4.974852897507052 l7.370276954426716,3.352960781117792 10.402805497235784,-1.6488230791291947 l-0.6064999655528579,-4.717181701344005 m-2.264692133924686,20.01290415685036 l1.5546740074562841,7.221929582946068 -0.8779138050080312,-14.24114610352584 " fill="none" stroke="black" stroke-width="1" /></svg>