<?xml version="1.0" encoding="utf-8" ?>
<svg baseProfile="full" height="263.7719558615839" version="1.1" width="234.84278753048574" xmlns="http://www.w3.org/2000/svg" xmlns:ev="http://www.w3.org/2001/xml-events" xmlns:xlink="http://www.w3.org/1999/xlink"><defs /><rect fill="white" height="263.7719558615839" width="234.84278753048574" x="0" y="0" /><path d="M90.13540799090497,220.6174541269985 m0.0,0.0 m8.096266995141907,-62.756696632275144 l24.01444155315359,15.289388757660577 -10.859448521753801,10.722672762225978 l-27.350425672904958,10.984239818866936 -40.10069414060849,9.936439161466597 l-11.797304039727125,20.91695199753384 -6.963470050106788,-7.780419367759124 l-0.17477411409929966,13.854769363112114 31.069333399825688,6.987155873753626 l43.528524745774234,-25.324513669570287 23.225978914444873,-36.944542019578314 l15.829424491625279,-36.28919844276716 12.739197038497569,-26.11597965206159 l13.76750792767827,-33.83742731552416 13.23880508424265,-16.81446198873642 l13.092522181470258,-8.071099786427187 6.376287564214983,1.0565866521545024 l2.304341890011018,-1.686276922821706 -2.5198022451864834,-0.6572964463751749 l-8.508398629642429,0.0801366130200936 -6.635687927038801,1.1131572731501302 l-6.199015580626931,2.1336687575893145 -3.779742837048631,5.164549581666207 l0.35597073586490763,6.564638367041511 3.272919051261247,2.202608394990112 m6.592220180721311,-46.346505257333725 l-1.6157993741752115,9.64471388302433 -0.31367326946464535,6.751783112281142 l2.8302474769822683,7.913996915079835 5.251273183958943,8.732106147665961 l7.179348545187556,7.390056113541253 7.162013221463919,5.723476200020016 l5.014622179060982,7.057683491978006 1.5843695813829644,8.629013272636138 l-1.7149145720470071,6.054657870699347 -4.018956985974791,5.107508834121806 l-6.011647977992836,-0.5061484852874221 -11.148698302962151,-0.987056054709062 " fill="none" stroke="black" stroke-width="1" /></svg>