<?xml version="1.0" encoding="utf-8" ?>
<svg baseProfile="full" height="254.20226385032694" version="1.1" width="215.87478777687235" xmlns="http://www.w3.org/2000/svg" xmlns:ev="http://www.w3.org/2001/xml-events" xmlns:xlink="http://www.w3.org/1999/xlink"><defs /><rect fill="white" height="254.20226385032694" width="215.87478777687235" x="0" y="0" /><path d="M47.31770847411844,193.6990577002171 m0.0,0.0 m15.9612097178424,35.50320615010984 l-38.27891819196084,-105.17479322226728 9.803664797537612,-44.45298461476259 l46.07825593695369,-36.13039841158025 8.891889235069081,-6.245786485038087 l4.371480920789544,1.6311225563207832 7.907759015590701,3.5739978412909466 l5.261966108694631,0.22220205003518123 13.19546160128913,1.8778521722287649 l10.837553901642009,4.514933026178649 11.16966280443613,4.835738812615727 l5.345913025537313,7.155330132667277 -8.88895505045325,9.350135497907145 l3.4617718500241743,0.6317229804181684 0.25754099968936905,2.2900419412754185 l1.2333749507579768,0.11964112498402402 4.3163672844348,-1.2341158559603036 l10.81786626106319,-0.825803182738323 m-2.72175099326186,-13.6666002755056 l-4.632911688108574,-8.173654627942422 2.754910975405425,-6.982715110912239 l15.392709779857764,-7.514661373347189 -0.9174835336409115,-7.1674736074829175 l-16.400912085595987,-2.835995218711825 -13.060076168258243,9.98116682802544 l7.3623590664573335,14.950016714618384 -5.064729624863311,6.034009071561138 l-2.851049296188808,6.489604663042674 2.6122187894421542,16.772723670483693 l-0.6930128225395347,-14.18839057110516 4.755039455388959,-3.5115494631837687 l0.36946069981694696,-4.942220157908419 9.928146901024212,-4.715740328799769 l18.862774379749343,-1.1901726622119162 7.633554194741048,-3.3197476353302973 l8.48396610439033,-3.246819550594536 -11.814228121540976,-3.729072161837087 l-33.01260169414814,10.049438423583245 " fill="none" stroke="black" stroke-width="1" /></svg>