<?xml version="1.0" encoding="utf-8" ?>
<svg baseProfile="full" height="103.25198904614831" version="1.1" width="102.99483786041786" xmlns="http://www.w3.org/2000/svg" xmlns:ev="http://www.w3.org/2001/xml-events" xmlns:xlink="http://www.w3.org/1999/xlink"><defs /><rect fill="white" height="103.25198904614831" width="102.99483786041786" x="0" y="0" /><path d="M58.53543882389697,25 m0.0,0.0 m-14.923916206674356,53.2519890461483 l-2.9100326257829416,-3.3922601571676902 -0.4703373599347328,0.027513579272755717 l-2.080863183810827,-1.5357642999339194 4.4019029982399935,0.5123996831139257 l13.479363006264338,-6.1332023995551115 2.6830045718324835,-5.2642242969294415 l1.3168617050191358,-1.4808970947300886 -2.245171226277234,-0.04204858860172853 l-10.975832799630187,0.50619182370086 -11.925566324370052,0.3038397035137171 l-6.601353408996213,1.5071848136016348 -3.2834979697763735,3.842635320434519 l3.291250142094838,2.1136584026475247 11.478366172111558,-1.1001133723067074 l14.440819498285077,-4.09082095805463 12.13744972381304,-3.618460238544744 l8.930157843473268,2.9625762224992513 2.716794480640079,4.190441689493684 l-3.2793450696922486,4.454448439993666 -11.961147740412532,2.709387098211008 l-13.599942264687378,-3.665111791981471 -8.860062223080721,-5.803423310410252 l-7.253350724569968,-2.450664743136266 -5.458792016694912,-0.2580711319653012 l-2.263656558477936,-0.6314425762533238 4.307988276325358,-4.072698284055017 l11.347928228587252,-4.341092512379097 23.029935334175903,-4.862933008681325 l3.9971945778087994,-4.098165177955495 4.961166343298282,-1.6086272945953701 l-4.229040985040935,-4.7681338112287275 -7.62328526522354,-5.430144558913785 l-13.969800629084707,-2.873285827369579 -10.91906341720608,-3.5280842236468066 " fill="none" stroke="black" stroke-width="1" /></svg>