<?xml version="1.0" encoding="utf-8" ?>
<svg baseProfile="full" height="147.6946602996366" version="1.1" width="173.96457719625604" xmlns="http://www.w3.org/2000/svg" xmlns:ev="http://www.w3.org/2001/xml-events" xmlns:xlink="http://www.w3.org/1999/xlink"><defs /><rect fill="white" height="147.6946602996366" width="173.96457719625604" x="0" y="0" /><path d="M29.516208272261764,88.96478538372239 m0.0,0.0 m9.427714238183539,9.435511992061757 l-13.9439225104453,0.7142047069920112 10.237132599532767,-25.689318752394506 l6.916251745775913,0.4489196000074566 8.705308393626632,3.1149782052519557 l5.532575082966794,2.8519080529594376 -0.5811264503748548,-2.736025466260031 l-10.803557136476321,-19.838973794801984 -1.28847073217278,-2.678037925316577 l-0.26724968706709207,-2.0180315829520987 -3.050143535699205,-2.8796421670429577 l10.224021927173839,-9.927891132373189 1.216111703222138,-2.033239412496938 l-5.476119503302261,-2.5594436339355386 0.40284939169915657,-10.169704073421181 l-4.360791271607365,0.09611509636506366 -7.1824749895460736,7.130085280324212 l8.321446967908246,18.41539507465187 8.758431606939187,9.596915457793264 l6.881288364684865,2.9873932786227373 9.269571694394891,-5.1456950549605125 l11.400044498074513,-2.342361711298995 4.582947623624987,-1.5130130871496628 l16.885791840826307,0.8815113992661694 6.487763630968297,8.455752717659436 l1.8168140930175147,7.751337946501154 7.6796598150966995,7.43756542154318 l-1.1055992284391891,5.968488783216663 0.03384625682365472,3.1141561874910537 l4.807619712237203,2.945469814349982 8.264863156276826,2.655654832469328 l6.512379207901266,3.5027181556230826 4.038264776307909,8.610761980153155 m-5.479493784189594,17.146408727015434 l14.584619426051168,-11.302265317078595 " fill="none" stroke="black" stroke-width="1" /></svg>