<?xml version="1.0" encoding="utf-8" ?>
<svg baseProfile="full" height="101.39644953410374" version="1.1" width="98.24057741302207" xmlns="http://www.w3.org/2000/svg" xmlns:ev="http://www.w3.org/2001/xml-events" xmlns:xlink="http://www.w3.org/1999/xlink"><defs /><rect fill="white" height="101.39644953410374" width="98.24057741302207" x="0" y="0" /><path d="M27.651328959457963,36.18527688811727 m0.0,0.0 m24.23267352700734,-2.4370486781663203 l-0.06738579518555554,7.913218544135527 4.27351278415207,8.63610218879371 l4.853321376433564,4.710300545186983 -7.899627885573448,3.9455971392562716 l-4.563591444822592,-8.309925550879713 -1.6280079328750479,-3.8374852466158247 l7.380645683518139,0.49476064177241597 4.856861891201848,-0.15927998210717373 l-1.733773015876301,4.834467755622331 4.076389969162915,5.361599079250426 l1.30352052461103,1.9505836582615146 -0.24466136674698277,5.960478932177389 l0.2881171457847169,8.641050575890201 10.269293470327288,2.5067530434087293 l0.19195952244513292,-4.963263153558384 m-30.29301136927744,-32.096080082628674 l-7.689494087211461,-2.6080038223110935 2.695120361125512,-1.0876467884469312 l11.369051604443015,-7.343664766736071 2.894059025321308,4.727770069453526 l-1.2260449168106162,7.517718653726578 2.8472640457894873,7.183998961611424 l1.8790393083766945,3.922736699509389 3.153473158810993,5.920841654010266 l9.982573890499298,0.47837297927395256 -5.576523524537579,-3.209425441841412 m-11.450593532612976,-21.317759232080274 l-2.0836889319438643,-3.5408874933680665 -4.692182373868117,1.672385860697604 l-6.289759327423887,-0.5814937041391507 -3.3344460344209934,-3.4787338302452864 l-6.296066787112236,-2.593316097031136 -4.129347922169209,5.482317239823404 l2.3270445736148204,0.23469603453850435 " fill="none" stroke="black" stroke-width="1" /></svg>