<?xml version="1.0" encoding="utf-8" ?>
<svg baseProfile="full" height="186.61257708184442" version="1.1" width="112.536306353889" xmlns="http://www.w3.org/2000/svg" xmlns:ev="http://www.w3.org/2001/xml-events" xmlns:xlink="http://www.w3.org/1999/xlink"><defs /><rect fill="white" height="186.61257708184442" width="112.536306353889" x="0" y="0" /><path d="M25,161.61257708184442 m0.0,0.0 m20.51969875182009,-20.469674144921516 m1.1785891866717797,4.659521701183482 m20.335009591213716,-41.182113274213975 l-4.657231106707292,-10.6830447143162 2.7656735051751604,-7.683464698167276 l7.660129747050331,3.8124062806942747 3.301435726434978,7.078388847433872 l-4.4317776840680105,5.643083696421258 1.545172370966046,5.143731607755872 l12.845138463920364,2.5148275103480264 1.4744678014118417,-8.331313392816297 l-10.92954985767814,-3.581899788135644 m-31.181923305184984,2.5478431407452473 l-2.982102590839577,-5.670511515245312 6.564394296454375,-7.961688840753521 l8.024432271381524,-0.9098002667979543 5.413012515736889,4.263678031576662 l2.378610495575846,4.270593923111661 1.2022803705754863,4.322398482788556 l-1.9444172304951652,6.950255327773005 7.600099278940429,2.9045263170300717 l2.9679347504093423,-3.834992823352733 -10.223422643502026,-5.931038370273872 m-18.687819702014792,-2.4757204394363863 l-2.7657818228153377,-7.351705647825364 2.5240697611610297,-7.08075016390283 l-0.5981347116409439,-3.3954710560645616 7.2039342218483755,1.1030488983548634 l5.717784936024907,4.0385938475578484 0.10582725880416403,6.019565471510872 l1.0875451777056269,1.376892168503873 8.998072878726001,-34.07744206063299 l-12.32888673419577,3.334656480470021 -11.7816853261998,-4.223171507650792 l-4.445143413397439,-1.7077926292787555 1.310326352318325,2.845726903627591 l12.529351027272,-3.2511056246840484 5.155898025570678,3.183976921887464 l4.828503502518927,-3.995532366093223 -14.061718902614299,-21.2282524610581 l8.473323069587675,-3.754730903857054 4.070798693758355,-3.845075951140532 " fill="none" stroke="black" stroke-width="1" /></svg>