<?xml version="1.0" encoding="utf-8" ?>
<svg baseProfile="full" height="122.94560607521677" version="1.1" width="177.23857345222922" xmlns="http://www.w3.org/2000/svg" xmlns:ev="http://www.w3.org/2001/xml-events" xmlns:xlink="http://www.w3.org/1999/xlink"><defs /><rect fill="white" height="122.94560607521677" width="177.23857345222922" x="0" y="0" /><path d="M117.45671000751452,38.18930859985535 m0.0,0.0 m9.824601234255436,1.6723769751352102 l24.957262210459263,28.580284966264458 -10.288520263777988,-3.4657994295028383 l1.2130788551010503,11.277469337858808 -1.4735183082191732,10.247678314224139 l6.167978920276321,10.789859091119773 m-27.495623295195468,0.6544282202618668 l-4.678953615531327,-8.856008020121205 -8.389701303970813,-8.926738166497739 l-3.847458769613641,-3.987389305195932 -6.153974007893184,-4.113029595758115 l2.4192434053675003,-4.0300460606724515 -0.005267370637452307,-7.307225806838811 l-3.532084062665815,-8.0894935489798 2.203050081923709,-7.872222561372307 l0.26538701074303617,-5.645694390395706 -0.9521141555008047,-9.455323738734993 l-7.259618501378649,-4.662434880649709 -0.9924863645075099,4.6729289557907405 l5.551458116441954,6.328915231397816 12.994927566310519,3.308414330044546 l14.649722098323714,0.8902232410819688 -5.059743964031513,6.268419840785505 l-15.705993021849629,6.723691401908318 -11.25193229917722,10.649243490747349 l-5.589911278698955,5.119885571076678 -14.381371046547233,11.478886748715116 l-13.362006882605186,-8.101857420541549 -5.506597248586382,-1.8220492194725795 l-8.832429829592732,-4.253056454593388 -6.02913366719317,-7.134850852465848 l0.36419886531821166,-7.806010396645494 -4.9841129501411015,-15.32816217444536 l-7.295066164720296,-5.8970776076981135 1.848011457422094,-2.444453815464341 " fill="none" stroke="black" stroke-width="1" /></svg>