<?xml version="1.0" encoding="utf-8" ?>
<svg baseProfile="full" height="128.98825580630046" version="1.1" width="129.16425865665303" xmlns="http://www.w3.org/2000/svg" xmlns:ev="http://www.w3.org/2001/xml-events" xmlns:xlink="http://www.w3.org/1999/xlink"><defs /><rect fill="white" height="128.98825580630046" width="129.16425865665303" x="0" y="0" /><path d="M25,55.819144680815214 m0.0,0.0 m31.161188245143812,7.83564216634305 l4.115101316906502,2.072533513641802 -0.7096488146158325,2.492766266358805 l-3.491650088624179,4.460334742487519 4.631353939227101,-10.998855772769014 l2.7478758088372324,-13.298127561076063 5.996266234107999,-4.117598016823803 l2.329680902340938,1.0318183711352682 0.9577509264458717,3.101829821673203 l-8.776724792908903,10.264029334839314 -2.4808114794831613,8.121059014491433 l0.30690704495949517,2.2025449348740898 0.7567550144311003,-5.654986876599716 l0.028575416045539676,-2.2251781508810127 m-28.78756001416964,-15.89692803096478 l8.618191240712907,-7.7780691443621635 4.64186289664169,1.8845661149363402 l12.864513160608821,1.5375496642195914 9.43510906290957,13.549635333538582 l-0.10717880913066982,9.913294310899735 1.6452869244488257,5.242609940132344 l-0.19918591022536444,5.28316953428306 -1.3286819097637736,22.06358994922491 l7.667819723605396,7.081881665882751 13.938097458526459,-0.9750169091279556 l-0.7992489512188958,-4.9847962319831485 m-3.0566684264815813,-10.780970226135308 l-1.2318444270222917,-4.105654594982244 m-35.23884184769006,-56.04492003214622 l3.1422353514599743,-2.096897811925574 0.7442393811611262,4.2831195685298455 l0.7743446524632402,5.024498904714526 -1.4908427864157665,7.385484926903246 l8.945212354856695,4.099469625951693 12.412387828201753,-2.5395773824381567 l-1.8429776775744577,-4.586585704588091 m-3.8775344304054715,13.788661490195361 l-1.0431042297928093,2.61645111029008 m34.039211510309116,5.171138459072042 l0.5631947945197303,3.2816170463959797 1.1636020633049722,3.7795544453368657 l-2.2932133775058765,-1.95334914033933 " fill="none" stroke="black" stroke-width="1" /></svg>