<?xml version="1.0" encoding="utf-8" ?>
<svg baseProfile="full" height="192.45782490535086" version="1.1" width="154.28899851824855" xmlns="http://www.w3.org/2000/svg" xmlns:ev="http://www.w3.org/2001/xml-events" xmlns:xlink="http://www.w3.org/1999/xlink"><defs /><rect fill="white" height="192.45782490535086" width="154.28899851824855" x="0" y="0" /><path d="M129.28899851824855,69.28145181571918 m0.0,0.0 m-0.18011924485440756,19.140799724865538 l-18.175405874908552,-13.79804410777876 -52.12066578207514,-49.62420743280596 m-12.685829122376594,50.84049109628426 m-16.13943287117091,46.07396934272636 l5.015498855186055,42.38817064184804 -6.522313218423799,3.155193824492192 l0.8158852172279601,-35.42700041127386 19.54959512369019,-6.606817251549229 l-2.0895644572317726,-19.28270777805418 0.9358472001701623,-10.646818795259708 l-4.971358823501397,-11.3925674447139 -0.3441610263141795,-14.792715496356172 l1.7782495178033613,-17.126928165455734 4.054043166201488,-5.315114600181211 l0.8075173672214231,-1.1628423881338616 2.62428541710666,3.524738347812349 l2.1327769231422953,11.697906510989982 -2.8011578189368667,24.841161155349127 l6.054977940852653,24.193965411221352 5.88636816263932,16.385070262811862 l2.828400893908707,15.60132648898055 m-38.10762379404073,-110.09859650460835 l-1.9892308919261308,11.376416466989134 -0.6455813776383471,8.262463790874351 l3.6097306984882493,7.0169803298861995 11.070326180075,2.579586374293486 l11.896859322797257,-1.6397207166107735 8.073993315156041,-0.9006930114156684 l10.854289300809855,-2.948270864320349 5.229537922771709,-1.2012206724412133 l6.181156714948545,1.0583155137908464 " fill="none" stroke="black" stroke-width="1" /></svg>