<?xml version="1.0" encoding="utf-8" ?>
<svg baseProfile="full" height="128.63142561686533" version="1.1" width="168.32390162583252" xmlns="http://www.w3.org/2000/svg" xmlns:ev="http://www.w3.org/2001/xml-events" xmlns:xlink="http://www.w3.org/1999/xlink"><defs /><rect fill="white" height="128.63142561686533" width="168.32390162583252" x="0" y="0" /><path d="M25,59.1138820769145 m0.0,0.0 m44.92449263275351,-34.1138820769145 l-0.06479486941219602,3.610383237844184 1.7597657773882325,12.555545638747454 l-1.9749820303218584,-2.158046754120478 6.464515985549862,6.428329623328042 l10.229958584956195,1.3806086663473351 3.2088307639838103,0.16143384466744884 l0.7606523919717296,1.4015470788848305 5.36965479044327,0.4575015728224533 l4.261257170375273,-3.5154412673008015 6.847635493931246,-2.012381710660889 l-5.731413818056189,-2.951900213349241 -7.471759432226142,9.369383695705604 l4.741494558584364,6.384163636815195 14.89963049830326,4.162301133121118 l3.320852989094563,0.01257732655705987 -6.349948216103221,-3.0639364683904207 l-2.788125038895471,-2.019264272939979 8.072175894498614,-2.4474109390291767 l6.449590133493898,1.2657277087659242 -0.022904664344079832,-4.980637615215345 l5.259665505583679,-0.28330339984577374 13.785272386205184,10.678434924608405 l2.372384138074999,8.855805608108481 -13.128944606672182,3.3900914226900563 l-3.7292074131220465,5.914993340604164 -3.7474186381154815,2.7508158723313785 l-0.2949925813346954,-0.5616684024310966 -6.338546780801065,15.384848507789965 l3.5296606764476746,5.484921432315759 0.648662958587656,2.3628405294023147 l7.4680061246582845,0.6131618586913392 -31.55820025825794,-9.691124184613633 l4.165384526553903,-6.923713906302476 -4.999556638539137,2.3901535336329687 " fill="none" stroke="black" stroke-width="1" /></svg>