<?xml version="1.0" encoding="utf-8"?>
<!-- Generator: Adobe Illustrator 24.0.0, SVG Export Plug-In . SVG Version: 6.00 Build 0)  -->
<svg version="1.1" id="Layer_1" xmlns:ev="http://www.w3.org/2001/xml-events"
	 xmlns="http://www.w3.org/2000/svg" xmlns:xlink="http://www.w3.org/1999/xlink" x="0px" y="0px" viewBox="0 0 202.1 254.6"
	 style="enable-background:new 0 0 202.1 254.6;" xml:space="preserve">
<style type="text/css">
	.st0{fill:none;stroke:#000000;stroke-width:3.1112;}
</style>
<path class="st0" d="M189.5,13.6c1,2.7-7.6,4.3-10,5.9c-6.4,4.1-18.2,13.9-25.2,17c-13.7,6.2-44,10.4-58.3,14.9
	c-16.1,5.1-46.4,23.8-63.3,24c-4.1,0.1-15.3-1.3-15.3-5.3 M145.1,128.2c-4.8,5.1-20-6.8-26.9-8.2c-5.5-1-16.8-0.9-22.3-1.8
	c-12.6-2.1-41.3-2.6-49.4-12.4c-6.8-8.2-2.3-31.9-2.3-42.5 M104.3,57.6c1.9-0.9,5.5-3.3,7.2-4.6c4-3,16-8.2,15.2-13.2
	c-1.1-6.9-18.9-12.6-25.7-11.2c-3.8,0.8-10.7,7.5-10.7,11.4C90.5,54.5,123,69.4,131,81.5c7,10.5,19.5,34.1,19.3,46.7
	c-0.3,18.1-33.1,47.9-30,65.7c2.9,16.2,46.3,46.9,46.3,46.9"/>
</svg>
