<?xml version="1.0" encoding="utf-8" ?>
<svg baseProfile="full" height="296.4646180130872" version="1.1" width="109.27615597942783" xmlns="http://www.w3.org/2000/svg" xmlns:ev="http://www.w3.org/2001/xml-events" xmlns:xlink="http://www.w3.org/1999/xlink"><defs /><rect fill="white" height="296.4646180130872" width="109.27615597942783" x="0" y="0" /><path d="M33.5881010195226,271.4646180130872 m0.0,0.0 m10.752056462228579,-9.556713290071427 l-0.6959596533044721,1.5604028249150304 -10.626572601166849,-89.57691933362246 l41.213281398252946,-39.08984515039629 7.075201002488294,-96.7059555990904 l-9.939078710935876,-13.09558746482166 4.085948758380045,1.6000546838181906 l0.9304480867118151,4.009450757141416 -2.119692776449674,5.449480918645357 m8.771512442642646,10.355337315929734 l1.2409105510577891,6.188983646277446 -0.7180215411458319,4.29251659596658 l-5.909995807244803,0.9798604692076113 -5.446434853068484,6.6133306674744405 l-3.843493311154326,-0.8498446864696962 m3.1433344393168685,-15.700972796266248 l-1.8160202590827637,-8.662233575977051 -8.722779071630132,-5.562302415754814 l-1.288291551316927,2.913843126210843 -1.5606672827765211,7.583706228897042 l-4.376535973374731,5.305657371073713 -5.898119117971181,1.7669495727030693 l-8.917371511208131,3.774686742857767 -7.238442064039618,10.94358375209897 l-6.683318074731255,6.5536508037116254 2.5048021208655604,7.347450714957488 l4.216609391248083,-3.6949105592241116 8.365328867058576,-2.866893401349817 l5.313771933346808,-4.338988362822457 11.461247911658067,-12.405423794318224 l10.934236468210088,-4.287275367762791 2.249168743427863,-2.137284767187945 l2.075194137921941,-13.129825233270164 -5.081330664549914,-6.540418852257422 l-2.4747144374198013,-0.6398664028570367 -3.738222704952084,1.2579297039450812 l-10.718317161943256,4.562434089176604 -3.614980799083262,8.894913802709844 " fill="none" stroke="black" stroke-width="1" /></svg>