<?xml version="1.0" encoding="utf-8" ?>
<svg baseProfile="full" height="169.59312095464225" version="1.1" width="131.56753888319065" xmlns="http://www.w3.org/2000/svg" xmlns:ev="http://www.w3.org/2001/xml-events" xmlns:xlink="http://www.w3.org/1999/xlink"><defs /><rect fill="white" height="169.59312095464225" width="131.56753888319065" x="0" y="0" /><path d="M92.19486593979833,25 m0.0,0.0 m-31.27043338472088,21.27178908696728 l-3.9755808411873126,-2.8893802357044462 11.105521622267286,-6.130877586072942 l-0.2884035789601616,-7.147816450613536 -5.820863180951178,4.261330623126145 l2.9790422390166937,8.354212769177916 3.664451250279801,12.819482013236954 l9.804176453708264,5.756003368815323 3.897643535577287,0.11967862999024553 m2.658485641856081,49.267998193757236 l0.11046150230531154,-1.3551935775075847 4.7363437784009,-7.268664123006292 l-1.52072925254655,16.453150709704623 0.6364403120128767,4.858191715546897 l0.6861041828843306,5.1361144580853555 -0.5093617129111,8.247265677927219 l6.452202538221111,6.86113334752582 10.950560991814102,0.9787023336859885 l0.07661084632547491,-4.9523842211523865 m-81.56753888319066,-76.6363503052629 l0.883381898728744,-0.8247312220838162 3.9779076689973074,-3.8170600115883957 l7.536863590708679,-1.4141259529561594 1.7610405465212646,2.5507348885318812 l-0.6674685200565322,6.846485762094197 0.9079315177802728,6.478206060203842 l6.288898542872026,6.213240585842265 12.205104995927464,-0.21130331825056556 l0.4896270739653183,-5.326878477318222 m-6.686566290892599,-21.830936144997555 l-0.5679746948894656,2.0793277970166466 9.409756654407342,-3.7142543229500324 l-1.708675434689552,-3.9804645604872535 -2.4011405173016622,-2.5613567916653395 l14.098114546296822,-4.666841884174053 " fill="none" stroke="black" stroke-width="1" /></svg>