<?xml version="1.0" encoding="utf-8" ?>
<svg baseProfile="full" height="235.47382206723313" version="1.1" width="161.94183152182922" xmlns="http://www.w3.org/2000/svg" xmlns:ev="http://www.w3.org/2001/xml-events" xmlns:xlink="http://www.w3.org/1999/xlink"><defs /><rect fill="white" height="235.47382206723313" width="161.94183152182922" x="0" y="0" /><path d="M58.49859289448789,117.64875487522141 m0.0,0.0 m-33.49859289448789,30.68005576222689 l11.811148573387312,38.72332934070525 -10.863566751072302,-56.14938625622218 l4.5164768390590515,-6.453720281893823 2.686505108927536,-1.2665448722570805 l5.663119776659139,-3.037655666927595 6.11106422482303,9.743624419478751 m1.7824509590232152,48.694763066045084 l3.2461566831210202,-2.879764960771594 6.059615034311992,-2.0648346401686593 l7.16200343020405,-5.259038867855493 11.13382977008718,0.7453852543053119 l5.545072391955352,4.035774465491054 3.7806656203690547,6.518069489351462 l0.9857973798347738,8.915664461474988 7.688100076519795,21.87934647902937 l1.9600525804019286,-4.424394880904778 1.6083112188575066,-9.612575751956477 l-1.9259519565997933,-17.447734037362157 10.331229110801559,-21.27587498669133 l9.253994530451534,-24.401512260449756 -3.7371764996048604,-8.943684856656475 l-1.927150292848534,-10.910100288461967 3.967170403062453,-7.94104719522753 l1.9425942218541363,-5.58684651096932 0.6327122697202622,-4.635263977342923 l7.518111908734499,-3.55773029474197 0.27543884975374855,-4.993498015948288 l-10.03777917464633,5.687632180712476 0.5181428103395447,11.615646850546907 l-4.778969324401064,5.267485165797092 -6.263603404646301,-0.20205236092559198 l-11.17937196576511,-12.457756513769207 39.88577419657604,-49.25062740732143 l6.589862922577805,-22.40388692556041 " fill="none" stroke="black" stroke-width="1" /></svg>