<?xml version="1.0" encoding="utf-8" ?>
<svg baseProfile="full" height="211.8712315043474" version="1.1" width="99.22001924417536" xmlns="http://www.w3.org/2000/svg" xmlns:ev="http://www.w3.org/2001/xml-events" xmlns:xlink="http://www.w3.org/1999/xlink"><defs /><rect fill="white" height="211.8712315043474" width="99.22001924417536" x="0" y="0" /><path d="M69.2647146459961,156.90236590997293 m0.0,0.0 m-12.896289739559705,25.053958629388372 l-1.1265162658098509,3.1492537938320235 15.619861288906671,-3.087162899090007 l3.358249314642162,0.0688912125979052 -7.543031209700955,-2.4850124383936145 m-25.271846490573136,7.268937296039792 l-7.677905604797581,-5.5919731179059236 2.700567269411592,-8.417056750904925 l0.6780168491228903,-4.668993253116771 -2.165282098096442,-2.6217581374777623 l-1.9752347029614599,-2.2285009446640816 6.353208073359797,8.118858230236212 l2.562957185724213,7.4003169378662665 -9.077833548293244,2.662486828049713 l-6.371639134394559,-3.1036010820759667 2.7477488095452123,-5.976533533145414 l0.9866883687638229,-11.958980118539783 -1.1254322722263954,-7.3537240751046395 l-4.0410007390591245,1.0009793190002885 0.5356456839146007,-2.8260218055640696 l17.885050065896547,-15.125143553603845 5.41255960622006,-28.565286340620055 l-6.939553086908946,-12.537621426830611 0.48843659748672774,-5.379620833567563 l-3.8658224254900353,-3.15380348347991 -0.39774934473698675,-7.2674545247466 l-2.641160981564039,-7.285640529493704 0.8316438018766038,-10.93312224221145 l-1.5739011769944462,-6.6028494611808135 -2.166459824761446,-2.181034709793209 l-7.171979287540318,-3.7550109403318364 0.602145613436954,4.334324668143635 l2.817328332169328,13.646972334361545 13.822942750785039,7.495417609071186 l10.059275363841504,3.9023031429189636 -0.6140522349670482,-4.025952336345536 m-18.042252802278202,-15.517204193006297 l-0.43895463765897036,-7.6417545397463105 -4.018250664743854,3.5935285370648096 l3.2891149836479747,-5.3103485541549995 5.084839573604991,-23.61401207054773 l17.48378478472375,-0.3834165529002337 " fill="none" stroke="black" stroke-width="1" /></svg>