<?xml version="1.0" encoding="utf-8" ?>
<svg baseProfile="full" height="275.96441631992786" version="1.1" width="134.90342445494844" xmlns="http://www.w3.org/2000/svg" xmlns:ev="http://www.w3.org/2001/xml-events" xmlns:xlink="http://www.w3.org/1999/xlink"><defs /><rect fill="white" height="275.96441631992786" width="134.90342445494844" x="0" y="0" /><path d="M104.44605468481346,250.9644163199279 m0.0,0.0 m-24.74323609625229,-52.151746222912024 l2.1580126265598123,-7.996836549343909 2.731737287920284,-5.3329596185026436 m-19.66221823020231,-95.93487687552165 l4.156304847364095,-1.3308068778537299 -4.925354905508188,0.47812177965922603 l-4.923085091343997,-0.05298476555083087 6.721839544784061,5.082214138331903 l12.130096089632554,-7.316822502950885 6.780290303014651,-2.454145851366444 l14.19480093817446,5.256246045618045 2.8734824234100724,-2.204241299161014 l-10.881223026407815,-12.963435728412174 -2.356687580621113,-8.76853768377246 l20.512426406482476,-10.77702912791148 -18.722400383114277,13.485657625226851 l-4.936639852458065,-15.44259521232006 9.435149017601603,17.398398037163158 l10.862525723479454,4.457275775406007 4.051549727619486,5.621328185130707 l-0.6808002873209918,4.9960328003376215 -4.744953511631585,4.28919672384665 l-12.951121153822147,2.2436996520919044 -5.989403101814623,-1.3195494796569056 l-13.101703015137529,-22.95790210191404 4.258271823143782,-8.153299411444872 l-0.12188307984555322,-6.1463343510059705 2.6686910120824314,-5.962969083858454 l-11.052044298321176,-21.813439301531105 -4.833132639537487,14.973477588483565 l0.6669976498182347,6.281766363036733 10.232799918028292,-2.791904520413997 l-7.17561436141996,-4.287279089419616 -28.831121293361747,-6.211370495324095 l-4.085965131260976,-8.156764884111846 -2.5250391585457312,1.1482101919320111 l1.1839999748231067,1.4040930361585928 -0.6982511150444777,4.5608471102247865 l-6.7812006408754195,2.5171296954368363 -0.3419520449048516,-5.598811807302952 l5.730007599466845,8.42698084388779 -3.0848773484008905,-4.928529779508888 " fill="none" stroke="black" stroke-width="1" /></svg>