<?xml version="1.0" encoding="utf-8" ?>
<svg baseProfile="full" height="193.9674992746531" version="1.1" width="134.7153531684797" xmlns="http://www.w3.org/2000/svg" xmlns:ev="http://www.w3.org/2001/xml-events" xmlns:xlink="http://www.w3.org/1999/xlink"><defs /><rect fill="white" height="193.9674992746531" width="134.7153531684797" x="0" y="0" /><path d="M25,87.83674479049742 m0.0,0.0 m31.9594170258325,-8.942122477224276 l29.06615983133391,2.0695662111392257 m13.714665028788115,-55.96418852441237 l-5.640325034250213,22.899619646916776 13.944455874458354,1.6091874240800763 m-11.706104122336255,-3.0281341216979474 l-1.8134475086467166,-5.421188044399218 -13.185237448579521,1.8717886674461381 l-3.6298127274324496,6.662036545502531 -4.683498117205184,4.569391573866291 l0.05205783312881129,12.663491815797713 3.977828288788604,15.259917201022306 l-0.4026505731865342,9.081949644111962 -0.09779775293003001,9.353463261150692 l4.556525943743169,8.11472794511736 2.5551388115986318,6.988357608902938 l0.2440785352515823,10.812695276945096 -7.292636418045661,7.995428449070779 l-9.028473546717365,2.824794022938739 -0.05471122197170497,4.964722327047819 l2.572471940675173,5.22633947114564 8.171258171377506,2.9833585644472973 l5.41834133224189,6.797276668268188 -0.09416229892165062,4.141240400232047 l6.520663255960102,2.3802816793055306 8.297736418855346,5.216753247434347 l7.2915688502455485,-2.581158170137899 4.001842796423752,-5.091932581867374 l-1.801310896329581,-6.346489251535423 -1.5913308914199502,-3.749920944465398 l-9.902196455350447,2.4639609199521204 -17.119486970357602,5.216837266841727 l-19.15918950411281,-2.962483187814225 -10.457986817591202,-5.830947661818866 l-0.4653278388923507,-10.546247173536552 4.464641128684321,-11.640569991809931 l-4.526096902915646,-7.768922086556512 -0.8086751623137193,18.57893628534511 " fill="none" stroke="black" stroke-width="1" /></svg>