<?xml version="1.0" encoding="utf-8" ?>
<svg baseProfile="full" height="179.88611137484702" version="1.1" width="121.13825979853593" xmlns="http://www.w3.org/2000/svg" xmlns:ev="http://www.w3.org/2001/xml-events" xmlns:xlink="http://www.w3.org/1999/xlink"><defs /><rect fill="white" height="179.88611137484702" width="121.13825979853593" x="0" y="0" /><path d="M25,120.28149222172901 m0.0,0.0 m17.553476307545186,-22.94592223438791 m49.56247555709219,32.35535809965981 l2.380810905322595,25.1951832878461 1.6414970285759614,-9.600943099748699 m-17.228980837959487,-26.223499830951056 l-5.480078260550352,-0.924365012099043 -14.872872999798421,14.588848542290775 l9.231931488462934,-30.89776001580767 -2.124030008737513,-39.626578565841946 l-1.199562386655696,-16.996303936123674 -2.7545466802775196,-14.493653925928397 l-21.810917369973225,13.972316292312223 11.954130316576318,0.5625096703884843 l6.229083696015338,29.955517977768054 9.998887027345049,5.161084162663485 l2.2655544940668393,3.2320355511629693 -6.874575054348791,1.9627143711488164 m-28.477333398766483,-22.539102373942605 l5.574265669585032,0.9746168007528724 -1.1642198482867172,-4.105037234311378 l0.6905510076692558,-4.5390760292072665 9.40541970234565,-6.999531926166972 l4.191720008887511,-7.438112303686822 -0.3560654917610334,-6.885274622972718 l-2.8606483913942027,-9.026515866546436 -9.251666393367177,0.08775433081492867 l-10.471077348717287,-0.056823943246777364 -3.0006735614573574,1.3382644329370454 l1.9218628726760711,2.666779179416634 6.757257473200675,1.8153489230352131 l7.320340057820958,-0.3824162310485166 14.17178875876486,4.306684922258686 " fill="none" stroke="black" stroke-width="1" /></svg>