<?xml version="1.0" encoding="utf-8" ?>
<svg baseProfile="full" height="166.95813764625888" version="1.1" width="146.96529038440605" xmlns="http://www.w3.org/2000/svg" xmlns:ev="http://www.w3.org/2001/xml-events" xmlns:xlink="http://www.w3.org/1999/xlink"><defs /><rect fill="white" height="166.95813764625888" width="146.96529038440605" x="0" y="0" /><path d="M91.52653178645535,105.81472923748323 m0.0,0.0 m21.383869795302836,36.14340840877562 l4.71925454265836,-24.591066796029512 1.651921393379357,-4.26801061018019 l2.6837128666101506,-8.872493410714068 m-9.338778805812375,-45.317986431243874 l-8.162925265660032,2.4276996198370036 -2.827476363475395,1.678311926873508 l-13.03761461010561,-6.038440846979314 -13.543270491607707,-8.627583100735611 l-8.131398553948669,1.4712317862184643 -9.207251648533084,2.872272123717968 l-11.058111062216147,6.0642166953799865 -7.6497977005441635,9.459082547915981 l2.0942011078486056,7.829411531948772 8.464390120175628,2.315671275688016 l12.961762184337603,-1.9960667713496862 -2.6015562135262638,-1.280466210385889 l-10.33478137941587,3.357511063034524 1.751457531389089,6.987944738301506 l-1.6898133464069165,4.239633571671129 -5.552477983356403,10.306334865840304 l-1.0422210147619304,0.47036736973871784 -2.2018334252672433,-9.34866377434723 l6.48182932622831,-8.82327447405713 0.27782504063847746,-9.856423515314958 l0.4106738067569386,-10.821109268086852 5.053963783651332,-6.930228025205168 l-6.041833034935755,-5.075206076783993 -2.084864245654462,-7.613866386891064 l-1.0559329601539895,-6.0045261140581685 -13.015063552581276,-2.2365727588049236 l2.7725525144083307,-8.735842191257108 11.699269103111229,18.49888482102442 l-0.1780415586974829,10.41153871165584 4.908540424223086,11.552461474944248 l-25.086712110513893,14.648014335773091 42.35729099866655,-35.85855192622696 l10.799175713408564,-0.2642823021714552 " fill="none" stroke="black" stroke-width="1" /></svg>