<?xml version="1.0" encoding="utf-8" ?>
<svg baseProfile="full" height="96.2869681493873" version="1.1" width="106.416865798832" xmlns="http://www.w3.org/2000/svg" xmlns:ev="http://www.w3.org/2001/xml-events" xmlns:xlink="http://www.w3.org/1999/xlink"><defs /><rect fill="white" height="96.2869681493873" width="106.416865798832" x="0" y="0" /><path d="M65.4474966573246,61.58822228233062 m0.0,0.0 m3.0910888132714165,4.776851777403381 l4.728712865559791,4.921894089653309 -1.0387162128450889,-12.46730048980787 l2.7946526757723644,-0.060987290200267635 2.260874757367919,1.1016081033066996 l-5.884870699652461,2.5842909048640266 -2.5562158905322745,4.677767016000396 l3.6003303265331263,0.5404892087409421 8.973512506032606,3.099550325891851 l-2.7852813647558263,-3.5327135612365828 m-19.4590531171225,-26.8787058877545 m-8.690958060651669,-8.804115666322742 l4.279091349734793,-6.546850812869263 2.5753469260669837,18.12086708841256 l3.6460089457040468,6.796211305983127 -0.06007326800075832,7.57688433054257 l5.682480398192063,2.5572153046278587 4.732108716584123,-3.0050578362844407 l-8.69188021588363,-2.376071429844836 -13.985380571742153,-9.524454330793157 l-6.589836241218355,-3.313103732637354 -9.160765780340322,-0.541481980363141 l-3.867612848220207,-0.8992817332228489 -2.589759326627224,5.319616263211495 l2.6454239856898463,3.2754490663184863 12.578380014510453,-0.9131328329542643 l1.6459564591081268,-0.2828605592813345 -6.332563547294959,-6.062750251739728 l-6.869813895573762,0.6229384135123385 6.368173843750096,-2.725355888034596 l-11.486858200741167,-3.0449532689716996 0.9788541692932193,-0.985601065935971 l4.3567776006760335,-0.4713509779184938 1.6785811419903989,-1.4487050587510764 l-0.27840858814644853,1.217232257052462 " fill="none" stroke="black" stroke-width="1" /></svg>