<?xml version="1.0" encoding="utf-8" ?>
<svg baseProfile="full" height="124.77815331730773" version="1.1" width="201.3393610079645" xmlns="http://www.w3.org/2000/svg" xmlns:ev="http://www.w3.org/2001/xml-events" xmlns:xlink="http://www.w3.org/1999/xlink"><defs /><rect fill="white" height="124.77815331730773" width="201.3393610079645" x="0" y="0" /><path d="M176.3393610079645,97.18936727158723 m0.0,0.0 m-46.33126445254408,2.588786045720498 l0.13757755011783127,-7.621454966518537 10.641466731427167,-3.4768993127688397 l-4.3136274132526715,-4.499130927850682 -38.94819063298838,-1.8865780355953359 l-5.605695346070161,-2.397160845598004 15.778987017096242,-18.053334785474398 l10.219288212584658,-2.4342088010199747 2.958346744726633,5.109280923602748 l5.3603651194701385,-12.791214075658479 -5.110630033484067,8.345265464868753 l1.2310168208609962,-3.663548231268375 -5.861199294291995,-0.8468488193608725 l-6.239247627387197,-6.6157187847243115 -6.014105593827708,-8.504657356821054 l-7.372473228000677,-2.1305738375550387 5.263999599810978,-5.816651056195021 l-1.518677156322071,-7.249253029519119 11.024833697000611,-0.2454668398511763 l3.672112073727638,6.448480529125372 -5.463543774027246,3.7452191449257146 l-9.785434566839234,2.6698443327807233 -22.116455387431415,15.018165156389202 l-4.747581512827994,-0.11384243216385925 -3.845775898854299,-2.484737138408514 l-4.0232517166889625,-6.667725425193605 -2.4504138675984577,-4.180180353032485 l-2.0335861927852057,-8.639569201950563 -7.706329220330845,-4.388019744947824 l-9.550981376096342,4.360977422495539 3.946221633991046,4.51378170327525 l3.439319914936757,8.167839967983088 -6.706611196439591,-1.700647614018484 l-11.037572191113844,-2.503199730186453 m-8.230248444512792,-4.824561015938216 " fill="none" stroke="black" stroke-width="1" /></svg>