<?xml version="1.0" encoding="utf-8"?>
<!-- Generator: Adobe Illustrator 24.0.0, SVG Export Plug-In . SVG Version: 6.00 Build 0)  -->
<svg version="1.1" id="Layer_1" xmlns:ev="http://www.w3.org/2001/xml-events"
	 xmlns="http://www.w3.org/2000/svg" xmlns:xlink="http://www.w3.org/1999/xlink" x="0px" y="0px" viewBox="0 0 125.1 235.5"
	 style="enable-background:new 0 0 125.1 235.5;" xml:space="preserve">
<style type="text/css">
	.st0{fill:none;stroke:#000000;stroke-width:1.1077;}
</style>
<path class="st0" d="M10.2,134.1c0,11.6,1.2,47.4,12.5,44.9c16.1-3.7-14.7-48.8-11.5-65c0.4-2.2,3.1-6,4.8-7.5
	c0.6-0.5,2.1-1.1,2.8-1.5c1.5-0.8,4.3-4,6-3.5c3.1,0.8,6.5,8,6.5,11.3 M20.8,188.7c0-1.2,2.4-2.7,3.4-3.3c1.4-0.9,4.9-1.5,6.4-2.4
	c2.1-1.2,5.3-5.4,7.6-6.1c2.8-0.9,9-0.2,11.8,0.9c1.7,0.7,4.7,3.2,5.9,4.7c1.4,1.6,3.4,5.5,4,7.6c0.8,2.5,0.5,7.8,1,10.3
	c1.4,6.5,1.5,25.1,8.1,25.3c1.4,0.1,1.7-3.8,2.1-5.1c0.7-2.7,1.6-8.3,1.7-11.1c0.1-5.1-2.8-15.2-2-20.2c1.1-6.7,8.5-18.4,10.9-24.6
	c2.7-7,9.9-20.8,9.8-28.3c0-2.8-3.2-7.7-4-10.4c-0.8-3.1-2.5-9.5-2-12.6c0.3-2.5,3.3-6.8,4.2-9.2c0.6-1.6,1.7-4.8,2.1-6.5
	c0.3-1.3,4.4-4.1,5.1-5.2c1.3-1.8,13.1-1.5,14.3-3.4c0.8-1.2-0.7-10.6-7.1-11.2c-6.9-0.7-12.5,8.4-14,11.2c-1.6,3,1.6,10.3,0.5,13.5
	c-0.6,1.9-3.3,5.3-5.1,6.1c-1.5,0.7-5.1,0.5-6.6-0.2c-4.2-2.1-11.7-9.8-11.8-14.4c-0.4-17.7,34.5-41.1,42.3-57c2.9-6,7-26,7-26"/>
</svg>
