<?xml version="1.0" encoding="utf-8" ?>
<svg baseProfile="full" height="113.23480051020364" version="1.1" width="101.16413528342346" xmlns="http://www.w3.org/2000/svg" xmlns:ev="http://www.w3.org/2001/xml-events" xmlns:xlink="http://www.w3.org/1999/xlink"><defs /><rect fill="white" height="113.23480051020364" width="101.16413528342346" x="0" y="0" /><path d="M48.991720456330114,88.23480051020364 m0.0,0.0 m-22.8212146386445,-61.966454431795576 l7.168646837271486,0.7327890383955568 3.7333025952381127,-2.0011351168036273 l1.428760172558546,3.6668534447120193 -2.624796538442771,2.727030557843538 l-10.876418884310992,12.785088672710362 2.5429359334197046,4.4241882274499895 l11.88660612487626,6.981965860794364 2.7928511741876685,1.7268076721334014 l-2.239221011494775,2.067544546866105 -5.633606013716112,5.689136333643083 l-6.96409614081719,3.6315669468974074 10.637884124718664,-2.1805397875194186 l9.070264468232063,-5.226491673466987 7.674010595671336,-4.867848405384576 l5.740977122725212,-1.6587974654895477 3.0738031719154626,3.9522965725549444 l-1.1837549970564065,3.7585810633519547 -5.573771739538061,4.139046652569595 l-7.188764047416081,4.134013837630708 -5.238720105437842,1.5448928941248612 l-4.587315309485759,1.5816916432773342 -0.39623633394778873,0.5914893488917483 l3.159874909823235,-0.8615470498660535 7.157187669768947,-3.097983364830105 l13.509410503442487,-2.802232570057308 7.390550209153286,-2.9706746797676185 l4.074945273417009,-1.4867651034721021 1.4583197009821436,-1.9675934295277275 l-4.348449616131786,-3.8156704702636044 -12.129241046297489,-1.6404712370516805 l-14.68383808211418,-0.7079988057115338 -10.720655639656,-0.11227071800573059 l-5.3750759870560305,3.804756742814479 0.5867055667068846,3.0868647151194377 l7.141894196306082,-0.012904420186425694 9.273046211874474,-5.092249014186403 l13.462006371071844,-8.522214354162543 " fill="none" stroke="black" stroke-width="1" /></svg>