<?xml version="1.0" encoding="utf-8" ?>
<svg baseProfile="full" height="325.23660828588976" version="1.1" width="188.0028085123289" xmlns="http://www.w3.org/2000/svg" xmlns:ev="http://www.w3.org/2001/xml-events" xmlns:xlink="http://www.w3.org/1999/xlink"><defs /><rect fill="white" height="325.23660828588976" width="188.0028085123289" x="0" y="0" /><path d="M79.48929099412781,300.23660828588976 m0.0,0.0 m5.230992504758212,-75.16953190250996 l6.6306554559704285,-0.3877514223631143 m-2.577664783809076,-96.00564149407013 l14.034981962793346,-84.22141601781101 -1.8031677895710285,-19.45226744913553 l1.7094728173338116,1.911009590820298 0.4263277343045653,2.460731209015136 l-0.7306268733117094,2.412067468821501 -4.006584254233096,4.609266229780322 l6.067435601830563,5.843326772165765 11.37351990770979,4.604171827358483 l8.590965211404086,9.52194461196624 2.723656971542133,4.0694766050660185 l4.9001309968817255,3.9489185447641417 9.376247611348466,-4.330923418785453 l9.633611524233103,2.525542222271802 6.48775406872665,-0.5148783462413092 l3.1749707250968187,2.1301595089568592 2.2708381251923124,7.787518051933084 l-0.6353608999068106,11.733471840950163 -6.219497145954039,2.919882047594556 l-16.11449025198071,1.072943601502524 -9.649559695134341,1.0283477720230418 l5.502748464051583,-0.5449895193008886 -3.034445020436228,-6.919613049475509 l-2.010009908843159,-7.468825762472053 -7.540720644480738,-4.889692018095564 l-9.058003490235107,-5.301105122133922 -12.563517170130266,-5.549213117177858 l-4.64606275573533,-11.46627533127812 -6.737816029938253,7.727034104635551 l-4.568155652668551,-0.6352885114747919 -14.903711361897182,14.953682960217174 l-41.565181045517015,18.19695843506708 -4.259025903522755,5.450154557223632 " fill="none" stroke="black" stroke-width="1" /></svg>