<?xml version="1.0" encoding="utf-8" ?>
<svg baseProfile="full" height="114.99356627655737" version="1.1" width="163.64716508093724" xmlns="http://www.w3.org/2000/svg" xmlns:ev="http://www.w3.org/2001/xml-events" xmlns:xlink="http://www.w3.org/1999/xlink"><defs /><rect fill="white" height="114.99356627655737" width="163.64716508093724" x="0" y="0" /><path d="M38.44915363964888,89.99356627655737 m0.0,0.0 m-13.339197575608132,-25.151725549075582 l-0.10995606404074293,6.495598879840445 7.432908791422381,6.0438591578336505 l10.917833960656388,2.2941619275578007 8.208176010629767,1.771192293866234 l2.0721825334253277,-5.64503917234833 8.479598387641516,-4.433294872971882 l4.844398717266109,-2.286906087612235 -1.1221608680492816,-2.708096410976897 l0.16716269156773989,7.439630986643051 9.308261164337221,-10.605632278586205 l-9.732022094535841,-6.708076311387818 -1.1503067568779013,-5.7242817663071754 l7.633474462844998,-10.81565099210444 11.612807626814735,14.119964276338939 l0.6964463874519344,-4.242412614852189 -8.340073094659987,18.257166336462117 l-1.9947653649008006,9.252228267113635 4.674606285905598,-9.653771124281409 l5.435143382787675,-19.96827595263295 4.757405137033368,-5.643387362015693 l-9.591921721068783,-17.080817907060435 0.9442088369784292,20.66090239326747 l3.0006306803354166,2.727044405866359 18.7793947396323,1.5464644106930807 l4.659103568890315,3.200724116088765 6.003481317332183,-3.3861319480700494 l3.82566579939997,-4.086376434867118 -0.7871441139674696,-2.083243174082053 l2.190187311572321,2.806700320787222 -3.913816480329225,-0.4050650570710776 l11.09495405006436,2.4062734856359516 7.026857042165273,-2.286293470168068 l0.16432511978739175,2.896130092810486 -3.7257694021598864,14.97825336164334 l6.692809979888483,8.920483105309014 3.3831209916552383,2.7128214202964345 l-2.9008291288452708,6.064062534292556 0.20114534951238233,-5.301538791366207 l-4.080278372070561,-1.4148992772099294 -0.5012206357673358,5.725978350578781 l6.991397024658854,-2.443244166293972 " fill="none" stroke="black" stroke-width="1" /></svg>