<?xml version="1.0" encoding="utf-8" ?>
<svg baseProfile="full" height="133.41729435311697" version="1.1" width="124.072062338928" xmlns="http://www.w3.org/2000/svg" xmlns:ev="http://www.w3.org/2001/xml-events" xmlns:xlink="http://www.w3.org/1999/xlink"><defs /><rect fill="white" height="133.41729435311697" width="124.072062338928" x="0" y="0" /><path d="M99.072062338928,89.69978267938562 m0.0,0.0 m-16.687556155357914,-16.634315014190022 l3.611880867240518,-2.2124608381187674 1.7174923800976394,2.3445338122271764 l-6.484332797183844,4.137316582277127 -8.542775004915368,7.762324855485035 l-10.838227029915345,-2.1756405259467257 -10.593151051425851,-0.24597666920293415 l0.4558678646412223,-1.6780510063112675 -5.469277350703656,0.41093887378507693 l-1.6500121592986683,15.467229300375337 3.42876362697368,4.180345745006973 l7.081789296718802,7.036933034564239 5.975996477068992,0.32433352378011315 l-13.240995465934821,-15.517125045144358 4.15961830230375,-4.542146321187997 l5.252006688232609,7.5683215165104345 -2.1333541734435566,1.4793972918826397 l-10.477222777392177,9.314292339203131 -7.7289190228811275,-1.4725155034880655 l10.268637277532301,-0.8209178469457131 4.029771455394136,-0.8252113877580467 l-3.596690977871855,-5.900897421601759 m-14.68752212144981,-49.31143436478749 l1.7800511916552475,-9.700237735195453 10.41407729045368,-2.640504622093165 l-8.72363849522885,-11.048315252511141 1.7070490492973636,7.3803184446535814 l-0.4087464059842687,5.190369885799534 -1.3019075837957088,0.8783893460691655 l-2.960239045659155,0.3541559706500051 -8.430496488095956,3.3928637581045153 l1.3254520724447865,-5.061056489521407 " fill="none" stroke="black" stroke-width="1" /></svg>