<?xml version="1.0" encoding="utf-8" ?>
<svg baseProfile="full" height="215.19830362506997" version="1.1" width="104.99585042518703" xmlns="http://www.w3.org/2000/svg" xmlns:ev="http://www.w3.org/2001/xml-events" xmlns:xlink="http://www.w3.org/1999/xlink"><defs /><rect fill="white" height="215.19830362506997" width="104.99585042518703" x="0" y="0" /><path d="M79.99585042518703,190.19830362506997 m0.0,0.0 m-38.32667457572993,-11.671360671829078 l0.7881836550846971,-8.241028958285302 2.483124077035226,-27.12276642393693 l2.1515079786326727,1.816262404328494 m-10.585983272466523,-116.09756345357366 l5.348412502643588,11.90341657515112 12.129229923791671,-1.2346339160830049 l-3.7156950796335813,3.2323896812187005 -9.6302616843865,24.20680085464789 l6.692927589605929,9.875596994134053 -2.0268984425454706,8.578221440282729 l-5.618645583955217,-8.306116427280184 -8.684485805014713,-10.202096628511468 l-6.000591708248876,-2.704366339522995 7.184326664643885,1.9079296437788897 l3.58530530498133,-4.165230691022315 9.481499288726972,-0.1339041736210131 l4.740628042429667,6.012426795909905 -0.45687166577992805,5.456833124838531 l0.6714598806587844,5.632562433134602 -1.1170132961935402,8.902087756857327 l9.531284428628345,3.024509012490403 6.901954454063747,-4.333580584871479 l-7.770530620055573,-6.622521274824556 m-0.16807474183055726,-44.74395125581685 l2.1014024856118816,0.5824804831014871 -4.5153695336311594,-0.481219641422419 l3.9667271034379956,-10.269480384342854 1.4859238696789379,3.3161399211027254 l1.1234039592050775,3.3239796019545467 -6.314997336921795,7.328194468715981 l-11.427175712934018,4.954426777358078 " fill="none" stroke="black" stroke-width="1" /></svg>