<?xml version="1.0" encoding="utf-8" ?>
<svg baseProfile="full" height="101.10456370274201" version="1.1" width="101.78664269925058" xmlns="http://www.w3.org/2000/svg" xmlns:ev="http://www.w3.org/2001/xml-events" xmlns:xlink="http://www.w3.org/1999/xlink"><defs /><rect fill="white" height="101.10456370274201" width="101.78664269925058" x="0" y="0" /><path d="M76.78664269925058,67.93527354347103 m0.0,0.0 m-29.113601054490903,-19.82462492142231 l-3.8386235628313092,-6.1356009833305665 2.63715692268534,2.1861752447752747 l4.141378284332908,-0.853164263998226 7.178455750233514,0.0872633578010859 l4.679283552668574,0.324574202375829 5.9132477304406414,0.5383153490128496 l-0.25776050577069193,9.426643908718486 -5.14292994840126,8.883705106799017 l3.8148867240720805,-7.59421166712568 -1.0974791340160253,-8.551339592744482 l-1.756794255710547,-6.84225174603939 2.1610271098912186,-5.246964836552747 l-0.204201535949374,16.339464590337425 1.3218289596466877,4.0726169654359765 l-4.892859257260561,3.5752448082797317 0.12927985097799188,10.24098583435729 l3.3858236523156626,-4.123049801753532 -5.250063876321147,3.299981823832665 l-8.606994548211734,8.36552678051229 -10.168622226348358,-1.2156400060797146 l-3.7472580328501603,-11.900947534773767 -1.1865425953754942,-7.817357928703583 l2.400512311219593,-11.455632691102995 -2.49974989013668,-9.008567984699027 l-3.7348872484506157,-2.9014637847481595 4.326454382142179,-1.8725857365579568 l16.40434600699922,-4.932368036076795 2.47444964385217,2.6917076344498696 l5.6913147866490865,0.16516326196291065 -0.23059203783337096,3.4519565392960154 l-2.783552759250462,12.927622219491834 -8.834499550950898,4.929352906819907 l-11.898625308346059,3.4499850802874623 -7.075995752742739,-7.628896665436207 l-6.124455286129048,-6.21846852067985 6.379034551689888,1.000235885687078 l2.5822672885595663,5.191106741590108 -3.4245760425462435,5.531105950511222 l0.7742129750019457,6.45265895989686 4.710697476567869,1.4448715795161773 l1.4529697257886443,1.8165348992552706 " fill="none" stroke="black" stroke-width="1" /></svg>