<?xml version="1.0" encoding="utf-8" ?>
<svg baseProfile="full" height="206.89252762680303" version="1.1" width="166.61869349975206" xmlns="http://www.w3.org/2000/svg" xmlns:ev="http://www.w3.org/2001/xml-events" xmlns:xlink="http://www.w3.org/1999/xlink"><defs /><rect fill="white" height="206.89252762680303" width="166.61869349975206" x="0" y="0" /><path d="M141.61869349975206,28.090304976788282 m0.0,0.0 m-39.66111482604457,9.274954210100415 l-37.113774121608515,-12.365259186888698 4.293243289706989,1.6235940947274534 l5.561958588710306,12.586829758905461 -1.0572708081185493,12.629023111829838 m-7.778125769836397,130.0530806613403 m-8.36946099473599,-13.601371566791043 l-16.503292832753665,-8.83894386614309 -15.990856025071666,-5.730889236487238 l30.227234088213535,-7.1469951246171615 5.9073807381770616,-6.5485887417062045 m19.434788234276976,-31.276435488128058 l8.012789892904545,-40.56630227310978 6.19764530975215,-10.900173396278706 l2.026318142329704,1.6566208165007068 5.917598297817156,-5.603284103066082 l1.5954569808202523,2.9200566518310604 3.1833175643878113,9.480426719022482 l-0.16194502087566182,9.79284837143951 -1.6120481400567528,8.68453575273358 l3.219390011610429,10.0568005845455 m-1.0621627429670102,-0.5049602739545855 l-2.3674467159544896,1.963973098851141 0.6951078644117736,-0.2706413770020546 l3.9083663719658355,10.01206720111773 m-25.45148227402433,-22.624939326489244 l2.530271438561052,-0.14034697727021858 5.106009421506866,-4.064908389994361 l11.164874498573871,-4.860766819466389 14.181069453617523,0.266586927104292 l11.916001838470242,5.464150303834812 5.683634270982589,3.317362380190687 l1.1848642153731699,4.740991309422306 0.5835504897035495,11.85877661983079 l-3.0551128909884198,-7.820181399302335 " fill="none" stroke="black" stroke-width="1" /></svg>