<?xml version="1.0" encoding="utf-8" ?>
<svg baseProfile="full" height="189.35498637331733" version="1.1" width="106.73486929613722" xmlns="http://www.w3.org/2000/svg" xmlns:ev="http://www.w3.org/2001/xml-events" xmlns:xlink="http://www.w3.org/1999/xlink"><defs /><rect fill="white" height="189.35498637331733" width="106.73486929613722" x="0" y="0" /><path d="M25,164.35498637331733 m0.0,0.0 m8.906879638341692,-1.3763477852791144 m9.183689195332017,-54.886011968029855 l13.487013582492589,0.6117288629036088 3.2533123384395,7.245817513264906 l-1.5813965453956702,8.091904099485198 0.7723202797210987,-2.844801592446713 m-21.03311013478794,-54.817872200629516 l3.792759962449568,-5.505407837418392 5.978810533589464,2.2507007422335947 l7.992558467717039,-0.26507854999079317 8.297123099798567,0.6541093515060853 m-0.4069118120544113,-34.401642957892605 l-2.8422909768945663,0.7358906690895328 4.20815885788836,1.6713685868762518 l-0.17233824575167783,-0.3043439136383369 0.8543516496917155,-6.214999393351158 m16.04393940555988,37.41576546743431 l-5.124355577223862,7.753333030407374 -10.75156893052628,15.0380608277591 l3.9569367032693568,4.376754219588164 3.073299620820796,1.7720893777251356 l-0.9473822075914651,5.492291799267199 0.5293631894959039,5.886951610572406 m-26.29932402611895,7.283306296875827 l-3.2643496900419815,-0.4138970776406542 -2.2345993426190183,-2.9750987022984097 l-3.3062613839512927,-1.1229877842777813 -6.482876458313253,2.00703284687785 l9.71905657503122,-3.178624038294569 5.09274845296458,1.9136423779316574 l-0.17018190055721638,4.787990888824735 0.5096280580369175,-2.170681011424532 l4.376191717504621,-3.85442180524559 5.854779379681318,-6.43714282405742 l1.015856504035193,-3.9467842958939623 7.0725576079067665,-18.348540243694192 m-4.145618663394016,39.414856519636636 l-22.733479503359817,17.119664429883297 " fill="none" stroke="black" stroke-width="1" /></svg>