<?xml version="1.0" encoding="utf-8" ?>
<svg baseProfile="full" height="129.34069448207458" version="1.1" width="162.00603873848502" xmlns="http://www.w3.org/2000/svg" xmlns:ev="http://www.w3.org/2001/xml-events" xmlns:xlink="http://www.w3.org/1999/xlink"><defs /><rect fill="white" height="129.34069448207458" width="162.00603873848502" x="0" y="0" /><path d="M37.45178308737099,104.34069448207458 m0.0,0.0 m5.62402746039095,-45.92031298493474 l4.961062278841884,6.974789244310928 15.787559569096373,-1.766514570707586 l3.362556126808037,4.604596836862329 -9.732484961454572,11.744666382669832 l-5.999510286726655,3.74809351948962 -14.408280511650918,0.7292367401746797 l-12.04671276267609,-13.555335195053862 13.910575335147499,-11.42026186326461 l9.320149596768786,-3.57555617314983 13.501809910374744,-14.358517639632677 l1.792915222127709,-7.5466826613471225 3.6347067127622426,-8.998896117491553 l-5.781934454514508,13.912917617023322 5.95812487148313,10.05007072365883 l8.098592022330248,21.83144715761328 18.47942208556797,-6.298043189674414 l6.713504237487378,-6.2900649529044435 0.657612928409621,-23.682450892225937 l-1.0975039671725169,-5.1241461160271395 6.3373719900644305,4.779363454363084 l6.074376103707798,5.0674841587169235 3.811432941277933,6.443087328442967 l2.256991620833049,7.449508160211091 -8.023866969397947,3.269208790977899 l-0.4925258973910786,-1.7415952466050078 8.960778990774653,-1.579999975846254 l3.0805927664031496,-4.365865455407595 -3.899244647281783,-6.437965958002685 l-0.5878528510586944,8.857026140296584 5.362305093322475,5.7974711266476335 l13.937705096458739,3.314720878612481 -0.14692844225971496,5.90383588705069 l-8.16307808751388,3.894307338550445 -1.0223016572972716,6.423842359398468 " fill="none" stroke="black" stroke-width="1" /></svg>