<?xml version="1.0" encoding="utf-8" ?>
<svg baseProfile="full" height="284.3304811416094" version="1.1" width="119.07578955978335" xmlns="http://www.w3.org/2000/svg" xmlns:ev="http://www.w3.org/2001/xml-events" xmlns:xlink="http://www.w3.org/1999/xlink"><defs /><rect fill="white" height="284.3304811416094" width="119.07578955978335" x="0" y="0" /><path d="M94.07578955978335,259.3304811416094 m0.0,0.0 m-19.86439605988182,-49.23146582574923 l-1.1546552926893945,-17.686913288076013 0.9865028496030828,-14.409356802787157 l8.880858854469691,-9.692748272591803 -5.363238863337056,6.863513648287426 m-49.026883255361135,-54.426483277761 l5.112854495822659,31.178365426925588 6.3462044366229575,2.3495860814685945 l-1.3139095533533096,-25.41029852192647 17.91139683937976,-4.487026732332688 l4.924569148936782,10.656119208022918 -3.248144062331727,9.30405947923988 l8.034135452930089,-13.284953701173203 20.881829597220438,7.24012039176881 l4.192618884502944,2.1771868972949835 0.05340300679154322,14.968321516223204 l-11.66841564687596,2.6946814177832 -2.735191481095409,-13.066985249495259 l-17.82696432708191,-35.142579412107544 -4.990411826838216,-3.680385713821007 l0.5575781475974508,-18.141080481304453 -3.6795145492750536,-8.918440913297582 l-3.4698170240398674,-12.723977814082492 -6.999732934522905,5.762085993070256 l-2.6729315885512874,10.104900336851 -4.492163826200944,21.652224255815337 l-0.22218918368268795,8.161215948122402 -0.543466927686384,7.2656635510971865 l4.662423966738441,-1.3164929325973707 13.687743562337763,-21.960906997458473 l0.6016015082836708,-19.382099930400358 -2.009617417849172,-4.953223446015301 l-7.121722890529629,-15.169511000986963 -16.22899466603409,-17.580843097311824 l-1.277148933802661,-14.042751882303964 " fill="none" stroke="black" stroke-width="1" /></svg>