<?xml version="1.0" encoding="utf-8" ?>
<svg baseProfile="full" height="176.13118510246915" version="1.1" width="117.15436437338082" xmlns="http://www.w3.org/2000/svg" xmlns:ev="http://www.w3.org/2001/xml-events" xmlns:xlink="http://www.w3.org/1999/xlink"><defs /><rect fill="white" height="176.13118510246915" width="117.15436437338082" x="0" y="0" /><path d="M76.47830188587264,151.13118510246915 m0.0,0.0 m-19.20267932079294,-34.100130498546115 m10.781198120708952,-14.422684382731612 l6.274000543391523,-0.5126616338183743 0.9260897233256041,5.241182787704402 l-5.529230535170202,5.9285352239763 18.945577328730792,14.403036600256955 l1.7304000718297867,1.6033577168308437 -4.981947101147311,0.008461420121298469 l-33.59676001801567,-20.980450255858216 -7.48913798435785,-13.183923612620756 l-2.6633010704665914,-7.960198558787281 -16.672511643908727,-14.56873120512923 l9.399953600345246,-16.80500227597011 7.060003631741686,-10.666236380081886 l8.790545654690014,-4.114433257862666 2.7635972723159585,13.897861935803002 l1.9535097676060076,1.207887046060077 -0.8064572713254037,17.135362291120313 l-4.092840593030057,7.017382298658732 -6.574539026921695,2.139610235473028 l0.3164290121871341,-7.877477036433331 -4.07957891964343,-4.355606879378517 l5.9197453200694214,1.4466274851699905 4.96362765624466,-4.386256838280018 l-0.3253411128725814,5.093356304570178 2.084852137427732,6.495451843189004 l13.88537336144267,12.087790837734675 1.3231566620024644,-1.2455595167656486 l13.605043842465587,-13.41918702612046 -2.549675881076688,-36.82518777646272 l-1.297552370717437,-2.956898535768674 -10.27397896672658,8.852002401117641 l0.39503328382912456,15.209103761081492 18.5901671743107,-2.6410787517415555 l6.103290139016285,4.514911209859791 -4.63802101775206,-2.4263649684803013 m-10.012591395458035,-34.694001003156615 l-3.369170953174424,-0.27103610720277843 -5.865899418863307,15.766069750477246 l-3.0441155685972587,6.234875496058619 3.197398906709169,4.564493552753097 l6.8474930394390565,-1.31561392769382 " fill="none" stroke="black" stroke-width="1" /></svg>