<?xml version="1.0" encoding="utf-8" ?>
<svg baseProfile="full" height="165.37665020822195" version="1.1" width="165.45503176955023" xmlns="http://www.w3.org/2000/svg" xmlns:ev="http://www.w3.org/2001/xml-events" xmlns:xlink="http://www.w3.org/1999/xlink"><defs /><rect fill="white" height="165.37665020822195" width="165.45503176955023" x="0" y="0" /><path d="M34.363870511579286,128.03732091344153 m0.0,0.0 m-9.363870511579288,12.339329294780393 l5.832979577895393,-87.75549445371183 37.858691200235384,-20.835780013781065 l3.2351788284736083,-2.6724084750772685 1.8875730528667403,1.3707800748782328 l-1.3393995587439538,8.790143826308064 1.2527755891951757,7.329913687279102 l4.414686198622054,5.665881113464811 5.022232757022376,4.962430071916495 l11.910788140169776,3.9342769547311143 -0.15185430594912985,10.743180906033833 l1.9379832144462512,7.788373131931739 5.979948497395462,6.248224306678234 l3.509979476418974,2.2257178255160963 -5.7050128096437955,4.083074801400686 l-2.1565834100201235,-3.113750782746113 -10.329984289030333,3.3537446930800185 l-1.1686655346540131,4.883652787000445 -1.2676345300583263,-0.30813474694231124 l-2.367063370380924,-2.230448330300604 10.82632575775186,1.2124835501867604 l2.767973458129286,3.5848176152976206 -4.091411257279656,9.45755675975638 l-3.1648723645645074,-1.3669389615404675 -5.436841588857011,-6.94206272225574 l8.342120053683011,-5.360377361061858 9.137085281141541,-0.45711022290765746 l9.967133846955463,2.164414782197899 15.325836018127987,0.503823646539826 l5.832667337390378,-2.3074029214324163 4.647736486942072,1.8371268882057992 l2.9446600158692013,19.80248619989867 -13.438125627892346,-0.09784940264502717 l-16.061278736461485,2.319255703252279 -13.382752019506254,3.416231157802426 l-15.254644966350147,17.531913920620937 -4.804521205172303,-103.5980392127319 l3.9875909089327597,-11.540357005065156 " fill="none" stroke="black" stroke-width="1" /></svg>