<?xml version="1.0" encoding="utf-8" ?>
<svg baseProfile="full" height="441.2315144082299" version="1.1" width="139.91039623624275" xmlns="http://www.w3.org/2000/svg" xmlns:ev="http://www.w3.org/2001/xml-events" xmlns:xlink="http://www.w3.org/1999/xlink"><defs /><rect fill="white" height="441.2315144082299" width="139.91039623624275" x="0" y="0" /><path d="M30.7270574869984,416.2315144082299 m0.0,0.0 m-5.727057486998401,-102.47623678784163 l7.577091830633918,-67.67086116412732 6.757710430689192,-93.91595883457366 l12.583919352175133,21.281726826900414 24.119073617442375,-39.56645413742946 l6.217555087238123,-3.5501956966594754 5.01121532322476,-0.9523994415051098 l0.11664866868824615,5.216955791044698 1.1467286315664305,7.064981465788523 l5.837048611157731,5.780758370899662 2.9309576788135305,2.3194839542858077 l2.877668442255537,3.505254311612432 2.2289245029865143,6.731154258654774 l0.9199031160542346,5.408996641002659 -1.708027470897483,5.842672186370379 m-4.069329893067411,-28.156765282834897 l2.3094484560015194,-10.431835862850095 1.3096331081315016,-5.207065982983606 l2.0285545317041604,-3.763854562020996 -1.9400899922992976,-2.920701780145832 l0.5402291984249558,-7.317272098885593 1.6559809611054415,-6.975700470873045 l1.2804890152475705,-5.278054824947627 0.05772922179498388,-2.656573773645157 l1.5708631748478568,5.090991936347908 3.8686054843869666,8.415016889591369 l4.681865147936201,3.3950331599945747 -7.190914822366725,-0.9639228917465748 l-5.104137951666632,-2.1612824789548633 m-3.7362636626539136,-2.9225833447824057 l-13.37155385733879,-1.8548842982611262 -2.297339943434687,1.6838875606804893 l-17.959905624144216,0.5428939130170436 -7.095018662477153,0.9854804329832945 l-4.861877808047881,-5.747911151147582 -6.555867163880638,-0.397600605344407 l-7.533477597445087,-62.26018422087958 17.288447600487338,-17.348502414963953 " fill="none" stroke="black" stroke-width="1" /></svg>