<?xml version="1.0" encoding="utf-8" ?>
<svg baseProfile="full" height="170.51758019959632" version="1.1" width="105.85877314022589" xmlns="http://www.w3.org/2000/svg" xmlns:ev="http://www.w3.org/2001/xml-events" xmlns:xlink="http://www.w3.org/1999/xlink"><defs /><rect fill="white" height="170.51758019959632" width="105.85877314022589" x="0" y="0" /><path d="M33.92989377814728,99.1558797164771 m0.0,0.0 m4.148363745952262,24.32958907146915 l6.274250482887553,4.308077045645476 -2.4927569544346135,4.532720008699021 l-2.2040499248370935,1.6357350929853125 11.632387627082604,7.667946890844115 l4.074115245157124,3.8876323734761384 -4.696527384149236,-0.9919074979514769 m20.682735002183385,-12.974997112243134 l8.423180128622398,0.6985082934949901 -10.198866540663795,-6.002682496717138 l-16.486529325223092,-20.659529730137244 -1.7531762139644924,-16.399461362451266 l-2.99777109849408,2.6084768369198046 4.067642336262265,-6.730542980989123 l-0.7165250057361156,-8.390692702994148 -8.059280439983501,3.3923717612887643 l2.3438458598683236,-24.64649841934528 -16.05275824388447,-12.066999465646559 l-3.2554462601309484,-10.616145767315203 -1.6627268146617638,-6.117046008150178 l6.668290066382206,-1.620433547359118 5.030793982520849,0.13425680424845488 l1.67885413343852,5.066962620798452 -3.1931787798815567,4.728750459549885 l13.319687163558468,32.91937923793032 -1.2203958475167616,2.7695070426520707 l1.5974895883211904,-10.564616616074932 -1.2434445673410337,-5.885210431445345 l4.093840559972686,-4.196094146959013 5.6640088372307495,-6.387208026308697 l7.235294697163924,-0.15070946197973223 1.7881224377569633,-0.161566986919926 l-5.93163139049063,-5.649820610300407 9.725587418332147,-2.2927508908107113 l10.64545484077817,-2.9385238227298713 " fill="none" stroke="black" stroke-width="1" /></svg>