<?xml version="1.0" encoding="utf-8" ?>
<svg baseProfile="full" height="150.73617352595016" version="1.1" width="132.78374438482302" xmlns="http://www.w3.org/2000/svg" xmlns:ev="http://www.w3.org/2001/xml-events" xmlns:xlink="http://www.w3.org/1999/xlink"><defs /><rect fill="white" height="150.73617352595016" width="132.78374438482302" x="0" y="0" /><path d="M95.09657348451498,77.72652423916935 m0.0,0.0 m2.0814377468593235,-11.95881862961483 l-5.909279095819293,5.094896551313958 -7.133890133536189,-1.5724440894560014 l-3.695729785665127,-7.235013763503712 -3.0965544558739677,-5.335444154343203 l1.3941055040505537,-8.768320902783305 -3.3436985872879292,-2.991371699240949 l19.818323312671502,0.7184350470466581 3.77260095380632,-2.545481682321853 l6.531636314151654,-4.487492509211776 -7.351245010634524,-2.263982467966915 l-0.22805894486681771,4.439259845281685 9.84752308245255,-0.4752539509898518 l-0.7050300283754513,-5.088720492562089 m-19.044045667997125,-10.256771340817165 l-3.854690826998453,1.5990014786099889 -7.315359905515267,15.633847250753496 l-1.8487442941329357,4.647418697787795 -1.1050340520617552,9.4165424166957 l0.7354432723083071,8.080638181159928 1.0006533759577596,2.7540146185320236 l8.34606036236645,-1.1552688407274994 0.010631060588370406,-0.8121405296934003 l-8.197580131857906,3.4771311609827835 -0.9792278919271025,24.96767876343434 l-1.4800183708455095,12.304970543934212 -1.9172643734924115,0.37505828228099336 l-17.55988417028895,19.447281502199804 10.137042006473127,-7.851071747279885 l10.004185498007189,0.23201416645217354 -5.125009221672452,-1.0823471667555242 l-6.729608929367637,0.9580648394692279 -1.7569789317253994,0.476363769475433 l-0.448283476141263,0.25634624733342204 15.942094170484337,1.5351366023963864 l0.29922526926763293,-4.554038281841783 m-24.535398551062748,-47.625660177292275 l-3.9968733181091967,-6.5763267629726485 -7.043219130501097,-10.000346772811817 m-13.915900220865772,-10.64813730715132 l-1.700927907337781,-11.950479487434214 2.4128357903380424,-2.686770423323575 " fill="none" stroke="black" stroke-width="1" /></svg>