<?xml version="1.0" encoding="utf-8" ?>
<svg baseProfile="full" height="199.46516465621363" version="1.1" width="123.52492417174444" xmlns="http://www.w3.org/2000/svg" xmlns:ev="http://www.w3.org/2001/xml-events" xmlns:xlink="http://www.w3.org/1999/xlink"><defs /><rect fill="white" height="199.46516465621363" width="123.52492417174444" x="0" y="0" /><path d="M80.13220210085255,143.89415890909504 m0.0,0.0 m18.392722070891896,30.571005747118587 l-13.811488535007843,-57.92062718608444 2.0886076627641668,3.6273351653127985 l-0.4660032193225897,8.490455878038029 m-53.311475978044356,-97.82492626238525 l1.9335668743699275,2.5575893374239804 10.588631519563494,-0.9843209702058536 l13.680671065390966,0.8851309160389714 6.940643515580917,0.4180506355952615 l3.2138264655742215,5.029017187357199 -4.363411433070191,6.273632945183731 l-7.572724572002126,5.29248577726585 -2.048192468154463,4.005094573719978 l0.03493502865414333,15.915676946571402 -0.5705677301424888,2.9199003951322533 l-0.30726665988335955,1.283775419719459 1.5869463902383745,-4.485712694037592 l6.308196974085633,-5.713753057254185 3.352929454896639,-3.5537310697739612 l12.419744255814752,0.308848723559538 1.3291087096677572,0.518654115082345 l-0.03191040372920201,0.8621291949240053 1.159286626861381,-3.390715983421844 l-1.3350958092493233,-9.586960065022353 4.9760123257433335,0.12038543288129588 l6.957766212987681,1.9324389865601832 5.849787691554482,-2.7118838071630518 l-7.684357656587393,1.9380130734885814 -12.217064616289232,-8.232281994550737 l6.407499207618879,-8.703593244315945 3.089906571940654,-5.005414823615651 l-3.755965602211291,-3.7298582022376534 6.385987344444459,3.2294572679718625 l1.0825937018767657,6.20051925070214 -33.74650600456534,13.804604086413446 l-17.37455714981865,42.88939944971131 -14.314983933295228,12.955537307193467 l2.4083585300014407,22.360206886748255 " fill="none" stroke="black" stroke-width="1" /></svg>