<?xml version="1.0" encoding="utf-8" ?>
<svg baseProfile="full" height="310.09063878076614" version="1.1" width="159.42427532336043" xmlns="http://www.w3.org/2000/svg" xmlns:ev="http://www.w3.org/2001/xml-events" xmlns:xlink="http://www.w3.org/1999/xlink"><defs /><rect fill="white" height="310.09063878076614" width="159.42427532336043" x="0" y="0" /><path d="M44.161829304614045,285.09063878076614 m0.0,0.0 m-19.16182930461404,-90.39735732490843 l18.76220455914586,-11.605277447755823 m12.693519125405475,-38.41392769737421 l5.112847765770387,6.785675639415355 -0.9610067162781236,6.7938969597813745 l-3.3397895989662874,4.667199244244104 m-5.782539192213309,-61.92794204709651 l13.53105054361845,-1.0484640061271273 10.66559511021072,1.234161034843408 l8.309500827112345,3.364721769879093 -1.3365885577586156,8.953130321759009 l4.555616598895809,3.1442235361983837 10.271063849539983,8.123678301005297 l11.483001961924355,0.8170308344684637 7.582436815491172,-2.806561990059193 l-5.647879326065168,-6.293052602084974 -9.543838473112624,-0.1597554991629696 l-8.332736823106021,6.145437584322877 0.09491147204266387,4.41853232880495 l0.027670858010997446,1.3646462203186371 m5.262187353706381,-26.669554531123605 l3.600806434651781,-9.058216647028516 2.208248586663342,-3.002098854889692 l8.955854820789282,1.5093585761624273 7.878060240337687,-3.6785212132114906 l11.121886877247645,1.7669277044464333 -9.1562441684826,15.522741395572286 l-4.373803194529975,16.703311792856866 8.195049912253486,21.886969483067745 l7.587187661055332,8.338944980420251 -9.715164322984084,-6.17281207997492 l-2.7513359748228137,-2.6670529385862207 -32.57973163428456,21.703642919970076 l8.768358503138144,-107.37134464329294 17.430151734218033,-32.06292988562657 " fill="none" stroke="black" stroke-width="1" /></svg>