<?xml version="1.0" encoding="utf-8" ?>
<svg baseProfile="full" height="259.30569010525437" version="1.1" width="135.65070202226613" xmlns="http://www.w3.org/2000/svg" xmlns:ev="http://www.w3.org/2001/xml-events" xmlns:xlink="http://www.w3.org/1999/xlink"><defs /><rect fill="white" height="259.30569010525437" width="135.65070202226613" x="0" y="0" /><path d="M31.9391510913749,234.30569010525434 m0.0,0.0 m-6.9391510913748995,-58.5846323945121 l5.510499857707017,1.5328423827805215 -5.4114296892150024,-109.56272809594326 l23.011467120163484,-21.203655879995058 -10.1337997566123,-10.114445103542687 l9.759209981620476,-4.757723266988758 3.9119410502217975,-5.088212745973906 l0.26705526142620023,-0.6320927405345983 -5.129866556007663,-0.23020390541119487 l-8.007560530537093,-0.0679049402654433 2.3920111594465703,12.106404183888184 m-2.140425569693818,-5.451909189458218 l3.509466632232711,0.17246025916276456 6.47790677039219,2.6562656278614054 l7.943936200357829,6.214957435127394 9.15952422336737,8.999864630622612 l7.0939016394958205,1.8936915935135517 16.811014150863308,20.735929156722598 l-4.505667130187034,-0.7629522486735235 -0.016225098386327685,-0.1790952768051507 l8.574674348402302,-4.3204295812755245 16.5730679572083,5.2296297669420095 m-6.231740552945044,4.046932651514942 l-21.515128058448244,-0.694835832996446 -6.987472041674564,-0.007001672734198525 l-8.767132206803108,-1.3822254260244538 -12.183677963692391,-4.14553838188689 l-4.846131064281007,-6.627852441167438 -3.8364169668032493,-9.984238954401034 l6.333701120048623,-7.108237469599121 7.5457791168824295,-8.283879927830798 l12.141556416664656,-2.0592204640921645 m5.92148022907988,-11.6456518532783 l-1.1319914403574827,2.486552868272913 3.6354466182255574,13.244427655034148 " fill="none" stroke="black" stroke-width="1" /></svg>