<?xml version="1.0" encoding="utf-8" ?>
<svg baseProfile="full" height="230.40739188538285" version="1.1" width="140.457261008028" xmlns="http://www.w3.org/2000/svg" xmlns:ev="http://www.w3.org/2001/xml-events" xmlns:xlink="http://www.w3.org/1999/xlink"><defs /><rect fill="white" height="230.40739188538285" width="140.457261008028" x="0" y="0" /><path d="M115.457261008028,205.40739188538285 m0.0,0.0 m-32.34208016388169,-25.5899340272984 l4.268013915077442,-5.615075758113874 3.204438349060013,-0.697720895515054 l3.7975897452701846,6.496473175601692 6.5891275754489,9.667836763976924 l-0.5437665232994343,-0.37189751626481915 -7.94812061771745,-16.930514671031858 l-0.5699104907742614,-17.433470192964037 2.826372794916702,-25.15487460062582 l-2.4190546332639937,-4.584450871613733 -3.645915632618984,-0.29486828460393466 l-9.17314155741843,-5.653280342745758 -5.1874649834858815,-2.339851714949688 l-7.147013642275133,-7.0884386553887495 -4.020480601955743,0.05832646130305208 l-4.672701455941603,-17.62828353836435 -5.471614028825241,-7.398059744620174 l-5.03390274003245,-10.01290094609355 -4.536331440461227,-25.41447042494741 l0.990384012350059,8.77181883967734 3.471904548417429,-0.1964677607922527 l5.986434814302348,-19.21930505166161 -17.552598374393675,-10.306958404860232 l-7.927452367509041,-3.4710237234865615 -3.3999775090168383,0.2773356019676465 l1.4806097224150705,9.969397766997886 13.388029602662108,16.458154689914064 l22.87201012093475,-5.138344525883524 8.233867549466618,-5.442619197075369 l3.4597988229610492,-0.38219950073659287 -1.2898572182076706,-4.560548011880441 l0.5250002424789227,4.487547584233922 " fill="none" stroke="black" stroke-width="1" /></svg>