<?xml version="1.0" encoding="utf-8" ?>
<svg baseProfile="full" height="186.3424192248335" version="1.1" width="152.64414158930433" xmlns="http://www.w3.org/2000/svg" xmlns:ev="http://www.w3.org/2001/xml-events" xmlns:xlink="http://www.w3.org/1999/xlink"><defs /><rect fill="white" height="186.3424192248335" width="152.64414158930433" x="0" y="0" /><path d="M127.64414158930433,25 m0.0,0.0 m-13.89458779688119,15.181528387651033 l11.538517950837178,37.49466875956068 -6.594239896452938,-30.90740969111391 l-6.845746805702646,-0.6682195663993871 -10.311688953246204,-8.160845571426636 l-1.0986286602226931,2.3600577201428505 -5.668368020596066,10.046912381331383 l3.9757498688643693,6.582516310385392 5.564982036430488,5.5168878288953245 m19.285137587539058,77.23737134306052 l-1.9602966400828596,13.269110556003533 -6.56057749454354,3.6585302047698964 l-10.48779799402979,4.731310561972807 -7.251273206227468,-0.13025663753144567 l7.133790872336561,-9.436554369873125 -5.048739052296137,-5.979974926375582 l-5.222190583797735,-14.21438827604787 -4.489801422504693,-11.407401164329409 l-3.537745881366199,-9.85179807619525 5.224719818798538,2.167674144207985 l-0.8888179275732078,6.689893012139505 m1.0441423463424404,-29.508667771899997 l2.919395223728103,-19.877358394638556 9.581185337157992,-12.086048342565682 l2.6472895790525794,-5.493446844518621 -4.820751257375889,-3.624684434860082 l-29.885660061005545,14.63254787864899 -9.589651295164536,9.851517125656601 l7.752439417782866,9.16585196531933 7.087158653561945,8.86034980384455 l13.816860543852242,5.18772454505978 -11.427866647606088,16.240983019022956 l-14.151159195624224,15.307392102967684 -5.975027082323514,9.540609694575114 l-34.504894950965536,12.372898858259674 " fill="none" stroke="black" stroke-width="1" /></svg>