<?xml version="1.0" encoding="utf-8" ?>
<svg baseProfile="full" height="350.1355248105703" version="1.1" width="158.69976277816608" xmlns="http://www.w3.org/2000/svg" xmlns:ev="http://www.w3.org/2001/xml-events" xmlns:xlink="http://www.w3.org/1999/xlink"><defs /><rect fill="white" height="350.1355248105703" width="158.69976277816608" x="0" y="0" /><path d="M61.724138807066666,324.89782324465074 m0.0,0.0 m-34.180185166415974,0.23770156591955588 l-2.543953640650689,-21.82108425064385 12.503795397216557,-74.51653941173105 l24.73876654452209,-56.887892135095605 20.326889464319873,2.1150672846113103 l2.0146042311029597,6.12815383435809 3.177632260637022,8.621329159140457 l3.0437784029282016,11.067656635626747 5.817100698998072,6.166896956743481 l9.152204553928529,0.7173875054259518 13.264293914787384,-1.7417001259307896 l7.813160842877493,-7.846935099892428 -0.35017396388022815,-11.162575262747831 m-7.647611229711011,-11.693209941087499 l5.045671478253948,-4.853238464401698 -3.0174498323789454,-3.026125473484077 l12.817100014564106,6.0826899938919405 -0.43217238421388027,6.554630801305066 l-2.329600464526419,7.937678870438067 -3.8686367846231584,4.375511978927881 l-8.996184802108218,12.343518353383788 0.6553978947818445,-2.548828425460661 l-8.815658623166916,-13.226059463501668 -15.33859550596053,-9.835432279562731 l-12.268875152636955,3.022932972047089 1.2714384328375894,-5.946721211044237 l-7.227668449726378,-2.815964211847458 -7.448283216192084,11.510263402975163 l-4.9086274971656385,14.722420485476796 2.0240576030548385,0.4626451808713561 l0.7806927876097847,-7.986606471862021 17.087965693034555,-12.807894693057152 l0.5814102736022353,-16.149746115743824 -2.761939804093272,0.6805066299005536 l-0.9635252913891721,-5.34196402512163 -6.354450656664201,-20.634649152650503 l14.313283951138713,-4.8244825914392795 -13.25231417159602,-106.97716604938812 " fill="none" stroke="black" stroke-width="1" /></svg>