<?xml version="1.0" encoding="utf-8" ?>
<svg baseProfile="full" height="158.4351726812617" version="1.1" width="130.7039412587926" xmlns="http://www.w3.org/2000/svg" xmlns:ev="http://www.w3.org/2001/xml-events" xmlns:xlink="http://www.w3.org/1999/xlink"><defs /><rect fill="white" height="158.4351726812617" width="130.7039412587926" x="0" y="0" /><path d="M91.85091167645881,133.4351726812617 m0.0,0.0 m12.511611750969598,-59.31958975694066 l1.34141783136422,5.7377930248741515 -0.3226931126725055,4.245329990514488 l-6.355411003680551,5.493995907956168 -6.9087050089933095,-12.57057425147025 l1.1277681453204635,-15.979163641969482 -0.11742387685285673,-9.83882608736986 l1.669094806247799,-4.162594052629702 5.78945064082913,-2.080469053016165 l-5.335953629212381,0.22855389499998102 -6.464205517746691,5.261938176583021 l2.508329935219632,6.066441153327278 -0.6002729840217225,10.79875738396272 l-5.362116744920924,3.367063426039967 -10.665679145219782,-10.90254206638597 l-5.995651147689906,-2.860688437348943 -2.938197002482014,-2.0620617843276356 l1.4629529361514282,-4.090355458365538 8.898460753513596,-2.3157660703353242 l8.642385072290468,-0.40003406640946315 -2.690451628902931,7.437691215603324 l-0.025385035125887443,7.431280037699753 8.051893592451108,0.95308382538517 l1.0623945092226228,-4.969112575926847 -9.004388129991002,-3.385756279887632 m-7.994779766037954,-13.242397861897835 l-2.230069594694103,-8.341754734292122 8.158781829390596,-7.773544527960636 l-0.541877290149397,-1.1618700116736373 5.343912393619204,4.442851550692233 l-1.8385950794407946,18.377524871226576 -4.5093492781897,5.712181016926976 l-18.37497701358459,7.2361204444300995 0.5237779849903745,-9.663060935683475 l-4.673029887918868,3.5979043850449455 -5.057981908756523,-0.2378933406657327 l1.2682889358421028,6.057696580845473 -0.20877585089218653,2.4263901329566204 l-10.399757659567605,7.7139345178484335 -11.877261909638085,-4.26323287829721 l-4.7184435874988795,-2.1248989878931206 1.4735213050659726,-4.953486819310796 " fill="none" stroke="black" stroke-width="1" /></svg>