<?xml version="1.0" encoding="utf-8" ?>
<svg baseProfile="full" height="247.54872486117102" version="1.1" width="207.98599052381013" xmlns="http://www.w3.org/2000/svg" xmlns:ev="http://www.w3.org/2001/xml-events" xmlns:xlink="http://www.w3.org/1999/xlink"><defs /><rect fill="white" height="247.54872486117102" width="207.98599052381013" x="0" y="0" /><path d="M25,187.53519754523342 m0.0,0.0 m7.366612636851855,35.01352731593761 m19.76719310490621,-50.573107330698555 l10.620366198785446,-5.524632022599683 34.43392728538214,-62.93992414214672 l12.5455239637468,-56.639634651402595 5.5909293965161915,0.21506262393330136 l7.880124146036299,6.799407832236144 6.0611896597741,5.014130640768318 l6.850862398062871,5.707945333135031 9.661159976377212,5.89823723147816 l7.9237100838635355,-1.0745804009888003 3.9348860305050404,-3.525873397872492 l4.224085348507195,-3.7903437530322828 5.4975206153112826,-2.4970353182189835 l7.5191181105293365,-2.1082623108481156 8.108781568654607,-7.8346684708012555 l-5.248751289712978,-3.433688598011747 -11.625002783424184,-5.8781510780410855 l-5.583952113023322,0.6400156695155335 -9.546498377124319,4.54185948767522 l-16.177076759650088,-7.334120861505971 -19.834853068337683,-4.127870596152035 l6.322263345224033,-7.724017992767414 6.739285647867968,-1.3594727548250278 l16.038753104307844,9.231717200280787 0.6681492237743991,5.069706223283242 l-1.0786242144188753,13.28359875679082 -10.36431154939585,8.632201767794498 l-1.234710846252891,1.9242918177523698 -14.416250197541677,0.6567355856848608 l-15.58912478335965,6.933520652563654 -15.782451230276866,-2.705643763784098 l6.257419363892423,-2.33314099640866 3.170680612998261,-0.3318614110281701 l-2.200300996930505,-3.046143991184732 2.016134001532565,-1.6390799259163913 l12.529338273343917,2.2700386668073547 11.46903043388345,-7.50447955925178 " fill="none" stroke="black" stroke-width="1" /></svg>