<?xml version="1.0" encoding="utf-8" ?>
<svg baseProfile="full" height="163.6221379444781" version="1.1" width="170.4770147166974" xmlns="http://www.w3.org/2000/svg" xmlns:ev="http://www.w3.org/2001/xml-events" xmlns:xlink="http://www.w3.org/1999/xlink"><defs /><rect fill="white" height="163.6221379444781" width="170.4770147166974" x="0" y="0" /><path d="M145.4770147166974,138.6221379444781 m0.0,0.0 m-20.181441063857317,-25.253876489414452 m19.840055013097203,-29.34618693204973 l-6.399691913282802,5.015706937043459 -10.592023843590605,1.3800729095266333 l-1.6030545878501916,5.268608531184564 -8.5063921773295,2.7299469114642805 l-5.143807831493961,-4.671620230062294 -0.9551690313374189,-1.5436038358057727 l-3.603477991337529,-2.4376974732345262 -4.3918543088868995,5.154189209331377 l-4.529069806928492,-2.9259665497660845 -3.297940959544724,6.468062256691507 l1.3880896480833118,4.983245023628111 11.053250631797313,-14.208285595862039 l-2.164142714503535,-25.682820127298935 -7.551817063151352,-9.279857670152463 l-2.1634615482986774,1.8059347182518448 -13.369974367873766,-2.0674556351146145 l-3.8193651437123215,-1.0178091632935748 3.6758852488998337,11.916446595984374 l12.790589866604407,10.750582000885649 -5.746934990721053,-16.507173587716508 l-6.132918090157912,-6.168558525012388 5.488857666454785,-3.057934909464145 l4.025495616566406,-1.9865981065613858 -2.100238467292793,-6.846016155211949 l-1.2897382146529681,0.6131679702233898 -5.229311173374329,5.3107557026700265 l-5.006963723576134,1.7125534912360691 3.5093459890899394,-0.6823460969114342 l2.0632524441023126,-7.267938164143992 -7.848197324162293,-5.327894411687478 m-41.463125407370995,-8.377718955460578 l-11.221725097105328,-1.5138238549511374 5.50483607103228,-0.5602277334238822 " fill="none" stroke="black" stroke-width="1" /></svg>