<?xml version="1.0" encoding="utf-8" ?>
<svg baseProfile="full" height="152.2106489515513" version="1.1" width="198.53623108883087" xmlns="http://www.w3.org/2000/svg" xmlns:ev="http://www.w3.org/2001/xml-events" xmlns:xlink="http://www.w3.org/1999/xlink"><defs /><rect fill="white" height="152.2106489515513" width="198.53623108883087" x="0" y="0" /><path d="M25,127.21064895155129 m0.0,0.0 m7.960669194564161,-10.132462806614404 l16.358172822245027,8.944606361320737 -9.55368185552076,-74.00381038848924 l30.152000822631766,-20.138175261267833 -9.615494010057267,-6.880806856500552 l-5.6494384537508235,0.13342469905760385 -7.080879365278205,2.9126996711197264 l-1.6125061359172044,8.099976807005943 -6.521979319023879,0.9788328381096886 l6.109983892886933,3.9310895335110008 6.934470327941564,2.2800112828421537 l7.15378211291829,-1.3347852570942793 5.828808594428391,-3.8084255004528664 l4.610658155012363,6.279649418844624 -0.2770556771205964,10.435392009341319 l-3.3660536438026125,11.113796017697911 2.2382971913813057,4.305970590932324 l4.1936546245840205,0.8225379390770889 5.642947517370144,-1.095334349117749 l5.2106893333628275,-5.455191094544134 1.9706559386001945,-3.2583336758719987 l-0.19117315865236273,-2.9399573894082507 2.6779878604863083,-3.220878347988073 l6.64665786748029,-2.103778435098646 16.69681481037817,-3.467735080367043 l4.858771444644303,1.1265806399693863 1.464418250956262,4.859341517843663 l-2.2250095540183437,5.1855583818034985 1.4255916554778685,4.343032097968981 l6.05713551649529,7.5062251593972995 2.2426815776280615,1.848031276112662 l15.710994905879316,2.7854888845790446 6.863069025678886,2.9312682133646972 l1.8017050368777228,2.959217510953719 5.4774696549100055,1.6039557701753764 l6.776048168115226,2.6128394702291566 4.8186143310714,3.7913121362100926 l6.746751627966821,2.7927063526892804 " fill="none" stroke="black" stroke-width="1" /></svg>