<?xml version="1.0" encoding="utf-8" ?>
<svg baseProfile="full" height="124.86650727515467" version="1.1" width="107.20459930369648" xmlns="http://www.w3.org/2000/svg" xmlns:ev="http://www.w3.org/2001/xml-events" xmlns:xlink="http://www.w3.org/1999/xlink"><defs /><rect fill="white" height="124.86650727515467" width="107.20459930369648" x="0" y="0" /><path d="M25,62.20679960618438 m0.0,0.0 m25.84291009068778,31.42900138673862 l0.4572419655192476,1.0005035341984947 -1.3210619804422534,5.2302027480331885 l1.8974485625128268,-5.009530040345178 m1.7732393184207684,-17.611050367777317 l-2.833236312568329,-11.299064521882125 1.9605387081557493,-10.768988267016061 l8.28501074834899,-2.1576830292586733 4.80644611963855,-2.0530057384298304 l4.717906764948906,-0.07010131186712608 0.25761314371190475,-1.726610860430881 l-3.7273631277949675,6.061843383056429 m-7.85211693149712,-3.784970725402884 l-10.354660282585959,-9.411165464780897 -4.624911082046099,-8.545327680752402 l-3.2977850802947977,-5.474257396380559 -3.603797968426608,-1.721287341464447 l5.556063588553739,12.139483648441205 m15.961272636453833,1.1404587058966542 l2.322524199668703,5.057886290318794 2.1017593014416294,-1.5496146133726485 l0.9633953153484881,-4.169363376502486 3.530170656290604,-0.7219078603610718 l10.235009286265973,-0.5158625113762368 3.0311707339583758,-6.499249656773856 l1.1198109294265413,-0.024112809392792256 -1.7555891645536341,0.6285983844089477 l-3.9447912118683357,3.896199782704842 -8.650732973914597,1.5979519566389289 l10.596072338508199,-12.275775853053021 -3.7884244657342334,5.940945063280969 l-8.821046595304876,1.8876300487550137 7.3585446933052685,6.58277494949705 l-11.377399558394835,0.9894349107548613 m-14.10957150587364,14.330921691166449 " fill="none" stroke="black" stroke-width="1" /></svg>