<?xml version="1.0" encoding="utf-8" ?>
<svg baseProfile="full" height="111.47443024577316" version="1.1" width="115.63848450138855" xmlns="http://www.w3.org/2000/svg" xmlns:ev="http://www.w3.org/2001/xml-events" xmlns:xlink="http://www.w3.org/1999/xlink"><defs /><rect fill="white" height="111.47443024577316" width="115.63848450138855" x="0" y="0" /><path d="M69.28464139304765,86.47443024577316 m0.0,0.0 m-23.1846059717538,-10.221201770935501 l-2.927762350122669,-7.211226195532873 m2.555662446261131,7.686529544860119 l-8.926076179005179,-29.719998572000357 7.417859506718387,4.525332324335271 l4.876041752260086,-12.013153469927262 -6.707720236605726,-5.33999790253775 m21.5147213469648,10.436419316920519 l18.853134828292017,-3.4682623851869274 -2.5017283990896,-1.271878805423149 l5.266850370095373,2.7891985768332095 -3.009442942836593,1.5069497761826367 l-6.437076641512111,0.28677197309675645 -2.042576015436211,0.858241115732061 l14.723943844089474,2.7765280161398476 1.8826177500215229,-5.643224080616524 m-38.01232570461131,-17.36602319883125 l-3.399697853481248,-0.08543450888200535 -0.182180097286404,1.0380457169217134 l0.02597500446043034,5.309966098007148 -9.380484751521339,3.826856000959196 l5.1806991835807015,6.428275926402125 13.033101131484408,1.981329953493937 l-3.943258525109684,0.4534586834965427 m-18.532927494866048,5.694739543913718 l-10.427385394038062,-0.9856878096859297 1.5231090221514536,-2.0586041142993974 l15.141945133230053,-4.139730788864027 9.179602048833644,9.50361605798971 l3.812019088163542,0.6241498816186871 1.5198790187935878,-0.3308368221793845 l-1.7499172101740383,4.922317326806554 -7.207652542344742,6.677732765335338 l1.990650271673724,6.428740037728807 4.069341256337034,2.9475490633178247 " fill="none" stroke="black" stroke-width="1" /></svg>