<?xml version="1.0" encoding="utf-8" ?>
<svg baseProfile="full" height="90.52748870357144" version="1.1" width="104.40445092592793" xmlns="http://www.w3.org/2000/svg" xmlns:ev="http://www.w3.org/2001/xml-events" xmlns:xlink="http://www.w3.org/1999/xlink"><defs /><rect fill="white" height="90.52748870357144" width="104.40445092592793" x="0" y="0" /><path d="M25,42.03585201948644 m0.0,0.0 m31.694483792854083,-17.03585201948644 l-6.257242127144602,24.496829825155405 1.3735990553270807,3.3806486490180236 l5.378760103919396,-1.4799514327721075 14.558580803427459,-5.513447631912531 l-7.138227460881561,2.8983664102290163 0.39489585391389553,1.6953114714787554 m-14.048031302482448,1.6161328112046274 l-4.03047750421297,-4.926735750281148 -7.234356739947352,-0.412527993420716 l1.20181015832795,0.3706597266607911 2.8884641261735653,0.6872592807763639 l11.898358831548563,5.167529066067009 7.149924343400533,2.4341976766715816 l-4.501925353383053,7.152754074434133 -11.956869481186244,2.960462520262242 l-6.661108434010719,-5.781506788346175 -8.294423486702064,-6.400378366510335 l-3.7261547933690573,-3.5279209952881865 3.032156994501981,-3.567931042458675 l14.996711934172437,-6.382419516923459 16.329649940931407,-4.844940136644509 l8.282763142984246,-1.7617908103260995 5.818264575206469,0.7587144322472417 l3.254843952558936,-1.565932390105288 -1.8997892946900758,0.9991217802743318 l-15.849799311209498,1.5365268148149014 -4.389706228850381,-2.4666117991335064 l-3.729505214076456,-3.069515990400148 -8.114637625820858,-1.0795760449250975 l-5.918656539477174,0.7838438766593243 -1.2746463468768943,2.5281021066911102 l4.270566403433235,2.7093589484074223 9.07568534277264,0.30845795911886636 l15.671450021996298,-4.81462609455195 " fill="none" stroke="black" stroke-width="1" /></svg>