<?xml version="1.0" encoding="utf-8" ?>
<svg baseProfile="full" height="230.25726929837373" version="1.1" width="156.86191048838725" xmlns="http://www.w3.org/2000/svg" xmlns:ev="http://www.w3.org/2001/xml-events" xmlns:xlink="http://www.w3.org/1999/xlink"><defs /><rect fill="white" height="230.25726929837373" width="156.86191048838725" x="0" y="0" /><path d="M83.20888594526043,166.04488844578128 m0.0,0.0 m25.021873243262508,37.76025573554298 l-0.25681394287620646,-2.019396535216626 7.655698716957878,3.4715216522660812 m-2.41866676774132,-49.07798330509266 l-10.842991531384635,-10.373859306867494 m29.493924824908586,-2.083938916588588 l-6.866432753789322,8.718980132220189 -19.616854567220177,-16.693348089243997 l-1.418832736636832,-0.537177462839773 -3.568656865569942,-0.5156768360050753 l-3.6597936106808584,-6.855716597327066 -5.672044438724853,-9.614846062718513 l-4.5927105186632335,-4.0557030497059 -0.31804552315543144,3.7145098116601036 l9.050634011568086,-2.350125105598741 -0.35300282266949545,1.3037147997110559 l-18.097780476286875,-6.765717575896419 -7.708293176701361,-6.5447134585727795 l10.094772635148606,-1.692434261323716 4.408590229786567,-4.447178927311597 l0.5572116280832029,9.855175686340973 -7.5976707386944575,-7.2755837111073935 l-5.059739146679023,-10.433289808850041 -2.5205152903881856,-3.818398962291725 l4.714255000100449,-12.01520439861715 -2.2140498371265416,-7.177900307355434 l-3.8743573155881643,-5.787309359432713 1.0845844641271003,-16.77441081588278 l5.493515370490989,-7.585410266133479 14.194732814203604,0.30663103344091974 l-2.6075806294291883,5.143381557673335 14.558350249078979,7.61505559817724 l1.9176891884861413,-1.7061947375589899 -17.844662257661728,-17.82461724441346 l-15.9698754003331,2.704619827037089 -2.6989307870433055,-2.1692678953301114 l-4.594008389195136,12.414159446055017 -12.170533260703124,6.710116076010029 l-6.391958451037563,-24.397335516004073 -8.625361243493602,0.557788340539195 l2.443405573631698,-0.7280596291692067 m-11.33796141562117,0.23434751215170913 " fill="none" stroke="black" stroke-width="1" /></svg>