<?xml version="1.0" encoding="utf-8" ?>
<svg baseProfile="full" height="218.58137769727963" version="1.1" width="135.60660510386134" xmlns="http://www.w3.org/2000/svg" xmlns:ev="http://www.w3.org/2001/xml-events" xmlns:xlink="http://www.w3.org/1999/xlink"><defs /><rect fill="white" height="218.58137769727963" width="135.60660510386134" x="0" y="0" /><path d="M63.51919157681791,51.36016362470096 m0.0,0.0 m-31.874426911976386,9.311194069173698 l-6.644764664841523,-3.7750605458024977 12.794183051008776,-13.099465555175035 m8.868191281697735,-7.627342672131747 l-21.644129022972614,4.962161271642299 5.339059564326869,-15.91171217139915 l8.99486802993937,-0.21993802100852833 1.4107343782299737,4.835744246392946 l11.266681615722645,5.372250019663781 10.764641221792917,-4.198719491012001 l4.600360370658536,0.044649386311417655 2.9828945956305972,8.893093285544307 l-1.7955228831316699,5.246142424044009 -8.229611448921643,-6.014053957061138 l-10.768256387079695,19.54306593597721 3.4485477684298607,8.636899105204582 l15.501811093085456,15.133318305951395 -4.137659970137431,15.906159960091939 l20.326169657215242,0.8474850616552931 10.482619554923872,2.836625076805707 l-3.4290849611448535,8.442373503262399 2.428812304187081,9.243559206144768 l1.3753996305844174,4.202566420003155 4.107596151203488,8.017579842585544 l1.4622882879625998,3.0911900855575625 4.912189451439846,-3.5224633393063263 l4.543821769209962,-4.902337811786594 -1.0683481336036966,-2.386999778520952 l-6.659616546828713,1.5309393277086463 -2.2495611444944785,4.581521892637023 l-0.059731749214180785,1.2630555713459128 -4.019774592122207,1.120931288837105 l-4.9776688500070865,13.684067336915913 -1.245831632447434,9.877527075166821 l-4.619209683468935,17.452857903780217 -13.465539541130216,19.802349813379 l-17.48103270511204,-19.94147652042418 -3.861244328963611,-11.501595055673853 l-5.275321397294837,-11.223482211484948 -2.850313776101497,-6.563932681970511 l-0.9526828870546846,-5.261916288115091 -4.967018343979068,-1.770637154463475 " fill="none" stroke="black" stroke-width="1" /></svg>