<?xml version="1.0" encoding="utf-8" ?>
<svg baseProfile="full" height="171.2526550131423" version="1.1" width="147.55018905915392" xmlns="http://www.w3.org/2000/svg" xmlns:ev="http://www.w3.org/2001/xml-events" xmlns:xlink="http://www.w3.org/1999/xlink"><defs /><rect fill="white" height="171.2526550131423" width="147.55018905915392" x="0" y="0" /><path d="M87.97522066033613,93.52607610589892 m0.0,0.0 m-16.85708748293693,7.532811840820954 l6.948841851742126,45.19376706642241 m12.290494122501089,-64.8595021556524 l8.582116434888661,-6.934837256711603 3.9608257998592666,-2.7069020782325053 l4.891988755630055,10.545754355973122 5.34529904688607,23.099553570467577 l2.995092166347134,7.891172551747068 6.016172166208675,7.1741185121213045 l0.40122553769163294,4.277345435062814 -0.9300926949778004,-14.904286873778124 l-11.169209672758829,-24.674038655473183 -2.540854106396036,3.776738296519533 l3.486759308641172,12.669958763677641 -13.03595540005932,-3.4523258380878197 l-8.111967836165395,0.23944659138742996 1.668279235807033,-4.8863570140317565 l9.003194028300403,-5.088507149713506 9.090865011914019,-0.8493319218308163 l-9.433034990304817,0.9848749628023264 -11.933985990773705,-4.108570937665499 l-8.67576447526711,-2.4295195580839803 7.07473195900469,-14.884603517574684 l8.190773300875959,-4.718065622520058 1.9600368441060858,16.650106053061066 l-2.2409829355838338,9.746699619169146 -4.813522206890184,21.086811076366317 l-7.5050100938272255,19.01045394712204 -25.590698609371064,-8.232828938878749 l6.123985201394757,-22.789687711849098 0.5116247134391438,-12.410639141680646 l-1.88016863984954,-6.542003254444408 7.795768492121256,-15.341510567940956 l-2.201020755968343,-14.472620218936537 -42.393938746565226,-24.11955033553335 " fill="none" stroke="black" stroke-width="1" /></svg>