<?xml version="1.0" encoding="utf-8" ?>
<svg baseProfile="full" height="130.24821736998274" version="1.1" width="139.60366982036274" xmlns="http://www.w3.org/2000/svg" xmlns:ev="http://www.w3.org/2001/xml-events" xmlns:xlink="http://www.w3.org/1999/xlink"><defs /><rect fill="white" height="130.24821736998274" width="139.60366982036274" x="0" y="0" /><path d="M95.36452691653983,102.30349060912425 m0.0,0.0 m-27.844575490183615,-34.88733866513513 l6.088111939835737,-5.276159931633688 10.824983702496445,-4.27517796576006 l6.168954336877036,2.2952781353986915 3.548922010060734,7.96701960148048 l3.681101918790578,5.311227408434835 0.739137729596957,3.299109726817441 l0.6495389244646856,4.681377834450037 5.048171776694306,4.653057716571 l10.334796055190038,0.33885370948503246 -1.1316186812857756,-5.418905227644377 m-13.191213869764352,-8.363040686944876 m-9.370856618146524,-6.105708008492838 l-0.7047845997359626,-7.530325547339533 -11.373531202684305,-8.30722791209791 l-9.92251474706497,-25.68553079671336 -9.16174004303393,14.24767946511981 l-13.180651372927647,8.918893138813479 -6.58005465767693,5.4396027889023495 l10.98536147816799,1.015282084632122 10.724345447838678,-0.21897355121432288 l2.9456386155202594,1.0631178972677977 -6.664709224254706,9.525101722179613 l-5.364523718574899,13.818557179328856 -1.422049991246308,2.6270279496968385 l9.622731677441706,16.501957148302264 -5.330719333577221,7.309971546953957 l-7.9572603034944445,-1.8651930804550299 -0.35544620377515046,-2.2001918455349037 l7.291618723667754,-2.912508084823336 -2.1929700172264552,-0.8781756341931554 l-6.4817810766945465,-0.439877029433217 m-11.444646579386683,-8.897154918856659 m-9.342293522448287,-8.774408532136105 m0.4586693569304656,-23.447900271949305 " fill="none" stroke="black" stroke-width="1" /></svg>