<?xml version="1.0" encoding="utf-8" ?>
<svg baseProfile="full" height="142.33898356251171" version="1.1" width="118.9958460939613" xmlns="http://www.w3.org/2000/svg" xmlns:ev="http://www.w3.org/2001/xml-events" xmlns:xlink="http://www.w3.org/1999/xlink"><defs /><rect fill="white" height="142.33898356251171" width="118.9958460939613" x="0" y="0" /><path d="M81.3615236333941,71.780955504538 m0.0,0.0 m-21.617588907921952,-12.568114744392501 l5.436770266575023,-7.6285471381198455 13.3859332483578,-3.2801536592057268 l2.5496053992591974,1.4566384417542844 11.484412858643086,25.014054352992037 l-2.5282279163216046,0.5370585902202855 3.923417511975654,5.1813955760109875 l-1.8912372162998914,1.7071766188415476 -13.86840297987107,9.883103517825159 l-12.274362327239187,3.769160275120249 -8.125065860740964,-2.2499223245444453 l-15.30970634829836,18.823807200383413 -9.229195849810198,2.0798086386408654 l3.429936384252429,-6.243091175393197 -0.3100426041968994,-3.0409819331183634 l-9.329841342637458,2.813558835137798 -2.087927949119701,4.09870799965209 l0.8632914449720391,5.204368986169086 12.796124146128843,-0.06684068496903937 l-2.326498331226886,-6.903104579106809 m14.899116546572282,-21.38928755937309 l8.235817023860244,0.16755928741659626 7.438345351321097,1.9261130536224593 l-3.1808947092235984,12.53437651541955 7.518965454649331,7.342464978984147 l9.035432958071782,3.3240778658415926 -4.615577707356458,-4.077556396164364 m-9.12400438870152,-44.766072625253024 l0.4841429161706302,-4.484260777423473 -21.13542076224079,-19.49335085241256 l9.117342230068276,-8.323951681429307 -3.6037403330130013,-6.0714554322106125 l-10.914308284689174,-2.0576946754538024 -4.661925368836464,7.1385695607872774 l1.7179547397481314,5.837302805877704 " fill="none" stroke="black" stroke-width="1" /></svg>