<?xml version="1.0" encoding="utf-8" ?>
<svg baseProfile="full" height="141.992547721954" version="1.1" width="105.89625357267523" xmlns="http://www.w3.org/2000/svg" xmlns:ev="http://www.w3.org/2001/xml-events" xmlns:xlink="http://www.w3.org/1999/xlink"><defs /><rect fill="white" height="141.992547721954" width="105.89625357267523" x="0" y="0" /><path d="M47.41040469519851,69.37999548192269 m0.0,0.0 m0.6501666744327889,2.130846503254685 l7.631050495462356,3.084963185331242 -2.4126720658272816,0.2939358919689805 l4.027146382481437,-9.866109633501091 4.95851716532062,-21.32022536694719 l-6.763473204860492,-13.209935930128127 -0.9298155276227321,-5.493470131901184 l4.335017312715605,3.1577682097780415 4.039245028696471,-1.3018000480256253 l-6.01888655876186,6.014067057658665 -0.572081414378412,7.358550788896712 l7.775817482706855,25.605251632841863 5.69020938043016,2.619397383463 l-5.106745107650897,-2.43433021181555 -0.3471402656684164,-1.6782062021938304 l2.283312713681155,7.209566141043598 14.246180386319374,3.0582175816386257 l-0.8281004921208298,-0.8053711388777366 m-32.072431027628895,32.93270024980886 l1.5219921981225466,8.091846993021614 11.286574968284762,2.1648892847157755 l7.891504220737147,-2.5563861817845566 -6.375943719024824,-5.18174014282693 m-24.13126035926647,-20.6966720001741 l-0.8957070782629613,-2.730045782493856 7.132921463688066,0.9115798065079339 l4.189117056999694,3.981758311330093 -2.7381995118746625,9.968115548391939 l1.0957278931589238,8.001984465941824 0.1485885971695367,1.7404966332151894 l-3.7748207946534293,-6.77899912858367 -9.09912305066435,-7.273265641902427 m-7.907156788433376,-5.6593886461187735 l-0.39278385502549584,-6.547073412320472 -0.9471532938806194,-8.637089947161517 " fill="none" stroke="black" stroke-width="1" /></svg>