<?xml version="1.0" encoding="utf-8" ?>
<svg baseProfile="full" height="166.252877592574" version="1.1" width="169.69837876309995" xmlns="http://www.w3.org/2000/svg" xmlns:ev="http://www.w3.org/2001/xml-events" xmlns:xlink="http://www.w3.org/1999/xlink"><defs /><rect fill="white" height="166.252877592574" width="169.69837876309995" x="0" y="0" /><path d="M28.21026331808636,131.06175409522498 m0.0,0.0 m25.233173603947243,-10.943524382269514 l22.29171238365592,11.731834960749696 -1.7852127029545894,-56.129274843858425 l3.1870701522368075,-1.1627778886193756 -3.4231502507548397,5.561535543555989 l2.9034678540509127,11.390422822465839 2.207375713599539,12.840535681959144 l-3.5817249995589537,5.8165864595647605 m-32.74911138580284,-33.68766709320582 l-5.75489526291004,2.1335051291029905 -0.7055229053606127,6.5298768575880635 l4.987197157724276,17.31344542285645 4.874522331466206,9.528431173328677 l-9.036259067143074,7.698771723965178 -8.997920067658121,2.9689850769611352 l-2.8609858726242003,-12.45566524516738 0.5501233763555848,-15.35850670873168 l12.576849972162531,-8.221043217434813 11.595674812681386,-3.780010520653359 l12.546635323626182,-2.517211535138669 20.048199473310813,4.084449642276786 l6.679029866592003,4.885408052528588 1.2172841519914235,-0.32445429251201585 l-0.9090061587838374,6.68122039337857 -0.03288209621201299,5.527786783394043 l4.166141055720418,9.818564857880748 4.478840326085148,5.603209734318654 l5.003251615044226,6.443481852774116 -0.6545615042242503,9.001050628367576 l8.902512274055363,9.212156427923066 3.6410393346294634,-14.701808791138923 l4.287293126264079,-13.190107304374719 0.3086808738367147,-7.6322704524377905 l-6.963756491815373,-20.018556781854166 1.9987795970183468,-5.214444169995438 l9.214605751005385,-3.07364123103986 13.204844339360108,-47.18208145288372 l7.838799744396225,-5.239967408849391 " fill="none" stroke="black" stroke-width="1" /></svg>