<?xml version="1.0" encoding="utf-8" ?>
<svg baseProfile="full" height="317.38205251769597" version="1.1" width="137.15355557688997" xmlns="http://www.w3.org/2000/svg" xmlns:ev="http://www.w3.org/2001/xml-events" xmlns:xlink="http://www.w3.org/1999/xlink"><defs /><rect fill="white" height="317.38205251769597" width="137.15355557688997" x="0" y="0" /><path d="M74.3570674655058,292.38205251769597 m0.0,0.0 m-7.645177691366439,-61.23506364590491 l5.409723952333151,0.2292021079701223 15.196696235843504,-0.7189861887476813 l-0.6764052791921848,5.442676840437728 1.0701841821558715,4.146877541307872 l10.754262773001487,3.0881550896732404 13.548901393033143,0.11105472641407477 l0.1383025455756129,-6.165200793645661 m-21.538225245903345,-38.07431387377989 l0.18342757966138684,-3.2431054901725744 m-13.52749250141518,-33.055845036125135 l-1.0945004926397244,-24.81179091322362 -4.280178872172662,0.2490075361433059 l12.302958089609437,-13.76683000370492 -3.3200231846002226,-26.229556810179535 l-6.092100720336888,-8.976007562325968 -2.0495222628092225,-3.648780159196661 l4.768357943764602,-6.285483478316923 4.852424290694394,-6.681114973030578 m3.139145817693436,17.53403329593973 l-12.127506738352295,-8.40661020144165 -6.169363530579866,1.2198289978669776 l-0.7298009701577113,-3.122840779390444 -1.3698806867917683,-5.63361159028019 l-2.628317832297926,-2.8870417442678376 -4.318504515467562,2.833634738049966 l6.867555972133582,-0.6401790861915424 -13.628039895473204,-6.36545890938911 l-0.12973347613642106,3.734038935848908 -5.02654844340374,-4.046290051646234 m-0.7214694763353946,-29.555913936487155 l2.3916676438673687,-7.211542821982901 13.294422999157291,-5.208994277916738 l4.634887157474358,5.6357071146673405 3.3636947919702367,5.166977509187745 l-6.74107021869297,9.43278313316915 -10.822770047286875,1.9737876337331843 l1.8362731460784676,3.2230591359146223 -7.727420687501012,-6.866925063054443 m-20.74590121064051,44.308988521369464 l4.8953380867933625,-0.17758626567795993 4.83889042644799,0.06853774472396629 " fill="none" stroke="black" stroke-width="1" /></svg>