<?xml version="1.0" encoding="utf-8" ?>
<svg baseProfile="full" height="114.4453889492024" version="1.1" width="116.38941441782146" xmlns="http://www.w3.org/2000/svg" xmlns:ev="http://www.w3.org/2001/xml-events" xmlns:xlink="http://www.w3.org/1999/xlink"><defs /><rect fill="white" height="114.4453889492024" width="116.38941441782146" x="0" y="0" /><path d="M37.41967794750312,73.74889003186692 m0.0,0.0 m6.290726556626442,-46.837692213663274 l1.9423281712187748,2.7606923151736686 7.1619400306622545,3.904740945552161 l-0.20470725169562776,-2.054971346648755 11.119565717592385,-5.337655013951242 l4.287619028961442,-1.184004718329487 -0.5146679737432872,4.600185577489379 l6.470683595965601,4.545338013425155 2.3295647705381697,4.040733959125369 l10.857267635599047,3.6764336598295997 4.229416188593138,-1.401105687071769 l-5.018514204983325,-4.920835180631108 m-41.302729852006706,43.82881983631745 l-1.273325101867065,0.9573144856083047 8.890880196721225,-7.634316984244724 l2.4652912827906457,-9.196956365081961 7.3082774748672685,3.5182864177555717 l-0.13619185041977727,3.3220182947667496 -1.54939503078232,4.294446618802485 l5.064118453421282,4.348924572206112 11.854945469250648,1.1476010862574826 l-0.7940126864194861,-4.938828761607161 m-25.411850217839422,9.371411129751198 l-6.298110777968322,4.885918276504275 -7.622030660252508,-7.402093393527298 l5.664790569272654,-8.683328993075184 -0.3647364393945293,-0.8923806372448364 l-11.108869899674104,2.8333840794414864 -6.073611407400553,-1.18801768077329 l-0.6843397351370551,0.4513866941862144 19.728659273619265,6.4405296875140206 l5.187997273194731,-2.1885948942455036 -5.82524966520065,-10.79917722124721 m-13.441039533872429,-13.662702089322103 l-3.45934114337291,-6.367370230449577 7.865390257181005,-4.2529990435714105 l6.454121624100504,3.308755816947853 -1.2339162495725833,2.894377071211822 l-0.7603612931983589,0.3300598657625868 8.167118792206319,5.250796132342006 l-3.3239754779497632,6.749072150353383 -1.4096295434754214,3.79535564565768 " fill="none" stroke="black" stroke-width="1" /></svg>