<?xml version="1.0" encoding="utf-8" ?>
<svg baseProfile="full" height="260.8424885610304" version="1.1" width="160.19298463076305" xmlns="http://www.w3.org/2000/svg" xmlns:ev="http://www.w3.org/2001/xml-events" xmlns:xlink="http://www.w3.org/1999/xlink"><defs /><rect fill="white" height="260.8424885610304" width="160.19298463076305" x="0" y="0" /><path d="M38.0074933874977,235.8424885610304 m0.0,0.0 m-6.382418795061233,-106.16574111993363 l-6.6250745924364685,17.120600673988804 40.00097152993253,-16.466342912410887 l24.210852403130538,-13.363625177092256 -2.249889734949677,-23.726914608588256 l12.542140631085047,-4.425015716703566 6.304795401990237,-1.4989290557907349 l3.9941074182130962,-0.3131898249516872 2.641796093221318,-0.15890268248311065 l-0.40323102211584444,11.157785411423555 -0.7853432961947954,10.576871531683496 l1.1295036343244564,5.74568144836477 0.9826895107443091,4.497437576610414 l-4.688520968050231,5.999768042580656 -3.843309649073473,-2.528374824901547 l1.3179054220465627,1.4704429742129268 6.163501352366196,-9.519090560928694 l8.436020393622613,-11.8516193005965 3.9648181310425055,-8.329545930127637 l1.0779980797556692,-11.396846165337786 5.490277132558557,-5.173872548392684 l3.905902167113423,-6.526886372695221 -0.8745290741588058,-8.522675152647333 l-0.5171268391825495,-0.2073734328322474 -10.714446272600231,-3.4299098955588048 l-10.170106839908026,-10.390638867512411 -8.081104163869856,1.345340782662503 l-3.299644710288059,0.4510857049764616 1.8203922553962648,-3.6607642774251206 l5.424613972396288,-12.129537892856153 -1.2185094171494186,-3.945075122460011 l5.325203002603713,-5.476631265307685 8.18387349032454,1.1266847267361673 l-4.051089812707486,-1.0883134292798262 -15.620679428297848,12.942071146337963 l-0.8109657288528144,3.4036395290869867 7.911844604911644,8.334817872420388 l0.8595043672759828,7.22369655055588 " fill="none" stroke="black" stroke-width="1" /></svg>