<?xml version="1.0" encoding="utf-8" ?>
<svg baseProfile="full" height="153.8078493812323" version="1.1" width="104.72638987189973" xmlns="http://www.w3.org/2000/svg" xmlns:ev="http://www.w3.org/2001/xml-events" xmlns:xlink="http://www.w3.org/1999/xlink"><defs /><rect fill="white" height="153.8078493812323" width="104.72638987189973" x="0" y="0" /><path d="M40.40910000893262,64.30381715866812 m0.0,0.0 m17.402912811663967,35.045041075235076 m9.773427603435593,-19.478614805343373 l-12.222817043415537,-4.755299138054856 -5.980745862280356,2.0722808197287357 l4.482822620995438,7.295615124033624 1.4494483246187455,-5.296406480886103 l7.703349560081431,-5.98502287453521 8.69898307489063,-4.971219181633005 l-2.3986776293069654,-3.720688315880131 -5.3671739372952105,-3.4221489940124186 l-3.851096083846115,-8.48676612693013 -7.21787119344677,-7.061135262260561 l-3.401683249858567,-4.843791751909763 3.5348721491009405,1.437571506698418 l-0.48891442701899934,-5.909265754530019 8.80243929096303,9.610193696639682 m-33.30977920776139,-20.834160695028093 l-3.0185968104524843,3.806507878196972 3.4380335686283185,5.642623441267085 l8.952336020245212,5.513893406390966 5.011475547787063,5.00509814985597 l7.7137139155909455,6.872379701729683 6.839088110422025,5.107953580186284 l8.625914623264142,4.277688638170776 -0.059585258463936974,2.2254915142183447 l1.1346183832650363,0.40314848258357777 -2.5601251209093054,-8.926613305743492 l-2.3251016526242156,-3.4624214165066425 6.08841430681745,11.226420960672742 l3.447532240190019,7.898411506070169 8.420075187686978,28.255758651167557 l-3.3655934235206812,9.202377467653578 -5.853828469978351,8.117558553990095 l0.5890791967429629,5.7327524486911114 0.5226618709295502,6.908819722637552 " fill="none" stroke="black" stroke-width="1" /></svg>