<?xml version="1.0" encoding="utf-8" ?>
<svg baseProfile="full" height="131.30364693462175" version="1.1" width="131.48134304307277" xmlns="http://www.w3.org/2000/svg" xmlns:ev="http://www.w3.org/2001/xml-events" xmlns:xlink="http://www.w3.org/1999/xlink"><defs /><rect fill="white" height="131.30364693462175" width="131.48134304307277" x="0" y="0" /><path d="M42.42724249896873,25 m0.0,0.0 m10.11644397119623,40.93937237183008 l11.919582550138509,-0.8039571614926488 10.016892853467319,-0.6911070353257861 l-5.04303387130737,9.854764730937573 -6.793054134711776,0.8097789387968357 l23.97639655771182,19.327894526281234 2.4631393210888466,6.278702829302409 l0.4410436183869314,5.588197734292058 1.9642997741810875,-0.5369526800529701 m-30.98513804301917,-47.701874591928544 l4.899275259062423,-4.6999180187423315 -6.621852927094598,1.676458654044502 l-14.211361143980671,20.648232146869567 -11.052302507457874,1.1296745774454495 l-8.51757377663043,0.022292942157470796 m10.02037874662791,-10.105249726965422 l9.361689179992858,-0.8083024729517849 15.479512523607912,-25.136314071762673 l-0.4113062858846145,2.528649736873095 10.235240966752052,-1.2270969778152296 l0.440913356516275,0.964280856933293 -1.9381493306353899,8.32979117352189 l-3.060357715809893,4.06247056131624 -1.9008969981118233,-0.06653605510120592 l11.225269801853708,1.0754988219692767 8.646339745542791,0.11381999982794322 l-20.32023476187396,1.9555040264822954 -1.9979737830833988,0.5947318422692399 l-3.413387946196196,9.561077017826669 6.5268433712603935,8.005299834091423 l10.404943167100022,0.5426579302540444 9.416682234211102,-4.300171306532661 l3.9802565616932686,-2.5607935763432046 9.750596190197033,-0.7627494794624695 l9.03498401931273,8.660336454326844 " fill="none" stroke="black" stroke-width="1" /></svg>