<?xml version="1.0" encoding="utf-8" ?>
<svg baseProfile="full" height="110.76806590284028" version="1.1" width="111.33895439962258" xmlns="http://www.w3.org/2000/svg" xmlns:ev="http://www.w3.org/2001/xml-events" xmlns:xlink="http://www.w3.org/1999/xlink"><defs /><rect fill="white" height="110.76806590284028" width="111.33895439962258" x="0" y="0" /><path d="M58.91877156564159,66.75601238708123 m0.0,0.0 m-16.576650617087893,-33.18162817688977 l0.4039326820242817,-8.574384210191463 3.424026451954396,1.040746447417687 l6.396155884186233,3.297278146314777 -0.3605537171416375,3.1526940516917046 l7.529549736318446,3.1453217561759548 -4.102040306355745,5.062547301487614 l-0.6744372989676928,28.450224022728502 -1.231811715854893,4.279638916647747 l-0.5037140416587357,9.826527472602855 16.254616896781766,1.9884084369948518 l6.629556648855914,-4.392924074560479 -5.0677268689386334,-4.6062973581854845 m-21.86485721163083,-24.477632992224112 l1.08064082425185,-5.921946975060403 5.681755955055174,0.43218289731324255 l-1.6197383311639701,17.987926266954297 5.7069827198672485,1.2941415614025478 l-7.295698336388204,17.61559406120334 9.413975957501714,2.5936359639356334 l10.982418613489628,-8.077301659081417 4.565356584408372,-8.49272239318498 l0.07903643764123079,-2.7091956564969415 -6.229500274610389,3.4855138054242927 l0.8851149163092475,0.43229635317009546 13.913791245134103,1.652365194824244 l-6.1060341050841345,2.7118013552018385 -10.576954355348853,-6.425474664190346 m-19.011775933849844,-0.3711098937608803 m-25.64419000533975,-20.504678756985893 l2.0536638059498133,-5.957163241872601 23.90315457237013,3.4825496069284223 l1.1790960971232627,0.6599119184099903 0.5442788207893817,2.8653088067212633 l3.271744423800427,3.0025238126797227 " fill="none" stroke="black" stroke-width="1" /></svg>