<?xml version="1.0" encoding="utf-8" ?>
<svg baseProfile="full" height="176.30562223464517" version="1.1" width="138.38192129155328" xmlns="http://www.w3.org/2000/svg" xmlns:ev="http://www.w3.org/2001/xml-events" xmlns:xlink="http://www.w3.org/1999/xlink"><defs /><rect fill="white" height="176.30562223464517" width="138.38192129155328" x="0" y="0" /><path d="M25,146.08255180889032 m0.0,0.0 m17.371263361624642,-3.0800606311487675 l18.570245884520077,8.30313105690363 5.481105119886714,-14.624182011891547 l-30.32731978530548,-64.25159881825553 32.256976684591606,-11.002668836396587 l-15.542657708213028,-36.42717256810153 1.3849369149283208,0.8391903182546739 l-6.722063545624315,4.687390314837217 -13.57670639020728,3.1554329003499904 l0.7257834514611547,12.027276286824186 3.5077377881526606,6.2735259234103955 l6.384831440129735,2.612881898546416 8.311233550372293,1.881322279296414 l7.452435114785574,1.0106882296566477 4.431481785527331,-3.706391296415162 l8.053447296020716,-6.734308321043334 7.123624515528564,1.4845859939789836 l3.4072987188545842,2.5338687116657796 10.007730281415412,5.792991355055023 l-8.038650036262169,0.5094114189536125 1.3587515201293998,7.535300875224838 l9.580493152786188,6.363810696185879 8.048300569614415,2.6441213001179764 l5.608463366006089,1.385696405101973 2.953235833868453,15.243098038088453 l0.5699424069616438,5.272929338726124 -5.744517360534759,9.277946069889602 l-1.2754011882432617,4.641463492852125 -6.865808844369739,4.193901950153951 l-4.197722704127398,0.8810819106143523 -2.40496654373329,-4.1875732712460705 l0.585833772777728,6.046896789178886 -5.852843925032266,3.180596335064716 l-3.3534978172985777,-1.0238052076723003 1.5764789284309,-3.4267238811416965 " fill="none" stroke="black" stroke-width="1" /></svg>