<?xml version="1.0" encoding="utf-8" ?>
<svg baseProfile="full" height="246.5165930667113" version="1.1" width="185.6107146344802" xmlns="http://www.w3.org/2000/svg" xmlns:ev="http://www.w3.org/2001/xml-events" xmlns:xlink="http://www.w3.org/1999/xlink"><defs /><rect fill="white" height="246.5165930667113" width="185.6107146344802" x="0" y="0" /><path d="M71.6739595358004,97.78088476006099 m0.0,0.0 m-1.3576399996581723,6.147242872562632 m-5.977354615857118,-32.95591849797363 l-39.338964920285115,42.96393806769112 m19.308261838529077,25.41676562792979 l21.05574413226205,37.02292122346046 9.00602270707529,38.92099980666675 l14.568835592931254,6.219759206313196 m-6.063669394462849,-71.92996632089908 l30.382954114131344,-65.90701277562785 -6.3388421171980465,-58.67961397018437 l6.503645493026809,14.0644584681842 -4.794773446435069,12.045846440107034 l-6.2783763626325815,24.312831362015068 1.8425220776191327,19.985767580807508 l1.7101305017054629,10.300747713953934 6.181498195898715,10.105098675364307 l2.7012808841223848,1.9845137267531336 7.220519895128006,-1.443176457436976 l4.9855128488316,-5.997869227193259 -1.5055691970275842,-24.2789801705337 l-1.6253428924301478,-11.235473053849516 4.121950101557952,-23.91014858976846 l6.368960567754482,-7.962412372205214 1.8413066510056242,-9.503587592861388 l3.3184742546650594,10.342798412114222 0.5786912792126261,17.47554191900164 l-2.5814161348990528,30.881269099093316 6.981921180485326,18.508666318763154 l5.782516414054581,10.840817349566011 5.1694502402425595,10.051196258847298 l2.2487434027769884,6.172456987533892 2.919761806549205,2.687381937025557 " fill="none" stroke="black" stroke-width="1" /></svg>