<?xml version="1.0" encoding="utf-8" ?>
<svg baseProfile="full" height="168.04121436888272" version="1.1" width="112.68528353156876" xmlns="http://www.w3.org/2000/svg" xmlns:ev="http://www.w3.org/2001/xml-events" xmlns:xlink="http://www.w3.org/1999/xlink"><defs /><rect fill="white" height="168.04121436888272" width="112.68528353156876" x="0" y="0" /><path d="M28.677202784610085,80.25030805323595 m0.0,0.0 m10.00720519036638,-5.962091035717412 l7.944800637760011,1.082828769790473 3.708959431101194,-37.29795651430628 l3.164465048195797,-6.7594311230695885 -5.898921279784397,-6.3136581499331434 l-6.78151386703042,1.519691545007572 -12.284421243591146,4.6622733735970785 l-3.5377767016275032,6.469293012729227 3.3102240843521233,6.057312935410941 l8.058564758787329,1.1072134102060622 9.700073890436567,-2.724131228395517 l6.046741207941196,1.629875219479618 5.761893128517359,-2.5751030416574707 l7.302266929698542,-7.06488932055594 1.7098640958189448,12.295556192413134 l9.883859348395713,8.749155942043464 10.911796087620981,-3.281862481806217 l-2.6549926868382054,2.243136224694946 -13.007123577313351,8.522762804257203 l-4.953859247770418,9.77191644921413 -2.906867375000317,9.694083528475051 l-1.3708179187180352,6.463271710048502 1.5571028370239772,6.73665927475211 l-0.9156570501039218,7.775466031069896 -4.061827749251359,8.807761046624872 l9.122136522509464,2.8526897338848842 9.647868452313919,-7.921954128166 m-4.479252421712867,29.472979945674542 l-4.578615378196977,6.778056189880619 -2.8327645701477713,-2.8045913602054418 l-3.074535400842485,-0.44426658488220083 -3.13603212957298,2.879612426894399 l0.9597367118365446,-5.6291196628364615 -1.3259456799403635,-11.446727233413121 l-0.6135104468539099,-10.88447182671418 " fill="none" stroke="black" stroke-width="1" /></svg>