<?xml version="1.0" encoding="utf-8" ?>
<svg baseProfile="full" height="126.69645496187076" version="1.1" width="100.05084003311258" xmlns="http://www.w3.org/2000/svg" xmlns:ev="http://www.w3.org/2001/xml-events" xmlns:xlink="http://www.w3.org/1999/xlink"><defs /><rect fill="white" height="126.69645496187076" width="100.05084003311258" x="0" y="0" /><path d="M48.78658795657246,101.69645496187076 m0.0,0.0 m16.255095505384947,-13.903378137671657 l-2.8085332329762562,-22.419988288070684 4.290925555173675,-6.4336129797686645 l2.9287695216328045,-0.20367434661770656 5.1164500371441495,1.0062527188273998 l-1.591332907891433,5.9873756601667445 2.0728775980722256,-9.336641607077866 l-11.194895257583775,-0.5842116513259696 -16.86802336674907,14.167922313331896 l-13.558956250554452,-1.5421362377821313 -0.8307261323276305,-16.15490810657633 l-2.5863056422448083,-6.457169871645158 3.6029220705779665,-6.7628137659454195 l3.4095774761330357,-5.102638578367274 0.919679472134039,-5.378778249013772 l-4.574829629406095,-3.3128124348955468 -5.151000060367476,6.89744404023578 l3.061718991685157,3.516266203105264 7.26185479573664,-2.790469722617215 l-5.954531037537333,1.5714096353213949 -7.587325462608769,4.200050158195027 l3.884739497015888,3.758121496758027 16.650250998172478,4.4035770950454864 l-0.7991974683889999,-11.457656178140802 -7.101331914936836,-10.363984127341583 m-3.5110552605705503,10.974288468719603 l4.226953222593353,6.627582346250166 1.4642935199610978,3.9095509112646054 l4.241835318721913,0.8705623012942445 -0.6854286531284343,1.4601628322249394 l-8.580043941650045,2.292519046133053 -2.040247912221621,5.012513394584369 l0.056139150629317854,-4.385248524681879 -0.22523047444690747,6.581361712645646 l-4.24159818657961,6.666060174591113 " fill="none" stroke="black" stroke-width="1" /></svg>