<?xml version="1.0" encoding="utf-8" ?>
<svg baseProfile="full" height="404.45389324441123" version="1.1" width="170.14545582601562" xmlns="http://www.w3.org/2000/svg" xmlns:ev="http://www.w3.org/2001/xml-events" xmlns:xlink="http://www.w3.org/1999/xlink"><defs /><rect fill="white" height="404.45389324441123" width="170.14545582601562" x="0" y="0" /><path d="M25,379.45389324441123 m0.0,0.0 m32.00754493400537,-5.102805273498614 m4.906519558605648,-40.42507238388209 l32.09486127912218,-45.332359686803656 21.237368666246834,-36.24050299049321 l-4.36094571781435,0.23886386625890038 -0.608745437064405,2.773094960633152 l-4.586912634341642,6.403528370652631 -1.6885782989336495,6.272427433852865 m-23.416864097326744,-19.003218809192088 l7.572502384005306,-0.9477597790064614 4.571157795964902,-0.4241500979951641 l3.5336945130003636,6.217220547738885 12.365056689891173,3.6118733808502723 l19.16114300885093,9.088048480796445 2.5280156409166397,3.938331879265441 l2.875390317381997,-1.0427520246617517 11.95424722350505,-4.602625133515765 m-16.994921350527427,43.43003437574266 l-23.427038690773028,-7.309362524706016 -13.62345217867575,-5.077109848629955 l0.7652266089337828,-2.357981149446634 3.9879942771675023,-12.771783425043044 m11.023420650413915,-131.12297879909147 l2.615635660508122,1.073042427978086 15.397857628402617,5.875565747295051 l-1.7896533380468194,-2.619063320609848 1.997905868346901,-7.911050253550649 l4.808859755017306,-7.386178698556602 4.639736137028076,-9.758317112109284 l-1.4918240712940645,-0.21110263194946632 -8.85783342310377,8.194903799412415 l-1.2213395684015138,8.494669898301618 7.968119274032208,-0.880916689658402 l2.295809720454005,-1.320914686873213 -2.1876210884030334,6.059227286981463 l-21.024742800106527,-5.432369789352722 -6.742601952096369,-10.836838503380145 m15.083968029833771,-108.0075120881649 " fill="none" stroke="black" stroke-width="1" /></svg>