<?xml version="1.0" encoding="utf-8" ?>
<svg baseProfile="full" height="113.32247072750414" version="1.1" width="133.03018347166557" xmlns="http://www.w3.org/2000/svg" xmlns:ev="http://www.w3.org/2001/xml-events" xmlns:xlink="http://www.w3.org/1999/xlink"><defs /><rect fill="white" height="113.32247072750414" width="133.03018347166557" x="0" y="0" /><path d="M108.03018347166557,64.4633945356408 m0.0,0.0 m-30.658983902300687,19.080967851765024 l-4.661154786690635,-1.4145350441516547 -2.29836088143069,-10.379648269244463 l-2.261958628030018,-1.1670200217753643 8.916849007619376,0.3025302987093435 l2.919691718522627,-26.221617010844867 -14.778399764955834,-15.695351413711158 l-6.966960061340068,-3.9687209263876615 5.548078275751933,5.434919759259249 l6.932561754288895,-2.232731755866868 4.366006856228637,6.543775093991431 l11.04846225456932,14.340021976159218 3.915989193177997,6.273873400517824 l-2.5071545888256117,4.4322099016628 0.5433999036901782,6.344871250961767 l3.6403189944793155,15.011186706982077 -12.911045005786065,7.174344393836634 l-19.77826864146783,-9.394799763784997 -8.009305318369384,-17.15405520782926 l-8.476697258325046,-9.591034564590712 -5.62886117450702,10.93959859201886 l3.6590867603994113,0.8926734336928532 -1.3358732318455402,-0.5520379240701958 l-2.5731337920998665,-3.5562344056921145 m-4.3213551912721115,-15.870122034147967 l1.150871332837797,-4.470996107039542 12.311830991170176,-6.309122536246495 l6.687035310742467,4.497831773398283 -4.967485291892932,10.457062377516126 l0.6778758650768912,3.681394158152516 0.7139547431400606,9.69691028113481 l-4.7375813766339,6.703085495267174 -11.251908712402008,-5.036072188010638 l-3.557989432168193,-8.717555734361357 -4.379719393017203,-4.640033095822737 l7.38154740782453,3.0815342771744945 6.339982340600098,1.4336914139583559 l-2.071810132259966,11.464606367930571 2.1054537374278217,9.10562403977679 l-0.5379596647666327,4.243699731951359 5.653492142576136,6.165774408377944 l3.085224833245319,-8.67929281514619 " fill="none" stroke="black" stroke-width="1" /></svg>