<?xml version="1.0" encoding="utf-8" ?>
<svg baseProfile="full" height="206.98481045995305" version="1.1" width="156.2495470451123" xmlns="http://www.w3.org/2000/svg" xmlns:ev="http://www.w3.org/2001/xml-events" xmlns:xlink="http://www.w3.org/1999/xlink"><defs /><rect fill="white" height="206.98481045995305" width="156.2495470451123" x="0" y="0" /><path d="M131.2495470451123,25 m0.0,0.0 m-22.40843394016914,1.1249214725611445 l-1.316122217643051,3.6437142488344643 3.3325305150359554,4.091346049138573 l-3.9232819219243376,2.445997268152872 -9.451432486813736,-6.106006560714388 m-23.7688629712176,2.134172178596969 l-3.0111439149549857,6.566861333539676 1.151080293003059,6.615544947491255 l10.960250717323845,8.231398582898477 -1.6119781243434939,12.88996464939478 l-10.892379225746796,-3.3211230105981215 -7.099646765527676,-3.242684755509254 l-1.841787679946152,-7.844166879588708 -2.9264809492657466,-9.340316244652364 l-7.386177323114623,-5.874668938538715 -0.578471867644787,6.770756205230609 l0.5315909012883504,10.372595345116897 13.235984031701179,4.0928470850531555 l5.64600989026818,0.9486435870855611 -10.318780741129588,0.2061916240870046 l-8.802539376924019,25.030713476896604 4.817012430216932,7.687799554079412 l3.027903370573103,11.937723542328316 6.842987390157452,14.820372217835784 l1.1772907360924145,15.323492768692075 0.1391892176135433,-3.048978082742538 l0.684638957200114,2.066176563109325 1.221049613411805,4.478655704935685 l-0.17421377330841314,1.1300645242453988 -15.635656312030072,14.437789082734925 l-0.26703815597322916,8.346705864543708 0.521503914782868,12.828718468418831 l0.3442587014579605,7.5395885872956345 -11.86579953583661,-1.7334257626981031 m-16.602600441724995,-17.429817918670384 " fill="none" stroke="black" stroke-width="1" /></svg>