<?xml version="1.0" encoding="utf-8" ?>
<svg baseProfile="full" height="88.74722500258171" version="1.1" width="79.0789341753094" xmlns="http://www.w3.org/2000/svg" xmlns:ev="http://www.w3.org/2001/xml-events" xmlns:xlink="http://www.w3.org/1999/xlink"><defs /><rect fill="white" height="88.74722500258171" width="79.0789341753094" x="0" y="0" /><path d="M38.14809677351093,63.747225002581715 m0.0,0.0 m2.720428564861974,-22.323337812242777 l4.188101529463149,-3.9892219179979698 1.7369576495957517,2.9054589502550643 m-21.793584517431803,9.878757826079562 l12.957556141438182,-6.91829186214817 9.604131468720231,-6.4714732583541235 l1.290876259686476,-1.4260547378038428 3.207819009813249,-10.403062190369456 l-4.556427223811161,7.841718102146513 4.059874643653484,10.729681012129474 l-5.807237833960748,-5.322677652582601 -8.370058197743994,11.465297928180744 l-3.6801299482704635,1.1321121717838039 -1.5691758913689993,-4.921761665484781 l-2.393098320901222,-5.48631813682227 0.1530845886404176,-4.949966684825674 l-0.9428708019311675,-6.3906432269913855 2.5316198532884893,-3.75858214976266 l-1.7915915103260986,0.47911261465014787 0.9712328327857123,11.67326467599526 l6.0364735808706405,5.120328752836115 8.750985879252536,0.16245330408408712 l6.14190999225015,-2.5817469924812197 2.4839596532236805,-6.965034571092123 l-2.858280389020421,-0.4693945126682431 m-8.578879678964476,6.220654203444993 l1.5951812501100848,4.347218766283354 0.4981863524848712,4.248188077921318 l0.2726999294166085,7.939230161585528 2.314139592350397,2.198305126230505 l2.412881545499074,3.7351850349684477 -0.31867366804401664,-0.13349580191428734 " fill="none" stroke="black" stroke-width="1" /></svg>