<?xml version="1.0" encoding="utf-8" ?>
<svg baseProfile="full" height="153.7679549387496" version="1.1" width="150.36657735406936" xmlns="http://www.w3.org/2000/svg" xmlns:ev="http://www.w3.org/2001/xml-events" xmlns:xlink="http://www.w3.org/1999/xlink"><defs /><rect fill="white" height="153.7679549387496" width="150.36657735406936" x="0" y="0" /><path d="M25,25 m0.0,0.0 m0.4796145589129974,35.02313163701968 l12.896477644025314,30.194199567698618 2.3179540242667094,-3.285593214438821 l5.945656174901462,0.018678332002987005 6.018724405123904,4.125262173230159 l2.0143190406679947,6.2974588780585 6.196849083199285,3.798150492201201 l2.552705487682624,3.6519358601720824 3.929675228120574,9.185968288134266 l7.760524382436822,3.5155570681855473 -0.383821314184746,0.7571559190192778 l-8.139669160950527,7.081475466261371 -5.894055477544376,3.4045744712047292 l1.1430842091194353,-6.145860923252871 8.195325048219344,0.49679415205618227 l-1.4469797385068583,1.848031815019782 2.412401227058683,0.23268415921869623 l9.92972796055756,0.8404009535350306 5.698752408535081,-4.19278170596528 l7.373244813873794,-5.463508585540722 10.076913822247734,-8.886700708330258 l0.1339310702810842,-12.057801660827087 11.858784810790619,0.5862302560925003 l9.29643764523487,3.1458921741687043 -0.8480129934261349,4.83285908550951 l-15.766405480388297,9.075866455882009 -2.0335752196965444,6.91494074887187 l-7.964361630788722,-3.9083165235020014 -12.953967370840562,-4.828243829525944 l-5.583610924147058,1.752776302731981 -6.512116115414332,-1.9918004040544204 l-17.39156281082668,-0.3802036515568463 -19.411912534971144,-3.2840252330991606 l-3.7863164961504823,-2.1082647116095696 4.920731700916396,-3.325799322143017 l2.921368324825877,-0.793404530550807 5.778164521996174,0.10440311144885472 l11.68068850513151,-2.854018657845243 " fill="none" stroke="black" stroke-width="1" /></svg>