<?xml version="1.0" encoding="utf-8" ?>
<svg baseProfile="full" height="131.87364751398417" version="1.1" width="92.67853327476769" xmlns="http://www.w3.org/2000/svg" xmlns:ev="http://www.w3.org/2001/xml-events" xmlns:xlink="http://www.w3.org/1999/xlink"><defs /><rect fill="white" height="131.87364751398417" width="92.67853327476769" x="0" y="0" /><path d="M50.51952887294532,66.04012944069291 m0.0,0.0 m-10.284335530582918,29.303625505198298 l11.48834364677362,8.21894164101478 7.702481437053695,2.3870216420566903 l8.252514848577967,0.9239292850214842 -0.2534342384465661,-2.3041574726020606 m-17.900622817119114,-21.567334649643158 l0.29969014426624335,-15.0091201969663 4.319640120325436,-3.031149986361933 l7.667685578891688,-1.391524486700434 -6.369826051960162,3.007262530295433 l0.9968900293659433,0.06759777112342436 1.7539105898043457,6.770755043308963 l-12.560934365994362,-14.541472198607634 -5.288204410123621,-12.22358810049968 l-0.8775492840352996,-4.989271755294094 2.6222639601804234,-1.2013605831380703 l-7.8780907612349305,-0.12597142746481424 3.2134731544477404,-2.3853124474584484 l3.223359524518075,-7.2216023434982874 -0.49952437019638013,-5.727397210477072 l-2.378861464188352,1.4600977492523093 9.368178311050631,4.648377289736093 l3.787641519246706,15.426807539953856 -4.973651780321637,3.6653513961294224 l-5.222562387228951,-3.7871542468927535 -9.919281726844243,-1.1753689795119875 l-5.808722549171304,0.9579771989456733 4.9150188171068905,3.972522128460482 l9.290845377647328,-1.721370013084648 2.9599622357735833,5.125616545268263 l9.884978651382758,4.217768172432 -1.258856747466436,5.0732006776070575 l5.4932686183623245,1.1453600347309754 -2.448315415753113,3.7370742512002364 l10.221206998817163,10.442142293494413 " fill="none" stroke="black" stroke-width="1" /></svg>