<?xml version="1.0" encoding="utf-8" ?>
<svg baseProfile="full" height="176.3416565614353" version="1.1" width="134.6967386891761" xmlns="http://www.w3.org/2000/svg" xmlns:ev="http://www.w3.org/2001/xml-events" xmlns:xlink="http://www.w3.org/1999/xlink"><defs /><rect fill="white" height="176.3416565614353" width="134.6967386891761" x="0" y="0" /><path d="M100.45126432860978,151.3416565614353 m0.0,0.0 m-17.195965502198575,-27.58436506825971 l11.232002335936606,0.6732740407153287 9.553841550739643,-3.510997060838868 l5.655595976088638,-3.0079313349062877 -2.3894794034668645,-10.030004540144912 l-5.561849508408604,-6.114405018953786 1.6354347146965633,-18.647276372958768 l-1.2373787909711613,-9.689980955179319 -15.014999127924941,0.7675643246857722 l-1.92332173260418,-8.803005963182972 -2.7484566511752786,-18.85881587695983 l17.98120472930533,2.3345815975478 -0.42675127888440634,-9.464594923078545 l-8.282883671447491,-5.075832999025615 -11.20671819157213,-3.47975019682105 l-11.398011450278283,0.22140531041860576 -3.868007185622037,-3.0033089184000747 l3.9652247177064646,3.4127261529627626 5.989578017576141,-5.862003918056343 l-7.370894081854972,-0.6189348409994433 -5.342998930232203,0.020701593339857438 l-4.586916639537736,3.455551827459008 1.9217150323122971,3.4572193039611063 l3.1149710214744277,1.4473626431977775 -6.0556941682600005,3.5555493600863266 l-10.61219131635617,28.300753253098904 11.257221380687723,1.8479234568212366 l-5.525886670294545,10.564892044058553 -6.884134725213291,8.270776104613855 l-3.4359501137524933,5.8959623116165565 -9.182547364333184,-5.726078238599068 l-7.507017300745072,-0.13231873505096442 " fill="none" stroke="black" stroke-width="1" /></svg>