<?xml version="1.0" encoding="utf-8" ?>
<svg baseProfile="full" height="148.37964298993023" version="1.1" width="133.69987725429888" xmlns="http://www.w3.org/2000/svg" xmlns:ev="http://www.w3.org/2001/xml-events" xmlns:xlink="http://www.w3.org/1999/xlink"><defs /><rect fill="white" height="148.37964298993023" width="133.69987725429888" x="0" y="0" /><path d="M104.20941812005702,68.66893492614503 m0.0,0.0 m0.8017760451240696,36.59884098113524 l0.5466753505993251,3.638012202281524 -5.7939520293022015,-1.99203608358042 l-2.399854658185275,0.12802130823672625 -8.341641202448958,4.163346087938345 l-2.358658681702754,7.793454899221979 4.661563455451459,1.820786529944726 l9.187638157735405,2.5602821386070755 -2.311512033221032,-2.6457039321327347 m-22.028248109927038,-36.66791947418675 l6.101357336510547,-7.930298756075615 14.37633244756345,-5.2340440565705135 l1.9272807969059138,-1.172120358782082 7.340489639568215,8.555522383351008 l2.7812126195707325,2.842872175251415 -3.6441163944623782,16.553345786217264 l-6.868254608966353,8.862876243382537 -25.56426438242937,-7.507884646267026 l-8.258938959573303,-3.762943478169787 -8.66416894183434,-1.7536422570856625 l-8.197215045991722,2.1595341460678785 -3.59225669607979,5.803346151818263 l2.0165102820711978,4.283468918167649 9.84962966600422,0.7588894905280946 l4.717560572390765,-0.49438380242255264 -1.205394711709094,-0.38129202453755145 l-11.233996466129028,-4.837399059785408 -11.242238703067555,-1.3614268573850945 l-0.2652903954413206,-2.3083560320392382 -11.547442469080803,-7.523764254818466 l0.16542292978420095,-1.7583264498566757 6.435827754015442,-4.068114402638093 l-5.110706961314677,-2.7416723506949734 0.9927846477238689,-9.366424811668894 m20.169501549803314,-46.683781279597206 " fill="none" stroke="black" stroke-width="1" /></svg>