<?xml version="1.0" encoding="utf-8" ?>
<svg baseProfile="full" height="162.3952694922279" version="1.1" width="92.95125865375965" xmlns="http://www.w3.org/2000/svg" xmlns:ev="http://www.w3.org/2001/xml-events" xmlns:xlink="http://www.w3.org/1999/xlink"><defs /><rect fill="white" height="162.3952694922279" width="92.95125865375965" x="0" y="0" /><path d="M67.95125865375965,137.3952694922279 m0.0,0.0 m-42.95125865375966,-74.55245843539487 l5.634594515370772,-9.38544630062994 9.690099187347437,-2.142871495665486 l-0.4727790797396465,3.88453569359457 1.3754028732196812,3.576652926630507 l-1.9103356191435108,4.857943608408708 -0.020708236487279666,6.488167242383042 l15.863094300717373,5.923100399895886 8.423701539253605,-1.890737811186558 l-1.4587963121406133,-4.663778627642412 m-6.028990444510147,-44.49037669262134 l-1.066614860648531,2.048429887845091 3.9977797090127885,2.328395326698199 l2.12952536371521,2.688154061680519 0.9778847747470506,5.549569504313046 l2.698876684726413,-0.17967537017055502 -3.8342452141413674,0.5422128398359027 l-11.872511349155001,-8.423957576344076 -4.758070288468364,-3.205635605267985 l-7.640771089054202,4.152219413603309 0.6870459384749128,6.912227717790331 l16.162350122152976,-3.46767904963148 0.472210830430331,-1.668266947717718 l1.207064972700757,21.106991097240776 1.4662426909841835,-1.973513047194974 l-7.665595976709408,-9.241655048153707 -12.839772587368028,5.7563847014580425 l-10.904365586724538,2.6191876917679866 6.1462204741700495,-1.522355546650126 l6.087832613630151,0.5422929955774887 -1.555616577080795,3.8471362378936624 l-0.200389665492021,3.4583095768497056 " fill="none" stroke="black" stroke-width="1" /></svg>