<?xml version="1.0" encoding="utf-8" ?>
<svg baseProfile="full" height="285.66289502298315" version="1.1" width="120.06122868596773" xmlns="http://www.w3.org/2000/svg" xmlns:ev="http://www.w3.org/2001/xml-events" xmlns:xlink="http://www.w3.org/1999/xlink"><defs /><rect fill="white" height="285.66289502298315" width="120.06122868596773" x="0" y="0" /><path d="M45.99137908137205,260.66289502298315 m0.0,0.0 m-16.950620923989064,-101.55033634221316 l2.8942626633937953,-19.254853901577647 0.6603190268527076,-14.583978581212081 l18.108274845260397,-31.663400891922393 9.588717964687289,-3.2747152866578175 l4.207130984358891,4.952876950309287 6.567565704404457,10.012274383407199 l5.3913146621452075,3.4717876995341506 2.2989203242898424,0.9216527739902799 m-8.42899768282147,-55.46109088665547 l15.56936010996274,-15.941921653081783 1.2927313032112797,-13.291189286903693 l7.424207432901754,2.0759285771477374 0.44666318993784593,0.154497929305015 l-11.640395101841237,17.860537590060105 0.9450579313364217,18.253372854933588 l-6.481184569157441,12.166215603095912 5.01595615197945,10.97815761665968 l-11.312823346873948,8.300916228638338 -9.339323936572963,0.9175683634634618 l-11.6388227723733,-0.24861962668976667 -18.146728443087092,0.0613817195755955 l1.081253292758072,12.483275950984586 2.0119051869362408,-28.172514990951722 l-6.255236057413447,-3.792391278118435 1.108392784581949,-1.8039235224303163 l-3.857116645435741,-7.070421191825642 -0.6286606627293845,-16.365844008276447 l-0.9235024980753082,-3.9548372649765455 m19.170386780875976,57.925854762197105 l3.5009758854450723,0.31115740952792126 1.722748571423185,-2.7820897328376972 l-0.9038585318423498,-0.8211649172199642 2.98376480215139,4.256698220710073 l-24.19694223009242,13.898708782864361 " fill="none" stroke="black" stroke-width="1" /></svg>