<?xml version="1.0" encoding="utf-8" ?>
<svg baseProfile="full" height="312.0152554422007" version="1.1" width="117.47507239157474" xmlns="http://www.w3.org/2000/svg" xmlns:ev="http://www.w3.org/2001/xml-events" xmlns:xlink="http://www.w3.org/1999/xlink"><defs /><rect fill="white" height="312.0152554422007" width="117.47507239157474" x="0" y="0" /><path d="M27.094888225901556,287.0152554422007 m0.0,0.0 m-2.0948882259015544,-51.97457337966284 l10.982561562945651,-43.58785466883937 7.43507038382513,-6.011169986242983 l-0.85926027407096,-88.62280981731712 28.044329587995875,-61.8433904490604 l6.57483715592651,-5.094061015054055 4.5500437572577,-0.8341857596392594 l2.6937321087228665,11.365264299731464 m-4.6238903222457175,-5.245428213022675 l-4.2105178144591795,-1.7639656203005563 -0.18450888404688628,6.60687161454395 l0.3564696833527828,3.3568304505647273 5.573849885645514,-0.19278389355236986 m-25.50238729103483,-7.094792026511079 l-2.591233631380728,-5.183161621517188 -0.9091210349621814,12.278437021958812 l7.187429399309864,6.58081238769847 9.927916591017278,-4.129932960946392 l4.478611819626527,0.5114615870424055 1.2777898482573928,5.261820156223484 l-7.6573064490121165,6.058918735004077 -9.058681680241707,3.110606202989458 l-1.291902529435226,2.7831941777698845 6.766134470230741,6.281211001972596 l10.003706860806867,5.959363592058873 -0.5329928632255221,-3.4673659936199686 l-8.267637503655726,4.705801315566345 -3.038093167910828,6.209456615505632 l8.25066755245708,5.675521377739381 12.972678269396466,-2.0389918806823717 m-25.394971472375893,-32.255537564141214 l-9.679358099453285,-2.904733100720991 0.10669483738842467,-2.8683824182674478 l12.889727517045309,4.69012328867207 12.230470161098769,-3.13002381252487 l-1.0489390781552466,-9.54234221412187 -2.251442248949421,-13.817062745845405 l22.27459528388345,-1.8484001256519744 " fill="none" stroke="black" stroke-width="1" /></svg>