<?xml version="1.0" encoding="utf-8" ?>
<svg baseProfile="full" height="185.12222326799022" version="1.1" width="131.28831846031977" xmlns="http://www.w3.org/2000/svg" xmlns:ev="http://www.w3.org/2001/xml-events" xmlns:xlink="http://www.w3.org/1999/xlink"><defs /><rect fill="white" height="185.12222326799022" width="131.28831846031977" x="0" y="0" /><path d="M91.88653002877513,25 m0.0,0.0 m-2.3687547079756675,14.861126304043374 l10.866796815906502,-0.6780155541034838 5.903746323613801,11.86785627939659 l-12.834910724217421,0.7896653657726282 0.9459705383347194,-0.13773530166536055 l4.071244973314101,21.887618152402627 -1.4025565373699755,14.585140617140075 l0.5285874103843535,9.963547806899525 0.7632350668679483,8.32271439838287 l3.3807619978321384,7.624597345997762 3.0393596548642754,4.220315164691258 l-10.193701455251674,1.5530264836319376 -12.898216846650298,1.1760511427229385 l3.534647380752756,7.029806223745155 8.441568828399118,9.552823843772646 l-6.9244219597353895,5.3477906168131755 0.8403270337402624,11.508897396150072 l-6.60943246277177,5.646996982196436 -1.9802960127411762,-10.928821725046902 l-16.673746700288692,2.0560811086983644 -3.1742195506728637,-5.446805632871971 l-2.759619225565586,-5.287623115425231 -3.2445256222814733,2.6137533053310795 l-2.6836186749290545,-2.338292596567225 m38.87771205834536,-53.60364000469841 l-4.1860075875476666,-7.398407484172284 0.24056931192571976,34.14778328582949 l3.8977597982970793,-8.10031905627214 -0.05903501863812721,-11.284674900357125 l-0.35285578838411547,-19.001924364257487 -6.53463610900786,-3.1520017543710654 l-6.410185826921972,3.1616036239404433 -0.5969566967292864,10.899502469428688 l8.761332217588798,-3.6852781740811973 6.0881969459117355,-4.926267187144121 l-32.13816495609714,21.726415984555775 -9.708256089458839,0.10177525732400626 l-4.882723106664249,-1.7079831960283658 -7.374810188522889,5.335175050332628 l2.5261161030377597,-1.1521289998139979 1.9340302897560662,-4.791271871550204 l-15.536840929224429,-5.693730010585319 " fill="none" stroke="black" stroke-width="1" /></svg>