<?xml version="1.0" encoding="utf-8" ?>
<svg baseProfile="full" height="283.0869458081171" version="1.1" width="133.82641829515944" xmlns="http://www.w3.org/2000/svg" xmlns:ev="http://www.w3.org/2001/xml-events" xmlns:xlink="http://www.w3.org/1999/xlink"><defs /><rect fill="white" height="283.0869458081171" width="133.82641829515944" x="0" y="0" /><path d="M108.82641829515946,168.17912710842324 m0.0,0.0 m-0.6004813546254274,-0.745953160405427 l-29.675536288215028,12.219124813406603 -26.411297238084515,-26.381544947929065 m-9.654577883600384,21.27578318981341 l8.771163599514905,56.945887215984904 9.090258124912554,26.594521588823426 l1.677412512291702,-10.069699634441209 m-10.828118417121221,-102.66449480095656 l9.362419040139295,-2.8266540971906737 4.179529251177274,-10.993663590447799 m-15.614473825107781,-44.64741675496571 l-0.8856445131560697,-0.7100880607812168 -6.801040358919894,-5.228456016651931 l-9.175000796491743,-9.47750892664474 -7.261030147873112,-12.83386703139929 l3.218249305712596,-15.088897928364764 4.296401312388962,-9.473546150778635 l11.459611947918617,-6.253863542842445 13.421878895589018,-2.818789272652115 l13.28395971405188,4.366925976514093 5.369221390749661,9.893052359717737 l-1.154504255927465,9.231206495747598 -4.149607046948236,8.775376457854547 l-12.854135631999787,8.087208826125682 -9.077968373823262,6.734447686349363 l-6.920457003787834,4.02766958168262 -2.2538456567427514,4.1968801425177125 l1.906407193108527,4.555505841422292 7.732405565668429,3.4602531744717204 l12.110111776324741,6.172524908469748 7.291019377896726,5.598058576555906 l7.790109922813384,10.623743557929165 " fill="none" stroke="black" stroke-width="1" /></svg>