<?xml version="1.0" encoding="utf-8" ?>
<svg baseProfile="full" height="126.662751605012" version="1.1" width="127.13108898160012" xmlns="http://www.w3.org/2000/svg" xmlns:ev="http://www.w3.org/2001/xml-events" xmlns:xlink="http://www.w3.org/1999/xlink"><defs /><rect fill="white" height="126.662751605012" width="127.13108898160012" x="0" y="0" /><path d="M94.48172558711487,101.662751605012 m0.0,0.0 m-27.728421448105344,-44.185652208814105 l0.8256331742503747,-5.807009015210339 9.589499292551977,-7.891683246459063 l-1.4702464940940807,6.452389602708745 -1.579251570296667,5.22225658808394 l-2.4901628810350114,15.055181986238443 -10.623741461252946,1.3629907895088238 l-11.239204206065375,1.0893710888497259 2.6213632275117646,-4.970027771967023 l-6.728845088700206,-3.195798666935876 -6.29308707697065,2.883023617002268 l-10.754789446884208,-9.346426183408711 -3.6104716080244934,-5.05725089640321 l0.22464893807271707,-9.889183560612572 5.676216615137775,-13.802030898217565 l-0.04268291095279042,-0.027460253177641336 2.0206597896180587,5.975324614623119 l-0.10687158899377829,10.642371691772862 8.710651609001049,4.520422115261928 l-3.079129361800337,-13.892237690673559 -9.933238455159048,-5.6471529344723965 l7.022494170082528,-6.154170372709793 11.879496973618933,2.6216541896269683 l10.261834478261003,2.3528078251978894 -0.4338080794752615,1.9516004314460627 l-0.6438521267508186,4.358933414707889 3.033044889924291,8.029949383469061 l-6.499641168411707,5.254599178963715 6.0036029407799845,3.083631119533291 l7.510586394476501,0.9135634278805904 0.7513917881447374,-3.2769221392766426 l-5.336311534201179,-0.6419477135096613 m40.11199562022746,-7.560344939775971 l-10.532657988453549,5.997165634867065 m-7.746538478644204,-1.8010644149769153 " fill="none" stroke="black" stroke-width="1" /></svg>