<?xml version="1.0" encoding="utf-8" ?>
<svg baseProfile="full" height="174.66455486482073" version="1.1" width="152.75672217268936" xmlns="http://www.w3.org/2000/svg" xmlns:ev="http://www.w3.org/2001/xml-events" xmlns:xlink="http://www.w3.org/1999/xlink"><defs /><rect fill="white" height="174.66455486482073" width="152.75672217268936" x="0" y="0" /><path d="M94.7458700694614,34.61176105198069 m0.0,0.0 m-6.300184961467982,-7.084021992814332 l1.7652309253897684,-2.5277390591663584 0.7915610282667102,5.821954620020731 m25.65031758183914,30.005452566548108 l11.103927529200341,-2.853468383739518 -5.067643784109579,18.314136139827795 l-1.034637535059425,2.8773944328636123 -1.0190705354193996,8.457421758778812 l-4.465709644141897,12.92924088502828 -6.315136726857998,-1.2663377966776705 m-29.470156748062557,1.8460536334693682 m-17.126057259008224,-13.977910687619252 l-13.583362427504072,2.5713392004952573 -8.981413643850102,1.5744010413906373 l-3.116285447039065,-7.758128723879318 -3.419156658894028,5.328662005932972 l-1.6042366373965116,13.434649573178445 0.30875624760257736,12.866882771435153 l6.739066938964871,4.4091797004119275 15.075532415435807,2.6001713530018464 l7.0267017481414,15.894948363522563 -2.6442262460950228,5.592285551575881 l-10.325330393465078,5.996226859255087 -11.333983485076153,-4.499231132521146 l-7.723907386443298,-4.796317529610503 -4.676464964411621,-1.407637875826583 l0.21587894284542136,0.5729104496490663 7.336985547949732,-2.9179491472815746 l16.881160416604676,-3.6338201901276848 16.26953172984541,4.462791203669905 l6.265855367894256,0.8086856774352952 4.727065045179652,-3.518201745512847 m1.7154134778034424,-15.57295476702727 l-7.358349924109282,-2.4268087193969903 -5.083873834142135,-5.151452629287578 l-9.728992586866136,-3.1255320987059214 -11.03440715993023,0.544138071923233 l-6.824948966973597,5.0252226515874066 -3.751290513703483,7.19097736205754 l-0.2933258856552254,6.911120682636698 8.767613285263328,2.290365673162056 l13.789977677312487,-5.6422247491907545 " fill="none" stroke="black" stroke-width="1" /></svg>