<?xml version="1.0" encoding="utf-8" ?>
<svg baseProfile="full" height="96.5952953451049" version="1.1" width="145.3091378674009" xmlns="http://www.w3.org/2000/svg" xmlns:ev="http://www.w3.org/2001/xml-events" xmlns:xlink="http://www.w3.org/1999/xlink"><defs /><rect fill="white" height="96.5952953451049" width="145.3091378674009" x="0" y="0" /><path d="M120.30913786740089,63.10884490418441 m0.0,0.0 m-40.73548665052988,-19.417886427052792 m14.962727412560685,-4.9714480429663315 l1.803672729077485,4.418453679328067 -3.978151169566689,4.938387363272391 l-6.064242185019283,13.61472727825601 -0.3925607360798612,5.269109494376849 l-1.7499780416993642,4.635107095706297 -2.237009039089885,-5.623302687532101 l-4.291927527725948,-7.6809351184626316 -3.953689542924883,2.212174386985258 m-23.030558749569437,-9.906374386826666 l3.0377268799931967,-8.440721732486582 5.397918928234436,-4.745894585830048 l7.528093614916772,1.5701282498281017 10.36570906767784,3.764936988045 l-0.6885749773668194,2.3728445027812395 -1.99957195521178,7.280740210522327 l3.8366624473233184,5.826918272819501 10.896173979824368,1.759562924770216 l0.1329726045935147,-5.42481154429921 m-28.26457343035953,-26.787555598492936 l-1.0583266261512505,-2.7730052269263727 3.1749786461709895,0.6148738001402704 l-4.14345382179626,-0.5165872879706348 m-30.128564045847305,5.52127376463079 l-3.7291056788353374,1.392620806440183 12.640195658749573,-6.452526633485894 l3.4677938383511555,0.6171573095671916 4.7595918800782755,11.709848790947683 l1.5333599440296486,3.602852693121297 0.8218518227270114,5.202137752036085 l-3.2005048496399002,7.394335430073458 -3.193072263232043,6.630568876283496 l-9.962836228669387,8.623777798269785 -3.9195989908091398,-2.4772605413954127 " fill="none" stroke="black" stroke-width="1" /></svg>