<?xml version="1.0" encoding="utf-8" ?>
<svg baseProfile="full" height="248.33125105083892" version="1.1" width="192.9142615218706" xmlns="http://www.w3.org/2000/svg" xmlns:ev="http://www.w3.org/2001/xml-events" xmlns:xlink="http://www.w3.org/1999/xlink"><defs /><rect fill="white" height="248.33125105083892" width="192.9142615218706" x="0" y="0" /><path d="M26.710506721139744,198.3589724936564 m0.0,0.0 m27.131390981952855,24.972278557182506 l-9.488547443165697,-30.85035474362087 0.6712319465658428,0.10458786968167774 l-12.068491847355764,-88.90026373059904 -1.4994257052353872,-4.287086795493109 l4.115364598014235,-4.897599450762047 -1.248706348247246,2.4788659054459106 l4.438665820562178,5.7010344937616395 -2.2362173839652506,7.358595943203265 l-11.52577134026551,1.3899691730518642 m48.94342680348784,-86.42899971550823 l6.449408648434233,8.886991696363642 11.869854454799524,10.966559091473744 l3.671085965108737,3.46651682128784 5.150491239283019,3.217369721753967 m10.49943264535449,-0.7679042432611616 l8.183120764592845,7.481047033071204 8.629706296296506,13.6364433813882 l3.851351170397076,9.068133167700733 -0.17237509519273053,6.5784440194123155 l12.78073672558221,9.849366673241828 8.03414213902581,11.114608034886597 l7.301311682916083,8.87816552117532 5.133736568897913,-3.3460010715108166 l2.588831512887031,-9.414137066907138 -5.890607414326989,-3.050524611030419 l-11.814000342392585,-4.209130666008825 -9.011135493902282,-4.2611408885784385 l4.771119252827002,-10.91628891364615 9.402535156519955,-12.975906439374109 l5.603219934466823,-4.569598797430291 4.5357811633412535,0.662681456010254 l-2.050501852765292,3.686941745063915 -12.819293776323923,9.750360471747083 l-7.00797584917048,7.988416024858768 -3.0018331588377833,9.535717346250392 l1.9299716754321234,-24.17656725902887 6.708220764277631,-17.45620678190263 " fill="none" stroke="black" stroke-width="1" /></svg>