<?xml version="1.0" encoding="utf-8" ?>
<svg baseProfile="full" height="108.14783020728339" version="1.1" width="117.69932827174893" xmlns="http://www.w3.org/2000/svg" xmlns:ev="http://www.w3.org/2001/xml-events" xmlns:xlink="http://www.w3.org/1999/xlink"><defs /><rect fill="white" height="108.14783020728339" width="117.69932827174893" x="0" y="0" /><path d="M87.13133603520757,25 m0.0,0.0 m-48.612654029282695,26.065313734169706 m-11.429541511744699,-12.895251971421358 l-2.0891404941801683,-7.039692557787183 12.825747333849701,1.0738610785816876 l0.4182871366391151,6.281173089888836 4.49115292869815,12.388932232668818 l2.128593281017528,7.404263011392405 -0.5232145184979076,5.398411492725771 l-0.885304246935856,1.8887013595120674 3.748264096949535,-0.07626814470989077 l6.740516188591289,-4.442347056870528 3.729268530193684,-7.875127203394629 l2.3437882986004377,-3.7942449972496726 -5.969686002740208,4.087851547782548 l5.658732855669006,4.192072958488892 6.101764481853463,8.308023233808152 l-0.7876467364971809,1.0098549023112946 -2.0015526917129276,4.308924533650353 l11.326251048373578,-4.354573095800994 2.154416009704708,-4.574922047412231 l-8.914360565864992,-6.102193828954021 -3.42707056469073,0.20588379132831405 l4.856626729431601,-4.342620172964142 6.620344590992305,-7.49848562820232 l-4.886802546456191,-1.3292439618710838 5.478507589479109,-3.3327188365996916 l6.258303111488195,18.353351535115838 6.385445535462166,7.700914845569968 l-0.48822020863239574,4.636403240599086 4.317176606783733,5.652154351334138 l-1.2351484704966331,2.329581963498267 -11.060354394825032,1.4627727734602285 l0.7609836332428777,-0.8434823638889378 -1.926011962926845,0.2948285752232238 l-1.9358026410187497,3.605727823300492 " fill="none" stroke="black" stroke-width="1" /></svg>