<?xml version="1.0" encoding="utf-8" ?>
<svg baseProfile="full" height="101.70726058937531" version="1.1" width="136.06595763425491" xmlns="http://www.w3.org/2000/svg" xmlns:ev="http://www.w3.org/2001/xml-events" xmlns:xlink="http://www.w3.org/1999/xlink"><defs /><rect fill="white" height="101.70726058937531" width="136.06595763425491" x="0" y="0" /><path d="M111.06595763425493,64.03285486556142 m0.0,0.0 m-45.69474966172395,-24.052312891273047 l-4.071703797479482,-1.0284275871659723 -11.831694785100286,-5.465934793225091 l5.871092653360661,-8.486179593897308 -11.374341087575498,1.3123953957277317 l-1.1046572777292765,1.7880781079988473 6.648833232147633,4.094547180502445 l3.2041520020677603,4.979287836868627 -0.8055465403797158,2.2894774015010904 l-0.528998302896098,3.897642389962799 -1.589569569637207,3.7398774294148605 l6.620043723760816,1.1714897188846651 10.67340057260895,-2.612798063157425 l-2.582700136907413,-5.751788858690858 m-0.3505129803447571,-5.189971812035217 l5.955008300830632,-0.17045534634162648 10.19929646976202,-6.174460991287819 l7.084064581302188,1.035385735443076 -7.320016612107885,3.1014552101020034 l-2.8150220514732016,1.995037905406588 13.69475577183671,5.792382620498239 l6.851229132548249,-2.5359569749246496 -7.705567524145339,0.8072035472982353 m-14.925114749510003,28.81431358802951 l3.620266448287334,4.305960200509305 2.9365542729532503,-4.269791347819379 l-0.5735418477280888,2.430559263371878 0.1927626963358027,4.729901793939432 l-4.083853187173475,2.127488658172934 6.073907806145319,-0.3152531111086178 l0.30596181232507785,-7.7708523401892515 -7.943151223719878,-10.397856702192897 m-12.26328058117045,-9.640138439069341 m-11.335328876704846,-0.13497919409701353 l-9.382134288647165,5.69881526385721 -1.2819244650765271,8.682553442788157 l-6.741746074081011,7.1968618082052 -5.924916336936749,-5.677965729675677 l-3.3838762783988194,-3.6074971425367495 -0.38333887388020516,-0.9481814899779963 l7.4559369980228585,2.7518310924121763 -4.61118219157991,1.385148991930304 " fill="none" stroke="black" stroke-width="1" /></svg>