<?xml version="1.0" encoding="utf-8" ?>
<svg baseProfile="full" height="157.53170982743464" version="1.1" width="109.7069187041262" xmlns="http://www.w3.org/2000/svg" xmlns:ev="http://www.w3.org/2001/xml-events" xmlns:xlink="http://www.w3.org/1999/xlink"><defs /><rect fill="white" height="157.53170982743464" width="109.7069187041262" x="0" y="0" /><path d="M84.7069187041262,132.53170982743464 m0.0,0.0 m-13.083017369690337,-29.17042485094143 l2.4206079308767037,-1.995272422805972 3.785975626725462,-4.277880583500262 m-36.11583202317096,-9.026829117998231 m2.288446486236257,-15.15259816497709 l5.9085126844029245,-10.393846310534695 7.894613714051056,-1.62469463010138 l-0.07537144670089851,3.663270185535845 -6.3145889007145755,7.234911162222531 l-5.574801412908845,-0.5048455271428756 1.4931455861272385,-2.086620308779219 l-1.0458381497950622,-15.545981282673257 4.051331218822127,-3.2784424974857194 l6.459447588726173,-7.201854076401828 7.638145234045061,-5.817562501785867 l12.440907355471404,-2.067112239033244 6.197276912165921,-4.586424209980158 l0.38581823055875764,-5.699502451051804 -10.265154975388588,12.54406560378015 l-8.217963942068074,10.248269706017664 -11.141797137090647,-12.917603922108665 l7.4494954166936695,-9.100931703288408 3.234984480832145,6.314210298179057 l-0.7129031673588045,3.5266652209937988 -8.848864077642572,7.4772207544218645 l-10.538117608582828,-0.3992030610765568 1.1522377165608622,-1.4396215697770975 l16.047728243337147,-0.5991768147146156 2.9419711327586127,-4.211964184577783 m-36.7345594329341,11.44751891180487 m-2.8287546184714305,6.965734970097781 l7.1851094205940695,3.0049927746120555 1.8240690700880235,14.960127160585456 l7.840629582205568,7.2732225411044915 6.32293495998738,2.7039684201584806 l-0.8619887419920869,5.729460438092788 -9.65964463877446,4.109746107872204 l-6.107500473107772,-0.10138739217214747 -1.1455883972338483,0.34214189246660043 l16.00360744288536,2.481162523931985 2.5552532655255082,-2.3414703533289303 l-4.568314776801608,-11.427276831933476 " fill="none" stroke="black" stroke-width="1" /></svg>