<?xml version="1.0" encoding="utf-8" ?>
<svg baseProfile="full" height="140.27852094717275" version="1.1" width="190.80439761764237" xmlns="http://www.w3.org/2000/svg" xmlns:ev="http://www.w3.org/2001/xml-events" xmlns:xlink="http://www.w3.org/1999/xlink"><defs /><rect fill="white" height="140.27852094717275" width="190.80439761764237" x="0" y="0" /><path d="M165.80439761764237,106.38779876982174 m0.0,0.0 m-24.016186608202112,-13.022073513361997 m-23.292352622967236,-23.197145024923408 l0.7583622096871134,-8.859426770333968 -26.4667117976474,2.7624890170535052 m-16.430849207744675,-19.298271877704643 l11.882412235812733,-19.737408734548698 -4.254788414349553,0.5803003639526383 l-3.63620389968954,-0.6162622299551895 -4.007054725513539,4.218617883484944 l8.121095938392608,16.980133137874752 5.577560364878581,9.95615320257362 l-2.7872146409238505,13.199206507170462 -2.1577595910091474,4.665472110047607 l5.5415437371316685,4.665971703795502 22.939756770228144,0.02100287629198644 l5.8217214378988835,5.260782233097483 -17.556108546252137,10.54820753677063 l-3.956619740778616,6.194409567120578 -3.3556330015400624,3.127888805335086 l-3.0230119709456647,4.565451171622139 4.884616964924861,0.047204187073627696 l-12.733647852812627,-6.555537330270997 -2.58737580202943,-0.16202034233118667 l-2.42735642102009,4.021871542456831 -4.198682880435747,1.1864149576411376 l-0.6962850649389157,5.766100436292421 -4.8404415562668675,2.5711907611261413 l-16.014762159956035,-7.464612650169201 -4.178580516561983,-2.992761486235429 l-4.582860181604837,-11.98298670426825 -5.013492303040585,-7.822295877031249 l-7.319036169813784,-12.120720205176848 -6.798451600552557,-5.95243460786891 l0.8772414353048968,-2.138669918689456 0.66649159946541,2.4962299054914365 " fill="none" stroke="black" stroke-width="1" /></svg>