<?xml version="1.0" encoding="utf-8" ?>
<svg baseProfile="full" height="121.14032726954335" version="1.1" width="130.01335962816472" xmlns="http://www.w3.org/2000/svg" xmlns:ev="http://www.w3.org/2001/xml-events" xmlns:xlink="http://www.w3.org/1999/xlink"><defs /><rect fill="white" height="121.14032726954335" width="130.01335962816472" x="0" y="0" /><path d="M25,68.4433957052649 m0.0,0.0 m7.851322324784267,-15.557580307340306 l7.380597907840802,-5.867545505538475 8.653008966866622,0.3404570316926073 l5.416754850466088,7.620030540157325 -1.1451176058034693,4.4588830362194 l0.986846940414455,8.741438962837076 -1.170758719021866,2.0555855364230458 l6.041834410847396,6.667071195728217 10.56871531515385,1.147727260089752 l4.698753264951265,-5.5313054141773765 -5.7124416317505196,-5.368809387039649 m-19.431062052523238,-38.44445948796029 l7.4333928287611695,-3.70488916635623 3.789415441175928,12.484835884383019 l3.916625549240816,7.686983734658499 2.2964820692086394,4.954250954862201 l3.6172679120434097,2.060446795654709 -3.477337061571415,11.954855441724332 l4.124707302769285,7.009514018582497 8.416496032074344,-0.8446674073153438 l-2.1988451261764133,-8.162534582577095 m-24.592096856002215,10.250315084702452 l-5.102544877250017,-1.364542689197011 6.872639817323227,1.2916002049770037 l3.726576273005946,11.783786457419723 9.275504883744615,12.035483371668366 l-5.711903160077146,-1.1414867090873937 -11.228928308718858,-5.480288061835097 l-4.631574182377027,-1.1904970226653993 14.403712759056095,-0.6826652112418664 l18.8625017489704,-32.39846243320129 2.548726411280126,-3.670322107737917 l-12.66229871585578,-8.100040362966908 5.812591729260883,-4.120140161580706 l9.820959900881556,-1.5476839703544536 7.175365923542993,10.015104687804106 l9.739565918492595,14.407864311107652 3.647901443135931,5.572072495606305 l-0.3556616455263034,4.977901670016305 -1.9811658933105432,-1.0461911090408027 l-1.492341298777943,-0.1942619278033733 -1.9499900310217104,7.387115836718288 " fill="none" stroke="black" stroke-width="1" /></svg>