<?xml version="1.0" encoding="utf-8" ?>
<svg baseProfile="full" height="165.34672333753917" version="1.1" width="209.54332360026356" xmlns="http://www.w3.org/2000/svg" xmlns:ev="http://www.w3.org/2001/xml-events" xmlns:xlink="http://www.w3.org/1999/xlink"><defs /><rect fill="white" height="165.34672333753917" width="209.54332360026356" x="0" y="0" /><path d="M184.54332360026356,140.34672333753917 m0.0,0.0 m-1.6840998108100569,-20.72222549628233 m-64.3566781750151,-35.009064667946674 l1.4360403584501928,-3.4301834589838673 2.2010840425448577,-0.2620765309501888 l0.582543173554305,4.760059919885482 7.06185792210222,5.9224276461821574 l-2.8127328923428254,0.3449321800211307 -2.7427363903778628,5.549428493363356 l-4.832111798371106,11.635795261946706 -7.814779028369993,10.040203747985466 l-0.994211942303357,1.3313870570085196 -10.496692761842018,-42.89408937767098 l-8.13822582818099,-8.664963259530136 -3.902972496544362,-8.600342132731965 l-5.1563255727209185,-5.327306788421399 -5.274351460615213,-2.0496714759529078 l-10.610213837509518,-10.003596106189732 -4.756473609391543,-4.409978187664159 l-6.269680288099982,-1.5503278637994893 13.636727966803651,-0.9109368135873522 l4.098108949114152,-4.71730537921479 -6.877155041773779,-6.378890105006004 l-6.893488687754454,4.157842981778987 -4.7742362918860195,9.37346049178911 l3.5937295954762027,9.70828600681101 3.6914505520672636,10.3742292360108 l-7.0174312676171775,5.786138778004185 -1.6913363900870628,-3.823379687525584 l-2.07074742109565,-1.6505303046077424 1.01830671887507,-2.5909537874744384 l-0.004187243437366872,5.7066969803804435 -3.8540097192134484,6.041186847148851 l-8.035666929039175,2.9136239805216366 -3.377060974305746,2.343484386583278 l-12.425567020546758,-12.178939582322219 " fill="none" stroke="black" stroke-width="1" /></svg>