<?xml version="1.0" encoding="utf-8" ?>
<svg baseProfile="full" height="147.83887917411897" version="1.1" width="126.06415927219732" xmlns="http://www.w3.org/2000/svg" xmlns:ev="http://www.w3.org/2001/xml-events" xmlns:xlink="http://www.w3.org/1999/xlink"><defs /><rect fill="white" height="147.83887917411897" width="126.06415927219732" x="0" y="0" /><path d="M61.5937233730231,88.96852792465985 m0.0,0.0 m-11.514094612447007,16.93189747487572 l-0.07562213966577716,7.149882729618097 -0.9068798188049556,9.788571044965291 l8.358581314991573,-4.761328901864721 -27.84217795012545,-4.741732872611466 l-4.613530166971485,-4.987466396641588 1.4020580623499526,-5.315900491347621 l9.236153916164287,-11.244859732270548 8.891565085249802,-5.844807850759062 l6.86428315251431,-0.9185480880123709 8.93087421713898,-0.4959081628080858 l10.291738063160434,-1.1353987933950087 4.675070400825892,0.8587116492505048 l-0.08367652092916775,6.522957241640929 -3.904947848463248,7.044734734586382 l-3.1133073751452867,2.3945643702265293 0.051862981500422345,-14.63437846874265 l-0.3511086962463855,-21.406161903818735 -3.266270520988712,-13.274054274245739 l-0.18810118512390478,-9.879710231432592 0.6645127181287499,-7.552211005640752 l1.5420270379269736,-6.451830301327575 5.076215118774532,-2.0155496949047893 l9.530743274045639,2.747929526287636 7.852942667898959,3.0688479018989905 l3.5408674050009648,7.864247838609151 -1.076716570674098,12.374698007174233 l1.1648812253548708,10.59235210241042 0.8341358312607569,9.786695970292795 l7.498356832472595,0.4274180099224867 -5.313897602307894,0.20332093800726203 l-10.079540237806036,11.297534488558247 -8.796283786546738,-3.3451901428626685 l-13.845323162867897,-11.451456674244062 -6.5425874845283145,-14.809350260167568 " fill="none" stroke="black" stroke-width="1" /></svg>