<?xml version="1.0" encoding="utf-8" ?>
<svg baseProfile="full" height="121.83387407500128" version="1.1" width="108.6247151307495" xmlns="http://www.w3.org/2000/svg" xmlns:ev="http://www.w3.org/2001/xml-events" xmlns:xlink="http://www.w3.org/1999/xlink"><defs /><rect fill="white" height="121.83387407500128" width="108.6247151307495" x="0" y="0" /><path d="M29.891060954879308,76.59976939205458 m0.0,0.0 m-4.891060954879307,-26.213337611925866 m23.402160752024137,-7.299063917205385 l10.201615931459461,1.628922857025324 0.6960582229046619,8.633589562396633 l-5.192162959873874,5.465761961855018 8.13393826840933,15.336868517504568 l-2.7620772921633643,0.774766609859891 9.691269131172543,-2.5631293033141276 l6.255662147301158,-5.062851716912047 -6.251512266143233,23.156863942716765 l1.540082599633476,6.375713780945925 -17.190393634369258,-12.783612128149734 l-3.7795926477930206,-5.689676817402054 1.2555158013610936,-0.25510086553596706 l7.55276469036615,-3.818266268889546 0.05245216976439766,-5.300817015832196 l0.37500550021337314,3.0588769078390836 m-11.930545629474612,-29.032746526835975 l1.3448287931963705,-6.540892793898636 16.733126156356647,-6.83262518184744 l-0.4172710529046511,2.8315170672042704 0.12938242798100297,0.7197336235668961 l0.6864978968660231,5.1175136185675125 5.102289889868651,2.8138327759632995 l2.1203027165438715,4.8601948251897795 -12.23772490177024,3.4414895892087953 l-4.763121019505389,0.8309264964516718 7.5803872089160205,2.5694467989668746 l20.29577623040878,2.9647748048013693 -2.7368601392989675,-1.1853043420862845 m-30.718084954494536,-21.722005947876863 l-2.622184951199107,-5.062203122986257 4.62526673752308,0.9133219089591125 l4.347637823536357,5.630467986492462 -1.0471908785914255,4.88549641391191 l-11.647975479428275,1.9191104781036095 -2.503146096898641,-1.0061338051091646 l-8.988767172635798,-12.6080058196058 10.003382530256053,-2.553186734172023 l0.5905249212801251,4.075576987040231 -12.357019106069517,13.77749480575341 l2.549116796905949,4.177394316825898 " fill="none" stroke="black" stroke-width="1" /></svg>