<?xml version="1.0" encoding="utf-8" ?>
<svg baseProfile="full" height="129.591132314653" version="1.1" width="94.33516556809153" xmlns="http://www.w3.org/2000/svg" xmlns:ev="http://www.w3.org/2001/xml-events" xmlns:xlink="http://www.w3.org/1999/xlink"><defs /><rect fill="white" height="129.591132314653" width="94.33516556809153" x="0" y="0" /><path d="M60.14598785499805,28.088107025015038 m0.0,0.0 m-12.279094860185738,13.296175255214067 l-21.89606119189041,10.841472420007312 7.0326493901965135,-21.753743279453282 l0.01571090610135665,-4.568984405902317 -4.092266254716128,-0.9030270148808208 l-3.92692584450364,1.174711176322779 m12.068770101954286,49.86769094413399 l1.5535015389408464,-0.5381869560619742 -0.45768267624219333,-1.1179948872168188 l13.228906135917804,-5.15742455716421 14.733071934129146,5.129317494242551 l-2.1158977197907043,12.278220347255168 -18.66709189014211,0.09187713719766011 l-18.38818099187214,2.3064093861596273 0.14306905610340165,-0.6272670893760443 l16.09670400249403,-5.829234313747043 22.52666493090188,-8.561544157215884 l1.0897342002139438,-5.2696938165480764 0.76616372615953,2.49048847726366 l0.5235140734895546,5.739186209178905 -3.0904880609385064,-2.565998526286246 l-8.375403683804247,-15.842148179562509 -1.3264676685038206,-3.849567323327636 l4.959644880242166,6.54884922487802 4.433244186347043,2.985260252712593 l-4.851264242365854,5.760318287902911 -3.6505078669703352,9.833603870112752 l3.3847532965347074,2.7342520825406114 9.750408305293101,10.333520314397067 l-14.57230042319613,9.17286060094582 -7.93718359149155,-4.132741153366667 l-2.5957289125861926,-4.232039398390046 -13.82722311453974,-4.742519055011354 l-5.010585929043314,-5.130377193045051 25.452093776189724,20.74130311572843 " fill="none" stroke="black" stroke-width="1" /></svg>