<?xml version="1.0" encoding="utf-8" ?>
<svg baseProfile="full" height="139.53135774693257" version="1.1" width="89.61125033081646" xmlns="http://www.w3.org/2000/svg" xmlns:ev="http://www.w3.org/2001/xml-events" xmlns:xlink="http://www.w3.org/1999/xlink"><defs /><rect fill="white" height="139.53135774693257" width="89.61125033081646" x="0" y="0" /><path d="M48.800520538145285,25 m0.0,0.0 m-21.494272012101398,85.24229574305177 l-2.1685883973262845,1.8149469090162034 11.493985406580544,2.4741150948645996 l1.4438138107221827,-0.12464875095120606 10.433078519713812,-8.334544608928775 l1.4400432662525482,-6.545492211152444 -1.607143440592437,-3.084199836055462 l-2.8787297170313355,1.6688457392193286 1.5131371727635767,9.11270477958008 l8.459326438217799,1.373172064033804 1.5043860358973817,-3.442242099251638 l-5.381252001755457,-4.282175619597408 m-18.433947206187458,-32.94422567809702 l4.059143933377605,-5.6500920265970604 7.286759212576454,-1.4347808382792488 l-0.5458770673462127,4.583624564834456 0.5363267157205008,6.536584346623613 l-1.8272590231187085,5.98365656969259 3.8443145132870646,3.988445391812556 l9.63812308326134,0.4846183999824767 5.479765093213978,-5.611278407596499 l-6.5420998418604315,-2.555886464356683 m-1.2472641420968866,-0.2600675651198281 l8.781146395121372,-0.29089222884698285 -6.140922750917004,11.772705788457026 l-1.2299159229289303,7.655895436415629 1.0298457652727009,3.3044027178839817 l3.7085258711205604,-2.4463702849435776 4.656280082834297,-4.500448128995991 l-2.4905484501193285,-6.3957468864573634 m-36.88952734583778,-11.58269831752126 l1.285858171525922,-8.111232663339717 -1.5170327063852742,-2.584448496847714 l7.638660296900317,-7.9843670399893005 11.032096183555407,-2.6483303125227695 " fill="none" stroke="black" stroke-width="1" /></svg>