<?xml version="1.0" encoding="utf-8" ?>
<svg baseProfile="full" height="166.25371558377728" version="1.1" width="190.28970934424348" xmlns="http://www.w3.org/2000/svg" xmlns:ev="http://www.w3.org/2001/xml-events" xmlns:xlink="http://www.w3.org/1999/xlink"><defs /><rect fill="white" height="166.25371558377728" width="190.28970934424348" x="0" y="0" /><path d="M25,127.35471692799635 m0.0,0.0 m15.822829946150382,-6.787612969246391 l24.63389436082772,20.686611625027325 3.5491084757291906,-61.803328106083995 l11.216254729133246,-4.6532628769937086 6.6219406442979665,-2.9565609640834833 l2.3850179253802573,-11.879620944441859 5.201321570821601,-5.823778507939805 l0.3538760384713119,-1.367971670768734 9.533026119113476,1.575063667741268 l8.367912975863995,-0.33896351961692106 10.399492717903263,0.5535364204809662 l12.679446549309986,-5.698653538004508 11.42489634586215,-0.25114614699235954 l2.8051293529275356,-4.2950267384210745 8.880355274672274,-1.9775675849298557 l2.7401694371181127,-6.895010108529058 3.675036880660994,-10.44142496519414 l-12.360892430001632,1.273696008357672 -8.521456096123009,8.006839060073291 l-4.599850870264653,5.368083276822609 -1.2550138596867935,1.5283981186024502 l-4.252014914305883,7.1969719012851385 -6.485786056763365,4.621451367709456 l-3.3758206372852664,0.5161351859622626 -6.379558631034926,-0.1832279996550351 l-5.215915646120773,1.1138163960568024 -12.67931857123486,-0.09778442194993298 l-11.936152176072236,9.859283655167742 -6.938975797121609,14.809235757867105 l2.274577489761552,0.16438323312968794 -5.629602554715804,-4.753681383388372 l-5.272701937207677,-9.609034262653008 -11.926382950837642,-3.482613804765418 l-9.306372052119706,-0.457686517745358 -4.74778733153755,2.803061904782526 l-3.8172763499004825,2.5509777438088843 -1.0307370757396879,-2.7151054232799674 l-2.496517974721182,-1.1229277655972216 " fill="none" stroke="black" stroke-width="1" /></svg>