<?xml version="1.0" encoding="utf-8" ?>
<svg baseProfile="full" height="153.31306159622108" version="1.1" width="169.3679246142487" xmlns="http://www.w3.org/2000/svg" xmlns:ev="http://www.w3.org/2001/xml-events" xmlns:xlink="http://www.w3.org/1999/xlink"><defs /><rect fill="white" height="153.31306159622108" width="169.3679246142487" x="0" y="0" /><path d="M144.3679246142487,30.196959929417243 m0.0,0.0 m-40.449806934968834,-1.9115528023650497 l2.874933238230384,-2.9485160057793314 6.326534393094194,-0.3368911212728637 l0.9430851557960501,5.071493138705453 0.8635859750331143,4.340369411158093 l-4.206933344636179,2.8548129748829543 -4.961116685962575,1.6739143490768698 l-1.599504502979358,-1.81728983963745 -4.0668426186844435,-2.2424277313840633 l-1.5690026490648792,4.4933565838789695 4.013370369104071,3.019940249501146 l-8.026080134557736,5.524601209627209 -4.220430412915457,6.015699455692715 l5.507179810665763,14.488422250854617 0.1022550709554515,6.946242702848925 l-13.061250083172467,3.6394117713717153 -12.37262092006865,6.1973860915632635 l-10.276322023531135,1.5141738951479178 -6.477304290648314,-5.259058867904563 l-2.6749092175721887,-3.345027338854707 -0.09738138267087748,6.2797624326174795 l6.634792785738772,0.16723099595358976 -7.1373678414605575,8.295824076228346 l0.93254827524613,5.880526429998311 -14.339229729401943,6.497677048738219 l-12.030106915817003,4.86762058302486 0.17746280556219074,0.348334100788415 l9.092202932035779,-3.021643979901365 -0.5792065961324929,7.372933315311814 l19.576207547675597,-9.993769326132261 5.844918002927264,-7.54910329706953 l12.360852153769173,7.669584588657871 8.408298691454412,8.53268323941732 l3.4379596102228107,13.377798175819432 10.950098883907163,1.4715829062395362 l-1.9629520163015692,-2.930406020681482 m-16.043399545042856,-36.04483652244587 l-3.6304950464330656,-9.85951573653296 5.940430384909388,-5.648033810989864 l6.574984156895019,3.6681015781564055 6.36466465703078,3.245044618269924 l1.9081345443920776,-4.584148030585733 " fill="none" stroke="black" stroke-width="1" /></svg>