<?xml version="1.0" encoding="utf-8" ?>
<svg baseProfile="full" height="146.68055503873006" version="1.1" width="120.71320015924248" xmlns="http://www.w3.org/2000/svg" xmlns:ev="http://www.w3.org/2001/xml-events" xmlns:xlink="http://www.w3.org/1999/xlink"><defs /><rect fill="white" height="146.68055503873006" width="120.71320015924248" x="0" y="0" /><path d="M57.55060502607438,76.32452952153345 m0.0,0.0 m-1.1519667603731187,-23.308312561079312 l2.964824804933266,-28.01621696045414 3.6139233438980893,6.804559920546902 l3.6292332630556876,5.59116251747721 0.5118875284890989,24.62146842977047 l4.32634960802272,-1.9858806923347005 8.365106470900331,-4.227007203518811 l4.163215510278171,-0.3192123090869978 -4.593272432851746,-1.723207529978954 l-5.57825948436623,1.5262956915660437 3.2510305992604063,2.8832529571772914 l18.66052268192142,0.26997410852794695 -0.729863263480636,-3.6416339804864415 m-69.0044676215982,61.26576658607197 l-0.9788692741636407,-9.471594791447732 9.425309459160394,-7.374943789096738 l8.149961672746075,-1.6335804419296573 11.78446792959389,7.144974985180503 l0.7887853245117665,4.241785026083543 2.98491813891779,4.816479948463168 l1.7354526510082315,3.2716891185649657 8.655532201500812,2.1966818112126685 l5.720844835708193,-3.8079689818028384 -6.125904969706586,-4.540305258195254 m6.72661321918437,-11.089919586674378 l5.366136268203952,-0.27661442116536694 6.667194275995733,4.703872600924403 l1.92585702771149,6.372784930706221 -3.987488681726786,6.780697773431592 l-2.30874783901151,1.2101745791022025 -4.696269814458427,-4.892972720716371 l-7.902146647549644,-4.317261037055601 5.644197243528168,-7.05088025425725 l12.806220818472175,19.331917051670047 0.9776728522432501,-1.063780902271818 " fill="none" stroke="black" stroke-width="1" /></svg>