<?xml version="1.0" encoding="utf-8" ?>
<svg baseProfile="full" height="255.42526568099032" version="1.1" width="117.5713089830652" xmlns="http://www.w3.org/2000/svg" xmlns:ev="http://www.w3.org/2001/xml-events" xmlns:xlink="http://www.w3.org/1999/xlink"><defs /><rect fill="white" height="255.42526568099032" width="117.5713089830652" x="0" y="0" /><path d="M53.82590586924529,194.5163079192349 m0.0,0.0 m21.379605900993898,35.908957761755445 l5.485779804050471,-34.480882965267185 10.274282055685735,-33.8477093674152 l0.22310278141387216,2.071668189807483 1.3826325716759273,4.339579802630588 m-25.71486814397824,-104.46616609151306 l8.864019501417394,6.5566579728328085 4.262738469262774,16.838430997744354 l-3.616121800400468,5.56898900435101 5.257069267148309,12.663630896566733 l-2.2856893457203595,11.585782637276163 -16.81264388672208,0.9706091738243722 l-13.486126117837047,-1.9131989115235681 6.240144980283988,-1.6156588501792042 l9.709467757604486,-3.709837463322466 6.889103538574657,2.565022165251496 l1.4806154873273987,-2.0911615431729644 -0.9001479750109159,-4.58012363727871 l3.4482058571424434,-1.8172934088903492 7.42569053615931,-2.710562364735054 l-3.4861548469272097,-1.2794155173893886 -10.609674011882957,1.9203413794854232 l-8.775444277428633,2.710706741973897 -0.03627673947601773,0.17352990148361963 l2.2933652854470425,0.7241731366054388 2.74760371545023,-5.30744503497926 l7.110599505591489,-7.3552818564480456 9.734782669308363,-11.425619830867598 l-15.108878456806822,-13.748627590033735 0.7897104638677055,-18.291850446871692 l-5.253927242132798,-5.982973089092667 -5.8873633149329985,-3.549733341388024 l-16.89008806665859,-13.330219319881294 1.0643457369318472,-2.6106270505742666 l4.307581414999486,1.5400240086741568 4.359290277565755,4.225336681483136 l-9.207444310489917,6.33910744747775 -15.48479491074282,5.121744749320813 " fill="none" stroke="black" stroke-width="1" /></svg>