<?xml version="1.0" encoding="utf-8" ?>
<svg baseProfile="full" height="128.93356745873547" version="1.1" width="154.88101326753926" xmlns="http://www.w3.org/2000/svg" xmlns:ev="http://www.w3.org/2001/xml-events" xmlns:xlink="http://www.w3.org/1999/xlink"><defs /><rect fill="white" height="128.93356745873547" width="154.88101326753926" x="0" y="0" /><path d="M107.43511106480166,60.61324319179396 m0.0,0.0 m-6.021006333541746,-9.991593494756932 l2.0572487645772695,-2.852776551613517 1.9624623099222505,2.869442008321304 l1.368174030507634,3.421989548797164 -5.510383916442829,7.266607302967962 l2.3795661621450925,2.080979551029053 11.406184845803963,-2.110700330717428 l-1.0203983755636872,-4.600516232096828 m-6.276341958449816,31.629887261932147 l3.10557962290316,2.4082520777458467 3.2262509873941725,-1.591136104635505 l0.6144944626710577,5.1309221196581465 -0.3330897040677403,5.549209746472741 l-5.245120200925189,3.4227632853896366 4.235421182043407,0.6869940784477024 l8.84470908494544,-4.742941099923236 -1.3499576503873294,-5.600240605521704 m-43.196017939884406,-20.373896987554243 l1.4499437839760256,-4.996833892634191 8.656676179708452,-1.174069150432232 l42.09150686540242,-19.663837583885073 -7.241646247519526,3.7073393860552932 l-7.0189628591293,1.0838561180726576 -10.406817038995083,-4.666255461649494 l-5.798206265385757,-4.184136770429513 -6.825642443075088,-3.9004687976464574 l-2.6074253320679253,3.273617523594531 7.031137054776391,1.2326323062315077 l13.969489620040916,-0.5044103929948087 -7.839400394663085,-2.951910806490691 m-60.44202743274323,-2.950057806707971 l-4.782598780060439,-7.741713167068718 -7.538648993787375,-3.9358611219837605 l-5.380264154929756,-0.8443791477673496 3.064042497772248,0.023001423174865976 " fill="none" stroke="black" stroke-width="1" /></svg>