<?xml version="1.0" encoding="utf-8" ?>
<svg baseProfile="full" height="261.6453393468146" version="1.1" width="146.63456064226233" xmlns="http://www.w3.org/2000/svg" xmlns:ev="http://www.w3.org/2001/xml-events" xmlns:xlink="http://www.w3.org/1999/xlink"><defs /><rect fill="white" height="261.6453393468146" width="146.63456064226233" x="0" y="0" /><path d="M87.95451221031448,150.31349493859045 m0.0,0.0 m0.3598479286594164,-5.807947737577723 m14.973852096910916,92.13979214580188 m7.759830130380593,-0.3881429676643394 m2.56920595130976,-56.42939855834508 m2.702646619346761,-91.2027922592585 l-13.644132004068114,19.337624065550408 -3.932974130496925,-25.39095811378012 l-10.493362664494649,-10.86107286912112 -3.4626030615511842,-17.751360330887614 l-10.737886474226602,-9.330278345868031 -5.347963548070836,6.132430012854164 l-9.942222046692256,13.21975638596173 -0.8496866273497684,2.7731298775096174 l4.2630581544320005,4.995679377345603 4.679766069372887,-2.203088339675218 l-1.3546788445444162,13.504979479323985 2.211717750957492,6.67758706254087 l-8.021284434970276,0.3823280162973336 -18.740706519779742,5.63289487864806 l-15.946936555439537,12.982243795059016 9.474126522868582,17.598054509168374 l-4.667339599339269,2.561691136664158 10.299425038954787,-11.668246199438087 l-4.496654663265169,-30.593264745732952 21.33686467023515,-21.524393397165547 l13.618844793795354,-13.483737499563874 -15.843171386400558,-6.697582622943686 m55.026932468686844,-19.91942169429376 l4.1559730059589866,5.010151091447416 -5.232702912505845,13.264461455940095 l-12.112695124104071,32.28383766453769 2.8510540585281023,25.8427429320066 l22.223903768849425,15.557924237719977 -35.221522401051956,18.905295233423576 l30.73760807338738,10.971830033783698 " fill="none" stroke="black" stroke-width="1" /></svg>