<?xml version="1.0" encoding="utf-8" ?>
<svg baseProfile="full" height="254.74070688907972" version="1.1" width="245.81076581925385" xmlns="http://www.w3.org/2000/svg" xmlns:ev="http://www.w3.org/2001/xml-events" xmlns:xlink="http://www.w3.org/1999/xlink"><defs /><rect fill="white" height="254.74070688907972" width="245.81076581925385" x="0" y="0" /><path d="M25,213.73280503721998 m0.0,0.0 m13.717882144869366,9.435734665334452 m1.2126492588872115,-39.415925604745915 l2.9864450374419227,-9.192280479026742 5.536782333968434,-6.679250806290611 l8.087311251005303,3.868190846841181 6.919354885090203,8.274592854624858 l9.148720547294555,1.521153180676586 12.824058061705989,3.8302004443479354 l6.750004745754371,11.42772684910927 4.720772874878991,4.987783595920567 l3.805021391006108,3.630631566807412 0.9760264060263341,20.41396869957764 l-18.439796019111014,3.206237724868415 -10.270144448565421,-5.559723831521562 l-7.423314543379333,-5.876116175792417 4.264906806673315,-3.290633127507899 l2.4247339308081037,-1.3115005964961295 1.0313811254584704,-1.4559726008551004 l7.691007806862784,-1.640657146201085 15.308658484527363,6.433056898709058 l10.289447281752912,13.400684893479825 8.719552578854138,-2.209201488036554 l14.31031691160932,-12.149073557101001 5.019599561143578,-8.382922552875876 l4.356983963936264,1.781158472945542 9.22874044083158,3.425709397483514 l3.1880902335857955,1.5956358300252205 12.58532919106525,-1.677037919803489 m1.3618660753276246,-20.041564726702628 l-1.0200907392029768,-11.117241267117102 -0.8001796276216883,2.1858032537235683 l15.002158054132902,-45.85236512377835 9.7172267800498,-4.657357775526845 l15.137503924558358,-81.8542177150351 17.44175910802796,-25.788031717280617 " fill="none" stroke="black" stroke-width="1" /></svg>