<?xml version="1.0" encoding="utf-8" ?>
<svg baseProfile="full" height="138.86957787847237" version="1.1" width="104.09575605793422" xmlns="http://www.w3.org/2000/svg" xmlns:ev="http://www.w3.org/2001/xml-events" xmlns:xlink="http://www.w3.org/1999/xlink"><defs /><rect fill="white" height="138.86957787847237" width="104.09575605793422" x="0" y="0" /><path d="M27.1523417135174,113.86957787847237 m0.0,0.0 m5.470017045775055,-66.0112219139831 l1.8410190426140483,4.324449465183992 3.8232688774137613,1.8011104776454467 l4.714122243257808,-0.043373942323916004 3.6293707685984233,3.3725287063097986 l1.5556240168783941,-8.811088933851453 -19.060750507243846,-15.648626119993244 l-4.125013200811046,-5.712645706535319 2.4226313540113487,0.6742771994387942 l5.893385774353428,-2.814987110363341 3.3703837477388836,11.261061207395866 l-2.2102854195910515,3.29901000691165 1.6822516965324512,10.99882821663861 l0.4461522685620545,-9.598745028692132 9.736298033096103,2.4137954143010587 l4.77652717398355,-0.8691949077510027 4.503255462155466,2.040095875294632 l-1.8182991956876384,-6.280131092025486 -3.0479110135268437,-0.04524611551954216 l5.0115459745415425,-0.9670209157806977 -2.7919663754051807,5.097549774828547 l6.141242825213866,7.795783876460632 -0.016832766719045295,6.222399621886862 l-2.587228924338935,4.2880508855495885 10.956303825664442,2.059211131462193 l9.64931516842977,-3.6667220773577074 0.8885811719772575,-2.443329971304129 l-12.099308102808855,-0.12784773806326477 -7.8296108891623115,5.807223580572194 l6.521224886803815,8.518794060025018 12.884154273035708,1.615261244374741 l-5.586346114500561,-5.357713902376233 m-26.385920311061184,-5.6012955819395165 l-5.8622078800462285,-3.7618054079904786 4.513837036488048,-0.8223217086913426 l11.899982057268316,-4.099794474836421 8.131728877010072,2.108104904779863 l2.4447677954299465,2.1253666052089417 -1.311421938621881,7.627118841448436 l-1.8894829963099005,3.001050842701182 3.8637892694553875,7.06861597715896 l11.795219313962383,0.9812817304334428 " fill="none" stroke="black" stroke-width="1" /></svg>