<?xml version="1.0" encoding="utf-8" ?>
<svg baseProfile="full" height="131.26624302270613" version="1.1" width="108.3439213997612" xmlns="http://www.w3.org/2000/svg" xmlns:ev="http://www.w3.org/2001/xml-events" xmlns:xlink="http://www.w3.org/1999/xlink"><defs /><rect fill="white" height="131.26624302270613" width="108.3439213997612" x="0" y="0" /><path d="M73.92186510660761,85.33887557927864 m0.0,0.0 m-2.6001069611276004,3.9137839285840257 l-5.077539449177141,-7.852172196333953 -0.620540732506733,1.9023393494375154 l-16.71338061769165,4.600565836029005 -9.093647152221921,-4.669205559392376 l1.4217776374592688,-5.139541330415309 -3.8675763271104144,-4.28985099957717 l-5.275876386968301,-1.6884787770000147 -0.6498435551435818,13.32213152806719 l-1.4741989422626989,6.391682337193312 -4.970932619856843,8.227596066640563 l2.0240698922770193,6.208517260194709 3.3764982398311574,-3.1555965818997382 l-3.8398757244330906,-3.8619259706516518 3.6571955052261695,-32.29725458007733 l9.929585257559971,-7.670441710110804 -2.7160645345128764,2.9240364501797322 l8.4567922105126,5.639495674722782 3.7069920893467754,3.9980284985048367 l3.095480487591403,5.4742547165148325 -2.211179397382693,7.623476318127699 l-3.420071323453287,2.3353642354015567 5.749023215571245,-12.641748671435948 l-5.422731299061574,-10.231563652120556 -7.597601058820993,-5.441537450798919 m4.706270746855079,8.759741238781071 l6.398405294176994,1.572214068710041 9.405989707649535,3.081305725957332 l3.7320757173830854,2.2873640020823927 2.178033071577481,2.0564781984927936 l9.950039234000087,0.8861806750674052 7.184994067867101,-1.3000189778657991 l-4.512881767043761,-5.668343444632593 m-7.430965601863755,-45.635751785655266 l-1.08005013166029,5.223608271776753 " fill="none" stroke="black" stroke-width="1" /></svg>