<?xml version="1.0" encoding="utf-8"?>
<!-- Generator: Adobe Illustrator 24.0.0, SVG Export Plug-In . SVG Version: 6.00 Build 0)  -->
<svg version="1.1" id="Layer_1" xmlns:ev="http://www.w3.org/2001/xml-events"
	 xmlns="http://www.w3.org/2000/svg" xmlns:xlink="http://www.w3.org/1999/xlink" x="0px" y="0px" viewBox="0 0 116 177.4"
	 style="enable-background:new 0 0 116 177.4;" xml:space="preserve">
<style type="text/css">
	.st0{fill:none;stroke:#000000;stroke-width:1.2555;}
</style>
<path class="st0" d="M95.2,71.9c0,1.4-0.8,4.2-0.7,5.7c0.2,4.9,2.2,14.7,4.2,19.1c1.4,3.2,6.8,8.1,8.1,11.4c0.7,1.9,1.6,6.1,0.8,7.9
	c-2.4,5.7-17.1,8.8-19.3,14.6c-0.3,0.8,0.8,2.5,0.7,3.4c-0.4,2.1-5.1,4.8-4.7,6.9c0.6,3,6.9,6.1,9.8,6.5c1.5,0.2,4.3-2.1,5.9-2
	c2.1,0.2,5.9,5.6,7.5,4.2c2-1.9-3.4-7.8-3.9-10.6c-0.8-4.1,1.1-12.8-0.3-16.7c-1-2.8-5.8-6.6-7.3-9.2c-1.6-2.9-2.6-10-4.6-12.7
	c-1.8-2.4-8.5-4.3-9.4-7.2c-0.8-2.5,1.6-8,3-10.2c1.1-1.8,5.9-3.5,6.1-5.6c0.2-2.8-4.5-7-6.7-8.6c-2.5-1.8-8.6-4.1-11.6-4.1
	c-3.8-0.1-11.8,2-14.7,4.7C52.5,74.2,49,89.7,46,96.5c-2.1,4.7-6,14.3-8.4,18.7c-3.1,5.6-10.2,16.4-14.2,21.4
	c-3.2,4.1-13.9,10.1-14,15.5c-0.1,6.3,10.3,16.8,15.9,18.7c3.7,1.3,11.4-2.9,15.2-3.3c5.1-0.5,15.7,2.4,20.4,0.3
	c0.7-0.3,1.6-1.5,1.9-2.2c1.1-1.8,3.2-5.8,3.2-7.9 M65.1,146.3c0-3.7-7.1-9-7.1-12.7c-0.1-8.5,13.6-21.4,15.7-29.6
	c6.2-23.4,3.1-97.2,3.1-97.2"/>
</svg>
