<?xml version="1.0" encoding="utf-8" ?>
<svg baseProfile="full" height="158.9080537639275" version="1.1" width="135.0498302668397" xmlns="http://www.w3.org/2000/svg" xmlns:ev="http://www.w3.org/2001/xml-events" xmlns:xlink="http://www.w3.org/1999/xlink"><defs /><rect fill="white" height="158.9080537639275" width="135.0498302668397" x="0" y="0" /><path d="M28.550584032574424,25 m0.0,0.0 m16.3009504010111,5.081737641040163 l1.611323619859394,-3.4022254650616013 3.085213458204615,-1.311043112907544 l0.48064893975321155,12.698770392842329 11.06685467241592,16.9478592813407 l10.080124690908162,5.252092777383443 2.736360583376825,-0.9626709509523558 l3.0058422583234057,-1.8571524886264705 8.655864003225672,1.25594271811098 l-25.10270782305801,7.488330551108917 -8.07857851426479,1.9253205738945038 l11.853845044606631,-11.201967001419577 -13.800900096423035,15.52078889431525 l5.8665697804450785,36.205149548629834 -1.661425534035365,4.130056582162887 l-3.7986307305310794,2.419062338003498 -2.990041115302123,8.48112186667619 l7.148158575551788,7.5879406385760815 -6.326765360260691,2.6489389788102446 m-23.68329088638113,-41.90081670965357 l0.5680491074246319,-9.605025232465445 10.373459728038627,-4.303911492857508 l31.799944356117535,15.588579673495428 1.1842650159294976,5.272619786190171 l1.0247328359848051,5.14330746573704 -2.801081245465117,7.91640118575584 l2.562304767533839,3.4935865391806096 7.098446353225563,-0.12466726985601993 l-2.733158093075496,-4.010594577522301 m-23.789069560122343,-27.336569434617566 l-0.35556439886986213,-3.538910590102867 2.1645117271179837,-5.0425972625236 l12.19180975780111,-7.993150539800095 2.941475630650315,-23.319267219091373 l2.122799637099951,2.563915237933213 8.268324659689354,7.888735123409818 l0.825062686836951,5.63057717889655 2.722342804516065,5.5038824775064255 l0.39475993205650245,2.5934649982763927 5.095621532992145,5.954692214194177 l16.139000117127445,-1.7523844449080443 7.251792914230224,-0.45396356430456347 " fill="none" stroke="black" stroke-width="1" /></svg>