<?xml version="1.0" encoding="utf-8" ?>
<svg baseProfile="full" height="175.7491582803523" version="1.1" width="121.23972862134333" xmlns="http://www.w3.org/2000/svg" xmlns:ev="http://www.w3.org/2001/xml-events" xmlns:xlink="http://www.w3.org/1999/xlink"><defs /><rect fill="white" height="175.7491582803523" width="121.23972862134333" x="0" y="0" /><path d="M25.136472455728452,80.89163181622061 m0.0,0.0 m2.1090145078721423,-55.8916318162206 l6.115181699696479,7.001422958018142 6.705312652677193,1.4245768405077868 l-9.984472805025902,33.42537554304014 3.1008529493583614,7.246859839023779 l5.325750714960496,5.107865076328288 7.781483848596678,3.1131634604627214 l-4.2259723930590365,-14.987606935967674 -2.910915331875277,-7.562631366390501 l5.719955151911719,-0.5169380138472387 10.579236391882864,-0.7753117389991834 l3.778626009287445,-1.6934903138996193 m2.4307341989096454,18.54405747271083 l7.91966780153145,5.921077919270781 4.763704535803582,15.264111886524828 l8.093834441508076,4.94242801807142 1.4653119795057767,-8.738832946629316 l-3.3866808089972977,-15.682579493781853 1.5055090955641974,5.406553706740788 l-6.8785877983323225,15.233405833835207 11.840829419438343,16.77266426100991 l7.144041921308465,1.5130592601649784 2.1108379830918,-6.71203880794748 l-9.37517445598755,1.4652303774984454 -3.524087369632991,2.243312627851791 l-2.875806910882586,-4.3191542333942445 -10.38520914775336,1.9520073448325241 l-8.794571180591335,1.917445703794366 -2.5805123733905826,-2.575404171099256 l2.445505690210748,-1.4302329306797228 -1.7066113655554043,6.794309409654305 l3.888686963553698,13.785539794423514 3.7287356079873026,4.173778556042242 l7.886183539427845,17.49513334318161 -2.7767745760410913,-24.26373138004094 l-8.94403188478472,-12.049953864513299 -6.612006597280905,-9.323247649977162 l-22.140075537173793,9.30192931588715 -3.789667380156164,3.1592788139944985 l6.144475414439842,15.675132763340107 -0.3418903584562527,6.81968306616975 l-11.486896699276032,-15.655435362157167 " fill="none" stroke="black" stroke-width="1" /></svg>