<?xml version="1.0" encoding="utf-8" ?>
<svg baseProfile="full" height="196.62382629470716" version="1.1" width="133.1044629094119" xmlns="http://www.w3.org/2000/svg" xmlns:ev="http://www.w3.org/2001/xml-events" xmlns:xlink="http://www.w3.org/1999/xlink"><defs /><rect fill="white" height="196.62382629470716" width="133.1044629094119" x="0" y="0" /><path d="M84.69646490462328,71.16355916904311 m0.0,0.0 m-3.351862557910171,-40.64922191797603 l-2.452770135687455,0.3634526281021428 13.97988452027728,11.218251650704078 l-3.4201327937298465,-17.0960415298733 -3.585983424426794,2.149979832645073 l-2.9650117080621867,9.68581050646904 1.1595148905581947,15.627986147387455 l-1.847972190320778,17.805375459159354 6.996318668932481,29.092564893866637 l-4.718667258071891,9.088980415904482 -0.9181046745906702,9.227211594011793 l2.6631926486068545,2.8428451750712345 -3.7003178015702645,2.3187267900885753 l-6.8474571538827655,7.417311003040657 -0.5362262497503286,4.6720837258965275 l1.7117460464780034,-0.20258843714495017 -0.172145624745505,-6.786368408966776 l-1.3524980558619004,13.091977218097075 10.325082969716938,16.374915238770384 l4.201197806863219,1.8205119383224027 -0.6839887597556471,0.9660765966182622 l-4.846042521543051,-2.21525931683312 -0.5839859771653907,1.4816427014356925 l16.152833637974283,12.164043220867388 8.20139370245601,-24.3490569250506 l-18.606331887188894,-35.014525376124794 -8.811689991735484,-16.172775028761002 l5.630367446097515,6.537890904300518 0.16509346715837508,27.63551972352366 l0.548991202329829,6.584306407158024 -3.280641050476125,6.184156851112104 l-4.741633034373012,-0.7627626094756701 -1.0771345121227516,-3.6640686959124182 l-5.422156567759029,-9.576082009028065 -6.778516295103542,-5.1116960669906675 l-5.583159516303198,3.176713779557432 -11.9319316850682,4.568836856702967 l-10.645756570709155,3.364738696830675 -8.531841846281065,-4.072649461790955 l-4.038122067877166,-0.742870813628082 3.585469507422353,-1.8209355695317992 l2.8921221433048347,3.3880726848495732 " fill="none" stroke="black" stroke-width="1" /></svg>