<?xml version="1.0" encoding="utf-8" ?>
<svg baseProfile="full" height="167.20174429557758" version="1.1" width="132.85844091050353" xmlns="http://www.w3.org/2000/svg" xmlns:ev="http://www.w3.org/2001/xml-events" xmlns:xlink="http://www.w3.org/1999/xlink"><defs /><rect fill="white" height="167.20174429557758" width="132.85844091050353" x="0" y="0" /><path d="M38.77260364896766,62.97512126042631 m0.0,0.0 m2.8814947687183246,-1.3370188778201297 l-3.0441489049399895,-2.487782234610505 -2.496430631937489,-11.08965279849928 l10.959483535438993,3.4785575305775427 2.081187661277378,2.422678907463381 l3.6142944682718445,2.5275350469995894 9.268601671311734,-0.6858817997090128 l7.994112084671923,-10.160113316860317 17.528385579822135,6.523191592169906 l14.932610659380487,6.467927953718058 5.3662463695205584,-0.24809426068727658 l-4.939001299396529,-3.3563991335180163 m-10.693013656106231,-10.838955785086803 l-12.616598375623193,-0.9581719527550336 m-36.8375219441172,6.085300736514274 l-3.3930009361382427,-2.492982172937453 15.907240909641137,23.529700399542264 l-3.0526376938746322,5.612370799918496 -9.971627575760639,0.9169964087988431 m-17.262280339128022,50.3949946289699 l5.503892651302613,7.56987058674516 12.276899472525932,4.71551203510868 l-6.551611873781216,2.6370387411090306 m8.202561010522981,-57.00636951529795 l-0.3600282397626888,2.807452119747781 3.1479700600780873,0.2573339899472017 l12.498143538425909,-9.200325832094277 -3.5082758796181235,-8.681526920974523 m-15.083733698635728,-27.48382019986242 l0.01658743173224588,-5.111535196379233 6.956032099387697,-7.500810128400499 l11.115569631900598,0.43665509096861344 1.5152230202823802,4.625386677263362 l0.6270996212914474,6.476384373234252 3.4048326273446183,5.552528432363061 l0.7308642124900694,5.573311666936521 -0.8690620567195564,2.6845573010844284 l7.832133704264633,1.3163167679795857 0.39914593045594204,-6.111468583199569 l-9.144311708065478,-6.18557377162891 m-3.3737756776783,-13.28592972772961 l7.154900851200351,-6.364310839535411 " fill="none" stroke="black" stroke-width="1" /></svg>