<?xml version="1.0" encoding="utf-8" ?>
<svg baseProfile="full" height="141.5107969077319" version="1.1" width="117.85768196922871" xmlns="http://www.w3.org/2000/svg" xmlns:ev="http://www.w3.org/2001/xml-events" xmlns:xlink="http://www.w3.org/1999/xlink"><defs /><rect fill="white" height="141.5107969077319" width="117.85768196922871" x="0" y="0" /><path d="M78.64613017982313,86.26948661374308 m0.0,0.0 m-50.90045750121526,-19.511206800856453 l7.647470638211656,-10.226641665230957 10.949523756978085,4.244232586954133 l5.00538348235717,6.456834264571641 1.819124504672407,-3.389991101473485 l-14.184576287135116,15.760831582764526 -13.98259877369207,20.676406101652596 l2.9906436285215263,5.673256922686785 13.794841135385735,-4.4043233943985 l12.387284070253104,4.476579672328473 8.946441624146479,4.7325907665783715 l-0.2605035504693376,4.94864279870905 0.15117707753232873,0.8040985597026534 l6.579669192804965,-5.85054792853061 -7.09813288375901,-5.076192444565091 l12.553436946657971,-11.27466726070291 -1.3220021251870397,9.809577777513365 l-3.093805775928564,-0.23342762389292782 -2.048026108899706,-8.95282790262877 l-4.706789380175542,-25.633796062363093 -6.2634985847836315,-9.419658425885572 l-4.212102915153787,-8.611778665751645 4.955134911454951,-17.88790893389721 l8.561363555414276,-1.3132113645401748 9.79786700153591,-4.111790576929652 l-0.33100900939080924,4.430530445623237 3.623330856486145,2.7696548696584937 l-0.39767611941850384,1.5150270656825084 0.24123602508744338,2.539112044479358 l10.061098610636423,-1.3734333884159988 2.9477037864773883,-6.798308309335699 l-3.5764452349621965,-6.037150223249523 " fill="none" stroke="black" stroke-width="1" /></svg>