<?xml version="1.0" encoding="utf-8" ?>
<svg baseProfile="full" height="234.07101776165098" version="1.1" width="133.30212377466373" xmlns="http://www.w3.org/2000/svg" xmlns:ev="http://www.w3.org/2001/xml-events" xmlns:xlink="http://www.w3.org/1999/xlink"><defs /><rect fill="white" height="234.07101776165098" width="133.30212377466373" x="0" y="0" /><path d="M89.52182314094168,204.92356928931576 m0.0,0.0 m0.20697793438000128,4.14744847233523 l18.57332269934204,-24.454306448382983 m-11.557214755841,7.047846198116818 l0.7467667058609863,11.562568566076207 8.776295283442293,4.557194437844903 m-50.119474274427525,-54.15381738430573 l10.040738340910934,0.3946419171084997 0.5689555039342736,-1.859691009459813 l-4.125228492768829,-5.455948037487987 4.953925200044911,-14.086799562597475 l7.2586445085281,-5.965183631847137 4.939342290132974,0.4429984173864754 l4.366784524607656,10.05348777209193 2.549649229403667,-4.050059046037574 l15.672358192781282,-1.875829551196776 -0.33976614204312583,2.6106538306148384 l-2.3302496407578577,0.643861736007264 -14.047649253445256,3.352805601313005 l-18.609886129138324,-8.680953540263289 -1.250472325932117,3.2704993160915485 l-12.33234710964167,1.3834311773518038 -10.806778311017267,-13.559662310823237 l-4.923892091686183,-6.91982881819306 0.8529188716352942,-13.531493589622247 l5.488885749656438,-12.344498391692428 7.021447100822846,5.9517229576027475 l9.160978615921461,4.733543411444324 12.277679550570518,-8.372122432750562 l-0.7567595705190905,-11.544005234673858 -7.594718223636816,-5.895706097367381 l-11.289756784690614,-7.278126331957285 -4.976543489570202,-13.84979957784335 l2.2053364979362367,-7.593117319300958 -15.808614839091936,-14.840961665161924 l-9.313478506645767,-3.764363119736329 " fill="none" stroke="black" stroke-width="1" /></svg>