<?xml version="1.0" encoding="utf-8" ?>
<svg baseProfile="full" height="173.41700696751693" version="1.1" width="132.5535206088099" xmlns="http://www.w3.org/2000/svg" xmlns:ev="http://www.w3.org/2001/xml-events" xmlns:xlink="http://www.w3.org/1999/xlink"><defs /><rect fill="white" height="173.41700696751693" width="132.5535206088099" x="0" y="0" /><path d="M84.96892096670139,148.41700696751693 m0.0,0.0 m-1.2816738521828441,-18.940677386006826 m-3.697987093614621,-12.893768641879149 l5.721136343104292,-4.523895837263588 5.8365720240065295,0.2759451701755464 l-0.663130811038656,-7.1348322938828534 1.7829233739890882,-35.36279854581562 l-9.43551811644659,-11.115634421929782 1.4107066703700104,-1.0066439560635598 l7.775765639119113,0.540883025620573 12.2913573396951,-6.1542492903882025 l-6.8901622207050055,3.121497984274838 -5.618439585625858,16.00805529526464 l4.845531123307103,28.3144573103265 5.21586629020891,5.632617389192146 l5.2916525179219365,16.976231930345868 -6.825606669881245,6.980318533755841 l-3.599523815347071,-10.176078592192086 -6.00837264400439,-5.422278376482444 l-18.899247510466562,-14.234238123941543 -7.978058431880641,-4.271804350841812 l-0.0798458650770717,-26.5395819380516 7.65487012704515,-15.106802171197579 l-17.227487987590884,-7.4930048683838475 7.22219673398542,-10.677554960111967 l23.152930104572267,-7.760577871044687 1.5447424382370711,-2.3313152747884414 l-9.634876853782123,3.9988013062305727 4.369194979997951,-4.1200780124378555 l8.606789249909324,21.377640447361703 -1.1875233439364286,5.313810594113623 l-36.11163619224628,5.857666002092936 -3.27012344423432,-5.204236751930849 l-4.086848822090144,-3.388530137197554 -20.195092662019913,-21.459827487545233 l0.41970244909774024,4.455446880283185 " fill="none" stroke="black" stroke-width="1" /></svg>