<?xml version="1.0" encoding="utf-8" ?>
<svg baseProfile="full" height="218.73326951660076" version="1.1" width="116.56832224757603" xmlns="http://www.w3.org/2000/svg" xmlns:ev="http://www.w3.org/2001/xml-events" xmlns:xlink="http://www.w3.org/1999/xlink"><defs /><rect fill="white" height="218.73326951660076" width="116.56832224757603" x="0" y="0" /><path d="M70.03089447343721,193.73326951660076 m0.0,0.0 m-20.607773952722408,-29.753666188000224 l1.279502063235337,-8.264178329395364 m-14.852095892880056,-33.712130324329024 l7.628118983930208,-8.765682087812351 17.695533481356694,8.7890393311018 l0.5231858647546991,7.847753699364309 4.686419258977082,7.729372628042059 l-0.7291768121534572,2.5609420648356904 -0.7788817504781679,2.8553929163849068 l1.958654175950847,-0.5645272692641295 0.8732964862918681,-2.406177693332536 m9.245285558744362,-18.181991909695284 l7.265217027616638,-0.3400518995943911 -8.64732767720918,-15.20722135580826 l13.306535177489973,-5.64148075472852 2.690935781234377,0.16309125011859854 l-4.692354512154267,4.693822267228939 -2.290878120602958,1.66107373301858 l-3.4488532979585567,-3.6336749223101195 -7.432196141378553,-6.895794695644999 l-17.19367022752994,-12.613559772455586 -2.5882415507967513,-3.7528426240824895 l6.964889507399185,-4.801590831411033 -4.538614466597096,1.899791628152729 l0.9089543547431318,2.848202811150216 16.12559058996536,1.0491636489404939 l2.627115295990923,-0.2824922501411071 -13.688194533113144,-1.3531271430401648 l-0.9409530421378243,1.0017889121868602 -2.6028329080937933,8.979307852178046 l-4.670385905711799,9.399353312037752 -1.8868489265138726,3.6704164270880093 l-1.2542372089470624,-11.976238827628135 -8.36579391943442,-0.3773057371080202 l0.6459207056804828,4.780851913517656 3.080572873709083,7.746596087892477 l15.55753607239413,2.8121838569491495 -13.319911070040433,-36.61201225144247 m-20.104007385391792,-43.684250335300995 l-3.4609284310560637,-0.40141665426385437 4.003264371668946,1.9158541845284605 l5.4458099130549,8.752298268787488 " fill="none" stroke="black" stroke-width="1" /></svg>