<?xml version="1.0" encoding="utf-8" ?>
<svg baseProfile="full" height="269.816834290718" version="1.1" width="127.97857109241068" xmlns="http://www.w3.org/2000/svg" xmlns:ev="http://www.w3.org/2001/xml-events" xmlns:xlink="http://www.w3.org/1999/xlink"><defs /><rect fill="white" height="269.816834290718" width="127.97857109241068" x="0" y="0" /><path d="M70.69069972639545,244.81683429071802 m0.0,0.0 m-1.104175960886617,-53.94165173051086 l-0.27414939637139657,13.235022194537192 22.848634441320595,-28.115972228475965 l9.903087002878884,-1.4093257466085047 0.9144752790737606,0.37148429926872045 l-4.481202825423933,5.237112005504271 -6.839813597793867,3.11624259953057 l-5.915475867292883,3.2131187497044764 -5.779092741284507,1.5976920929198857 l-5.18342681279056,0.18181231612004217 -5.522235123848704,1.0390910142750944 l-5.359459515920377,-1.9070851168397502 -4.34620084416849,-4.90700041142314 l-3.9150861912270982,-8.900161318083223 -0.37338361152723765,-10.019447955451666 l4.270362113395931,-8.482482178546508 1.3270244941109366,-8.3468278662751 l2.144695432253351,-7.3555062543905825 10.719931392544352,2.8872720247214887 l2.497631996174332,29.3345507078821 -5.752747316065943,15.07563708051576 l10.237825245968255,13.91490862186735 1.483148548646222,5.102403039347309 l0.16381537831783438,-0.3596484155288615 m-27.619056438761998,0.27074815599617885 l-5.636778486884067,-1.3286252940888779 -13.489397425006707,-12.229118169283888 l-10.111214970889899,-5.983387472735253 -0.49843392493560956,-14.093532749062984 l14.419376199083448,-13.026625100022837 0.42417544195638757,-18.338634351831654 l3.450071620042824,-5.981192889079076 11.335687261945843,-29.679909079848414 l5.037158031732223,-23.963663097710164 3.828112844608175,-56.02413176711112 " fill="none" stroke="black" stroke-width="1" /></svg>