<?xml version="1.0" encoding="utf-8" ?>
<svg baseProfile="full" height="237.75660478684426" version="1.1" width="208.4970570731192" xmlns="http://www.w3.org/2000/svg" xmlns:ev="http://www.w3.org/2001/xml-events" xmlns:xlink="http://www.w3.org/1999/xlink"><defs /><rect fill="white" height="237.75660478684426" width="208.4970570731192" x="0" y="0" /><path d="M157.95473045550708,210.6050862158591 m0.0,0.0 m-7.7794382979489916,2.1515185709851727 l33.32176491556114,-16.165391012206523 -12.00288751881943,-12.086943032659665 l-3.0901408659039045,-1.4247181975514873 0.4639449955447031,-4.29303469591282 l1.4896637568945619,-26.180792481185858 -11.395916513752363,-8.745583200437054 l-11.135934795169943,-9.300379202099482 -14.6241786535629,4.951676258153374 l4.195702663335773,-0.6541704609823268 0.9867002275355485,2.5082639841992282 l-9.241895652835831,4.529193147652522 -1.62755359869026,-12.195515608537875 l1.1495518983082098,-11.236198776365493 -0.14340501584556575,15.764820067848788 l-8.96178723252365,7.404362239486368 3.9038393349229583,4.226858701667861 l11.020050596901006,4.236983308010365 7.33526778426391,-2.596127360669772 l4.483182897001613,-1.1049939011033816 -3.0212146365812775,-7.1909470260945785 l-0.022959711108670004,-2.8959448021346454 -2.9480458785215946,-5.434158905772378 l-2.881561422500376,-8.202666474949076 -5.676155731444772,-3.218374936987849 l-9.1930646285944,-6.013493846076812 -1.0677933262165353,-0.5925099955130209 l9.1679631017874,-8.709834896954195 4.459890273125723,-6.42074220193911 l5.572314993047798,-4.2738235746578 -1.0777911668212352,-0.5076771015154907 l-8.528416383296449,-4.900512973023497 -25.537666952351337,-26.238471745077412 l-8.283423817859992,-11.395405117249135 -12.716806738523658,-12.781937353864677 l-24.220995376353066,-7.023791548923521 -5.0994975299204315,-9.594622063417809 l-30.226036448590786,35.80624609462234 " fill="none" stroke="black" stroke-width="1" /></svg>