<?xml version="1.0" encoding="utf-8" ?>
<svg baseProfile="full" height="364.894581717113" version="1.1" width="121.30078677769261" xmlns="http://www.w3.org/2000/svg" xmlns:ev="http://www.w3.org/2001/xml-events" xmlns:xlink="http://www.w3.org/1999/xlink"><defs /><rect fill="white" height="364.894581717113" width="121.30078677769261" x="0" y="0" /><path d="M25,339.894581717113 m0.0,0.0 m23.136134657285783,-3.666892139511966 l-5.883729595190892,-83.12438586068157 32.773043189828975,-46.04117174097292 l7.813684896524317,-65.05404964340978 4.555963105845584,17.70428505697525 l2.6352588124868794,8.732502476670119 -0.9794498069861504,0.33552437855682626 m1.7897545643740533,-0.1589198520486404 l3.7443381171876866,-3.739404893813494 1.7157888363363916,-5.103371639887991 l-5.14723523595802,-1.4920223045715135 -4.352296307265289,-3.2694257508116076 l3.069817829428878,3.711128307472759 1.3392600413854066,4.719815213191823 l-2.209173550868919,1.49223440469741 -3.57884211564906,1.090704654206834 m8.772525806290052,1.7462338884471529 l0.751724863834879,-1.4128347629326692 -1.519651926454046,-8.081687233507028 l-1.6261031315426877,-0.8409677824312967 -0.6881295484902089,-5.84279887918093 l0.9466672461366252,4.738263562549126 -4.016369987586052,2.263052083215714 l-5.334723514371114,-1.6666303522668235 -4.907520771063659,-1.5974744107110832 l-12.129705696616805,-3.6015016876738524 3.219090348236977,-5.654250999784878 l9.226798711312595,-3.6554784629872406 -4.584531860611627,-12.940247785944154 l-13.004338057630603,-4.340443064723834 4.8209115736105,-12.677605925785288 l5.367378751870621,-7.051813296296668 -1.2976895662632322,-2.783053981550995 l-33.933462956776545,44.05251231214546 2.8481456756541905,-121.68440560375518 " fill="none" stroke="black" stroke-width="1" /></svg>