<?xml version="1.0" encoding="utf-8" ?>
<svg baseProfile="full" height="291.6138809583722" version="1.1" width="116.94078007883897" xmlns="http://www.w3.org/2000/svg" xmlns:ev="http://www.w3.org/2001/xml-events" xmlns:xlink="http://www.w3.org/1999/xlink"><defs /><rect fill="white" height="291.6138809583722" width="116.94078007883897" x="0" y="0" /><path d="M84.35563829409894,35.00578593974283 m0.0,0.0 m0.25149650281649505,13.751972828906197 m-12.781613181451007,-22.916113424828062 m18.538407445745555,42.989485770162084 l-9.432940275901476,-9.418701261840836 -8.511817106095046,-30.643666854414892 l-2.538472543424568,-3.7687629977273183 13.036050477721732,1.303003247044311 l9.02403046532835,11.426643504669695 -7.431464102121412,5.706177219849102 l-24.09484956721551,2.5014367242752993 2.776487704143969,4.831161782143415 l12.825514230501867,19.992388314371865 5.84496442678151,-23.14521194349038 l-12.513770172407556,6.488188188879917 -0.8351132022891544,16.828755922670908 l-13.377496507157753,14.770640066075359 -7.595998847781714,19.60995730259447 l-2.9582535205918012,27.04920477236226 1.574899118717511,25.825003896954563 l-5.222569260711156,12.250523467552261 -11.397010120241466,12.415528089401917 l1.2184266981137504,21.80553566218242 -5.754546956580056,15.06751270684693 l2.3371292347964467,12.649454560446832 10.078650600060737,15.609853821454678 l0.07807456466782492,18.62812365208635 3.679463802135754,-6.660678080751645 l6.697974178660053,-9.405397038857167 3.2934145852475036,-14.281442403647233 l5.701086664146036,-3.9468348089656535 9.125144476778084,-9.280114836212222 l12.302045613979264,-3.5094784081996377 6.193698692358181,-13.237315378042553 l1.1760617110354028,8.387403893053987 m-48.08550361776979,-42.57541248512311 " fill="none" stroke="black" stroke-width="1" /></svg>