<?xml version="1.0" encoding="utf-8" ?>
<svg baseProfile="full" height="131.45970809658695" version="1.1" width="103.97245777976808" xmlns="http://www.w3.org/2000/svg" xmlns:ev="http://www.w3.org/2001/xml-events" xmlns:xlink="http://www.w3.org/1999/xlink"><defs /><rect fill="white" height="131.45970809658695" width="103.97245777976808" x="0" y="0" /><path d="M27.42324775168507,30.983121234863397 m0.0,0.0 m23.40831724812001,18.51730427886722 l5.250033095136786,19.755438034829115 9.271503812059816,6.232184293504037 l-0.8637234021195733,24.752002721517783 -7.185951256400222,4.973328832869883 l6.925676595299167,1.2463287001355103 9.33314715855705,-6.9905336905503 l2.9115674465400567,-0.5407607085310256 2.4986393308899215,-2.6448753868982977 m-36.74354891961763,-26.96455615128697 l5.19972822388351,-7.693874955713868 -8.769329523306281,-1.284185086271914 l-1.9174746688316253,-13.399206741206246 -3.9915393578279392,-8.589226410761258 l1.2431681112108162,-6.227223143786351 -3.0492798328951523,-7.1252658215807285 l2.4509490648174546,10.408057866085924 0.852971529484079,4.5042729358926445 l-6.903496988314474,10.79363407876579 -2.3446054183708402,1.3742322092423442 l6.593865691854816,-0.8026622596236828 -1.4370484962256653,-4.962119404165272 m25.021226465993767,46.22191293838939 l-8.648484383661179,-9.698768429472638 m-8.02886339869012,-16.154597545962314 l0.9276149482720633,-5.471878983953992 2.4705185565190977,0.141419536260389 l7.507531460182582,4.030846652889415 0.7351717873187846,2.2153906445841023 l-1.5855081342933481,7.5813759157996525 -1.8361581862582634,7.060079689393124 l9.239042049703976,3.4655353525123664 10.51597441076356,-1.351390848318254 l-2.906524761906429,-6.331119961956772 m-22.056416876174385,-14.950809138803157 l-4.462204723841413,-4.574614655689961 -3.6801705653178107,-9.20469401866832 l6.53447232377586,-6.584912109094678 2.9346441665415877,-3.9634587083655717 l8.577596108278973,3.5294659242976456 5.445536223271859,1.8118023271556354 l2.419312735635004,-4.8359818073868395 " fill="none" stroke="black" stroke-width="1" /></svg>