<?xml version="1.0" encoding="utf-8" ?>
<svg baseProfile="full" height="172.1328520706346" version="1.1" width="121.61370633492507" xmlns="http://www.w3.org/2000/svg" xmlns:ev="http://www.w3.org/2001/xml-events" xmlns:xlink="http://www.w3.org/1999/xlink"><defs /><rect fill="white" height="172.1328520706346" width="121.61370633492507" x="0" y="0" /><path d="M45.901051964133266,147.1328520706346 m0.0,0.0 m5.4223024493587655,-8.009691727628741 l-1.5324821440606389,-84.23448482791014 8.74910993825853,-9.02266381548216 l7.9497108125812606,1.4845302299821002 -3.699535682813846,-4.021479765768557 l-6.752553977722281,-2.2038319195502973 -9.730754020366616,-2.9320367809500874 l-13.770475747306362,0.38011618373278794 -6.73390461278133,-2.790382480082855 l-0.8024689792807504,-6.90013753088216 3.3017024177239915,-3.882789636094516 l7.155303604618199,6.961986386453513 11.519689312874457,5.979815747031162 l-0.5739842212122632,3.5070616829691663 5.289276522318818,5.347431369407132 l6.460334883670243,5.75903808853321 2.07484372016779,1.5869826559439997 l3.9755209866116927,0.8355984059091817 13.940649718206306,2.369735937353917 l3.269956414035664,7.209122058996362 -0.9568183962646724,3.738798389068073 l0.6378665488974744,4.111270898619515 -0.9683136516903867,12.292003532529831 l-1.5741767004541543,6.142400788655434 1.828639615553615,2.728322572560138 l-3.0693907287487865,3.9134887197432424 0.7237962034308162,-3.4729141226327687 l7.674068615750309,-6.132167355199842 7.641100503471263,-5.391045148827653 l2.048904001419188,-0.4387187189939118 1.2147369645454957,1.5491370092027097 l-13.133928920809051,11.300121530823027 -3.6100040140017287,6.063031003019594 l-4.249285052356666,3.593821236507232 -24.504992561881807,0.5596156361497081 " fill="none" stroke="black" stroke-width="1" /></svg>