<?xml version="1.0" encoding="utf-8" ?>
<svg baseProfile="full" height="726.3917163334336" version="1.1" width="229.70879898722976" xmlns="http://www.w3.org/2000/svg" xmlns:ev="http://www.w3.org/2001/xml-events" xmlns:xlink="http://www.w3.org/1999/xlink"><defs /><rect fill="white" height="726.3917163334336" width="229.70879898722976" x="0" y="0" /><path d="M44.21954432294993,701.3917163334336 m0.0,0.0 m-19.21954432294993,-110.25683547966139 l10.21205653490725,1.3855876428354843 9.885877014812896,-4.767077246758504 l-0.743690103094818,26.36839570902107 15.220248267376768,-101.90626862881774 l5.893914886980555,1.876596821751934 7.1751580074801335,-13.452600658574108 l24.476116257755216,-44.54162878967765 13.618388488852128,-30.815410108990964 l38.546289090095165,-36.672968815715464 16.267427508162765,-87.81053111685917 l-10.96814843220769,-46.77932347425266 25.2956284868961,-51.695909089269215 l-1.7924113958484171,-28.953839320248267 10.742437379897467,3.32604988423412 l10.100072259143845,-6.045520044498864 5.240401291385247,7.478425067591141 l0.539033444635131,5.778452994527271 -10.926290805965598,6.853292077769957 l-10.021716147697246,0.42361628428298176 -5.385085578065941,-6.186247698566747 l-0.3607924892054217,-9.39117158567483 0.12577538194526824,-10.260419776670819 l4.884668514204084,-0.5475814082380606 m-2.863463787595122,-139.7987995729731 l-0.3872918668424116,9.153230700277945 -0.11345514924357508,4.843264291948126 l1.0512651875823686,5.710357518512639 4.111931644885762,5.080173676548055 l7.163648114263291,1.6226059445548235 4.731830380297279,7.024679192489772 l3.4212867328492713,0.8200077531324484 -4.198706875051132,1.3062165143464912 l-5.62725411258131,2.0797748569847023 -11.486886291211668,0.06399293796064111 " fill="none" stroke="black" stroke-width="1" /></svg>