<?xml version="1.0" encoding="utf-8" ?>
<svg baseProfile="full" height="92.79923987536391" version="1.1" width="167.30865896348283" xmlns="http://www.w3.org/2000/svg" xmlns:ev="http://www.w3.org/2001/xml-events" xmlns:xlink="http://www.w3.org/1999/xlink"><defs /><rect fill="white" height="92.79923987536391" width="167.30865896348283" x="0" y="0" /><path d="M118.98193661020119,25 m0.0,0.0 m-0.16352805432678474,40.30625453373421 l-0.5267396967515897,1.2275006648949314 0.6440577204360489,-2.3651267174303623 l2.9418065052612907,2.2857657844254096 2.634825509667096,-1.001638970207625 l-0.4878906807741151,-1.7418936915498118 -6.1167170463512095,1.4808595430539733 l-2.474324453990251,1.0525243500585737 8.499287345921212,-2.2207306413838985 l18.375945204189932,-32.098207162712086 -3.6318953915022076,-0.7248192643064638 l-18.646115323445642,19.796207761505226 -15.518348000333546,2.0680499211084777 l-8.391007076359495,6.531890592008267 1.9769326952183863,6.070724105928199 l-2.5670234550694557,2.1002484654159876 -3.5912756105033554,-5.35101562613443 l-5.064764467151035,5.382646226955334 -6.8068177557157705,-13.37178448506339 l-0.24288642925886061,-13.244689669888418 8.817739484878878,-15.602800794044333 l-2.365116658920252,5.5341382572683395 3.684350685273575,11.156702471819344 l-1.955934113701942,1.4675247189844602 -21.52542096048763,10.708264555940518 l-19.27208905040783,0.7212293136742531 -14.477176460478217,-4.7390761013215394 l-7.071528344812139,2.5283440266166735 -0.10175172930905377,2.064634124335635 l-0.5585310013972319,1.9141326630126498 1.8542424758395406,-2.900200521409071 l0.021360934712833304,-1.2141816133274712 10.117240533942566,-7.877631420258553 l-9.40912851350685,-3.6545372101882805 2.6446584742227532,-1.9241996815851548 " fill="none" stroke="black" stroke-width="1" /></svg>