<?xml version="1.0" encoding="utf-8" ?>
<svg baseProfile="full" height="135.61759830813125" version="1.1" width="147.97862035550554" xmlns="http://www.w3.org/2000/svg" xmlns:ev="http://www.w3.org/2001/xml-events" xmlns:xlink="http://www.w3.org/1999/xlink"><defs /><rect fill="white" height="135.61759830813125" width="147.97862035550554" x="0" y="0" /><path d="M25,96.42523303290766 m0.0,0.0 m18.18521775006409,-8.04795589947085 m9.068063774124267,-7.319595570854219 l1.7138292545679303,-34.563720666588665 2.5281302449628664,-5.655431786404672 l2.6732234598238023,-4.018046941878155 -10.17103050153386,28.66337615021947 l9.13978834169635,4.813068204298396 12.516466897262267,-0.4500688958005891 l7.917606803461707,1.9072355870689244 6.24717662555923,-4.898059335653405 l5.350735109704668,0.09461860537676337 8.93310247480682,0.7559953770329048 l6.247535912385862,12.197318721152234 6.395339671331217,1.3604126478231504 l8.926376603834347,-0.4592845755450531 2.307057933453973,1.77074047393783 l-1.7978506184180667,4.873167515914341 -2.3417183293486854,6.905033362629651 m-35.21884462495072,-33.02357565428172 l3.407521255388898,5.941463312791792 0.23160660350435958,1.838136296639355 l-7.520845492196095,-17.040941522922573 m5.621347166144582,49.878659248063784 l-0.3161374639827842,6.706998479331042 -2.8740544447472285,1.9628221423438623 l-4.532773007661574,-9.528552943824021 -4.322540210627712,-60.98751254410482 l4.104560109241588,-4.509898097291348 4.357990837528447,-10.591634722911062 l-1.532545383613254,6.7366858531070895 -0.37572353625918664,5.816355589300054 l-3.680978500184046,4.244666440047327 -5.074685239331089,4.8140879791407905 l1.9544047014273407,6.9048431217202095 -28.402423885588032,14.983815579946564 " fill="none" stroke="black" stroke-width="1" /></svg>