<?xml version="1.0" encoding="utf-8" ?>
<svg baseProfile="full" height="140.9316892291708" version="1.1" width="105.83171705406075" xmlns="http://www.w3.org/2000/svg" xmlns:ev="http://www.w3.org/2001/xml-events" xmlns:xlink="http://www.w3.org/1999/xlink"><defs /><rect fill="white" height="140.9316892291708" width="105.83171705406075" x="0" y="0" /><path d="M32.909274544697865,106.75960368042496 m0.0,0.0 m22.748097375993073,9.17208554874584 m-27.91351191565763,-59.56993715457203 l8.374411571148837,-4.632944648458334 -0.8215605937527226,-9.13404417522202 l-0.06486329488939402,7.516174135486541 11.553918726489586,0.029340400887300083 l5.489062713556417,1.7458451324838802 -0.5888074583224228,0.6319023059725795 l0.44554061618022117,9.823459871027568 -6.9562672212102425,2.169475896258509 l-8.261517578386712,-2.4490180011498985 -5.46043315256829,-6.4824571379926255 l0.7504268647802739,-1.9893339603356304 2.5286265183820325,0.25832352041421885 l-1.5047579561183024,-3.440066928046758 -3.0275714556582316,1.0441052639531803 l-5.200068304664354,28.359937695411833 10.269969791721461,7.99182880909274 l9.928753830489013,15.493309072813819 -2.717865904553609,-6.359917210235316 m-7.00992989665084,-6.946850462367129 l-0.9911442726934749,-5.195568768122213 1.3170142011249175,-10.637528677244665 l6.281019756308158,-8.016935446961059 7.883935827009642,-4.3052188022071585 l-3.9899615470027916,4.504196364462287 2.3684347176244493,9.633496348767956 l2.0183966584756106,5.794044957038889 2.827962487961629,10.91280223704531 l5.885274043377216,-1.2133800346357122 2.8436897438312245,-1.1141691429762797 m-12.866159574522591,-48.1162515719497 l0.6439271076630007,-9.227047215899502 8.697193068475322,-7.411966865134946 l-6.314888711264498,1.9834953133396038 0.20789504860076763,7.000671554271989 l19.091068661901076,3.3715922346926956 6.633609760039629,-5.563845123710728 l-7.647680031266996,-7.389209015370004 m0.18931810825379203,12.440016917919875 l2.7422079394687136,16.691904587006537 7.539676239689923,2.4397697392741664 " fill="none" stroke="black" stroke-width="1" /></svg>