<?xml version="1.0" encoding="utf-8" ?>
<svg baseProfile="full" height="261.94995366006196" version="1.1" width="147.37827995354942" xmlns="http://www.w3.org/2000/svg" xmlns:ev="http://www.w3.org/2001/xml-events" xmlns:xlink="http://www.w3.org/1999/xlink"><defs /><rect fill="white" height="261.94995366006196" width="147.37827995354942" x="0" y="0" /><path d="M110.7241220023113,236.94995366006196 m0.0,0.0 m4.987938166280301,-34.60256418023639 l3.9523125028920325,-8.326863396098384 2.7139072820657817,-5.373807326523214 l-6.676034260013246,-9.32526619893647 -11.571371610530003,-10.35604883524548 l-16.132403835194438,3.161089826901647 6.849811576042041,10.332000204472841 l2.8620287755183353,-3.9655289155991102 -12.106324808619616,-23.572269215212625 l-9.961637911250541,-11.307827224419555 6.059116572714506,-15.949036794033166 l-19.36588334968648,-15.88258259011963 7.302758769517009,8.327432157278311 m6.055888465816934,0.05113098589956344 l-50.694228337863926,-36.438957492306415 10.453267101355417,3.5647856811199663 m-0.1657845763200988,-12.580000927615913 l2.896626137009193,-2.5183302356972246 3.085441956988225,6.70842327909674 l2.1561825795006575,5.966567506444386 0.9235110204722388,7.101256549155829 l4.033759876514227,6.973000774051498 0.4360721622507054,5.220633658054008 l0.3565036637443379,1.443718285146175 2.0312674693770503,-3.9460321555104114 l-0.2919631018799836,-5.937365243922193 1.8728715899938109,-5.081364339039882 l-0.43875933916805887,-6.259439437207277 3.075365120019203,-7.397660623695568 l10.806551038310891,-2.192943222930151 6.303295222275758,-8.641943929501924 l-1.5651367512124204,-14.6717701789363 2.6919483626164085,14.283578146514275 m7.839175819069832,-40.75596825140991 m-4.088912635384794,38.00644358762942 " fill="none" stroke="black" stroke-width="1" /></svg>