<?xml version="1.0" encoding="utf-8" ?>
<svg baseProfile="full" height="157.41696758384217" version="1.1" width="85.09155607796238" xmlns="http://www.w3.org/2000/svg" xmlns:ev="http://www.w3.org/2001/xml-events" xmlns:xlink="http://www.w3.org/1999/xlink"><defs /><rect fill="white" height="157.41696758384217" width="85.09155607796238" x="0" y="0" /><path d="M31.327134191720987,25 m0.0,0.0 m-6.3271341917209885,36.72283050153237 l2.803321319560721,-0.5121367225220244 2.436810313741474,8.944226268792024 l2.128432194058422,7.703948140659478 1.0607747101058869,5.586899780220606 l4.1397293303314475,3.591151648530187 0.006477885325863134,2.4800092080604674 l-2.379153057277837,3.9383735783892284 8.659960549335684,2.4202800794310306 l6.869536337114927,-3.5773249434959142 -7.831982093735896,-4.784799746611879 m-3.341359445361627,30.376450202347172 l2.3354021012966735,11.305711730376572 -3.2303616945968194,3.22134785813282 l-6.646115886799271,-2.1172364567906636 4.985205474603714,-7.528390719069784 l7.991768402605008,-5.988396234760473 3.9800327807033185,-5.63941001109455 l-2.0852661589726007,-4.022834901314316 -6.875538029118395,8.384346146084072 l2.6063978411562747,10.04397482006528 3.303881647238243,-2.586859995320463 l-5.121529308301231,0.3488550447333816 5.033583249746929,5.905433111398488 l2.321101776505645,-2.5035353783292624 m-8.163094914313803,-35.10192468548979 l1.6027789367065097,-5.161788633124236 2.5133302119692424,-4.0184283028136045 l13.086479651500326,-25.70875317701104 -1.500924133839708,17.287061641030455 l-5.1939072329079545,4.380329857464936 -5.22397709394494,2.09203299050923 l3.594074388474162,-0.6470682512301198 11.225686025051981,2.4858754132372662 l-1.9846971776378313,-4.559728204613571 -4.921597362005648,2.327714942079607 l-13.226879985929045,5.880214594967099 -10.961792830258762,-15.357420590039764 l-2.2306698796445095,2.8122515336936047 7.32896068898593,-1.7117826340062625 l3.250819040326994,-15.601460944732212 -5.419379724147804,1.002827357904647 " fill="none" stroke="black" stroke-width="1" /></svg>