<?xml version="1.0" encoding="utf-8" ?>
<svg baseProfile="full" height="125.32448789586422" version="1.1" width="151.83526411775355" xmlns="http://www.w3.org/2000/svg" xmlns:ev="http://www.w3.org/2001/xml-events" xmlns:xlink="http://www.w3.org/1999/xlink"><defs /><rect fill="white" height="125.32448789586422" width="151.83526411775355" x="0" y="0" /><path d="M25.031877509797962,98.1928591952859 m0.0,0.0 m5.57639840826726,-31.773988878747144 m9.264937639714331,19.35865930716241 l8.84156813991271,-32.68359645294454 -4.82239189152364,-18.323867687102325 l-18.892389806168623,-8.424666559197268 11.549130071117402,-1.3453989244570368 l7.231899637601693,3.6553104631654865 0.2133794741539754,6.495552198806293 l-4.091216291333564,6.720022894119318 -1.893899353971914,9.216143300214284 l-3.6703137981973586,7.578148497239452 -0.4451241300867829,5.55733660536871 l4.9717919640877,-0.585857215695339 6.181731394966552,3.6698838786208663 l5.103423342830934,4.568488478354129 6.1273998898522875,3.7201453816460472 l8.861413574924324,4.24541184541462 5.674446818992093,5.22654933561987 l-0.1948597185675259,7.0926186227132675 3.2066696280637053,5.133986652423952 l5.698598816815501,3.0307469578532644 4.840911058667645,-1.3893305245814176 l8.175931126169164,-6.9826201669306505 8.40132935909161,-4.728183572757553 l6.638211884481951,2.2083339480443773 1.2426158037803037,2.436475483015044 l2.8056210918731104,-1.153585115953565 3.8183863689781563,2.486516882454829 l3.3510634135366466,4.18001201947614 1.735127031346717,0.31539089961753863 l1.3861964947946877,1.0010148505066836 -4.814980910802227,-4.12651711295792 l-5.84561198658826,-5.831799346573117 8.952597958811372,-7.442298906750917 l6.62339410236368,-0.16253680093313572 " fill="none" stroke="black" stroke-width="1" /></svg>