<?xml version="1.0" encoding="utf-8" ?>
<svg baseProfile="full" height="212.30918229567698" version="1.1" width="159.4710299549358" xmlns="http://www.w3.org/2000/svg" xmlns:ev="http://www.w3.org/2001/xml-events" xmlns:xlink="http://www.w3.org/1999/xlink"><defs /><rect fill="white" height="212.30918229567698" width="159.4710299549358" x="0" y="0" /><path d="M40.88099441140852,187.30918229567698 m0.0,0.0 m-8.350870058012365,-21.61956268912958 l-7.5301243533961575,-8.05886335520674 18.75112940293179,-48.40054404050332 l28.264792055372876,-3.709429843674432 3.6191730342892767,3.310126871735605 l0.7580712569207833,1.6588129664400593 0.2998172570508341,4.534064666936 l-2.4606962729651563,8.143462574381429 0.5910687555864631,7.222274378043561 m3.656048688658261,-5.638987978768626 m-5.3241192876408405,-47.993059975128574 l5.738739328295663,-7.571573589885967 7.012635593370378,-5.114832655323018 m-34.65426251342604,15.714366799816606 l2.4908609303217055,-1.6577876815245502 10.326780625103327,-15.370396013785562 l4.223041061094707,-17.61739275517919 4.1310166476906796,-2.5645348405506763 l6.696745454180375,-2.2936189039007937 2.7215979775679138,6.6195293125866534 l5.544601540554795,4.432289674538284 8.659773682626145,9.33779709399586 l14.940376374422172,-7.917362805189001 1.6519828005307085,0.05500367898021774 l-3.8602962911170766,5.089907416930535 -8.918422772807148,4.301573766317618 l0.734520958309578,7.704460010610181 5.878564649296845,6.0935435968656755 l-0.12378163642159268,6.310200700009872 1.6648639820476274,6.150323703225401 l0.9911788271582108,7.005076363882406 4.0797231514725425,-1.5208664770675862 l6.90205796010289,-8.474651245718677 -0.6224352868632554,-0.33241907658270287 l-1.3605078166899653,11.72807677931402 10.113858159746002,10.815393425610841 l4.044653177362691,-1.1370063390721785 2.3078785008016585,-81.54257580970665 " fill="none" stroke="black" stroke-width="1" /></svg>