<?xml version="1.0" encoding="utf-8" ?>
<svg baseProfile="full" height="128.61655931655812" version="1.1" width="117.49545987254945" xmlns="http://www.w3.org/2000/svg" xmlns:ev="http://www.w3.org/2001/xml-events" xmlns:xlink="http://www.w3.org/1999/xlink"><defs /><rect fill="white" height="128.61655931655812" width="117.49545987254945" x="0" y="0" /><path d="M61.38581561604351,72.16236879583505 m0.0,0.0 m-29.826912281327886,-4.206057164739443 l4.386572990687887,-5.111571236591608 12.707451180112772,2.2153871413646 l5.7786205848687855,5.747819581824093 1.2712104410652003,2.729029956833021 l2.0918600662254683,3.438242407895311 1.2351487080978099,2.104619848629397 l-1.2273491407573673,5.811020456157762 -3.926953307322752,5.662271548657996 l-1.4617124543503548,7.4284009524329075 8.98475221921373,3.6246240463509976 l7.650408628734868,1.932156201454703 6.385087122929726,0.07824678045331927 l5.994663093619026,-1.115232077893385 3.143035063749151,-3.64171927709271 l1.7724694719772474,-6.981901222051186 m-3.689860715994296,-21.12479426808246 l5.920470008273592,-11.354407208367524 1.6203324790040423,-3.150599594190587 l2.3003500976992863,15.217423475729252 -1.323409397208657,-7.70961509352771 l-18.138240204427742,2.690426395301008 -11.159371115474448,-5.031180548640948 l-1.7831900095632325,-8.09466934292072 -18.792408654524525,-11.236048378784051 l-2.014401076432031,-3.796577049236438 5.276573205019664,-4.9507847173392205 l-1.1896146469013624,5.5001694754310515 -8.826413609289942,2.7463489205256013 l-2.7229364219069123,-5.577028660138786 -0.4931211483980423,-4.950728044486628 l-6.328926793442213,-2.9595877696772224 2.7277023816147747,-0.8442211079417894 l11.062708716792166,5.825369831033907 28.646778177065666,13.974815732125041 l6.986755540969953,6.4997668242555955 -10.364077191344514,-28.5517856105882 l8.701787336967625,6.9828444193426265 4.0438912010340795,-0.8835121989851158 l1.8874478413730766,-0.28989292092473057 5.89572509872226,2.815651140574399 l-2.5945665634237955,-3.613606233520943 " fill="none" stroke="black" stroke-width="1" /></svg>