<?xml version="1.0" encoding="utf-8" ?>
<svg baseProfile="full" height="710.1398537688242" version="1.1" width="182.53838421093283" xmlns="http://www.w3.org/2000/svg" xmlns:ev="http://www.w3.org/2001/xml-events" xmlns:xlink="http://www.w3.org/1999/xlink"><defs /><rect fill="white" height="710.1398537688242" width="182.53838421093283" x="0" y="0" /><path d="M25,685.1398537688242 m0.0,0.0 m22.501496382295816,-3.6672624844354593 l1.1532028966967567,-18.128897131735155 35.160855202131216,-69.18903630907879 l10.852257219647196,-115.46836742607148 19.451086565708135,-86.05050086463947 l20.066431529622523,-74.60989507242812 16.216443070820247,-30.231752517434415 l-9.294281770532795,-39.53861418724203 16.430893114543732,-4.719684565256181 m-12.475510755429653,-75.49346742210841 l-5.570155819435476,7.563478211196603 -5.434107003130948,-0.22113354368465343 l-0.8632969609949886,-5.270239194965489 0.5788906185350721,-21.92270220037831 l-1.0895653616541519,-29.216247504510573 -1.5137804665655752,0.645299366508475 l1.3112759931541156,-0.7521585501888645 3.6741983812748855,-13.379654466357582 l-15.223482870927523,-12.541199684357164 -10.109788847258748,-7.101292496381407 l-7.540997317664183,4.101451679521371 0.23168188252407074,-16.862310736769224 l2.408277405199931,-10.74143814011935 -8.40229575544339,-4.645866331898354 l-9.320973986848399,5.914677784115346 -0.1659420276571144,1.9758195612674694 m-22.5600689743089,-30.818559747197323 l6.659325986920855,0.6859700492440707 -0.2803334726198192,5.980954048067943 l-1.3811708670165839,0.7092335329655675 -1.5591368607458036,9.843801862396782 l3.051533248216234,15.294391210330813 -10.570838603079387,8.221377887970256 l-4.925788278320807,1.3619372181370006 -6.330730456404264,-1.0539817012904007 l-0.15787419208613762,-4.803691784985573 -1.0906252007312693,2.553769245953783 l9.62884422739869,-48.56406136298568 " fill="none" stroke="black" stroke-width="1" /></svg>