<?xml version="1.0" encoding="utf-8" ?>
<svg baseProfile="full" height="266.60204245557964" version="1.1" width="171.77136358319734" xmlns="http://www.w3.org/2000/svg" xmlns:ev="http://www.w3.org/2001/xml-events" xmlns:xlink="http://www.w3.org/1999/xlink"><defs /><rect fill="white" height="266.60204245557964" width="171.77136358319734" x="0" y="0" /><path d="M146.77136358319734,241.60204245557966 m0.0,0.0 m-7.710877221799281,-34.86481187941461 m5.936462993449878,-24.1433815060938 l-3.727477090936812,37.08860608894239 -5.032134161059521,0.3953296776621946 m-7.801284684185896,-48.911896108970176 l-3.788039073373617,2.3428809049953907 -6.4286758055656374,2.6821261401472296 l-2.0768771577885126,-0.10496326633402084 -2.083012341846483,-0.041076909429682354 l-1.931973962078043,-0.7028361500479702 4.299537948344832,-4.1071668581116505 l-9.475832775141523,-9.588683311606085 m-29.433712468323527,-94.52306252663541 l4.455201409022947,7.0717682690061565 5.955632703939558,0.6486131433075252 l1.4632683724009672,5.680189309247908 -7.152190734767496,10.346284244962968 l-12.121874311453698,-7.080388038729986 -7.322338059111111,-10.692609475480731 l-2.239355131483961,3.348285766675204 -3.7368977367341447,-0.2671911368394464 l-12.23263784618062,-17.344651944916045 -10.218451725038245,-3.007262198911214 l-0.5033451455548948,-3.2240052040793925 8.332395016041716,-7.998789077284415 l-1.5968085893685828,-4.822301765415437 4.151389957387914,19.477711664157475 l10.656916764319199,28.12993616518183 1.0982711954744704,3.847042418926568 l3.2087614815560204,-1.6275246414363336 -1.579937621798432,1.389793538267234 m-26.48826955534912,-29.342330619012255 l0.5824851147365537,-10.056006074696905 6.050848226278671,-8.66884320199146 l-3.556486503607768,6.117814812550009 4.531458189330505,5.204503647730892 l11.045204857348239,7.56386754494161 11.185658789851072,-6.067452743586476 l-2.7983214384057113,2.832571021067912 m-24.560702619297867,-29.08773524717021 l-1.048654301181601,-0.7216244263759902 -8.078688541247784,-3.7727725007805555 " fill="none" stroke="black" stroke-width="1" /></svg>