<?xml version="1.0" encoding="utf-8" ?>
<svg baseProfile="full" height="145.57267485097938" version="1.1" width="90.74740946999128" xmlns="http://www.w3.org/2000/svg" xmlns:ev="http://www.w3.org/2001/xml-events" xmlns:xlink="http://www.w3.org/1999/xlink"><defs /><rect fill="white" height="145.57267485097938" width="90.74740946999128" x="0" y="0" /><path d="M28.82328246810388,25 m0.0,0.0 m0.2561107537836116,3.9822029231249267 l-0.8582398080852005,0.07602906219985772 5.725361178582588,4.800355933880926 l3.3734706068619524,2.923772729733745 -9.7303371941108,9.532208615545134 l-2.589648005136032,5.707472491189007 3.8384176303239053,5.847734904073354 l7.827034609237822,2.360423696704265 9.383262212616788,0.5678216173898202 l7.443151472674354,1.2829371657700732 7.248824142840827,1.434700644618755 l0.39878154750502615,-4.426382753390514 m-7.87131871380229,61.483397820140034 l0.16739201555720368,-2.6022536393859235 -3.0771688234438326,-13.912508254509117 l-3.5567030834125895,-10.267915469061174 -0.9702863262320858,-7.847050560032463 l2.4718956076803895,-7.8482909955867735 4.437172018244315,-1.8890454389038158 l1.9967693902726136,3.0203026557829395 -6.807911796067289,10.092276005135506 l-9.338075857939678,10.660291410608776 -0.4911617131324239,11.994507597673076 l2.5898157169524327,-10.58035310056181 5.425863458367555,-36.14663960842601 l-3.334035846465028,-8.278938043946479 -2.1255226376546474,-18.24743084994542 l0.6810487260881593,-5.204886413501331 4.644604830670157,-0.9238663962417071 l8.515459596315923,1.8976943876931103 10.225590271434417,3.678849247649393 l1.024511021359239,4.426358255339902 -1.8749910575670983,8.899082118686788 l-3.3680054230353806,9.663646192845452 0.4565727200418827,7.615191486720053 " fill="none" stroke="black" stroke-width="1" /></svg>