<?xml version="1.0" encoding="utf-8" ?>
<svg baseProfile="full" height="195.11685342294118" version="1.1" width="187.82367991848267" xmlns="http://www.w3.org/2000/svg" xmlns:ev="http://www.w3.org/2001/xml-events" xmlns:xlink="http://www.w3.org/1999/xlink"><defs /><rect fill="white" height="195.11685342294118" width="187.82367991848267" x="0" y="0" /><path d="M162.39455610839613,118.10801989340376 m0.0,0.0 m-8.86056645493747,5.202183748917529 l-8.329012883184319,-44.78338101428877 m-1.8975691480608774,33.303514113587674 l8.536322257949,4.873576389924954 3.937994650568639,-0.7613155597694299 l7.0419553877515595,3.508933293999577 -1.3520149823481897,19.332645834134457 l-3.974040586611174,23.632010593460063 -5.439881157635433,7.700666129571345 l-0.06768202127655346,-6.599087235984468 -3.5484538842035587,-15.259718369664398 l-0.2014031649838055,-7.487562266347367 -11.305424420693068,-4.282281286425409 l-1.597779720753916,-5.277491374604169 2.9248086751151146,-5.336821535622867 l-2.8615195290493682,1.0584611929383225 6.699038720384358,1.9668448541230128 l16.7134813418416,2.2544549622846786 -12.915560134736214,2.0878122717739367 l-1.3320644568855882,6.756211700203809 -16.097378812033263,-0.906933411047125 l0.2022025840556474,-11.051088205419681 -2.95462610119659,-10.111157844650313 l-7.85496905358997,-20.729803419341554 -1.6809260089671807,-18.26667667806624 l17.14500373567109,-19.85598118970843 12.026362367151187,-28.29582036510934 l-1.2189490923968662,2.000135765053974 -8.038773552924395,6.647494657649682 l-10.216866975803791,10.759923517620491 -1.5308238514798482,1.249709863799503 l-15.226895240947366,10.521955888788632 -0.35058261005992253,13.348949640237695 l-41.64166952092975,-24.357375748654295 m-42.126292463195846,-25.95100880676926 " fill="none" stroke="black" stroke-width="1" /></svg>