<?xml version="1.0" encoding="utf-8" ?>
<svg baseProfile="full" height="168.25705430573345" version="1.1" width="198.25899916634626" xmlns="http://www.w3.org/2000/svg" xmlns:ev="http://www.w3.org/2001/xml-events" xmlns:xlink="http://www.w3.org/1999/xlink"><defs /><rect fill="white" height="168.25705430573345" width="198.25899916634626" x="0" y="0" /><path d="M173.25899916634626,93.83712337575085 m0.0,0.0 m-35.44479646940667,49.419930929982606 l-1.7704463646171436,-2.256547393736821 -3.585593179444754,-0.9947041845938734 l-5.916375432305774,-5.377519306654836 -1.2268789952129846,0.6851289765604559 l9.576252800016608,5.221014308034723 0.9872045144334509,-2.1520983889702117 l-8.268318184031079,-6.262670324360353 m-8.478159675193716,-8.184628624838487 l0.9463019187074942,-3.4207298011862517 -6.705536907164813,-4.155039460033235 l4.603490527000742,-4.44722619738122 4.404996272813736,-4.581863751268013 l-3.731171791120209,-7.830151393543305 -1.3540574426210001,-2.3082853327686372 m-5.482048728120411,26.800706332918153 l-2.105399800174579,8.367339568788301 -1.5983917864318065,7.902037831560829 l-3.676984487134637,-5.135026011696455 m-5.315790044915836,-20.959418131190805 l2.100113152655941,-8.976621334824504 6.25370498094725,-0.8338990774240967 l3.217076372001386,1.2198345631633785 -1.3605872380725708,2.0838043891612092 l-0.06651259442773769,3.187294141681852 0.5272069323781444,-2.6613049618785416 l-3.754594067933922,-12.748155940693021 -12.375824226308328,-17.485908095053254 l-2.2376195166079484,-6.812278156185168 -5.122878004884027,-5.645344882287102 l0.1598527448968068,-1.4870246284420554 -1.0944829346013585,-0.3777749417859298 l-11.87059337143688,-5.86669809975517 -1.2237125520145775,-13.128148553546296 l-11.842415845233669,-16.64032361713524 -14.54757222218,-2.994823826369482 l-1.4036180180280835,6.9402587917749425 -8.11932123946869,-3.336552835663922 l-11.355518263104628,12.992241522209568 4.765498195027995,-0.4085470734464362 l8.43025512971188,-6.922317010132126 -1.3466844245387015,-8.540486934501478 " fill="none" stroke="black" stroke-width="1" /></svg>