<?xml version="1.0" encoding="utf-8" ?>
<svg baseProfile="full" height="144.86035219372644" version="1.1" width="115.64584729409862" xmlns="http://www.w3.org/2000/svg" xmlns:ev="http://www.w3.org/2001/xml-events" xmlns:xlink="http://www.w3.org/1999/xlink"><defs /><rect fill="white" height="144.86035219372644" width="115.64584729409862" x="0" y="0" /><path d="M90.64584729409862,119.86035219372643 m0.0,0.0 m-53.389447985297295,-68.52232301293189 l3.790876983731437,-1.419953838202701 4.968120981143229,-0.9094837311450399 l1.192837417255299,-0.3710844370695679 6.527758024029999,3.6365378534730812 l1.320526728583106,4.693287500127338 -4.182160369358014,3.1783927346729057 l-8.667594909049363,-1.0440638279631047 -7.168905989379564,-4.175854400495213 l-5.512828521605238,-2.326135576540046 -2.6238834844186445,0.2812441889026275 l1.668627604033665,1.2009873082547051 7.143535247925096,-0.12643801020267634 l19.600221667126803,-0.821277032372624 8.609107815232875,-4.062731419356791 l4.766656071761908,-4.355430930813573 -1.5767443912291215,-7.054934526542394 l-3.662551069819727,-6.778893157673484 -7.702592492019773,-3.6413342727204694 l-11.823234926429349,-2.2408636051275246 -10.385469877139617,0.7722625427290053 l-5.145586097388495,8.207332369318976 -1.342582124782263,11.061690342670058 l6.581576343234061,11.036698100806705 13.126668919251664,9.17300305609733 l13.039075810101378,0.7619363370453743 8.867606105531921,-1.3024886769852535 m2.6941827270857663,3.7579520641390083 l3.040759237662255,4.313156489779521 -8.463479167864616,3.225370079220458 l-13.332274837717547,-1.7645430825600765 -13.38672017000746,-5.331335774226709 l-9.594041516221381,-1.8472356746084146 -4.623887048061605,4.94579496131373 l2.387143331279476,3.957167387785229 15.543442138606057,2.238384265913173 l19.432605835884065,-1.0643742514517829 7.071139919504282,-2.575784229228833 l6.679297504144834,-1.3862804995780136 0.4693224606653836,-5.703068534058791 l-5.494901613507522,-4.135877692731188 -15.054905290916448,-3.8716868818287913 " fill="none" stroke="black" stroke-width="1" /></svg>