<?xml version="1.0" encoding="utf-8" ?>
<svg baseProfile="full" height="455.13406353188947" version="1.1" width="118.45518728654113" xmlns="http://www.w3.org/2000/svg" xmlns:ev="http://www.w3.org/2001/xml-events" xmlns:xlink="http://www.w3.org/1999/xlink"><defs /><rect fill="white" height="455.13406353188947" width="118.45518728654113" x="0" y="0" /><path d="M38.15933102390781,428.4200297678353 m0.0,0.0 m6.311842648102218,1.7140337640541703 m-4.831075609183207,-61.21317808823104 l-0.8221937893818378,-7.3037446467876315 -13.81790427344498,-56.89757368990311 l18.05959882059239,-84.2077022674177 8.939787011076334,-3.9009577691337776 l7.3325096753388985,0.4844595343402537 6.076521227965232,7.097538515519896 l8.368082158953065,1.5238687730046707 3.1887348140909055,5.614151386109338 l-2.405042671758265,8.348737099579749 -4.292343610128646,-3.9490540280488795 l-6.204242812212404,-3.521140170015219 -3.5862661122434067,-13.096551546948065 l2.1182250922435664,-8.983256814488142 2.858823820605171,-13.047370097546729 l6.162045405057076,-4.67576260578439 9.629095800774397,-10.274440645649769 l-7.842893923153344,-8.311408449723801 -9.836719013241854,-13.143420908796054 l-11.438402753631559,-8.985277706169283 4.425441621074994,-3.0798168179276164 l3.010969037304945,5.357759994739985 8.29285393553453,0.11996261095608807 l10.905996490176568,-3.5012124777075786 -1.1573314249186795,-13.280421154063246 l1.728984099227502,-9.905224995422346 14.120760597813705,-17.383184428369105 l-0.3946194012453108,-4.622854498378522 -4.900718671613898,-4.356510720938654 l-12.69875568830462,-4.0705484984964615 -12.425072442095658,-13.054241892021142 l-12.037290251677298,-16.822288737483138 0.00010226207573516,-1.5466945902914349 l0.10524802023292563,-4.295846473361116 5.674256147483365,-18.50638543093331 l-3.9838249205653167,15.204557158626443 15.34861339771973,-32.94902845472854 " fill="none" stroke="black" stroke-width="1" /></svg>