<?xml version="1.0" encoding="utf-8" ?>
<svg baseProfile="full" height="124.87659990621923" version="1.1" width="94.43665245426175" xmlns="http://www.w3.org/2000/svg" xmlns:ev="http://www.w3.org/2001/xml-events" xmlns:xlink="http://www.w3.org/1999/xlink"><defs /><rect fill="white" height="124.87659990621923" width="94.43665245426175" x="0" y="0" /><path d="M47.415418326794835,99.87659990621923 m0.0,0.0 m-9.515458141659002,-31.944732758820575 l4.55673783171562,-7.384372075585611 12.903526648803682,-14.045513924359568 l-6.377896637847793,4.405585300578447 -0.3289261612654565,6.956388636517564 l-6.2444271973947245,8.145464029097017 4.651003040047832,-2.6054473489617345 l6.354239739980699,-2.5641580912190314 6.5032517907550345,-4.347695923869765 l-1.7831311127507732,-2.2580574895105925 m-3.8188527776852474,-11.766163563220967 l5.089122369784277,0.7105569446496494 4.023194351851404,17.926148415005304 l2.625070577931701,3.7524033533593397 3.383779805199656,-3.9888775668776697 l-7.479666915832084,-15.712816637347382 -8.704171909880747,-7.217114346935672 l-4.378937396353952,-1.9914882909034428 5.111416497644764,-5.833578082972506 l3.589915211521905,0.765983763432689 5.724182000083878,8.742049228266048 l-3.4649632138459183,6.094601567111938 -13.995150786876103,-10.483433088030555 l-10.840513040526542,-2.2626229989596918 -6.784310900747674,-1.5179883339128037 l1.1988945078245794,-5.073238684318855 -3.5062618797444953,-1.3784819384308238 l-0.06893541915393306,0.14125446050260865 -0.8381492083754206,5.882283564292654 l9.891985650696933,10.167103893355886 -1.1973530222352107,7.3053295677021355 l2.492160995351072,6.292472820868418 9.783840838564664,0.4532589759948059 l5.728314311813621,-1.487551513919531 4.693649125971443,2.655626935041895 " fill="none" stroke="black" stroke-width="1" /></svg>