<?xml version="1.0" encoding="utf-8" ?>
<svg baseProfile="full" height="231.21210619014187" version="1.1" width="208.38553336946882" xmlns="http://www.w3.org/2000/svg" xmlns:ev="http://www.w3.org/2001/xml-events" xmlns:xlink="http://www.w3.org/1999/xlink"><defs /><rect fill="white" height="231.21210619014187" width="208.38553336946882" x="0" y="0" /><path d="M25,97.73246198313474 m0.0,0.0 m2.686000458204887,-58.88155267161764 l39.53917053509039,-4.912617873606074 3.5059208089378346,-5.8775704372641275 l0.13008150797414936,-1.5340826315275846 1.3324839712334946,-1.5266383691193086 l4.9950540216707555,7.94500708188298 10.13026837363291,8.056435319205825 l17.818322471521125,7.922784175782942 8.295889150288533,9.243300548623235 l9.689608084746634,9.067034135501476 8.298340358223566,7.254168016520876 l4.707545002864308,5.056201662564015 13.043532958124173,1.5346432624606934 l6.678165642064997,0.3645943682123373 7.526898796578123,12.803923833595526 l7.419167775894163,4.206576556676719 12.589083452418762,5.869412119879805 l-0.5906418712784878,-42.495747440894164 -15.9307783713203,4.191268819890236 l-5.342058898022562,10.38788222077799 0.5920240188563441,5.910383572343403 l-6.066621489347368,15.170040114025788 -2.000225679563886,8.568671573379783 l-5.345886115665753,7.045995862610621 -8.42700724097304,9.55474992295394 l-24.432063152367267,-2.8473941109416723 -17.7952016058446,1.9149138348788464 l-6.000952773674069,0.5345634845669395 -3.0318467031682474,6.210366935696242 l-2.439379949221033,5.282648279968332 -11.040053005193244,6.6912513328222705 l-30.311261445129464,39.30365024695137 5.625909922861566,8.672309625045276 m-23.312221676535987,17.792470835160223 m-0.16523803777305834,-106.70308708419765 " fill="none" stroke="black" stroke-width="1" /></svg>