<?xml version="1.0" encoding="utf-8" ?>
<svg baseProfile="full" height="196.41761499614614" version="1.1" width="202.44625180950493" xmlns="http://www.w3.org/2000/svg" xmlns:ev="http://www.w3.org/2001/xml-events" xmlns:xlink="http://www.w3.org/1999/xlink"><defs /><rect fill="white" height="196.41761499614614" width="202.44625180950493" x="0" y="0" /><path d="M147.03363578178204,134.5861192428548 m0.0,0.0 m25.171029934013458,15.157813562063115 l-10.01700393883521,-27.630617287038554 -3.3586105816580663,-6.4578752823770555 l-10.334337385969233,-6.0984312392495985 4.181669668002461,10.868746380596091 m-3.1986763842880603,-33.52558624907372 l4.466175136418773,-7.717378340464642 6.345117136792047,-16.28937702670956 l6.179529829245887,-3.229415176931272 2.5752201316833894,-6.482019225304271 l0.6477496678312067,-7.443668598928272 -0.9053884072774471,-7.041503754394259 l-0.9527768532625749,-12.316256557283387 9.612918075026242,-1.3805504477594188 l-24.22851154711618,7.0619988953361235 -9.201380495627182,2.019199692515801 l-3.3580664478105686,-0.6814634347666612 -3.0680823480430375,-5.620838903567511 l7.344795503701884,2.7172382323490263 0.6837067165544364,12.448197282530002 l-2.635065234314804,6.09488977939758 -24.757703381418235,1.5281551500529755 l-4.8828900952837735,0.08353552682344889 -1.5232817274219967,2.289263785097154 l-1.129697744052579,7.272132540712266 -6.846787211483971,0.8966329251643784 m25.75419458784434,37.07338120956085 l-7.356230274662718,1.1364990046663275 -9.438693166959537,0.03293301554018413 l-6.558386585317688,2.8187347026332614 -0.12100290739394837,5.159336810896402 l-8.207269162167066,7.022081923082704 -25.875601890199043,10.649021596805918 l-9.791508242018402,10.988233125567719 -0.692842115067433,12.37387421830185 l-0.380328493039645,4.854733603353589 -0.9502328001405586,6.196318766631393 l-35.22538674806721,12.003525547461363 " fill="none" stroke="black" stroke-width="1" /></svg>