<?xml version="1.0" encoding="utf-8" ?>
<svg baseProfile="full" height="133.8675782633069" version="1.1" width="103.13238728944192" xmlns="http://www.w3.org/2000/svg" xmlns:ev="http://www.w3.org/2001/xml-events" xmlns:xlink="http://www.w3.org/1999/xlink"><defs /><rect fill="white" height="133.8675782633069" width="103.13238728944192" x="0" y="0" /><path d="M60.011623289629526,108.86757826330691 m0.0,0.0 m-34.117749171599556,-39.37447503627954 l9.373145707095839,-7.2246460237955 10.38249378223625,0.649192926566385 l30.7292382007743,-17.32573978949982 -5.095113694547451,8.803131803617124 l6.848749175853011,7.590959536201655 -0.22611756725707785,13.771364786860945 l-11.273609945169062,-0.5747416112947679 -3.533958255599755,-4.68657899429562 l-3.429661452868596,-7.434231800778922 -4.083333169273301,-4.723769820684365 l-4.270295757119914,-1.0443220593342988 -2.2088379998374617,2.363823375191054 l1.622154923783247,3.038502276942229 -9.78160005510045,-11.001769789422996 l-0.2405086896660303,-2.5659377860148083 -2.9205083064207447,0.0638942671610356 l-8.562708815737723,0.1386775738344422 -4.223402199175057,3.7299814389269703 l5.360487437402314,4.356526771833071 13.517883022400811,0.6860527998223355 l-0.9573409704491916,-4.826768638757547 m-6.386608162508495,0.8887108141458366 l1.87466736783039,4.022769343611068 0.22835384105648115,-0.8835253735823917 l4.897589441819931,-1.223434563084965 -5.5965822831823235,-0.6166479068953464 l-6.043550862776589,2.7659640921932596 7.822744473336123,3.9789336819841146 l13.39366103419674,-2.7708826551068615 8.815748865118543,-9.058400568761515 l-2.1017183269802633,-4.644521209770676 -8.516396011036651,-6.426475175314554 l-3.473777183225247,-7.879478858468021 -9.20318606075937,-6.429716091055917 " fill="none" stroke="black" stroke-width="1" /></svg>