<?xml version="1.0" encoding="utf-8" ?>
<svg baseProfile="full" height="289.4929376054286" version="1.1" width="118.53586230691167" xmlns="http://www.w3.org/2000/svg" xmlns:ev="http://www.w3.org/2001/xml-events" xmlns:xlink="http://www.w3.org/1999/xlink"><defs /><rect fill="white" height="289.4929376054286" width="118.53586230691167" x="0" y="0" /><path d="M85.7972787255864,25 m0.0,0.0 m-9.92321017023098,12.666230575723345 m-8.345380755615674,6.4884285348609865 m-42.52868779973974,43.44569824753281 l18.00816858999789,52.283494313735055 8.318199709947445,41.8267932936655 l21.851581974239476,82.7822926399109 -12.923298125851652,-21.654362979860828 m22.135698084943172,-53.15733831467863 l5.113450709913616,-58.583688213856156 0.44171630483058255,-13.901015240770699 l0.9906791516012956,-8.467129436701338 2.411476193738219,-1.3196942961312186 l2.188189713551625,9.008996439663772 -1.7945176190322853,10.990457742147267 l-15.216403167383483,7.930209721348655 -2.7668982269292353,10.27855924692646 l-4.397756755870365,5.3452342674577835 2.6946114362926497,-11.003471406336129 l9.815118283361262,-37.64991214401579 5.3248515422792675,-8.780394296248032 l-4.185955828195105,-13.858684742149885 -7.605755740251393,2.35093641377119 l-11.06986038871062,5.001140109952408 -2.8097445083594916,11.880863559735708 l0.4058081452237808,11.634748646771682 13.014580354079754,15.519928641635286 l9.826456057885528,10.690169152712176 -11.004617168733493,7.844580454728809 l-15.417759373245108,5.721980424439956 -7.054545027217919,9.686697134540529 l-2.5626014183161794,9.19294539046684 2.8164323250832854,9.406296747227563 " fill="none" stroke="black" stroke-width="1" /></svg>