<?xml version="1.0" encoding="utf-8" ?>
<svg baseProfile="full" height="136.03294130929942" version="1.1" width="116.13387397929321" xmlns="http://www.w3.org/2000/svg" xmlns:ev="http://www.w3.org/2001/xml-events" xmlns:xlink="http://www.w3.org/1999/xlink"><defs /><rect fill="white" height="136.03294130929942" width="116.13387397929321" x="0" y="0" /><path d="M56.017205489126674,111.03294130929943 m0.0,0.0 m-13.52743646429654,-5.393188554050665 m-3.834083546040669,-8.872841842827262 l3.546134353261917,1.810655657551452 3.7629729038445516,-3.6112421790749303 l-4.550254196330236,4.992834276228481 0.037644807432813954,-7.142156458362676 l0.3753575740088866,-12.951026461429445 -12.937154828287465,-6.234662578229726 l-3.890386092719933,-0.9810883870682522 4.759822440492899,-9.232946322672735 l12.925934338523879,-4.223820708718738 13.106397421469683,6.331983348774576 l-0.4437486146323367,1.8788316368696416 4.707401635468632,6.749694936515462 l2.647790393959024,0.9494113679565738 4.90542925867844,1.7393820509955737 l6.023495475840576,2.7696636244498807 7.728275443022029,-3.7136137765506447 l6.692973467387771,2.4505920907486223 3.0801027190826207,3.506297410178554 m-27.89875569847613,-21.25987612699009 l1.591961354807565,-6.579375431730457 8.424017931585157,-9.030981239439932 l-13.544591377243451,-12.786341800563244 1.5462107104920566,-7.199125841859429 l-2.8060739780147768,3.339960006936562 -12.664968413949627,12.79236209379076 l-5.78206943994477,6.60772411735069 2.142369033550528,1.6087922000229333 l-0.3502147896775339,2.491080870186 -3.0208934966774805,4.519738457483262 l6.900391066638558,5.466706707255935 10.551168431791808,-0.7108602210694712 l2.4678232873185397,17.277565836236814 14.552333659881782,3.6200002565686864 l1.4620240003348484,-4.372230391199901 2.4232065168380146,-0.732133602490347 l-5.153935332748407,12.939991110793933 2.8456490636182754,6.514386027514796 l-14.075563967954293,-26.161220295805094 -3.858283472504159,-8.163221417746424 l8.928680543730476,-5.303077927811015 " fill="none" stroke="black" stroke-width="1" /></svg>