<?xml version="1.0" encoding="utf-8" ?>
<svg baseProfile="full" height="342.8659816072601" version="1.1" width="216.67973868951393" xmlns="http://www.w3.org/2000/svg" xmlns:ev="http://www.w3.org/2001/xml-events" xmlns:xlink="http://www.w3.org/1999/xlink"><defs /><rect fill="white" height="342.8659816072601" width="216.67973868951393" x="0" y="0" /><path d="M55.06457209363777,317.8659816072601 m0.0,0.0 m12.741138983931878,-18.374160200267937 l-14.855963496977482,15.755321423811063 -19.7176950068322,-12.060102750502582 m-8.232052573759963,-4.580284825342262 l30.037946406879605,5.821037961160631 18.534248138089758,-46.76911908678863 l19.747792549170562,-52.149804402062585 24.62820861697955,-50.270653499053104 l27.910207274199294,-44.5676717522227 17.93864400738064,-28.993785531156487 l0.584445246882113,-6.381871209616762 8.826846248389336,-1.9297031724561644 l7.084566056672463,-2.1315427218952356 3.3694452873354575,3.7994094533566325 l4.087090783450771,6.791068061569588 -2.951779252046234,5.137508694972694 l-5.251108569209784,3.764302728263932 m-31.881653743233226,-65.72593077903025 l1.8007844791388827,8.280888295757245 3.608670901848888,9.178885951224125 l9.587370129929234,9.356406110646095 16.17822189566589,7.169493401037179 l6.382121225224082,6.596589830227977 m-1.9742942402804498,-26.063513205874916 l-5.330747843704224,12.755440613256255 1.372120613198498,4.175843153664079 l2.34651025736372,2.4133837219140815 7.711652089398508,6.8801095823344465 l-0.060745573569763456,0.40070185474670283 -0.666955605105623,6.492772744164166 l-4.331114965089511,2.663400052071823 m-1.9779352687138696,-10.905885811185874 l1.2929968942996795,6.153760492348353 -1.0740005186680994,3.388268707377143 l9.150185167637765,10.269652932210468 " fill="none" stroke="black" stroke-width="1" /></svg>