<?xml version="1.0" encoding="utf-8" ?>
<svg baseProfile="full" height="272.3965658654689" version="1.1" width="103.18886371534819" xmlns="http://www.w3.org/2000/svg" xmlns:ev="http://www.w3.org/2001/xml-events" xmlns:xlink="http://www.w3.org/1999/xlink"><defs /><rect fill="white" height="272.3965658654689" width="103.18886371534819" x="0" y="0" /><path d="M62.81289687528637,172.45519134244265 m0.0,0.0 m0.5151579999077688,11.42409485934579 m-3.3250632129502034,9.363259064284895 l-25.986821547100057,-28.631042369356752 m-9.016170115143881,17.245855936723842 l5.1651161087075135,44.04245970577436 21.88701340493012,21.49674732625414 l1.7953992896367355,-34.6817308953061 6.828249555639673,-44.35286574850552 l9.39359631963942,-75.00274707710273 -9.210964019882455,-21.015274257995618 m-15.169337790364194,-25.098832664095323 l0.4261102169992098,8.801498331289022 0.07093209404344464,-1.1210327590613205 l0.7361062527999985,-7.120618842888131 -0.1200518865095887,-4.3424392226186335 l0.2993055093414716,-9.519899944790167 -1.2112395800091769,-3.3468936689402033 l10.138535073894383,-5.595729115454231 9.589540915691074,1.2339554711158924 l8.335920963112036,5.831440831489064 1.8664703842325037,11.439346739891695 l-0.177835628370272,16.24517871852111 2.5459965318162925,11.068845991482796 l-1.7536436102442403,8.250830662095844 -4.735069260457618,6.840959083198676 l-2.8425496581553036,4.845522485872798 -3.6682473340272836,4.014546808594878 l-8.031415654993793,2.792841527588975 -1.5079060408229634,-1.9543385823503407 l-8.376819146398834,-24.15156233644329 2.4806350810130406,-10.252738919830572 l5.3374654360796665,-19.73014234870621 " fill="none" stroke="black" stroke-width="1" /></svg>