<?xml version="1.0" encoding="utf-8" ?>
<svg baseProfile="full" height="183.08840933337578" version="1.1" width="133.93761703057277" xmlns="http://www.w3.org/2000/svg" xmlns:ev="http://www.w3.org/2001/xml-events" xmlns:xlink="http://www.w3.org/1999/xlink"><defs /><rect fill="white" height="183.08840933337578" width="133.93761703057277" x="0" y="0" /><path d="M108.93761703057277,127.03500006504564 m0.0,0.0 m-10.021814867200618,12.640468901350733 l-0.9157640321933003,-52.86763821535737 -37.79145124349096,-18.68186977876707 m-5.511262696602809,47.993301402428074 l-13.432091625359343,41.969146958675765 m-6.306611095981727,-10.753227929687158 l16.157595683255735,-45.78901477599082 -2.055662817647655,-10.258701512841787 l16.847778242376076,-10.563481394824827 0.946207842713776,3.07100958392591 l12.22488034085846,5.2714454870679495 4.048770553230048,9.462682576050499 l2.66252752389181,16.969929911859516 -1.2045539942313654,12.930530047015589 l-3.7455719026001075,9.120652993699151 -8.175927460179475,6.123354822952276 l-2.428033996365239,2.2343940045568704 -0.7692966879837502,-1.0987059893590114 l2.777666775559294,-7.060874726026378 5.273875654193667,-8.840787372695756 l5.853260907214578,-10.981932778642122 1.7999681500867706,-25.558016277545256 l-6.243073510950346,-19.19620761420607 1.847483410738503,-15.271950980032223 l-4.196502222346872,-22.2023761488688 -14.34977358468637,-10.697131259783339 l-14.678748744021224,1.7130220645328242 -12.141577018562758,15.925542983648153 l-4.624676727632848,15.113183124422592 -5.785237886654739,18.644826052304417 l5.629228088644814,5.937692816671497 16.524836025310083,8.531354486620112 " fill="none" stroke="black" stroke-width="1" /></svg>