<?xml version="1.0" encoding="utf-8" ?>
<svg baseProfile="full" height="362.7699125093406" version="1.1" width="156.0204655919894" xmlns="http://www.w3.org/2000/svg" xmlns:ev="http://www.w3.org/2001/xml-events" xmlns:xlink="http://www.w3.org/1999/xlink"><defs /><rect fill="white" height="362.7699125093406" width="156.0204655919894" x="0" y="0" /><path d="M37.13419976287379,337.7699125093406 m0.0,0.0 m-9.334454389610535,-91.83778222978795 l6.023754059813685,-16.60722949413407 1.124789141307067,-89.08319471062151 l31.85304688625602,-20.969833780114683 8.007377844945482,-4.276896651034982 l3.9219100984267468,4.742519267366241 -4.017148410921925,9.784946043269644 l-5.951684878778473,5.044730888095985 3.113110397682766,5.564435983461046 l4.217039437713131,-4.396142189549019 0.07268635604660623,-13.757407889617651 l-4.063698671067764,-9.112876297495324 3.851594380106607,-14.987837072229494 l-5.120681243190021,-11.293338622325667 -13.657052996824474,-9.180325190587315 l-8.471211517887278,-2.3003487656563113 -22.735377142075244,-5.031256289135322 l-0.968199114816195,9.898669693627086 4.26591805977643,-0.5018081253590811 l20.684895224894397,15.545109491166675 7.4972497058743155,5.7086081435263845 l4.493407089650215,-3.474175623879301 2.8156369698353445,-2.0685859487064215 l10.358280664822175,-2.437249405174088 -1.3452310675254813,0.5436645612723701 l1.583224920114336,-9.975209654877938 2.180897309291539,-13.784342798880393 l3.767670309798522,-10.097053254483793 7.928148818385461,-8.072494375509246 l8.146289720423372,-6.189970719779314 11.596058193772446,-2.9963864140531786 l7.34680858705095,-9.990264753503709 11.727840618457085,-7.180586324630257 l2.973370467368266,2.1765607045300817 -0.5454147967108469,3.2935083234482287 " fill="none" stroke="black" stroke-width="1" /></svg>