<?xml version="1.0" encoding="utf-8" ?>
<svg baseProfile="full" height="201.4473667176664" version="1.1" width="175.10174237765608" xmlns="http://www.w3.org/2000/svg" xmlns:ev="http://www.w3.org/2001/xml-events" xmlns:xlink="http://www.w3.org/1999/xlink"><defs /><rect fill="white" height="201.4473667176664" width="175.10174237765608" x="0" y="0" /><path d="M66.28722704302304,141.45143895613143 m0.0,0.0 m14.917823865359287,34.995927761534965 m5.122105119291265,-42.43049180046613 l5.485674628807092,-2.5800772480022975 6.763740653310846,0.5497974347406561 l12.709427866581796,1.6671564512176433 0.3366135271769677,0.1814934266080126 l15.829064648859505,2.138320861595624 3.5314600376140413,2.2056994183196235 l5.757638786982069,-7.378698004395757 13.36096620065016,-10.466807976538007 l-8.032636036568125,2.188534861009795 -13.506012616335047,-8.10973836395871 l-17.699770323296015,-7.139936616575351 3.6717403241737854,-8.125380662789501 l13.93824234460352,-5.921097111152293 0.9636963997168804,-3.006806125598308 l-14.311135428160918,-4.7782711730072425 -12.716673820855826,0.4471045885599284 l-22.16698347005297,0.06794464353475 -21.80095969175501,1.885230215330359 l-7.25857726724247,0.18460021469960633 -8.939092697441017,-3.3979448406159127 l-5.691203276060948,-5.535639070001965 -1.7505550470780464,-7.502497748526273 l7.303634992250356,-4.9542280360647535 1.7542084610099995,-8.906440955464133 l2.883289946099997,-14.44986917684247 -14.016901183296818,-12.461235724355193 l-3.1766534239122737,-0.35719809288039445 -4.549400563455133,-2.735947233996517 l5.122461223184988,-2.7249428720511926 11.280209145410062,5.1151215282663935 l1.5993946615959587,-4.143653467318907 -6.134189068545364,18.537096040187055 l16.174466223154617,19.15817898091768 " fill="none" stroke="black" stroke-width="1" /></svg>