<?xml version="1.0" encoding="utf-8" ?>
<svg baseProfile="full" height="118.00990192049522" version="1.1" width="134.19780065611695" xmlns="http://www.w3.org/2000/svg" xmlns:ev="http://www.w3.org/2001/xml-events" xmlns:xlink="http://www.w3.org/1999/xlink"><defs /><rect fill="white" height="118.00990192049522" width="134.19780065611695" x="0" y="0" /><path d="M109.19780065611694,93.00990192049522 m0.0,0.0 m-55.26452552523457,-3.7343421089545914 l-1.1045026508149136,-13.891374542574017 5.236855143543028,-2.073979187672571 l7.523268207953575,-5.3759072612471845 4.529606894978749,7.724461121652975 l13.849141029906281,5.844729106866612 5.9056668432445445,-2.909806957099235 l-2.0453955410338773,-10.992462147604426 -10.09674200723881,-14.404267134647313 l1.3248135972378283,-19.045310628711654 8.543719197782668,-2.4665924354506754 l-31.60954726846402,-5.482067469706687 -4.924410384842355,-1.202982275346461 l-1.7661716854694993,20.929866775454684 -9.958311633606764,3.4417623738590843 l-6.903807101038659,5.287838315149 -5.739128528821533,7.2555854732297975 l0.14740730605413033,6.45164723788368 -1.8457365502527336,5.1688278738370315 l17.76969334047818,0.28879651091194836 6.949573049203662,0.32506713750039634 l-8.313110643304547,-7.206392891204479 -5.773721392053153,-2.9914214713734966 l4.532902117638103,-7.309638140939146 0.9990890568621082,1.4131085621147488 l3.8992115189875953,8.793866095795009 -1.3671903634616744,5.404922649056418 l-0.8127740102174502,5.277507956170561 1.4698449770440107,4.669993758801327 l6.239895671644044,2.9321231399151393 9.168873679688204,-2.7891798817225104 l2.5801332996221014,1.8803210645486037 " fill="none" stroke="black" stroke-width="1" /></svg>