<?xml version="1.0" encoding="utf-8" ?>
<svg baseProfile="full" height="313.1218846629454" version="1.1" width="226.7803202280459" xmlns="http://www.w3.org/2000/svg" xmlns:ev="http://www.w3.org/2001/xml-events" xmlns:xlink="http://www.w3.org/1999/xlink"><defs /><rect fill="white" height="313.1218846629454" width="226.7803202280459" x="0" y="0" /><path d="M25,288.1218846629454 m0.0,0.0 m9.371191940854473,-108.06262140312995 l45.82880017582696,-40.65193824973941 25.608921903485953,-80.43199480866558 l5.137738935849551,2.7367676762759867 -1.4562002602690616,-1.5602332355402082 l-0.010469384378638535,-0.902439737633956 9.877342934522918,4.935430642997633 l6.042110710238428,2.9068117225402323 2.2866070342227665,5.181089636442106 l0.80784847404066,10.848799146839982 5.55028909754219,3.9909026365000355 l9.507641570264479,-1.6738532298964264 11.117055946142832,-7.483459786423261 l3.505127180430516,-12.30378548738329 0.4957136628678893,-6.695927549112571 l0.7438808765995542,-13.205952378326744 -0.26222183649884656,-9.488056706566072 l0.039323325713195856,-8.765245907327675 7.187264909527777,-2.4961776447961426 l3.4279422089947733,8.576109719601437 6.231122811138816,13.162646860742246 m22.29997767032933,16.44714180927292 l3.4433103405993406,7.30795571887007 -2.178008868915063,9.728048006908173 l-3.409443210112105,11.934105276927793 -7.315441839630063,9.657630674312072 l-7.6342465887400905,-2.190068632123439 -9.525995675683694,-6.325354509366892 l-9.919350850624712,-0.4723255587482872 -8.21983431570132,1.603470180700377 l-6.576602847897154,4.7437876788045585 -9.928506278724933,2.1934023282259836 l-11.43211625116269,-1.1520273423765641 3.0545774167823017,-4.196821209110087 l-2.867314878779437,-11.375509915406438 -3.2671334598213386,-7.828737327196069 l-10.833621130760012,-10.780979454523537 -32.125563102871745,4.8366451754491235 " fill="none" stroke="black" stroke-width="1" /></svg>