<?xml version="1.0" encoding="utf-8" ?>
<svg baseProfile="full" height="121.67275224566994" version="1.1" width="102.18216865943555" xmlns="http://www.w3.org/2000/svg" xmlns:ev="http://www.w3.org/2001/xml-events" xmlns:xlink="http://www.w3.org/1999/xlink"><defs /><rect fill="white" height="121.67275224566994" width="102.18216865943555" x="0" y="0" /><path d="M51.65019940036598,96.67275224566994 m0.0,0.0 m-12.756910988822922,-16.622233262931157 l0.0009043561262944699,-3.3821116894776635 -5.04735338477413,8.624628046433326 l7.9823387158077885,1.1959392936289481 -1.2173752241084088,-6.776568450896277 l-6.678058917001768,-4.791928569078531 -3.0231338608141223,-3.145399654387525 l8.607948843371615,-3.2862909334603345 0.3670988877392251,-7.0264543898074745 m-4.168458748237624,-12.395852168916797 l20.73116454730942,-19.056794655855466 4.843829513824087,-1.1504818786447983 l7.655469708231851,8.286890884774373 -1.9853553615649755,6.353908394975423 l0.8105182153163178,7.214820865405877 -5.640648623836981,6.370967433196754 l9.392175402256248,9.3182813668959 5.657816178247656,0.17959762143760494 l-2.5543960821228264,-11.24654029905702 m-42.85083269713919,-6.070279688282872 l-4.137720349942504,-5.051140298585659 -2.374682770245431,-9.19706133198568 l2.54782967307039,-7.334028758593238 -0.19369622261524735,-2.6846201224576447 l-1.8663484334450997,1.522472808807993 -0.7523217769956281,0.0359383414365666 l2.5183869210312686,0.9634296526711642 15.653001500670804,-1.482863689514441 l-11.997390802027416,21.09413835647885 4.3630938086967515,6.339450861643134 l13.461015250837773,1.012948352221809 12.005723386918929,5.742674106807512 l1.0296590731836808,1.3257856201152312 0.4965573193097206,5.308709520764541 l-7.535036236307278,8.777329977836828 " fill="none" stroke="black" stroke-width="1" /></svg>