<?xml version="1.0" encoding="utf-8" ?>
<svg baseProfile="full" height="169.16466939118033" version="1.1" width="145.7113675805391" xmlns="http://www.w3.org/2000/svg" xmlns:ev="http://www.w3.org/2001/xml-events" xmlns:xlink="http://www.w3.org/1999/xlink"><defs /><rect fill="white" height="169.16466939118033" width="145.7113675805391" x="0" y="0" /><path d="M85.1528866179057,112.36722856775475 m0.0,0.0 m4.896924802460872,-57.65623604503743 l27.2082649392026,-5.04499423933254 3.4532912209699282,3.460984420108511 l-2.0946212600146166,10.33711127734287 -5.571071723882125,7.100976539907849 l-13.334086677844047,-8.083015884050425 -3.931195599338547,-6.922257623211727 l-0.25402754030925623,-7.626202820477041 2.5880564108603026,-6.136055413280057 l3.6994784568608305,-3.6383358478088357 1.5489547323324475,-3.8895804817877146 l-10.746254905109405,-9.26962245012819 m12.42245649363122,16.118525163639 l-2.2515006485022915,32.81148628641432 -12.87385369816671,4.7687839954439974 l-4.411036254513974,1.5173643231185603 -5.757968945060477,8.036490499606833 l-1.6620474795327074,10.056374170075443 -0.7505285327006128,4.763144448763299 l-4.558107688796479,-2.187395798928543 -14.703836373386755,-0.3397760151520335 l-14.028756648740476,-1.611240404256843 -3.017978219633488,0.8585376626766722 l-6.279763663684023,1.6750558910482276 -9.743677815007898,8.170022128756722 l7.474235328709701,5.642004147108278 7.581990964820091,4.110528101493706 l8.21930273676925,4.69430242115003 15.348998230417857,-2.30481317334134 l6.909068180852438,-2.110033746742901 1.0799062948262417,-1.0154390994888929 l-8.526061370699432,7.7894038233445615 -5.132105626273538,10.646718778503406 l-3.757760377303796,7.074625787947819 -10.070796228895723,-38.805346184871304 l5.697366085987874,-14.013421660777539 -6.517003841802588,-8.491410283864829 l13.127472665247378,39.22871734458118 " fill="none" stroke="black" stroke-width="1" /></svg>