<?xml version="1.0" encoding="utf-8" ?>
<svg baseProfile="full" height="164.40481615632063" version="1.1" width="99.53699380472293" xmlns="http://www.w3.org/2000/svg" xmlns:ev="http://www.w3.org/2001/xml-events" xmlns:xlink="http://www.w3.org/1999/xlink"><defs /><rect fill="white" height="164.40481615632063" width="99.53699380472293" x="0" y="0" /><path d="M68.39167517092159,88.47079722604704 m0.0,0.0 m-5.664939250514909,46.43640584237678 l7.597086860174551,4.497613087896823 4.213171024141699,-0.729509080730788 l-11.08011812025642,-9.352146849036425 -7.592879383751812,-7.691659113478801 l-4.048666143431805,-3.6726893171194623 -12.880574200092383,-3.0860376947015244 l1.1175738354363818,3.2123246023773615 9.183311798268027,-6.339279443825651 l0.8383477745426743,-16.411389624317877 -2.918567755057729,-13.461369797206597 l-7.954099797329013,-7.5982560104424275 -4.741311001688436,2.9036516267893617 l6.261443105582353,17.46477381683407 9.81304229679092,5.544489402033561 l6.590794910693672,5.836697504113954 -1.3106680730012972,-0.755316554867711 m-30.814623051428054,-26.884615714898434 l2.5866441757774172,-1.7428100097527222 4.962652759678934,2.0919471363986872 l0.620584454112423,-3.5777103762662477 -6.185701549906126,-1.639615182573555 l1.6796496787296455,-12.961766462773333 4.918875364566639,-2.563605042432685 l-6.539081475966808,-22.146156339546277 11.223794738486724,-3.5899303718973985 l17.90347516930524,-7.254837258999722 8.209426421970933,4.032995561589549 l-5.452570115406276,-3.2423031416266714 4.355598160387192,16.436733115421905 l-0.7051048165673383,0.3472732532839118 -2.9558879970983254,6.536130346731338 l1.9066451843114907,6.874435585904542 0.25028925459911644,-2.874794156355455 l5.349286783862255,0.5328058042605688 " fill="none" stroke="black" stroke-width="1" /></svg>