<?xml version="1.0" encoding="utf-8" ?>
<svg baseProfile="full" height="160.90734473150087" version="1.1" width="130.93043893175846" xmlns="http://www.w3.org/2000/svg" xmlns:ev="http://www.w3.org/2001/xml-events" xmlns:xlink="http://www.w3.org/1999/xlink"><defs /><rect fill="white" height="160.90734473150087" width="130.93043893175846" x="0" y="0" /><path d="M51.9450286257709,135.90734473150087 m0.0,0.0 m-12.895113112935812,-25.88724087599199 l-2.461704033754131,-6.8566507057181525 -2.578033166711671,-6.7239836210350274 m49.95721841792869,-25.928973191351687 m-24.953205138090908,-0.7390318891220093 l-14.74827578114061,-17.27299593739516 8.54034155504309,-1.0854468101233912 l10.910735839758736,-3.3061868646033052 7.978524966736616,-2.8344103972737686 l2.780044205563097,2.6879291839626505 4.189042810081296,12.587885027418343 l1.1784736857153506,14.234049081313271 5.0196791005093075,8.237778668284914 l9.328529437179997,11.097808505998513 9.807666252123353,3.9324586641224557 l1.931485267981149,0.3496407528794343 -7.4823386866402695,12.758755891785215 l-6.591518130477538,-0.3499057753016205 -25.690719305783684,-4.685297432218925 l-8.610508367999913,2.0589143969584365 -19.207703199882364,-16.411261170466705 l-7.90560299798736,-17.999802889213914 -0.7061762111125816,2.920479454273195 l-4.735872031874743,-1.0927034622127163 1.7047707521580273,-2.306297895072334 l6.303897104008944,3.1806265236879927 15.480763877716651,-4.74031810125666 l18.113104400577882,-6.14050177761944 11.661483590097697,-2.380788761512298 l3.9207829409966304,-0.45975027985019734 2.67559723128765,-13.21298176721696 l2.0749751899965228,-7.091984479387854 -12.356315854217828,-1.901848054955344 l-20.251993721113077,-11.93503663295667 -2.8304924864423,-3.610272110329206 " fill="none" stroke="black" stroke-width="1" /></svg>