<?xml version="1.0" encoding="utf-8" ?>
<svg baseProfile="full" height="163.2969970667693" version="1.1" width="185.61036216867433" xmlns="http://www.w3.org/2000/svg" xmlns:ev="http://www.w3.org/2001/xml-events" xmlns:xlink="http://www.w3.org/1999/xlink"><defs /><rect fill="white" height="163.2969970667693" width="185.61036216867433" x="0" y="0" /><path d="M125.30820280531798,115.89941321913295 m0.0,0.0 m5.657944513143063,-7.936617645277579 l19.77474755597743,30.334201492913934 0.16713612203036593,-79.03172152964555 l-1.1917304447023247,-7.709076878925188 0.7047575926835701,-3.5787282396232953 l3.2158840521476315,7.304823409351992 4.518224015517582,3.403808282600201 l-1.0978936067546912,0.2848579906802995 3.553089563313746,-13.369361363195944 l-4.274202901074956,-18.33301293834051 -11.563177516755864,-1.2152218000483828 l-3.618674018624507,-0.45603446501954886 -5.373074289332078,0.9346719182473895 l-6.625623472189099,5.8940089445938435 -19.419274395151152,14.509809193769012 l-31.16122788063805,-20.90824846858407 -11.786142638451633,-1.027571122629585 l-15.918017097767232,4.911163053203105 7.141211456380094,3.2934780726459456 l9.75912989605563,10.141556858270176 -1.4402354232807462,5.2860139100280294 l-1.9349090711576589,10.43752022977892 -0.7119146027654556,3.6317109051289798 l1.6725212917057692,10.477700459963692 -4.291835705524521,9.524791788216525 l-0.2181915511708532,3.5416702824330724 -9.959024737103519,-1.5688115456383782 l-11.238824016236041,0.9508702974883922 1.5800258643948661,-0.4811214762556613 l8.509635702299104,5.438301012781892 8.237121289988336,1.7439045775778184 m-3.8520802220729022,-38.575006176702594 l-17.40735637846712,7.162318829600729 -11.716221751734746,-8.638780361758567 l5.91531296635112,-6.249256235476219 15.838592550864965,-0.7751209884416821 l5.17253006659929,2.18575991664733 7.043061881367758,0.4007206596764178 " fill="none" stroke="black" stroke-width="1" /></svg>