<?xml version="1.0" encoding="utf-8" ?>
<svg baseProfile="full" height="247.47504936844766" version="1.1" width="142.9731674826938" xmlns="http://www.w3.org/2000/svg" xmlns:ev="http://www.w3.org/2001/xml-events" xmlns:xlink="http://www.w3.org/1999/xlink"><defs /><rect fill="white" height="247.47504936844766" width="142.9731674826938" x="0" y="0" /><path d="M25,222.47504936844766 m0.0,0.0 m39.2882910392793,-2.00863961210457 l12.51013317029717,-28.589866019500647 0.17513445991780938,-3.991863891749751 l6.170178153177881,-10.67316661226599 5.01430766354412,-3.8360229469461125 l5.277413975958137,11.156311850848851 m-17.87358064763877,-22.445074781241043 l1.1129339515038743,-6.156558409826906 4.800990554870039,-17.987476795780434 l4.830437603657361,-10.253316134517387 -7.755561605986465,-7.424491905118396 l-2.386899558004337,-8.262744203295188 -1.9639865888777364,-3.772566469180015 l3.613816720131913,-4.20198390803284 3.181804917402026,-14.432406151490799 l3.7322274928566337,-6.763829888920784 2.373109169973521,-3.5538986841889186 l4.662562170696517,-10.373630965134613 3.10149714528396,-9.306244621513459 l1.1715012589516896,6.258445487835398 10.79358279181367,2.0691335840153244 l11.143273643885516,-3.790128862797287 -3.3942607357913657,-0.5976540373732309 l-6.575418655667525,1.4093810904504005 -1.9379108154346962,2.874847236296999 l-7.992654337270586,1.4117774627425117 0.031096358066958762,-4.893323659568103 l-12.538467624495716,-8.097457507399731 -3.392169217433049,3.6808851914450478 l-11.530369859786868,4.793981245020631 0.218842480188568,2.930553398391518 l1.9440636010995698,3.4804996722977775 10.208455649003696,14.020298634280435 l1.1951498113098507,7.961000198932096 -1.3033478705128332,-68.10981835305847 " fill="none" stroke="black" stroke-width="1" /></svg>