<?xml version="1.0" encoding="utf-8"?>
<!-- Generator: Adobe Illustrator 24.0.0, SVG Export Plug-In . SVG Version: 6.00 Build 0)  -->
<svg version="1.1" id="Layer_1" xmlns:ev="http://www.w3.org/2001/xml-events"
	 xmlns="http://www.w3.org/2000/svg" xmlns:xlink="http://www.w3.org/1999/xlink" x="0px" y="0px" viewBox="0 0 78.3 144.6"
	 style="enable-background:new 0 0 78.3 144.6;" xml:space="preserve">
<style type="text/css">
	.st0{fill:none;stroke:#000000;}
</style>
<path class="st0" d="M46.4,118.3c1.6,5.2-4.6,17.2-9.6,19.4c-5.2,2.4-20.7-0.2-22.4-5.7"/>
<path class="st0" d="M5.2,130.1c6.6,7.7,18.7,2.9,26.7-1.7c11.8-5.7,10-21.9,7.7-32.7c-0.8-6-1-8-0.1-16.3s9.4-20.3,5-31.5
	c2.9-4,8.4-6.8,13.2-8.2c3.5-2.1,7.2,3,10,5.3c3.1,3.2,0.2,7.3-3.1,10.4c0,0-0.7,1.3-0.8,2.2"/>
<path class="st0" d="M13.8,4.1c0,0,3,5.6,4.2,7.4c1.4,2,4.2,6.1,6.2,7.7c2.6,2.1,8.7,5.1,11.9,6.1c4.2,1.3,13.4,0.7,17.6,2.1
	c2.2,0.7,7.4,2.2,8,4.4"/>
<path class="st0" d="M52.1,7.5c1,3.3-2.2,10.4-1.3,13.8c0.3,1.1,1.7,2.9,2.5,3.6c0.6,0.6,2.2,1.2,3,1.6c2.3,1.2,7.8,2.2,9.4,4.3
	c0.1,0.1,0,0.3,0.1,0.4c0.3,1.6,1.7,4.8,1.3,6.4c-0.3,1.2-3.7,2.6-3.4,3.8"/>
<path class="st0" d="M58.6,31.6c0.5,1.5,2.7,4,3,5.5c0.2,0.9-0.5,2.8,0,3.6c1.7,3,10.8,3.8,11.8,7.1"/>
</svg>
