<?xml version="1.0" encoding="utf-8" ?>
<svg baseProfile="full" height="216.60890287278764" version="1.1" width="126.5558574301836" xmlns="http://www.w3.org/2000/svg" xmlns:ev="http://www.w3.org/2001/xml-events" xmlns:xlink="http://www.w3.org/1999/xlink"><defs /><rect fill="white" height="216.60890287278764" width="126.5558574301836" x="0" y="0" /><path d="M79.57146340188791,177.12735979027386 m0.0,0.0 m-42.39442927827381,-54.361148199513366 l-7.760596057340141,-2.8273731691735295 9.198852954982547,2.100438697338641 l6.356453536890172,15.6234146981372 5.899358263060571,5.708993588721712 l0.430531071220235,5.068228420688019 3.0955245052345104,-2.6667734035714377 l1.2093170732858078,-6.6396551673639825 m-29.622179832691657,-101.36026742592588 l-0.9842956382561411,-5.073607896228457 5.4172067834733335,15.3200988324796 l17.989122572930796,12.953262977588722 7.765515933015361,3.3573105823892333 l8.4483268842787,-4.72377544808162 -3.4911725443897734,-7.707527582186923 m-7.114003572193184,-10.839593503000339 l3.6612719818700694,-8.362786705121323 -11.776360120514449,5.006736539885845 l4.054862622114609,-12.703335627335962 6.488335147008823,17.71803371584399 l-2.925063677058127,5.944839608627604 3.661940376509234,12.345657378619892 l-8.423374475483238,25.236771739969086 5.581211276567626,4.581856601751426 l15.502257282312465,1.8589331920584622 8.6721580530705,4.697812092359533 l1.5112544683872693,2.5046399016754175 m3.154879578879457,32.64977063666802 l0.7650205190010387,5.683341169810543 10.318032862743555,9.671832228975438 l-8.370785361970734,-1.8080381490944413 -12.58432987993566,-12.303048238208191 l-5.714182952831719,13.258589785430601 6.708542720273409,11.22104668335394 l9.508766403906263,2.4207653895902905 4.42478874875654,5.913528610392752 l6.462177569562521,5.1987491603395934 5.20220896336246,2.4731136285599913 l-4.978022522645822,4.264783459001042 3.6765563168714115,7.6661864403928766 l2.958715472310863,5.40973783666976 -2.282120498262862,-5.186272259782743 " fill="none" stroke="black" stroke-width="1" /></svg>