<?xml version="1.0" encoding="utf-8" ?>
<svg baseProfile="full" height="142.4709857515155" version="1.1" width="236.83462224037527" xmlns="http://www.w3.org/2000/svg" xmlns:ev="http://www.w3.org/2001/xml-events" xmlns:xlink="http://www.w3.org/1999/xlink"><defs /><rect fill="white" height="142.4709857515155" width="236.83462224037527" x="0" y="0" /><path d="M25,59.73446172264521 m0.0,0.0 m3.284785121111025,7.636120512053124 l26.748260747964373,-13.670163154839456 14.44049079199465,-10.344257288340003 l24.775122579462934,-17.227086219425633 3.812216774045909,-1.1290755720932426 l4.331104857382256,3.8564735578826017 5.740442391000206,5.661592075493674 l8.204647112853758,9.122358374236983 5.756681365008675,9.809160717504508 l3.5323633845047535,9.411602421107377 m7.607880578330635,22.715608747957326 l10.202547611783888,3.0621293153633067 13.776935964545292,-2.091820293286766 l9.602244202806043,6.368779629663706 11.37409329008571,2.239579937740178 l5.618695112154863,-3.1321410406605663 11.644683291440202,-16.732169980558368 m-6.101905033109086,-8.091693640230458 l-2.4062053987774443,-1.0203516996074884 5.18883441265531,-6.715280817227692 l10.514167048237141,2.285736441257916 9.186536034894198,-21.860950202163096 l-0.32071707898649326,0.16613626396118186 -2.3798769841396497,-0.5742976858927327 l-12.535672721589767,0.7422965029870265 -12.896583596091595,8.854967196755842 l-2.706073687494388,5.705533567460033 1.0538955870402933,8.133532953387338 l3.7223470616797996,10.463774048375058 -2.007411518636437,9.476619311868877 l-6.007010314129608,18.12704357534164 1.100438591123866,5.063723421341951 l7.3543264329769125,6.870186394533744 -13.567148569160809,-6.117365299064632 l-13.720744282141947,10.670221955987017 " fill="none" stroke="black" stroke-width="1" /></svg>