<?xml version="1.0" encoding="utf-8" ?>
<svg baseProfile="full" height="139.2789011016838" version="1.1" width="114.57483598581248" xmlns="http://www.w3.org/2000/svg" xmlns:ev="http://www.w3.org/2001/xml-events" xmlns:xlink="http://www.w3.org/1999/xlink"><defs /><rect fill="white" height="139.2789011016838" width="114.57483598581248" x="0" y="0" /><path d="M77.06966863629015,81.53769200257884 m0.0,0.0 m-52.06966863629015,-47.052304375273856 l4.30701676724248,-0.20280377285855003 12.369875021670467,-9.282583854446429 l1.4217703824885897,18.423184509799643 m30.334752690768738,29.786707690954255 l0.9125630116219735,3.5936244865453086 -1.068511027903899,2.6711895854761467 l-11.304339529120302,1.7553817491884065 -4.246030642411395,0.5324276482319595 l0.4077750853404137,0.21127146986347797 10.501609060063904,-5.590339889547061 l-1.5114853863042987,11.547802205948845 2.0437375962562876,2.797655639219211 l-0.8103562121831032,2.64899795607716 1.9729643432184334,5.378929453634864 l-3.5795601001246826,6.24132817863915 -0.6768193337536667,4.892641593054101 l12.054901678029193,4.388098824598338 0.6708027690928539,-3.6622639655100597 l-9.236105059639076,-4.641193944823727 m10.51389138859641,2.410807113403479 l8.370719179546432,-0.21911170720067602 -0.8152394772834326,3.6645952898050815 l1.9409037806001577,-6.447754820651325 -4.3935836476406465,-0.36196151042268143 l-3.922684689199543,-5.922163746962022 -1.7487007036049658,-8.294916092293427 l-1.7331633831243454,-5.091927807748453 -7.826999200239055,-1.3716876729228866 l-7.001599501468498,4.549013160806002 3.4367800560692245,1.061296077711721 l11.45518053910488,-0.18738167549639112 0.8669158312225758,-3.699521890890022 m-24.22003111448081,-23.740130386090925 l-4.724674804142733,-2.496435673951487 " fill="none" stroke="black" stroke-width="1" /></svg>