<?xml version="1.0" encoding="utf-8" ?>
<svg baseProfile="full" height="199.4131694571104" version="1.1" width="137.95324419195748" xmlns="http://www.w3.org/2000/svg" xmlns:ev="http://www.w3.org/2001/xml-events" xmlns:xlink="http://www.w3.org/1999/xlink"><defs /><rect fill="white" height="199.4131694571104" width="137.95324419195748" x="0" y="0" /><path d="M41.21432053501832,80.2833260421294 m0.0,0.0 m-10.611003279712127,-40.48627123255433 m13.972987228756484,-9.693847611852691 l9.561613478122895,-5.103207197722376 11.042637162198664,12.424698381526978 l3.2507154451650946,1.7234160077864773 -3.293086282776222,0.9913909576538837 l-8.208347525954395,2.2063413243468544 -13.09732651504967,7.928534304506807 l-3.193643355710587,3.820545596562368 3.8863853668906256,2.481957765456558 l1.8052055582196618,0.018809184973119213 -11.812300276816558,-0.6012591971543791 l-9.518157538352183,5.42856651225034 2.4187305611333945,9.014056974137393 l8.792710782632208,4.9945605054356 2.21299227959154,-17.81604993294424 l-6.8819571833567,-10.524417180127003 m20.8021169189934,-0.6024948957449583 l8.794775803734751,-7.303814432484119 12.764678000988011,-6.023439626857161 l-0.21499134809688347,-0.8582666741522206 -8.721824931814599,8.24285003669049 l1.86923375815271,4.3591189453391 18.917980409727956,1.6785980950654837 l-2.7488104599149636,-5.720459440075488 m6.98661363257822,86.51742097726103 l1.2148164987118963,0.20208434736928543 -3.61754052390425,10.346549133317234 l-1.4522403593808415,3.977005838573953 1.0991412076008678,4.890546278334123 l-7.117271904643051,-0.10872978580619289 0.6879407277714151,3.2139705228729247 l9.785704372914553,0.9442382711058045 17.209944116972935,-4.777063470385912 l5.15050183156494,24.249482000799045 -8.841600459246292,3.029041317774227 l-10.62469843932259,-3.5324541075707447 4.227057549695717,2.841278591146019 l0.1690697224688717,-0.8717962232245574 -7.0359012727824615,-3.5941450184274406 m-31.475057364972926,6.22249757177973 l-1.5296559223940758,-4.826902371978886 " fill="none" stroke="black" stroke-width="1" /></svg>