<?xml version="1.0" encoding="utf-8" ?>
<svg baseProfile="full" height="157.44423357398017" version="1.1" width="139.3185311401129" xmlns="http://www.w3.org/2000/svg" xmlns:ev="http://www.w3.org/2001/xml-events" xmlns:xlink="http://www.w3.org/1999/xlink"><defs /><rect fill="white" height="157.44423357398017" width="139.3185311401129" x="0" y="0" /><path d="M25,131.1931726722749 m0.0,0.0 m24.466076030028532,-55.153396796313366 m4.187226180322752,0.44533890950263777 l9.709722903884247,-2.3112330359518674 12.00773298302149,-14.540749213969827 l-3.660603946693617,2.4506641792106865 2.642762573973918,7.188398001939455 l3.1523344654238747,6.7681159839072444 -1.471778116836429,0.38385946747401034 l-3.3858415134210773,-13.325598516876067 -6.154268671209069,-13.170375856071725 m36.68766876670307,-24.928195795126076 l8.202480963234848,0.17634969848892165 2.9350185216803615,7.242094047782454 l-2.986184082767269,3.468460220568658 0.1917888788440142,4.617671472177534 l-4.795707593262265,11.483484984209372 -7.875587247759115,5.048570008491044 l-2.6376876229996062,1.3620495501751195 -3.143207936108131,4.824652578701409 l-12.919819121765824,0.2103271138104404 -5.5240224704715235,-1.1989183589503938 l-2.0887210233069644,5.129766937018984 12.649921284880431,-0.3951432691527691 l2.597166089390106,3.4713936604789577 -1.591178628563224,8.25043663743557 l5.254675114945256,5.908164890099405 -1.3697592596880004,5.3177496078643935 l-2.4777292962324284,19.90313171159471 4.179838635854438,5.071804668133272 l1.4625945851813251,-2.0831370521950396 0.9872893261974166,-2.3622990032291833 l-3.209330096485124,-4.7562945888857975 -8.682314870325921,-6.03032396278966 l-7.3237818460171615,-4.392536202493109 -0.35018631316402854,-3.5425600887733615 l16.686327011644085,-6.678265155411955 -1.854033358943256,7.613508892463908 l10.394445610595952,6.401298896835492 6.037308151084253,8.119253381170036 l-5.192102101365977,15.133040925789464 -0.8323525357116163,5.9561691242118275 l-2.5141005426792944,4.1743322483604715 " fill="none" stroke="black" stroke-width="1" /></svg>