<?xml version="1.0" encoding="utf-8" ?>
<svg baseProfile="full" height="137.25361755713985" version="1.1" width="155.27544020949216" xmlns="http://www.w3.org/2000/svg" xmlns:ev="http://www.w3.org/2001/xml-events" xmlns:xlink="http://www.w3.org/1999/xlink"><defs /><rect fill="white" height="137.25361755713985" width="155.27544020949216" x="0" y="0" /><path d="M35.23204711134191,77.51717268806351 m0.0,0.0 m8.849446293013106,8.866447865440103 l16.77384853705904,25.86999700363623 23.94652094150447,-87.25361755713983 l3.8683390846370473,2.553923638573229 4.744901694835457,10.040862279459335 l0.006482429847175508,23.010536140083307 17.084938059288387,17.527137640175606 l2.389395566154143,13.511489724385774 -0.4377484983622987,2.777539973879353 l3.753256008457424,12.030952733359928 14.064012981716287,0.49213920878470097 l-4.509463636121144,-2.3476898860977875 -7.978308964637556,-4.8640329423238535 l-5.4853200071797525,-5.552190634128711 1.5795328937730484,-3.109181216468618 l-1.678947265045289,-5.082704375739082 2.5142581008791054,-5.203376983763885 l5.5625432877379275,-2.483602499771132 3.6955021478192123,-7.806134860444501 l-4.704816981722606,-6.334549619768415 -7.348107031832144,-19.53737503915508 l-18.135271138777135,0.5671883540765177 -5.749275268185288,-2.60601849982717 l-11.04869178727775,-3.3600071286026982 -7.562025327910311,-0.2696503831673236 l-9.647450590713794,1.0878391883086698 0.14888722816958078,5.951902604220676 l-0.8854667486965692,14.306622496588101 2.802014165488751,4.335806066618213 l3.652636365817948,-2.945839854431288 3.858310156204177,-2.776136203229739 l3.6832425940022504,-1.2983077139994164 -4.9359387237396275,-2.626533490660974 l-6.844595889085757,-0.622856254014289 m-36.258687788459426,46.10984495592229 " fill="none" stroke="black" stroke-width="1" /></svg>