<?xml version="1.0" encoding="utf-8" ?>
<svg baseProfile="full" height="144.52083859133506" version="1.1" width="195.82159847162754" xmlns="http://www.w3.org/2000/svg" xmlns:ev="http://www.w3.org/2001/xml-events" xmlns:xlink="http://www.w3.org/1999/xlink"><defs /><rect fill="white" height="144.52083859133506" width="195.82159847162754" x="0" y="0" /><path d="M170.82159847162754,119.52083859133505 m0.0,0.0 m-18.770266801559217,-23.924864486461576 l-3.1594092896808634,-7.155154339162844 10.756320824395331,-6.056274562873234 l-2.0453254744400473,-13.477466952199748 m-1.4621417195098458,-1.0388330627217024 m-33.05077422944378,9.816985022058432 l-6.040078640537463,-4.267141909161329 -13.449364033704908,6.115080966495053 l-12.961087160073662,-10.14895983031355 5.518158650668077,-6.6019824692811495 l-17.60780903953184,-0.34942336841067223 -9.768005161228425,3.102071685813008 l-6.6889606573099725,-0.6313344927223921 -4.8216519100079465,0.14644717707651383 l-13.802734969317948,-6.255547279946565 -10.087166032987684,-12.157532969932715 l-1.9752651736922349,-10.576178165347182 -3.1031796308980875,-5.646618043999534 l-3.2370156591748778,-1.2976110844555806 -0.06584236359209891,-0.143679568589537 l20.35557786341557,0.7121072617813151 5.6953896008638205,-2.615610382143066 l-11.25919960326664,-2.0693177368369886 -8.372480562870456,9.215103569113051 l-1.5286044707515323,9.997570796156804 11.124618828170389,11.726576332163887 l8.795058659550866,6.0573624539749344 3.9477724941147554,13.445052625752888 l15.838258796200625,-4.435437647347994 0.9066166858044886,-11.680812591996661 l-2.387958257051157,-3.98693186505484 1.3565185436307998,4.885208163274848 l2.2638512827237,3.138426713614683 0.5845089467333816,4.783138596092445 l-1.430423611093077,9.02136489185227 2.7431971486981412,2.275482774712902 l12.535082369512157,-0.17133077942361047 12.256621870991497,-2.5670214910875546 l7.52427477602385,-5.537092824796068 1.4672705015353882,-1.1668864577397886 l-4.701311657366094,5.375141307265834 3.379504344743157,-1.9431121394910928 " fill="none" stroke="black" stroke-width="1" /></svg>