<?xml version="1.0" encoding="utf-8" ?>
<svg baseProfile="full" height="155.03176657904325" version="1.1" width="119.76329291642107" xmlns="http://www.w3.org/2000/svg" xmlns:ev="http://www.w3.org/2001/xml-events" xmlns:xlink="http://www.w3.org/1999/xlink"><defs /><rect fill="white" height="155.03176657904325" width="119.76329291642107" x="0" y="0" /><path d="M25,130.03176657904325 m0.0,0.0 m23.5194490172137,-28.54443110998467 l2.763145330812074,-1.8546570780923737 12.375614282295325,1.5182217332182826 l-0.20465195382248835,1.45980766201179 -4.235614796779506,4.803703929248854 l-0.7195693415495241,-1.8446799238084437 m8.88990208897184,-29.01697096488582 l5.753640913798469,-6.964256337096364 -3.4737911109416917,1.9551747803349073 l-0.4241511437102844,9.370139075057963 -4.703765605683061,4.768499667277807 l3.1167690418117413,4.39122614152712 14.9175796407571,-3.241541889492582 l1.4117834863859247,-5.952389660464067 m10.776953066861443,-28.7591253626187 l-0.8230275892757438,-0.41919553904607776 m-49.39130036083662,-10.269852530752654 l-3.838830789314268,-4.9032844632349875 9.013606951635056,-6.4444349836232835 l4.198790847418332,-1.4956113902827028 -3.6979922684338753,-3.5881083343372686 m12.311701666763074,32.25679320272859 l3.435993838756918,-6.28138865535788 1.6934108576605924,-0.8051605606762618 l-1.2203855010765952,0.5238349852006824 -8.382574557188107,1.3677450397203728 l-1.1928407664478051,3.301424649429952 12.700436971380077,7.126199623725184 l-2.8144896496143814,5.9646776796145895 -11.831172292379224,-9.319285886541328 m-4.311256847168104,25.785888540461244 l3.120933079585742,4.215931601466065 8.729160541250922,-7.624157807805681 l4.000939753252202,1.237491179958539 m-23.267176561535585,43.93833686088161 " fill="none" stroke="black" stroke-width="1" /></svg>