<?xml version="1.0" encoding="utf-8" ?>
<svg baseProfile="full" height="134.8904515661552" version="1.1" width="142.37695439030574" xmlns="http://www.w3.org/2000/svg" xmlns:ev="http://www.w3.org/2001/xml-events" xmlns:xlink="http://www.w3.org/1999/xlink"><defs /><rect fill="white" height="134.8904515661552" width="142.37695439030574" x="0" y="0" /><path d="M107.89871943489698,52.952052382455236 m0.0,0.0 m7.3474910627626855,-9.57718900391131 l-4.404471764837333,-8.164931637058926 -3.0359970275629977,-2.7963993418005755 l-7.1823840023830465,6.069755213744387 7.990916909040082,6.136497496851295 l4.640213116109628,-1.000878660095012 4.12246666227974,-18.618906450185094 l-1.9357833628067003,2.6980624727500833 -1.912905235166723,10.439698328970222 l-4.074500152938405,6.775770004343805 -1.8864982351904458,21.406946010007662 l-7.368833338997273,11.966841351017562 -3.8750358336051125,16.301631477474064 l5.7410859239528005,10.234130697577532 -2.0969736562464676,3.5489457566002325 l-6.528907942747025,-1.5798429095944713 -1.3522478254475683,-0.11708181212714429 l16.675661529585298,3.2153501891356675 5.979671392703887,-1.9479029184355534 l-3.635208838456406,-5.421280073727243 -5.9800217421904565,-9.218087728466449 l-32.88408305112695,12.288737772836118 -2.1314348449817704,-1.2658560317568512 l-3.4459208889937125,-0.9434213971610916 -4.9372988441694865,-3.981978381926027 l-2.9519644057134244,-1.1825315251092163 -1.910714763287273,-1.9300100656101815 m-31.865040274482517,-38.895997906077966 l7.333762801297293,-0.42325268078276257 11.662164959001801,-2.4346440404203187 l1.0650061215721314,6.234055625879273 0.2625787990078488,7.136113731693928 l-0.9614925668076629,5.673013860254523 -1.887311860542399,7.1066801733277645 l6.860317636830982,1.3849118344000635 3.2729626599673955,-6.192137821605229 l-8.150860805890016,-7.97683190805754 m-14.17041983179359,-15.754929601992133 l2.871814326211094,-1.6113123618736596 -3.1893599656091833,13.930114647881073 l6.00834446829186,4.987263770000128 -1.0005084540363702,6.662232184665413 " fill="none" stroke="black" stroke-width="1" /></svg>