<?xml version="1.0" encoding="utf-8" ?>
<svg baseProfile="full" height="146.2707335820659" version="1.1" width="103.91582879083825" xmlns="http://www.w3.org/2000/svg" xmlns:ev="http://www.w3.org/2001/xml-events" xmlns:xlink="http://www.w3.org/1999/xlink"><defs /><rect fill="white" height="146.2707335820659" width="103.91582879083825" x="0" y="0" /><path d="M30.83625070939307,59.913567573789656 m0.0,0.0 m-1.3244526833010095,-34.913567573789656 l-4.51179802609206,19.826577812977206 1.079080082497641,7.26399342242207 l7.668624983603214,-2.727962516987919 6.198047778305363,-1.2196229825946214 l5.877577987907376,3.345666053252838 -1.5827900643059414,0.29878886453931996 l-5.147922140557905,5.483437046477893 -4.2071195363916285,3.8946812522588607 l3.437671563064898,9.49850537605429 4.569397998559834,-12.706586035504612 l8.696623379267171,-16.200720477817104 2.4080465527904735,-5.394803633639907 l-11.09317704615543,-3.026926863988977 6.801080883058172,35.06494657617859 l4.2284823102957265,8.28262963022596 17.08672431588525,1.8445494859936302 l3.574437376597772,-2.3389916806398805 4.321042366416261,1.8785941173679332 m-48.72379652261403,24.08900427591928 l-1.8967573301852265,-7.80441989337523 14.428091502059905,8.786425876187636 l1.3860394177379511,3.3738085555058395 0.4635175942816562,11.030857009400869 l11.966764422158818,-2.107789329417552 4.523734115352777,5.836091641269494 l1.2639703828657947,-11.741345120742332 -2.986250113603364,-12.1512713142694 l-3.3895045032509565,-9.270893367715862 -0.5896046900314824,-4.387442905396301 m0.09362644187866753,-12.955572340704757 l1.420558918523378,-8.321500657009011 -6.521247728697121,-0.5514290662434742 l-0.6134303315383501,-3.7429949280979993 m-6.950190484626133,5.278544427614646 " fill="none" stroke="black" stroke-width="1" /></svg>