<?xml version="1.0" encoding="utf-8" ?>
<svg baseProfile="full" height="114.16640373030945" version="1.1" width="175.20125489351273" xmlns="http://www.w3.org/2000/svg" xmlns:ev="http://www.w3.org/2001/xml-events" xmlns:xlink="http://www.w3.org/1999/xlink"><defs /><rect fill="white" height="114.16640373030945" width="175.20125489351273" x="0" y="0" /><path d="M102.48402909733088,76.23677588275368 m0.0,0.0 m-7.834959224568501,9.531322978778132 l2.913632500348111,3.3983048687776405 -2.6706316078433425,-20.95320135858583 l-11.835404838710314,-3.126114930349062 -12.471526235659244,-6.159957793642421 l-12.996054267225842,-0.07815866495292534 -5.673860261809547,4.890077254659728 l0.6569090625495999,-0.816357785952101 -1.4055169701048231,-3.7832216969843904 l5.220387548271159,7.144519978961081 17.54424699299739,-1.4099066401420024 l4.291645723390231,-19.49406245711651 13.777758786227947,-19.107074455316592 l1.8471406436976456,-1.2729451808884307 3.967928574005531,3.2548217773627974 l13.351105356317579,9.890894880209812 18.06348638478952,5.670636376679 l20.970937629508732,2.34185065042052 -0.27162146756024197,-2.1988353225224926 l-23.971025810912614,-3.499878464416529 -22.191304954585064,-6.141772774815408 l-0.9158061276323287,-4.524010686674689 -16.51954899941172,3.5493175807306354 l-7.688867324785544,-4.489237557510979 10.976394284061579,3.362682765387608 l-4.284826123315428,3.1552602981104347 -8.77681479648548,-0.8991100792370038 l-10.964108153329159,11.463417204915684 -13.690201425113768,8.784907537261752 l-0.788500407552935,25.322451864646165 0.42344006692824454,-2.3990654819854296 l-2.936786194307529,-19.897245144553118 -2.4093821183728616,-16.06920510752384 l0.7097193311241484,0.9330362790846625 -21.902014672262,-6.393392429119589 " fill="none" stroke="black" stroke-width="1" /></svg>