<?xml version="1.0" encoding="utf-8" ?>
<svg baseProfile="full" height="302.29554776269754" version="1.1" width="193.40235100402901" xmlns="http://www.w3.org/2000/svg" xmlns:ev="http://www.w3.org/2001/xml-events" xmlns:xlink="http://www.w3.org/1999/xlink"><defs /><rect fill="white" height="302.29554776269754" width="193.40235100402901" x="0" y="0" /><path d="M38.96471998804749,275.85926404024303 m0.0,0.0 m27.117575531603446,-1.478765646067064 l13.401416039317056,2.9150493685215366 -1.1619744259773386,-31.840897465569753 l1.3092236392384973,-6.8934384338856844 -8.928873424743669,-1.8494197390753657 l-6.700315800253374,-2.7739546164371056 -5.2567795089475995,-2.1123773409504736 l-11.659426971550436,1.8012746032846367 -10.03385364939557,0.7152419083068706 l-10.28615486248699,-7.396112333096559 -1.7655565548515098,-8.23969559470973 l3.1290516828498096,4.413280149127437 8.839811323897887,0.8172232608239995 l6.06652793645416,11.010246747628276 14.90772395267055,6.806009314747663 l-1.460016458706196,-2.621530752469149 -9.133233581840136,-0.6033046741114917 l-5.626823189314467,-2.5763079001415923 -4.717792236668901,-0.5818521748398428 l2.3612171345036703,-1.4162564650145775 11.526272291155694,-10.177475690317802 l5.977999025604031,-9.62836632435133 3.1709024635441376,-8.638277304432084 m28.525840324753453,-28.098250393512398 l18.980409947759664,-6.476712557682768 1.3409821094830265,1.9776801671143156 l2.9375171083147475,3.1132564804348672 7.1208388347779445,7.014499947326535 l-4.074268409231667,9.883841412158679 -5.066974028563768,4.3821026794448645 l-10.193921984531583,9.058861682078053 2.4674891100828966,-3.292532554744737 l5.177949213267181,-4.083142733579561 7.206248567271025,-4.496369201221022 l8.15756255426122,-6.8620284578363195 14.3987997782857,-3.42418234889613 l-0.05840642668755808,-90.01182635884058 31.440643960636514,-69.19475469945766 " fill="none" stroke="black" stroke-width="1" /></svg>