<?xml version="1.0" encoding="utf-8" ?>
<svg baseProfile="full" height="209.25353073761985" version="1.1" width="135.94975202725016" xmlns="http://www.w3.org/2000/svg" xmlns:ev="http://www.w3.org/2001/xml-events" xmlns:xlink="http://www.w3.org/1999/xlink"><defs /><rect fill="white" height="209.25353073761985" width="135.94975202725016" x="0" y="0" /><path d="M109.58652259350742,180.17632014046094 m0.0,0.0 m1.3632294337427453,1.3876716385554655 l-8.220339427217317,-17.459010554940974 -12.195530577757182,-16.326526058721463 l-5.722007376312918,9.248948132714544 0.45418835286189396,15.420958440668636 l7.465223354925841,-16.253402491819127 -0.02881184396690606,-25.56326479212269 m-2.631755089463478,0.3657631317130061 l11.703531530328581,-3.1327624612393836 1.175981782050856,-3.741682760744982 l1.6996036303164248,8.727623239988956 -1.6280167703216268,12.63509800478155 l-10.324429945692284,5.891291557598827 -5.431326078301232,0.08289206702040644 l0.8443838343923084,0.14340736295529774 8.522117193785421,-0.258019049309323 m-50.64861039174294,32.90822519006015 l-7.303493190151508,-21.268497133063388 -2.069506970942623,-15.345176212794271 l26.502864822546787,5.5295956148903525 -3.503565285636619,-1.131989446160961 l-20.498470474675127,-8.405032158444786 -3.985710936341461,-0.22989407116760804 l3.6386934414919136,-10.063841896744343 0.45259415560134464,-2.9565052542520474 l7.182582183066384,-26.05943715493692 -7.614756408961353,-14.617262880892502 l-2.7419922618486816,-8.706994506255391 -9.174715990936786,-25.113671488479046 l-0.6456532034463216,2.648537123490015 2.7217717614458303,-2.4731032233056593 l6.7984581807926565,-18.776729430701035 1.4314568058329091,-1.1411575134149454 l-3.8660277885617575,4.280591294656091 -8.308483044411211,3.25417964740068 l1.0624840951242491,5.231757815719933 9.04988849043566,2.9033615454920767 l-3.3012827766144968,-22.149901462512595 4.522305462712173,-3.3469442620661596 l10.026998586015608,-1.3154156840773723 4.498006527941107,2.6738581643778714 l-4.598931910344671,8.681428307377551 " fill="none" stroke="black" stroke-width="1" /></svg>