<?xml version="1.0" encoding="utf-8" ?>
<svg baseProfile="full" height="232.63222275064527" version="1.1" width="110.17251752591586" xmlns="http://www.w3.org/2000/svg" xmlns:ev="http://www.w3.org/2001/xml-events" xmlns:xlink="http://www.w3.org/1999/xlink"><defs /><rect fill="white" height="232.63222275064527" width="110.17251752591586" x="0" y="0" /><path d="M85.17251752591586,207.63222275064527 m0.0,0.0 m-18.54868598266746,-46.84970428242057 l1.283864810088943,-2.0880642738056623 -3.434090159126003,-10.973096562829667 l-5.096913783896709,-9.2281533985558 13.054225922979347,-16.83575214910408 l3.9380656151177207,8.625263557139156 2.64607613754307,8.882630202914374 l0.5173388664193773,1.7421944368388813 0.6992384140655589,12.22741561392727 l-8.558089008731637,-22.551814863986216 -6.031192575926397,0.7440377260985509 l-5.740525634136275,-4.5252452005874995 -6.615077852529613,-0.11657987703341459 l2.038471091814717,3.549062210229848 8.856663475107954,0.974356972616516 l0.8755205613379887,3.75129878768781 3.2078908514538873,8.570023754447197 l4.459685836311878,1.6223694037822378 -4.612756772334345,7.725379250223901 l1.191468180528927,7.249962656603348 6.908770394259935,9.575272481463726 l0.7021268532889626,-3.4415002010686933 -7.916630983270691,-8.654749206214426 m-6.796565934200363,-58.22377879385578 l0.6396109207036328,2.25760126909142 8.974005624553456,4.555474633766116 l8.67977743643845,2.6469010155301524 0.9473523108216007,12.377927157159291 l0.3504493981448309,1.566502221220043 -7.097275212346672,13.538868767489948 l-14.09987091639814,-20.564366022220035 -7.3127285256899786,-9.26325943504056 l0.9934875276571838,-5.335368982807831 1.4197804177537001,-4.7496054437824675 m-0.3611732127729461,-49.997852571691794 l-2.230685880369865,-9.842783130745174 -12.119371359844159,-7.83225542911163 l-15.919654696245479,11.931482646746124 -0.06509968182024373,-2.841217280219165 l7.914494761817945,-12.831100410540685 -0.9956739012555338,5.021117002764599 l5.185170173491014,4.831636079463297 " fill="none" stroke="black" stroke-width="1" /></svg>