<?xml version="1.0" encoding="utf-8" ?>
<svg baseProfile="full" height="181.30853050393216" version="1.1" width="123.11839555030322" xmlns="http://www.w3.org/2000/svg" xmlns:ev="http://www.w3.org/2001/xml-events" xmlns:xlink="http://www.w3.org/1999/xlink"><defs /><rect fill="white" height="181.30853050393216" width="123.11839555030322" x="0" y="0" /><path d="M98.11839555030322,25 m0.0,0.0 m-58.287138176369155,40.543657232151915 m-0.9493188147903788,-4.290847770904045 l0.8586310862975473,0.0318179117619595 -0.17416100092009945,-4.699997385820738 l1.4201834175018906,2.986900391738126 4.891589039737682,14.14647554060012 l-8.83785261846724,5.917074435855341 1.139889199030072,8.597295380054577 l-1.8337417916749066,-4.934665326590289 7.057843322245252,2.077823243204152 l6.48270521813394,6.445787760665686 2.1117910050769098,11.137928455639747 l-6.935412098788955,14.903988573957996 -2.1775626114245425,3.64256883072377 l3.80784136838327,4.518836031437079 4.062270051149635,-5.218834263109043 l-6.914363923268209,-6.139097474041408 m-13.52176109406738,13.977730554715361 l0.6921965918700759,-0.45426961745457034 9.436166032338193,-5.215427466344888 l0.23601265412944938,-8.038817486178434 1.612751500387121,-0.8121767551370749 l-1.550843765573693,14.62769480711299 7.687702931635996,-5.492090382708308 l-3.696456305360998,10.79450326308366 -8.71881553879968,4.574723385452068 l-5.424019563487266,-3.59577233877314 -5.384013861162799,-4.131003629842185 l-0.21050780406492497,3.9890232987063787 9.15843443248344,6.126865444529641 l-2.9774820404302553,6.940093170148292 6.051298067413523,8.350742689297405 l-0.4800934263227602,-2.4674882664644993 -4.14875549850217,-3.5713901322593093 l10.593698485193983,-14.066213173349986 " fill="none" stroke="black" stroke-width="1" /></svg>