<?xml version="1.0" encoding="utf-8" ?>
<svg baseProfile="full" height="227.49752562758172" version="1.1" width="174.6247116322472" xmlns="http://www.w3.org/2000/svg" xmlns:ev="http://www.w3.org/2001/xml-events" xmlns:xlink="http://www.w3.org/1999/xlink"><defs /><rect fill="white" height="227.49752562758172" width="174.6247116322472" x="0" y="0" /><path d="M84.27408447443219,173.88174182739255 m0.0,0.0 m-15.578322968278147,26.990685320673943 l10.170927498114441,-6.702374105964132 m27.30492820269224,8.327472585479368 l-10.245563347875924,-79.83375560792658 31.12148873811079,-11.115125167382251 l11.702252897454306,-0.6503067279329258 4.897325079127445,6.17662818944674 l-2.3820388946922932,5.373240411722368 5.111750421583402,5.573849224738392 l3.247879531578753,14.299704455303834 -8.392835473111042,6.77843172131559 l-9.250820775383676,5.046309297252544 -9.913578727064388,-3.0764458209903953 l-4.161543990890331,-0.8138957245409286 -6.341801383885389,-4.1576129673435585 l-15.305490869695987,-6.142432235279711 -6.7951678044524355,-6.108165859371486 l-12.633017706400587,0.8506877205043772 -13.766766962395417,-0.01913672851248688 l-17.870284426433813,-0.06754203340948231 -3.8217470808312552,-5.462919658232172 l-10.14260549543404,-11.612398700953747 -0.6322660595192453,-5.881051241884039 l-3.441654407694462,-16.21369984461824 -2.1551304690551265,-5.614189530688464 l3.224127135480324,-13.291300237010576 6.779387790206047,-12.124034320931095 l9.334577531215515,-8.953624920663016 7.585420297421477,-7.742139178308181 l4.933897345420199,-13.563894057245458 -14.771950138259218,6.295063346383019 l-4.3406797035280125,5.223825323371701 -0.875158877002384,-3.519450647951854 l-7.721706050196461,-8.919686817510323 0.6967546155965709,-8.23245728893328 " fill="none" stroke="black" stroke-width="1" /></svg>