<?xml version="1.0" encoding="utf-8" ?>
<svg baseProfile="full" height="124.16954617809535" version="1.1" width="88.80453402142956" xmlns="http://www.w3.org/2000/svg" xmlns:ev="http://www.w3.org/2001/xml-events" xmlns:xlink="http://www.w3.org/1999/xlink"><defs /><rect fill="white" height="124.16954617809535" width="88.80453402142956" x="0" y="0" /><path d="M40.34680770049488,51.37488063253713 m0.0,0.0 m-4.281219424014302,-26.374880632537128 l6.7542714528694,2.005447905961836 3.0379043082905244,6.714236580014233 l1.3642030736534354,-1.3873551126228356 m6.073312711018135,10.18132404848879 l-2.2543391467004112,8.520228759081728 -11.971328362318605,-0.7872773850323356 l-2.8428471145411454,2.488121484587718 -6.324466822538218,4.664789589928369 l-2.6983859386023243,4.834265802687888 8.603442137976195,-4.125431111375396 l8.261218749950624,1.7844919459127428 8.824734566710427,-1.135088598489395 l-4.021289739038338,-5.358492852206778 2.26087528379052,-8.493403944281447 l-14.859775079490777,29.237028184754834 0.8162355735381797,2.8898186229426357 l-3.743531735331503,4.20223130891838 -8.34582219571669,-7.802363278623304 m1.780940424819537,-36.10776018617469 l4.459052969301478,-6.3477073186161235 7.73728830095068,1.718173159145554 l-5.95915423912855,4.4691741031458205 -3.805391165791209,2.5354893098196505 l1.4542071110794008,16.58191852376569 15.494132453944717,23.44870846020938 l10.166296023109055,1.522182087658337 6.572337380800471,-23.298318179090092 l0.9048247623439692,-0.3125515148813776 -6.959795864645623,1.7681468134266536 l-2.284152090316115,2.702469965777846 -10.200468201489471,3.052978285500183 l-4.1178842699980045,0.5706440498043347 -3.6890852290582066,7.683009948459727 l-2.5227182795508427,25.750416719496776 " fill="none" stroke="black" stroke-width="1" /></svg>