<?xml version="1.0" encoding="utf-8" ?>
<svg baseProfile="full" height="176.02054266302008" version="1.1" width="145.5386838195758" xmlns="http://www.w3.org/2000/svg" xmlns:ev="http://www.w3.org/2001/xml-events" xmlns:xlink="http://www.w3.org/1999/xlink"><defs /><rect fill="white" height="176.02054266302008" width="145.5386838195758" x="0" y="0" /><path d="M91.75636755510305,79.35941843839925 m0.0,0.0 m-1.2296212364157415,27.66804835814605 l-19.51446190289829,10.09778969588043 -46.01228441578902,-24.126371594906168 l0.6303134249408254,-14.017548010126212 m1.8445275689729612,22.597846425984756 m11.000608733647992,46.37347322512129 l13.910965133678825,-51.58742118671456 16.298865004181145,-44.036062831256764 l23.090558884743412,-19.962607577105523 2.8043256909097685,-7.366564943422535 l-4.495769546284605,24.16837206576235 -2.779944194293964,11.565152944423112 l-1.7428699816045636,18.37336869683206 2.6414262419565637,25.39324930706738 l2.9134688494807834,11.837196109965976 2.319961362936891,8.913604881224908 l4.953845838310076,8.421557182719543 1.9971010361689185,5.672476341502779 l3.9956104973312723,-0.10836141534816657 -0.2254550263408145,-1.4554929755271453 l7.387172353613003,-1.5554486843268045 -5.065740952622836,-9.320364219905805 l9.007863630137138,-13.52656136575933 -6.27772342966028,-47.68842532390567 l2.9342712652054463,8.076757819271807 5.681212602198756,7.437322532019085 l2.7140888319690837,13.969138232706685 -6.015345371855416,17.55196573397755 l-5.326125902240972,8.229031556994295 -6.234564868704709,10.680543213308296 l-3.7681890531125948,9.740469912439822 3.131107086199215,9.644990117577358 " fill="none" stroke="black" stroke-width="1" /></svg>