<?xml version="1.0" encoding="utf-8" ?>
<svg baseProfile="full" height="385.2726290350247" version="1.1" width="112.3155122501314" xmlns="http://www.w3.org/2000/svg" xmlns:ev="http://www.w3.org/2001/xml-events" xmlns:xlink="http://www.w3.org/1999/xlink"><defs /><rect fill="white" height="385.2726290350247" width="112.3155122501314" x="0" y="0" /><path d="M74.01869642598407,360.2726290350247 m0.0,0.0 m-6.446470040275992,-79.89986045215821 l13.59937389584281,-89.2654188521939 6.143911968580529,2.0720207409916003 l-3.905908956714046,-16.97491644541633 0.5535616999416806,1.4115098956380028 l-1.528003429389228,5.009411301084225 -4.362132610330834,6.081888167423862 l-4.8428596217593665,8.626539616561303 0.87202581622807,6.673440574848151 l-0.1825332818426502,4.5753814280207825 m-12.00335690505411,-20.529480366773356 l-5.578029244496383,-4.941994150628342 0.1278256618518328,-6.350506654467855 l4.924072844204103,-6.893143470179292 -1.097002139535238,-1.0093181457722837 l-0.7743983485287798,-6.480868990105901 -0.6410661376276712,-11.63427643444852 l-1.643067841847644,-1.8301801606463874 -9.31588292252154,0.5322734134128865 l3.520704273807634,2.546471181670217 4.848947179057511,8.828818979505618 l9.969564546391291,11.747253432945666 5.939989236630002,4.311204199650304 l0.32355905849962285,6.757331378648856 -3.53431691942104,8.446666402897181 l-3.063785967841426,4.084177052717012 m-13.870557622360135,-43.3352493972127 l-17.278424669365453,-1.098023858805186 -3.2987907970464816,1.8067089319977438 l-6.016849291087919,1.6354815996948135 -0.458795859973217,4.227007322822727 l11.189604229731016,-38.36840042051368 -2.010166495158699,4.11249543769569 l-1.5425537851751836,-71.008595152162 10.412088195064374,-29.138477141767368 " fill="none" stroke="black" stroke-width="1" /></svg>