<?xml version="1.0" encoding="utf-8" ?>
<svg baseProfile="full" height="153.86635747363943" version="1.1" width="121.07329406264222" xmlns="http://www.w3.org/2000/svg" xmlns:ev="http://www.w3.org/2001/xml-events" xmlns:xlink="http://www.w3.org/1999/xlink"><defs /><rect fill="white" height="153.86635747363943" width="121.07329406264222" x="0" y="0" /><path d="M71.11395120068516,94.52817084402166 m0.0,0.0 m-9.95003566529601,-36.91846253512852 l4.584270568983457,-4.247997811565587 0.613987360172224,-0.8359948479015225 l-2.3624952301200803,-3.4485725832184193 -6.418188504914195,-2.684099076900317 l-3.4527552651006834,2.8974635818703054 2.979835645692029,1.90036481472735 l16.794320303049716,5.07296159823837 -0.4873426437307919,-5.7941601003075975 m-35.67938194737499,56.482316942088296 l7.574510680798287,1.0324307197088782 3.9700680506533415,-2.6784239735858586 l9.142608009234483,-1.670879504912342 4.040489359287554,3.2834202905052368 l-0.1800520435177482,7.531317262963808 2.5197919700046905,5.709503487825456 l-1.8250077826352766,6.5412695882043685 5.249387046931028,1.7421644202141677 l10.692658379219338,0.4235643567916939 5.036524399756233,-4.45116192993136 l-9.920815201317739,-6.519227346632337 m3.5724410117076633,-17.550799079872935 l2.479192907285333,-2.056870482251863 15.985331453189195,-22.807086954684344 l-7.477784929820673,-6.449929315225849 -11.91378343240138,-0.13555759809148388 l-7.864038230913786,-0.2716980441550859 -4.7162875886396485,-12.400088495733813 l-24.346148885137143,-27.970485374123378 -0.47423808494430925,-2.330784160795591 l-14.281012910785295,1.147854534362287 1.9400240769568982,-2.0705232265036724 l1.7694575773746037,4.258619686787373 11.482181581640326,1.661203407931358 l-15.027171662426197,12.662788822674806 " fill="none" stroke="black" stroke-width="1" /></svg>