<?xml version="1.0" encoding="utf-8" ?>
<svg baseProfile="full" height="366.36950342355067" version="1.1" width="162.26059432614903" xmlns="http://www.w3.org/2000/svg" xmlns:ev="http://www.w3.org/2001/xml-events" xmlns:xlink="http://www.w3.org/1999/xlink"><defs /><rect fill="white" height="366.36950342355067" width="162.26059432614903" x="0" y="0" /><path d="M58.76811871256779,341.36950342355067 m0.0,0.0 m43.19101523562735,-30.56227714653657 l13.974072563989852,-81.17473458587729 15.143401091989363,-20.558269515441218 l2.2095971887606414,5.104285085082285 1.781190286174676,5.287241258547684 l2.193199247039367,4.213165145099063 -6.258153506257759,-3.2148478187575678 l-2.7293182218142333,5.813981636868243 m-3.1863464572366706,-9.879250651362122 l-3.124047544840972,-13.443976465575425 -3.877034469323082,-5.389354447707027 l-4.5559050912549415,2.826509622857732 2.8375659486569837,4.43141141985505 l-3.1299817782345363,3.5494906999908316 -5.994594783053883,0.6893095767148333 l-5.133182801545713,-4.749436016410611 -8.93907053857354,-0.947594889982018 l-6.721536457625947,-1.0814061851385486 -0.960086546577385,-3.5030492116014855 l9.943813578014886,-2.142380098079759 -6.552807027691019,-0.6673576960729373 l-5.579384886429744,-9.71737657737786 -3.5817704284596665,-34.69003087761862 l-7.274447655267397,-19.066424613957114 9.066888414450252,-9.882500252620206 l6.601155755107191,4.188536400173195 7.151774439907929,4.963186321292416 l-0.6397720736972146,2.586971778791979 1.2091359534770152,3.9945122462106286 l-6.879058944218175,6.528184138823486 1.8587114935031879,1.1407007908839955 l5.805508669536198,5.753332671866384 -2.595079581288039,-3.2525700951267478 l-15.08045673008636,-0.7177110537188458 -4.039079833071419,-14.253700157093212 l-49.90403322225499,-108.54607386055328 15.138122021390808,14.36656972587346 l-14.226357440096022,15.610191556782437 " fill="none" stroke="black" stroke-width="1" /></svg>