<?xml version="1.0" encoding="utf-8" ?>
<svg baseProfile="full" height="119.63205282307764" version="1.1" width="87.84739038402775" xmlns="http://www.w3.org/2000/svg" xmlns:ev="http://www.w3.org/2001/xml-events" xmlns:xlink="http://www.w3.org/1999/xlink"><defs /><rect fill="white" height="119.63205282307764" width="87.84739038402775" x="0" y="0" /><path d="M27.557235695314095,58.311776960966185 m0.0,0.0 m11.69252583637937,0.41807907282182644 l4.72110901918313,4.801721223585181 -5.983329462187965,1.029567656603954 l1.6145771175036872,1.093555959732135 8.626234115899566,8.028349221505628 l7.604876912924365,4.597774900911917 -7.12844770403348,5.589060676057775 l-6.422931690320768,5.219710615468768 -2.1598119677285084,1.4132583907573715 l5.241521310100819,-0.12707340646330764 6.500603917449852,4.25627155113022 l5.667749424966557,-2.374509243688202 -2.9840523750661494,-9.457661600288844 l-5.060197795251492,-4.359792509852385 9.561301841896528,-7.894000877649342 l-9.801895561573067,-33.56187457463566 -14.160157497964828,1.6173691235558818 l-2.9599497434485365,-1.9220211445487174 -2.6312607495322697,-1.0439821229268909 l-2.626992980636204,-3.29840864524744 -1.8687076638747004,-7.337171227796051 l1.4680582119184415,6.426601015133498 3.958382533537599,0.8599325209986869 l2.0058089830701635,5.92412420092926 4.600994268962135,3.19788649716019 l5.4777533538126155,8.684959856861918 7.550529204733417,3.2158766678243276 l0.861255561214259,-10.579970528568255 -2.184583489151064,-9.07861530780381 l-5.282941531059506,-4.092917523824409 3.215277367550756,5.181571588358895 l12.34175658460829,1.2707265044599747 3.726271097229788,3.7945496970426205 l0.10882823760085425,-10.484447959163834 -0.7148533653420915,25.451162823014005 " fill="none" stroke="black" stroke-width="1" /></svg>