<?xml version="1.0" encoding="utf-8" ?>
<svg baseProfile="full" height="111.81596551956893" version="1.1" width="185.126050547144" xmlns="http://www.w3.org/2000/svg" xmlns:ev="http://www.w3.org/2001/xml-events" xmlns:xlink="http://www.w3.org/1999/xlink"><defs /><rect fill="white" height="111.81596551956893" width="185.126050547144" x="0" y="0" /><path d="M25,55.24792878125179 m0.0,0.0 m28.805619446194264,-30.247928781251783 l-22.050453951331033,43.444764895965626 5.582500994599903,-0.10244821261750303 l9.015503316876675,-5.945315962069404 6.7093151289948105,-0.30666368695440704 l-0.5054081808326655,2.3406485814859135 -0.5047614950483813,11.718784047644998 l10.175522474696109,-0.2769264113499009 4.7099606019892715,6.041131286355721 l11.224117631154726,4.901990981107878 10.835589805197742,-0.5588646379665935 l12.86230443587129,-6.754550091127149 12.327588109302038,-7.887225705134591 l-2.5532765685551753,-6.6624443311345365 -7.611965779766428,-0.5666500052962463 l-2.6494622525000002,5.089953082508281 5.2864172485116105,2.683322581877554 l11.828471258182926,0.3659768292167585 9.135098086385703,-1.5822192897496818 l3.7501831349901447,-4.596027919065673 -8.901333695131182,-6.502822399165825 m-17.451719969696537,-5.301386534519313 l-1.8841417340900453,-2.8223773169558446 -9.579574276342173,-5.251019255800686 l5.254953101783841,-7.522696542060558 12.539563673088065,-5.478269021376374 l12.201997915350361,-0.9003854150522489 3.4252589133332405,5.2857238947398395 l10.791423366987493,5.079139404326414 0.5497043023741638,0.16354474527861151 l7.787394660278262,10.376141692666838 1.075760853045173,6.459523867942991 l1.7916797503566944,-1.586449597991486 8.945549584842448,-9.87817042707725 l2.206670656050678,-5.163649818807534 " fill="none" stroke="black" stroke-width="1" /></svg>