<?xml version="1.0" encoding="utf-8" ?>
<svg baseProfile="full" height="185.79112351847422" version="1.1" width="113.16293587497609" xmlns="http://www.w3.org/2000/svg" xmlns:ev="http://www.w3.org/2001/xml-events" xmlns:xlink="http://www.w3.org/1999/xlink"><defs /><rect fill="white" height="185.79112351847422" width="113.16293587497609" x="0" y="0" /><path d="M66.17505067458995,116.95124390943019 m0.0,0.0 m9.29302098806514,23.846883272116834 l-13.391202272645533,-25.964069071641045 -1.5659792657169218,-1.6302198977880784 l-2.75887030396034,-0.911413013896232 -6.734722230233931,-0.6634274859490807 l-1.6474846351254617,5.7287930850886175 -2.865621046647254,6.807667771936719 l-7.31929133414151,4.169499273680489 3.802897921054054,5.467002342575364 l6.669547214818666,3.2342137317729236 5.868072262002428,6.874985109974412 l0.6108317193731233,9.814948127429245 1.209299326999917,1.6117392715906833 l0.8721895860227816,2.5213302312853396 11.186857609699352,0.4461210703774776 l-0.6830433787496759,2.4858257904903684 3.4499345250175715,-0.019055758002536893 l3.0150382591733913,-24.407045799877707 7.196362655681869,-7.825728027687992 l5.78004759969847,-6.793308475554649 -9.817723278160463,-0.9089337898088579 l-11.458730148162791,-4.894421294064762 -4.2423181873427795,0.2851374179027377 l-7.804442205959288,-2.1602452080645844 -4.13442586153271,-5.906169751090847 l-1.5374660403284104,-0.3843254358721815 -1.5097255578442155,-5.030891478345103 l-4.205038581850618,-4.359648500058027 -2.714836865185448,2.7658828181445494 l-0.12502753848616918,7.192517659452968 4.929541693515011,9.570649256232878 l-7.885001523779805,0.00017977109543321212 -4.466260344906439,-3.9240456262869743 l-6.232897644001267,-5.363254783485285 -0.6960561267686436,-32.08699066297024 l-1.2625276641820404,-51.541425850133045 13.378682195233207,3.902405888797703 l5.07316190136226,3.359921114206629 " fill="none" stroke="black" stroke-width="1" /></svg>