<?xml version="1.0" encoding="utf-8" ?>
<svg baseProfile="full" height="177.13883727633376" version="1.1" width="131.21917095548503" xmlns="http://www.w3.org/2000/svg" xmlns:ev="http://www.w3.org/2001/xml-events" xmlns:xlink="http://www.w3.org/1999/xlink"><defs /><rect fill="white" height="177.13883727633376" width="131.21917095548503" x="0" y="0" /><path d="M79.9236010911409,147.94538662986153 m0.0,0.0 m10.208615310865907,-0.6068608386053217 l-1.2781277968154514,4.800311485077556 16.625538091760088,-45.94020706645193 l0.7395442585336046,2.607621206212518 -1.619035235128713,7.092112771225398 l-5.556282403172419,16.16403688713275 m-31.161247400170183,-107.06240107445251 l-3.8171851235171497,10.076261985138254 2.666695315155602,6.610845015080994 l3.0218822151499856,4.256878546183717 1.8247231207374321,3.7851138795408383 l-1.7320536095514598,4.538680750308626 -2.1973412413259275,1.0804983314257437 l1.092968277967991,2.752040703015025 7.376459736908237,4.093675296626523 l7.080322783557336,5.104297650018671 1.2832601850649321,3.5673338472931113 l-1.8305104769702663,0.9189967798075299 5.386363890278448,8.071120559649417 l5.317021103993218,3.7492412054838233 -1.1655256833020666,1.3100796934608878 m-42.07149888343875,-6.723389232067299 l6.937691564990831,-2.9327470014615447 17.15047955035904,-5.868606950780336 l13.560651152368592,5.559991223770424 5.266340641406293,2.5782672194942733 l2.167644702820779,6.713504795635466 -3.828957170347378,5.536501276850815 l-4.134949981610521,-10.517108549938602 -6.469297834936949,-4.7984811933843705 l-9.685742429917092,-10.768410065922001 -4.21680165359567,-3.910362376323758 l-0.6661886931663275,-0.4896808773519207 -3.4145414858782828,0.35687939229881116 l-4.797955186654128,-0.599213575746469 0.23640165307182381,-4.337261026644727 l-1.223412355303537,-2.1052180872447224 -31.999550001328767,2.8466539435646085 " fill="none" stroke="black" stroke-width="1" /></svg>