<?xml version="1.0" encoding="utf-8" ?>
<svg baseProfile="full" height="210.6418990547922" version="1.1" width="152.2739174714497" xmlns="http://www.w3.org/2000/svg" xmlns:ev="http://www.w3.org/2001/xml-events" xmlns:xlink="http://www.w3.org/1999/xlink"><defs /><rect fill="white" height="210.6418990547922" width="152.2739174714497" x="0" y="0" /><path d="M25,185.6418990547922 m0.0,0.0 m2.1295596337544507,-22.12694965059539 l14.506274504241281,-23.507496551501394 11.290517997730344,-1.9358173973226922 l6.946791933910979,-56.61593421696716 7.442612548176411,-4.725754087071572 l5.425048168382052,-0.3048563170620727 6.0695336894783845,4.083650571609799 l3.840767030548499,6.060025724620794 4.822794591699833,12.070490903844103 m-3.4711152209491605,8.402956059171736 l7.807384604867875,-2.944971789900801 8.689007084145105,-6.051336773179409 l4.127352163047873,-7.301403876579123 7.882314814810734,-2.908905049195928 l9.379962669483982,-11.581450810605851 0.8066043654749827,-10.534402504211785 l-8.183078337904552,-8.413739479748532 -20.342583191602095,-3.5217981240571516 l5.336746534120643,4.064342421795736 14.669575694857938,2.5963435751811574 l12.251460133657739,4.599458474685796 0.8463860595163969,0.168162627902243 l-0.448536520840907,5.0925531770437615 -9.058262372197671,11.167600190107693 l-12.560236549325312,9.656065209159399 2.0009284034797457,8.835664537399277 l4.874066022072892,-1.4345233730008256 m-33.748295469830495,-63.62014093310201 l11.427497009917259,6.054618152108243 4.146138871527094,7.842497853847178 l-13.844994884044556,4.999671238993717 m-17.131103083497035,-27.17103705641078 l-9.790705511032872,-1.6354817817503475 3.6545687554058146,4.269426298820771 l-28.182717007064362,16.38129681346981 " fill="none" stroke="black" stroke-width="1" /></svg>