<?xml version="1.0" encoding="utf-8" ?>
<svg baseProfile="full" height="292.0620576006008" version="1.1" width="107.22245902139994" xmlns="http://www.w3.org/2000/svg" xmlns:ev="http://www.w3.org/2001/xml-events" xmlns:xlink="http://www.w3.org/1999/xlink"><defs /><rect fill="white" height="292.0620576006008" width="107.22245902139994" x="0" y="0" /><path d="M63.62053547188943,176.28367059257852 m0.0,0.0 m-12.437793552730238,-1.1321746514597102 l31.039717102240733,38.975923815083874 -3.411712159974015,19.15074127701673 m-20.72842898245111,-7.108311396016442 l-2.384006461001661,-0.6384657762201543 6.307394248984062,6.041633238187039 l4.067901724288404,3.733895612639081 -1.4227305933683003,2.2553866877858098 l7.989423708849147,4.811273739071158 9.006215735374727,5.774453744113749 l-0.6571165146864122,6.556721815260372 -3.7473514944803954,11.868405652541258 l-3.8014418813237927,0.4889032500194701 -8.009393044224815,-4.883792041262011 l0.30093104898018863,-0.8004408640094426 1.351800382308107,-2.4001960911700038 l-0.041338839286114426,-5.726039741276987 1.386592984763552,-1.4554685691674423 l-5.230359485427628,-9.693136944498212 4.20339813225983,-13.997061483428013 l7.048499935278204,-9.840031505150863 -0.04223230730022398,-5.8673483470712045 m-11.22628017036264,9.352473230408087 l-3.8053465691975763,1.6814420007099284 -0.3504667466906619,4.467449353576647 l1.6890805708886991,10.547468142117115 5.990385064648007,9.307596902571195 l-11.87157290216084,4.482920391376813 -28.532357974569866,1.147782946263675 l-1.3019464315168021,-0.6711224867035112 6.5241802432012745,-8.21453695555275 l7.4730691384392145,-5.685693469959383 5.172266165908153,-11.632616846918078 l4.94666195535522,-3.254366766109814 11.16182737721966,-11.197911281275475 m0.9616107023696031,-111.0706926376166 l-0.8195444124342277,-63.09319781456466 13.261740734501277,-13.565536721889773 " fill="none" stroke="black" stroke-width="1" /></svg>