<?xml version="1.0" encoding="utf-8" ?>
<svg baseProfile="full" height="166.84600133786725" version="1.1" width="123.62004021675304" xmlns="http://www.w3.org/2000/svg" xmlns:ev="http://www.w3.org/2001/xml-events" xmlns:xlink="http://www.w3.org/1999/xlink"><defs /><rect fill="white" height="166.84600133786725" width="123.62004021675304" x="0" y="0" /><path d="M25,54.86927943955189 m0.0,0.0 m21.184953858033072,19.65390344500735 m1.5914445209684798,-46.07705003012467 l0.8308328655784584,-3.446132854434573 -1.4162364981923599,0.15159603382949494 l0.3863002131033441,1.180262557767589 m31.24623376229213,6.225325021381911 l5.558914503363701,6.48091110819583 -6.553838474090257,8.735086898337803 l-4.350304581448261,2.9203141454643844 -2.716608908539889,11.037262567869869 l-9.809443975409348,15.498441887191943 11.463139254877737,6.6355264643098115 l9.656599269268643,2.913133702630051 15.78591879288818,-0.6703481965934249 l0.0009373300003870377,9.153202378691137 -2.6241501536217524,7.279464960845448 l3.385348437680771,5.107400415736054 -1.5594359893642262,1.8056607286212323 l-3.071124705852422,-1.9499433457442061 -9.493968181885199,-5.871022345446861 l-4.545400377038314,-10.105071230766395 -8.765882632937641,-7.790926470101813 l-5.09590650497356,-0.7476685747598688 -11.971253441422835,-4.853307302341963 l-6.1451871221460745,-6.544656637264327 13.9034277210614,-1.0583347167791213 l9.575928639558308,-2.52840498312634 8.17735041129151,-0.37639019830050635 l5.9054984638332275,5.2923979146392846 2.007811564812365,11.354698479599913 l-8.737425364268109,4.91937998463909 -0.3525156379671235,8.652751969389563 l6.396284951405449,7.8498533394401875 1.4448338579732993,9.84609654899616 l-4.4614543697666385,4.413322727591261 2.216137472762485,7.248892291743136 l-0.7939768565195222,8.968254674475657 -2.5215105664394186,5.672838537705279 " fill="none" stroke="black" stroke-width="1" /></svg>