<?xml version="1.0" encoding="utf-8" ?>
<svg baseProfile="full" height="179.26473070665548" version="1.1" width="132.91133708341908" xmlns="http://www.w3.org/2000/svg" xmlns:ev="http://www.w3.org/2001/xml-events" xmlns:xlink="http://www.w3.org/1999/xlink"><defs /><rect fill="white" height="179.26473070665548" width="132.91133708341908" x="0" y="0" /><path d="M25,146.08837926907836 m0.0,0.0 m33.57181761687921,1.9075242335233238 l12.232841784060362,6.268827204053814 7.3154693311737224,-19.92986888261391 l5.146672068685844,-5.555106890732168 5.1323981280413005,-2.6291100548694035 l5.753998118792023,-3.1452667004617094 m-36.51858076474646,-46.52073919352798 l0.24817490799209574,-10.635584289038635 10.618257771428365,-5.220257142164934 l8.86754392725059,3.7985155032352993 4.383133621489509,3.042113680010557 l7.5949302588867855,3.3321404445135347 9.489209618415297,4.38699262720668 l-0.6028304168277243,-12.640294021201115 1.46170591045134,2.2443191348777236 l-4.948752636758389,-1.9203481647734235 -4.314767006296805,0.5734574312396259 l-0.7049592941375502,3.173962970641711 3.6111258316731676,11.045128490027066 l-3.102107851156237,6.018690979883641 -4.292668805874029,3.64293590659925 l-8.370999909012404,7.974829181089804 -5.724854670221224,15.108691549180532 m3.449886916026793,-85.40993326577765 l9.244844552011111,3.8241669750648564 23.36984807519241,4.931925336082477 l-9.653743613002419,39.86043229117066 -4.744633232060937,23.042537554942804 l-4.0736260991104345,9.59247575224682 -9.611194126789213,7.217679752630393 l1.773396980047387,-4.738490074393157 5.506085174738684,-2.255500233153472 l-5.171248210632921,-5.738848706933715 -3.260533139615819,-8.204067911108911 l3.235992885932991,14.66082220452969 " fill="none" stroke="black" stroke-width="1" /></svg>