<?xml version="1.0" encoding="utf-8" ?>
<svg baseProfile="full" height="271.2525643384355" version="1.1" width="103.05950916345044" xmlns="http://www.w3.org/2000/svg" xmlns:ev="http://www.w3.org/2001/xml-events" xmlns:xlink="http://www.w3.org/1999/xlink"><defs /><rect fill="white" height="271.2525643384355" width="103.05950916345044" x="0" y="0" /><path d="M25,246.2525643384355 m0.0,0.0 m7.1912743533870644,-17.54345690366734 m10.808611068618111,-44.399835997219625 l8.265409273885973,-28.878524933696852 2.2216286450504663,-3.207691648822845 l6.19594458534243,2.070505591262288 3.683151706998117,5.105310141417425 l-0.22394862948520833,5.1616408498647655 -0.5296177623716902,6.740395750346966 l-7.80135608241567,4.9953827145995655 m13.90716537122338,-29.860559838691454 l7.719138913497134,-5.0810221591319635 1.6221077197203317,-8.24199428148228 l-1.4010477761737532,-11.276020143009754 -2.9145692184371423,-9.03967855551905 l1.9231428010029843,-15.043068053011547 m-5.643532984798552,-1.5684192517243767 l-6.013026552513995,-4.538291847713806 -3.1555469744504485,-6.4324174876307545 l-4.592741062645255,-6.406503425735341 -3.203977961543579,-21.568202741557112 l7.115072546834065,-13.65216593471708 9.108763487561848,1.612008779273978 l1.204754700889253,-4.17212217073785 1.5249930247666315,0.29640166799397444 l-2.3054743550379673,2.262175385747156 -3.1607034128694935,-5.284136825043776 l-1.081343559141888,-8.703734940198915 -4.447116934593232,4.775231115889302 l-1.9977493256338419,-9.373769195519154 3.940808321687216,0.03986108775372532 l7.161067849942755,6.65738922304362 1.0803339173685784,4.78000922638891 l2.45218242344858,40.18697880119414 -21.92712854705303,28.318585252162023 l-13.288504838054903,14.345468440571617 " fill="none" stroke="black" stroke-width="1" /></svg>