<?xml version="1.0" encoding="utf-8" ?>
<svg baseProfile="full" height="255.349297006332" version="1.1" width="216.46414452541887" xmlns="http://www.w3.org/2000/svg" xmlns:ev="http://www.w3.org/2001/xml-events" xmlns:xlink="http://www.w3.org/1999/xlink"><defs /><rect fill="white" height="255.349297006332" width="216.46414452541887" x="0" y="0" /><path d="M119.31285002533329,191.73774223885968 m0.0,0.0 m2.0090353703412536,-31.490392532684663 l14.414965857322887,25.60475569419399 m-32.75004492302466,13.290758264472409 l-26.46320414930037,14.399197906512487 -34.80243459505914,0.5275791600559707 l-16.721167585613266,11.147218585074167 8.062795865830893,5.132437689847937 l27.865040749514005,-3.27493445892311 50.14216172051302,-21.399809276795335 l24.670305466970028,-18.076345484462788 13.331228849773899,-49.57116961783069 l-6.022595305761669,-14.821717317950537 6.464070283334038,-8.143677751766074 l1.2721647040131396,-17.144199442588548 0.3738131592696274,-4.385939259561507 l-0.9388561571153823,-0.19472746283422418 0.7668493862023984,-2.3581202800204664 l-2.3940926766709345,-3.8354716944250993 1.9286891558219816,-4.851035288244115 l10.707660175497972,-12.085748790859027 5.814762662520533,6.350013132652841 l6.761508818690333,3.7173186966129625 3.832736815355441,2.366368102456812 l-6.724315464235878,-4.66076558847061 -6.472036912422324,-5.424688246997473 m-8.283732389136464,-27.399544998376378 l-1.2504664624588113,5.301630568282139 -0.9014504841587326,0.11941537837566268 l4.452222063472336,3.2057576517283586 5.687969927286099,6.589767179836312 l10.519663066763718,2.458375956132134 11.796144764367765,2.8607667112741177 l4.05645897483026,-1.4533625209865708 0.9454437673515714,-5.3302573646852975 l-7.090294780653861,-10.960767559063733 -7.380712667572961,-6.418368084254996 l-13.087804253209322,-3.149564557473184 -14.45585029340955,-13.37849533711358 " fill="none" stroke="black" stroke-width="1" /></svg>