<?xml version="1.0" encoding="utf-8" ?>
<svg baseProfile="full" height="228.69854041650888" version="1.1" width="192.19678125032792" xmlns="http://www.w3.org/2000/svg" xmlns:ev="http://www.w3.org/2001/xml-events" xmlns:xlink="http://www.w3.org/1999/xlink"><defs /><rect fill="white" height="228.69854041650888" width="192.19678125032792" x="0" y="0" /><path d="M25,203.69854041650888 m0.0,0.0 m25.13936641294162,-104.25660384775797 l10.056185773955852,-47.038957741467485 16.26885383186754,-0.08132646604954177 m-28.445279802337467,-26.23210515100747 l7.988797396278993,-1.0895472102264125 m-7.998680253351773,19.31568647351047 l0.3952486464433039,13.239798895762062 2.3225201063521683,1.4373800277666826 l3.089554184078319,-0.48333375986959776 -4.786722484573148,-7.171796171121669 l9.077949521028858,-1.124532786218827 8.503296195623697,-8.130829557148015 l19.020835643872182,7.794114323139965 22.209031963485966,3.638173372719294 l11.715711626728472,4.867539590597581 4.748680697945584,3.595607197990996 l24.292495742928065,5.295699437423892 1.7759713995842064,-5.8687993897682365 l0.42472184621437314,5.855360183774034 5.138112858498019,7.231143975355511 l-9.85424948089169,4.507649441443262 -13.02101297971505,0.5856088035978718 l-7.056329859633761,3.264211901746558 -3.639857775938314,8.149416094554141 l-2.173823242168358,11.743351276707097 4.339140349568775,4.724884521247786 l7.73267863224621,5.142946954792303 -2.6320306119358183,8.177158691561043 l1.4225785601392926,12.755935482025942 -9.865297168426512,9.52076766814416 l4.4973388452974605,2.7226617586613244 7.212799350612011,-3.8761243793263143 l13.046039941667598,-16.135387130940842 m21.252155381941236,11.01881728817489 m-13.129652330096901,-37.80578097926576 " fill="none" stroke="black" stroke-width="1" /></svg>