<?xml version="1.0" encoding="utf-8" ?>
<svg baseProfile="full" height="307.09975029968564" version="1.1" width="270.3614105934365" xmlns="http://www.w3.org/2000/svg" xmlns:ev="http://www.w3.org/2001/xml-events" xmlns:xlink="http://www.w3.org/1999/xlink"><defs /><rect fill="white" height="307.09975029968564" width="270.3614105934365" x="0" y="0" /><path d="M68.63945690018926,242.71523273416244 m0.0,0.0 m-43.639456900189266,31.94331148892152 l2.376959636428793,7.44120607660166 m21.09755056787606,-8.961383485663623 l9.578595581980101,-59.504167018459526 10.860172782625732,-39.56005279029057 l10.738118308842905,-6.337631035531175 16.205800611093142,-24.316913359214663 l7.805703849186002,-4.8992624125566095 10.152067163651266,1.433352585556317 l4.6528062396676795,-2.6012098651689963 -5.380641050606109,-7.25294900955962 l-3.101093973706516,-6.334181156671739 -8.900857380574884,-7.808624762635761 l4.449958873149564,-0.09432979906783268 15.955672187022344,-0.4335743246825591 l6.489683487131397,-10.472468127991611 6.299501922827269,-9.28923982907427 l15.71373580171769,-4.709988634996005 15.567277439523394,-9.882508299801982 l23.663822991722146,-7.746883232209402 6.470364816476142,1.9502006766478763 l5.538207734963148,3.7866808417840634 6.280432439830137,14.408068567012382 l7.793623349256926,2.9190513469229016 -1.5089788785456337,-2.629951812054719 l-7.798004157187592,-4.394546381752195 -11.448385907200072,-2.8976216025045556 l-6.961998935497904,-4.916957449760097 9.282641865617471,27.363479784759466 l6.753293691363737,2.433878941904022 -0.6479159042429139,2.8127187577246575 l2.1083672406703693,-8.911481958231338 5.7422301417743835,-4.7182432454450804 l8.717361525845623,-1.2261561603325455 m25.815336530754703,-74.30685604834089 " fill="none" stroke="black" stroke-width="1" /></svg>