<?xml version="1.0" encoding="utf-8"?>
<!-- Generator: Adobe Illustrator 24.0.0, SVG Export Plug-In . SVG Version: 6.00 Build 0)  -->
<svg version="1.1" id="Layer_1" xmlns:ev="http://www.w3.org/2001/xml-events"
	 xmlns="http://www.w3.org/2000/svg" xmlns:xlink="http://www.w3.org/1999/xlink" x="0px" y="0px" viewBox="0 0 76.6 141.3"
	 style="enable-background:new 0 0 76.6 141.3;" xml:space="preserve">
<style type="text/css">
	.st0{fill:none;stroke:#000000;}
</style>
<path class="st0" d="M31.4,87.2c0,6.2,12.3,18.9,18.2,16.9c8.3-2.8,5-25.9,6.4-34.5c0.4-2.1,0.1-6.7,1.3-8.5
	c1.2-1.8,5.1-5.1,7.2-4.6c3,0.8,5.9,7.7,5.9,10.8 M49.1,48c0-1.5-3.3-2.9-4.6-3.6c-2.5-1.4-7.8-3.6-10.5-4.1
	C27.5,39,9.5,33.5,7.5,39.8c-0.9,2.8,7.3,5.1,9.9,6.5c2.8,1.6,11.3,2.2,11.7,5.4c0.1,1.3-3,2.7-4.3,3.2c-0.9,0.3-3.2,0.8-3.9,0.1
	c-0.9-0.9-0.2-3.8,0-5.1c0.5-3.4,2-10.1,3.7-13.1c2.2-4,14-9.6,12-13.7c-0.4-0.9-2.9,0.4-3.9,0.4c-4.3,0.2-12.8,2.5-17.2-0.2
	s-6.7-6.3-4.3-13s8.6-6,12.7-5.2s7.8,4.2,9.4,6.5c5.2,7.5,12.5,26.4,9.9,35.2C41.4,52.7,26,57,24.9,63c-0.7,3.6,6.4,9.4,6.8,13
	c0.4,3.1-2.1,9.2-3,12.2c-1,3.1-2.7,9.6-4.7,12.2c-1.5,2-7.9,3.7-8,6.2c-0.1,1.7,3.7,3.5,4.8,4.8c1.1,1.3,2.6,4.5,4,5.5
	c1.9,1.3,6.8,1.5,8.9,2.3c5,1.8,17,4.4,19.1,9.3c0.5,1-1.1,3.3-1.1,4.4"/>
</svg>
