<?xml version="1.0" encoding="utf-8" ?>
<svg baseProfile="full" height="175.56685665951025" version="1.1" width="100.11091676854973" xmlns="http://www.w3.org/2000/svg" xmlns:ev="http://www.w3.org/2001/xml-events" xmlns:xlink="http://www.w3.org/1999/xlink"><defs /><rect fill="white" height="175.56685665951025" width="100.11091676854973" x="0" y="0" /><path d="M32.603492435877975,79.87687324975593 m0.0,0.0 m-1.8261977041540483,1.6925805025309493 l-4.032806482582991,0.6043334525107671 5.807812784144783,4.705290158836135 l19.3365348368986,-10.711903841645686 7.776098193280291,3.6174546018569655 l-8.978017817220591,6.06591416921213 -0.6835300383548193,6.920734358786191 l1.8685470191520748,6.6464980336762 -3.142741239821422,9.049803604529858 l0.04310345103131566,-1.5293995637544715 -1.1221520878390328,-0.5225058911594939 l6.293195598685752,0.9874034525464997 1.4124024441266319,-0.12672541845256652 l-3.3620521394848124,-5.653530301911019 -18.563002671376363,-0.3512460864663791 l-7.328934858502925,7.018800449457398 -1.101751723860409,10.450599913804806 l11.310614178405958,19.48965659784762 10.127063093220352,6.137066835560154 l-1.791507549907499,6.199158381988284 m-5.007765935014234,-64.92901283584762 l-2.7208507539037345,0.4520972783345177 9.64114760500305,-2.3502612271058685 l8.876729798983739,-0.8551353671423786 4.656304360095661,1.5280553068436566 l-1.032637794663942,2.0868447796443257 1.99109579727561,4.465998412053746 l-2.715640841977987,5.340637349958368 3.599619053363753,4.601618963752288 l13.163277549934502,0.5945106070821943 0.013468207734504021,-5.990493110714989 m-8.407989323087994,-45.72947213928705 l1.0607113655589053,2.568470610483601 -26.405929891129095,-25.29438309291371 l5.4516740610359244,-2.056332194651349 " fill="none" stroke="black" stroke-width="1" /></svg>