<?xml version="1.0" encoding="utf-8" ?>
<svg baseProfile="full" height="184.8778963946557" version="1.1" width="98.33259629548986" xmlns="http://www.w3.org/2000/svg" xmlns:ev="http://www.w3.org/2001/xml-events" xmlns:xlink="http://www.w3.org/1999/xlink"><defs /><rect fill="white" height="184.8778963946557" width="98.33259629548986" x="0" y="0" /><path d="M62.80200345796471,138.63626837408006 m0.0,0.0 m-26.15695254291233,13.391365103859666 l-3.768769558148778,-5.7553963334332625 0.4050853809341924,-1.288699105761822 l4.789814149947571,-10.568700252172953 9.627725556808219,0.3372142122075315 l-0.25990987176635866,1.6059984648230536 2.0062213720319133,2.1422485467389225 l1.6230626863771471,3.250950775840585 -3.982297252611189,5.52679627904043 l-0.5818825523109252,8.10314350028538 10.723185378059396,2.252530878645665 l-5.531941857131708,2.240740386065506 -10.946711697539193,-4.535099874547963 l-3.474439192236868,3.445939599880826 -7.114246069220653,0.934363816787484 l-1.5067136030766444,0.15823202231659164 -1.6753223897399585,-22.029185743742257 l-1.977911395428534,-8.57640779393903 8.214846078422843,-21.98097689156873 l24.214876211662208,-22.373200504843034 -7.26298470154873,1.9464510578933492 l9.460498788174553,19.0085535161001 11.492753820431602,-19.813856063695823 l2.212606098347385,-5.692697290074021 -7.329274631892299,-7.79485804986974 l-14.12010981088106,-2.7744912072413106 -0.6961439805121622,-11.977995803044498 l-8.974612407461034,-2.546098404743674 2.8518956952526344,-12.486235923127294 l9.780100662116944,0.6114335113413889 1.78521322933406,-4.660555933922391 l-6.681474270042026,18.338120131022563 13.559531012371535,2.569281578878755 l5.8299132783854475,-6.776240080436469 -4.31779219213721,-27.86893649964359 " fill="none" stroke="black" stroke-width="1" /></svg>