<?xml version="1.0" encoding="utf-8" ?>
<svg baseProfile="full" height="166.51127115972855" version="1.1" width="139.2207971202999" xmlns="http://www.w3.org/2000/svg" xmlns:ev="http://www.w3.org/2001/xml-events" xmlns:xlink="http://www.w3.org/1999/xlink"><defs /><rect fill="white" height="166.51127115972855" width="139.2207971202999" x="0" y="0" /><path d="M25,118.31447611231118 m0.0,0.0 m7.66546309280877,-4.428811967373258 m23.708980435288698,-13.987732066454388 l2.2769188409770393,-38.07716649633642 -1.260771256139684,-8.509320177421088 l5.911206925127753,-4.806353177774095 4.205566305535302,-4.212537286529627 l3.6119455131438962,-14.118004024555868 -4.96556253543835,-5.174550915866432 l-8.675978832526607,14.502124938445249 1.2437617046807787,9.202719174069015 l5.4641196854579555,5.116973347501235 3.8128604454687745,7.582406161006167 l8.45650727753955,8.498905953600095 3.9963067694515684,3.4864743254918604 l-0.46308524920209426,2.2441486319653596 5.028774488653519,7.0889812296173 l7.186833981008445,2.093230162421481 2.2002819637621673,1.0977540472216647 l6.463262499396334,0.3234372300924011 0.45890016444908754,7.845510055490519 l-0.24704199522298673,11.634270462573392 3.876914834296401,6.501709146231815 l1.1327577606737778,7.251540177630226 1.046258273902763,9.456383213952257 l0.3321650516375055,3.9394390334597644 0.9850145501683472,-1.7817403721967477 l0.9416964745524383,3.392934042214389 1.5669225719878617,-1.1186522954673683 l3.2598173788608786,3.778811526365942 -5.933007347490618,1.636924840041608 l-5.2968410996723,2.73698612800093 1.3191550747724545,-1.9077995026724015 l-1.844062156244513,-3.7709777687431134 -10.010950318542848,-3.4820114647894287 l-12.82048718094845,9.116951153226767 14.833915990425899,-4.147215824724897 l10.044738973956132,-7.062025295784766 -3.4638001261133704,2.810547345975619 " fill="none" stroke="black" stroke-width="1" /></svg>