<?xml version="1.0" encoding="utf-8" ?>
<svg baseProfile="full" height="140.1258798997561" version="1.1" width="105.47664543465964" xmlns="http://www.w3.org/2000/svg" xmlns:ev="http://www.w3.org/2001/xml-events" xmlns:xlink="http://www.w3.org/1999/xlink"><defs /><rect fill="white" height="140.1258798997561" width="105.47664543465964" x="0" y="0" /><path d="M25,28.9661553298908 m0.0,0.0 m19.221936304418612,-3.4959985968061167 l0.9131273654456453,-0.47015673308468353 2.904171087753741,3.6250369229912858 l7.739287868983736,2.692069648183422 5.390938494449205,0.8588498305281419 l-6.543634097009799,3.3110700965433613 m3.9520565451771383,11.499944353792326 l7.974741759864116,0.42949705283537265 5.1633153670790275,-0.2909261956483514 l2.543454807501162,6.280878563533925 1.6423102974186738,1.8970014722619766 l-5.309063102654854,3.0708517233513293 -2.986594544273649,0.3393739708710955 l5.570031648317789,1.6074802439299225 3.1640063498024653,-4.86364812679933 l-5.621316209238449,-7.508598376048465 m-42.62304522099708,-17.06117377970675 l0.006442171267078134,-4.769444008956 9.371774751439036,-0.49129568036753735 l3.1173128795855964,5.5766078638029235 5.324776534273992,1.2237511125178502 l-0.5513944898486859,1.7289760304174384 9.221832171622783,-5.207222634433767 l8.19114730603927,0.24502088463095004 -0.051724531399042116,3.7706606222412367 l-3.2053163958629303,5.1678990289314815 -0.7018617154432127,24.268164828066787 l-4.152308133779396,13.138989213918919 4.936319440286657,9.021378650916894 l14.479929362553792,13.312414401460888 4.74477933837786,13.579891762336942 l1.6492120235093648,3.672380423651809 " fill="none" stroke="black" stroke-width="1" /></svg>