<?xml version="1.0" encoding="utf-8" ?>
<svg baseProfile="full" height="204.14665004079924" version="1.1" width="119.08658544058018" xmlns="http://www.w3.org/2000/svg" xmlns:ev="http://www.w3.org/2001/xml-events" xmlns:xlink="http://www.w3.org/1999/xlink"><defs /><rect fill="white" height="204.14665004079924" width="119.08658544058018" x="0" y="0" /><path d="M25,176.97831569617196 m0.0,0.0 m21.571772201313014,-10.537069883049638 l12.45544294502738,-7.928674883319064 -7.071693429201679,-12.094736325536687 l6.711236851090421,-25.806993853100803 2.5166403099390213,-2.2938529416851816 l-9.322695843924752,-3.7918523995089957 -5.619700941204632,5.703007375723064 l-4.657882126790082,7.543506753730798 -7.232409333528872,3.819266435233025 l2.967850350305572,-7.900630383924903 4.85717200779994,-5.479153722601542 l2.961931764366863,-10.405844725742748 8.339682475676717,-3.3610101419604734 l0.23615337096785316,-0.3471959780849543 2.615675128204691,7.156113830683345 l3.1557118958684613,-0.5037247867555594 2.9700696019460624,8.385739014076623 l7.323363097495966,3.831087997896623 6.263607067639468,5.399858042561109 l2.5051125014172926,12.970067552302737 5.820854455263074,15.836176169383567 l1.521604309591172,8.79863103876124 -1.5815888634117692,5.099565866002066 l2.918235713294989,3.879882050889977 6.860439931434004,4.1961722426536765 m-37.95957232356083,-154.14665004079924 l9.136826945529856,6.162212968540223 -10.865483917427618,6.769893573052356 l-10.00371913638349,1.1090060861625184 -7.5027848158527695,6.244069364450937 l1.9664108796103053,3.691294295972567 -1.4818417695005242,9.09704310714651 l4.534536194051382,11.304421517339817 6.498430742679037,6.938574633263217 l-2.090835476940408,9.566792521747171 6.72264324205683,5.577776540908068 l-5.164452853513155,-0.4893674644893453 -0.32962593677127866,-3.787445135867183 " fill="none" stroke="black" stroke-width="1" /></svg>