<?xml version="1.0" encoding="utf-8" ?>
<svg baseProfile="full" height="188.49291302917115" version="1.1" width="227.00885614740235" xmlns="http://www.w3.org/2000/svg" xmlns:ev="http://www.w3.org/2001/xml-events" xmlns:xlink="http://www.w3.org/1999/xlink"><defs /><rect fill="white" height="188.49291302917115" width="227.00885614740235" x="0" y="0" /><path d="M63.07781853117339,129.71709218636946 m0.0,0.0 m-38.07781853117339,-17.03686032928146 l11.28835388704938,-7.818067447952345 3.2432355076876718,-0.8052523621680643 l-5.2564186202875955,-2.0359070318344523 9.199428660807214,-7.101823081184168 l31.466391297942064,-27.299228696381526 -5.748100366226827,3.360483106399675 l-23.222283739103798,0.19047263602661513 -13.312187021065684,10.562042534867603 l-0.2651262594933457,19.26770783496136 1.8415401771755495,0.8576001009399703 l5.9588014238605895,1.0545626814584568 17.949931712396793,-9.21489325018195 l11.5018845819943,-0.7954474132712641 -0.4160849713776088,3.3251337088758346 l14.435825195126295,10.637791551833875 1.6265491690900675,4.852330221200059 l-2.9326498061462667,2.3995447161701478 -0.7971761732238103,13.763015275057814 l-17.844195558538054,12.576978259767047 4.934122403575809,-0.2646492053619065 l12.831663390954555,4.065567648519851 2.636563973510011,7.216170446459616 l9.497615549932426,12.018548937880917 3.1166129368141258,-0.37400747183097716 l9.195386887193079,-7.596847385977885 18.558357730303456,-34.929702923808144 l-0.4082464419641449,-24.955555995533118 -2.716354629128682,-7.182911634414701 l10.553146054800948,-10.970944392448324 15.061773289213482,-5.356405402583963 l-5.260422893886296,-24.176407559955617 0.34504823267794027,-12.678752170626595 l59.94587056573872,29.107264991974226 -51.69675005514528,-39.378643083966075 " fill="none" stroke="black" stroke-width="1" /></svg>