<?xml version="1.0" encoding="utf-8" ?>
<svg baseProfile="full" height="116.19523770178773" version="1.1" width="158.26645441638868" xmlns="http://www.w3.org/2000/svg" xmlns:ev="http://www.w3.org/2001/xml-events" xmlns:xlink="http://www.w3.org/1999/xlink"><defs /><rect fill="white" height="116.19523770178773" width="158.26645441638868" x="0" y="0" /><path d="M38.84341731997203,25 m0.0,0.0 m3.873049320305477,15.413847973609398 l-17.71646664027751,16.89397831925634 3.163338105752267,6.405656861764946 l19.38665906692454,3.145542841245307 6.229653180779323,-0.7206096714231836 l-5.137684800095888,-2.29474269491955 21.3806930868851,17.58614819361742 l3.14891073239664,4.13586692821545 4.205333014561092,0.38469511821665786 l3.3985787812535815,-0.000662966814034549 0.7533220362339849,-6.244264054154678 l-5.057111884091461,-4.81639302388215 -4.580159659504668,3.248029966132172 l3.7056508586252517,-2.6423630499443074 3.818588770558904,1.6008240937226348 l1.319206380905937,0.7987221512831825 10.866100850707383,13.300960715862132 l7.102853140871097,-0.806948525207456 -3.6978724885201033,-28.01071694969254 l-1.2302427968071221,-9.176285808731537 5.515402884286955,-6.602948216947305 l15.916690213384875,1.4253425884411464 -4.568334799172913,5.812670190122775 l2.0830234654103417,-0.4034296848666813 5.443368575321275,-0.011217436806584824 l10.806968773364897,-16.737003307931246 4.293518926357397,1.0947575695546552 l-12.072137994065955,7.934721781813759 -10.02823083274561,-3.2584424521571824 l-10.132747264284019,-11.507565408735978 -5.858388388142567,0.1622701003531335 l-4.667960048880688,-2.5103047141364265 -3.81668173310609,4.0717263578082195 l0.018324402125767525,7.516869707703117 15.656528016185424,-2.149611302596531 " fill="none" stroke="black" stroke-width="1" /></svg>