<?xml version="1.0" encoding="utf-8" ?>
<svg baseProfile="full" height="139.24178657753325" version="1.1" width="151.54928020445595" xmlns="http://www.w3.org/2000/svg" xmlns:ev="http://www.w3.org/2001/xml-events" xmlns:xlink="http://www.w3.org/1999/xlink"><defs /><rect fill="white" height="139.24178657753325" width="151.54928020445595" x="0" y="0" /><path d="M113.4985729490493,114.24178657753325 m0.0,0.0 m-7.464137321092582,-12.365263831997488 l0.4947673896922533,-13.032562954424964 2.24419144434171,-3.877123418801947 l4.58663697568241,-11.433362587535047 m-4.807475462859658,-17.462542868569976 l8.694209317864631,-2.764351177192227 8.816623963258893,2.3553732031016916 l0.4858909485190088,3.387242059276637 -0.39557007831757696,1.9379841605785486 l-7.985024238380254,11.314929184857727 -11.706622883344306,-0.5543128141673664 l-10.197146861725514,-3.5346612348587123 m-11.491012108996369,-2.702988040335762 l-5.096447129030721,-2.539306983658703 -1.8020569082058808,0.553205744338748 l-2.1763539255109667,-1.2404754323078648 -0.0017393432242091,-3.4401894678763405 l-3.076170015813056,-10.779888139488385 -19.605548948973883,-6.48933847386191 l4.5962046142571396,-8.487740158685199 -3.550204061709951,-2.1863803093669363 l-6.414751036286842,-0.0919482097828183 -4.225305963688902,5.568543438693013 l10.045940224136915,0.9393920917257431 -3.656833263662905,-1.579208588011252 m-24.810638275978686,10.851908024616499 l3.84443556886057,-0.8401884389684838 -0.950934143389048,-5.845673699257266 l8.003824965019795,-14.90285765557321 5.6830189526787205,11.243152813322125 l3.81945360209513,3.2358667863870263 0.6444439186053286,10.51632393170316 l-1.5655165157342847,9.076439667733336 1.4260149692316315,1.972208021545217 l-7.153823053565887,24.316694693124557 " fill="none" stroke="black" stroke-width="1" /></svg>