<?xml version="1.0" encoding="utf-8" ?>
<svg baseProfile="full" height="102.54183013736659" version="1.1" width="105.10145144157934" xmlns="http://www.w3.org/2000/svg" xmlns:ev="http://www.w3.org/2001/xml-events" xmlns:xlink="http://www.w3.org/1999/xlink"><defs /><rect fill="white" height="102.54183013736659" width="105.10145144157934" x="0" y="0" /><path d="M63.98020736434655,28.629029714865233 m0.0,0.0 m-11.79339482247654,9.294196955744054 l6.749313910598604,0.35447017286827587 -0.2813316678748766,-0.45822554461916853 l-8.076363182168503,3.476777053404879 -4.161858997615351,14.661600170054099 l6.256278914216704,8.503432372691185 6.3078624615570975,7.891752382078141 l2.235361499179754,5.188796860279898 3.0438636187439987,-1.408729163466424 m-14.085952046631233,-6.94160541765968 l-0.19493145258287783,-5.39538438012098 5.239242428167122,-10.54747500529048 l13.696992102170093,-5.486531214807627 -2.3942544203684912,4.600598372656035 l2.0567439859745167,7.33283289515935 -0.6685725900592832,6.710140726834838 l2.752306886333949,3.6290758892236807 8.970127202706339,1.7522362384300898 l0.46981024736176585,-4.296537379589275 m-32.3891769834068,-15.376025596405755 l-4.0640804367105074,-0.8249515585090386 m-10.05858429774881,-23.805250538615564 l-1.3470059177591025,-2.4842240052057667 -2.037286924420619,0.6139408315149014 l-5.2053168815335,13.294323935886885 8.596909993635212,6.289267873327675 l2.610786954701718,3.930211152692572 12.966354122214003,4.121785683464202 l4.5573066861085465,-3.798584792279167 0.5090607384436537,-1.2236557109775503 l-2.5478779942239997,3.9452977109193723 -5.44336343054835,1.977959223153013 " fill="none" stroke="black" stroke-width="1" /></svg>