<?xml version="1.0" encoding="utf-8" ?>
<svg baseProfile="full" height="158.1949860320215" version="1.1" width="103.84944822204314" xmlns="http://www.w3.org/2000/svg" xmlns:ev="http://www.w3.org/2001/xml-events" xmlns:xlink="http://www.w3.org/1999/xlink"><defs /><rect fill="white" height="158.1949860320215" width="103.84944822204314" x="0" y="0" /><path d="M29.891465336220868,114.3131225589826 m0.0,0.0 m7.288513247613053,-16.259262421906016 m-4.521136142130245,-3.815837270838861 m10.977567955565508,-6.000387398321223 l0.629181885764171,5.308514023859375 m-17.235377021771036,-19.322512422967222 l0.5139019123609301,-16.36966437283057 1.5279021556147498,-5.907873164052635 l6.864688244251383,-2.645075101135317 10.94398627437046,-0.017313397171843103 l11.220824107868813,4.838242321171398 0.8519220953723663,6.725557804495874 l-1.0218449920603747,13.8215124561037 0.3870123333089341,12.46171987118955 l6.293843067015833,8.047247914856083 14.23699776267774,-0.28854653966917443 l-4.264438278169121,16.45310829848361 -2.0998058345891,9.25212113712503 l-2.9424066435375384,3.152676742541214 -8.593143451398777,2.207686339855981 l-2.6672532608136845,7.239948652249951 1.6026809289025894,-6.586294739278999 l-4.248060498984511,-19.101045083703273 -15.151990703813338,-30.82772428948804 l-2.5305945077130896,-7.949904123609357 -4.810391659858069,-1.86356800441587 l-4.890208501884403,3.7077148983576134 -2.740531368865007,6.827832276182591 l-0.5133044413191004,0.44027048174545946 14.284742253868387,5.949301984753019 l6.229344786592527,5.856457203948349 m4.256608489856649,-39.378626489424484 l-15.547387089243925,-10.828869785403294 -1.3643876637177477,-9.966467773065668 l10.410176163056805,-4.474062588619532 6.344222440051477,2.1107766366091716 l1.8779296907510226,3.8210537066672665 4.5650733968776835,8.866103415319667 l2.8621141905648333,10.671616390800018 -2.8718769648257285,7.711308030105189 l2.1453666515771443,16.35830521244231 4.616108839462956,6.079543560087339 l4.471924820560084,5.8509805115953295 " fill="none" stroke="black" stroke-width="1" /></svg>