<?xml version="1.0" encoding="utf-8" ?>
<svg baseProfile="full" height="132.93328449355695" version="1.1" width="144.68720834060514" xmlns="http://www.w3.org/2000/svg" xmlns:ev="http://www.w3.org/2001/xml-events" xmlns:xlink="http://www.w3.org/1999/xlink"><defs /><rect fill="white" height="132.93328449355695" width="144.68720834060514" x="0" y="0" /><path d="M86.17151032234774,100.42008678159971 m0.0,0.0 m-5.212307006403353,-37.811962951011566 l4.496571671327887,2.5462005334616866 -4.4514011686131925,3.1174117824399628 l9.717108431592445,-4.4076065000944915 4.507815962874629,13.620150060535305 l-1.5431130044651609,5.4197293299283675 4.835536221790535,5.488075091822126 l5.429367062562444,14.601635607392263 2.1063383470002983,4.33306006373537 l9.683186327202776,0.6065046937482262 3.946595173388087,-2.364108965797823 l-5.866603679414902,-7.570336752681547 -12.218786366584652,-1.6593309157183627 l-10.118865533141996,-1.5732056211467782 -14.772093403187831,-13.366178854767396 l-8.50739854202692,-4.040317020465292 -15.753142179126693,6.178810683697038 l-5.9257838690998765,-2.406662131153797 0.35862791965504304,-6.492517010153747 l-2.9541604974515168,-4.764720620260823 -6.106308586050023,-7.765657216060432 l-0.7238870098408756,-2.785294475521339 3.6394060167838647,-2.5475983366034107 l-4.2198277771605985,-26.02882408895602 1.1227917161071543,4.421259115973419 l-7.841207893937956,0.4966816848176961 -4.799968656127361,3.8823531197717402 l11.195428779621237,7.695175195219186 5.467153621359186,2.919757315532435 l-1.9898445483515588,0.19771933218744267 5.298555769534616,-0.2710279423709368 l1.9798715137675598,-5.5920443763519065 1.2564513099055319,-9.558623638148234 l-4.281138260620328,-5.800078151450415 2.1854143040214615,-4.13851482314765 " fill="none" stroke="black" stroke-width="1" /></svg>