<?xml version="1.0" encoding="utf-8"?>
<!-- Generator: Adobe Illustrator 24.0.0, SVG Export Plug-In . SVG Version: 6.00 Build 0)  -->
<svg version="1.1" id="Layer_1" xmlns:ev="http://www.w3.org/2001/xml-events"
	 xmlns="http://www.w3.org/2000/svg" xmlns:xlink="http://www.w3.org/1999/xlink" x="0px" y="0px" viewBox="0 0 118.6 237.3"
	 style="enable-background:new 0 0 118.6 237.3;" xml:space="preserve">
<style type="text/css">
	.st0{fill:#FFFFFF;}
	.st1{fill:none;stroke:#000000;}
</style>
<rect y="0" class="st0" width="118.6" height="237.3"/>
<path class="st1" d="M25,83.8l10,3.5l11.3-5.5l10.2-2.6L54,73.7l1.9-2.7l2.6-5.8L65,59l5.7-6.3l3.4-3l-2.3-6.8l-7.4-3l-9.2-6.8
	l4.1-8.1l6.1,2.3l4.3,9.2l3.2-3.4l6.3-2.7l2.3,6.7l4.5,5.1l3.8,8.3l3.8,6.4 M77,91.6L75,119l-1,13.9l-4.3,7.7l-3.7,4.3L59,155
	l6.5,8.1l13.8-108"/>
</svg>
