<?xml version="1.0" encoding="utf-8" ?>
<svg baseProfile="full" height="161.15865751889913" version="1.1" width="108.3175758085732" xmlns="http://www.w3.org/2000/svg" xmlns:ev="http://www.w3.org/2001/xml-events" xmlns:xlink="http://www.w3.org/1999/xlink"><defs /><rect fill="white" height="161.15865751889913" width="108.3175758085732" x="0" y="0" /><path d="M72.25042810181198,47.19911180705981 m0.0,0.0 m11.067147706761226,-22.199111807059804 l-10.579256488071213,15.954405435413792 -30.8845028997638,7.57989835927686 l-4.326576679062759,-3.396992228651051 0.6773346195350833,-7.718596656225896 l2.0405674265178018,-2.689119525911213 -15.245141787728317,28.167315231716668 l10.347054176496977,-6.242698112216907 6.640167806598628,-3.5427578582666786 l-1.4762227784457551,2.0571507325444047 -6.695923305399185,-3.9284821650315074 l-4.346481982368453,-3.7043013722569986 -0.21498691624617783,2.1356261899548286 l11.550231400132782,-1.2259631160499396 -4.236619385784606,6.063216997601063 l-2.9296966319022255,3.696322204298179 11.582200674532745,3.590040887165092 l-3.778549420790827,-0.2444280978783686 6.2366030717862,5.126433662955719 l8.5866234130814,5.128127501173547 5.078266088047082,15.521495574407844 l-4.497916553961729,12.11479921774008 -4.7560048695425365,-0.9116567587639437 l-14.847876304185794,-11.304613046391685 -0.2475489273386544,2.179623591624803 l4.584071566387742,5.212601855304875 -0.879512596000717,21.155239157043642 l0.43341767525171826,4.321077841325735 -3.585709666618216,-1.0956967652954857 l9.382351806468638,5.640743795813978 5.230874400033289,-1.358323904623 l1.9964436026933512,0.4544448082214437 -2.0570141458931954,5.059908647504875 l2.055885417306572,7.363815435374395 5.367731189327862,-0.0968566211686317 " fill="none" stroke="black" stroke-width="1" /></svg>