<?xml version="1.0" encoding="utf-8" ?>
<svg baseProfile="full" height="198.88850567486998" version="1.1" width="105.61347923750651" xmlns="http://www.w3.org/2000/svg" xmlns:ev="http://www.w3.org/2001/xml-events" xmlns:xlink="http://www.w3.org/1999/xlink"><defs /><rect fill="white" height="198.88850567486998" width="105.61347923750651" x="0" y="0" /><path d="M51.72773691195635,173.88850567486998 m0.0,0.0 m-3.545430333245372,-65.0083623828748 l7.025120900970277,-3.6053494268445205 1.7952764401855825,6.467427972177986 l4.973451410980359,3.688010584363047 0.232072484944158,-1.8324466854064116 l-6.171512706867284,-6.3084605693537155 m-19.041917491598795,-12.536317498964427 l-5.444499141702734,-7.059702988670058 0.40911256047269695,-2.0063663202092967 l-1.5867773021714062,-1.764529748152866 2.606865342150069,-20.405467615541827 l-0.9573121579036453,-11.322780995758547 -4.907683893936621,-2.054544246369767 l-0.4762607068609803,-4.5770452215005575 -1.6382423173726561,-0.3604186723687025 l8.071032633721886,-4.071980910405166 0.8735926948794909,-7.071631565589394 l-5.728587006479335,-9.058539383400944 1.5238588888344184,8.758396945489055 l5.066006947178809,12.197082222246014 5.099729311802152,1.2071710457237965 l11.102122597085708,5.037771824542136 10.000016215421827,-1.1904921873091123 l2.4844140735290083,0.8240804884077407 -2.874477781209955,3.1582785901703407 l5.450303649167118,8.057848897590233 9.924875395985818,1.4906013578950255 l4.620591617589567,-2.558541081191248 -18.93335078778402,0.32719936188591703 l-6.56253708761472,-0.9097314393546035 2.944906933336102,3.574039905607366 l0.978107821474713,37.85636236824009 -4.2293023200238755,-0.9765996475586697 l-3.2777011213205456,-0.7337874367785602 -5.127469348201462,4.74176598645923 " fill="none" stroke="black" stroke-width="1" /></svg>