<?xml version="1.0" encoding="utf-8" ?>
<svg baseProfile="full" height="191.77334167229876" version="1.1" width="105.04525355978853" xmlns="http://www.w3.org/2000/svg" xmlns:ev="http://www.w3.org/2001/xml-events" xmlns:xlink="http://www.w3.org/1999/xlink"><defs /><rect fill="white" height="191.77334167229876" width="105.04525355978853" x="0" y="0" /><path d="M25,165.6632284081739 m0.0,0.0 m8.358696850790087,1.1101132641248541 l1.7578708326888228,-55.18190729027678 6.9450080464193285,-36.37140519340834 l20.106625099393103,-5.944658659469166 6.393482927403538,-4.034381692375761 l4.77738982457943,-3.1059285204857336 m-10.96339036697156,36.10321133704841 l-14.509747148777134,-13.075743400508749 -7.2387374460401395,-2.9878589416814627 l-5.700773054032202,-1.7894144739452866 9.23164335383179,-6.547558664644276 l14.112505593588928,-3.0610830301259537 6.766111841809384,0.7486721117500988 l6.5480978948692385,-4.843362497899999 6.417350027646074,2.6978533005916496 l2.0431192825898568,1.6979893608937817 -0.0726253951732947,11.067996611742878 l-13.80185598032893,6.773859494404262 4.730119832488342,5.5001869381222175 l1.9092042952532406,-1.948914085918052 -2.911075813434346,-10.15177045773796 l0.48252660819796983,-12.432657918584855 -8.355379415112603,-1.7798354611263933 l-4.596150201988933,-4.887548476078495 -5.547687769890644,-11.427272465271251 l0.5967434585808873,-7.109239590577385 4.124275747434535,-12.19825295453521 l5.166265930403527,-2.297769740495193 10.000623131303927,-5.186547311705696 m-16.235186014157474,78.55972623442679 l-1.4704114988325339,-0.7426354116168377 -3.6743491566713113,-10.045937653894473 l-6.889238232862454,-36.59512546871053 2.9030094604669365,-15.873926047159058 l30.5269767897335,14.237298762997636 " fill="none" stroke="black" stroke-width="1" /></svg>