<?xml version="1.0" encoding="utf-8" ?>
<svg baseProfile="full" height="194.73530895636156" version="1.1" width="175.1039111235317" xmlns="http://www.w3.org/2000/svg" xmlns:ev="http://www.w3.org/2001/xml-events" xmlns:xlink="http://www.w3.org/1999/xlink"><defs /><rect fill="white" height="194.73530895636156" width="175.1039111235317" x="0" y="0" /><path d="M137.82186171000887,142.91997224503228 m0.0,0.0 m-17.501496174315285,-4.880461189732161 m6.263652526340606,-26.08537683159991 l8.425089129882501,-1.1537258024759005 4.973619450754292,5.870201337542175 l0.42431661576089885,4.146112944710918 8.820186336022577,5.347844883111837 l0.8766815290772192,-0.19330833837944503 -1.6733654176707802,6.282917687802998 l-4.035141014109353,6.143623321045233 -2.0250815946275167,7.2046701833522 l7.5754628287324675,6.467479525092577 -1.1063181065517493,-7.092651830130101 l-7.446744106501774,-6.923374667381217 m-65.09432416555235,31.681385488370076 l-8.091261840777882,-6.2730664190066685 -4.245845429284774,-8.443373495879273 l2.5389064738889067,-6.0898471358042565 0.7657385376413823,-7.366042214144175 m-10.025887596022343,-32.397681121002016 l3.8677107244799207,-0.903402691705453 2.152894019250243,3.8099334705551122 l9.541832202112145,15.402709723474965 2.1216750025466125,0.9216750619609271 l7.214016230928009,11.643793086973812 -7.097111040203227,-4.891606947593303 l-6.8960990999005745,1.717286297068109 -10.888392572003228,-8.93951042213647 l-9.595331766505964,-3.456265198811286 -1.7755254404768912,-7.033416605493039 l-1.1887601574446187,-19.649353538723428 2.042075335944883,-18.162932405492768 l2.3050286158531157,-9.66127549036712 -1.4165102585345761,-5.297661606962167 l-6.743957761242913,-4.6005990662414975 0.15299496574837312,16.325606800147025 l9.702826343193435,10.888480445863646 9.508551150953787,-4.553240307655651 l5.365718611433256,-14.150397708856243 -28.273988626633816,-38.43685760114458 l-7.429196078934653,-4.831217114039489 -4.910500093259217,-0.30704675134629944 l4.179584909789736,5.350066145790797 " fill="none" stroke="black" stroke-width="1" /></svg>