<?xml version="1.0" encoding="utf-8" ?>
<svg baseProfile="full" height="90.36350597094153" version="1.1" width="152.10667027994066" xmlns="http://www.w3.org/2000/svg" xmlns:ev="http://www.w3.org/2001/xml-events" xmlns:xlink="http://www.w3.org/1999/xlink"><defs /><rect fill="white" height="90.36350597094153" width="152.10667027994066" x="0" y="0" /><path d="M127.10667027994064,41.02364625539808 m0.0,0.0 m-40.41000368610975,22.829392608479846 l0.23167298163334182,1.4129475948627146 9.562360353909911,0.09751951220089414 l6.3308169901657925,-2.641859651345979 1.751407509906025,-10.072445550252818 l3.369263601250495,-14.056691296899864 -14.071437539169562,11.152342364306131 l-1.6032288020751184,0.7727862529572768 3.8490161364192077,0.9499001433070536 l-5.733238815259473,-1.5002337993574502 -2.790112703279054,1.6245947742082336 l5.4310671116061675,1.5003062546015122 16.182880336114582,-3.873556778315308 l-3.351136678827778,-0.7007191488642078 0.18992413152285864,-0.698981306573152 l1.621925735963931,-4.852116787460686 -10.289696589768495,-10.944841828709457 l-18.50672794705711,-7.0219896125428205 -8.299837164322001,2.648342750981487 l-1.2267964210945088,1.757858036648136 -9.999860960935093,7.735033372635357 l-3.0930833314833395,-9.284151666444 -0.82515929992819,9.451034424103954 l-8.432616499840021,-6.198073523566758 2.577018717214122,5.624249965780099 l-0.3590864569615365,9.408940711275328 0.23455746221329066,6.786234086023057 l-2.133456161547094,-5.102391712602867 -9.395718807602329,-1.119561652209482 l-2.0372531658054567,-6.914632544382577 -5.141535013424457,-4.2478870746965205 l-5.738595303370021,-1.9755862045567611 0.17893014242301497,3.2133813342972304 l4.942301138477979,1.8147942034701816 14.745312270123751,-12.152869565970539 " fill="none" stroke="black" stroke-width="1" /></svg>