<?xml version="1.0" encoding="utf-8" ?>
<svg baseProfile="full" height="140.4337869460847" version="1.1" width="98.53401846564682" xmlns="http://www.w3.org/2000/svg" xmlns:ev="http://www.w3.org/2001/xml-events" xmlns:xlink="http://www.w3.org/1999/xlink"><defs /><rect fill="white" height="140.4337869460847" width="98.53401846564682" x="0" y="0" /><path d="M57.236236265729765,96.21555298035489 m0.0,0.0 m3.3291959361939547,8.101903613299761 l9.878073240359457,4.308815433309663 1.393878307388166,6.807514919120392 l-0.11948973650528831,-0.5972501492072746 1.8161244524807822,-7.964459766518771 l-9.520760605765581,-3.2575768144099317 -5.238102816826726,-7.438542731788018 l-6.164851168556362,-5.461390228683871 -1.7308211696923061,-1.349155335176137 l3.0871433407759206,-10.018804546050326 -0.39909284021586167,-2.022700848941107 l-1.56244736950109,2.777642506938381 4.988632059098339,5.959050977458029 l10.97149485705978,-20.504647275836025 -28.69650140865627,9.069973770689895 l-14.268711343366679,-14.390502276608363 4.391064146167625,1.0824013744380245 l6.181780905706143,6.464761356324602 -1.010656442631202,2.1830693771142524 l6.455203430723322,5.073356995817 7.082647607391954,7.2440990652300705 l13.583323790709613,-3.6920963643380924 8.418844780209612,-6.867509691763731 l-8.223309844811041,-0.0762749146082703 -0.9728295501568837,-1.388574480141293 l4.311824414594453,7.298074358910883 2.935142929134922,8.126013065635892 l2.324751445406793,-8.137025355965461 2.147622307855167,-7.655857738510915 l-6.680883634316002,-6.335536212292301 -4.376843145480098,-6.006484953000033 l-17.465455583376343,-8.744406337564019 -5.516256064623708,-10.830272603340386 l-2.3794650086090066,-3.855560788566797 -8.930698428846423,-9.117600381330604 " fill="none" stroke="black" stroke-width="1" /></svg>