<?xml version="1.0" encoding="utf-8" ?>
<svg baseProfile="full" height="334.74029540018586" version="1.1" width="128.2901180335914" xmlns="http://www.w3.org/2000/svg" xmlns:ev="http://www.w3.org/2001/xml-events" xmlns:xlink="http://www.w3.org/1999/xlink"><defs /><rect fill="white" height="334.74029540018586" width="128.2901180335914" x="0" y="0" /><path d="M101.43307350276159,300.16946836951706 m0.0,0.0 m-38.712843045630656,9.570827030668774 l-26.287041415459342,-21.691268528775698 -11.433189041671582,-28.138869208490014 l3.2360633756454393,-21.75420031895267 24.440208885828273,-20.782134675667823 l-5.867595901396969,-16.150626758512495 16.847008038195035,-41.204177474916705 l9.534009697294547,-48.01255014915785 11.458651674141246,-30.02671059399483 l-1.2531197814809039,-33.26974823268117 0.17148250489490618,1.4447677073556064 l9.251566390139432,-9.040864214783028 3.248750782111478,0.25072595466252695 l5.691196170164919,1.102713697855412 1.5318961980539914,4.476299407528448 l-2.9747035943395437,5.820133214930747 -3.7286206719648756,5.088239182994922 m-38.88616975778676,41.05656580993703 l0.10155963173653387,-13.333597928381996 5.233117057888783,-6.765885493118386 l8.123057179271944,-5.831908412236083 11.548239672234104,-2.5405819197422717 l8.735974184448073,1.208458294969932 7.542266930487852,3.311432753310164 l3.949267929318781,8.47523477354618 -3.1619189875970597,11.666228668967413 l-8.073908221076675,5.103601837748158 -12.53398276321397,1.2603981113613199 l-4.195536363833348,4.12077432238924 2.541369171776957,2.7463191428330336 l2.7158133638113067,8.408213516504453 2.481483664843446,2.0618250361557777 m-15.31523931578656,-89.74463761849366 l-3.0301189223913476,-2.588167521245719 -3.5209358836082005,-1.4662977840857498 " fill="none" stroke="black" stroke-width="1" /></svg>