<?xml version="1.0" encoding="utf-8"?>
<!-- Generator: Adobe Illustrator 24.0.0, SVG Export Plug-In . SVG Version: 6.00 Build 0)  -->
<svg version="1.1" id="Layer_1" xmlns:ev="http://www.w3.org/2001/xml-events"
	 xmlns="http://www.w3.org/2000/svg" xmlns:xlink="http://www.w3.org/1999/xlink" x="0px" y="0px" viewBox="0 0 87.9 116.7"
	 style="enable-background:new 0 0 87.9 116.7;" xml:space="preserve">
<style type="text/css">
	.st0{fill:none;stroke:#000000;stroke-width:1.1167;}
</style>
<path class="st0" d="M3.4,90.5l9.5,21.9L36.8,3.5c0,0,3.1,2.1,3.9,3.2c1.8,2.6,4.1,9.1,4.7,12.5c1.3,7-2.2,22.1,0,28.7
	c2.3,7.1,17.1,21.9,17.1,21.9l2.4,16.9l-0.4,3.5l3.8,15l14.1,0.6l-4.5-2.9l-8-6.1l-5.5-6.9l1.6-3.9l-1.7-6.3l2.5-6.5
	c0,0,4.5-1.8,5.6-3.1c1.5-1.9,3.9-7.1,3.7-9.7c-0.2-2.4-3.8-5.7-4.7-7.9C68.8,46.6,63.9,28,63.9,28s-13.7,1.8-18.1,0.7
	c-1.5-0.4-4.3-2.6-5.7-3.2c-2.7-1.3-11-4.2-11-4.2l-7.6-0.3c0,0-8.1-0.9-9.6,1.4c-1,1.4,0.2,5.6,0.1,7.4c-0.1,4.5-1.8,13.5-0.9,17.8
	c0.3,1.6,1.5,5.2,2.8,5.4c1.2,0.2,2.7-2.8,3.7-3.7c0.9-0.9,3.9-3.5,3.9-3.5l2.2-1.6c0,0-2.1-2.8-3.4-3.3"/>
</svg>
