<?xml version="1.0" encoding="utf-8" ?>
<svg baseProfile="full" height="254.43489064237923" version="1.1" width="121.6652418658429" xmlns="http://www.w3.org/2000/svg" xmlns:ev="http://www.w3.org/2001/xml-events" xmlns:xlink="http://www.w3.org/1999/xlink"><defs /><rect fill="white" height="254.43489064237923" width="121.6652418658429" x="0" y="0" /><path d="M26.43093647622209,199.80600596344823 m0.0,0.0 m8.323447135636375,-7.438639799497142 l21.637891550428566,19.124506115503046 -3.041793853393936,-46.50448132022882 l4.24144263197688,3.5134797342444606 6.871085207566391,6.393482611660831 l4.932350549597464,3.5421701115044315 7.47349526652792,9.091544966321225 l-1.8204120585571644,15.067593606653187 -2.2370881645429344,3.7753138130313713 l-2.573791327444879,-0.9236201082472758 1.4696196582148535,3.1989142123606027 l1.7869913473183778,14.077402563896133 11.493207423437322,4.695684893758449 l3.250709417330644,0.6040146893300852 -1.5307928425144846,1.4115185886404025 m-37.344898737034434,-21.24451172222124 l-10.342341086963666,-5.616706903609222 -13.286301924231738,3.237306495302663 l-0.7337566695736455,9.535374775514972 2.1968764886452834,-8.244662256472086 l1.0123981511746671,-6.605183422459239 3.8348252592631202,-10.594583507126984 l4.025282104351349,-17.664618362567104 3.9549095694165834,-2.4654024102728576 l6.618320992848258,-5.688222293344845 10.840244664532623,-8.652726990737964 l-6.655985919790573,-7.963255695155191 2.6196874194677156,-2.8452039838197867 l13.94292532027908,-7.50367146795937 6.511009618813502,-5.650237394130619 l7.710491909520607,-12.376374080205265 2.0105584390519664,-11.251304441632865 l3.747328961491924,-9.856753790464284 3.707664431063593,-3.3561646115475043 l3.7969191798991266,-0.8129124522628614 1.7917852758140718,7.8584387901396955 l-29.733886947348047,14.988680307144373 11.822844229630693,-91.66219522449165 " fill="none" stroke="black" stroke-width="1" /></svg>