<?xml version="1.0" encoding="utf-8" ?>
<svg baseProfile="full" height="122.20321182818877" version="1.1" width="169.97881163531946" xmlns="http://www.w3.org/2000/svg" xmlns:ev="http://www.w3.org/2001/xml-events" xmlns:xlink="http://www.w3.org/1999/xlink"><defs /><rect fill="white" height="122.20321182818877" width="169.97881163531946" x="0" y="0" /><path d="M42.83190318168103,39.95524432092883 m0.0,0.0 m-17.831903181681028,-6.690045345061716 l12.072291730450921,7.792678137887898 -3.3629096995673255,1.5622203782382986 l-3.4519650848493577,-3.089939981598804 8.44848371075615,3.288268340382521 l-5.3782046763198,15.668144003983558 1.08404988566882,-5.176811976752049 l9.631939469778953,4.781698973058662 4.929556016395873,0.2514202033706088 l5.99825780255471,9.639147133724736 5.727642162295856,4.808359663529555 l16.422310638209133,15.773755450833562 -1.1238469248263452,-0.5253443957567109 l3.5717280692794504,0.47922292395638166 0.30745214577504454,2.5977107190918396 l-3.2222337950532842,3.049414678193425 12.497225462822795,3.0380686001781947 l6.126735444187035,-4.481226423772362 -2.53909887150693,-12.008204460541327 l-0.8389534541650298,-1.8510220007510996 8.086380236394012,1.445321701747354 l7.957298525730536,1.6963507647628595 -1.0647555484534146,3.333835163553445 l8.407624440851263,-11.86549279325587 -0.9926581215887342,-8.600876992691326 l-3.918825594416717,-6.920897732944403 0.8290332821546894,-5.47867005184247 l-2.744324509607844,-5.16334781792228 -7.5023418222037614,3.7032680141847862 l3.973397660475789,8.492957215365179 17.904955412378474,4.604388534619103 l9.63870000783242,-2.842400792522023 -9.524035854656098,-12.512592535226133 l16.757114211068334,-5.0834741453768455 5.2707892774738205,-18.671127475575368 " fill="none" stroke="black" stroke-width="1" /></svg>