<?xml version="1.0" encoding="utf-8" ?>
<svg baseProfile="full" height="203.87581578328565" version="1.1" width="83.53821432891536" xmlns="http://www.w3.org/2000/svg" xmlns:ev="http://www.w3.org/2001/xml-events" xmlns:xlink="http://www.w3.org/1999/xlink"><defs /><rect fill="white" height="203.87581578328565" width="83.53821432891536" x="0" y="0" /><path d="M58.538214328915366,25 m0.0,0.0 m-23.532680814708407,47.83786907685898 l-1.2416998878170586,6.527023457236411 -1.3396288883584584,13.946757092837663 l5.299177303022586,7.034992219720508 11.507521864576056,-12.298420509755564 l-2.3620170796053395,-4.888465126841682 -7.072871320794601,-7.700424762538935 m-10.228577226442317,13.595302004933991 l-0.32649357500415227,8.864744083212331 0.003810165755059325,3.592926765024525 l5.933638559195584,14.507462349747033 5.265024908356901,9.21709819394707 l-7.4621232429916455,1.1571540983243225 -1.1377001230073087,-1.5158941814970364 l7.842300056943341,-1.9211422119992752 10.129136058911064,1.8487637339873986 l-8.255082785849646,-5.676789275538517 1.6957062715026472,-6.612717382054077 l-1.509911691773611,3.6577262280413922 0.8698034077993096,2.0599763533943163 l-2.688798114703738,-1.8523500883207136 -12.417677607510438,26.922207587969467 l-2.509070566411191,4.933996361496089 3.8404562272219698,1.5244956698638703 l-0.11149513679508671,4.787428157470264 4.7286800279570285,9.272656965318385 l7.802889640554023,6.602999983705107 3.041095788847581,-4.45151779374378 l-3.576006972804701,-10.12628571519045 1.1725241513506346,2.1377244925526946 l-1.5706161548152124,4.8935287941307335 -4.645254408893934,11.906777941463499 l-6.392733967642301,3.8811742186981757 -1.3561549977150462,0.20903700083145904 l0.4675447585476089,-12.87300651317992 " fill="none" stroke="black" stroke-width="1" /></svg>