<?xml version="1.0" encoding="utf-8" ?>
<svg baseProfile="full" height="176.56328569705266" version="1.1" width="130.5601206801182" xmlns="http://www.w3.org/2000/svg" xmlns:ev="http://www.w3.org/2001/xml-events" xmlns:xlink="http://www.w3.org/1999/xlink"><defs /><rect fill="white" height="176.56328569705266" width="130.5601206801182" x="0" y="0" /><path d="M25,77.21283765490482 m0.0,0.0 m6.702786204001803,-43.53422178950657 l12.022568840560112,-8.678615865398251 -6.04682137417271,34.32352971002057 l12.916430406556158,26.409461747124972 17.64098096388191,18.12709054476697 l9.59566786718917,-2.044220805092599 3.6019238676906937,3.6836813865333378 l1.1160217184119696,2.783860104436553 6.863929788874521,4.669241134753614 l6.605595962200212,4.850150357713948 2.8210599682150495,2.5017538131933983 l-2.9685441224742064,4.641692326128619 -6.259264889783662,5.767049169169803 l-1.7614015341098754,2.732605241893081 -3.0588869472471836,6.246403428004343 l3.167570487487268,11.87098753840605 m-12.306397600566665,-23.231521829720005 l3.3915489487437935,-12.053823082631775 -0.10252482811063057,-11.557015547293386 l5.026943879941112,-11.189865601746174 0.04905970303014595,0.6352849222461499 l10.260956646824413,-10.369285004934767 7.306007650861754,-17.611293746983165 l3.8951105503647887,-3.9445830418982957 0.0797985217482422,-15.397760491386267 l-2.5860579784651954,-10.096099793132435 -5.323991980088018,-0.5038221125934805 l-1.0717900882720555,0.7295194249520701 -2.3389535506080237,1.9000694960679256 l-2.9301103600998832,0.5481975865467659 -4.600173681892688,6.81617310307091 l6.877855327547448,5.530519160737587 2.273918520023007,3.927623389868251 l-1.0101448428626325,7.361498249834757 -9.543438674686234,1.2900207575941942 l-1.4004052374503788,-5.77852690256151 1.2976937726520281,-8.682095414369206 l-3.2417874304383654,-11.647320514216494 " fill="none" stroke="black" stroke-width="1" /></svg>