<?xml version="1.0" encoding="utf-8" ?>
<svg baseProfile="full" height="239.19178462770373" version="1.1" width="96.03111142611016" xmlns="http://www.w3.org/2000/svg" xmlns:ev="http://www.w3.org/2001/xml-events" xmlns:xlink="http://www.w3.org/1999/xlink"><defs /><rect fill="white" height="239.19178462770373" width="96.03111142611016" x="0" y="0" /><path d="M71.03111142611016,214.19178462770373 m0.0,0.0 m-23.87219700491917,-28.813458859476423 l2.449537858546024,-3.7399026171782954 0.12302461035089918,3.430253205339262 l4.8465337058564755,-16.034609573969938 10.434965874122426,-7.699358600297474 l-6.709834384093376,2.0719845150324967 m-21.663000428114216,-81.07959858560118 l-0.7206213351153847,-5.9892197997644345 -4.198141853556265,8.634471520244713 l-0.19451429337738538,2.3001957982264085 -4.926659818952792,-5.576028146015266 m0.14050564040873903,-56.6965134842436 l0.5911233597811849,6.749428510373534 0.17947935409621088,9.686739258020193 l2.4030149811683352,18.892348721966453 2.2227848136786434,6.485668005047161 l4.831502711916639,3.258330216552017 0.3413064552308075,2.1788364457911267 l2.102559422267537,3.254609014353476 -1.3570728427189465,5.827057471788547 l1.5270545645558635,4.473822644815007 -4.29060981876165,7.90246893136364 l2.583603859219231,8.437992959490535 11.210664301672432,4.755818740527325 l3.0675933343670745,-2.021546861825386 -7.043151415919208,-7.30000395907066 m-8.219035441881472,-15.691407846206397 l-1.6410055109246136,-6.632576964117177 10.335565786950397,-7.640843393831694 l0.02560415697120566,4.76794775023969 8.079415285518206,8.072389660196471 l2.0734657524901583,4.442117893119012 1.32522487808237,6.349446876613079 l-0.09464092109986072,5.741742104987166 -1.651464091544776,3.391718072956305 l8.229561602803566,2.4805586993529296 5.502734269222169,-3.3717146503818145 l-7.742249921250102,-4.406104740785301 m-36.333738923157526,-31.757677233441246 l0.21651322353912233,-7.870054946729785 12.747654932335877,-5.19963489237741 l-0.5948078076497502,3.480822811011819 " fill="none" stroke="black" stroke-width="1" /></svg>