<?xml version="1.0" encoding="utf-8" ?>
<svg baseProfile="full" height="170.38226968965878" version="1.1" width="135.2204301642441" xmlns="http://www.w3.org/2000/svg" xmlns:ev="http://www.w3.org/2001/xml-events" xmlns:xlink="http://www.w3.org/1999/xlink"><defs /><rect fill="white" height="170.38226968965878" width="135.2204301642441" x="0" y="0" /><path d="M32.86107492823636,53.9450607177785 m0.0,0.0 m13.898613475050816,-28.9450607177785 l-8.024511747251067,4.383473460147473 3.2340768198162477,6.728056486807185 l5.041883600865825,8.568717978058547 19.058623589080323,13.027547293720342 l4.796424533318595,8.402951340960744 5.418594442438813,8.671725332871945 l11.726092312585177,1.1941000393716683 8.746835447714219,0.9349262295944061 l12.264611796660818,-14.200661699094105 1.198110965727962,-12.18497987127496 l-4.819074723811631,-7.653780978840106 -0.10044021754402555,-2.2053637230360144 l-4.159406163668545,6.5581804797231324 0.4040404688160226,9.073124017998072 l0.9424630765278519,-0.32352216767128295 -0.18346108653840454,3.6733754329862376 l2.798124096145543,16.598627622493975 -8.659822733135405,15.308290812499163 l-3.092845295016037,6.84207676185657 0.7720686828423357,2.8431507816709316 l-8.438941675958063,2.0488432779511805 -14.192875527235817,1.430228879429443 l-3.3693804910767424,2.4436169857719694 2.276166978574091,0.6292033761804183 l0.7143024313453039,6.048436511322735 2.2262990115787504,23.689047826111718 l-10.345035638170833,7.852877202047425 -13.579984597945053,-6.58313134122334 l-18.63925139380972,-6.454609728686953 -5.773375366163728,-7.6146271630805185 l5.333626731743044,-4.062860747369375 9.620650863215769,-2.8561761708999622 l20.492136718684872,-8.615232587281639 13.21526785282289,-1.0887204441104525 " fill="none" stroke="black" stroke-width="1" /></svg>