<?xml version="1.0" encoding="utf-8" ?>
<svg baseProfile="full" height="176.73293203540334" version="1.1" width="96.08607785199217" xmlns="http://www.w3.org/2000/svg" xmlns:ev="http://www.w3.org/2001/xml-events" xmlns:xlink="http://www.w3.org/1999/xlink"><defs /><rect fill="white" height="176.73293203540334" width="96.08607785199217" x="0" y="0" /><path d="M28.179851679791447,137.50819286595993 m0.0,0.0 m11.34209726060837,7.212951386612274 l-13.163741731783464,-2.9948861680878722 2.3685121458628164,-6.0348925572344525 l1.3153008675321909,3.7636235891798275 4.110812379531392,11.250583639224185 l2.887021786590869,1.0273592797494302 -4.382723878128894,-8.67348603912805 l-3.9209607957633046,-6.6454426948175005 -3.736169714241424,3.206676228621946 l17.828807466326502,7.861460509781753 3.2465287082475918,0.9718742985700625 l1.5318115036811977,2.191020763943113 3.378037849425434,0.5414140938554035 l4.39966909450916,-5.551702926865085 -7.377827754965838,-27.416944279020985 l-3.9904293118569365,-6.190317078215833 3.6193655103876874,-4.199232525233289 l3.086268968471179,-16.65853281636134 -5.715756863849177,-7.887110200263406 m-15.887737148210057,-2.915259720496839 l4.053571707355872,1.913208444189546 9.510321953703382,-5.132463462532251 l-1.225829034072236,1.4880302149488116 -3.4032062404069667,5.412289520368538 l-0.2997489331420062,5.238489256091545 8.344195555401864,4.937201261581886 l12.371758936641115,0.8689894101681039 0.9867256955127702,-4.452901386346303 m-14.593488919934982,-65.64019290824315 l-0.5606743712023072,1.4634848222978194 2.2164678031425624,4.989288546269692 l0.7317286808808267,7.2054769312276745 4.842777148840975,5.147184960836207 l7.57595038707637,-2.8605255861352563 -1.8153623076061205,-3.722264333699371 l0.9531324103152962,-1.9127958412068027 -6.939202806929294,0.9858782237041643 l2.766023238905993,6.1590725954440035 8.574542199048222,1.3868563350111813 l0.3737926439426968,-1.7185072936936612 7.503864082351385,-1.2046684368761662 l-0.7156525213061162,8.431901939619587 " fill="none" stroke="black" stroke-width="1" /></svg>