<?xml version="1.0" encoding="utf-8" ?>
<svg baseProfile="full" height="240.925285638923" version="1.1" width="157.8446642551404" xmlns="http://www.w3.org/2000/svg" xmlns:ev="http://www.w3.org/2001/xml-events" xmlns:xlink="http://www.w3.org/1999/xlink"><defs /><rect fill="white" height="240.925285638923" width="157.8446642551404" x="0" y="0" /><path d="M25,215.925285638923 m0.0,0.0 m3.9819744170921165,-42.784037391231216 m24.826968850228205,-23.494426954381893 l11.951746629130495,-4.400506711712343 6.844475672784895,-19.694827474810097 l10.846043898367805,-7.452397459439375 10.168151863502894,3.2051124867982725 l3.370724375392852,8.993915590238192 1.8991792910231602,8.765446624744325 l1.165634979813361,8.040579900251705 m-17.550165967203935,-22.635835712235135 l-2.526588285424398,-15.872858853834426 -5.363377043185001,-13.32020834435097 l1.774461082971776,-9.426415502083325 10.518279601945682,-5.376225753683001 l2.2970389397588358,-13.117628725193654 2.5895650573936435,-2.8393853221046372 l-2.2682994548526216,-34.705398548235124 -11.861814269118712,-4.810187487660276 m1.9665951823805772,6.642664284572266 l-5.879122995477567,10.283509176556377 -3.992983232686691,-1.6197675127261724 l-8.03060450095095,1.9162187792484302 8.468121400389522,-0.4670085548145164 l10.015550282129777,-0.00038376343112683786 14.341196558058774,-7.2021426282717975 l9.3435523971583,24.24263590339895 6.312987675562308,7.873733980067961 l5.409551408882312,10.895340736948313 -0.6408455396753265,8.320682193229803 l4.413560603200623,8.899986177132572 6.816359072615157,11.04068900087061 l6.406726431544662,4.00059715145064 0.23001987238787325,3.301979695902084 l-13.824030274503667,-3.8477071872091737 -18.073299068577438,-3.8335365515213895 l-2.7322695064001477,-0.35032504314526147 -10.747833262516298,1.130196539823266 l-11.152288853918805,-1.1061743838663463 " fill="none" stroke="black" stroke-width="1" /></svg>