<?xml version="1.0" encoding="utf-8" ?>
<svg baseProfile="full" height="164.16875529943866" version="1.1" width="115.60416785663598" xmlns="http://www.w3.org/2000/svg" xmlns:ev="http://www.w3.org/2001/xml-events" xmlns:xlink="http://www.w3.org/1999/xlink"><defs /><rect fill="white" height="164.16875529943866" width="115.60416785663598" x="0" y="0" /><path d="M90.60416785663598,25 m0.0,0.0 m-56.101448913233284,46.38586376154249 l-8.024228245807477,-6.09042601769449 -1.4784906975952217,8.423983270512974 l11.438879511744036,0.05322562824760402 4.208690361952819,9.351155639123222 l4.134353415784638,8.173875408009817 -1.2238203401210368,6.369283265103694 l-0.15677467945866108,8.27895617969217 -3.455209347615432,6.999380709550274 l4.544920126730277,7.590212452536442 5.33523403090709,-8.524566583722413 l2.676521718377404,-5.338300823399917 13.089126119654045,-4.624568799185805 l6.232511143297284,0.4935805979267747 0.2897296875539815,3.524605195531148 l-3.4409609146022513,5.165227580783272 0.4473899322354881,6.792366214112959 l3.509849872403157,8.751733251513235 7.980793369034984,3.643172230448031 l2.4762050820638444,-3.6137533106429043 -8.995055116854488,-6.495360151201034 m-21.899755486064098,14.48086784378245 l-0.22126565893070166,4.378241756868663 -14.18475016980953,-48.229698395793505 l5.120267075695406,-11.543432694541691 6.563617081531108,-4.920642385680805 l-4.930406850520381,5.907220383915398 -1.140326396740401,7.2880824754310485 l13.676382074065772,1.6019367794461654 -14.51353362478724,0.3221978991912533 l-11.941594926423361,-3.049529970905702 2.751350699127196,-11.860058272168894 " fill="none" stroke="black" stroke-width="1" /></svg>