<?xml version="1.0" encoding="utf-8" ?>
<svg baseProfile="full" height="208.31767324141967" version="1.1" width="126.98948633135988" xmlns="http://www.w3.org/2000/svg" xmlns:ev="http://www.w3.org/2001/xml-events" xmlns:xlink="http://www.w3.org/1999/xlink"><defs /><rect fill="white" height="208.31767324141967" width="126.98948633135988" x="0" y="0" /><path d="M101.98948633135988,183.31767324141967 m0.0,0.0 m-32.703569278149246,-31.2842915329555 l4.983564690719409,-10.172918628040724 -5.027164898313116,-15.540097719528973 l-10.3987992579096,4.263307430721101 -12.785362373741798,15.167510738039988 l-9.365024243344854,-13.603288547459815 -0.18589066004887816,-4.411196531173503 l7.354305990898388,-22.440934959253003 -11.078065836480366,-0.39840772142437864 l-5.305503336520323,-0.7788395565581421 3.039945761274191,-4.858273283561993 l15.05869964908971,-3.301269236709604 7.714744356125355,3.855332699091203 l-0.30249299787346184,3.913691531715473 -5.649040646166554,3.909780643617473 l1.8971838185393541,6.035153288138644 8.085428425017565,6.202497957756415 l1.9280260139760936,-6.351315008158765 -5.520675837786207,-5.399114373182827 m-1.7850850109359628,-26.73984929285116 l-3.1923996793500558,-5.532814007816623 -1.6869471464870778,-3.894699623731601 l11.156757325744527,-7.708915615980563 3.4110612676342864,-4.335383221021811 l-12.236580084197023,-1.4694318761017566 -8.504603772764892,4.14118971280424 l-1.411662342254927,9.842615970626502 4.748811406478201,-3.181191766018674 l-7.880596916045259,-12.615505963150483 -0.7687428513016759,-5.195270838657635 l-2.8928158248600733,-5.292749670683074 -3.968164951655747,-2.0727622887002863 l-3.7188270906698726,3.168855090275951 1.4040250915611179,0.8918397984640793 m20.932885662652176,-13.693134251395819 l6.125581414858608,-9.437792588554014 -1.9473921372502851,9.67032816785746 l2.5183803766918933,5.431972456889744 0.48420860851834185,11.59205812458404 l2.7923271602578446,4.909208542326716 -3.1384689753535353,-1.9887206964035702 l2.744084488280727,7.994351205542625 " fill="none" stroke="black" stroke-width="1" /></svg>