<?xml version="1.0" encoding="utf-8" ?>
<svg baseProfile="full" height="202.8418493764694" version="1.1" width="146.09779641024662" xmlns="http://www.w3.org/2000/svg" xmlns:ev="http://www.w3.org/2001/xml-events" xmlns:xlink="http://www.w3.org/1999/xlink"><defs /><rect fill="white" height="202.8418493764694" width="146.09779641024662" x="0" y="0" /><path d="M42.36693454305686,160.80884253650197 m0.0,0.0 m-3.1819531998235733,11.88554014567659 m-14.18498134323328,5.147466694290852 l12.48585915240679,-55.48211882262559 -1.4890572545609155,-2.2234192550770193 l37.27778897476713,-20.433370633498722 23.598511541134435,-19.099721296631543 l-2.558867890308199,-21.63179296900195 m5.1554983363740225,-33.97142639963461 l7.3053935323606,4.7089038761398525 9.185657752599957,3.179162953358913 l1.1996906945029673,3.1407888973241396 -1.2096348869082698,1.9901182213603519 l3.6841151387465207,8.773441040114959 1.462841319131604,6.2677436192795675 l-10.468434138565241,4.5974334804878065 -3.0095360945643588,2.7797581354316248 l1.8276354386058125,9.571926891635995 -11.183220062007843,17.523780498003052 l-14.10857316270873,9.94283501389647 -3.935804767973933,25.28427934787516 l-15.4733922110193,12.765564550835242 11.3089646282461,10.306417077069396 l8.98403678706861,-6.033445786630551 8.979307217552247,-1.611971664412547 l-7.744220333017573,1.9108752342040274 -4.174054589202415,-9.067457407774715 l2.141943043717284,-4.995402542330932 9.805151116312075,-12.214541373391782 l23.06578449939586,-24.622069607641368 -11.408527627101149,-3.072164485393317 l-5.043160072474667,6.849672263053896 -5.507359454710092,23.32499188106369 l-4.706619713465273,3.6531074718183323 5.707102837098641,15.634726400902967 l1.6622648446233979,-0.3516215061410455 " fill="none" stroke="black" stroke-width="1" /></svg>