<?xml version="1.0" encoding="utf-8" ?>
<svg baseProfile="full" height="109.09261233087757" version="1.1" width="170.71312529567788" xmlns="http://www.w3.org/2000/svg" xmlns:ev="http://www.w3.org/2001/xml-events" xmlns:xlink="http://www.w3.org/1999/xlink"><defs /><rect fill="white" height="109.09261233087757" width="170.71312529567788" x="0" y="0" /><path d="M28.03837158702178,51.4723977418266 m0.0,0.0 m5.791998918527139,-1.4603578700245057 l14.477538470818537,-25.01203987180209 2.83790647571636,2.1899292545764943 l2.3006138557843903,10.914903994121854 -15.068137288955187,3.967927604246105 l5.104849530975849,13.54895369015471 7.446582189543338,5.650559343428264 l12.693706360962347,3.9704324505657254 3.0224502735965055,10.849189497663527 l4.271952046047943,8.000716496120894 -1.8008056664093741,-4.078960031123884 m-16.12714660243562,-24.257809478378174 l-0.111052661767366,-1.158519983239532 -2.272282803524148,-1.6321015831561698 l-0.04993446181958017,-9.465339006591861 -8.133387913423876,-10.309065652446833 l-1.521439679451703,-1.9911464066215683 -6.160854231186415,-3.1014428903820854 l-9.740928400020916,-2.813835643798004 6.257216707360318,8.440666072328984 l9.388894624922248,-5.04640529658842 -3.9720233241407343,6.342833322298378 l3.4209231083419622,-4.2456758689007374 19.3042197263504,16.571390757152404 l2.7151038608533233,10.984733890149052 11.948500981674698,-2.1824618677103635 l8.474527546610622,3.6356296410816977 21.970176407971458,3.973605502175611 m12.29591461032364,-8.144043603594628 l2.2173361654705883,-0.9451332996456455 5.8839723353393785,-6.641756634190817 l5.565522236700127,-6.873880983511262 6.054863527017733,-6.743799616055584 l0.8039637135231231,-1.5638002506401998 8.384013067359005,-1.4204942215595058 " fill="none" stroke="black" stroke-width="1" /></svg>