<?xml version="1.0" encoding="utf-8" ?>
<svg baseProfile="full" height="116.54478973602849" version="1.1" width="126.20284883429503" xmlns="http://www.w3.org/2000/svg" xmlns:ev="http://www.w3.org/2001/xml-events" xmlns:xlink="http://www.w3.org/1999/xlink"><defs /><rect fill="white" height="116.54478973602849" width="126.20284883429503" x="0" y="0" /><path d="M54.11639026339909,91.50440852890694 m0.0,0.0 m47.08645857089594,-42.788996682910785 l-4.711300631392895,1.2154728875914673 0.05911556282296976,9.350041200760757 l-1.472859615859667,5.931741551494098 -2.9032316160330716,-2.75090426591039 l-5.295588549657643,-3.6856996157200754 5.798480443909588,-11.224412718067613 l1.6168289611334723,-8.09098519458256 2.222131517052645,-14.460665691561848 l-5.045015197776022,1.477803559237269 0.5003396856376404,7.447981993170527 l-4.005947852960149,13.562841990421925 6.152891297930614,8.005213997181984 l-0.3421615160380734,9.964268057202142 -9.515487845748776,-0.6871903111486111 l-8.890252027848843,2.646963171993897 -10.502255493892777,11.198715929445973 l3.9567437538812635,7.990481118762873 6.8863309358234055,2.552618788850398 l0.5388968212326946,2.3850914409101063 -5.380136394547509,-3.1772485021838515 l-9.014999775343611,-4.4315015606959935 -9.807201278124415,-6.453103819539405 l-7.650447031548335,-4.035857700787619 -13.700571026681516,-16.336426534109417 l3.2620982874397573,-2.233406778542978 -2.8318899901106676,-6.748967963880044 l8.386740561184421,2.663637834476934 3.4235358268207743,9.1962126551913 l-16.32176477951572,17.441946152156802 7.301115228010542,1.7650553745990045 l-8.916987094095125,9.790599920599902 " fill="none" stroke="black" stroke-width="1" /></svg>