<?xml version="1.0" encoding="utf-8" ?>
<svg baseProfile="full" height="125.1074164863609" version="1.1" width="180.0746110621093" xmlns="http://www.w3.org/2000/svg" xmlns:ev="http://www.w3.org/2001/xml-events" xmlns:xlink="http://www.w3.org/1999/xlink"><defs /><rect fill="white" height="125.1074164863609" width="180.0746110621093" x="0" y="0" /><path d="M124.78329954403681,92.27362540629997 m0.0,0.0 m9.013869135015705,3.915125530014909 l5.506695341718397,-7.388413581353836 m6.087936016667857,1.39644881701712 l5.34626436283979,4.940510436339938 4.33654666183076,4.970119878042799 m-29.58358772497722,-74.37801100144767 l2.169379765060823,0.012074872002992738 -2.6137487303861144,4.015250157220631 l-0.8140641643655034,5.225982428786205 3.8848660580285452,6.220972439784656 l6.504676300287589,6.845120331379866 11.541909230675213,8.411055812760504 l4.907064495417124,8.441644251630056 -1.3919290042773573,9.31055788755844 l-3.2814467833852845,5.839281934142374 -9.497845449874433,-0.8642466937625176 l-10.960853251710242,0.24567245951415614 -7.626603268473278,-4.721056358693366 l-3.0461263973254407,-6.913356351370059 -7.307271292404625,-12.31360840434252 m5.083142790038557,36.004088946092466 l-9.09112503976592,0.7888967162472282 -13.141687271587783,-6.564946374047637 l-1.629195695673799,-5.36725095104492 1.142651980787806,-13.50596326558291 l6.138969952961327,-6.436096624198908 11.60485696061047,-3.4493263326602395 l0.723956129035358,3.0957038787345437 3.2285510423192445,1.992095211625764 l2.2889390779337093,0.16383367772538238 1.7796921266381185,7.434907525672495 l-13.79140401058713,11.180260649722884 3.6545575627635594,3.528065549582691 l-7.789894186833883,0.261143038460121 -11.41558380667266,6.159964281548344 l-23.951410060718416,3.926727489565199 -37.79404839564767,-7.772235118219061 l19.261995213343095,-61.92461855074809 " fill="none" stroke="black" stroke-width="1" /></svg>