<?xml version="1.0" encoding="utf-8" ?>
<svg baseProfile="full" height="119.09268076385203" version="1.1" width="110.01699317642434" xmlns="http://www.w3.org/2000/svg" xmlns:ev="http://www.w3.org/2001/xml-events" xmlns:xlink="http://www.w3.org/1999/xlink"><defs /><rect fill="white" height="119.09268076385203" width="110.01699317642434" x="0" y="0" /><path d="M25,89.60826358172483 m0.0,0.0 m3.5593614154795197,-15.045260154790725 l3.248863995891155,-3.146286547121765 -3.8812884399518177,-1.9712882191790582 l3.4082764100564997,3.1217692474796643 -1.1427571263937517,3.238379119004422 l10.978053191304694,-0.8094525402816812 3.468420286432373,-6.709221723594969 l-9.247128683588597,-5.886338492974084 m-8.23274127089448,3.3768456743805797 l-0.7914196116487028,3.142859722735654 9.132694806642993,-4.086514004075355 l5.753260364210853,4.932379904636191 -5.919175958218257,5.114267635284883 l2.1060227935894407,2.9994895203209304 18.422874566935768,5.260249387906901 l4.627458829334665,-3.6075240884507243 -8.385228455395888,-2.8919444503445395 m-4.419070179527453,-9.992732851777763 l6.813638755833736,-1.2130145945281356 2.6046436289743746,17.229647047297263 l1.9050051834407704,6.508571817659406 2.403921388191871,2.5869893529499626 l8.12786960324768,2.3325464195901504 15.377420976857433,-0.9251097347876919 l0.09801670561945365,-6.6006069888273675 m-13.400073065969842,-50.7759262160655 l5.52584574923458,1.2300319111389753 -4.652970881110337,4.229674351401511 l8.142315509159257,-3.3585275881121723 -6.638465808012146,5.839087039267385 l-10.029838803904866,-3.2754261851835036 -6.431172804651555,-8.279207117184063 l-3.957087150318084,-1.1059981949295912 -1.6613122675357899,4.928393618236058 l0.6196126350696474,-10.999065658806071 m-8.01828777846549,14.511896340681396 l1.4852798575462862,7.952026341061013 -3.1717622763528666,-0.5357940238471618 l8.853806285192412,-0.1915565159942974 4.025735182803319,-11.913419456659492 l1.3393668810171537,4.731967699147184 -4.4277420854346765,7.841867422944017 " fill="none" stroke="black" stroke-width="1" /></svg>