<?xml version="1.0" encoding="utf-8" ?>
<svg baseProfile="full" height="140.50359352987098" version="1.1" width="93.86119698578666" xmlns="http://www.w3.org/2000/svg" xmlns:ev="http://www.w3.org/2001/xml-events" xmlns:xlink="http://www.w3.org/1999/xlink"><defs /><rect fill="white" height="140.50359352987098" width="93.86119698578666" x="0" y="0" /><path d="M33.8890563706319,70.262401335862 m0.0,0.0 m-8.8890563706319,-42.25782267912764 l7.935845424408964,8.666479879860416 8.708111997962796,1.5937820232570725 l1.6164141746986318,-4.2523962364378125 9.428986367443214,12.94966528382081 l-1.2277613592633645,-0.008912232021391978 5.109414241677532,5.609086137957018 l4.49161237186857,-6.827912889979923 -15.756023849991944,2.6952240524579594 l-10.906589958906117,14.065904066775712 -6.825812568423737,13.022489864730957 l1.652756410326626,1.1457257272722927 6.248214263775047,0.18526363220594524 l7.911215112789982,-1.0492007653742053 1.8139861147038128,1.5479242960067607 l-7.881239770322823,-2.7561337778860073 -2.8975329769337788,3.6511730743255923 l8.627855843295192,-4.532038246106574 6.209472017845695,-1.9168784788837716 l-4.8203613895743125,-5.0756884654614 m-11.310834512629839,-25.484546065114255 l1.4802987761215858,-5.87967293679933 2.9931700839711626,-7.262969999295947 l-0.05705613095560072,-3.090946602044262 -6.326929186241756,2.2038942850069065 l0.4168698435754112,4.051512527372083 15.81404098492762,4.305116609293275 l1.2417142690410965,17.83713748999501 -2.8007525574592997,-5.128271652162271 l-6.224120246010566,-2.6409256730815875 m17.720099949978067,13.32435695819993 l-0.5070664015902834,3.5863201509793954 -0.3926148361701802,8.149479708389961 l12.375814481849254,2.453367804309522 -2.9737710261909602,42.361605321568746 " fill="none" stroke="black" stroke-width="1" /></svg>