<?xml version="1.0" encoding="utf-8" ?>
<svg baseProfile="full" height="139.28046116842893" version="1.1" width="152.53342111949306" xmlns="http://www.w3.org/2000/svg" xmlns:ev="http://www.w3.org/2001/xml-events" xmlns:xlink="http://www.w3.org/1999/xlink"><defs /><rect fill="white" height="139.28046116842893" width="152.53342111949306" x="0" y="0" /><path d="M127.53342111949306,114.28046116842891 m0.0,0.0 m-20.292457138000454,-1.3186379361011407 m-16.487112670916147,-9.799013744251116 l-19.693334432390795,-5.577235792715374 11.150074345355243,-8.32092335148138 l27.27559803259461,-7.943720645945425 -22.24067147724706,-0.7576814397746356 l-3.777461323983571,-6.546080194875514 -1.9141373177059842,-6.014178184292797 l-9.869488889912471,-1.0296148492209054 -5.986661169340564,-2.910386142347178 l-0.4164341933818516,-2.043118144110891 7.460894671490124,-6.032741802920321 l3.6649294110842665,-11.65874090037188 0.3281290736809256,-5.6060031235922265 l5.63816529389325,-10.279250026863242 -6.621779058091168,15.123365408837136 l3.935841348655376,2.8078279313137293 1.1775711085448761,-2.4100249306984645 l2.8808686001976036,-13.071582237753223 -9.778011162289742,-5.892721061264055 l-9.23027246034859,4.513384534435563 -0.7531067817565829,1.4968273671616217 l-6.130450401719343,14.389757131984275 -20.475346011985938,-0.9055969818204013 l-6.018387965374148,-4.430389217789996 -6.075736522055727,0.912239322238409 l2.054379732854951,9.253932029245972 7.842226650000241,-3.5916108789708323 l-0.312458429081342,0.10599910466032425 -2.899425495621262,-6.87423314220228 l-6.96936648664178,1.6341853227224719 3.2237991835620017,-5.225333517473365 " fill="none" stroke="black" stroke-width="1" /></svg>