<?xml version="1.0" encoding="utf-8" ?>
<svg baseProfile="full" height="266.0703755014557" version="1.1" width="97.53252734903225" xmlns="http://www.w3.org/2000/svg" xmlns:ev="http://www.w3.org/2001/xml-events" xmlns:xlink="http://www.w3.org/1999/xlink"><defs /><rect fill="white" height="266.0703755014557" width="97.53252734903225" x="0" y="0" /><path d="M25,133.5778196627372 m0.0,0.0 m7.778744091485985,-6.019264384468894 l35.89668617362074,8.595584599786509 -5.827692555863401,-38.03070626689118 l-0.935016078119887,-5.398366702494228 -5.34852607333833,-2.859487872188305 l-10.481426208099048,-1.989291631737291 -5.836875751995132,-4.942580080756017 l5.2902236908825016,11.086875047064897 0.8797331279488041,6.973587026538904 l-2.4486760704331987,11.068584280704107 1.1043878732825585,1.1451968792851075 l-3.4953926512118083,16.845711216289462 -13.603357462085976,9.704589020265107 l1.3991324199776256,11.251010232898823 5.979553891119176,29.493254309474334 l3.8097654071183475,-2.095925563219012 14.200531771973006,0.8294714682417159 m0.3985764197049141,39.885897732692264 l-0.9643561662587585,21.94841652723217 -2.4677958223280676,-33.91262055770179 l-3.491095415314023,-6.121469706582398 13.980897011719605,-13.293201493602895 l-2.1693547932745005,0.07994416423497686 -6.412813251560355,-4.499234037740742 l-0.49309592692207027,-7.669160046347919 6.561710167329992,-9.471958785720874 l2.8051882100668206,-4.853019576954199 4.885011005077958,-14.491070223169546 l0.5663255043908753,-14.161247428879756 -3.7329550104739693,-8.46298773922548 l0.4470464097856386,-10.763239912606629 4.588684228724445,-2.102490914625511 l4.668759182101781,7.406476581934118 -14.336187684585452,12.588765197110195 l13.22775983916583,-106.3438610215772 " fill="none" stroke="black" stroke-width="1" /></svg>