<?xml version="1.0" encoding="utf-8" ?>
<svg baseProfile="full" height="117.47165419602597" version="1.1" width="95.6523319494185" xmlns="http://www.w3.org/2000/svg" xmlns:ev="http://www.w3.org/2001/xml-events" xmlns:xlink="http://www.w3.org/1999/xlink"><defs /><rect fill="white" height="117.47165419602597" width="95.6523319494185" x="0" y="0" /><path d="M47.96696859152664,75.66427204849356 m0.0,0.0 m-12.902102470498761,-28.776268378870753 l1.8023342893270606,-7.993990782691349 7.915733857054579,-5.4522332417790675 l8.944279369559148,-8.441779645152385 2.5198903913944095,0.9010396372203474 l-0.19384942479575257,2.5457239594152483 2.5003398529944634,9.962232679940373 l-3.580178418607549,5.7755550832668865 -4.283904013128267,7.030385161354517 l-9.916423795239044,-4.949730800427592 -9.009564588509352,-4.0937207447389685 l-4.9044623337114945,2.677674199047738 -1.8590613073660793,3.8997801718228957 l8.630661357490439,-2.480838772181523 3.4195743945274906,27.9934497622515 l-3.7222223715868386,-2.6192776226191237 5.025097021885794,-0.07283425005401134 l-0.3197896391022606,2.3473742239421136 -1.1483814379930481,-3.515137641700885 l-11.046519055563966,-12.427811175464885 1.092663474392475,-0.9332360120876848 l4.153640536038452,-5.6344289863465535 16.201538744106287,-13.936157300031068 l3.5376910382299145,-9.30250513308637 -8.280059268731595,18.637325339561805 l11.504386993428692,18.097373346011405 10.756488146861397,3.865766137163481 l-8.44031744178133,19.09361353406174 -6.1789649073429604,4.610039399704589 l0.09025719397495226,-0.4743515902375181 14.170355295764178,-2.8809198079954417 l6.206231874820427,-1.0725498813389784 -17.0140342474579,-8.016616653863743 l-5.876596959519277,-5.260695803175921 m-15.529378589257115,-34.44820599729515 " fill="none" stroke="black" stroke-width="1" /></svg>