<?xml version="1.0" encoding="utf-8" ?>
<svg baseProfile="full" height="154.2851522772417" version="1.1" width="80.93776310964017" xmlns="http://www.w3.org/2000/svg" xmlns:ev="http://www.w3.org/2001/xml-events" xmlns:xlink="http://www.w3.org/1999/xlink"><defs /><rect fill="white" height="154.2851522772417" width="80.93776310964017" x="0" y="0" /><path d="M29.442424400325844,69.89489692152412 m0.0,0.0 m5.398251145690631,4.160933269062445 m12.832236890630448,-3.652001852885113 l-15.934029143570827,-38.582684176570595 3.265250346954962,3.5521754054374712 l-2.381499647112189,4.99438405444213 6.554094918735864,13.417565241187894 m-0.9485839350826398,64.4345845302188 l2.1608102598467482,-7.564032302284902 1.6162141144357833,-2.073733164060413 l4.5041524176866625,4.709157670675275 -4.7047095413481115,4.459968129385072 l-0.2601131422871819,4.560434711110886 -8.183397353857366,5.422761724491198 l1.076181978567774,1.5507421155074501 9.773641518329278,-4.005861423081795 l2.409475010498543,-3.6021823935698727 2.6688899122953162,-5.430670744285653 l-3.582556968346109,-1.5652078071709286 -2.161105573149676,3.488796773417553 l4.023000348071611,5.116508786990592 8.369135152324795,1.7624192957946416 m-23.928172633483545,-38.541007063295666 l-3.3384636877319793,-13.774608539286577 -3.6711267884246372,-25.635059729397465 l3.460253280758366,-7.922430987382225 8.424069788661,-3.7303708061320493 l7.154829293029757,-4.152430363619162 3.4343662924378413,-5.630891898803872 l5.321119750579533,-0.6621553774192481 -1.6568926763108172,1.887555773752058 l-7.320527424240387,2.461420565468301 2.989354274366903,6.651135709444054 l4.123301358749182,3.5671011426497903 4.5744661145980325,5.995356852007734 l-18.67638390468035,8.16978778865313 " fill="none" stroke="black" stroke-width="1" /></svg>