<?xml version="1.0" encoding="utf-8" ?>
<svg baseProfile="full" height="202.86383665288832" version="1.1" width="149.21991372132186" xmlns="http://www.w3.org/2000/svg" xmlns:ev="http://www.w3.org/2001/xml-events" xmlns:xlink="http://www.w3.org/1999/xlink"><defs /><rect fill="white" height="202.86383665288832" width="149.21991372132186" x="0" y="0" /><path d="M25,160.17916864160878 m0.0,0.0 m6.567846297136419,-2.900328911237854 l32.3874791691539,20.5849969225174 -16.31129818435676,-60.056851753824716 l5.9278391622731,-0.77640890812132 4.173220926160632,6.151425677819544 l0.8804381785800139,9.876515471242538 -7.041101692050704,10.228112817357887 l-12.912899700080715,-8.349465503160477 -4.493678221078497,-31.525762668692803 l7.997263879806158,-14.412576705608764 5.949369142994647,-5.120208665412105 l1.4940463461697362,-5.807991535000491 -4.945868679031194,1.8977153558853381 l1.628270738800212,-1.888582062868465 3.7477567835073877,-11.49625704663587 l-2.428017564536539,-13.946033869205962 0.3462875692443382,-6.671435536002559 l3.950124984606027,-3.961628132551923 7.032281156277299,0.015496977303329773 l10.497846436912125,-1.1360149545629288 10.900550859497075,7.421499914374072 l10.266846943751009,-8.016449995078316 7.749328308499971,-4.0055816860009985 l-3.5051938586430786,-6.976145672935403 -12.735148839651238,-4.307208171207926 l2.3330056962730072,3.4994483594389147 5.418609051305247,6.428428225165062 l5.670826120871288,7.079930874223804 10.580247582466905,3.189454374920305 l9.222901028068096,1.1676674579781077 5.53832841502185,-3.919223402677653 l1.8142956392232867,8.054696070486637 1.518110044150877,5.523096923838297 l-7.783436586190069,-0.06981286805410325 -12.40255978362717,0.7990193131103301 " fill="none" stroke="black" stroke-width="1" /></svg>