<?xml version="1.0" encoding="utf-8" ?>
<svg baseProfile="full" height="325.01482443593534" version="1.1" width="152.30538772086297" xmlns="http://www.w3.org/2000/svg" xmlns:ev="http://www.w3.org/2001/xml-events" xmlns:xlink="http://www.w3.org/1999/xlink"><defs /><rect fill="white" height="325.01482443593534" width="152.30538772086297" x="0" y="0" /><path d="M33.96534266694726,300.01482443593534 m0.0,0.0 m-8.965342666947258,-42.20391703775172 l25.606994598232966,-98.65221770184955 16.147565636400202,10.96541312783843 l-5.903424345808636,-56.035049531396446 0.3323172922377244,-7.224251899168723 l13.290183644480035,-18.675608590816765 6.744945471801036,2.209163775333004 l8.7127646745419,1.9850350605846205 1.47454397038051,8.298869658560792 l3.071081525235979,7.520392915327286 -4.8000604174933414,8.208494603933858 l0.2830120325090485,1.7305633989888896 -11.936498112644324,3.362632011898956 l8.646723605864167,1.0045716182870856 9.878173168083299,-1.3339422100236404 l7.296535768551157,-0.8284209686157185 5.137201169509998,2.4621677628221517 l8.812599646438718,4.528780343368653 2.987063769902681,0.6861619191819096 l6.523664622639848,-4.423014492047357 -4.407711141465508,2.269441076418015 l-8.165787813801657,-0.5805208560874712 -10.028680586106947,-3.141421963524057 l-2.9340592927773734,-0.6537932640582567 -10.066524147915775,-3.080856650675615 l-9.882769231193125,-6.94534024036694 -1.1021785282400987,-5.06324980066121 l1.6196213577380598,-8.643407176887715 -4.78966137522618,-3.149488611720071 l2.9789399862756976,-11.771702390236607 4.900808204461897,-10.629909751832649 l-6.204513967017313,-9.950451957713135 4.3562809189369345,-10.711322039788133 l-3.4457046210844116,-14.903879803450092 -7.443750477947561,-11.644744769807073 " fill="none" stroke="black" stroke-width="1" /></svg>