<?xml version="1.0" encoding="utf-8" ?>
<svg baseProfile="full" height="143.69490149578334" version="1.1" width="100.39593834689529" xmlns="http://www.w3.org/2000/svg" xmlns:ev="http://www.w3.org/2001/xml-events" xmlns:xlink="http://www.w3.org/1999/xlink"><defs /><rect fill="white" height="143.69490149578334" width="100.39593834689529" x="0" y="0" /><path d="M54.426789753039465,103.37596685090766 m0.0,0.0 m-19.804191381690554,13.744749907564534 l-3.3276783734325646,-5.0108162717064 -6.294919997916344,6.585001009017552 l8.251594636066987,-13.730385086949374 2.158894774482475,-11.407076768537921 l-6.768776276781077,-10.401706607872997 2.6894732500147565,-3.7187339872840806 l9.67524834452061,2.81279838054438 -0.05242571692571196,0.2550745592535236 l-7.16300004953973,-7.635700084160054 -3.0157831088999267,-13.550827840819505 l5.995179159713997,-4.461174374696124 11.823153834041639,23.163835214965857 l4.476063815827138,14.18399237480609 7.502287781097834,12.562287759080936 l6.898487694975769,2.8982883826665873 1.4707515665922166,4.541915747978728 l2.13377828930949,-6.061237846289773 -4.045399268906288,-6.132716812403152 m-35.062110558312405,-54.82741762653552 l3.773122934453819,-9.757736645741618 7.964118293562047,-5.592948279599629 l14.993811772386309,19.06164042586804 0.9489981853080229,9.178259771346907 l1.2163308676501337,7.93887669614606 2.8816557964337295,4.728234442356618 l0.8605428756695951,5.271864900462395 7.475362614039638,1.8545026692043525 l3.3145768401142433,-4.387673182647555 -9.711458476833808,-5.001260092130015 m-17.62842605018086,-11.990413870426872 l-0.7852132271991443,-7.611188916863114 5.932666932540764,-7.336964022019768 l4.939857306132281,-13.068183787670202 -1.2726031618804772,-5.473126987816537 l2.8322838753613055,0.10862173551888621 0.07823413417883031,4.061070709639808 l2.1654159182238546,5.377397398674384 -0.8856715971088243,6.2797775685096155 l1.9957614085610793,3.4271970648800703 1.221796003596667,-16.023102288280356 l-1.864552167247481,3.534669606062969 " fill="none" stroke="black" stroke-width="1" /></svg>