<?xml version="1.0" encoding="utf-8" ?>
<svg baseProfile="full" height="273.20555714338144" version="1.1" width="141.26361987411357" xmlns="http://www.w3.org/2000/svg" xmlns:ev="http://www.w3.org/2001/xml-events" xmlns:xlink="http://www.w3.org/1999/xlink"><defs /><rect fill="white" height="273.20555714338144" width="141.26361987411357" x="0" y="0" /><path d="M25,247.17338644897637 m0.0,0.0 m16.72426077791166,-12.050688624759495 l24.020658798862073,13.082859319164545 -10.109095220291158,-62.57057210592046 l-5.837801260205886,-76.60707181209492 8.719747142100148,5.353644704174447 l2.421877407697708,6.430590774577968 5.593481809764765,9.210377334615542 l5.586412443539131,4.431116477241758 13.819315502326818,-1.0425252316999738 l7.438584250081055,-5.378789792256412 5.374778738829723,-5.222709277953458 l2.519720614294465,-2.528726971589751 -6.2989447120798765,-3.0149609095676575 l-5.651353179472541,0.21103189892170165 -6.296851839715712,6.52331319573237 l-6.0408204103453205,4.467244470953518 -3.488763702864366,4.847155293673484 l-5.235911323886309,-3.4796772209994447 -6.000057472535969,-9.901375827631492 l2.4249510391618667,-6.232944413759191 1.6474692381510776,-11.221457491877741 l-12.138375422874255,-40.190332740665774 0.005064775553897949,5.17674196230742 l-4.034136608703054,2.522978339295233 -3.136202702217097,13.495543901554488 l-12.01538812773184,11.049033911898142 -1.4250735217115955,9.314916471193827 l6.085137139913749,2.526999903525365 2.5502123760665696,-4.788807315726187 l19.92930718687572,-4.821411233369884 2.8317806479398966,0.38814169260921266 l6.195636348540236,-7.375559038353764 11.409976039035762,-4.392453350289254 l5.958518368458188,-8.691072137588728 5.603522474592773,-0.987983066035315 l6.085953860291093,-2.2731300642812755 16.026028398760182,-47.52431801943734 l-9.256507918887367,-0.9085094545579103 " fill="none" stroke="black" stroke-width="1" /></svg>