<?xml version="1.0" encoding="utf-8" ?>
<svg baseProfile="full" height="187.33498934723698" version="1.1" width="196.96578437648287" xmlns="http://www.w3.org/2000/svg" xmlns:ev="http://www.w3.org/2001/xml-events" xmlns:xlink="http://www.w3.org/1999/xlink"><defs /><rect fill="white" height="187.33498934723698" width="196.96578437648287" x="0" y="0" /><path d="M51.698487626644365,146.51301387425175 m0.0,0.0 m-11.074713179083743,11.849119013538893 l27.319908301248013,-54.50153448418112 13.537054691547096,-10.803378695263861 l24.36178375393095,-44.84785253755852 3.2296200136833275,-10.103431935881757 l1.6068304391485915,-5.954151734509124 -4.3510693963657205,-7.151783500396258 l-2.3602833084790187,0.6248120473248747 11.058534075283836,101.18277075473483 l8.970660196056135,4.967964213531855 -1.043446156283131,-3.539304056209478 l-6.305655048925893,-0.6800875134195561 -8.153218485711328,-8.815137033662703 l-2.317203610308222,-9.120983363335272 6.847613463467824,-21.35183238416974 l-3.9696991150364003,37.864012273421764 5.1542588255736295,4.049127652731596 l7.485380967219029,3.0046803268025446 3.1165022125867914,3.2829041692047625 l1.1285146505883297,4.697655759030275 3.4014646701627727,-2.697168709279283 l5.939553132216112,2.6922925841468657 16.437341453168475,2.332177528652101 l6.225989063508639,2.582711099906488 9.428797700186184,16.25839399782505 l4.592777440456272,-7.765874218224593 -9.62910425285302,-10.696961428746194 l-13.688604501643574,-19.794559708970507 -25.71179420061574,-14.188298340846206 l-8.29887797153717,-6.013201972675414 -30.16558694194817,-12.928685312062369 l-7.9653158011403065,-3.9334069998020924 -8.843391012041613,1.8618786399966336 l-4.736259654150372,34.07041167515451 -37.926850040552935,-32.55974048807323 l8.052138327066993,-0.6966174304413608 16.94809593262315,-0.7393678170126544 l2.038989056319506,-30.34870177198277 " fill="none" stroke="black" stroke-width="1" /></svg>