<?xml version="1.0" encoding="utf-8" ?>
<svg baseProfile="full" height="225.3375438722549" version="1.1" width="111.14976901106078" xmlns="http://www.w3.org/2000/svg" xmlns:ev="http://www.w3.org/2001/xml-events" xmlns:xlink="http://www.w3.org/1999/xlink"><defs /><rect fill="white" height="225.3375438722549" width="111.14976901106078" x="0" y="0" /><path d="M29.65527993271919,200.3375438722549 m0.0,0.0 m11.834093185291206,-34.61418281648023 m4.0117272453344155,-16.464458744803203 l8.863887106057502,-4.960812168747581 -3.009943105387498,-5.570819604926066 l2.2496646367073194,-5.859467548265929 2.729597150873202,2.4189439423160533 l-0.46272273315784024,3.5225479905253065 -8.444495299991061,-7.132521585016886 l8.633774597978611,-20.322146633906907 -3.887332531439818,-5.151228181488909 l-6.359781801332858,3.756739285524702 1.5337318829913493,-15.344073959006003 l-12.294489422388933,-13.958017979017017 -9.036104628253868,15.745340127688339 l5.610429772202677,8.494311321255852 -2.494657067678422,5.857677247941462 l-2.1317709311882886,0.738526903338377 -2.0008879893368867,0.8089524497513576 l4.351151298236114,-1.1037749989807455 16.088742335144108,-2.7447028740413164 l0.746882967665353,1.0968079557733468 -0.927164528642829,5.26209652583938 l-3.374209567953852,5.899468623045735 3.3089555391200878,-0.8869481383489808 l-0.41566432068643216,4.503372183471176 4.095357516720567,2.9401315754998256 l25.614718613819498,-3.177838603947849 4.088093672805588,2.037636374327253 l-3.3781969526190934,-3.209017570082253 m2.6080370920551776,-97.9200849714932 l1.7562586173704509,5.625696220699544 6.586806728026034,0.20344400170314664 l-0.6045634228736247,3.607439056917683 -0.6968318350855327,-0.9016919943689872 l-1.986935314791971,-1.3308765988112559 " fill="none" stroke="black" stroke-width="1" /></svg>