<?xml version="1.0" encoding="utf-8" ?>
<svg baseProfile="full" height="194.87442852821843" version="1.1" width="103.62920729343415" xmlns="http://www.w3.org/2000/svg" xmlns:ev="http://www.w3.org/2001/xml-events" xmlns:xlink="http://www.w3.org/1999/xlink"><defs /><rect fill="white" height="194.87442852821843" width="103.62920729343415" x="0" y="0" /><path d="M37.40712791529455,169.87442852821843 m0.0,0.0 m-12.407127915294552,-32.57390753384893 l5.327497323298826,-1.323658525229641 0.9747608610906089,-7.659068761827947 l6.386847233812549,-3.955705326383129 -6.404845717478813,1.9669922477018493 l3.784127403792439,-0.5808887514072464 9.561561903577688,-8.000102625338235 l7.140433286894942,-22.253066953515546 17.32959955264219,-6.614466932357567 l3.288672042783636,-1.0946929172441997 -12.48909051435986,0.386131946510363 l-6.844551687634772,1.5338426694362461 m0.994924354006362,-4.853170687160022 l5.71595638871582,-1.2392145083285466 -0.5842949105192748,-3.1972133679915626 l-6.906756412490976,-5.015743236872595 -11.850724156215119,-3.3963048754726337 l-5.429356779957661,-2.4689883349963027 6.769964143254379,-0.18227748354636641 l13.86419299649741,-6.367751592903987 7.1422703544889785,-9.28026199876484 l-1.6285661733436534,-5.965041449276687 -6.106500506468039,-6.349405186618908 l9.199493926577242,-8.110669922404142 3.2652518864245805,-5.530722539136656 l7.557969261862108,3.255603458375447 3.5703712321825662,2.9050736188383732 l-9.169826636555037,11.583787133313072 -1.7675547502935478,-3.1082571399192536 l-10.407418509783604,-2.7551973407402905 -16.583266583783388,-14.630081611108531 l-9.254897298447347,7.656889829078302 6.265846829582147,-0.13106563647001745 l2.7856498248724324,4.653485612448272 -0.983888067205382,-1.2492222261308286 " fill="none" stroke="black" stroke-width="1" /></svg>