<?xml version="1.0" encoding="utf-8" ?>
<svg baseProfile="full" height="124.23184741654067" version="1.1" width="100.90317424527804" xmlns="http://www.w3.org/2000/svg" xmlns:ev="http://www.w3.org/2001/xml-events" xmlns:xlink="http://www.w3.org/1999/xlink"><defs /><rect fill="white" height="124.23184741654067" width="100.90317424527804" x="0" y="0" /><path d="M26.49466197206991,98.43753172025745 m0.0,0.0 m-1.4946619720699106,-27.02963533968462 m4.606416835538104,-5.350468051512189 l-2.295780339426831,3.6945800386328886 4.271146715076549,2.216505924535167 l0.6943621701170024,2.949796497169333 1.685701844340492,2.7184736585015745 l-0.8069574690564615,4.4167520180059645 -1.63506542117779,6.469310193126734 l7.55231267018329,5.200382576027625 14.63305967214468,-1.6872912393071222 l0.9116720067912384,-4.518083617626808 m-10.247220235015497,-58.38718332127944 l-1.3913979006181854,6.020617673890173 4.729288496021244,4.674788335966136 l-8.67521943052524,0.018541707228170723 -0.6013526725292467,-2.9684573203301783 l4.612004984804126,-1.7339294351921821 -0.3325873603757565,-5.586251926357336 l-6.925380842920048,-3.8345873803187502 m6.5305833987376465,0.9505672319539704 l12.596376029525787,-1.6719599436865644 -2.0395230054438556,4.649216267267965 l6.101202760188258,5.427258361853112 -1.5102013172577162,8.465380742871849 l3.9651406118672563,4.442799148712385 -0.6635616381854903,16.03203641137787 l2.1367835141989224,8.673561042296093 -4.659942594480148,2.1302457388816336 l-0.5875916572267157,4.7260139440216875 14.204315415984418,8.273191436225657 l4.044589003998012,6.40788219075118 -3.2597498704253027,1.8807542398049992 l-4.47694390474975,3.123507892476241 -6.976569334117812,-10.213456048357902 l-3.784673739139579,-10.982756846257352 " fill="none" stroke="black" stroke-width="1" /></svg>