<?xml version="1.0" encoding="utf-8" ?>
<svg baseProfile="full" height="138.76783498862363" version="1.1" width="111.16906964107959" xmlns="http://www.w3.org/2000/svg" xmlns:ev="http://www.w3.org/2001/xml-events" xmlns:xlink="http://www.w3.org/1999/xlink"><defs /><rect fill="white" height="138.76783498862363" width="111.16906964107959" x="0" y="0" /><path d="M86.16906964107959,39.70371681851716 m0.0,0.0 m-11.042027201534905,-14.210307732529866 l-6.525353824671135,-0.4934090859872937 -1.8698913113745457,7.004985616212527 l-7.020553924086352,25.50504592705482 -4.881199375297887,5.030771429893315 l-2.4062153257100616,3.173658093402665 0.5722867028123785,-6.741497685583746 l0.3518479584564911,-5.012410589233045 2.86792812016491,-1.04927157349892 l8.664566214887225,-0.6859827926373547 4.732530963312061,-1.8676209170079405 l5.594944947840133,-2.2676497271414253 -1.0747743239464662,-6.034525127061176 l1.8327388349614122,19.701736292165414 -9.32003246585753,22.60398175433413 l-7.196878059214984,2.8118492560456714 -2.6919976358949254,16.66587733774531 l-2.2137597283366266,4.386389730945057 7.976576002703116,-4.987342651849962 l0.918178214327074,-0.14239164806062013 -12.438284566602396,7.163541360630089 l-4.937135573643908,0.14664334526996337 10.897271038197895,3.362047556998861 l20.873482330931743,-0.8939192811779684 5.32270510062526,-0.6876449702579742 l-14.15526188956257,-6.243500880958674 -5.512974285260248,-3.883371017434153 m-23.302835976693846,-49.0923483095197 l-0.8201919915572167,-5.955279468585117 -9.84222475840022,10.533324884574014 l-4.522533852653457,0.6473190441129391 10.722474122089428,-3.4458304912611983 l2.9508103081288386,-8.296276935116648 -2.3101652773912087,-6.9331282582981375 l-6.32858680906842,-11.636177094217128 " fill="none" stroke="black" stroke-width="1" /></svg>