<?xml version="1.0" encoding="utf-8" ?>
<svg baseProfile="full" height="109.68929886573989" version="1.1" width="159.23164606619792" xmlns="http://www.w3.org/2000/svg" xmlns:ev="http://www.w3.org/2001/xml-events" xmlns:xlink="http://www.w3.org/1999/xlink"><defs /><rect fill="white" height="109.68929886573989" width="159.23164606619792" x="0" y="0" /><path d="M83.29110663620251,73.19961013210539 m0.0,0.0 m3.106476430415408,-15.740326334759946 l2.899479778065005,8.927875446625615 -2.2201405226066333,1.4127404418305867 l28.43498838618786,-18.220732291867424 2.102088374712654,1.5773700058685585 l8.089438809356645,-5.309163334561373 -0.720192001795662,-2.151357672953305 l-8.317738819750891,6.251748638511707 -4.279396962906432,4.454019660039357 l-14.616469497612,14.162218749506119 4.521446813031902,6.3352095058525855 l5.415664119516362,9.773045537785421 3.358888738704141,0.01704038175658451 l-1.3510102459074695,-11.217681798921904 -18.223809596270964,6.008580710987973 l-4.064613992994912,-3.0065841075073276 -5.914049826150611,-7.992586697647548 m11.614308610864557,-33.264567411858984 l-2.8287297814271284,1.8045315213424296 9.58460621159988,-2.7260054636865476 l8.738626290914798,7.931217783175198 3.169442951905198,5.840741600224592 l1.841225013423778,4.539111294784679 -1.5111318023690108,3.7060217532320805 l3.250187761000045,7.3797971771165765 2.463151467523593,5.3537845840137965 l9.228160161620687,5.731106927883367 7.169642560944612,1.5780035586184407 l-2.4821582359058474,-4.995367142840757 m-49.453789994764975,-13.157980455507623 l-5.2300242818028595,-3.611944236179683 6.385509355395651,-5.285440225767633 l-8.892300392840857,8.99227497359969 -8.345231500735206,3.3333123431810883 l-5.916173070396861,0.5162115449137356 -9.43577670132553,1.1063387493386223 l-8.395960722745173,-17.800666062404154 -3.6983926113398424,-8.84937726355572 l-2.258189814278766,-2.412595983512944 -0.42049802235405664,-6.239451116923341 l-4.805237914827885,-2.9500854218379744 -6.283422158275701,5.875944642607213 " fill="none" stroke="black" stroke-width="1" /></svg>