<?xml version="1.0" encoding="utf-8" ?>
<svg baseProfile="full" height="238.6109889571069" version="1.1" width="108.67692562223596" xmlns="http://www.w3.org/2000/svg" xmlns:ev="http://www.w3.org/2001/xml-events" xmlns:xlink="http://www.w3.org/1999/xlink"><defs /><rect fill="white" height="238.6109889571069" width="108.67692562223596" x="0" y="0" /><path d="M61.53746705943392,197.9403516179117 m0.0,0.0 m-15.505697781397783,15.670637339195222 l0.4432460410037453,-44.86094163049204 -21.2391809534689,-45.59384201267207 l28.1030621790205,-22.122893199428095 5.950683143597867,-0.9394952418412763 l6.772429689243009,1.9137306002770285 6.741140817787559,4.804050534505711 l10.87377542701604,1.1762658804157602 m-39.26669734587682,-82.98786388787192 l0.8829040560480939,7.836760740973712 2.0767683878651044,1.5254713175451151 l5.810121819599125,2.2853691837496064 6.496300569464798,8.46222013081445 l-0.0029142188838613553,5.9272218734109146 10.258854833511762,5.6973319873695845 l1.4591243226570054,8.01973896945304 -2.4374760335912655,5.810838074236668 l-0.006563061306573692,-3.3467230545654933 2.9814105189691373,-3.5504253651051885 l0.6010936137633394,-5.43715147539735 -4.8250623375009605,-2.9226003155292437 l-10.981916227188579,2.419707487868333 -9.510205914494575,-5.608457155025306 l-2.256852063190607,-8.975727776290906 -2.943181308857846,-6.319086308014521 l-1.8281387965981455,10.405330390502167 -2.9443660962485456,13.068657351705374 l-4.37490245051632,8.347114490545883 -0.7964179865953891,7.5062568066438295 l5.073447385604251,12.076607503235032 -3.322426636672493,10.010611946201443 l1.0576454257610757,12.803063299430612 -9.877476077957674,15.316786950298457 l3.1955250764856467,-0.38433566405622455 7.2786444319420855,1.4415219095020209 l11.657873812717877,1.387362213790394 9.12505171595153,0.7303341375441509 l9.86058340977288,-12.384019763563012 " fill="none" stroke="black" stroke-width="1" /></svg>