<?xml version="1.0" encoding="utf-8" ?>
<svg baseProfile="full" height="211.40386438013155" version="1.1" width="156.89184146852716" xmlns="http://www.w3.org/2000/svg" xmlns:ev="http://www.w3.org/2001/xml-events" xmlns:xlink="http://www.w3.org/1999/xlink"><defs /><rect fill="white" height="211.40386438013155" width="156.89184146852716" x="0" y="0" /><path d="M25,61.54177972662859 m0.0,0.0 m20.068287440589597,-12.369146346756047 m-9.996692663759909,-1.0060955916315617 l21.210507892864022,47.42205766551341 -8.740672811076431,-21.205999175953007 l24.37822885390599,-49.382596277801376 -1.2901976028505868,9.819851434143278 l-2.0557692899696143,2.5080559418868775 -6.519201495855563,6.697988559201066 m-34.2465486793375,0.43889126299183734 l15.435503992992343,3.960493324074074 11.560743456375484,-0.9081648335877004 l1.6571421550905812,4.064117044842119 4.025681730604382,5.6450448630248395 l10.557097900922392,4.898431759538069 -1.2255652964264108,11.124168501518845 l3.97594728557202,8.08585610559227 0.7633918012510617,9.38470970237217 l1.2204512708570219,4.7659628641227085 1.4301752097291627,0.8814371551167688 m-2.2336060755583067,32.14064941373093 l7.62629633308318,5.730466826322718 11.829799530789899,5.0109422158926265 l13.82414277297539,3.8304650678991337 10.169777938408394,16.912371733643237 l4.617375609857272,15.775207897517163 5.226655899785739,5.300174103906062 l-4.15962988210561,2.6275099019503867 -3.3249592229379044,2.7092335344320664 l1.0282255819237796,-4.157357783748504 3.8388924044126576,-7.1562308176042055 l6.240359426414599,-12.58096043695006 -5.233697599750995,-1.0337360568974119 l-20.01971410074733,3.256725917766071 -17.367042990414763,-4.316294012940295 l-12.52734671914177,22.106484336656006 " fill="none" stroke="black" stroke-width="1" /></svg>