<?xml version="1.0" encoding="utf-8" ?>
<svg baseProfile="full" height="632.3614171645746" version="1.1" width="203.44447097154577" xmlns="http://www.w3.org/2000/svg" xmlns:ev="http://www.w3.org/2001/xml-events" xmlns:xlink="http://www.w3.org/1999/xlink"><defs /><rect fill="white" height="632.3614171645746" width="203.44447097154577" x="0" y="0" /><path d="M26.17788904698769,607.3614171645746 m0.0,0.0 m12.34833562439781,-1.350803176012169 l18.950918577718888,-28.57748259300001 -30.037163648387317,-153.46105414313823 l5.846864774155605,-16.77991023670307 -8.286844374872679,1.021632672443078 l53.81677782946431,-74.63726147945232 29.470826645107753,-36.913920734001216 l10.311679968423466,-66.48434352552427 20.799669452776204,-46.55945582444926 l-1.43911657197375,-33.149807074776966 -0.7200507901296793,-0.7269033672269143 l7.420852778751057,-11.778419188537205 2.4563923889092076,-1.8023719618492258 l5.98202851533177,2.3394935717599767 3.6339617324216666,2.574099405362871 l3.1053365190204016,5.300319713563016 -0.6713528726453929,6.946317748841997 l-6.093458557336029,7.819702691967831 -3.828714710109927,5.914086939052727 l-0.5726245951520981,5.3013708271563305 m-13.823293924693367,-28.064554314985468 l0.6340034258665844,-7.119657079771888 -3.6067088458496914,-8.732920905565512 l-1.1268940199540907,-12.664679077505934 9.02465606126639,-9.410945489098312 l9.797856324151857,-8.49603403754092 6.904640753898865,-7.5348816182860086 l1.27798895940186,-7.681376698661053 -1.9899581945380844,-5.075382688513087 l-11.586760086482757,-6.833756696711029 -9.248554892984194,-4.899492729925807 l-7.608282443705668,-6.823380200993971 -0.5645802931871126,-14.853777717234436 l11.651444514809537,-12.156080345572637 15.866387339005161,-5.527905823497285 l10.313517752158518,-1.4818820061883489 7.942858354261625,0.6935668854152632 l5.913942455261445,6.321511838827491 " fill="none" stroke="black" stroke-width="1" /></svg>