<?xml version="1.0" encoding="utf-8" ?>
<svg baseProfile="full" height="311.255825293884" version="1.1" width="140.74769694508302" xmlns="http://www.w3.org/2000/svg" xmlns:ev="http://www.w3.org/2001/xml-events" xmlns:xlink="http://www.w3.org/1999/xlink"><defs /><rect fill="white" height="311.255825293884" width="140.74769694508302" x="0" y="0" /><path d="M115.747696945083,248.56000483984135 m0.0,0.0 m-31.567029235137998,37.695820454042675 l-7.736100886207851,-74.10503946792254 3.8687051707228184,-19.095077627449058 l7.972733882169141,-14.38855264441623 3.8554406083624175,-4.262692646001052 l0.23965260241505928,-3.399692293057284 5.306258711327709,-3.7923835071052836 l3.987063198371501,-2.039482540239223 -3.6066544061003625,-1.9965157755476248 l-16.680179285916015,-8.53255143641984 6.532131025563926,8.843730620008747 l3.738274652963274,4.902364657179626 -1.5284814107746552,5.045628458992524 m-43.8453530352299,-87.20755294852334 l1.6996351100243774,-6.710770983791554 6.873663183938497,-2.6644482824267457 l2.511277731319034,-6.654019138785696 3.170030668758841,-10.498728813630288 l-5.765802377982856,-14.146131596471447 -6.145469935628965,-5.411924374781464 l-3.4690635407058736,-0.19472121247941426 -3.4073872674950465,-0.5647118349562302 l2.214714905649695,5.556647572616896 3.1621636619695597,7.017264032374004 l-1.9148877585052082,17.331875555153953 2.9865719946230693,-3.8164446206970637 l-2.1791254560082574,-21.82904139183603 -14.652242595503337,-16.8087051863568 l-1.3193205676062185,-1.8203576697007247 5.043863532917781,-0.01379019761490699 l-8.989955104275227,4.59792234989155 7.550661739927468,2.244189457518811 l6.5118942922145315,11.30436185820479 5.113893899390388,6.314339153383132 l2.422599502523437,6.928183719037901 -16.78108548452004,9.003378574185943 l8.62804037283537,7.147849093518453 -14.548829045473125,14.192944960427553 " fill="none" stroke="black" stroke-width="1" /></svg>