<?xml version="1.0" encoding="utf-8" ?>
<svg baseProfile="full" height="213.11868153853266" version="1.1" width="130.85628036380436" xmlns="http://www.w3.org/2000/svg" xmlns:ev="http://www.w3.org/2001/xml-events" xmlns:xlink="http://www.w3.org/1999/xlink"><defs /><rect fill="white" height="213.11868153853266" width="130.85628036380436" x="0" y="0" /><path d="M39.28719030731638,69.1676612254675 m0.0,0.0 m8.043512263722107,-7.122484748245377 m-1.4283427474256543,50.31566684127104 l-2.750066755486178,-1.5797886662526053 0.598939064538673,-6.927501131028528 l7.1261918496572,-5.885362913038452 4.941403608272363,-1.196245187521298 l0.6111617707150224,1.91130583186135 -2.7964272145804445,-3.6290568708072 l-5.316814004661651,-13.126855635914266 -6.910540862221551,-15.523566969570366 l-16.406207279846267,-9.406314823293203 1.8901935383060553,-31.997456952928584 m32.43974102872663,44.550350350722624 l-5.06746255422237,11.310856226424068 5.673886648926249,20.296560203770007 l11.513660984580897,20.514503108892555 11.62434678608046,13.826241367344435 l3.9187155086791674,13.398922218010432 14.354737450411712,-6.975916944640872 l-13.20385078652341,7.4612082266027135 -0.29508514814541154,11.100808187300384 l-9.284385982036607,15.753594827613306 9.49017972309499,-6.864358115415563 l10.274053907438152,1.8871603603552263 7.527549258487844,3.2464362897802266 l-11.067400155119227,13.612315231773142 0.17999767479293513,-12.868894911524912 m-16.220563704439186,-8.00663707253308 l-13.19837114462254,-2.898656219767946 -6.341756220275061,-5.480398692214729 m35.145235051160846,-44.81476840710308 l-15.977208412209835,4.538312038578899 -2.551587257083221,-3.7036377959319275 l5.59107054955694,-11.133113659921916 4.504176482245287,-17.879627235080793 " fill="none" stroke="black" stroke-width="1" /></svg>