<?xml version="1.0" encoding="utf-8" ?>
<svg baseProfile="full" height="409.52616071420465" version="1.1" width="176.50472469487784" xmlns="http://www.w3.org/2000/svg" xmlns:ev="http://www.w3.org/2001/xml-events" xmlns:xlink="http://www.w3.org/1999/xlink"><defs /><rect fill="white" height="409.52616071420465" width="176.50472469487784" x="0" y="0" /><path d="M25,384.52616071420465 m0.0,0.0 m23.08101996555286,-10.96218747173154 l9.185126495401159,6.271101464343613 3.5784283695041488,-23.691433305506184 l7.142492570213386,-9.828603767067458 0.2213384945543012,-2.35823666079497 l29.08743840111434,-69.72164403182664 16.577081104463637,-26.272787134109006 l15.814958681266043,-33.1675486418513 21.01163719983374,-57.83760667864724 l-4.891712253473053,-30.520100206828857 -7.074938507114239,4.951450886066289 l1.5811304032874507,-12.811422345357494 -2.352217445495169,1.8437675452364393 l3.6451444772914785,5.809414765227002 -2.87548619830046,6.999358318348033 l-6.005639914491977,6.678476850302995 -0.9040288272404998,2.421219433488736 l-2.4283106610503298,1.3762531141965912 -0.5179664587239952,-7.842407898520392 l0.6689727567795852,-12.090477929563338 m-23.643126090179305,15.270598149950985 l5.07664889933807,-9.010621950945483 4.23780015610531,-9.225503618598898 l5.402750431475633,-5.1593063134168835 7.769714719661511,-1.666834743055109 l9.035893350419832,-2.216409723727132 7.050390681125212,0.002744759629960125 l4.427563940380003,0.6262416879906529 2.602619953179177,4.26509374055313 l-2.131772032031082,6.606872314972501 -2.634535960877895,6.294004784885307 m-25.195779760620816,-104.55962610784906 l-3.6707274300113313,8.554105877990215 0.3735039611492136,5.309830423164364 l1.1646324523552327,5.79535900718491 5.3416110271161825,3.7593128790847494 l5.029918630970902,4.050246810051499 2.0646926437767545,6.422782979892761 " fill="none" stroke="black" stroke-width="1" /></svg>