<?xml version="1.0" encoding="utf-8" ?>
<svg baseProfile="full" height="202.55854776993985" version="1.1" width="186.52525206594646" xmlns="http://www.w3.org/2000/svg" xmlns:ev="http://www.w3.org/2001/xml-events" xmlns:xlink="http://www.w3.org/1999/xlink"><defs /><rect fill="white" height="202.55854776993985" width="186.52525206594646" x="0" y="0" /><path d="M114.95614729166547,177.55854776993985 m0.0,0.0 m-0.0497662951911404,-93.59587773635263 l35.31017689158596,-22.17382592626731 -2.5076181284602432,-9.17556826682803 l0.9794862728135886,6.505682488035848 4.544787591977751,2.836624127027918 l-2.5720436862045974,7.293865579769904 -4.01704706699914,7.7256985721264035 m-20.769851137073143,-20.599076097569043 l-5.282688852145356,-5.624974054351602 -5.318342893753477,-1.436063573223764 l-3.50580850980734,-4.784168597179597 6.117787109244329,-0.2836183237771482 l-1.204942349564836,-5.970090809167987 1.7716623418861832,-4.677108844080991 l22.73740914650416,-6.284584508730973 13.005116140660324,-2.315461799370809 l4.912639633855185,8.410085835270618 2.41814856495278,4.158574865653789 m-50.23214626971737,3.562812389479335 l-4.279811928049269,4.141517079473131 6.865932197634916,5.83806148297189 l7.493731260919086,3.1396472222889917 3.3214550691299793,2.9234885847832808 l10.663739084466739,3.0248496649767174 1.4630010180496222,-0.41717992610651106 l3.001603373711048,-2.822712242535909 -2.466314150446339,-8.571895888843683 l-5.208473625070372,-2.7874577391127375 -5.286616128837232,-4.824713389438651 l-8.502140701959352,2.818616023192798 -19.870891722653877,-2.1438152251257674 l-11.359013253101367,-1.2896198341828735 -11.817882586881998,0.6336248158072055 l-14.170121913936526,1.833241194927841 -8.775760093984944,6.952537386881322 l-22.934792353189632,-0.651555792955012 -4.430749342029576,33.95468460851992 m42.05585784937709,-5.528997021415501 " fill="none" stroke="black" stroke-width="1" /></svg>