<?xml version="1.0" encoding="utf-8" ?>
<svg baseProfile="full" height="149.34879942778278" version="1.1" width="129.76978645221226" xmlns="http://www.w3.org/2000/svg" xmlns:ev="http://www.w3.org/2001/xml-events" xmlns:xlink="http://www.w3.org/1999/xlink"><defs /><rect fill="white" height="149.34879942778278" width="129.76978645221226" x="0" y="0" /><path d="M91.07456028529879,52.13772498877482 m0.0,0.0 m-9.677393939992506,-27.137724988774824 l3.717385266912163,1.0726034289249808 9.3795314852538,19.439254773412046 l-1.1273868746934959,5.344152964046611 -0.05499009743746591,7.089393492176985 l-3.5686424331840363,9.34238628609131 5.69978970115091,13.402895204129145 l8.738471268654013,7.17435330992162 0.5884617902501007,1.4313767146604983 m-44.78872300193904,7.9094453136863025 l-3.52826438143496,1.6050042745579431 -7.17970941907697,10.284438626899297 l5.5175277689561675,3.880198868869731 -0.4094690148231557,-2.150269516761812 m-5.975598086454911,-50.21393878028526 l3.6287908856553184,-1.9234422338783763 10.749621162121171,0.18494172012872864 l1.0512206699407893,13.99058682989883 4.776370493072322,5.976841360704761 l-6.388067069024743,20.35615734636333 -1.8572016329347178,2.729296429624568 l14.580807600062979,-1.275529195885298 4.139830043162777,-2.5248701859042852 l-6.529976252544098,-5.413419482374094 -6.770479845081983,-0.5355659207868522 l-1.847484793179575,8.527130707251041 6.363841472024094,5.86215837107224 l-6.290102123860211,6.631475896331943 -11.564410631118688,1.3280843775410578 l-0.09576272160136422,2.6906544060287483 21.495381815205814,4.497854159260208 l0.478231134060587,2.105658783235538 -10.502558619044573,0.5294910988412815 m-36.9053847467088,-31.29270040426656 l-1.9182171576464917,-8.065659231331233 1.9230967500238112,-8.12821830617069 l4.149320601592077,-6.705687275886218 6.737276913151625,-4.863232388531468 l8.330451773852767,8.364100534415856 2.027583775587528,-14.056090912149665 l-13.412488428956552,22.65263151429008 3.743079335870011,3.759897042275603 " fill="none" stroke="black" stroke-width="1" /></svg>