<?xml version="1.0" encoding="utf-8" ?>
<svg baseProfile="full" height="96.45234846014243" version="1.1" width="111.92872702212222" xmlns="http://www.w3.org/2000/svg" xmlns:ev="http://www.w3.org/2001/xml-events" xmlns:xlink="http://www.w3.org/1999/xlink"><defs /><rect fill="white" height="96.45234846014243" width="111.92872702212222" x="0" y="0" /><path d="M43.29059007871717,71.22821926000977 m0.0,0.0 m-14.897662041994995,0.2241292001326678 l-3.392928036722176,-2.8412436819521623 m20.225076864384768,-12.867355298150358 l6.181335761046946,1.2688909862332158 -1.7787674454852394,0.9503747848035021 l-12.612776291602104,0.6990593545452901 -3.0844441350638485,1.0396648429922262 l7.1213327715445205,4.846095801666602 15.398592916139261,-1.2054611322192066 l-0.5694526697248187,-5.528746061230071 m-5.410587507141417,-10.785827512327653 l0.2586320024549823,-8.827657870541776 1.470088381074478,-5.562031770872113 l2.028170602646367,2.173247801854378 0.40981851985505385,3.974582189903556 l1.7839378336493494,5.459580324068361 -2.2395018508480407,5.528685822716201 l3.915041510035903,3.266318416459882 12.080719376784405,0.5800903006856705 l-0.5121770205804296,-5.7106672191439305 m2.007411798861738,-19.051046647144638 l3.6089399761539984,-1.82363486013698 8.836051077225642,7.319070393264699 l0.9244573881643536,3.752468808322774 -3.3437669380779957,9.366245574693718 l-5.344731050754851,6.758766675388956 -2.429471691525234,-6.581496214899782 l-3.7537802324215335,-0.5327612427522516 3.6031452763511593,-9.217451056953246 l12.286789971294324,-10.78492429396127 0.8686418276804692,-1.4267586382814879 l-3.732269711163786,-0.6884270371745577 -2.9500276648505923,3.1898306839636645 l0.6323575833432621,5.1474342311793375 -0.16516852700523943,-7.052310160390318 " fill="none" stroke="black" stroke-width="1" /></svg>