<?xml version="1.0" encoding="utf-8" ?>
<svg baseProfile="full" height="98.68029516373916" version="1.1" width="111.47246552979374" xmlns="http://www.w3.org/2000/svg" xmlns:ev="http://www.w3.org/2001/xml-events" xmlns:xlink="http://www.w3.org/1999/xlink"><defs /><rect fill="white" height="98.68029516373916" width="111.47246552979374" x="0" y="0" /><path d="M80.06203773600761,46.07782891413183 m0.0,0.0 m5.015766236274192,-2.6308000851768742 l-9.326843801038528,17.858336526954666 5.928995453466368,9.62641762977696 l4.792509905084091,2.687061783265474 -9.840561485448015,-2.485338007493952 l-2.1601055128741535,-7.476096554692668 -1.3214180231143373,-4.874862802559618 l-3.8846040239853306,5.127539347298578 10.798401827198193,-1.5149928985485228 l4.123719890926763,-4.632974155821219 -3.9376690617888954,-5.4025033265410976 l-6.250332983820603,-0.14110696510826712 -7.588264501486703,11.524026678610241 l1.4843876181476383,5.181768900116486 -5.671838986085585,4.755990179527143 l-9.116814798869754,-3.0621589172016996 m-23.583283276421287,-10.305807495031436 l-1.4403437309551126,-2.1418614922931933 -2.4847326483558123,6.428275303617916 l6.689392734234301,3.3984286354012965 1.489759154315089,-2.261913771583193 l-6.442337057998748,-6.549122419845195 m8.470379546818307,-23.35166794802954 l-3.5991460035249743,6.515937356388643 6.152753702176922,-1.8153699944534278 l15.117430466701784,-10.484859630551217 -2.851361500608408,5.645480532129441 l5.955900154289507,6.6302669680442445 -3.362031256934437,6.528217073217892 l-19.831484213204735,0.22847113929485394 -3.3861964359152923,-6.625461773353658 l0.363128961545427,-5.063231574651574 -3.029456790538604,-10.439330100949102 l1.0947227168143396,-1.9545870538902124 -3.430460011031219,7.4375696007409875 " fill="none" stroke="black" stroke-width="1" /></svg>