<?xml version="1.0" encoding="utf-8"?>
<!-- Generator: Adobe Illustrator 24.0.0, SVG Export Plug-In . SVG Version: 6.00 Build 0)  -->
<svg version="1.1" id="Layer_1" xmlns:ev="http://www.w3.org/2001/xml-events"
	 xmlns="http://www.w3.org/2000/svg" xmlns:xlink="http://www.w3.org/1999/xlink" x="0px" y="0px" viewBox="0 0 167.8 173.6"
	 style="enable-background:new 0 0 167.8 173.6;" xml:space="preserve">
<style type="text/css">
	.st0{fill:none;stroke:#000000;}
</style>
<path class="st0" d="M154.5,158.8c0-7.2,10.5-24.3,4.6-28.4c-5.5-3.9-16.8,13.2-23.5,13.2c-12.8,0-37.6-14-44.6-24.7
	c-9-13.9-7.9-49.5-6.1-65.9c0.6-5.4,6.3-15.3,6.7-20.7c0.3-4,0.4-13.4-2.9-15.7c-3.6-2.5-15.6-1.1-17.1,3c-1.4,3.6,7.7,8.8,9.8,12.1
	c3.2,5,7.7,16.1,10.3,21.4c1.2,2.4,5.3,7.1,4.8,9.7c-0.9,4.4-9.2,11-13.6,11.7c-4.4,0.7-12.7-4.6-16.5-6.9
	c-4.3-2.6-11.5-9.8-15.3-13c-1.9-1.6-5.8-7.8-7.6-6.1c-1.7,1.7,5.8,5.2,5.9,7.6C49.4,61.9,37.4,69.4,36,75
	c-1.5,5.7,3.8,17.6,2.7,23.4c-0.5,2.7-3.5,7.6-5.2,9.7c-1.7,2.1-6.4,4.9-8.2,6.9c-1.3,1.4-3.3,4.7-4.2,6.3c-0.9,1.6-1.2,6.9-2.9,6.5
	c-6.4-1.2-1.6-26-1.6-26"/>
</svg>
