<?xml version="1.0" encoding="utf-8" ?>
<svg baseProfile="full" height="156.2564076343147" version="1.1" width="116.39180663063465" xmlns="http://www.w3.org/2000/svg" xmlns:ev="http://www.w3.org/2001/xml-events" xmlns:xlink="http://www.w3.org/1999/xlink"><defs /><rect fill="white" height="156.2564076343147" width="116.39180663063465" x="0" y="0" /><path d="M91.39180663063465,113.13717333363887 m0.0,0.0 m-46.55675030914967,-44.929835031363275 l5.2406972323928445,0.2646334733972236 -4.960439386939282,23.57037868397792 l4.849959059224163,4.943096124393594 4.470555562575624,3.4894950159268934 l3.639946304253693,2.801791450351562 m4.489022360631793,-37.166115675272586 l-6.846358930477587,-8.078738968861945 -0.3685937566457706,-10.089620752844933 l4.80529241450838,-11.365415654075179 1.071001572777457,3.1864065666772055 l-0.7414356650845444,30.401334386071714 -4.112154903716077,13.13717477784258 l-8.895085749387887,-2.556291641535604 -3.9831319201377755,-10.329211833757824 l-6.33949773213923,0.31659835171549466 -2.253047395760547,9.40620255952912 l2.5709110625790133,7.069997593823841 6.188348484414344,-1.351126727243556 l-7.518174466842569,14.011780631584298 7.051105675833706,1.7469791661475613 l7.484479237066055,6.057747472611326 3.889178647895973,10.467594438406701 l-9.080140977557852,-1.2885894313472301 -6.056585000779872,-0.7001627959519721 l-0.09743837055640192,13.391375072744752 -0.8513121713387217,1.7117570477281656 l4.496999706460985,-14.352875128883072 2.720758284975595,-33.40635201145583 l-6.783192836471657,-4.884467885852311 -2.196818953567615,-7.143439111423772 l1.5013818370025729,-27.04412673737956 3.5657729184550506,-2.3596635384741904 m-16.787058465128833,-5.826604591537136 m15.001902908945048,-11.23887862930884 " fill="none" stroke="black" stroke-width="1" /></svg>