<?xml version="1.0" encoding="utf-8" ?>
<svg baseProfile="full" height="108.00346679601424" version="1.1" width="188.16084017327168" xmlns="http://www.w3.org/2000/svg" xmlns:ev="http://www.w3.org/2001/xml-events" xmlns:xlink="http://www.w3.org/1999/xlink"><defs /><rect fill="white" height="108.00346679601424" width="188.16084017327168" x="0" y="0" /><path d="M25,77.37495067967956 m0.0,0.0 m11.54133367331828,-31.006596798471502 l20.52279473433292,-7.809154307155588 6.524948496968129,7.4936102120629755 l8.22736989327876,18.637937633901213 8.587582552448056,-1.0840721545919811 l10.579416088555249,-6.963040106205202 -9.41208986257949,-13.802255400970585 l-5.133857428066257,-5.820056918536385 -2.8836548466749665,-2.849892575935583 l2.561542723116276,-1.8090932141481813 17.15892812653311,-1.4697172068653725 l4.7333688135829375,-2.0683446345083687 -4.5375833791926885,-3.8242752082549845 l8.821564067193798,20.75430420490229 1.7596353340605058,21.70470106912715 l-1.329426552589489,9.303855415906478 8.503026521460622,-4.180533851615857 l3.665240803361277,-3.552151957448136 12.568570866643439,-10.62436615993776 l5.656462015213828,-5.87220456004189 -6.300413585530659,-3.3851697217413066 l2.8062560221436015,9.457670553187267 8.208508699255699,6.261047579700641 l10.767617040677983,1.5726917051378164 6.9192850465536,7.800905310375235 l-16.339781277780034,-3.8097307128941837 -7.005958577192712,-1.9185615554633852 l2.0484942508453283,7.25281545698192 7.684547764775538,2.6446565004661613 l-2.141375181786234,3.807813681848439 0.30615527804353115,0.7857238375233452 l16.556201421259022,-1.8467757952335264 6.305995188388926,-3.960868019622768 l-0.7376166005973711,-2.4685980729881862 0.9677520432511644,-6.7897012270855654 " fill="none" stroke="black" stroke-width="1" /></svg>