<?xml version="1.0" encoding="utf-8" ?>
<svg baseProfile="full" height="218.15344122229683" version="1.1" width="143.20802968940592" xmlns="http://www.w3.org/2000/svg" xmlns:ev="http://www.w3.org/2001/xml-events" xmlns:xlink="http://www.w3.org/1999/xlink"><defs /><rect fill="white" height="218.15344122229683" width="143.20802968940592" x="0" y="0" /><path d="M71.43184981570627,191.99878476833615 m0.0,0.0 m7.982460338092904,-34.692569405424734 l6.755495940167655,-7.318043521229823 6.925856310051681,4.3109354882535795 l3.7163088042082757,5.585697031058133 0.8357940369283262,8.928894479316327 l0.318084393157147,11.017208790552248 m8.39959725723118,8.261097544387432 l5.367376562496557,5.061436047047532 6.475206231365915,-0.37862557920846585 m-43.042510037548396,-111.13029730784089 l3.4676390168908022,-4.16295255999009 4.262233950340574,-1.2165529519747083 l1.7809809423549017,-0.5041207417310908 7.723039309070508,9.447607756132665 l-3.1322333221555274,21.909611255241565 -0.12354175044590188,11.68378514452986 l9.798854038080975,2.5494429864320023 2.8585245785349067,4.74105521895392 l2.7863208703417772,12.216207872866107 -5.591205487016427,5.4077435215606355 l-1.1782475388431868,-4.819432829680153 3.8570618070373883,-7.751654916616551 l0.7454825265086296,-4.2047927111559 -3.1261665241596712,-2.567732982990255 l-9.67684334355821,1.6510680604139665 m1.3291676156327625,-92.47180388349254 l4.1964585214027235,-1.2059037902929648 8.1662544241663,-7.346092783453939 m-1.9353205748877738,76.64809720253409 l3.2020103972558256,7.37946090105349 -4.811044342055326,5.351555577847985 l-3.1187889542868024,6.417266228955245 -2.9828570472583142,9.976279675611925 l-39.344565543165544,15.029348373577477 -29.318733221642912,16.977486551345113 " fill="none" stroke="black" stroke-width="1" /></svg>