<?xml version="1.0" encoding="utf-8" ?>
<svg baseProfile="full" height="225.25128829023987" version="1.1" width="193.92689033481548" xmlns="http://www.w3.org/2000/svg" xmlns:ev="http://www.w3.org/2001/xml-events" xmlns:xlink="http://www.w3.org/1999/xlink"><defs /><rect fill="white" height="225.25128829023987" width="193.92689033481548" x="0" y="0" /><path d="M25,107.72948464823342 m0.0,0.0 m9.026713458824423,-16.73912105147391 l20.80300667932978,5.077706848776671 13.023354711869105,-46.9123757933089 l22.16141088219746,-8.810983530285482 9.400465580938992,4.7320958161365665 l6.14660360555162,4.331574593266476 5.316014463992509,-7.8966082025206035 l22.939999305956622,-9.080051138891953 -1.438924460926713,-4.426944084522992 l4.176140813420768,-3.0047781054093097 0.7649459237051787,2.4445758074912183 l2.720644122111731,0.5515447076724025 -5.569794951888471,6.8621620059969874 l-13.500863046548695,-4.658469560120582 -2.3526996024943214,-0.24733369315001086 l3.229935415354183,0.34947778193164475 3.500930563059071,15.50183921654302 l11.692407708191103,6.675343094032386 6.189728245045408,6.5049489104099285 l5.2838746826040826,8.650548972809595 3.312575069359812,7.047264477033206 l15.21622349997946,2.1902300051345804 1.8841976651824002,8.855072980340752 l-0.9069864049496423,4.096900689357951 -0.2586977308415056,16.088949354129152 l-0.7903185430983948,11.563754836024124 -9.069077115468986,15.732659594364444 l-5.438031925070113,8.233860492522686 0.5417269719236772,10.182410714263598 l4.041814577758227,15.050658085177808 -3.1772400582377807,9.519866875381773 l-7.550825387028249,15.819962886790014 -17.120934945326738,8.2350600561032 l28.563173575605436,-55.88117207793182 8.31577050018425,-30.691841313530677 " fill="none" stroke="black" stroke-width="1" /></svg>