<?xml version="1.0" encoding="utf-8" ?>
<svg baseProfile="full" height="244.2302521545369" version="1.1" width="162.19600562202768" xmlns="http://www.w3.org/2000/svg" xmlns:ev="http://www.w3.org/2001/xml-events" xmlns:xlink="http://www.w3.org/1999/xlink"><defs /><rect fill="white" height="244.2302521545369" width="162.19600562202768" x="0" y="0" /><path d="M118.47728944172576,146.01985440665524 m0.0,0.0 m-11.99951946325918,-46.223686175691476 l-14.664748889631406,-53.47381497797013 30.57723328478972,-5.067506268810853 l-4.504074633445425,-16.254846984182784 -3.5160456462546863,0.8438409891790734 l-5.898231069640511,1.1493905884243152 -12.777551811272778,1.7881713786749287 l0.5159339754218975,12.48795562216524 -1.3477336004558387,8.73277245070589 l0.38810600253465316,4.218573130412955 2.9119528481305177,-0.2423211192537281 l5.7733091845286655,-6.212558595636956 9.781082567988248,-3.10430892004564 l10.293552481870707,2.504850273669024 2.0396092000532438,4.729297002974557 l0.8746843559164919,5.363471827416815 10.271157393027606,21.51092317656431 l-3.006350854482327,19.13480927213018 -6.694622006127911,9.917859292356608 l-2.9639955069663535,12.563844122668844 -2.263728051370416,14.551369760288468 l-4.37471548262544,1.9482384626797915 -15.864248880117161,1.220221294062885 l-13.200243026907636,5.817022811003221 -0.00908978308260422,0.09408051657912407 l-1.9080035625795313,0.49292037925002224 -1.906535595913268,1.2025400400209492 l0.6345701724371072,3.366048977358782 0.841899976538556,6.293384813935243 l-0.6173547333212842,7.104608058238289 1.709977375312977,12.40155782307801 l-32.81252235329147,14.043793870171783 -28.576513350219496,14.762714479480005 l-1.1845299593114222,2.118942933163739 2.880179114582823,13.426237442820184 " fill="none" stroke="black" stroke-width="1" /></svg>