<?xml version="1.0" encoding="utf-8" ?>
<svg baseProfile="full" height="208.90114285491447" version="1.1" width="159.49489750932398" xmlns="http://www.w3.org/2000/svg" xmlns:ev="http://www.w3.org/2001/xml-events" xmlns:xlink="http://www.w3.org/1999/xlink"><defs /><rect fill="white" height="208.90114285491447" width="159.49489750932398" x="0" y="0" /><path d="M34.17926645761798,126.72836075627743 m0.0,0.0 m31.15672515705244,45.67303774800879 l11.365287082102979,11.499744350628264 m-29.093176314053554,-90.16869358899116 l-11.68181473612559,16.060105455580153 -10.92628764659425,48.79403935422865 l11.686294305658906,-59.10505808106214 14.32636708523409,3.0612047963313724 l3.6814371652609177,-3.4639807246276746 24.108468980514246,-22.96863595552536 l1.3811770827066405,-26.09518783313213 12.742023302698072,-4.303325821443835 l3.975563954094722,-10.588257910068803 8.15632214649992,-6.9902165505853695 l2.205933391071552,-3.1331359956181735 1.3892731989694347,5.557342500190108 l5.574731903980501,10.141967889264658 -0.01541592364842359,9.28232412287286 l-2.03535276047203,8.483158929828045 9.224936793651294,9.924480953456177 l-5.581621008240286,11.903514039386977 m-10.295162454966222,-25.57058757526351 l-2.7413526417035214,-11.318220371387184 15.158829641936688,-16.20198424640744 l-9.513661067813342,-1.4015732281712516 6.684960878528458,1.1817225349047755 l8.314437951475131,5.299658054570804 4.435744039346628,7.538972533361039 l1.5325950721463006,4.752187591260125 5.09836647239427,7.195804473342433 l-7.2970822712072865,11.197785015895338 -14.839225063712954,21.444063505500985 l1.2996610459673397,0.5662486421934876 9.827415895040003,-6.427019101513567 l-3.641774239070946,1.378229370675279 -30.745290845537248,-15.845777301023993 " fill="none" stroke="black" stroke-width="1" /></svg>