<?xml version="1.0" encoding="utf-8" ?>
<svg baseProfile="full" height="212.00788577134296" version="1.1" width="186.49608618047222" xmlns="http://www.w3.org/2000/svg" xmlns:ev="http://www.w3.org/2001/xml-events" xmlns:xlink="http://www.w3.org/1999/xlink"><defs /><rect fill="white" height="212.00788577134296" width="186.49608618047222" x="0" y="0" /><path d="M25,171.43120387259347 m0.0,0.0 m9.396828776087832,2.122902592825001 m2.5335791629196014,13.45377930592449 l29.027038369887837,-92.47587372710997 -10.39336017727811,-13.230018388857625 l5.185954599783624,-5.757797203720279 6.747351421645603,-3.310675227491168 l2.5697278852696734,-0.44561576951558163 0.4558355575543799,-0.8774936397838299 l4.323377210030583,8.11002517926362 3.42679193895683,11.047950420161396 l7.398224676282071,9.264146812205562 -0.9267675495958467,6.3157073515271565 l-4.044654119029767,1.0038095803605023 m-33.88341513279895,-81.65205115838272 l7.327675440343221,0.643909095112094 7.764127326899128,1.7712093326355067 l2.3304325949547766,6.426152009643471 9.656717044609948,5.674659457438034 l0.19888436148968536,12.173133631132615 2.1693792115787516,7.819622475507033 l8.198380968284988,4.9246626209832085 10.625965917659395,-2.0622431098993372 l7.928717055634938,-8.48127504657423 3.9568052349080793,-4.535078537869085 l0.30425726328104796,-5.772181224605083 -6.458107800786039,1.1953350735645945 l-5.247320482464799,3.472614584368008 1.6793172417591364,5.065728415598181 l7.749027631554523,2.5881873653240017 8.945222267315618,17.701152478066117 l4.011975660944538,6.226337950831187 1.9201607620958128,-1.008670861186614 l3.0101089268526535,-2.588697502834581 33.145319500332526,-13.071410037967354 m5.462527433508951,-9.069946569731338 " fill="none" stroke="black" stroke-width="1" /></svg>