<?xml version="1.0" encoding="utf-8" ?>
<svg baseProfile="full" height="137.8321671227682" version="1.1" width="95.07366820341741" xmlns="http://www.w3.org/2000/svg" xmlns:ev="http://www.w3.org/2001/xml-events" xmlns:xlink="http://www.w3.org/1999/xlink"><defs /><rect fill="white" height="137.8321671227682" width="95.07366820341741" x="0" y="0" /><path d="M70.07366820341741,112.8321671227682 m0.0,0.0 m-40.73548665052988,-19.417886427052792 m11.798248346193516,-3.307092620714589 l4.989592124299124,6.881153964949923 8.34802676386224,4.665931712821075 l-1.8937707639048496,0.8760876698620934 m-1.9947566923020998,-50.75673750280966 l-2.588495824873952,2.605455219807166 0.7739280257618082,7.333748261933171 l0.7155871920153543,8.941739799208616 5.869855157218622,8.859102841022942 l2.162484902178024,6.461553726033001 -0.5315672247941631,-1.0477402867361236 l0.7002314215160629,-0.5101299820238795 -0.01029648591770467,-5.861361008589584 l-3.257969154200991,-9.826279178275744 -7.153565044204574,-5.472082732751011 l-6.649384342116604,4.376419497596393 -6.886699203027587,-11.591181283489442 l1.258113561537153,-7.4329482445201505 -0.2559818994010715,-14.314952283541196 l-4.782702022774035,-9.294968265498392 -4.949060389951805,24.21232800400317 l14.767899942511256,13.083105183768009 2.5314428948689898,9.897912722217853 l2.110226529046783,-5.633450844190071 -1.3906123747488697,7.488279676079617 l-1.63899890840146,-6.589833531599286 -1.457391161347621,-3.4866915337287407 l-0.982543640393608,-1.2996200031139462 4.464437291196634,4.425215008056039 l1.4423667607262882,12.569176289034342 3.0201382635963148,12.379875870085979 l6.5971201629083005,9.04212670384263 0.05204797024563418,10.00401967989332 l-12.296468874421006,-7.085431194866711 " fill="none" stroke="black" stroke-width="1" /></svg>