<?xml version="1.0" encoding="utf-8" ?>
<svg baseProfile="full" height="171.60808573150348" version="1.1" width="108.40764779819614" xmlns="http://www.w3.org/2000/svg" xmlns:ev="http://www.w3.org/2001/xml-events" xmlns:xlink="http://www.w3.org/1999/xlink"><defs /><rect fill="white" height="171.60808573150348" width="108.40764779819614" x="0" y="0" /><path d="M25.72580869580236,80.65460928527186 m0.0,0.0 m3.127941490072994,34.99044618565288 m26.526406994124024,30.963030260578737 l7.020701731906459,-98.58578214472895 9.54721131252715,-0.6234322959394224 l4.7966108500866484,2.8934880152046163 1.8260553957290127,6.894549830737153 l-0.16247972033081987,14.327642363795853 4.999391048278319,19.42334534620766 l-2.187475995991882,9.003159120234091 -2.271349932398556,3.4315473039308064 m-37.357361744255414,-78.37260327094529 l1.8276274010781106,0.248962017156436 11.271884306294666,11.528263352187032 l-2.643876470009502,5.810063614709723 -0.5510793015033144,3.961894719148094 l1.2597560552393465,2.948068761848297 -5.240883349934681,2.3110332343653814 l2.4593244513041723,3.3901926059109644 8.820224936142273,0.627910723388906 l9.74996763950879,-4.165195827399047 2.1190612154698574,-7.787490914571795 l-8.607160968304775,-7.712835741126087 -4.160811335675306,3.9219755350762555 l-0.0876147731537584,7.418512080697784 4.436219641791266,4.907267268305697 l-7.725784996855209,0.20301120887378343 -12.966007952585285,-0.07405485665691956 l-8.426029460526271,0.03567505435336099 -7.357146637901826,-1.7819332682006512 l-0.7691305259288472,-2.6967894844180966 3.160807573152363,0.1466974198637505 l13.026863405451415,7.915953052416001 3.8075449334961307,0.9006132621298231 l-0.7996590430371416,1.4759612794776669 -14.541561948671683,-7.222539821034656 " fill="none" stroke="black" stroke-width="1" /></svg>