<?xml version="1.0" encoding="utf-8" ?>
<svg baseProfile="full" height="189.03782966534172" version="1.1" width="198.39249047699428" xmlns="http://www.w3.org/2000/svg" xmlns:ev="http://www.w3.org/2001/xml-events" xmlns:xlink="http://www.w3.org/1999/xlink"><defs /><rect fill="white" height="189.03782966534172" width="198.39249047699428" x="0" y="0" /><path d="M124.98796586985912,152.59856335899516 m0.0,0.0 m20.61349817085972,-6.640041059285768 l27.791026436275427,-27.502682699259207 -31.146330756542458,11.089759258410316 l-40.78372306402361,22.314504848901926 -36.08086812471015,-2.8777397471230315 l-31.469742293298346,12.326978752160386 -8.911826238419712,2.728486952541936 l11.285394056060692,-5.514613170065249 41.47862640345641,-27.638006962123203 l14.793005058001073,-12.95594722714713 6.933180456602768,-33.53331346086487 l1.8664481003561184,-31.018417329449637 21.32675301446558,-11.402852119516869 l3.1197779633004132,-8.480481840430858 4.8360566896274175,-5.518163895038002 l4.037010047757437,-2.976033660705918 2.7347007924933173,2.7433594760127327 l3.7806398342070033,6.915792660556211 2.856064668730861,8.39149493410218 l-4.223597372402059,7.907657365990311 -0.24290196120525595,3.7175877445120933 l1.6887002468718766,6.059365916440639 8.67493588280443,10.853529986043823 m-29.102679870551267,-8.84917086261276 l-2.56808860170909,1.8141471256313764 0.3941095701143736,-1.1158670428611313 l5.052724322656881,-1.2654846332967684 8.964377061578514,0.6101133325864811 l6.627577832119216,-1.436305662998948 5.118083613979498,-2.7913450749514013 l4.4681680670084525,-2.00135050409289 -1.6231514765549506,-1.7742178120598433 l-3.28272012782158,0.6619569416194149 -4.8534032339255315,4.005658437333824 m-17.92344770267692,-16.132422417852688 l0.898246457686464,5.666013870254029 0.5651317842335298,-1.1085863293302416 l2.170225835718113,4.744008457795876 " fill="none" stroke="black" stroke-width="1" /></svg>