<?xml version="1.0" encoding="utf-8" ?>
<svg baseProfile="full" height="164.44798313589715" version="1.1" width="322.33873783860577" xmlns="http://www.w3.org/2000/svg" xmlns:ev="http://www.w3.org/2001/xml-events" xmlns:xlink="http://www.w3.org/1999/xlink"><defs /><rect fill="white" height="164.44798313589715" width="322.33873783860577" x="0" y="0" /><path d="M257.0991098564185,132.08461095732662 m0.0,0.0 m-42.2114121034134,-19.06375993185821 m24.873405526426033,26.427132110428733 l57.57763455917463,-14.382793718894765 -60.021577379051635,-7.266709940840698 l-30.1282317282038,-7.660279448941352 -34.24415819177066,-28.63471920726017 m-59.52598944547226,-13.325769847481904 l-21.850997770316923,-21.05459216579021 -43.229951501853755,-2.606619367089942 l-10.452151402348854,1.4806260879377646 -12.885680419587874,-16.205094200731757 l12.045198381790842,-4.792031326804101 8.776958734202978,32.007945013113904 m-10.36083788221263,34.44721870091404 l1.7000818115082483,5.957289456410548 4.681859810789875,-0.735552158016471 l-2.622363403299822,-13.572224279866392 6.116299115047055,-6.490725930030465 l-3.7345854458228134,-22.140144011664162 9.445901195098049,-0.8901426614725927 l3.3805335064726525,9.15362344655236 3.8595573122828863,12.255632215927466 l6.032276834412804,11.106350366046977 3.8972630725037583,7.409719068202068 l6.084526197054075,12.87037013917723 3.439387578545575,3.2434626513948728 l8.836997302961581,-0.3975213628718649 3.5491034221760236,-9.647694244490108 l10.020681813909698,-29.404401560300027 7.086145771821185,-20.244732711345453 l-8.702424913966253,-20.447743258308737 -7.165400890144391,8.656024626556375 l-21.803555919872633,-5.22594769634527 -11.710913305057732,-2.186534736931758 l-5.770180858246476,-1.7604604110539908 " fill="none" stroke="black" stroke-width="1" /></svg>