<?xml version="1.0" encoding="utf-8" ?>
<svg baseProfile="full" height="158.534295929113" version="1.1" width="132.51813742494332" xmlns="http://www.w3.org/2000/svg" xmlns:ev="http://www.w3.org/2001/xml-events" xmlns:xlink="http://www.w3.org/1999/xlink"><defs /><rect fill="white" height="158.534295929113" width="132.51813742494332" x="0" y="0" /><path d="M37.80445028529546,133.534295929113 m0.0,0.0 m-12.804450285295461,-7.647773459452579 l7.041880487049424,-8.775684213029486 -6.548322290336206,-29.583895236076998 l3.9287005961629267,-8.994284122737808 9.775153002992342,-3.156815457967908 l8.166436723727342,-1.623531618868853 -0.09232043510038007,6.3590673435315255 l5.25132830619544,1.5331765071527015 -1.482492065089955,3.4052154791307054 l-9.591775150757758,-30.807368235744185 -3.2217612464306553,-2.1179246073122493 l-7.28664538352797,-0.9533570182076553 0.33333723714103425,2.341917195105372 l-0.5832381826951327,4.3634961620761255 4.769774067612422,-18.619851874592253 l2.5841224700378738,-14.256682772119445 8.635065164297153,1.2999793464301512 l4.373356944903393,3.8048892255910625 1.6276791400798514,16.74579886129471 l3.4380246734725537,11.1618405300583 3.4316744785271003,5.873228784838656 l3.8409966890288727,2.767912426969728 -6.579312741528541,5.192234054904583 l10.323680411602426,2.5059890642152705 6.452119062417538,-1.6323919149907384 l-8.832198431391616,-7.592091936157509 m9.319639023201155,-31.344996452941228 l4.511744804634519,-2.449623746738553 7.486044323843523,-1.880370777732763 l5.102671460976387,4.999096072178652 1.5034744355510683,3.374873285428326 l-1.3543877125553563,7.051257493269173 1.4031137895793482,4.260417578850905 l10.355827016051476,2.7014175304056307 4.434746755271716,-4.7658902499640945 l-7.051484619816984,-7.618922557857377 m-13.349896799198998,2.8394814556484826 l-4.350261142586715,-4.057910320507851 " fill="none" stroke="black" stroke-width="1" /></svg>