<?xml version="1.0" encoding="utf-8" ?>
<svg baseProfile="full" height="249.03725208814916" version="1.1" width="142.95778626584683" xmlns="http://www.w3.org/2000/svg" xmlns:ev="http://www.w3.org/2001/xml-events" xmlns:xlink="http://www.w3.org/1999/xlink"><defs /><rect fill="white" height="249.03725208814916" width="142.95778626584683" x="0" y="0" /><path d="M92.38961833815735,54.418105858340894 m0.0,0.0 m-1.5888876074931035,17.337357785711074 m-25.251411372473473,4.811237472042869 l-36.65645098217505,-32.637092612028255 -3.892868376015719,-18.929608504066586 l7.0219066089563995,50.40525049501307 15.008588225605463,69.29702089586277 l13.733190664231115,79.33498069727331 32.97805760430847,-20.89576744656972 l23.624270758685384,6.131336720135022 0.5917724040599964,-18.291750252928054 m-28.593732992763247,-77.09632445888488 l5.19758316706977,-11.998667914623944 2.2674898919003375,-14.503235514018606 l-0.1276498365384056,-10.295819333045975 -0.2976422864593399,-3.004253987006774 l2.0925296044853514,2.18558700839152 -4.9328373627990905,14.008760787514422 l-6.683083221941861,13.475341152277293 1.872822209279546,7.305182880783804 l7.854063327188064,9.98519811209384 2.729780963255991,6.483051087245208 l2.0806406726513043,10.82408521330219 -0.051690390047138476,11.850355931301989 l0.05880482452844088,8.202359846342855 -2.3124262493311134,8.773875362501515 l-3.2941515049579877,6.757351131968085 -3.212954253763916,5.643756076906943 l-5.61107110632255,6.77714498524741 -2.6307878911794402,1.040720861138078 l2.345381594032961,-1.6272512589834744 5.752698088302735,-3.3910868505665053 l-0.26108375186885163,-18.153532369639315 " fill="none" stroke="black" stroke-width="1" /></svg>