<?xml version="1.0" encoding="utf-8" ?>
<svg baseProfile="full" height="249.14937372494455" version="1.1" width="112.5629791455465" xmlns="http://www.w3.org/2000/svg" xmlns:ev="http://www.w3.org/2001/xml-events" xmlns:xlink="http://www.w3.org/1999/xlink"><defs /><rect fill="white" height="249.14937372494455" width="112.5629791455465" x="0" y="0" /><path d="M25,140.89430845673922 m0.0,0.0 m13.914100679349758,1.4841892929951854 l-7.135932600182087,-38.206124192844996 0.6830295177694762,-2.129763926915003 l6.161462493022703,3.0492720835910556 4.376449275180163,9.212039834793789 l8.511193049991954,7.412365644180625 18.190087803834185,8.028172599722105 m4.189766639278436,92.21568625108098 l4.195412514595428,2.18922768160159 2.954123549210723,-4.981670699694152 l-4.796177281133836,-4.129932319459657 8.329748371767401,5.340074057334456 l2.9897151328621985,-1.7316976931006667 -1.918164217970989,-8.270473658845358 l-15.608117573588602,-8.844456276232005 -3.791488545064463,-2.3592829477952217 l-11.107502554510065,-8.997439215858009 -8.757142786101587,-8.004547218372107 l8.068988912960556,-4.690582394251968 3.7398431693726972,-16.10029783498144 l-2.764785219805871,-5.481469373738684 -3.0354579025776953,-8.87076379295757 l-4.406002539875295,-8.438944369497527 0.6352470886075273,-6.502978246728939 l2.052578439730904,-7.966411401207535 -6.978255958003135,-5.7995188700372475 l-3.9500766189967553,-2.9672694161131017 0.001265679269112363,-6.085329664369059 l0.42291353897353806,-13.03454257131155 2.789520208983099,-12.22906683271915 l3.9399979721384537,-5.251427198529992 1.8968617774384755,-6.373806567910787 l-1.2431203260498584,-12.524557803994245 -6.811903211990131,-10.457647291169243 l2.829126381360759,-24.39533412340378 " fill="none" stroke="black" stroke-width="1" /></svg>