<?xml version="1.0" encoding="utf-8"?>
<!-- Generator: Adobe Illustrator 24.0.0, SVG Export Plug-In . SVG Version: 6.00 Build 0)  -->
<svg version="1.1" id="Layer_1" xmlns:ev="http://www.w3.org/2001/xml-events"
	 xmlns="http://www.w3.org/2000/svg" xmlns:xlink="http://www.w3.org/1999/xlink" x="0px" y="0px" viewBox="0 0 79.9 109.1"
	 style="enable-background:new 0 0 79.9 109.1;" xml:space="preserve">
<style type="text/css">
	.st0{fill:none;stroke:#000000;stroke-width:0.9233;}
</style>
<path class="st0" d="M52.8,103.5l9.6,0.7l8.1-3.5c0,0,4.3-1.5,4.8-3c0.9-2.3-1-7.8-2-10c-0.8-1.8-4.2-4.2-4.7-6.1
	C67.3,77,70,62.8,70,62.8l-1.1-9.7l-12.8,0.8l-1.6-8.8c0,0-5.2-15.5-2.3-18.9c2.7-3.2,12.5,5.4,15.3,2.3c1.5-1.6,0.7-7.4-0.4-9.5
	C66.1,17,62,15,60.1,14c-2.3-1.2-7.1-3.1-9.6-3.5c-2.4-0.4-9.7,0.2-9.7,0.2l-3.3-3l3.4,3.4c0,0,5.7-3.9,5.1-5.9
	c-0.5-1.7-4.7-2-6.3-1.9c-1.1,0-3.5,0.9-4.6,1.3c-1.2,0.5-3.7,2.1-3.9,3.5c-0.2,1,1.6,3.5,1.6,3.5l2.7,1.4l-5.2,3.6
	c0,0-12.3,21.8-9,28.3c1.2,2.5,9.6,1.8,9.6,1.8l-4.7,10.6l-5.9,8.3l-2.9,5.9l-7.8-5.7l-6.4-0.1"/>
</svg>
