<?xml version="1.0" encoding="utf-8" ?>
<svg baseProfile="full" height="141.56797746251289" version="1.1" width="199.5315673060521" xmlns="http://www.w3.org/2000/svg" xmlns:ev="http://www.w3.org/2001/xml-events" xmlns:xlink="http://www.w3.org/1999/xlink"><defs /><rect fill="white" height="141.56797746251289" width="199.5315673060521" x="0" y="0" /><path d="M25,81.5729881771262 m0.0,0.0 m8.195960180485523,34.99498928538668 l5.573535771017811,-37.5325804963143 3.2175286658301405,-0.8784699416743711 l1.923635286363378,8.015078744228944 -0.41415031221829196,-0.008144341188414672 l6.1870947014300075,0.1928438423399284 13.909399610153505,2.770569149112202 l12.150036990698565,-3.341682743270401 9.83855855877436,-0.04063975316647303 l7.319274384039498,0.10044932733117416 4.5708189347419115,-6.844722081492269 l4.191786704572322,-2.966240442833446 11.279742509378062,5.048448135452369 l-0.0356596028214759,9.365282711859667 -0.32974376880599565,3.755262305991918 l-0.05180022782857008,4.9302881862123495 3.237497370610354,4.715342401536279 l6.294543449487127,1.4533514859829946 -0.47275167696492926,-1.468051650320258 l-6.8711181248083495,-10.863224303518708 -8.60277391523444,-7.934245760397658 l-11.137859559577112,-2.629022057268001 -10.848148095069767,-4.327544899090198 l4.912315703493319,-6.786120613027022 9.894223862998949,-6.586727797582148 l8.315666591914592,-1.993695897067565 9.887148080253333,0.29700017365738185 l5.888049900756137,1.4909667846963837 4.983307877716962,4.458977702134859 l5.367472667093005,-0.09895313437237485 -2.3729143243922945,1.7070890604965043 l-2.7883161802850807,-0.8341861413747131 6.3927220321135465,-2.100684795114489 l7.218976440668081,-4.146369651007274 8.553013814485656,-6.8926782601723975 l10.309695266269182,-6.193232692485584 -5.302247408979001,-11.27866979072956 l19.147045147692065,-14.123040230078212 " fill="none" stroke="black" stroke-width="1" /></svg>