<?xml version="1.0" encoding="utf-8" ?>
<svg baseProfile="full" height="152.90296406036768" version="1.1" width="123.42430186200983" xmlns="http://www.w3.org/2000/svg" xmlns:ev="http://www.w3.org/2001/xml-events" xmlns:xlink="http://www.w3.org/1999/xlink"><defs /><rect fill="white" height="152.90296406036768" width="123.42430186200983" x="0" y="0" /><path d="M91.73805279842703,117.92424963564568 m0.0,0.0 m6.6862490635828005,-9.216848204651624 l-8.167004094214155,19.195562629373633 m-9.120952287991965,-3.7962664926345333 l-10.111327525298751,-6.89146765852403 -2.401023954476972,-6.7434006215389 m-10.605617274495343,-24.638279266651086 l-7.128511200405618,0.28342886576554593 -9.388861122274193,20.78191592638826 m-16.50100440285284,-48.512381002544785 l3.5276055582293986,-9.633854402854029 12.546998180598544,-7.915824421864377 l6.763554101146321,-15.836834985909759 1.9001574799953658,11.228239650955674 l6.59572903888447,9.616812013143257 6.005258166155134,9.77544694730021 l-3.668697745234398,6.516422905449091 -2.9727312112216464,4.112699311853739 l-1.0672650060871118,1.2399065157536953 -2.145408883698022,-4.951694983553854 l-7.740355566871646,-2.9919916707859255 -9.222443937889686,2.3104545268408216 l-1.2615859689164566,-0.2027990504777505 5.396479830889371,-1.5345911038196185 m13.639512912730023,-19.862317965470865 l7.852451467972653,7.244436584017124 0.22284460094599112,15.743573882259717 l1.5294139934605178,8.202855733668425 -9.334253347958287,15.718511467681392 l-1.6328933883409704,-2.7555405216213837 1.9265203163616607,4.805897306534411 l3.530003142232362,4.891270773837683 -4.9799589911078534,8.497173409492047 l-1.7703607603718312,-4.423428161830901 2.705254087784178,0.18953344866390276 l5.1108890580495325,3.0956730268209878 " fill="none" stroke="black" stroke-width="1" /></svg>