<?xml version="1.0" encoding="utf-8" ?>
<svg baseProfile="full" height="166.09979438432964" version="1.1" width="207.51123177419313" xmlns="http://www.w3.org/2000/svg" xmlns:ev="http://www.w3.org/2001/xml-events" xmlns:xlink="http://www.w3.org/1999/xlink"><defs /><rect fill="white" height="166.09979438432964" width="207.51123177419313" x="0" y="0" /><path d="M25,141.09979438432964 m0.0,0.0 m12.846415218298558,-51.772741090865345 l-4.945070397195612,20.667199003393335 -3.0353321832437397,5.413483752096966 l2.2043799834119513,1.7249408102012567 5.257979758857197,11.183731687903512 m10.052887620021567,-34.76448248255721 l10.184130705299305,-4.4377597311858805 5.629200519152488,-5.887790916623131 l10.236586624618502,-0.06877218321240774 9.721589043445839,-5.190951827470506 l0.6154527327578085,1.4315486021337642 13.37236394353837,8.58499562427401 l7.905648463619196,6.757978354253705 4.670993950482753,1.3214289781683541 l-1.339917141519802,5.064791028510609 6.619963154217065,4.744573223794402 l3.481080020950281,7.570393800897173 2.6056087149354465,0.682224468479633 l2.0456490376749716,-0.8500924175787078 3.8453039368180635,-1.0583566640974644 l3.1669346883767893,-2.337248110653467 2.171080184825821,-5.1751181986687085 l3.536310716826386,-3.770712056346605 -9.261921272939095,-3.9775562167228165 l-8.81613626862267,-6.6977117347053845 1.121137229213488,-3.6117407519232674 l9.561412035067846,-6.637095707734608 14.449538880416574,-10.213503628144398 l4.7175758557840215,-27.92822694379267 2.44099599217032,-11.830178095293672 l10.715778225153656,-2.797667477906801 10.303805029927839,-0.7463302009949618 l8.13092908195292,-1.4930472819583633 0.284736473388032,1.6725118356208535 l3.0141412165109904,7.294906900619547 -25.907344800000036,14.721506217056554 l-39.13217176183533,10.37974071067946 -35.86293245718489,24.527164343481672 " fill="none" stroke="black" stroke-width="1" /></svg>