<?xml version="1.0" encoding="utf-8" ?>
<svg baseProfile="full" height="297.08955334511757" version="1.1" width="162.9186184012649" xmlns="http://www.w3.org/2000/svg" xmlns:ev="http://www.w3.org/2001/xml-events" xmlns:xlink="http://www.w3.org/1999/xlink"><defs /><rect fill="white" height="297.08955334511757" width="162.9186184012649" x="0" y="0" /><path d="M41.85850875832091,272.08955334511757 m0.0,0.0 m-10.866404235925632,-25.93658170087341 l-5.99210452239528,-132.48377266933522 8.09920788703608,-45.533052977099366 m23.185796036218573,-36.41496274753955 l-2.866768040601919,-6.7211832502700215 5.216592567735751,12.049913963938629 l-6.350824788882303,14.97636802728405 m27.289214893071534,-11.914049070082502 l6.433138389103301,4.2504471673251105 12.928128726040281,1.2027711620523824 l11.298286660208904,0.9278602188028765 11.824622273939433,6.447155469514858 l4.5222883512732315,7.646057802002476 4.966946952916637,13.501109954455922 l-4.319908188205868,8.342770267560228 -3.3538934116657835,10.134940713001969 l-0.8906810117500771,9.739479227442859 3.8837151096539793,9.53908678854552 l2.5301701884646763,11.848049696649321 -3.110504073159476,6.041004722036455 l-7.687979348875698,2.082055991277433 -5.776118373191741,3.366357988827103 l0.7814162986427498,-2.9334424132151593 2.022948813809294,-3.004156250883821 l3.0496166057645655,5.807407257197812 -5.798745961948489,9.652516642383839 l0.5528104866829975,1.0412661110259247 -3.1830126198618833,1.043464713373306 l-5.092167844947811,-0.0923977205750526 -1.0882618308804963,-4.109740459445537 l1.916663183228365,3.0615346990325287 2.6167649378072566,2.1448795102604254 l7.753502431650868,6.144448464044944 3.0181840700835525,4.955163060704855 l8.016180963751118,0.26275084777699464 10.531288068153271,5.01567643014879 l-10.74340163694027,9.191732037330992 4.269746478946896,11.295024116140752 " fill="none" stroke="black" stroke-width="1" /></svg>