<?xml version="1.0" encoding="utf-8" ?>
<svg baseProfile="full" height="190.78489796889377" version="1.1" width="141.26714190029952" xmlns="http://www.w3.org/2000/svg" xmlns:ev="http://www.w3.org/2001/xml-events" xmlns:xlink="http://www.w3.org/1999/xlink"><defs /><rect fill="white" height="190.78489796889377" width="141.26714190029952" x="0" y="0" /><path d="M74.71699536382624,25 m0.0,0.0 m6.738447571678419,47.23912922484486 m19.15271722743163,3.344618857674533 l9.25442239882837,-6.007686319685924 6.404559338534874,5.508006823055724 l-2.975145303016856,3.1888517446231943 -2.0766862536932793,-5.903651816621923 l-9.862996759684593,2.624382160843107 -9.574428596377539,0.20459185556067516 l-3.661796572927282,-4.124553058147492 11.431151416863829,20.469159511512473 l-8.156948699305495,3.256584511004595 -5.959274050295864,3.3069970342949686 l-18.494618751510323,2.0263916055102857 -36.30986919762952,-0.29904242584686686 l1.796490186618988,-0.11180682894230826 0.7225685132621057,3.9071878533391278 l2.3800408025654245,4.124373465103381 14.937686334721908,12.216353125759369 l-1.097343513323033,6.50959161264737 -8.453686658419635,16.71076749386432 l-0.6837516190598775,4.2888198299781175 5.309877319839924,2.697881445153075 l6.77099123664416,8.735403518061537 -5.488634107061827,4.548087954737528 l-6.181800646029316,2.3244587905700778 m-15.638966982481431,-57.0475769909763 l5.37300204416878,7.777924570459563 4.97832323392496,-0.9649633795110657 l5.244296307692357,-2.4346253438000747 5.324709172135001,-5.608448601277939 l1.8299411584344232,-4.8958285742866 4.7037215342733445,-7.217907335618272 l0.47538660613253736,-1.2835799233811744 1.946195707295329,-7.66915873243769 l1.6292641903219256,-8.65633675667852 3.8063890567681904,-3.6597453420650243 l10.928100665653137,-9.535671384061573 2.0301487530311344,-36.54758385948447 " fill="none" stroke="black" stroke-width="1" /></svg>