<?xml version="1.0" encoding="utf-8" ?>
<svg baseProfile="full" height="171.95484849433447" version="1.1" width="85.66988614460148" xmlns="http://www.w3.org/2000/svg" xmlns:ev="http://www.w3.org/2001/xml-events" xmlns:xlink="http://www.w3.org/1999/xlink"><defs /><rect fill="white" height="171.95484849433447" width="85.66988614460148" x="0" y="0" /><path d="M55.75274853111923,116.59549614721993 m0.0,0.0 m0.05944359374024988,6.714645417639655 l-0.6662697719862252,-1.175949959976898 -2.433400161127293,-2.387004384788994 l2.8205787834677665,0.440945039553459 -4.413798116975791,-7.054307797104058 l1.7833644790696315,5.44971104580614 2.8003514002978855,9.360101138402298 l-3.0871365443197245,4.088229209611942 0.22601118878532744,-0.6022138760736261 l7.42066097010342,-1.9768160016747256 0.4073317924270012,-4.619127451965651 m-20.826537066751413,0.7859915411886842 l-12.450577351636325,-0.9350662216298156 -2.392771726213746,2.0640903205377557 l13.510412893446686,-8.110877468719933 5.395007066803887,-12.660402797518596 l-3.1088900805006636,0.34143242975844396 -10.002652072994511,10.866948166399043 l2.2844117558005075,19.109641738496034 6.948223561230479,6.41947321513453 l1.2070341866378957,4.239909044038848 2.238118119787234,-0.21564208307231134 m3.0196786779897766,-22.109765929778757 l-2.9287164526211527,-11.750241842341461 8.81432694093431,-12.10773841876063 l-1.4799250369645267,-11.048875724913026 -4.773558050407289,4.5706212506977995 l-2.795903379598317,1.198802248353597 -2.714225950519376,-7.940317013807109 l-1.823513003068535,-6.221491949677859 -5.1931927445158905,-3.942081410124233 l-3.5746375372122823,2.8939348378795082 2.901165727373594,-0.874826550480249 l2.1898748499454577,-27.728581232952365 5.215472040505961,-10.280182146959506 l6.805104444997762,9.42219436984419 6.4330893408753935,0.3442906440354232 l1.0505043936791918,-3.7252518915903834 -9.713126471042846,-10.623210555972907 l4.36782216889787,-9.618326227484175 3.565688484103558,-2.198158867230002 m-3.6818425977777203,32.27747145392302 " fill="none" stroke="black" stroke-width="1" /></svg>