<?xml version="1.0" encoding="utf-8" ?>
<svg baseProfile="full" height="163.63989459281214" version="1.1" width="115.43211497747555" xmlns="http://www.w3.org/2000/svg" xmlns:ev="http://www.w3.org/2001/xml-events" xmlns:xlink="http://www.w3.org/1999/xlink"><defs /><rect fill="white" height="163.63989459281214" width="115.43211497747555" x="0" y="0" /><path d="M25,117.10689417139983 m0.0,0.0 m13.65760427809203,13.730169371246134 m-3.2594385186017747,-34.2975524555088 l13.188251754993571,-38.360544531151625 4.363764398994449,-7.13751101128949 l-2.86014478860218,-16.204624867190336 -6.334483981912307,-9.836830677505716 l2.9567644617908537,5.386103281986599 0.8166950949150023,10.19074043109392 l2.396997681681039,3.128636254752125 3.792038761465961,10.070665186974347 l-4.589990496158311,12.20824904567125 2.620277289761359,3.935393105849854 l17.932856948915443,1.5621550719480009 0.45791973538458053,9.91797497554645 l2.8500501682406054,6.118914656246495 1.9327774992714923,0.982930287619278 l-6.129186329148972,1.0072010127449822 -13.960366100070392,-6.113050506841852 l-4.75683404371072,7.4227521227964655 4.9952183246250295,-3.920723693985626 l0.20031640161516795,-2.3758248021199884 13.138174177430226,-3.400287989032468 l7.351865882520873,-1.6566062631717078 9.796787306653606,-7.871792401494422 l1.9980600400310393,0.06944696923908866 -3.530505466330295,3.536648614217961 l-5.127943233069693,4.76365320199369 -12.439024970975208,4.569717047870042 l-8.054660278977366,2.337928828499193 -6.3399528517324,7.32427203715473 l-1.9984880994500465,9.825319559079137 8.29182278553549,5.503129880086868 l4.674264253130107,5.551842881286599 2.963814417504827,6.307414538331901 l8.743445349355628,1.3429671244861245 9.238389133478332,-1.0721357914334413 l6.454977990828495,5.307623781791666 -35.101911006522265,11.678636143624916 " fill="none" stroke="black" stroke-width="1" /></svg>