<?xml version="1.0" encoding="utf-8" ?>
<svg baseProfile="full" height="100.00854774567799" version="1.1" width="103.5215623568018" xmlns="http://www.w3.org/2000/svg" xmlns:ev="http://www.w3.org/2001/xml-events" xmlns:xlink="http://www.w3.org/1999/xlink"><defs /><rect fill="white" height="100.00854774567799" width="103.5215623568018" x="0" y="0" /><path d="M68.2935377792119,75.00854774567799 m0.0,0.0 m-11.57287553717325,-8.294670284633966 l-1.8331061861789895,-5.200032496245936 2.331355154413275,3.40187634199215 l2.7266249357790007,4.6418169849035325 7.029512981653815,3.5336241046030152 l-0.010219913412365129,1.2149164922101403 -4.282356223407119,-2.3013246346620884 l-8.459118738763415,-9.040008255596138 -8.483458961634746,-5.94834649158771 l-7.494576892764641,0.7937716740499867 -5.2629078018121564,6.083738156564562 l0.7029581316320982,5.628066353484426 9.62382209699876,1.2446717932608204 l10.336026601211973,-6.850227958969885 9.474998306817096,-5.831088858879252 l9.987433472893562,-0.5887351369339505 5.4139131513369865,4.1061226339123 l-2.3939174203211295,3.7505207729175236 -9.268836016704586,2.5510682938956006 l-15.025462841961616,-0.9113903842061155 -10.528192151317715,-5.696964821579634 l-7.5666545530122375,-2.8752555062295695 -5.015049554198057,0.09492957246609425 l-2.236202660254982,-0.23645815589133554 4.352583531405756,-3.7939619322572415 l10.98993418841647,-4.463085611259322 23.013528218400875,-5.098365173222811 l4.5468723042825,-4.781894257462521 5.299773597092306,-0.7730388522031234 l-2.657610086607827,-3.463421462430251 -9.152939138353059,-5.815549404285814 l-10.938080702881285,-2.1119179426904555 -14.374206516296258,-2.977933298711025 l-7.69090514738057,0.5853724873139028 -4.876197407110377,7.705029599063778 " fill="none" stroke="black" stroke-width="1" /></svg>