<?xml version="1.0" encoding="utf-8"?>
<!-- Generator: Adobe Illustrator 24.0.0, SVG Export Plug-In . SVG Version: 6.00 Build 0)  -->
<svg version="1.1" id="Layer_1" xmlns:ev="http://www.w3.org/2001/xml-events"
	 xmlns="http://www.w3.org/2000/svg" xmlns:xlink="http://www.w3.org/1999/xlink" x="0px" y="0px" viewBox="0 0 119.8 189.7"
	 style="enable-background:new 0 0 119.8 189.7;" xml:space="preserve">
<style type="text/css">
	.st0{fill:none;stroke:#000000;stroke-width:2;}
</style>
<path class="st0" d="M78.8,182c0,0-1.1-22.2-4.4-28.6c-2-3.9-10.2-8.4-12.6-12.1c-3.5-5.3-6.2-18-8.9-23.7
	c-2.2-4.6-8.7-12.6-10.1-17.4c-1.2-4.1-1.1-12.7-1.1-16.9 M99.2,55.9c0-3.4,12.5-5.3,10.8-8.2c-3.3-5.6-17.6,8.3-23.8,10.3
	c-4,1.3-12.1,4.7-16.3,4c-4.2-0.7-12.3-5.3-14.2-9.1C53.3,48,58.3,36.5,57.4,31c-0.9-5.5-11.1-15.4-8.7-20.3C49.9,8.3,56.9,6.3,59,8
	c4.5,3.8,0.6,18-1.5,23.5c-1.8,4.5-9.6,11-12.2,15.1c-4,6.1-6.2,26.5-13.5,26.1c-2.1-0.1-0.9-7.6-3-7.8c-2.7-0.3-4.6,6.6-6.2,8.8
	c-1.3,1.8-5.7,5.1-5.3,7.3c0.7,3.8,11.2,5.1,12.8,8.6c6.9,14.9,3,52.7-7.7,65.1c-2.2,2.5-12.9,0.2-12.9,3.5"/>
</svg>
