<?xml version="1.0" encoding="utf-8" ?>
<svg baseProfile="full" height="222.49413915881055" version="1.1" width="178.4045539633729" xmlns="http://www.w3.org/2000/svg" xmlns:ev="http://www.w3.org/2001/xml-events" xmlns:xlink="http://www.w3.org/1999/xlink"><defs /><rect fill="white" height="222.49413915881055" width="178.4045539633729" x="0" y="0" /><path d="M25,184.61154841428123 m0.0,0.0 m33.87557821869931,6.86315148871123 l15.634065968853164,-3.3563762911148185 4.257407740768692,2.3418986894673997 l22.98100086370669,7.033916857465521 3.8910230042199876,-3.1254927921041173 l-1.374813753132237,-18.859271848695602 -14.088146312913347,-17.233410507880908 l1.5528920047953032,-8.28011861714747 6.5321991308874825,-8.75360563768929 l3.104801085555259,-6.5053695878353395 -1.6935808168821394,-11.925141733653476 l-1.9771697956938779,-27.248604807775134 2.520746258840412,-6.625844955250388 l12.91536610600225,10.107503742644905 1.0685621420818014,8.540518110359118 l2.102968144861269,4.056729106554552 2.1633722024270305,2.959884994977349 l6.273999131099884,8.828415380382344 10.4853615710659,-0.8979407451961338 l-1.1399132332026152,-19.94393361544951 6.3870176426703935,-2.7298223123199548 l1.4713618489222757,3.5070542868055985 1.573236234051217,-1.0946541157546208 l2.010335181991222,4.35782039052864 -0.4182344248790279,6.738360859965322 l8.2951178185766,5.621399352482371 -5.186032954655648,3.3220494998745966 l-16.536408384134045,-1.8008916377195863 -7.100740068588243,-4.7814193761162205 l-1.9945405765909159,-8.070883585721313 -2.1398314982973448,-5.096703059376302 l-6.800288779985177,-2.601006691407693 m8.794909673912727,-1.9641851681512468 m-28.402580703540867,-50.76829878582233 l1.0754106121980755,-22.227275302318745 " fill="none" stroke="black" stroke-width="1" /></svg>