<?xml version="1.0" encoding="utf-8" ?>
<svg baseProfile="full" height="159.71376455689574" version="1.1" width="115.70629729671828" xmlns="http://www.w3.org/2000/svg" xmlns:ev="http://www.w3.org/2001/xml-events" xmlns:xlink="http://www.w3.org/1999/xlink"><defs /><rect fill="white" height="159.71376455689574" width="115.70629729671828" x="0" y="0" /><path d="M90.70629729671828,129.21229432983654 m0.0,0.0 m-10.538384694471995,-53.187007969493585 l-0.796406973811496,0.35902620247608297 -13.250082873423935,24.184342831126237 l-37.660095887431154,34.14510916295047 m-3.4613268675796887,-16.37086394665534 l4.895803466459988,-7.157712643086045 9.194243076340193,-2.6125884297128064 l7.0212972792966255,-0.36208473853817424 9.289082570698005,-6.471016993721273 l-2.939593366641516,3.3035366401031188 12.283564212514255,-14.897884621092018 l-15.46552771230408,-24.647792594044475 -3.6276282337891894,-21.63667497872855 l-1.8505540977408044,4.598941201867672 -0.604136487913936,-5.261333431499547 l-4.685962607607364,7.68312040676822 4.85565549514305,2.3116641790929005 l11.435416591360115,-2.5675881624165457 4.860933403020436,-7.155504262942267 l-9.051315822442596,-18.46998218229062 1.1961148368441976,7.951270118111917 l1.529045828190199,0.1705077349748857 10.771017982960927,0.4563489070539901 l1.0954174100211505,-3.2875907631749755 m-22.996781328474114,10.833478487985117 l-1.56996022658123,-2.1412102019657433 4.765793160071205,-1.5660656974742442 l8.127190852025189,-2.4423212624542385 0.6761758904031953,-3.7300512244314263 l-5.466476339708013,3.551988148039363 1.9616871450593092,11.257260951493327 l3.4994762321191066,3.3315690430595932 2.7404752872359173,4.38710129670403 l8.74871402752161,1.6876369013383874 4.121955708154472,1.2595473946540838 " fill="none" stroke="black" stroke-width="1" /></svg>