<?xml version="1.0" encoding="utf-8" ?>
<svg baseProfile="full" height="103.6750581798766" version="1.1" width="117.78208055456666" xmlns="http://www.w3.org/2000/svg" xmlns:ev="http://www.w3.org/2001/xml-events" xmlns:xlink="http://www.w3.org/1999/xlink"><defs /><rect fill="white" height="103.6750581798766" width="117.78208055456666" x="0" y="0" /><path d="M31.611537371265378,40.53223586288859 m0.0,0.0 m-6.611537371265377,-1.648899955147245 l7.685354388628822,11.810414029043267 5.797497300698083,0.44788245661650944 l9.198172838529647,-1.8744988858864011 3.961389713978497,3.128911030024173 l0.0698266720975556,3.5817664280710497 1.8422924487978587,5.347590845008354 l-1.0145899812642492,5.068076573782481 2.500575334447458,7.723679658307605 l7.8404959516746535,4.557900137168202 2.4278029040484084,-4.440423204593225 l-6.1585236872486115,-5.821588104787985 m11.06503487192634,-26.825025699131334 l-10.065874095837106,0.7550364934779843 -0.6798513969794175,-2.5453994979607986 l14.52639456935174,-9.06673394443473 -1.0854170754142423,3.001594848037635 l5.318740103138305,7.98823505579779 0.19985060308066116,0.2421036252551761 l-0.9704931760357107,9.004792402118106 2.690573722221455,1.3855574579111833 l-2.0955123781791785,10.68996326950722 0.4425072823428232,8.137436140963889 l-4.943749467329402,-6.833571019490307 -5.419808687825627,-3.653245246420066 l-3.415351317705947,1.4833878447532367 -1.1538919098641276,4.163812273048961 l-0.8662102870764662,-4.109924390271455 m6.278971666483157,-21.840101630659444 l-3.005249800303708,-7.431516383038456 3.5157684978984807,-7.959448469959973 l15.218286409185447,12.212938573511124 1.6455154680077426,6.801224953494953 l-0.9781834344127965,5.200985680072142 7.409736503506128,6.601167324464481 " fill="none" stroke="black" stroke-width="1" /></svg>