<?xml version="1.0" encoding="utf-8" ?>
<svg baseProfile="full" height="172.20220354545793" version="1.1" width="101.51005016171669" xmlns="http://www.w3.org/2000/svg" xmlns:ev="http://www.w3.org/2001/xml-events" xmlns:xlink="http://www.w3.org/1999/xlink"><defs /><rect fill="white" height="172.20220354545793" width="101.51005016171669" x="0" y="0" /><path d="M52.48042888121451,74.4130598681869 m0.0,0.0 m2.1286653555476773,-49.41305986818691 l5.210773751262224,2.646860290462263 -6.775784347116418,36.47455756813579 l-12.917843401525621,44.75726870003538 m9.908939249557035,1.8854723609135895 l16.15951095593444,17.813416441212492 5.503922599462135,-8.651418080525138 l4.811437117380717,6.37017968742817 -5.061079903538877,6.926932809883557 l-5.5108255397995265,7.82576085274859 -2.8219656923579093,6.153172915163246 m-38.11617902602038,-54.759547911668314 l0.7357516611146833,-4.734137729612158 0.052320859609696624,-3.090104639285514 l2.3745034301003,-3.1951001232310596 0.8818223197456421,-6.532587882895791 l6.757534008085462,9.515345756206298 2.809732018028891,3.926585972697381 l6.480532681598892,3.369915055724654 7.7108194645042545,5.176595473510379 l6.7066798030663,3.741313157665325 7.916839415576813,5.608547276388707 l-0.10016564265777184,6.782650501032102 5.627996310987482,9.527273706062806 l-2.6454514446569157,3.1494782114108846 -2.1874952114623905,-2.183203884330148 l-1.8208719684466197,-5.256475698808418 -7.147442755632434,-12.7074431414376 l2.754164422574734,-1.4566552302546476 2.5930635432684137,1.031388448501539 l1.1628032302391946,5.913376017745331 -5.2368794084400525,3.736317319140948 l4.370984974111292,4.426015924083023 0.6072083661885743,5.975006016760392 l10.491910787391866,4.016998109217955 " fill="none" stroke="black" stroke-width="1" /></svg>