<?xml version="1.0" encoding="utf-8" ?>
<svg baseProfile="full" height="104.79693010472195" version="1.1" width="108.70976662758267" xmlns="http://www.w3.org/2000/svg" xmlns:ev="http://www.w3.org/2001/xml-events" xmlns:xlink="http://www.w3.org/1999/xlink"><defs /><rect fill="white" height="104.79693010472195" width="108.70976662758267" x="0" y="0" /><path d="M30.735346246938153,42.51768788944683 m0.0,0.0 m14.276216762580898,3.2132352174735135 l3.9433234552335636,0.20574575529510017 -0.6558322742779166,-4.452249803664843 l-4.593520793355026,2.3416661178686757 -3.415656758554713,5.292362247234013 l0.8223702188582257,4.831331959863936 0.553672790462395,5.2084232006312 l0.40215626607226096,6.804614184336306 3.507226396751196,6.1109461965268395 l9.61040057235283,4.190205315586528 8.040551396208052,0.2948218267626254 l4.864933999787615,1.1416051020724345 9.000994284629149,2.0965348952887886 l-5.084582671021722,-17.093134596574302 m-18.639412705450912,1.1441874080678804 l-10.887320740422362,-1.69968961602515 m-16.554809549950892,-37.14829330019038 l-0.9260568968408006,2.2813795792947835 5.928652465663362,6.837000521765662 l6.120725317628726,3.3074017310188464 6.073066301146082,4.095419584328379 l0.7198427603686791,4.655887800250373 0.8965673165301374,7.448829592728755 l3.060793040342489,5.511729165062691 4.868424359700893,2.0241817802608053 l3.151688983529999,0.9354948091385812 3.769675268467925,1.646629492004182 l6.361744416841426,-0.20078157928199697 4.3043919925855185,-1.865234566743866 l3.848327583914847,-0.7413529859513038 4.02568703091375,0.6468075231131756 l2.142063484750461,0.22366864378311424 1.1277028981311465,-0.500710652363819 l0.9425788104940896,-0.24156327709913342 1.3678345965731482,0.20375057224217627 " fill="none" stroke="black" stroke-width="1" /></svg>