<?xml version="1.0" encoding="utf-8" ?>
<svg baseProfile="full" height="99.43725738886033" version="1.1" width="145.2562770076176" xmlns="http://www.w3.org/2000/svg" xmlns:ev="http://www.w3.org/2001/xml-events" xmlns:xlink="http://www.w3.org/1999/xlink"><defs /><rect fill="white" height="99.43725738886033" width="145.2562770076176" x="0" y="0" /><path d="M25,31.245180699836407 m0.0,0.0 m35.508063531734585,-6.245180699836408 l9.567152434438201,43.546337485213606 6.989823832424819,-10.232498756856637 l5.6257726761530185,-3.613481837224773 -19.132481673080914,-17.392462040750964 l7.305801918490564,9.136479832934796 4.219387441423705,9.685514988094491 l1.115340773306071,5.181292646661055 -8.915008257612289,-3.75211033776513 m-3.1823868586110047,-14.389537106200633 l3.8532502685528427,-3.5371736066884187 4.206555804377465,1.3209362449159305 l3.945275523452308,9.812684293829072 5.294338291441295,6.0912011345253925 l-4.183451997771429,-3.6331344849827407 2.308586729175135,5.0620382642295025 l7.764214757221692,1.9043860351933986 6.017620691579022,0.6322280954449953 l-0.0837731207984728,-1.500948233097354 -2.2634198272004036,-0.052790039073101064 m5.120355635663043,-11.606850811041024 l4.396025656135947,-7.245793973789841 6.182064169158423,-1.8404835929241599 l10.517276590190368,1.7227019413028677 -1.992813405098321,3.6862494183925154 l5.072705422871906,4.179141302579014 -6.73136721564672,7.52281082192274 l-10.155423014226345,2.2404777254576103 -10.01758950612094,-3.966605573541959 l-9.257336302500178,-0.6034927894321435 -6.723248121956846,-1.0925036435118352 l-6.549390943329035,2.2336127614384287 3.4379696422113253,2.8817360536040884 l8.82757127531415,4.566550671200156 15.556502887480509,-7.4371217238944265 l-6.838049587787192,-0.5640988141175163 -5.5041398112107185,1.680820427794656 l-3.4917479612387434,2.3695851275393007 6.9223544316591035,4.126657626827815 l8.927795105587023,2.358888835922009 1.4253907754371526,5.553222855746808 l1.8821067826101983,4.402790162982739 " fill="none" stroke="black" stroke-width="1" /></svg>