<?xml version="1.0" encoding="utf-8" ?>
<svg baseProfile="full" height="300.1724962818481" version="1.1" width="158.65084009347507" xmlns="http://www.w3.org/2000/svg" xmlns:ev="http://www.w3.org/2001/xml-events" xmlns:xlink="http://www.w3.org/1999/xlink"><defs /><rect fill="white" height="300.1724962818481" width="158.65084009347507" x="0" y="0" /><path d="M25,275.1724962818481 m0.0,0.0 m24.92585424026813,-8.50204439437666 l-3.1781441662695085,-41.54249909520645 30.18490154398336,-80.26256898345156 l7.056207521482425,-3.3453817718933396 m-7.229812139979348,-116.52000203692013 l9.66178456061476,3.597693347150771 3.792418830647224,3.7687789854424985 l10.059491852808,7.749781213805694 6.794370628387815,6.634933582963172 l11.487503670196084,2.0216784386259254 10.49735447613463,2.1782079390140763 l4.598909075201502,8.984635938661837 -5.680737114145382,12.878406971951076 l3.9711169229811327,12.765709153867805 1.2107215807452203,12.891541404268247 l-5.145214362628869,7.650726976748777 -0.9981095936543155,14.775138290885925 l0.10616232832853956,12.910926414737206 -4.775017838184278,4.087150662897143 l-14.203402412038205,-3.499905132459685 2.1056967144830723,-1.103023347767266 l14.141077518553903,-2.4276846515508366 7.880058967523715,-2.015660826143815 l0.21603835328738774,2.072157927579366 -9.987418666742654,0.49674839954507 l-8.934356520359334,-0.3148849535734477 -11.898124811567499,0.5585613875761787 l-13.36680219881985,10.354392105995865 0.03552194656857938,27.387508588373976 l4.347563203228203,9.851247550741894 12.095898300167365,9.279748885144008 l-3.222966921503785,15.675556010160777 -5.955573073794849,-8.648521336044288 l6.1269677294400555,-11.499503581424628 17.515122538970022,-10.171785880224206 l1.65965624617522,-9.16613497815383 -5.163256176407336,-15.905144194203364 l3.5916043773720845,-17.691874959414527 " fill="none" stroke="black" stroke-width="1" /></svg>