<?xml version="1.0" encoding="utf-8" ?>
<svg baseProfile="full" height="137.23946650636" version="1.1" width="182.37272533698183" xmlns="http://www.w3.org/2000/svg" xmlns:ev="http://www.w3.org/2001/xml-events" xmlns:xlink="http://www.w3.org/1999/xlink"><defs /><rect fill="white" height="137.23946650636" width="182.37272533698183" x="0" y="0" /><path d="M157.37272533698183,65.40084794443317 m0.0,0.0 m-29.462546268134464,17.435124445935042 l1.3021366307844933,0.03362322596867669 4.389237033700738,2.1356157364726553 l0.8468370816288384,-0.4485836273556659 -1.6959861887339627,-9.260264398763857 l-4.668593823115013,-4.349945455020337 m-14.378220534268168,-17.687029312169667 l1.4828431064164211,-7.699082117372071 12.030471992660368,-4.701359216061553 l-9.349812570967112,-2.2200055207042744 -8.351417598105826,-10.010969093772028 l-3.1496080649204754,-2.0404323131842097 -10.577530921844241,-1.5875402984058722 m-14.384608038990871,14.980765931726081 l-5.761060117598099,5.925637897453271 -1.740356414488691,-4.057676967527761 l1.1919283680006947,5.99417503873946 3.125344050856936,8.201209147974566 l2.0697265999227166,4.413706057801098 -9.852804625562769,10.00336357417944 l-12.182559604623476,4.999588475135431 -8.46656315376956,-4.222030368582098 l-1.3170741803664583,-4.2365807718082005 13.972361419240421,5.277832226942283 l6.528008174403764,4.532456385696755 2.021791150034981,3.994514843013869 l4.598348888431712,9.48214504568839 -1.0404754373382603,4.432051661925653 l-13.229150882038127,10.844984449187908 -1.883476189366719,1.285926380645377 l5.793496682194712,3.755425648387225 6.034108879407528,0.7975363713483807 l-5.534314166455104,0.8344354784328867 m-30.345051571760848,-49.83340046775817 l4.506500765985493,-4.243373353039708 1.3409452011037575,2.77642760726587 l-8.681356389351336,2.4158051765016566 -7.554244619955841,0.304246518659059 l0.07506422091703747,1.589218395361719 19.58004107162577,0.8495382178042357 l1.6467402935497366,4.5776829430091714 7.87006519787222,4.660550461314232 " fill="none" stroke="black" stroke-width="1" /></svg>