<?xml version="1.0" encoding="utf-8" ?>
<svg baseProfile="full" height="161.9256642768741" version="1.1" width="113.45616753878346" xmlns="http://www.w3.org/2000/svg" xmlns:ev="http://www.w3.org/2001/xml-events" xmlns:xlink="http://www.w3.org/1999/xlink"><defs /><rect fill="white" height="161.9256642768741" width="113.45616753878346" x="0" y="0" /><path d="M88.45616753878346,136.9256642768741 m0.0,0.0 m-9.172635998751707,-32.27409123695827 l1.9136255685308847,0.3130495928979479 -4.184961329485118,-3.2453473730606084 m4.240994174710668,-28.77464976388348 l-4.472282911440152,3.1082215429555937 -2.5695169453557067,2.408151888648416 l-4.418220820495542,-11.20978228637117 -3.7477815630790747,-3.7809201972099973 l-11.126860974562284,-0.739452737258929 1.76362964855738,-5.188697719637651 l-1.6460756747696064,16.519774673706475 2.0742756651978707,6.67527143048644 l4.796147996575416,3.5553595679742798 0.8487606034369536,2.9034805837046167 l-7.338488686316856,2.8295013842127656 2.2898358254947095,5.718815311484498 l13.535968356930654,0.179797070359468 0.5449123516074965,-5.108077495416756 m-46.787492825569444,-64.28743977518606 l2.423050223449624,-1.5286287383217003 2.579188661722227,0.8918378235661697 l3.2351723395681944,6.7970594176117505 -4.310487204450265,1.0525256442419817 l-3.541808404264023,7.78295176019703 4.235902912474238,-0.6103210923085822 l10.033299637464866,-8.053844820002011 1.4015509826194472,-3.4567632384156446 l-4.967558800596072,0.8339343488088931 -2.8353053142811295,5.116246481703258 l1.2360045674736524,1.3354795897414145 11.830071127020478,0.44927845160829716 l1.4390480985551297,-1.26500447606277 m2.0099231636036774,15.8556736149177 l-0.39144093949378317,6.240330148069455 9.236743536664273,-1.8635855000992052 " fill="none" stroke="black" stroke-width="1" /></svg>