<?xml version="1.0" encoding="utf-8" ?>
<svg baseProfile="full" height="144.61260535107772" version="1.1" width="117.62100269009655" xmlns="http://www.w3.org/2000/svg" xmlns:ev="http://www.w3.org/2001/xml-events" xmlns:xlink="http://www.w3.org/1999/xlink"><defs /><rect fill="white" height="144.61260535107772" width="117.62100269009655" x="0" y="0" /><path d="M52.02271935306263,90.00207958742196 m0.0,0.0 m-1.032390549169655,26.0803562378367 l-1.399563135553551,3.0875433514244186 3.2720234215818356,0.4426261743946447 l-5.408650582050003,-5.602845326311874 -0.9690392783204961,-19.587034937813563 l6.900171408883171,-4.974130215973129 -1.1516636412888426,-18.79327513714686 l-6.649164697578816,-1.55078667897019 -2.1777226551822952,-1.5739340380612814 l1.8935743880958027,-2.886682539569275 -4.529713023668046,-4.49242259025844 l-5.633933466578402,6.417706042210143 1.1544184994705848,2.116672041730502 l6.430632571332047,8.354178508712325 7.25454187560415,2.5531344731531305 l12.95802971852285,14.469521187977938 -10.845688370684398,12.02778255526447 l-10.283776398951147,-2.890413308179028 -5.952642818678638,0.7039509503646063 l-8.300942977066601,-2.414452523512503 -2.551219641782174,-0.12264011456547763 l12.427507382487205,3.425436873896311 2.873229828851903,-1.713993188879231 l-5.467136761642702,-8.81442906348727 m7.270781409644584,-61.16667712834019 l-0.13021825975155513,9.432308537056121 9.707051119274798,9.268869924743143 l-0.8917367696997077,3.9396872243567262 -7.806978822669462,4.480019381107084 l-2.5546159368486108,5.605047009150821 8.853885068756314,5.590828045885501 l11.212065332612328,-0.13397130772893923 -1.203232300133663,-5.804003992217853 m21.10596925092632,-37.480813814056546 l3.342437817821818,-2.995242201614887 4.75222082252882,0.12492985654588594 l-3.8897136421629983,10.44325690396714 1.6254490924496605,5.831698244260229 l-7.385821340110375,4.0758452821000395 4.590454012254558,6.017305149500595 l9.189405385507303,-3.6544090901718107 -8.990139241175786,13.554253544538676 " fill="none" stroke="black" stroke-width="1" /></svg>