<?xml version="1.0" encoding="utf-8" ?>
<svg baseProfile="full" height="145.03120363099595" version="1.1" width="107.7160803995684" xmlns="http://www.w3.org/2000/svg" xmlns:ev="http://www.w3.org/2001/xml-events" xmlns:xlink="http://www.w3.org/1999/xlink"><defs /><rect fill="white" height="145.03120363099595" width="107.7160803995684" x="0" y="0" /><path d="M25,120.03120363099593 m0.0,0.0 m17.16673031747776,-56.62662258667187 l-2.1466537863519117,-19.934000301111404 12.608415953202767,-11.397067642805455 l14.16872763476577,-7.073513100407214 -9.099171798997917,18.610144247974105 l2.2797835513599116,7.120803313582315 12.281611117852783,7.522736947230318 l-2.787276622948691,10.993664053981092 -9.024003814181466,-3.573624920920223 l-9.472963093922075,-3.0767543889175184 0.3404186596606519,-7.790065456753378 l1.7507631719147032,-2.19095284511211 8.367223736975788,2.0585436080270263 l6.237964884936613,1.7036068211497728 -2.275471795146208,2.2142229838843406 l3.01487986569905,6.299434263761539 -0.7760504225530812,2.2706076992880364 l-0.33584186550665446,7.694070058736496 0.2208352578594687,0.28469381299956464 l-0.625182407134573,14.331215941131354 -5.524315800965945,2.0860333862076943 l-10.96112674832738,-5.559045690777921 -1.9274655022421887,-18.83528469333663 l-3.2747102393862497,-10.90745666495096 -2.4008016104651557,-7.5478720362370995 l-10.763464530594357,-1.8266237881934195 m19.433147709116973,-1.32807593990095 l12.380240954136578,1.0661305814954447 3.658071341107191,7.895647864543545 l0.9640316219760379,7.630404829820794 -1.0969753455081626,4.457602196206472 l0.0015354107743966589,4.253766182244898 10.03524787882253,3.581551828746742 l4.960631057616669,-2.998739421373727 -3.2560823115681923,-5.628310151053346 m-13.246654079417388,20.005894237948052 l0.08732630204164726,7.261439538307733 4.408659308268027,1.5059529271475347 l11.163296632048526,-4.917037486511482 1.1807498071721434,4.4081296025644 l-1.5958622030898373,4.988111780783143 0.1481332905773053,3.567769585390704 " fill="none" stroke="black" stroke-width="1" /></svg>