<?xml version="1.0" encoding="utf-8" ?>
<svg baseProfile="full" height="226.7869635239448" version="1.1" width="132.06712532265308" xmlns="http://www.w3.org/2000/svg" xmlns:ev="http://www.w3.org/2001/xml-events" xmlns:xlink="http://www.w3.org/1999/xlink"><defs /><rect fill="white" height="226.7869635239448" width="132.06712532265308" x="0" y="0" /><path d="M107.06712532265308,80.34447244391508 m0.0,0.0 m-1.8201372123908117,24.409827744995173 l-12.961307503538714,14.40329428336183 -45.41717153662536,-24.27706461159466 l-6.826662331591369,-14.260142567591505 -15.041846738506832,-2.0117850564081934 l4.400273240909081,-37.888786468992386 7.816391197146411,-15.719815767685336 l6.195865247480513,1.2791967043016341 -8.062305420121737,35.15055887262162 l7.8418398302815895,7.149884531700665 5.478253703282482,29.133186968728673 l-2.81823873563402,11.468859019729926 1.0925614945119255,18.11898878032685 l17.151213095106606,9.644129688568473 7.73321135368763,4.065254826872703 l3.296508381102848,-0.1656440851235763 0.7320508961272082,-4.366729960412347 l0.41030284468253814,-14.327489745887409 0.7161780731991463,-18.688384690051613 l-6.956766962490635,-9.767513673713523 0.5951156368630606,-24.673517104020117 l-1.3485489175977854,3.8425148411082244 8.10804778491439,9.27905705558886 l1.3977068097798284,19.727982735292738 -5.264836799872154,24.701296312599155 l-2.2788144817477516,41.67628204543435 3.7884413107086994,19.82469953371103 l3.8659206070812515,13.714350866568479 2.6370695998524356,-2.171498164088127 l2.7894767937906253,-4.794678821793618 -0.9138937663350333,-6.161075429724836 l-0.6711916890091976,-19.671470037711348 " fill="none" stroke="black" stroke-width="1" /></svg>