<?xml version="1.0" encoding="utf-8" ?>
<svg baseProfile="full" height="125.86875306373554" version="1.1" width="96.8274671177937" xmlns="http://www.w3.org/2000/svg" xmlns:ev="http://www.w3.org/2001/xml-events" xmlns:xlink="http://www.w3.org/1999/xlink"><defs /><rect fill="white" height="125.86875306373554" width="96.8274671177937" x="0" y="0" /><path d="M71.8274671177937,46.83829271127689 m0.0,0.0 m-18.321236843888745,-2.040402017343881 l-8.010380998491003,-19.08448369956236 6.037958872665368,-0.7134069943706497 l3.093148729024034,6.930091356411651 -2.1496464608089965,2.061103625331892 l5.2912949879608195,4.765503417287686 -1.9955253477690953,5.345400723170024 l-10.0217030902516,3.5475126786755564 -0.09545321176456874,5.806367322602723 l20.43019182253988,-2.748511148606092 3.3063313641306413,-4.815150198244417 m-34.86000561407483,1.9304137475567784 l-0.08295166225423319,2.2031494047509406 8.407800709995575,-2.435611692557932 l5.096916122535845,-2.2286196898397925 -5.7875682396960935,-3.396743827158544 l-9.337550738798665,-1.4868224478486483 m-0.9816374794950922,15.860465143391792 l2.2858977438786905,6.620961019079542 12.19176578591709,-3.185383433679986 l16.497421175934566,11.11575118293713 0.513987717919091,-2.0432853156672093 l-1.7968138871407315,4.525958382094379 -9.138883020995134,1.8630984996752067 l-5.756721402476397,-7.488657854871028 -6.9894363122644965,-5.879186112281683 l-7.349676991675809,4.898239790796342 -1.6342689133589108,-0.08599127909666729 l-0.8134770904489494,-4.71263326965677 -1.5297408749238142,-0.3105194384762662 l6.582342768035805,0.9394500606241796 -6.28755690181567,15.068564030840417 l-0.01643408955378657,3.309822327902857 -3.6058557463845,11.769528714271091 l7.905508201238458,8.124487344320386 " fill="none" stroke="black" stroke-width="1" /></svg>