<?xml version="1.0" encoding="utf-8" ?>
<svg baseProfile="full" height="217.82857635710764" version="1.1" width="115.88412728061144" xmlns="http://www.w3.org/2000/svg" xmlns:ev="http://www.w3.org/2001/xml-events" xmlns:xlink="http://www.w3.org/1999/xlink"><defs /><rect fill="white" height="217.82857635710764" width="115.88412728061144" x="0" y="0" /><path d="M46.58988725289801,86.79751584629072 m0.0,0.0 m10.07003335448891,35.028824197356855 m20.380237294348092,-14.532170408373714 m4.864135934345913,-68.00934443864475 l-0.7235545577113429,-2.396768724725447 -1.3575792333272545,-2.2685760029858573 l1.365077434800546,-3.083588366605271 7.546293725651072,0.09223832154364175 l2.149596075117502,1.2699461408534385 -0.5602662508948691,-7.89807656470962 l-2.206093446480553,0.8490569991551363 -1.8346639564198546,1.7520979065317603 l-0.9916903575989161,4.642188546517295 2.1596561176918674,17.089203676694666 l-5.259099111007696,7.189239438969339 -9.459988040769435,11.401409075347638 l-1.7227103835682072,5.829463668957007 0.2793290376635005,9.172401627938415 l-2.6748921024693884,5.748421686786412 -2.930462356720501,9.935987087204982 l3.3469397417583617,8.286755872438336 2.228346628372009,14.83813733602486 l-3.0749814207987622,11.312829127366246 -3.7667675912227514,5.676528881101917 l-10.798642081884184,6.739200140520525 7.126102322232178,9.509838262936071 l2.6123384995008956,8.108368027225339 -3.890134374038179,15.136708793361588 l-7.29766023365405,6.787823332645613 -8.513031769422936,7.822916869384506 l-7.283874813905224,-1.5382342467951864 -0.8746987587540611,-6.48922753206005 l-4.960515511518249,-11.639060664172819 -5.53666706670243,-14.567679255508379 l2.7501574968945346,-7.575382776559835 11.222268249683813,-91.10725392440813 " fill="none" stroke="black" stroke-width="1" /></svg>