<?xml version="1.0" encoding="utf-8" ?>
<svg baseProfile="full" height="156.55297349624175" version="1.1" width="129.12648003963614" xmlns="http://www.w3.org/2000/svg" xmlns:ev="http://www.w3.org/2001/xml-events" xmlns:xlink="http://www.w3.org/1999/xlink"><defs /><rect fill="white" height="156.55297349624175" width="129.12648003963614" x="0" y="0" /><path d="M28.641115013640558,67.0699435592649 m0.0,0.0 m-3.641115013640557,-33.380423583783916 l5.804538689870548,9.715917043614585 1.9288378387510487,-1.8990549010166387 l-1.8634425052970087,-0.27477482084281135 1.349997815704334,4.858964435826932 l3.8742941349606124,-0.5111035553831039 -2.5068843330566506,7.549294530824079 l10.609055676876169,5.581499104720671 4.722725338063907,-3.2641184214237273 l0.360187381221056,-0.8396386629778124 -0.29679174146931775,-1.9258457050272915 l-2.102067418928486,6.809113607206063 2.825239386207662,1.4503930231578182 l-2.1193401374618714,2.2036536966328937 1.254689945949469,5.952657324771307 l0.9191832065728345,14.302929715854635 17.45382155860231,1.6580611260728428 l9.303061164052163,-6.416363260779215 0.8705657857234079,-3.209022294503204 l-5.184890764359382,2.093998078058197 0.2458360277138976,5.192213192600474 l11.873379058939491,0.16112991770027507 15.799998462493452,37.211473118705484 l4.0044854685064895,5.559115233145326 -1.2145926209188416,5.90296199382296 m-2.6720869286847546,-70.79780153128053 l0.17774868530493973,0.8913246239546274 -11.866196341118313,3.376667019879199 l-3.903487266044635,-1.799179380789209 0.9689023098746061,-7.0835435871023575 l-0.17511940020689482,-9.30327371058254 -4.43334826234646,-4.218259892089328 m0.33689565774177643,-6.8693353462874 l9.49901620736091,-5.372433862958315 6.439922203802542,-5.377137828985877 " fill="none" stroke="black" stroke-width="1" /></svg>