<?xml version="1.0" encoding="utf-8" ?>
<svg baseProfile="full" height="211.16190943283908" version="1.1" width="145.0292843769525" xmlns="http://www.w3.org/2000/svg" xmlns:ev="http://www.w3.org/2001/xml-events" xmlns:xlink="http://www.w3.org/1999/xlink"><defs /><rect fill="white" height="211.16190943283908" width="145.0292843769525" x="0" y="0" /><path d="M60.49744013581005,186.16190943283908 m0.0,0.0 m15.402003290437964,-15.950239047711614 m30.7851807997211,0.8916820422437374 l10.563520149142219,-77.80394887745182 2.7811400018411483,2.3018890060410278 l-3.6792229901741877,-1.3176843275815553 -5.542547215099642,-7.592295213254019 m-30.141944004037157,-40.440566722358135 l-4.520289909405937,-1.203593548684228 -12.328580409764935,-4.4764733294272325 l5.823449080479601,-4.991935897136079 4.152441427287467,-1.9299084973468388 l8.561923814732621,-7.333214101304849 6.185918998141766,-1.3156209188674566 l9.653618010672545,1.9988892002115377 3.472003039053514,5.128679135440777 l-2.0217027555179192,2.210898481066961 -18.426707344618258,0.47745177927794313 l-14.567844448528442,8.166952961047704 4.792612679017969,6.072867544282597 l5.1566255194392285,7.774801028396334 3.015922027714127,7.329075183566493 l4.851334217353789,5.970134084423877 -14.746830364807243,7.381054039088575 l-9.767815841798836,0.23322144499718034 -11.692353873790994,1.2221570963261785 l-11.568456508668682,6.865576362192832 -0.5721569956783018,12.506713780971328 l-5.4962730983988495,12.303246092077034 5.368616429754325,8.016630214280939 l10.939327995306778,14.203327537735326 7.4381800541984555,7.577696344683226 l2.5687445586986954,5.773348627389937 0.9543148002088705,10.377997377581245 l-32.89159126872285,13.588682461903298 23.528829519032776,8.307675938242955 " fill="none" stroke="black" stroke-width="1" /></svg>