<?xml version="1.0" encoding="utf-8" ?>
<svg baseProfile="full" height="108.4999481045752" version="1.1" width="224.0905800630696" xmlns="http://www.w3.org/2000/svg" xmlns:ev="http://www.w3.org/2001/xml-events" xmlns:xlink="http://www.w3.org/1999/xlink"><defs /><rect fill="white" height="108.4999481045752" width="224.0905800630696" x="0" y="0" /><path d="M199.0905800630696,82.5295713378085 m0.0,0.0 m-5.73792278498579,0.9703767667667018 m-52.74225996679435,-14.09642650051603 l2.714998731173333,-12.689288345969132 -1.0312591751418159,5.269053981963046 l6.132599420162401,12.465022338245365 1.8091780590199047,5.515110201566384 l-5.8522524156797004,0.954877893426215 -7.648155776390777,-3.173931057633692 l0.016746890030085552,1.0645750015447293 m5.103270958802294,-35.80006155946739 l3.62557886162404,-0.5735397665113409 -0.1410517598594313,4.0808871209319335 l5.600617510676611,6.083107686590826 -7.484204634659191,5.51083849035167 l-14.938976589664565,-8.61054408454829 -3.115993060183512,-5.079313756442718 l-5.395418874285781,-6.0828394862472495 -7.288924731467033,0.37620471308969977 l-3.4067018228531833,1.673156991960422 3.7565177825514384,1.0685898276945938 l-5.244761942767133,8.164384485310114 -13.263468396392746,-0.8220935736934218 l-9.0196816825546,-0.7456141993150633 1.9963488242805887,-4.2733462805186395 l15.007343060420396,-2.211824735827329 -3.5904402480987434,-4.678729106560345 l-16.36371425452784,-3.9943334424574894 -11.01507667110642,5.5556830405109165 l2.7471142151580565,2.703580112373796 10.086015485092423,-4.941912100275418 l3.0378294010448434,2.680076265257239 -6.2309173120925125,11.998916961943626 l-9.726775917461879,-0.38188022307940245 -20.516538450147515,-18.485023659231754 l-6.3737278772700146,-6.031998548589828 -4.03738767611536,-0.9913127904512699 l2.199791711685262,1.1952042646575523 -1.9602535447032599,3.3860468439997846 l-7.2020620797521415,2.288471625402491 -7.568517841310034,3.620140010438978 l-1.0280854885259683,-3.9914552169847295 6.644359745528385,-0.014117050985369417 " fill="none" stroke="black" stroke-width="1" /></svg>