<?xml version="1.0" encoding="utf-8" ?>
<svg baseProfile="full" height="151.90746247091536" version="1.1" width="134.1484055678995" xmlns="http://www.w3.org/2000/svg" xmlns:ev="http://www.w3.org/2001/xml-events" xmlns:xlink="http://www.w3.org/1999/xlink"><defs /><rect fill="white" height="151.90746247091536" width="134.1484055678995" x="0" y="0" /><path d="M109.14840556789949,25 m0.0,0.0 m-4.19451059165241,61.09577942287295 m-1.7647716035192995,2.6648427366551286 l-3.1626918924720213,5.18969415587074 -4.432631477215267,8.980182783338973 l-3.101738179010154,6.855709396097273 7.53752833886953,1.9330897321392178 l-4.383223423055522,-6.42146320139944 -6.741085624210079,-9.547065598854992 m-23.164110678771614,10.865700455752009 l-5.11599489530809,-2.209832157154694 -1.6757326256312515,-5.608294226956326 l7.735779424292333,-6.99682734914423 1.1117970317988806,2.4635093548556926 l6.129446784875547,9.245819947615729 0.8066095326525499,6.411919607868389 l-1.882250298327869,5.4539446196007875 -0.5492740977929211,1.5228143420698663 l-12.932829268210595,-4.620152397069066 -8.083566961411078,-9.461867667421446 l-2.5027171404317428,-8.61551939809642 -2.255660219433998,-6.373825709254513 l-3.274061808294394,-3.9474351354166863 -3.3070015333918805,2.1090003641083195 l3.2782336619964716,1.1538752180423437 11.93869147547033,0.07833948221265229 l-1.1733288148782073,-4.308595535684736 m-21.9570393384785,1.8970868955431741 l-7.032271346358212,6.234955771385211 0.9100442236399423,3.0001267055811374 l11.286559721394607,-6.04098430593387 1.432700404795452,10.4427624136871 l-0.5501390312930228,7.2880427280702005 -1.610842649924897,6.2049557510365245 l5.00522293942779,7.436567463302725 -2.4295958500474697,7.530605805595673 " fill="none" stroke="black" stroke-width="1" /></svg>