<?xml version="1.0" encoding="utf-8" ?>
<svg baseProfile="full" height="122.83715089632197" version="1.1" width="90.87338118414104" xmlns="http://www.w3.org/2000/svg" xmlns:ev="http://www.w3.org/2001/xml-events" xmlns:xlink="http://www.w3.org/1999/xlink"><defs /><rect fill="white" height="122.83715089632197" width="90.87338118414104" x="0" y="0" /><path d="M65.87338118414104,30.86219283531736 m0.0,0.0 m-31.858621984561488,54.32230386205133 l3.2709326438713258,6.581855629973644 6.298459393138357,-2.515992576573749 l2.403176474669075,-3.607506238438375 -5.699467038540343,-4.44293828916664 m-14.335552489239236,-1.6105840110293457 l-0.952308183478733,1.5226778795111486 6.7150925015928875,-8.165719525640029 l14.072343724956617,-0.2790708324640137 0.5102761349876284,-3.9157362357517167 l15.773439726100312,-10.832050784894477 -0.12726771734462242,24.181789062102936 l-1.3190776439948693,9.948925201360794 -8.159211457482574,5.787004919963105 l-3.3945019913373353,-1.5681299676623333 3.4748409746183673,-1.9971594076975074 l4.527685552624978,-1.3282244658551123 -0.3800000994256422,2.743619717884993 l-1.2782055564464292,-10.983826738843975 -3.2552553509835818,-0.2911827250091992 l6.018753811185592,-10.484691131168752 -9.55298261947946,-22.397568414070133 l-0.5828366598834668,-8.112784558423535 -0.7942007204169971,2.7153673950215484 l8.661300769246608,3.3653785969615515 1.4746467424835124,-3.4976927109245737 l-8.117442454588133,-4.635344250574278 m-11.80757269138366,-12.860711358262717 l0.8088478091359698,-3.504200877697956 -3.341060284246311,7.555927754612766 l3.4142391808752075,5.756308333338076 11.835800966045408,-4.012608814538286 l9.610337197104197,-5.658823330850345 -3.9380679988735356,5.224747817483794 m-13.233193637314189,-3.892320396490157 " fill="none" stroke="black" stroke-width="1" /></svg>