<?xml version="1.0" encoding="utf-8" ?>
<svg baseProfile="full" height="240.27213660470292" version="1.1" width="127.51777177675298" xmlns="http://www.w3.org/2000/svg" xmlns:ev="http://www.w3.org/2001/xml-events" xmlns:xlink="http://www.w3.org/1999/xlink"><defs /><rect fill="white" height="240.27213660470292" width="127.51777177675298" x="0" y="0" /><path d="M25,196.8356505932659 m0.0,0.0 m9.750691062022824,9.435470241570425 m13.254370896378814,9.001015769866596 l-0.9816730708207334,-29.630493830478887 7.905373127042183,-6.3367221293987495 l3.7571521707925783,-7.227199871098537 4.707767679048742,-1.8926982648490713 l6.509203695944083,-2.0797825535687107 -2.917704380760109,-6.1768431829518144 l-1.2788620933417265,-16.72889115658568 6.24873598744808,-12.630255293708503 l4.639170471517647,-9.777253902593518 9.303551736976562,-1.9970447330468333 l8.039042299008003,-4.275782391337654 -1.839199027436289,-0.19787411258101573 l-0.34248320640827973,-6.97954153749022 -4.851316616865787,-1.2189266891066568 l-5.698279508739084,-5.796512547772001 1.576140294487327,-7.204846276181962 l-5.1405269749518245,-7.755271643581407 10.23655286727099,-17.10037384907233 l6.53515487442359,-2.591990482417369 5.264464563202315,0.2867238946141648 l-1.4387811405808903,-1.42337857363309 -0.8299773470665966,0.8564764405281117 l-14.395484118899683,1.807914154379756 -1.459947733424396,-3.051085467375841 l-3.6393391923153895,3.093220374894905 2.3444756180478645,4.327530676026405 l0.17473628109979766,2.9409285606370785 3.64654975289044,6.209346060448328 l9.397520038826848,10.105484291416378 2.8885847307322754,-28.81528486790753 l-2.320038170756502,-17.62902358314638 8.472146211959329,-5.90155592970205 l-34.78743722306903,35.70950485230684 -3.3756050257105716,-11.555940712242476 m11.385045640862403,-7.43283707771709 l11.511692171674751,-32.20185525040947 " fill="none" stroke="black" stroke-width="1" /></svg>