<?xml version="1.0" encoding="utf-8" ?>
<svg baseProfile="full" height="130.45745675654922" version="1.1" width="114.39363314063108" xmlns="http://www.w3.org/2000/svg" xmlns:ev="http://www.w3.org/2001/xml-events" xmlns:xlink="http://www.w3.org/1999/xlink"><defs /><rect fill="white" height="130.45745675654922" width="114.39363314063108" x="0" y="0" /><path d="M89.39363314063108,25 m0.0,0.0 m-44.044857573493275,34.818568567262304 l1.95053785457026,-0.5752958451854823 -0.18508984810119578,0.9287678735893715 l2.478529405832426,-3.4455724532468732 -4.24753319381047,8.494952953245075 l2.0965401155031125,13.575269339060334 -2.839384385642659,11.139331063807822 l1.0502071105039834,15.521435258016663 5.552635755141765,-0.8609543395350217 l-3.9244575315688923,-34.042949685799016 -6.350923775063506,-8.097281152346833 l-8.379679065471603,3.6888624210700853 -6.565012107562823,-1.2936004140934625 l-0.9851459014682051,-0.032484667797221534 11.849582713279428,8.044053925813731 l4.9052583506517875,-0.36763141060144183 -5.146742326004983,-5.307443284403785 m24.91213568305247,-0.14133985244611624 l-3.588314879925182,-4.433508824582392 1.9175913256880655,-6.623714678907084 l-2.023461506433997,-5.834117722831281 -9.771682893361993,-1.0464443810257762 l-3.5517379419587556,-4.494050548517429 -1.549430992413609,-18.495260107199513 l5.13828537931838,-0.2249001006620155 -9.055888260992422,18.957511563733142 l2.8610239929840278,3.0199914521870097 17.519485989282828,3.5454096837771742 l-0.6370970865411472,0.3727172172979956 -12.100633864217999,13.764558786421086 l-1.5544441593918816,6.483231995232615 1.8202702690495343,4.831853422011139 " fill="none" stroke="black" stroke-width="1" /></svg>