<?xml version="1.0" encoding="utf-8" ?>
<svg baseProfile="full" height="533.4038721434463" version="1.1" width="135.81324906794228" xmlns="http://www.w3.org/2000/svg" xmlns:ev="http://www.w3.org/2001/xml-events" xmlns:xlink="http://www.w3.org/1999/xlink"><defs /><rect fill="white" height="533.4038721434463" width="135.81324906794228" x="0" y="0" /><path d="M54.752663834444746,508.4038721434463 m0.0,0.0 m-29.752663834444743,-101.34614345478337 l0.9061181349540628,-33.55214398053381 20.86160412497433,-68.16904511885156 l35.21725567859083,-62.120107666355025 7.588741994185519,-30.93635224262818 l10.505841482969888,-4.429157249962075 5.400304257286914,-6.881516816473999 l4.912367929202353,-6.768129036850315 0.42101546577837584,-8.704851807650398 m-2.8288705980615947,-58.69544206462743 l-9.617740802948589,-9.48520472623948 -7.753803589226434,-8.959475478870061 l-18.727247442308254,-8.945301706776785 2.0697570733555772,-5.1048082852535845 l2.8223902497261957,-11.37874685926846 -1.8267468035999084,-3.9140588409070753 l-9.75109997130338,-2.951458273017512 -11.489160619968484,-1.8980549660297685 l0.9189457217037444,-3.3191427080183256 6.1192759483309,-1.4937225768381046 l10.568365154343326,-1.4688239069364541 2.2037152888143243,-5.9881957182209264 l2.9819073793538866,-1.060660002651882 4.672353156894958,-3.891944389915499 l0.3501558537311189,-1.7153453293738312 6.087071578675971,-5.979766172529109 l-5.565119685321253,-3.043469284958793 -13.972523168095691,2.7074554082518043 l-0.0699637814962871,4.5938554240307 0.3155734052129046,10.117489059365058 l2.2661028068107605,13.315792816182823 2.8465848608241737,9.780507245436505 m1.374358660051781,7.917241760244544 l-32.13530299858184,37.298253035190406 3.943034040522897,-106.93339822762643 " fill="none" stroke="black" stroke-width="1" /></svg>