<?xml version="1.0" encoding="utf-8" ?>
<svg baseProfile="full" height="144.59448738487282" version="1.1" width="180.55372076207965" xmlns="http://www.w3.org/2000/svg" xmlns:ev="http://www.w3.org/2001/xml-events" xmlns:xlink="http://www.w3.org/1999/xlink"><defs /><rect fill="white" height="144.59448738487282" width="180.55372076207965" x="0" y="0" /><path d="M141.75727480930607,110.62306756707237 m0.0,0.0 m13.796445952773585,8.166218914291482 m-7.523495274421679,-93.78928648136385 m-19.7482089587674,92.35703214094862 l10.566998684350342,2.2374552439242024 -16.389432065737644,-3.054073228902683 l-5.632216083575653,-12.789883048829857 -1.7148673567571204,-13.123413093118291 l-8.885946621848573,-10.132533895983606 11.334400637844508,-9.87929162726587 l14.553420121547278,-23.390260605940895 -1.2283694469770658,-1.6484434942486048 l-16.127522367613302,-1.001333026125632 -13.736307701565273,6.913304157063981 l-15.44414871142758,14.033481497808422 2.2216558227372194,0.9851960117789016 l-2.4346610404943867,-1.7113337754315383 -2.9469578130067986,-5.548242342715186 l-8.563709882072024,-14.08186224998694 -18.75826349297177,-2.643245092365667 l5.781104976381629,8.994592481540492 2.3481541906274264,15.001363641454391 l-1.8110230476327571,14.262684725808574 1.0185820526268934,-0.8297487988862773 l-1.3735466060153414,10.275690522907096 -18.037608353220847,13.891580429330212 l-13.196515794719117,5.933197981123271 0.7853768465840905,-2.483911991254427 l3.8036507675778717,-7.865174594532004 1.057475132151291,-6.536653890855817 l-1.2369365826008927,-1.839232332665497 -3.6764439375141977,2.744259265971932 l-5.558358855568792,10.545796052207283 6.466081899828274,11.123940886977701 m-4.284657458871983,-72.22457654730033 l6.461843401858478,-3.1550541129628797 " fill="none" stroke="black" stroke-width="1" /></svg>