<?xml version="1.0" encoding="utf-8" ?>
<svg baseProfile="full" height="177.65915416425264" version="1.1" width="112.97496106302286" xmlns="http://www.w3.org/2000/svg" xmlns:ev="http://www.w3.org/2001/xml-events" xmlns:xlink="http://www.w3.org/1999/xlink"><defs /><rect fill="white" height="177.65915416425264" width="112.97496106302286" x="0" y="0" /><path d="M46.15195658800545,106.3712829200393 m0.0,0.0 m2.7748034612626857,0.6739241869576496 l18.20831158740431,16.931056798063835 6.438151330288047,-34.52947543562159 l1.267919797840147,-8.460400020477854 7.204120273457477,-4.59007933626852 l5.929698024764747,10.761628756797622 m-21.315077651205673,-19.332521555119275 l-4.597452332639265,-3.5925710301158853 -10.519219303924976,-4.107277784356478 l-26.543211775252946,-0.5169596705372247 9.86940539985744,6.544619341693505 l11.655280315330158,5.415005829364811 -4.297124732856131,3.167569202355882 l-3.884761307074871,0.08731985702331711 0.003000201460655605,-5.054769980799462 l3.6559834236004205,-13.113951641385428 11.950965392589948,-13.662001103543844 l-3.868211027283419,0.4020045641693193 -17.196801560783445,-0.23464928825686798 l3.2654387136098473,2.5236198405464694 11.267792779463294,-14.51444257003493 l-2.4004302798228694,-5.413047453826234 -3.701019317729385,-0.7558844266681003 l9.37747887795462,6.493299719506754 9.886677525603146,35.1538210252467 l-18.184043579307495,16.13680254745399 6.818814027115145,13.023957777718813 l-2.998352576181833,12.159359673910645 -4.67610808274579,12.249266979861249 l-8.020864497221968,6.219188231349354 4.791394812143723,4.79105137213871 l3.9826927397632494,5.474578946448174 8.946668748023553,2.2807884736310755 l19.14567142468775,9.271874274332758 -1.0910796339587907,4.405165142654436 " fill="none" stroke="black" stroke-width="1" /></svg>