<?xml version="1.0" encoding="utf-8" ?>
<svg baseProfile="full" height="226.42630703702397" version="1.1" width="101.20041225704895" xmlns="http://www.w3.org/2000/svg" xmlns:ev="http://www.w3.org/2001/xml-events" xmlns:xlink="http://www.w3.org/1999/xlink"><defs /><rect fill="white" height="226.42630703702397" width="101.20041225704895" x="0" y="0" /><path d="M25,166.4139581523631 m0.0,0.0 m8.883845387456137,35.012348884660874 m4.7592323788510456,-30.705848812560053 l3.6513188587058223,-19.02604410739668 2.102089800958703,-4.526598579355799 m-2.387633210980631,-34.82685536182409 l3.862559481297957,6.9125390962748146 -2.3531441437615706,5.405251387067134 l-0.5456709294171558,6.435773575710737 4.832293556031775,-0.09275329583942976 l9.70129407920972,-4.98589380602388 -6.7891791376672765,11.356849718788387 l-11.522184613028909,11.367804337721314 4.472729814393027,8.219502387045143 l5.487874619430425,-4.437080815290365 7.841755511605963,-8.465928799064862 l-11.560519793832711,-8.292988504726475 m8.912147551203521,-29.01836708947624 l-5.546443208385967,-15.192315687216036 -5.490299885179295,-9.515170220018708 l-3.7238998089032997,-6.258703464091642 -11.960196188474397,-1.3378276311100137 l-0.11568079268987008,-7.8514444458063615 8.440287426683355,-6.464775634071198 l15.386501664171295,-12.372466983761756 -5.336997953119369,-13.346937777416974 l-3.2764705653427493,-5.520703415846449 12.055426823686902,-0.6278865095682412 l8.627001177311007,-0.03971806029821917 7.029527921691413,5.872481779027852 l1.2345543274528563,3.7173996109150425 4.528292107691224,4.474143912738749 l-11.163840734088097,6.808506477572955 -14.311475974449253,2.9073862635001193 l-6.212975899217144,-1.6382918730865486 -9.248884681786667,-3.1734659602455864 l-8.611029643232305,-2.366137969211406 6.970821949597756,-7.5064136998672355 l2.998631716493645,-12.313327080211982 " fill="none" stroke="black" stroke-width="1" /></svg>