<?xml version="1.0" encoding="utf-8" ?>
<svg baseProfile="full" height="170.98526454426914" version="1.1" width="131.90492267448371" xmlns="http://www.w3.org/2000/svg" xmlns:ev="http://www.w3.org/2001/xml-events" xmlns:xlink="http://www.w3.org/1999/xlink"><defs /><rect fill="white" height="170.98526454426914" width="131.90492267448371" x="0" y="0" /><path d="M65.21088246346446,91.29736625610703 m0.0,0.0 m41.30112302892641,-21.414535365000646 l-3.2941437853740005,-0.6397736770930074 3.687060967466856,-4.7012953239312445 l-26.640977620186263,19.273895941516983 -0.23728152735403343,-6.071343002131875 l2.2186143111508563,-11.041530485867012 -0.31663510561333885,-7.700597257978677 l-2.0556004267173877,2.92334646549128 13.348882214069066,21.334894963773447 l0.7111398157835225,7.03309120073754 -13.271154262399905,13.69067455982305 l-7.404136182349363,1.515226029488274 1.8999642349679893,-0.29726768636716433 l-11.681873595563083,-1.7981862109939006 -14.294624140703602,-11.593540431845287 l-3.4030907604823994,-3.1939377676892127 -2.1170453701518537,6.548655349363697 l-3.6091651058424614,-0.3275172674381488 0.15879504855420506,0.06290774422507694 l-10.190376118101398,-21.346968164372754 -5.020358083544265,-7.093167720460209 l11.679178784062039,-9.508199625715914 14.691862455559868,-20.647586938902915 l-7.00104272521058,-11.304611584738394 -3.5764977958518074,23.75458354769674 l6.488116020553269,8.506084450428302 -1.8685120509351993,5.768548918308456 l10.825636886537755,26.219730133885122 3.6867775609626756,-0.7513586564931257 l11.03778245645465,17.134362927281064 -4.960709090350118,3.762285715906526 l-5.212295771798718,9.179865634821324 -11.348394896561961,17.64883763732536 l-8.175977329186562,7.221765030221314 1.6768410470558586,2.540559204888061 " fill="none" stroke="black" stroke-width="1" /></svg>