<?xml version="1.0" encoding="utf-8" ?>
<svg baseProfile="full" height="169.42465416453683" version="1.1" width="137.5577409763416" xmlns="http://www.w3.org/2000/svg" xmlns:ev="http://www.w3.org/2001/xml-events" xmlns:xlink="http://www.w3.org/1999/xlink"><defs /><rect fill="white" height="169.42465416453683" width="137.5577409763416" x="0" y="0" /><path d="M25,144.42465416453683 m0.0,0.0 m22.52253892092327,-49.89511308621847 l8.66720151405751,-5.548980093413062 6.4503430127112376,-2.429930792161028 l2.7463114950198055,0.41771522216603435 3.658790692635421,-3.41132073784131 l-4.052407935242954,-13.03914138284755 -2.5717079083053864,-3.416338863733326 l10.155393777819759,1.2565428543370027 11.848173770443141,3.2448947348868016 l1.2633797808325964,1.2743333410030995 7.195496887666579,0.907895442019351 l10.924507545946108,0.48373021187143983 3.247844188928372,-0.3076681470103215 l1.436315930563638,-1.982711075592376 4.065559302342488,5.682338759535974 l-3.7012348506675763,-3.1653992198380623 -9.127300327052927,-7.705090748357663 l-3.115317130040661,-3.2781332689731277 m-0.05393547663681053,-8.689132947691126 l-1.621057292588289,-7.528664636920479 -3.5473269033388353,-0.29002284359734914 l-7.8326885953762355,-4.36834998147009 -5.720689166070267,-1.760990464988426 l-6.275160688309588,-0.009551938661855885 2.638154429502495,0.4423848578972617 l-3.6439409462577363,5.052729309926902 2.085408766498077,0.6679364813837452 l2.437537111485046,3.162771856352918 4.179164592829122,8.669928410284427 l-3.12726771797646,5.343849124727016 -5.23567200349721,2.218570164396642 l-3.1870113410036063,-3.214198936924527 9.097197473544835,-31.061679373128356 l12.048024306872469,-7.147856395956949 -6.100327170568029,11.28274552709664 " fill="none" stroke="black" stroke-width="1" /></svg>