<?xml version="1.0" encoding="utf-8" ?>
<svg baseProfile="full" height="175.54931317147967" version="1.1" width="96.66534229092326" xmlns="http://www.w3.org/2000/svg" xmlns:ev="http://www.w3.org/2001/xml-events" xmlns:xlink="http://www.w3.org/1999/xlink"><defs /><rect fill="white" height="175.54931317147967" width="96.66534229092326" x="0" y="0" /><path d="M25,48.0525181186284 m0.0,0.0 m5.604933116043857,-23.052518118628395 l-2.5462787812679735,0.6066290653758799 -0.08747018139145721,31.37338906781424 l3.8503991697540694,7.309389200636409 8.043557940304035,20.041113281209768 l6.311842115944023,-1.4460519958991669 0.7993256462372106,-2.7474179226487165 l0.30589108694897005,1.0020853622360728 1.495933046952818,-1.1427393248094866 m13.07058894465983,13.794255581594438 l4.380543206565634,4.5282343106983705 1.0988687351888085,3.845031904928139 l-2.4477308293117845,1.6716874773455115 -7.645250483021365,-3.1907832465081465 l-11.05486339594183,-3.5137666328678607 m11.522968313391337,-35.93820144294829 l-3.5875947243679223,5.537435805212912 -3.153629620827654,8.667394489139017 l0.6727854202296354,7.692238853328758 1.5099354175169346,3.811659741258218 l-1.5025984192337811,5.367931817796794 6.727612072667215,4.5159595538967245 l13.295574493882647,-1.0302272046615157 -3.301962056262685,-6.901434099166868 m-9.811218261778295,-14.188123543324517 l1.5830240369173798,-2.999811156767284 6.453013520227896,-1.0403713903413394 l1.832367704756061,6.882698817193962 -5.293803184859241,15.516001505924441 l-0.2000811425048639,-3.041208498536435 4.1946551694862455,0.18990236521451154 m3.3193530890912637,55.159489534014206 l-9.94842767517022,5.216921895140893 -4.204408077059758,-4.466019090219058 l5.996919429270358,-9.332694673904083 " fill="none" stroke="black" stroke-width="1" /></svg>