<?xml version="1.0" encoding="utf-8" ?>
<svg baseProfile="full" height="161.84488724646678" version="1.1" width="171.582613633857" xmlns="http://www.w3.org/2000/svg" xmlns:ev="http://www.w3.org/2001/xml-events" xmlns:xlink="http://www.w3.org/1999/xlink"><defs /><rect fill="white" height="161.84488724646678" width="171.582613633857" x="0" y="0" /><path d="M25,110.45954987549753 m0.0,0.0 m31.492439413401723,26.385337370969246 m6.013934926719583,-71.50466965616278 l5.635227418538415,1.02922442679109 5.151059652004959,0.5375630486562819 l6.491877330182697,5.8802493515970955 7.490223577709381,11.740462425773192 l3.2706676865088378,8.065334468503714 1.5705106000981506,0.45323639252680903 l-5.262355472738794,-7.383906878856254 -0.32369586096058695,-2.276467638161445 l2.2814919283807122,-4.508681147992905 m-12.514817383274952,33.301901607487224 l-0.5641520403047989,-0.13935462699471657 2.032019950663182,-9.70348681050768 l11.913908979238359,-9.439181893012368 3.4068941798600054,-11.18016324264874 l-0.62308747524146,-2.511489339123141 -1.6788838322167055,3.0971258798294987 l-4.236801930061345,-0.10691717828594155 -5.8104956941736425,-3.8650338175566517 l11.912987589825518,-6.3482034380605485 4.70208317153437,-13.359655872241616 l16.436025402854707,-9.508219179997651 0.8868667693098653,-13.002202275634863 l-4.368889475621107,-4.494959087273849 -3.223916098721354,-5.608864441331238 l-7.309337725206855,-1.0085283237892806 -2.755891242206039,5.131155389065676 l3.7919013517775713,6.222879685255377 11.109755607409477,13.446285422485168 m-10.840673207262354,16.13352772319787 l-3.3198350752283456,14.635403626105038 9.088960227265549,-26.655002076760635 l26.402890545635,6.806463880862961 13.333719838157286,39.91223776172295 " fill="none" stroke="black" stroke-width="1" /></svg>