<?xml version="1.0" encoding="utf-8" ?>
<svg baseProfile="full" height="228.91288834640895" version="1.1" width="153.93191283258543" xmlns="http://www.w3.org/2000/svg" xmlns:ev="http://www.w3.org/2001/xml-events" xmlns:xlink="http://www.w3.org/1999/xlink"><defs /><rect fill="white" height="228.91288834640895" width="153.93191283258543" x="0" y="0" /><path d="M54.63788418851504,203.91288834640895 m0.0,0.0 m4.647751172994203,-42.18174251160126 l31.850023184890123,-55.36194887980889 11.104191097213942,-21.32201327508602 l-5.086107754149858,-14.058102989387024 1.1905770441805514,-5.32359788993683 l4.28141252846129,-3.5152147049384346 1.5817888812339849,3.5289157796786186 l5.541680941335172,-0.627817983215827 9.738410965992792,4.407298944726591 l1.9738665547954841,8.305984800674079 -0.22984550123299446,-3.379648565269678 l-0.8728983133237647,3.8020055416833802 8.573177841679474,7.2438389782555905 l-5.983594269650264,10.53504223759827 0.481694092274068,3.732558563008268 m-26.534099726487497,-35.08710666861469 l-2.788017477277053,-1.6769392550470714 4.507160975496672,-1.5723703559363496 l-0.08182229497757168,-3.231541410124288 -5.543952114033391,2.8291810080341118 l-9.5768774696776,5.888815741775575 1.9045230361199095,-1.1135970421198131 l5.935756770217114,5.0105150381720165 -0.7304056778480272,0.03557968121362609 l-4.561472336956463,-1.6522858045045512 -5.502897604330712,-1.0864858544728695 l-6.576387046354484,-14.497666072837951 -4.556474719851784,-10.122382188397072 l1.7820952141273472,-4.282067060081604 5.014936880430054,-1.7522085664288747 l3.6689015561397635,-6.466809847597341 -0.3222631856218641,-0.44257993921233973 l-10.064729270879761,-3.798970762245256 -11.01432313250847,-1.679527034365014 l-1.499038527813089,7.565280335062808 -31.36396527495041,8.465482498364794 l-0.5266612281719141,25.689673348434717 15.25739448074551,-1.5472535613084437 " fill="none" stroke="black" stroke-width="1" /></svg>