<?xml version="1.0" encoding="utf-8" ?>
<svg baseProfile="full" height="170.07231828814616" version="1.1" width="192.86051918291295" xmlns="http://www.w3.org/2000/svg" xmlns:ev="http://www.w3.org/2001/xml-events" xmlns:xlink="http://www.w3.org/1999/xlink"><defs /><rect fill="white" height="170.07231828814616" width="192.86051918291295" x="0" y="0" /><path d="M28.436474827130283,145.07231828814616 m0.0,0.0 m-3.4364748271302847,-91.07315033604466 l27.444967208333452,-2.766758571826217 5.425594856571776,5.443780892304542 l1.786600988281062,10.865543855802324 -5.420899776134312,9.73608288496352 l-4.216370933565076,7.629595654367718 m8.943021860602718,6.29637006991478 l5.377347343466706,2.7351359030069005 12.917923305617613,4.925083181778041 m14.672609821149182,-66.21873807802703 l6.7000324854983635,-7.645263744386068 4.359949064888027,2.0762260478316876 l0.02867289072136625,0.6469718395761354 -1.3789049232865151,18.51851874956186 l6.08673476439991,30.073323328619477 2.5852879410699603,5.800900520542129 l-10.572560184055334,4.543187324201499 -4.435425859716641,-1.4919006624803577 l-11.31672184724645,4.3349292891983415 -3.4664363453414353,7.363863113810436 l-7.000396651601277,2.079507660424438 -0.06490927023717119,1.6220768143286612 l-3.507659812479461,1.6705042045626222 6.389060869364052,4.08582780141566 l11.314937746734403,6.895018357642007 7.078228078576743,3.3907326627768763 l-3.651270782643452,5.5639525457616035 -7.681078655199438,-1.0147891923950458 l-3.084657184430043,-9.03961748102952 5.442378779573662,-4.444695954149967 l9.372399531996306,-3.986972668429897 11.705984349124531,-9.8495719660737 l6.059824039112474,-8.862175288249578 12.779203931554,-9.39862575027603 l7.363318270359038,-12.468722407855148 11.296720940624173,-10.019630414012745 l11.594760778606124,-9.365145586552647 11.932251562623911,-4.958033834160864 " fill="none" stroke="black" stroke-width="1" /></svg>