<?xml version="1.0" encoding="utf-8" ?>
<svg baseProfile="full" height="149.7660438310254" version="1.1" width="148.61264282946354" xmlns="http://www.w3.org/2000/svg" xmlns:ev="http://www.w3.org/2001/xml-events" xmlns:xlink="http://www.w3.org/1999/xlink"><defs /><rect fill="white" height="149.7660438310254" width="148.61264282946354" x="0" y="0" /><path d="M92.05216271471751,124.7660438310254 m0.0,0.0 m-28.04994979860948,-5.7144560229437795 m-7.994240661433812,-10.100636239527004 l-6.308677706570025,-1.4628298998280942 -1.5911157699486944,-30.71232802790793 l-0.9343059858743347,-17.070612099341442 -4.299630932175449,-6.693774374408636 l2.9672382741616032,-8.201140338427187 m-9.018587738385255,3.6372798562807107 l-8.932871827600735,-9.618203906883837 -2.890020568281342,22.327190704260655 l8.78871964371231,5.956421681549437 8.474541851126103,-2.098216515722801 l2.9329502136249683,-7.896559106496954 -2.636822155816391,-6.117890712256885 l-7.307041776587225,0.18317849704596215 m18.022322573319542,-5.133278673732078 l10.828155861912997,-7.488324872149755 8.075353782320411,-1.2653418919828674 l1.6126991925661043,3.7583362310456896 3.1538960284212534,2.847693915375878 l-3.9596985272094343,7.892554719083493 -3.1605132790850403,1.4554466498852139 l10.613521404560279,1.2247709015346326 21.203376645888,2.8163217557319373 l4.359146830987294,-3.0499459400986417 -7.56022354744712,-27.613083671201053 m3.221002607298263,-1.6286164499100453 l6.52678206548849,1.1267087128746092 11.643292415043716,14.954466610875855 l3.7811809993390186,16.397706387526878 -1.2385474731141926,0.011127306969572204 l-5.371687097116268,-3.084039688413901 4.97508468304113,-1.0647221086788634 l-2.7692194869920272,-1.2012197880301692 4.314160632672859,-3.0570286221699443 " fill="none" stroke="black" stroke-width="1" /></svg>