<?xml version="1.0" encoding="utf-8" ?>
<svg baseProfile="full" height="355.1902712575807" version="1.1" width="145.64293029453316" xmlns="http://www.w3.org/2000/svg" xmlns:ev="http://www.w3.org/2001/xml-events" xmlns:xlink="http://www.w3.org/1999/xlink"><defs /><rect fill="white" height="355.1902712575807" width="145.64293029453316" x="0" y="0" /><path d="M45.99842703425264,326.963641196205 m0.0,0.0 m11.437708195361456,-15.7160933277804 l-32.4361352296141,18.94272338915611 2.5009881766484368,-71.51358862873313 l26.100104711556877,-25.398167726056478 20.403936873786005,-25.751689393489887 l6.167373323591925,-9.898990304064977 5.3799701232064105,3.833721188568696 l-2.4095883762181183,11.041763313778407 0.23106003209331033,8.674027390627668 l13.138283887469282,10.373381675974814 6.544464918644044,3.137481941804042 l3.8646581175875863,-0.7795122322112064 6.4221885588436605,2.3556354178838577 l7.299489947323728,0.8110160916135362 -4.994806092941035,3.1668705552863843 l-1.2185911647093783,6.0915782447510995 -10.410462847988766,9.714886419403694 l-9.03389872373663,-1.1115049709640195 -6.38847369868053,-0.1803569822502038 l-0.6121081127548922,1.287612963884012 9.189861799172713,-11.405867468006836 l2.183495685838519,-8.49495444523566 -8.905091166184251,-7.973234463812768 l-0.5382146979839899,-24.173083287029815 -0.8270379836361798,-10.273309310839588 l-9.877038380334989,-5.538430170219281 -20.28227988599884,-15.717358585553164 l-3.3885849979971314,4.300838282853659 -14.307436075250319,3.930804181712059 l8.354873350505683,-0.5086233309303458 9.202134069694162,2.2435300943052736 l-4.163705164470217,-3.549517064745263 0.5946745236945611,-27.56734121583341 m-14.955392483361729,-119.0578116848403 l3.849894609588439,-7.2600777552116496 " fill="none" stroke="black" stroke-width="1" /></svg>