<?xml version="1.0" encoding="utf-8" ?>
<svg baseProfile="full" height="171.93420295138716" version="1.1" width="105.63137727736574" xmlns="http://www.w3.org/2000/svg" xmlns:ev="http://www.w3.org/2001/xml-events" xmlns:xlink="http://www.w3.org/1999/xlink"><defs /><rect fill="white" height="171.93420295138716" width="105.63137727736574" x="0" y="0" /><path d="M80.63137727736574,146.93420295138716 m0.0,0.0 m-17.658675133186797,-30.354230474713624 m-19.65307601423431,-8.161534208303621 m-7.722806070013264,-10.382874741056105 m6.660825419482544,-11.121326907905264 l-17.257645479413917,10.132811863262393 m28.795538542037512,-53.45757990542001 l-6.136483774254914,-1.6094065024138955 4.0981868844086256,-6.919767999688939 l4.875427791957407,22.98031461220032 3.1459134030203604,2.1701370531946043 l6.0342311101643515,5.707002558881553 1.3759185772989906,3.8740715691928984 l-2.9092702786374156,8.922231113322336 -5.273660964935441,-1.0513621355021645 l1.17020965450032,-2.284415332378672 1.1716049687316756,-6.331104547842342 l-7.435904974637673,-4.61196567030713 m-17.300290661793287,-10.477475298479714 l-2.8897526076762374,-4.3449751650702035 8.450955642154268,-7.244083582311058 l-0.4744458997417367,-1.2017041962189674 3.6802987578994455,2.853983873859996 l2.045192181441831,3.324846534153252 -1.887786734352336,5.802248498127498 l-0.5558409527539707,4.797395702302856 8.946264096617519,-0.41611935055638816 l0.7657961235843619,-8.691123450518067 -11.20316018348344,-15.210560371260934 m3.5123712453342035,2.043497770248366 l5.334918936089703,-5.301291717444861 7.939567055663016,-4.517322829905461 l-1.1361239722526832,0.4083016636986304 -3.268013902204585,-1.2608213765344445 l-1.845571619410155,6.536403024505761 7.331579615111646,7.090551801116454 " fill="none" stroke="black" stroke-width="1" /></svg>