<?xml version="1.0" encoding="utf-8" ?>
<svg baseProfile="full" height="161.5722506426475" version="1.1" width="204.07714781191626" xmlns="http://www.w3.org/2000/svg" xmlns:ev="http://www.w3.org/2001/xml-events" xmlns:xlink="http://www.w3.org/1999/xlink"><defs /><rect fill="white" height="161.5722506426475" width="204.07714781191626" x="0" y="0" /><path d="M25,51.99708563089565 m0.0,0.0 m20.985104996020947,-2.7914053526072236 l6.105585061427686,-13.725614453839636 15.370256135065326,31.559817671093946 l1.1049509117238336,-42.03988349554273 0.13946224108401867,5.851064514912068 l-0.5263722729079413,7.690813210368758 -3.56389944725346,8.445310606544007 l-2.459338830641954,6.311347638115301 -0.8184667081884387,7.031583689297583 l-7.729495604272102,4.003911305401287 -4.6295564705726955,13.271272078688078 l0.018205908990551283,12.304405867978431 1.5323187226953006,5.121247476168665 l4.046426943705351,7.342928204025807 1.7476587415235125,4.500364510320123 l2.9505861257232837,-4.309274357136454 -2.2103384981771264,-10.077460988370236 l-8.695234202218503,-11.543103889233604 0.9709012531891488,0.8771307879470869 l5.806334198276944,3.1576818250988783 7.954865247308732,14.250236522896689 l1.6084322225869012,3.3593090407496726 4.275370748580003,3.0306161470258584 l-1.1414327451254058,-1.096095282812325 2.9723439917636396,-4.07425817436097 l14.654120991665257,-0.6330277410279356 m22.674063426620602,-19.668270455483334 l-1.4201667785554017,-5.571658520212624 7.987182975034821,-7.479022500131004 l7.68825732419759,-1.36877528184475 8.597284568809027,0.7160239545095903 l1.767465477861957,10.020209037645346 15.940917664680088,2.072905508780619 l12.71734976661339,4.286233751430157 11.050165260375339,15.201180501471915 l6.605838464306029,18.577447156355632 -4.022246912236021,14.231184248927248 l-1.5588285711460037,5.738790248601964 " fill="none" stroke="black" stroke-width="1" /></svg>