<?xml version="1.0" encoding="utf-8" ?>
<svg baseProfile="full" height="344.3902710133673" version="1.1" width="110.93505206388119" xmlns="http://www.w3.org/2000/svg" xmlns:ev="http://www.w3.org/2001/xml-events" xmlns:xlink="http://www.w3.org/1999/xlink"><defs /><rect fill="white" height="344.3902710133673" width="110.93505206388119" x="0" y="0" /><path d="M71.5207776710131,302.72972543192435 m0.0,0.0 m6.976062162306751,16.660545581442914 l-2.1624581933484563,-12.8459194013977 5.029983842496551,-4.459933652953729 l4.57068658141325,0.4181385474624536 -0.5858086262110723,-17.09914771780622 l-0.768757764462521,-5.866522301384866 m-0.4556212585388955,-7.452710199112717 l-8.9986547973712,-15.259867082329631 4.417786348918092,-15.360019052932369 l3.6052718237721195,-0.6345469431953488 -8.246407809139207,-1.2958809196275713 l-11.480955650221757,1.2637794058835965 -8.22626156775196,0.4848629680206893 l-4.0360827012037666,-10.711383154437 0.01957044427661342,-4.061380860786242 l0.11064573159551311,3.256636815832985 0.609028496006907,-1.1893204840352558 m-13.685794154012546,-151.67375439545162 l9.910436349178381,-0.42747593649451643 6.02394114539244,1.856000013618523 l0.5173374176962209,4.421642779200236 -8.964221087436334,4.312374731611213 l-4.2952817675964505,1.0822495099833815 -0.14337368659901983,-4.911913489220671 l6.292954725083503,-7.638247769818611 -3.949664895903252,-24.738096387305983 l1.2672175193455952,-13.936679425340769 -3.554480374968297,-5.592102438400379 l0.47569361449258246,-1.845793679575906 0.9578288010241617,4.349016750445949 l-12.625533133858298,-0.3393969875068359 -1.5120031025399072,3.819822223201553 l-1.3248736387647724,24.425845416042378 -2.288988464084072,5.621820941816997 l3.853858690261694,-42.362368837373246 " fill="none" stroke="black" stroke-width="1" /></svg>