<?xml version="1.0" encoding="utf-8" ?>
<svg baseProfile="full" height="144.06876897959881" version="1.1" width="172.21757249835824" xmlns="http://www.w3.org/2000/svg" xmlns:ev="http://www.w3.org/2001/xml-events" xmlns:xlink="http://www.w3.org/1999/xlink"><defs /><rect fill="white" height="144.06876897959881" width="172.21757249835824" x="0" y="0" /><path d="M25,60.07777955519374 m0.0,0.0 m8.35642749867955,2.1529963088575 m16.6567879933898,-17.114959772336 l10.157409970539117,-20.115816091715246 3.470375514152351,5.454028284417653 l2.0340519050605717,5.7487905159707 -0.6833670160653863,18.511925638880417 l-0.5616569584022458,10.724173838104331 6.075021557306847,6.010661840314896 l8.107435858663614,5.345914672514831 6.133534045644995,4.668647502258197 l2.1208437512006237,0.6177389312210602 1.0571340075186109,1.333715749836366 l13.50016590036561,3.2475419272291206 4.879402582178006,4.88488510626335 l5.841410355797604,9.868735296459924 7.685637081009902,5.1548166889757745 l7.245989288716015,3.294119604919301 6.526980585972752,3.199184985244777 l2.267855959815353,-0.7390496552821387 -0.28179100219012043,3.9290699713392097 l-5.29329114218154,2.8138680809310577 -6.226609123022495,-4.073010162053849 l-6.661391488961868,-3.4723952721350226 3.336471982499901,-3.7876466050455524 l10.372105702926655,-8.683616379757805 1.8460406145356993,-6.171474447964978 l3.699668768316703,-3.8130450745728894 0.2303119180286306,-3.597367914955696 l2.7765390853393592,-7.727729609165444 -2.5117327240235343,-7.4973933879818215 l0.8724524973502129,-2.230948422183942 6.029490953646311,-3.207860443109012 l2.1828190688283016,-7.862043454188116 -2.9933405261382697,-12.001000880307927 l3.9683880318605933,-13.048092771612877 " fill="none" stroke="black" stroke-width="1" /></svg>