<?xml version="1.0" encoding="utf-8" ?>
<svg baseProfile="full" height="145.33723474148334" version="1.1" width="110.48175250507605" xmlns="http://www.w3.org/2000/svg" xmlns:ev="http://www.w3.org/2001/xml-events" xmlns:xlink="http://www.w3.org/1999/xlink"><defs /><rect fill="white" height="145.33723474148334" width="110.48175250507605" x="0" y="0" /><path d="M25,52.98729027868589 m0.0,0.0 m16.23690331217645,-12.658165401262812 l4.780581054465338,1.2369988257955837 1.6215426834729367,4.066074716961617 l2.3877707186092376,9.832136861994348 -11.118460482435717,3.486868663332121 l-7.512314882471142,-4.511887210773994 m17.707987466729175,-29.439316734732756 l6.8809432106553885,1.3429889944289188 -5.1391284351704725,7.893798599941194 l3.0704437592832123,4.908990972712079 -11.546590185580797,4.875957531747544 l-7.220969229618621,6.598969036259447 5.8604586573943545,-1.1213250050021306 l4.381667777063979,4.074524706109017 -2.826269485463056,2.1580971159716937 l5.116528140780786,1.3215834179012538 -5.014396237454142,8.458116331749514 l9.250325249462575,13.748651371559925 14.532157696860152,5.075063660400893 l19.032571716316404,-17.512443805500506 -1.067873004618235,-9.182455169796434 l-9.06644054905029,0.90185757610594 -11.039116465126453,12.855609680582091 l-5.007639081131929,4.638137534798421 -1.3943514625171527,11.691315823005631 l-5.877462476234094,0.8043954516041973 -6.76350033888714,0.4944686092664578 l5.763341800790154,9.531206908369489 m-5.515935898458319,14.704578501157156 l10.921411471847994,7.075146898111549 2.638985884926049,-4.397392084228056 l-4.2791680232072205,-4.697566687885136 m-10.467789387551525,-30.203981863779124 l-2.03715244856988,-9.429016104698123 3.8254578883492543,-5.803125834680923 l5.230300777682198,-1.610579374234388 1.4714334201463113,2.4328400424250707 l-7.454023306865756,3.085092616568025 -1.9817519645728647,2.580885144248497 l13.383107733837996,-12.338533897287357 -3.9731474528759603,0.9187422296432224 l2.1663264371723674,13.10118270469851 " fill="none" stroke="black" stroke-width="1" /></svg>