<?xml version="1.0" encoding="utf-8" ?>
<svg baseProfile="full" height="224.06374779403387" version="1.1" width="167.19765203421608" xmlns="http://www.w3.org/2000/svg" xmlns:ev="http://www.w3.org/2001/xml-events" xmlns:xlink="http://www.w3.org/1999/xlink"><defs /><rect fill="white" height="224.06374779403387" width="167.19765203421608" x="0" y="0" /><path d="M128.90497804460568,39.156121388928604 m0.0,0.0 m9.187648673580577,23.737095242904232 l-18.072312820496535,-34.10383811593251 -0.6704522346700879,-3.7893785159003235 l2.04267130276081,12.752734711296 -2.950896949841669,12.19598905874519 l2.1842969712402054,4.816998353278765 2.327571244723329,18.00068993395137 l-7.601487354812751,11.186297513201326 3.8539311437059185,3.6452181066797134 l9.85614254298769,-2.666798543070951 10.66508728700739,-2.8820944969933 l2.3774204878600025,-8.863177397533784 0.09305369556550203,-3.066891174342111 l-2.759668169750863,-6.8068071287891225 -4.645321948470742,-1.09504638467443 m1.6010370310397404,-14.602676199355367 l-9.472117757963064,24.281599990531497 -2.537395170672414,11.084393517363301 l8.24782517171668,0.7499889514784913 -9.504189902469241,-3.5062014258255663 l-14.708166819723116,-0.3781296900164652 -13.006244930944572,3.8941037288812006 l-6.1649648746478025,4.572439225515674 -7.324864155743051,6.910461998626682 l-3.9236156842863332,7.867453800424246 5.5104070288918034,12.525673916469993 l-8.378208292918151,0.4769263316553163 -15.509023829807566,-1.4295232204844104 l-15.823408207220053,-1.1239578209003533 -15.496377308932994,-1.5438058268509252 l-1.220076875162881,-0.060175643054200534 -0.8644965848712793,-7.12069209290612 l-1.2187807522802008,34.416079738045276 8.009322961100143,59.83267596268695 m15.003634283200098,-25.16424262844643 " fill="none" stroke="black" stroke-width="1" /></svg>