<?xml version="1.0" encoding="utf-8" ?>
<svg baseProfile="full" height="205.30307496094557" version="1.1" width="97.80240376443675" xmlns="http://www.w3.org/2000/svg" xmlns:ev="http://www.w3.org/2001/xml-events" xmlns:xlink="http://www.w3.org/1999/xlink"><defs /><rect fill="white" height="205.30307496094557" width="97.80240376443675" x="0" y="0" /><path d="M42.891973546668055,25 m0.0,0.0 m4.5299447730614455,20.693314054663254 l3.749046849969887,-10.410930953433587 3.9290208115249308,4.5532129208035235 l-0.12272085381788596,3.9367696724841204 -5.63464667680071,7.436803531329797 l2.4592748780431615,6.9312060858242805 0.3573597312701081,6.8035790409071035 l2.9607224728826065,13.665695046987045 -6.608207467949409,5.294827427263167 l-2.696340051503802,6.554901902767744 -14.85803778225382,13.142550410989408 l4.803931846464065,8.326741772275295 -2.81919049185692,5.308416046593478 l0.6502786254876497,4.359032334792433 -0.4497649443674423,-0.015265805368282759 l4.218246964332844,1.8943360432122636 17.188126087543303,0.12219637437963282 l-4.997507745687947,-10.07961388055547 16.26738002345819,3.4906993604476897 l5.893518102938212,-0.31196245322555716 -1.0110167742463332,6.861627439477321 l-3.886376013804429,5.257022738123025 -4.954236348683687,-3.2143367362553996 l-3.4723693565367397,4.780935339090457 -2.013303057725231,-2.551937722228879 l0.2444578169286095,-8.123974455841564 -16.84865866953954,0.4312179719140291 l-11.47419944311944,2.784405673841018 -3.2967068526797307,4.948559781868918 l5.201360303425579,14.426707258519865 -4.515317555875349,13.471930524867322 l5.7348793582172375,5.267461358309823 9.591131654869054,5.923007812900052 l-1.1359678866980671,8.85385889761736 4.665711225969589,4.490080145604899 l11.161390773955778,-18.48171343744238 12.557789597698187,-22.4153429970543 l4.541426292874739,-3.248403386654899 " fill="none" stroke="black" stroke-width="1" /></svg>