<?xml version="1.0" encoding="utf-8" ?>
<svg baseProfile="full" height="122.59743822364656" version="1.1" width="105.9379247630405" xmlns="http://www.w3.org/2000/svg" xmlns:ev="http://www.w3.org/2001/xml-events" xmlns:xlink="http://www.w3.org/1999/xlink"><defs /><rect fill="white" height="122.59743822364656" width="105.9379247630405" x="0" y="0" /><path d="M69.17004068488245,69.93483708714254 m0.0,0.0 m-19.442121607272192,-17.87864702715846 l6.008451704545841,-6.451644657047768 -5.959647849848597,2.4333914613541254 l4.636537128563427,5.368754309417092 4.443013471127201,1.9932683427801723 l-22.565500624948065,-9.388235423023847 -1.6304902486041508,-6.284819837971208 l16.433365239925035,-1.3923028503591905 8.967480250272807,15.742809720416284 l6.207864925765427,9.654425077007767 -1.5455293894351976,1.5035167832727754 l-19.067713030209024,2.7816368649041543 -9.377344089810261,-3.513766242996559 l-6.292058122971296,-5.875835798889455 -3.3847199639947236,-3.203524268971699 l-0.4780227828819549,-3.178463188773634 -1.1236056951067264,-6.01919097263263 m41.13498366347052,9.585599338631337 l9.198547324512427,-0.8261265200135385 0.3751897951568084,0.7351253594641932 l-3.658914355814422,8.010089620474146 -0.8390481409977353,21.308629481858617 l-4.702405096428374,4.770845114961261 7.017712362032374,7.787066449800082 l7.411859211108898,-14.816732723326853 -3.7464552296032103,3.3168436129235737 l-5.621511923392811,0.3088707706168431 -9.626860597211554,-7.224023230620953 l-4.114339264700884,-0.6763940978171895 -5.94633825184908,-1.27856213303706 l8.761506382170108,-1.85746579966371 3.5137277547536185,-7.199319724726938 l1.5096014608928103,-9.517017755292963 -3.526046739220393,-5.913058516448586 l2.4112633702229114,-27.740578626252727 " fill="none" stroke="black" stroke-width="1" /></svg>