<?xml version="1.0" encoding="utf-8" ?>
<svg baseProfile="full" height="229.31258748013485" version="1.1" width="130.54645310864507" xmlns="http://www.w3.org/2000/svg" xmlns:ev="http://www.w3.org/2001/xml-events" xmlns:xlink="http://www.w3.org/1999/xlink"><defs /><rect fill="white" height="229.31258748013485" width="130.54645310864507" x="0" y="0" /><path d="M75.67274987570534,142.89908110234563 m0.0,0.0 m15.048548415944682,54.42251746786061 l14.825154816995049,5.05912764538286 -0.9389540981983088,1.9318612645457391 m-21.704657655691523,-11.931249443717766 m-1.5728461959554252,-7.351964018343906 l13.274124476507096,-8.675158370142201 2.7112532773346443,-8.286515352017837 l-9.196611985272941,-23.179615800709506 -8.590483026979708,-8.199219962933734 l-1.166803042198376,-6.698359911141258 -4.457251551693442,-3.598089847377124 l5.739964056677318,-5.162954123390993 11.781021197997918,-4.685381502370123 l-4.828855834394036,-15.27484440995237 -11.43388681280395,0.31938543157193466 l-9.289272391938711,12.072477668701362 1.7755669030615695,-1.4510292821013948 l8.661859238109828,2.560235058606384 7.7968051724736265,10.745274620442277 m-15.613864577499537,-1.968996629255244 l-7.488182829611388,-4.385024025211417 -6.027768886707571,-18.032163242446995 l-2.511354650771728,-17.221722006442764 2.033714254776038,-13.65561523639145 l-1.358584667368079,-9.110718668035013 14.29188482293836,-5.443878667647922 l-4.697010554158017,1.2700895044293015 -16.51235302979002,17.426823704642764 m22.594668648407474,-49.394372968899845 l-2.4869967607027066,9.390929644098 -8.444209959643471,7.043637652505362 l-9.309800148709964,23.2726776841488 -14.98383336844577,-0.7320726110462139 l-8.114503710311622,0.9347111027847371 -0.47922941808265257,12.38958565254861 " fill="none" stroke="black" stroke-width="1" /></svg>