<?xml version="1.0" encoding="utf-8" ?>
<svg baseProfile="full" height="285.6392327712937" version="1.1" width="122.72361408575325" xmlns="http://www.w3.org/2000/svg" xmlns:ev="http://www.w3.org/2001/xml-events" xmlns:xlink="http://www.w3.org/1999/xlink"><defs /><rect fill="white" height="285.6392327712937" width="122.72361408575325" x="0" y="0" /><path d="M97.72361408575325,256.83403042957343 m0.0,0.0 m-20.586873428494574,3.805202341720191 l-11.69082897264817,-27.244116689204194 1.457624213623318,3.7747546429623307 l-1.8561342536300445,5.889989348080094 -0.05420119938577572,6.239293933286055 l-2.3348271453166505,1.3988820032382383 m-32.69497795563963,-60.70907878409977 l-1.3499374270490283,-9.92729260261819 5.2556978860800045,-6.270255518284131 l5.264043892401211,0.76417100705781 7.113116071894037,3.39846019643287 m-21.246315767587955,-72.30333817218617 l12.27596658746906,-6.433347508792924 0.7033266822784184,-9.270162513881123 l1.285679494494949,-9.306261072215955 1.8187438297399376,-13.75029914420785 l3.1442021790200396,-9.048355210132353 8.853469189542679,-3.3293280503375393 l8.56984009961983,-7.3376233245033395 16.22345369664569,-4.627836806313252 l-4.609302091240369,-10.259832601912121 -1.962446672187952,-4.130855527261078 l-7.557581710070709,-3.156800376401052 -6.666745274231976,2.679967213962248 l-4.6079534144549354,6.979073218274115 4.318534694628704,-0.08904646353962153 l8.654050661723645,-1.2976525018498388 5.810563606174629,0.23063957527188012 l1.8009663285596145,-0.36390031689308794 4.5625002031460475,4.432318881274262 l-9.184838595702994,10.109465730398526 -2.2373738267016265,5.876583130494423 l-3.0377149127457614,1.9158985825826547 1.4153156517955219,3.13324399542578 l-13.708944407460033,1.4918704958178624 2.3133789595099263,-1.2305399174030978 l11.48512893513197,-8.722592034761156 28.078146849123524,14.35153584374062 " fill="none" stroke="black" stroke-width="1" /></svg>