<?xml version="1.0" encoding="utf-8" ?>
<svg baseProfile="full" height="199.98600497415805" version="1.1" width="134.92966186567878" xmlns="http://www.w3.org/2000/svg" xmlns:ev="http://www.w3.org/2001/xml-events" xmlns:xlink="http://www.w3.org/1999/xlink"><defs /><rect fill="white" height="199.98600497415805" width="134.92966186567878" x="0" y="0" /><path d="M59.344489852647854,54.26581915683813 m0.0,0.0 m-0.9982635155671848,-1.5839962164723487 m0.36106310384868695,7.031495938084752 l-33.70728944092936,-34.71331887845053 m21.68850808680489,6.576157361812377 l-1.2552640631002057,16.601859884801552 m18.078189235234163,99.28698434211188 l8.462456097618972,27.521003385432245 -5.015985295056915,-19.16397442879906 l10.903736376352207,-2.4741074041422384 28.940555445814308,4.286955154321667 l3.127465982011355,4.378487019784694 m-36.23966742900892,-86.16466484600481 m5.173495591149806,-6.145218235317273 l2.446814333229854,3.7202009375268585 3.690841138089088,10.85547229356956 l6.156106675434006,19.42553546497859 3.678143788849506,14.472768079626572 l2.1537469899686332,15.299434224432265 -0.625428709139942,17.081662229606717 l0.5387591435649233,6.819878446307126 -1.222092714520061,3.8531545161437664 l-1.6438217547699876,3.611339581951581 -1.4904470801959462,4.051567302984604 l-0.992215846740383,1.854619676938777 0.8518359024274889,-2.699656703952106 l-2.7977571733167803,-7.398732219371433 -1.815393289927446,-11.13067316128921 l-7.9223066263963355,-69.0778078984173 -2.4755683848807886,3.448147739714017 l-0.2896348797796686,1.4249664325492943 0.853937135067353,7.095962350342497 l4.70708722314475,8.941684664413936 " fill="none" stroke="black" stroke-width="1" /></svg>