<?xml version="1.0" encoding="utf-8" ?>
<svg baseProfile="full" height="313.7074951679867" version="1.1" width="138.26850239539806" xmlns="http://www.w3.org/2000/svg" xmlns:ev="http://www.w3.org/2001/xml-events" xmlns:xlink="http://www.w3.org/1999/xlink"><defs /><rect fill="white" height="313.7074951679867" width="138.26850239539806" x="0" y="0" /><path d="M25,288.7074951679867 m0.0,0.0 m13.118683261782675,-50.7269783174171 l-3.4449121796715203,-92.64249395530136 35.141845532340575,-38.29024119719422 l-1.208878914418938,-25.352091214822185 1.5939219912119895,-3.7272075980904678 l7.6033119987773246,-1.298822995866679 7.679882130912908,-4.951366639281057 l4.729551909157603,-6.4173692315017465 4.688139494751907,-2.094929385772861 l3.0680072348514646,-3.2368606301954053 11.49014459625229,-12.183150882847306 l0.8390687240484507,-3.060530657756678 2.969736615401315,-6.432934714876328 l-1.6734487402601583,-8.242853881211502 -6.201367062254614,1.319793877719393 l-4.475417805468609,-0.9570746079531833 -4.403167867140954,-5.412383135617965 l-9.251499235727335,0.9390382233847411 -10.132431251719277,3.905502526158349 l-11.670680478081028,2.9120727323854116 0.8828146206154946,10.69480784193836 l7.25694371403122,19.04477251096382 4.341038376909325,4.8663432700988105 l4.51697865576855,7.81779417154378 -4.9712968060043625,12.876517888291948 l-13.627931641509004,12.61845999971418 15.419682854154663,38.32957812639127 l-26.043793934925812,1.9722147732609596 0.735363515987153,2.262122608354969 l-4.77782002663607,10.908615688784915 -1.5084879288378406,4.657583778311076 l-1.4828701300695568,7.400681494720282 1.6108962804612637,9.647977227082922 l-1.8683277261298348,-1.8114449170659586 10.623881174290725,-9.80740228269927 l15.100240219100256,-4.079747315438813 -30.039441499675643,22.69730975730445 l20.99561305452854,-79.67114267436295 " fill="none" stroke="black" stroke-width="1" /></svg>