<?xml version="1.0" encoding="utf-8" ?>
<svg baseProfile="full" height="206.8387166566025" version="1.1" width="252.48853365744463" xmlns="http://www.w3.org/2000/svg" xmlns:ev="http://www.w3.org/2001/xml-events" xmlns:xlink="http://www.w3.org/1999/xlink"><defs /><rect fill="white" height="206.8387166566025" width="252.48853365744463" x="0" y="0" /><path d="M215.87697849240055,158.21881778874715 m0.0,0.0 m6.74592562611355,23.619898867855333 l1.8259802931547435,-38.94574022474395 3.0396492457758066,3.932037141742662 l-2.355218878221706,5.9427749916254164 -14.108109141757996,4.369331927038201 l-9.011033754384046,-3.8417390612836475 m-1.6196641639659655,-33.8520577325297 l-0.10600993755051374,-10.997210996245174 -8.56452480906773,-7.491693042621846 l-11.060652085197837,-2.549815670559968 -14.301636855221071,-7.772874152837936 l-2.7488268441242902,-4.573219145310967 -3.1362173820552695,-6.937038860663303 l-6.667351542047306,-12.115106774933189 -6.798422724429898,-14.39310923642695 l-6.4943197599391596,-8.826838818173114 4.42540769423635,-16.32335848629384 l12.809930975516272,-0.033380624114959234 0.9204543416896704,5.045537885224022 l-5.612041739601425,16.98099693414771 -9.97156374345031,-2.1732597146297516 l-15.33887472471668,-7.648978445042238 -10.207197880224372,-0.2776633953006047 l-29.162969276379123,-0.25019604705411647 -9.93191230211489,3.6310810025803697 l-7.5051781396419885,0.2311532247202447 -7.325390783194853,-7.495041569724719 l-10.290594323809572,-2.5226030246716955 -7.5380072877230315,-7.950704740519423 l4.660686120388595,13.173031449067109 -1.3652007744861356,2.7760770526591183 l-5.848831078916749,5.025214860859719 -9.20366197292221,10.229915642159492 l2.1075584578545534,2.2498360103546116 -11.139159341985993,-4.712498936704777 m2.3812261217975372,-10.988916767358758 l4.683174936383871,-9.672947535584715 m19.24006745171442,14.761145318010433 " fill="none" stroke="black" stroke-width="1" /></svg>