<?xml version="1.0" encoding="utf-8" ?>
<svg baseProfile="full" height="160.85776256504846" version="1.1" width="120.80180761974714" xmlns="http://www.w3.org/2000/svg" xmlns:ev="http://www.w3.org/2001/xml-events" xmlns:xlink="http://www.w3.org/1999/xlink"><defs /><rect fill="white" height="160.85776256504846" width="120.80180761974714" x="0" y="0" /><path d="M67.75276799147485,75.71879142979975 m0.0,0.0 m-11.48670755954447,-23.709374017533253 l9.835231425713985,-4.179187408594319 2.7543244416151977,-4.633271792439381 l-5.1411829835603085,-15.015769838387309 0.8918701703281031,-3.181188372845484 l-2.504117191756211,1.7602080639227147 0.409628408187499,5.732626230285767 l1.3298535403242087,6.785342190995808 1.830753722095565,10.372996011347734 l-12.814602671305725,10.047101598373649 1.41722021167768,10.649818864165606 l10.351846462176567,12.84591007922043 1.004914630042978,5.816181525771569 l-6.098787340444174,-7.322644596940198 5.200681991535778,-5.259198601037767 l-0.9330907375200187,-8.651600862875185 4.7245707742110366,-6.989309455439033 l5.273813312905374,2.0143128240005472 6.872230291419776,-1.2187517543685344 l10.00920983000058,6.993906120349297 -0.5867598993632624,-0.33744955237811625 l1.2319781068572744,-1.9617453959982782 -0.21121770447564323,-5.071397832900311 l1.4960018449721464,-4.569018867905579 2.7320225197192824,-1.1439597818068883 l0.4593540324590552,-4.9638250575798795 m-11.306223423138057,37.42432056955261 l2.3021020707802897,3.546626329658343 -8.237325846648439,22.547346282595065 l-1.8218243685364484,4.79042780120604 -6.7418017729324085,3.101743140883429 l-4.000620172633704,-4.980202642068268 -6.366845102660259,-0.7625455174388104 l-2.854090674353365,-5.990845326636832 -2.3669206166353978,-3.9713732054667275 l-3.935717365828991,-1.7626682179482418 -2.223409801253838,0.4772230424718196 l3.8528225596030077,16.523816262170588 1.5580466830528665,8.426097823652038 l-12.529812962118699,5.958294473214043 -16.130186826443698,-3.77452774977759 l0.3923943193647056,-0.993175234404049 " fill="none" stroke="black" stroke-width="1" /></svg>