<?xml version="1.0" encoding="utf-8" ?>
<svg baseProfile="full" height="162.06943842419486" version="1.1" width="125.97820000250425" xmlns="http://www.w3.org/2000/svg" xmlns:ev="http://www.w3.org/2001/xml-events" xmlns:xlink="http://www.w3.org/1999/xlink"><defs /><rect fill="white" height="162.06943842419486" width="125.97820000250425" x="0" y="0" /><path d="M51.43217148902793,137.06943842419486 m0.0,0.0 m13.506971384824293,-13.52118550321574 l-10.713439279599548,-6.275566448836276 2.3208898357861996,-6.406808007473643 m5.775889338358345,-24.636941617601597 m0.4735213521257012,-13.153545090686181 l-1.5738271076593984,-5.3939432264174325 m-12.123676816869203,2.4317702471777403 l-6.741428496229491,-13.830586237092527 -9.257699792985514,3.128560787743384 m-8.09937190677931,-21.58889786243604 l2.7622366705383747,10.48983078852375 1.4262106308879408,30.249539941049342 l27.880098709959036,12.10493550672902 12.388076197401197,7.095774551809302 l24.152225916397242,6.042330251777384 1.2014072224835644,-0.2918095794957809 l0.3847807521861525,9.368731502892997 -7.358314004031845,9.056809546491458 l-5.170168452564631,3.6249053131589735 -2.852377569650817,-1.1775191249602446 l-5.556537498915959,-5.382387504139541 -4.390208922042109,-6.524208000306595 l-0.8730014402204607,-3.877886268759675 4.641487869914469,-4.399383058649584 l-3.9026262263880107,-11.817487957592183 7.820496811936346,-21.55435825229297 l-2.6165405543806872,6.454526974773289 8.322485141619948,-3.8539947807101504 l7.195588848651282,-3.6029292970502818 10.52287989872321,-3.022809264737155 l-15.834212696171846,-5.71640493858599 1.3744580380598326,-2.6617173253851933 l7.6921178155652274,-22.04067781801959 -8.292860942789778,-3.4007348931749113 l13.604373630441211,-7.985371778702182 " fill="none" stroke="black" stroke-width="1" /></svg>