<?xml version="1.0" encoding="utf-8" ?>
<svg baseProfile="full" height="155.6371042827029" version="1.1" width="125.14071833136504" xmlns="http://www.w3.org/2000/svg" xmlns:ev="http://www.w3.org/2001/xml-events" xmlns:xlink="http://www.w3.org/1999/xlink"><defs /><rect fill="white" height="155.6371042827029" width="125.14071833136504" x="0" y="0" /><path d="M52.13614233419324,56.44074881610059 m0.0,0.0 m-23.277176800196038,-16.20499742710982 l0.7939579371572306,-5.640522241168387 6.154905589546724,-9.595229147822382 l4.972752364113669,0.35671346108442953 2.19849333147786,4.702122715340698 l1.8173120447694393,3.6010243196225136 -0.4274570440247118,6.363586960885963 l-11.782557283958965,0.2942612845624354 -7.586372473078443,4.821415904546173 l11.576994169879947,10.397672213031704 6.965749545565174,-0.18501844150643154 l-0.773684720141499,-2.5758092953492797 m30.189357529931584,17.828865459520795 l0.7321385194064775,-0.4315032703140878 16.708287745484817,29.656792970794818 l0.2343335690651465,1.860228470428979 -3.459300879047338,10.32419893167264 l0.30629686575245785,9.732656403219577 11.186098302665059,8.889896195161983 l1.4744476828032038,-3.0348134816707075 m-35.85214601976819,-52.488879647661264 l4.683981051553722,-5.05374221367657 10.696297076357718,0.6393027658889083 l-6.071313561729064,-6.744076365406319 8.124858210878676,-12.227970089050439 l-20.587940723541536,-6.054201316431467 -8.27627374734426,-0.18177538767192544 l1.283712515720803,8.165043392010189 0.6137199745616395,27.762867304574268 l7.548269013869771,-3.1285777196815387 -4.95912671737671,-8.621456960646485 m-22.676116650624884,-12.987704325043183 l1.8621199050015524,-6.156727254597857 5.803031259060529,0.7851188384666815 l15.895546635171176,-6.581746212040645 " fill="none" stroke="black" stroke-width="1" /></svg>