<?xml version="1.0" encoding="utf-8" ?>
<svg baseProfile="full" height="178.32770940278755" version="1.1" width="89.82652274669005" xmlns="http://www.w3.org/2000/svg" xmlns:ev="http://www.w3.org/2001/xml-events" xmlns:xlink="http://www.w3.org/1999/xlink"><defs /><rect fill="white" height="178.32770940278755" width="89.82652274669005" x="0" y="0" /><path d="M25,136.8671873334781 m0.0,0.0 m19.463019622407735,-1.4840674042265316 l5.430794286138834,17.94458947353596 -1.2527282997260476,-41.490444603247326 l0.3796563784177734,-2.4443295040444575 -1.1585313698444477,-4.06862427149252 m-18.726867731506978,-77.78012318804879 l9.994783364723444,-2.544187835954441 11.581567121099559,3.6241961441781942 l7.478659519913289,0.004739445022680089 6.63616985506689,5.215363363709146 l-1.8332552616284503,9.386792651114924 -3.4384863257425167,6.655727364213267 l0.7962602073646832,24.693031256927036 -7.398609622564589,3.961603363019459 l-3.1151883789472232,4.697178627092329 -1.2259976385421405,3.185702656089461 l-9.475782848181202,4.678574370851572 -0.025092499755169917,11.736203984084428 l1.747579243165978,10.155488989275856 4.565870094155125,11.050195524936868 l6.646831774812807,-2.0268513618442645 2.0707520214920128,-19.42279008501398 l0.8928867074585641,-8.129067819097397 -0.3160549488051227,3.1640181505193596 l-7.9844306642286,1.069385665486674 -0.3849854252261889,-4.08636258480988 l-2.7867472315330777,-6.103761377814873 -1.9773986355053725,-2.582418953483286 l1.5477167364604834,-7.651722601629672 -0.12648775669624635,3.9759405135530588 l-3.3532677555351618,5.129132437477022 -7.2142221165215625,2.9534534216028416 l1.023834779164025,-5.935718724401402 5.546890456503362,7.953835148803898 l12.471747637322663,-34.16205164316421 " fill="none" stroke="black" stroke-width="1" /></svg>