<?xml version="1.0" encoding="utf-8" ?>
<svg baseProfile="full" height="219.1608990180665" version="1.1" width="135.89169843850388" xmlns="http://www.w3.org/2000/svg" xmlns:ev="http://www.w3.org/2001/xml-events" xmlns:xlink="http://www.w3.org/1999/xlink"><defs /><rect fill="white" height="219.1608990180665" width="135.89169843850388" x="0" y="0" /><path d="M42.148497154489014,185.29339694575637 m0.0,0.0 m-1.8192254818300095,8.867502072310126 l-15.329271672659006,-1.6940769331236216 7.940408208950663,-0.9169885687712368 l5.211778267865292,-5.507708703297345 2.0368535116078927,-11.638589855956225 l7.3210042518756255,-17.977285937354406 -6.796593976393228,-15.034934720048435 l6.523902702048581,2.1327126478326996 11.497440424388193,-6.965541513563216 l-5.61763210007384,-13.177373910272143 -13.687251697161358,-10.471031116095135 l2.592854465223192,-30.599892419145807 2.5113418092887496,-11.733369014803735 l6.388441662401873,-13.2722303774319 6.44901235944965,-15.998602998687112 l-4.784565391552779,-16.30598559734887 0.3744408626887184,9.90636514872142 l-2.7822641002804893,7.60519658635111 8.981707664618744,3.491822489863892 l-9.50054842010828,8.890457220284041 6.469496688858574,6.286553395893708 l8.300984029681397,12.295950047911637 7.413784399095949,-0.13704580355016427 l14.147256025237269,1.301060035392051 9.557117574210553,8.87481160454081 l-9.572405561779261,12.784467199677485 0.01065238689452519,7.305774602737174 l-1.3352741072736274,0.3652797167637789 6.949408585070574,-11.340699389531883 l6.309148890686664,2.9325968762144647 12.981199022984077,0.2634229582873185 l-4.362493993990087,5.048887829436901 -9.538410341454568,4.530710758117626 l-0.9645845894909044,6.316276773653862 -8.972498012241163,3.8369533709535353 " fill="none" stroke="black" stroke-width="1" /></svg>