<?xml version="1.0" encoding="utf-8" ?>
<svg baseProfile="full" height="237.3123810922901" version="1.1" width="118.60900015203724" xmlns="http://www.w3.org/2000/svg" xmlns:ev="http://www.w3.org/2001/xml-events" xmlns:xlink="http://www.w3.org/1999/xlink"><defs /><rect fill="white" height="237.3123810922901" width="118.60900015203724" x="0" y="0" /><path d="M27.298145162603856,212.3123810922901 m0.0,0.0 m12.731147039091372,-11.294175996456365 m12.422614965575498,-30.995650246915226 l3.3913044278155517,-0.14000028732821487 1.6024773263464769,-1.4485711202205669 l-5.469738098099888,-0.9361200160351949 m-26.975950823332866,-83.673141385968 l10.048265763172509,3.512399407226258 11.328037064460453,-5.4975570352472385 l10.157329998205263,-2.5564837958817437 -2.5739081561154675,-5.547456725212195 l1.9063891778769806,-2.6982665178107768 2.5551935956014913,-5.822975639626344 l6.568746058197574,-6.172131295475822 5.662376378443692,-6.342462388999828 l3.3698670627908256,-3.0380121687894555 -2.3159307497008017,-6.767740975674514 l-7.384067890706634,-2.9817220862431393 -9.177839463912099,-6.813614472658278 l4.089816682856362,-8.098698344973487 6.113951597749308,2.283180329211479 l4.345728623731511,9.214149041056254 3.158901926540434,-3.4396577121446925 l6.282254020649387,-2.7185093432584027 2.32948674755713,6.71969062057107 l4.5068294928818835,5.087471957383447 3.8053447651795738,8.264776071442913 l3.832227456577874,6.3956337715852545 m-16.60222897630386,34.8003202270487 l-1.987715866304401,27.412207183690978 -0.9606909698657234,13.904507196810952 l-4.285249633737156,7.734152001230684 -3.7314498827964524,4.255769627381262 l-7.031978027466845,10.080197663766821 6.490558448209291,8.124833065080088 l13.773348412036256,-108.01766244912245 " fill="none" stroke="black" stroke-width="1" /></svg>