<?xml version="1.0" encoding="utf-8" ?>
<svg baseProfile="full" height="95.64866924482308" version="1.1" width="115.2401389807442" xmlns="http://www.w3.org/2000/svg" xmlns:ev="http://www.w3.org/2001/xml-events" xmlns:xlink="http://www.w3.org/1999/xlink"><defs /><rect fill="white" height="95.64866924482308" width="115.2401389807442" x="0" y="0" /><path d="M60.99781503561644,57.004309832057466 m0.0,0.0 m6.510126235197258,-32.004309832057466 l-0.166281646944407,0.5529204811481665 -17.913640026508897,17.99012812855298 l-1.6676246044536218,-4.835301574060272 m-18.26958527971508,5.767589626766982 l-4.490809713191691,-14.899880566627303 8.197633388754996,3.4286921739990284 l8.880786056233756,6.603998944293281 9.091947009938991,-1.2965432565398043 l3.9834280882377016,2.145840459575643 3.643093040943121,10.118879313915018 l0.2936527064739426,10.339549159488657 -1.4341969044415717,6.64593191120348 l-0.4582658644050247,2.347029417118479 -8.505670593785965,0.7398350259887515 l-6.019129479321073,-1.6826493462353234 -3.8390725929803518,-0.7241275808727811 l0.6376877449151375,-0.5774812991468339 8.720096329335549,-1.8296235698541097 l15.962739151956251,-3.463540276173771 9.993633862301794,-3.513112325925805 l7.005812974554086,-3.383608582951312 4.696197730020172,-4.900029263996853 l-1.416065014635266,-6.058516059802732 -3.69847333360051,-5.6153388218832605 l-11.767470448494368,-4.318593369917534 -11.456453133165505,-1.2470348164705276 l-11.543604826259033,-0.17946706200544524 -6.324465504341415,5.332424131023739 l-2.1486955815339193,7.359696258746555 6.167746760399229,5.216352955545684 l9.500635608364538,1.848838560622314 13.487799986589222,-6.466241582431579 l13.814575491972553,-1.296025143301961 9.774236326717169,3.8837251845283403 " fill="none" stroke="black" stroke-width="1" /></svg>