<?xml version="1.0" encoding="utf-8" ?>
<svg baseProfile="full" height="137.6095359470815" version="1.1" width="175.42987934140535" xmlns="http://www.w3.org/2000/svg" xmlns:ev="http://www.w3.org/2001/xml-events" xmlns:xlink="http://www.w3.org/1999/xlink"><defs /><rect fill="white" height="137.6095359470815" width="175.42987934140535" x="0" y="0" /><path d="M95.39643143232696,25 m0.0,0.0 m2.7521568662213824,9.924024180996089 l1.6031558359193236,13.835428508909096 -2.5230666519192857,4.789838396717424 l2.749391930033534,6.631195189793965 5.224001472586114,11.541600850885791 l9.482768014378372,4.407995878289488 6.233680656099875,1.8958379728875001 l6.531118458564025,-3.17111991292987 0.6396424471650997,-3.072972759558877 l-8.099772303327386,-7.633673211661917 -10.988005886010054,-6.297096287033517 l12.402724192927312,-10.631731745500502 11.678251952730752,-9.824615111983364 l12.978791949307977,16.842462851027914 4.368608974401341,9.559863151531529 l-2.1580282186802373,3.663120530430036 -4.677678430856013,-2.391398182985999 l-6.550348976458906,17.50315058739196 5.327106323599061,-2.817826468986482 l-1.714479869397149,-2.743902687676983 -7.086914544683156,-0.16952353680642188 l-5.416550956534363,4.663550138025346 4.677613461756997,1.574147291710713 l3.2544077739697213,-3.1205620505251206 -15.987193122380607,16.51272647079099 l1.2064217518003946,2.0958822586597248 -5.599773735501908,11.68899663466421 l-10.91998903819078,-9.09304740870103 -8.836135405023567,-3.8439554632446225 l-11.775320024362385,4.314878778071538 2.2156305751391434,6.321790293203315 l8.09647595957186,1.0481106364141193 -0.8995280529571731,-1.3802376909575402 l-19.89288158940291,2.087741615184587 0.7168657734085415,-4.12320447451579 l-11.79286768425141,7.000900407907468 -2.6401710961289724,0.021160316656733888 l-1.55468736847783,-2.1686730455729664 5.180284076787986,-0.026547315009160407 l-0.26675822046448594,-2.2615466349884064 m-38.33537870368719,-33.8022495574382 l4.794949283525843,-11.601133379850989 " fill="none" stroke="black" stroke-width="1" /></svg>