<?xml version="1.0" encoding="utf-8"?>
<!-- Generator: Adobe Illustrator 24.0.0, SVG Export Plug-In . SVG Version: 6.00 Build 0)  -->
<svg version="1.1" id="Layer_1" xmlns:ev="http://www.w3.org/2001/xml-events"
	 xmlns="http://www.w3.org/2000/svg" xmlns:xlink="http://www.w3.org/1999/xlink" x="0px" y="0px" viewBox="0 0 183.4 352.5"
	 style="enable-background:new 0 0 183.4 352.5;" xml:space="preserve">
<style type="text/css">
	.st0{fill:none;stroke:#000000;stroke-width:1.7657;}
</style>
<path class="st0" d="M12.1,328.5c1.9-15,4.9-33,19.9-39c14-1,22-14,24-27c7-33,0-64-1-96c0-3-4-5-4-8c0-31-9-63,2-94c1-2,2-5,3-7
	c6-9,14-23,27-16c12,6,8,24,12,37c1,3,2,9,7,8c4-2,8-6,13-6c2,1,2,3,2.1,4.9c-0.1-0.9-0.2-1.7-0.2-2.6c0.9,6.8-5.5,6.4-10.5,6.5
	c-6.3,0.1-9.2,1.9-8.2,8.6c0-1.2-0.1-2.5-0.3-3.7c0.1,14.2,12.1,24.2,17.1,36.2c0,13-4,30-19,34c-2,1-4,4-6,6c-1,1,0,3,1,3
	c4-3,3-10,1-14c-4-6-11-2-17-3c-3-1-5-4-4.5-7c0.3,1.4,0.5,2.8,0.6,4.2c-0.2-2.2-1.2-5.2-0.2-7.2c4-7,11-12,12-20c1-22-2-45,12-65
	c8-11,13-22,19-34c9-8,21-17,33-11c7,3,8,13,7.8,21.2c-0.4-3.9-0.7-8-0.6-12c1.9,9.8-3.1,18.8-12.1,21.8c-16,5-40,8-38.3,29.6
	c0.3-1.8,0.5-3.7,0.6-5.5C103,86.5,115,97.5,125,108.5c3,4,5,10,11,12c11,12,23,22,32.6,34.6"/>
</svg>
