<?xml version="1.0" encoding="utf-8" ?>
<svg baseProfile="full" height="173.30019277765393" version="1.1" width="155.80068038653587" xmlns="http://www.w3.org/2000/svg" xmlns:ev="http://www.w3.org/2001/xml-events" xmlns:xlink="http://www.w3.org/1999/xlink"><defs /><rect fill="white" height="173.30019277765393" width="155.80068038653587" x="0" y="0" /><path d="M123.71084336462427,148.30019277765393 m0.0,0.0 m7.089837021911614,-11.497095186256185 l-16.74492761745937,6.6460634202353805 -0.05080544475103959,-22.58332455990053 l-32.041282193767856,-72.29569452815721 2.727815236715099,-5.8222366676423665 l3.677901343643303,5.567179347857012 -5.649928507776477,10.616425517026013 m-57.719453203139544,-13.453491180567118 l12.137195967138107,-4.943183453008329 5.1189898392874875,1.5035158899286967 l6.937387562925827,-1.4993991595849914 6.498943464842033,2.6620792118311845 m-16.979890772000996,95.34227964606097 l-0.8409246912156673,-0.834417036210997 4.333974148210539,-7.972158912194474 l4.6972180845575116,-2.46316730134844 1.5692236123803285,-14.009165125329565 l-0.30340441239339766,-5.515359982740758 0.7302398367097159,-14.36124791833395 l9.82080973793575,-8.390006059230904 14.993116110833624,-9.938551300714247 l0.49666134437867937,0.8385320737599233 3.3558784036446387,-3.670460788027463 l-13.307156958414149,-16.632823109225622 m17.838153695326735,7.216083996784679 l3.2535011756866448,-5.269914636284832 0.8701442371058207,-5.104032046295598 l-12.578831698754577,11.047589435641276 9.480228560112737,7.984854231995682 l14.148907653769058,13.078211755697252 8.870249267198563,17.792962569024553 l3.248229251946002,12.595733462696527 m6.4548752043678626,-70.93926054929966 l4.758308393940885,-9.890410997763084 3.039648622010115,-9.106302838076719 " fill="none" stroke="black" stroke-width="1" /></svg>