<?xml version="1.0" encoding="utf-8" ?>
<svg baseProfile="full" height="122.83536799054212" version="1.1" width="105.2233696178546" xmlns="http://www.w3.org/2000/svg" xmlns:ev="http://www.w3.org/2001/xml-events" xmlns:xlink="http://www.w3.org/1999/xlink"><defs /><rect fill="white" height="122.83536799054212" width="105.2233696178546" x="0" y="0" /><path d="M39.93737813469904,88.70104673352606 m0.0,0.0 m39.21685525036911,9.134321257016062 l1.0691362327864473,-2.398664764665258 -1.2521921829049276,-4.034142496196618 l-12.413183741987858,-17.10247479998478 2.986618197720935,-39.92295338621778 l-1.4458329625689077,4.333221282728676 0.8249784967000036,5.11090443540937 l1.7887437596613989,2.9136350502322275 -6.536323172765011,-4.456529577594937 l-4.49009393797814,-0.3484736939180914 4.270751434165348,-1.8760369338804195 l5.584789430475969,-6.697622228511124 -5.254999663376023,-8.35623087794338 m-37.775234071092214,14.97170122423893 l-1.5113912039051758,-1.095625429253128 7.857744142545121,-2.1994525262407714 l5.233619921808781,22.445067702881722 5.709572419473757,8.623553446561617 l1.605879377493479,4.122764215852997 7.406698731919841,2.665735268331704 l2.5123451789346274,1.5129708444526917 -0.12268605078484329,1.9695201151344155 l-2.148589087938251,6.469747540261485 2.1498890270903517,5.534380952276403 l10.756669019624448,1.8505570717739876 4.32816979906161,-5.023309531144282 l-9.052093325542042,-3.253888832066548 m-6.563013332280499,-9.513187477875057 l2.618768362358682,-3.8466757566567105 -0.821551702201967,-8.623076451284838 l9.562836274816368,-6.607454995155306 7.701880525300982,-2.352496074831741 l-1.241657250726782,1.7995623836954304 2.050372107338001,5.714799448783647 l1.552859540872605,8.80560802903656 " fill="none" stroke="black" stroke-width="1" /></svg>