<?xml version="1.0" encoding="utf-8" ?>
<svg baseProfile="full" height="114.47086944535542" version="1.1" width="93.43912986806487" xmlns="http://www.w3.org/2000/svg" xmlns:ev="http://www.w3.org/2001/xml-events" xmlns:xlink="http://www.w3.org/1999/xlink"><defs /><rect fill="white" height="114.47086944535542" width="93.43912986806487" x="0" y="0" /><path d="M55.2749152269048,89.47086944535542 m0.0,0.0 m-20.66266240016704,-61.20451197685996 m4.602825702819818,-0.7511600948515209 l-1.1128165871434965,12.517986049990215 m1.5884028926069027,8.695459510079116 l-8.190496625970937,-1.2748923742982465 -3.8918392724061213,2.190614544255674 l2.4939252505827056,5.636428347270746 10.953384389903317,1.320096699569729 l14.526597013648566,-4.436565996760199 5.4560812112283985,-0.18212889641627739 l6.531277664461893,4.386619309427752 0.869535401596059,3.5863779693372555 l-3.7453181971741394,1.1042146774747208 -8.10971530441388,-0.21442877477939173 l-9.40390639093445,-2.53597218333084 -8.43685494427809,-3.916416208836783 l-6.080634220768381,-2.1283865353838034 -3.2523046832340676,-0.20594814425776978 l-0.32338065593638265,-3.644564561760327 4.117589636949441,-7.408293157274743 l5.186508368141879,-7.584853648228147 m0.28224499791690727,-2.6561373435737057 l-5.854154078782315,-1.0848668811537598 -5.263630403601775,-2.7916674664478363 l-2.555573991949614,1.8909905622009975 1.7600780096599395,3.2219766663922265 l6.4436425538618884,2.457217000596016 9.948583836548057,-1.4924495940156262 l10.510874558450661,-4.937329570000253 6.824656725949622,-1.4509001837295206 l2.985442566898059,1.1343529888354782 -1.416491741682802,0.7512404281283739 l-6.858979086622583,-0.24767696347313162 -13.765196215457346,-0.3410508496878517 l-11.500891821895042,-2.8742427937940223 " fill="none" stroke="black" stroke-width="1" /></svg>