<?xml version="1.0" encoding="utf-8" ?>
<svg baseProfile="full" height="284.3280119171474" version="1.1" width="296.5226951130582" xmlns="http://www.w3.org/2000/svg" xmlns:ev="http://www.w3.org/2001/xml-events" xmlns:xlink="http://www.w3.org/1999/xlink"><defs /><rect fill="white" height="284.3280119171474" width="296.5226951130582" x="0" y="0" /><path d="M218.09622782012698,259.3280119171474 m0.0,0.0 m33.31217643137514,-25.984409593062296 l15.46010382254774,-56.02675986119287 -10.3506551868599,-9.888335628947965 l0.9260013072388895,-2.2102504500501934 -1.5437111496308624,5.498164579694602 l0.5166998211700182,7.836649406908996 m-6.1356253497150846,-13.420273664095603 l5.60517600064915,-2.0491352001931658 12.94219504534503,3.1692053531649664 l2.6941065508110906,4.67467525248492 -0.9883301511210193,-1.8351774977040458 l-2.911637401976382,-6.6704116069679085 -2.163302212848159,-5.3538129698222 l-1.6705137437004371,-23.10999319092362 -12.54099858763245,-17.319071126642992 l1.5040973827654542,-12.020618741520387 -8.188694121717852,-8.37338358618551 l-12.67163037209544,-8.713774318370278 -7.459113823197734,-12.351074853542565 l-1.3234781734356982,-6.049987698841908 -5.498130010832553,-20.846145208845375 l-16.124935360221055,-9.062635229567796 -18.905774287084736,6.579295275408625 l-8.518410833816674,-4.102596818672609 2.600052315909159,-16.69815453966021 l6.3265252567006565,14.302814896560525 5.577010201665713,13.080988873429233 l-0.8661528669028817,12.58701861680285 6.623015233207947,7.580516519364289 l-6.740406778983321,10.583546991010898 -3.0038390286357894,11.61059420314988 l-5.520768293049478,11.306575287529563 -2.7014629449276337,5.561812163042368 l-13.862402565136202,11.493766546388354 -44.48660677073268,17.2998764509784 l-26.4061578113529,14.84528218513991 -26.370877262226873,11.460903390630493 l-40.229772101679174,6.446043506991651 " fill="none" stroke="black" stroke-width="1" /></svg>