<?xml version="1.0" encoding="utf-8" ?>
<svg baseProfile="full" height="149.94183986861998" version="1.1" width="115.48154874099654" xmlns="http://www.w3.org/2000/svg" xmlns:ev="http://www.w3.org/2001/xml-events" xmlns:xlink="http://www.w3.org/1999/xlink"><defs /><rect fill="white" height="149.94183986861998" width="115.48154874099654" x="0" y="0" /><path d="M25,81.68490068925466 m0.0,0.0 m6.819228548192204,-1.4559968654782707 l8.133570485508987,-4.3947629236933565 6.4918382272931,5.393977608706662 l-1.0663850982242178,8.319991802994153 -0.20716778060053223,5.297833876922235 l-5.0855838639253745,2.7543761715388624 -0.030036614038619625,-5.789123113040517 l1.7708238439651791,-0.2758463485842663 1.1329430088892016,6.0298830929956555 l-3.0599048672417655,4.8792732645672725 -2.9128330713649686,4.103825139888973 l7.97537371593799,0.8381163065161273 10.480709377720911,4.393011317081828 l4.215639758659614,9.113064226897896 -2.31179985136981,4.049315622052053 l0.6797084547237071,-1.64175195069365 12.259873016473485,-4.403458240241041 l-0.2530270293018284,-6.870696965224923 -8.647810820399426,-6.738716539960704 l-7.174765523985422,1.928923244797784 3.389575528205171,2.939745267088918 l12.109799153769504,-5.76053278906036 3.3558775485277437,-3.9251475893366026 l1.5332229226028244,9.372009606244927 0.8565312067077876,9.139527498382414 l-6.158410391918565,2.15560735605314 8.22247448778459,-20.528278091859693 l0.48708218277906223,-6.004826410672144 4.557568637932637,3.705576838214045 l-13.57392642966813,-9.610461635156666 -4.4017131384521155,-6.233333486227992 l-4.262510703533668,-14.80601045164549 10.31901873097676,-18.36703108823177 l5.552661661137113,-24.292984441090155 -5.4663015785529945,7.2349253222429395 l0.8717776109161218,19.215285533227032 -0.016095471255003213,10.831667046734799 l3.029646918643794,6.037835702283596 0.19488527701672947,0.9528685454719604 l0.49198524587842724,2.8893449745748914 9.738095502478114,14.463415958100532 l5.439909922108231,-2.5869531832702974 " fill="none" stroke="black" stroke-width="1" /></svg>