<?xml version="1.0" encoding="utf-8" ?>
<svg baseProfile="full" height="156.27060226473563" version="1.1" width="136.82596340404422" xmlns="http://www.w3.org/2000/svg" xmlns:ev="http://www.w3.org/2001/xml-events" xmlns:xlink="http://www.w3.org/1999/xlink"><defs /><rect fill="white" height="156.27060226473563" width="136.82596340404422" x="0" y="0" /><path d="M25,129.1203108122339 m0.0,0.0 m22.75367715074471,2.1502914525017283 l7.293766286550563,-47.75966149891904 10.039004961069299,1.347710711799174 l4.755289327888786,6.775829732296444 1.3500136942268408,6.263399324203746 l0.5927641312531948,-3.4808856262464296 1.9374702803802446,-0.6733095132131608 l6.540958702735122,-2.399738369473147 3.313290730483779,-6.697536651154668 l2.3451221344119237,0.8578365433302212 -7.996067019486045,-3.138421447841717 l6.256271873449737,5.090628631350876 4.6342398685628385,13.731745383458058 l-0.39496189190504793,11.10063784815618 -0.6403318902941816,-16.841806177620626 l-1.3144960290730778,-9.646211821333338 8.777631669083755,-6.275293846884858 l2.5357801184627817,2.0066189912417607 7.720373480038168,5.713877601837802 l-9.551579684065201,-4.593250352890463 -2.0397159734388826,-6.998816790552793 l9.76510163829901,-0.08592111366076904 8.152359844665924,2.2874658010839104 l-0.45528771996499295,-2.1914583188987855 -3.131871847523074,0.5592536579236213 l-27.66199976681973,-22.52023497185217 -9.692658255718603,-6.439143748774714 l-1.7086634552963804,-1.8288421210928822 -3.8334332645728506,-6.081724677134641 l-1.7657017949574563,-9.062128728445678 -2.880613105064512,-1.0178140054670686 l-2.684026935016166,-4.2734067099604855 -0.49848925649678855,3.4800132990800345 l10.745410355110563,10.821281494317882 17.9699476673023,2.5839134457722377 l12.839703037582721,4.488884939071343 4.710701121020966,-0.360422221167514 l-32.31164292190613,20.277352790052703 " fill="none" stroke="black" stroke-width="1" /></svg>