<?xml version="1.0" encoding="utf-8" ?>
<svg baseProfile="full" height="163.92823861460425" version="1.1" width="121.96690758728325" xmlns="http://www.w3.org/2000/svg" xmlns:ev="http://www.w3.org/2001/xml-events" xmlns:xlink="http://www.w3.org/1999/xlink"><defs /><rect fill="white" height="163.92823861460425" width="121.96690758728325" x="0" y="0" /><path d="M57.262894405920065,119.22499364918714 m0.0,0.0 m20.674951463010153,19.70324496541712 l14.03603780680512,-37.8024694432129 -4.014335040507353,-23.563763544530193 l1.282240274384292,0.6084610161215528 m-0.15621483286204146,-5.041644702714998 l-2.9378077388682167,-9.286903693780458 1.9525053411095632,-8.977681118664892 l1.2998842264241701,-1.6740392834052764 6.441335491795923,10.132356151728796 l0.4850390406918127,4.168500584787477 0.6403771493797561,-1.9172724979829636 l-1.0834152000967567,-1.414391439507258 -7.328408160829165,-4.55921479379156 l-5.2071723769460485,-5.160844309135166 -9.385824998272117,-3.3000022000227967 l-17.077664857967616,-1.2606140258363587 -4.105744232750999,-2.0534609752247004 l-19.75263383631514,-7.318522138485479 -8.026043924105402,1.5056647486568009 l18.075599971914848,4.374451809592085 11.076474711804437,3.1988694622791223 l-2.8639434669088404,-9.264753103099789 -9.759845953394398,-10.803620212623263 l-8.247375533435985,-2.1532635993191476 -1.533443041383901,-2.364081306432889 l2.3843904732734607,3.507104796146451 11.81720374160352,-1.1263572595447724 l2.95241736972729,6.34733725293793 9.213852604796674,11.869389558724661 l1.455488207549938,6.645092815375706 0.17658913862200032,8.034263970563643 l4.164524075982369,5.541704675659408 -2.3281882548687824,10.790612443544278 l-1.654585529136725,6.764798049134742 -31.589640683861216,12.576938890015233 " fill="none" stroke="black" stroke-width="1" /></svg>