<?xml version="1.0" encoding="utf-8" ?>
<svg baseProfile="full" height="180.56355521873914" version="1.1" width="192.8955863015988" xmlns="http://www.w3.org/2000/svg" xmlns:ev="http://www.w3.org/2001/xml-events" xmlns:xlink="http://www.w3.org/1999/xlink"><defs /><rect fill="white" height="180.56355521873914" width="192.8955863015988" x="0" y="0" /><path d="M39.020825330233976,136.55941428087294 m0.0,0.0 m5.227016022261537,10.802536905059448 l-2.8162657119401717,-17.758196143075633 6.091508513214692,3.4162668068995394 l4.534577967281945,13.355398565906901 1.6224902960308818,9.188134803075938 l-1.9344866521614705,-1.4560488862241572 -0.13606017229585599,-7.0158216474335 l-10.147509924389366,-7.8931431588415775 -2.1869725681530414,2.5585779287653208 l-4.751747528231838,6.101914716289694 -7.982609374215337,3.7110484436768063 l-1.5407661976359521,-0.5165860578899125 m31.363505190662625,-54.01688009501811 l11.238968228973375,-9.133625109745292 2.032510285946379,-8.492123842350109 l7.973604127980902,-9.832120348192559 4.962244717638556,-8.781515639737336 l7.026781448722623,-4.721730609737714 m67.80021868145198,2.1111046626526253 l6.258583739976601,2.598087488694876 -10.46445202032387,-7.659054509645929 l-5.825660405273951,-6.01010616596754 0.3232468066671998,-8.408883823819183 l9.87300108644528,-4.822546108680489 6.588048453283784,-8.884102455535043 l3.744985959447291,3.7806048640984335 -10.513947798285649,5.261454933744849 l-9.586130571744558,-1.4803550679463344 -14.674530126964939,0.7406162006712447 l2.624486567949421,-3.2841765159173466 -5.3366890652553245,-0.4428913904440329 l-4.489360767064892,-0.44672284788266237 -0.4522488859127871,7.693611443230506 l-30.043489399191476,13.134997910519559 -4.783618744185585,-4.6958598938429335 " fill="none" stroke="black" stroke-width="1" /></svg>