<?xml version="1.0" encoding="utf-8" ?>
<svg baseProfile="full" height="254.58253309777533" version="1.1" width="202.13042416431944" xmlns="http://www.w3.org/2000/svg" xmlns:ev="http://www.w3.org/2001/xml-events" xmlns:xlink="http://www.w3.org/1999/xlink"><defs /><rect fill="white" height="254.58253309777533" width="202.13042416431944" x="0" y="0" /><path d="M177.13042416431944,229.58253309777533 m0.0,0.0 m-10.819020508667984,-76.8042518080811 l-3.7605001116457237,-0.5110107532719843 -1.6080545009412184,6.173648626891373 l-5.042698731912824,4.355798851054278 -2.536084920887092,-4.574482549915598 l-13.830335144772986,-2.9234999567648767 -18.45296458440301,-19.07903627024203 l-13.157908159642421,-12.009477315055324 -23.841872625864465,-63.09179971855636 m7.037181317974384,-4.508413996716218 l8.343261254254143,-2.948947234981226 m-27.165443238865826,-27.64741119665727 l5.212487317913199,-1.0136497754790086 -3.0531632212273645,1.996892112598354 l-7.680798548074491,5.747806476412382 -17.791494457907557,5.047095514752604 l-19.316164353646073,8.130560681447118 -4.666850946002112,-1.809536387759505 m31.57877612238965,-1.9065744692627629 l7.3909259932539015,21.597597838765314 -8.215573335945956,-2.76020494639742 l-6.814888848159959,-0.6184118662774446 -15.062065166527235,-4.212019255909909 l-0.6990009649310264,-14.404050607659489 m8.578568504613296,1.5715969782556671 l9.745844942399419,-3.4643800764595887 2.2097941387591082,-1.5468036886913183 l4.646431917719233,-4.456716565380021 -7.849935552288767,-3.801471541441707 l-3.260917009102278,3.8428879231344304 12.406322967139976,14.045290958812606 l5.883936939750127,15.823517927234132 -9.140748765256454,22.25111762136067 l14.141317757296457,15.862448110232057 m-16.703871846325796,51.539472966947336 " fill="none" stroke="black" stroke-width="1" /></svg>