<?xml version="1.0" encoding="utf-8" ?>
<svg baseProfile="full" height="117.6860329486363" version="1.1" width="133.8656045401007" xmlns="http://www.w3.org/2000/svg" xmlns:ev="http://www.w3.org/2001/xml-events" xmlns:xlink="http://www.w3.org/1999/xlink"><defs /><rect fill="white" height="117.6860329486363" width="133.8656045401007" x="0" y="0" /><path d="M108.86560454010069,67.79601890894386 m0.0,0.0 m-44.09243284047478,7.601621783544887 l-2.078566149251836,-6.556191419078339 6.344453392533686,-3.450144414760177 l-4.52232311197904,-7.204295892611194 1.9104763683553498,0.8805738310792413 l-6.238792272340763,1.728993281363136 -8.478390964793897,-1.8822819008591052 l-3.909366154261185,2.000848486080104 17.12191174908782,6.3677705193479595 l-3.08203099172981,-0.7080695056442166 m-9.15276908833171,-18.914720104865957 l1.8924618530948134,-3.0389102075841916 1.9237851173457337,1.9331733486521736 l-14.776844720155188,9.858496292426688 -3.9974804885069957,-2.315495541443155 l0.3964689912986513,-11.272273515524969 -1.4236833169750855,-6.357543343922147 l-3.094277095566838,-4.659839504987808 -3.9621594049259667,-0.8572497901601243 l8.030429192215996,-5.95048130999666 6.654848280614086,0.8228161419053698 l6.010355887112817,-0.5499462457919951 1.9941129849915225,3.6295599171960102 l0.3168912449526002,2.9762084916082174 -0.5626218833756282,8.907979005198584 l-9.132566708226259,-1.3787195599476267 -10.581774347196632,-2.706438779516928 m0.47558447753547783,31.08413349296195 l-7.851304541147625,3.442858612852212 3.5725837054345804,-3.527155279132 l9.001427521445793,1.3946900128207278 -0.1364348335827977,1.6246564545095712 l5.325173992260363,1.3440933601575928 2.2490598885568027,1.1967924500746223 l0.9529091807955865,3.536759020719035 0.3651120896710411,3.800376213486507 l-0.44443888573994544,5.862532833330684 7.407183340581622,5.374866632767442 l12.225923002519547,0.8499701734363136 -0.401052537419174,-5.2978853259480845 m-22.97250221388733,-17.763603437665196 m-2.8357354682889326,-18.52977804848215 " fill="none" stroke="black" stroke-width="1" /></svg>