<?xml version="1.0" encoding="utf-8" ?>
<svg baseProfile="full" height="146.4667204921635" version="1.1" width="98.46691290437853" xmlns="http://www.w3.org/2000/svg" xmlns:ev="http://www.w3.org/2001/xml-events" xmlns:xlink="http://www.w3.org/1999/xlink"><defs /><rect fill="white" height="146.4667204921635" width="98.46691290437853" x="0" y="0" /><path d="M52.32733976193204,53.69903138025884 m0.0,0.0 m-10.202977291077861,30.194317346974387 l2.164282555100159,0.41998244969129833 4.555762880264142,3.848778270416971 l-0.06865415028192018,5.7234899646411925 1.1708926502285704,4.455128620460583 l5.442345458264994,1.4156139957561091 0.5242261192388333,0.9406246399059779 l0.4993626409039076,3.951105643707727 -0.5682369581628145,4.442381056961102 l-2.6521605457374617,5.848613208238214 7.0602618613816235,5.459012710366136 l12.663123637934454,1.068641204784954 0.5513442843898627,-4.903670982563073 m-15.396517908779998,-20.279486848824018 l-2.1988321627129355,6.676890590427062 2.336718536462468,1.8658763632564994 l-8.543406995730077,5.272137146958678 6.896164885904958,7.651036907286605 l11.557118095709173,-1.5074791962285943 1.5294770531322481,-5.064184345697311 l-5.964052861112806,-3.8550075849051146 m-14.064124596597946,-21.494229813850993 l2.5028434242167945,-4.192366176907331 4.154298668672579,0.8716627722327137 l5.108833550533062,4.873453079336856 -6.659713965878,3.5400914854086394 l-13.793983821103627,-0.7810739027763183 -9.064179096342807,-25.042232163010187 l-6.867555710751618,-13.184387034650904 6.061852418256881,-10.321261783699951 l5.220221764916453,-6.908557267563987 5.658049406415084,-9.683931736392763 l15.56143013192636,7.416071995062801 6.723619468113838,4.262601183247318 l3.765637665471627,-2.1513608472547383 " fill="none" stroke="black" stroke-width="1" /></svg>