<?xml version="1.0" encoding="utf-8" ?>
<svg baseProfile="full" height="172.03794365409527" version="1.1" width="130.00414742419107" xmlns="http://www.w3.org/2000/svg" xmlns:ev="http://www.w3.org/2001/xml-events" xmlns:xlink="http://www.w3.org/1999/xlink"><defs /><rect fill="white" height="172.03794365409527" width="130.00414742419107" x="0" y="0" /><path d="M105.00414742419107,147.03794365409527 m0.0,0.0 m-23.22408220725822,-5.124577295951809 l1.0663402270880018,-5.204724780460832 m14.547008511394424,-45.95052416667899 m-1.3474308598518425,2.096559165243471 l-22.149813068029214,12.823163051444176 -11.858200666241396,7.861309910275229 m-37.03796936129283,-56.6050659506582 l7.215941294239927,-5.500420452077646 10.151788341609375,-6.342499877137411 l-6.3730717881647,8.479688213796685 -0.6779458349448881,4.350448707437436 l6.812037778525611,7.604334850098407 -1.6121360164198042,3.9017068244266437 l6.461145171129307,7.43559247957816 19.319623066593337,3.020644081441001 l4.748069517806577,-4.68095091904026 -8.25865878350729,-14.329082999002427 m-10.438465700556746,-3.500468941376625 m-5.871498971543971,-5.705638352589757 l8.260934792889048,-5.417278128004826 4.854178298205552,-0.11483322457117157 l-1.129675750897902,0.2726792300552243 -11.461317776482183,0.2866528347562605 l-4.087850589084838,1.598012343486215 10.434529027484661,6.040547589776329 l12.478522462267883,-4.422117965960128 -5.771807374783687,-10.403754269676401 m-20.691211435641183,-10.426881568708831 l1.7770157063258976,-3.5691008298912905 -4.9905949882093354,-0.5113632141239047 l1.2754383448368807,6.374520196987974 1.7726667641654759,5.147884913004168 l-4.342591071719863,4.738334347131449 6.46683870895394,1.6265796175507798 l0.019841524946831793,-5.478277060240597 " fill="none" stroke="black" stroke-width="1" /></svg>