<?xml version="1.0" encoding="utf-8" ?>
<svg baseProfile="full" height="142.25972149498554" version="1.1" width="147.807667730841" xmlns="http://www.w3.org/2000/svg" xmlns:ev="http://www.w3.org/2001/xml-events" xmlns:xlink="http://www.w3.org/1999/xlink"><defs /><rect fill="white" height="142.25972149498554" width="147.807667730841" x="0" y="0" /><path d="M86.23969498125216,83.19591282465086 m0.0,0.0 m12.815324118427492,-12.337741967090947 l16.27503752068706,17.240462518688133 m-0.02755440421618863,-39.12223963169857 l-0.18776292100186404,-2.853799263418828 -5.717319002623129,-12.928783657599675 l-0.2709408637383981,-8.193810823530965 2.6266395575384505,15.398585492959551 l0.793764056443535,9.858798493200306 10.260784688071864,12.511711523969868 l-5.060082936699019,10.893469289442763 -13.053625002833043,0.38441436449960786 l-7.928224327143549,9.665727563131794 7.1783605303682325,8.427107326035241 l-0.7237287048197372,11.604394322887162 2.1616272021664393,9.174677442249326 l-0.5914022189195411,-1.3583319806338912 0.39443291647947615,5.699167657243806 l-2.3474068266610875,-6.326354735838904 -15.49071962355881,-2.823280931837999 l-9.958301913426476,-5.459478074342525 -15.067396524299117,-4.7155176746418 l-6.882032946416608,1.245434622726126 -19.411323134054292,-3.7611588117851102 l-5.926199784951896,-12.572935392388617 5.616919415254557,-9.064764352302555 l10.050043485324597,-9.165598231583832 1.1387873514255809,-13.498864568958988 l1.063272082703703,11.723192256892219 0.5586963528725347,8.07046280281774 l-15.617383004222546,6.8707606062052795 -7.611058605923313,7.7482624065778065 l-0.30092151350706253,5.978812237381256 0.8532278228574752,2.625127762595821 l5.719763241821856,6.635459141411937 5.291146202315504,10.120869283657864 l10.838773606048967,4.718462688539371 24.640552615447966,-79.27260326075395 l5.983874653875245,-3.937321337576408 " fill="none" stroke="black" stroke-width="1" /></svg>