<?xml version="1.0" encoding="utf-8" ?>
<svg baseProfile="full" height="310.05499208058416" version="1.1" width="161.9362838965947" xmlns="http://www.w3.org/2000/svg" xmlns:ev="http://www.w3.org/2001/xml-events" xmlns:xlink="http://www.w3.org/1999/xlink"><defs /><rect fill="white" height="310.05499208058416" width="161.9362838965947" x="0" y="0" /><path d="M26.40664864858236,96.51044528972758 m0.0,0.0 m11.294662500151382,16.193694493156652 l-12.701311148733746,11.265515541103138 12.396873324069228,-78.0540897617136 l10.040525922569934,-17.26391647648804 5.332371786329635,2.675953921769787 l-4.471966580529374,-0.42991886916647826 -3.8117552748099417,0.49816227779873823 l-9.720425573731912,-6.395846416187784 6.0013970532600265,6.243234471469599 m-0.3195866128866809,0.9425272409599667 l-2.756325283303037,6.559833787769374 -5.124730952314913,9.658468083522784 l9.136185444828099,3.9864568695981504 8.044941106019493,7.73369165129715 l9.716478475071568,7.4354627332699295 9.771603497850837,9.244862955083127 l6.666359846422525,1.5707883091487245 8.507833712337218,-1.5938681805832626 l7.3458530133211,3.2190285631371554 7.865514384273615,6.792384596806202 l4.421909966519093,8.824171046980943 7.4216692109681714,-2.0256355711741914 l2.2444932068766446,-4.913211019803609 m-49.517936150286936,89.20417558615735 l4.528821032202479,-6.935754660450335 0.7859384380775736,-14.4361903831282 l8.266026640932518,-4.490171714736325 m22.221024283669706,76.5080050690449 l2.223278014507979,18.264601804435483 6.442927651602611,2.3306317297092236 l11.96664974126351,4.869171303395732 12.321181060260944,0.5196222035769543 l3.989153511222935,4.869790102297398 -9.770780534205254,16.37396197406445 l-6.19285062170513,9.298953528735492 " fill="none" stroke="black" stroke-width="1" /></svg>