<?xml version="1.0" encoding="utf-8" ?>
<svg baseProfile="full" height="189.7990237019625" version="1.1" width="97.26396433684516" xmlns="http://www.w3.org/2000/svg" xmlns:ev="http://www.w3.org/2001/xml-events" xmlns:xlink="http://www.w3.org/1999/xlink"><defs /><rect fill="white" height="189.7990237019625" width="97.26396433684516" x="0" y="0" /><path d="M64.26479685920405,121.0936888027982 m0.0,0.0 m-19.413878501160607,28.110123265922297 l-3.4012698617965555,2.7886312461773315 -16.449648496246894,11.895436098096312 l17.543125622640208,-25.83345053187456 13.858582466796623,-52.86745450192481 l9.846442368032,3.910543245882128 4.598777357519094,5.497212067784215 l1.417036521857245,7.407184402003841 -7.157700395219494,8.338011102158596 l-11.084545909221562,7.189660802570977 m-21.047282577384703,0.9688098620275022 l-2.328881279737397,4.764566330838495 -3.8957452936916606,9.918050837932029 l11.309004013828195,6.881522576777988 m-8.19199407981432,18.18768075867958 l-2.8824582938292553,6.54880733611239 0.1723921210200166,-7.159661046904644 l5.772540724837568,-11.094584627167016 6.259725912629126,-9.403127501337 l6.173326411498661,-3.607968158732369 4.081448675613997,-6.330962308413423 l2.482344088658316,-5.939941741537803 1.7882600767719363,-7.692784583054444 l-1.7853285926336682,-15.543746764662334 -4.366947174894716,-9.121592184453974 l4.45476070551609,-10.374008674761525 -4.4377543257735645,-14.387449201246113 l-10.219530986544765,-3.8269661706363727 m7.307826659547958,-5.474336737989121 l-3.180049938830154,-8.086894639378563 1.8942431170463894,-9.717559467367177 l3.7778352529395964,-4.927620777295168 12.656785732351796,-7.109819117025442 l-3.447365068736954,1.5236153630267069 m-3.321628451870271,71.34461073373683 " fill="none" stroke="black" stroke-width="1" /></svg>