<?xml version="1.0" encoding="utf-8" ?>
<svg baseProfile="full" height="142.07781478910363" version="1.1" width="147.54926708550516" xmlns="http://www.w3.org/2000/svg" xmlns:ev="http://www.w3.org/2001/xml-events" xmlns:xlink="http://www.w3.org/1999/xlink"><defs /><rect fill="white" height="142.07781478910363" width="147.54926708550516" x="0" y="0" /><path d="M94.77679113689132,48.18254995330164 m0.0,0.0 m27.772475948613845,-23.18254995330164 m-32.19999430416985,54.50181273319978 l-2.9775262991045612,0.7178896702017181 6.580595418340502,5.1024965213631335 l3.8732835413304154,2.5332216411627115 -5.406403985253139,1.130669318592427 l-11.637607048443384,1.0539420349537383 -1.2624070166546808,1.122650026563719 l12.515495195302195,5.748229463903336 2.6501372920901267,-4.266774278896623 l-3.481933133087629,-4.444687347924423 m-18.00590935439583,-15.664230545804706 l1.070089440341116,-7.346643347981716 7.121866287953387,-3.3875851385058398 l3.2777591585085553,2.7646601116647065 0.8838151989114175,7.8486493983897585 l2.6878786334179985,5.215187017115471 -3.730104720801398,6.195763019290605 l6.150184871217795,2.5200749635589337 10.746751126953207,-1.5320070604336946 l-4.006416954356935,-5.296521886882127 m-20.0572132613406,-16.914729675979192 l1.139353786794109,-5.0410914322973115 -8.629444794918932,24.31123352600366 l-2.069332539152696,1.6783628270808073 -7.6704877225992885,7.346030713806304 l-11.49154324570504,-1.6863076797151344 -14.495518345535542,4.723549953460497 l-9.124634311146496,7.091379266615962 3.353623636051423,-4.309874571929281 l7.393212120701583,11.981776173518714 1.712713385832405,0.13828072947768935 l-3.960041348301394,-0.5495320065953798 -2.9610707902030273,3.9866572988622586 l1.107239257659904,4.805283353263101 " fill="none" stroke="black" stroke-width="1" /></svg>