<?xml version="1.0" encoding="utf-8" ?>
<svg baseProfile="full" height="177.41742956329938" version="1.1" width="130.1269526865087" xmlns="http://www.w3.org/2000/svg" xmlns:ev="http://www.w3.org/2001/xml-events" xmlns:xlink="http://www.w3.org/1999/xlink"><defs /><rect fill="white" height="177.41742956329938" width="130.1269526865087" x="0" y="0" /><path d="M79.26210826960357,109.10506925549888 m0.0,0.0 m14.73461719532331,13.730216490086502 m1.0624782032260909,-47.30035511303628 l-0.5906711259478504,4.388221095498815 3.4093260794836056,14.859508706006094 l6.58787171850195,8.854859407989538 0.6612223463180187,6.1389815024318315 l-15.773073083080225,11.344697838002249 0.5369577715885537,2.6035543726744392 l-3.8304335789590658,5.362005847682472 7.985207437871871,5.016829102833231 l4.800948838416968,-1.5351977255061557 6.106931300757933,3.2319325795958673 l-3.2090140080530873,-8.249867739852954 -0.25764496635346856,-12.974636140782199 l-5.925015668668505,-7.167121555617167 -3.7471285489129893,-9.839263452524975 l-7.665159180971879,-5.571281795802214 2.4362430227158405,-7.9408448346642295 l4.95019425713391,-4.31542789751624 -5.484802827588111,-6.701502369340067 l-9.49865207856376,-3.2176547788362306 -11.996030653860936,3.6501281872965596 l-9.675339477911868,21.199757070043344 -6.897572442704344,14.56053050500425 l-11.569577084995094,16.625691482043994 -11.41399171437044,12.023125934277514 l13.005005258287238,14.535473589812508 12.440557700757186,-2.5738152174146665 l16.691925778989877,0.2170449625633708 1.5930621817375483,-1.687531466960842 l2.590550661355818,-6.169799812866371 m-0.8563372796559467,-8.92996251127462 l-5.802644492246443,-9.82717297109098 12.836053068671566,-22.97908612454827 l2.560239063337999,-75.46710642170699 " fill="none" stroke="black" stroke-width="1" /></svg>