<?xml version="1.0" encoding="utf-8" ?>
<svg baseProfile="full" height="153.99236893548763" version="1.1" width="112.22906131465794" xmlns="http://www.w3.org/2000/svg" xmlns:ev="http://www.w3.org/2001/xml-events" xmlns:xlink="http://www.w3.org/1999/xlink"><defs /><rect fill="white" height="153.99236893548763" width="112.22906131465794" x="0" y="0" /><path d="M65.33645280643825,43.78309194092847 m0.0,0.0 m-35.81966274207499,8.382315904177998 m9.06643510802849,-19.723092977270024 l1.7885794254421707,-7.442314867836448 -0.3783070305915426,17.44290086256011 l5.514428693246523,-0.7419630988303327 4.482809251826805,4.408333497874351 l3.5249675090006227,5.533417655610031 11.7608929862805,11.656387322813515 l0.9607195729573859,4.453164604521116 -4.269292316647938,5.226241917155546 l-7.006608610065994,-2.2215942959900667 -8.077348679293198,-8.492130193441131 l-1.7099268656212157,-2.848931948510876 -0.055682876100298685,-0.3207121725703566 l8.598282182144485,4.101028849688941 4.709271369778525,3.2572225726324997 l-15.539161798410905,9.37909494628806 -16.949257591985692,17.01726321911293 l0.18296741684036347,-0.8180792937496708 -0.2559428409788103,9.998996553146563 l-0.8646149702135142,7.017151893721974 1.0351158790065134,5.990286593175225 l2.4757761415767687,6.297731494729963 2.1834367747607573,4.084801898919241 l-5.5930078693178515,3.5717560566300093 7.335851901094443,-4.002723655800391 l4.564825369867377,0.027986069520700152 13.925377291554712,-27.009267002366617 l-0.33829757377946024,-1.405811052128465 7.86831279252387,13.786649713148623 l7.512773714496907,4.260423195893503 19.6888815001842,8.337530431250094 l1.5700153926897,-0.38218303635440715 -9.746121155422635,-3.026408012368161 l-14.959932632156336,-10.015539465992346 " fill="none" stroke="black" stroke-width="1" /></svg>