<?xml version="1.0" encoding="utf-8" ?>
<svg baseProfile="full" height="245.0990028287854" version="1.1" width="169.2211984887362" xmlns="http://www.w3.org/2000/svg" xmlns:ev="http://www.w3.org/2001/xml-events" xmlns:xlink="http://www.w3.org/1999/xlink"><defs /><rect fill="white" height="245.0990028287854" width="169.2211984887362" x="0" y="0" /><path d="M25,178.18867582273288 m0.0,0.0 m3.58955086630162,-10.65662551623555 l9.800267285896275,-97.41632466338916 24.694061386014685,-45.11572564310816 l5.970961560579455,3.3543055388066594 1.9145282961345473,5.942584006920402 l3.659153161478622,9.572595785158494 m-9.571459431093237,95.31323528960361 l9.859258672636479,3.1738374572893826 11.87416231107289,1.7627736046256808 l2.2224588427660943,2.6823850340882243 5.689335446013637,5.278706329554652 l6.655366216395882,6.233765473907584 17.646193902021693,-0.3340026980934119 l15.563626030499496,-1.1894749528841577 3.9239874290471186,6.3151960143298735 l-0.7156460160751278,11.2005192232325 -6.5336733606931325,6.83237588111443 l-7.564445085448412,7.882441286665937 -2.660678761004646,2.5646768979795724 l-3.7211374396397168,-7.668044217677516 -0.9149421579449126,-6.554663108924477 l2.2069068686975792,-3.749193891966307 5.9781018993897606,-2.0963828076009174 l4.367941531161912,-3.416301573339087 5.681978657721656,3.550530423016054 l1.2133779017794988,6.15125111714538 5.988919569719658,9.332620692915903 l2.4030429053068474,7.1987152158778756 -4.099908050952288,5.850631980514394 l-4.439861138330532,-5.434454287918388 -11.208442488841603,-3.3511270302179463 l-10.656230794202381,-2.780751785571317 -3.050384264105439,6.901868040959902 l5.976407179837248,11.679488618564848 -24.55307604424026,12.898895270707548 " fill="none" stroke="black" stroke-width="1" /></svg>