<?xml version="1.0" encoding="utf-8" ?>
<svg baseProfile="full" height="147.0031650536621" version="1.1" width="130.3051846420796" xmlns="http://www.w3.org/2000/svg" xmlns:ev="http://www.w3.org/2001/xml-events" xmlns:xlink="http://www.w3.org/1999/xlink"><defs /><rect fill="white" height="147.0031650536621" width="130.3051846420796" x="0" y="0" /><path d="M25,122.00316505366207 m0.0,0.0 m5.846494093653701,-17.39703330911384 l40.778501567888966,10.5562561371187 3.9971066140198452,-34.96123559241186 l-0.8825667040085209,-7.210547490636441 -5.39054050657275,-1.8802090398158628 l-3.026231161894569,0.8930752884915324 0.3654846035180129,9.402269843743792 m-22.879614321998865,-5.459178343446534 l0.02011743077324074,-6.367321349238566 -3.260822559203274,-3.489297294783169 l2.570521084012461,-5.598641344333106 2.414988558796069,-8.588069912813568 l5.28709217988133,-1.9990964849592043 6.81652698397905,-5.153763720009865 l21.409121403701636,-5.934859055381515 7.20991477456432,-1.1868374690170957 l1.9689926306982297,-3.3608114577134254 -10.538788596125114,-9.23094428307114 l-3.0702602604512967,-0.036920176270905936 5.608053126779212,7.767481224820914 l5.025948057165907,1.6761060935514374 2.8740146332393737,1.3544581090805192 l-7.021884041556206,15.948953233204419 -10.935217770781481,12.578438513445343 l-5.941169828363592,5.6280649385970305 -8.904955188415537,9.486233368497357 l8.97656256903506,4.123736921343369 4.230205364167022,0.8462573619139554 l2.723167022539151,4.048315688437915 -1.5422469666987675,5.0814531195493196 l3.4566848371255734,4.81562133704358 8.736242583134016,4.245484140346446 l9.01379863766073,2.498745214856876 4.618884581771779,-1.4057188346844933 l9.751059210044872,-6.056839373149044 -2.342681988173386,1.9415738970643748 l-6.493551448851347,-0.5006035419683891 -23.622954600252626,-0.03303287797509824 " fill="none" stroke="black" stroke-width="1" /></svg>