<?xml version="1.0" encoding="utf-8" ?>
<svg baseProfile="full" height="149.75728712860453" version="1.1" width="105.54482342637586" xmlns="http://www.w3.org/2000/svg" xmlns:ev="http://www.w3.org/2001/xml-events" xmlns:xlink="http://www.w3.org/1999/xlink"><defs /><rect fill="white" height="149.75728712860453" width="105.54482342637586" x="0" y="0" /><path d="M66.93302430339381,49.59096544588262 m0.0,0.0 m4.445616832409727,-4.623259703097302 l0.024754351686837595,17.813340812647144 3.3321687981112804,10.849060369829585 l5.809259140774203,4.2187537615778306 -1.0577101535975257,6.159141142091374 l-7.305840025359953,11.031343421801004 -1.1727958215507053,7.752573370176378 l7.245230411186836,-6.222892521680687 -6.445276555951669,11.438768378451078 l-6.244973003675656,1.9381975580931847 -4.93585303590117,-2.8066045670158757 l-13.81405519583618,5.9830526586615 -0.16225611296428688,-5.147558077201022 l-1.7169333381700984,1.9355419319269507 5.335218532148974,-4.029326603108601 l3.0582248768396485,-5.187485488666144 -11.730226794799249,2.590500525658027 l-4.301475641106957,3.5185461572643204 -3.6958931906632153,7.030852162113574 l-8.600208376974653,2.8761092225323197 2.8112723994890767,8.047667170667253 l6.642198934350732,-4.9201907952934025 -0.4081966554892419,-10.948109774437848 l-5.982053446399018,-0.6495917078100009 m17.504645046676508,-36.74174626224328 l-8.705453349113009,5.531316302664766 -3.245232950420823,9.77169690657429 l1.9913244223647655,4.361451657419209 2.6306932582477613,4.853121311293984 l-7.357291146015809,3.759673213684476 0.3417741516738315,4.848650398625338 l10.785374878460757,6.768918461322808 -5.188327714960903,-2.0749408592935668 m5.554816051626954,-60.42877973802616 l0.9986383977591986,3.4903316445262647 5.274029707589617,3.2245926199651698 l0.9813508020389067,-2.3957911363747764 -5.158279568553759,-2.548713571251924 l7.3820899298316895,-3.4376316261746713 -2.1138266818855236,-6.778091640046059 l-11.932864919115898,-3.770029700259928 0.07799024814658662,-11.6734228334692 " fill="none" stroke="black" stroke-width="1" /></svg>