<?xml version="1.0" encoding="utf-8" ?>
<svg baseProfile="full" height="131.46393056442517" version="1.1" width="102.43057475200825" xmlns="http://www.w3.org/2000/svg" xmlns:ev="http://www.w3.org/2001/xml-events" xmlns:xlink="http://www.w3.org/1999/xlink"><defs /><rect fill="white" height="131.46393056442517" width="102.43057475200825" x="0" y="0" /><path d="M65.10394401514282,56.439087403771296 m0.0,0.0 m-3.799548771730843,-15.86750716743012 l8.408240914775547,-2.470380945798311 7.717938593820737,3.125129824933005 l-4.340537209271569,8.841308141997274 -9.952612985633417,15.470785615027456 l-12.670333638949877,-9.58341066690097 -8.363752293201522,-8.182236169080358 l-9.87508114088832,-13.694221617850353 -4.1714669100910164,-5.025644900659478 l6.380133067551946,3.844306537893625 13.781758482979333,-7.897216055903069 l6.977583700627261,3.7695579532161783 -3.7585401924398467,7.998646445731253 l-4.510860172223847,-5.169136461933555 -0.3900036468994586,-6.429245741824748 l2.027455164365626,7.741847094894758 2.9694703745741577,-0.626345072039225 l-3.0231057062930278,7.115332677994604 1.349169702876764,5.282244420267421 l-0.6094213984680824,6.782859256536091 -5.992509935929362,1.500241310986662 l-8.73249456806934,-0.022766003027814875 -9.52542544662466,0.36435350333607897 l0.6062132156044377,3.0309557573516486 9.502144439148877,0.3991802657606089 l5.197286378659012,7.349214765620593 0.45190806357528596,11.14048741856965 l1.684312232775354,1.062791079688515 1.306376711117344,-1.3504307376773355 l3.257972100299178,-1.0088444070403257 1.176323540306591,4.757664072506907 l-2.8073306963699105,0.33843903076697657 4.092745167022268,-2.295130847393483 l-0.06394925861266623,19.835716306601245 6.998161644081249,9.896298475532465 " fill="none" stroke="black" stroke-width="1" /></svg>