<?xml version="1.0" encoding="utf-8" ?>
<svg baseProfile="full" height="117.8988807904357" version="1.1" width="118.06994863114008" xmlns="http://www.w3.org/2000/svg" xmlns:ev="http://www.w3.org/2001/xml-events" xmlns:xlink="http://www.w3.org/1999/xlink"><defs /><rect fill="white" height="117.8988807904357" width="118.06994863114008" x="0" y="0" /><path d="M93.06994863114008,59.77603356874921 m0.0,0.0 m-38.248163837013536,19.06195621679786 l-3.5146550023121637,1.6934818846198958 1.5971506977694376,4.938985011861228 l-1.395617973062846,1.4266805703058716 1.096545551765039,5.552096509785841 l3.4585191785934843,0.44964702831579006 1.7075536471650588,-0.3718418604079444 m-19.52681268180135,-59.76550078408654 l3.40024781300284,-6.912096920142783 1.2174766557948193,-0.8494412257984296 l1.6909800475471553,4.058048957141576 -6.439119161334897,22.230651858509354 l-1.5345216322615778,5.279147337472379 -4.620447042001056,6.526803007368415 l-2.686386231066214,-5.1308574461303 -2.9129662898817115,-4.480069772065385 l-1.3597323720425551,3.265456604274415 6.114403595397782,-8.480605167045416 l4.9765463042889335,-1.0906258058425395 1.3832432428747332,9.86484937583611 l0.4581670934752245,8.228205013926726 6.774200608542189,1.2205638564697832 l5.638131909537375,8.403526416445569 2.2655248473796394,4.17424182073542 l-5.442896556180826,-13.711134721229351 1.2713915289822975,-9.398422381097658 l2.546149508946234,-4.097752727234976 -8.232006887309296,4.815692070506501 l1.9875119177337368,7.05311434261193 0.5823461729086729,4.14585149094728 l4.133549076732366,4.6225587508535 9.740707352897731,-0.2380808432660364 l3.7742740847173053,5.593902366644845 17.91830115405168,-1.5430545003621232 l7.159594702008241,-6.20493345766199 " fill="none" stroke="black" stroke-width="1" /></svg>