<?xml version="1.0" encoding="utf-8" ?>
<svg baseProfile="full" height="218.50093442034162" version="1.1" width="124.20175238980585" xmlns="http://www.w3.org/2000/svg" xmlns:ev="http://www.w3.org/2001/xml-events" xmlns:xlink="http://www.w3.org/1999/xlink"><defs /><rect fill="white" height="218.50093442034162" width="124.20175238980585" x="0" y="0" /><path d="M99.20175238980585,193.50093442034162 m0.0,0.0 m-1.7629418858200108,-6.463625752717574 l-9.841331743834475,-3.1453502327002902 -20.30275317306686,-12.758785585978568 l1.6281158378416678,-5.34930713269824 2.28462868552453,-9.00907810099354 l-8.158581745627135,-17.80211226699314 -8.559194703817367,2.802529119407242 l-8.673292764470819,11.27864140293432 -0.05599678041150247,-5.418498887705447 l-13.504632543525705,17.954011575410032 4.643869593026917,3.9783505137180324 l18.133473630571537,1.6675259557143762 10.845711716210205,0.33691481417145286 l1.3013124385391073,-3.3558210362610605 -7.335513162090208,-2.852209609221812 l2.905136629789941,-3.408073569081184 6.91159028186859,2.7199845963471367 l-8.528165146745657,-3.2681977615572677 -6.6726650991113186,-2.5878472674101793 l4.500842917799175,-8.068720313864556 -18.229822467039785,-8.096959511718266 l-9.325423645789943,-17.476038072393468 0.0680728231538473,-12.892724654660789 l-6.474192082780587,-27.372254808788384 2.931729964633192,-6.670286017266635 l21.10357367032598,-5.731137372082539 10.743098079118507,2.3169361619483153 l0.09946684773402589,6.503521958284455 -6.676324859933238,3.8213269071481557 l-3.1112391954835483,1.7856235865695786 -1.819377285642821,-20.859931594226204 l3.8110563699901943,-2.317901606665905 10.381210393060071,-9.218600494287333 l-26.56488631724967,-19.330739764493234 1.27181435252959,-10.212099598229077 " fill="none" stroke="black" stroke-width="1" /></svg>