<?xml version="1.0" encoding="utf-8" ?>
<svg baseProfile="full" height="199.59625562484635" version="1.1" width="166.43022410420764" xmlns="http://www.w3.org/2000/svg" xmlns:ev="http://www.w3.org/2001/xml-events" xmlns:xlink="http://www.w3.org/1999/xlink"><defs /><rect fill="white" height="199.59625562484635" width="166.43022410420764" x="0" y="0" /><path d="M41.223731513745854,150.46283963276642 m0.0,0.0 m-3.5548081937665446,-35.528295013809384 l-2.7382150226447926,49.51204640566702 22.858732962427055,-28.376950487830985 l7.180608093450198,-5.353821967097712 2.0797727039869365,11.808767565644873 l-1.3069458873436453,9.004687012598932 -2.4433543970500793,10.427686748335313 l-2.5706114335388612,8.076179908999798 -1.8063485966985642,4.563115819572063 m-33.92256174256756,-58.772699782324175 l3.3509380643172237,-13.448722018815294 4.055619489205351,-2.6960927761508957 l1.0051550556580784,1.6037966951693816 2.1302670653137934,8.958634179814414 l2.176534426517276,7.910062440386671 11.254197750818939,1.4557899003798358 l8.197856574152164,-13.867235708008732 4.8591149785592185,2.0745525835619802 l6.122081008811176,-3.1525968066917276 2.7842670062034713,0.5167486909266047 l-2.4216018300197737,-5.270266369949464 -20.078413730482268,-20.30542051960474 l-7.057757834670866,1.2144932343346149 13.084886376153914,5.936979780723298 l6.751640831531628,4.380338966058824 3.1894603170600098,1.8960989615694004 l9.08311963210653,-1.0338302824355505 10.640199701093476,-0.03785128040124236 l11.243661274833663,6.749611606036219 6.5012659360310785,-4.7790467783092625 l1.7249159752121568,-13.45968992513162 4.198423900601718,-16.980422634371127 l1.1816600952661664,-14.733288951763516 -0.09634017413797685,-8.1791559788096 l6.684523074711732,-5.378689248863664 5.926565358899705,-0.2648228770561911 l12.142187982365291,1.1478366936413609 7.795795798094775,-11.08136741876216 " fill="none" stroke="black" stroke-width="1" /></svg>