<?xml version="1.0" encoding="utf-8" ?>
<svg baseProfile="full" height="221.00550252112117" version="1.1" width="182.75276429146734" xmlns="http://www.w3.org/2000/svg" xmlns:ev="http://www.w3.org/2001/xml-events" xmlns:xlink="http://www.w3.org/1999/xlink"><defs /><rect fill="white" height="221.00550252112117" width="182.75276429146734" x="0" y="0" /><path d="M25,196.00550252112117 m0.0,0.0 m7.968094438502396,-1.0423289373090205 m11.253191123443282,-39.565496540283505 m12.481956524893008,-53.18107439241501 l24.493735527023794,-7.945495311225554 2.015799314941981,6.09697875321194 l-1.5615524430375605,2.9909044600325663 4.353004493240966,-5.761813733723661 m12.231064820471676,-9.724657503925629 l8.780061117809856,-7.040637142150807 4.3239215931689445,-7.9052407275387475 l0.9505113436228192,-4.9781257260752785 5.2049562570310774,-2.873927886131661 l2.492784445622018,3.783365353503104 8.637346262659088,1.5346994566633492 l10.037721464942122,4.244799993632999 7.811731513071357,7.3522150687860695 l2.801751989599778,11.530027129744502 -1.5509100399370856,5.719519027759564 l2.810992587783348,6.440815874055363 m-2.483633468213098,-5.8008464940236575 l5.276790421157826,-5.193575913418623 1.5456705602795253,-4.701581782239245 l-5.2463766967384995,-2.0321734967603122 -2.046061202453167,-5.35124732949329 l0.9115505539298324,-3.7171110832056473 1.3880616397009564,-7.469975054490881 l-2.231004589737282,-4.645106619523373 -6.336076256791981,-9.122058626905654 l-3.065599568651205,-4.237807498466732 -3.6656409378568022,-1.394603526474521 l-10.821373600055747,5.372904848004929 -2.4978556372820604,-1.8102982334329287 l10.99358355023322,1.8734243254093819 6.116816390679888,0.38182675014268586 l12.130686061096698,-0.3481135722157666 5.832661070768378,-4.644338610669181 l-3.2337681440882027,-13.503648627235302 4.648171810636248,-14.335699192733639 " fill="none" stroke="black" stroke-width="1" /></svg>