<?xml version="1.0" encoding="utf-8" ?>
<svg baseProfile="full" height="154.9111025369245" version="1.1" width="172.37976766628185" xmlns="http://www.w3.org/2000/svg" xmlns:ev="http://www.w3.org/2001/xml-events" xmlns:xlink="http://www.w3.org/1999/xlink"><defs /><rect fill="white" height="154.9111025369245" width="172.37976766628185" x="0" y="0" /><path d="M62.258010233218826,25 m0.0,0.0 m-37.258010233218826,45.59918729996285 l3.747727268919218,1.1315852189874054 5.992239921849396,-0.4243708529564731 l4.847531706004475,2.134872461412607 10.01691059352985,-6.179756544634389 l26.040553417074246,6.112136122146789 1.6456591262584603,2.7133117324257565 l-0.8138766047440974,7.02653484187573 6.15443183810162,2.232916929054672 l-2.3883594130073447,7.303424362342353 -3.1884314304236794,11.455221564868463 l8.041694953198748,3.3544579104893644 8.790740677060066,-1.6423069174294624 l6.231447949625373,-17.28181509986145 -1.8657727830596798,-7.891941270838278 l-2.6119330829186596,-3.556959351092086 -4.970404729483436,3.557061501773734 l-1.6848166452956443,6.0762333337658765 12.678500553730212,4.015110151086165 l1.5980194036737871,-4.190300397708842 -10.081896183619934,-6.39974098155627 m18.350434519899796,10.769835365492337 l6.586249373231185,-2.831339064942379 -4.541067421953835,-7.7271371914646085 l6.028589354926379,-2.4172767353275737 3.5952427291430578,0.3829319484016345 l-0.7744777532485386,10.10647760381157 0.7637416960577156,10.619353476448365 l12.77100541853778,8.697100357751868 3.57620306339255,2.50213242035837 l-1.7962086187258353,9.97970601323321 3.096327952938699,6.649547384770786 l6.543760815609915,3.0349089442764066 -5.2344923713624025,-8.210825627921984 l-3.175548855701654,-0.7929471928428174 " fill="none" stroke="black" stroke-width="1" /></svg>