<?xml version="1.0" encoding="utf-8" ?>
<svg baseProfile="full" height="223.2013059604427" version="1.1" width="130.98606099906522" xmlns="http://www.w3.org/2000/svg" xmlns:ev="http://www.w3.org/2001/xml-events" xmlns:xlink="http://www.w3.org/1999/xlink"><defs /><rect fill="white" height="223.2013059604427" width="130.98606099906522" x="0" y="0" /><path d="M105.9860609990652,100.71077912510522 m0.0,0.0 m-9.130572449766259,32.832211139142714 l-17.631127147123962,17.118193820954943 -26.052411335717274,47.54012187523985 l-2.6254766181432556,-85.09179431105936 33.176473293154295,-10.613992878906814 l3.6442757738282907,4.8059334572581935 1.6205324741975906,5.778687792092163 m-44.73878705069538,-49.75472580489478 l1.6575113936330246,-5.834275701241873 -5.593537448555368,4.325877963412677 l-5.139333744385396,-5.3026663873910636 -4.619615454326516,-6.921736678909869 l13.902957469055256,-10.999968557089353 -3.0603101831889945,-8.94172692353157 l7.220454367487955,-0.18958019787544356 7.638767372976051,-1.524116306123311 l-3.24014408857766,8.214823255313007 -12.619194210245887,0.6712185276879612 l-5.836579024451785,3.909095999414254 2.9862643368823094,-1.652933995576164 l19.1980412228137,1.5803313273861797 7.350324209893739,-10.860529350742398 l-3.0080218346847887,-3.429947478579685 -8.260499102293004,-1.369279711085472 l-11.07016340381923,4.393086310704769 -4.1407768749392,0.663749455394759 l-5.7921837830202065,-2.887197831388084 -6.822929159053241,2.3646500799248247 l4.006153665059416,8.031154345729629 6.258374450523245,9.041934166523422 l5.981104917752918,7.951452892035055 -5.493369052060106,19.896884371186143 l10.200897351006594,3.167281985464452 8.82907609371827,-0.19331682442830983 l4.702433178900117,2.140587691847785 " fill="none" stroke="black" stroke-width="1" /></svg>