<?xml version="1.0" encoding="utf-8" ?>
<svg baseProfile="full" height="207.02213575145703" version="1.1" width="168.42607320850794" xmlns="http://www.w3.org/2000/svg" xmlns:ev="http://www.w3.org/2001/xml-events" xmlns:xlink="http://www.w3.org/1999/xlink"><defs /><rect fill="white" height="207.02213575145703" width="168.42607320850794" x="0" y="0" /><path d="M104.75944739863618,171.99528485501273 m0.0,0.0 m-15.10922545674576,-37.809031278414075 l-4.821050848441823,-3.722505536205843 m-8.709957014401237,-30.34927722125316 m-10.353362856718658,-3.268066704229483 m-20.537599462661948,-15.288859009977447 m22.482730551062257,-17.50167659878432 m-34.36909622604451,-0.8976765435655065 l-8.341886084684512,1.1377171882088777 3.4311643134219474,-2.384808263460909 l15.103762986095427,-0.4647599926867178 1.4472876853602827,-2.9694736932697383 m41.90486260267176,6.580113775726804 l16.134398529937947,9.436108063403 8.628245793192976,0.9662864837325408 l2.6674453179546584,1.84709575858378 -4.985054290448687,2.407244668709135 l-1.9365100716061545,9.008698963528218 0.3412393942535495,7.552379255927285 l5.301068811964368,0.07827473778013017 -12.556952271518078,-4.104609691466667 l-6.119949955817714,-2.2737627560208464 -4.001788522662522,-7.442380424159243 l-2.1529865071848304,-7.868578401909912 2.161085953027196,-8.122340824147427 l-8.567193829537606,-12.900568364848407 3.949836922269656,-18.626616957754496 l2.3123628512802084,-7.812880495498656 17.047478981526304,-2.201330992959676 l12.043501247531601,1.9908830579912722 2.576346711366416,5.853730554904764 l5.931648388699019,11.309490173488394 -3.4748754661612624,24.11521173837823 l4.766231057823755,6.30917435947696 6.729738153241203,24.387866706733277 l9.358917402784659,7.319679978446337 -10.672613351473396,12.291372579798214 l0.5954844153774869,7.520666874055366 -12.144746552737228,21.175401213582553 l3.132071423198202,8.981550080416914 7.884922990788876,11.958266700525732 l10.122410871077271,13.808841733659003 1.4672312228106448,-5.206403618152136 " fill="none" stroke="black" stroke-width="1" /></svg>