<?xml version="1.0" encoding="utf-8" ?>
<svg baseProfile="full" height="177.26595669615466" version="1.1" width="127.61075286981571" xmlns="http://www.w3.org/2000/svg" xmlns:ev="http://www.w3.org/2001/xml-events" xmlns:xlink="http://www.w3.org/1999/xlink"><defs /><rect fill="white" height="177.26595669615466" width="127.61075286981571" x="0" y="0" /><path d="M49.194571890672826,128.36740956262273 m0.0,0.0 m6.703661218026089,23.898547133531917 l13.693703374482546,-101.09111890641141 3.333083640791253,-0.9230398763082073 l1.1879945495569164,1.3931652931102005 -8.303953793648935,-9.371357183477066 l1.7333652049274395,8.813522138782306 9.369925638875714,3.1738383333937583 l9.936937285543667,0.11372025335304597 6.6169490007660725,-3.4661087786123046 l-5.125272852036098,3.416354427202438 -6.102375031834308,4.0313023766163285 l-3.5608401344279295,7.334825539833589 8.03547922424889,0.6623026233851355 l-2.2567524534156447,-8.75053315745431 -0.7962507954528641,-4.753817767871253 l-3.4024482072798654,-5.454787929091155 -1.634655183077686,-6.484148684655572 l-7.1518905138600095,-10.631169906526502 -5.427144717663038,-5.2789054914236715 l4.002779818001307,2.900419683759523 13.402010436009084,9.445664744111815 l-0.4953751672968598,2.842461506860677 12.708106311626148,2.7256672862938633 l6.949144126280998,8.022584236978748 m-10.783178599936429,13.471634469852969 l-17.00705252537689,5.725811557303635 -7.027025721215325,1.6536493622075255 l-13.907171096325794,4.964164236915219 -2.3158584089074066,7.362133279987164 l-10.963928112871772,2.7673227491560057 -5.358942268993006,4.413584538392606 l-4.128528548234937,3.9086794086961394 -6.1190675879541585,7.177491554675882 m3.5541103808180563,-27.05904143102635 l8.046444632075623,-3.0473603454786162 " fill="none" stroke="black" stroke-width="1" /></svg>