<?xml version="1.0" encoding="utf-8" ?>
<svg baseProfile="full" height="159.8399261334817" version="1.1" width="257.76571090295727" xmlns="http://www.w3.org/2000/svg" xmlns:ev="http://www.w3.org/2001/xml-events" xmlns:xlink="http://www.w3.org/1999/xlink"><defs /><rect fill="white" height="159.8399261334817" width="257.76571090295727" x="0" y="0" /><path d="M25,134.8399261334817 m0.0,0.0 m14.255141471216653,-5.118932598976512 l29.50951679165211,-6.522217608259689 -1.299121798109103,-38.239744357280756 l34.43499414331605,-35.023646541787485 10.586795122633436,-8.309606121165185 l8.602727060492876,-0.31257704781002704 0.8817011766842975,5.0160496028503365 l6.995263299414836,5.855657614692095 9.245390347109565,9.182908360825124 l16.773563644702538,5.127573657547155 19.632730472881835,2.270963675223092 l8.403966375936957,3.149096584371632 6.479253059693231,-1.4191871293042493 l9.557152524766334,-2.4771261789148338 10.467307029131698,-1.7365447989872551 l10.99448840982812,-3.925301956513526 12.244841771605888,-0.5100641665155156 l-4.16261534430358,1.5848245861261923 -18.049882394663268,4.773768059775161 l-10.382919461978021,1.725645755585067 -16.087976202763404,4.798094840353196 l-11.734639706757864,5.465724785640956 -14.969205826691303,0.584383710905309 l1.8041008643117384,0.43220007754318557 5.003233160768157,-7.168888133313748 l-2.2809851149987623,-8.823531111387485 -1.824421379771488,-6.9022460453499495 l1.5013073067370397,-13.423054549613159 0.3437579283457706,-1.5282143545585702 l1.2930352224364616,-9.036630687693833 3.468977300654755,-2.189978356173943 l-6.056491110495969,-5.656902367570917 -3.1874892582823433,4.3558833560994845 l1.6006188587065866,5.025561111441378 9.524063945625555,3.7023138939731237 l4.607978221981133,-1.7157999595815114 -2.049783149004376,-3.401710199071397 l-2.3966112349493662,-9.448671536604602 " fill="none" stroke="black" stroke-width="1" /></svg>