<?xml version="1.0" encoding="utf-8" ?>
<svg baseProfile="full" height="246.9146272162113" version="1.1" width="163.91290603954184" xmlns="http://www.w3.org/2000/svg" xmlns:ev="http://www.w3.org/2001/xml-events" xmlns:xlink="http://www.w3.org/1999/xlink"><defs /><rect fill="white" height="246.9146272162113" width="163.91290603954184" x="0" y="0" /><path d="M67.97628385349539,31.045438959614984 m0.0,0.0 m-0.8460920000655303,-6.045438959614984 l-5.143435038481856,51.11943558849989 -36.986756814948,-7.590291145048263 m13.840713278235585,14.677852442063791 m5.838962277905044,14.085918024560526 l16.767900785002364,56.503497428320436 m9.987896905066295,45.190387267071 l6.080372874906737,-34.085680533539275 13.244279990556477,-17.614263226368035 m-2.7331536096120206,-31.148223112121304 m-4.248004263405597,40.34174699347305 l6.037199835317186,-11.827653286453055 3.294484956779179,-13.048235581775431 l4.429495997375171,2.0635768020726264 2.30972302654422,-6.89738967149314 l-0.556713435367216,-11.960222848859845 -6.194456573606405,9.614171565422494 l4.402376327260882,16.030409313238078 3.068971622223212,13.96377874098329 l5.4336768746592545,17.38701475774193 7.742773336008344,11.186296176484726 l4.793572305815419,13.163718933663073 0.502763754429614,7.254718544524739 l0.5409406232385942,6.943452564939989 -1.6905435784071448,5.792786213997132 l-2.1916607450398375,3.7947033946882973 4.465383425832538,1.9731218701246 l5.176581940788314,-2.1942395572589612 8.68887031792462,-4.869771048121902 l4.8804977891110335,-13.950912754924675 -2.321862326028924,-14.506079760194316 l-0.3635765444950175,-16.4657167956669 " fill="none" stroke="black" stroke-width="1" /></svg>