<?xml version="1.0" encoding="utf-8" ?>
<svg baseProfile="full" height="425.46191721308617" version="1.1" width="150.16204950455136" xmlns="http://www.w3.org/2000/svg" xmlns:ev="http://www.w3.org/2001/xml-events" xmlns:xlink="http://www.w3.org/1999/xlink"><defs /><rect fill="white" height="425.46191721308617" width="150.16204950455136" x="0" y="0" /><path d="M125.16204950455135,372.1852682189363 m0.0,0.0 m-19.836732018417365,13.246460664237693 l-38.27206466798047,15.030188329912201 0.46928567520614556,-105.89232023542912 l14.169607631691905,-22.92164028881982 13.055806779239392,-6.587293028367072 l2.4186396082954564,6.114368835969249 2.717849868282187,8.33988612245799 m-33.03749049647898,-108.07555004156394 l7.251253297801437,-3.3705250720271995 4.876657703763316,-0.6782104416965257 l2.824095467553521,6.092540495260127 -7.119745362241519,5.356638927871442 l-1.7541970166066434,1.1227039345692673 -12.666568514782437,-2.847501128425685 l-5.199249322395089,-4.3496346102059835 -5.639713287485708,-11.308801585823197 l1.5004750089218382,-12.383371041771502 8.409392813219272,-1.4666314363153987 l14.232388407412081,-1.8481152596160417 6.345208616324576,-6.023091437940643 l2.3563007775540754,-13.724826399394198 -0.5100255040521992,-7.432500129789778 l-7.092484423472062,-5.783817088590598 -5.480665821039983,-2.1527507031164914 l-3.8846209722093517,-1.519851935917964 4.9547141712573595,1.0247152083955002 l-13.63655769914144,42.59197341933754 0.9326565477824115,5.830815893979531 l7.71663804380476,-9.063847819400493 -5.5761471868203625,-7.535040394510036 l-9.051996923965788,-2.2321928162690754 -12.440045718986067,-1.9005862636589737 l-6.633904605617349,-18.48539111879977 2.0771170370859307,-13.054914132579597 l-8.63792741805419,-81.29715564089764 " fill="none" stroke="black" stroke-width="1" /></svg>