<?xml version="1.0" encoding="utf-8" ?>
<svg baseProfile="full" height="103.57677096098071" version="1.1" width="121.43608869998971" xmlns="http://www.w3.org/2000/svg" xmlns:ev="http://www.w3.org/2001/xml-events" xmlns:xlink="http://www.w3.org/1999/xlink"><defs /><rect fill="white" height="103.57677096098071" width="121.43608869998971" x="0" y="0" /><path d="M96.43608869998971,38.56723946092417 m0.0,0.0 m-8.318496723557875,-13.567239460924174 m2.219547638794422,5.606455709322173 l1.791284607563911,-1.190795466467851 -0.6446808204118548,8.039549443532726 l-0.1641046659401893,16.441795299733432 -0.7952761419234283,8.70596870911504 l-19.863729161140085,-15.690062932077844 -13.62215907214171,-5.829749569977611 l-7.756120198664653,-0.8082300803377153 -7.300493405009281,13.06375308668693 l14.408994868816238,10.163593429683981 -1.3596396657347876,2.3208035590048253 l-15.793102549254465,-4.887405052623899 -2.457428553998039,4.846000801347626 l0.1697836506967082,10.240642552021274 -4.528462951045867,0.509158797224637 l-7.422005557038745,2.045292674792991 m10.01048044608273,-47.31189780834471 l-2.2234875295074508,-2.500954190974599 -0.6407806340771327,10.401951381517781 l-0.5867455492867174,3.8101772625884314 7.193939907077882,0.14620597022257334 l7.880791218995375,3.5318365502660662 -4.591110641219116,-2.8919111104337674 l0.5262415614927851,2.356100511131331 15.405257689482399,0.297674162922259 l2.256179516945465,-0.2906042785603002 -12.516052215816694,-3.8134020898859955 m-4.826340066217251,7.540476654610606 l2.9017980295501093,7.361192226824174 2.0247696684944168,5.7004658416304785 l-0.1019293794382875,10.204103325498428 7.62565910126668,4.0722168675300985 l11.281661723868831,-0.9454392810275025 -3.227930279908816,-6.061411409411003 " fill="none" stroke="black" stroke-width="1" /></svg>