<?xml version="1.0" encoding="utf-8" ?>
<svg baseProfile="full" height="266.79898157557705" version="1.1" width="109.89803759671389" xmlns="http://www.w3.org/2000/svg" xmlns:ev="http://www.w3.org/2001/xml-events" xmlns:xlink="http://www.w3.org/1999/xlink"><defs /><rect fill="white" height="266.79898157557705" width="109.89803759671389" x="0" y="0" /><path d="M25.38309940583537,238.6216949339524 m0.0,0.0 m-0.38309940583537055,-12.106266881719229 l6.422228173607332,2.131219150087519 5.915203373389271,4.691918334484106 l0.13885978327038018,5.664543961945004 -4.833334294520306,2.7958720768272585 m-3.969070597593763,-57.11920019863198 l13.644282876253595,-0.25825743603230716 6.755144002805255,2.183373984066716 l2.7269774806270006,12.484251208196678 2.9373166508809336,3.9772903001279944 l-5.388848482410877,3.4647924758210125 -3.68028111351837,1.092320251773279 l1.6329894578889264,-1.051033416766148 17.055499096172955,-4.461555488787085 l9.036359698217899,4.069688699051162 6.3467937557324365,6.718275536936266 l3.7935076745912277,7.7093077282799305 1.3644100613199988,5.515359754626134 l-2.8315905782828734,2.190885082256392 -0.33426707264050837,5.081704440973372 l-3.942682399637858,-0.560697944868474 -9.242365352735439,-4.187337240639842 l-7.425883277238087,-12.208839403023557 -1.7794437255992768,-10.073920380177782 l1.0335946484212981,-13.798742688146008 3.096125494681069,-6.5805702358212255 l6.465732346523601,-7.4440557515868555 -2.0306438991781937,-4.341594645949558 l-3.700436321472631,-1.9399437308494487 -1.895743948683264,-4.315917210125881 l-1.4261187893674558,0.7836238649827276 -4.066102726091386,3.7173017147854517 l-2.0650646733228486,3.547665591734571 3.5344246255166767,15.83227988532777 l13.002189507467822,-62.280514359970255 1.9505178621380175,-35.99136076026618 l10.557447748777449,-2.777707888283612 -6.881933199565278,-65.77585331459034 " fill="none" stroke="black" stroke-width="1" /></svg>