<?xml version="1.0" encoding="utf-8"?>
<!-- Generator: Adobe Illustrator 24.0.0, SVG Export Plug-In . SVG Version: 6.00 Build 0)  -->
<svg version="1.1" id="Layer_1" xmlns:ev="http://www.w3.org/2001/xml-events"
	 xmlns="http://www.w3.org/2000/svg" xmlns:xlink="http://www.w3.org/1999/xlink" x="0px" y="0px" viewBox="0 0 99.6 287.7"
	 style="enable-background:new 0 0 99.6 287.7;" xml:space="preserve">
<style type="text/css">
	.st0{fill:none;stroke:#000000;}
</style>
<path class="st0" d="M54.4,221.1c-3.4-6.2,2.8-21.3,2.3-28.4c-1.1-14.8-25.2-48.9-13.3-57.8c1.6-1.2,6.5,2,7,3.9
	c2.2,8.7-15.5,22-19.4,30.1c-4.8,10-11.9,31.3-13.9,42.2c-1.3,6.9-2.6,21.2-1.2,28.2c0.2,1.2,1.5,3.4,2.1,4.5 M89.3,246.9l-69,31
	l3.6-1c0,0,3.4-58,8.3-76.6c2.4-9,10.7-25.7,14.8-34.1c6.1-12.8,24.1-36.1,26.5-50.1c1.5-8.8-3.5-26.7-5.5-35.4
	c-1.2-5.3-5.5-15.4-6.4-20.8c-0.8-5.2,0.1-15.8-0.2-21.1c-0.2-3.1-1.7-9.2-1.2-12.3c0.3-2.1,1.8-6.2,3.2-7.7
	c1.8-1.8,6.8-3.2,9.2-3.8c2.1-0.6,6.5-1.5,8.7-1.2c1.3,0.2,4.5,0.9,4.8,2.2c0.4,1.6-2.8,4.1-4,5.1c-2.2,1.9-7.4,4.6-10.1,5.7
	c-1.9,0.7-6,1.6-8.1,1.8c-1.7,0.2-5.2,0.6-6.8,0.2c-0.9-0.2-2.6-1.1-3.1-1.9"/>
</svg>
