<?xml version="1.0" encoding="utf-8" ?>
<svg baseProfile="full" height="154.21982052695182" version="1.1" width="111.5800911247062" xmlns="http://www.w3.org/2000/svg" xmlns:ev="http://www.w3.org/2001/xml-events" xmlns:xlink="http://www.w3.org/1999/xlink"><defs /><rect fill="white" height="154.21982052695182" width="111.5800911247062" x="0" y="0" /><path d="M25,25.60404360829291 m0.0,0.0 m5.182760853935165,8.137920230499521 l1.7401413539443396,3.3487454327953463 -1.2074353504067186,0.970738041154578 l-2.3807804488111444,1.4130938838141305 0.6779768481912823,2.2429935584722873 l3.9934075287701973,-2.979903313748755 m-0.4114471996371044,43.354392080756696 l-4.225327974750638,7.794843763258174 4.171736734493143,-2.370252204944102 l1.6323458816624192,-2.2269501554291513 8.939999677712636,-5.124935123816298 l-5.019724487054615,-16.96681075703607 19.50818777524134,-15.097582540166906 l-6.0160089899904685,3.164108680084542 0.4796344734487856,-8.310426785551279 l12.681259253815142,-17.954018398435636 -6.077766401027398,23.899397884122504 l2.4400515983995668,8.53231433175963 9.40901624841809,6.4664378417514135 l0.10034217296007453,8.165894162802005 -0.40215618989062896,5.7103689540922975 l6.1199834689117525,2.6180587316091124 -2.690324644595711,3.005211296727608 l-0.92330080858673,5.9810699098808255 -6.4918546252340015,4.838739059941869 l3.5404116234726972,2.065777899603579 12.245624085821843,-0.9115620839883678 l4.563338665492864,-1.9444496425653006 -6.714531162176383,-4.486859006904129 m5.639264210233576,-13.786097417829394 m-7.05582629896286,4.724607086541662 m-10.288620558512584,49.34091151940654 l0.687044637152936,-1.2629194514795745 3.5360671721375327,-4.329242078832907 l11.309042983602797,-8.782964465747003 " fill="none" stroke="black" stroke-width="1" /></svg>