<?xml version="1.0" encoding="utf-8" ?>
<svg baseProfile="full" height="459.12126083124406" version="1.1" width="166.83355496075535" xmlns="http://www.w3.org/2000/svg" xmlns:ev="http://www.w3.org/2001/xml-events" xmlns:xlink="http://www.w3.org/1999/xlink"><defs /><rect fill="white" height="459.12126083124406" width="166.83355496075535" x="0" y="0" /><path d="M141.83355496075535,391.8412820792495 m0.0,0.0 m-7.8068045188546025,10.600854200895675 l-31.690789616337582,-33.68272746258957 m10.510184400311807,65.36185201368845 l0.0010535622038010395,-13.953269131637404 m-23.672406443704926,-94.35293854348113 l-1.2954181433471335,-12.859961584989803 10.18702597932832,-7.42391619453618 l-1.4159406565122212,-7.627605757778091 7.5354820208309565,-5.961427933013375 l0.39157812492320365,-11.234937810993731 1.36755452832108,-7.1011148324194595 l9.845704581169125,-6.616887039887822 15.657365679230034,-7.804796798564532 l-3.776168658031638,-8.896120923396001 0.6241357971927602,-5.211843674791408 l6.077179148628488,-20.626503416258036 -8.327056006664801,-5.430293226686334 l-20.854137185206188,-7.231971031765424 -9.466791495952362,-19.28871631126702 l-10.120813650064267,-17.600536531420303 -2.083783508009742,-19.214366289069677 l-12.377766194631345,-2.91767385873959 -9.942909977252388,-7.142014897027313 l-1.2438634035428113,-23.756946566605937 5.580638398412255,-6.061569979357603 l-5.0362566681592025,-9.204970677871982 -6.139059878646093,3.7714329178144235 l6.22717041296102,4.320787237131592 -8.187324752566788,-0.27040373206666524 l-12.431166431746346,-1.1926540487667248 -14.970170405037733,-14.303591353831866 l4.090678340905334,-33.55873766661711 -1.5187776772267574,-19.033035160899107 l2.101846029386778,-21.334676012450483 -2.5108970198990175,9.357137887771527 " fill="none" stroke="black" stroke-width="1" /></svg>