<?xml version="1.0" encoding="utf-8" ?>
<svg baseProfile="full" height="146.91344613402683" version="1.1" width="126.57274390502525" xmlns="http://www.w3.org/2000/svg" xmlns:ev="http://www.w3.org/2001/xml-events" xmlns:xlink="http://www.w3.org/1999/xlink"><defs /><rect fill="white" height="146.91344613402683" width="126.57274390502525" x="0" y="0" /><path d="M91.54361504688579,28.050354667819384 m0.0,0.0 m-24.348069965014204,39.20919106900048 l2.5484082911611994,2.5941250038794097 10.938150340556257,-1.064464138964798 l8.980173848304371,-5.05702916657544 0.8807468152424832,-3.5670734974398424 l-4.66497365861019,-1.9572852201433832 -4.0045128352192965,4.282768745516443 l4.13829527483155,4.556237507013929 12.853411228188332,3.0450853808434943 l2.7074995186989628,-17.6019635909512 -9.019096060368135,-4.210849904944389 m-22.084286576258645,3.127067684464002 l-5.321043042153928,-0.804424567701916 -9.032925154049627,-7.854609472449609 l-6.173868325333502,-5.294946035253099 -10.309814788554155,11.239042898373006 l-5.895290822390029,-2.984168212851126 2.3625090614771547,-11.49102891570568 l-0.42795251476364066,-5.547327720868693 -5.1124972532606545,-3.6687025130609863 l-5.558478429370091,1.166025590038935 3.4282361271070925,7.158716154797569 l16.76676112415255,2.550704389994008 -2.5152255584047656,-0.14575482656866035 m29.7430094869112,71.96740265062569 l-7.033068020528721,3.4171110258350903 -0.19443522875184846,-5.748180386169339 l5.06806260095255,-7.867980171058366 1.2802446059733923,-8.14857786712434 l0.4663117574687986,5.346310600341566 7.569884706871832,4.138398781840696 l1.5011208191184338,4.476973798507448 -0.11194735189083949,5.587122353554916 l1.759557885352831,4.182455021131256 2.925515598528508,6.645491254596086 l10.693095541198145,2.1872277636842905 -0.03342565946819358,-4.20612953125115 m-26.72265126830679,-26.744859237667658 l-7.479999979176428,2.228648144885137 4.2915259133650405,-3.5400754637432654 l3.303291094950956,-9.869069781803402 -1.4992376665907863,-5.316347230617675 " fill="none" stroke="black" stroke-width="1" /></svg>