<?xml version="1.0" encoding="utf-8" ?>
<svg baseProfile="full" height="365.9062062615637" version="1.1" width="140.9142859188637" xmlns="http://www.w3.org/2000/svg" xmlns:ev="http://www.w3.org/2001/xml-events" xmlns:xlink="http://www.w3.org/1999/xlink"><defs /><rect fill="white" height="365.9062062615637" width="140.9142859188637" x="0" y="0" /><path d="M110.06354531152735,340.9062062615637 m0.0,0.0 m-7.433264434261413,-61.1522719975676 l-6.80170779885326,-5.388652248658328 -0.16979292093863038,-3.2352343700536283 l-2.075643985620189,10.191250586300654 0.8020138964485997,15.839465481073049 l-5.153494182521774,9.987158750523392 m1.7834175647203132,-207.74222015519464 l-10.480073401529504,11.40088739837474 7.375873883300101,7.08804976887553 l0.2889185330209221,0.4284091248790822 5.893584184236366,4.236918601637743 l-0.8745839037463149,5.701787754910429 -6.293936376533842,4.386696822488603 m28.989429549614965,23.743500221349105 l-3.8726452980760095,-8.278523550465708 -6.812326925402878,-9.869352387585764 l-7.157115757741211,-6.7696339269846 2.6932403088509558,3.4913014137286056 l-6.270069729869001,9.914622824039355 -19.614200709932266,0.48756188807086875 l-9.40827090467437,-10.027801843005344 -8.15704498109115,3.3884560099567738 l2.828146340123361,-1.8366159285229693 13.716251934563353,-5.250819186678027 l-8.078626073017096,-4.840606368479406 -18.414712850962587,-12.468018797940159 l-4.926951121938865,-10.498044733631597 -9.294673157100842,-11.267378702588084 l-8.145286992595079,4.19335093594935 8.76187826265545,4.237738445332633 l5.231818445791319,5.956239773129611 12.241267694822161,-10.970477987023799 l3.9677479662774604,0.5392685985238121 4.608340729938824,-0.7995680317995291 l5.364768764607224,-5.122576967319901 13.43303806079055,-14.052199942223961 l0.7741740927777249,-31.376818689809664 15.276680392229633,-20.172054845174383 " fill="none" stroke="black" stroke-width="1" /></svg>