<?xml version="1.0" encoding="utf-8" ?>
<svg baseProfile="full" height="150.47107408994128" version="1.1" width="113.4302861976542" xmlns="http://www.w3.org/2000/svg" xmlns:ev="http://www.w3.org/2001/xml-events" xmlns:xlink="http://www.w3.org/1999/xlink"><defs /><rect fill="white" height="150.47107408994128" width="113.4302861976542" x="0" y="0" /><path d="M88.20233452354708,84.70045712882111 m0.0,0.0 m-29.037204226554113,12.973196849127126 m-14.662090576336313,-46.27729532617085 m-2.668848322726867,-23.51483741340876 l-16.83419139792979,-2.881521238368634 3.6203851000321117,4.277196437310029 l10.39135198631737,12.060882956047866 0.3723144413429902,0.08265641416433964 l-5.9782170160984,-1.3576994551290928 m15.655267582897995,47.95846153579195 l0.4848035650316923,-4.562310582801999 10.663087245841762,-6.5002940553582915 l3.299781567809211,2.085919902873254 2.646382620819002,5.265253632595004 l2.2870600775122774,4.414870580550036 1.4194848388396724,5.4502126631138745 l1.0901173495411538,5.79815389050241 3.254256384888734,1.9989089576698444 l11.23204665348359,0.5824878277180779 2.9921637993950427,-5.304359166958945 l-8.759956121405436,-5.934075848715024 m-8.94266984314872,4.890045235979215 l-3.7039743366914437,7.381441077676484 -1.7454218207792933,7.899387369434879 l7.78043567339598,4.3719441580995015 2.6232136936581316,9.611990559377869 l-8.165643100731515,-2.2994199566284395 1.2591246474898439,-2.8925586606986498 l10.074640606422477,-2.2477509518711334 4.041117324374517,-0.6361988731445961 m-5.141977875346344,-28.1346693929246 l-3.2634807879192986,-10.365165046867407 10.09542534524938,-4.796481874913734 " fill="none" stroke="black" stroke-width="1" /></svg>