<?xml version="1.0" encoding="utf-8" ?>
<svg baseProfile="full" height="167.77766581736097" version="1.1" width="98.31542476465742" xmlns="http://www.w3.org/2000/svg" xmlns:ev="http://www.w3.org/2001/xml-events" xmlns:xlink="http://www.w3.org/1999/xlink"><defs /><rect fill="white" height="167.77766581736097" width="98.31542476465742" x="0" y="0" /><path d="M49.6858644723974,50.88823792782743 m0.0,0.0 m-4.014103841409575,-18.128179457137808 l7.0319831771730374,-3.257757493929966 9.173499971532712,4.74740420959582 l1.9861860049035445,6.586587026118977 1.7191154218620885,4.848534985808417 l-3.674094100104733,10.215227279977434 -1.879507841416459,1.9968512382579306 l5.443726288281392,-0.19253081774101446 5.717425290395367,2.7747844549125698 l-7.114589888642294,-4.101847157764014 m-2.7875412495718943,-29.684538194311635 l4.161501915468372,-1.6927740016141495 1.1920657406885882,4.766580079423616 l0.9326686781419743,15.040261335098005 5.741224724957901,6.027734324187636 l-5.678075266679816,22.279805166231796 0.37072737209137757,3.619722622497737 l-14.237244478351782,6.798344200908032 -1.3938852481145692,14.687448628792463 l-4.52734932508233,22.07988970785496 -0.8422470668847004,5.624913639637251 l7.20892801156088,16.85296611272945 9.400383003032303,-3.3754131343356417 l5.038259531896685,-6.31711781476495 -0.9516538220309564,-2.6391923762140115 l-11.34351877824954,-1.3813478203437868 m-31.35974869784497,-85.428523447626 l9.440264070030485,1.088643255625158 1.6073279982394129,5.797967756072155 l2.1436456111679356,4.0451943981147505 7.662168660624788,1.939566681990166 l10.138723415539872,0.6731431346118346 -1.674908001800236,-4.054899087395715 m2.773205763235429,28.956658610788786 l-0.3514924010988181,4.570459905981263 " fill="none" stroke="black" stroke-width="1" /></svg>