<?xml version="1.0" encoding="utf-8" ?>
<svg baseProfile="full" height="280.74549881441425" version="1.1" width="162.79374679771894" xmlns="http://www.w3.org/2000/svg" xmlns:ev="http://www.w3.org/2001/xml-events" xmlns:xlink="http://www.w3.org/1999/xlink"><defs /><rect fill="white" height="280.74549881441425" width="162.79374679771894" x="0" y="0" /><path d="M30.857320966007393,255.74549881441425 m0.0,0.0 m-5.857320966007394,-102.30330805701827 l24.89936099831022,-43.26896526558803 30.003110651310596,4.112680398984716 l-11.05167715892062,-80.89340976889936 0.3220534261632705,-5.126587644902242 l-0.8936043115291629,-1.0752606657152248 -1.1776486804509854,0.6279610408630123 m-5.699516789951164,-2.2511062211624644 l-3.6043234722312456,-0.567502630976389 -4.015727313659639,0.8135570541020339 l-0.9259007524417721,4.997263946304916 -1.561751396491206,2.9296951727849874 l2.8252307726378922,-1.274868605641683 7.151168582151937,-1.9934800730200568 l11.318681078800847,-1.1666419088827533 10.145749787682195,-0.030730925504781625 l10.908862385789151,7.858548141394609 6.860572399684091,12.037605185148319 l12.618264374092194,5.476311944833247 8.870118831271862,2.6059075643318685 l2.578371649986504,5.016468118986797 -0.7375529683261578,6.293411630120815 l-2.4056429058970763,-0.004832102473699695 -1.1514583600217978,2.16886632869237 l-5.075417343375236,6.819977843582334 -2.6438897550064104,9.478564762772212 l-0.4682073594407876,6.630169803482018 -4.052942294145511,5.424438280233394 l4.769297974712483,8.355686362006477 7.13903242072311,3.4767730230477887 l17.002308442010733,0.237106471289234 0.8468238842806086,9.114241149144787 l-4.20449755131987,2.2845851814010834 -27.709865834343077,-20.597736110942115 l-1.8684583982085705,-61.03535620209138 " fill="none" stroke="black" stroke-width="1" /></svg>