<?xml version="1.0" encoding="utf-8" ?>
<svg baseProfile="full" height="167.18254755145358" version="1.1" width="119.85854421644092" xmlns="http://www.w3.org/2000/svg" xmlns:ev="http://www.w3.org/2001/xml-events" xmlns:xlink="http://www.w3.org/1999/xlink"><defs /><rect fill="white" height="167.18254755145358" width="119.85854421644092" x="0" y="0" /><path d="M65.57045276068874,25 m0.0,0.0 m-35.630991023030695,40.21780784757567 l-1.5591539834375996,6.702404415800749 11.835634999205462,6.811346904684387 l-1.4830575884648969,3.900164862573848 5.270661399418928,0.34146429370468356 l4.172212668547243,0.9045866932795013 1.7528794120587794,-0.8941553691740789 l-1.9516469059002288,2.9440270150881513 -8.578439537719868,0.9904572516793781 l-7.135969506376969,-1.8869046058343713 -4.607050659736245,-0.4407286818006684 l-2.655532035252649,2.1870700872423714 1.393015042073115,2.996619968756259 l8.886257586072265,4.32824025761934 18.052410219579055,1.5515221617668162 l9.30430035475832,-3.7553138477762635 7.697691683138523,-5.182152081632576 l0.887057485363828,-10.573945334962819 -5.704258367315558,-11.160168633619726 l0.9330571460851206,-3.6201987233276665 -8.247133573497038,0.31876225765881505 l-14.823630334021379,-4.077762098571862 -7.707069782462714,2.8579289632291403 l-2.3163364403608835,12.002976218738263 1.031766260752152,10.711015876680788 l12.638699166513486,13.696425112967807 15.254637527877435,6.61474576609989 l7.336777470869052,-0.26578960221216513 16.85223449798216,5.457695026001139 l5.362935789375094,8.700363394948084 3.0261324836588788,5.327548548898466 m-24.557319280604926,19.476493605372244 l-14.523335376845969,-9.191540588836048 -6.80383122003456,-11.895456097676083 l-3.8417808412574943,-6.336103603920096 " fill="none" stroke="black" stroke-width="1" /></svg>