<?xml version="1.0" encoding="utf-8" ?>
<svg baseProfile="full" height="182.77880999079628" version="1.1" width="134.06585410080308" xmlns="http://www.w3.org/2000/svg" xmlns:ev="http://www.w3.org/2001/xml-events" xmlns:xlink="http://www.w3.org/1999/xlink"><defs /><rect fill="white" height="182.77880999079628" width="134.06585410080308" x="0" y="0" /><path d="M61.313910742184646,116.2049784550405 m0.0,0.0 m4.045514995626689,18.457282017600825 l-2.1835890118663372,23.116549518154937 3.2607697188249607,-16.75703354396268 l-9.422133311670594,-17.124218794675624 0.4565743223149266,1.679567429568564 l-0.03876352514353573,1.8738152051901629 m-20.9858338407951,-25.488868745773587 l-8.991056457845925,-7.613296311048396 -2.455393631629733,-12.592591282871144 l3.765485355847513,-4.21293210481428 1.9936023686437725,2.580315611376017 l3.556425476980068,3.5318204967462505 -1.473129580319985,5.746974306300232 l-3.681111910558968,6.962593543875819 -0.4722895419999745,4.434440303564906 l4.384512305865543,4.785970433550128 6.923386485691016,2.093748584409151 l7.434623785941464,-1.7510818375228803 13.277108511961133,1.214254732722179 l15.355491167111627,1.650567209488784 13.582947515233425,-3.5728603946571047 l9.28666701014549,2.1795125115693903 7.3571951578529955,0.48624926233229043 l2.7749399924079636,8.572771327846048 -4.588561026735395,2.855869107087239 l-10.88784319016999,-7.561750237926775 -9.886423146053753,1.4379320901519765 l-6.136952067899662,2.7785449110470184 -5.367591694643574,1.0837949308466068 l-12.39004871180352,-3.9481205219003592 -0.6813971954999554,3.5721293676907506 l-1.733215661553464,3.269241520311315 7.422989140711616,-7.458439901227183 l5.027661060933074,-4.719815674188036 2.4079488192674234,-7.495243715489271 l18.09757506849481,-49.54628649822589 11.1742562156012,25.048388831953908 l6.6722786893742665,-50.77477214414179 " fill="none" stroke="black" stroke-width="1" /></svg>