<?xml version="1.0" encoding="utf-8" ?>
<svg baseProfile="full" height="289.07706135048215" version="1.1" width="141.7682278877113" xmlns="http://www.w3.org/2000/svg" xmlns:ev="http://www.w3.org/2001/xml-events" xmlns:xlink="http://www.w3.org/1999/xlink"><defs /><rect fill="white" height="289.07706135048215" width="141.7682278877113" x="0" y="0" /><path d="M25,241.63645754814343 m0.0,0.0 m32.50361390183336,14.242921543136893 l-22.101560517294523,8.197682259201859 25.605365436499206,-38.84844565420636 l2.3845183847564067,0.4789381743961803 6.588331269500738,4.61828662772872 l6.069861714205658,7.983103885831005 m10.017852830843804,6.521817214393571 l5.484647218190522,6.099365823307999 9.60237542775521,4.88235526235372 l7.8719786197098545,3.2595458453886677 7.741243601711063,3.4333725089624734 m-39.66971853943173,-0.512414539438879 l5.293945452612953,-1.2227669380691266 5.8740218730626745,-0.091179603111305 l8.050964696560442,-11.617785743802083 -3.7341819038769617,-6.352253613251588 l1.0699148348995131,-10.17237865094134 -2.5920042428500145,-18.69523257141776 l-1.5048453794805305,-18.217478711800485 -7.124982337457018,-21.761557066587777 l12.208730407678452,-9.603433783911811 3.217340377651138,-11.760117965420626 l-1.410336407196291,-15.432498443221293 10.12618891778506,-10.514071428644046 l0.22124245246102014,-9.372919797313774 -8.128794615555655,-7.737697836003813 l1.1871649387841692,-13.841751200927819 -11.257647977326606,-17.589127500514756 l-4.526877459130624,-7.204600469803397 3.1141769918313087,-9.08343732403424 l5.362735446058628,-8.916506915329357 8.235136680289337,-8.678073715632433 l-2.074457551803715,-0.51980756107052 2.615412495099237,-11.946702893156766 l5.723540404116479,-6.6616067652331585 " fill="none" stroke="black" stroke-width="1" /></svg>