<?xml version="1.0" encoding="utf-8" ?>
<svg baseProfile="full" height="839.9652615905478" version="1.1" width="344.1671576945571" xmlns="http://www.w3.org/2000/svg" xmlns:ev="http://www.w3.org/2001/xml-events" xmlns:xlink="http://www.w3.org/1999/xlink"><defs /><rect fill="white" height="839.9652615905478" width="344.1671576945571" x="0" y="0" /><path d="M25,814.9652615905478 m0.0,0.0 m13.980560750640134,-4.222558432428796 l9.921696937129072,-10.0682509451626 12.563049204784155,-8.18193855456065 l12.595235922890826,-8.322181990703763 m-11.689411546264852,-100.77832600303368 l21.936956743690175,-40.9974591297634 30.01450872502011,-39.41036240653624 l11.968514596170294,-87.24348407995068 8.620160269217687,-83.73682108432223 l36.385357504575474,-58.85450194759546 13.542319486564912,-47.7408521791768 l29.76938999509958,-30.255373286590476 7.276242585151543,-33.280895195121744 l39.00745051965216,-20.503284056023134 1.0502057867807075,-31.393351767126727 l26.843515402695427,6.5523844528281465 6.318509072026953,-5.846590132507871 l5.973848727470072,2.8083854130420325 7.898858960877276,-1.2496066163918615 l5.118208842222059,3.4602122782468037 1.6922364720693608,1.630897578091619 l3.379742736094085,-1.400741582987805 -3.8069968908419627,3.089061712917156 l-10.394161530295104,-12.485124288432855 6.339615196609679,7.706385028727097 m2.199471930581587,9.471372565257035 l3.520294110261016,3.295632166725532 1.4548940478253514,-0.6816487484568889 l0.6143999235825773,6.358288980091636 -10.460359111149222,2.3794854755552497 l-11.839952601446418,0.2858650263711149 -3.690888200456691,-1.9508586337719938 l-1.3511327693563537,-4.419087925779548 1.99006783197476,-4.7760393876775185 l1.5333981541387192,-8.061038932711092 m-28.789734575789456,-191.14285496158743 l5.459639992917962,7.305867991453698 2.3492450349816543,4.614673533290581 " fill="none" stroke="black" stroke-width="1" /></svg>