<?xml version="1.0" encoding="utf-8" ?>
<svg baseProfile="full" height="122.29920330960017" version="1.1" width="133.53227880428665" xmlns="http://www.w3.org/2000/svg" xmlns:ev="http://www.w3.org/2001/xml-events" xmlns:xlink="http://www.w3.org/1999/xlink"><defs /><rect fill="white" height="122.29920330960017" width="133.53227880428665" x="0" y="0" /><path d="M47.15607428318137,49.02852021483062 m0.0,0.0 m15.368182526156673,-24.028520214830625 l-7.746186601944629,8.321990224956663 4.943931832805797,0.09314362574803003 l3.3748935543088874,7.528671205465584 -4.383247037305413,5.3852925855342635 l-5.4792667500071905,3.803587397237836 -0.10831102455414683,2.209533034467935 l11.77898552338527,0.06274657160349896 2.1582967865885654,-3.6962148462766864 l-1.7775906136862418,14.070972849633922 2.914443990760349,7.5918028250148195 l6.3972248437422925,1.4949184262182373 8.742699746871867,1.4628492528358712 l1.8515673385819602,1.2610351563692546 3.442803776239557,2.79245627778824 l-1.4063862924078219,4.7856745312240605 -7.437580164511167,2.69379476478289 l2.5309136697601446,8.34982008572195 20.799341552984938,4.087129341273805 l5.4114878633356085,-4.950487092804743 -6.0255114330753345,-2.1843844768237632 m-4.75274038818319,-31.286027720594685 l-3.2110980662203645,0.6762808000076828 -5.403488647601633,-2.0483178148680734 l-17.57735612436055,-1.8148745748965112 -7.320827509595495,-4.792579993298536 l-7.064806993703226,-5.404273839431277 -8.122098362704437,0.22656837312053785 l-9.627496366241605,4.762539060576959 -7.118697833245509,4.7601540330979235 l-7.308157079355314,0.2473630473997513 5.591608099872941,-13.532679817734131 " fill="none" stroke="black" stroke-width="1" /></svg>