<?xml version="1.0" encoding="utf-8" ?>
<svg baseProfile="full" height="230.50523953779464" version="1.1" width="166.3082286282639" xmlns="http://www.w3.org/2000/svg" xmlns:ev="http://www.w3.org/2001/xml-events" xmlns:xlink="http://www.w3.org/1999/xlink"><defs /><rect fill="white" height="230.50523953779464" width="166.3082286282639" x="0" y="0" /><path d="M77.5737321403037,191.16132079187398 m0.0,0.0 m7.620526213187039,8.75012188177915 m4.553893537275205,5.593796864141526 l6.208606296523502,-58.79349877748742 5.8058154574531455,0.37510957241940757 l4.01263028981518,0.27467805102530524 5.923377484793349,0.6077295580579941 l-0.054799514982019695,-12.496547409099499 6.94167226635021,-5.432272004539782 l6.183061553264129,-2.2924931305035043 3.707435503867992,-2.324395907882431 l2.787767390064735,-5.536706872008802 3.60404667863731,6.01546211450396 l6.4404633317104025,9.383134756981763 -0.21587462266413615,-5.481209676057423 m-14.944172766676672,-33.40565861383346 l-2.2459362016806845,-11.315345241125378 -0.9651705251126302,-5.451406057554281 l-17.942464283445634,-2.869976985179951 8.500764291508403,-7.3612329937672 l5.307175020787739,-8.214311414948435 -6.7772901428089805,-9.646746437635224 l-11.631577243591641,-11.997763036309435 -11.439530512915296,-1.2836267667810575 l-6.366179252678283,-5.315795378452069 -3.3633037914288386,4.247414333084248 l-0.43445165817585146,9.782521067587563 0.5561107435718229,-9.022697480223709 l-5.928949591807663,-8.744142607171032 -13.144682684426838,-0.7871012487887166 l-13.372960525537954,0.14506926374575443 -8.402611016979709,-3.563430215851825 l-0.7383302321235635,3.7015089101248657 -4.148624049614241,2.461010662087925 l-6.6481612862123125,-2.797473460541111 14.331994616258498,-1.0697523089364291 l11.176188329653378,6.251744735679578 2.1538442280111445,7.782241194544684 l-29.624035470173933,15.535268528138143 " fill="none" stroke="black" stroke-width="1" /></svg>