<?xml version="1.0" encoding="utf-8" ?>
<svg baseProfile="full" height="109.31333574872184" version="1.1" width="109.77912458894457" xmlns="http://www.w3.org/2000/svg" xmlns:ev="http://www.w3.org/2001/xml-events" xmlns:xlink="http://www.w3.org/1999/xlink"><defs /><rect fill="white" height="109.31333574872184" width="109.77912458894457" x="0" y="0" /><path d="M41.04015192698172,38.40240277201704 m0.0,0.0 m-0.7320964803512553,42.63218021858721 l3.9204972497808788,3.2787527581175966 -1.1475906356300885,-21.69812355017694 l-6.7376718334607455,2.536449280808345 -4.545603944182727,-7.809763922267934 l-4.318557149206963,-2.4215562467211336 -2.479129133930824,9.95866699464013 l6.851127293291322,0.8841021749701633 1.7114866044596548,-4.330104757749026 l-6.337487490107844,-1.3365496565724193 m5.288759243544067,-21.394430112116066 l4.089861242973802,-4.964726664572135 -0.08354284562657452,0.8828154602194938 l-0.33124195379337695,3.50704154510342 0.5014498454158351,6.602783289623362 l6.476818891075637,4.323630790822716 10.791817464109759,0.3061296531378701 l-0.25479946819896837,-5.339973809374203 m-17.385351058595855,-4.154307291633909 l-7.489293968317641,4.823296166185031 4.390458925328347,1.1155357763878082 l10.310339077596685,-0.8473867892396687 7.054375980566738,-1.6102848448436613 l-4.928903255557508,-2.9789381369474364 m-2.6303019073239207,-14.619050793892043 l4.655142688550498,-0.7485903045136051 7.348715182742886,3.9365760916501102 l4.245098910597223,7.752165438775258 0.15724683269132242,2.6217770968124223 l-1.4669595871044523,1.4228496330025808 1.9020621199105998,-0.7884603270522964 l6.506147256006445,-0.0466799958752798 2.696685394085998,-5.158571025909909 l-4.204249638370571,-1.0193442303048765 m2.070440853723449,5.828456565122082 l7.1403838040421705,5.629584323750296 2.6452200552578056,6.577456602546429 l7.81887977065635,1.835163757809215 0.23873832531468372,-1.649787133430629 l-9.109276113548843,2.0388188560893585 8.25479162495156,7.6968324494446065 l-0.6777392241572922,-2.1364207767508363 " fill="none" stroke="black" stroke-width="1" /></svg>