<?xml version="1.0" encoding="utf-8" ?>
<svg baseProfile="full" height="444.49642180979663" version="1.1" width="211.81368915737073" xmlns="http://www.w3.org/2000/svg" xmlns:ev="http://www.w3.org/2001/xml-events" xmlns:xlink="http://www.w3.org/1999/xlink"><defs /><rect fill="white" height="444.49642180979663" width="211.81368915737073" x="0" y="0" /><path d="M138.67527139721977,419.49642180979663 m0.0,0.0 m10.005314578172179,-86.39451554269378 l19.227199175768213,-0.22205194115370433 6.0040291520033815,0.8864938575881083 l2.7580225801112235,6.496263048186115 10.143852274095947,9.772241281655123 l-2.639643474367073,9.57609053227233 0.5655715969464364,-2.222027027431268 l-6.609680576957628,2.089163512047828 -14.748392323096544,1.3690896697171853 l-7.799211984128213,-8.952634420448183 0.13852920761741716,-7.029673020086323 l7.144266820188863,-12.563916376968706 -7.6852726370214475,-9.273368472551585 l-5.048859033936988,-4.544859234644925 1.4482577837876498,0.36854157678310573 l2.149980147507751,-5.942214852459388 m-18.10417149813067,-11.60783968909579 l-13.995978703512781,-11.145796002629842 -13.273720254758471,-20.340837929172746 l-20.96084266547189,-15.12657921241065 -12.604766874762838,-6.344256004296767 l-16.331987795139234,-7.806394089595849 -9.564194024965493,-8.351791665898649 l-12.601351852652575,-7.80363053499246 -11.292221014516977,-6.072669603116829 l6.389291545571214,-14.516218330018795 14.365411053331123,-5.732806427910142 l2.601950960865682,-6.756472861334084 4.054178054936027,-12.033364346965012 l6.483047020150572,-3.3328734675015794 2.859150662596838,4.498481180293421 l-2.408632738131937,-66.32242763050972 9.586520493053136,-24.3895389119876 l5.643474232446956,-13.857544163614872 2.829977176131925,-50.86648470885057 " fill="none" stroke="black" stroke-width="1" /></svg>