<?xml version="1.0" encoding="utf-8" ?>
<svg baseProfile="full" height="115.51092315924718" version="1.1" width="119.25358248230745" xmlns="http://www.w3.org/2000/svg" xmlns:ev="http://www.w3.org/2001/xml-events" xmlns:xlink="http://www.w3.org/1999/xlink"><defs /><rect fill="white" height="115.51092315924718" width="119.25358248230745" x="0" y="0" /><path d="M84.85571751671158,79.5039471695558 m0.0,0.0 m0.09239234146628306,8.57668845834191 m-3.0159915930208925,-16.621676758356525 l5.663688388908705,-1.0586251716302137 -4.703145675314573,17.989126881816127 l6.392653967724363,0.08035659117122784 -1.0056340739036351,2.0411059883488605 l0.35484644032818674,-2.907023272433907 -3.4723692911835995,-10.737024636667872 l-4.646924767522599,-8.024760445121434 m11.138575206865022,-21.739673246568294 l2.599774021248616,0.6538877892273401 -6.984550839478492,9.550551173685 l-5.28751718564078,0.7541146562958545 -10.142123866495197,-3.503204363762422 l-3.7654836538115455,-3.7273832344553695 0.9189593107160051,-10.813842475993624 l-1.9305640514890554,-6.185472547884323 -27.53297753215236,9.241397290750498 l-1.2663493531783991,3.724736009938082 1.8628067490590579,2.537894951140063 l-6.2161616855224615,8.942688194257226 -1.78384494154971,6.307157274411594 l1.4131576043022487,-8.945557643252865 0.32338077983607216,-13.852668498956179 l-4.971570378445358,-9.371483627782865 -3.7474865412947764,-2.7546532973140403 l-0.14325689716270554,5.999395840394778 8.089827041962844,4.1019339716202685 l1.948296874936165,-14.761933020774697 -0.8082961456740007,4.568355074080759 l0.4885515788299545,3.7636222513254807 -0.6386823552340998,-1.8580396195326465 l3.4405965571141426,9.681537190760979 11.510605483251567,15.638509923909929 l-16.51627478571295,11.005884933436766 " fill="none" stroke="black" stroke-width="1" /></svg>