<?xml version="1.0" encoding="utf-8" ?>
<svg baseProfile="full" height="121.94690155026464" version="1.1" width="132.78402308342265" xmlns="http://www.w3.org/2000/svg" xmlns:ev="http://www.w3.org/2001/xml-events" xmlns:xlink="http://www.w3.org/1999/xlink"><defs /><rect fill="white" height="121.94690155026464" width="132.78402308342265" x="0" y="0" /><path d="M80.00249685941417,96.94690155026464 m0.0,0.0 m19.432826559379716,-42.17195967553376 l1.118066414561928,7.51294529002513 2.591570084642637,6.704069153967088 l-6.997424312581961,1.7479779377489417 2.2753443398693007,-12.618152501848604 l-10.803425421163121,-2.8842545785625764 -2.975080908105072,-1.1239275824484742 l17.169193962975044,-0.6660576137606594 5.970455504430015,-1.8387401296747052 l-5.7284560493268115,-2.717268887048401 -14.484211696731085,14.513230212936529 l4.912248386581497,16.71520248355251 8.328748043422246,7.3816088604003 l-1.1016417339036304,0.4473302561804232 -7.2620806035888785,-3.2672429674776784 m8.655185244445862,-57.43900205096424 l-8.156091723126945,2.8776990970646352 -3.1853389405386965,5.92541637000601 l-2.770579889938265,-1.5395802542268837 -14.922345719658829,-9.50619497060024 m3.536352896870638,27.869334003845143 l-9.553166027056365,-10.589698865236187 1.339618678677864,-8.8549980441433 l9.133138563582019,-8.040022200020223 -2.4259631948371183,3.8695611316755385 l0.4727291850750441,8.817806108659513 -2.676461105916702,6.324211644813096 l-11.409969154657086,25.17272195900695 -6.434102502370176,5.667401369582754 l-2.348558036673532,-0.4114078810755129 -2.1642157541683402,-6.020555110975147 l-2.209757257113558,-7.860688882149667 -1.7181977962293828,-6.377481786544973 l-20.61090689624243,5.532333551490418 14.1724007237547,19.309083839662488 " fill="none" stroke="black" stroke-width="1" /></svg>