<?xml version="1.0" encoding="utf-8" ?>
<svg baseProfile="full" height="188.99086288957955" version="1.1" width="133.0992002621038" xmlns="http://www.w3.org/2000/svg" xmlns:ev="http://www.w3.org/2001/xml-events" xmlns:xlink="http://www.w3.org/1999/xlink"><defs /><rect fill="white" height="188.99086288957955" width="133.0992002621038" x="0" y="0" /><path d="M25,163.99086288957955 m0.0,0.0 m18.011884452198522,-6.890064829471783 l17.629167798222877,-2.817287660591976 m-13.289608783940144,-103.73855805265211 l-0.6270246116691867,-4.926327694259722 3.037103860296877,-8.113541051168811 l8.002111030088939,0.9158361524188003 9.38334218158138,0.9392020795903244 l17.613277198967914,-14.360121833444294 -15.433233251057079,15.673116385300254 l14.976046498417547,20.226920417235963 13.700255869853208,8.852736048904042 l5.198348449707547,17.99083826568492 -8.14777307786648,10.218724006971772 l-18.79989640067603,-3.797162111145067 m-17.370001577839098,43.3972190389498 l-10.477801564143896,2.963797489838207 -4.686839501538503,2.639652292419218 l-14.917664453915078,3.5538203500749836 m3.5412659407134672,-26.038982443320602 l6.008672530903737,-9.96328542496015 19.89941995717479,-1.5971826712651116 l9.79949404998648,4.128867551466319 6.76076353540382,5.3118325995053155 l5.791902945193919,-4.334565326225063 1.2023099532048813,-6.988172943368894 l26.293677232833403,-14.40285785888439 -20.51528657470689,-11.6699299922952 l-15.316347237840233,-0.6537994854577134 -6.478111504479066,-1.107952229268584 l-6.781436815378765,-1.143732048731404 8.379358780054499,1.1314844057833686 l12.159947010923856,9.848172351562631 3.685993175491008,2.4284278349896695 l-1.5447535325646589,-5.484083756827036 4.245459168772006,-2.649838984970272 " fill="none" stroke="black" stroke-width="1" /></svg>