<?xml version="1.0" encoding="utf-8" ?>
<svg baseProfile="full" height="274.45542695554695" version="1.1" width="172.0733765581902" xmlns="http://www.w3.org/2000/svg" xmlns:ev="http://www.w3.org/2001/xml-events" xmlns:xlink="http://www.w3.org/1999/xlink"><defs /><rect fill="white" height="274.45542695554695" width="172.0733765581902" x="0" y="0" /><path d="M147.0733765581902,249.45542695554695 m0.0,0.0 m-13.293562713760727,-45.70920136462548 l-4.308861465910272,-45.71846405874724 6.629028072772628,-20.606109914735228 l0.7850910852736709,5.576472682578922 0.23577615947033148,4.121952726259941 m-10.380412537469192,-9.984649865437424 m-3.905005744089883,-18.660478684877518 l-6.241287630879758,-14.335125838500208 -8.054113341507296,-13.007575119295344 l-3.8674795519043634,-1.8885788238814 -2.2739995961989066,-37.02916493895124 l-15.456628984071248,-8.75637725115712 -7.673885643674154,-4.338805965250464 l-13.168077396101166,-5.970638277668099 -2.0673645351442715,0.5183735142425405 l-7.804362219706361,5.771132771688436 -0.005884429559555038,3.5380894887367713 l0.8774688787744253,8.80695584169117 5.789968838215122,3.3987868844905544 l5.429015913031681,5.358922913808004 4.890157643441838,5.344615442648344 l-1.9356205928793413,1.3176051888991747 0.4964244862759932,-1.7816699740172415 l0.055282106811554155,-7.365995463903084 m-15.785180856904203,-12.427398530136418 l-5.675884434971127,-7.744229086926908 0.9669072220789533,-12.883871252480436 l5.1238039311885135,0.5686124055182373 2.437539990435135,9.437490512117387 l1.3145913093697863,-0.9214727890075893 0.07018750439264476,-3.5010385547797207 l0.6988172796847849,3.5510005197706915 -6.002004204449888,30.3486555542826 l-22.43675032597022,10.449636788251189 -7.53707077425537,-1.9305052642107212 " fill="none" stroke="black" stroke-width="1" /></svg>