<?xml version="1.0" encoding="utf-8" ?>
<svg baseProfile="full" height="344.8807567121099" version="1.1" width="117.9997579948008" xmlns="http://www.w3.org/2000/svg" xmlns:ev="http://www.w3.org/2001/xml-events" xmlns:xlink="http://www.w3.org/1999/xlink"><defs /><rect fill="white" height="344.8807567121099" width="117.9997579948008" x="0" y="0" /><path d="M79.1685473133343,304.7052799169555 m0.0,0.0 m-20.084378138189223,15.17547679515444 l0.31694968395288514,-112.99634416604157 15.680244742195397,-35.94794447192777 l-9.015061583210425,-1.376243782509671 0.674276413983169,5.720806619652381 l-0.6221990389221635,5.551783148123068 -9.082985391500445,5.155018256643918 l-0.9099315941472077,4.362742657723147 -4.187114350147623,6.800547260801194 l-6.544885163583346,6.248410572138179 m-10.653059414629697,-23.42862492471789 l-3.0813863048176318,-7.133651593722948 -6.659017174317987,-6.899273257341314 l12.566221740236236,-4.256432434468141 19.61672302019376,-6.216719770400633 l3.3067013202859097,4.932607158416573 3.142220721933483,9.85245016378648 l2.1276833609858845,6.72991462099666 -0.9949943218279744,-3.565464596159529 l-4.184558452477347,-5.684641010055858 -7.870217158063785,-7.388305716627883 l-8.743042744409939,-6.107078839480462 -0.07211616168224577,2.589391643081774 l5.199219281914111,2.0851853879607805 5.021208539859201,3.0024386739766293 m1.6431657857257569,4.247228315108877 l1.6872698487960218,6.825809073278086 -2.625105903251841,8.263848031586608 m16.67893641199755,-4.871000189779501 l10.06908963626086,-6.516479231730246 2.178698983750027,4.438793392914781 l-19.10307479553299,12.239638814400655 0.22437776199151105,-15.07915693603603 l18.315828839625848,-135.95285422008888 9.815522278490768,-10.507155361611389 " fill="none" stroke="black" stroke-width="1" /></svg>