<?xml version="1.0" encoding="utf-8" ?>
<svg baseProfile="full" height="585.567049064934" version="1.1" width="298.1100376477059" xmlns="http://www.w3.org/2000/svg" xmlns:ev="http://www.w3.org/2001/xml-events" xmlns:xlink="http://www.w3.org/1999/xlink"><defs /><rect fill="white" height="585.567049064934" width="298.1100376477059" x="0" y="0" /><path d="M25,560.567049064934 m0.0,0.0 m3.4778573833575903,-34.506015407173194 l11.638969970594042,-9.244155311986855 34.15676232704198,-48.01584523665907 l11.117278911375177,-15.730418793975653 12.293183680105932,-5.291044516436944 l15.371217165114878,-16.944860814729665 3.771663899816227,-92.91821473667073 l15.481890633170385,-73.33721650314797 15.52744679408399,-71.29212427811431 l29.963651434078933,-27.294739649227456 -3.7441022097513814,-33.46108444211348 l29.018711328466622,-13.955228173788889 -7.179580105914931,-55.83667137429599 l8.266538403246829,-27.909061193681087 6.105925191226531,-2.8493862622517483 l14.51219742696493,-2.865389686054321 11.381054936861842,-0.1572222457842193 l5.508986598304067,3.5491761851836303 1.515668322619037,5.604202315037907 l-8.942405258777624,6.112455605089508 -8.148000512888293,1.8653677058189448 l-4.024982965495112,-1.2109460560173884 -1.5096690338405443,-6.177381710073496 l1.7345966333897695,-7.000152406939942 4.6694588810723205,0.47244903172630526 m1.7681817037509966,-7.173541108668058 l0.2580874827108207,7.651000607943315 1.1491716995942576,6.242088982610588 l3.3929184364883924,6.245633821243093 5.48895665656753,7.2578919991806865 l6.732956676138729,4.946265954128943 5.0626709077455985,2.8853797667908596 l6.353094742346272,1.2073046405309233 6.582053718652921,-0.5764585462030449 l5.87529303590551,-5.647611930769498 3.482332753581654,-9.014089328549964 l-0.15526922554193895,-9.8992660712102 -4.9268508848682435,-8.900286776724698 " fill="none" stroke="black" stroke-width="1" /></svg>