<?xml version="1.0" encoding="utf-8" ?>
<svg baseProfile="full" height="131.1522716113342" version="1.1" width="103.79304293826337" xmlns="http://www.w3.org/2000/svg" xmlns:ev="http://www.w3.org/2001/xml-events" xmlns:xlink="http://www.w3.org/1999/xlink"><defs /><rect fill="white" height="131.1522716113342" width="103.79304293826337" x="0" y="0" /><path d="M78.79304293826337,25 m0.0,0.0 m-32.01294031157902,28.287946806009103 l-7.160280952310297,-5.458291190463048 -1.3079985498903104,-5.439567084883388 l0.06184570042200632,11.349387474192913 4.4536580216117905,2.0919817656678825 l8.596613088106627,-5.125144306221024 0.03531586520196778,-2.997303903826718 l-10.51195310049553,1.709712599002181 -3.960098254286023,-5.059256035461817 l-0.9116557915547759,-5.863788689901606 0.7116371036579109,0.9383426900507382 l4.190565642886068,5.644426912026002 8.759070909293236,14.456711667256299 l-2.3226498508175744,4.120541616508061 -11.895884292667676,7.278187235514133 l-7.323348315112554,1.5775202871940777 0.6594282936047169,1.9915596575230456 l-3.854368144333945,0.816092480088891 0.5863100005762567,0.4034281771168255 l1.3915619188533739,-3.403019433845263 5.052232346825038,-0.17936289120521573 l9.707529680664425,3.6288577777474944 8.25368113170779,0.9354999764655803 l4.162485740213631,-1.8681605687846463 1.2394373816758066,-6.956284052993486 l-6.227550322717121,-8.759525954501182 m-3.77705772791336,47.0317786010584 l2.8845050426354035,-0.22718256821019275 -6.552766745636503,-6.017083471275629 l-1.816862011967633,-9.744031336513366 3.4325176597814258,-9.696952980318969 l5.828832768968645,-7.761594852049962 6.087290716380265,-2.673006640886296 l2.7405862791844573,1.5061015356372023 6.119807411793068,19.530621962527192 " fill="none" stroke="black" stroke-width="1" /></svg>