<?xml version="1.0" encoding="utf-8" ?>
<svg baseProfile="full" height="220.16434737244333" version="1.1" width="198.0362002322007" xmlns="http://www.w3.org/2000/svg" xmlns:ev="http://www.w3.org/2001/xml-events" xmlns:xlink="http://www.w3.org/1999/xlink"><defs /><rect fill="white" height="220.16434737244333" width="198.0362002322007" x="0" y="0" /><path d="M135.4625085133805,26.10267367506648 m0.0,0.0 m7.851105896615082,-1.1026736750664812 l12.375715387087714,9.45094973988204 -6.178812369545124,-7.253430303336003 l-4.656674246982173,2.1655829817506813 -6.051686659702195,3.0268818043499306 l-5.374698470879658,5.492042350606 m14.096697383965292,33.071310506881495 l3.594271705598272,11.345796951362118 -1.9032492282418725,10.509972292194224 l-9.10284552614002,7.565148373323073 -4.333699821845304,6.028818662448381 l0.8463640014962925,11.952714070254494 -8.232412176505557,5.160356322062422 l0.27129649587640303,6.091298520785433 0.7082358700450764,-8.926647895039258 l13.419194291075577,1.310554533003021 4.807897596867882,-3.9388939899852162 l10.259033011458865,-5.658196580082904 8.828261017541719,-3.1337740924771595 l0.28410189502816985,-2.6534629556834575 6.06559566600581,-5.11967078357195 l-3.9100697996378257,-1.962285917287384 -3.8885952596385365,-10.668263516383908 l3.3483585326382603,0.3972869512961019 -9.139643677895345,-7.278392920764412 l-3.6778629647233707,0.946315319344635 -7.721526280199182,-2.7383397329888215 l-2.4573268663155265,-1.4328967108000914 -8.751525368590512,-6.002444419098166 m9.397973719386092,52.344420701736574 l-14.272360056465285,5.89695503967631 -20.551275281385077,17.83222912633551 l-11.602317948357873,0.5513120319930676 -6.166855827009072,1.2685262314665187 l-8.99742054018818,0.7662618834441071 -9.868468727909864,5.8629117674157545 l-41.14618144770548,13.705526683856805 -8.631102438203966,24.187874344473368 " fill="none" stroke="black" stroke-width="1" /></svg>