<?xml version="1.0" encoding="utf-8" ?>
<svg baseProfile="full" height="114.00331246536513" version="1.1" width="113.35615772423893" xmlns="http://www.w3.org/2000/svg" xmlns:ev="http://www.w3.org/2001/xml-events" xmlns:xlink="http://www.w3.org/1999/xlink"><defs /><rect fill="white" height="114.00331246536513" width="113.35615772423893" x="0" y="0" /><path d="M40.687197568271046,89.00331246536513 m0.0,0.0 m-15.68719756827105,-41.29453647262922 l8.936379527317625,-3.560249540834746 5.010941785201277,3.4792770797420984 l2.91842565199839,1.5837510304122948 -0.9732062305579482,3.3775179228180305 l-0.9407181913933457,6.456221960791972 -4.338152630963384,8.700107555365609 l6.599647526658724,3.2566676171937963 2.0343451156395687,-3.7205388568848963 l-5.840059239266389,-6.706310398990764 m-3.6990639648713217,-3.3867921905952336 l5.6160085736040495,-3.4702394959347425 4.341515700158635,2.8553244392595936 l0.1338006154959712,1.9777145464449366 2.5272439493633967,5.935782662860499 l12.044455334902619,1.6568937166109734 3.3254170411557706,-5.3174505395547484 l-4.9459228144997445,-7.142083918610977 m1.1899275173005397,-20.037212729315605 l1.4695754612592251,-6.063073725802793 7.608538074742046,-2.5840831277111933 l2.581379368521768,3.7760264802623387 0.10178067926705187,6.1933099830186205 l2.383506907299658,6.295708117465455 -4.376836101176063,6.311691360647929 l6.0793060728010895,1.8983759369814648 12.649073085675516,-1.8492083988563874 l0.9188489086041945,-4.06633247625315 m-35.31279381086315,43.17637466740497 l-5.9522368196255275,-5.369630006478467 8.11150047118399,3.1345753513348016 l-3.558514623224218,0.5574263439988381 8.325944477389069,-10.778776656422618 l3.9951992227039548,-9.361767222255732 -4.023900926992974,2.1809741978753494 l5.2257416316004806,-7.575128555939872 -4.623003566942612,-2.0637752158635045 l6.170814823977826,-2.767640077606842 " fill="none" stroke="black" stroke-width="1" /></svg>