<?xml version="1.0" encoding="utf-8" ?>
<svg baseProfile="full" height="301.2445286860487" version="1.1" width="103.72743897605312" xmlns="http://www.w3.org/2000/svg" xmlns:ev="http://www.w3.org/2001/xml-events" xmlns:xlink="http://www.w3.org/1999/xlink"><defs /><rect fill="white" height="301.2445286860487" width="103.72743897605312" x="0" y="0" /><path d="M63.778738392043934,25.24489382843562 m0.0,0.0 m-0.3073373149030717,-0.24489382843562058 m4.662843071643673,6.613596706602345 l-31.167824159857236,25.86985699833948 -3.29521648293966,37.18856935836777 l-3.18844138847345,45.542243101304024 19.93431396497502,91.80312892819106 l-11.471724914330842,44.22713359324401 -13.94535116815836,-3.127709798787262 l2.7007810458559627,-4.072173070209422 17.06291087688036,-4.555682872513021 l17.136638151948038,-5.004111226896525 8.357096830924093,2.719753805285383 m-34.457852183406104,-47.0820979566798 l3.235520496872451,20.92978497705347 -3.163861728342755,9.368496139397493 l-7.203372140697282,13.798821218795114 1.91949357937781,7.049464082825558 l3.4588694002980547,8.547274535380526 6.7014837014291,-2.8911330280439516 l12.988908627044099,-6.181336204718037 9.569948899975348,-4.893627414012576 l15.36901447363415,-0.6563092375264634 0.05185894425979359,-2.5037064467951398 l-7.848663773129492,1.3374441711003873 -13.574298272745526,1.270915806348668 l-12.102636088241518,-0.1349385579850297 -16.11649210620983,-3.6926114013854505 l0.5129835542864403,-1.3570497928656688 5.7911326339189415,-4.956008096147966 l1.1789866015494033,0.9784404027773528 13.114126066331163,4.117408871937893 l1.138603739679841,5.836143415759372 " fill="none" stroke="black" stroke-width="1" /></svg>