<?xml version="1.0" encoding="utf-8" ?>
<svg baseProfile="full" height="110.2570556511262" version="1.1" width="130.81071513353191" xmlns="http://www.w3.org/2000/svg" xmlns:ev="http://www.w3.org/2001/xml-events" xmlns:xlink="http://www.w3.org/1999/xlink"><defs /><rect fill="white" height="110.2570556511262" width="130.81071513353191" x="0" y="0" /><path d="M105.81071513353191,74.66125945655004 m0.0,0.0 m-26.45506363197527,-8.737378373535028 l1.334757121885726,-4.080533359192627 4.040657551835488,0.2646073214321873 l0.9001246767777568,3.691695464521224 -1.0932495423860222,7.272497521770978 l2.8947900777079263,5.545120043911993 4.30896882026662,4.449610544720608 l5.2567588818723285,2.1901770309468227 -0.439677802202484,-4.051230180558866 l-9.21358421916536,-7.076999979376442 m-32.36512194482045,-25.13771797796141 l-1.3888009466839872,-5.2354494381268255 3.0609412851331856,-2.354284041824246 l-2.4625203672000904,-16.401374033278408 -2.3661742812074826,8.65951766465288 l5.25982952990369,7.464712778583428 5.9199650761630425,4.6207706412893845 l0.1738598709538977,1.8047428485308792 4.165652212158727,8.300745524036218 l-0.37965969572951147,1.6461208592559173 3.4142535764831417,4.042915161876647 l16.174835671980357,0.06824780575051351 -0.0030780055580365354,-6.722565300454149 m-44.993604953723576,13.148565482342383 l-2.4570657430614515,-4.924811339662158 8.092729976383712,-3.4604411527418804 l2.5053427118738223,2.1477327122431764 6.875010552897856,0.9279214946556058 l5.019645438813957,3.0046987067061584 8.938101884460137,0.7880453733051724 l-3.7371421006897143,-4.0981749312366045 m-41.79219681667985,-4.718968236062954 " fill="none" stroke="black" stroke-width="1" /></svg>