<?xml version="1.0" encoding="utf-8" ?>
<svg baseProfile="full" height="140.7868215123435" version="1.1" width="122.301635292355" xmlns="http://www.w3.org/2000/svg" xmlns:ev="http://www.w3.org/2001/xml-events" xmlns:xlink="http://www.w3.org/1999/xlink"><defs /><rect fill="white" height="140.7868215123435" width="122.301635292355" x="0" y="0" /><path d="M74.85261988502977,25 m0.0,0.0 m-0.6812587935221565,8.040677053065902 l8.588045355272302,4.983579873391688 7.318577549792545,3.296664963188021 l3.632371305103599,3.0422680916333222 -2.7474153783649884,3.591645995831637 l6.338695369043928,4.092464664681204 -3.505735546485388,1.9986402391757518 l1.162528441000698,5.803899826222382 -11.340801587619238,6.239900387060942 l-8.998953873662494,4.753557320429605 -0.5634868747554356,0.21132328603129968 l-0.48991012461577543,-6.5091749513704285 -7.68208084198732,-4.838387321023738 m2.4965251111272435,-6.927923265294981 l9.161043450675303,0.3165783696371724 6.234489784884241,0.016764599695696658 l-0.6393224164279144,5.841804118850602 3.748968678578566,-3.49256773309421 l-23.892375700816782,9.270547178449977 -2.0879679947292455,-2.756459230150337 l11.149973047799465,-7.354496026980399 1.0404006628066602,-4.1936577138815085 l-5.852420941830574,-4.164506159245118 -7.90982740104575,2.257928435642257 l-4.1967647444611975,5.250266734243696 12.086951766401013,2.9464330734973943 l0.5100475721226716,-2.3990910426665417 -9.094169470475672,-6.761092149683934 m-33.63874628883807,47.74965168775067 l5.4448889505508475,0.051187105004731545 6.165594900642306,-6.419793820578883 l-1.6646116059895977,2.502174896795242 -2.491218477649677,5.08153658828409 l1.138773941211605,11.363073978606446 -0.80310420438123,7.9014024591438154 " fill="none" stroke="black" stroke-width="1" /></svg>