<?xml version="1.0" encoding="utf-8" ?>
<svg baseProfile="full" height="120.29585087749254" version="1.1" width="161.67087878986982" xmlns="http://www.w3.org/2000/svg" xmlns:ev="http://www.w3.org/2001/xml-events" xmlns:xlink="http://www.w3.org/1999/xlink"><defs /><rect fill="white" height="120.29585087749254" width="161.67087878986982" x="0" y="0" /><path d="M55.85971775029978,81.36665915678694 m0.0,0.0 m18.06131773114567,-31.723579886223597 l8.380658007866213,17.452798435167338 0.4432428650084764,8.830792027994638 l-1.5062618899981917,8.130097652598993 6.723995032799667,-5.885106387973345 l6.52393249780121,-0.6695199995497575 5.984024419231813,2.8471503131943443 l8.021973112864913,-0.6428390297076993 4.463771899665588,0.5460531325211115 l-0.7835724242601856,2.0011595045947934 -6.944334625664428,2.5684666789063426 l3.577495226924877,6.57529392692848 14.253823010841508,1.4791442680962552 l1.5905917168198374,-5.325924987218432 -9.527032952928659,-8.70659965766535 m-8.313750635661657,-10.251137320008251 l0.9302974396974358,-6.8336471036621065 8.868366010919852,-7.311969204552251 l-13.300837909647253,29.996562420749314 8.977807039649347,10.851996936514771 l-2.494424331315479,-18.64246493889228 9.799579334606907,-25.449514040749257 l-5.664043670939301,-6.155486819444375 -11.044385426871198,-10.373313326920831 l-6.045827846431833,-4.704614321933256 -0.8103335157712002,3.0371951777350072 l15.323064970940692,-1.9437103760627927 8.05140722899737,0.7649485551747015 l-4.015587216776025,6.7471110181616485 -4.806389435768296,12.400860489435118 l5.364608127583657,5.938807165048612 20.727987248238716,3.347566217805306 l-1.5775614632652617,-3.808759702908211 m-72.13020309996291,1.2816239567231458 l-10.632656421814607,-8.202998551649092 -8.793100576421283,-1.6518703845904226 l1.4240845100396928,-5.297869694938293 3.8872294001844563,-5.220605181566633 l-10.346010278219666,-7.088730688034428 m-8.16162544920583,-5.274025429886204 l-1.9922217453486994,2.595062089067298 -3.3488136658557255,-1.4843673140668208 " fill="none" stroke="black" stroke-width="1" /></svg>