<?xml version="1.0" encoding="utf-8" ?>
<svg baseProfile="full" height="384.3368405301488" version="1.1" width="195.70533392442178" xmlns="http://www.w3.org/2000/svg" xmlns:ev="http://www.w3.org/2001/xml-events" xmlns:xlink="http://www.w3.org/1999/xlink"><defs /><rect fill="white" height="384.3368405301488" width="195.70533392442178" x="0" y="0" /><path d="M25,359.3368405301488 m0.0,0.0 m19.406073660669946,-5.92310967814807 l29.073234746342873,-48.52966993551814 17.934933761500407,26.185313733427076 l18.340768119890146,-83.25769530039892 -10.621391628363295,2.909935341503425 l-1.2903844257474555,-1.3195894593222173 -6.399166998752229,2.4171009802678425 m-2.203708523187613,-9.417134130694334 l-5.777188458636289,-8.405563512588389 2.983806271189339,10.028870016066303 l11.147111882178239,17.055656221240284 8.809674384100148,2.8719764343391105 l11.712537182706484,0.5342528570475155 10.696115278432284,4.600865692687856 l12.338431407046599,0.7705504791466755 9.982546331679986,1.1181826199724343 l6.143416929513347,3.7898041333010473 0.4314391907046006,3.7720498716669084 l-1.032252207153681,-0.7285475604752406 -9.721351045437943,-6.690382734415172 l-2.7838342998302346,-8.465186981508143 -8.963242806225585,-5.566966047726822 l-0.988988596950191,-4.147950812704943 m8.994018850178671,-44.43383683075071 l-5.675533681720124,2.544305341922868 -1.1307332521771563,1.7114476949720352 l4.75121589518785,-0.8731555406327252 6.99549288362024,-11.276297532324824 l4.332902024523865,-2.188542466466689 5.902931830399975,6.1777045406465545 l9.127148212733042,4.291227682165065 3.18931100600555,6.869124718664394 l-24.81241465351751,13.940698096088173 -7.927230738045488,-111.31737916947971 l9.435089362707997,-93.38489929211931 " fill="none" stroke="black" stroke-width="1" /></svg>