<?xml version="1.0" encoding="utf-8" ?>
<svg baseProfile="full" height="156.78491724990985" version="1.1" width="125.51245980943659" xmlns="http://www.w3.org/2000/svg" xmlns:ev="http://www.w3.org/2001/xml-events" xmlns:xlink="http://www.w3.org/1999/xlink"><defs /><rect fill="white" height="156.78491724990985" width="125.51245980943659" x="0" y="0" /><path d="M100.51245980943659,88.01162330617208 m0.0,0.0 m-41.07031378034929,-52.55047406839009 l7.853966289113073,-6.248891436526251 11.81088108261519,-4.2122578012557454 l5.132768659359794,13.326703611480827 1.3726749968706466,10.487988114678464 l-1.0251857123496966,3.19445441853858 3.5319563463546264,11.13122324798542 l-7.0945434020858045,10.097659679744039 -3.751023523787129,5.363553440954092 l-4.308712064740903,-5.439945349124453 -6.568378177949544,-0.6590831368408295 l-5.89066726366164,-0.5743982446260429 -8.49134771913928,6.569152411802907 l4.797157678726565,0.9311674642159091 -3.6787504056619227,1.9510042058551154 l-9.012664868164583,2.5557414533365876 0.03933477064229748,2.764265501537825 l9.956700922508173,6.0939760175082025 -1.0390271622846874,-3.503356202041217 l-6.554272195359204,-8.613114542232939 m-15.304385968499737,-23.347131627990887 m-6.21862831159354,-9.131226004410777 l7.525042945364424,7.968144054135795 9.226171545995795,7.33950426377971 l-4.761002167861543,3.9926761899975003 -1.247477433159472,8.003109402019929 l15.393330800413704,3.8570733897455733 12.591770685712495,-8.700388153611472 l7.7512226489331555,5.363641152856591 -10.301642161692245,2.92173846958935 l-1.9637337101971368,4.115062356257422 -6.321455692090657,1.2944322968436361 l3.334129812142604,1.14205024801225 m18.81420402942295,44.171961074824964 l1.7914617385875842,2.1172780450877995 " fill="none" stroke="black" stroke-width="1" /></svg>