<?xml version="1.0" encoding="utf-8" ?>
<svg baseProfile="full" height="140.65969339046552" version="1.1" width="112.24450642550751" xmlns="http://www.w3.org/2000/svg" xmlns:ev="http://www.w3.org/2001/xml-events" xmlns:xlink="http://www.w3.org/1999/xlink"><defs /><rect fill="white" height="140.65969339046552" width="112.24450642550751" x="0" y="0" /><path d="M49.58907192940741,25 m0.0,0.0 m19.919133772746324,32.73422292465746 l0.33292635119790676,0.3206349077404558 5.921498931549733,-2.3180628479044576 l1.6024565534850244,4.0782241186084045 -1.2944114318786373,6.665021492260045 l-2.8158005422703636,10.66044921832277 -5.310412357193813,1.6620319920279238 l6.9488997613482635,-1.8146931458097297 9.666980611038586,-2.1810694806610886 l0.3047016795910719,0.4066956915086577 -14.408430581686126,30.65492801346304 l6.509485006255346,8.466894242867093 10.278406741916783,-0.022793831776460743 l-0.2691944521907619,1.3472100951613821 -1.2138121607248613,-5.3054467921921615 l-7.359002154297662,-3.1309042166966283 m-18.057930067940326,-35.77047634457113 l6.055105311619706,-8.343864438153593 3.723251562324742,5.67317317051574 l-4.979023976441668,6.616789591921117 -6.649392319969599,3.6352482143577585 l-1.9375225324862566,-4.876289957160853 3.260532609193403,-14.257503805530206 l-1.1779729140712538,-7.332861023311211 -1.0501593272913483,-2.0930038377506746 m-17.574505068933547,23.618971057231093 l4.739890610791754,-1.7260190771878992 5.77811768567687,6.017046017350448 l-5.673752308465432,1.1644887415355847 -6.2868359654714885,12.40465831902171 l-6.360760442913784,-2.255708017075166 -5.566381623296908,-5.615572909061541 l-1.6451588906190873,-4.396434680213057 5.596771523727889,-1.0466512444659137 l5.304719669390887,9.289618444212865 -1.0287471552182408,6.253941726405371 l8.357311631354593,4.848044491331753 -2.582740707973239,2.224408250786244 l-3.5928983360017273,4.918855344727306 -6.00388029764045,1.3354957609667095 l-5.296684273460761,-1.7451384138057597 1.5956792335211378,-8.398153852498167 " fill="none" stroke="black" stroke-width="1" /></svg>