<?xml version="1.0" encoding="utf-8"?>
<!-- Generator: Adobe Illustrator 24.0.0, SVG Export Plug-In . SVG Version: 6.00 Build 0)  -->
<svg version="1.1" id="Layer_1" xmlns:ev="http://www.w3.org/2001/xml-events"
	 xmlns="http://www.w3.org/2000/svg" xmlns:xlink="http://www.w3.org/1999/xlink" x="0px" y="0px" viewBox="0 0 53.3 96.5"
	 style="enable-background:new 0 0 53.3 96.5;" xml:space="preserve">
<style type="text/css">
	.st0{fill:none;stroke:#000000;stroke-width:0.8575;}
</style>
<path class="st0" d="M4.1,16.5c4.3,3,7.2,8,9.4,14c0.7,2,2.9,2.5,5.1,3c0.7,0.2,1.2,1.5,2.2,2c0.7,0.4,2.2,0.8,2.9,1
	c3.2,1,2.3,8.4,5.1,10c0.7,0.4,1.3,0.5,1.5,1c1.7,5.5-4.9,17.4,0.5,17.7c1.8,0.1-1.5-0.1,0,0c2.2,0.1,4.3-3.6,4.7-6.7
	c0.1-1-1.8-2.7-2.2-4c-1.1-3.7,6-5.7,4.7-10.3c-0.8-2.7-4.5-4.6-6.1-2.8c-3.4,3.9-3.2,10.9-5.2,16c-0.8,2,0.6,4.1,1.5,6
	c4,9.4,15,14.1,14.3,25c-0.1,1.9,0.6-4.3,0,0c-0.3,2.6-3.4,4.4-5.5,3c-2.4-1.6-7-4.8-5.9-9c7.2-26.1,12.5-53,19.2-78.7"/>
</svg>
