<?xml version="1.0" encoding="utf-8" ?>
<svg baseProfile="full" height="239.45420806289755" version="1.1" width="152.69799954962042" xmlns="http://www.w3.org/2000/svg" xmlns:ev="http://www.w3.org/2001/xml-events" xmlns:xlink="http://www.w3.org/1999/xlink"><defs /><rect fill="white" height="239.45420806289755" width="152.69799954962042" x="0" y="0" /><path d="M25,214.45420806289755 m0.0,0.0 m15.665480768252964,-7.168128947344147 m14.230831964424647,-22.47927405315301 l4.9047671430374224,-4.9615767805774675 4.667502911569541,0.8513233381078278 l14.22552875573429,2.985779878520399 m-1.9993576531630057,-88.4870884387631 l6.2649598286860435,2.190921634303408 -1.3345328831139693,1.3284745366878197 l-0.6999525192741263,1.1836139945471331 4.948133013856462,-4.631300953552288 l4.2571377088802995,-2.251363245139345 3.974807798369641,-9.703413087997385 l13.225074532639404,-9.033701158896356 8.081510592336182,2.2355548416467657 l7.312710598123551,6.869209409787987 -4.006571340873412,-3.4068713721046318 l-1.0379159893095213,6.317501781234973 3.052381946596804,2.3485827858000854 l1.9680347908916602,4.515126868501016 -5.266606942309768,6.673141156069662 l-7.096990577654336,0.5782814569438016 -2.8160631165446746,-2.772228002185105 l3.021549553307176,-9.726914014420679 8.846854071314896,2.7944484759571195 l4.835989117880503,-1.5511519779017735 -7.389241055661024,-5.197174120070318 l-8.342607136767667,-11.662363010829974 -1.3909722035497434,-12.324802280639778 l-6.082895776791817,-5.046670473137535 2.129389456582551,-7.061322792199972 l4.170787579134611,-6.242064514127133 1.3789771308396614,-2.1209648993980976 l0.6198345734888119,-8.713943915643432 -2.1647056009605112,-5.779630615890401 l3.087101060410482,-0.004219567033652005 5.141099279024549,3.3014938897199153 l9.783192170688384,5.603426294569933 2.5327759995234698,8.811722219079398 " fill="none" stroke="black" stroke-width="1" /></svg>