<?xml version="1.0" encoding="utf-8" ?>
<svg baseProfile="full" height="189.50580016578795" version="1.1" width="89.94174265430178" xmlns="http://www.w3.org/2000/svg" xmlns:ev="http://www.w3.org/2001/xml-events" xmlns:xlink="http://www.w3.org/1999/xlink"><defs /><rect fill="white" height="189.50580016578795" width="89.94174265430178" x="0" y="0" /><path d="M43.052138868088335,89.85306915531456 m0.0,0.0 m2.2383361810919378,41.78270257543424 l3.068326851907651,3.481244404809618 -9.144238992268708,-1.395012184719162 l1.3519103471995966,-0.3399728629877306 14.93426481893827,0.4555225368020177 l4.024889523753605,-1.6118869778757987 -7.922215512133855,1.114165168760611 l13.208384796705936,3.6090597849100003 -1.1083724050048727,1.6595273503660317 l-12.667985544322539,-4.747927865485115 -9.71196250910507,-0.9391641313691312 l-4.747176339405679,-0.36413556516639856 0.3914865188984587,-3.8514271262312136 l5.907873467114208,-1.3585794797709083 15.2988414581741,4.415941678451315 l-6.122371144348422,-2.930305549802137 -6.164373923546438,6.121521869009466 l-6.214748770897713,2.4727756055635806 -0.24915595115626424,7.903310000125874 l2.138105884750995,1.2604333745470597 11.178900288062628,9.71373561831362 l-5.190760746623143,8.201202786787562 -11.074880561395139,-14.564350904523144 l-11.475216604477877,6.98654231717234 m23.42783977637179,-12.598658704547363 l-0.3509356097632702,0.16602875246665733 7.9389842468023915,-7.008515406700037 l-4.280894378305935,1.0910184673255825 0.576610579270438,4.873976913503302 l-2.307219213612565,4.804460543732739 2.2178619417309156,5.042936772145095 l12.71949531180801,0.7096731558029103 -0.1748500331489563,-6.080604309456426 m-12.6387707103396,-122.92830776270962 l1.2126850272299194,10.645895990575575 " fill="none" stroke="black" stroke-width="1" /></svg>