<?xml version="1.0" encoding="utf-8" ?>
<svg baseProfile="full" height="151.92899396294868" version="1.1" width="136.37419614209915" xmlns="http://www.w3.org/2000/svg" xmlns:ev="http://www.w3.org/2001/xml-events" xmlns:xlink="http://www.w3.org/1999/xlink"><defs /><rect fill="white" height="151.92899396294868" width="136.37419614209915" x="0" y="0" /><path d="M25,94.09131111563815 m0.0,0.0 m13.684419006974577,-5.388399249792785 l11.537259634955383,-5.172789688609019 m-18.690437344699035,43.39887178571234 l3.374589787778374,-0.5376324129718609 13.231763172055043,-4.406299326565955 l5.124606656320934,-29.995579480612328 7.9631394409817,4.783518279257562 l5.817300511242954,-1.9048260987825505 13.90245593675188,2.310826711161712 l5.116237925928032,0.2675085032963236 0.060838536616821814,2.0207493540548063 l-6.219538148029275,5.55208069217064 4.973297206534586,-7.979061455243035 l-2.1037650957542837,-6.521723878022622 4.321615925140741,-14.734593586154974 l-13.4849049361268,-8.347996794350193 m31.02740162927648,-14.429694215779755 l4.620919525341532,-3.177179368792026 -0.26297158245473495,0.4763723328220462 l-6.280936801049819,1.9650884631202987 -6.123756826038954,2.6921244564034597 l0.6937806951765559,5.210739778843769 12.115117653906632,1.2876198769085478 l1.9757636312698217,-6.621887928399756 -7.6965677267034875,-9.621890262766616 m-39.16957530479847,-0.6942167588865455 l-3.87972287250408,-5.247765564700737 -5.0601569585410395,-3.463464135565562 l-0.9011678410544334,-0.6797554017616068 -3.3604972507812847,0.16671982917320097 l0.8566586344257565,0.9929415974130201 -3.6996281430363425,-11.291717168217945 l2.189518591502052,17.245171525864336 0.42573216574180006,-2.0316809916753207 l0.7350059572276915,-0.4633811121462855 -6.863217282054994,-2.207375323103589 l5.70766003238282,-2.912484286091862 3.6596411809597367,-3.686309583798746 l0.0014217376838056989,6.341856660553105 -3.902423186310293,5.965566903864283 l-3.3165822677155896,3.824131197033774 -1.8609173801476053,6.8948974340416935 " fill="none" stroke="black" stroke-width="1" /></svg>