<?xml version="1.0" encoding="utf-8" ?>
<svg baseProfile="full" height="257.74249090285434" version="1.1" width="121.04726664213973" xmlns="http://www.w3.org/2000/svg" xmlns:ev="http://www.w3.org/2001/xml-events" xmlns:xlink="http://www.w3.org/1999/xlink"><defs /><rect fill="white" height="257.74249090285434" width="121.04726664213973" x="0" y="0" /><path d="M73.56681046853848,25 m0.0,0.0 m-1.45602294363387,12.743912233104751 m-12.843095361996445,6.892799092071559 l-22.933467096959046,0.8115122447242995 m-11.334225065949122,-14.146380216032155 m13.451420667270874,72.36333924455032 l19.06140481091952,85.15334267005208 -3.3945570022976588,43.86853275702444 l10.703623452396286,0.0554328773590144 -3.294976267091314,-50.996560169088156 l12.492376404348061,7.622682923194814 18.497223516014166,-0.38657125117787444 l3.5307510605797954,-5.631001260297048 m-25.71245696165807,-101.89408523911116 l2.55628708962107,4.784459861899681 -3.9021704497229623,4.628121917523371 l-6.469177759845246,5.6380814244209905 -7.353580930727103,2.638321571965523 l-3.9812822538761385,2.192987184091666 -4.678455580222831,-1.6137210527207024 l-4.199258533487668,-6.982740245503016 -1.070132997995596,-11.264643487992924 l1.2084025998904915,-14.669668498210957 1.9821565081678054,-5.165261570411618 l4.175434100125193,-2.0703888865931086 7.433860968073143,-0.25619705265036863 l4.73564658407706,5.873585160422648 -1.9666926768908788,6.3174137107099515 l-3.2751199998367424,6.956938554725007 -1.2289481800593671,6.174978276290079 l-1.5499836353464882,10.186691843413316 6.611554745121791,7.547864964020331 l3.307817509251203,6.474148987695193 " fill="none" stroke="black" stroke-width="1" /></svg>