<?xml version="1.0" encoding="utf-8" ?>
<svg baseProfile="full" height="398.38020098643347" version="1.1" width="177.80116040923775" xmlns="http://www.w3.org/2000/svg" xmlns:ev="http://www.w3.org/2001/xml-events" xmlns:xlink="http://www.w3.org/1999/xlink"><defs /><rect fill="white" height="398.38020098643347" width="177.80116040923775" x="0" y="0" /><path d="M117.39777778093905,309.4559751917741 m0.0,0.0 m5.5096297398247,-1.2139430086172347 l18.75215233904773,-9.613399170435866 11.141600549426292,29.176390479695186 l-23.072362428457243,15.596497234796574 -27.46173858342257,11.423940297274894 l-39.50640772370715,8.060292945580786 -32.6759640302217,4.864060372105606 l-5.084687643429115,2.077447189936955 11.036879674893768,3.5529394543224844 l33.15450853259394,-35.16925479233716 15.625373200072527,-40.283062929113 l8.544674920112724,-20.813619729199843 1.0851133408953895,-8.989118706176487 l3.942016269206497,-7.873833763470972 5.646550171477929,-9.114162675890936 l6.247661171482659,-5.475722885621628 -0.12273219218388656,-8.86728519949717 l-3.037465265473503,-5.216144018605231 -3.6893303292205712,-2.5260147188101323 l-9.136701476494494,-7.400320668886001 -6.6512005916795145,-3.125946742455458 l-2.2902409496950025,-6.2007617775219686 10.254956245815956,10.57106088866122 l-10.340491451637718,12.766510240571574 6.75240952885004,7.950630212378321 l20.820226924485493,-3.2294628226906363 5.9809449074437016,-10.745079956446872 l3.033774688850988,-11.591687888020786 1.583324485510394,-17.18389661096482 l-0.45495426110521764,-3.1514792601980792 -8.50661156418146,2.941877938069547 l-14.414663424072907,9.005064218018468 -17.771504738551897,13.822787942197131 m-19.461888489121062,-198.48127728042257 l12.159599118161658,7.920607866361473 " fill="none" stroke="black" stroke-width="1" /></svg>