<?xml version="1.0" encoding="utf-8" ?>
<svg baseProfile="full" height="210.90284920708268" version="1.1" width="132.11963061182348" xmlns="http://www.w3.org/2000/svg" xmlns:ev="http://www.w3.org/2001/xml-events" xmlns:xlink="http://www.w3.org/1999/xlink"><defs /><rect fill="white" height="210.90284920708268" width="132.11963061182348" x="0" y="0" /><path d="M40.73466151963695,27.70060162138261 m0.0,0.0 m-15.734661519636953,2.825680009504321 l6.806681094200517,-5.526281630886933 8.409466321631585,16.681572250326006 l6.7362140700457225,5.9601899307486805 1.6176112682083534,8.79311405757924 l6.4145888559256345,9.1261157580144 -2.258010697708076,5.03012694237311 l1.4738645249102067,14.851800602577457 4.249081201408478,6.24556600298948 l16.56518949605176,9.727612350901374 1.4197006854475973,-1.6510419684955924 l3.663615260681328,1.9033001561542466 1.992378873929057,-3.1495977413399734 l5.631025932246994,-1.518089585685302 11.590778345028157,-3.6268428494710614 l5.543631527268505,1.1882481562313278 2.2638138525476665,-1.5158739470138334 l-7.447934612474614,-4.2287516634456805 -9.886391625405778,-1.1462779024515324 l-5.226721776642458,9.032116985405167 8.263926792113297,3.0073005740500607 l2.31084255517614,0.20297463064662347 -10.852161805356214,-0.19746221342187195 l-4.625135763747702,3.6998943250611998 6.764562921752268,5.6855772934412485 l16.10574293032978,2.3394180498497352 -2.244484671457766,0.05192474190582108 m-18.00613958527112,52.124169292611136 l2.7539708626551342,4.458553393282759 2.3429336874935824,4.320271748496801 l-0.6891075649562397,3.4606253299608873 0.940493883051405,-0.6908808941575567 l-4.873298144386366,-0.3425443218763177 -4.044036454518028,4.9222604030417365 l8.66714069417652,6.157479318792905 " fill="none" stroke="black" stroke-width="1" /></svg>