<?xml version="1.0" encoding="utf-8" ?>
<svg baseProfile="full" height="108.95889960456998" version="1.1" width="95.39583904753758" xmlns="http://www.w3.org/2000/svg" xmlns:ev="http://www.w3.org/2001/xml-events" xmlns:xlink="http://www.w3.org/1999/xlink"><defs /><rect fill="white" height="108.95889960456998" width="95.39583904753758" x="0" y="0" /><path d="M67.73273933858943,65.49462962802869 m0.0,0.0 m-34.18583169526392,-33.8538803600041 l8.809985255344403,-6.6407492680245825 10.169976723183701,4.298137311870473 l1.8739311027780563,4.122562071371918 -5.797174828405105,3.8182243592905865 l-3.167287346190134,5.733762804923615 22.749762643268035,20.59441123529549 l2.2097378542331128,-4.971215003169964 -12.383578682752342,3.4359409014972564 l-10.36472731699185,7.5984395236470625 5.065539033346189,11.569947854705362 l1.642908862552095,2.0457429019698368 -6.90678749704796,-2.996068670416874 l-13.897388816084337,-0.40553432594295713 -2.3180192506490855,-1.4200563249135738 l6.740072997537401,-2.129891778913276 14.62892076841323,-3.905222040740708 l-5.826193670656652,-8.946014705047931 -14.009307663198665,-0.4110874709640744 l-6.570188942667384,-0.7130931800296447 5.715935499695395,13.765618935587828 l-4.227955049342405,2.834653690215217 -2.6850693196912143,0.10225546168927124 l5.883448137290735,3.8606757440400505 10.544098321461849,1.076710308605024 l-0.6719789201733141,-4.70429228991702 m-6.931643291557492,-43.17693594855706 l0.21303798169314692,1.98440701892175 4.8512958956352055,-4.7001475524522585 l3.9584356854085128,-6.704784156263389 5.155477641495146,3.009064470836008 l-0.4131836278869961,3.778401560492435 1.7154440772137962,5.246269057844583 l10.28422829949021,9.541746320121089 1.9189842310998202,8.039249397881424 " fill="none" stroke="black" stroke-width="1" /></svg>