<?xml version="1.0" encoding="utf-8" ?>
<svg baseProfile="full" height="141.4610496045517" version="1.1" width="87.25586099219326" xmlns="http://www.w3.org/2000/svg" xmlns:ev="http://www.w3.org/2001/xml-events" xmlns:xlink="http://www.w3.org/1999/xlink"><defs /><rect fill="white" height="141.4610496045517" width="87.25586099219326" x="0" y="0" /><path d="M41.214027271012526,116.4610496045517 m0.0,0.0 m-6.591133212514939,-91.4610496045517 l5.61010767326811,3.615271337376052 -6.108334419608057,14.885373679989897 l9.164863799186035,5.81881403551159 7.84275592617807,3.2507980926075506 l2.916206045462083,0.6633906275762447 -1.0086794673833712,0.9723726820303402 m-28.039813615600455,-16.968741895712693 l6.0540928794534175,-9.573505042223587 5.76535751359162,-1.9972118486445016 l-0.8760734982731222,5.517048728562598 3.3107983561767527,4.139937647062172 l-2.0877047460792135,9.32212824427872 7.952867412760992,3.9119900528328957 l9.859127494276944,-3.277974561649369 0.9072689764443262,0.45527834219560387 l-13.246284298600504,-0.3883560101628157 -4.874659076322471,0.2521761788555353 l-1.8664240384050492,1.7928752512991568 17.474727965363684,0.9834616066267966 l3.088674918519594,-0.8527393557958836 -1.766042259896372,-0.5029974059500932 l-10.04251769839882,3.480277894310309 -0.9933770118084303,-0.9315153617331886 l9.204236559735511,-1.971654973901163 -1.3247502738735286,-5.6720559881535575 l-1.5670619687982448,-5.323120451751076 -9.67710621789417,2.5332101153208475 l-4.171334683072843,7.999007991289246 1.1872666196086794,6.614690594791366 l10.862674896396829,2.324207663040057 4.508717373369233,9.548186694623558 l0.9061122874304018,5.872415834903372 0.5865950594602178,11.35792280226974 l1.8797896766123567,4.46195803653684 -4.888538897532024,1.1182613658067257 l-4.352015693034865,4.31964935145604 -0.6241758839131276,9.604127201835224 l-3.8043135945005138,4.574568745091588 -2.4376228956721344,-1.7150988760954804 l-4.7941950792266255,5.506167691451351 m27.101750818294764,4.778673798572536 " fill="none" stroke="black" stroke-width="1" /></svg>