<?xml version="1.0" encoding="utf-8" ?>
<svg baseProfile="full" height="180.0167627371946" version="1.1" width="97.00251899909847" xmlns="http://www.w3.org/2000/svg" xmlns:ev="http://www.w3.org/2001/xml-events" xmlns:xlink="http://www.w3.org/1999/xlink"><defs /><rect fill="white" height="180.0167627371946" width="97.00251899909847" x="0" y="0" /><path d="M43.351823829541864,146.48729278458367 m0.0,0.0 m7.622708375046829,-0.182866384014857 l4.519970648343765,-21.13530280446043 -3.7510206317336627,-9.852405633223414 l1.2095105788946978,-32.610492122904134 8.655058825679612,-0.6513326246525752 l-2.119281161078822,-57.054893215328256 -2.284746151140372,4.392503262444111 l4.081388646203597,0.6019672376779437 3.586832755730816,6.130851382654382 l-1.4109863540173602,8.827879660048485 -4.253762860126223,6.199496141353632 l0.7781579799782158,4.607288046328862 8.346827164964173,8.789044675447922 l-1.1980588154061522,3.7541099791793 -3.5536272352808584,7.49281424261362 l-2.387563965946123,5.686957943665905 -2.918290655918719,7.942365739086969 l-5.796343533059814,-0.13939598369232142 -0.788804683626228,-8.274545513008048 l-3.0196656039160668,-7.071117774153195 -3.9959291870963196,-8.033059214981524 l-10.092914473077405,-3.935834255456659 1.4200137745563923,-1.1423004340064398 l6.06315850725045,-1.7917741820752908 -0.9780424987405101,8.33095783982575 l-2.110767055100923,-0.03232339040393328 2.9850576638483206,10.222243666532133 l-0.281678390490937,17.378643574469965 3.273229157274482,7.290931918764529 l11.251814818217246,8.204240629265465 9.218902948137286,1.9939696074982383 l0.6661232677974671,-4.535452795514425 5.913423313389757,4.727302336278233 m-1.3464881973310672,25.916346828155586 l-5.952246292588073,11.488532181500007 -10.13244004118149,4.9941193876954015 l-20.44397205385095,-17.054929306969434 m-9.127372414146894,-95.58828997090221 " fill="none" stroke="black" stroke-width="1" /></svg>