<?xml version="1.0" encoding="utf-8" ?>
<svg baseProfile="full" height="178.8324619369836" version="1.1" width="151.72579239335715" xmlns="http://www.w3.org/2000/svg" xmlns:ev="http://www.w3.org/2001/xml-events" xmlns:xlink="http://www.w3.org/1999/xlink"><defs /><rect fill="white" height="178.8324619369836" width="151.72579239335715" x="0" y="0" /><path d="M116.6416537120388,150.934766241175 m0.0,0.0 m-15.552205296849241,-12.658003784442776 l6.8017356172209436,-6.942592282067017 8.17096110289667,-10.028703236687399 l3.4831254743074678,1.631696730104432 4.281980008923903,14.308762490888753 l2.8985417748185953,-0.8662437364411207 -2.3887746623972785,8.191531439988623 l-6.5068554439710065,-0.5632658466602114 -7.935327942667767,9.824513921125304 l1.9950132542117354,-3.4395546763925733 0.5789612657307791,-1.7363605764673529 l-0.2689302572327003,2.495398470102639 -0.12328986368142415,1.8935544997443923 l3.1592454032556576,-2.5452974645411333 m-21.42209721741825,-39.36718539635253 l4.773436278571973,3.4399373996515195 -3.458611290136951,-0.16454494631184868 l-3.099176106800046,-18.65063296536949 -11.381291863670878,-7.395647387187991 l-4.51417140307562,-6.243316690016598 -6.429105589113804,1.1787787102126068 l3.148457636079052,4.109044902820867 8.869473489826909,-0.3481126756097437 l4.228634136839659,-0.8639643520714232 -4.781774728794546,-2.7298578786728744 m-28.98430193761781,-47.37614061312543 l1.6530853777428758,-8.294398453909336 3.935713901879092,1.7638231904862627 l-5.269201316004557,4.124387903468959 -0.7852570985287273,8.96410069527282 l15.228859781820798,5.814819855284432 7.1999091062756175,3.1817024344243374 l-0.37993704353392194,-4.808083444962852 m-45.94008419593454,-8.701410101473451 l-2.828394065011468,-1.4860126204939308 9.488836109706376,-7.0979679281334755 l4.4707605549568905,-4.549521827360407 7.740520944233935,1.7476941553967043 l7.539861310841573,8.231290641314903 -5.033434149466306,9.100574654209748 l4.532601800172813,6.309626254386083 4.182918088716537,-3.780202787563321 " fill="none" stroke="black" stroke-width="1" /></svg>