<?xml version="1.0" encoding="utf-8" ?>
<svg baseProfile="full" height="180.9962941818034" version="1.1" width="133.92564059887877" xmlns="http://www.w3.org/2000/svg" xmlns:ev="http://www.w3.org/2001/xml-events" xmlns:xlink="http://www.w3.org/1999/xlink"><defs /><rect fill="white" height="180.9962941818034" width="133.92564059887877" x="0" y="0" /><path d="M84.52955484488061,25 m0.0,0.0 m10.208991571013836,9.381252228821898 l14.18709418298433,57.99552299267802 -6.066728056866664,20.815063456394096 m-21.193043324913305,-31.32356374057317 l1.6844311551993036,6.608050249762487 3.200216339485108,10.95058737275982 m-6.907878106677098,17.51598381444735 l-4.950669924527665,-0.3614614239465852 -17.275375508460133,-3.2751057779399617 l-19.959256944959453,-7.525950453198448 -5.504172563609157,-7.820041923341457 l0.31144120446034596,-12.242138928864403 7.604276074432349,-15.159331202441052 l-11.499017054196404,0.5824966130572551 8.354746865505517,9.157067769936837 l4.010439922676429,27.44595566932621 9.447373440654514,17.255424101543436 l7.372745459111602,3.128879569949168 6.330377427016869,-2.0650952357025036 l-2.176035156466467,-6.170232919298941 3.12739934554811,2.240512434894617 l-4.315535435202771,-1.3369263293579292 -8.935169528109459,-10.932417498838065 l-2.6165573318807747,-3.3886712319603607 -6.228315000234111,-9.562867907083495 l10.029487232875427,-9.450946500183278 8.967547503792366,1.55680734482051 l15.136845409456251,5.590638734600561 -2.033474594300232,8.356492128411345 l-10.809657842695746,21.46865916316237 -0.40770584954592515,2.2374149191165094 l-10.59025467829566,2.328215170875832 -3.3636837131632613,17.811715844441796 l-9.060167827856786,6.5083749178860755 -15.610269537131884,2.6759307576468605 " fill="none" stroke="black" stroke-width="1" /></svg>