<?xml version="1.0" encoding="utf-8" ?>
<svg baseProfile="full" height="190.82081006141996" version="1.1" width="132.8992485253379" xmlns="http://www.w3.org/2000/svg" xmlns:ev="http://www.w3.org/2001/xml-events" xmlns:xlink="http://www.w3.org/1999/xlink"><defs /><rect fill="white" height="190.82081006141996" width="132.8992485253379" x="0" y="0" /><path d="M107.89924852533788,165.82081006141996 m0.0,0.0 m-35.89279101421026,-13.711829077234393 l3.712105686023385,-8.380818097404468 19.995493208896573,-31.22579511016993 l-6.29432495334175,11.38191542677697 7.521625355325706,9.0281005245341 l1.4628861715784336,1.3786994534543768 -21.21726663089527,-6.5573707657866285 l-2.65305629343914,-18.431241826048307 9.150363828098028,-36.493627887340224 l-3.5997240679848157,-2.4913066632369074 0.8659249075387543,13.478100575153663 l2.940632622016923,2.4346482584923987 -16.878188905621588,-9.646016631302295 l-4.161936997025144,-9.722632321978907 -2.3105522297260053,-21.053589054193267 l-4.152103152050912,-11.808521616451703 -0.21954894957418264,-5.993082969365009 l10.689188200249108,-2.705489532920199 8.630241033626117,-0.3009527463991893 l5.249263583394526,1.1366179841699116 -8.25500137948113,25.7341411863849 l1.806107274130202,4.800789681200506 -4.803627986285869,7.754487084212604 l-6.738534804521002,3.872057844594693 -9.12390657069221,-0.5350227645999894 l-0.9465220798381141,-5.245684167845972 3.0038904638890784,-7.640146164790639 l-2.120330586026876,-7.319957687990222 -7.157848133047053,-5.095244409704884 l-6.630665984649179,0.062346349979238436 -2.4721856304411767,-0.9580025442497236 l7.719675680569448,-3.640363841812082 1.4041212849223177,0.34422561240533234 l-13.44089165310809,0.9413012970122844 -7.981759823636703,-3.4197958226629526 " fill="none" stroke="black" stroke-width="1" /></svg>