<?xml version="1.0" encoding="utf-8" ?>
<svg baseProfile="full" height="256.08969756748803" version="1.1" width="110.40077751085059" xmlns="http://www.w3.org/2000/svg" xmlns:ev="http://www.w3.org/2001/xml-events" xmlns:xlink="http://www.w3.org/1999/xlink"><defs /><rect fill="white" height="256.08969756748803" width="110.40077751085059" x="0" y="0" /><path d="M57.69914832129665,45.842354321853826 m0.0,0.0 m-1.377005730414156,0.9601060614431101 m5.732832336738758,6.381170636512183 l-37.054974927621245,-10.545237913942666 m13.549119489695963,-17.638393105866452 m-2.0491432260892837,22.201256589072578 l-4.6585523080653894,50.83798628468561 11.434645113009545,57.13794377194792 l5.528725070080953,-6.929544093488373 7.238127577018621,-0.16279370560085746 l-4.041221420213796,1.00747773144851 4.374101141737925,-11.056522322113196 l2.2055449099165636,-12.091341084049967 1.9698142243715002,-18.323429535099923 l4.130449840254083,0.2919342972890976 5.45559636829783,1.1362561783114955 l3.4352427137399713,9.584160317504804 0.10136816168540563,29.58670905375121 l2.760297145853999,25.086571734941938 1.620697178102059,12.879104403281165 l5.788319723784033,14.834078703179367 1.5576458076706134,7.649824444441597 l-22.733816659300693,-80.43613303058564 4.1797655798521065,10.527596805979275 l0.8888591399324197,15.10218920006592 -2.583512527721327,15.358537109532238 l-7.8893040388997155,18.817608044771028 -2.447580529397043,10.594983449587378 l3.7778290248458677,11.04673254785776 1.5685487437360157,6.717578329021037 l1.7590865658832622,5.00575613854133 2.4620608453044546,3.7812797878523985 l-0.35769504591971524,5.903896415362358 " fill="none" stroke="black" stroke-width="1" /></svg>