<?xml version="1.0" encoding="utf-8" ?>
<svg baseProfile="full" height="148.14152167065004" version="1.1" width="119.23815887507381" xmlns="http://www.w3.org/2000/svg" xmlns:ev="http://www.w3.org/2001/xml-events" xmlns:xlink="http://www.w3.org/1999/xlink"><defs /><rect fill="white" height="148.14152167065004" width="119.23815887507381" x="0" y="0" /><path d="M72.73255925889103,109.22030824992703 m0.0,0.0 m1.4269950370190143,-14.439055333693283 l14.276545680428757,4.5528778011241196 4.434071685475896,1.1986623932805418 l1.3679872132591049,18.729986769620435 -5.949347635654328,3.8787417903911807 l-12.779828400730224,-0.3323907066271381 m-13.125299687542169,-8.162521166312052 l-4.5790851624832225,-4.417000300152176 4.696901409265441,-10.782277392683275 l-10.806707007296813,-11.38246409559723 15.884236437188891,-13.6814154201385 l-4.565530179572213,4.269988669523908 11.619339077531166,15.856657682275323 l-5.076443750235287,9.20423009649371 -7.427802262211063,-11.909952029298339 l-8.598335487878103,-9.811590274803919 -4.0192284419593,-4.9812601400546574 l4.988914089582752,0.16537357219477744 1.6864023628642828,-1.5208887287001196 l-3.621847819110735,-1.3129449581330472 2.357439761911504,-1.5143788301117318 l13.295792690743488,-3.3438430409022715 4.183895997999407,11.03914563626601 l-23.904012668987225,3.991185796376474 -14.944913202965395,3.0075847219449416 l-3.678053407921819,9.524969304830535 5.6902884686609,4.534765224772027 l9.019455174400326,-3.130755299868596 -5.6666604726252405,-7.122696800943784 m-9.521289774001952,-66.32904319100089 l2.0134126079423584,5.6070807591445275 1.6886899708113312,5.721837183638387 l-1.902436075336599,11.385838639888075 1.9551215879569783,9.943558457899947 l-8.151227075420964,6.5986550879703865 " fill="none" stroke="black" stroke-width="1" /></svg>