<?xml version="1.0" encoding="utf-8" ?>
<svg baseProfile="full" height="121.54964042751021" version="1.1" width="86.86705176222722" xmlns="http://www.w3.org/2000/svg" xmlns:ev="http://www.w3.org/2001/xml-events" xmlns:xlink="http://www.w3.org/1999/xlink"><defs /><rect fill="white" height="121.54964042751021" width="86.86705176222722" x="0" y="0" /><path d="M60.60824152355098,25 m0.0,0.0 m-27.243917618938813,20.911324659638403 l-1.7251846475539045,-0.06617543138863383 4.705270651895779,-1.7610171082577053 l-4.425795212824141,2.264230959129997 5.756766159648084,7.169007245509357 l9.000337425177177,0.6958631654066018 -6.248460901049287,-1.3831056487568096 m-0.10264066539260708,-13.508550596038598 l1.7764876379393693,-1.623777505806615 1.3236880505216855,0.030435812004145912 l-4.5717801969635214,7.8604323883906275 3.4959028369188943,-3.597590294523175 l2.9156908504320844,-0.5228964868447711 4.679676729436126,-0.6643128552355156 l-2.3108000856613904,-7.173190070878992 -7.5939026474125555,-2.976709120283268 m-5.599785654046476,12.810145581520773 l11.454820321176223,5.635781692943945 6.9143081953740255,1.0014227644475722 m-27.80892275222774,25.902397030678713 l6.728433305376804,10.38588824819365 12.025392325328973,-1.9494251090259935 l-2.9470069001206305,-6.115623105914 6.664159828694328,-15.022745743495127 l2.8668353912783004,11.131774112760509 4.107657032706143,6.680014315100527 l4.612487090618649,2.8347378474205542 2.809093688344645,3.7684741890353703 l-0.8536109007993378,3.7571253209597457 -2.5838792635802315,5.075704170818902 l2.789545345064636,-2.393019891106692 m-11.515272590642946,-5.799704919577995 " fill="none" stroke="black" stroke-width="1" /></svg>