<?xml version="1.0" encoding="utf-8" ?>
<svg baseProfile="full" height="200.8533676505778" version="1.1" width="172.22262832072894" xmlns="http://www.w3.org/2000/svg" xmlns:ev="http://www.w3.org/2001/xml-events" xmlns:xlink="http://www.w3.org/1999/xlink"><defs /><rect fill="white" height="200.8533676505778" width="172.22262832072894" x="0" y="0" /><path d="M25,175.8533676505778 m0.0,0.0 m8.674678022138067,-15.602768148808192 l36.802267688362704,5.486522275448571 -11.6115299850865,-35.011838539041946 l4.296505117656658,-10.774478518575423 6.219172517867737,0.4565872418834521 l5.379929350391118,-1.6223827209232826 3.1629889052723317,-8.212487557760339 l2.800586686339013,-6.226515052374789 2.0559127903790784,-3.709740017049062 l7.55695603875121,-8.036838161173456 7.979975235164742,-3.156014496572369 l9.949493544419893,-4.528815858498831 11.07108072700191,-3.210897636154478 l11.020784665110154,-6.481603271847658 4.9240315623134485,4.970199736092055 m10.149468134659925,50.39183032399203 l-20.39012194683424,14.507893912500332 -20.77326197610715,5.604422971421688 l-10.432728033850168,13.56304614095481 7.428126633043178,0.20835332335208845 l7.768577567402156,-0.5221237323388261 1.8689013647652146,-7.5026998525512845 l6.2699776235561355,-27.25080776528662 -3.676168013987128,-9.863176036506346 l0.353610100039517,-12.21255091438952 8.570578251360262,-9.354491671524642 l10.16348269457387,-8.178731281304936 -5.1921133245458435,-5.583832821048265 l1.2382397010825053,-15.018684220501722 -1.3090531344725431,-6.225548391447427 l1.265495730020495,-6.3486576424645 13.501017152759434,-10.499767838187427 l5.135766931181776,-16.378911939259844 -14.646316575533477,-4.527859490631634 l-5.988790655489738,18.255035792078065 " fill="none" stroke="black" stroke-width="1" /></svg>