<?xml version="1.0" encoding="utf-8" ?>
<svg baseProfile="full" height="115.27056652858549" version="1.1" width="110.0366556797238" xmlns="http://www.w3.org/2000/svg" xmlns:ev="http://www.w3.org/2001/xml-events" xmlns:xlink="http://www.w3.org/1999/xlink"><defs /><rect fill="white" height="115.27056652858549" width="110.0366556797238" x="0" y="0" /><path d="M51.39909901272888,56.77146660890709 m0.0,0.0 m-16.034602214174274,7.239966127884312 l2.6938306154987233,-0.6150484660074929 -2.5226650608849632,-5.70436016872547 l0.9598033002874817,30.900764108955787 -4.690664871744572,1.6777783175712548 l-4.309013926422703,-7.203447729104699 m2.4207999834158134,-24.435051911063272 l-3.870378591232813,-2.715841190257926 1.6948236004516688,-8.042412714159465 l-2.2912042113294637,-5.6818558570404205 -0.44982763659378366,-0.9264164036218825 l11.995039411942729,-6.139575096570713 3.3312383533026506,8.46527145128242 l10.999676717220218,8.755242044112569 -2.3535583537922626,-4.652088195900131 l-8.624667589983334,-15.799264461587272 1.5447076113701919,-6.895126464674692 l-7.9333405636719805,4.170335469876499 -2.682421703207141,2.938313268565181 l5.293980222696121,-3.0553833598690394 4.087202443120579,1.2387888280727017 l-9.637936819940535,0.3968125912003728 -2.928956899687443,7.580612523639809 l3.262528191911858,13.472357565805039 9.34377933779054,8.284279329041127 l4.311444286948814,5.918877757051204 2.367125160179128,-4.893287363912505 l10.388386717622579,-14.44545251236787 2.6850118642530707,-7.945798402879613 l10.70262031283035,3.713021400701416 7.960915883760913,-8.975013785331868 l1.4159907312895375,6.057009705637297 1.821575162743511,21.120341238780746 l1.582895561111578,7.374708926250859 1.1034196399121259,2.5982852700922776 " fill="none" stroke="black" stroke-width="1" /></svg>