<?xml version="1.0" encoding="utf-8" ?>
<svg baseProfile="full" height="127.79643898233168" version="1.1" width="181.05000603394325" xmlns="http://www.w3.org/2000/svg" xmlns:ev="http://www.w3.org/2001/xml-events" xmlns:xlink="http://www.w3.org/1999/xlink"><defs /><rect fill="white" height="127.79643898233168" width="181.05000603394325" x="0" y="0" /><path d="M25,76.73753644682559 m0.0,0.0 m16.163393834962918,-10.653294856802244 l14.906487149307509,17.58681840300935 m4.509207706220697,-49.96195028129674 l3.0695662856919936,-3.762659388038668 -3.124991562867632,-4.9464503236972845 l-2.277052910828257,12.893876694971064 -1.1292503774460252,9.25017004034725 l4.590683005570586,4.607835252051245 10.906063153600623,0.3030413723468163 l7.29527133600458,-2.2989802815526303 3.2266891434153697,-0.8241847995458086 l1.0432043663365664,-6.088006448332243 -4.704592949020873,-9.334589355079164 l-4.978647396927669,5.80322902177772 -2.835763742175005,4.533702029963408 l0.9847702889404909,4.227289732041011 4.684425411599816,3.4893662475780185 l1.974084488457169,1.8795468019717638 1.962281062987908,2.4486341207813953 l-1.342996289970238,1.8155547849140214 7.111973008946289,11.027040457364699 m-9.800178947176692,-0.5449580447524668 l-3.6372864093621025,0.2064183524297883 5.242822689529301,5.349209622358225 l6.940192051344671,6.9076292040507665 -0.07996876090394858,9.532039299594684 l-3.1075724890104066,9.153332207674072 -1.3405812591527524,2.330900097984844 l8.485590856220215,-0.9361442816561122 4.986886230729026,-15.197902375037046 l1.5592109109040322,-11.525905734000004 8.509551996170543,-3.925476299375674 l17.050765699004295,3.7436491377860137 10.66863986213415,12.715541148877946 l2.7715796854158756,4.337229768673267 4.881246924208388,2.8753610446752567 l8.143159655103958,6.043600691789799 7.741142325977899,2.9983894696597657 " fill="none" stroke="black" stroke-width="1" /></svg>