<?xml version="1.0" encoding="utf-8" ?>
<svg baseProfile="full" height="181.71308018599183" version="1.1" width="115.09054007118038" xmlns="http://www.w3.org/2000/svg" xmlns:ev="http://www.w3.org/2001/xml-events" xmlns:xlink="http://www.w3.org/1999/xlink"><defs /><rect fill="white" height="181.71308018599183" width="115.09054007118038" x="0" y="0" /><path d="M60.715460841154005,133.15342623960748 m0.0,0.0 m9.209232094495153,23.559653946384344 l-10.5604433358924,-26.777279265083756 4.064533778424988,-17.593107385492882 l-0.12909975806514506,-2.882713353697262 -4.399549775511708,1.8926235148693418 l-1.2849556815812875,-0.11408438021862824 0.4037832322674848,5.097476279684991 l3.950355254207162,1.1613160200660382 5.123447241434397,4.1528760157102 l4.092925623697268,4.410018026837151 8.270778534653788,4.338059731998185 l10.120202543941058,-4.816897375620559 -5.124960993913232,-8.957237915924555 l-2.2344918071955835,-4.219633478025644 -3.7368992363901175,-5.961380151674274 l-9.257755646663059,-7.260984901896347 -7.203951201892229,-5.956706665900407 l-5.722673122489004,-4.533654312835231 -2.501001888522735,-8.734465015883513 l-2.260484309834179,-11.967063511753139 3.5213855909313385,-6.707470207746931 l4.18076533573026,-0.7585925880110084 10.969028822146,0.7277962922737824 l0.2799018938616468,0.7322718442159115 -5.677664785915195,8.953137950216355 l4.806948394322893,-4.601111384646819 m9.657203856112188,-13.963759211493409 l6.400189674845991,-0.8960620358486084 -0.27118859714299226,8.54306176293691 l4.689517499963613,3.4753414561113485 -0.19895305141375969,3.893977043446267 m-34.71737372300766,-20.358228324541248 l-20.2385330729675,13.172390725797646 m6.4630686359144605,21.407762518878386 l-16.398748859705915,-56.610757902740126 " fill="none" stroke="black" stroke-width="1" /></svg>