<?xml version="1.0" encoding="utf-8" ?>
<svg baseProfile="full" height="109.85459143695621" version="1.1" width="152.4639041988446" xmlns="http://www.w3.org/2000/svg" xmlns:ev="http://www.w3.org/2001/xml-events" xmlns:xlink="http://www.w3.org/1999/xlink"><defs /><rect fill="white" height="109.85459143695621" width="152.4639041988446" x="0" y="0" /><path d="M127.46390419884462,80.03644494643582 m0.0,0.0 m-27.156864139259998,-26.180625190174858 m-13.259519192963571,3.4811176444303595 m-41.07929498669989,27.517654036264883 l-20.96822587992115,-3.0724993259049214 m51.1571432026614,-8.748425660869685 l10.615855405544256,-11.478743670734515 4.569899173918766,4.326987044120189 l1.5297585771685573,2.983151877485795 1.6252059262992984,4.781404762391206 l-0.5309202001644205,1.8181903533232135 0.45981579909215836,4.592490737799048 l4.15983861099643,0.4953340682487867 5.4499297335926045,0.10418092535881156 l1.079286093695602,-0.8624910989763515 -1.4325904525671167,-1.4735572133932864 m-8.025040517291831,-5.5022480413440995 l-9.859294517444166,0.4441332129659267 -8.38139022759687,-0.5312774402701248 l-5.817364481850429,3.315792954759383 8.532761010987949,5.915905281091263 l-0.8694965070340983,-3.317812619643136 m-2.8498827147004158,-11.749082242895467 l-3.731594085874226,-4.668271865749124 9.272202502541772,-5.510010367266639 l2.9566355648032894,-0.13129961063192094 1.5019482454574002,1.724416760173328 l1.3437309450564021,4.96902212003252 -2.625264294698356,5.675891877981539 l4.860788496105754,1.6882452265420969 10.64723630343266,-1.4753141914153416 l-4.486904985257038,-4.260514666295747 m-14.727607626971428,-11.426789455036545 l-5.5705711964852975,-5.256374302379941 -2.6016850236906284,-8.712056744282998 l1.5515346007242174,-9.515392054586629 -2.7366149007551552,-4.997578067552846 l-5.007662274958515,18.637408181017122 1.4993306173021026,12.04883912269295 l-3.2065205286577325,4.102785293916088 -5.38467792005559,0.536269049955468 l3.871808613678006,-3.183297753503022 9.19523097851147,-4.258180200011005 " fill="none" stroke="black" stroke-width="1" /></svg>