<?xml version="1.0" encoding="utf-8" ?>
<svg baseProfile="full" height="205.8514635607145" version="1.1" width="106.77268133759799" xmlns="http://www.w3.org/2000/svg" xmlns:ev="http://www.w3.org/2001/xml-events" xmlns:xlink="http://www.w3.org/1999/xlink"><defs /><rect fill="white" height="205.8514635607145" width="106.77268133759799" x="0" y="0" /><path d="M25,180.8514635607145 m0.0,0.0 m47.897976527236835,-36.682462931535454 l8.874704810361152,-59.04336483897384 -27.976038651526242,20.22871825444981 l2.476389261006409,-5.571503385604792 7.34368886770268,-1.1490660582245416 l3.047083430336114,-12.15355979562871 1.2348143494005954,-7.086825611439147 l2.536915050579198,-3.567571592784428 -12.299068516905631,-5.799734199275017 m9.261674207667449,-6.359709786798229 l-4.599847879720179,-10.232867676466308 -10.599522273315355,-0.33756360328004054 l-7.707386599925836,2.396682345332387 -6.222538558288458,4.331073591950228 l0.9527885951516862,11.14260831394071 10.229784947789135,4.869175412684932 l9.884865028767894,16.137590985376928 -13.093578306730498,17.09771896892445 l-0.06484645834023972,9.663085910842206 9.964497272721097,3.384592346696563 l0.3861376115353887,4.585883252275633 2.6858222927868263,0.9385994065612879 l-0.9244691374347458,9.558460897035715 m-4.0018294621543244,-35.05936745870762 l-0.5848623258933838,-54.0575263226623 -1.5726411298327592,-9.942013179543844 l-1.6076931405984485,-9.591665769075584 0.3991462101103338,-3.550851036785536 l13.841673423662812,3.7964590912815086 1.7256593778336227,4.3658315661271745 l-2.835138873810471,9.205720497363432 m-36.41130813452975,33.08989963487608 l5.500771393380355,-21.422801226188078 m16.7302051434128,5.0643582193659515 l6.434335007982857,-33.54352994076096 " fill="none" stroke="black" stroke-width="1" /></svg>