<?xml version="1.0" encoding="utf-8" ?>
<svg baseProfile="full" height="204.9183973727956" version="1.1" width="145.66077150414978" xmlns="http://www.w3.org/2000/svg" xmlns:ev="http://www.w3.org/2001/xml-events" xmlns:xlink="http://www.w3.org/1999/xlink"><defs /><rect fill="white" height="204.9183973727956" width="145.66077150414978" x="0" y="0" /><path d="M34.23916562374551,179.9183973727956 m0.0,0.0 m13.986605001399436,-8.03106568010445 l18.771014775989407,-21.31660751022402 12.36146505525336,-56.29656894905737 l1.9563105633828062,-3.870042937026118 -3.394533424343496,0.4906464047541388 l-3.4969267817583916,8.090844565661847 3.6335261721085046,11.14033911851473 l2.384246833174698,7.791638603417866 -1.740521024002522,5.031092236749339 l2.5654981067500624,9.306233802073134 -1.1430433859733897,11.871237209590012 l-2.9675210082709578,6.787298302886336 -8.88741685389885,4.331859389782051 m-17.363342083813784,-82.93270084632223 l0.5632406836869053,9.743335272885604 2.4023295371481215,12.515977869142954 l1.6275572113497432,2.5175657155321662 -6.935375956829812,3.0961328140816944 l-22.652058101554022,4.713845159635888 -0.9102209435433284,0.6116812654384237 l10.865599233913814,0.8631477653437941 2.183214465792349,-7.175648811311874 l8.828979992890135,-1.865013167180395 14.166859219760665,4.104074578869261 l10.592844882816902,5.756910249345407 -4.717091123677403,12.754309954296144 l-6.857316811047488,4.604699720417004 -0.8277228106282369,-5.2356556239923755 l4.177501314415621,-5.048462833605634 15.252317278144023,2.585108463259967 l-10.824453474029978,7.2692334452135015 1.0483295900674878,4.272713298741076 l12.293591497299182,2.5081972312036784 4.9449628316655145,1.3704638251880175 l5.136834213232677,-12.284753297459185 2.417345822847549,-2.961430793945785 l3.46272174080598,-54.08918878655731 23.516253639880986,-37.93984439803291 " fill="none" stroke="black" stroke-width="1" /></svg>