<?xml version="1.0" encoding="utf-8" ?>
<svg baseProfile="full" height="121.5584384929222" version="1.1" width="148.7363661375224" xmlns="http://www.w3.org/2000/svg" xmlns:ev="http://www.w3.org/2001/xml-events" xmlns:xlink="http://www.w3.org/1999/xlink"><defs /><rect fill="white" height="121.5584384929222" width="148.7363661375224" x="0" y="0" /><path d="M106.42448788049569,96.5584384929222 m0.0,0.0 m12.769242828859028,-56.33110253210124 l4.542635428167685,-15.227335960820966 -17.64770798034858,3.817878232504328 l-40.135567199152185,7.409362984139635 -0.26867744515831404,5.798868546486432 l-1.0906727319842342,11.799800036909858 -8.02632837251088,2.6977097530436893 l-3.990677628042174,-2.053313086692507 4.972750267100436,-3.5416998863815765 l0.0031026999330872884,-8.866774161735373 m3.549150232724627,-0.5006708494119683 l-7.772456454149792,-1.120303421124984 1.9603213459510016,10.86933234943298 l2.299144571572145,9.617880767625678 1.8679164431115258,9.684798013393518 l-2.371051953366253,8.220318904399528 12.743786296978152,-4.903907877447867 l11.859462524371622,2.2366593462193682 2.3161180850052303,10.101954367631768 l-8.566492629754665,-14.5426719746217 m-34.32203148227502,22.233355758625343 l-7.351978323440639,-2.7736099602987285 2.512018080538302,-7.207623331936479 l-2.807760986652353,-0.20703019648659615 -2.57282764121112,-0.78254836947497 l-3.4797242490875178,1.094890222537549 -2.4161816076747913,1.7686616029218443 l6.934015324527325,-3.5287650641573767 22.15041322108738,-26.35333962941994 l-0.7782558774619123,-7.058719242543519 2.4790985577011826,-7.542534963687879 l5.020070835348913,-7.58493995476504 3.64014167914946,-2.275796014804376 l1.7991019069272687,5.355168779882426 2.4879553892099833,6.071671324793022 " fill="none" stroke="black" stroke-width="1" /></svg>