<?xml version="1.0" encoding="utf-8" ?>
<svg baseProfile="full" height="199.2117293036988" version="1.1" width="141.41371080102323" xmlns="http://www.w3.org/2000/svg" xmlns:ev="http://www.w3.org/2001/xml-events" xmlns:xlink="http://www.w3.org/1999/xlink"><defs /><rect fill="white" height="199.2117293036988" width="141.41371080102323" x="0" y="0" /><path d="M29.333145883616446,168.5476595984881 m0.0,0.0 m3.6981140204234517,-14.97225989244896 l-5.6673190362794035,20.636329597659646 -2.3639408677604945,-112.47793707637292 l9.505391430437385,-5.958884510737384 5.80055615856089,-6.509927070616179 l7.43131397186273,4.535922926693649 8.99101974624387,1.8688373756315546 l6.298135583010316,0.4667587212456459 m-5.3054086947345995,-18.58314468833436 l1.0883975193764472,-8.100262334380002 7.3031329878456,-3.1110360955241316 l6.637917768031718,-1.34205655130464 6.8636991991478435,0.5456875116755222 l7.644596076805372,4.253591759708987 10.670669356600763,14.717009369221698 l2.835476808813223,9.986601791346752 4.064980391208381,5.5377594985667375 l5.525557755730787,6.958918117632977 2.3478350067753264,1.822917362927125 l1.8394684381431985,0.8694737346759288 1.870971297163942,7.963665589272352 l-3.3820963180554022,-0.653705154306129 -0.6832549131304012,-2.3541131400752904 l-9.855889958724502,-6.6194453688832295 -14.796271940383923,-4.333931317708633 l-10.623349097357082,-3.038178339933073 -14.815574179230241,-6.943080325771043 l-8.666440609202104,-3.305836808776288 -3.2512683231054837,-9.77574496163522 l0.09454254695506883,-0.8706194821706104 2.6956806534662903,8.551922382199125 l5.253797909679065,5.578172391063593 -4.283691114577966,1.3150780737406598 l-8.235277683913711,3.565492446932117 -8.154323640863755,4.575319347539264 l4.871714742540167,8.414895858995331 -0.40855752926602984,-1.5124967052952376 l-0.06242210532588358,0.04867347987227027 " fill="none" stroke="black" stroke-width="1" /></svg>