<?xml version="1.0" encoding="utf-8" ?>
<svg baseProfile="full" height="120.44726889478196" version="1.1" width="96.98166276224335" xmlns="http://www.w3.org/2000/svg" xmlns:ev="http://www.w3.org/2001/xml-events" xmlns:xlink="http://www.w3.org/1999/xlink"><defs /><rect fill="white" height="120.44726889478196" width="96.98166276224335" x="0" y="0" /><path d="M27.1586469714478,26.245725720388123 m0.0,0.0 m10.343347503104944,6.633538133859138 l-0.817504814414285,5.098589489977826 -3.9035923719779952,-2.3946018005469627 l-0.7961415489989521,-2.0887043518036355 4.203949327363858,-0.22025759217662422 l-11.18870506652537,-4.328228761682072 0.5202301987612397,-0.4535554898379168 l8.708863337024754,-3.4925053481778767 8.618554900323844,2.9019740316303846 l3.6023163901220943,0.05149479288311387 0.7684070219619112,5.047509090458804 l-2.526061560674958,9.038069478970257 -0.9781895022218619,6.281512233494862 l1.8942876028083266,3.4952860036919597 -0.8860294541129538,9.733507176593688 l-0.7573434127604151,7.403629195541088 5.898445479584325,5.730144068423753 l7.279460750264535,3.390732939332876 9.099069400364748,2.153566543085627 l5.739651610797774,0.34623565555045754 -1.4675899382278834,-4.247698161462562 m-22.909017821492306,-15.198060350557277 l-6.639792456258396,-11.576210871172195 -7.031613343818357,1.5368304786285214 l-4.804193930353055,9.448267299612999 2.753149755437895,6.143387576970489 l12.629825440323415,3.064142884856929 5.939826926642804,1.3816106470122402 l0.1344939698348413,-0.10704843876469416 -1.646563102519274,-3.8034328286814154 l20.18381465190459,20.324006621456824 2.0384373839520897,4.161669305873026 l-3.3142913483677665,-0.4388222442365104 -4.676561333257894,1.6679378797208688 l-2.6120442583195413,2.517027885867834 " fill="none" stroke="black" stroke-width="1" /></svg>