<?xml version="1.0" encoding="utf-8" ?>
<svg baseProfile="full" height="148.22389005722312" version="1.1" width="137.67805468737834" xmlns="http://www.w3.org/2000/svg" xmlns:ev="http://www.w3.org/2001/xml-events" xmlns:xlink="http://www.w3.org/1999/xlink"><defs /><rect fill="white" height="148.22389005722312" width="137.67805468737834" x="0" y="0" /><path d="M112.67805468737832,123.2238900572231 m0.0,0.0 m-44.29715780956107,-1.12473499785122 l5.685382156419891,-13.65279752784199 -4.744035159942181,-4.121967528745354 l-16.552701405913652,-18.753936307405255 m-3.881881853355407,-21.421720928088376 l8.260452529526749,6.919367281657009 4.148601957619753,3.4437613227951847 l-0.9762024158691351,5.121579727729088 -1.2037955655912185,1.4765485490295973 l12.409755544548199,1.7730920193879134 5.379436681904822,-3.315316706210855 l-3.589392785086344,-7.529293579924335 -17.516662499327676,-7.912255417715881 l-2.214514491334539,-0.03628983068406977 2.569124779561265,26.7216820316312 l1.5342029745654095,7.342377556949263 -1.2871149063608789,-0.9588118025336689 l-0.26037673673844575,-16.073638961808186 -0.5057798755781201,-12.536034830728289 l-2.5790654019076036,-7.334164087744589 -4.242565941907422,-2.8055417628495305 l0.16088196908942545,4.48380976117686 6.317064977880707,0.2897359282955229 m-29.86769041056759,-25.102184893661857 l-0.4240209994532502,3.508724073121492 16.208051235243726,-14.89877893981403 l5.404967114534142,-1.7271002053887308 -1.6767734744519058,4.357323828500726 l-1.5893078125794728,2.7820131932078263 -1.4137063629697078,10.788790053137687 l-5.7146800231257675,10.543214799151167 0.6471628119001047,7.125374583422073 l5.720736793170859,2.7642593293644313 3.9955402963600153,0.9603867962909111 l8.247905693770768,-0.5464041188475333 " fill="none" stroke="black" stroke-width="1" /></svg>