<?xml version="1.0" encoding="utf-8" ?>
<svg baseProfile="full" height="171.08764756550647" version="1.1" width="172.82942183273917" xmlns="http://www.w3.org/2000/svg" xmlns:ev="http://www.w3.org/2001/xml-events" xmlns:xlink="http://www.w3.org/1999/xlink"><defs /><rect fill="white" height="171.08764756550647" width="172.82942183273917" x="0" y="0" /><path d="M147.82942183273917,82.50097388812917 m0.0,0.0 m-52.09501665647633,-12.727742466723129 m-18.066176901682876,-19.794957827780507 l-1.5505642603002363,-5.768391363032044 -14.183016621310475,-10.898803392516522 l7.969740046657209,-3.275615244475896 4.8161867491659445,-2.6786130524227048 l0.8650264757223705,-2.356850541178365 -0.7188815795171338,12.502564145150505 l-5.570496812856415,10.69706176322926 -8.824072827764947,-5.202402930793839 l-4.620691055548396,8.0848994010002 -14.545613950420325,7.503410013929613 l-4.581029844306782,5.321181027030637 0.6010316212989789,7.554642661676368 l11.965300682224532,2.7098275552924633 3.4889671199126004,-5.993166586212741 l-3.2419222844957973,-12.780514756681033 9.429056827461114,-4.401745124824219 l-2.7886190652946294,-6.148207278912793 -8.000539760657242,0.6281568128120832 l-2.215578161744274,6.820502967077786 11.530688759509097,9.48957053766253 l3.447953147463474,-2.803667549895653 -2.592245417224156,-4.051168134012459 m-28.487198125085353,88.50385263059164 l0.8646149657022101,2.65285041138615 10.54043807739276,-4.1391536760960275 l1.2978084830461112,-7.39078590627486 -4.266874727318536,-3.3314825725835893 m-13.297696736291682,-8.468862864556378 l8.373055105725214,-5.048148564167551 11.32794393487015,-5.494721687081118 l3.275594077864115,2.543940633156246 0.5428840338728512,3.9604362482042434 l2.734241831669304,5.31979057785654 -0.41747941760531665,5.831669329533804 l6.744942406577335,2.5621821219960803 12.956902061893834,1.284118554350973 l-0.013705836723822926,-2.9396967220896277 m-13.053849213200076,-24.88105554917861 m2.4299768319422888,-13.910921565399383 l4.169177154594859,4.782443777208242 " fill="none" stroke="black" stroke-width="1" /></svg>