<?xml version="1.0" encoding="utf-8" ?>
<svg baseProfile="full" height="136.46305223132262" version="1.1" width="130.7588474978387" xmlns="http://www.w3.org/2000/svg" xmlns:ev="http://www.w3.org/2001/xml-events" xmlns:xlink="http://www.w3.org/1999/xlink"><defs /><rect fill="white" height="136.46305223132262" width="130.7588474978387" x="0" y="0" /><path d="M88.02798624808554,53.32917598508593 m0.0,0.0 m5.431484210845799,9.429763616974078 l8.368469357089483,23.614482177211187 -1.0001502798854551,-4.698104071336458 l3.088854529104048,7.064785711216139 -5.447375460607427,13.997400163026033 l-0.06240125578621698,6.969583409494524 3.8134947663847187,1.755965239651204 l-6.810540399904552,-11.065761516522649 -2.3579460677521067,-1.4564696268686528 l-13.022089135599355,-4.558327545243201 -3.0337872448719505,-6.269744495253977 l-1.6534625997339925,-2.769582291091117 -5.267633469918776,-11.247856531920423 l-10.01001403770878,-9.293233410400639 1.5186605033398048,-0.9278988958524192 l-0.8560783012390344,-0.04916693712635173 3.502701622337324,-3.762535261705373 l12.778908632328386,0.5851932308619257 23.950082264984232,11.88135129073412 l4.799683616347002,6.843559973733224 -6.599010551473155,8.021989578352061 l-11.69711950759926,-9.837433811656899 -6.117076908504633,-1.1741052294766874 l-10.332117262895796,-17.900587296080374 -10.423017551071379,-10.303356881646359 l-24.029501204936093,-13.12429340920771 4.96545831550677,-6.896755341430567 l9.716444190127099,3.165373486462205 2.9218741350887956,9.88992834165752 l-0.12261860234194094,1.4759804524444198 3.3723346959484157,4.576854387745154 l9.3425509544719,-0.9951603748348059 m-21.93823108235529,21.345150113234794 l-6.012618203230775,6.1913274296728 -3.9550625751537347,3.284615798828641 l-9.851136339419613,-0.5178537016892767 3.8661173477704125,-1.2502831319686454 l17.89196707200401,-50.32397062507338 " fill="none" stroke="black" stroke-width="1" /></svg>