<?xml version="1.0" encoding="utf-8" ?>
<svg baseProfile="full" height="162.7234309182412" version="1.1" width="110.07606518819564" xmlns="http://www.w3.org/2000/svg" xmlns:ev="http://www.w3.org/2001/xml-events" xmlns:xlink="http://www.w3.org/1999/xlink"><defs /><rect fill="white" height="162.7234309182412" width="110.07606518819564" x="0" y="0" /><path d="M62.53544117979173,95.13864642478907 m0.0,0.0 m-12.012066227956927,-8.278046931037117 l0.7822212838269788,-5.193357371923417 1.348626575999567,1.5019930456436847 m8.083566116000622,-44.931113297443304 l-35.737788927661974,-6.823172832458046 3.0395690019111297,1.0866756998502014 l-0.31125061061498094,-0.34886982821391466 6.9586018052296845,-1.9842544048738813 l8.694783619607795,-1.1548487355927068 10.054647286520968,-4.013651768740566 l4.621175182422569,0.9571184269792959 -0.3128814669368435,4.878070941638348 l-2.3959431650944216,9.466182661636537 -2.4259935490013484,7.970497550311044 l2.764625787723992,5.710721413753582 -1.7128329899119143,7.58085245130611 l-2.3394361041482696,7.672547745895171 2.304596010914249,7.221296050634588 l5.600589704758368,6.81150956267679 8.765495306297856,3.533127863602131 l10.557379833078832,4.174986681264434 4.688386661818551,1.4472111331640936 l1.5245528736194187,0.03238752116283605 m-27.141572508989224,45.26692091421624 l-8.95821078058899,-8.740618063174358 -4.704217019051806,-12.228574201995237 l-3.064918914153381,-10.566797325902805 1.998094660464548,-7.818133900192123 l9.647713851775222,-8.011334969749718 8.51713545643947,-7.826813863828235 l2.4369330271154768,-5.771695493708107 0.12301197788874757,-5.558648678423779 l-4.342338399730719,-5.103146950749175 -9.762910771016946,-0.8461353358305698 l-5.703913958767935,1.0181751983903409 " fill="none" stroke="black" stroke-width="1" /></svg>