<?xml version="1.0" encoding="utf-8" ?>
<svg baseProfile="full" height="170.3129063912877" version="1.1" width="128.01510829922884" xmlns="http://www.w3.org/2000/svg" xmlns:ev="http://www.w3.org/2001/xml-events" xmlns:xlink="http://www.w3.org/1999/xlink"><defs /><rect fill="white" height="170.3129063912877" width="128.01510829922884" x="0" y="0" /><path d="M79.02336487028131,145.3129063912877 m0.0,0.0 m19.632006605826533,-0.26545257855681736 l4.3597368231209925,-3.2779169682907128 -0.985370329737711,0.3779361180486603 l-5.946988724557398,-5.005648095518107 m-3.2837511320226387,-60.66267473373472 l-4.380780082687433,-5.488720618598936 -2.027383480005451,-6.532809016428645 l-4.907031993363645,-5.5993196681093655 -11.762842352190374,-31.91671948960077 l-10.33028135145882,-1.9415813404982862 1.8549912095686454,3.928040836497407 l-6.985527030130769,-1.5415303648048317 -6.3715456231917855,-0.04160740430376009 l0.26311134012932225,3.255675207299556 2.78502414546431,3.8412483652414258 l-1.850226194281126,4.138042919125869 -6.231698059217039,12.212823406084658 l1.1261155416076851,4.3607078030353685 6.845753436738799,-0.16350237816155258 l2.0697916449573963,2.1611037161629922 -4.329566736351457,3.3329858516855757 l-0.325851920028718,4.9710082533043 10.421014759693856,3.771874511571691 l10.417316381000722,-1.3982604013029576 -4.50740883978365,-9.751281180875537 m-1.5306952495168025,0.7391942071385982 l-2.899802583324389,8.0459202107304 -5.600071254464183,2.500461655149028 l-9.22333373570704,-4.043264397518139 -9.37104853600423,-7.293586122931028 l-4.662112870894186,-0.3888640460372231 -5.5601664624667,-3.3018129504280913 l5.5613953030488545,1.3032108200212755 -6.286137520052898,-5.257294221264206 m0.6837239568852771,0.9706673126853018 " fill="none" stroke="black" stroke-width="1" /></svg>