<?xml version="1.0" encoding="utf-8" ?>
<svg baseProfile="full" height="138.0946366869499" version="1.1" width="121.54495249701861" xmlns="http://www.w3.org/2000/svg" xmlns:ev="http://www.w3.org/2001/xml-events" xmlns:xlink="http://www.w3.org/1999/xlink"><defs /><rect fill="white" height="138.0946366869499" width="121.54495249701861" x="0" y="0" /><path d="M25,110.43664284692217 m0.0,0.0 m37.25921555795898,-45.77686903190018 m0.9457792861640951,10.372108301668282 l2.0004977209610293,7.933305029624282 -3.094384266090261,5.929928813802518 l-1.4896885319386783,0.3393654169901361 -6.1234318020680965,1.658689837336942 l8.687284510873232,-7.563096352933717 -1.2595209086414976,-3.355568529451648 l-7.656137494498206,-29.012968505327343 2.286142619935089,-4.822968958784878 l1.3655392450234,10.725701587800906 -1.6537216546364946,8.650525179729366 l-0.8598168104253118,1.7750772523012077 4.931314508938545,-7.266854462505774 l10.333203072459561,-20.14202831238564 -1.0005390819271416,-8.82989809928745 l-4.427632782074055,-6.05109201359917 -13.467202884407108,3.530967169099559 l-0.4272238269692924,0.8355651953501819 7.281024457429923,-0.971599544786906 l9.729678489503405,15.752194164643395 -5.8074530832579745,2.6786585910790497 l-15.169983405211495,-5.0306333301571025 m3.176754914244271,39.154410449046125 l6.879264088327591,-0.14308236489267082 16.364964244102065,-7.7667269815423365 l-2.6313695588125676,0.5953241410780643 5.801917281522978,2.7067424021171447 l2.64168554334257,4.179377915116028 3.476064440184053,3.1881359365822575 l4.516359963045696,0.4892322916005265 -1.5849718720277375,8.631692708802193 l1.9017496751387324,7.603621458278492 8.619590840849325,-3.7267077369289514 l-6.1381665251024895,-9.920915219288439 m-20.29208298862269,12.60323353669615 l-1.6955447960677197,1.0064316862567462 4.514030923931498,-0.6427523274649349 l5.720023913048961,0.5327783426565038 1.9992145065561666,6.15666043539791 l3.3839609435338374,5.286284029366919 -0.6637297120200358,1.3657437388440077 " fill="none" stroke="black" stroke-width="1" /></svg>