<?xml version="1.0" encoding="utf-8" ?>
<svg baseProfile="full" height="360.0298392076616" version="1.1" width="127.89136784968532" xmlns="http://www.w3.org/2000/svg" xmlns:ev="http://www.w3.org/2001/xml-events" xmlns:xlink="http://www.w3.org/1999/xlink"><defs /><rect fill="white" height="360.0298392076616" width="127.89136784968532" x="0" y="0" /><path d="M25.368804396202354,335.0298392076616 m0.0,0.0 m-0.36880439620235184,-104.91059749554374 l29.237025089035715,-58.26057369262534 -8.115155612200093,-52.66686290978326 l30.28509269548619,-10.154421006692257 -2.5716437415015747,-82.96431740109806 l-7.561602538200791,-1.073066701918936 9.1024510054022,6.197432952913687 l4.912243240830857,3.9319194015860934 -4.69716556886713,4.080892070781434 l-9.825307101048754,5.19419485349777 -6.5048207028401706,-0.24850334693260784 l0.17619736644997053,6.796085370742128 2.589401317429499,6.587245465743816 m-1.8349313648043897,-0.12328509821953881 l1.601215042580868,-2.711789716161058 8.298419853171586,-1.9000298483725737 l11.129035987091637,4.065966844794578 12.91034768353851,4.803364415951649 l1.8312062173078751,4.126391028161613 1.580072916294386,4.814824289739346 l0.2637026098731751,-1.1742203150590202 5.085583454655744,-4.634781196206615 l-4.216183183222696,-2.29427155703758 m-26.693673899173138,1.4730342468625879 l-9.637470801116187,1.3968854198972125 0.604877844190852,1.9077433487009825 l-1.3484825836189778,-0.2375946193047812 -2.8073141543771016,9.611188441949976 l-3.078580740306187,3.427617314260516 6.527118530026792,5.864995402443756 l11.04257319903538,12.256103371189875 4.408405463275848,5.720671188756124 l-0.12416163858478435,12.9139572616738 -1.0100796824167124,25.048761913286633 l-9.563882592943749,12.71503124499677 " fill="none" stroke="black" stroke-width="1" /></svg>