<?xml version="1.0" encoding="utf-8" ?>
<svg baseProfile="full" height="126.81806349851708" version="1.1" width="108.6218165280429" xmlns="http://www.w3.org/2000/svg" xmlns:ev="http://www.w3.org/2001/xml-events" xmlns:xlink="http://www.w3.org/1999/xlink"><defs /><rect fill="white" height="126.81806349851708" width="108.6218165280429" x="0" y="0" /><path d="M45.45358870914097,60.132217068149245 m0.0,0.0 m-17.71244686410542,2.1511146447257388 m12.300681867657499,-12.194735414522647 l-2.4357999107124746,-8.707028635858226 4.453108011648401,2.9017962419919594 l6.885958528561745,10.550176952886112 1.0011857043647854,10.450971148401337 l-0.5971355859592067,8.565292176358604 1.3471396098844972,11.109851208456343 m-8.464500620267627,4.785586340578257 l-16.41189736103548,-9.913616509874723 2.7547344487952694,-19.496674210750573 l-2.4712902071040603,-9.81973072412154 -0.2261852523843405,-0.2216019551160353 l2.1257133336372216,-1.353561458838648 1.1854960923171074,-3.9466974748357067 l7.016716730159356,8.820703906576922 8.173797919341478,4.047609892690718 l8.290149296509979,-1.7675789268891373 10.468604203523304,3.049307613933858 l-0.5117813052786507,-4.557223890215163 0.937070585223691,-1.789909814904778 l3.0965657633240484,-10.276253750548827 -6.489447263798538,-2.1773580887329125 l-14.687258781477137,1.0375734934086085 -20.48276765196642,-0.3261185451756521 l0.6520009193438941,-3.2628596762476048 8.069166113654752,-0.10772192265808445 l12.163843089739272,5.873526066478467 9.210098941247136,7.818740893703118 l11.94387819223833,5.278629146996003 13.292158444602928,3.874945333057447 l3.2906708272165917,7.215301502350955 -9.616539743912703,10.613599676126642 l-1.6051579773806257,8.509459320055964 -3.783640071105704,6.689439755713331 l-6.67628801699384,8.260892115167703 9.659846625590282,-76.81806349851708 l7.540743488629361,10.396275509165402 " fill="none" stroke="black" stroke-width="1" /></svg>