<?xml version="1.0" encoding="utf-8" ?>
<svg baseProfile="full" height="356.6589360244937" version="1.1" width="255.97350452758246" xmlns="http://www.w3.org/2000/svg" xmlns:ev="http://www.w3.org/2001/xml-events" xmlns:xlink="http://www.w3.org/1999/xlink"><defs /><rect fill="white" height="356.6589360244937" width="255.97350452758246" x="0" y="0" /><path d="M82.75380885254484,331.6589360244937 m0.0,0.0 m-0.4604701194860972,-44.229976954745446 l15.790508303638946,-23.76319040725067 16.280331536657084,-57.00775411132029 l4.237916633934198,6.84189798215026 -31.543804083721525,16.999215977389166 l-32.57361218905088,30.227337463240545 -14.689644917733062,24.05125939430378 l-0.38086297148230086,4.9786104677253356 m-2.16069702870313,31.125248449716047 l-12.25347401659807,-0.242345472897961 3.587749808419605,0.8852236266567041 l44.3324237531618,-63.02651149465861 29.410433278326742,-22.715688137000928 l47.37047949484625,-31.012687529479333 12.285216957070748,-33.65181795574741 l4.482685536349875,-21.273143534816388 10.000324098310838,-18.5537390764637 l4.8857110940772035,-11.35927355907623 6.541178749639159,-5.126710891485222 l9.893219971931236,1.068998499554616 8.226881135661518,3.1504588339673467 l3.114116197776876,4.2227764258423655 -6.018429511975241,2.547673080468276 l-11.552185448999206,0.09040588893335345 -7.971640088007568,-2.2953335889499193 l-6.027831243396811,-3.1352146593511736 -1.7560492285933775,-3.191664588677059 m14.328259377918796,-92.26299015252117 l2.4192984021814254,4.165997362130927 1.6877859154294472,6.756827775098856 l1.2467063198054447,6.9052255484653635 3.3412361190059223,8.40923421672319 l10.656982713419007,10.171173367071379 12.325952626215818,4.316055271464459 l9.162998499006973,1.436388651746569 " fill="none" stroke="black" stroke-width="1" /></svg>