<?xml version="1.0" encoding="utf-8" ?>
<svg baseProfile="full" height="200.71154046142428" version="1.1" width="105.51441504018669" xmlns="http://www.w3.org/2000/svg" xmlns:ev="http://www.w3.org/2001/xml-events" xmlns:xlink="http://www.w3.org/1999/xlink"><defs /><rect fill="white" height="200.71154046142428" width="105.51441504018669" x="0" y="0" /><path d="M72.2343406301043,47.55919000279182 m0.0,0.0 m-2.7171996668322853,9.681551266601533 m10.99727407691468,3.648354338634907 l-50.215280782966765,-24.640058694373668 -5.299134257219937,-11.249036913654592 l1.4632370210883574,65.3528157524116 m22.803684180150565,65.87455499253076 m10.414573889355482,19.48416971648192 m0.13751961693215806,-48.513141181235234 l1.3374691795447884,-3.1196826990317903 -0.5844725375791177,2.1629473705114566 l9.685976920095417,1.2452879786372257 7.962681624828332,-3.737888249841522 m-15.720161018394318,-92.19414255667427 l4.8585103258853195,6.985713886251636 1.4512204454893112,6.893640631152905 l1.9431570966560665,10.411645270821412 -4.911763164671694,4.747093520009654 l-8.763088550659694,4.5048871096503555 -5.174705332833101,2.6417687187554053 l-9.043653100335115,3.4744176047945246 -6.337183351933091,-1.3135577934398759 l-5.274725292701221,-5.954230574714683 -1.258470573654963,-7.6123763408231735 l-0.556386835150636,-3.45274769306236 3.5173682194662894,0.8892321683103479 l3.5263364131569874,4.500970236373036 -0.11023305246424836,5.2479200590804105 l0.684455143469336,5.298319233842596 2.75113049067574,5.819757484869831 l7.113323131305418,4.918706722112687 3.4977834412637763,4.469436216317749 l4.355044207625834,3.4814845047964336 " fill="none" stroke="black" stroke-width="1" /></svg>