<?xml version="1.0" encoding="utf-8" ?>
<svg baseProfile="full" height="330.91500482297977" version="1.1" width="166.00386154294787" xmlns="http://www.w3.org/2000/svg" xmlns:ev="http://www.w3.org/2001/xml-events" xmlns:xlink="http://www.w3.org/1999/xlink"><defs /><rect fill="white" height="330.91500482297977" width="166.00386154294787" x="0" y="0" /><path d="M140.89584442973683,269.45633464604487 m0.0,0.0 m0.1080171132110605,-16.824466569127228 l-19.806559756484663,53.28313674606211 -44.17895184463481,-10.630027844764998 l1.6512394647541417,-3.691463448353206 -7.387497141435813,-5.680027388573854 m9.100508469367655,-42.816415140265214 l6.887382670128188,-51.86595959749719 2.3219924845578035,-81.97249303328023 l-7.440522776825079,-15.975192584665873 -12.029747639653005,-12.81902532375848 l-2.1476126394042914,-4.70224508193428 -5.2068520272976855,-10.132156825449497 l1.45087806437408,-12.841773247613936 -1.7278278545187709,-12.886197436419984 l-3.2951460135300303,-8.617526259253525 -0.8846957551914214,-4.656822677398943 l-6.804205226567117,-1.6276789337505477 -11.141011163327256,4.5052221748712915 l-12.286939354869727,7.940277964484433 -0.9585780408818056,8.649774139471111 l-1.765280913869015,16.277324557310735 6.817109303470371,11.844489746700736 l3.2089718779369685,15.946559672175512 -1.8259971229364957,9.172919005569065 l1.3320132189318161,7.176912893964012 -0.8332105535530276,7.008045903716914 l0.85938349420837,7.144215368801647 3.478777101849236,0.5071818787414412 l6.988131938758449,-2.9869165474121018 -4.214958855957646,-6.098867511707022 l-5.546625427235021,-8.428691368083596 -10.618029523112268,-20.30778544789411 " fill="none" stroke="black" stroke-width="1" /></svg>