<?xml version="1.0" encoding="utf-8" ?>
<svg baseProfile="full" height="300.45821445864794" version="1.1" width="220.40727736096832" xmlns="http://www.w3.org/2000/svg" xmlns:ev="http://www.w3.org/2001/xml-events" xmlns:xlink="http://www.w3.org/1999/xlink"><defs /><rect fill="white" height="300.45821445864794" width="220.40727736096832" x="0" y="0" /><path d="M25,275.45821445864794 m0.0,0.0 m60.01237647471221,-30.327115320828714 l11.238654257801398,-0.1891920397429588 6.521744542607157,-13.990848695279725 l-0.18745524729921026,-32.82184868870299 -12.63530104209243,-5.832496080582857 l2.3614604386194635,-23.90298601443216 4.589162807823826,-14.164459394929072 l7.771640550834573,-6.860292812796394 -3.1692588682350498,-6.082785260569528 m61.88202719622883,-60.852422007148505 l-3.6494873463472075,11.35522971291155 -6.795722424375783,8.299429188539632 l-7.657975724403814,12.717048919222188 m20.800890835093824,-11.046358579286393 l5.353802985563802,1.196105781031486 -2.2386217940541178,8.848653285004714 l-8.118053625039275,3.5345523919048025 -3.773309112681549,4.605426093768338 l10.36316416657173,5.229445247378155 7.223497203979212,8.263315296925665 l-3.934330468349696,5.492790136337282 -8.712611574479965,-5.326734131457786 l4.491725716726475,-13.49886288534701 9.435826548712472,-9.075176083149865 l1.3244306967231527,-6.8355802927053375 -2.074430090531284,-7.8467367559767025 l5.057869226566147,-2.8534455963881578 4.1589725581069805,-7.7671934188758724 l-3.771788110580193,-5.167684741901045 -0.8604624287291057,-10.61038049419289 l8.745600420351824,-18.750506182204518 1.59950368105983,-7.050643386933963 l3.3022284693970105,-10.428455086453381 1.7515064406871135,-0.9000586203681071 l-1.4795923643166198,3.854168373738143 -0.6645478436525304,8.133290797420543 l-6.98660888559777,-4.4175292859585324 -7.521910484143361,-15.387877826617924 " fill="none" stroke="black" stroke-width="1" /></svg>