<?xml version="1.0" encoding="utf-8" ?>
<svg baseProfile="full" height="108.04292210270216" version="1.1" width="115.58256518492145" xmlns="http://www.w3.org/2000/svg" xmlns:ev="http://www.w3.org/2001/xml-events" xmlns:xlink="http://www.w3.org/1999/xlink"><defs /><rect fill="white" height="108.04292210270216" width="115.58256518492145" x="0" y="0" /><path d="M61.38945926510377,25 m0.0,0.0 m-13.81442954542827,43.48013069098048 m-4.630360016323421,-20.453621170325594 l5.698324892775677,-8.917744902761255 5.603153905744376,2.3696784782017923 l13.067900344893731,-3.078340788792453 6.187297099690506,7.136459293195079 l-2.177817556682784,2.371164135087854 2.9204768301655313,4.438058982079062 l-6.118755200532269,11.499595297429416 -8.834462206028014,6.841381052336895 l2.402600158187188,2.7282745040514733 8.35910202926885,-0.16075418978588885 l7.995164484748347,-0.24041998059697464 5.553763428982883,-1.0697084676581874 l-1.6782233159238324,-0.6885641488023381 -7.91195775207393,-0.3923734410744814 l-7.423611200234925,6.364905586278354 -1.7411236268909962,3.8133059157664277 l11.603535450139184,2.0014952570925004 9.787796538451582,-2.3730136230418775 l4.34473117688827,-2.844387046375584 -12.02740971256266,-8.358722699529856 m-45.34516904874753,-3.287724585788614 l-5.590282050684874,-5.84413469433708 4.7718575427058,-2.9191202052354845 l-1.7606945259595341,-20.502799304617927 9.667607095009625,-9.709817968685094 l8.697274062426045,0.38793607435516464 1.7468049071145808,5.087721755024857 l-4.859860428362033,10.164557410424575 7.382540567595995,7.4377148368591 l-0.7735457727531522,2.7762985523760206 -7.110431912345338,9.665601638227427 l-6.748630885685368,-7.233710959959801 -13.632625022673006,-5.537506752926637 " fill="none" stroke="black" stroke-width="1" /></svg>