<?xml version="1.0" encoding="utf-8" ?>
<svg baseProfile="full" height="156.21259034648654" version="1.1" width="109.89611714064026" xmlns="http://www.w3.org/2000/svg" xmlns:ev="http://www.w3.org/2001/xml-events" xmlns:xlink="http://www.w3.org/1999/xlink"><defs /><rect fill="white" height="156.21259034648654" width="109.89611714064026" x="0" y="0" /><path d="M84.89611714064026,131.21259034648654 m0.0,0.0 m-26.536277659831068,-19.209832809388544 l-14.248383030847162,-28.823535905973 3.3957538091424744,-8.420432938308268 l-0.8887049761607798,-3.444067892385228 0.7786045990594354,-1.5923294013274694 l2.174991434340353,-6.58573020723457 7.255016305199128,-14.79173753590798 l-0.11400166168494263,-10.053616699095615 -4.577915416481684,-0.5437483877784816 l-3.1393450893445416,9.91678607033889 14.056399773147227,9.184367166127846 l11.257326484059918,-6.557511115693298 -0.7339741033828842,-7.053505050511825 m-15.989803617275102,20.07425195425076 l-1.5323511576942312,7.6064328882719145 6.109256469534281,2.7270180014029557 l-7.570393678360193,10.724877668241481 1.285127949589672,10.981157435506702 l-1.044434558827635,3.5608304924228626 -3.8485253635844554,0.2995568982805172 l-9.322706362584684,-0.8151417421002671 m-16.110127019924356,-68.01085075298995 l-0.5516502687290229,-5.385828482635918 0.5617411885231272,1.4559092154221855 l10.810471352194615,19.229488400720353 7.838791389958733,8.421949620732002 l1.932370417794003,7.1991307140928384 1.6766774707913537,-0.1957572371105798 l3.768553315415245,2.4039768981221625 12.234673150700916,-1.2921629291764574 l11.00976464073569,-1.5836452581097005 -31.59400415943552,1.6374506109240576 " fill="none" stroke="black" stroke-width="1" /></svg>