<?xml version="1.0" encoding="utf-8" ?>
<svg baseProfile="full" height="240.00933601690343" version="1.1" width="152.3203905197462" xmlns="http://www.w3.org/2000/svg" xmlns:ev="http://www.w3.org/2001/xml-events" xmlns:xlink="http://www.w3.org/1999/xlink"><defs /><rect fill="white" height="240.00933601690343" width="152.3203905197462" x="0" y="0" /><path d="M25,188.142679598116 m0.0,0.0 m2.98236156489155,26.866656418787457 m-1.2994929635056556,-95.38196533208072 l31.939137250188956,-30.59829570389005 7.147839492536792,-5.681553656952055 l4.9232395230909045,-4.216487123757338 2.7966577987578067,-3.7062755711850945 m-9.004857475138127,-50.42475862903821 l11.011271598951222,2.7534352979743737 9.274675746789729,6.148586477649178 l2.2746784902524024,1.5409204427913803 8.452890821334407,10.210672182390034 l-1.3833570270976425,10.113363608320695 -4.975372810929058,5.738096060523452 l-22.812962777624442,-6.1142716477543955 1.612452463970972,-9.976448380909918 l7.471566592151498,-4.511595422161947 7.908754768486419,-3.9580646877212975 l6.801877059636158,13.128600811746027 3.4719155088635603,9.64029965222381 l3.7430334988485456,12.249178516406715 4.616415742788839,4.434489050398993 l0.7355922409963274,8.27625802501611 -2.806342029656349,5.847468873631074 l6.802980254818507,6.874746224160854 8.335045694800378,2.6358080528942054 l12.300389491542495,-0.49613118452493554 -2.7527405999763586,-4.922463206314333 l-6.977515877820135,-13.888102470347885 -6.386519397792001,-10.845993732865608 l-6.682548493510605,-2.3329428961555507 -4.459977246500032,-3.7934499038268403 l-3.447086885298327,-3.3206033916240956 -1.1292816826617602,0.9335004033253752 l-5.140988117802935,7.105669367722328 -36.4347943553995,11.312409751890169 " fill="none" stroke="black" stroke-width="1" /></svg>