<?xml version="1.0" encoding="utf-8" ?>
<svg baseProfile="full" height="294.01236879237285" version="1.1" width="129.74644143988675" xmlns="http://www.w3.org/2000/svg" xmlns:ev="http://www.w3.org/2001/xml-events" xmlns:xlink="http://www.w3.org/1999/xlink"><defs /><rect fill="white" height="294.01236879237285" width="129.74644143988675" x="0" y="0" /><path d="M72.38253964586465,266.86327260099836 m0.0,0.0 m5.95527381828147,2.149096191374455 l13.187497891904568,-22.30018053373256 8.743075351737586,-12.232427028931587 l4.478054732098462,-0.7252442952139996 -5.197193147340207,-4.672384200772126 l-0.6619589116755187,-0.809090444119821 m-23.737347675665752,-139.50752149723797 l6.244175544526563,-3.1865769566224245 11.587985491288748,-1.6267271375141237 l7.9817216577683565,6.616355832693494 -1.324388116873904,9.919743156426039 l-13.788652114353471,-1.006426520043151 -0.5904532948097524,-0.09406709511080885 l-2.7295045667470985,-3.1184097017668098 -3.202396340838182,-3.891953816690499 l3.001494919243598,-4.77371088327063 1.5782899280411318,-7.8937105855025935 l5.321164984923073,-10.20240039676065 -4.044297354691318,-6.0163364590982225 l-8.535271888891288,-5.068703271462989 2.7830802991116976,-3.0833825618721034 l-9.751751544196452,0.24472578972314696 0.6275443365509548,7.290467258370392 l-8.225116420013244,8.009378911871305 -6.60501397103388,4.835188343972352 l-9.713648956322036,-0.9429432909043434 -7.476745493588948,-1.8951605174377233 l-3.5324378926104543,-7.014388299158214 -1.4103522200663998,-13.954240566803293 l-3.2899439704992903,-5.438848165367244 -5.021066597800347,-5.425231155724381 l-0.03435812332332755,-9.3895168188854 13.034278370364452,-6.064335297311129 l9.14729673570097,-0.5943105881148194 -7.37238405291528,47.74740330731053 " fill="none" stroke="black" stroke-width="1" /></svg>