<?xml version="1.0" encoding="utf-8" ?>
<svg baseProfile="full" height="206.99537462793842" version="1.1" width="105.7140550994977" xmlns="http://www.w3.org/2000/svg" xmlns:ev="http://www.w3.org/2001/xml-events" xmlns:xlink="http://www.w3.org/1999/xlink"><defs /><rect fill="white" height="206.99537462793842" width="105.7140550994977" x="0" y="0" /><path d="M33.69313465812923,178.90624027862668 m0.0,0.0 m-7.721360991944744,3.0891343493117245 l43.763560229829544,-33.72999734825054 -11.478006476519921,-11.79503580745576 l-10.705239010396376,-18.007773767329443 2.215839796216341,-48.851128571014804 l4.989670031944996,-43.34991886620217 2.56517055292348,-1.2615202676857185 l3.0924108065309084,13.315471727375652 4.150406411768245,4.680484317342459 l7.668723231457295,2.1645766471178285 m-1.0639462244407765,31.689402388769796 l8.652423624117942,-0.10436634351863039 0.891268459881539,-13.345823122196983 l-3.9450267632976908,-1.8751156526615054 -5.676477983843685,1.627213473594313 l-16.40808443868997,6.402703288406067 8.784241419740239,3.7413824444576687 l3.8625480960466585,7.658235697776227 1.6900337406593453,4.599980594694846 l-12.563579781822968,5.502805832110469 -4.080798280139408,1.163997487932659 l1.4522292925313467,-4.669844832617939 0.4355748699084605,-1.7693865810951803 l-5.959915807638254,1.9194453535290448 -16.177231191626433,1.8900445891252586 l-5.939663666164417,15.520095113267306 -1.1879046051609303,7.168016027552866 l2.2862324764015143,3.6559672229462072 2.6600427427960014,-0.8654028136087022 l11.254815158350024,-11.461829559239035 8.749943227893285,-7.0010612238139736 l16.63904265798375,-12.817184355316433 10.08928031603804,4.348827979008262 l3.3122342188186327,-7.805154770671103 -11.466944095488651,-7.569666880799432 " fill="none" stroke="black" stroke-width="1" /></svg>