<?xml version="1.0" encoding="utf-8" ?>
<svg baseProfile="full" height="167.7509333005546" version="1.1" width="117.87876347846752" xmlns="http://www.w3.org/2000/svg" xmlns:ev="http://www.w3.org/2001/xml-events" xmlns:xlink="http://www.w3.org/1999/xlink"><defs /><rect fill="white" height="167.7509333005546" width="117.87876347846752" x="0" y="0" /><path d="M38.87489135261734,69.43782328929024 m0.0,0.0 m0.12314579760310806,-30.613703164368097 m3.913488991383709,-9.845253094126356 l11.235727959039018,-3.9788670307957834 2.6265705733078257,10.982032092902688 l-4.1220392725735255,5.476908557328138 8.390288008097443,5.7785451315718195 l2.7694946832778937,7.145479308740765 -3.922451765127226,20.56893131720889 l-5.689447667425582,10.435969516998975 -0.5420557376847431,-1.2519676882716761 l8.66294456328605,-4.733464066575201 3.1164391850347006,-0.272169626639316 l3.155943168507873,11.408395292210175 12.583155903340005,7.035749282880027 l9.511528309331789,-5.68102127231249 -2.9514199326942148,-0.5156543057497098 l-18.23996762548178,-3.450837977646531 -4.452759922627073,13.264425173715093 l9.435415370368663,8.231611692550082 -0.9240671922249266,10.918430184032736 l-4.044885566340599,16.625116015517207 0.7910038160656432,4.464344782386656 l12.2161630512983,1.320109889706269 10.361657428087824,-6.054450546947383 l-7.017344889169821,-29.453331731956414 -4.706563409478461,-4.148797487609912 l-9.346437976714602,20.827349711262222 5.79292690353873,15.833066425575643 l14.547350370222446,2.024844691529093 -4.101401811319486,-11.366053406805305 m-54.35839023618646,-7.272792949382822 l-8.688902429359864,-3.9788497710965363 1.600596117142558,-1.5757854600789767 l9.657937000830511,-5.309711705638431 1.7912214619207767,-0.7619583931932309 l-2.216532042271971,12.510272077213617 6.74199086988578,6.547459220228375 l7.1929961520635395,0.3583205056775432 -5.621873935330305,-4.125233197765539 m2.051724721278614,-24.327680800977685 l-9.279275394691608,-5.365006416460427 m22.946284263175162,-62.447903633872286 " fill="none" stroke="black" stroke-width="1" /></svg>