<?xml version="1.0" encoding="utf-8" ?>
<svg baseProfile="full" height="143.462061842638" version="1.1" width="155.57051690194413" xmlns="http://www.w3.org/2000/svg" xmlns:ev="http://www.w3.org/2001/xml-events" xmlns:xlink="http://www.w3.org/1999/xlink"><defs /><rect fill="white" height="143.462061842638" width="155.57051690194413" x="0" y="0" /><path d="M130.57051690194413,42.788558646042716 m0.0,0.0 m-29.973945426411273,-12.72216444150244 l-1.1186764362570922,-5.066394204540279 -12.45754775633095,4.568551572197206 l3.481148368340535,8.672884477428278 0.5533453113029271,6.437974240330588 l0.5414984077148585,5.407165151077686 -9.035842767465622,10.859537387405204 l2.214922477714178,1.9355625205130929 13.539201333376907,-3.0191392307689133 l5.079729405370156,-1.028454949762247 -5.334193394783592,-2.9854543684362334 l-12.662215294160118,12.219967280527987 -4.116639150314994,8.448925359977803 l-2.208256856126494,6.58522169860527 -8.083714846086112,4.7525687604669065 l-6.473641142616898,-0.2808688876134448 1.2778034521278991,0.6599882355743739 l-1.0581506039869033,8.4790829936573 0.534386972244825,9.940468681807417 l7.593456204542745,1.1558075823358056 3.3082375984289474,-0.06693552509757811 l6.897070121976042,0.42645663536880657 10.760412259392542,-1.403314523462107 l2.8477625938253825,-3.788022149911488 -10.893982703150664,-5.131503396508751 l-12.170723940223095,1.6619892042956363 -4.893494149543095,10.729942203677265 l2.847378710106088,8.223660888952141 12.858379811174514,-0.4131514003378445 l1.7450481713485273,-3.7962502943307452 m-61.16927363347429,-83.37329525140667 l4.776852130290995,-1.9270773409235398 11.088892186055947,1.9034200876218825 l-0.5422402096242271,1.4984434757434733 -4.1145214639790835,0.7515808362482318 " fill="none" stroke="black" stroke-width="1" /></svg>