<?xml version="1.0" encoding="utf-8" ?>
<svg baseProfile="full" height="187.66664140155507" version="1.1" width="167.86241268731283" xmlns="http://www.w3.org/2000/svg" xmlns:ev="http://www.w3.org/2001/xml-events" xmlns:xlink="http://www.w3.org/1999/xlink"><defs /><rect fill="white" height="187.66664140155507" width="167.86241268731283" x="0" y="0" /><path d="M142.86241268731283,162.66664140155507 m0.0,0.0 m-31.14944182446335,-36.243160678679395 l8.197309694492732,4.454083654394926 m-11.472919660276634,-55.037301440331774 l4.170252511550181,9.034199729018168 -2.6362073339193746,10.891940706801703 l3.387061537049406,5.627111698291223 -5.392783971682958,1.2278777444706834 l-6.313070443468074,2.6503388391993767 0.34781495980974353,13.569203375927831 l-14.385815997095209,3.1179723260123704 -1.145620222486512,-0.2547495170102776 l0.05900460237481475,-12.634594800406262 21.14416994444886,-16.67177138314705 l3.453537823654592,-4.140588296829005 2.2538099756624783,-7.967227078042122 l2.1525682887319975,-35.31423742065198 2.651470649420591,-0.9459179187834199 l2.955485651265307,9.37026018200915 -12.479125087204995,16.278395305212268 l-29.378528973830335,7.546115136756626 4.595818277767383,6.746126972439464 l12.376200308113146,-0.3063077521937707 -2.7212541187691084,2.6170673769548856 l-15.50161313893672,9.484904449756685 -20.1935782606302,0.9722090616346513 l-6.746457344217941,-14.197040254257145 15.920148435859755,-12.358878425761649 l29.018511844527158,-18.38167015106596 -9.57296725376895,20.423792416394843 l-14.424583153099288,19.023292853258702 -23.34660054703888,18.91919110450935 l4.3155846224575045,-8.383731312358224 -3.1536288324859063,-10.046946464439472 l9.639817433164813,-21.268969782727225 -34.486783084288845,-45.46763165791326 " fill="none" stroke="black" stroke-width="1" /></svg>