<?xml version="1.0" encoding="utf-8" ?>
<svg baseProfile="full" height="112.77075231851734" version="1.1" width="112.63588827869035" xmlns="http://www.w3.org/2000/svg" xmlns:ev="http://www.w3.org/2001/xml-events" xmlns:xlink="http://www.w3.org/1999/xlink"><defs /><rect fill="white" height="112.77075231851734" width="112.63588827869035" x="0" y="0" /><path d="M70.18584613004793,85.94355587031998 m0.0,0.0 m-13.88908890456355,-22.137182100725255 m-9.295350003222351,-7.657630870581934 l-2.157527043427893,-11.281152656520197 m-17.032462636493783,6.107634434294504 l-2.8114175423403585,7.8354052055603125 m25.068632118995033,5.873739327860528 l8.13120859350168,2.1791989819946975 1.0360119888971437,2.769401175198228 l3.4440075292398022,3.518683880519692 -3.2087721423413145,4.277618201227775 l-7.367667583931389,5.2871500160045155 9.258402577656954,5.0543308533644975 l17.874915790842728,-1.9415826871833586 0.7348021157238577,-6.546577016226642 m-33.69045425613962,-23.453596527706008 l0.38123813244615123,-4.533280297536974 14.979832392000587,-3.936579554181292 l0.9755911145828652,2.398933532198808 -4.3782926063260215,5.451821235770964 l4.287072001240829,5.59520413907865 13.013921778082107,2.603291545950117 l-0.9510259140629993,-4.087247363037103 m-20.67135170552139,-12.176879470848574 m-0.8979231526403708,16.363088338860216 l6.417050145351409,0.09349796888266276 4.335524014175174,-4.539530221266749 l2.2606086565739716,-2.4746983316350097 -2.0222129390176447,-0.29233306791280783 l-3.0859039703781193,5.630123987815835 3.4759185747646515,5.3245027053561005 l15.45659784840904,3.2842693871746533 7.778157176565236,-3.5371451306890243 l-6.915594759609159,-17.097860207169884 m4.0269136651401025,-22.96728021996654 l-7.890362872563315,-1.9308950642453848 " fill="none" stroke="black" stroke-width="1" /></svg>