<?xml version="1.0" encoding="utf-8" ?>
<svg baseProfile="full" height="286.75436537404033" version="1.1" width="122.22475304958748" xmlns="http://www.w3.org/2000/svg" xmlns:ev="http://www.w3.org/2001/xml-events" xmlns:xlink="http://www.w3.org/1999/xlink"><defs /><rect fill="white" height="286.75436537404033" width="122.22475304958748" x="0" y="0" /><path d="M78.93385618268226,27.27771071320805 m0.0,0.0 m-1.5350150512780483,-2.2777107132080507 m19.825911918183266,7.047276112729729 m-24.962551320428386,26.655342128901445 l12.984590482576976,50.667003220739424 m-19.158830512471926,90.06829025865565 l-18.085866310602476,7.373153159573023 -10.46453142982965,40.026949532695525 l-12.537563958832013,14.916350960745529 m22.79878936983648,-63.896741595535026 l6.523848162606279,-68.03964851415245 13.54221688381454,-8.76942586816968 l-6.275477391381585,24.849849857763118 5.324531184278025,10.432165553673507 l3.922225781007832,11.586531444220666 -4.400612988283916,-4.517641510964044 l0.014794997450584546,0.08783514021302175 -1.4436194638191953,-7.189513246077155 l1.9776109612776427,-20.759546078729088 5.464426208207867,-16.424852818746427 l4.590714780162719,-15.03842092454342 2.888819877520297,-6.891530897033787 l2.0330869237420433,-3.2671068740065805 5.633728011311679,18.854319284112584 l2.117965058985424,23.455204073208158 0.86141340938545,20.308475638038054 l-1.9237122300267362,17.80267174615681 3.0146400498533765,8.901293509614 l1.6266694352885398,12.39191965382922 -1.9487918142726908,7.842993149021946 l-1.5038349640370519,4.684332275431708 1.1616324438522663,5.368983528361877 l0.7505614016438583,4.888581399145608 " fill="none" stroke="black" stroke-width="1" /></svg>