<?xml version="1.0" encoding="utf-8" ?>
<svg baseProfile="full" height="90.0101952887066" version="1.1" width="110.22620770629185" xmlns="http://www.w3.org/2000/svg" xmlns:ev="http://www.w3.org/2001/xml-events" xmlns:xlink="http://www.w3.org/1999/xlink"><defs /><rect fill="white" height="90.0101952887066" width="110.22620770629185" x="0" y="0" /><path d="M25,53.64009370936074 m0.0,0.0 m16.4248442968832,-25.5735248133953 l2.608773867887331,5.346098273430795 4.072276337829656,10.712364507081688 l1.4349343720524006,-1.6355345298008717 -3.6015720990703786,17.990656023078177 l-5.830347042974911,4.530042118951371 -4.509149836437268,-0.5738059775359211 l-0.338539442148928,0.41763937517727684 6.128847937977915,-2.9641180200784287 l16.163893099910325,-5.332365614821268 9.660526308000437,-6.170132886399402 l6.060788141044007,-1.035237142144968 4.128624933838145,0.2772283800089653 l2.721311709661165,0.8625250022444545 -1.002998862008712,0.2575915239141264 l-6.884455603216035,-0.7057689544945507 -10.274373811279807,0.9309463588844554 l-9.311038643478797,1.4954657479513407 -6.104521807691836,0.3283198235140365 l-2.7343638987515484,0.39119804015161064 -0.8049386980712364,0.6275502237910638 l0.16150802251120525,-0.31513983618159475 5.928470649513436,-2.8795495050175104 l15.865631473371543,-5.063081744270108 10.386838764737064,-6.5884765992522 l6.648781767333951,-0.3477929992499286 3.226455768869505,1.027894188584317 l-2.4305073429679056,0.5987378718797952 -10.831884564370597,0.14051996229018554 l-15.770935814342181,-2.1959071489385282 -11.179177462479513,-4.450417754917581 l-8.313552033332124,-1.6480585110657988 -4.4437662813539305,0.8851370193407757 l0.6926515931671364,-2.2875035161757666 7.542834732821093,-5.693592595895447 " fill="none" stroke="black" stroke-width="1" /></svg>