<?xml version="1.0" encoding="utf-8" ?>
<svg baseProfile="full" height="174.6722376608446" version="1.1" width="182.4596915371739" xmlns="http://www.w3.org/2000/svg" xmlns:ev="http://www.w3.org/2001/xml-events" xmlns:xlink="http://www.w3.org/1999/xlink"><defs /><rect fill="white" height="174.6722376608446" width="182.4596915371739" x="0" y="0" /><path d="M25,101.01236671491377 m0.0,0.0 m18.926033681513523,36.9556712984328 l-14.863343704598062,11.704199647498028 16.264008387452265,-113.45326635550909 l1.1582304872164402,-2.290390795540832 2.520187747969923,-8.928580509794672 m-18.954415201121073,61.30626895892435 l8.067439659044409,1.0572479606138587 1.543757313935416,-4.965555303045833 m11.353857107930155,-11.450429087227818 l9.81106373059395,-5.120865035251847 7.664471495118062,-7.0158352999828795 l5.438108581165896,-1.29203303900704 -0.22750090634650166,-1.3082652981732956 l9.657500862748254,6.043441647718725 7.401475454367182,6.585137079727324 l8.49365224533055,5.761673235953811 2.59005491205639,4.023549868194898 l6.564786456810944,-5.096322593009992 7.664078132015982,1.7000687640205108 l8.659265439434042,2.780413499830281 5.083957494133503,1.3248539885405453 l4.152421382464033,14.116420987313813 3.299030807149959,8.299737235959151 l10.114628152175742,6.3830423051330705 2.795452408028886,2.1774195315774727 l2.275494819633376,7.2661232241020794 -1.4930908093790796,7.922952018824245 l-5.411111442948758,3.021119485353153 -2.3632831985095692,0.035442621248831796 l-1.0612859023489944,-11.286860687618212 7.778193723919881,-5.118328386669579 l7.556572220217178,-7.936240129819074 -1.3116598920182299,-5.083441870314089 l-2.550789856712943,-6.159415322152399 -9.174448746776674,4.60201249393562 l-5.247835434431239,-5.086001715453554 -3.1667571294517716,1.1804098787768114 l-19.500233526669497,0.4362849732112516 " fill="none" stroke="black" stroke-width="1" /></svg>