<?xml version="1.0" encoding="utf-8" ?>
<svg baseProfile="full" height="194.89415323295864" version="1.1" width="230.51867095309026" xmlns="http://www.w3.org/2000/svg" xmlns:ev="http://www.w3.org/2001/xml-events" xmlns:xlink="http://www.w3.org/1999/xlink"><defs /><rect fill="white" height="194.89415323295864" width="230.51867095309026" x="0" y="0" /><path d="M36.69332200895798,164.7069130302406 m0.0,0.0 m13.01990429892416,-9.795275757031753 l-24.713226307882135,14.982515959749788 4.057689734043072,-115.29667215917004 l20.415796907629623,-16.76570897294731 10.31872710838573,-6.709550465220769 l6.034290090034534,8.238505183891236 4.21167363050469,9.87885585473795 l-0.7397126534520521,10.800917764154088 -4.973483606291351,9.726691373568439 l-1.9610265318221969,9.459812525876172 7.830906279491153,10.246408460716859 l13.11360041004876,11.572716101610212 3.4935975926956875,4.366095087464549 l-8.92409709316104,4.813044806096617 -2.6737176156505416,5.5948391796413395 l1.2732832798653606,2.259856152046407 2.825005687410208,2.370774739821751 l4.961004809440507,-8.036437911604745 -5.465884446091895,-7.7613330960304845 l5.210099726396424,-2.607507665150071 4.681917061119206,0.7782778443543897 l8.839405146905417,-8.092791842228781 20.486667702560045,-0.5134035074402432 l9.541275006268464,-9.072526734861114 7.9735798349606455,4.3570876401594 l7.74387249129601,6.925341353216405 9.336222709070688,2.0778741331745043 l8.269725003718595,0.38312613487576985 7.326257655748237,-7.877408877271431 l13.818447932304595,-7.551518781653852 -4.394181094694094,-12.08426176394924 l-4.593464252714277,-12.853680750829687 -1.5456964115195664,1.4359582306309382 l5.848208622220648,8.491123383090823 14.337325610944424,7.681465860125699 l2.8471385778640323,4.19216675607956 -28.147180674318577,-33.78404647587421 l39.14139672187909,-21.53824279405978 " fill="none" stroke="black" stroke-width="1" /></svg>