<?xml version="1.0" encoding="utf-8" ?>
<svg baseProfile="full" height="151.93705225097187" version="1.1" width="151.24179988664383" xmlns="http://www.w3.org/2000/svg" xmlns:ev="http://www.w3.org/2001/xml-events" xmlns:xlink="http://www.w3.org/1999/xlink"><defs /><rect fill="white" height="151.93705225097187" width="151.24179988664383" x="0" y="0" /><path d="M126.24179988664385,126.93705225097186 m0.0,0.0 m-26.005233391946298,-25.791647387131682 l2.7566264706504082,-5.723206748090563 1.2972533158655946,0.8667232025747514 l3.815125597226411,7.513075220079937 4.248948241684382,6.268318642529255 l2.6970735347804466,2.4441642021523307 -7.179854103311501,1.0205223299792772 l-9.18576067313718,-7.166741292447594 -5.589965451356653,-7.736718616243963 l-3.653733794956473,-2.6522356079573477 -1.337431966556406,2.937591673857595 m-63.104847665586576,-70.46576338345442 l3.922162700371082,-3.451134486819437 12.547242147389865,0.6198243879448587 l10.553173791380258,0.5164311742513228 7.314805737051439,3.0094770408272513 l4.697749532816775,6.270918192522454 1.3346161376080505,9.192632933216274 l-2.7878049803158813,7.889398964646427 -5.0938453193837985,4.704330422546824 l-8.504409834450847,3.098043150850227 -8.634466547667639,3.073623403099336 l-3.1205497051583464,2.219828009737354 0.9017406702700771,3.216850901633609 l4.973544538412191,4.464807410771413 7.084850488479155,3.4611827982348555 l10.951060311003653,1.1429019639395004 9.795396963493298,-3.267102858499159 l3.784533601188844,-5.211049851629764 1.0753412107519975,-7.87711840127398 l-2.0744635739667685,-7.603585177171899 -4.689460201127585,-5.5953909329165885 l-7.926001138444618,-1.3341749200517343 -13.884649846227507,2.4260234797148184 l-8.427413655825827,7.496090041804968 -1.0082375399083305,11.412608069659393 l7.967631815498109,8.549226488310525 13.925148934096686,5.833037050086547 l11.336483195254306,-3.0209432180182283 15.385013108676583,1.0059067943165725 l7.848903409030914,6.605010269281878 3.5302513037057524,5.5138132466356335 " fill="none" stroke="black" stroke-width="1" /></svg>