<?xml version="1.0" encoding="utf-8" ?>
<svg baseProfile="full" height="242.5862527918344" version="1.1" width="93.67726672742462" xmlns="http://www.w3.org/2000/svg" xmlns:ev="http://www.w3.org/2001/xml-events" xmlns:xlink="http://www.w3.org/1999/xlink"><defs /><rect fill="white" height="242.5862527918344" width="93.67726672742462" x="0" y="0" /><path d="M44.87157699021961,193.6561991391599 m0.0,0.0 m9.134572252543219,23.9300536526745 l-3.574283949696858,-44.861718197727946 0.8870008930965682,-2.3973078362924727 l-1.9247253588566005,-12.130180729930462 -2.266890512143124,-3.9470476816852593 m2.7974914003209186,-5.290209512519291 l5.375062056044669,-7.7879265208417445 4.29379476084416,-6.975986549942252 l8.424586067326972,-6.5259432802558175 -1.6706132957515196,-9.73124434133256 l2.329695423476612,-9.16884557187264 -1.5005074364781141,-18.701953130997897 l-23.99789263141348,-14.191662853060409 -3.176844973229882,-11.292811016437136 l-5.135373283049531,-17.727994976362876 1.7542187880261508,-7.744225091409218 l11.284476406131544,-12.550891491190729 m-9.220275818336964,36.12248039101575 l-13.685067779074348,-12.466731013391922 0.7612868515795729,-16.628985556519684 l7.553360928119546,-5.865147231897852 4.404696952900535,-2.721920599181993 l11.651602007565904,3.7801214292202365 1.538779451218908,3.942553093638328 l-0.13524966143713102,10.84242865131115 -3.9221459889030172,16.933381953376138 l0.40655965183549275,0.645602385498395 0.5929146565561514,11.17412579663798 l-6.908015943681871,7.737260755752828 -0.16865333063064702,12.135768184412322 l-5.761554961384957,9.71811148507502 -6.486103797662497,4.171354544115942 l0.5281380866896856,-0.4851863683047253 8.03026399024835,-0.5948868704501659 l7.810495665463504,3.13877109616139 15.031646624839006,-68.76049382776026 l7.441865068284843,-1.37977709792519 -10.56618494022254,-2.0695337855283746 " fill="none" stroke="black" stroke-width="1" /></svg>