<?xml version="1.0" encoding="utf-8" ?>
<svg baseProfile="full" height="182.26999433129896" version="1.1" width="115.43825847394587" xmlns="http://www.w3.org/2000/svg" xmlns:ev="http://www.w3.org/2001/xml-events" xmlns:xlink="http://www.w3.org/1999/xlink"><defs /><rect fill="white" height="182.26999433129896" width="115.43825847394587" x="0" y="0" /><path d="M57.76965290658738,25 m0.0,0.0 m2.1327371373583737,30.807295293903383 l0.6561219704990897,5.641307378400871 4.135241851182315,20.014524576328448 l16.001222161875386,2.1384319249043413 8.959665384212432,31.565170744738953 l-2.874877705666521,12.071312281289687 -1.0193343089862599,6.745226547648571 l-6.994071071336294,11.366419535197304 -5.327103319657405,6.738357434019453 l-2.844705990624519,5.181948614867948 -0.001144318727667737,-9.724853127846515 l-6.013354187635446,-14.268831454855677 4.067583955919412,7.519208023829693 l1.459712495093108,-3.2111504374901036 -1.807835409646285,-4.356389653828706 l-0.20755475987355387,-0.19859391303753277 5.208222434846794,-8.242001001266472 l-1.942828931009249,-14.254864516791471 3.0921782298444542,-19.804095180611334 l15.988729949690319,11.16056219057635 -0.9225372658431031,4.247145090155701 l-4.815246182820688,8.93628216586892 -6.231904690696029,-1.0194936168897706 l-8.556158921516191,-1.4606801001049854 -16.06769265194937,-23.68851645651949 l0.6667990466943942,-11.390465287686592 -3.4329782404010847,-8.823464137225931 l3.844133371418097,-6.149861128480117 -17.062990314578432,-9.786037189471582 m1.2207097935840032,-17.216672896762095 m-12.147773397571726,13.662934244226657 l-1.932619020265735,-8.580249990545985 " fill="none" stroke="black" stroke-width="1" /></svg>