<?xml version="1.0" encoding="utf-8" ?>
<svg baseProfile="full" height="280.6513017509941" version="1.1" width="130.63051927396208" xmlns="http://www.w3.org/2000/svg" xmlns:ev="http://www.w3.org/2001/xml-events" xmlns:xlink="http://www.w3.org/1999/xlink"><defs /><rect fill="white" height="280.6513017509941" width="130.63051927396208" x="0" y="0" /><path d="M25,31.52115507772627 m0.0,0.0 m18.476685368645214,-6.521155077726269 l7.347108339719515,8.195989864782876 -1.9386951969194337,-0.1393312476844404 l-2.6451888485653843,5.072965275011604 -4.40916309216066,6.181673454298863 l2.0373585477808285,6.0213884114311975 -4.574532436891419,7.697858147681555 l-7.027273921720877,9.02096451419522 5.625241936346906,9.263506874875342 l4.3530981810802745,4.9378726208302846 11.382491296073697,7.243478364896758 l9.801343300750451,7.722755086418174 -0.03522400634075256,10.641164176338265 l6.4549827633611585,2.1688170183683195 14.42054921165059,-4.729968079829785 l-3.1663093806813567,-10.21809942898423 -8.627128389067925,6.40611110102109 l-0.32862865154365983,2.169817556928681 -6.731232935936699,4.761901976187605 l-5.491189465744394,3.613307663595181 1.83999985069005,4.346985621759042 l-0.8393201216741564,8.730781257773002 -5.174946489242853,6.393340082195893 l0.6280037677217609,10.527292081922731 1.9464272131492217,4.615521727038366 l0.5848161133709535,1.0608924739715497 1.9883758213229934,-0.14965724378642695 l7.4158489348612875,1.8925130356979936 16.43814559485961,11.728483890722256 l5.263832119410217,17.46660891916233 4.4333251321000375,3.233199865792001 l8.256205275238013,10.76003633087538 2.925513442318858,14.595078688039074 l-14.318157469029615,36.595971430325825 1.7814195626439921,12.82208023914253 " fill="none" stroke="black" stroke-width="1" /></svg>