<?xml version="1.0" encoding="utf-8" ?>
<svg baseProfile="full" height="163.01392356270577" version="1.1" width="150.24140194335627" xmlns="http://www.w3.org/2000/svg" xmlns:ev="http://www.w3.org/2001/xml-events" xmlns:xlink="http://www.w3.org/1999/xlink"><defs /><rect fill="white" height="163.01392356270577" width="150.24140194335627" x="0" y="0" /><path d="M125.24140194335627,138.01392356270577 m0.0,0.0 m-56.314977860927705,-12.301040928996684 l0.11345828021028165,-5.649898320615694 5.639592651023378,-5.76393045534888 l-3.828055307019189,2.0311985574543674 -1.0561783436312033,-2.800251399641519 l0.9761421337079212,-16.251703791992345 7.319718577536293,-6.477548126392458 l5.5880660700638884,-4.5808554352196555 -1.6479782975309814,-3.928020940741959 m32.15352167606119,-13.81363374800261 l-4.775504424286825,-0.7671020287418925 -6.309487765931132,-10.699135886922486 l-0.27037350139414107,31.67079824944317 7.062850836507973,4.421517575793083 l4.3652482894812765,-3.2535002718953563 -3.966362600771721,-4.03503389997503 m-9.289607416727904,-60.8157827109098 l6.50484983509406,1.0477491533092886 0.9104676653813079,1.4154552704609074 l1.2487939933769487,4.772576586675896 -1.812278966384823,10.74714609669253 l-14.077865886904306,2.5677983436041187 -10.76717705623408,0.5117836876754284 l3.2836574068076776,-4.384469643570151 1.9030813816047427,-6.132624278413992 l-7.736508119115616,-6.478081468564421 -7.920689986768227,4.744740134420346 l-2.1408625638849252,6.492682095412223 8.60585596440432,3.441586756658644 l-16.927452592580707,17.27410692790782 -18.972129884465982,-5.150106840220294 l-5.815876224263355,5.484955056142297 m-9.181408289724748,-16.206272170491573 l1.3163624034145651,-2.7989598796642525 -4.422294019484531,-7.209197161616256 l5.653349143200163,0.2526488759606754 3.246261597204921,3.8630976439825426 l0.019653612400453678,6.707765176448562 -2.3391600866884463,5.379589176249191 l7.131325076480241,5.18505715653845 -2.1185676188334845,5.449668512781211 m6.637215625942778,-8.109873142452086 " fill="none" stroke="black" stroke-width="1" /></svg>