<?xml version="1.0" encoding="utf-8" ?>
<svg baseProfile="full" height="140.2974199554101" version="1.1" width="99.15120982618947" xmlns="http://www.w3.org/2000/svg" xmlns:ev="http://www.w3.org/2001/xml-events" xmlns:xlink="http://www.w3.org/1999/xlink"><defs /><rect fill="white" height="140.2974199554101" width="99.15120982618947" x="0" y="0" /><path d="M74.15120982618947,50.08843605625955 m0.0,0.0 m-16.007401839255582,2.802783385706331 l6.373422215579621,-0.9872662358150815 5.597578923788474,5.297976045559942 l-0.683910263364067,5.677582746992897 -2.119497087375277,1.484538937508335 l-3.619822751444564,-11.146743473716818 -0.38472980187564293,-6.286518689630405 l-0.7507946631765178,-3.5641751478136974 0.5839775477853449,-1.74762516497792 l0.2059790993407251,-9.317360481059024 -3.1944766152845787,-7.301627979014111 l-18.238005875329566,4.080893441091829 -4.323918113653335,2.0986630611841974 l7.950426276175146,12.711830964989858 -4.954100122717252,7.274654908823049 l-5.868467002527204,0.21886343972012778 -6.707820620330194,-5.659866916541829 l-3.009649132525005,-1.8384138595467232 14.651329260828449,-3.238658531663298 l5.294148885763345,-1.5515917644587975 15.93263013283301,16.07646469703937 l4.2918098595598675,4.89165550895017 0.28986476682667167,-0.503615086401393 l-0.682116974031757,3.370992094745567 4.725353936329261,5.406793308121003 l-4.802479545836612,1.065510675314975 -6.558219961473659,1.3817489360859205 l-2.484800538628376,4.973110907124993 10.751670548020527,7.802845980692756 l1.3919976578430293,-6.41673173530967 -9.604717907361767,-9.631828134017404 m-29.252709823541714,32.39057248949147 l-0.9263836741043727,4.689442421629921 8.59397480399139,-3.624316062776569 l9.41957568855888,1.5727428417783569 2.943016092584295,-3.3561847155255946 l1.553176503175071,8.668073208994965 11.604681088790194,7.443767875872858 " fill="none" stroke="black" stroke-width="1" /></svg>