<?xml version="1.0" encoding="utf-8" ?>
<svg baseProfile="full" height="238.44201213332786" version="1.1" width="118.82059781499174" xmlns="http://www.w3.org/2000/svg" xmlns:ev="http://www.w3.org/2001/xml-events" xmlns:xlink="http://www.w3.org/1999/xlink"><defs /><rect fill="white" height="238.44201213332786" width="118.82059781499174" x="0" y="0" /><path d="M84.8099085989792,197.70106436934242 m0.0,0.0 m7.171612023646039,9.880999024830503 l1.8390771923665068,-0.016737171504116743 -10.643021413044083,2.605378953090681 l-3.993262478581825,3.2713069575683598 4.7248848542060315,-25.82210838573669 l-6.911657069440802,-8.704329371107251 0.704542059015976,-0.46257755305461834 l2.736522468659988,-1.0569098402744426 -1.3682628704469515,-6.22095480978858 l-3.988286529458163,-4.256891704442923 -5.125030754309717,-13.161157979411575 l0.30239027271567187,-20.95834234130092 -1.1964126153862213,-9.235390663028952 l0.9769285007043865,-0.19143853042565717 4.511732301611168,6.496203671536899 l0.2491774888503942,4.538405203955558 -8.435253273958335,2.5469550694197483 l-4.565799977886479,7.27120962421474 -18.247608532281667,-34.38390520150366 l1.4355474272067958,-8.698265031812054 -7.323555680744258,-25.075544556953318 l-1.919948827939765,-3.2445338674551483 -2.5222474473987444,-11.447138426378652 l-3.486353939909055,-16.903930235964346 1.3493402949590543,-6.560369027830234 l4.285656057075157,-0.29240210849175274 16.639594642109394,-2.5755166066435575 l-27.010212771319708,12.778572593253854 2.947317145570033,-7.198020303606707 l6.574369729158403,-7.856827249602749 -0.6262455956847288,-0.8739315919239596 l-1.1931751721702277,-0.03920155950547302 -1.3706924334393122,4.53511738082286 l-2.2553592456285734,-3.9118988260576737 0.28288477237968607,-7.476889904230591 " fill="none" stroke="black" stroke-width="1" /></svg>