<?xml version="1.0" encoding="utf-8" ?>
<svg baseProfile="full" height="359.1972618351333" version="1.1" width="244.49398313974154" xmlns="http://www.w3.org/2000/svg" xmlns:ev="http://www.w3.org/2001/xml-events" xmlns:xlink="http://www.w3.org/1999/xlink"><defs /><rect fill="white" height="359.1972618351333" width="244.49398313974154" x="0" y="0" /><path d="M25,334.1972618351333 m0.0,0.0 m10.340279132229622,-70.6426252588171 l23.605287141416483,20.1235094342755 -6.782368415080528,-59.60310192541155 l8.184072709026625,-21.314500052328146 28.992467308556606,-83.73243384485956 l41.77101829202135,-33.26854026350494 5.28032322191089,-5.6790771735436945 l-7.942967347248225,-10.889955335328462 1.9116131458277277,-11.671950246382155 l5.524996667739715,-12.575456923724595 4.107016415758751,-10.007514346722925 l5.697855617845425,-4.576866626334904 12.002678942569682,-0.24114742344257145 l3.601852127070265,2.2316604737487187 1.673011531849341,5.9253641233601355 l7.352611737744324,3.263156179150989 7.5411174849939515,-4.458441764246643 l8.02454683625155,-7.39770918914717 -1.1510374888124155,-1.605397495116521 l-5.702611099595615,5.250007334377469 -2.7468252222533516,10.402304005001547 l-6.02735477083018,8.397952981675587 3.616704354487168,0.6327939995656517 l-4.994481226542371,-16.25090814658633 -16.770438762514246,-2.7648026048882657 l5.124092638739157,-8.743581745903477 10.743089943684287,10.359484559952627 l15.76921199539233,-0.5937179931545511 13.096405047464067,7.06309111675811 l14.834048169682346,-3.516643553415899 7.817767010356893,0.21826051198671753 l-4.051532311792567,6.0501503037759905 -15.792362995748853,18.70405727127564 l-14.657416089732594,-12.764017874528184 -7.759101904667817,24.115933127891637 l-11.620236958592304,6.069489038429121 -10.853401418694077,-0.7115173906567751 l1.6421125727756114,-13.034351893295781 " fill="none" stroke="black" stroke-width="1" /></svg>