<?xml version="1.0" encoding="utf-8" ?>
<svg baseProfile="full" height="119.6174171500145" version="1.1" width="118.45760234063376" xmlns="http://www.w3.org/2000/svg" xmlns:ev="http://www.w3.org/2001/xml-events" xmlns:xlink="http://www.w3.org/1999/xlink"><defs /><rect fill="white" height="119.6174171500145" width="118.45760234063376" x="0" y="0" /><path d="M93.45760234063376,94.6174171500145 m0.0,0.0 m-9.677022439592392,-6.447331485910492 l-8.488937056167973,-9.235303856435344 -4.510419235017534,-9.279706270776902 l4.058618645512997,-0.4016328654688085 5.237870657732284,3.1565587935289967 l0.7004785580926607,3.253974985506325 0.7345281611633847,4.455329871754958 l-1.5233428116982577,1.1782635177855616 -5.119413567256311,-1.1407514534682295 l-6.361592953124493,0.4313589818496752 4.954373068960858,6.179159800617158 l8.896145664444285,2.2788083835431987 0.7849791537479204,-3.084174234811966 m-58.14386818743118,-25.713959917254048 l0.4140592739307435,-6.317240841087481 8.426944218556365,-2.950657950296696 l-1.440248880580265,-4.69631125599614 4.890058239648193,5.504492989045722 l4.3336732062983305,3.456900302999455 0.39381488882156884,6.0914283196729935 l-0.03241722747814334,7.108976179090902 -0.9321980741234384,6.986669330111279 l8.095734445308624,3.282174864763817 0.35693533766955704,-3.271375625945269 m-12.399347105961137,-50.44306771283317 l-1.8775228977809006,4.681430867089855 6.981498863087921,9.049063626635423 l9.383148035645219,-0.08049924572584723 5.330837500401555,2.9152971845678244 l-2.8108438612023083,2.5497310568062 -5.3496485269366705,4.263002272685071 l9.743156481849663,7.494682274446901 10.023090881152243,-0.3392484146189223 l-5.903536564966988,-7.288563031999345 m-28.060966617114776,16.12910514688248 l-3.326313012276082,-3.8854520976199356 -4.2946298571083625,-7.0598746093727405 l8.786471643679572,-8.725216873671693 8.70393176881834,-2.8187678586226848 l-1.9263284262576545,6.617817278331014 7.107214469824741,5.424014480075434 l2.1437927121259968,2.3279059168074516 " fill="none" stroke="black" stroke-width="1" /></svg>