<?xml version="1.0" encoding="utf-8" ?>
<svg baseProfile="full" height="133.56443001463543" version="1.1" width="114.51865708654839" xmlns="http://www.w3.org/2000/svg" xmlns:ev="http://www.w3.org/2001/xml-events" xmlns:xlink="http://www.w3.org/1999/xlink"><defs /><rect fill="white" height="133.56443001463543" width="114.51865708654839" x="0" y="0" /><path d="M46.37954466638109,80.23894349768956 m0.0,0.0 m10.408803137101073,-49.771827354046906 l-3.3089373320586772,4.64900096957188 -1.967467267162513,-2.6739965898406393 l4.78436703888595,7.565169084173295 4.084015714634356,1.3303363496626242 l2.7511817148873754,1.6989951046144136 3.912900939875561,-9.279173612574917 l4.48801630807678,5.514811494855454 -6.8401992213733305,-2.6778405412975785 l-8.216552835107926,18.724850030867508 0.9838162612751955,10.614450580606075 l9.178743768320276,5.302694544139165 14.558387103289162,-1.3326120152045364 l5.8571816081178545,1.3814205766359429 2.4648554814061643,-1.3145168019737392 l-12.350874551159169,-3.898232296398592 m-32.54837658202143,-29.11717737956789 l-4.84178430039267,-7.158537764769744 2.8937782767107545,-4.246668257489234 l-1.3580556212752433,-0.5500896196521419 -13.080768003748508,0.19802829930108026 l-3.232576304662119,3.1880827029843486 13.785106294312603,8.91944134719265 l16.02242687917985,-1.0355216507988034 -1.1256110023404264,-3.862675713621626 m-22.321817921174585,36.79627617254174 l1.6345359914614932,8.270275411905075 1.7963700207238853,5.302371670875876 l5.549046090936531,2.737799123246454 2.833353850237169,1.8247429911076267 l-6.8210350872620715,1.031487758076508 -2.7696199958573664,5.266076558341696 l11.457680617261797,8.91877277029856 5.979651016815692,6.009272573184243 l-3.713352086822908,-1.8238561087121712 " fill="none" stroke="black" stroke-width="1" /></svg>