<?xml version="1.0" encoding="utf-8" ?>
<svg baseProfile="full" height="151.54109667084546" version="1.1" width="134.8795363886809" xmlns="http://www.w3.org/2000/svg" xmlns:ev="http://www.w3.org/2001/xml-events" xmlns:xlink="http://www.w3.org/1999/xlink"><defs /><rect fill="white" height="151.54109667084546" width="134.8795363886809" x="0" y="0" /><path d="M25,52.63579081209169 m0.0,0.0 m18.044651107017067,-5.122171224875013 m1.5652575685877106,3.9578636445863524 l8.947097890083846,-4.338169850470799 3.832599333011715,6.044385804771717 l-2.78020708740491,10.043312738394189 2.3099306907159844,7.492768438325094 l2.7078607272489097,6.988620877036721 9.262353578699724,2.378736888080013 l8.749091498232833,1.1014866275420614 0.02415052530639117,10.115172663754763 l1.0889681601410455,3.454297492795524 8.38690575354105,6.095108496289294 l15.996865819432667,6.278730566044429 5.264376467468131,5.996537717135248 l1.479634356598758,9.542710857639024 -8.344678527612794,3.8759141217051485 l-6.461092302684543,-0.15194084820424614 -12.575922349955812,-0.9511357922579783 l-6.986334361406945,-8.81359647391676 10.258971597524466,-11.405393390461738 l11.308290479000172,-5.115694182978547 -3.903616415297549,-12.439441236527061 l-23.173614170722274,-32.91755807796312 1.8571625305154886,-5.032279189506926 l5.3556459688981635,-1.36539785923794 2.0675620504924512,-7.068924544637578 l1.7215030059815406,-9.253086665454292 -2.5075405796429266,-7.026648409699292 m-2.9910851546157247,31.01163901173364 l-7.618032555476287,10.566711375580697 -13.699238715002952,10.902842491826824 l-22.50096734393792,17.263460858712236 -0.4315320647934684,7.744372852634967 l1.3159198283979552,8.43232179516289 6.71402526154492,10.174052207174498 " fill="none" stroke="black" stroke-width="1" /></svg>