<?xml version="1.0" encoding="utf-8" ?>
<svg baseProfile="full" height="137.70337630698975" version="1.1" width="122.1321222756565" xmlns="http://www.w3.org/2000/svg" xmlns:ev="http://www.w3.org/2001/xml-events" xmlns:xlink="http://www.w3.org/1999/xlink"><defs /><rect fill="white" height="137.70337630698975" width="122.1321222756565" x="0" y="0" /><path d="M52.80523023852696,112.70337630698977 m0.0,0.0 m-22.518798360658046,-7.967020734910449 l4.199972627025823,-5.185308077919807 19.17933348116244,-25.03706231865359 l-7.043408810571725,9.024015767623807 8.400446314640497,4.816411203103873 l8.89820767248594,-0.6287267649734513 -1.3749581392119596,-17.552471945543388 m-14.37821988210839,-23.862410623574355 l3.100154013144991,-3.6860054821914487 -4.488844758353339,4.457506827881159 l14.672009722092387,0.9857494473933796 2.825046886610975,-3.1108425567236906 l-7.318313233136617,-2.014404150232915 m-0.5602427558053846,-4.420646626918778 l2.527964989237202,-5.393657285542225 15.210263056137958,-0.7491838442689946 l5.301406883993098,4.958140410541544 -0.5675295464354263,7.914199248671086 l2.3827261528432193,4.781181749512332 7.471631643895917,2.3142218709366995 l8.408044080139982,-2.5423572277060824 -4.2313515543837585,-5.960834367292962 m-21.68149438501044,-2.540141157239566 l-5.6115523157513625,-5.352033081657453 2.497523300722234,-6.838707686876731 l-3.871228551345962,-0.6322501733203056 1.1834707436781844,8.685640628562025 l2.141057648870474,14.565633597704503 -0.9979619779150919,5.85468574494503 l-7.640062141224899,-7.009386496817799 -5.118377409590625,-12.710731852168106 l-0.29726733449067805,-7.132623134666501 -0.26933413481556784,-5.733957214666591 m-15.594105889305196,7.111349522501582 l4.344658109363239,2.2992448232856364 2.9186495802085366,5.405727737722608 l-3.0556620873638005,11.910115566112557 1.5240861188854173,4.009131256463759 l3.867241579747691,10.068298869181053 4.694683238510593,4.982164896576571 l-7.277455344056502,-0.9197880607732978 -19.657639470388993,-16.96203623798744 " fill="none" stroke="black" stroke-width="1" /></svg>