<?xml version="1.0" encoding="utf-8" ?>
<svg baseProfile="full" height="185.72676827221883" version="1.1" width="154.67079024310783" xmlns="http://www.w3.org/2000/svg" xmlns:ev="http://www.w3.org/2001/xml-events" xmlns:xlink="http://www.w3.org/1999/xlink"><defs /><rect fill="white" height="185.72676827221883" width="154.67079024310783" x="0" y="0" /><path d="M25,160.72676827221883 m0.0,0.0 m14.860373640931588,-6.17352016528399 l2.128293216548297,2.8327492350245054 -7.5941577383205825,-64.21761912961634 l10.641391598058911,-7.092840164643134 5.249583591960302,3.4914697262610495 l7.253342339097279,1.3334180840458436 9.694060240693219,1.9203814645372432 l7.569917328878873,2.1877297966856326 9.58191636419649,-0.029773004484455606 l10.263766031564122,-1.0835149540058697 7.77606935703403,2.2322325607646745 l9.610482774754285,4.868658663126004 13.189560871096777,8.635472589075146 l4.198692625638188,0.2047299437742761 -1.1162215458758789,9.092148143201804 l1.3637195468519225,10.385432533408133 -7.299012893876087,4.412544111876917 l-0.9363199140201761,-0.3063713523611683 -15.117937965432713,-10.959417084234584 l-15.611807394522891,-4.414510145673749 -12.08751406672959,-5.5995974227366485 l-0.7107936621562472,-11.533192890583514 -3.682668731838048,-16.56467369901445 l-1.1455957736899347,-2.5678257660214365 -7.506789063273232,-2.196970036224153 l9.867200718898594,-0.4030662324906939 8.801303876632119,-10.32609775986778 l8.41658735229856,-2.0429312984479857 -1.5565669056860643,-6.110835702501956 l6.892066123794178,-8.924163167324004 8.420589633712398,-10.020019530181713 l-3.351822837144532,-5.120324036366153 -11.644214195135202,-7.223279174886353 l-21.87771493439995,-4.413192407049931 -16.20506808631846,0.08005101001276715 l-10.664061952056393,20.995902899727305 -7.593495444170217,7.763308872425913 l0.0005135741864642496,0.2093484967868231 " fill="none" stroke="black" stroke-width="1" /></svg>