<?xml version="1.0" encoding="utf-8" ?>
<svg baseProfile="full" height="148.26425153194617" version="1.1" width="113.06734562759496" xmlns="http://www.w3.org/2000/svg" xmlns:ev="http://www.w3.org/2001/xml-events" xmlns:xlink="http://www.w3.org/1999/xlink"><defs /><rect fill="white" height="148.26425153194617" width="113.06734562759496" x="0" y="0" /><path d="M88.06734562759496,123.26425153194617 m0.0,0.0 m-15.03902870365103,-17.55759790699867 m-25.33415479599159,-12.192351954677067 l-21.820914336588224,-1.3428194852397606 -0.8732477913641096,-12.751304597805344 l22.663998419102224,-20.090415501219482 2.6481980333277932,-1.2014661989767483 l6.522017512894727,10.51546389053128 7.1099288916520775,0.4284180487129427 l-0.05215836117118178,-20.956788426966817 2.4834766500599024,-7.475030712674713 l-4.617839953296598,-3.0318973013196993 -2.3851502903238364,-2.6158970795081653 l19.15055873586723,-9.992564305803937 -3.806260880742812,1.7061596501007037 l-9.009473306702892,1.6451786670226631 -8.074458642227981,7.316402594753173 l0.2576140918788433,6.064525306295981 1.373239497605249,7.586594966149207 l0.0818906489683513,5.686813740700096 -2.893717952173418,3.118860817867853 l-0.26912491135308114,0.7973290694930563 18.16315321217134,4.827173802305177 l5.541716459548225,-1.0134477912598696 -14.074845918256266,-26.62999972176058 m-2.177877248662317,8.104462553014917 l-0.4878889175523067,9.141342219504844 -0.8886928735298294,36.17549018040068 l-0.6918414220883262,5.228266483632856 -8.26308508490688,3.2477339057374355 l2.1021834116372755,-12.518981860209063 -6.036037326343726,-12.897628740532046 l-5.287713807182608,-3.806709358909074 -3.3776631182259877,4.429122587108616 l-5.183195014151574,0.9994338830603081 4.360492690598863,3.120005406654083 l1.0713602238767514,11.482628951751833 2.5041226887617363,4.719809560740827 l6.272011762624506,2.533258184430139 11.00918603309777,-0.005573060806979731 l7.582198016055718,-2.0754957602363056 -2.284077515151408,1.9889310469832577 l-6.01639679616309,9.297786987771502 " fill="none" stroke="black" stroke-width="1" /></svg>