<?xml version="1.0" encoding="utf-8" ?>
<svg baseProfile="full" height="127.78017661903898" version="1.1" width="173.03600414848046" xmlns="http://www.w3.org/2000/svg" xmlns:ev="http://www.w3.org/2001/xml-events" xmlns:xlink="http://www.w3.org/1999/xlink"><defs /><rect fill="white" height="127.78017661903898" width="173.03600414848046" x="0" y="0" /><path d="M25,30.24322694187772 m0.0,0.0 m25.376372777343388,14.253274024802032 l8.329516218022519,-3.0609123125603834 14.658686377023873,-1.193848360789023 l-1.0596532343027238,3.3465601714872326 10.779873086811008,5.135259529686205 l6.2700669823958215,-2.583786510967297 1.4002971225053407,10.340586342575197 l3.7359325463100133,5.813952585679158 7.867706528214176,1.4673338250692207 l2.335999290172013,-0.9893565959722539 3.8569267161901224,-0.30457365656203084 m-5.2853129073607334,17.57213361755274 l0.8921436377209343,8.344459594437215 12.623456365428956,-2.7573793562293516 l1.0553312605101173,1.6098125069192333 10.697554989932954,8.361850809975984 l13.642774687414784,-6.965064076368136 5.858331704147915,11.497679100608766 l-7.0933705079131135,-5.18930004045804 m-27.647480429012056,-38.99790607589352 l-3.0616267938330326,-7.331336698081153 1.9040969495395594,-7.028601178928026 l2.883862114716898,-7.895043888948338 2.180233190913145,-8.68902029891316 l2.485533233315603,29.89761445586942 -0.5368250572488843,4.1388423464202155 l6.102850804115119,3.892711557277877 -1.9116142653198815,4.0534468849355365 l-4.2983457195914605,3.691345029213009 -0.47003976666419184,-2.933418996703854 l-4.8539729954376085,0.03309374608728134 3.285367025736038,4.651451609685989 l2.7164596423850145,1.6398815116395689 1.9913898389871758,5.718102842495025 l-2.023598798972305,6.135302027522196 2.458392357238243,7.202702094483122 l-4.556826590597243,3.9747181347961074 0.5602825371537701,5.465355195765343 l16.282373526118203,0.21902817955214113 3.0742226654591853,-4.366069599437443 m-14.106188930789848,-15.873432167768009 l-6.88636925647475,-6.412610450365539 " fill="none" stroke="black" stroke-width="1" /></svg>