<?xml version="1.0" encoding="utf-8" ?>
<svg baseProfile="full" height="88.55747126431444" version="1.1" width="104.11860555659274" xmlns="http://www.w3.org/2000/svg" xmlns:ev="http://www.w3.org/2001/xml-events" xmlns:xlink="http://www.w3.org/1999/xlink"><defs /><rect fill="white" height="88.55747126431444" width="104.11860555659274" x="0" y="0" /><path d="M64.26473262493252,63.55747126431445 m0.0,0.0 m-19.07023917005637,-17.324985543267857 l-4.847376158769932,-4.294892537891884 3.5428050202141512,-0.5852792302796478 l5.304834334563587,0.7638064308679412 10.085655862344737,11.092992603751378 l-4.3357638972367045,6.089191132041214 -8.05878898036361,4.242984377980103 l-9.045565349224736,-0.49909294940466986 -4.649933700448506,-2.451456349119864 l-1.6532333536711963,0.7066363582560516 4.829004269376823,0.38877665591556365 l18.689104981704105,-1.643118760292815 13.924129812908314,-4.104540289275254 l5.969881608974308,-0.3840411516076367 4.169357651345235,-0.8489399692860844 l-0.06827429928015438,-2.6374995083085193 -7.6214948976490104,-5.631986800496459 l-11.883066922472535,-1.6832590180495735 -15.780107760865208,-1.506965060884738 l-9.767263929818508,-1.1216983116410746 -5.100584883539772,3.300069158162061 l0.2432825436213962,2.228444147906733 7.082326848589975,-0.5840808986676856 l10.013617150931672,-5.853675928742189 13.102730332356089,-8.319874460504485 l7.101007724612869,-4.943451462190443 3.970664545930352,2.2106135148468145 l-0.8134426964109661,2.78972750871211 -8.042577957819482,3.9376705934548677 l-14.722868947706264,0.8098561557444933 -9.82124710204596,-3.098450838325796 l-7.088067808951278,-1.556904473183464 -4.5642462356470155,-0.7072928266507376 l-0.35899126042893115,-2.2524699088197315 7.643755219982518,-5.084283625063179 " fill="none" stroke="black" stroke-width="1" /></svg>