<?xml version="1.0" encoding="utf-8" ?>
<svg baseProfile="full" height="151.17829694374728" version="1.1" width="113.14227226552933" xmlns="http://www.w3.org/2000/svg" xmlns:ev="http://www.w3.org/2001/xml-events" xmlns:xlink="http://www.w3.org/1999/xlink"><defs /><rect fill="white" height="151.17829694374728" width="113.14227226552933" x="0" y="0" /><path d="M56.38459656463192,65.61152426448243 m0.0,0.0 m12.00465486904306,19.15330400326141 l3.8577639593773827,10.248168163854169 -13.503314191427533,6.769161608619104 l-5.7326537920024245,-3.987355936980721 -13.435319668369534,-8.820445620025827 m12.167512695763977,3.1947789239284874 l-6.12675712004352,1.5293888197065475 m-20.616483316973326,-11.192662408385976 m7.053882522327495,4.325157360163196 l1.9270508534775832,-5.3320040980334635 30.51147437966117,-3.6560680781749677 l9.75773459511086,1.4822237793446604 10.78363944761373,0.16027443413766357 l-4.329068061935307,6.4213966914916405 1.1817804565008116,3.0360331587568155 l-6.4479276144027615,11.988189693163077 -0.8024541287151118,6.780379521081274 l0.7094036045555946,-1.5647038498181864 -8.995021375722377,1.2452528383842631 l-7.176283119954814,4.834088935228415 -2.487515411670093,4.897749541187249 l2.538874083335794,5.06861416427254 5.684911110291071,3.9858510341035025 l8.705730213282624,-0.9683917263469335 3.538829338351601,-4.128629865685796 l10.987231373421471,-20.669693350460403 -3.056958860742625,-4.4638130266505724 l-1.2875853632481826,-10.272304637995477 -0.5601496184704571,-5.225246064268411 l-2.367124732570572,-6.185018013737092 -2.03194039198245,-0.7147204314014199 l-2.898070469474191,-11.760073028255299 -2.781436629743129,-12.179336125754006 l-1.6909600085457528,-13.353546154362324 3.0727584093353286,-11.257524518829557 " fill="none" stroke="black" stroke-width="1" /></svg>