<?xml version="1.0" encoding="utf-8" ?>
<svg baseProfile="full" height="140.38309709361027" version="1.1" width="106.5197619086455" xmlns="http://www.w3.org/2000/svg" xmlns:ev="http://www.w3.org/2001/xml-events" xmlns:xlink="http://www.w3.org/1999/xlink"><defs /><rect fill="white" height="140.38309709361027" width="106.5197619086455" x="0" y="0" /><path d="M40.89687539433727,67.26310880851102 m0.0,0.0 m-10.632241671693153,-2.1157008087423255 l2.22605192110258,-3.4942230862133252 10.413255424989424,-4.70295890947729 l-0.5223333736956837,0.14888796141301314 3.293703770896433,12.131395623454267 l3.9160480197589247,1.8785936363741473 4.644139357930938,3.4221640364907713 l9.271326920564956,-1.270038538318134 0.6664772395404858,-6.947339174602847 l-4.883886898572067,-4.649358973628681 -0.4583241233889715,-0.40814774977952994 m-16.858131223041497,-26.14430922174226 l2.8207786475386847,-5.928143316665135 5.348519865303889,-4.183930287073679 l5.95564829567798,14.232214053545466 0.9237944063735101,4.246573719386226 l0.7579741899731166,9.107471896495577 1.2975495535750317,3.7418841164663155 l11.44448708861286,3.987813000241162 10.998049102860787,-1.0925770448337746 l-1.992288799296403,-6.225525733239574 m-18.082284837209748,3.5441722376854545 m-12.433572550516944,7.4254017967400054 l-1.3504874189842653,-4.203432877699625 3.287895691209266,-0.06951627641690543 l1.5469513987887145,2.3827874234714344 -0.9885725982465638,6.49306013876097 l-2.197531538034007,5.628407161822017 5.788616326667924,6.403647821046193 l11.409711254522742,1.3150358079880868 -0.29150057212578745,-4.590234524041376 m-40.49732278441459,36.48786994993163 l-0.7193754810058435,1.5680444262609938 10.497983787383033,-3.2910041758980957 l10.388103335712739,-7.947062662492328 " fill="none" stroke="black" stroke-width="1" /></svg>