<?xml version="1.0" encoding="utf-8" ?>
<svg baseProfile="full" height="157.33020236965774" version="1.1" width="142.491710006455" xmlns="http://www.w3.org/2000/svg" xmlns:ev="http://www.w3.org/2001/xml-events" xmlns:xlink="http://www.w3.org/1999/xlink"><defs /><rect fill="white" height="157.33020236965774" width="142.491710006455" x="0" y="0" /><path d="M30.33882492172506,60.88196958902226 m0.0,0.0 m34.045278535606144,18.210011887649078 l0.24900932727418806,19.308384158563562 -1.5126151447375031,3.8665640247751947 l-5.031031020321486,4.3484987773356965 0.3596415755782016,3.2017507948930137 l13.607439360740967,2.523058555308189 3.157123566063461,-7.132704700951238 l-8.85136961808119,-8.810938175613728 m-12.806407236016552,-1.7149691547958257 l-4.926136069480586,-9.255507164198235 -1.1742819157695752,-9.051309145519454 l-5.083724526472043,-11.129903641809276 -3.3546929878433778,0.6075475062884867 l2.035794414450867,7.168931101482941 3.5801920249569528,7.941648880569738 l-5.415159988044219,9.044905495414257 8.250931579308913,7.080382696300503 l17.00340966182106,3.082869670541338 -0.03277968980480477,-2.724061206024847 m-35.611787383480355,27.094014246674778 l0.434559415360543,7.78905817375128 10.86811023760363,-1.0767557862865682 l-3.791117549610985,-1.7309559961557612 -11.339211490827307,-4.167182166538752 m40.22354285322167,-95.2079872009682 l-3.9344464837251336,3.1604694421342803 -4.215201937244496,8.13754678929472 l1.378419719615157,2.3409192863280253 0.6045410593237465,-4.2454466620077875 l6.906913228727279,-5.927467136858856 5.688054896848269,-6.495318680486419 l-1.038546036847435,-2.1180242581124094 -7.258852224540626,0.9359733581207363 l2.237365189006301,5.969726654857419 27.681599580406154,6.27522142148112 l6.318643820124607,5.9739091305611165 2.8961729118171684,9.53704581241844 l1.0757213574326163,3.202689922459781 5.198662180947268,1.8975527051543295 l-3.661966080921927,-3.1952616492782995 m12.391085972264383,-24.54940932597033 l-4.247185631077793,-5.956854339473937 " fill="none" stroke="black" stroke-width="1" /></svg>