<?xml version="1.0" encoding="utf-8" ?>
<svg baseProfile="full" height="212.21063305311338" version="1.1" width="129.07197154560498" xmlns="http://www.w3.org/2000/svg" xmlns:ev="http://www.w3.org/2001/xml-events" xmlns:xlink="http://www.w3.org/1999/xlink"><defs /><rect fill="white" height="212.21063305311338" width="129.07197154560498" x="0" y="0" /><path d="M25,63.63553328249516 m0.0,0.0 m13.84292024551079,12.272519312054479 l8.466383113664694,-49.35680818240004 7.472223885751086,-1.5512444121495967 l8.802435784720107,2.0923272596805065 10.07170009882624,8.764470073020586 l-6.954723087771329,4.183260114897702 -4.440921398622025,20.18424437249373 l-1.1587245397670105,13.879034044831263 6.922926035608284,12.683705558365416 l2.875060882973247,3.7394140396661206 1.081524853816696,3.809974166381027 l0.9898640833063954,10.620021088342302 8.188402911716997,7.257590591400584 l6.40509257446801,8.445990462701731 7.384990491593531,4.848231056816419 l3.2537372093216197,15.730445069003233 -5.028341109150081,0.6218740722803051 l6.564259520739105,6.114995644256405 2.6142040128836697,8.380566437293016 l0.9817369289627459,2.4556915718171903 -5.8663567311670555,6.126852521024317 l-11.87820845707832,6.805529548546951 4.517008518087675,11.000254892523875 l2.4415942602868173,3.036393112022835 6.125594082275012,1.4297673557478934 l5.397587374648103,-1.5452810720413594 -5.964808756148705,-5.3935282363897805 l-10.390710912640827,-3.4570884937499167 -2.423741325672694,-8.46877992851093 l4.370635907346796,-6.4870042680495414 -8.492849292110105,-15.24074669512928 l8.023002727439387,-47.03612359507742 2.260377996226832,0.5346847487965795 l0.4623262992577015,-1.2005979421977973 11.449680243175226,-6.740324250164824 " fill="none" stroke="black" stroke-width="1" /></svg>