<?xml version="1.0" encoding="utf-8" ?>
<svg baseProfile="full" height="121.12066496850751" version="1.1" width="120.22267091861042" xmlns="http://www.w3.org/2000/svg" xmlns:ev="http://www.w3.org/2001/xml-events" xmlns:xlink="http://www.w3.org/1999/xlink"><defs /><rect fill="white" height="121.12066496850751" width="120.22267091861042" x="0" y="0" /><path d="M62.94975824956445,38.62267442487267 m0.0,0.0 m29.844078687231807,46.30859494487699 l-8.376507346199325,-9.635577008306152 1.9442892464933919,-3.3079784387418436 l-3.368754940379338,-39.210509177427994 -20.156176378203437,0.042470418422633216 l-16.413565739495414,4.3035293391429175 -6.128915334491259,-4.6389852703110845 l2.56789549333474,-7.4842192325281385 43.24062919456637,26.929832958680972 l8.253309419137318,5.179202129847355 0.8666303670511238,3.64834613968661 l-2.9866372576619,6.391592801297714 -7.082020839192869,7.3201239894754755 l-5.208550125138198,2.497701503403438 -1.5810473984298037,0.05653285525050185 l2.975684833286284,-2.841455716285733 -1.8839297477213406,-0.04917431425828067 l-4.6661347168610385,6.686410654523957 1.0898365088155832,4.944198383748282 l5.980766163826858,10.357353583137218 -1.202923666516016,-16.700272737397803 l0.5579206912853485,-1.675965587872279 0.7270740159636768,-0.2245483186686617 m-35.88561669893101,6.290230521091749 l-12.263068956996767,1.4898425310480008 -4.708502747448858,-6.003053256824742 l0.4458662261270191,-14.28684579987669 2.448235496607494,-2.0466195678716192 l-2.9332718367876724,2.2410668623828998 -4.046350862837191,8.942879233648583 l7.8710537357656785,16.877004902240895 3.2079512997035153,-4.129989256519746 " fill="none" stroke="black" stroke-width="1" /></svg>