<?xml version="1.0" encoding="utf-8" ?>
<svg baseProfile="full" height="281.1069708563937" version="1.1" width="147.07632547495905" xmlns="http://www.w3.org/2000/svg" xmlns:ev="http://www.w3.org/2001/xml-events" xmlns:xlink="http://www.w3.org/1999/xlink"><defs /><rect fill="white" height="281.1069708563937" width="147.07632547495905" x="0" y="0" /><path d="M25,256.1069708563937 m0.0,0.0 m12.37282391648764,-50.07179710078004 l-2.3606693084854715,-45.03859616486538 37.38589366049117,-49.58250448013178 l-9.78089276304331,-5.1060234004960545 5.469117470653284,-0.6068421949149069 l2.58598454327832,3.8099772100870375 0.5046833774708905,10.244021773029747 l4.230841393429365,6.497967970592755 1.8313581319367238,0.6226566016256313 l4.5771374036865575,-3.3704832029271996 2.508092345090153,1.7739054817719857 l9.05438382686231,0.8129711477003729 10.595971854711298,-1.5556312520743343 l7.43729518419026,-0.04931069370248273 10.664304438199851,-4.218504015497493 l-27.794404157812,-7.7993420852867965 -19.866702955925394,-4.383170026160874 l-2.975869624142807,3.455363916745627 1.2213359628137535,12.479149756678293 l-2.1607101010591543,3.710927230311716 0.3904401875479735,6.402236697666495 l-6.668926508121111,-0.053667437581877975 -17.728174958240615,-38.2026958797022 l-9.271799569284733,-12.85792420203417 -10.4079348984375,-9.253243560576271 l-0.07408149787019258,-0.8445719371296401 6.916679126039558,-0.5790629444722969 l5.465159783382357,-2.785445616279195 14.900565678430961,-9.716942154566336 l-2.9826396664650345,-9.036189874528455 -2.6481631859710983,-8.540030731289747 m-18.31918691923128,-7.279173023657172 l2.4593188340334113,13.606726368174854 3.2594219326631038,3.3104068236552164 l4.303629688690944,2.3067548212676745 12.259520348588522,-6.14965543613135 l13.73956362453835,-4.213273937005125 16.878434468103904,-18.845955303909943 " fill="none" stroke="black" stroke-width="1" /></svg>