<?xml version="1.0" encoding="utf-8" ?>
<svg baseProfile="full" height="135.84691447241823" version="1.1" width="90.88726606136113" xmlns="http://www.w3.org/2000/svg" xmlns:ev="http://www.w3.org/2001/xml-events" xmlns:xlink="http://www.w3.org/1999/xlink"><defs /><rect fill="white" height="135.84691447241823" width="90.88726606136113" x="0" y="0" /><path d="M61.02817400750874,25 m0.0,0.0 m-20.865506662902035,5.944269753618956 l-1.4468604317326312,0.8867764544089984 10.37701113558342,-4.211800127973982 l5.523714524849798,29.127496150098615 2.6837464471381827,5.440463136652684 l3.9926304341887917,1.4977091148209138 2.38653816460631,6.923196800544227 l0.9797824304117254,-6.460170662335736 -5.9374320643936995,1.3149732991453726 m-7.261278165014754,-0.4377988395826271 l0.8778200672764486,-0.38731260436675696 11.890465138011571,-8.808628462048924 l1.6584610358292629,-3.0233760388599444 -7.303087333863529,-4.367387679636505 l-1.60666856080992,2.786095925230031 -0.6797494255106029,5.3177815205989205 l0.28786233988334614,0.329946901482476 -5.626013978969917,6.640021711286963 l-7.521057398174685,1.8548117522212904 -1.0061104521101414,4.136268360040558 l6.10349257317385,1.3977058333065135 -8.533097740441669,11.016587131719664 l1.3198827421718984,6.944365131828465 -3.1811445507987206,6.090262919060745 l-1.6268018937589657,15.894656991157312 1.4513552607911333,-2.311106871111086 l0.9077254569888976,-0.8496558520820541 -0.5057188577175432,-3.0266209500387524 l-4.650605614712333,-2.026520240837666 -2.359744573287948,0.18331290598373065 l16.70680892528325,2.004103262058363 2.2771982437854943,-9.117123187955448 m-23.06093586352123,-38.47597638933858 l4.40205409622408,0.7971732552653915 -6.682909455985877,0.9970918788112842 " fill="none" stroke="black" stroke-width="1" /></svg>