<?xml version="1.0" encoding="utf-8" ?>
<svg baseProfile="full" height="109.04811970625656" version="1.1" width="102.68822110125953" xmlns="http://www.w3.org/2000/svg" xmlns:ev="http://www.w3.org/2001/xml-events" xmlns:xlink="http://www.w3.org/1999/xlink"><defs /><rect fill="white" height="109.04811970625656" width="102.68822110125953" x="0" y="0" /><path d="M47.95955066643102,25 m0.0,0.0 m-22.95955066643102,20.721943622518843 l9.574970111553965,-9.892004301226573 3.7086747816852,-2.613466185429949 l2.696270369506027,14.533184108251664 12.157268548674223,-0.49893353558547293 l5.83893009564542,2.365243392175163 1.8647717363464111,3.7933381704759093 l-1.249563528465354,4.092919428424922 2.9292674245626946,2.666886088643885 l-8.542699000583248,0.39322539261376893 -5.2401975687437545,-0.20588699273550526 l3.2842381001079817,2.4257470019934555 21.904437425794402,4.425567493539573 l-0.47512313477135926,-6.759077737337617 m-28.737776075380282,-11.330217286331722 l-3.898530243540937,1.9276222880792553 4.486437111047055,-3.561986869886001 l4.301903141747225,7.0412290770094454 2.9964997615874904,0.08367124849591866 l3.5800636983103176,0.05308138636590792 3.4398381042060886,-1.8575382761817467 l3.143062693477601,-1.959730528325612 3.3309871716834643,2.94115080322777 l1.2585448649324775,3.945175359261842 -0.23255226409985244,4.880153694060308 l0.783910495061177,4.457409900089219 2.8802091071190596,1.9533853306111255 l-3.894715609369018,6.001267699527147 1.787016022392767,5.704363170874102 l2.70559208325281,-1.1354477483919538 5.199661871242515,-1.851402809631837 l1.1068238062769618,-3.878852231120228 m-12.593407665287835,7.649629663491058 l-2.15589942371628,2.536469888710485 -0.3192277637563262,-7.7439411068828585 " fill="none" stroke="black" stroke-width="1" /></svg>