<?xml version="1.0" encoding="utf-8" ?>
<svg baseProfile="full" height="115.51174080049033" version="1.1" width="96.27085682449672" xmlns="http://www.w3.org/2000/svg" xmlns:ev="http://www.w3.org/2001/xml-events" xmlns:xlink="http://www.w3.org/1999/xlink"><defs /><rect fill="white" height="115.51174080049033" width="96.27085682449672" x="0" y="0" /><path d="M63.67831711177554,25 m0.0,0.0 m-11.397783260131868,13.333613310134007 m-7.976681574858531,36.75686908924911 l-1.984475668298357,-0.06318003576976171 16.725779201362457,-13.015416496852092 l8.228789189229222,3.3505791712027677 3.096256326995959,6.94233836138439 l-0.01782191009433335,4.014646924955021 -5.171543963574852,6.587897111752796 l-5.569938836395313,6.48288333335469 8.514402390732982,1.1215100310794102 l3.145557817753806,-6.574243894161903 -8.206749516141231,-6.271339473080492 m-30.062233352500527,-6.458659674097384 l5.189286345730318,-7.873751240149516 -0.17686170962251987,1.942860223694101 l2.0770410658456417,2.7203250152337133 -2.3348698616742056,2.4834178872282022 l-6.5849885656193425,3.552052231811297 -1.3802627489566783,4.080378854002859 l10.230172057358299,7.679650045426124 1.9049594125987523,-2.9390480871572193 l-5.553577716518801,-8.843806644559757 m-11.372772234996408,-13.733912683038785 l2.2495274145615185,-3.44596178131138 1.824814661210277,1.2930878562215187 l7.9686065669730874,3.9150613216713235 -4.346598975879754,8.928208133001776 l2.6276426285565213,3.9815024603959257 12.363880141090583,-0.9304635532939792 l13.181127084816486,-4.870655570715104 3.1380849095225973,-4.137706267914354 l-12.12869047839909,-1.8189921348976068 -7.5427443760829656,-1.6932207686408307 l-4.211461645477038,-13.05707562076957 -4.794537059326696,9.930127871476753 l8.933288848633444,0.9897402824089593 -3.0771379554641407,-12.615762396418786 l-8.165122953297685,-16.46587865611108 2.6853285513809126,-5.168666040247422 l-4.726837409455526,9.222886527589617 -4.588406484918094,6.343319801367278 l2.2569571412501093,-0.6685216716715994 " fill="none" stroke="black" stroke-width="1" /></svg>