<?xml version="1.0" encoding="utf-8" ?>
<svg baseProfile="full" height="230.47525338781864" version="1.1" width="148.39085487800756" xmlns="http://www.w3.org/2000/svg" xmlns:ev="http://www.w3.org/2001/xml-events" xmlns:xlink="http://www.w3.org/1999/xlink"><defs /><rect fill="white" height="230.47525338781864" width="148.39085487800756" x="0" y="0" /><path d="M85.21862238981495,205.47525338781864 m0.0,0.0 m10.692495694659105,-4.350818674816822 l16.26993722848815,-3.0146200306347883 -10.354238298805262,-23.987654411028107 l0.4031658118567266,-4.325110012386174 10.963136839275045,-4.1239060199966255 l6.764782604450057,6.636665960111303 3.432952608268796,5.445496209461608 l-9.875570563993575,6.649726003576742 -5.72208440185596,2.9122413901144597 l-3.1671456178124666,6.254482480389886 -6.642137896300704,-6.869033988559199 l-3.5804612447714956,-2.0146931149580003 -2.6058484969098528,-3.311957798317693 l-11.727222257555411,-4.106439781019598 -11.008341735456352,-1.2776430704245734 l-5.993601357753143,-1.7014771186572515 -9.72416572744444,-16.131647519426416 l-5.186874452014824,-5.556480429531111 -1.3225130213272829,0.9214045315309816 l-3.2143366896216223,-3.1580517853680776 -5.825841908811444,-2.923436723216236 l-5.988097586284236,-3.29935814900082 -4.8223440759441205,-4.305795327101157 l-1.984267844150629,-14.71715637872473 8.61666806020215,-17.025044225496355 l7.731319353936055,-9.938281160341402 1.1948201136130416,-6.821797843489181 l3.057805501198095,-3.1739159263597463 8.44660973582212,-2.460339077499035 l5.614402059635946,-7.34252139326007 1.582271803981358,-4.928630891337075 l7.694497972490555,-9.745648400092417 9.363909162808747,-5.35999858321159 l-3.0865464331917503,-11.025242872270242 11.860847878271523,-3.0284859308649246 l-2.8230256304398718,-3.760185973384223 -15.840158678188256,-8.3765995163412 l-0.3620998715727941,-7.133297835888781 " fill="none" stroke="black" stroke-width="1" /></svg>