<?xml version="1.0" encoding="utf-8" ?>
<svg baseProfile="full" height="251.1015917964681" version="1.1" width="207.3363224015169" xmlns="http://www.w3.org/2000/svg" xmlns:ev="http://www.w3.org/2001/xml-events" xmlns:xlink="http://www.w3.org/1999/xlink"><defs /><rect fill="white" height="251.1015917964681" width="207.3363224015169" x="0" y="0" /><path d="M182.3363224015169,138.51766909836314 m0.0,0.0 m-60.38580515582281,-16.68646826054694 l-1.1660259586853234,-4.444484686321449 8.056655523919968,-6.378189669777985 l27.33962576089449,1.7809780935985364 2.332903049913092,7.418464339714581 l-6.230740280158458,0.059453921182870406 -10.70871842964107,-0.6501119585071552 l-10.283036792165055,-5.49158478999567 -9.77319234327297,-8.160961805167574 l-13.04167924295322,-6.083247334044279 -14.075950240619683,-0.7838634889259144 l-13.4537392219158,0.06998080022557862 -18.70200841676851,-10.093861581305333 l-6.88020412722929,-10.66765875093643 20.373203797752847,-2.9621135921112294 l-7.816238093829286,-26.7979148688421 -23.479914215737317,-23.646085466602642 l-2.365915493695479,0.4009577626691718 1.252355526692297,10.695567440373166 l8.090282189424665,9.98766263994173 -8.010840383810892,25.46453007467189 l6.773669287867303,3.9252344419705025 11.56868235575915,15.15341094195839 l-16.431543833902165,23.836888992702534 -3.6735127420899625,13.05725616007837 l18.936679517623027,20.165210570871665 0.6520217013864404,24.54102315008779 l10.810359563148738,19.194476485899077 5.509165571122687,4.210332147328555 l9.084593326536618,11.7076884883182 7.111714088892566,-1.5226768579561645 l-35.0359531402753,-75.17601842720207 -0.66192082947158,4.4735720196604944 m-33.05129472040667,86.60885595147704 l24.050776142553975,4.377619813617784 " fill="none" stroke="black" stroke-width="1" /></svg>