<?xml version="1.0" encoding="utf-8" ?>
<svg baseProfile="full" height="143.32179947123103" version="1.1" width="120.47540884276218" xmlns="http://www.w3.org/2000/svg" xmlns:ev="http://www.w3.org/2001/xml-events" xmlns:xlink="http://www.w3.org/1999/xlink"><defs /><rect fill="white" height="143.32179947123103" width="120.47540884276218" x="0" y="0" /><path d="M95.47540884276218,94.40697829126418 m0.0,0.0 m-37.55129959405229,-69.40697829126418 l2.0407828767509018,4.445495676554197 2.7896636241901875,10.968893624705753 l-1.487195477174719,9.383386660370858 1.371131948612683,10.397546324504773 l0.8757099539735202,5.748831255254914 -1.0084260346188727,6.001955668224805 l1.9599339985075133,-4.32017306874534 -2.8043114916813083,-1.6202592901305994 l-3.1313814190800646,6.078510359388321 0.07331270425315908,3.0774996668161974 l-6.267739850176199,7.651455633997224 2.4268077265406487,10.311456440738855 l6.909612074546758,-7.701004836625193 -18.151138907236692,-16.16042633049548 l-3.480854235154093,-11.974796532438056 7.100980575316164,8.428038872286656 l1.751661140377913,7.2884575457540945 2.526176722464848,9.0686186309336 l-1.4123043837539688,8.392112418695758 1.5963615542486258,-1.1364755879195854 l-2.9220319402406734,4.595467655731406 -0.8324789417621838,5.094454960090249 l4.050972409775759,2.9270855706392918 -7.82991516000853,0.5505790276712696 l-5.265064138785074,8.00606346470198 4.645129737601453,4.929642745488572 l6.738020019208577,-6.323903888059002 -8.880887637941708,7.115751438357633 l6.636698804872886,2.0975353647378734 5.526799094527853,-9.728833062652756 l-1.6014227582192249,-2.7688046528512182 -10.981511007796486,-11.73600167126692 l-6.957669803490691,-1.3215619799519858 -8.929531027358875,0.07421700884364557 " fill="none" stroke="black" stroke-width="1" /></svg>