<?xml version="1.0" encoding="utf-8" ?>
<svg baseProfile="full" height="271.1326575960397" version="1.1" width="224.60541372065776" xmlns="http://www.w3.org/2000/svg" xmlns:ev="http://www.w3.org/2001/xml-events" xmlns:xlink="http://www.w3.org/1999/xlink"><defs /><rect fill="white" height="271.1326575960397" width="224.60541372065776" x="0" y="0" /><path d="M25,246.13265759603968 m0.0,0.0 m4.596285108642861,-68.81278185008615 l21.628176159128365,8.745244685818285 16.588523813563057,-39.61814330960854 l-3.476092554208565,-47.13168366847424 51.00214728157243,-19.587538689180022 l8.876785740908765,-1.5208937300447163 6.896225647519183,2.689621096859809 l7.447739196955287,7.2134419638678855 6.380905884742654,8.495178463715716 l12.56986136721462,4.893422193058962 10.427401079584746,3.0455193460995558 l7.869213724606353,3.9910848541966772 8.300217217108889,7.13847299939635 l2.9641718648991393,4.5522168243416745 3.885623547645768,6.553400139960944 l6.7804747904004685,9.309174561664081 1.8677538503737878,5.811090355759207 l-7.114664799581691,1.658533484154378 -15.19292435050867,-7.1150303220723154 l-0.9260290274960509,-0.30011232557965006 -1.1347262604432702,-9.83858498257025 l3.6840742174132313,-8.506923664748186 3.2587175280396927,-0.5781345982847147 l7.754976257358526,-3.0692010257366724 2.862245703389726,-1.7069295029079412 l-4.333116946862534,0.8997256856369832 -4.820196407469403,-2.3126005085545223 l-16.599669500073094,-10.891050139949186 -8.525600757578193,-8.201105570727464 l-1.9230220411766545,5.614445112688615 -5.162656055520923,5.255286270715276 l0.8265472948487218,14.163403915898387 7.096695202192695,11.19187246713235 l-37.902869574606704,11.314954972972924 -4.712061073868474,-114.47803310145326 " fill="none" stroke="black" stroke-width="1" /></svg>