<?xml version="1.0" encoding="utf-8" ?>
<svg baseProfile="full" height="128.912265974136" version="1.1" width="111.29060127643221" xmlns="http://www.w3.org/2000/svg" xmlns:ev="http://www.w3.org/2001/xml-events" xmlns:xlink="http://www.w3.org/1999/xlink"><defs /><rect fill="white" height="128.912265974136" width="111.29060127643221" x="0" y="0" /><path d="M86.29060127643221,103.04015099209073 m0.0,0.0 m-46.6709922445346,-11.671270210479555 m8.382587220405535,-18.08309008643005 l9.119157085688263,-1.4663663210030424 1.9797235406024833,5.367211017975708 l1.128374680302065,5.159722945078566 -5.519373694052965,3.3191233502209108 l-1.7662662755535574,-2.3665309180592184 9.641097836862802,-1.3904117197334434 l4.071078045758291,-5.453905760489057 -4.41841344085856,-0.7823249018076361 m-2.0051585811628216,-5.940390296333695 l6.84629677064482,0.04664790420486526 -5.005548119256074,19.90868146892251 l3.2813176484699116,10.40024903632427 13.824839430873647,3.8247694736541504 l-3.734830799686615,-7.455523277450379 -5.564147796501615,-14.1888232301807 l-2.549775093221114,-24.65681058581433 -1.729947269857844,-11.504943058358457 l-6.751835254657979,4.989706901119035 -1.7698755002040312,3.831112674180305 l6.350250307702631,-7.0849874321822215 8.477909702936252,21.970287054051333 l1.4533450393847227,-1.0599740756126619 -2.8433917950703584,-2.417171370043093 m-14.015572584951594,-31.777847142953693 l0.1630034457365774,-9.557292430891154 2.242804598094867,1.61155163036654 l-2.0577146233966346,8.967642819982483 -0.7529005511082627,5.570481513998658 l6.074293666792799,5.2431100125365475 3.2244376914065276,-4.0049374927699715 l-6.319873027870641,-7.690851429872034 m-19.17285915374413,-1.7801092696509602 m-14.902642182405007,3.4123366961559465 " fill="none" stroke="black" stroke-width="1" /></svg>