<?xml version="1.0" encoding="utf-8" ?>
<svg baseProfile="full" height="114.56046369414143" version="1.1" width="101.70961230585772" xmlns="http://www.w3.org/2000/svg" xmlns:ev="http://www.w3.org/2001/xml-events" xmlns:xlink="http://www.w3.org/1999/xlink"><defs /><rect fill="white" height="114.56046369414143" width="101.70961230585772" x="0" y="0" /><path d="M62.94799145433205,25 m0.0,0.0 m-13.758844851579338,32.375649856473316 l4.7415384875246955,4.236238552073289 3.7659082722176733,4.890898838837166 l4.370497663635933,2.2887396306009946 2.521011799925895,-0.5142106356257437 l3.729847447633981,-0.3173447148906128 1.7874049125672866,0.43072733218837433 l1.147790943854448,3.863631156780182 -0.7663174287051603,4.327469831192832 l6.22278360445026,5.0710011922017895 -8.08538754608667,7.90766265430985 l-10.722174879775869,-0.4068886499835998 0.7508333201366215,-6.359527469101673 l5.146176463148367,-6.392115252488537 -0.3407245242610091,-2.5449308247341786 l-9.66928838879936,-0.8716231388294532 -3.9499908656504057,2.4745324960279893 l6.539417469593767,2.6386000171207677 11.976765287368583,1.1397909155351416 l1.0615036786008822,-5.258472885298813 m-35.00473193952864,-8.544182927927466 l-9.412010380603988,-0.01407246715412586 1.1710551107978517,-3.0866329815837905 l7.345525589160775,1.4688125360310462 4.341526965935522,-0.5440475925179028 l2.034093387409572,-0.42229996389144575 3.0794919932255986,0.09131623019952916 l4.2985516272974085,-0.13411106211203577 0.9305349245554608,0.3327689922172651 l1.2990701850098045,4.93874208719129 1.0507393805941108,3.2145037871764024 l0.2991581784864262,6.309855348948627 3.3400350891720922,5.119009300117843 l2.034411679707691,4.31164575845478 8.568265974496908,0.5146429949552023 " fill="none" stroke="black" stroke-width="1" /></svg>