<?xml version="1.0" encoding="utf-8" ?>
<svg baseProfile="full" height="202.17051988261358" version="1.1" width="106.4172073676101" xmlns="http://www.w3.org/2000/svg" xmlns:ev="http://www.w3.org/2001/xml-events" xmlns:xlink="http://www.w3.org/1999/xlink"><defs /><rect fill="white" height="202.17051988261358" width="106.4172073676101" x="0" y="0" /><path d="M52.26509692133937,177.17051988261358 m0.0,0.0 m-13.637779800198006,-13.444053276343672 l4.632024530089067,-3.586238325277702 -1.719422135467122,-0.10249688365848407 l-11.53182111202939,0.6692073893131979 -5.008098403733921,3.4100299703802026 l3.2864382765050926,1.7408731653962102 16.74350955637406,3.557427092408841 l-1.5725493206304104,-3.5647341289573973 m-5.267145584151036,-140.85053488587477 l-0.075093794198919,10.214323232277888 5.093705990995182,-1.9711371650540048 l4.6299935629631,4.938131760740514 4.283910238843213,3.040212522355013 l1.7526998996648762,4.864137586300575 2.177726561080988,2.8674337890454815 l-3.069051873722001,4.841880139761189 9.888507675008135,1.1038156441459384 l4.750220344900687,-5.7813595309592225 -9.408947104413103,-2.6354686701115373 m11.55206334707897,-8.430406971886397 l10.67890676574818,2.091570278777821 0.9723128255630827,3.616798076802164 l-2.600655403954878,11.593687224968058 0.6151576999512187,0.4294488722105494 l-13.148578811385248,-4.646043266863923 -9.978449963496024,1.5317539558847648 l-2.5589215021804295,2.34178907857376 m7.538619741386268,3.0864758675936077 l7.518148600948713,2.8471793331138286 -1.897340407682988,0.3868628268612138 l-4.140535259480641,1.9233056335053789 -1.95254805164873,4.475383966200886 l8.051657265164977,5.6325330830441045 -0.08799039919656887,3.5797795879045977 l-3.2262613538333045,6.731410160575895 " fill="none" stroke="black" stroke-width="1" /></svg>