<?xml version="1.0" encoding="utf-8" ?>
<svg baseProfile="full" height="173.8504143660781" version="1.1" width="105.05704606658026" xmlns="http://www.w3.org/2000/svg" xmlns:ev="http://www.w3.org/2001/xml-events" xmlns:xlink="http://www.w3.org/1999/xlink"><defs /><rect fill="white" height="173.8504143660781" width="105.05704606658026" x="0" y="0" /><path d="M62.53687451082172,25 m0.0,0.0 m-37.53687451082172,47.63456761787513 l2.4804262133592543,-2.368892932085942 10.056867064081398,-1.3451018707679279 l5.131971758987693,-1.7225912566857797 3.1485511644586053,1.077170259574483 l-1.319998474220307,10.775865329255804 1.2085160228560587,3.6231269718908665 l-5.97479385192961,4.215969688504325 -5.084756638075232,-1.3025627439321412 l0.9184188521302086,-0.9186030373277867 0.23841527267888282,-7.262817788481738 l-5.799511594138066,-6.125050144963584 m16.891286858990092,62.70887625174567 l1.593636196427272,1.0181314170587918 0.08449505976592729,0.34774891650968986 l13.517051881644495,-6.663516907319431 -1.3568779423131443,-13.118339871072475 l10.081765608592114,10.94092931210449 -2.263965526328419,3.349894233189386 l-2.2642002312592195,10.54067791495418 -8.814729590619457,8.444933006052082 l-2.9917100935149445,-0.2482733603853087 -10.508787216977993,-3.6271322073273473 l-0.19757302146794278,-6.622974075399464 6.9533607767693395,-7.771004317594736 l20.185029389452115,-25.9743070179628 9.126710286333193,5.777145710687767 l0.01744784089793089,3.2800479710124595 -2.2519993934388305,7.749380847127552 l-14.95542277184553,14.838400873529025 -13.132277540914918,-7.028121442951399 l-4.648707195800781,-9.580435206600121 -1.0393123202055503,-7.267762649040503 l1.7000754004513101,-3.698198685832255 10.679517056276788,4.189162415985472 l-8.077472908797953,-1.9810750131823378 -6.744389574691048,-18.622605454864114 l-10.213273384490353,-19.308830609886947 -5.675814248539244,-5.408124874343919 l13.390209452199736,-11.932019541602834 3.9454426006713037,4.318700766825818 l3.0596152185447933,-2.812811819698464 " fill="none" stroke="black" stroke-width="1" /></svg>