<?xml version="1.0" encoding="utf-8" ?>
<svg baseProfile="full" height="532.7808759051367" version="1.1" width="248.14155723975438" xmlns="http://www.w3.org/2000/svg" xmlns:ev="http://www.w3.org/2001/xml-events" xmlns:xlink="http://www.w3.org/1999/xlink"><defs /><rect fill="white" height="532.7808759051367" width="248.14155723975438" x="0" y="0" /><path d="M25,502.2539425427549 m0.0,0.0 m16.138597414554354,-9.82505371338115 l23.372634820140988,15.351987075762969 1.7432353918112131,-24.944650281451256 m41.678431865583796,16.140580592796763 l5.6211175734458125,-58.83940625171915 18.49122057779769,-8.570171454263408 l-4.737509588408389,-103.23782250719307 8.46733452086867,-50.38271175163029 l10.522400486821976,-25.596095880146777 -13.322550644403744,-13.339267824969033 l28.91049817538894,-73.80336265920629 33.15315020690819,-51.29242153144099 l9.516633625828105,-38.20433507490037 5.496981086031126,-25.236668080065073 l3.8299386759804355,0.9982307717831331 4.918987520648169,-2.857601292863914 l2.1971108609557377,-3.1303736429248588 2.143344669801323,-2.088954078425674 l-2.644124877247809,-0.8475656857271054 -7.064902845219114,0.6266357536479242 l-5.07973194711234,-0.8234584930473319 -6.180745249284296,-1.2435985225502535 l-3.9972038251648794,-0.14032019743550603 -2.961308772294965,-0.887744807592984 l-0.2930574502393457,-2.8488538586030034 1.2666317946687777,-8.329436268013556 l2.665460523884984,-3.901502879194645 5.165951308558965,2.8430906794996837 l2.3143009788112128,3.655547572451544 -2.578418669450412,9.151625235298058 l0.6954939544543149,5.316715880791143 0.5776188406894616,5.511683507860776 l4.872057503378493,6.914929362024168 5.914148590103328,5.952675047019862 l3.8066634614956145,4.971493078762722 " fill="none" stroke="black" stroke-width="1" /></svg>