<?xml version="1.0" encoding="utf-8" ?>
<svg baseProfile="full" height="184.8409943953589" version="1.1" width="177.03324680925414" xmlns="http://www.w3.org/2000/svg" xmlns:ev="http://www.w3.org/2001/xml-events" xmlns:xlink="http://www.w3.org/1999/xlink"><defs /><rect fill="white" height="184.8409943953589" width="177.03324680925414" x="0" y="0" /><path d="M45.73631459435951,157.69103340572542 m0.0,0.0 m-3.3544074308849923,2.14996098963348 m1.5012176244669742,-35.25903770211199 l-7.785059341679863,2.619760921791424 m7.396061709736246,-78.25563710006017 l4.903117984842606,-7.625006804409615 -5.305103624532688,-3.633696839943247 l-9.314443051579824,-4.390043632275811 -7.234565766395586,-3.8084743003127417 l-1.5431326983323892,-4.488858938036757 7.679787683564676,10.905968224339208 l5.347714723663855,2.727461605300437 7.21308399189639,3.548657161233003 l1.3271378559272897,6.5936542994538945 7.336024133418975,5.4855765291728265 l2.9015864262722957,5.817679382555956 4.435703483507374,13.9056423885898 l4.166305302557233,17.358091567438343 -6.7103805459737185,7.817575321092095 l-2.6382161130428994,1.898749498460204 -4.919747067933001,-7.705680562706972 l-1.5385389825254299,-8.37578452762942 5.4710607858878495,-4.450722370026432 l5.392476585098046,-3.8030704225135947 23.060091657450126,-5.483103386648249 l19.240422014976364,2.667658300032254 7.326949063885671,2.42835061660087 l1.4689565392275694,-7.969813832483652 -12.394634607808918,28.284438367229647 l2.7693841924219,17.185217185982758 13.84890007930568,5.949697432296702 l8.1668646543555,-9.619797941309098 5.2316137690755005,-7.536778863611864 l3.4107392607085,-6.814284882449859 5.799715670389745,-6.672066123964968 l13.640246252947572,-4.249961188308334 " fill="none" stroke="black" stroke-width="1" /></svg>