<?xml version="1.0" encoding="utf-8" ?>
<svg baseProfile="full" height="298.4583120947693" version="1.1" width="91.26114115059056" xmlns="http://www.w3.org/2000/svg" xmlns:ev="http://www.w3.org/2001/xml-events" xmlns:xlink="http://www.w3.org/1999/xlink"><defs /><rect fill="white" height="298.4583120947693" width="91.26114115059056" x="0" y="0" /><path d="M25,273.4583120947693 m0.0,0.0 m16.66835518462579,-88.76359383272353 l5.237663861735263,-1.6106793216150306 4.447547931987244,-0.5336794271500922 l8.714319252132123,3.256787751765343 m-20.875074571700274,-50.793155430083885 l-0.6647023999465479,-11.700755968886062 5.504304334480274,4.7741480282547855 l-2.8380956103030264,-2.1020480902601277 4.452976655030742,7.092297506149386 l3.6208470713543006,-1.2617634243821085 8.394935671916794,-3.6571273270351528 l8.59806376927788,-0.9978693972232211 -6.7509755565179015,-11.662653295328564 l-1.6065578673297638,-8.729189961171594 -2.308367591067014,1.5947340428428303 l-0.10924096313036452,4.761956138805134 1.7246803992265725,4.618258686682962 l5.913605522374447,0.8879618307840239 2.069914361070593,6.986286044338914 l-3.0332284537550867,1.902353388674675 -6.338623312962819,-2.4990150065722703 l-15.61634980427749,-0.6414194181040844 -5.429517141565619,-5.07359278636444 l-2.2851716250022562,-7.6145847468068535 0.0023806578180157745,-7.646060442223646 l-4.117212304535418,-9.355224278993724 -2.3500332827758754,-7.675259086857139 l2.177847408342312,-5.4256482486009645 6.216203222992198,-9.645044542474922 l2.353968480640106,2.865731619579733 2.2358248889500585,2.735825650638995 l3.29420607335737,-1.8212090461766064 -10.077032496994844,-21.068361833964943 l-5.504945298249471,-17.585808229824647 m11.702439134251696,-12.070909640462581 " fill="none" stroke="black" stroke-width="1" /></svg>