<?xml version="1.0" encoding="utf-8" ?>
<svg baseProfile="full" height="197.82700287632196" version="1.1" width="116.13165337151524" xmlns="http://www.w3.org/2000/svg" xmlns:ev="http://www.w3.org/2001/xml-events" xmlns:xlink="http://www.w3.org/1999/xlink"><defs /><rect fill="white" height="197.82700287632196" width="116.13165337151524" x="0" y="0" /><path d="M87.67102000969982,25 m0.0,0.0 m0.8176488961624395,90.18832688982852 l2.627423394363577,4.909392939426939 -1.749856547462915,1.4615888222611777 l1.76541761875232,-5.577494070880862 -7.524414769789494,-0.45477496228811515 l-4.173091618822427,-2.508168837846878 0.876891394028452,-1.6206625314608802 l3.100820007695381,-1.2651149951460898 -0.7023309373014209,-3.0052149488696625 l-7.7132103834449435,0.8487645901146292 -14.75927975796819,-0.47885234370957486 l0.7918755098837706,9.485155878262317 -1.8007763127048675,-0.8419780281850808 l-8.559104859779033,-1.8291000178157202 m-19.068456073510173,-7.577744419423665 l-5.2497019850746325,-2.3294285611405905 6.718699033546884,-3.2187392314960155 l4.990040915136357,1.581772495808541 -0.16307299918629314,2.8163830334941764 l-1.0615014599673285,6.390163015027072 1.9557945644178425,10.70631417252672 l-4.0694063814327714,1.670308199932275 -2.9045193204416373,-5.470166447389296 l2.2100554596086375,4.963857540113229 3.280204097176667,8.154108558843303 l-5.114393905271358,16.85298000585863 9.267066455839574,5.9764748024059 l8.409233031618239,-21.982389575355736 -7.028148235488488,7.471233585083536 l10.996382030846581,20.75936908451253 0.25795178843974514,6.886829077094794 l-8.40229376348263,-0.802650164475702 0.4294528241075085,-2.317649340564688 l-3.7151341136140834,7.984108661776235 -17.407283606581107,-7.74924938640962 " fill="none" stroke="black" stroke-width="1" /></svg>