<?xml version="1.0" encoding="utf-8" ?>
<svg baseProfile="full" height="297.80121734961557" version="1.1" width="164.33589925801897" xmlns="http://www.w3.org/2000/svg" xmlns:ev="http://www.w3.org/2001/xml-events" xmlns:xlink="http://www.w3.org/1999/xlink"><defs /><rect fill="white" height="297.80121734961557" width="164.33589925801897" x="0" y="0" /><path d="M81.5015259240807,272.80121734961557 m0.0,0.0 m-9.239154928846926,-95.29878280890367 l22.797952870125187,-19.388457982393025 6.753513549081423,6.349252670797774 l6.886995599847113,1.1623609569234217 -1.8357277693183893,4.690697609983226 l-2.955775562892039,3.1784779232733005 0.48747796829723494,4.633692178111322 l10.446462308229698,-0.015282100930755667 10.686671517436862,0.7538440003202909 l3.8249487960511472,4.875920177898183 1.873712987596109,4.228152374774708 l3.773689532570784,8.255968599242443 4.333606465760063,7.38485421592603 l-7.02217696475795,11.463677265078557 -1.0700533916626813,-0.310522844055231 l-2.663589381836783,-8.874209659081252 -12.472192300113322,-16.515074442265625 l-16.583496575702284,-4.067755485184474 -10.949193169095306,7.883048238960481 l-2.9580231303617226,4.591927662111425 -10.91120328713652,0.7543255510142818 l-11.214493355594621,-1.697134146882191 -6.253708220965237,-4.852600542102326 l-8.56988102249438,-19.447141164772937 -4.952887998348194,-8.756162296865154 l-5.533354736097446,-8.53710197777673 -2.3894850990960617,-1.5213997446600274 l-0.6217752676589416,9.90017726145195 21.21145091421462,-49.56097543806885 l1.9380461612989464,1.9250427142052797 9.900325594158128,1.8295668171409087 l-8.502392663145782,17.679603872323227 -22.087014853948656,11.239280812806003 l-12.630800509674765,-45.04755854659686 m5.054724382876736,-76.69092907141925 " fill="none" stroke="black" stroke-width="1" /></svg>