<?xml version="1.0" encoding="utf-8" ?>
<svg baseProfile="full" height="160.06465630295648" version="1.1" width="166.07628169177872" xmlns="http://www.w3.org/2000/svg" xmlns:ev="http://www.w3.org/2001/xml-events" xmlns:xlink="http://www.w3.org/1999/xlink"><defs /><rect fill="white" height="160.06465630295648" width="166.07628169177872" x="0" y="0" /><path d="M25,135.06465630295648 m0.0,0.0 m10.519411201726347,-7.51732990047872 l-7.329947498079423,-23.805860310319577 1.4665670289399158,1.0111727585555184 l-1.674962083934311,3.637563682051984 1.4290656507277548,2.7375675487432427 l4.738332126831488,-2.548414182784722 7.995770273529803,0.3469006291771635 l9.120920683565584,2.705872342935548 0.20978071511639027,5.268508571330402 l-0.299174241012079,6.641090144639092 5.119773297976763,2.349494250614939 l14.917217184382174,-3.388087861502329 -2.1203253988027937,-6.4980938462648705 l6.434936863186162,-11.694934880003926 3.5388938703609463,-0.2190881812885781 l9.273546675947568,-2.622722633079629 6.404194883958452,-8.209678659495754 l10.53375669855558,-8.134939410124115 11.106778729635364,-1.424310478093669 l6.080901126669027,-6.684991282844983 4.646443934885238,0.5725222567875565 l13.964399967612758,-3.039912641886525 -0.5846195429559394,-1.8445056151811283 l-1.5023400698412215,-0.5224700724754239 1.5728682275843624,-1.1414964767734206 l-10.74338373549373,-6.412335210174793 -7.150385609591907,-7.932074128748172 l-4.32845419838723,-7.759638148385114 -5.176429704271836,-1.8061088874997755 l0.5100579177598275,-4.216026838674494 4.078907999143262,-12.36460987060895 l5.093949877801363,-5.547718971103272 -0.23036672000965014,4.459063644603051 l1.1797588809673913,8.014020851497248 3.1947842625304856,6.041186680300977 l7.51194442806266,5.731959599601339 2.0520003747152757,9.077208542474864 l-28.591371675885267,15.198778545951152 " fill="none" stroke="black" stroke-width="1" /></svg>