<?xml version="1.0" encoding="utf-8" ?>
<svg baseProfile="full" height="141.3232285616322" version="1.1" width="185.58912493235164" xmlns="http://www.w3.org/2000/svg" xmlns:ev="http://www.w3.org/2001/xml-events" xmlns:xlink="http://www.w3.org/1999/xlink"><defs /><rect fill="white" height="141.3232285616322" width="185.58912493235164" x="0" y="0" /><path d="M69.2146385891482,91.42438794069741 m0.0,0.0 m-30.034278993755077,8.701946195374767 m-14.180359595393112,-55.969947572296775 l4.70237785110182,-2.692384481850244 9.484353754792476,0.6000682230484538 l13.997007846039997,16.69945379587157 1.4049818522958724,3.5284077443122324 l-12.552405693163355,0.39307573956755454 -1.1201287533255309,-2.879785865196692 l10.843762356252485,-1.0299413828517876 2.567422598226765,-5.816293239266503 l-4.378958807441694,-6.425946167009708 8.468287639466547,-1.0258327506240006 l4.71639969686124,-20.507208179776278 -1.601116907895187,23.190199893091034 l6.304250435456084,14.250791511814507 14.092286125733734,-2.2534751725909796 l7.468270924256656,-6.8052020813257394 6.077791299383076,-2.530595934529097 l-0.06334208594935525,-4.318407611438253 m3.460026260425436,24.84369126353079 l1.5454213168454556,7.935688158509218 7.588333459406571,3.541790109806081 l5.467411626863605,17.257606512646554 5.772386351056262,0.1650744246557495 l8.130271738893954,-1.5870558032100008 3.5193353224200763,2.049470920027542 l1.1705183855883128,1.0610819471957 -1.120110922482917,6.135669890844635 l10.474860832309997,7.371535556073088 19.169430428933236,1.015364976531365 l-1.1468401160448067,-6.0047858078559875 m-30.84926729419577,-8.159671905474331 l-5.573268542456231,-6.581155800611934 3.7378953518544065,3.498557004245142 m-3.565197943207788,9.272906466982677 " fill="none" stroke="black" stroke-width="1" /></svg>