<?xml version="1.0" encoding="utf-8" ?>
<svg baseProfile="full" height="98.97309309310666" version="1.1" width="153.64409735340075" xmlns="http://www.w3.org/2000/svg" xmlns:ev="http://www.w3.org/2001/xml-events" xmlns:xlink="http://www.w3.org/1999/xlink"><defs /><rect fill="white" height="98.97309309310666" width="153.64409735340075" x="0" y="0" /><path d="M61.99303828261044,50.51784927964147 m0.0,0.0 m-4.676921599130536,1.9872954091215311 l5.085542009617449,2.8925020328756945 0.8658036892997908,0.3626191156149758 l-0.02838068877046733,4.896421073523072 2.6441017301337633,1.7133372083788958 l-0.5054346185277211,4.460281376466764 10.518859933313855,7.142787597484254 l16.354012953379286,-0.679579624275364 2.4452097972849334,-5.052321827942237 m-14.23084369604703,-20.311289551325967 l-1.9331645758247018,-4.987541444966597 -2.892450394618501,1.5683535116691634 l-2.356419996244229,2.8155085096382857 -2.4968358070998966,0.16405884328039538 l-3.0826683930195378,-2.1357736753148004 -2.6147827762852542,-1.183402248640102 l-4.100900852986218,2.443395659600439 -6.420733974973383,0.5983561982747579 l7.245794146697053,7.86727138098521 5.54483364317625,8.358287045007375 l5.389733926225683,-2.9580251296968774 10.241612836386249,-6.85340352581382 l1.9804355218048775,-5.670964487853874 0.6487801903481397,-1.2628109435399333 l-6.510701508167364,0.3410027005896014 -1.9918852244751062,3.465151588658773 l4.4113349260326515,9.321019032931703 11.157106468653568,-13.34494593728767 l-11.134218456870899,-16.767634113136246 m20.668597004010707,6.550006679665739 l4.648223370985882,-5.546137323403799 1.4594026817990113,-2.8008341336699347 l-7.059667047500918,9.04089022747957 20.35225092306966,4.164711894997475 l7.025432929113258,1.139042220613715 -8.286130107836295,-1.0642619010036902 l-5.1339127617359575,2.8649751316931025 -5.60248939390926,3.459016815091432 l-28.063403598557574,13.479005458142783 -8.875697389780541,-10.751401893608561 m-31.11495581619551,-14.84387720932419 l-16.56750828538562,-10.398941020622514 " fill="none" stroke="black" stroke-width="1" /></svg>