<?xml version="1.0" encoding="utf-8" ?>
<svg baseProfile="full" height="189.75340166387386" version="1.1" width="103.59656474651155" xmlns="http://www.w3.org/2000/svg" xmlns:ev="http://www.w3.org/2001/xml-events" xmlns:xlink="http://www.w3.org/1999/xlink"><defs /><rect fill="white" height="189.75340166387386" width="103.59656474651155" x="0" y="0" /><path d="M25,25 m0.0,0.0 m24.359055700728984,34.98330605958478 l16.097524382295827,19.630829701503078 -17.73375655123865,4.456373942641052 l0.20136525119382834,-49.01428609558826 1.5816140608500564,-0.6351738538111429 l2.316955153483645,2.7855153040367067 1.0808817995485884,2.576181486837073 l0.3104290315135877,10.737891548295428 -2.227047320605703,7.96172529603812 l0.5431499366456688,8.034403019597992 m-1.0244543959404921,0.8348885294552849 l-4.631718520768406,0.8560695299124619 2.2237265160595254,3.94019082287532 l3.2710675987315723,3.4303239515054567 2.251219273767046,6.7920095140685195 l-2.309146849405385,5.603583775117715 -5.085648685727696,2.4628041221556782 l2.888986373508989,3.8186071715806085 5.641009913346086,5.637259488025877 l-1.8641133562242913,7.261996786117455 -0.6129328334539011,5.470588396666597 l-0.6522228253234247,5.961352034212221 -3.8236617439573983,1.9544765887446307 l-1.5269197617496144,6.686106144456124 -3.027999701866264,4.648380284571441 l-3.3100632829146917,6.013996013525784 -5.044753397921587,3.7015841057941516 l3.466277319757262,4.2670887602870895 1.3513807626199141,4.4159848407920625 l-2.5380038327714805,4.036783713329622 1.8702691418756596,6.630768838000432 l10.330075083135318,3.8117918435445164 5.727314662142257,-2.6492080094840507 l11.61683436862597,-13.93970875089872 11.879871476550756,-64.92284563939423 " fill="none" stroke="black" stroke-width="1" /></svg>