<?xml version="1.0" encoding="utf-8" ?>
<svg baseProfile="full" height="228.7439627746121" version="1.1" width="132.28627636412003" xmlns="http://www.w3.org/2000/svg" xmlns:ev="http://www.w3.org/2001/xml-events" xmlns:xlink="http://www.w3.org/1999/xlink"><defs /><rect fill="white" height="228.7439627746121" width="132.28627636412003" x="0" y="0" /><path d="M107.28627636412003,91.20261940873318 m0.0,0.0 m-43.566297233272,-24.137046260439902 l9.3988030810685,-7.675874955363555 10.328327815926572,3.126300323194385 l1.2274124288871613,3.80967033373518 -0.4525544961780266,2.5459214621525432 l-0.29037059847740304,4.9635059548730425 1.7068194608447198,4.504717525402871 l-1.548363495905744,5.7576679655874585 -2.5189067228045925,5.898164987373977 l6.690906722692713,7.753044452306851 7.3069150972630545,0.6930324770529556 l-2.0704748993207858,0.7551847999277791 -9.694664473335258,-2.808965971153353 m6.166214287387306,-33.761980894473524 l-7.342400405195019,-3.443025246340589 -2.727734248284509,-7.8387102332855205 l5.628127582072591,-9.056425104584092 2.3511841006303507,3.797880084883245 l10.461721096714653,-2.048880774369156 -0.6022894244091292,-19.03680033521378 l-11.28214298699642,10.72045284385671 2.505535656076461,7.127315111332848 l5.877660872555942,9.355230682797105 -3.0908132346648056,17.615049832680914 l-8.170379929292439,2.786959613626388 m-51.53521419823875,47.48116529318194 l-1.3407681916883087,5.088112959387994 10.031193266271213,2.0456016339115157 l0.5887195793424066,18.703423219399646 8.655836502637174,14.701312368401554 l2.6522770628306125,6.426896235408438 -5.329591915438903,4.366262477814089 l-14.994681894497118,9.363044496876318 4.098386733456847,4.548401386495269 l23.376535779656432,-12.674627546419565 -11.253247904849454,15.769674822188913 l-12.02310647083816,-0.5291847535345053 -7.815844417494517,3.058244185322666 l5.761714222100487,12.023606764292166 -9.45072057135389,-7.347601295694696 l1.0600999961160533,4.430533477521451 2.9178577668700334,3.6840889657649223 " fill="none" stroke="black" stroke-width="1" /></svg>