<?xml version="1.0" encoding="utf-8" ?>
<svg baseProfile="full" height="220.3127962800413" version="1.1" width="99.14549966440697" xmlns="http://www.w3.org/2000/svg" xmlns:ev="http://www.w3.org/2001/xml-events" xmlns:xlink="http://www.w3.org/1999/xlink"><defs /><rect fill="white" height="220.3127962800413" width="99.14549966440697" x="0" y="0" /><path d="M64.86356542260671,195.3127962800413 m0.0,0.0 m7.2083816055888805,-54.71139192419255 l2.0735526362113745,2.4288901977327386 -17.433916396136592,5.978981432562422 m0.4677551880028896,-3.4624796565999247 l-4.141611258943776,-3.7908098910561114 6.569615415557763,3.6154561581598768 l0.9728438612646445,9.632762173135449 7.008517365853357,3.338927442489806 l4.704184620988381,2.1798642846729015 -2.4740141328379828,-6.030163854100257 m-36.220496377750784,-41.93662294201879 l-0.9348102424570627,-7.2847889129931405 6.289090254501866,0.4195268950402721 l3.299694615136526,-4.084904971732099 6.334781458192233,-1.5933162898075577 l2.258962000520414,-11.790285340077675 -6.288354281546092,-0.7717237373709183 l-13.934814835059123,16.08997193211537 -5.622926919693632,-0.033751372188496435 l1.4831422406797425,-7.747512912375298 2.9562207861597956,-3.938825455940356 l5.712688903508929,-0.5951587639944701 3.2972437312323915,0.750187161478294 l7.5022933303028045,-4.852827635373205 20.213784613483046,-43.8033540725597 l-7.904878835595182,2.5263927057240143 -3.421604640124541,5.217431103893122 l-4.628535158739076,-5.525935122132155 -0.03243701347632605,-12.880250638425007 l-1.645011352690984,-7.6570842741078735 -5.178625079003802,2.775886186235146 l-1.5486388533028206,9.158241522394055 14.81130839535231,5.534322223399529 l10.191201564574879,1.9805719353738804 1.222384136890881,-0.4390861661520414 " fill="none" stroke="black" stroke-width="1" /></svg>