<?xml version="1.0" encoding="utf-8" ?>
<svg baseProfile="full" height="212.879157044798" version="1.1" width="98.77019086524423" xmlns="http://www.w3.org/2000/svg" xmlns:ev="http://www.w3.org/2001/xml-events" xmlns:xlink="http://www.w3.org/1999/xlink"><defs /><rect fill="white" height="212.879157044798" width="98.77019086524423" x="0" y="0" /><path d="M53.51085681448235,25 m0.0,0.0 m7.552103597022262,31.231088191465783 l7.632782875338431,-0.7900289908721497 5.07444757840118,15.872213560231195 l-4.338475693978361,5.0947843316105885 -0.9051966680059567,9.249126158697313 l-9.847012352283437,11.477318197726959 7.252292348997524,6.655702083138642 l-2.6233356329804214,-0.798707658029354 -13.301896056421793,-3.972697913266263 l-3.472168964068755,5.332506754091578 -6.685421101429527,5.04154397346841 l6.081814056135599,8.956985137491431 -15.405426407621347,0.677628692411345 l-4.415917156241231,-1.3478391228926578 5.608291791525539,-6.181469130023017 l5.458962329132719,-8.385232490847274 4.436460736818401,-6.2024250241118555 l3.088429900046821,-8.46875479310897 -4.413203381081227,-7.8138061343432685 l-9.258903487225352,10.804779990303567 -5.626997583415291,0.7891142052360434 l-0.4024875431481295,16.538446861356093 2.2030784689177674,13.472957055535092 l8.547771411848183,2.249558575109286 15.470676297774483,-3.9092570277510794 l1.815450763492506,0.5651717593221989 -3.7851960223922,27.247152883240478 l5.848247731396062,5.962596773676197 13.179969398927184,7.485112792478331 l3.866989537734368,13.23999739269228 -3.9451712116365836,8.361186086488962 l3.034462503083669,4.4444038742720755 " fill="none" stroke="black" stroke-width="1" /></svg>