<?xml version="1.0" encoding="utf-8" ?>
<svg baseProfile="full" height="246.8897684603518" version="1.1" width="140.29897544846355" xmlns="http://www.w3.org/2000/svg" xmlns:ev="http://www.w3.org/2001/xml-events" xmlns:xlink="http://www.w3.org/1999/xlink"><defs /><rect fill="white" height="246.8897684603518" width="140.29897544846355" x="0" y="0" /><path d="M95.13319247936792,193.39659218350818 m0.0,0.0 m15.80961815139859,2.3302716369652297 l4.3561648176970476,26.162904639878395 m-3.8449179519282786,-45.30109606629773 l-6.731626848477182,2.8789306974484896 1.4953680005378962,5.8144283213151615 l-4.627836765416048,6.059125562733213 m-40.37460481982526,-40.56473111564935 l-3.6126703579046735,-0.7829839007542522 -3.0194030176168996,-6.284905929719082 l-1.1521443949364976,-8.609722717594764 -8.067076876926466,-14.043571088896906 l-1.8561392757424193,-5.763021951905829 -3.92764611907454,-5.842516598974008 l-5.304437139061973,-5.376105323835883 7.7309121798079055,-17.7656873717782 l-0.21694270592534481,-3.8631818579967327 -11.65667405748866,-1.256176920275145 l0.14142722675744013,-0.03337903627680938 -4.245386303742336,16.108879815170674 l-1.0291762215002205,10.114064252361569 m46.96101316238998,-10.643621557198989 l-21.11596349486596,9.814764606477075 -10.0572419294173,-2.759355862783096 l-6.898613000658065,-0.36639965625720194 0.9204791103376619,-2.6945838886708793 l11.330412289637705,-8.265274195242016 10.368378196202954,-3.3814234051140306 l-1.4097151709540945,2.9190742299068115 m2.2548874081035253,9.153106397153993 l-6.687239510933812,3.1214726462419984 -1.2892985859263546,1.2029071575484624 l-5.081023902671499,-2.4937834700676387 -7.375222689864598,-12.50603325043896 l8.440853021131002,-14.186022967018065 m4.60705861214792,-51.29294401396366 " fill="none" stroke="black" stroke-width="1" /></svg>