<?xml version="1.0" encoding="utf-8" ?>
<svg baseProfile="full" height="494.60730044872713" version="1.1" width="186.84235951756088" xmlns="http://www.w3.org/2000/svg" xmlns:ev="http://www.w3.org/2001/xml-events" xmlns:xlink="http://www.w3.org/1999/xlink"><defs /><rect fill="white" height="494.60730044872713" width="186.84235951756088" x="0" y="0" /><path d="M26.683547683038263,469.60730044872713 m0.0,0.0 m-1.6835476830382645,-87.37998240866939 l17.304542555817505,-47.2801210908594 31.32809782482399,-86.24660243262852 l12.383622148683614,-5.074592342154001 6.663985866541915,-1.765465323237032 l7.83082362192515,-41.00240290216832 18.50371758945284,-23.956479736264956 l28.523893133563806,-29.433804564067703 -10.533770877011516,-4.450601050288136 l16.1476895656072,-9.33471143574261 8.689758088156406,1.6971335292507945 l-7.853172895852521,-9.221367553056467 -5.985375353326073,-6.588806749379012 l-7.6712427761422735,-2.771179368384297 -10.36941360876241,-4.724122600310069 l-7.654154695082755,-0.43563791874915825 -4.344977964220027,-0.5850874995257279 l0.5681228106147879,-3.626613567897104 2.708772912651719,-5.789333954806477 l3.097831840646269,-14.736143565633236 -2.3275735427953768,-4.798549132248943 l-15.241731040150924,2.7396084021478573 -6.732561940089191,-3.6528145206883846 l-3.6635299714654845,-2.687261737382585 0.6009228946738782,-5.41559125707691 l3.0877179163519024,-4.533906140046653 9.55761042124602,9.376316473818562 m-0.3909505688533957,-17.04529472053224 l0.7721283872818544,6.662695165712262 -1.4642132989519203,5.414493078806184 l-6.279730699568204,7.819955898674147 m-30.29521831431155,-52.371565049398555 l9.395487021131125,-3.409464375940963 8.768078845623915,1.9682746078999995 l11.538633324510036,0.3123650311284735 8.469753633045384,4.4281801446951485 l4.204948943154827,6.107700687619564 -2.10088933875799,6.9607429644074745 " fill="none" stroke="black" stroke-width="1" /></svg>