<?xml version="1.0" encoding="utf-8" ?>
<svg baseProfile="full" height="181.13023791229026" version="1.1" width="96.17138872946599" xmlns="http://www.w3.org/2000/svg" xmlns:ev="http://www.w3.org/2001/xml-events" xmlns:xlink="http://www.w3.org/1999/xlink"><defs /><rect fill="white" height="181.13023791229026" width="96.17138872946599" x="0" y="0" /><path d="M58.55114975301284,44.214658544077885 m0.0,0.0 m-27.7889976015271,-1.5302798750399915 l3.551422069126849,-0.5682304832936527 2.714856451679558,-1.1654220553361805 l1.3182771785290552,5.03130294074934 0.5245974919222041,4.254538361701901 l3.4463385638476085,6.706057068500117 1.4556704505366571,5.112510102676478 l-2.220951787855492,4.699680050612933 0.16401074366492222,-0.1444730604039117 l18.042285018878673,0.45366199122121953 11.412730397650215,0.7982481035517158 l-4.604133629257237,-2.5778947255017086 -6.7041868359048555,-7.22287620232784 m-11.328589214941003,-2.0988687458536903 l-5.693251223367793,4.469235166615825 -7.836252005211489,-20.425121373439215 l-9.481065035596766,-10.807604728584623 -0.5239107851868441,-1.947723916648784 l4.814865226649723,-2.251397163277823 5.422208605389549,30.47235057825194 l7.254354178149674,9.742148446943988 7.048474263332676,5.442323815226022 l-4.157096602388847,17.80040185121547 6.743625091298693,-3.5280556357151736 l5.046736680073942,0.9142454364461413 -0.5272817408038346,3.1507343434724056 l0.8080651613800485,4.726816959344937 -5.09647856899422,3.884215276177601 l-3.882799922788399,5.5682164701306585 2.7664256780678453,6.049977674312556 l3.2962013517364652,3.2018646666872397 -7.302880145370721,-7.99947200103357 l-7.91660939464457,-6.596783746480815 -3.473767360861176,2.524457978354686 l7.4498058514379,4.2020367200012645 -6.421100853890873,-6.385068515807831 l-6.1244638005818635,27.92028399988717 3.7693003135918577,6.776069028178538 l-1.035067504015567,11.451920365577095 9.982138042933315,11.811554201119929 l7.660196322220962,-0.18950907480746168 1.8276640758235025,-0.10294790580075375 " fill="none" stroke="black" stroke-width="1" /></svg>