<?xml version="1.0" encoding="utf-8" ?>
<svg baseProfile="full" height="184.08746293795107" version="1.1" width="130.81292320541422" xmlns="http://www.w3.org/2000/svg" xmlns:ev="http://www.w3.org/2001/xml-events" xmlns:xlink="http://www.w3.org/1999/xlink"><defs /><rect fill="white" height="184.08746293795107" width="130.81292320541422" x="0" y="0" /><path d="M43.05258374875214,25.533420144233013 m0.0,0.0 m18.314345085481477,-0.16612557906676734 l-22.804909487376598,20.763672265434405 -8.899145624946653,-7.897241893755896 m-4.662873721910364,32.05318811705072 m3.4321604409855166,-7.244035403231743 m7.046130870053471,-38.04287765066373 l10.39061195419442,26.87162800356436 12.511893802305094,49.57247527704859 m-11.252303550365585,-3.4804567766381966 l2.2071597217590964,-9.410323304186981 1.4853821396198825,-19.285684362091445 l6.128556920473334,-6.963044045166453 6.798279631346939,1.7214899124118122 l1.7460941696273673,1.9082425732184471 3.8549743448993854,12.88997654484674 l1.2188600227481954,24.80516834170107 2.8324184256650407,10.085063133735815 l3.8372757331715834,7.406401687049817 -12.479191680662769,-91.17307824245559 l-3.300458589851638,10.38758828599437 -3.520336022164141,10.384121354493846 l1.2544135934701628,7.312485036389633 8.61901996878138,5.611408542043639 l9.310470873378591,4.618003061029025 4.601442444904135,4.374683544343371 l4.700463958083175,5.22886534430513 6.0946226406925925,14.229335573767905 l6.41885067879346,13.145755213590322 3.938520432256125,13.40261787186668 l2.9376102812494063,15.840130533626485 -0.38831661058696676,13.549262927215509 l-0.8372820144219797,11.055346906247152 " fill="none" stroke="black" stroke-width="1" /></svg>