<?xml version="1.0" encoding="utf-8" ?>
<svg baseProfile="full" height="121.89419770741787" version="1.1" width="111.12795396309" xmlns="http://www.w3.org/2000/svg" xmlns:ev="http://www.w3.org/2001/xml-events" xmlns:xlink="http://www.w3.org/1999/xlink"><defs /><rect fill="white" height="121.89419770741787" width="111.12795396309" x="0" y="0" /><path d="M84.20129997383165,74.18564646732958 m0.0,0.0 m-20.583291507917576,-15.80392003530391 l1.0591574572800138,-5.380046726214807 2.4067261118447916,1.6938791181441304 m-4.749209981815569,-29.695558823954997 l1.5128727373647823,11.072467201401903 -8.836672951982084,12.754331374196074 l-0.9283508522300018,10.111089588860635 3.1559887738382097,7.926565815048557 l5.793720387675802,8.097685201864385 8.725156030228124,5.4333837886105325 l7.5921476293112855,3.009629367585802 5.71451600087783,4.765100118884759 l1.0638941547827518,8.723945250965233 m-11.96707625203857,-6.607518349674666 l-13.941340611664634,6.24308595482137 m-1.0960044288730875,-23.876443865932977 l-9.624327207820183,-4.4275000703686604 -4.425456547640396,6.18113830760836 l-5.5640696872632,4.758910805088361 4.536784955770277,0.22223216073560148 l9.210476865647063,-3.427074286806398 6.109110282777068,-3.716555832869311 l5.420192226495706,-1.984345039775165 2.0507115004223366,-2.924091215839837 l-0.9474560604984825,-4.031767810660101 -5.99699480295774,-2.0775389884673747 m-28.31309628106504,-5.657026353760686 l-2.588270470403651,-5.3770512615547545 -0.7530800520813852,3.3588513826559585 l-0.41984889887579785,5.674073240308945 -1.2017965681424458,7.987142640361686 l-1.616411924877842,6.649405862590035 2.7798690755710553,4.825356128892516 l5.017555782426229,4.395678817622921 12.602067721039019,1.5203617329571208 " fill="none" stroke="black" stroke-width="1" /></svg>