<?xml version="1.0" encoding="utf-8" ?>
<svg baseProfile="full" height="117.51850520422894" version="1.1" width="142.85747833579273" xmlns="http://www.w3.org/2000/svg" xmlns:ev="http://www.w3.org/2001/xml-events" xmlns:xlink="http://www.w3.org/1999/xlink"><defs /><rect fill="white" height="117.51850520422894" width="142.85747833579273" x="0" y="0" /><path d="M34.06798600155771,68.681889863071 m0.0,0.0 m1.9352110639872988,9.467931930261168 l-11.003197065545013,-5.190255822602212 2.888670712620409,-6.191972319425399 l7.5649003338864045,-7.656235567914734 -4.859259374954815,1.7810533320382242 l-2.314562840978246,2.31172945607282 2.5769763989939785,-8.039391232619511 l3.259049119017514,2.6220635914234913 -2.619377724219886,5.740611399724107 m-2.816008997880022,-33.907052309031975 l2.036088807988049,-4.301785643944855 -0.4078398828516129,-0.31858667705212396 l-3.1093881252937847,0.3374692065023899 -1.30520013509155,4.3569512681473 l2.0492677977660465,5.857139180967615 1.9387432073566324,6.462083180362638 l1.5478721978877723,11.453508511396128 4.689904407082403,2.040694790804366 l5.554874954637987,5.509817557880987 13.370480354573115,7.680843569116016 l6.169410669101231,2.5720818963883785 9.815949611304411,4.699802420923186 l10.628575652585425,1.2272583971728963 4.366412993575093,5.055969661772184 l-0.2344219180938028,5.158788138262751 0.19994097416762105,5.106097424532098 l1.189182001913082,-3.234846224282053 13.227416732197392,-7.056032315327931 l-0.9360510587592485,-4.5488797200492215 0.9623962195786459,-7.538787942349739 l-1.5479392660309166,-5.125615004219489 1.2733314688559039,0.8730826992756748 l8.250940666511493,-2.4901264811229202 8.37026821631789,0.8694388289838473 l1.076874162028101,12.353231322796908 " fill="none" stroke="black" stroke-width="1" /></svg>