<?xml version="1.0" encoding="utf-8" ?>
<svg baseProfile="full" height="201.47175666617875" version="1.1" width="106.38095885997801" xmlns="http://www.w3.org/2000/svg" xmlns:ev="http://www.w3.org/2001/xml-events" xmlns:xlink="http://www.w3.org/1999/xlink"><defs /><rect fill="white" height="201.47175666617875" width="106.38095885997801" x="0" y="0" /><path d="M65.64128530770718,100.30261566960628 m0.0,0.0 m-17.42919737588224,36.25202608311767 l-0.7474369982626836,-2.224897444164028 -10.033800166164824,-20.770654005303818 m-6.531441247089489,25.578542413235354 m-5.899409520307938,2.7698789485190356 l4.004608573932442,-3.277167879260535 7.123710174207792,13.176958617158629 l2.841106771012017,7.456259131527379 -2.5052980766619393,14.443102697218508 l7.344290058484939,2.7650924345242687 2.715378576972248,-17.704356316230466 l4.780479057509927,-4.971494514168545 10.339495375627816,0.5098654968891994 l-7.602678176793388,2.8239593139883565 0.7719298588327672,-7.196734162122329 l13.401767046838483,-24.068303954125685 -1.8610757309810069,-8.239734745224066 l6.637553930767783,-23.456940705733082 -5.518992445137003,-3.529240673638455 l6.8663747763598915,-12.401087645907209 -5.711199565144489,-31.52077419926319 l-2.0803253363382,-8.908295481536546 -4.358585405520366,-0.6677023219001177 l3.6926303035121397,-1.3131471048948296 5.6926954904933975,-10.827769652311776 l9.165537740492065,3.834484369023137 0.6415558615106892,10.488869961383648 l-7.5743843684267995,-1.0158994840535673 -7.943804297820184,-0.17905104389391524 l-9.668817393787519,-7.616019389423778 -4.092183784173661,-4.017119159566439 l-3.832769114250758,0.9927320829788091 -2.583710213422609,4.208599534441679 l-6.166828939793388,6.567012358619307 9.736186947604972,2.529523417952295 " fill="none" stroke="black" stroke-width="1" /></svg>