<?xml version="1.0" encoding="utf-8" ?>
<svg baseProfile="full" height="356.43424129924495" version="1.1" width="128.85554375852686" xmlns="http://www.w3.org/2000/svg" xmlns:ev="http://www.w3.org/2001/xml-events" xmlns:xlink="http://www.w3.org/1999/xlink"><defs /><rect fill="white" height="356.43424129924495" width="128.85554375852686" x="0" y="0" /><path d="M37.33289515593014,306.4183114266125 m0.0,0.0 m1.3122227146550969,25.015929872632448 l43.5096130719131,-37.75797249382756 m-10.542748847214371,-1.8357256465693172 l-13.021336048115057,-4.455738382930834 1.7852054437764164,-7.949995283250107 l12.33028488928736,-17.418152270227598 -0.2670975678213551,-16.809063463903822 l12.574834566439973,-20.73486075102576 -7.003894080656052,5.083624262422739 l-8.529687882897203,23.23843019237085 -6.663564842086522,-15.018692662403502 l-4.395757103639555,-19.39187166334652 -0.8285081237249781,-1.4930198526963778 l-4.68336057670313,-11.153081415858912 -3.5962073321783814,-8.375697265402401 l-18.777919965004532,-18.312298737974526 -5.534973471960963,-16.529470997598025 l7.808633548233633,-14.916560122843503 8.28847417763453,-23.839042111470505 l10.418718077882007,-6.632072548764746 15.50919926208691,-0.8195050955315064 l-4.11762344842461,-12.586361456088607 0.41983002648107753,-12.305564301180963 l1.0390456608931942,1.470918468645508 1.8963417774676816,8.875393664689366 l0.5682059234757236,15.676939073543043 12.562541894533519,-0.3364387014745951 l18.09342710906468,-12.603484066093266 6.3687497491985186,-7.77082813460476 l-9.631175263580053,-7.233979578078156 -0.7321232293054303,-11.646234717961512 l-20.39025596595214,-14.13471651622569 0.07027654426975005,-20.0299806332736 l-22.53968539196091,-11.338982173459739 m-0.11264461661406357,-7.350155916850076 " fill="none" stroke="black" stroke-width="1" /></svg>