<?xml version="1.0" encoding="utf-8" ?>
<svg baseProfile="full" height="139.83008059551838" version="1.1" width="101.75930779390092" xmlns="http://www.w3.org/2000/svg" xmlns:ev="http://www.w3.org/2001/xml-events" xmlns:xlink="http://www.w3.org/1999/xlink"><defs /><rect fill="white" height="139.83008059551838" width="101.75930779390092" x="0" y="0" /><path d="M55.34114694229285,108.76539465839636 m0.0,0.0 m-26.254096697046513,-62.50747594786384 l3.6625966934672958,-4.606091429370677 1.289395161593571,6.167192178994186 l1.8463045553677397,5.380079654216586 -9.679010829341363,4.373629445997393 l-1.206335826333589,-1.374331363596017 11.892148276193304,-1.8619041675290398 l1.4345517858449897,-3.7640400860058443 0.24166776687378794,-7.122288582472113 l0.5835066365618116,7.385043849675 6.972002577551436,-2.4658134992746628 l4.604811607554458,-11.935234891412243 3.8546364559664545,-8.911082753667321 l2.9586737537287355,-2.5230770660878004 0.5679883265952013,17.019217233077175 l-3.0266448882543173,-0.32852858699647713 7.394115378386232,20.1939266882742 l-1.822025109667416,6.202241656246519 -8.65236885272202,-1.0011015547812154 l-4.381422043672373,-1.2415032184472632 -4.668015920048721,3.7203953901812317 l3.590443850116806,6.77104245393587 11.115119438532126,-4.676375398486699 l6.34262511125725,22.77304830150089 -2.183612856260321,15.397332842716954 l13.921784079097486,-3.380048647978251 -4.481369824696482,8.380433436275462 l5.500692244962503,-3.866520553215136 -0.101866301117086,-2.000303950266902 m-12.594798360540764,-42.17369063234558 l-1.7504000401044357,-11.795561731527133 5.345176463387964,-8.447903878844594 l-18.290276158271183,-2.9585538595877674 -5.091066255962071,18.84954813634441 l1.588718378151423,11.461055462827856 -0.36721644995741975,8.101171920321258 l4.623803610495655,-3.744864976214275 5.954866576544522,-0.8942176709811125 l-3.587260547123983,4.239636004492657 m1.8041215051724568,6.760537256445958 l-3.847096602193685,4.8617483861591015 -4.532485007731679,2.4362151457245953 " fill="none" stroke="black" stroke-width="1" /></svg>