<?xml version="1.0" encoding="utf-8" ?>
<svg baseProfile="full" height="368.54613362022707" version="1.1" width="274.83473171447713" xmlns="http://www.w3.org/2000/svg" xmlns:ev="http://www.w3.org/2001/xml-events" xmlns:xlink="http://www.w3.org/1999/xlink"><defs /><rect fill="white" height="368.54613362022707" width="274.83473171447713" x="0" y="0" /><path d="M25,343.54613362022707 m0.0,0.0 m26.84042763831821,-4.936697208355614 l45.51632016499764,-35.425902583048966 2.5628143754642134,-40.34491944390865 l-4.042073375657461,4.903317987980249 47.690701294723254,-4.0422610413138464 l8.34598288456673,-13.027846434276196 -0.9838424574577576,-8.202936506241441 l2.556969149872919,-9.947736727819034 4.872680857272707,-7.890536393591696 l-2.03750355759979,-6.894823498380633 2.1969580235629684,-7.436946813891381 l1.3340874324207446,-4.7223440867093265 1.9951462242609577,-7.03920825085764 l8.037439097988624,-6.731202189259233 1.3638429144734598,1.3967413605094554 l6.16751530851372,-6.081361771620702 2.5378918962855335,-19.616425239222128 m3.3743873212573283,-80.12243297032423 l12.60052591855253,3.762169918860553 4.357982765906054,-18.265737994951763 l16.11895320872948,-12.330845800194531 10.51180491078919,4.172915306386182 l11.609184191132952,-3.380980362667848 m-14.145272026997459,-27.992650024754955 l-1.7123401557759599,-8.347482852573762 8.547877029099439,0.2561105774474215 l9.755703663295993,2.9963340751045653 8.860567016480921,-3.173512639410175 l-7.499044230132341,3.2587425774113377 -13.992151374193087,5.379555430124237 l0.276794747976592,7.0478943380308 4.036444470882372,5.158150123981559 l2.7549264228597314,15.089575071135997 6.296482302351046,13.687818766206352 l-8.15427738837682,4.02469363656599 -6.10153968291943,10.690972178830652 l-0.1674867655335699,-0.8044242392079726 -11.51088795058254,1.6598698886662056 " fill="none" stroke="black" stroke-width="1" /></svg>