<?xml version="1.0" encoding="utf-8" ?>
<svg baseProfile="full" height="152.37183263294614" version="1.1" width="105.92882510128743" xmlns="http://www.w3.org/2000/svg" xmlns:ev="http://www.w3.org/2001/xml-events" xmlns:xlink="http://www.w3.org/1999/xlink"><defs /><rect fill="white" height="152.37183263294614" width="105.92882510128743" x="0" y="0" /><path d="M25,127.37183263294614 m0.0,0.0 m21.442769335487224,-61.76483188924831 l-5.479320086621917,1.3606091680770067 -5.214458998529614,16.388675270502144 l3.2366487314506487,5.497697043974019 4.235722636137467,4.07332240191933 l3.811163880905764,-2.4680341850364362 -4.687570718396145,-12.345487990370101 m-1.3782113896248616,-14.12214036683043 l5.438004745617664,-4.06308759632583 12.505634178650952,-1.703779806741813 l8.377477861762474,-4.17889229288841 -2.0012892773701805,1.00059580336068 l1.9184941562233615,-0.11335602871449194 1.191783810602084,-5.199568558943861 l-2.708906727399978,-5.819322721634751 -5.429038930306646,1.411293980265902 l-8.726228777194743,-0.6825338558225625 -6.482447327403095,-0.6590993823790215 l-4.677963143765162,1.4053155247236686 13.18241820592263,5.3432352073848195 l4.918779679346941,-1.493766381664064 -12.447434802591864,-13.482924190886028 m-7.421294024363966,-8.449918435172076 l-4.000241803656951,-1.1017832432455268 1.9390966164287753,-0.9453853117753975 l-4.133849414899021,3.9919266828158317 1.6261683165910141,5.497895641055077 l0.36046832393910655,-2.779274199483376 -7.032182108092164,-6.969212919862116 m53.56463215243764,56.59504382803475 l-4.311017971787119,4.048670573892484 -1.0506611034159954,0.0856577658726911 l-11.678236788849144,0.00308208185353237 -6.984253548869585,0.5425842564633243 l-3.146056716619976,-35.342013502621136 " fill="none" stroke="black" stroke-width="1" /></svg>