<?xml version="1.0" encoding="utf-8" ?>
<svg baseProfile="full" height="494.20671314956206" version="1.1" width="214.10985102004958" xmlns="http://www.w3.org/2000/svg" xmlns:ev="http://www.w3.org/2001/xml-events" xmlns:xlink="http://www.w3.org/1999/xlink"><defs /><rect fill="white" height="494.20671314956206" width="214.10985102004958" x="0" y="0" /><path d="M30.942071452705946,469.20671314956206 m0.0,0.0 m-5.942071452705947,-4.570619882949721 l22.89467262561675,-55.12092539010884 8.557343535409574,-59.936249357128396 l7.587960246731044,-1.8940707102726169 6.3533964116480846,-46.17452488976502 l14.230110984307267,-29.504119208923107 m19.726461965899993,-31.826475878305526 l23.42658900089119,-32.40340952260938 14.162859724855835,-78.38525550360335 l2.3678097231443824,-20.709928247605742 4.830585514669026,-0.1805886915271833 l3.3834448391450813,-12.2549522507683 11.776526039999432,-2.2546688887276116 l2.6737989808719487,-8.979750527287148 -10.625736727096925,-7.928069246555152 l-0.8016398939580206,-5.346762234745831 -2.9560565503079386,-9.45363305380036 l3.6030320438339323,-7.158835100730802 2.831428569656703,-4.681695341982997 l1.4861796599052368,3.251865840099014 2.2502223091668654,4.926369708094669 l-5.13494978121869,13.207473943694872 4.684747855968803,7.53891380493104 l7.305478191556133,7.26648779266637 m1.4724988245340431,-20.489525356963025 l-2.4344292540874815,6.956679432860073 9.642372191150862,5.220165699282429 l1.7210117962757792,9.412525344071776 9.09413219148067,9.551721824122811 l-2.444855659843208,16.81653602574191 -2.7652119326754643,-7.641206026692241 l-11.283801954309286,-13.435089154733099 -4.823969571988422,-10.842192987520553 l-4.826145494619489,-46.317588542797075 4.56737923928644,-10.865316569023987 " fill="none" stroke="black" stroke-width="1" /></svg>