<?xml version="1.0" encoding="utf-8" ?>
<svg baseProfile="full" height="211.73230069537956" version="1.1" width="118.90289682709103" xmlns="http://www.w3.org/2000/svg" xmlns:ev="http://www.w3.org/2001/xml-events" xmlns:xlink="http://www.w3.org/1999/xlink"><defs /><rect fill="white" height="211.73230069537956" width="118.90289682709103" x="0" y="0" /><path d="M93.90289682709103,165.87515967253347 m0.0,0.0 m-31.39741269653215,-9.7456748746864 l-12.13005506696462,20.10847498617448 -11.532736204227563,7.164153364640364 l-13.842692859366696,3.3301875467176467 m16.906342656495383,-41.80450977861361 l2.3400009570612537,-7.749302995548973 -4.541643976187044,-7.129591138817737 l-8.110164144383685,-64.30684036946326 26.276140620683275,13.935733798870794 m2.40508450267022,-13.274197410793779 l3.5751295895419797,0.2205813815518065 10.371935644786127,2.6007057927595145 l12.567450150879841,-5.218731250839742 -2.2605952109461027,-18.607577669322275 l0.08045677626338114,-10.326516082316486 -12.43053731042596,-10.072054972845828 l-9.123980290069321,5.6256365233947125 0.860420036694115,5.049151564896041 l3.9043517418633598,5.967364840074443 5.834398150174172,21.666651470314378 l2.76341779363404,0.04682363773999415 14.522790509230008,-37.39875665172951 l-2.1869353776055847,7.212152722970983 m-38.54346762127651,13.629476872266991 l8.154504138846372,17.725909306570006 -11.23092494250723,73.80908533298268 l2.927103867405535,12.396303055782028 4.396614618198887,16.60144969896807 l4.219773461988161,-1.942348548068411 9.810460243388416,1.490826806997888 l7.057966364490348,-12.721623679074865 -8.183604514910447,-20.091268234342028 m-16.542059366210136,-2.919518085011994 l0.5170915491976125,-3.7150947595481867 8.182399762286131,-8.609466463027992 " fill="none" stroke="black" stroke-width="1" /></svg>