<?xml version="1.0" encoding="utf-8" ?>
<svg baseProfile="full" height="241.05979088237726" version="1.1" width="201.99845990973026" xmlns="http://www.w3.org/2000/svg" xmlns:ev="http://www.w3.org/2001/xml-events" xmlns:xlink="http://www.w3.org/1999/xlink"><defs /><rect fill="white" height="241.05979088237726" width="201.99845990973026" x="0" y="0" /><path d="M25,209.46783218067068 m0.0,0.0 m2.9691784195735447,6.591958701706569 l42.08912895838179,-43.972305275266315 15.780776040298973,9.815253118418452 l13.814387654189977,-92.00501257294727 -7.280773016498909,-9.223055439392498 l8.64888469047631,0.1175361140906317 5.574446760039433,-4.557154142216969 l0.23483103436651748,-5.625554064337118 -6.317950519911567,-2.5204221478844993 l-1.501904854930336,4.16391285904982 1.6933829980627673,4.355558666695124 l7.013724272419164,-1.119310491182104 6.537121678126752,5.5328174777263 m-3.4595433019693256,-34.55239349371471 l8.030123878101447,-6.532448615358617 8.278832843508612,-7.131889193085336 l6.380676615435151,-0.9296008787837825 6.201733789377652,5.11032306944736 l17.0927817074259,5.598648531613349 8.951655769681054,1.217261592937914 l10.767356782262873,8.614737074307358 m0.49960771131245807,-0.042743062067230886 l-8.510921084911528,-2.5346227359270195 -3.674133472101744,-7.803806824808472 l-7.972060332106041,-5.955344046957065 -4.619836160399744,-3.781656027396907 l-13.914588491495431,-7.180380455706124 -2.366260101958335,-0.11813991963155912 l-0.6567304749396254,4.3772196579100076 -5.856352306020566,6.215774048548808 l1.2502732419979572,4.810179051532297 6.078034469043532,4.124945592225299 l9.26269737546685,9.911460389961002 -5.29777196296097,2.031471754490828 l-9.768386924651889,1.160998566237745 " fill="none" stroke="black" stroke-width="1" /></svg>