<?xml version="1.0" encoding="utf-8" ?>
<svg baseProfile="full" height="146.82219821203284" version="1.1" width="132.75335124760647" xmlns="http://www.w3.org/2000/svg" xmlns:ev="http://www.w3.org/2001/xml-events" xmlns:xlink="http://www.w3.org/1999/xlink"><defs /><rect fill="white" height="146.82219821203284" width="132.75335124760647" x="0" y="0" /><path d="M107.75335124760647,57.76999310389087 m0.0,0.0 m-35.4160679963888,-13.137164526143705 l-5.831805102221095,-3.7666037216942283 9.60188930237349,1.1987866666525069 l6.504684135713201,-0.8364888317239564 -13.2222674876063,19.279623403029042 l-34.07113862160139,53.82649409188961 17.795794963914606,7.487558026132731 l9.09123989804946,-0.6251519013563078 3.314090908478476,-5.690231221374306 l0.6770288880110714,-10.309220507590636 -6.144077608325152,-16.738334939565505 l-9.02314265952762,-2.7698247516931738 -7.018332041612984,-30.267253430238902 l-8.74522518597605,-3.6420865983825457 4.747693037206091,-10.9680574562117 l-0.996024409510145,-8.452862688962822 -4.683597466806697,-6.229991808484243 l-5.57687215805402,-1.1291829081727063 -2.2292936697968995,9.784877032245479 l11.061948613870817,4.124322060569294 12.527377000304318,-0.1709411637283545 l-0.5032471947010859,-5.153745587947789 m-18.753535054782596,18.165756159580944 l-0.06122360460486944,10.10441518853866 5.1545580598610075,6.349533580072109 l3.687364759045136,10.935330461824654 -6.2773490161667915,9.461393662143246 l-8.363821536751612,-0.27040072454931424 1.307453864715236,-0.145879054697703 l16.230642750063787,-1.1047029642459139 3.519477932208915,-5.270287444925075 l0.32047592292803934,-2.7202588314278864 4.8109565753354895,-0.228021408094623 l-11.931061037983792,4.316852555007464 -5.1417114879640256,15.67652988999184 " fill="none" stroke="black" stroke-width="1" /></svg>