<?xml version="1.0" encoding="utf-8" ?>
<svg baseProfile="full" height="134.4964927069326" version="1.1" width="98.42774097151002" xmlns="http://www.w3.org/2000/svg" xmlns:ev="http://www.w3.org/2001/xml-events" xmlns:xlink="http://www.w3.org/1999/xlink"><defs /><rect fill="white" height="134.4964927069326" width="98.42774097151002" x="0" y="0" /><path d="M25,52.051899189859526 m0.0,0.0 m13.557164714305614,-26.41701305905924 l-5.160073229863451,3.902865921172436 7.070751196492978,7.376436883413462 l3.5694210796299597,-1.4496996067831343 -2.464513625708568,6.08476868831352 l1.4379983176734528,3.798665901674095 3.877798811032745,3.9528795021850485 l9.745021479984842,0.12778985277498953 2.3001744626759977,2.05452625883409 l6.884673616846119,-8.06696955669044 -0.14420287514401947,-1.954357504196443 l0.8349597322042531,-1.0790623564114643 -2.2737080926519373,1.6082256670781585 l-0.3854668945882601,-1.4420379816719968 -4.231785506028844,-2.6989531952572174 l-6.981076543565262,0.8948168702989507 10.05520567240568,3.740903546869464 l6.4741502955242165,14.095728416960442 -1.8463635381679677,-1.9432969806815936 l-8.02717618054364,-2.9723408177417907 m-13.162287518748604,28.079315358248866 l5.601919187787563,6.3341703944256995 14.02545025988434,-1.1243180226741691 l1.7481055955834313,3.70252025104036 -2.0107042795084826,3.4357489866420656 l-0.3790879687146477,12.027693122601852 7.458345177439752,5.243482367193031 l0.8530476252727571,0.13210460851404007 -1.6818194683740002,-2.1806388857977046 m-13.253213549008004,-77.63900150437453 l-3.4458705336374753,-4.676852316760373 -2.5936051371697486,4.217589782064349 l4.546780610080869,4.763059503820479 -2.1531296996818066,11.400526184838018 l1.8164345419191654,4.439203593983703 " fill="none" stroke="black" stroke-width="1" /></svg>