<?xml version="1.0" encoding="utf-8" ?>
<svg baseProfile="full" height="157.87663576175737" version="1.1" width="214.27429226434464" xmlns="http://www.w3.org/2000/svg" xmlns:ev="http://www.w3.org/2001/xml-events" xmlns:xlink="http://www.w3.org/1999/xlink"><defs /><rect fill="white" height="157.87663576175737" width="214.27429226434464" x="0" y="0" /><path d="M25,132.87663576175737 m0.0,0.0 m51.984576592358934,-17.270767559344424 l52.926466717042814,16.995838739657962 4.224401079746467,-51.76522563993175 l9.448619781406709,-4.152462064164714 6.317275922619096,3.071769337014305 l6.0540610111455235,8.376934365138153 8.071478868302504,10.028478132670267 l8.479854556975322,5.877278519346659 5.96529251637415,6.068658395217576 l10.802265218373117,5.503737011518968 -1.3885351763639497,3.483174001101546 l-6.792173208769435,8.97372401311321 0.40210032315683264,3.9957075374269033 l-4.599619111722615,-1.8696886641201789 -7.280552905525144,-2.565537748960563 l-7.088302625759951,-6.919900092356258 6.500368974791938,-4.093556174033451 l-0.27728352707409587,-4.749305623401008 1.5947873102597334,-5.996057286424968 l1.8842593668530996,1.1831608013476635 2.3285554601509615,1.4453875384860886 l-24.64677633948399,5.158247242730921 -4.5146892863052654,0.6970545116250673 l3.292377380103813,-0.27549036140400884 5.271739676135629,-26.134038316496433 l1.188877110392399,-2.358868572709049 0.34615148269311447,-2.7282891657112742 l7.684387938120613,-1.9594989887145247 4.6963894743049535,-5.535832084823824 l1.7561351235173595,-12.689255049344533 4.482369598843836,-8.02125036585851 l-6.7354044577505885,-2.34786352513464 -1.3570247391921657,-9.066055374545062 l-4.09932690324502,-10.33582041266993 -3.182139765775134,-7.901022838003566 " fill="none" stroke="black" stroke-width="1" /></svg>