<?xml version="1.0" encoding="utf-8" ?>
<svg baseProfile="full" height="127.07912906646928" version="1.1" width="153.69600757045094" xmlns="http://www.w3.org/2000/svg" xmlns:ev="http://www.w3.org/2001/xml-events" xmlns:xlink="http://www.w3.org/1999/xlink"><defs /><rect fill="white" height="127.07912906646928" width="153.69600757045094" x="0" y="0" /><path d="M25,101.67037381367408 m0.0,0.0 m14.668208919051343,0.40875525279521097 l5.919473006346064,-5.682132064957761 4.811235237269808,-8.247336715816829 l-0.2646333779514103,-4.9286427360720495 3.841768891772628,-2.481076065736232 l10.68806772854756,0.20742098360270564 5.076291352881208,2.2549995485517424 l3.0302492020726515,3.6398854809982937 0.7761346451021713,2.151013865771742 l-3.5516256962568358,7.215395553959879 -4.610391595059939,0.7054046510980674 l-8.638725601890325,-3.863291655649748 -6.73944888977193,-13.421150720061227 l-0.239334642723672,-10.84928627049596 -6.216171297462979,-0.27024166715654996 l1.6360069054652309,14.673342814295264 4.165458086930636,0.6172268293617345 l17.822473643999263,-5.387736469788453 3.46096222936348,-4.134364989561214 l-2.5257560462073636,-5.940110266966077 m11.224554899628302,-43.33844917184661 l1.024234364052612,0.2958362310825881 0.8063210327132009,11.661243594881139 l9.483332132042696,3.9977897355106093 2.3098052518716123,7.748605230785852 l9.469468302391913,2.0765622802445476 7.095991399876704,3.0841872445460674 l4.499355944306604,13.668953483780701 -7.77120827055624,12.46855199712114 l-4.4915647061008475,9.127343205119312 5.60184106377516,0.5294203282263393 l5.467621372144563,1.449707980581958 3.952007967171981,-1.2697184149765768 l4.0890772653865515,1.0971886266597333 7.824926850268565,5.997422176958566 " fill="none" stroke="black" stroke-width="1" /></svg>