<?xml version="1.0" encoding="utf-8" ?>
<svg baseProfile="full" height="164.5199964293244" version="1.1" width="122.03081137483152" xmlns="http://www.w3.org/2000/svg" xmlns:ev="http://www.w3.org/2001/xml-events" xmlns:xlink="http://www.w3.org/1999/xlink"><defs /><rect fill="white" height="164.5199964293244" width="122.03081137483152" x="0" y="0" /><path d="M86.76451002667733,139.5199964293244 m0.0,0.0 m-41.07031378034929,-52.55047406839009 l10.686796377522736,-9.958068382013009 14.417564956497184,1.1897991306907325 l0.4036351032841623,5.124984841264385 -0.7194954960496921,8.61624343120603 l6.220988360405079,5.621738112485581 -0.20196561599817953,2.6685103249456854 l-6.346172069265386,2.533490701723783 3.1604250887881613,-2.1512931191720366 l2.0346814323638167,-9.443398943582611 -0.47090469862846457,-7.68109193904925 l-2.1861896710339557,-2.3016024493264067 -1.6384104680738536,0.8229547089301462 l11.645905157696026,-2.2475653432690277 1.3154883431741309,12.779389840182475 l7.086945001279063,3.2909585809277355 4.028834012171252,-3.955271145627229 l1.898489314371394,-1.2180088686105133 -3.115158583582575,-4.3194369963615085 l1.563906247694481,-5.172158775447704 -7.306452606372543,-5.982569361890029 l-18.347400578476442,-11.132139884833494 -5.500707053355028,-1.0172646448200569 l-0.44212473549339437,5.79755858586587 1.6790994954221228,-35.955846610150644 l-8.645131387342282,-5.903964310626599 -3.398602112370832,-1.9754698443765846 l0.8702647044297418,1.3160947580056976 3.9107783033361874,-1.1586146831506094 l8.480026281875391,12.22784821562683 6.912382777026498,0.3264688361657442 l-16.619085289228526,21.196252061383838 -19.510933159119357,2.689030476368288 l-5.496375690675756,-4.0917673380140895 -7.065297988599207,-3.2033309325606143 " fill="none" stroke="black" stroke-width="1" /></svg>