<?xml version="1.0" encoding="utf-8" ?>
<svg baseProfile="full" height="198.65529860406306" version="1.1" width="113.57726281191998" xmlns="http://www.w3.org/2000/svg" xmlns:ev="http://www.w3.org/2001/xml-events" xmlns:xlink="http://www.w3.org/1999/xlink"><defs /><rect fill="white" height="198.65529860406306" width="113.57726281191998" x="0" y="0" /><path d="M82.48726967276511,159.25608618238104 m0.0,0.0 m2.387707619601384,-4.562140462256955 l2.944712840654019,-4.4950684614544185 0.7575726788994654,-3.253343015021145 l-5.163507536138152,-6.203996527754536 -1.3489486942721247,12.08423364123391 l-6.438455830392625,4.297882886119009 -7.593828190846086,5.399234846920229 l5.2417069541887695,11.132409513895922 m-28.872513336709236,-22.418607535738325 l-2.3520257107501843,-10.583384786796985 9.682944867753948,-11.563892715208008 l-0.23109439896437212,-8.339943796949687 -2.5243091125740773,-11.52029526513155 l10.600628298461459,-13.21149321261795 11.280206046952463,-14.44799250472077 l-7.180805708589282,-0.15102054498385753 -5.326425153501552,-4.2249502464305895 l-10.51664884226738,1.0562258712247856 -13.365056056110255,4.825188540641845 l0.5368083102987964,0.9221394389278526 -5.233488799397965,-0.023204752375231563 l-2.2865378568788506,-5.754832182741578 3.7561440229128626,-4.588911788356314 l-6.242056085096133,-7.021778344877778 4.861975266322808,-7.346206885206096 l6.72957268838515,-5.06931827784092 1.5105770359708353,-4.315642655970638 l7.630645830558032,-4.389752046679849 12.647110245560098,3.320166173124989 l9.241660787686229,6.060036345606967 -3.6539425261123957,3.8322945257225403 l6.157691225666697,1.0948354632999424 5.527615618691533,1.5086481506685017 l5.952930534084544,-9.343442461254336 -7.0235394817383785,-26.960163109400014 l-8.921138608082513,14.943425187789538 -4.768751518895036,20.666880514558343 l-10.65777570018542,-0.36147104917555306 " fill="none" stroke="black" stroke-width="1" /></svg>