<?xml version="1.0" encoding="utf-8" ?>
<svg baseProfile="full" height="328.81855071103615" version="1.1" width="165.16590739144743" xmlns="http://www.w3.org/2000/svg" xmlns:ev="http://www.w3.org/2001/xml-events" xmlns:xlink="http://www.w3.org/1999/xlink"><defs /><rect fill="white" height="328.81855071103615" width="165.16590739144743" x="0" y="0" /><path d="M25,303.81855071103615 m0.0,0.0 m24.960674995677596,-4.111038424870423 l19.98320909143825,-40.84027090423598 16.35478580487854,-90.38002118732744 l3.281656666387218,-80.68020139144174 14.946602072773741,-40.28721832129119 l-5.413494555618825,-13.043314586538527 6.8616693408019245,1.268611406809857 l-1.7728881759548343,7.780144655769626 m1.071607429498989,-18.525241957910293 m0.6296328198594403,10.225219695040773 l-8.049198649614885,9.725692741828157 -7.51103881103696,5.3487539773635415 l4.779237202884054,7.497499534428647 6.265815277657431,4.789453122269592 l5.90376444506676,-3.471810819163473 3.5905712134683676,-3.668984083874872 l2.3286912299086278,-9.938519133833962 -0.456343192424972,-5.466065677722208 l-7.245744576219752,-7.310523656681578 m2.0698495998913655,7.073427246705705 l1.8167807262571072,3.348511660756804 -2.506642566989784,-4.391294719030466 l-4.928859832549259,-8.611213241859147 -1.707055061796093,-1.7370752671256344 l-4.4359277325293185,-1.444550452856943 -0.8528717957084498,5.307814359641548 l3.173592123965724,-4.512512988169328 5.510264614666774,7.486298967624815 l8.094501444827161,6.945062586088859 4.268469187217352,10.291349988290976 l4.9360486364695655,1.9883599097904985 5.427388831702796,2.9440442301927914 l11.204017969517398,-2.452266022376078 0.1681073233976016,0.304073728024728 l2.419034293676808,-9.008201804872332 -0.2006336081088339,-1.1315666932590567 l-0.9460663144422105,6.882365752055398 -34.67146736643477,12.406893956338797 " fill="none" stroke="black" stroke-width="1" /></svg>