<?xml version="1.0" encoding="utf-8" ?>
<svg baseProfile="full" height="242.9873099604299" version="1.1" width="121.01662706496259" xmlns="http://www.w3.org/2000/svg" xmlns:ev="http://www.w3.org/2001/xml-events" xmlns:xlink="http://www.w3.org/1999/xlink"><defs /><rect fill="white" height="242.9873099604299" width="121.01662706496259" x="0" y="0" /><path d="M45.92468481501796,164.15195852112072 m0.0,0.0 m27.244930920485356,8.51027016429045 l5.043727803748744,-1.9246779742395403 13.135867998852213,47.249759249258275 l-2.7341152312957715,-64.66731343162763 5.320737738571105,-2.8768125489235157 l2.0807930195829827,-2.667920497459409 -3.9870094884402416,-2.274400570130463 l-12.258082475778567,-7.778767592107998 0.1506463162195848,-3.455614787573263 l-1.6149421910986077,-6.01206168911186 -1.0745196133901018,-11.970539120407171 l2.0705951557571303,-9.705025741504256 -5.900499634349432,-6.955885329222556 l-5.770871214675034,19.759508263848073 5.2536416783098945,-1.9356034429799396 l2.77526649520725,4.785316607949494 12.459976634568601,11.241196189930244 l-2.6073248709189234,5.217896223102483 3.0543808819340703,8.757604245777202 l-0.34144418687700184,9.48883762542617 m-12.917585195692116,-28.272878450657178 l-1.383558094301575,-15.228868897201524 3.227648593571826,-12.475134216791663 l-6.697145430393592,-8.432978474130332 -4.3940629127109965,3.133979062852264 l-19.8889747304087,4.321587172917974 -9.146424727453219,-3.5493693783151614 l-6.24751565567109,4.027230682304379 -5.77882239837175,-2.113788848696561 l0.958623115698124,-12.212097773587809 3.044871718899772,-6.367837912225595 l2.795561211359605,-11.234645978017573 7.751319379571513,-5.946965016746207 l0.7153236880253305,-4.116363812787418 3.409131345131614,-11.297742950930582 l12.830841311095305,-3.7317326687476036 5.659170176649868,-2.02949705240834 l-22.13377103045828,-16.410619852246576 " fill="none" stroke="black" stroke-width="1" /></svg>