<?xml version="1.0" encoding="utf-8" ?>
<svg baseProfile="full" height="126.10684814490837" version="1.1" width="101.70349798375369" xmlns="http://www.w3.org/2000/svg" xmlns:ev="http://www.w3.org/2001/xml-events" xmlns:xlink="http://www.w3.org/1999/xlink"><defs /><rect fill="white" height="126.10684814490837" width="101.70349798375369" x="0" y="0" /><path d="M47.81679480657584,100.12214277665511 m0.0,0.0 m-16.327130241090344,-62.05497770119252 l-6.4896645654855,-2.9550339511788546 m5.326759071316058,7.242118583667021 l6.857597651858913,4.272696725843974 -0.6610572806682735,4.10753079352437 l-2.2476059291691795,-8.082458479177056 7.12910949927522,-6.3191945808229155 l4.852559540332463,-2.6104191480035235 7.0543853133455725,1.2561997913470087 l-1.6145404111290556,-0.3676195044313485 -4.374858309063204,-0.8164595567240507 l2.5078949078251087,-3.185850512801751 -7.159668712966341,-5.608675236705472 l4.719034925172997,8.75668660707699 0.30867778012553454,9.366238682521809 l-0.4968693805165217,13.033969332551706 10.071818300310587,8.489592068527362 l3.0065987355649164,7.113901893349862 -5.930479188661854,6.894322162512784 l-5.217483668572795,2.054021369307076 0.6443876108205315,5.721388727364657 m0.8390399366229495,-8.74645080048862 l9.647594959971668,-9.039961445527892 -4.912999970015297,10.80318127823429 l-1.355571873107705,6.867691386031135 6.5228742742474575,5.431878020574571 l3.0083391389741214,2.8951776180895292 -3.2837283937089454,6.465211244783116 l-5.408551615681568,-0.6762312367174383 2.2211672999970156,-0.8311087869756235 l5.4956385037770605,0.7309656159118183 1.152669729741385,-1.3618779790701658 l5.513701577915647,-7.049424158005869 7.487063959819222,0.504139439469054 l-4.206693680167977,2.5075937146880958 " fill="none" stroke="black" stroke-width="1" /></svg>