<?xml version="1.0" encoding="utf-8" ?>
<svg baseProfile="full" height="88.22358911569319" version="1.1" width="110.25107859851994" xmlns="http://www.w3.org/2000/svg" xmlns:ev="http://www.w3.org/2001/xml-events" xmlns:xlink="http://www.w3.org/1999/xlink"><defs /><rect fill="white" height="88.22358911569319" width="110.25107859851994" x="0" y="0" /><path d="M35.55640479350887,33.41028643170881 m0.0,0.0 m-10.556404793508868,7.685162072259053 l10.323076744146066,-1.4220233565294456 5.240777114519681,1.8148852461928358 l0.18192567021386363,-0.8705080411055142 1.963392069689835,-1.0823405211312298 l5.150550314160649,-1.3668784262915956 2.7875195212773476,-0.7773526178148746 l0.8072660628342266,2.284119648747717 2.132259055481059,3.2675227293726508 l1.189423489240079,5.5406411209866295 -0.8650840399043752,5.506694241541643 l5.890158622160336,3.6075809462083286 -4.410529725476074,2.1418681195934757 l-6.888915720202365,2.4314953992551644 4.626162286092271,1.0524361226995302 l5.589133177854839,-7.604792878666342 -6.688667220183399,-10.341648835473757 m18.02517842411249,-18.9310440085544 l2.0692589845878704,-1.3461033929986792 -3.083115929555568,4.048411632997206 l10.800696662113937,1.464141969603972 5.41061303535718,7.123203914767259 l-3.7137840246981457,0.8579144236179287 0.18326974572179078,3.446741443216207 l-3.337210383022807,0.7558203346485148 -13.73565946720893,9.395992976855904 l-15.079695093655676,-6.048401319728083 -0.1749212253826976,0.35401255158151734 l-1.5076997933164793,-3.0489023325122653 -2.6387167525259563,-5.097643338214352 l-6.876546169937082,-1.7697310201856298 -6.7088356450365945,4.5262463926688286 l6.891533475505322,2.603199890138214 -13.138246739065224,0.7666214065044215 l7.8220617896713325,-9.493514016032272 " fill="none" stroke="black" stroke-width="1" /></svg>