<?xml version="1.0" encoding="utf-8" ?>
<svg baseProfile="full" height="133.0948208591063" version="1.1" width="142.60337440026558" xmlns="http://www.w3.org/2000/svg" xmlns:ev="http://www.w3.org/2001/xml-events" xmlns:xlink="http://www.w3.org/1999/xlink"><defs /><rect fill="white" height="133.0948208591063" width="142.60337440026558" x="0" y="0" /><path d="M100.14554039325897,54.95319054605908 m0.0,0.0 m15.142628242892066,35.97948140651704 l2.3152057641145416,8.379436855350612 -2.7620806070728614,2.5386478114434508 l-1.3243819035658533,-4.869885157196776 -1.1084632631483242,3.163535905153475 l2.5964127896197517,1.211671017647458 -7.025358365744815,-1.569724965402211 l-15.767584620842818,-0.2860805066259181 -5.793496100345201,6.0650741704511795 l8.148751374425668,2.5294737757089036 4.647259253298513,-1.0955976302055181 l-4.9488070156113455,-7.633642925972069 m-16.063519049988905,-5.557737789178372 m-9.73871574569876,-59.056565416427155 l5.696636385939959,3.4656102838974743 14.46390151963103,23.00943937558844 l-0.9149173440913739,3.384195872508137 -2.718802034683249,5.190273984086519 l0.006642002823696175,13.402074703577686 -0.42175010458117224,7.538597256665167 l-4.512335629669361,-4.197537888006699 m-6.722092598417217,-8.949303139018015 l-0.27641548248890924,-7.692477193457517 -7.886359848708883,6.728742623845531 m1.9656989697059573,-51.63089297700992 l6.077305977225637,0.6414527802017713 9.451865382805783,8.749393417371168 l-1.6655426471183412,6.477597098709397 -0.6293570686174985,6.089840114482386 l-3.71084362488209,9.212325268704179 -8.52066171205394,5.277697776719181 l2.483412585491483,-2.1586129644442544 -5.734711670875761,2.331103174709641 l-11.473945591920645,-2.0185320080617766 -2.2031756799533677,0.6459019925187693 l9.289312328830839,-0.8012322481951536 6.023343520353579,-10.68948895988953 l-5.461188097992598,1.5390885929262894 5.127172523234629,5.422803546859048 l-40.70049929153908,-4.678952565926224 -0.49608391403973107,6.415840990758728 l2.347435011386522,-10.116658597666792 " fill="none" stroke="black" stroke-width="1" /></svg>