<?xml version="1.0" encoding="utf-8" ?>
<svg baseProfile="full" height="232.7609885621838" version="1.1" width="83.48692577555289" xmlns="http://www.w3.org/2000/svg" xmlns:ev="http://www.w3.org/2001/xml-events" xmlns:xlink="http://www.w3.org/1999/xlink"><defs /><rect fill="white" height="232.7609885621838" width="83.48692577555289" x="0" y="0" /><path d="M25,28.79090589630942 m0.0,0.0 m5.110638982787681,12.911703998117469 l-0.049493496210519794,-6.363391413420719 4.113236739181543,-8.20264949550169 l-6.95739324017287,-2.1365689855044825 5.2799603702960525,6.277690187214833 l12.389651762965752,3.5337352436224854 3.0358669265460847,5.969447970408798 l4.221154351042269,8.148735680477234 2.5110600759623427,10.018862863384754 l-0.7824707977195983,6.240626962949129 -2.918481841684396,3.145856660146845 l-3.936555342971223,-0.7056347830409396 m-19.135121831062154,38.79822227412871 l1.9459434541901859,3.9227433358830357 12.797536262054509,0.8471566520395261 l3.8164721549868528,2.414173870012545 -10.451361685728887,5.829465831552594 l5.8003825929843345,7.891117191950047 5.933933230579593,3.1743618823147166 l-0.9469801639731196,2.5468189005852815 -1.6165010242051552,4.160513338153892 l12.61129398395979,-4.401735989686562 0.7141543117438277,-6.803647358133224 l-8.115828763314413,-6.782174073450584 -1.0222793361328568,9.791952066413376 l0.6659526679397354,8.823411592510787 -2.8959953680910653,15.51399483621988 l-2.36686406272646,5.938992945161539 -6.650971310057795,21.814371849461835 l3.0552181384709454,-0.6447855263904995 4.756562240075427,3.0757918402714437 l1.304094671760593,1.9079369739204073 2.983481488561052,1.2532750409844744 l-14.545565288750307,-0.83420864841487 -4.615925205918408,21.893918951532314 " fill="none" stroke="black" stroke-width="1" /></svg>