<?xml version="1.0" encoding="utf-8" ?>
<svg baseProfile="full" height="190.23034056897862" version="1.1" width="163.1889304055241" xmlns="http://www.w3.org/2000/svg" xmlns:ev="http://www.w3.org/2001/xml-events" xmlns:xlink="http://www.w3.org/1999/xlink"><defs /><rect fill="white" height="190.23034056897862" width="163.1889304055241" x="0" y="0" /><path d="M25,165.23034056897862 m0.0,0.0 m5.22503462257047,-107.5913606842294 l0.9073754164015281,-4.031523455654072 -2.6421835165532235,-5.932620791208592 m2.6319516993475323,-7.187629849675124 l3.747894922994021,-12.243878107680652 7.398208508247266,-3.243327680530795 l7.319637858381325,4.9053844517768415 7.730927199090841,9.108445778845512 l-2.832304034664944,9.118457452477713 -7.475120456155509,19.51171570417025 l-6.972791185754437,16.18250199726266 -4.9249957759356935,9.344011252012411 l-0.0822782114695253,14.371624894842233 -4.979685289533851,8.130034405881467 l6.48795885549004,2.4849707182462986 6.362303401911393,-0.5373535552521815 l10.391619230892703,-8.523575268937092 -9.591720011148308,-8.809188235555046 l-9.128552479093202,-2.8328849279531987 -5.5478367090804275,-3.305169270417954 l-3.8086696895857406,-3.914703855093805 6.421995528360853,-16.171325756144558 l8.673053510016485,-6.596412896549646 -1.2571465168450218,-4.2350878337380315 l-6.5844530768656515,-8.81838940917248 3.8062810290565285,0.09704649424947864 l1.7413836579689306,-9.868161764289155 -0.5545633215841111,-2.973070873541026 m12.310708242918546,-5.3794946657913245 l8.343076442379179,2.282995905841685 5.950171976059675,5.092018322132345 l-7.677241551548668,7.7376343116578825 7.870379223269441,34.222537643751735 l44.99839719879437,19.380612221360412 m28.930113707191285,8.207817916696092 " fill="none" stroke="black" stroke-width="1" /></svg>