<?xml version="1.0" encoding="utf-8" ?>
<svg baseProfile="full" height="230.4288812425616" version="1.1" width="275.0892281655786" xmlns="http://www.w3.org/2000/svg" xmlns:ev="http://www.w3.org/2001/xml-events" xmlns:xlink="http://www.w3.org/1999/xlink"><defs /><rect fill="white" height="230.4288812425616" width="275.0892281655786" x="0" y="0" /><path d="M218.12612400102387,197.26582882725177 m0.0,0.0 m0.3427065419225439,-63.31256194481427 l22.443739219274377,5.475145234068779 8.076701526986557,19.5490277899852 l-2.1986151963220073,26.602679115041248 3.2985720726932946,19.848762221028885 l-6.9078919452545815,-1.2729119930045079 -2.7365622522089654,0.6302871799176796 l-12.607681739686331,-11.421930118391458 -10.886566010313274,-6.406979421216052 l-16.2474167230694,8.248256257234754 -17.820723702859,-7.229386943565355 l-19.93152684499772,-4.899372298677855 -30.89132394803311,-11.314400961918292 l-3.669942938228841,-10.046441894719536 1.2133818636632994,-12.513468377390046 l7.347633088848238,-11.223609497800146 8.440596044287208,-10.693704226486238 l4.878175738510872,-4.528383999267455 -10.2072676573819,-9.888780595577895 l-10.352984677102858,-4.512760981671093 -27.6014436079929,8.124633620326192 l-3.6742967794055503,12.483699995478913 -10.936247286366774,2.290190000859591 l3.9842639791932966,1.4505102199134745 11.736379060516006,3.074455466670085 l7.099593289923105,-11.624911468466072 -12.598710357340865,-26.24771796876485 l2.4152540697508655,-16.911358986463483 -5.788282158677693,2.5393327913068164 l-5.975125574029074,-1.1924994009827161 -0.16490801602093264,1.215089914568992 l7.352323622006783,-7.652756573734545 12.308360399579431,-3.6082331239163588 l-38.468063781508896,-6.962613226832073 -44.39822332137905,-40.33311462999208 " fill="none" stroke="black" stroke-width="1" /></svg>