<?xml version="1.0" encoding="utf-8" ?>
<svg baseProfile="full" height="251.41521481711882" version="1.1" width="164.34218216196717" xmlns="http://www.w3.org/2000/svg" xmlns:ev="http://www.w3.org/2001/xml-events" xmlns:xlink="http://www.w3.org/1999/xlink"><defs /><rect fill="white" height="251.41521481711882" width="164.34218216196717" x="0" y="0" /><path d="M25,208.53843431198257 m0.0,0.0 m3.522459656575759,17.876780505136253 l20.14234163489132,-29.030925148396303 -2.1700489182469296,-4.924537396772923 l1.8532305292610007,-21.093889444550786 19.302130310779553,-43.968637668111874 l9.654085228392383,-42.69458953439406 7.0650909475645625,-7.283801871965141 l-3.6740088559506154,-2.8604675008505343 -1.1001141561033594,0.35509553512600306 l-5.060442201081583,3.510367935253272 12.737166222096494,-5.156885551577262 l10.237138218437897,-4.411806913157357 15.249034455904411,-6.571065420935695 l2.804019695539464,-0.6346809447672525 2.4015417604286418,7.069882961868803 l3.706642755406526,0.5130081680543797 0.8599296676256452,-1.7978456800052078 l-5.849589832202516,-5.916202089240793 -8.566722305474453,-9.07771632075019 l6.147260824179908,-11.03030930866746 12.399823621891324,-3.8119376777022387 l-7.833731976535369,-8.983378034099397 2.264191571287353,-3.2157444798814936 l3.820842705839852,-0.39914843159532115 10.852258410349718,11.116796033965823 l3.5776521911101833,4.451955309292097 -1.8146610136727386,0.38826641213279833 l-0.8169267399481402,-3.236864332465218 -21.935614641656763,3.918096602972314 l-18.208830090983568,-6.3794396982294295 0.836348646125698,4.05739094704531 l7.63716973620975,4.59993342861732 16.830547775385007,11.183515181700399 m-9.679757518463893,19.70049881164768 l5.833290092497446,-1.7931113475092912 " fill="none" stroke="black" stroke-width="1" /></svg>