<?xml version="1.0" encoding="utf-8"?>
<!-- Generator: Adobe Illustrator 24.0.0, SVG Export Plug-In . SVG Version: 6.00 Build 0)  -->
<svg version="1.1" id="Layer_1" xmlns:ev="http://www.w3.org/2001/xml-events"
	 xmlns="http://www.w3.org/2000/svg" xmlns:xlink="http://www.w3.org/1999/xlink" x="0px" y="0px" viewBox="0 0 137.3 161.9"
	 style="enable-background:new 0 0 137.3 161.9;" xml:space="preserve">
<style type="text/css">
	.st0{fill:#FFFFFF;}
	.st1{fill:none;stroke:#000000;}
</style>
<rect y="0" class="st0" width="137.3" height="161.9"/>
<path class="st1" d="M33.2,87.3l17.7-58.5l2.7-0.4l-2.1,8.5l-3.2,11l6.9,4.9l6.7,5.1l7.8,8.5l1.1,6.2l10.9,1.2l4.6,2l9.4-0.5
	l6.5,3.3l10.1-2.5l-2.1-5.3l-0.1-1.2l-6.1-0.2l-5.9,0l-6,5.8l-8.3,13.9l-2.1,7.5L76.9,95l-6.9-5.5l-16.6,8.1 M51.1,28.4l8.6-7.6
	l2.9-1.2l-2.8-0.1l-10.9-1.7 M50.5,38.4l-23.3,4.8"/>
</svg>
