<?xml version="1.0" encoding="utf-8" ?>
<svg baseProfile="full" height="192.96567006214394" version="1.1" width="171.05827873874637" xmlns="http://www.w3.org/2000/svg" xmlns:ev="http://www.w3.org/2001/xml-events" xmlns:xlink="http://www.w3.org/1999/xlink"><defs /><rect fill="white" height="192.96567006214394" width="171.05827873874637" x="0" y="0" /><path d="M25,155.87501764930468 m0.0,0.0 m5.59509741545722,12.090652412839251 m11.517090964057184,-22.02132102334171 l-0.12530466754331263,-3.4215830368717364 -4.762530649658072,-7.834422739004818 l-2.899961022206136,-11.388978657936768 m24.041368189836554,-98.2993646049889 l5.554806837611684,6.372563735414198 4.139065994820453,2.4819497211328145 l1.4168523873622934,1.2704016884144214 2.2067972960485807,3.1933650892744003 l4.655115443020296,3.123907615656466 5.965434186692334,4.898451451441561 l4.4742246732866215,3.401292285301354 3.7955584520810195,1.641282793568536 l5.710508674845378,9.679373547098926 8.129161659284062,3.6987945731819805 l7.820230667123874,4.057012234914371 6.876011020383013,10.12413230500232 l-1.9010979871802458,10.288487063058406 2.4588250261704703,6.40699970814354 l6.302957081533711,-6.59703672709798 -3.2866017848040894,-4.458667957137703 l5.188186181703143,-6.882463844270086 1.533583508347618,-3.0110921370496513 l-8.303803083555573,-2.7522783807300697 0.32743547023147135,3.9701091149007315 l-7.791084993010964,12.816063622168148 1.7148423294942416,4.5665056381703275 l2.5279732193817237,2.2590915765074535 7.9986892576276585,13.590833397200667 l5.656928465193306,6.190003469796315 3.8832919483830968,3.6266752999388734 l-6.519207754133541,3.6407813819488055 -10.365862185011045,-8.576297287778454 l27.523696515872345,-79.71630352290781 " fill="none" stroke="black" stroke-width="1" /></svg>