<?xml version="1.0" encoding="utf-8"?>
<!-- Generator: Adobe Illustrator 24.0.0, SVG Export Plug-In . SVG Version: 6.00 Build 0)  -->
<svg version="1.1" id="Layer_1" xmlns:ev="http://www.w3.org/2001/xml-events"
	 xmlns="http://www.w3.org/2000/svg" xmlns:xlink="http://www.w3.org/1999/xlink" x="0px" y="0px" viewBox="0 0 103.5 205.7"
	 style="enable-background:new 0 0 103.5 205.7;" xml:space="preserve">
<style type="text/css">
	.st0{fill:none;stroke:#000000;}
</style>
<path class="st0" d="M7.3,150c0,0,2.6-74,9.8-97.4C20.9,40.3,29.4,11,41.8,7.5c1.6-0.5,4.9,2,6,3.4c1,1.2,1.4,4.5,1.9,5.9
	c0.9,2.4,3.7,7,3.7,9.6 M18.2,119c0,2.6,7.3,2.6,9.9,3.2c2.9,0.7,9.3,0.3,11.9,1.8c0.8,0.4,1.6,2,2.2,2.7c1.3,1.4,4.3,4,5.7,5.3
	c1.7,1.6,4.5,5.4,6.7,6.2c4.1,1.6,13.2-0.1,17.6-0.3c3.9-0.2,12.1-3,15.6-1.2c1.7,0.8,3.5,4.5,3.9,6.3c0.7,2.7,0.4,8.6-0.7,11.2
	c-0.9,2.2-4.9,5.1-6.5,6.8c-1.9,2-5.6,5.9-7.6,7.9c-0.7,0.7-1.8,2.7-2.7,2.6c-2.1-0.4-3.1-5.6-3.7-7.7c-0.5-1.6-1.2-4.9-0.9-6.6
	c0.2-1.1,1.4-3.1,2.2-3.7c1.2-1,4.6-1.3,6-2.1c1.2-0.7,3-3.3,4.4-3.4c1.7-0.1,4.7,2.2,5.7,3.6c0.9,1.3,0.6,4.7,1.2,6.2
	c1,2.6,4.8,6.8,6,9.3c0.8,1.7,2.7,5.3,2.4,7.2c-0.3,1.8-2.3,5.8-4.1,5.9c-1.8,0.1-3-4.5-4.4-5.4c-2.4-1.6-8.4-2.6-11.2-3.4
	c-2.7-0.7-8.2-4-10.7-2.8c-1.7,0.8-3.1,5-3.1,6.9c0.1,3.3,7,8.6,6,11.7c-2.1,6.6-24.6,6-24.6,12.9"/>
</svg>
