<?xml version="1.0" encoding="utf-8" ?>
<svg baseProfile="full" height="157.90320508777555" version="1.1" width="172.0835330001239" xmlns="http://www.w3.org/2000/svg" xmlns:ev="http://www.w3.org/2001/xml-events" xmlns:xlink="http://www.w3.org/1999/xlink"><defs /><rect fill="white" height="157.90320508777555" width="172.0835330001239" x="0" y="0" /><path d="M147.0835330001239,97.65642100970324 m0.0,0.0 m-36.83247074289683,-16.96806271341177 l2.9049788383736517,52.21484679148408 5.930382616259574,-5.152408380930806 l0.509479336182087,-12.264795882547057 -0.8546842137899794,-17.584366041678074 l1.667855580871586,-4.033754818052067 17.79556466727241,-21.016236994534683 l-8.544148986946382,-9.082657728049027 -18.616720057011545,-17.16366024514429 l-16.1896952337454,8.48029033798794 -2.64370611270361,0.4700289352300768 l-4.777081348492185,-2.251051885959062 5.506681018452526,0.6748424018737142 l-21.025511803128786,11.072975043172166 -7.7842667132156995,6.892312340403482 l-9.230579940720434,14.028124347789577 2.188265852107246,-2.548355065925485 l-7.932593072142833,-1.4292638938603475 7.254554739736248,-17.02196917606427 l8.080175055388901,-5.649072813036426 8.307194755119967,1.9578641554094822 l-8.507222308806503,8.624964620347704 5.188544338186625,17.118340669131534 l2.048410110846482,-4.272295060622097 2.9376182649065954,5.701248018790943 l-10.333971460811856,-3.662293833067176 -5.343586124373953,0.581214930596225 l-10.56391481268952,3.6211256786558987 -13.864376245429314,-9.691012300946987 l-7.670563045887602,-5.356996104685476 -1.01588708006908,-13.396603400123523 l-0.6722588709662758,-12.403155668631133 4.762619194637581,-2.3541533821045735 l9.878427214983057,-6.830227324861392 5.051984414641955,-13.96220656634033 " fill="none" stroke="black" stroke-width="1" /></svg>