<?xml version="1.0" encoding="utf-8" ?>
<svg baseProfile="full" height="195.88223031408154" version="1.1" width="112.36062803031929" xmlns="http://www.w3.org/2000/svg" xmlns:ev="http://www.w3.org/2001/xml-events" xmlns:xlink="http://www.w3.org/1999/xlink"><defs /><rect fill="white" height="195.88223031408154" width="112.36062803031929" x="0" y="0" /><path d="M25,25 m0.0,0.0 m13.558991495877608,29.22631959750844 l9.121461291726382,29.596036042405238 5.193058543318597,9.51682286279193 l-1.145863923827284,8.619972733331998 -7.023185458456567,-3.08320622443241 l-3.3368578535797324,-3.5254226760435516 -1.2152801605630066,-7.17339058683567 l0.10146347452457072,-3.1709252951607967 6.455404133369185,1.284839001174275 l12.739740627024947,9.701166269668311 -1.1261174816977493,4.273686137296175 l-5.055321814534548,7.381883836308287 0.39094658992145664,4.219778183555785 l4.32680590419507,5.210009871684798 9.79321279310587,2.3624067887808646 l2.9665827444152457,-2.4400460021520565 m16.615587125499243,53.882299774199915 l-7.952420629877259,-2.8022886582982944 -10.20674887862374,-14.282700613615786 l-2.9707980236495093,-12.918705906196898 -0.5531339593545259,-8.35204682033583 l-1.9067814913173542,-3.898884124318256 1.218465337660392,-1.1393108850367544 l11.093763199188519,-2.8869566081078766 3.6851858694413124,-5.257337284671886 l-9.614038884307918,-7.787144392890046 m-15.359897749600028,-4.244585373520103 l-3.288953332396918,-8.929466127603197 -8.091831419882833,-8.042292591029229 l-6.013702935418726,-7.738658810451075 -4.671506960816123,-1.9767728843976717 l-1.1310976411679188,6.392185093713272 6.375281243034699,-0.11509174967569212 l13.731937989498002,-0.28551393320865215 2.416739567070467,-4.512685153502743 " fill="none" stroke="black" stroke-width="1" /></svg>