<?xml version="1.0" encoding="utf-8"?>
<!-- Generator: Adobe Illustrator 24.0.0, SVG Export Plug-In . SVG Version: 6.00 Build 0)  -->
<svg version="1.1" id="Layer_1" xmlns:ev="http://www.w3.org/2001/xml-events"
	 xmlns="http://www.w3.org/2000/svg" xmlns:xlink="http://www.w3.org/1999/xlink" x="0px" y="0px" viewBox="0 0 94.3 148.1"
	 style="enable-background:new 0 0 94.3 148.1;" xml:space="preserve">
<style type="text/css">
	.st0{fill:none;stroke:#000000;stroke-width:1.1598;}
</style>
<path class="st0" d="M19.8,40.1l9.2-5.7c0,0,3.7,5.7,3.9,7.9c0.3,3.4-2.9,9.8-2.9,13.2c0,2.5,1.7,7.4,2.4,9.8
	c0.6,2.3,1.1,7.4,2.8,9.2c1.7,1.8,7.1,2.5,9.5,3.1c2.2,0.5,7.5-0.3,9,1.4c2.2,2.5-0.4,10,0,13.3c0.1,1.2,0.5,3.5,1.1,4.5
	c1.5,2.5,6.2,6.3,8.6,8c3.8,2.6,13,5.2,16.4,8.2c1.8,1.6,4.6,5.6,5.4,7.9c1.1,2.9,2.9,9.7,1.5,12.5c-1.1,2.2-6.2,4.5-8.6,5.1
	c-1.6,0.4-5-0.1-6.6-0.2c-3.2-0.2-10.2,0.5-12.9-1.2c-2.9-1.8-7.3-8.2-7.2-11.6c0.1-4.6,7.2-11.9,10.5-15c2.5-2.3,10.3-3.6,11.6-6.7
	c1.6-3.9-2.5-12.4-4-16.3c-4.5-11.5-22.4-30.9-23.8-43.2c-0.2-1.7,0.7-5.4,1.9-6.6c1-1,4.5-0.7,5.5-1.8c1.6-1.8,1.7-6.9,2.1-9.3
	c0.6-3,1.8-12.1,1.8-12.1l-2.6-9.2 M51.5,46.1c0,4-5.4,10.7-7.8,13.9c-3,4-10.4,10.8-14.1,14.3C23.8,79.8,6.6,96.9,6.6,96.9
	S6,104.5,6.1,107c0.1,2.8,0.5,8.4,1.4,11.1c1.1,3.6,6.9,9.6,6.9,13.3"/>
</svg>
