<?xml version="1.0" encoding="utf-8" ?>
<svg baseProfile="full" height="159.7405475057039" version="1.1" width="90.63669675994389" xmlns="http://www.w3.org/2000/svg" xmlns:ev="http://www.w3.org/2001/xml-events" xmlns:xlink="http://www.w3.org/1999/xlink"><defs /><rect fill="white" height="159.7405475057039" width="90.63669675994389" x="0" y="0" /><path d="M49.86067607422419,86.70315716100484 m0.0,0.0 m11.44104943073747,42.27514900705266 l0.8521990098580601,5.76224133764638 -7.599593767986922,-2.7955883806890722 m-13.946754044524855,-18.228319742049052 l1.577913187971938,-4.624406680052084 m3.159342667705005,-77.24696618443303 l-3.2110558413207033,7.088947586267175 1.3500937215157756,12.93582443398952 l1.0006563025184323,0.9900458703939572 -0.44332230301109177,2.941942393324565 l1.692536067436429,-2.7758596935769533 -2.031056340707836,2.410449565256484 l-3.9518718207730013,3.5514525689355945 4.991242141675292,-0.8816858850499043 l7.614738775309245,-2.9223189218067325 4.057670310578503,1.3818194428941415 l3.8490174482955766,6.047120398288202 1.83870299210195,3.780941587447864 l-3.417977068463163,1.435652386495449 -3.5769316187928157,2.497825485000681 l5.585192497098035,1.273049330117358 4.944228938498374,-5.352668046582669 l-8.55363070086114,-11.177593982674091 m-16.098349011819383,-29.608417948924476 l4.658410676986123,-0.4617930882768149 0.9575419217311681,6.108714362130563 l2.702300798323932,5.7351319941500085 -2.8865641456874074,6.970993278617829 l-3.8057317987267116,1.2894966129515486 1.8621099303118904,-0.047634523331565704 l9.098584004530535,1.8425468109948944 3.8819265184348644,-3.705203408944236 l-9.386723701268401,-6.627109062773433 m-19.281823854879534,-6.009951857521596 l-3.7847473970198164,-3.3253954663175653 " fill="none" stroke="black" stroke-width="1" /></svg>