<?xml version="1.0" encoding="utf-8" ?>
<svg baseProfile="full" height="128.7980879141318" version="1.1" width="108.9234816529711" xmlns="http://www.w3.org/2000/svg" xmlns:ev="http://www.w3.org/2001/xml-events" xmlns:xlink="http://www.w3.org/1999/xlink"><defs /><rect fill="white" height="128.7980879141318" width="108.9234816529711" x="0" y="0" /><path d="M78.779156256134,92.15051763316296 m0.0,0.0 m-0.5104219266274801,-21.475759473841393 l2.7458413549108345,-2.401246459944906 2.9089059685537464,-8.288401380817916 l-3.746155959776726,1.013422076570714 -2.3549209887333356,24.909579891819266 l-0.9077183042311173,5.184730555539782 -6.143354960972716,0.9267459615241797 l-2.7878279785901494,3.0885193901048655 0.008514376596323193,6.245114125458413 l14.5264193296631,2.444865594555837 -9.445534365114765,-21.069988969697626 l-9.63056714447243,-8.743505380107669 m-24.740430649334506,8.715560043750958 l-6.147744025274859,1.8091617093618253 -1.4388195677758313,-4.739203808452091 l-3.582586972073891,-11.196076325822771 -2.5327544428801962,-4.524960274899081 l1.2936570550229165,0.6481686011532825 6.800113098507851,-0.4970890655169261 l15.120736026998093,-6.512034733502194 7.140253733759101,-1.3919937205805981 l-1.0844011063677315,4.005813699328124 9.153223070885725,9.934418777458362 l-0.39263439706419323,8.930680891811567 -7.629019111314488,-6.755447144231363 l0.390759093878551,-7.467771309568607 -0.6106222918822325,-1.9054440902078433 l6.0882457951750375,-2.0942205069848296 8.081178545817599,-11.414108157139726 l7.0900519235585024,-8.805342977984829 1.1253883944253593,-15.724705172299767 l-11.40328220766922,0.08636142229241695 0.6829670211539585,10.653481036566662 l-3.4233668318508457,-7.792618835515693 -2.426568404574161,-1.8908149711961348 " fill="none" stroke="black" stroke-width="1" /></svg>