<?xml version="1.0" encoding="utf-8" ?>
<svg baseProfile="full" height="216.15919175482563" version="1.1" width="116.01965978325501" xmlns="http://www.w3.org/2000/svg" xmlns:ev="http://www.w3.org/2001/xml-events" xmlns:xlink="http://www.w3.org/1999/xlink"><defs /><rect fill="white" height="216.15919175482563" width="116.01965978325501" x="0" y="0" /><path d="M91.01965978325501,191.15919175482563 m0.0,0.0 m-49.652104276905874,-5.552396871939325 l2.5410026757695237,-9.883705794815711 7.569993343944885,-8.300995168292648 l-1.894361478558989,-2.8153139258948903 -7.7304419566536975,-12.476033525750005 l-4.845503298172661,-11.769314164788769 7.536183679024384,-20.997355918753204 l6.401110456727701,-1.1970583055972888 -3.742364546359923,18.265356196532796 l-0.9008562355587579,-6.424295710529185 -6.756375307757178,-4.1703263129058765 l-5.350009644832552,-6.047487854489764 -5.118557386616739,-5.821047888447362 l-4.077375807305141,11.431576979961186 1.8155616454674828,8.235188345536862 l9.50562348260051,1.057224532344444 -5.575071532477955,-8.67833071087051 m30.927265018180954,-85.80445784784501 l-3.012050045756318,8.390180378111287 2.8762791093594196,1.7118038461522334 l9.001219269759494,4.903485633854155 1.6759830019897586,-0.6363185746460155 l-8.036713395235779,2.3393533806175517 -1.3803247050431973,10.19917388420014 l7.9590650882759295,12.220580982591192 6.087856288148143,7.32238466220136 l7.809602733106076,2.155071391637433 0.5580498318620548,-4.308587132025733 m-21.219265493988885,-49.27185836842238 l-1.54574652560186,-9.88193198897676 3.54717082803707,-0.3537559035758103 l1.5057449209965545,7.441208748931414 4.642845167242818,5.094795144178015 l-0.4184207720493649,7.363642247036536 7.051134723297392,8.035267907668743 " fill="none" stroke="black" stroke-width="1" /></svg>