<?xml version="1.0" encoding="utf-8" ?>
<svg baseProfile="full" height="129.09807213753987" version="1.1" width="108.0254108337785" xmlns="http://www.w3.org/2000/svg" xmlns:ev="http://www.w3.org/2001/xml-events" xmlns:xlink="http://www.w3.org/1999/xlink"><defs /><rect fill="white" height="129.09807213753987" width="108.0254108337785" x="0" y="0" /><path d="M73.7123560110125,25 m0.0,0.0 m-1.9846782678109753,29.963240580366453 l11.29773309057697,-4.101367560694647 -9.684832986241986,0.3952096821681733 l-4.8164525194809364,2.188961849171792 -6.192206276736467,7.13950482828515 l-5.810148288909948,3.17237343442776 -4.8706258883668445,1.3841050303076752 l-10.822527345862182,-3.104651039486094 -6.53355599832209,-1.095546557373559 l1.3350325362792765,-0.9060690546178548 17.08883518866586,-0.589685174545869 l6.094673150269343,-0.14705208727621844 -7.076792703961863,-3.790349855873978 l-17.946720706949435,0.16975054404980275 -2.3074755736223342,7.461065196903772 l7.142094119624425,5.750252669496186 0.5902803295208189,7.548689011005469 l-10.338650689204968,1.2598777358404558 -3.8763371804791737,-1.3719249892740908 l3.824122498110437,-3.06759799219784 14.245839943090497,-5.991844985205514 l4.5817640255313785,-2.801061286128462 -14.302428657698542,8.482843744793929 l0.6620355846082127,9.014289176018995 7.0647187904288895,4.280325449834737 l19.215523584478102,12.573322380721704 1.1085041194136727,4.3671335251070085 l-3.5938880643869253,0.9142778817149455 m-10.06595116546349,-4.525307836001691 l-13.491853130215855,-4.98712167803068 -0.5367959863686652,-5.085657365713492 l4.640563607503376,-12.530223610852984 -3.49344241248826,1.1714871306491863 l-2.4381753720201926,-1.7306117643072163 5.27955727961857,0.39565049568857535 " fill="none" stroke="black" stroke-width="1" /></svg>