<?xml version="1.0" encoding="utf-8" ?>
<svg baseProfile="full" height="136.0246720218219" version="1.1" width="99.30757860619886" xmlns="http://www.w3.org/2000/svg" xmlns:ev="http://www.w3.org/2001/xml-events" xmlns:xlink="http://www.w3.org/1999/xlink"><defs /><rect fill="white" height="136.0246720218219" width="99.30757860619886" x="0" y="0" /><path d="M69.38793598553781,100.7800563608286 m0.0,0.0 m-9.413160448287858,-12.599779221618217 l14.332803068948907,-10.329641237001995 -3.247988681189088,3.9328357308456394 l-21.65175670581095,17.407948135935243 -0.6230294001513016,2.194769193079679 l10.485624072648315,9.638483059752977 2.7259199921391977,-0.7416353131058995 m-19.25981057487597,-51.24906671158265 l1.7616798329775925,3.365148465422351 -4.761434109700595,13.647857221993064 l5.972457799344191,15.204189551341276 -2.462461328355776,0.47486761312638737 l-0.7634330592682468,-1.6026513115467012 -3.4370537622977606,-5.69482937127562 l-3.465824525322581,-3.631507141952075 1.065143417038077,-10.011483665235561 l-1.8010383896854445,-5.306140271424384 -5.70633679465459,-1.4266147387683106 l-3.5767782382517437,5.649138147987333 5.792796096378517,3.7995885957024087 l9.943835498890245,1.8312059368957279 0.8603066179467129,-3.9663423902981796 m-15.435801719602459,-23.640072521946703 l-1.7225946443951978,-6.186244132700406 5.838546263120746,-3.5376065882765575 l-0.24492122186058635,-7.895326884229934 6.503042951769769,-2.860724633432759 l5.468889248455076,-2.2464218785147416 -3.3679285455464414,4.025333035258926 l6.876546599845562,6.045982236956623 -1.5167828559723735,4.035074682192871 l-0.07814647486997783,14.9687400201298 1.4511098377565956,6.53422105866466 l18.2669268787911,18.93962322428831 -2.2934165790638605,3.2585605279759835 l-3.367141549846906,-1.9920929141459247 m-6.794976564546045,-19.90589043328412 l2.914040520011106,-4.8609547175940975 0.987898027494245,6.800539382443375 l-4.296368121749175,5.1817772589988085 -7.093560098426419,3.0135669503524047 l-1.7426797796515632,-2.481183361085145 " fill="none" stroke="black" stroke-width="1" /></svg>