<?xml version="1.0" encoding="utf-8" ?>
<svg baseProfile="full" height="233.91700193501634" version="1.1" width="139.35977295513092" xmlns="http://www.w3.org/2000/svg" xmlns:ev="http://www.w3.org/2001/xml-events" xmlns:xlink="http://www.w3.org/1999/xlink"><defs /><rect fill="white" height="233.91700193501634" width="139.35977295513092" x="0" y="0" /><path d="M110.75038164620997,208.91700193501634 m0.0,0.0 m-7.212572737829362,-62.1182293381541 l-7.947115290368898,-35.804083426280634 -15.800298676297784,-7.825384799293708 l31.67991948688054,-56.09315289145728 2.889458526536451,-2.8552938202240945 l-2.653788883034632,-0.08965227133544341 -6.977197498689925,-1.5679950928110442 l4.914703722530295,-4.678258915575116 3.263825738276745,-12.88495137988495 l-5.620070657244757,12.500353536774993 -1.3304946363430274,5.764224846649295 l-5.192140881547302,4.329242132409803 -3.7475206474436864,7.166791508567873 l-5.7453268374352735,7.047550071370675 0.30527135349882994,4.231981574853452 l-1.8104723348079443,-3.1032266125556673 -1.2700436722102333,-3.84430048475501 l-0.907039131972312,-1.755582471638872 -0.8561705694427518,-1.6218460703706254 l9.066220394544931,-1.0532735116956249 0.6802319924924632,-2.4616346408665013 l2.5950823050754717,-0.3496625313669566 1.1802257237600766,0.5822941976841711 l10.387075491549341,-0.5351913135634762 -14.92795047936744,-2.0603075892513623 l-0.5025568641171868,0.2242960438282754 2.0151964555690083,2.311077208124692 l2.18555842177773,10.546222648784909 -6.546507373279009,6.269403284748911 l-9.632337480769412,12.479559868631137 -4.622081056565319,6.070980368003505 l-2.5344598707768227,4.171698276930124 -10.71552597784993,7.219936795175497 l-10.583518959837594,9.267892643362778 -4.793417178109879,16.536810258820417 l-5.999243124044551,4.129233261167899 -9.27837644421785,-3.4788134268282636 l-9.706923995098983,-5.9180679989892075 " fill="none" stroke="black" stroke-width="1" /></svg>