<?xml version="1.0" encoding="utf-8" ?>
<svg baseProfile="full" height="240.8664324238557" version="1.1" width="189.80882530335242" xmlns="http://www.w3.org/2000/svg" xmlns:ev="http://www.w3.org/2001/xml-events" xmlns:xlink="http://www.w3.org/1999/xlink"><defs /><rect fill="white" height="240.8664324238557" width="189.80882530335242" x="0" y="0" /><path d="M138.60250714028436,215.8664324238557 m0.0,0.0 m6.178183341526046,-17.82337803980525 l20.028134821542025,14.702782487396954 -14.325439665659703,-4.233103182977992 l-1.2418299176983467,-2.0173895960740316 -3.7621320715743787,-0.9937799367130107 l-0.7178133974042,-10.53354828285367 0.6265641713087255,-4.10661601489551 l-5.116020815267266,4.14662667729834 m-31.87145301583217,-35.535125959354005 l6.037918014103458,1.8990169377334616 4.863286187608383,4.492905311372602 m-4.776883612618393,6.994400102094987 l-0.6969484677031695,2.5017175788202173 -1.3247880991884426,1.5755238962652192 m-22.29943306128072,-85.99533997986705 l14.09771602936735,-6.763925853694994 6.525973586563151,-8.84423458659409 l-0.34603341328924786,-3.1998429525027725 -8.730270255436531,-6.45816349103644 l-2.6313809092737426,-0.9286568634631556 -5.6558220982385325,-2.674543687281723 l-6.015632747518493,-1.5428089219543395 -11.792024744601942,0.23235836898732654 l-17.73955480610459,-13.311652434740662 -6.143621396384534,-2.0047304353014783 l-17.52615648460016,-4.199764801504009 4.758872593222847,-6.751270674227454 l0.7150066533030397,-2.5245806161153093 6.82024169428461,-4.943343816519641 l2.2514394003512495,-1.4518332996040084 5.181054358583159,-0.5741303567442638 l7.7417555462572585,6.529451165752139 -3.996971939705525,9.15972003855088 l-0.49305702409356555,12.121785517856498 -32.22538559483197,12.82942363629787 " fill="none" stroke="black" stroke-width="1" /></svg>