<?xml version="1.0" encoding="utf-8" ?>
<svg baseProfile="full" height="118.00239012047517" version="1.1" width="96.78803514363513" xmlns="http://www.w3.org/2000/svg" xmlns:ev="http://www.w3.org/2001/xml-events" xmlns:xlink="http://www.w3.org/1999/xlink"><defs /><rect fill="white" height="118.00239012047517" width="96.78803514363513" x="0" y="0" /><path d="M31.000410541329575,33.40880272869587 m0.0,0.0 m10.084220239073796,-8.40880272869587 l15.89617479705466,11.261360242351444 -14.953161481848289,-5.702214040570415 l-6.590817086616538,-0.5941736794147916 -6.864184137350937,-1.862601669580698 l-3.572642871642267,-0.008496441249752976 3.262988109348757,6.22844896472222 l7.447692790778483,9.69832641951716 8.945029925315296,7.586395667243129 l1.280896869127694,5.387096230080509 1.6352906901213742,6.08012349822858 l0.3477881318495807,4.508179123445239 7.135774913176061,0.3709208767190886 l10.042560243430176,-1.287009224943503 4.964110277102174,-5.471615451765414 l-8.435769157006602,-7.096842208315006 -4.73724783133802,-2.593258110714222 l6.108625601221185,-10.383939587385154 7.299365352640559,-6.726791216974504 l1.490929227868419,-3.4490679274274516 -7.252868729675659,-0.7592632759080253 l-5.047900174296294,2.9795744491768406 -10.324582995310072,6.783863442615635 l-10.100234206870864,-4.210243269073144 -3.743010636343608,1.8889175238335643 l-1.4528247498572804,9.163566046272434 1.5022741456656397,10.60297431183003 l3.9982524175252587,9.066942199039984 5.8033333915379455,14.827629927880245 l-4.573144618706078,5.773972154254159 -6.994077762950909,5.939615146586988 l-4.325109867591317,-6.586932203924287 -0.881447485272987,-4.503628882159033 l10.081211305377291,-4.921723801770764 2.162527096139988,-2.5411762007032666 l3.8996463385047844,-8.896844065957929 -1.8363558640536237,-6.427526982756768 l0.008219662392286164,-7.6678774598563315 " fill="none" stroke="black" stroke-width="1" /></svg>