<?xml version="1.0" encoding="utf-8" ?>
<svg baseProfile="full" height="217.60285524758913" version="1.1" width="129.93818837548744" xmlns="http://www.w3.org/2000/svg" xmlns:ev="http://www.w3.org/2001/xml-events" xmlns:xlink="http://www.w3.org/1999/xlink"><defs /><rect fill="white" height="217.60285524758913" width="129.93818837548744" x="0" y="0" /><path d="M44.72731770168069,192.60285524758913 m0.0,0.0 m4.513838838249537,-54.768554734987184 l-6.94445637440325,-5.919433973828495 -3.285405262132585,-8.422461492354087 l3.184686724249525,-7.722377839023234 19.690046100348926,-22.85199715147613 l4.602096065988792,1.3429828630531797 -0.5432487342170111,10.17889501867444 l-4.7104103813853735,12.916705874913422 8.422712387122903,7.375264553109402 l8.6798800761995,1.9398533901437753 4.009582262543294,-1.051595804272355 l-0.41261795956992253,-1.2803082910191481 2.4546548728307886,5.596592293033461 l3.262638673023899,0.4661741354481373 11.204997702958858,-8.087623820466089 l-0.2844655457122347,4.366581728996299 2.87385322656328,8.817445668672207 l2.954782886369031,3.276136355058999 -0.5813568559587448,6.263600170094988 l1.1190619707375216,2.91288577717598 -1.464294164719168,-2.8977191867517913 l-9.50259706359799,-3.6587806071201743 m-12.510909128290477,-53.900348544646754 l-1.7742024461082533,-4.609803653038096 5.361405655730682,1.4965954527313734 l6.131021473578238,2.933227798162792 -0.9004667409507462,7.245698635408698 l1.8681323381182613,6.422783643747 -2.284835815536399,9.130179981583181 l1.8551154620744514,3.1624786533098206 5.814938141050845,-3.0273360910131863 l-5.535098979016458,-6.299507624264262 m-59.31525464811561,-65.72038799803308 l2.4733898018180662,-1.786988187163231 m-10.154532261522856,-11.441712241448995 " fill="none" stroke="black" stroke-width="1" /></svg>