<?xml version="1.0" encoding="utf-8" ?>
<svg baseProfile="full" height="223.1955270441215" version="1.1" width="118.71833266682177" xmlns="http://www.w3.org/2000/svg" xmlns:ev="http://www.w3.org/2001/xml-events" xmlns:xlink="http://www.w3.org/1999/xlink"><defs /><rect fill="white" height="223.1955270441215" width="118.71833266682177" x="0" y="0" /><path d="M25,198.1955270441215 m0.0,0.0 m16.283452731406165,-69.5362034368403 l-14.86588322612238,-12.636558258929238 2.641379943709031,-3.250397406927366 l10.695064657055788,-10.37916140720542 7.959678025567958,6.396691229622557 l-0.07118507725185907,-4.885532648135671 13.7223544212444,-2.6892998771892116 l-1.2842188566322243,-3.8885986105929873 14.110252268358488,-38.28035199316526 l-1.7865130608410273,-11.933347499208077 8.714488292791144,-5.214514288410377 l1.452065421126818,-3.3617943404841464 5.090017102759268,-5.160759822725548 l1.4057662654318306,-2.9931550160873233 -3.4995274190504477,-4.742204375040831 l8.151141177268807,3.5945330571313274 -2.3173369951682274,-4.234872349933585 m-22.068751641653996,28.880944397644218 l6.708639872888452,3.7312368193572025 6.359270090875971,13.09770130227077 l9.824681961480696,4.427453251644436 0.9806944079112865,-0.7206172917473999 l-9.752842698436233,-0.2356465327741425 5.999960265279866,11.09699857281396 l-7.855143306401899,2.8954056056231257 -6.132742175988805,-14.554135198562951 l-5.663238526338796,-9.840676789435491 -5.2466466466325,-6.3366844695657685 l3.216556746149902,1.0197728859373 13.117910461066417,-1.8537854010569577 l-3.1270484169247537,4.103195795549941 7.762569995257309,6.879426939352716 l-1.352892257259665,7.0018541563101495 -2.014134202521989,-0.2987435970340907 l0.3731102166382344,6.0503420344332035 " fill="none" stroke="black" stroke-width="1" /></svg>