<?xml version="1.0" encoding="utf-8" ?>
<svg baseProfile="full" height="106.0159221092725" version="1.1" width="122.83160399727194" xmlns="http://www.w3.org/2000/svg" xmlns:ev="http://www.w3.org/2001/xml-events" xmlns:xlink="http://www.w3.org/1999/xlink"><defs /><rect fill="white" height="106.0159221092725" width="122.83160399727194" x="0" y="0" /><path d="M50.57261331631699,47.04371949621175 m0.0,0.0 m22.722311210925554,-5.7061404544126875 l-2.3720674645754958,-7.139810967561028 8.727423695694123,-1.8299659809699043 l13.279933893007478,13.685634801838265 0.9369486130292615,6.937199351547646 l-6.9730791699380905,9.662015324884718 0.17415582851884387,0.15938043541007588 l8.64461875774188,0.6564122579072615 2.118745316551408,-5.6967598046904 l-3.7703119258642235,-5.789241146573065 -8.46196515212028,-1.935361729632613 l-6.814304350153146,-15.807924577707245 -11.141282890973564,2.0708162863455146 l-1.9773178701422605,3.3909942615916555 1.3198236911703576,4.879692701997036 l7.369367001985852,-10.865531126792884 1.5559901794235123,-8.715129129394098 l-7.743679433373791,2.552453845109659 -6.596235881800694,3.1527167505967078 l1.1778853368899935,0.29566226041474825 0.0861273260506196,3.844533721298631 l5.337406048767811,2.46232108373863 3.597214477039053,5.482072997140531 l-0.3387056274686288,1.1248287937072043 8.216665179371423,9.022780055326193 l-2.6025491336756024,1.9790408937525177 1.0348242357309196,7.528240860425757 l-1.4559426985545016,4.500522816429771 -8.36868494652097,2.526692320904014 l-5.778561964982006,2.902488950209138 12.595231850105945,8.641566760219002 l-17.09281299495966,-2.813494745396342 -10.123293116206401,-8.450890593558253 m-16.188926544849227,-2.058056844826468 l-6.667564792162473,-6.003239209432126 " fill="none" stroke="black" stroke-width="1" /></svg>