<?xml version="1.0" encoding="utf-8" ?>
<svg baseProfile="full" height="220.6110541998263" version="1.1" width="96.69234299891707" xmlns="http://www.w3.org/2000/svg" xmlns:ev="http://www.w3.org/2001/xml-events" xmlns:xlink="http://www.w3.org/1999/xlink"><defs /><rect fill="white" height="220.6110541998263" width="96.69234299891707" x="0" y="0" /><path d="M71.69234299891707,195.6110541998263 m0.0,0.0 m-20.714593138577104,-89.88088415451153 l1.8133558665038665,2.036751140169132 4.328628522668766,14.087920651675178 l0.5323506668741661,8.42440501718862 2.975504907058549,6.61204848228747 l-5.37338257068908,4.245674668134837 -1.8557441086423245,-1.137636807506757 l7.967381161140432,-0.45195198283894056 1.0871976105692918,-5.59936478799639 l-9.621602826255161,-2.031179609714122 m-27.711793652665694,-45.3378746172902 l1.8791989843734125,-3.111808689760661 6.521814472352037,4.311245337587823 l0.6152983895750502,6.8745477110462 5.600867643792427,1.9304751008914067 l1.5602743746972785,5.877157835401841 1.7577013092557763,-6.022257417478275 l-2.283272173484213,-15.117085877517358 -1.6897297717527464,2.6688663197630857 l-4.403341988869234,0.6830779141739984 -5.874387442821451,16.78608859331404 l-3.804069234021109,6.431881026964977 1.056263921992412,7.611143565162182 l7.349038647642416,-8.612990152983697 -1.7372460611962022,-5.496366016291747 l3.876056331177394,-3.580002014427577 1.2757085730197883,-1.4802052671591144 l6.149393888040202,-0.22099801948372197 9.831916495203247,0.3551121295320919 l-2.9292469907826573,6.227009710447233 -3.0075238255662087,7.1914979201205504 l7.162965890884935,0.5201096308904588 -1.665269048451008,-5.64453105337516 m-21.951636857395908,-79.76093048624219 l1.9128740269339801,4.701603064533973 " fill="none" stroke="black" stroke-width="1" /></svg>