<?xml version="1.0" encoding="utf-8" ?>
<svg baseProfile="full" height="178.75459475047444" version="1.1" width="126.90949083017001" xmlns="http://www.w3.org/2000/svg" xmlns:ev="http://www.w3.org/2001/xml-events" xmlns:xlink="http://www.w3.org/1999/xlink"><defs /><rect fill="white" height="178.75459475047444" width="126.90949083017001" x="0" y="0" /><path d="M29.507402284994882,127.96075410997636 m0.0,0.0 m-4.507402284994881,25.793840640498065 l36.01551699046346,-31.18282814944492 14.407813001857207,-32.79298138744473 l-8.78579407883107,1.6205757195259018 3.2027334265538965,7.7718727996809145 m-0.511304808673303,-14.604032361780936 l-0.7736909319046229,-2.4785540381329962 1.9289230492093046,6.513790458058424 l-0.07044933805672617,4.12363990184551 3.397609985879627,2.9671454874108054 l6.868293696723413,-0.1759288629299599 11.712236186339084,-12.644939758246425 l-1.3851065680103103,-7.834414789302246 7.965531669553599,8.035712919358225 l2.9371785490664597,12.461579056375998 -0.256036985021193,11.344182384821103 l-5.416216781439422,7.1706074468949605 -2.4976682726778043,-4.4416596486275495 l-9.72641709110843,-9.886058755438468 -11.325723930635112,-8.435219318277532 l-6.49482297800789,0.8158094228465107 9.731644740487404,-0.14841553905139276 l4.18663340050818,1.6963102389317386 -1.5443619122571017,1.511202059886454 l-4.643218570093749,-5.78800837568535 -4.551873882353494,-7.858248773154757 l2.723878878397923,-10.746532860602803 5.2240229519173385,-15.26776286733559 l-6.776624136020755,-15.91250867541793 -14.263582001122565,-5.55683074105346 l-9.35593887666618,3.811485224173726 -4.176151815950386,2.9896847051804 l-1.3992962698280713,6.350992142826956 3.0813843627049486,-1.8280217895022377 l5.513742210256107,-11.127604204628405 10.715263932526444,-5.739460789264364 l1.733708497223062,-3.489173032969975 5.497080655376248,1.6096519046505142 " fill="none" stroke="black" stroke-width="1" /></svg>