<?xml version="1.0" encoding="utf-8" ?>
<svg baseProfile="full" height="208.00438385151938" version="1.1" width="119.65599688903049" xmlns="http://www.w3.org/2000/svg" xmlns:ev="http://www.w3.org/2001/xml-events" xmlns:xlink="http://www.w3.org/1999/xlink"><defs /><rect fill="white" height="208.00438385151938" width="119.65599688903049" x="0" y="0" /><path d="M91.68494584474192,157.84500530689243 m0.0,0.0 m-47.1774117961444,25.159378544626964 l-3.512596723624495,-3.056572870694396 -4.7370975175516,-12.706506252026912 l-6.241677688975704,-7.1363039262185906 -3.9737808220336692,-5.3214603669364555 l-1.0423812964120425,-7.2124242987461145 m15.417775462532436,-79.6850035299601 l-2.028879536051097,9.0984948381306 3.7414760677438723,14.204740872648397 l-3.841467164497432,7.729921555870498 -5.930900040138468,6.157779720294297 l5.465933283236995,5.717279002084171 14.486115657084143,2.5300190988922036 l-0.6864798862176755,-4.801244863286741 m19.91331409018962,-10.482742267925511 l12.549582766384132,0.18439806245774362 7.366855420968442,-6.700217009559283 l3.2026707677955244,7.500856769457324 -4.608600537603836,4.4948030453146135 l-4.464192565839863,-4.760058339296222 -3.2790158985283147,-0.05536765981592626 l-8.760369371511205,4.569578766056336 -1.3917300159700334,-13.814702240650753 l1.7861182701259704,-14.291370900439745 -1.1957167686167816,-1.867881574365861 l-4.454016740488185,8.003742799116042 9.95191150552384,11.643106929902295 l1.5171463488800685,1.7176417965607804 -12.708267490648394,9.827795670674334 l1.706059346030785,-33.07411645044521 -11.160475085057291,0.18781342335559129 l-3.0612876546969736,-2.9477610999192065 -4.452229966422556,-1.8899546226233115 l-4.294870590992846,2.351699971283201 3.1115149329829865,2.6007626680554505 l15.125189081520029,5.33308749941297 5.802105625536393,-2.3440281768190996 l-2.531465449534799,-6.1187236388679915 m-22.71268644974521,-13.200185735033866 l-4.398924223441979,-5.510139546704226 2.302705128500458,-4.492560028342638 l0.9949985385241641,-20.3885809424081 " fill="none" stroke="black" stroke-width="1" /></svg>