<?xml version="1.0" encoding="utf-8"?>
<!-- Generator: Adobe Illustrator 24.0.0, SVG Export Plug-In . SVG Version: 6.00 Build 0)  -->
<svg version="1.1" id="Layer_1" xmlns:ev="http://www.w3.org/2001/xml-events"
	 xmlns="http://www.w3.org/2000/svg" xmlns:xlink="http://www.w3.org/1999/xlink" x="0px" y="0px" viewBox="0 0 86.9 121.5"
	 style="enable-background:new 0 0 86.9 121.5;" xml:space="preserve">
<style type="text/css">
	.st0{fill:none;stroke:#000000;stroke-width:1.7264;}
</style>
<path class="st0" d="M30.3,31.6c1,1.8-7.9,1.6-8.4,3.6C21,38.7,29,44.7,32.9,46.4c3.8,1.7,16.5,4.6,17.1,1.1 M37.9,24.1
	c0-0.9,2.3-2.2,3.4-2.5c0.6-0.2,2.2-0.4,2.5,0c2.1,3.1-12.1,10.2-8.7,12.3c1.9,1.2,4.5-4.7,6.6-5.6c1.2-0.5,4.2-0.6,5.5-0.8
	c2.2-0.3,7.7,0.5,8.9-1c1.9-2.5-1.9-9.1-4.4-11.2c-2.7-2.3-14.4-1.5-14.4-4.7 M26.7,30.6c0,5,16,7.4,21.8,8.8
	c3.2,0.8,13.1-1.2,13.1,1.6 M8.8,81.7c0,4.9,7.4,14.3,12.8,16.3c5.3,1.9,20.2,1.2,22.9-3.1c1.5-2.4-5.6-6.9-5.6-9.6
	c-0.1-6.4,4.9-24.1,12.7-23.6c5.4,0.4,3.3,13.3,5.4,17.5c1.5,2.8,5.2,8.3,7.8,10.5c1.8,1.5,6.9,3,8.8,4.4c1.6,1.2,4.9,4.1,5.3,5.9
	c0.4,1.5-1.6,5.9-1.6,5.9l-4.9,8l5.3-3.8"/>
</svg>
