<?xml version="1.0" encoding="utf-8" ?>
<svg baseProfile="full" height="178.4654815048732" version="1.1" width="176.66775290094142" xmlns="http://www.w3.org/2000/svg" xmlns:ev="http://www.w3.org/2001/xml-events" xmlns:xlink="http://www.w3.org/1999/xlink"><defs /><rect fill="white" height="178.4654815048732" width="176.66775290094142" x="0" y="0" /><path d="M96.11831663056452,78.97065054453276 m0.0,0.0 m-30.409714597065733,-11.518524759798408 l1.9489636945746018,-23.36618252241445 -3.112650242513022,-3.9350400637845495 l-5.0790686653224055,-10.967216056658504 1.5679908260039188,-4.183687141876847 m-14.660229171664078,23.662216521189443 l-18.061770600788385,1.6746835451112223 -3.3118378737894125,-0.9740676780086855 l8.049716639912523,0.9943406500561838 -0.20527023237883496,17.586627472955097 l1.2406165530339002,11.949088107361973 6.97833706112978,1.431386486147583 l4.60346238187254,3.565210413782894 6.362249624558302,2.2019958440240037 l3.356720784937953,0.29317930471769754 5.54710953125052,-4.964383642766135 l-6.170516449187129,-4.181640649458445 9.149546354972315,-1.9352026985039683 l7.594866890558533,5.763613027327167 -1.5634824315854352,2.653029283118642 l7.380423008583834,18.67993632090241 14.606930938090583,-1.484932411916519 l-1.812268409454162,-26.547922545087495 -13.324019040602332,1.9114843991823016 l-11.264194803822102,8.54970994687783 0.27385565022707004,3.558189755060246 l10.762642478847226,5.4529434812531825 -1.1329376941119385,5.443666443579087 l3.905335043778775,5.084082507691899 -2.2423547076430217,7.1256917669303395 l9.07464094608643,12.616372448965276 3.423579526458077,2.9000998566316802 l11.17715550216215,8.090961825684577 -1.7312312134255647,1.509881399330464 l6.2684226134740255,2.5360438437213126 21.456886720929063,-4.586417222952089 l1.556903122636933,-0.5001700700675377 7.54058946115234,-5.366624304104858 l15.765523336416544,-5.012090191724048 0.03851371208253358,2.7041336725713343 l-1.5620958570040755,17.8316180074557 0.1910770619225532,8.248746587833438 " fill="none" stroke="black" stroke-width="1" /></svg>