<?xml version="1.0" encoding="utf-8" ?>
<svg baseProfile="full" height="136.2685270997236" version="1.1" width="123.41505063450991" xmlns="http://www.w3.org/2000/svg" xmlns:ev="http://www.w3.org/2001/xml-events" xmlns:xlink="http://www.w3.org/1999/xlink"><defs /><rect fill="white" height="136.2685270997236" width="123.41505063450991" x="0" y="0" /><path d="M25,94.78668734207032 m0.0,0.0 m7.605213533836765,11.191394590266674 m16.489307686434607,-18.633297341285775 l21.871207374458958,-38.46982128195956 1.1221076262232332,2.1490977867694405 l6.557722733947274,8.87961624966714 2.9093043705252666,10.546302921399413 l1.0088489167166719,11.08056818634473 -7.323680291867479,9.036720285222792 l-11.22188619545557,9.788084386702604 16.110681251862953,-2.745345624553993 l-0.42245249747571934,-0.6008606662499505 6.097901407190373,2.946319876083725 l-4.856065930004385,-1.5130216279759072 0.7467163065504479,12.826082017221937 l-6.24028003584626,-14.298428228594013 -22.047847131120108,-9.095662703802295 l-1.8770966392261246,-1.0846436837804982 1.6547536643099858,-5.7601991986772045 l2.2272678825328422,-3.347945637480053 6.751072622016398,-6.057910467911086 l10.17482979466308,-11.270673559122649 4.058251987450541,-6.2561960593767525 l1.1750976064929068,7.980292272242357 0.6016996702815438,2.99223218964512 l9.49980300473636,1.0135641110809046 10.742571915275349,-3.511160325436702 l-11.327492366948224,0.3180502971495934 -8.42669898456946,-1.8728216399816757 l-8.16789663531512,-9.913874414161176 -0.8109951526175498,-10.830362919637414 l-1.3198860117315407,-8.632325873615931 -3.864901952373445,-6.364489212963574 l4.80048260881713,-0.27597204530053654 10.338184585259437,17.309059644215388 l6.114795593576181,4.269364862165024 5.227737295321324,7.3043803081192955 l2.2557021237709067,1.3047135302512107 0.4158255536505374,0.19168949332311225 " fill="none" stroke="black" stroke-width="1" /></svg>