<?xml version="1.0" encoding="utf-8" ?>
<svg baseProfile="full" height="101.44267065650511" version="1.1" width="127.36195020337999" xmlns="http://www.w3.org/2000/svg" xmlns:ev="http://www.w3.org/2001/xml-events" xmlns:xlink="http://www.w3.org/1999/xlink"><defs /><rect fill="white" height="101.44267065650511" width="127.36195020337999" x="0" y="0" /><path d="M69.53541578826739,25 m0.0,0.0 m-10.955361762009325,20.35754097628206 l2.9780398880138272,5.163305561210835 9.326102126929644,0.24629531713083747 l12.036832553556062,-4.099856429920431 2.2469418472853486,2.0362433190274145 l8.665471506009654,7.626176612778318 5.894602580548272,8.352559160376252 l2.633905674779123,2.7555820064634395 -1.4554094059753737,-9.175628606203041 l-7.217604561901156,-10.223452054129861 m-52.75410353342355,26.336803275707865 l6.512609911433967,-10.13002103776434 8.347475086614292,-1.7052551346158529 l2.245295528529739,2.115524267124518 0.3634991090673423,5.041010542421618 l1.8490332059956862,4.407094826459696 2.1814316294333054,2.33874805415578 l8.826673475227619,-1.2197829169098513 2.807087115231045,-5.325764317380062 l-6.467475103496937,-1.6379174329867512 m-22.473569365742744,-6.620445057305817 m-7.1574871550787895,-21.909575000436774 l7.610771261083734,-2.9698817551811794 6.349174751332436,-6.590608617693201 l-2.2863787503748547,3.7198582159064246 1.0349682857433573,3.3609647986816276 l-1.605762778849389,3.2687159282737093 7.504876067040428,2.5141175876528052 l2.7909199335570944,-3.854850325204191 -8.119022699691422,-8.01216300698087 m-17.84891384077607,3.4372569556985555 l-1.2665072693726853,7.050962269812837 -7.133531098987056,6.482123226669367 l10.195107891774112,-0.8463993100627398 7.844697472469374,-1.3508536341566317 " fill="none" stroke="black" stroke-width="1" /></svg>