<?xml version="1.0" encoding="utf-8" ?>
<svg baseProfile="full" height="143.7150916337709" version="1.1" width="96.39598093599423" xmlns="http://www.w3.org/2000/svg" xmlns:ev="http://www.w3.org/2001/xml-events" xmlns:xlink="http://www.w3.org/1999/xlink"><defs /><rect fill="white" height="143.7150916337709" width="96.39598093599423" x="0" y="0" /><path d="M66.98892344650989,65.63155412072194 m0.0,0.0 m-38.92375710655144,18.73643920347685 l-0.06497941647795762,-8.549120330932576 -3.00018692348049,0.5325132352030778 l3.506857333638084,3.5983316658840945 3.4442062350237013,3.670554870525926 l0.627157562005078,3.6399875593155766 5.552176161708653,5.444363242954095 l0.5526470825456209,13.81561335411802 3.6950830512108634,8.154537474404249 l17.630235232824106,4.040317238099645 8.744427309726307,-2.410120679496184 l-2.1519431219825265,-7.099687209456631 m-30.169398490984108,-33.44641520363266 l1.9697496272963237,-9.365753331036574 10.932032107838813,-1.6416765612483688 l6.93268375654397,-7.4736075380290075 -9.441783320082651,-13.934433629640274 l-0.3821484748094503,-3.328952787062188 7.497207138372623,-3.0444674629642363 l-0.7478206654493438,-0.11328806191632228 -0.617379965435337,4.522376874258839 l2.831933085509871,4.819979351815839 -0.21671432203280272,5.708788198654311 l10.654375164424525,2.5185552299761826 5.55239844810192,-3.6760203660055906 l-3.024792417239699,-6.260606167806317 m-17.73100897127903,7.594797959408206 l-3.3797319815948006,0.8990991123088766 -6.312737170502595,-10.108466511881302 l10.3152402540104,-14.290043251353527 9.089534592032525,-2.1513215495384985 l-0.506867545052744,-1.4338280491254862 3.080793233656295,10.180543776474204 l-1.5834919555187816,2.884976897798568 4.495218442374312,-9.299804160867312 " fill="none" stroke="black" stroke-width="1" /></svg>