<?xml version="1.0" encoding="utf-8" ?>
<svg baseProfile="full" height="217.77106822810708" version="1.1" width="141.16253936798108" xmlns="http://www.w3.org/2000/svg" xmlns:ev="http://www.w3.org/2001/xml-events" xmlns:xlink="http://www.w3.org/1999/xlink"><defs /><rect fill="white" height="217.77106822810708" width="141.16253936798108" x="0" y="0" /><path d="M25,192.77106822810708 m0.0,0.0 m30.77204594413705,-44.752663774536465 l-11.010016334142604,7.838655090299886 17.103134183673017,-53.83232332123307 l-4.61961208661328,-10.323271790429676 -2.0159292473056256,0.9512629346348123 l-2.406447259560278,4.192179419070805 -0.3738235622651696,4.908174841058906 l7.298223209131267,9.758961890764963 5.559577417317004,3.0082820040901423 l7.897585817980729,2.458247353564224 6.581362352535039,0.4560710363179799 l4.891730313088266,-3.2961934950355314 0.25006584268954857,-7.773631668740664 l-5.84051675217578,-4.006794017987626 -3.934348415950123,0.9496622128712651 l-5.035184794925491,6.091615238079982 -2.4459841201280645,6.9619139685755735 l3.945205694781899,4.654103623498846 1.7073777712750264,-1.636066114791479 l2.849193711988228,-1.4959313344266556 8.201512303749936,-1.2558060101189683 l10.002404809381531,0.09507127076254396 4.158312692966699,-6.877987823987827 l1.206277879096575,-6.98427986639628 7.204975265243605,-9.845145742828338 l1.9881620858490527,-8.17866450652066 -3.725377001197646,3.0439265636059942 l4.781865314945373,0.1670262684433388 6.170766332415294,-2.318250541061721 l-3.2523692366612322,-3.7559935943267706 -5.7345732334066595,-0.03376398921220408 l-2.580960433991331,-2.0115879269172163 0.1301988420402181,-8.47272136154463 l-5.293179012284552,22.586774332817807 -6.92133261577813,-69.0419193964684 " fill="none" stroke="black" stroke-width="1" /></svg>