<?xml version="1.0" encoding="utf-8" ?>
<svg baseProfile="full" height="199.86541728150925" version="1.1" width="195.0131952833711" xmlns="http://www.w3.org/2000/svg" xmlns:ev="http://www.w3.org/2001/xml-events" xmlns:xlink="http://www.w3.org/1999/xlink"><defs /><rect fill="white" height="199.86541728150925" width="195.0131952833711" x="0" y="0" /><path d="M130.30478600903575,164.11889117530055 m0.0,0.0 m6.855621099372808,-12.472346990345459 l-4.124374990451394,10.48655150210197 -25.26357590694249,12.732321594452191 l14.131429802978952,-35.74336745850047 1.8838087673272925,-31.449332051837573 l4.242997726569175,-12.070663584740402 2.9524751412964743,-8.183299660976132 l6.323950147292843,-9.046102550491172 6.2413768868426915,-6.1622797314367315 l4.578901488533432,-2.1965034679509845 13.486394139033637,-4.424263947630451 l3.7076696033429695,1.631939711713708 2.757169708259557,9.670130331161584 l-2.3077065983441605,0.921381497399843 -7.94870713371335,-2.444566007825532 l-7.8419536465532085,-7.294413901686256 -3.0286981684903918,-1.393035662986244 l1.516735757456397,-15.766072661440653 8.429148221674017,-10.983186077461973 l13.115747228850099,-8.762454021323764 -9.591201984887334,-3.52156533698168 l-7.581163113255315,-2.647762698514387 -10.554401817672982,3.7738010806870834 l-13.599828065235902,6.70233031317325 -4.6381969787093595,3.1883416059407375 l-7.839954173329483,7.1041495601471825 -18.192445790825026,4.377875628035018 l-6.2419609768158395,6.068038610676418 -14.896763931076945,5.4120728528684925 l-4.942907669190034,1.513244582094874 8.740634101406815,4.46974339739235 l3.261626386411073,0.15604052121171275 -13.56905977982906,11.147690006049546 l-18.312133786435076,6.192973614417747 -16.45102103219183,-3.5776509852585003 l-0.7576421481171891,5.795765386299161 -0.35779277697723877,16.17837870436916 l-9.488981746640366,0.3452083759074065 " fill="none" stroke="black" stroke-width="1" /></svg>