<?xml version="1.0" encoding="utf-8" ?>
<svg baseProfile="full" height="222.31739317908654" version="1.1" width="177.8313156431113" xmlns="http://www.w3.org/2000/svg" xmlns:ev="http://www.w3.org/2001/xml-events" xmlns:xlink="http://www.w3.org/1999/xlink"><defs /><rect fill="white" height="222.31739317908654" width="177.8313156431113" x="0" y="0" /><path d="M25,27.245520415568215 m0.0,0.0 m36.94476220782734,34.99076539125324 l12.125097252989969,25.077958573217444 7.72960797043516,-24.5768072552617 l3.308692757109058,1.0980426795155613 -6.2173657889498335,-38.83547980429276 l2.955400279125288,60.03610100792962 5.464046518015274,11.240986598770387 l10.648499761727898,7.595070087259549 4.558156497715005,1.8155208657629556 l8.167789872442137,4.180335036662481 7.244886855956629,0.7685320687373931 l12.681647021304562,3.947366293540591 1.3044791580686699,-4.686219122259619 l0.9388426325029342,-8.93539964007395 4.8809560623277894,-7.308769606011962 l0.9544517822272924,-0.6787665567641388 1.4955769598721114,-6.421262100077803 l-4.108690964759161,-10.163517867424193 -7.622424153445109,-6.352430029821113 l-8.411085099612453,8.152321415798069 4.772752971570245,13.291901291553263 l10.275897990737247,12.657990567857258 3.4905761738444907,4.090832062674457 l6.9451446953274285,3.6738595774667036 -1.5666583280769142,7.948196265515208 l-2.853066711397108,17.402699213100867 1.2532754712405232,20.42202257031794 l-14.38611630809568,20.328794106483773 -9.458278228750897,6.8982436729194685 l-5.449282673725199,4.587413451066186 1.9460498415470906,7.825571948103159 m3.8467604665375585,-30.137254568372978 l8.611309453587,-5.974306487077463 25.35962324588496,21.745738353440505 m-10.21805488214631,-118.33436777606299 " fill="none" stroke="black" stroke-width="1" /></svg>