<?xml version="1.0" encoding="utf-8" ?>
<svg baseProfile="full" height="142.62799826137865" version="1.1" width="150.1940123647853" xmlns="http://www.w3.org/2000/svg" xmlns:ev="http://www.w3.org/2001/xml-events" xmlns:xlink="http://www.w3.org/1999/xlink"><defs /><rect fill="white" height="142.62799826137865" width="150.1940123647853" x="0" y="0" /><path d="M31.583548083554334,58.29051884935287 m0.0,0.0 m13.174334909943498,34.999376450112884 l0.7985895771968622,-49.48920633854951 -4.374257659744015,-2.2025036184326705 l-8.334722533827605,3.6092903931810025 -7.847492377123074,3.742046627759926 l2.5920173579022423,0.7110533970473677 3.1288762694487375,0.6845999752156385 l6.101963332927847,5.10216327382775 11.191798718771855,2.7008715809679886 l5.10315593069835,0.8466354317484146 6.993195734454987,-6.804207600513917 l8.274247620952377,-4.299306487888089 11.457795210728658,-1.4207694414337229 l1.1050296103081114,-4.034128109207779 -1.462469395946047,-6.3133642437713 l-0.562508931768396,-5.506886682633284 4.067382682102043,-1.1746464818347209 l4.983880176710536,-1.7049437437333952 0.8960936816389228,-2.7365932312154553 l-0.3012620020613638,4.266296437200481 5.241755527455993,1.2561704293204778 l9.000800702577374,6.810688217616801 11.938401462264414,3.221907982123163 l5.969697481340739,22.497879646140742 4.474161194277921,4.714119273813604 l-2.2926710261997645,5.074321599987243 -8.154615939808858,1.609297515687887 l-4.852096770035326,5.622566272340396 -8.209161803492256,0.4460816448323643 l-11.807570994311662,6.025430743587203 -1.6890025937208535,2.6207806176456376 l-6.438026055753869,10.178368992428556 0.1914889511437031,7.049437064371831 l2.6298256642075106,2.995769660150754 -7.826434593596979,8.238882164131512 " fill="none" stroke="black" stroke-width="1" /></svg>