<?xml version="1.0" encoding="utf-8" ?>
<svg baseProfile="full" height="122.97245407508579" version="1.1" width="174.87553867152678" xmlns="http://www.w3.org/2000/svg" xmlns:ev="http://www.w3.org/2001/xml-events" xmlns:xlink="http://www.w3.org/1999/xlink"><defs /><rect fill="white" height="122.97245407508579" width="174.87553867152678" x="0" y="0" /><path d="M25,97.97245407508579 m0.0,0.0 m26.382478485214612,-29.090390136873907 l-2.9343644254904246,2.329718375369162 -2.8355397294344553,-11.357304176597589 l1.0995891911323452,6.330159908359456 7.790276788521805,1.888036655778981 l-2.7805292019465346,2.7190089335288525 m26.505572705499805,-20.53936596032207 l7.298339989204089,-0.153632401543907 3.103981026640167,-23.01748671568804 l6.537862235513468,-2.0811985570967315 15.859532931944159,3.128176600540873 l-2.547591155476548,7.309070299911522 -4.283157818999535,-1.474411262797765 l-1.5467644953420683,-1.4762047740513067 11.399975620277155,-1.2342484824436142 l4.749864709334366,-1.9760191988816425 m2.4095502831077376,5.802572990987627 l-18.85354553913983,5.924445767784883 1.9369461887299433,7.9335270169925725 l8.343203243916637,7.051988833474005 9.168572620219097,2.6968425217843808 l3.4901115625136394,-0.6893517535548305 8.2519410422545,-4.3838389140081695 l1.384366392385144,-4.347036965319792 -5.099473142264671,-5.9267495718507535 l0.25487034658540075,-2.6010179557395827 4.451474050167856,-6.83507347353159 l15.33799476645893,-5.374996960433429 -1.0377906936553067,5.246003544345881 l-3.1743864078996635,7.459519285901389 -2.5278616795468545,3.475594499176675 l-9.095681544674674,3.6767031932562277 -7.781116945899515,2.2768053080052395 l-1.5035458653733373,-1.5806086509352346 -3.027991241250557,-1.8069016027809848 " fill="none" stroke="black" stroke-width="1" /></svg>