<?xml version="1.0" encoding="utf-8" ?>
<svg baseProfile="full" height="166.39998594592387" version="1.1" width="206.38407168020936" xmlns="http://www.w3.org/2000/svg" xmlns:ev="http://www.w3.org/2001/xml-events" xmlns:xlink="http://www.w3.org/1999/xlink"><defs /><rect fill="white" height="166.39998594592387" width="206.38407168020936" x="0" y="0" /><path d="M129.65247841619572,30.746155341299325 m0.0,0.0 m1.566552756979579,25.13616560079279 l17.95748216257642,7.854125263399397 3.3602621058324975,9.740748306726145 l-1.9066914217851723,12.078098614580536 0.9260989430806124,10.874340394014675 l4.190903612569809,-3.276924661698055 2.68902588361684,0.7008213653426537 l7.560060708632029,0.20050522723955216 15.387898512511038,3.688030566375098 l-9.632858238303,11.732647642889415 -5.466775832685564,0.38760742408440185 l-18.91920326172215,8.716291435165218 -7.8975601704725955,7.021877609443279 l-2.6327200099187396,3.630604462552823 8.706642173401992,12.1688913537166 m-13.290034327175357,-89.25706339044852 l4.32413619577631,0.10610842048933228 5.939392402271608,-12.11770565157464 l-18.4402418405905,-7.977681531190249 -5.908645702399444,-5.0464636685511275 l-11.314661972195383,0.6768099348962492 -4.389217702082149,-2.783990059544925 l-9.280296701021394,6.733217420582049 -5.049440995000538,9.672351158677266 l-17.42483436713813,1.728305500687815 -7.307062541389506,2.830642389758416 l-15.792232177607456,-5.174087912770691 -4.3112452730375255,-8.51727823541328 l-3.4076881221430266,-0.567926566335587 11.456737206360431,1.0802137270365364 l14.367350543290138,5.189610967707426 -5.216920436258065,10.074188871726667 l-9.535188644754555,-0.19019809410880106 -12.437252172502188,-1.3901507510300841 l-13.524249712912582,5.060789882619383 " fill="none" stroke="black" stroke-width="1" /></svg>