<?xml version="1.0" encoding="utf-8" ?>
<svg baseProfile="full" height="138.10328825853944" version="1.1" width="137.56220406646747" xmlns="http://www.w3.org/2000/svg" xmlns:ev="http://www.w3.org/2001/xml-events" xmlns:xlink="http://www.w3.org/1999/xlink"><defs /><rect fill="white" height="138.10328825853944" width="137.56220406646747" x="0" y="0" /><path d="M77.50913345949849,113.10328825853944 m0.0,0.0 m-14.576524731783591,-42.760209199729836 l1.8947996003474932,-0.4666666654829432 5.936161857246656,0.7486273045577126 l8.838575299768015,10.992472442990522 2.435890057486448,1.4361843877153964 l2.750374267993656,-2.3912741486460254 -3.1284268957946963,-3.280294175499395 m-8.709171376130673,-11.816166219526098 l7.494669312828582,-7.5214481525055765 4.797178327383975,-7.052612035533589 l20.505564460716606,12.638063158518703 6.813980426906499,3.394020735936704 l-1.687432186168481,9.319713305529985 -12.38433460662848,-6.182471223311364 m-12.216932750161428,-28.360262259449094 l0.5052793101636904,-8.160438791726953 1.2961620429972371,-8.640526722377587 l3.1258181799402984,20.34861198511694 5.176996132128854,5.390094878941169 l2.7042112186088527,4.478871882331837 -7.515838834937532,25.55540167571714 m-23.565926168573725,-6.5014853143879225 l-2.213470302777603,-1.3403327366655453 -9.952371845973165,14.821901546091793 l1.569391400680109,5.706734053009006 2.5303472246780436,5.185247300931068 l7.610659281033348,1.2143379920675126 7.432505817890345,-4.289311769459978 l-8.63351372002998,-9.751827128860038 -10.760204256373388,2.0741648381222655 l0.5495569265918854,3.9050758920598794 3.1191164580334996,-17.778015586149717 l-6.2138593007072345,-22.86610594864645 -7.06035450870415,-5.361022659610631 m-0.04655414077918196,3.5060985533895206 l-10.063786166613836,-8.163120203941565 3.4999848713367685,-2.569518648581504 l-5.663832044284797,1.555448606144335 -8.703822097837417,0.22156172288735662 l2.646579189519061,-1.6256392233443688 21.727111452531947,0.6030039640250681 l-3.6341783581325546,0.14487129113825936 " fill="none" stroke="black" stroke-width="1" /></svg>