<?xml version="1.0" encoding="utf-8" ?>
<svg baseProfile="full" height="159.482585842886" version="1.1" width="102.25289249320528" xmlns="http://www.w3.org/2000/svg" xmlns:ev="http://www.w3.org/2001/xml-events" xmlns:xlink="http://www.w3.org/1999/xlink"><defs /><rect fill="white" height="159.482585842886" width="102.25289249320528" x="0" y="0" /><path d="M25,52.260381994093976 m0.0,0.0 m13.405421825972343,17.663413062321585 l11.52236368519339,8.21624340008745 -0.7850580214704648,3.139617249508216 l-1.2756978800567564,1.5283022828246844 5.046656984291188,-5.022686249165226 l12.963481459995265,0.782944970493239 11.375724439280313,-4.498650437195242 l-10.496718022697467,-24.90867973086189 -1.5305757327505831,-12.20805357619754 l1.196907490650509,-0.34693183692287743 3.7858313239417885,-11.605901128986373 l1.457724893745408,1.0109712073608634 -2.6044079094113024,7.790879920284008 l-11.482169495496937,6.300250949101904 -10.317589757995453,-9.743357778951497 l-4.6365219100261035,-3.1419406694705807 0.5609847042218019,2.1976792124456157 l1.884216013109356,5.78223206670665 -0.42959065654787526,8.174336390685259 l3.8684891038048135,8.184728935164753 4.084019210165031,4.217914450226414 l-0.027424508912770734,4.126484729670907 -2.1574695559358212,5.154225971662407 l-1.2269943758956474,4.614455287975666 4.749193104430169,-0.43487906927259806 l1.7031968315362804,-3.252709079875209 -2.971055484842371,-1.9102827599591643 m-20.967738048152167,16.637545382903458 l2.8477983501159647,9.144985021886763 2.4223418008559285,15.502426355036851 l5.51784879466364,3.2358198538189114 8.742140814161916,1.9010905171012078 l-12.158895316782829,4.457499977904671 3.977177442061822,2.5237959751312133 l-2.5730189934482293,17.008432995347544 " fill="none" stroke="black" stroke-width="1" /></svg>