<?xml version="1.0" encoding="utf-8" ?>
<svg baseProfile="full" height="134.3557907141492" version="1.1" width="130.39736294006008" xmlns="http://www.w3.org/2000/svg" xmlns:ev="http://www.w3.org/2001/xml-events" xmlns:xlink="http://www.w3.org/1999/xlink"><defs /><rect fill="white" height="134.3557907141492" width="130.39736294006008" x="0" y="0" /><path d="M25.044048748056877,43.334375296904604 m0.0,0.0 m-0.04404874805687575,-1.3804836368355893 l15.691715607212721,-16.953891660069015 4.414344327951815,7.096489800837896 l0.9765191905348014,8.341586948454754 0.9764863210697663,4.85421462348309 l-3.4713160448449085,5.561358109724175 1.2520064170173621,5.542201170929018 l9.990173921395707,1.188212332531325 2.406711633800044,-3.92978433349192 l-7.557470164017341,-7.6632116981390945 m10.49691431442056,14.986484769231708 l12.931270834226437,-0.45463444619748966 2.800123420710884,0.29735658711662016 l4.522456959621012,0.5600905499955546 -1.1163133686470144,1.5938173206800876 l-9.56622149282795,1.031410264861934 12.213255022317409,0.09636762280614435 l-0.3611413891003952,-4.046069278965605 m-23.758065933144998,27.540912752740415 l-0.5981890352026379,10.187477514707412 5.111380949921005,4.108312195821579 l6.426201223174477,1.570220758353608 4.892481610686954,4.756870164058606 l-6.907983275862124,1.1361069846093996 -10.622872090269484,-2.6099912549266473 l-2.3961102678742168,-1.3627015765494956 11.419783305312773,-2.5935045300949997 l-1.2623133387673262,0.6516476783556269 m-9.162775639756081,-30.959444496292114 l-1.1882081096883927,-3.9634714704675464 6.270575657219822,3.5872052569962536 l0.8934788414453134,9.006519790228513 -1.3420605467642621,15.00310048425566 l4.404145046890703,5.594034670282953 2.323345811158036,-2.37346391690187 l3.594960232175096,-6.725492324366667 11.09898400332731,-0.5986823006327041 l14.153532661853454,0.513514493808665 6.023812490055589,3.0772674500342077 l4.423743833328146,-2.34458835161505 -12.47120665063874,6.586327967177767 l7.163809528406357,6.823362435912844 " fill="none" stroke="black" stroke-width="1" /></svg>