<?xml version="1.0" encoding="utf-8" ?>
<svg baseProfile="full" height="213.650863979272" version="1.1" width="128.77140793206098" xmlns="http://www.w3.org/2000/svg" xmlns:ev="http://www.w3.org/2001/xml-events" xmlns:xlink="http://www.w3.org/1999/xlink"><defs /><rect fill="white" height="213.650863979272" width="128.77140793206098" x="0" y="0" /><path d="M63.086914882407584,143.99290007724179 m0.0,0.0 m-34.82954706607247,44.657963902030225 l-0.2874209657432493,-119.87357594829383 26.587315598000096,-22.414136619161003 l3.0545447027881143,0.8334267012333024 5.259460737403098,9.20411100005237 l-1.759501523038586,10.179153571285271 -0.6842986523964739,6.379620022110477 l1.308357050868515,8.906176258185337 5.048264335667055,7.16784677700043 l7.505053891635885,2.696951318293882 9.913988573457674,6.39442780755613 l4.710863571014842,9.566326174636247 1.9541078910256415,6.109932418733958 l11.251028854509219,5.0906080938420235 1.6522760505340257,-2.898979112292116 l-6.935461594276296,10.924501520770137 2.8202208400945543,6.05957344502321 l2.640269220956979,9.478091978853028 -4.293656034309241,15.951052145604569 l-5.4382415771944315,25.676428996558087 -7.71996181190092,-3.0782163080937597 l-4.367034398483545,-5.5392146502351185 -3.2188318161204896,-4.857075503014426 l-7.295710228186457,1.3598351274559428 -6.199874155157215,-1.4518531546277063 l-2.0122742717878506,-2.1597597866444027 -5.822118388647453,-3.8825700319851544 l-21.31827107725833,-10.276784327922662 -6.206994420842565,-4.826325845509293 l-3.40346821894771,-6.587694813534491 10.828282779025283,-7.670872297289228 l-1.7991654522575484,-0.08748270911921846 4.319460544575701,1.9101089231702744 l6.965005723898652,1.7962903787647302 27.6977184679582,-113.730785530679 " fill="none" stroke="black" stroke-width="1" /></svg>