<?xml version="1.0" encoding="utf-8"?>
<!-- Generator: Adobe Illustrator 24.0.0, SVG Export Plug-In . SVG Version: 6.00 Build 0)  -->
<svg version="1.1" id="Layer_1" xmlns:ev="http://www.w3.org/2001/xml-events"
	 xmlns="http://www.w3.org/2000/svg" xmlns:xlink="http://www.w3.org/1999/xlink" x="0px" y="0px" viewBox="0 0 248.1 532.8"
	 style="enable-background:new 0 0 248.1 532.8;" xml:space="preserve">
<style type="text/css">
	.st0{fill:none;stroke:#000000;stroke-width:4.1802;}
</style>
<path class="st0" d="M37,489.3c20.7-18.8,25-51.9,50.3-72.6c46.5-91,50.7-194.4,80.5-290.7c13.5,1.3-0.8,9.5,0,0
	c23.3,6,44.2-10.6,55.3-29.3c-12.3-5.6-7.4,7.6,0,0c-38.6-10.8-89.3,14-114.7-19.1c-8.5-12.4-8.5-28.9,0-41.4s25.4-12.4,33.8-4.1
	c16.9,28.9-4.2,57.9,0,86.8c8.5,37.2,46.5,57.9,66,84.9"/>
</svg>
