<?xml version="1.0" encoding="utf-8" ?>
<svg baseProfile="full" height="130.3925233924" version="1.1" width="135.84930244892755" xmlns="http://www.w3.org/2000/svg" xmlns:ev="http://www.w3.org/2001/xml-events" xmlns:xlink="http://www.w3.org/1999/xlink"><defs /><rect fill="white" height="130.3925233924" width="135.84930244892755" x="0" y="0" /><path d="M99.18117253693734,38.427134536869396 m0.0,0.0 m-33.94180140614863,44.63219862087568 m5.814672638867011,0.4311494237815727 l10.975889148186152,-2.378054231982386 6.841909697229065,1.6416524230224208 l5.14105571989712,8.150499494943643 2.9205210824838534,2.589300290180007 l0.1381467683622792,4.646145915013961 -1.4880037957033845,5.200415580774434 l6.828329160237099,2.0520813389212758 8.437410898579637,-3.51056836954369 l-3.8160489863989557,-3.9383431277731153 m-33.856342686680456,-16.948176251171468 l4.5207867784267,-4.180649322945704 7.887946046958145,-15.611899610658785 l-0.10354653243063505,-8.535177023602717 -0.7646752624425865,0.6000498151940137 l-4.746494207399512,9.545844148591764 -1.2529466280389692,-5.8084651179614495 l-2.291570344716186,-7.9117315722718216 -9.429330856457433,-4.194765236462216 l-2.72869101657218,1.793002323027294 -9.913030501274143,-7.210948991171803 l0.9010769042522088,-12.418854113623565 6.794780705177284,3.588901425072529 l-0.6360976129379065,3.7434907791340843 -5.554933829988678,-3.260370287115111 l2.650243092028436,2.561037574873072 1.0668120327659738,13.864907042834673 l-12.08000783061475,3.4265478863121457 -4.928410326368091,-3.1156885859574306 l-0.145272712824534,-1.7369955149459848 -10.928502951754002,-9.646294593563788 l0.7487365034999213,-3.5858940867203253 -2.999833039622297,-7.901482581950583 l-4.243949185514899,7.203083676957444 " fill="none" stroke="black" stroke-width="1" /></svg>