<?xml version="1.0" encoding="utf-8" ?>
<svg baseProfile="full" height="122.03631849659986" version="1.1" width="97.2564241445372" xmlns="http://www.w3.org/2000/svg" xmlns:ev="http://www.w3.org/2001/xml-events" xmlns:xlink="http://www.w3.org/1999/xlink"><defs /><rect fill="white" height="122.03631849659986" width="97.2564241445372" x="0" y="0" /><path d="M61.96469502901672,26.118743009586762 m0.0,0.0 m0.9337010683372196,-1.1187430095867605 m0.23133906500011486,52.64485354629369 m-7.815920557113604,2.6386141322012735 l-5.054250437394175,-0.06836133536362254 -1.3434222000601432,-4.557891476273481 l1.3862548015663305,-5.684819190379559 1.1721178052885008,3.4179891490208125 l-1.4065049958518865,5.261255037818337 -1.6243441098412053,0.8484527606116959 l-9.808042723872608,-1.723526350166683 -10.199201410182472,-8.071044013590141 l6.91738656943378,-10.575525002261873 7.4504431316871775,-10.23024828327011 l7.120748939135269,-4.5499737623851155 -5.36495330733459,-6.371277957594558 l-5.0081477325678385,-7.938972402091241 0.8900077987674843,-2.2952430359826224 m20.973318689762273,65.18767869370241 l-5.752338165461293,4.104357986310627 -11.986090943716345,-10.147185601510799 l-8.551438699920409,-26.25403347529435 -10.125357614678302,-5.199024732705039 l0.6112136716389638,-15.140113695409484 7.704711990477411,-2.872927464070212 l-0.470841770542757,1.0856266072041243 11.398014770610377,2.8106777884151923 l3.3828210137689707,3.493226697928172 6.438448833819395,4.936963957799333 l-6.241589918072432,4.904013610711878 11.88318012901107,-3.4824362967865286 l12.55046542382621,-3.135809463904664 -11.99967642949912,-3.8448322369001375 l-4.71642773017692,-1.3818153703565623 -4.901183989803789,-2.0151574564671026 l-4.654450780547768,-7.140535413704759 " fill="none" stroke="black" stroke-width="1" /></svg>