<?xml version="1.0" encoding="utf-8" ?>
<svg baseProfile="full" height="167.81012076177063" version="1.1" width="137.1933108112499" xmlns="http://www.w3.org/2000/svg" xmlns:ev="http://www.w3.org/2001/xml-events" xmlns:xlink="http://www.w3.org/1999/xlink"><defs /><rect fill="white" height="167.81012076177063" width="137.1933108112499" x="0" y="0" /><path d="M36.97212577594928,91.61938289045985 m0.0,0.0 m-11.97212577594928,26.007004293258763 l0.5453671167874363,-0.29551412399623284 6.840126476023706,0.4204617306443383 l22.925702027670063,4.749458585049815 0.5645047245827292,2.428872341644532 l-1.5511287006836034,4.823050411566921 -2.3936369695698416,8.848665765168358 l10.362195487362161,4.208738867974282 5.657044979552254,-4.501041464646787 l-3.186481144357413,-7.201305393796746 m-1.5719454394086108,-29.495380144891183 l4.257024259613382,-6.14324066896953 3.755422481429153,-1.2309304529556802 l7.015300551993788,5.394853684796544 -4.94805619626886,8.02183645117581 l-5.825340854422392,2.2471261363194106 8.59918174278457,9.096723217531835 l12.068877607277324,-0.054547048783408214 0.8221606023674308,-3.359213308778779 m7.253079432951179,-7.205070993785814 l5.471600328927459,2.614517186627384 7.878356453992181,1.772487312735417 l2.653955842645786,5.899779570651071 -10.854444011475973,9.028120970305345 l-8.538808747736798,-7.760765009371001 1.721054719138602,-8.277996175483771 l-2.445909513501081,-7.827607856380079 3.4235498369017203,-4.702852273706759 l-10.625938130553823,0.8544504808028188 -8.89756502019498,11.865613437309072 l-2.63293280053858,-4.053998219688421 -4.60462710480032,-7.426205048680378 l-4.561892238200309,-12.691827362118616 1.5586134462523076,-13.800850581615721 l17.190822307458554,-10.998426210204615 14.612896490613924,-3.441363604734019 l-0.15115445056178956,-21.77569140334483 -4.888622439026191,-3.7783176188625234 l-3.087199616839794,-8.878998369226668 1.728307463246106,8.191641692092398 l2.7174331371346883,5.0884807684900295 0.23872883602651385,4.692328024643304 " fill="none" stroke="black" stroke-width="1" /></svg>