<?xml version="1.0" encoding="utf-8" ?>
<svg baseProfile="full" height="106.89405963983296" version="1.1" width="126.44380182198566" xmlns="http://www.w3.org/2000/svg" xmlns:ev="http://www.w3.org/2001/xml-events" xmlns:xlink="http://www.w3.org/1999/xlink"><defs /><rect fill="white" height="106.89405963983296" width="126.44380182198566" x="0" y="0" /><path d="M27.455523314838143,40.95653814045724 m0.0,0.0 m1.5642400527778,-10.267432044797113 l-0.358931129136954,-5.689106095660123 8.84878721864173,8.270780156349437 l-3.7617039852485923,5.719241048152278 -7.732588895537418,-0.16954002907659577 l-1.0153265763347084,-1.9381838034607373 0.9539730204899011,-7.782709981651668 l8.636339779063265,14.322888785826585 7.714777706023536,9.926465640453557 l1.5691221576515968,6.185508574188095 4.6856236051345235,6.084296756059726 l11.629565964083154,2.5864995902730463 11.363582166157897,4.7576589879971465 l-0.4269399832743076,3.579904781747556 6.620694200128951,1.7494961503932516 l3.957453599934658,3.601752982581287 -1.127711380128316,-8.376098343943816 l1.17042507047175,-6.749894541845558 -1.169774084892064,-4.079458065770365 l-0.8965629125347454,0.8765562576797109 -1.5452730248691144,4.8255897000371615 l0.376662133665957,-7.264451471243191 8.542596564977549,-7.839201755727171 l13.642846274765043,-2.4144971437285236 -0.20812914234206592,4.092867669114295 l0.954530107478471,4.52259427874407 -0.48737362031624604,3.705033371393794 l-1.7396781511963089,10.264531864643294 -0.10700129148323495,2.5943900453965067 l0.009677880458515004,3.000412586185045 -4.201616657186482,2.5049376398473435 l-2.384092169471614,-7.428610466716879 -7.3324514910858305,-2.950476657800006 l-10.59201191857036,-12.011558196369073 -6.308809248357462,-24.87628998096625 l-0.8941895830590748,-4.019300509424173 0.6500075127028879,-3.459299956562677 l7.106444877687018,0.10593471885944616 4.752119756636382,1.3618781057213452 l1.8516508991603522,5.8493847482203964 -0.09060065376481657,0.6472904306196353 l3.9259245600847,-5.522787648888244 " fill="none" stroke="black" stroke-width="1" /></svg>