<?xml version="1.0" encoding="utf-8" ?>
<svg baseProfile="full" height="196.43638720615616" version="1.1" width="179.1365830436094" xmlns="http://www.w3.org/2000/svg" xmlns:ev="http://www.w3.org/2001/xml-events" xmlns:xlink="http://www.w3.org/1999/xlink"><defs /><rect fill="white" height="196.43638720615616" width="179.1365830436094" x="0" y="0" /><path d="M25,171.43638720615616 m0.0,0.0 m9.058227744035786,-6.237257956312498 m40.94412170542359,-21.292825043628707 l-16.46329722301899,-111.90805611340423 3.311934582856483,-3.7932847780817394 l-2.0978857608806543,-0.473159030019512 -8.317158499127704,4.009521642921613 l-7.416629071863963,-2.3364764313557433 9.3738919811199,5.79190334156123 l12.081338510249218,3.5907224904553674 5.397394059161987,0.7209550001704751 l9.843536216261384,0.8996861576108023 6.638073338778321,-5.284414530656509 l8.181487087998013,-6.934933049732641 6.054022705936042,-3.1887689056840762 l13.205752696874468,3.87129229371046 10.262695316587473,5.328080244294371 l12.295727371153516,-0.33774595721603834 9.499813258450441,2.227474391787531 l0.4949720257446577,7.587192036948794 -2.3361042485375463,2.86969637362806 l1.0061437709106757,-3.148847059873875 5.834269471955758,12.876597544869572 l2.2842560035405293,17.915478971680372 -10.068771296236925,0.8825500197554659 l-2.5468864418962487,2.9668237658557763 -5.47060017330456,-2.646904897751846 l-11.819543760951866,-0.3764754690323774 -10.874529529079071,-4.758754345115767 l-17.08929332710512,2.2499364483871225 -7.610521315713519,1.632219188245139 l-5.514419279629006,-0.01312195216328027 -1.8444784445724354,-1.223911985892519 l-5.834282663592784,4.300090902677392 -10.909053540108324,9.0047609327972 l3.332759344282221,4.810240334129918 -0.6558355972174956,21.291376904452235 l-0.26726088093291384,-15.055835265671034 30.849016643673835,11.36213119458387 " fill="none" stroke="black" stroke-width="1" /></svg>