<?xml version="1.0" encoding="utf-8" ?>
<svg baseProfile="full" height="123.90798442078096" version="1.1" width="123.11873756615213" xmlns="http://www.w3.org/2000/svg" xmlns:ev="http://www.w3.org/2001/xml-events" xmlns:xlink="http://www.w3.org/1999/xlink"><defs /><rect fill="white" height="123.90798442078096" width="123.11873756615213" x="0" y="0" /><path d="M71.72807538407835,98.62469454281833 m0.0,0.0 m-46.72807538407836,-49.83112903109621 l8.024988009117823,-6.045271726800687 6.6741809033018,-1.3775517650551155 l3.194095468497454,-1.5357687342798916 5.877201381797789,11.189951967056663 l5.598051866528819,2.96561274694172 2.9930557046912654,-2.0979184327141787 l3.2338957106992137,0.7983421600002799 -2.207646831682253,1.4269814194257995 l-0.2029741468860649,2.082917564601431 -5.8526446315026535,-2.1591507497842 l-7.0978125350851,-2.9791765442844533 0.1273259141013093,-2.1254604973643767 l7.43061474436369,-14.825478987342082 -5.037646503483649,-8.635936020757716 l-2.0684276714115177,-0.475657911365312 -1.8111097888814132,0.27712719693618937 l2.6317467781605917,4.012529352932852 1.4611786122929156,9.740852426680393 l7.9059589131472725,6.024582233057647 1.8349850648779036,5.45673590170992 l1.1172361173937466,-3.7892214579704597 16.675128836192037,-3.384608112640647 l6.1542209417107,-5.281205489791397 m-2.708726575465714,17.444979226826586 l3.8215207759840455,9.916624543744827 8.32308116020814,17.029224451040594 l1.1646489617101135,8.233695732809261 5.862610385773863,4.445595996998325 l-10.027954495441458,3.781072418446868 -12.081713870287473,-3.6278627778560373 l-4.699940274648915,-3.3495861760994883 -5.6272464562272395,2.276337394355444 l-22.321834147883912,-0.6585383741286919 -13.01306795683922,-1.157301154909408 " fill="none" stroke="black" stroke-width="1" /></svg>