<?xml version="1.0" encoding="utf-8" ?>
<svg baseProfile="full" height="124.27458881026197" version="1.1" width="105.865153570619" xmlns="http://www.w3.org/2000/svg" xmlns:ev="http://www.w3.org/2001/xml-events" xmlns:xlink="http://www.w3.org/1999/xlink"><defs /><rect fill="white" height="124.27458881026197" width="105.865153570619" x="0" y="0" /><path d="M53.197055039681445,99.27458881026197 m0.0,0.0 m-17.366007967399625,-62.12884233632257 l3.2870021337233544,-0.010818235304796975 6.569332706759902,-2.710059065995557 l-1.4299537623244014,-1.0291430598939635 4.364237279439281,0.7418125999821903 l-1.8986639274209665,6.15318449777853 7.278516155309521,-1.6027517243483735 l-0.7896662503899151,1.7949420794311248 -1.581308016136972,2.212993032801873 l-2.3478096264141146,2.4512766092228544 -0.27854176738690967,0.8659052004376008 l-0.17803429599843254,0.2298114639134223 -2.1296896557184244,0.7712154545195843 l-0.04351519229482431,1.5710434454841709 4.430711948180045,3.908900652108507 l13.096119507849696,1.0079649691340642 7.2014398566618985,-3.2632051916129976 l7.179473062297275,-4.265887532268927 -5.922340290861842,-4.334309163690173 l-5.409677137550489,-9.49470271787097 -6.855227222683083,-7.143919787767579 l-13.049364924220086,1.6302861560949522 -21.0188004886124,17.348483251542383 l-0.8003601589773723,9.649133789658094 -0.5049270055125511,7.898260469328867 l6.97640711735215,7.3793203453437 12.698043584443052,10.9709391663106 l16.83045591322556,-5.8327499626215555 5.334365455827041,-1.237624630503742 l13.515720647118416,7.576234448128785 0.5101608526527802,6.169930405972177 l-4.785350640508779,2.295582204153995 m-18.130061714097025,-24.641214108379426 l-11.192382792500947,-6.835441563675975 -8.555315938900907,5.122704069061858 " fill="none" stroke="black" stroke-width="1" /></svg>