<?xml version="1.0" encoding="utf-8" ?>
<svg baseProfile="full" height="325.3672194538134" version="1.1" width="180.35540088986417" xmlns="http://www.w3.org/2000/svg" xmlns:ev="http://www.w3.org/2001/xml-events" xmlns:xlink="http://www.w3.org/1999/xlink"><defs /><rect fill="white" height="325.3672194538134" width="180.35540088986417" x="0" y="0" /><path d="M84.67760428750901,274.35530727222294 m0.0,0.0 m-18.016532353821372,26.011912181590468 l-9.191917908343715,-52.85006782575072 18.033328600039855,-39.721390268201986 l9.322625208219751,-1.4066711425259493 4.777020463412414,3.3148729647319017 l0.8307556328171714,3.556184632991309 3.7383812785994572,11.614357345947775 m-17.65617199773428,-24.324068648710497 l0.6721307069398597,-11.91895745868126 -1.781368881246047,-15.852345329340222 l-2.797552977864066,-8.041661927815651 -9.1013730468006,-4.090148651836222 l-7.6542444447335045,-2.917040721677249 -12.854464122891766,-8.936385228549103 l5.539924570152689,-10.173961491216751 -7.485357568811615,-8.071945791600017 l-6.465443299808455,-5.441428279767619 -9.587344145634804,14.628524640391154 l17.667458603747765,9.617161536631697 15.288828744297852,4.212742960689195 l14.389740819071232,-0.28504346547716497 14.31597501891183,2.986409773151769 l10.664785361124117,-2.0839192038912224 17.633740255520813,5.3151368453105 l5.106049514371698,3.109410280185295 11.933735498972506,4.521108560943777 l0.9174242947241046,-1.7097907183767602 -2.9371979465518203,-1.6941469913853868 m15.885426635069848,-138.72415584998402 l9.489434090604213,2.1141320769583762 -5.90875563915983,8.343714755578974 l-23.861490949945185,5.705601523784418 -6.6684981349238255,1.714978741474938 l-4.679052014954362,3.515597540387836 -2.6422151946311114,10.651990433451285 l-1.4424281345263845,5.824620124261762 -8.944875080694613,4.87915204652577 l-3.5015629243713686,6.17055362835179 -36.33301840123229,10.823958893431099 l-25.136294376963413,18.856772256767798 " fill="none" stroke="black" stroke-width="1" /></svg>