<?xml version="1.0" encoding="utf-8" ?>
<svg baseProfile="full" height="213.49106039419576" version="1.1" width="152.55889729859462" xmlns="http://www.w3.org/2000/svg" xmlns:ev="http://www.w3.org/2001/xml-events" xmlns:xlink="http://www.w3.org/1999/xlink"><defs /><rect fill="white" height="213.49106039419576" width="152.55889729859462" x="0" y="0" /><path d="M25,135.21853091353836 m0.0,0.0 m26.319135664473077,-0.4577563049373701 m6.411276035949443,14.80653957716471 l1.071397283190892,-34.86628238681813 4.013503143710368,-4.509426771629217 l6.786706067723688,-6.431330064157892 5.579490927447437,-3.328871509825533 m-5.188277346228906,27.881221936238234 l-0.5628473588221342,6.2769078659984485 1.461099261064517,1.6595052171365217 l14.760793384255763,-0.945014810895829 m-0.6116368819127316,18.190534739063516 l-14.332388616816964,9.91951448562388 2.721038085893006,4.804022015340912 l6.8172962050096375,2.82621996397636 8.446381542243705,5.81373891299674 l-2.811227434393854,11.633006615382051 -5.147401133669834,-2.7320162289009717 l-9.576132828976222,-2.9935301748593495 -3.938171654542911,-4.099866902014366 l-1.8211996105402322,-7.791982758822218 -3.3670859748293807,-7.10394222248957 l0.4327966856769819,-0.836902973987953 7.13415697984934,-7.881899462117367 l16.85139803112226,-10.745620555313126 -0.5407522967412581,-9.985302329604245 l1.9928787581687253,-7.320603467008602 -4.012258402865609,-3.837166048580554 l1.9214483427806666,-3.9337944976337345 6.9941881632287135,-7.961836982911297 l5.122330064133571,-1.9327817232434576 4.583182911170873,1.9056116907887288 l8.75368249145153,-0.4989996909378691 11.81199664545398,3.3070715064379477 l4.482100164936479,6.324290790043605 -19.993849441333396,7.344382296122257 l-3.0960999648631202,0.935503380105982 -8.553952497086012,0.8290033469515273 l26.195344541718775,-104.4806773862211 " fill="none" stroke="black" stroke-width="1" /></svg>