<?xml version="1.0" encoding="utf-8" ?>
<svg baseProfile="full" height="463.16909858797567" version="1.1" width="199.96476345654114" xmlns="http://www.w3.org/2000/svg" xmlns:ev="http://www.w3.org/2001/xml-events" xmlns:xlink="http://www.w3.org/1999/xlink"><defs /><rect fill="white" height="463.16909858797567" width="199.96476345654114" x="0" y="0" /><path d="M25,438.16909858797567 m0.0,0.0 m31.16126691245925,-2.736735705509287 l-0.17566666384123653,-37.35116315425842 -2.439143305490304,-15.580448885076295 l3.3705293791981155,-41.03396687639373 11.26047272026627,-21.116324985760983 m-4.197305425429598,-40.917478763099105 l29.921991002996066,-25.56586483628456 4.5040750843981,-60.6668958715839 l41.14255872505521,-40.26908237111738 -3.344003159262857,-44.64688287636882 l6.77977801283054,0.8252828102523738 8.959242833786254,-8.242031370896333 l7.34647407123323,1.3998223586606202 5.488463437812633,2.1363493738993546 l3.008773768852159,2.651916645708178 -5.893378473199788,2.7459381936923966 l-8.36697698548736,2.2436800205173855 -6.165240633767841,-5.18806376083721 l-5.000995633412823,-7.032379274259901 2.7821978266931735,-8.461887611553095 m6.162339601655057,-52.925899895597226 l-6.431943289909544,-3.994719654103429 -2.5030078768014152,1.4675787288196573 l-2.388361803618019,4.981525722584304 -0.3257857623900138,6.462681187229949 l0.8413835152239171,6.207563360871486 5.691978133785636,5.655971848327417 l7.36290354282383,3.300638321946923 8.24352691951522,0.21831078884618874 l6.655652960122619,-2.067417909416985 5.38900762155532,-5.248320302890847 l1.1239563988893304,-8.329572742361195 -4.537425431760305,-9.845113010698807 l-8.878668337058961,-7.219360699422311 -8.216125713433167,-5.026747391841953 " fill="none" stroke="black" stroke-width="1" /></svg>