<?xml version="1.0" encoding="utf-8" ?>
<svg baseProfile="full" height="108.85105129934777" version="1.1" width="105.80339362929296" xmlns="http://www.w3.org/2000/svg" xmlns:ev="http://www.w3.org/2001/xml-events" xmlns:xlink="http://www.w3.org/1999/xlink"><defs /><rect fill="white" height="108.85105129934777" width="105.80339362929296" x="0" y="0" /><path d="M32.59491037409037,83.85105129934777 m0.0,0.0 m-4.818258464160969,-17.025786494194513 l9.38106412786448,-12.444826305577124 -2.3686328339323683,5.6252764742168075 l0.8120387331891595,2.3205677046813764 -2.791620958512311,7.687709056808951 l-7.809500978538358,-19.139966881701422 8.47786465690827,-9.010905647111763 l11.237858439419774,1.330779176434065 9.247756685245873,-4.256954454267349 l8.903877510283715,-7.659855414693372 -7.936004450488469,-2.0003479967266116 l-10.765744996327353,7.359995982688011 3.541308411150188,8.053673456275249 l13.362633514250168,9.554294697629876 2.5972146687233244,0.5652996821894133 l6.47711548527882,3.583500733111553 m-14.582553082806475,12.260829869933504 l1.5589518311584472,8.54505426358906 -2.320466585876009,4.135551292333537 l-0.8110388675708647,-11.77321313010507 -0.17888604954122186,-7.995758066354792 l-1.9394779017270498,-3.343215709929666 0.9371619666098603,1.845229879965199 l12.820385488322243,-1.26757866486561 1.9735498192192407,-0.5357716888096603 l-8.544504963913978,-1.1707982087376576 m-2.309683874769243,-7.187645250341439 l1.2634602018942576,-1.2099474049862198 3.8653702965225616,0.01917485412830336 l5.129820490495551,2.030494821788323 13.79742493683132,-1.548292660845977 l-1.2870486882042527,-7.31151500425186 m-20.157076201863887,-9.98004099383611 l3.4130770953505194,-6.495251486415664 -12.079679019117314,-2.410811781369134 " fill="none" stroke="black" stroke-width="1" /></svg>