<?xml version="1.0" encoding="utf-8" ?>
<svg baseProfile="full" height="128.0465277802187" version="1.1" width="126.16255861728393" xmlns="http://www.w3.org/2000/svg" xmlns:ev="http://www.w3.org/2001/xml-events" xmlns:xlink="http://www.w3.org/1999/xlink"><defs /><rect fill="white" height="128.0465277802187" width="126.16255861728393" x="0" y="0" /><path d="M66.90898253443928,103.0465277802187 m0.0,0.0 m-31.599759168622228,-43.64440472367094 l15.182317773325163,-7.799101625723892 -5.679559901663807,-1.530670734766844 l2.859542931303728,12.128092534916416 4.584423297694376,0.18383409715527654 l2.0971737220677733,5.023096860731855 12.259316968861915,0.7546656027439438 l6.931809292305942,-4.40854177554631 3.4667759402613174,0.3731687389374355 l0.9435453075779955,-5.705893088231115 -4.142901537823185,1.9481321767743331 l-9.49045953940487,-0.7419058819021696 1.83884702592102,7.669946756959319 l7.959767257507677,4.291318153536756 19.423269978369472,8.167928348233668 l7.61946673516237,-2.9842365869106082 -6.785220872841268,-12.661266697688218 m-30.395477123814352,-0.2813878882901055 l-5.058530852212257,-4.001092194304249 -1.9882736139360562,13.328245476590796 l-10.877713766772398,2.97196471886773 -11.75308282020857,-0.1261075141616871 l-3.136066614684813,-0.1258909323214933 m-5.487678139589952,-47.481812403692146 l-0.6805148132242539,0.20492383575733564 1.384155323267387,-3.5995330342137866 l1.6349154278875315,2.96081575285965 0.797650299355863,4.514701660793485 l-2.5305942598992934,8.232953907539425 5.515177141870847,1.0291680777953853 l-2.989777517378377,-4.0617588638554665 m8.517592624549506,45.8353165086669 l2.4415455518911444,-0.2378498095294886 3.813588299494767,-7.7328494690860445 l5.074268733965728,-5.660227692902746 0.7282241209816637,-2.409164051982029 l-5.720051302645359,7.214994940161887 1.878564500669509,1.3776990378799059 l-5.391501085951473,0.9138512101007801 -6.2391451954654364,2.169458780140745 l2.650490440280647,-0.1339594351740045 7.179299727136318,1.4486624938873283 " fill="none" stroke="black" stroke-width="1" /></svg>