<?xml version="1.0" encoding="utf-8" ?>
<svg baseProfile="full" height="199.1856904726677" version="1.1" width="117.63494929188525" xmlns="http://www.w3.org/2000/svg" xmlns:ev="http://www.w3.org/2001/xml-events" xmlns:xlink="http://www.w3.org/1999/xlink"><defs /><rect fill="white" height="199.1856904726677" width="117.63494929188525" x="0" y="0" /><path d="M69.43025467909266,169.03792898456464 m0.0,0.0 m-44.43025467909266,-37.996280581612055 l3.4645122379457396,-9.846768761287104 5.484772431751823,18.041001308348978 l11.396712057770412,8.000375062438405 15.805469065786145,-8.307964050300368 l4.757733084896155,3.2007236933807572 -8.108463088118016,24.68058524130563 l-0.6713041370612266,1.775009662889933 0.6582475926710503,2.8241344925713565 l2.021173031806843,-2.957433473587819 3.900508086412194,3.4295034712276875 l7.669181752065127,2.304875422727647 1.1872250290780384,-10.976443714939347 l-8.925140579023488,-14.696462633947107 m22.420025030372546,-35.12694711427321 l-7.719676053653995,0.5204961803842425 -0.18000802109908676,5.248167003895878 l0.4107661877044355,6.802884490895105 -2.8950406985963353,8.771379108339854 l-1.8813917633821644,1.482240059129936 4.177839227203539,4.236641776839973 l9.135609933608848,-2.7980661999275434 3.1508021280499454,-2.255357498050198 l-5.842978507946648,-2.944785938073878 -7.225551948723901,2.2484202417366927 l0.6048545061743987,8.552179598472211 3.2407806139471855,1.411511603274152 l11.598292092245682,7.984861226013283 -3.900808300124088,-1.9971550181522393 m-60.441450757639934,-125.6492536442855 l3.127095395317646,6.418775544833998 12.706831477434243,0.8618082415159284 l4.71364080833191,4.816836936228475 -1.9055906287478968,3.455527912000729 l6.1406997332302415,3.1297168933546287 " fill="none" stroke="black" stroke-width="1" /></svg>