<?xml version="1.0" encoding="utf-8" ?>
<svg baseProfile="full" height="200.6485907093299" version="1.1" width="149.50842138506" xmlns="http://www.w3.org/2000/svg" xmlns:ev="http://www.w3.org/2001/xml-events" xmlns:xlink="http://www.w3.org/1999/xlink"><defs /><rect fill="white" height="200.6485907093299" width="149.50842138506" x="0" y="0" /><path d="M33.83702241102577,134.00310280892253 m0.0,0.0 m-8.837022411025773,-14.085376386063647 l27.401602405471372,-16.67216496757475 6.549537600291608,4.7540356534304875 l4.92742607397421,5.309024021069388 7.734882022200791,2.7184303760264883 m-3.12550054339348,-46.38140060970636 l9.514783614073554,-6.463524320711802 -13.886969247669926,-4.672673843975877 l3.6900366677449012,-2.5751342832960082 5.246270410399774,-3.9743510518165768 l0.5779819616839177,-5.61286161383273 -11.040107978489932,-10.454835611551397 l-5.50627631964574,3.5726359912196446 -3.834503167152369,5.102539945476354 l6.671705605638874,5.827410383548886 15.352640254917658,-10.681747278498387 l8.241206319737163,0.4379352324038707 6.443413169019447,2.5195005493774256 l2.670693358991683,13.374961258939258 8.916120553132119,17.447773561132003 l6.9517392640268,11.720498382470574 m-20.705922486855872,54.22824685188065 l0.48499339792059654,10.042841025452216 -1.0441719715593667,6.660157823255637 l0.8179860726932022,15.828201815634081 -7.477300585157279,3.675364996117972 l-0.8931854772049497,-2.5350020589932254 3.0095522917447504,-5.374699069279309 l9.050293903844754,-7.687489304168634 11.415432416677795,-6.90078564438432 l4.418487596701115,-3.2174435488840967 4.088925956437741,-0.12169281770614701 l-0.6377735355981629,-31.780747157652424 0.01694222030016901,-9.46367616013084 l3.031393136089483,-9.470958436737256 3.0986708625313923,-5.576824785633345 l4.075216473824248,-62.79947342772975 3.262199087717971,-5.719798298030561 " fill="none" stroke="black" stroke-width="1" /></svg>