<?xml version="1.0" encoding="utf-8" ?>
<svg baseProfile="full" height="146.9056265520112" version="1.1" width="90.75406587033567" xmlns="http://www.w3.org/2000/svg" xmlns:ev="http://www.w3.org/2001/xml-events" xmlns:xlink="http://www.w3.org/1999/xlink"><defs /><rect fill="white" height="146.9056265520112" width="90.75406587033567" x="0" y="0" /><path d="M25,121.9056265520112 m0.0,0.0 m6.324268282394412,-72.0643052630806 m4.802086111759407,2.2763389108656793 l4.4176672849706184,3.5643816109081254 0.07690388914945868,8.114251263065384 l1.2984154897925184,4.297589081177763 -2.8837218150271076,1.7152368566183476 l-0.9616738662307526,-2.1066234640625296 -3.4348050104735055,-7.724666626206987 l-8.218331065504856,-3.5681710384376952 m39.33325656950547,7.1666275028471516 l-1.9756236903263864,-3.9117175629501637 -10.33688319131557,-1.9289465112916209 l-14.232777185845153,-20.08574282501171 4.860792279059579,-6.620248142539631 l-4.822120594693366,-6.029630343912698 m-10.20666082375135,4.46827836206235 l-0.8894580445859815,3.617987701757407 2.266893011689749,7.315291168947502 l0.44470521871453184,5.9759885430387 -4.027886212862057,5.082596192582647 l6.7309886100036,-2.9922843335719884 6.5992336815842,-5.967516070566493 l-1.4570682664513825,-1.3608393300662902 1.1363168243157011,9.270778229079166 l1.8376924058164381,6.2919793223403495 6.231323453425624,15.09139136734273 l-0.8112870746066853,3.8302435732261 -14.285040315452424,6.888001039132366 l1.7899530045699552,-7.883363970241539 2.8371095328233253,-3.747083521101271 l7.042102930744313,0.05622258222294299 3.764465160300028,0.8636305198373113 m-14.249405876645067,11.603043326553713 l4.4637003309640075,7.699222787195282 10.206653577639537,5.796549977308003 l-2.5979400308200433,7.716160386417924 3.8380112698101723,6.762040201372639 l10.626564198516345,2.9781035687163606 4.914140186904989,-0.8644719470147638 l-14.317900747733102,3.453768055629188 -12.210759979855528,-9.651298255727937 l-1.855461101452925,-2.2738494047974935 " fill="none" stroke="black" stroke-width="1" /></svg>