<?xml version="1.0" encoding="utf-8" ?>
<svg baseProfile="full" height="209.71949852155348" version="1.1" width="121.79361073120978" xmlns="http://www.w3.org/2000/svg" xmlns:ev="http://www.w3.org/2001/xml-events" xmlns:xlink="http://www.w3.org/1999/xlink"><defs /><rect fill="white" height="209.71949852155348" width="121.79361073120978" x="0" y="0" /><path d="M63.0306926345683,137.49368364708482 m0.0,0.0 m-11.52688121736601,44.85037347581333 l2.8122234888067124,-2.819381125416976 4.601228531934192,5.194822524072331 l-0.3286201838032188,-3.484629919678406 -0.9864975340692289,-8.968028703239858 l-4.04732554458841,-15.621389766889735 -11.658968759883496,-24.95002846934364 l-5.82615028500288,-5.299578133942309 -2.018627688460896,-0.8015201502720587 l-0.8891627507202091,-1.360674454327883 3.209592914217126,5.9446458246744065 l-2.649598745476339,4.130701954756084 -8.721904860155636,-2.306697453295764 l2.3636068925045954,-12.492356910267182 1.1765421110429857,-8.217316525925387 l0.4183077183945827,-6.362274655584985 5.297454294274606,5.465539680039011 l2.141248036656014,8.512185482290224 7.3413709434095,6.7867704159481175 l13.652711203307064,8.574624568044959 4.350956772276382,0.07768064903018457 l-6.8096148799804235,1.7388653175534463 m-20.755441746020423,-78.9758009196727 l-1.1394235466696525,-5.247544757760345 4.220967160856463,-7.361108325470933 l3.9837461713068456,-18.547595316571417 0.931755423340695,-0.9539679516473326 l3.6041988321615825,0.24639588512824717 -1.8650805419294998,3.9828729919753427 l-2.2243945882881246,1.3108504023762817 -3.1350506218647998,5.367308277587842 l1.3903577411299906,9.290096458075089 10.207090486589431,0.21451237272963317 l0.8823778980551977,-2.9881588097224054 m11.343142431694615,27.51056712833657 l8.347908763133965,5.218250305246947 12.989410352591923,3.117691589729302 l5.265036125205473,6.462770448878563 1.4466449953107536,6.939870409091615 l6.3677823027200535,4.990846818730991 -15.16836725924883,-5.851737982832221 l-3.9590760828506797,-6.603144538719777 " fill="none" stroke="black" stroke-width="1" /></svg>