<?xml version="1.0" encoding="utf-8" ?>
<svg baseProfile="full" height="105.01699690315078" version="1.1" width="109.91761367620603" xmlns="http://www.w3.org/2000/svg" xmlns:ev="http://www.w3.org/2001/xml-events" xmlns:xlink="http://www.w3.org/1999/xlink"><defs /><rect fill="white" height="105.01699690315078" width="109.91761367620603" x="0" y="0" /><path d="M59.389651607656305,59.39672104508997 m0.0,0.0 m3.159718034062484,6.986071634255941 l-1.6588295207428327,5.557021852717597 -10.40586438023034,-3.692240979562116 l-0.4157349979251257,-4.493559507747156 -1.6258877427309453,-0.15036952425712688 l4.254785503836716,1.187774753923776 6.035248153079006,2.654899744703126 l4.586008558997052,-0.4118183841378431 -5.1302015888787205,-0.1454923550802921 l-7.6096960521441535,-3.3814591647574845 -8.497687081160072,-3.5537252787526605 l-8.165886782046579,-0.13093547798615546 -5.664969922819747,4.321852328138729 l-0.11616868014503054,4.838203802607561 7.243599878064842,4.827763813657275 l12.099653496434106,2.0711767271343815 14.900966054373068,-5.825951012378124 l10.560658024642692,-1.0220742097218043 10.065418345753418,3.8824371358831353 l1.9128327681298933,3.812233977805815 -4.8258584430800155,2.215137786653907 l-14.21706391608571,1.073328194960329 -14.910250671180629,-6.088147104300324 l-9.654864526635603,-6.8394693009200545 -8.83766400446692,-3.213523125827462 l-5.936802863532,0.8930985485430882 -1.5351092512251567,-0.05741020301207747 l6.762904934045711,-4.977791423022574 13.270661123050681,-5.824143258220513 l14.402992549140672,-9.891491122533091 2.334620133703341,-4.70456831271416 l0.7147687420578993,-3.679196888083375 -8.115220825520947,-4.380215364924907 l-15.817047841595476,-4.003308058623438 -9.097015713161342,-2.2508312895118845 " fill="none" stroke="black" stroke-width="1" /></svg>