<?xml version="1.0" encoding="utf-8"?>
<!-- Generator: Adobe Illustrator 24.0.0, SVG Export Plug-In . SVG Version: 6.00 Build 0)  -->
<svg version="1.1" id="Layer_1" xmlns:ev="http://www.w3.org/2001/xml-events"
	 xmlns="http://www.w3.org/2000/svg" xmlns:xlink="http://www.w3.org/1999/xlink" x="0px" y="0px" viewBox="0 0 44.2 66.9"
	 style="enable-background:new 0 0 44.2 66.9;" xml:space="preserve">
<style type="text/css">
	.st0{fill:none;stroke:#000000;stroke-width:1.0462;}
</style>
<path class="st0" d="M30.5,63.8l-5.6-3.6l4.4-1l3.8-6.8c0,0,2.8-8.4,1.5-10.9c-1.8-3.4-9.8-6.9-13.6-6.8c-2.4,0.1-6.1,4.2-8.4,4.9
	C11.2,40.2,6.5,40,6.5,40l1.7-5.9l2,0.9l-1.8-8.3l3.4-6.1l8.9,9.9c0,0,1.1-0.2,1.2-0.5c1.8-3.8-4.5-16.3-4.5-16.3l-1.7-4.5
	 M16.7,20.4l-1.9-8.6l-0.4-6.9c0,0,16,9.1,21.6,7.8c1.8-0.4,5.4-3.4,5-5.2c-0.2-1-2.8-1.6-3.8-1.5c-5.5,0.9-17.2,14.2-17.2,14.2
	 M6.8,22.2l-3.1,6.6"/>
</svg>
