<?xml version="1.0" encoding="utf-8" ?>
<svg baseProfile="full" height="133.7190366406406" version="1.1" width="112.82576643268294" xmlns="http://www.w3.org/2000/svg" xmlns:ev="http://www.w3.org/2001/xml-events" xmlns:xlink="http://www.w3.org/1999/xlink"><defs /><rect fill="white" height="133.7190366406406" width="112.82576643268294" x="0" y="0" /><path d="M87.82576643268294,108.71903664064061 m0.0,0.0 m-53.530096141335335,-28.93857739440687 l-2.0604141074173024,-5.206264328802416 6.599607327655286,-0.8651120839894928 l14.38097939693598,-2.89371247334888 11.34998136395683,-0.33522259020411177 l9.846630454990141,-1.2579405234680674 9.0700076590168,4.142745386139198 l0.07709585297957768,14.238383213110438 -1.5114706244291858,4.302710051783521 l-7.631780941458934,-4.035913890416565 -6.261331378535268,-7.983251511036547 l-1.607236531385472,-2.1550586021530567 8.217397044212003,-4.001452264665582 l-8.711271574127911,-30.471612097387172 4.628594995823989,-2.7680650787404035 l-23.21002175036604,-10.505540143313745 -4.316593573503166,0.5008087758790317 l-5.001076227720825,4.280267425531698 -7.216806734808192,-3.804560551809082 l-4.4239252328162415,-3.1777726035293994 -1.5140357103496687,0.9811746496311919 l9.523997786191622,-3.7650700054442825 6.406051945115181,2.3612448260929475 l18.824606359730158,10.835862630553978 -0.8929327826130005,-1.2044995884549368 l-2.434961322305912,3.5593246167488455 -4.9862750385653225,4.515562875690895 l-7.282815991795073,13.366480611123665 3.2766095086844946,1.5393801661311006 l14.824958640271168,5.0329391050030035 -2.443634717136971,5.961979221805352 l-2.3342423167981834,5.084238800764109 " fill="none" stroke="black" stroke-width="1" /></svg>