<?xml version="1.0" encoding="utf-8" ?>
<svg baseProfile="full" height="130.1312339222719" version="1.1" width="103.40187468564017" xmlns="http://www.w3.org/2000/svg" xmlns:ev="http://www.w3.org/2001/xml-events" xmlns:xlink="http://www.w3.org/1999/xlink"><defs /><rect fill="white" height="130.1312339222719" width="103.40187468564017" x="0" y="0" /><path d="M34.03079559625409,37.196164140507754 m0.0,0.0 m2.1494635316385478,-12.196164140507754 l-8.240442002973966,5.790646608535837 -2.939817124918669,6.872040748737198 l10.146149729780753,4.02232478765733 14.623555829738564,0.5158526145735376 l6.739792437700081,-3.290757591318042 1.3195657046991873,1.2621418421777575 l5.157089195456349,1.9648656428137168 -11.743122532689087,14.004304536310071 l-6.396244953148154,-3.194256962031029 2.9621475243389614,-5.019752595220581 l2.563041999026832,-3.7011001267276042 4.230341079652459,-1.5999190677074286 l9.517169125483035,-1.249830852032227 5.01257691111734,-0.32906489150215157 l-0.704473317297209,3.6727103089128734 0.5891660977201716,9.62527991910734 l-1.778113960394669,8.566000704978626 4.069988732963184,4.118304810327507 l7.093245081492365,4.44452750410506 -5.460323470732479,6.935453195849408 l-2.9627663435570195,8.012818645073217 1.5416618474619463,5.930012994878712 l3.483298749164903,4.842658849152282 -2.895379655812425,7.935972295620483 l-6.919064070581778,-3.901578988626842 -10.191998812055504,-10.520942854461085 l-9.524802994240275,-9.071712330871692 0.5406368472606948,-10.259869437380233 l-6.217951451551863,-11.164045914788602 3.608253986305898,-1.9283009710661043 l6.865506211259216,2.339216744854375 " fill="none" stroke="black" stroke-width="1" /></svg>