<?xml version="1.0" encoding="utf-8"?>
<!-- Generator: Adobe Illustrator 24.0.0, SVG Export Plug-In . SVG Version: 6.00 Build 0)  -->
<svg version="1.1" id="Layer_1" xmlns:ev="http://www.w3.org/2001/xml-events"
	 xmlns="http://www.w3.org/2000/svg" xmlns:xlink="http://www.w3.org/1999/xlink" x="0px" y="0px" viewBox="0 0 127.7 142.5"
	 style="enable-background:new 0 0 127.7 142.5;" xml:space="preserve">
<style type="text/css">
	.st0{fill:none;stroke:#000000;stroke-width:1.881;}
</style>
<path class="st0" d="M14.6,129.6c0-16,38-34.3,54-34.5c2.1,0,5.7,2.9,7.1,4.4c6.1,6.4,8.2,29.6,16.9,31.1c3.7,0.7,9.2-6.9,11.4-9.9
	c6.1-8.2,17.4-27,16.5-37.2c-0.5-5.5-8.4-14.6-12.6-18.2c-2.1-1.8-7.2-5.3-10-4.8c-1,0.2-2.1,2.4-2.8,3.2c-1.7,1.9-5.1,5.7-6.8,7.7
	C85.8,74.6,78.9,80,77.9,84c-0.2,0.9,0.7,2.7,0.7,3.6 M62,32c0,6.3,19.1,1.5,24.6,4.6c4,2.2,13.6,9.2,12.4,13.7
	c-0.7,2.7-8.3,2-10.7,3.4C83,56.5,75.9,67.4,70.2,69.2c-6.7,2.2-21.5-0.2-28.1-2.4c-3.4-1.2-8.6-7.4-12.2-7.8
	c-1.7-0.2-5.9,0.5-6.5,2.1c-0.6,1.7,4,4.1,4,5.9 M73.1,8.4c0,4.9,11.9,9.1,14.1,13.4c1.8,3.6,2,11.9,2,15.9c0,2.3-0.3,6.9-1.1,9.1
	c-1.2,3.2-4.7,9.4-7.5,11.5c-3,2.2-12.8,7.5-14.5,4.2c-0.4-0.9,2.8-1.5,3-2.4c0.8-3.5-4.5-9.7-5.8-13c-1.2-3.3-3.9-9.8-4.1-13.3
	c-0.2-3.5,2.6-10.2,2.6-13.6"/>
</svg>
