<?xml version="1.0" encoding="utf-8" ?>
<svg baseProfile="full" height="282.0594662150743" version="1.1" width="126.22287779910266" xmlns="http://www.w3.org/2000/svg" xmlns:ev="http://www.w3.org/2001/xml-events" xmlns:xlink="http://www.w3.org/1999/xlink"><defs /><rect fill="white" height="282.0594662150743" width="126.22287779910266" x="0" y="0" /><path d="M99.55536998425964,93.92952851324866 m0.0,0.0 m1.6675078148430171,64.12897915227329 l-2.1593016621147774,14.20935802644099 -0.14171272370533783,23.627886591928647 l-3.8544977116004007,-7.944678679576793 m-23.246204306026005,10.4213719542078 m-1.1791494071931263,58.687020656551695 l-30.690426720485554,-82.26141236194617 4.3742176059803946,-4.97390385681023 l5.8052575282853045,4.1747014806663305 -9.987755030835133,4.964118762525098 l-9.312799671573956,12.892029408870393 -4.611443415701328,6.445928321064131 l0.6396260798103703,7.590122140639323 -1.858688363943112,21.780269503157214 m27.914990236420074,8.838836663505747 l2.4227740829975786,-1.6171325858250887 12.676341112938108,-10.071605577908688 l-4.454257567043572,-22.606550055178953 -10.737187701637131,-19.631122983391336 l15.736002850812964,-6.244535319259799 -10.675977983732098,3.3919657428981824 l-4.957917454375032,9.98533441156479 m1.3439971211281598,-16.350986663911293 l2.964353892035043,-62.72688106071089 4.149571828824474,-7.271353581978337 l12.005686854638418,-30.077203673445226 -9.713418115252606,-4.75082555390282 l-9.169785115101316,-16.105006814050775 0.18325105450264778,-27.434252561645895 l1.2095164103091771,0.7960305735170492 3.0243313833384464,17.54911347843826 l11.806459759612942,19.24030723686539 -0.7503524974559994,14.673501126315717 l2.344404842151291,26.1863763040809 -4.216515455695272,12.6984010009201 " fill="none" stroke="black" stroke-width="1" /></svg>