<?xml version="1.0" encoding="utf-8" ?>
<svg baseProfile="full" height="372.6339075835905" version="1.1" width="103.22984462759977" xmlns="http://www.w3.org/2000/svg" xmlns:ev="http://www.w3.org/2001/xml-events" xmlns:xlink="http://www.w3.org/1999/xlink"><defs /><rect fill="white" height="372.6339075835905" width="103.22984462759977" x="0" y="0" /><path d="M34.35647801379675,347.6339075835905 m0.0,0.0 m-7.102162991806272,-115.92282041766524 l5.747226203997433,-13.900721505179408 11.609010816514319,-74.32442742464364 l1.501038180926516,-20.798462383903455 3.334722890819422,-0.33712912626525426 l1.578934501796176,5.270113580744225 -3.516279155962597,4.188979570469596 l-0.3712543295537256,7.770121219882806 1.0902776665069107,6.661352461630179 l-12.604256500023778,1.066727759690025 m-6.809567279522387,-14.336612367433336 l-0.42720470077288447,6.366071629294254 -0.8537311551614085,7.9415279941425725 l-2.533232161554475,4.687587312702071 2.7251182360910584,5.076874258341704 l2.6321509666388643,-0.0025711270071646086 8.268343157190369,-2.1521463165794192 l17.835736082378133,-8.344393130755938 1.6738485991075758,-6.707265160097414 l6.040022362011219,-2.8703100211603507 8.848683148689721,4.460925210782764 l3.1945912998302797,1.3343595162501092 2.0113507756625575,3.308795495378609 l-3.519549435207916,4.814533150227431 -7.870230318678858,4.524609275004643 l-2.8912861171826743,-1.4046100045062977 -1.6870752890426959,-1.456901926790664 l-3.656045747690063,-0.7615078077588524 0.828482219106412,-0.04398819956396738 l-0.1721739646646548,-7.949293982740495 -5.11516843878837,-0.7968788684258399 l1.22724352361256,-3.2451054092995917 -1.9915456093641104,-7.468168528273984 l-3.7680572315971417,0.24266017688353458 -6.390994446542291,-6.380520050784089 l-3.786234772543918,-9.487446741893645 28.37707052537601,5.500086815493988 l-7.759273880867373,-97.1579525097809 " fill="none" stroke="black" stroke-width="1" /></svg>