<?xml version="1.0" encoding="utf-8" ?>
<svg baseProfile="full" height="181.64813467793627" version="1.1" width="153.6807050709346" xmlns="http://www.w3.org/2000/svg" xmlns:ev="http://www.w3.org/2001/xml-events" xmlns:xlink="http://www.w3.org/1999/xlink"><defs /><rect fill="white" height="181.64813467793627" width="153.6807050709346" x="0" y="0" /><path d="M51.73983775500861,151.9561857886673 m0.0,0.0 m9.978796550654009,-55.7668572775263 l17.083487019332114,-19.742239167731476 22.03399177186619,-29.786934672940006 l12.337079928768627,-19.370474968754465 8.089778582465517,-1.3520181772786666 l4.464185344312264,-0.9376615244364284 2.9535481185272827,6.1215018504237095 l-3.915008649966876,4.098008757656881 m-35.86918031925969,46.45957177545384 l2.4470017409658413,3.267641892696458 13.801651061801325,7.915738799786172 l-0.7954031078898746,11.039285189749442 -0.8296869910481411,7.277878453558292 l-1.7085933100054889,3.4896837457466545 -10.474022461602411,-2.0226169051702656 l-10.293573875558288,-0.9727293263919806 4.427472506089139,-4.445862689989693 l14.7017458568551,-5.691103339188062 m-4.202858462052676,38.45832885633691 l-4.784681883110498,10.702442854266229 -16.29790699903621,4.955865804937096 l-9.329654332025653,0.9944989580645736 -2.6491887168326067,-3.812803560840543 l-0.5951267002889765,-14.9789135529709 7.926758922652897,-1.2087177621510248 l-2.2641981511554863,0.06295703497285539 4.169285194107174,-9.682196590025814 l5.207790265720301,-9.837084504093806 1.6699004202230798,-2.6950601185473935 l-12.847101715002948,-2.5755294493331964 -15.256730629169764,-15.981350539977734 l-12.793696221263344,-9.667373176341423 -0.7337149936396764,-4.12074081819455 l-3.7198266998758722,-4.31773558542221 -8.672156820564977,-8.972040298322991 " fill="none" stroke="black" stroke-width="1" /></svg>