<?xml version="1.0" encoding="utf-8" ?>
<svg baseProfile="full" height="339.59572889664037" version="1.1" width="177.53133979013833" xmlns="http://www.w3.org/2000/svg" xmlns:ev="http://www.w3.org/2001/xml-events" xmlns:xlink="http://www.w3.org/1999/xlink"><defs /><rect fill="white" height="339.59572889664037" width="177.53133979013833" x="0" y="0" /><path d="M152.53133979013833,314.59572889664037 m0.0,0.0 m-3.5444964422434553,-37.113471084724594 l-1.3066831033960424,-55.749173472181454 -29.965520927394557,-42.39836031397762 l16.567233273549782,11.99909833458741 5.304469568553228,-28.040259384319405 l0.9392064000424017,-5.417687429357897 -2.66531153841843,-2.866803664109334 l-4.63647428593235,-4.771448399058127 -4.301263216870354,-10.628625173114523 l-14.872569232621604,-11.534185587463561 -6.98997541233495,-12.375793690755634 l-3.1132578218640785,-6.483545640056197 -0.6372904242250368,0.3030415794098651 l13.527721565468212,-0.2081883932019768 8.906465147419828,-6.483611623572987 m-1.1313809019760224,5.8106930346289065 l-10.20613683984041,3.074649161513581 -10.723297337631315,-0.5628482038660337 l-8.219608015512938,-2.2260851039051333 -5.178066640906048,-13.577960424123049 l-19.500742987791625,-4.407543837331344 -1.640400038441771,-10.800408852388651 l3.7612582335841513,-18.09325738779782 -5.936462161886329,-12.383151788319699 l-2.3767536008244274,-11.597496447441506 -2.6748690273731732,-2.032497670195233 l-5.220849495032341,-4.716119741798844 -9.672240585758459,-6.314687693719494 l-15.592850900051042,0.5182669128766284 -6.4311930404292,5.979420797432707 l1.803852206424909,1.907598591066636 8.084967895549774,3.3544219091837015 l13.864772424312989,9.897731795337876 3.757421218159859,2.791876864591226 l-3.1367374170573323,4.382931628704762 10.278428646480261,-3.7377450420298253 l8.385146726484983,-1.4240942407775075 -32.39315257086744,22.02897689367018 " fill="none" stroke="black" stroke-width="1" /></svg>