<?xml version="1.0" encoding="utf-8" ?>
<svg baseProfile="full" height="200.45343042122585" version="1.1" width="127.58709357397147" xmlns="http://www.w3.org/2000/svg" xmlns:ev="http://www.w3.org/2001/xml-events" xmlns:xlink="http://www.w3.org/1999/xlink"><defs /><rect fill="white" height="200.45343042122585" width="127.58709357397147" x="0" y="0" /><path d="M44.87605691365005,175.45343042122585 m0.0,0.0 m7.190503114649599,-5.20524346539979 l8.750399398776064,-35.907560361459545 0.7194218288499014,-7.531726951050201 l-2.476179876728376,-1.6012329692786604 -7.785624099497157,-1.419288734140367 l-10.2946839241645,0.21057112646140927 -10.457416265539106,4.482913224762168 l-5.522477089996472,0.32832635506655994 3.1062750099946226,-7.090530138088142 l18.774737448953523,-20.589263396668088 4.429207914575924,-7.151091667665783 l4.084117102394636,-4.925597136266665 2.9703481307335977,-2.16402569058962 l2.0864929732740776,-5.666971467323025 -3.093477717783759,-3.6704228994126424 l-4.433182007862305,3.1496214012715473 11.615825344191038,12.906121307333315 l8.69190818829458,8.027562719289385 1.6664487336392368,14.323147058963087 l-8.094754389173366,11.879424944150575 2.052260948988281,-0.06880145831237527 l4.080319716664162,-7.083835158623623 13.194677114102058,-2.927876773517156 m-19.813792837967988,-21.70612272875909 l-2.7612050071838543,-9.301657011964783 7.875355754693925,-2.384960801356083 l0.6865371280455324,-1.8885268388303655 1.5328606718422622,0.37134614360458396 l8.45672172469883,-12.61180564841475 11.896462283312493,-10.485869981205761 l8.582949345543955,-10.246425184621794 -10.998752121557953,-7.54456677392612 l-7.075804074224888,-6.471732990717289 -7.618555938853377,-6.52644797496716 l0.020557221847438134,-3.96088049956962 " fill="none" stroke="black" stroke-width="1" /></svg>