<?xml version="1.0" encoding="utf-8" ?>
<svg baseProfile="full" height="259.0437347134284" version="1.1" width="121.6006799187829" xmlns="http://www.w3.org/2000/svg" xmlns:ev="http://www.w3.org/2001/xml-events" xmlns:xlink="http://www.w3.org/1999/xlink"><defs /><rect fill="white" height="259.0437347134284" width="121.6006799187829" x="0" y="0" /><path d="M93.49337747582469,234.04373471342845 m0.0,0.0 m-2.3657171959207712,-6.3322485458806055 l-3.4233570857007445,-21.755441247406242 1.2485839035961783,-9.622376474864105 l1.761533690451782,-6.343828957826095 1.791755100814032,2.0431933152432347 l4.094504029717734,-2.033494778089068 -6.42174879992215,-19.995426901170113 l-12.61952533613913,-2.482037032216533 -0.3331588800170182,-1.5770717382054207 l-4.360339162274476,-4.6043998849656935 -1.4703679350911507,4.1593058796338696 l-1.0288517183969155,11.673024646295373 -1.9157202256963923,4.963239371637751 l-5.131894517900975,0.2478121048636528 5.125472198544767,-10.285149215585987 l0.7827120308837839,-13.076003884727422 -3.057590093183927,-7.74082151208732 l-3.731532514335174,-4.1178016589824065 2.482811790481728,-2.065148851451667 l2.315314425310006,4.586288772616138 6.086167861148648,-2.409700865186033 l1.344481636685112,3.033874381909674 -0.7253137219818563,9.649466821327074 l-3.909081931239241,-6.094705922224223 -2.9835371139362046,-13.803481491578337 l-12.220988224817196,-7.399740423985007 -5.956188925507737,-6.814586268193685 l2.1628782503961608,-12.983377124024198 -4.790329258661086,-2.7276498285320616 l-12.319762926477972,-16.88171242491439 -7.727860606359392,-31.66689117922867 l0.35734294977788794,-2.301909498264986 -1.5540691700730052,0.46827689242131654 l1.7044745097975889,0.16827706807646836 14.566615217395821,-2.9760676701386912 l5.471430257934744,-2.5329093036250825 9.92977709567327,-4.843235262258314 l4.278372147756143,-14.838780691005066 m-6.01332608324849,-5.124281478245788 l1.1925142413522276,-4.606213852589765 -0.8155009671987108,8.104221335218822 l-2.000175680511324,0.3128205182476257 " fill="none" stroke="black" stroke-width="1" /></svg>