<?xml version="1.0" encoding="utf-8" ?>
<svg baseProfile="full" height="211.4684687647283" version="1.1" width="152.5041214098676" xmlns="http://www.w3.org/2000/svg" xmlns:ev="http://www.w3.org/2001/xml-events" xmlns:xlink="http://www.w3.org/1999/xlink"><defs /><rect fill="white" height="211.4684687647283" width="152.5041214098676" x="0" y="0" /><path d="M25,155.7061780483219 m0.0,0.0 m7.8819008267933715,-0.20190421003615455 l23.520927225871876,30.964194926442556 -5.527249514685149,-51.119277299221174 l5.208258928623777,-1.4895680770714308 5.3103295316351025,0.9995616924052042 l10.550277516179444,-11.68280236265614 6.028393940646072,-2.9829400714055456 l-0.5255197299351944,-15.985625986884875 6.756853186903551,-7.539838290666823 l-3.0129333736413244,-2.222378318939513 -8.923496372932695,-8.327315943089452 l-0.2874845166494455,-3.478185289295049 3.133573852728131,-2.325724083214283 l3.470800208008437,-1.0926316775864655 7.078718899005099,-1.6130264357503326 l11.69181779635847,-6.450914047899297 m18.950505686884444,-20.79373106688731 l2.7868647200076366,-6.688097889046074 2.2800633449044354,-3.1780768314575356 l3.430156841749988,-0.17859972191335366 2.7013624114115906,-1.858355533971966 l-7.543180029781575,-0.7299618474037761 -0.2678045206871682,-3.1169456139672227 l-1.2944287172051643,-5.566532332587817 -5.945239218323103,-4.047501736218067 l-9.165811708051528,8.561541134515762 -7.005903794332522,7.899580171341479 l3.85388012242276,17.031576105153203 1.291984078352233,19.02495574705041 l-6.811455305301433,11.246483344089416 -11.877327608073275,12.137384589023416 l-7.397483764719437,10.932687556721616 5.265190170693158,7.664802975151646 l6.49521321585024,1.5232928361697278 12.525076127412792,1.8392768547923 " fill="none" stroke="black" stroke-width="1" /></svg>