<?xml version="1.0" encoding="utf-8" ?>
<svg baseProfile="full" height="194.68438127377095" version="1.1" width="338.0101116349523" xmlns="http://www.w3.org/2000/svg" xmlns:ev="http://www.w3.org/2001/xml-events" xmlns:xlink="http://www.w3.org/1999/xlink"><defs /><rect fill="white" height="194.68438127377095" width="338.0101116349523" x="0" y="0" /><path d="M313.0101116349523,169.68438127377095 m0.0,0.0 m-19.41127037422249,-41.47108836820756 l-20.472095167482074,-2.9230766193612676 1.0622887344797065,-17.290320408069686 l0.09247076106680296,-5.179554972118443 -6.410590441224408,0.9181677032227586 l-24.54645600538976,4.0656443613117075 -2.237332713409422,8.106332298759241 l0.7705116578004212,1.6145704806558803 -22.192823715780932,-5.329827056593951 l-33.29076225085487,-15.535996649080742 -22.488135629602603,-15.861541148426156 m28.833765523827523,86.36976038051482 l4.588881173881411,-28.361401232663354 -23.49657059959969,13.246396551242489 l-44.61368005621255,-24.72400587065251 -6.069386562061241,-65.91075668332392 l6.696010094670215,-20.70397944212909 -2.9130873697579416,-15.713704598851175 l-17.086027417019356,3.0091576698297717 9.771506526258834,12.090240985746671 l10.318422287269614,21.447876967079118 4.792683418353988,9.706180864682299 l-13.63193367961101,11.728691467857379 -16.484418985751123,-6.922902488145319 l-15.32982136092156,-13.018746210438339 -7.561624916372054,-6.121383591479672 l5.8504561685784235,7.57643536985882 -13.31464768836406,18.918142846900967 l2.681126044765528,23.36986877751022 -5.232760173981911,9.735463149084795 l-8.222602020051069,6.9453542797328565 -4.246430322458183,6.3287114447214154 l-2.942397068468482,6.53459769690075 -1.5950265414658353,-26.032941620654388 m-29.678352965842194,26.460663921073966 " fill="none" stroke="black" stroke-width="1" /></svg>