<?xml version="1.0" encoding="utf-8" ?>
<svg baseProfile="full" height="105.70144708275723" version="1.1" width="125.48196411669252" xmlns="http://www.w3.org/2000/svg" xmlns:ev="http://www.w3.org/2001/xml-events" xmlns:xlink="http://www.w3.org/1999/xlink"><defs /><rect fill="white" height="105.70144708275723" width="125.48196411669252" x="0" y="0" /><path d="M35.07920861929455,78.6686706923046 m0.0,0.0 m-4.794368059912986,-27.32440884694269 l-0.3990794830960274,3.897825662479891 -4.885761076285531,4.460774156642011 l2.6354070162719836,-2.734579743611439 4.018167362184787,-4.409870033610097 l8.700458727813958,1.6550475303255885 1.164220366676803,4.768232170976544 l0.6437998811593727,3.1204253131671287 3.363837822754577,8.03174032494159 l4.667491509734788,4.495026976882236 -0.5364906813923098,-2.7790115981441685 l-0.8453073135389849,-5.8487083646788305 -0.9165872228895592,-8.392405828577479 l3.63039344102054,-4.710492388121588 8.598356093104506,1.1203512795311712 l15.65759109858364,0.44048932797495954 -0.33019438550727753,-2.964713313226769 l6.16213076745471,-0.6722060023481813 2.5794232107056128,8.852340229383536 l0.4163477305205234,1.7545922932541402 3.4333850523804155,9.749500135693298 l-1.7295445051060512,6.348718114224418 8.997385009570904,-1.8823021833340736 l-5.819662514788262,-6.788156689445885 m-14.796923579413175,11.844567867017313 l-6.278517840552982,-2.2110863305946107 m12.184818321584917,-53.49036075216262 l-1.3983978029226896,4.328851647046885 8.471886187736352,4.623801119747193 l2.0756485935501243,5.445044392029835 -0.4593914666766295,4.024982693937212 l-0.4635104535410456,4.935569726708854 5.6510248915623205,2.040350451382648 l2.1555132334142626,-6.47771641767403 -5.07835590702361,-5.952533582859396 m-11.048301985199167,4.537274133984668 l-3.2714958009652073,-0.8811356375371054 4.990298274623531,-0.9169408051494699 l16.37395004236773,-4.715247163531913 -0.44630978626653967,4.688900875434192 l2.329420727699627,6.430620891892952 -4.190721657669716,-3.861380075615519 " fill="none" stroke="black" stroke-width="1" /></svg>