<?xml version="1.0" encoding="utf-8" ?>
<svg baseProfile="full" height="203.17990608783953" version="1.1" width="127.18077578134196" xmlns="http://www.w3.org/2000/svg" xmlns:ev="http://www.w3.org/2001/xml-events" xmlns:xlink="http://www.w3.org/1999/xlink"><defs /><rect fill="white" height="203.17990608783953" width="127.18077578134196" x="0" y="0" /><path d="M25,178.17990608783953 m0.0,0.0 m12.100316446899297,-30.550903257826086 l-2.4665158277212034,-0.4116037689881544 -4.272005789581505,-7.52596966550247 l3.1424038670790586,-0.5242258707062286 -3.4230015026201044,1.6593321213277796 l4.088531737895226,1.9244509511763763 6.182114255828843,-5.887084130394212 l14.368872255111507,-6.892458731300907 5.401193822883599,4.627271256842145 l14.414807210464193,6.923496000080913 -0.9660972189840792,0.033468112814187406 l3.7752026082931804,5.707202678565642 10.981824630507221,-5.425768186800839 l-3.227828519755236,11.578373457638245 -2.589066789391493,5.788032835546273 l1.9313126046764095,5.042189139324674 3.2481324487811323,2.37487418983415 l-2.129573434684618,-6.7351718661518465 -7.906010686277011,-3.8199125351205985 m-18.93831858194584,-62.713241364452195 l9.059782899285347,-1.9809489909140914 12.114710066735842,-0.5118203904324737 l-2.721279317667246,2.5735088839174014 0.4374544174158809,13.477468072321383 l5.015131822552226,5.479725500727469 1.3975705266999618,11.235368181696682 l-9.464558530221787,-10.478800007553023 m-3.0028368121676965,-41.477718204522866 l1.5517123475375185,-7.404453479302575 4.042631500765017,-8.068688838102416 l6.88420028750375,-4.653270579277291 10.283357763597662,-18.701226470322815 l-4.024714925141349,3.272689459885044 2.354589050706387,9.29440848373473 l0.7285184277561912,-1.587924076527812 4.41848740877302,-5.51851711329344 l-4.631140845638515,-8.130701866917018 -4.12155186914627,-5.171356018863322 l-2.521512103045017,2.1466797536744253 6.131611730593607,2.3387490324669513 l9.532318396988867,-2.3043911458809534 m-13.713076745989646,13.804307553902865 " fill="none" stroke="black" stroke-width="1" /></svg>