<?xml version="1.0" encoding="utf-8" ?>
<svg baseProfile="full" height="145.03865421230927" version="1.1" width="122.61197666468624" xmlns="http://www.w3.org/2000/svg" xmlns:ev="http://www.w3.org/2001/xml-events" xmlns:xlink="http://www.w3.org/1999/xlink"><defs /><rect fill="white" height="145.03865421230927" width="122.61197666468624" x="0" y="0" /><path d="M80.01837405708052,57.04003438521602 m0.0,0.0 m8.18826257585521,8.87477112207546 m-1.591624800353845,-7.176844185668368 l3.7060423398888287,-3.7765777646724916 1.9298165693730656,4.8300348529232835 l-11.180172461278298,13.03235063724209 -1.9421831390256006,-0.825072637579721 l14.980000238581308,-2.4159669617784347 3.5034612845650464,-3.0890526570917762 l-16.77723291112662,5.033078651628827 -9.393396268261155,5.033975040007785 l1.0266192235008975,4.463801762325597 15.192547043581266,-2.1123970307339563 l3.2087608540936956,-8.439681816190229 -10.236309461462602,-1.318973377054078 m-19.231381661433353,23.674922256036734 l4.709142207434237,8.68020710849747 4.5538288688488855,8.843974331169388 l5.802578819855523,7.0108962214672275 -6.511135455836272,2.675174274488446 l-4.867046545058811,-0.2802789395816494 m-5.9307964003191245,-17.090256989100908 l3.7625348420754627,-9.070744499259154 1.8200323455202818,-7.351457746934889 l-0.6271478255938269,-12.623802887046768 -2.25949629101022,-2.090568764010859 l-3.773103574729458,-7.532430643190843 3.1941096462159524,-1.8771213204362251 l1.9432531422184596,-9.733986645373838 -1.1957219033637612,-6.175320485578397 l-16.316649854210084,-4.260951437016973 -6.583560667056981,-1.8509827144830064 l-6.120001058835905,13.406899364991705 2.3487199413117916,2.6533893501733963 l7.84760604576683,4.602887961991638 10.651413484821052,1.863467457622359 l8.975998822026803,-6.138002687600193 -3.383069154809403,-7.110812835815065 l-5.520723155588124,-6.906408484504885 m-16.022449811565156,-1.7299150810845942 l-0.1584382342839336,-3.4980176943633476 -1.4775493938254163,-12.24423849170677 l-11.263912323587181,2.6403563461517376 " fill="none" stroke="black" stroke-width="1" /></svg>