<?xml version="1.0" encoding="utf-8" ?>
<svg baseProfile="full" height="153.60973539980012" version="1.1" width="143.34492442805413" xmlns="http://www.w3.org/2000/svg" xmlns:ev="http://www.w3.org/2001/xml-events" xmlns:xlink="http://www.w3.org/1999/xlink"><defs /><rect fill="white" height="153.60973539980012" width="143.34492442805413" x="0" y="0" /><path d="M25,128.60973539980012 m0.0,0.0 m2.1062505830067813,-35.226602995427825 l3.4758996547025998,6.959239285934491 -1.168323721417801,-6.540563423206047 l25.197624192464605,4.730306235634285 4.538686602139515,-29.70725197545501 l6.69170627166245,-0.27603133898326615 2.0233689975801425,9.316670086840778 l-0.7224130776763094,6.5432522815779235 2.9187217662987974,5.409085224344188 l14.044123618263239,1.633301915166087 -0.1328784690184139,-3.996126495650117 m-22.953823360544952,-47.80856853356562 l0.3717173835001304,2.9401371104270324 1.3110632771038133,3.041224020351675 l4.4638788244847305,8.43762091515909 -1.3319694375904467,9.271884532378996 l-3.420464371547427,-2.881999967228176 12.205094956383217,11.788462003088757 l0.5075093758803717,-0.46887958182350253 5.591398126384022,-2.259705813527431 l1.7734142852212782,-1.591012804917084 -1.0573959790126444,-5.197326962700102 l0.18933426452420618,0.1028193813613739 3.42401791985851,-7.490400849554357 l4.576951098215021,-5.132349908962854 10.915795389994717,-25.206917741063375 l-2.773315457845796,15.978628291560058 -1.4323281465405198,7.07144149395581 l-5.004314377306442,-1.3068234690044171 1.566319729089506,-5.026586858831596 l-1.9436407951755996,-4.333686631102811 -0.7599055043265779,1.6904637221420415 l4.29842913772741,5.2849645149442885 1.2458932601713828,3.6319441431489143 l16.091492279923624,1.4393883653976927 5.3530925710272825,-1.5920166244002172 l-2.6237726029662904,-3.0869997561238747 3.7876861634159935,-10.918292213261324 l-0.9664621022022426,6.797398839908568 -9.531558650321568,4.2465314314207925 l-4.830943527698286,-2.8981712615590682 -14.097512980021833,2.491068919149453 " fill="none" stroke="black" stroke-width="1" /></svg>