<?xml version="1.0" encoding="utf-8" ?>
<svg baseProfile="full" height="94.93798270285427" version="1.1" width="115.35855733126274" xmlns="http://www.w3.org/2000/svg" xmlns:ev="http://www.w3.org/2001/xml-events" xmlns:xlink="http://www.w3.org/1999/xlink"><defs /><rect fill="white" height="94.93798270285427" width="115.35855733126274" x="0" y="0" /><path d="M39.57259459482861,36.151034708665655 m0.0,0.0 m-11.688117525346845,8.475765483007462 l0.7186391805870181,-15.011727309722822 -2.846157897583144,-4.615072881950295 l0.15874581182166558,6.14274612453985 1.4252588479936712,4.908746747395101 l2.89965123824962,4.401840751328393 1.9964248036171983,1.9140758265393238 l2.6748737998637333,3.405556355673437 0.28224960680533945,3.7757855804055716 l-0.2898622881220814,6.817187353384622 0.8134924990081382,8.443335057477853 l11.305770599906202,5.128708906110116 1.7856622499562549,-2.145642461101863 l-3.4358656110476815,-5.498534036716426 m-20.373359910537697,-7.756459246853582 l3.0858761646693953,-7.840525603230333 3.1272300416027012,-7.198352564016176 l3.5766424716936855,-3.180111250363483 -0.872818828776398,0.6635847684976538 l1.5507795314080135,5.515567760330741 2.5689248069643167,4.77366171260771 l-1.16437106146645,4.501208095720413 14.067594355650487,5.492100516913681 l14.56217257104311,-0.49140851056836493 0.26094059019780774,-5.22808923183849 m-4.650062186009293,-2.5092859083389576 l-1.3436056082540948,-1.149220220806868 6.534183075789187,-3.3367889228716616 l11.242429166521974,-4.979926596503137 3.2257200490288054,1.7280181360403528 l6.269245212634667,0.34373881707274845 3.3176769785648306,3.6688915747509907 " fill="none" stroke="black" stroke-width="1" /></svg>