<?xml version="1.0" encoding="utf-8" ?>
<svg baseProfile="full" height="256.32511547954084" version="1.1" width="146.51992018321653" xmlns="http://www.w3.org/2000/svg" xmlns:ev="http://www.w3.org/2001/xml-events" xmlns:xlink="http://www.w3.org/1999/xlink"><defs /><rect fill="white" height="256.32511547954084" width="146.51992018321653" x="0" y="0" /><path d="M46.079434025932514,231.32511547954084 m0.0,0.0 m-21.07943402593251,-50.10257058765146 l10.802600943361243,-24.238473373711685 27.03977213453096,9.060476184302914 l-9.793287794162522,-67.12612179558558 28.14980781618614,-16.783555687933685 l9.678512726220411,1.8837262192596567 2.662749997166134,4.921968852152256 l2.62872295313099,11.00008997021143 m-34.07903494859583,-2.7834900195221857 l-3.990467517960432,-2.8631385583314426 -12.617299744354407,-6.2281206208277995 l-4.427216901407769,-11.753160880053345 9.008859970229295,-6.5486308813774015 l14.77295457837537,-10.443092405717133 5.861410689012843,-6.509237612751548 l-7.69724331464078,-10.008355235465594 -1.7967563967283886,-7.703777096689932 l3.1225443861578306,0.12073813408006506 -3.912894708199246,-7.433815971749536 l-4.135781161027175,-1.890966988505805 3.583719282168594,-0.8956071236730473 l3.8732842689131384,9.64530770098925 -1.9186054360673754,7.2146578953215785 l3.155956092777786,9.838616617250747 2.992840522178062,10.99711836360822 l9.47452157263432,10.61476948929211 10.665298107645341,7.952789164553371 l12.091591834247128,1.5928117061702607 6.978026248208261,3.967373489427445 l6.460676567249931,5.240043603703762 5.52279342259737,1.8188981524191439 l2.3618639933693224,10.217575707290624 -13.272189010648553,5.799178771494711 l-5.086951712685349,3.0284428942659223 -2.7477406015881116,-0.49907590106215316 l-7.079146352119075,-11.008580626105289 -2.88637496802632,-9.551701540688901 m-12.898827893499147,-15.981514708254121 " fill="none" stroke="black" stroke-width="1" /></svg>