<?xml version="1.0" encoding="utf-8" ?>
<svg baseProfile="full" height="148.15406527542555" version="1.1" width="153.2665272005716" xmlns="http://www.w3.org/2000/svg" xmlns:ev="http://www.w3.org/2001/xml-events" xmlns:xlink="http://www.w3.org/1999/xlink"><defs /><rect fill="white" height="148.15406527542555" width="153.2665272005716" x="0" y="0" /><path d="M25,69.57137982258698 m0.0,0.0 m17.0496572000375,-3.738902048434749 l17.126732015547365,-21.965525330318346 -3.8485075404838285,-5.552563690780055 l2.180245359480659,-1.5602562675871592 5.904782902973353,-10.727831311270588 l7.163968312813658,-1.0263011741960797 -1.3190775382989461,12.847936122553412 l2.511497612543329,8.830397564996927 9.4478346082325,7.129476286541603 l5.086749329926208,4.395226918837071 -0.5496669865699851,6.1913551926050765 l-2.6351801324263118,6.679406388200648 6.254851652849502,4.3017651610966094 l11.720631484532179,3.9108706221029665 6.613587983233688,8.390704946256763 l11.061871282311854,6.549652895796874 8.437642547962556,5.6047461141587736 l-3.1902121235978376,2.1830136023385878 m-30.564688588464673,-62.21010122930551 l2.461479149430082,7.722573281491198 5.947466833182363,2.1971792886753523 l5.120002783846438,-0.05594405880553474 4.275414062319703,-1.1141606723287645 l7.824530688900527,2.693457996884554 6.545927092523227,6.28582599427963 l2.5039861964283006,8.332607857070494 0.13500101133822995,6.206700624671437 l-4.480408565657208,3.7769784961164348 -13.268789192090006,-0.2344875990601225 l-12.377488710862929,1.369868450190941 -7.731361573637865,5.718844842877715 l10.88971556677195,4.1336560933362785 -21.15534339648205,-3.97803644770707 l8.518287966204563,29.495828793183474 20.61804485705465,10.79872174836973 " fill="none" stroke="black" stroke-width="1" /></svg>