<?xml version="1.0" encoding="utf-8" ?>
<svg baseProfile="full" height="124.72012920017464" version="1.1" width="150.4612680717556" xmlns="http://www.w3.org/2000/svg" xmlns:ev="http://www.w3.org/2001/xml-events" xmlns:xlink="http://www.w3.org/1999/xlink"><defs /><rect fill="white" height="124.72012920017464" width="150.4612680717556" x="0" y="0" /><path d="M53.40538760607106,99.72012920017464 m0.0,0.0 m-22.16117782725819,-68.0858001314212 l0.7897927411358376,-6.634329068753446 9.692237089981045,0.4041401971577378 l5.847773068780175,14.025121581276432 0.05870497150796378,3.2953881939906906 l0.6752170127778362,5.75613638040222 1.119483202392571,11.44389946328373 l0.4796318319772537,4.325088972442963 -2.0357231512929643,-3.3720034726351127 l-5.24398006488832,-4.6789846783256355 -5.292096374224244,1.2811105319113851 l-1.7600244087467198,3.511101470563765 1.420796479324659,1.7208458813013783 m-11.99602217753796,-10.055807810472693 l5.008254494471,-6.075259785816784 -4.225770782549981,-13.220972160723438 l9.823444886199674,-0.6160223570239021 7.618525747402938,-2.7999570824076163 l4.556094724470525,-2.1485170523970107 12.081998259914482,15.35405576917476 l-2.6261391236368814,1.4348084575972502 6.012043329382692,16.143488663098175 l7.135854256669016,5.136233952233504 14.66667342409549,24.957532443758062 l8.860851339269072,-2.0467836923576797 -4.121203553169,-13.879917378514492 l-0.9901824152517831,-4.151079734493113 2.3249301087115275,-17.92671708704766 l11.582088531189445,-5.362124550060351 1.9374270934534599,6.556639799253919 l-2.157471705931365,6.533868343972579 0.28050306479032183,2.3935469337833286 l12.278215170808835,1.1914735367002947 6.354649911071751,-4.724303489357676 l4.0604813103943975,0.7624846253284356 " fill="none" stroke="black" stroke-width="1" /></svg>