<?xml version="1.0" encoding="utf-8" ?>
<svg baseProfile="full" height="223.77034700506425" version="1.1" width="162.26578201748322" xmlns="http://www.w3.org/2000/svg" xmlns:ev="http://www.w3.org/2001/xml-events" xmlns:xlink="http://www.w3.org/1999/xlink"><defs /><rect fill="white" height="223.77034700506425" width="162.26578201748322" x="0" y="0" /><path d="M25,165.20570565421755 m0.0,0.0 m7.297471488962076,-2.6077669786870126 l9.907323435635092,14.955264047259998 m-7.665656201501095,-48.90220819889959 l-0.49616737887802975,-6.107279392173302 3.2983274958176283,-3.4994034709730957 l2.636589330756224,-5.656692108839483 10.367713930821289,-15.257360467364029 m-13.969773081522193,32.1454427107151 l5.586562790823857,9.068256024711648 8.107756044269797,8.475595610617026 l5.521409088140454,5.480350774749676 7.2912127086588345,6.8929935525587815 l0.9047281085808645,3.37359844415373 -5.258554887293956,2.425882448190831 l2.1079505576850397,4.357617174483714 7.273321604893865,17.23785936548745 l-0.8636269341225241,7.172755380191238 -6.553455841826086,4.009736434664008 l-4.468358214492184,-8.211321760123225 -0.6403869575861922,-4.2590299432808125 l7.039292706072073,-16.036748247665308 12.430533076714278,-5.660028489399213 l9.065830492986626,-14.893011397726713 -0.8389220969367078,-12.699839845145444 l9.054806496926316,-7.444890636674926 -4.271864416017062,-11.220403346362614 l1.5503642559636495,-7.274232650141088 -0.17024234395145554,-3.503393824970354 l-1.639967416346324,3.0189523302615715 -11.472212265880144,-6.3788596365088965 l-1.1725718952801016,-10.034665205932424 0.2917533693301004,-10.760717296575027 l6.362088799608898,-4.460446280861055 8.03360196342012,0.9099496558573517 l12.614685303130354,0.7174110243283621 6.032147617398078,1.9360108029701495 l8.1145700636702,3.340466454298546 20.85750121885157,-60.85554871141313 " fill="none" stroke="black" stroke-width="1" /></svg>