<?xml version="1.0" encoding="utf-8" ?>
<svg baseProfile="full" height="177.1904853246662" version="1.1" width="109.62367901793728" xmlns="http://www.w3.org/2000/svg" xmlns:ev="http://www.w3.org/2001/xml-events" xmlns:xlink="http://www.w3.org/1999/xlink"><defs /><rect fill="white" height="177.1904853246662" width="109.62367901793728" x="0" y="0" /><path d="M27.829668543996828,36.500733593651304 m0.0,0.0 m6.590680400337856,-7.872920041669344 l11.438404930997358,-3.62781355198196 2.844609309163675,3.493461100422328 l-0.12600677929654824,3.177686937831253 -2.2308901448688165,6.97462378765971 l5.6661272877659385,1.057444358147463 0.42569081065460507,-4.861577733975217 l-6.735239491127222,-7.622235981801309 m8.90006800902921,47.21825225039013 l3.0915037827666856,-0.5501710453010611 11.464632979743866,15.302307800626908 l1.3019353864513539,7.5991966298132105 2.1314261508656505,6.644114312236785 l-1.312108766603528,5.719356956488755 -1.7385423523274692,2.3843391062709745 l3.412715010215882,3.8832294151576323 11.669003950171952,-1.2992492857311393 l-3.081408923956417,-3.0023939081424165 m-12.124774178403259,-4.967672062267228 l0.008707403159575614,-3.414573638518162 6.695909021163757,-10.417505415671357 l-4.345905768191479,-5.68185884942047 -13.688388908768934,15.096250238044 l0.1297628003289214,10.176421837387155 -1.706465737657341,5.2262218972713255 l-4.946900802565316,0.478664961742359 4.808421909881985,-0.6942475641521887 l4.955305141921422,13.044791758787836 -2.2930047651040675,4.319942983351984 l-0.38004244919245433,8.853126686543515 -19.94026391950622,-7.840514423341994 m-10.623522182031383,-7.468618551430746 l4.5507512813378,-6.160784352462006 -7.641858940353865,22.09115902382634 l5.885478539962548,4.690504441352479 -1.2023383355322992,-3.930938316189627 l2.7073600670278597,7.671729969719051 11.515395270836285,-4.881913078889117 l2.125404527589994,-3.537536317443811 -13.3426474772227,-5.753848425262069 l-2.281984422798664,-3.827678134229168 7.663904477833861,-3.2563785727930386 " fill="none" stroke="black" stroke-width="1" /></svg>