<?xml version="1.0" encoding="utf-8" ?>
<svg baseProfile="full" height="272.49237918503434" version="1.1" width="157.89978684475008" xmlns="http://www.w3.org/2000/svg" xmlns:ev="http://www.w3.org/2001/xml-events" xmlns:xlink="http://www.w3.org/1999/xlink"><defs /><rect fill="white" height="272.49237918503434" width="157.89978684475008" x="0" y="0" /><path d="M98.80998963606935,247.49237918503437 m0.0,0.0 m34.089797208680736,-23.521559304375472 l-7.598022362076242,-29.360195357220114 -1.7669445605402856,-4.139026393047757 l-6.163027909420767,-4.624121841279246 -11.870409795943653,-15.884823132118981 l-2.807540320360371,-8.389656711542118 -2.1335649817835822,-7.123901473107331 l-8.91356267354395,6.376898787924552 4.218523768036918,-1.5158022659298864 l18.572605727161346,-51.39384773308825 m-2.2803526683781983,-0.40099370995603567 l-6.566882411917095,3.314238342998651 -0.6828796056138412,1.006601586908279 l2.0497649499728374,6.38462101353396 2.093045193268162,1.1049951888849656 l-0.8681322880834719,6.6663382705058964 -0.19610572536192472,29.50161070613742 l-0.38525073127594767,11.061284086406037 -0.8843829346203702,8.39887905886605 l-4.957660665688411,12.689845393344111 -2.6172274665170723,8.036251345554358 l4.210598378828208,-3.2303298072143654 7.299215253492934,-13.76068222936726 l3.4227605669411862,-7.360106428675564 3.58229739796172,0.5186496695318732 l0.7273161831621078,-11.457645935175744 3.402994483783195,-13.129545563450638 l-3.511181964119765,-8.045009028670332 -8.226528731988125,-9.212209121287612 l-4.2833891496415,-9.259180820654148 -4.912071619961448,-5.019230868779346 l-9.544090989364014,-5.052490710622535 -35.310051792822016,30.715862504208932 l-30.999647398336656,14.648099248354022 21.236742599008704,-131.03619595263078 " fill="none" stroke="black" stroke-width="1" /></svg>