<?xml version="1.0" encoding="utf-8" ?>
<svg baseProfile="full" height="457.0290642453484" version="1.1" width="134.57082166528585" xmlns="http://www.w3.org/2000/svg" xmlns:ev="http://www.w3.org/2001/xml-events" xmlns:xlink="http://www.w3.org/1999/xlink"><defs /><rect fill="white" height="457.0290642453484" width="134.57082166528585" x="0" y="0" /><path d="M55.61209507150103,397.0450145811341 m0.0,0.0 m17.388596583842546,34.984049664214275 l17.526703158844295,-40.52984382408273 10.2819396913698,-19.85969759286008 l2.4204434390441394,-4.267811295203162 3.593400266855276,-7.454005520460744 l2.747643453828781,-6.676938132715384 m-35.24266413604371,-64.11271257433675 l-1.0749536890583578,-11.876684004930876 -0.07855195665744164,-8.119444526957624 m8.154605375363333,-70.93090106770823 l14.799516532264953,-19.20357635660546 -1.5733422623716324,-13.182141406488354 l-2.0836365564596373,-12.014972195103542 -11.206688735369783,-7.557115263547805 l-14.121117334811911,-8.142890140135847 -8.29385859284979,-5.777765389269508 l-3.5242418133434477,-8.190659607175327 -0.45139975231377305,-8.337113114970393 l-2.0973841469717733,-5.772469308775625 -13.191987033249454,-4.315404919206017 l-1.6417152086212867,2.1419337327021286 3.7521123523958697,3.624364261580746 l10.739227112578554,4.1147030577086365 9.555027947811782,1.671934504641737 l-4.340805264578138,0.836189795548169 -11.741131077056336,-2.455262609363529 l-12.880904563858403,-6.459621416782864 -8.026928862085493,-2.0144074808129644 l6.137589234515444,-12.057921014105839 -0.4254587098288731,-7.370152476522849 l5.6118225345069215,-17.049856150845308 -6.126176349976193,-11.741510252385616 l-3.739067982145714,-11.161546992054733 1.246906250002559,-15.115481084409598 l4.210513163204269,-7.670283879713137 " fill="none" stroke="black" stroke-width="1" /></svg>