<?xml version="1.0" encoding="utf-8" ?>
<svg baseProfile="full" height="192.66950160154468" version="1.1" width="137.8501911720378" xmlns="http://www.w3.org/2000/svg" xmlns:ev="http://www.w3.org/2001/xml-events" xmlns:xlink="http://www.w3.org/1999/xlink"><defs /><rect fill="white" height="192.66950160154468" width="137.8501911720378" x="0" y="0" /><path d="M34.91277441179395,166.31809167185804 m0.0,0.0 m-9.91277441179395,-27.532933289386452 l3.8166098947263554,-5.616219373828073 4.659738032771739,4.052310112794981 l1.4122639770848537,4.197799656152885 7.0686749814145715,2.770544416528622 l-2.5563654359958448,1.1268778314704202 7.587250521997043,7.610582484786201 l1.026865598723818,10.262654415783988 9.292817758262606,4.479793675384068 l15.189572321614818,-2.428675848423753 2.858084369666408,-2.2193372012420896 l1.3232634182870986,1.7393355498075775 5.541419480974512,-0.45436832011435585 l1.4989895646348985,-2.935642026198558 m13.734393180930216,-50.806206006684874 l1.9203396159047132,6.7133722492987165 -2.172918087831699,9.540068909798153 l-4.917115907131253,1.0441294063635422 -4.930965846980284,-8.136407764754418 l-5.617809407379812,-6.332513766473468 -7.899006205139843,-10.596811604807375 m8.27745485202692,-11.261097942996232 l7.930678620473131,-0.9306029197995255 12.828570409006463,17.0050298672864 l3.4422715823249304,4.828370358918921 5.856192402882839,-4.303891921873386 l-0.9030774169576841,0.6764721710138679 m-12.349307151118655,-19.259522097262877 l5.805697933994047,-9.439457257507133 8.125608112870886,-1.8495224180928553 l-7.398264315925905,2.546978329449047 -0.5674781392373148,12.245461057927189 l-4.031795827135003,8.139978967844058 -11.870047633907118,-33.87765573064373 l4.0209942094184,-15.190618381234195 5.467786490450053,-5.872040283428062 l-0.9760802672011512,-5.914285518086544 -4.9523742610964945,3.684504197817725 l-1.866431099212098,-3.3413553832413125 -6.248976754277741,-4.3131686869251356 l-5.021027489894394,-11.370021587279998 -6.805416009909553,12.875146155324511 " fill="none" stroke="black" stroke-width="1" /></svg>