<?xml version="1.0" encoding="utf-8" ?>
<svg baseProfile="full" height="177.66737147444115" version="1.1" width="122.90565545131845" xmlns="http://www.w3.org/2000/svg" xmlns:ev="http://www.w3.org/2001/xml-events" xmlns:xlink="http://www.w3.org/1999/xlink"><defs /><rect fill="white" height="177.66737147444115" width="122.90565545131845" x="0" y="0" /><path d="M26.23600981197765,152.66737147444115 m0.0,0.0 m-0.2867669033088627,-32.81950689122106 m-0.022066487024293563,13.576528703702515 l4.7845578537949205,2.8851921873490736 14.16953703225673,-0.9293089132024313 l1.2186964558482656,2.871525864517942 -1.8668581945250495,1.6214696825754118 l-7.064147393717326,4.990482772717445 -7.6175579896082395,3.3919253256551696 l-4.551404185693793,0.48986878214371093 15.730432885055885,-6.934494774835513 l1.4599034432835534,-8.808026481356318 7.6523404979409335,-15.818893898733108 l-0.45483171942509437,1.345877004367841 -0.8159007065504026,6.6487237291445975 l9.2896655300783,-1.531136195802355 7.071438307762304,2.122024056062198 l1.490297151410906,-5.579422259035353 -1.8779867184439683,-4.739290558578433 l0.4674509534054048,-0.14833862580600599 -6.111188142522972,-2.914127284098405 l-5.696355648973193,-0.527897740022504 -2.4530598149079466,5.539137118665621 l12.881837744202278,1.2322905067767098 13.058583301489245,-5.648413019741514 l0.40618186860553185,2.3944015973486765 2.633315951683648,6.551709946889361 l0.19788075901441216,4.327305412053944 3.535514632394,5.6543526393118935 l9.236220668058598,3.156905291380722 5.203914507757028,-1.0087375460582837 l-2.3612296468169665,-2.389554858337187 m0.6472071442493033,-4.811336752567825 l-1.3444870995937408,-3.3385297666165483 -2.848770401351218,-2.1722198531350365 m5.17170441695314,-93.23512457430645 l0.6127223504131133,6.3525528430501295 -1.9884769824805666,-7.263053570949696 l-4.743922227663899,-2.2022313737501125 -2.076714910580945,14.327671320661175 l2.7242487429602558,4.301847811205127 0.9161644185048928,2.2297977225739456 l3.4527573191460856,-4.21736130596259 " fill="none" stroke="black" stroke-width="1" /></svg>