<?xml version="1.0" encoding="utf-8" ?>
<svg baseProfile="full" height="105.56516859357455" version="1.1" width="101.31276743822998" xmlns="http://www.w3.org/2000/svg" xmlns:ev="http://www.w3.org/2001/xml-events" xmlns:xlink="http://www.w3.org/1999/xlink"><defs /><rect fill="white" height="105.56516859357455" width="101.31276743822998" x="0" y="0" /><path d="M51.93448277345688,80.56516859357455 m0.0,0.0 m17.512073097133477,-21.880261286629302 l1.7556850431804205,-10.573092804830338 -7.436012916425729,-9.613126042356985 l-6.117524521180568,-1.7400879182135776 -1.5394523354713496,7.430035479487921 l2.7970747160313567,5.530314842426922 -0.12343864787762837,7.585837815411676 l1.030877546177855,9.20142940206395 0.276911521816008,4.427622735177768 l-7.001397546542038,1.7255529011291282 -2.8461541821275262,2.9718812577518525 l-3.522220548388683,1.0086573801283718 -2.6714426523130568,-1.0200351256482965 m-3.221392711103108,-49.18269321658134 l-7.99909069640526,-0.654251864427628 -7.828977939961053,2.4943630376337294 l0.9793408934128541,0.1715867739155741 2.3532603912971983,1.0447109709274283 l2.6395297431457214,3.0867860292266647 4.429446833502132,-0.9429932354381338 l-1.9371469826255487,-3.4515052581961085 4.031320059092942,-3.185900466533834 l8.063178653262304,2.665486560800124 9.8340198886196,7.528907362629684 l0.733685436167393,3.186923113466608 -0.38567681754681604,3.6451116513327255 l-1.0514756437449717,10.579687001757522 12.525178483463934,6.755989626534592 l8.175225539957811,-1.015647381247908 0.922880960225437,0.8922356068135603 l-12.13211045879342,6.310132814952089 -0.6324728186383485,2.251488243769982 " fill="none" stroke="black" stroke-width="1" /></svg>