<?xml version="1.0" encoding="utf-8" ?>
<svg baseProfile="full" height="364.4861750272215" version="1.1" width="215.87217805242432" xmlns="http://www.w3.org/2000/svg" xmlns:ev="http://www.w3.org/2001/xml-events" xmlns:xlink="http://www.w3.org/1999/xlink"><defs /><rect fill="white" height="364.4861750272215" width="215.87217805242432" x="0" y="0" /><path d="M25,25 m0.0,0.0 m165.87217805242432,314.4861750272215 l-17.87581748542727,-36.74491419113077 m-48.18838561283298,13.902491354432689 l-11.555422157524648,-2.736439512846839 -4.284814989148162,-5.238709065774738 l-4.43657937742726,-8.065853690071096 m-1.5210301307662273,-62.71298656175004 l-1.75637693931477,0.4059517367537596 3.321112277020777,4.830952932292841 l6.170440707159693,5.128272389487669 0.46645815910447125,5.099881092027509 l0.32362608950200517,-3.4852170884806766 1.0442306049140377,-4.129767358768303 l8.228696420370994,-19.15922629735021 -0.16548195639130625,-13.144489619954545 l3.3042835941711033,-3.355641825003391 4.7976332223462475,0.3285849658550845 l3.3850684215059377,6.2218402057776245 -3.2853082359624466,7.478411764589743 l-0.9616704562640896,5.2256850871419065 -2.5792051421284765,9.788113611999076 l2.2741676646352817,6.330922357105358 -6.766012103195623,2.2076251692472257 l-0.29940211324585314,1.7790990247842868 m5.365271081357452,-58.94132614623478 l-2.9382257291326535,8.929725491047707 18.477635536985687,1.9830560896234983 l7.063269999705699,-8.437575066497178 12.257540132203033,2.84824349953949 l4.815626167199852,1.8068055484517813 2.1023637319534623,7.228208647344014 l-3.207234327688873,5.396079663637534 -8.12777863769512,0.3328334283947598 l-9.178528670687564,-1.7065903079923495 3.767704050776007,-3.1835645783937494 l0.8785864529292982,-2.290727547154897 0.014444339977362775,2.447095116956517 l-2.701077574335299,4.264857981224666 -7.382424996631395,5.103466162087502 l-5.378703650756713,4.591939644819574 -15.660600227896914,11.181465347259282 l-0.27507317005637916,-15.548723293393875 " fill="none" stroke="black" stroke-width="1" /></svg>