<?xml version="1.0" encoding="utf-8" ?>
<svg baseProfile="full" height="190.35273605863856" version="1.1" width="108.73506198930151" xmlns="http://www.w3.org/2000/svg" xmlns:ev="http://www.w3.org/2001/xml-events" xmlns:xlink="http://www.w3.org/1999/xlink"><defs /><rect fill="white" height="190.35273605863856" width="108.73506198930151" x="0" y="0" /><path d="M37.15912377088408,165.35273605863856 m0.0,0.0 m1.0061403482267073,-23.39681624976626 m3.684673431454537,-4.858677814864142 l11.777279340335156,-4.032124542288281 3.943263520222323,14.99887110195263 l-9.95277507211735,1.2644237089218464 0.677909330435339,-1.9955605602180986 l17.51372283365715,-17.856512709894513 4.565160127942908,-21.518072202301603 l-3.951079787119126,-10.183844774443395 1.4297244018037158,-7.689295499232179 l2.9432606107945762,5.436147341994501 -1.8965802061825636,8.945466582979789 l6.827406488483946,2.711069393997875 8.00783285048011,-4.3878312678267735 l-0.2713424305016271,-15.02788796571433 -8.05668591885914,-4.301604569671017 m-23.797411585627415,-35.11982621699657 l1.0776687846716342,-5.984711344185278 4.532230468474637,-4.407801700667005 l0.576224917068841,-5.84344969675474 -1.0277463896418266,-4.279504108112193 l9.288500034444317,15.194378321114362 -3.0056862712522694,5.683656236516442 l0.5558261093195882,-3.779534940801368 2.000493776529543,3.523519187706735 l10.020134017910722,-1.7265941634710342 4.436032623348489,-0.6523276783717885 l-8.97276267814199,21.14923119748057 -8.970596282171877,5.994412123475035 l-19.555796322627337,-6.769328010210347 -11.007136552764333,-3.6419903552874024 l-5.27726213575365,-28.113802816298037 -1.0022857457795848,-7.2868073305054155 l-0.27746040794823457,-2.4000047368965234 1.0973206627892935,1.249642380435645 " fill="none" stroke="black" stroke-width="1" /></svg>