<?xml version="1.0" encoding="utf-8" ?>
<svg baseProfile="full" height="97.48990501207446" version="1.1" width="101.57020980951543" xmlns="http://www.w3.org/2000/svg" xmlns:ev="http://www.w3.org/2001/xml-events" xmlns:xlink="http://www.w3.org/1999/xlink"><defs /><rect fill="white" height="97.48990501207446" width="101.57020980951543" x="0" y="0" /><path d="M32.40104489839743,54.143917748504904 m0.0,0.0 m-5.8814144325173885,12.152463885805025 l1.7813288470975697,1.0857122097277638 12.340312635173932,-1.721603357477648 l5.304158447939897,3.301410817224151 12.394271301979524,-6.454318545206363 l-7.134678069088969,-11.57437172575658 -15.921732055273429,-10.180234625566321 l0.605288346104142,-12.808722340501063 -1.080903633641125,-2.9442540667538712 l-5.7133123554346685,3.1002796259383794 7.4326682339527315,7.439031088963424 l0.7637422317743533,2.5363829708320482 -5.841841663515493,10.737925663270355 l-4.124784253513451,5.7946771127779355 -2.324148479435051,5.373872354988076 l19.076111159697763,10.6833164472878 7.816421557516727,1.8244197480164306 l-4.904220737383809,-9.03053046923266 m-6.787947313069187,-13.393002054380835 l3.1318027050507635,-2.6071621556298727 4.224531497287951,0.6474644852057705 l2.9202044278785997,4.479010723840841 -3.9635105305839455,15.138151513070571 l-1.403005663262168,3.3067781747633207 4.1134596157554855,-2.0648784420386024 l18.459593731039103,-2.1163376559390534 0.9080639911310779,-6.1307441944895285 l-2.1440764799607925,-4.098421017125359 m-0.0374723884903061,-20.97128703223376 l-0.8100129430776785,0.2230491593810978 2.9370479205435376,4.89088432557086 l-3.855646087377538,6.446244832665618 -2.965060873990795,6.130435277952607 l0.01770261490690428,-0.14528820429126343 14.83622360590375,-7.081974883608926 " fill="none" stroke="black" stroke-width="1" /></svg>