<?xml version="1.0" encoding="utf-8" ?>
<svg baseProfile="full" height="145.6884827495444" version="1.1" width="125.14813330806766" xmlns="http://www.w3.org/2000/svg" xmlns:ev="http://www.w3.org/2001/xml-events" xmlns:xlink="http://www.w3.org/1999/xlink"><defs /><rect fill="white" height="145.6884827495444" width="125.14813330806766" x="0" y="0" /><path d="M64.61651466611832,111.48334458160633 m0.0,0.0 m-2.337956568201116,-21.545307061910535 l2.071959737576971,-0.15028262807483025 2.484842511197116,-2.524315155901918 l-2.21480187411469,-4.3684879318119725 -7.266434369926793,9.484494523450927 l-15.412449401965734,-0.6942606467060974 -4.250149213369637,-5.765003767233878 l-6.528099068304354,-1.5579611604198098 2.9072982286321905,0.3803593438095837 l7.227370648698683,-1.4823934218768426 3.9232211852411156,3.2505158460099164 l-7.751275290697173,5.82834197278404 14.628856331336936,6.371117751058857 l6.994103323268141,5.6072965411659865 -6.305673371203079,11.79181053547801 l2.5057143420997687,4.579213428116637 m39.110761746345595,-25.62173391547621 l5.744329745335393,3.4927184049418925 -3.518836136492323,9.649425462511028 l1.3097637028783615,4.443365474215788 -2.0785466246860955,0.09615701864266996 l-3.471231792331105,0.3904408028407295 0.09146989913131676,-2.6428400127115395 m-37.21620120978062,-12.025677326706026 l-8.098312274439932,-10.588802120088516 -9.09633027069661,-17.06118695548873 m-6.967836078048589,-16.843174818795017 l-3.4237812745437073,-12.671718409560647 -2.678291249058334,-7.986846284077247 l4.444897247905669,-4.96678885328657 9.159087489149925,-3.351821216506009 l10.042586293219795,2.124378428801262 -1.6504174450326425,0.031857899547300575 l-3.8756404535325637,14.673915856258422 -3.6514985225859906,2.3580321446106214 " fill="none" stroke="black" stroke-width="1" /></svg>