<?xml version="1.0" encoding="utf-8" ?>
<svg baseProfile="full" height="124.71959269393786" version="1.1" width="140.83651520019893" xmlns="http://www.w3.org/2000/svg" xmlns:ev="http://www.w3.org/2001/xml-events" xmlns:xlink="http://www.w3.org/1999/xlink"><defs /><rect fill="white" height="124.71959269393786" width="140.83651520019893" x="0" y="0" /><path d="M32.6764147091508,93.2658111313236 m0.0,0.0 m-7.676414709150796,-56.64706948852978 l4.715980915164743,-5.0665659594471135 16.643528722377855,11.908820081314497 l5.676048157946314,12.557612925508144 8.825572688454013,5.536587362475925 l14.619160551751703,-4.747319578424043 12.77483207828895,-5.0489274078640385 l3.3378042066179936,-0.5499334435824379 -7.326502635677966,-0.275499392810594 l-4.197717649983388,1.6637709115650596 6.930810182577011,1.205370493122784 l13.86755615059891,1.228788456847137 -1.0666616963201234,-6.562959571994235 m-33.581925208743776,23.445976724056376 l0.2651996797292515,7.46143899723773 10.064862238513028,-5.313962840211109 l8.344551550355142,-2.511067937861039 3.614056611823858,5.900954874578379 l-0.43925995262238127,6.383016251045041 3.8624279480902834,4.9412629501139165 l-1.2110940179829843,7.74507603384684 5.961238801449222,3.198411121626823 l7.4916358885451,-1.8195608765730922 -3.076675461652364,-4.063149649894955 m-20.961241289901945,-28.89688613385027 l0.965238207935862,-9.081000092238442 9.719709041283386,-3.6901239854769075 l3.0257081534136,16.73675448134139 7.973098075141818,7.333367904736737 l4.8776655090189625,3.604758688867114 6.1862851224578295,1.9102307267208865 l2.954622631549007,-4.6050284338209195 m-41.8524811287681,-45.651121542199924 l-8.274332394486004,-6.497833781549471 -4.138827159242609,21.32673682867515 " fill="none" stroke="black" stroke-width="1" /></svg>