<?xml version="1.0" encoding="utf-8" ?>
<svg baseProfile="full" height="140.40612189897888" version="1.1" width="165.13269657187953" xmlns="http://www.w3.org/2000/svg" xmlns:ev="http://www.w3.org/2001/xml-events" xmlns:xlink="http://www.w3.org/1999/xlink"><defs /><rect fill="white" height="140.40612189897888" width="165.13269657187953" x="0" y="0" /><path d="M46.10283359586056,26.923654982635753 m0.0,0.0 m-20.085812502868453,-1.627341591726097 l-1.017021092992103,0.18897839063397814 6.718743494382524,5.931756112623468 l-1.7622890573661347,-2.1748287645661035 4.94396476149158,1.225436468801047 l-0.0028726629378988955,-2.2521039982849755 7.357647966171067,-2.098238872416831 l12.95604505558907,-1.1173127277002382 1.3216178786264299,7.009253247033326 l3.8610705534255105,11.469081189733558 13.051645116593965,-7.10709897492892 l0.7141099775116302,16.02083575361851 -9.650744652018334,-1.9573543704298757 l-2.2958243435024497,22.825449820080006 6.2825866595867135,5.168617351705946 l15.653457534661303,8.141957768470919 -0.6871868666765047,3.154625908405589 l-5.395503792709243,2.285022211386253 1.376989282225521,7.108917437010029 l8.210586433868512,4.977027348114141 4.91177318909648,-1.145673976827844 l1.8596256096194554,-7.011172362554109 -6.8350944500911,-6.734061387072305 m-3.761384691452761,-9.19691613880655 l7.8824150690347965,-6.413417760847986 7.28969128647762,13.647203480858812 l3.6679540469479677,6.912826967350274 0.02612423424557404,4.875059531976655 l3.2788952408452507,4.879809588459869 0.955743612996158,5.65316377876338 l5.499321845980963,3.4647178994098153 13.586205006462777,2.3782475880693688 l-0.9918874326826207,-3.8072230655422166 m13.408893062167433,-24.363680076859165 l1.7003776033082956,2.777859593384736 " fill="none" stroke="black" stroke-width="1" /></svg>