<?xml version="1.0" encoding="utf-8" ?>
<svg baseProfile="full" height="147.29075072411246" version="1.1" width="98.65853232575128" xmlns="http://www.w3.org/2000/svg" xmlns:ev="http://www.w3.org/2001/xml-events" xmlns:xlink="http://www.w3.org/1999/xlink"><defs /><rect fill="white" height="147.29075072411246" width="98.65853232575128" x="0" y="0" /><path d="M65.59555307279379,87.25566983856008 m0.0,0.0 m8.062979252957495,-48.221119055910044 m-23.837221053365116,-6.872023054210704 l-4.635607353350298,-5.105549002390173 0.3309498878698308,-2.056978726049153 l-0.033519087207533466,10.13320908217776 -4.404943728546176,7.401677212250358 l-2.6186165743249337,1.2718808504847117 -7.909568380968356,-0.5375058142670411 l-5.550006035858701,2.313952876969354 0.4061017724471972,2.7542889442622607 l15.378484213682894,6.001192991483212 4.7609221569258215,-4.385709878733934 l-8.276363356879433,-11.19326247524251 m-9.380976708879437,34.066717326429035 l0.7655471966035262,-2.451914023351031 10.89387575893114,-4.995784586384972 l6.16306163187174,3.028266008678513 0.10781869839537318,4.1007367656632665 l1.6216439547166255,5.267578446860954 -0.8127059647810908,6.357647623743571 l1.6109990295785175,2.369761392862756 10.732525883701616,-0.4056209758602766 l5.393217155054295,-5.380504342326883 -8.519312122406214,-9.71566877397117 m-4.108402545505847,2.8615833131016477 l0.7832591170317118,5.144110053466513 -4.045067424865267,11.586626655989546 l-0.39984665640432016,9.487912954201988 -1.8772116047098797,9.08643349985032 l10.607710909580113,3.052950366366188 5.091759929343041,-5.873601421703099 l-3.3161849094453926,-5.923806483662524 m6.914838916006634,19.328332413643494 l-0.1396867380689215,2.539270721130459 2.2264137993098387,-0.8142659304493222 " fill="none" stroke="black" stroke-width="1" /></svg>