<?xml version="1.0" encoding="utf-8" ?>
<svg baseProfile="full" height="191.0226435970178" version="1.1" width="225.2700821928104" xmlns="http://www.w3.org/2000/svg" xmlns:ev="http://www.w3.org/2001/xml-events" xmlns:xlink="http://www.w3.org/1999/xlink"><defs /><rect fill="white" height="191.0226435970178" width="225.2700821928104" x="0" y="0" /><path d="M166.5216245668116,149.5925678848288 m0.0,0.0 m-4.085068689416906,-7.4175606567813785 l1.0309014175919713,23.847636368970388 10.29996957993154,-12.98276141122295 l5.457957013842357,-51.056934967009205 13.129919377752765,-4.6479107172998635 l-5.108501670215718,-9.348686033640186 5.326959731082433,-3.7371128914528096 l-0.02161200097664684,-9.7400234041203 4.288470722044121,-20.115573991397632 l3.4294621443628808,1.3094304460077144 -6.865222718201891,-6.520484082826019 l-16.45629057860602,-14.247101405640281 -2.3035540574536295,-4.700355821611831 l-0.42222853658995196,-4.145078308133769 -11.387066428550456,-1.0900510086706596 l-19.353957358812472,3.4927576216592193 -4.235560507246339,7.0002472831818725 l1.4674419586548684,6.435653104962149 -3.0938285895286293,4.386622436786502 l-10.48462545744516,7.992672278667761 -13.666229231163237,16.918218417382715 l-8.171257698567498,16.15663763646798 -8.998351384941296,16.402362358212688 l5.513737010087581,21.03978147910534 3.837739912129723,-0.11129242997153899 l18.8892153320188,-18.983928662192078 -11.975843826844462,-9.842353855566218 l-11.594004047270086,-0.18312243849361032 -17.345018887062633,-0.4186870318138497 l-11.037860209666702,-5.016797677004286 -14.190697602651927,-2.0406231994046875 l-7.150692234772153,-11.549284707758266 -19.445510320725095,-37.8341469806869 l-6.800416729601708,24.70730111656805 4.405349324403051,37.395707880506336 " fill="none" stroke="black" stroke-width="1" /></svg>