<?xml version="1.0" encoding="utf-8" ?>
<svg baseProfile="full" height="100.39680249255952" version="1.1" width="101.76464798715013" xmlns="http://www.w3.org/2000/svg" xmlns:ev="http://www.w3.org/2001/xml-events" xmlns:xlink="http://www.w3.org/1999/xlink"><defs /><rect fill="white" height="100.39680249255952" width="101.76464798715013" x="0" y="0" /><path d="M42.035638583363706,53.0517414423872 m0.0,0.0 m8.761295495487255,13.98708482260067 l-3.182612443071079,2.0434776839884785 -3.449446929020453,0.5719795623093862 l-12.248429212279811,-1.796066519941704 1.335321060146295,2.01473037154641 l-0.3944507745166088,-6.723192270060654 -3.240011510959343,-0.5442933353215584 l8.882566214780649,-7.231493703518016 -0.13569947079514533,-30.373968053990215 l1.7449494004984738,1.8148885000820236 0.9662363953490916,-0.28169145757075936 l-7.44247997965606,0.8309350311350427 -8.632876829326968,4.226488449254112 l0.4081489416892939,5.902960840225749 7.687997462773974,8.747217023878383 l9.528978312339126,4.5445827584719956 10.414309962218375,0.8795156258304626 l10.560901245357757,3.5381643312787725 7.952157474804504,7.8444815913580666 l2.331903888190519,6.230790127413983 -3.542396302617537,4.098707885874213 l-12.320545689882447,2.0197617853274754 -8.383449779009835,-3.483654758686311 l-5.481248875685846,-3.3310942403455206 -3.041545658664293,-3.6224426934589364 l-1.5729594867952412,-1.361223286880054 0.07850351870357251,-1.3483687294571394 l5.533056792266878,-3.717119493907626 16.620621675908065,-4.8106153268944025 l10.538230928160708,-1.6229683292583663 4.35733065544335,-1.6858178707223404 l0.0946529219492047,-4.463620775278527 -6.743165010679652,-6.418034058681022 l-8.278385963645858,-4.013994377038357 -16.394388847329168,-3.326116657435262 " fill="none" stroke="black" stroke-width="1" /></svg>