<?xml version="1.0" encoding="utf-8" ?>
<svg baseProfile="full" height="152.52130742856596" version="1.1" width="90.19312088436348" xmlns="http://www.w3.org/2000/svg" xmlns:ev="http://www.w3.org/2001/xml-events" xmlns:xlink="http://www.w3.org/1999/xlink"><defs /><rect fill="white" height="152.52130742856596" width="90.19312088436348" x="0" y="0" /><path d="M32.913374473569334,29.96418794290437 m0.0,0.0 m-7.234600246941456,-1.987028373199724 l0.7413394203008783,-2.977159569704647 9.061835534273843,0.3738703118373096 l-1.0774353935872876,6.340881540518308 3.280723927846041,16.35951814497986 l0.8070844451529837,3.9765676313479412 4.015144395724229,0.8435371333751835 l1.7061323917381106,1.4891930670740299 11.110961793358705,0.6683966012582673 l-0.5225245652179251,-5.0419634606835695 m-15.598295240766486,5.342032293737706 l-4.713934021863791,19.15097781242363 -2.9459664307718327,11.249354303748401 l-0.773178371575971,8.473937695627962 7.425635085949961,8.190999071883232 l-3.3811506356701106,4.660080330958958 -6.286224990767001,0.8255089984871822 l-3.5289215707522246,11.380257632404236 22.442255490674995,8.238158319587296 l4.587031115719552,-0.8297893456504681 -4.26015647697132,-4.770961016102246 l-8.401520627814142,-3.6423031317909835 m-10.85497851082831,-13.59649430408765 l-0.8325671990306704,-5.228638439986753 4.991668436464268,-3.6413006435496422 l0.21923088962273463,9.644563534300854 5.699477002713838,5.889193193274052 l6.213580351880325,9.003705565712364 2.7151706944844154,1.5257385020909047 l-3.2064516840792137,-4.262891128589084 -1.2510548810534607,-2.0672292103881214 m-2.475877006196061,-4.635885504972352 l24.607313288776535,-12.613792631869986 -6.065439687392251,17.159427866554005 l-8.702271430200728,-0.9089459863326882 -9.850201153254657,-16.03237147424485 m8.819945087991059,-35.314761582359445 l0.6787795969902413,-5.792193379008566 2.95719671841594,-2.250907585145209 l-2.0603275143360515,6.128580948278866 2.121753906064936,5.940939622487556 l1.6408200725477964,7.2030849711823075 " fill="none" stroke="black" stroke-width="1" /></svg>