<?xml version="1.0" encoding="utf-8" ?>
<svg baseProfile="full" height="120.54944947496726" version="1.1" width="108.29684095562324" xmlns="http://www.w3.org/2000/svg" xmlns:ev="http://www.w3.org/2001/xml-events" xmlns:xlink="http://www.w3.org/1999/xlink"><defs /><rect fill="white" height="120.54944947496726" width="108.29684095562324" x="0" y="0" /><path d="M29.41081482586533,95.54944947496726 m0.0,0.0 m-0.3077962236664078,-15.271389861737914 l-2.4318257324904304,-5.3653065988154856 5.058527721015323,-5.512867608942509 l0.18555058957616893,-23.30016931380805 -6.915271180299984,-16.97102013652268 l4.0959914742785175,-4.128695955140627 0.2809430528319598,4.701832710429872 l-2.37128341650217,5.430499645041779 10.029614833768528,2.3917047551121287 l1.3257529863725999,-0.5834830208400756 -4.391758849027738,7.121704984536648 l1.2227369267259154,7.7664682074762155 12.47429862979706,5.766655641078333 l11.568074457511651,-0.7078086670575736 7.712579792877961,0.37728016143098675 l4.073279417846876,-2.0562571387670547 -15.755676399632339,-10.013140433038878 l-6.264721256687221,2.616213957399096 3.521398554092923,9.956847449274697 l14.06491230447581,1.6576606030035357 -0.03996291464895255,1.9815531705533973 l-2.6817370084246885,5.756795035001298 -6.150128326194213,5.875675998873607 l6.272856648444625,3.2406421263718133 19.30967004771614,3.599359600606992 l-2.9447196794153334,-0.546614538724533 m-31.099112019761588,6.124051614830988 l-7.459202676988009,-6.627374296965529 5.388307195175712,-4.075200874607909 l0.8248828282959897,-12.138012290645785 0.1959234392270072,-5.947430378250236 l5.523887639636482,-5.745793031188367 -4.934881253456458,1.8417357806669825 l-2.582198012557767,-1.4746168293075685 3.0759056391018045,2.808580469232526 " fill="none" stroke="black" stroke-width="1" /></svg>