<?xml version="1.0" encoding="utf-8"?>
<!-- Generator: Adobe Illustrator 24.0.0, SVG Export Plug-In . SVG Version: 6.00 Build 0)  -->
<svg version="1.1" id="Layer_1" xmlns:ev="http://www.w3.org/2001/xml-events"
	 xmlns="http://www.w3.org/2000/svg" xmlns:xlink="http://www.w3.org/1999/xlink" x="0px" y="0px" viewBox="0 0 40.1 58.3"
	 style="enable-background:new 0 0 40.1 58.3;" xml:space="preserve">
<style type="text/css">
	.st0{fill:none;stroke:#000000;stroke-width:1.0682;}
</style>
<path class="st0" d="M7.2,21.6c0,0,3.5-7.8,2.6-12C9.5,8.1,9.4,3.9,6.4,3.9c-2.1,0-1.4,5.7-1.1,7.5c0.2,1.4,1.4,5.6,1.4,5.6l2.9,5
	l2,2.2c0,0,2.3,2.7,2.7,3.9c0.3,1,0.3,4.3,0.3,4.3l-0.3,7.8c0,0-0.4,7.7,0.8,9.6c1.8,2.9,11.3,5.9,11.3,5.9l1.8-2.4l-3.4-6.3
	 M4.3,38l3.1-8.9l3.1-8.2l3.6-3.6L13.2,18l1.6,6.3c0,0,2.4,3.9,2.6,5.4c0.1,1.3-1.7,4-1.2,5.1c1.7,3.8,10.2,6,14.1,6.3
	c3.6,0.3,6.8-0.6,6.8-0.6l0.3-6"/>
</svg>
