<?xml version="1.0" encoding="utf-8" ?>
<svg baseProfile="full" height="183.87103399186478" version="1.1" width="88.71111401846244" xmlns="http://www.w3.org/2000/svg" xmlns:ev="http://www.w3.org/2001/xml-events" xmlns:xlink="http://www.w3.org/1999/xlink"><defs /><rect fill="white" height="183.87103399186478" width="88.71111401846244" x="0" y="0" /><path d="M53.688031729350286,158.87103399186478 m0.0,0.0 m-28.688031729350286,-70.0127674010623 l7.713420280648727,3.0948232199503956 9.221043507284561,-6.370776628389776 l-6.708772907095913,-7.312057553672663 m-8.810799362210359,3.390285943825746 l6.9760899719174985,-1.7896297418051688 1.850153056719133,4.040609755553433 l3.370432785338766,4.847815994914882 -0.83476739315364,-1.2560616489916427 m1.2418194775112879,-27.50474611246384 l4.862385459906841,1.9425821576777162 7.04727419815955,1.2729792097596762 l2.354600426432949,9.339743415837987 -0.8433619480260984,8.245507804919164 l-3.414449665511327,-1.147189345755067 5.767541883877111,-2.8534438538282214 l5.812165628392234,-11.221123743234918 -2.699521350165026,-5.861131591319407 l-5.329391128707635,1.6787993157341685 -0.09984501541165924,-6.078205385476889 l2.317218700008705,-1.4673116254226404 8.917877412546739,13.624113506383852 l-3.349177641734439,4.634752873966907 m-5.639278762646578,-15.784302286616635 l4.441393433188647,-8.184415743106019 3.007188206217597,-12.655517335838717 l-11.749330321376856,-3.867305835245523 -4.881360228176736,2.27909802603393 l-2.514713106740459,0.12852879506629278 -6.56786965230995,2.5942519777132453 l9.10491388989823,-4.969417704553081 3.1944434071728383,-6.649522452419673 l-11.557338706343778,6.647559173721824 4.8843466811763125,4.7690986150266035 l-1.7758671975036457,14.45109195576736 " fill="none" stroke="black" stroke-width="1" /></svg>