<?xml version="1.0" encoding="utf-8" ?>
<svg baseProfile="full" height="342.2275034359792" version="1.1" width="111.60620943248922" xmlns="http://www.w3.org/2000/svg" xmlns:ev="http://www.w3.org/2001/xml-events" xmlns:xlink="http://www.w3.org/1999/xlink"><defs /><rect fill="white" height="342.2275034359792" width="111.60620943248922" x="0" y="0" /><path d="M38.72582819322556,317.2275034359792 m0.0,0.0 m-13.725828193225562,-116.63464940647084 l27.47536653905787,-52.11720286927919 1.9756985500824558,-3.902651246293459 l10.581407264515278,5.3972295326566195 -1.756986585917554,1.0962589130037095 l-2.554059070242014,1.6913323195396786 6.348037022394388,8.96395954190447 l9.119242216150345,3.211645862154231 5.751173151449726,7.603528428959434 l4.66633034499872,6.004003871482048 -2.7215950220848963,7.854147391737626 m-23.895734358197775,-71.51145166593835 l0.9957931106238812,-14.729064377106953 -4.893741150748608,-14.500636103902695 l-5.560809800149402,-4.135803435216694 0.8269183243918687,-10.509088209878609 l3.5524218984837423,-3.5579938249732965 -1.687771851438389,1.0219419861199674 l5.39552118621504,-1.2912862100682798 -1.8185645148894192,-4.51357252417856 l3.7853527502273763,-3.861818589530462 4.826249223193686,-0.8432564617421578 l-1.7352893222886117,-3.0430717543968475 3.617589565715994,4.826998768639872 l-4.701552824969736,8.971936906506265 -0.40379144985369514,0.6889893325041174 l1.0335659879040229,2.2140417794706497 -6.151697586149054,2.0942439946474734 l-7.587238846283878,8.767849229618534 0.20442922403834912,7.597016831859614 l-2.2500688487076252,4.895283299881351 -1.7808851408397852,2.058155855834144 l-3.0761535852679445,-0.8593235059375215 -1.3921937891685354,-1.0547149672926113 l-4.260903467592826,1.5326108827847156 3.191676694086232,-14.957306074614882 m20.037694829797772,-21.313012428019558 l6.40229272281103,-35.382774510442715 " fill="none" stroke="black" stroke-width="1" /></svg>