<?xml version="1.0" encoding="utf-8" ?>
<svg baseProfile="full" height="176.54704587823448" version="1.1" width="123.93823455667949" xmlns="http://www.w3.org/2000/svg" xmlns:ev="http://www.w3.org/2001/xml-events" xmlns:xlink="http://www.w3.org/1999/xlink"><defs /><rect fill="white" height="176.54704587823448" width="123.93823455667949" x="0" y="0" /><path d="M25,25 m0.0,0.0 m10.270820542602891,34.64123970914942 l18.721410582304035,5.359206564836061 -2.2572310628856327,2.3072695466720403 l-5.661879087212222,7.968247310892813 -10.76627177204918,18.77304124538161 l-1.0463736941592334,-2.5906526803946277 m-2.3402844717973372,-17.047582767188832 l4.985763753520536,-12.403893270115477 12.797465500839623,-3.8136120697085327 l5.15022708688283,-1.9753879773248633 4.788311891991211,1.8038878781329815 l1.9685336521931718,22.00373580917953 3.983877259898641,14.615651277433619 l12.224658359461701,18.12924677761435 8.69657948650865,8.388029478233094 l10.514395329218896,5.882337144362857 1.9082311993608985,13.591803999505974 l-8.7019456277704,4.90704026697383 5.408472013057626,6.00743763459863 l-9.833460336584784,-5.962627264997451 m-35.43722213234459,-46.095476620802685 l-8.063673499092268,3.1317722162311057 -2.697553599994563,10.340718321746964 l0.13415937595949334,3.4159157825937574 2.4214968716749685,-6.289651669730654 l-3.1518529031540985,-5.930315616926271 2.1518734329386286,-2.3535321351531526 l6.587282554364462,-2.3791641024287804 10.862580531260939,-2.4617306762601454 l4.452851081694336,-3.1537877394426537 -3.3502964140069467,-1.4419115694501075 l-5.580307050834099,0.04157238372301784 -7.8399067990218345,1.4492383104306128 l-4.130265029917334,2.8630821177722936 -1.5384309346154212,6.281618483125997 " fill="none" stroke="black" stroke-width="1" /></svg>