<?xml version="1.0" encoding="utf-8" ?>
<svg baseProfile="full" height="142.17048856558011" version="1.1" width="109.31130150291744" xmlns="http://www.w3.org/2000/svg" xmlns:ev="http://www.w3.org/2001/xml-events" xmlns:xlink="http://www.w3.org/1999/xlink"><defs /><rect fill="white" height="142.17048856558011" width="109.31130150291744" x="0" y="0" /><path d="M49.454588726706426,104.29824835415972 m0.0,0.0 m13.340158837788655,-6.847468390469339 l-3.14361788880304,19.71970860188973 m-0.7610345742553055,-35.724514556900274 l5.999816328762997,-8.323202535848804 7.358621956577798,1.5575124595168182 l-1.9981584056833257,4.808057002089594 -2.437635819345472,9.644794024794265 m-12.72332864592253,7.111879828759819 l-2.7980845453464442,-1.9733909858597487 -0.13230299813300983,-13.25172456564292 l2.464178890669578,-16.216378610789043 -5.631579013013743,-30.381803852735317 l6.867939074253685,-9.421716772964507 4.106578433960788,2.8583144346821996 l8.6054617379894,2.646604429247581 2.826002835576955,2.0022946954233665 l-6.646252110301789,1.335373532599501 -10.111481683354707,4.97937347661521 l0.8266868303497152,2.712726250494991 3.2909822260167174,2.8686469644406625 l9.792008597997752,2.379610051640063 11.260004893234749,6.76087041646972 l4.50174781719161,0.9656971595787589 -0.13276201273714872,0.09281054949290796 l-3.944793654076136,-3.0286177227809605 -8.667745639695646,1.6215392447761368 l-7.978732815732821,6.144757224360336 -3.5998239056869394,-0.21171479671683202 l5.441946666697364,-0.07787897036172303 11.97120662082932,-10.968065299100484 l1.1998147768591971,-10.621968491651597 -7.174758591638821,0.324324096601728 l-11.305324793396982,-3.6868026250802104 -17.897091703730446,7.108915949266043 l-11.86778606209975,8.590654386363164 -5.355450388508643,9.085206288640485 l2.8108191987734767,7.107809257567001 -1.580046220989686,8.914149304069555 " fill="none" stroke="black" stroke-width="1" /></svg>