<?xml version="1.0" encoding="utf-8" ?>
<svg baseProfile="full" height="421.0866352410087" version="1.1" width="111.68861810409976" xmlns="http://www.w3.org/2000/svg" xmlns:ev="http://www.w3.org/2001/xml-events" xmlns:xlink="http://www.w3.org/1999/xlink"><defs /><rect fill="white" height="421.0866352410087" width="111.68861810409976" x="0" y="0" /><path d="M58.69919101965473,396.0866352410087 m0.0,0.0 m9.30724704209052,-8.174879972451619 l-9.745087571257857,-18.101376404302147 -0.22530107579324055,-36.830976067522975 m-8.535380392332094,8.691854231750042 l-24.500669022362054,-88.38004290784174 33.031529951905284,-46.79492415619589 l-3.9906867956556007,-52.054428932590696 14.118726295021855,-25.578651450763616 l0.39968525950059175,-14.625814180850515 -2.124275977027372,-8.636768500931028 l-5.164512807110174,-4.167191495126765 9.288441303397699,-4.55934469867053 l4.868087598214375,1.4801824678297753 0.3292870213792834,6.788706719390025 m-13.478608882115756,-33.975141577456625 l-4.210209080207393,12.202824107218605 -0.36264043328445683,5.966649568464981 l-0.008887717633779026,4.82443964461604 0.6751701372215213,3.588740996697264 l3.767416929684574,2.240766534805905 4.941759294129014,7.458245090743756 l7.728191646649448,1.1590796007474924 0.9014688561321541,-0.9108395623472239 l2.1172291376629713,-4.759801157558988 -0.8701122836185516,-7.160955465736034 l5.800193835435074,9.136938955415008 m-7.045560069062454,5.72083357831689 l3.4631532068067674,6.604144168873634 4.116612850354023,2.412309038587899 l3.3971588263206587,1.898233742642871 m-19.942571369950386,-96.54944715676241 l7.9945813505692085,4.189232234618505 3.4497993836575844,5.770968662018543 l3.238882082347886,4.543313420990357 4.7033195048195795,2.916310378111303 " fill="none" stroke="black" stroke-width="1" /></svg>