<?xml version="1.0" encoding="utf-8" ?>
<svg baseProfile="full" height="161.78873762084788" version="1.1" width="124.53193336370796" xmlns="http://www.w3.org/2000/svg" xmlns:ev="http://www.w3.org/2001/xml-events" xmlns:xlink="http://www.w3.org/1999/xlink"><defs /><rect fill="white" height="161.78873762084788" width="124.53193336370796" x="0" y="0" /><path d="M80.96393930198846,25 m0.0,0.0 m-42.41576089100965,25.461743561942473 l-1.017663392117862,0.9777191847800232 3.580882069708432,0.484654960087976 l4.385570285215774,7.436074606449877 2.8373907147772437,5.408391155123165 l-2.202731680669557,2.163835079858172 -4.549515178092796,3.478505702510989 l9.73394871899293,5.2531318247683565 -1.397830300499552,-2.0786138810764285 m-24.918229648293412,44.35022269199172 l8.904832688044065,2.543705659139095 8.880134277957545,-3.5939558918582875 l4.401006908332796,-3.4536746312805398 1.5225106739995398,-5.910004561741005 l-0.378494080818996,3.6385147449247106 2.7441885952164977,7.042494498075495 l0.07563580710360104,5.469284214183245 -1.040933316283507,6.998285060527376 l5.511271978674981,4.642835354620525 10.716266122397036,1.4755882878209543 l0.6249967957888505,-4.7484305107600635 m-3.749524309385801,-33.18693325113543 l-3.6730414045372806,-2.7017261102277583 6.5783441943061245,-3.2245167525351106 l11.219545054177482,2.2590618319668754 0.5269093178804923,2.5368778846277618 l1.5649434931304131,5.935719316494727 -0.5492736629850586,4.279401449534785 l3.110335541405618,2.3744006273856346 11.083162965975683,0.1058881621079387 l6.459115723327884,-5.2244951988999615 -9.731860675208688,-7.051852925298124 m-17.59899410361638,-13.641552564491743 l-3.2503317324711425,-5.444302495904594 6.43762770161446,-2.5961578233944373 l-5.5949001043016695,-1.3107046048567874 8.252432027063396,-1.3516171365445333 l0.20008554491577846,0.7878020905244467 -14.229576726400241,5.63336867075651 l1.339787108240808,2.7273073540578845 0.1652268768613549,-9.071575088048283 l-7.9903619139432,1.40630190984598 " fill="none" stroke="black" stroke-width="1" /></svg>