<?xml version="1.0" encoding="utf-8" ?>
<svg baseProfile="full" height="131.4983224094242" version="1.1" width="140.5590154336376" xmlns="http://www.w3.org/2000/svg" xmlns:ev="http://www.w3.org/2001/xml-events" xmlns:xlink="http://www.w3.org/1999/xlink"><defs /><rect fill="white" height="131.4983224094242" width="140.5590154336376" x="0" y="0" /><path d="M113.31526414184108,25 m0.0,0.0 m-22.970280993128124,13.783991627431238 l-9.334264066717257,-2.2640244084308523 2.347123251283728,-2.768811677588745 l9.23328520238791,-3.001327427858185 8.40890980987373,7.6331054503801825 l-1.4812847994019198,6.51788727581121 3.6002598281789493,8.809399385279738 l-3.178924461474276,7.694760278905354 2.651058388250105,6.451909729507099 l12.012256059310515,1.641722011126167 0.955613073233153,-10.407427816491438 m-29.580472424586002,-6.585605667384389 l-7.108145038669778,-2.316645955053231 -24.08264753184854,8.455340767945042 l-3.058257411894059,-4.254546437202533 8.122861743724247,-4.7369916527228995 l1.0904892337167318,-1.2021649363399978 -6.537992996203042,-0.10640929385314674 l-4.804218595793693,2.678921361405374 4.455206164546607,-0.5644827808309829 l3.725298640523209,-3.7156353702087777 3.0849816699116093,3.8251859414224856 l-1.4418556416050745,9.858156313143024 -9.701604327244608,16.493631110392254 l-2.1085684372970976,9.607785489451903 -10.553146138606637,-3.23625237196133 l-5.639931159725717,-6.312916514031206 -5.947252888903305,0.4498262369386599 l1.398566323849289,5.59489726383419 -1.8723266175317261,8.566266628733738 l2.3967762319401165,8.633063384345029 6.569285444021067,6.275714463329238 l3.8919342452603067,-9.175486420260206 3.262948855801653,-4.419569998340602 l-1.128901181089629,-16.04486714363544 -0.01356265031692296,-9.684576797132816 l-2.306559612898414,-0.7074353366337943 -9.311574045596673,8.550363987705635 " fill="none" stroke="black" stroke-width="1" /></svg>