<?xml version="1.0" encoding="utf-8" ?>
<svg baseProfile="full" height="171.02545010497582" version="1.1" width="95.58461265894286" xmlns="http://www.w3.org/2000/svg" xmlns:ev="http://www.w3.org/2001/xml-events" xmlns:xlink="http://www.w3.org/1999/xlink"><defs /><rect fill="white" height="171.02545010497582" width="95.58461265894286" x="0" y="0" /><path d="M49.12087763495583,64.98509159777464 m0.0,0.0 m-20.797924760686772,-25.412478859913172 l1.651603578410668,-3.2415563604933864 -4.974556452679731,-5.712455814870518 l0.053954294013375814,-4.104222976881329 5.6847052350409495,-1.5143775856162396 l17.848895328697054,17.71960548235766 0.12926419263509378,4.239648228083479 l-3.1730650339520015,6.487147617128495 2.445387447669845,7.528474568873552 l-2.612128542648207,5.434570185526907 -2.5972918224881956,13.023738568082798 l8.405601568226468,9.516616164286726 7.627777746038067,0.7395301006460345 l-0.9102672150555727,1.1987714134621539 m-3.441179434311011,9.958876207401467 l0.41559455838265313,3.0386255527130435 3.6150171011571497,-9.235175771773529 l3.3202787052722287,-8.15905369493394 -7.608472919140669,-6.641848927005458 l3.98807628745651,12.64947875765802 12.392465161949124,-4.096305815686909 l-8.643195170793591,13.585610457775383 -9.543625924125708,2.2862533325718917 l-9.951933628629048,-2.683956982221304 -3.2858955771934877,-0.09155174707255839 l-0.20357273868181258,3.0121927292737114 -12.447381561710182,36.768231863221615 l7.847974267433175,4.745971814606558 9.187193169784019,-1.2428230205094437 l2.42785867432538,0.19913058461573263 1.2470726504665037,-3.8949586314364213 l-4.0065681705086424,-3.917635763954135 2.9475864348474277,-6.297236363415155 l-7.445173734948303,-6.877707932201941 7.574951915702671,-2.6273701238339586 " fill="none" stroke="black" stroke-width="1" /></svg>