<?xml version="1.0" encoding="utf-8" ?>
<svg baseProfile="full" height="180.2646153510571" version="1.1" width="199.78071620748662" xmlns="http://www.w3.org/2000/svg" xmlns:ev="http://www.w3.org/2001/xml-events" xmlns:xlink="http://www.w3.org/1999/xlink"><defs /><rect fill="white" height="180.2646153510571" width="199.78071620748662" x="0" y="0" /><path d="M132.04471123921132,90.23523619305043 m0.0,0.0 m17.50110073760366,-5.627678040664794 l10.123836438216777,5.883669770683806 m2.7000627577703256,19.189647882657557 l-4.054007004722597,7.438643294476111 m-14.010972267376056,-92.1195191002031 l9.647839685320475,1.96891866302402 4.065878515765291,10.773442356698894 l4.992354365066309,10.561522945851793 -3.3749862866490785,8.617088736024915 l5.1690299935977775,10.3399424558864 m9.724550594304247,-24.876232789261064 l0.25131743937816503,-1.8167297595836063 -5.132956449573475,3.4499902887958998 l-3.18228738060137,9.613802687189121 -5.256822959346674,8.575452355024412 l-9.335061498333575,7.33472372022401 -18.47491161248577,4.972634650392692 l-23.15448663566061,9.138381668380312 -7.552725851475939,-6.914993583165412 l-5.922307407668873,-6.690191961315463 -5.273498151976283,-10.678638582443718 l-10.09546670360713,0.9455872108305063 -1.7444409064714639,3.6691633131996304 l0.9073723099525183,6.966792528402745 -16.73614817046562,8.730129985990922 l4.137317082616745,9.366330233860817 -10.680872868480945,-11.84034416594326 l-11.54584981631451,3.861303995712407 -1.623612457656531,6.136411840362534 l3.683571047428985,10.309776397202565 7.53288490302735,19.131783946772256 l-1.2141337958130112,12.814588821322577 -9.152639738170254,16.285326436760815 l-19.96363914641018,9.518650954859394 8.956036454488576,-55.09707713889129 l41.53788262226288,-16.906803976222076 2.7723301794247943,36.82880532437617 l10.880246818884775,-20.841302138233946 " fill="none" stroke="black" stroke-width="1" /></svg>