<?xml version="1.0" encoding="utf-8" ?>
<svg baseProfile="full" height="159.7114301749122" version="1.1" width="128.7810872401334" xmlns="http://www.w3.org/2000/svg" xmlns:ev="http://www.w3.org/2001/xml-events" xmlns:xlink="http://www.w3.org/1999/xlink"><defs /><rect fill="white" height="159.7114301749122" width="128.7810872401334" x="0" y="0" /><path d="M103.7810872401334,117.27084372448842 m0.0,0.0 m-48.83609060641487,-71.10878895964123 m-10.191465830177359,-0.37204756950237616 l3.281774176769575,-4.65339467308262 -8.937776071237826,3.4473698755130764 m-11.171348797743043,-2.4005722453633505 l-2.9261801113298844,-6.6348410312809065 1.474523341199765,-5.085173401642711 l1.8917239712609295,-5.46339571948832 4.150764804965805,13.670574762041865 l4.666676743439582,13.81818432112337 19.328604889004,2.6376191118525263 l0.35566050231070123,0.589461201992352 -3.5047333251610233,-7.122979968512057 l2.5941047896831257,-5.214109482796873 -7.580698384343241,-7.829123856649326 l-3.2250768472150435,0.6199205154494059 0.2571638077622827,3.9679198819679873 l5.893850424540655,3.483855953987919 6.4365851529295455,-0.451379081321959 l-6.461089496695972,-3.389330754932487 15.268994521323544,3.6893318185316004 l1.2509559779056612,6.952846815896307 3.3511371383358783,7.592023739968045 l5.595658669645338,2.4876810419207076 0.8165202033919075,-0.02124685697892703 m-20.5302165266347,41.27955108491026 l5.352104362009374,3.6996990763413753 13.312342885604863,-3.3261124982902315 l0.5017418961203507,2.349485234031696 1.5780176183215047,7.149521875816198 l4.013810492191554,2.2837513724481973 -3.9240384547310323,1.8636082810146866 l-5.63767225671763,9.707921083178054 -8.592508822012558,9.222755501921522 l-1.647235371794466,-0.48366435070320124 " fill="none" stroke="black" stroke-width="1" /></svg>