<?xml version="1.0" encoding="utf-8" ?>
<svg baseProfile="full" height="163.08047068575024" version="1.1" width="145.85350557154356" xmlns="http://www.w3.org/2000/svg" xmlns:ev="http://www.w3.org/2001/xml-events" xmlns:xlink="http://www.w3.org/1999/xlink"><defs /><rect fill="white" height="163.08047068575024" width="145.85350557154356" x="0" y="0" /><path d="M25,111.67448654173684 m0.0,0.0 m30.804048063301085,26.405984144013416 l15.625587921792293,-41.01723045179934 6.555640065836173,2.100378445123568 l2.311887729407672,8.65374019644816 -3.804069875861645,8.371771511112383 l15.607829812572964,1.3071516493982616 m5.3566694381389635,-13.268490703326318 l5.105728659867259,-7.300489148051956 6.635912629234221,-7.7006131071690715 l-0.1653194610874538,-3.7074136414343166 4.008925188473239,-8.355911421992934 l-3.0514357001695678,-5.247617446180686 -8.484971904157318,-0.6704118678233312 l-8.5347676874297,-0.24583905395117264 -9.392768129535876,-1.289441650556663 l-5.940885691652,-1.8057073673371906 -3.6212420894011568,-2.7584078802074243 l-6.402231278261269,-7.077662711995864 -10.469583848023644,-3.7329541034006883 l1.9434982262419738,-5.6574581566626865 6.13730736052236,-10.180948594218394 l4.65685569806254,-8.92818917687644 9.684444699931744,-4.56872600484814 l8.559928646485504,4.600155998655415 2.6659674056050453,8.923324123762084 l2.647796873067965,6.609477457153252 11.878235870497397,0.41128285209776627 l5.281335105047329,-0.27259167761030173 2.256318005569139,4.328419825478895 l1.72669419645334,5.219523766134136 6.2701696410149985,6.17939107741723 l-0.6945330425374531,7.280218505653278 -33.360549367646875,12.661900837237074 l-14.591677068588925,34.00213856776522 m18.510070309725123,-49.48131536429945 " fill="none" stroke="black" stroke-width="1" /></svg>