<?xml version="1.0" encoding="utf-8" ?>
<svg baseProfile="full" height="108.86822239133642" version="1.1" width="117.43198159782135" xmlns="http://www.w3.org/2000/svg" xmlns:ev="http://www.w3.org/2001/xml-events" xmlns:xlink="http://www.w3.org/1999/xlink"><defs /><rect fill="white" height="108.86822239133642" width="117.43198159782135" x="0" y="0" /><path d="M36.35001764237957,25 m0.0,0.0 m-11.350017642379568,14.637002616630514 l9.267757625750045,-4.030152714409865 m-6.0145356844106095,-3.002760448070132 l0.22805091372463726,3.3062678702370962 14.767010740672372,8.841960305297855 l28.13921694180371,12.253991944056146 -5.693653695691234,1.6810720593938113 l3.7556698705020994,15.155084262416173 -4.832469434626985,6.607479921342156 l-10.497625233054327,3.41827657444265 -7.281473909644201,-5.099987746663328 l-4.597125880098387,-3.5472213797331476 -0.5230559042349732,-1.8541102675986547 l9.791527860164416,0.2591728798719678 23.022882428263795,-4.705980390345812 l8.279703849169756,-0.11393503905553945 6.378571079913686,1.242634863516448 l3.241530029617563,-0.5071401967184794 -4.498000342143689,-5.302877671257338 l-8.09433524841733,-3.7705236705984633 -16.23173532121334,-1.1526907220030465 l-11.788449290619742,-2.3871898906811593 -8.287289017111734,-0.5121911700012363 l-4.361081373921307,2.5432258116174626 0.1966044678569614,1.1457999037970077 l4.329723907656488,0.17572520023842172 9.455179184631234,-5.7201379684411995 l18.182528074081816,-8.610421591229969 7.785989659598893,-5.500613070246876 l7.631952770795915,2.0104341039972478 1.8989261900295729,3.6793923951003262 l-5.054276163410424,3.3324298038164155 " fill="none" stroke="black" stroke-width="1" /></svg>