<?xml version="1.0" encoding="utf-8" ?>
<svg baseProfile="full" height="145.60859420740232" version="1.1" width="109.30726978035054" xmlns="http://www.w3.org/2000/svg" xmlns:ev="http://www.w3.org/2001/xml-events" xmlns:xlink="http://www.w3.org/1999/xlink"><defs /><rect fill="white" height="145.60859420740232" width="109.30726978035054" x="0" y="0" /><path d="M84.30726978035054,120.60859420740232 m0.0,0.0 m-33.62152736767851,-40.67145761877143 l5.516534311299013,-1.352307059057386 -9.311165566668832,-3.8122505404467044 l2.017353006183373,1.0870516047303227 9.034777951361834,4.735733317378429 l-4.932295617438223,3.893464963685374 -8.16762624941954,9.547603388134872 l1.1388961543468823,-6.753452593444101 -0.6655882560105092,-9.860041156148537 l-8.162450310668708,-14.919302503781541 -0.7559765674469415,-3.078287490999879 l4.4090048804809445,-15.418389002876717 -4.130637933444429,7.142503199626806 l-1.6466390357803935,4.864034189148961 3.295958376109641,4.190647255927795 l-3.8185803021333307,0.5296255728181487 -0.23528114610210316,12.567425189847645 l3.046715648330917,6.542447352617691 -6.63947372596369,3.224500961388792 l4.596253736338188,-4.294709779511823 -0.7132681765028948,-5.413551735434661 l0.7366236891551725,-4.303829627224439 3.3453702996306447,-6.04881429437457 l-5.372676060969837,-19.13983278113218 2.4271105462419182,-16.448173301830053 l7.062137958150242,-2.4192317176731595 -0.6674830520378473,3.7254990428919657 l-8.22453248657518,1.5163703706186595 -0.7583972914149087,3.1416728598262704 l11.694222930811152,-0.5240075522618084 5.512637043277251,3.0392138141712786 l-2.927147818954313,-5.74768967926367 m-19.39565172432877,5.653016855651074 l-2.9944676225287252,3.5209023416372243 7.547254971513548,-2.9473635304232224 l4.396578375472782,2.9989971607591226 0.6302773908245096,9.964014859186348 l0.40192785034155387,3.2441328669269907 -3.553400951008643,5.841725480148219 l4.342693196828266,-5.59656722553199 -7.204100193826726,2.5919721001151075 l-5.354468398540912,-4.486048270629468 " fill="none" stroke="black" stroke-width="1" /></svg>