<?xml version="1.0" encoding="utf-8" ?>
<svg baseProfile="full" height="82.57329668525199" version="1.1" width="104.51656322029046" xmlns="http://www.w3.org/2000/svg" xmlns:ev="http://www.w3.org/2001/xml-events" xmlns:xlink="http://www.w3.org/1999/xlink"><defs /><rect fill="white" height="82.57329668525199" width="104.51656322029046" x="0" y="0" /><path d="M27.958476385086946,47.155066645571075 m0.0,0.0 m-2.9584763850869464,-11.612755547625717 m32.867456613184196,5.268092680637726 m1.4013051687824163,-10.837964223510323 l5.315742141069966,8.252167889543887 -6.0919631512887555,13.120107352403597 l-9.603203838837414,6.228581888231755 -5.491880395244729,-1.1855914428216228 l-1.5243922145423812,-5.567827635851372 -1.9230504931651076,0.6191974334246059 l7.998948575481084,2.848924509201284 19.799252018181072,-3.0601843378561586 l6.377802464695315,-3.596505763406911 5.390546331974809,-0.22847358791834665 l-0.07191614359741044,-1.3462513756933916 -6.925710179049839,-3.767131341093836 l-12.096745932819088,-1.046798768013511 -14.677002911483633,-0.992345965362513 l-8.203398962305783,-0.32157777903496004 -3.9499014909298693,3.2553955042472893 l0.8928267929143796,0.6700480973474157 8.269666781265965,-2.28621703556079 l13.410142508435872,-7.276919126123238 13.256120625519637,-7.166268536955803 l6.293323343154618,-0.4636161194737618 3.5208024120295804,2.6145153933933827 l-1.6971355229917702,5.443853444259134 -10.459942631104987,4.694029080155073 l-13.021991727918136,-0.8569265983087666 -9.319643699339945,-4.1962195621617315 l-6.782848628832735,-1.9678484204289932 -4.3735777832193685,-0.21504823487599906 l0.48717124336044904,-1.0883122442727 10.930705295671059,-2.5103104880886633 l20.666673859744517,-0.08870115926494485 9.71915148133094,-3.490184624712168 " fill="none" stroke="black" stroke-width="1" /></svg>