<?xml version="1.0" encoding="utf-8" ?>
<svg baseProfile="full" height="263.0126596271392" version="1.1" width="133.96467880631516" xmlns="http://www.w3.org/2000/svg" xmlns:ev="http://www.w3.org/2001/xml-events" xmlns:xlink="http://www.w3.org/1999/xlink"><defs /><rect fill="white" height="263.0126596271392" width="133.96467880631516" x="0" y="0" /><path d="M100.67146912385861,238.01265962713921 m0.0,0.0 m-12.272232285072858,-5.597591038944135 l0.9626785081326661,-120.67920767052621 15.348404599949003,-16.02748623443907 l4.254358859447744,-4.427055566057694 m-49.02168299983833,-66.28131911717212 l4.772651744049541,3.8399631980502233 0.47164642861169725,5.446632014120804 l-1.570124665783272,1.0970678156074303 -3.594912741996256,1.9238739486451208 l-5.364978623508209,1.1501671027594378 -4.793695422169207,1.3196539053200451 l1.8134734626822302,5.519192381119861 8.358100961634074,7.650946953276545 l3.5476879155094245,4.07837464890166 -10.352322116088382,-8.088578349934554 l0.6991091617245815,-3.0006680328954336 1.222140383692889,0.44256226879536287 l8.132879422050294,10.157730088392748 -16.679080800221897,33.71173969504917 l-9.743698431627973,23.832872800132073 -1.3290034161285746,18.99593616273008 l12.575763394960443,11.219328692682732 5.8501419392874965,4.687093264579375 l6.44071580307797,0.7887881967564586 -10.424526220003857,-11.0111658394587 l-2.0658389987971817,2.6498980655246474 -10.039854779381562,-0.8875400913931776 l-2.7063354859073567,-4.3108856612475375 -10.162934722143772,0.9916203872913948 l3.1752447131236416,1.4217282918965668 6.800224611393932,2.1617394059463955 l0.5730993088187086,4.914107835458836 11.16638516556826,12.863657334085659 l11.126724088948336,-0.996452885542376 6.650464421797302,5.788204990854642 l-9.601995766499858,7.410497568585843 13.04798026086642,-41.661868985759384 l-8.17405469695701,-70.38885263351419 " fill="none" stroke="black" stroke-width="1" /></svg>