<?xml version="1.0" encoding="utf-8" ?>
<svg baseProfile="full" height="202.54097012567314" version="1.1" width="147.54289686350512" xmlns="http://www.w3.org/2000/svg" xmlns:ev="http://www.w3.org/2001/xml-events" xmlns:xlink="http://www.w3.org/1999/xlink"><defs /><rect fill="white" height="202.54097012567314" width="147.54289686350512" x="0" y="0" /><path d="M75.91853712570031,33.18714380814298 m0.0,0.0 m-18.781822135256068,4.9803842473348485 l-1.2024409309542787,32.442615508799555 -23.907114994152526,15.182749716411696 l-7.027159065337441,-23.419053181804284 4.93422833939102,-27.638455808606597 l16.953394647120017,-9.735384290278187 5.105893112738277,3.7459866713935024 l3.8818144638454597,6.692099784451068 -0.07205116995868226,9.995141895521138 l1.3616989198327396,6.420810072640975 18.083834654068966,-1.322457374009743 l11.379376430102052,2.588944255965192 9.463428228795802,-2.254038138840256 l12.113004204155006,17.27957806815917 3.712726109830995,9.54807276743997 l-8.390764862586112,12.355842740629411 -5.865492056839567,7.802707759839018 l-4.109744510708269,8.094477331786242 -3.815257207770102,5.642177715750237 l-5.304058308619686,9.68030943866745 m15.916242856977362,52.258167572403714 l5.7670308950522315,4.013149563876067 -1.3765420039343546,-7.1488989518166 l4.520513885549196,-6.048305226755698 -2.078589263878965,-10.328872043702765 l10.87310503156186,-1.355290867079496 4.489104468779886,-7.184879629619472 m-20.562182640758458,-85.32528256261396 l9.503841385476258,-3.288859992353238 -3.7051627029453904,0.531563880824274 l-2.0935176144296266,0.9016948916860779 -9.386355327441684,8.740085789248775 l-20.980167412213273,1.8300722052517215 -12.933801670541673,1.8039769034278452 l-10.613601783527384,-0.5955143646176109 " fill="none" stroke="black" stroke-width="1" /></svg>