<?xml version="1.0" encoding="utf-8" ?>
<svg baseProfile="full" height="146.15484900479717" version="1.1" width="83.58721639601855" xmlns="http://www.w3.org/2000/svg" xmlns:ev="http://www.w3.org/2001/xml-events" xmlns:xlink="http://www.w3.org/1999/xlink"><defs /><rect fill="white" height="146.15484900479717" width="83.58721639601855" x="0" y="0" /><path d="M52.74521850309435,112.32465295607149 m0.0,0.0 m-8.732700525093017,-9.24035325579332 m-1.3673005097458368,-61.6029085154312 l-4.5577533093738065,1.6569213325554895 4.434303917238622,-3.0260619240724207 l-3.0633176429379483,2.6469067262469967 -1.9358550836226467,-17.759157319577028 l-2.4763469341335895,2.131149420511235 0.056484714872111486,6.758454658301739 l6.97586412937211,1.8635035749082178 -2.5212752310160162,0.36834341592016984 l1.1002723671134944,3.7245293296171145 -0.7466386809591953,1.1900984621928663 l1.7937443781786926,7.202776544936437 -4.203751470596439,10.037960386759023 l-0.886024050531692,5.709871411561546 9.872411401344737,6.187934561579685 l9.338622935143505,0.20351393789235062 -0.676741946479832,-4.21909299839448 m-30.149216961867598,16.22684920681927 l2.4697710646164834,0.7960258710694396 9.650108537619293,1.6970690947566702 l5.5142590313409485,2.098534774955167 -0.0012430953462241878,13.628478266007964 l7.924435678677055,9.968289220747879 -3.9765851651694684,10.580559864654871 l1.5836698351594114,-22.07816819775278 -4.484301705809399,-18.840550995432892 l-5.349610494810509,-9.21865561063852 -0.03277312067806182,-2.9932603327730734 l-0.3498220791888516,1.9003855943110215 -6.248472378334373,8.254135837439426 l4.604355438285747,6.627495022199475 12.055527935864813,0.28037172761730567 l-0.8122564579292554,7.609374231321692 -6.554620211524074,-0.8599759939702336 m2.9851166499453763,-41.894920957545665 l-5.001694065116702,-1.7853561103531257 m-0.5869330095969583,21.640705275878275 l1.8855215785787864,0.21346207517569715 7.210013066134683,0.9914955236213976 l10.415309600058668,-1.6086197264538256 0.6874397632411673,-2.8796523205818683 " fill="none" stroke="black" stroke-width="1" /></svg>