<?xml version="1.0" encoding="utf-8" ?>
<svg baseProfile="full" height="104.55215111140652" version="1.1" width="119.07987359222545" xmlns="http://www.w3.org/2000/svg" xmlns:ev="http://www.w3.org/2001/xml-events" xmlns:xlink="http://www.w3.org/1999/xlink"><defs /><rect fill="white" height="104.55215111140652" width="119.07987359222545" x="0" y="0" /><path d="M45.812825695009664,62.6290685122346 m0.0,0.0 m-18.839502170306343,-7.6632070043313725 l-1.973323524703317,-9.198365629384057 3.9441696712287,3.3875191457836564 l4.325409634669196,19.922112396889677 15.3331213546429,-0.08470663955771118 l10.497999431007702,3.1435008426716995 5.9213125762475745,2.592937523961907 l-5.281316091728697,-11.613815325259147 m-10.032698911524877,-15.237882781473525 l1.4784501118167466,-6.269114991444411 12.761771133236191,-10.128944220586607 l5.879688259163676,0.657679455131078 3.999929701858697,21.080244083058457 l1.3073727606587366,5.163611700892918 2.159134372848973,4.391884356162747 l-0.6703691544714818,1.336478228033261 -3.689876898292937,-2.412631248960868 l-3.6414332630306725,2.4858462483685044 0.5148078107788762,2.6364207039870444 l2.043878118281046,0.7968833783834792 0.2675375124862835,-1.940982359981045 l-15.205061814012103,6.959509355398025 -12.085168071940751,6.918105381428196 l-0.35066858637876397,-2.4979917177663706 1.911758195993879,-9.818739539455743 l-1.7250681503943799,-1.8970463737638554 -0.1511295422688274,-4.458754754285923 l13.010160050679291,-9.62395104091797 8.549664874771302,-0.5930748589147744 l6.705541334607494,6.350560537434751 3.2719776761789614,3.143791412077267 l1.793327509435473,1.1446200157209174 -2.029133446106419,4.978400671238629 l-1.3275022358550108,4.793389899889378 8.882223054725644,4.3277231263355525 l10.710064612913028,-0.22413554808957778 -1.9393472312227913,-6.838062084964933 m-39.648343797465735,-38.33863391231581 l-0.938154573580372,-5.000246943628048 8.162347489461025,0.16860063721526547 l-6.707870780117038,18.8859336090329 4.857733463936868,9.198617577451028 " fill="none" stroke="black" stroke-width="1" /></svg>