<?xml version="1.0" encoding="utf-8" ?>
<svg baseProfile="full" height="130.6388354641342" version="1.1" width="100.99667499064665" xmlns="http://www.w3.org/2000/svg" xmlns:ev="http://www.w3.org/2001/xml-events" xmlns:xlink="http://www.w3.org/1999/xlink"><defs /><rect fill="white" height="130.6388354641342" width="100.99667499064665" x="0" y="0" /><path d="M43.90586825729942,105.63883546413419 m0.0,0.0 m-18.905868257299414,-25.996534884518532 m23.70787954689077,-12.498483018424375 l8.131919840833808,1.0534778585971087 -0.26093646874204596,5.053153388375786 l-1.4554118974644787,3.3575714140767556 -0.05130864676624847,2.374167714967984 l7.466479376962774,5.809365656614238 9.562223901472805,2.2630539820514097 l3.895829337459268,-3.587571957848844 -3.3898275314099884,-4.591101500152465 m-25.6473631293386,2.013840950359309 l-0.05517778673597214,-8.964583207470884 -1.9307279447708199,-2.76474999859377 l1.385726257504141,0.7364442617443193 -3.0989660120841225,2.4338969362607346 l1.2993466933320388,4.251164382629148 15.107191857123533,1.864921070183632 l1.429261754444287,-4.937107227573462 m-11.232322043802943,-12.213016888033438 l2.7550122303552653,-4.14263102737889 10.53411666713418,-4.620147995042658 l4.9916944553791325,5.564946407765596 3.6104751823016716,5.5550382320281715 l-2.004545999745605,4.9047567443692826 -7.855295250243645,2.5231146719339725 l5.904240281644116,3.04598989906957 3.0754078956743167,-4.1233805623219375 l-6.57881579586251,-9.997679919699566 m-14.807375318142945,-4.844857082189528 m-9.96480601946105,-23.332660934486473 l-0.6419377011339437,-4.733419001665307 7.597894149120856,-2.095813829761081 l3.1563243223992457,1.7277766700520696 -7.93922954190967,13.488442282995496 l-4.60140478346381,3.003111813692277 " fill="none" stroke="black" stroke-width="1" /></svg>