<?xml version="1.0" encoding="utf-8" ?>
<svg baseProfile="full" height="102.44749561408423" version="1.1" width="110.12475736168713" xmlns="http://www.w3.org/2000/svg" xmlns:ev="http://www.w3.org/2001/xml-events" xmlns:xlink="http://www.w3.org/1999/xlink"><defs /><rect fill="white" height="102.44749561408423" width="110.12475736168713" x="0" y="0" /><path d="M60.2792836074918,77.44749561408423 m0.0,0.0 m-13.648898034796622,-15.086474258291268 l-2.8092792702115914,-11.170545627568336 1.281851016766527,-2.495433663305239 m-2.0456264513693467,2.483409367253838 l-2.320083498686801,-16.70812121235352 -0.08713419876084555,1.0889021104634935 l8.542140747154484,4.468197604348909 8.219612820990344,5.3766160146123925 l-3.0211820647160903,1.2966105859213628 -3.97264418025427,0.32367062710939254 l-11.560223022726035,-4.267443026930826 -6.248729929409065,-6.289231704836689 l-5.446400850576195,-0.9248073093070676 -2.162686690896285,3.422424631116393 l4.422250025459216,2.4867516908918272 16.026729349161645,-0.42482572416497083 l15.064683652148442,-5.160576847376552 5.921969423757005,-2.1409776471479565 l5.789607603166925,0.46509799799308205 -3.7421207634639084,-0.02749989259154012 l-9.704848833734383,-3.138485138742179 -11.257414122231456,-3.142863014596735 l-10.880046663615293,-2.8818911765820374 -7.670564216107465,1.418967468003546 l-3.7997998370405366,6.43921066914434 2.5824076156913636,4.663493424138057 l12.709217427937418,4.886049334997649 12.10764909462941,-2.650862881413139 l16.34800147966461,-1.7093131076005998 9.077207221732365,1.6127633428823023 l7.129828904531782,4.013245927944596 -0.9905584662649292,3.6317420556466895 l-9.510465600611017,1.913447971722878 -15.228567358040825,-1.5214569943105127 l-11.920798272550652,-6.68368890719382 " fill="none" stroke="black" stroke-width="1" /></svg>