<?xml version="1.0" encoding="utf-8" ?>
<svg baseProfile="full" height="147.06889885183944" version="1.1" width="137.86138150620792" xmlns="http://www.w3.org/2000/svg" xmlns:ev="http://www.w3.org/2001/xml-events" xmlns:xlink="http://www.w3.org/1999/xlink"><defs /><rect fill="white" height="147.06889885183944" width="137.86138150620792" x="0" y="0" /><path d="M73.00579837526082,78.77551431402756 m0.0,0.0 m0.3489414274006594,39.220087121801676 m-6.388145090638213,-5.554437979023346 l-34.993156851662604,-22.605523853858664 -6.973437860360671,-33.41512069717177 l3.047035972222285,4.523561599450041 m13.828671180991565,-35.94408050522549 l13.823807417984536,54.2187807227913 13.386992659893977,2.057893331757849 l14.180346353099237,-33.2925264239687 11.187588424053377,10.261610903378203 m2.371235322334595,30.208628004330258 l5.551380929708031,10.277771376294998 8.054379566397467,8.866347930207708 l2.429943679522851,6.309675782923471 -4.432611982847341,2.9292625890513078 l-6.510949109571361,3.466956667072365 -6.862343186970563,1.7644979680006891 l-9.019352615915452,-6.641332582082282 -10.931115557646246,-6.781693735459358 l-7.555135666491832,-12.501152133724435 -2.5924139207778722,-8.840308303012257 l-0.33792189466457573,-10.978109199218926 -1.0764782416532233,-4.608092664396799 l4.0128775287792156,-0.9826138589845131 4.899429742271253,3.583366861247597 l6.287614635324769,7.242335320836745 0.6194403103562147,6.952734207716153 l-2.824432272737624,11.399485130182498 -0.01327338234135722,10.201337758388133 l-0.9995472609290065,3.477073870592116 5.773497617391212,1.3223126500983373 l4.334708618245683,0.9944463425113134 " fill="none" stroke="black" stroke-width="1" /></svg>