<?xml version="1.0" encoding="utf-8" ?>
<svg baseProfile="full" height="155.97731731322216" version="1.1" width="125.57882680403439" xmlns="http://www.w3.org/2000/svg" xmlns:ev="http://www.w3.org/2001/xml-events" xmlns:xlink="http://www.w3.org/1999/xlink"><defs /><rect fill="white" height="155.97731731322216" width="125.57882680403439" x="0" y="0" /><path d="M66.01486276341245,130.97731731322216 m0.0,0.0 m-33.2824935337186,-62.628566359242235 l6.0299738561723855,-5.937642447064834 5.631588882075717,-0.28656849869459394 l-0.797865835428852,6.238824372310058 6.355367590815423,4.972976149226295 l-13.195497792786005,-3.924871161429151 -11.755935930542522,-1.350732357334193 l11.638632297558642,-15.63748541912617 0.45197262537841554,-3.8598785718274953 l-7.399147907255334,-1.842649774071126 -4.281478778869787,-3.668744408519565 l7.425761124457028,-3.287931267484093 0.2577683557660393,11.153155143610533 l1.0367189953884208,8.387572406496465 3.5927928083801595,1.5913305007651604 l3.0543724064706455,5.30430786693585 -2.691452392320462,5.824054283016089 l9.788313048990206,-0.21132161440699432 11.857794847534983,-3.0163591818450084 l-3.8044160247667933,-6.0108979975140775 -0.5699978292390847,0.12341082002227638 m23.10228068261698,5.221658680737811 l0.8666349808555136,5.37529777422098 12.291464940699482,4.008384262267416 l6.939324948071364,-5.5400095600072685 -5.414839226554392,-12.728731106059792 l1.5170246870890924,4.310037093490826 4.393012212492068,1.216304950808487 l-0.5357378554588493,-18.299906848397644 -1.9796721381106501,-8.897200183361472 l-5.375453493138598,-12.575134860744708 m0.3001338552379454,13.408299033424855 l1.932887197730624,1.2873906400627366 4.250557959788419,5.5309806036103675 l2.9335744752423136,1.6218733472472657 m-15.740356264214812,-0.45182988959962866 l-6.64958563081056,2.0102612168876224 -7.455301468699347,-3.0649132308106597 l-16.68588613768786,-3.2372169655183147 3.107190044133824,6.869208521611183 l-0.7263678287258729,13.830421829202912 -12.50686825475508,6.785278971322986 " fill="none" stroke="black" stroke-width="1" /></svg>