<?xml version="1.0" encoding="utf-8" ?>
<svg baseProfile="full" height="413.23359498353483" version="1.1" width="182.08301842125675" xmlns="http://www.w3.org/2000/svg" xmlns:ev="http://www.w3.org/2001/xml-events" xmlns:xlink="http://www.w3.org/1999/xlink"><defs /><rect fill="white" height="413.23359498353483" width="182.08301842125675" x="0" y="0" /><path d="M25,383.09781039136976 m0.0,0.0 m11.235746571431086,-3.9087335002621892 l21.16549587964894,9.044518092427278 13.998198589591976,-43.23222380665699 l-5.249091180727377,-74.99664438043744 34.405519321630536,-92.44152655753119 l11.62510387006031,-60.738191961087495 23.416410905230336,-9.635197499646809 l4.877395674207006,5.704864976339111 3.645038842851214,9.156120965902552 m-13.152434076450833,13.710765715475679 l-0.5550940005710344,4.014986264752435 2.5469334581195366,1.3454213597594677 l4.906440461679577,2.042123858735434 12.831295886058589,-1.495176832650163 l-5.461263670914489,-8.06133028906107 -4.789590449341905,-9.07427033445026 l-13.071337400040958,-4.086515622533745 -10.288346116485089,5.159892589366228 l0.6641338986552614,17.214717777595897 3.800814584829156,-0.5032511197854406 l3.483244489279789,-6.778776636280313 -4.6045931742311,-12.547882790568016 l9.25367655573155,-1.1946488141716827 -0.07985068186989186,-7.2094931249523375 l-0.4963563190473608,-13.199637568139687 4.448299823812404,-7.506145305818708 l4.132892368500114,-12.688486080034371 -3.0161941728105246,-1.4735400068203612 l-5.0715713353355,2.2104334972618003 -7.849244075672934,2.3725050264967393 l-1.4048458045364642,-14.89349211092269 4.289442539371955,-13.01200182989625 l9.08119200550881,-5.344343534271761 9.715109824004232,-15.61949215062254 l13.650445329089838,-10.433158658880993 " fill="none" stroke="black" stroke-width="1" /></svg>