<?xml version="1.0" encoding="utf-8" ?>
<svg baseProfile="full" height="125.62382468462603" version="1.1" width="161.6235364532659" xmlns="http://www.w3.org/2000/svg" xmlns:ev="http://www.w3.org/2001/xml-events" xmlns:xlink="http://www.w3.org/1999/xlink"><defs /><rect fill="white" height="125.62382468462603" width="161.6235364532659" x="0" y="0" /><path d="M88.34382913391016,100.62382468462603 m0.0,0.0 m-57.165455690283096,-17.684547431024598 l-6.178373443627063,-6.259727865780841 m23.793573955984407,14.156620673867822 l0.5871801593899229,0.9243824270952461 5.8240583699347965,2.8851855945954683 l29.593538880837162,-0.8700898020355852 5.7616058913361385,-0.0979431881628412 l6.351627488763354,-3.072716715305619 2.0474595965939386,-1.7307919544890393 l-0.9967965864384866,-0.17782462607996707 4.3588073801964216,-4.658333575201111 l2.9969396602164555,-5.848242560101489 -3.2494444779391087,-6.729253272853237 l3.4406627933298384,-1.3486148305556522 19.168586069025107,16.697909265364277 l0.12758708217728287,1.4750144534127667 -10.16175153255281,-14.529583895896584 l-1.5992006470614646,-6.499457698236167 1.838136098801959,-0.6510225852810425 l2.2230646785428676,-25.68431886912622 6.251529673582017,-1.170152551835626 l-0.672635147853608,-9.203760469825303 2.364645716433611,-5.546555207170695 l-2.4727713128382556,10.203418602158802 0.6795504187890361,7.096262898582972 l-2.7262111015521726,10.301395257878356 -6.6732939629277865,2.552364095022832 l6.459165828321944,0.9197154877693636 8.701017555018797,-3.1299834716283215 l4.910138539639974,-6.994504607920102 2.5765534918883657,-3.2582410101644466 l-1.3835871688518924,2.1411386781006416 -1.933945770984703,5.443235433772637 l-3.7969603991267644,3.136936722706121 7.234705232589534,0.9028288562073894 " fill="none" stroke="black" stroke-width="1" /></svg>