<?xml version="1.0" encoding="utf-8" ?>
<svg baseProfile="full" height="129.48606611432245" version="1.1" width="179.92822176916857" xmlns="http://www.w3.org/2000/svg" xmlns:ev="http://www.w3.org/2001/xml-events" xmlns:xlink="http://www.w3.org/1999/xlink"><defs /><rect fill="white" height="129.48606611432245" width="179.92822176916857" x="0" y="0" /><path d="M25,52.15656569942719 m0.0,0.0 m28.374631611991912,-25.201714395922064 l-2.0510041222451667,-1.8442151665860074 18.362021899422317,-0.11063613691912139 l-3.0972675995958854,0.6063088585782608 -6.4717449991437865,3.4923802510576896 l-6.148041394826347,5.070426855215762 -5.43838619449284,-1.5792428668798553 l-4.308440425751662,5.005214824379514 3.4057509780999276,1.3484542273392597 l9.017642586601799,-5.11486173074936 7.203332042982831,-3.6122088379846686 l-2.4592414784719434,-0.7332327448236012 2.72254669663772,15.015299186532106 l8.152271592635566,10.811662406060881 12.468810527425186,-0.6472527189448707 l4.4224497904168825,-5.512222833686111 -5.896178430872421,-6.278151153221027 m-3.7283224152616867,-11.938319033013691 l4.310761032805633,-1.9905907981060305 6.289075866371108,15.459699687062828 l1.025391866887381,5.018009250488427 -9.157813664258622,-2.6064416374657906 m6.465585672281651,42.66693843946213 l-1.4251282341070826,1.4807346781466812 9.362414655939782,0.4656344575199066 l8.43878056444729,-0.9304042393777276 5.489883136658449,-1.3575868188635853 l8.583485920520948,3.6750485554805343 4.722711750154094,-0.7631455100967373 l3.993020515628259,12.433915360211518 6.378592832803391,-0.23477277833352406 l9.287372611718622,-7.488213594016038 6.856957062553817,-6.239118178628416 l4.212927045759769,-3.4530166865471403 0.5633724674517263,-2.509150324362226 " fill="none" stroke="black" stroke-width="1" /></svg>