<?xml version="1.0" encoding="utf-8" ?>
<svg baseProfile="full" height="162.10560160038352" version="1.1" width="136.3979419748199" xmlns="http://www.w3.org/2000/svg" xmlns:ev="http://www.w3.org/2001/xml-events" xmlns:xlink="http://www.w3.org/1999/xlink"><defs /><rect fill="white" height="162.10560160038352" width="136.3979419748199" x="0" y="0" /><path d="M34.99889470725569,75.2465401855138 m0.0,0.0 m-6.651628590680623,20.962306987663453 l2.8965384691653715,-1.2156820315932697 2.146160951831762,-43.027647389378316 l2.6094298657853376,-8.607428973851183 -0.987034414832429,-5.956693867551044 l-4.354304080772714,-3.1987810397340386 -2.274893345059772,-5.013870138559707 l-3.383163562692616,5.934454212510791 0.669858855134888,3.0365837992828992 l5.746535378942112,1.4536271246780843 20.989266517711343,-8.141471216200587 l-0.10107724281931393,-6.4719376527808965 -3.8481228329256556,10.08801100330825 l-7.721394273259694,13.01470251827688 4.572704204042977,11.527593363805083 l13.377118974209324,8.569774171987223 12.359969161798983,1.9550215539419582 l4.543421943504274,0.2422032680654423 3.354189342240908,3.584869663310625 l-0.6892669129087938,7.782578951333072 15.803842376742328,1.6462399117591353 l12.736594583354345,-5.488894666416311 4.604301899051869,1.8258259702189152 l-14.324065162215593,14.687061787021932 -4.340100595410552,6.431415201144694 l0.9740274571825291,7.4654351861787065 -4.06048469207325,3.9927075513166925 l1.9801551882536084,12.801610049367541 -3.1826755829560427,3.9659586038925987 l-1.4345718201297204,8.013487511871082 -20.519513329983592,-82.98188793960165 l-7.700932205382198,40.39759458266001 0.7496680214591672,7.636737697774689 l2.0664172509742027,1.4965775921134443 2.210633214425338,7.150141546979445 " fill="none" stroke="black" stroke-width="1" /></svg>