<?xml version="1.0" encoding="utf-8" ?>
<svg baseProfile="full" height="143.64385942807394" version="1.1" width="102.47740080181751" xmlns="http://www.w3.org/2000/svg" xmlns:ev="http://www.w3.org/2001/xml-events" xmlns:xlink="http://www.w3.org/1999/xlink"><defs /><rect fill="white" height="143.64385942807394" width="102.47740080181751" x="0" y="0" /><path d="M49.17815814194234,42.083318929948 m0.0,0.0 m11.144378916827247,-12.43736271988837 l5.55719108488759,24.245802622594226 -6.546740762772815,6.603940590005785 l17.509979067842057,23.66965894974121 -7.593065059612374,15.856806356093538 l2.167169417178219,4.001581958667439 4.050001888479558,1.6480479358528572 l0.2319872351058795,-4.812502884854593 -5.005705894917365,-7.4336529108155185 m-18.383190948989277,7.2137742641416525 l1.8882543485953511,8.45305530394608 5.906179377966881,-0.6781701033810938 l1.322730184725376,2.136533542597179 -0.09580426696619572,4.239223214263147 l-5.877725198514696,3.005258976294055 0.264953252822685,0.8485454028683195 l12.390856877592533,-0.023163554070486023 7.356118206578309,-3.9458436968722164 l2.011674933046217,-4.487422454307511 -7.470374067092305,-5.745021773237872 l-5.0619554680936325,-4.4721513250469735 -10.889382708850892,-23.618096458270294 l-6.344604980597822,-6.752270816192053 -10.247625697323796,-13.21440387066254 l-3.5334696537711654,-6.554687222010647 3.737653947625468,-5.418141087806023 l2.71511007439011,-2.37918645297271 6.9220223817406294,-3.4076041754756403 l-1.4427135343488224,-2.5988859444204158 -6.118078108584541,-6.654280259670867 l-5.5414122806316275,-4.372700337057679 -9.202570706279113,4.736829973346582 l3.740887849882315,1.276221098690467 1.4448273519460442,-0.4462924673918839 l0.3802785640306107,-4.2956735912686534 " fill="none" stroke="black" stroke-width="1" /></svg>