<?xml version="1.0" encoding="utf-8" ?>
<svg baseProfile="full" height="397.57462231127704" version="1.1" width="223.09828955627577" xmlns="http://www.w3.org/2000/svg" xmlns:ev="http://www.w3.org/2001/xml-events" xmlns:xlink="http://www.w3.org/1999/xlink"><defs /><rect fill="white" height="397.57462231127704" width="223.09828955627577" x="0" y="0" /><path d="M25,372.57462231127704 m0.0,0.0 m23.172006165153334,-6.67995864948904 m-15.05271943040894,-12.02810558144746 l32.09954971044315,-71.10223550216436 4.626303736217491,-117.39896391294134 l31.45224206021382,-70.25512621738041 12.194433312119495,-1.161628839655126 l2.9045179836850963,8.3453222786568 -2.181320045142121,8.798102816751362 l2.2352676483425213,4.943410701201923 -0.03938940203094196,0.49600804627545275 m-21.446346600784373,-33.56318277398199 l5.210903534778855,-4.4527639034777415 11.55265574358942,1.1606843996957883 l3.78279419069531,-2.035620393233848 2.11901456682536,-0.6419051844829515 l9.231067543441625,-4.19019676048818 1.3194529403708177,-1.8229830126965232 l10.656239218843053,-8.151989158858328 4.034092319343868,-6.57554428407622 l2.2100504187680534,-5.9410344396039525 6.24104293910131,-7.434770342503583 l3.2510690662013264,-5.016588624526405 13.815713310911315,-4.803883633661872 l7.3578563153565035,4.933193207898496 2.970609527341134,6.33930923130655 l0.7064799856748255,1.072449961246642 -1.2405189411379651,-9.064459892267957 l0.8483727512625868,-11.342161847372969 9.83633822314078,5.225783878868708 l1.786796644013331,-3.3336155081038252 5.639837790880719,0.753151926285693 l1.8038763290649829,4.803714595590293 -2.2153583160722135,0.33265931092689105 l-11.882773770515206,9.019407405948341 -6.418328755623843,13.587117733709539 l-4.777989195753121,15.056477102892453 -6.4176584917647554,10.498900885452606 l23.42962979028496,9.720545692214811 " fill="none" stroke="black" stroke-width="1" /></svg>