<?xml version="1.0" encoding="utf-8" ?>
<svg baseProfile="full" height="168.17817899690797" version="1.1" width="138.14962703490193" xmlns="http://www.w3.org/2000/svg" xmlns:ev="http://www.w3.org/2001/xml-events" xmlns:xlink="http://www.w3.org/1999/xlink"><defs /><rect fill="white" height="168.17817899690797" width="138.14962703490193" x="0" y="0" /><path d="M79.00318483894563,143.17817899690797 m0.0,0.0 m34.146442195956304,-25.747220289308704 l-6.97167846887135,-6.673919582023872 0.14870187445300664,-21.79872362318064 l3.9518028350022716,8.172065712735264 -2.92447236237261,2.581231733081435 l-4.097157836947509,-2.5172045188792818 1.7625994426508031,-2.7877486198777643 l3.145269686450345,5.466394509473167 -8.035233900011438,-1.5868848992188493 l-2.6780822375085167,-10.784105074126543 -1.568781483646196,-6.226292833599134 l-2.3398400827867527,-2.2642926840315694 -3.4461078686689914,-1.2898784543989383 l-6.633386980099992,-1.9480957234591763 -7.529639472598727,-2.069604530196712 l5.009887474127846,8.93304166053151 21.9220626939632,-0.07538282968275967 l0.43062309354090705,-6.349395686697115 m-9.510107342304817,37.061463083041254 l1.803981637032504,8.08639166993819 12.645723007588098,-0.4494655735653148 l1.1634832351710955,-18.292572802829564 -1.3038707554077371,-10.431544553104679 l-0.49211449272628255,-8.943696446391373 -5.021578448551189,-6.744495086105649 l-3.778712415859092,-4.8589342130559094 -67.97468224476646,-7.401404263889493 l-5.828315621754359,-6.469547019029826 1.2474914046616663,-9.782679335837722 l4.452362809961858,-12.619001185262281 2.0465928495090595,-10.366677537955917 l3.5566639709535575,1.292976588507531 0.016360850720815584,3.564216583629485 l-1.836453750205424,14.641626217371705 -1.6578871803786954,9.283104275611631 " fill="none" stroke="black" stroke-width="1" /></svg>