<?xml version="1.0" encoding="utf-8" ?>
<svg baseProfile="full" height="232.26755683519679" version="1.1" width="179.67151034157092" xmlns="http://www.w3.org/2000/svg" xmlns:ev="http://www.w3.org/2001/xml-events" xmlns:xlink="http://www.w3.org/1999/xlink"><defs /><rect fill="white" height="232.26755683519679" width="179.67151034157092" x="0" y="0" /><path d="M25,203.03740950820827 m0.0,0.0 m34.11934009045709,-23.098728856501086 l18.290795724361413,-35.170013058870005 6.534213715768411,1.508328667755852 l11.107745078757056,1.4333494916802447 4.075654751647335,-2.5055616760223445 l-0.8924010482422181,-4.060774147246342 m-1.6164890345038756,51.380189036509215 l-4.027545691877662,6.055135378490098 -0.028585559873214317,2.0199534674603843 l3.417838633314995,6.668269023732512 m-2.713189237175798,-94.92819429828458 l0.5719475600723847,8.888035852391562 -1.1940393113455499,6.042659623812268 l3.5465201701750613,5.886809517064973 7.670383062362592,16.408495618685016 l4.200170263411886,6.373230453149345 10.357946637578696,3.115529481802337 l7.711132792901158,-2.8904544230045315 7.0464009979886555,-4.19191652994216 l4.911809513225361,-12.348138614983297 1.0820358806621868,-3.425638563303007 l-5.3607816708819875,-8.73111062285496 -10.89989127111429,-3.054405180424782 l-5.7075379226820155,-1.7115372624640657 -0.9829237007797964,-1.0103727510148584 l0.5702743342170382,2.497564840219915 8.763973060584789,5.287366043872997 l8.761377031728072,8.022130352194509 7.326549194429783,-2.6628676055249922 l3.4059846235266833,-6.647766381823839 3.6611224823671615,-1.78574441521832 l0.5743879572956945,-0.37743842059570265 0.9078046204699826,-0.07154120456328295 l-0.2574322787961811,2.13805481898799 -4.823429515137933,2.5309473610094892 l-1.9783464488635039,-105.62125452438482 11.53869485554145,0.8006282888256518 l-3.7603640801345004,22.561451127675813 " fill="none" stroke="black" stroke-width="1" /></svg>