<?xml version="1.0" encoding="utf-8" ?>
<svg baseProfile="full" height="214.33593140057627" version="1.1" width="116.71149334991298" xmlns="http://www.w3.org/2000/svg" xmlns:ev="http://www.w3.org/2001/xml-events" xmlns:xlink="http://www.w3.org/1999/xlink"><defs /><rect fill="white" height="214.33593140057627" width="116.71149334991298" x="0" y="0" /><path d="M27.00327991347614,129.03534262729954 m0.0,0.0 m19.762094716576932,35.0229089487722 l26.728007408256655,13.866121338605879 9.644543273326832,11.411558485898633 m-15.886570511255366,-3.539831407866878 l-11.665152228685216,-3.851623274162126 0.6794836806854704,-2.9492827414987666 m-31.265686252381446,-153.9951939770485 l6.480840555627286,7.1401358181340235 -0.8477044342294016,8.924908489464615 l-5.424204254298141,8.85757373256539 6.271499923442307,7.336211255461161 l4.696779334506814,6.269730421164201 1.8777683842990336,8.359025686755587 l1.1587298083778663,6.64285830815044 -1.0896591055013225,7.245877810457744 l9.69288115212681,3.445926236140602 10.318283515057757,-11.959876822215554 l4.810614978323219,-3.164963651598135 4.001220497646578,-3.8046446073866145 l5.586400415791039,-10.178487129231799 3.608957349442744,-3.0504718437489364 l12.58673045259686,1.8934893407221625 2.982354776703541,-0.813798922916123 l-5.775500537214205,0.7681039298093495 -8.493719264560655,2.610094337711154 l-13.303954350149994,-2.746854438644555 4.558866976284311,-6.861980870149875 l6.2569133520547116,-1.2537363051541528 4.521331953589363,2.551560935527389 l0.9450885534375209,3.396142523145529 -1.017463584106099,5.559025267849369 l-6.561560050857735,10.342314055572789 5.177938063705692,3.048640963627266 l4.831294667934029,0.5284901024776287 6.926101566017324,-13.908575389362857 " fill="none" stroke="black" stroke-width="1" /></svg>