<?xml version="1.0" encoding="utf-8" ?>
<svg baseProfile="full" height="188.73949828684323" version="1.1" width="142.81948652765527" xmlns="http://www.w3.org/2000/svg" xmlns:ev="http://www.w3.org/2001/xml-events" xmlns:xlink="http://www.w3.org/1999/xlink"><defs /><rect fill="white" height="188.73949828684323" width="142.81948652765527" x="0" y="0" /><path d="M38.494484468354756,42.999464210133226 m0.0,0.0 m-13.494484468354752,-1.0322905706726926 m26.114927641965178,-16.96717363946053 l8.48556144781593,1.9881820932226881 9.234477470493454,14.582847386345673 l0.5247968334626366,5.51748521954992 -7.2570260872414405,6.91342439395644 l-1.465692958918282,-2.7050794186030935 1.8590587658039261,-4.971146230922313 l1.0480681257816242,-3.541805507350025 -3.4650342874898254,-1.1246771562542606 l-5.1495461341249475,3.6656708175052612 0.7297158717269847,2.7815445836133716 l15.85941267428074,21.206213213016838 6.007840737184056,3.624369908863435 l-9.544102963883285,29.088810203839714 1.2837325002284035,3.7591356207668127 l0.8125920200868503,0.39735296483549176 -7.96631953832135,-2.6100150931970583 m-4.063430192366263,-23.610205363560766 l-1.5812627527438619,-9.619850571388815 -6.2839166629738745,-6.12589414118011 l7.76212282510276,-6.813668536509134 13.84779402684976,8.022204859459997 l2.4482245220001198,9.695137178611102 -0.460374905814299,4.072535163436516 l3.7995613633186354,6.349909320260965 -4.779466749829561,2.964617124486024 m8.131478243143013,22.63432926515549 l5.111467470057045,2.353680363071437 0.9887312455770964,2.0746087232644226 l-0.9492528064103464,3.1369472146496857 -1.0653019182974355,0.6496239420632873 l-0.17092703456353087,4.945240253307649 7.928241894819927,3.3674519052928673 l0.9745574531252188,8.18559479692934 2.5554688205678713,5.1378919669794305 l-0.46456920141988056,7.4712659335766345 5.099715250726109,5.308622587121122 l16.878163517936112,-2.2973042100845564 -3.655233411619774,-1.8758981866860727 l-15.197454749665503,12.012979098265694 3.801284924866685,2.1273666011321835 " fill="none" stroke="black" stroke-width="1" /></svg>