<?xml version="1.0" encoding="utf-8" ?>
<svg baseProfile="full" height="217.2243858496467" version="1.1" width="148.91692493035418" xmlns="http://www.w3.org/2000/svg" xmlns:ev="http://www.w3.org/2001/xml-events" xmlns:xlink="http://www.w3.org/1999/xlink"><defs /><rect fill="white" height="217.2243858496467" width="148.91692493035418" x="0" y="0" /><path d="M67.00868556525664,158.7058067492555 m0.0,0.0 m0.26617182339174184,33.51857910039121 l15.354979051141912,-115.12002362807866 34.12011734263423,6.046055048126544 l-7.686675543987998,-58.15041726969458 4.894535824877846,2.7106967364949908 l8.330243300096267,0.7801726548911339 1.6288675669435642,41.26147221167395 l-5.939277107893761,9.414224224958858 -5.72697521590699,4.009478001357862 l-10.162583474717186,12.380951125270967 -6.776367002353519,32.17848528325051 l-1.3646272900141299,6.056002707773738 -3.4468052126806814,-3.805426201722076 l11.282199752826926,-1.261718433674609 -6.927096834330719,-3.2224064142972297 l-3.018934674830646,7.353024876420494 2.4955777367629803,1.7118251915125582 l-0.6454836734733249,-0.15116156163156202 -16.555505133679944,-6.600503182541587 l-10.340070875842333,4.856455586806183 -1.5136961921931535,9.351847815026302 l3.355305579533825,8.136315910199013 -2.4984703477314207,7.854899805760805 l1.7552770098416715,17.87688525652485 -8.842482808513745,7.625973415778775 m-25.977580832823072,-78.69650873248807 l-2.8055131450327475,-1.1982506542326898 -4.437321529062919,-11.380276917547098 l-0.328068584787487,-9.678271743735154 -0.49842507345182696,-0.060164554268100634 l0.8176875911886972,2.7245134193598934 2.0269084931370362,-19.75266890343179 l9.168045013629454,-7.184865307226336 8.142574130328798,2.775832249005775 l-1.1535690835274297,-33.53970781107235 " fill="none" stroke="black" stroke-width="1" /></svg>