<?xml version="1.0" encoding="utf-8" ?>
<svg baseProfile="full" height="131.48383752307848" version="1.1" width="84.48459882917551" xmlns="http://www.w3.org/2000/svg" xmlns:ev="http://www.w3.org/2001/xml-events" xmlns:xlink="http://www.w3.org/1999/xlink"><defs /><rect fill="white" height="131.48383752307848" width="84.48459882917551" x="0" y="0" /><path d="M44.231354156576714,25 m0.0,0.0 m-11.993660048549334,43.73330558717378 l9.084687750173977,1.5384629685581241 10.03461160141033,-3.7043852374415573 l1.1816003582125456,-3.0756621427392505 -4.040516714707119,-6.207034728795828 l-5.939928099939227,-3.9411408220041944 m-14.63305869999107,8.806844764262477 l1.5843558711779577,3.678808369316419 7.180652611079337,-2.830496360744997 l1.7101160841514254,3.631198228546755 -9.590159081323932,-0.2255728657791498 m-3.810055788271607,-36.64458626346564 l3.2394338925046404,-0.2691738214004539 2.4849721009599164,10.626052469454512 l3.6109920658097674,5.131652056581017 -7.339948437076902,1.2321807109591192 l1.1637024655831218,-2.9712173154131425 13.01134416207467,-3.108423773346246 l0.970682083805729,-5.800383216918746 -7.758059955499702,-4.3829432385921265 l-3.735345419668188,9.104376592841259 5.983887582115151,4.676325456987755 l7.489380258680387,0.14992605767946332 -5.326679619145329,24.832824238645998 l-5.777699971206607,2.5809371826338237 3.712885429061209,9.337135478007221 l6.465498504944536,3.706258225473489 2.759001308289336,5.275981693402357 l1.1300065380053492,6.089168588875682 -3.11944683091938,10.51341864032055 l11.394844668452931,-7.184191452823257 4.125148002404877,-9.275981825366989 l-3.677697665797853,-3.983209336224055 m-19.08685287653592,8.239448690988919 l-8.40350502880196,-0.648900217247389 " fill="none" stroke="black" stroke-width="1" /></svg>