<?xml version="1.0" encoding="utf-8" ?>
<svg baseProfile="full" height="123.23792866292516" version="1.1" width="131.5412164820316" xmlns="http://www.w3.org/2000/svg" xmlns:ev="http://www.w3.org/2001/xml-events" xmlns:xlink="http://www.w3.org/1999/xlink"><defs /><rect fill="white" height="123.23792866292516" width="131.5412164820316" x="0" y="0" /><path d="M65.74063088347839,74.93919136304154 m0.0,0.0 m-23.332064332712083,-26.36932957524018 l0.29300665337622545,-1.8947642528424857 15.031619408467005,-10.323529299906967 l3.8422522805632644,-3.8195641603099033 -14.60143596512889,32.59898150225252 l4.424939082262529,3.852694883505554 -0.7525752416262588,5.180604737975605 l7.395671659631938,-2.308885744442688 1.0909364828347334,7.761824866176072 l-0.16424605655138924,6.603083579054838 0.24585910216576093,3.4655979829740122 l-10.682285926547369,8.552022780687235 m5.665030634470685,-73.23792866292517 l0.8302421478315205,9.5623601423276 -0.6923994057689999,6.675138470018784 l-1.1307614289375556,8.398932594061739 6.2717240106313055,6.294475962449139 l23.066481696268575,-27.00602737829385 -1.8065773332344182,26.450004698246367 l1.8380826989367653,8.651931031019341 9.288098358119733,6.210297802762879 l2.9923723663478974,3.0509499589435274 -1.7536012395272986,2.3520720649820053 l0.324722464042544,5.869977286556428 10.243493443091156,0.9743678498108462 l2.8720000395458225,-3.599223673244898 -9.532766160018696,-6.349859762006571 m-58.0180554759424,4.332474870989094 l-3.025685146659557,-4.766614383678973 9.653192651575207,-8.48119680705115 l-6.796321093442856,4.365392321766498 3.2882656793647773,10.441406821369931 l-5.665605143898872,3.0833061586973707 -3.522087274322468,9.952580818600604 l-7.922154518686716,5.764998370438087 " fill="none" stroke="black" stroke-width="1" /></svg>