<?xml version="1.0" encoding="utf-8" ?>
<svg baseProfile="full" height="193.60413651641025" version="1.1" width="127.26828642588521" xmlns="http://www.w3.org/2000/svg" xmlns:ev="http://www.w3.org/2001/xml-events" xmlns:xlink="http://www.w3.org/1999/xlink"><defs /><rect fill="white" height="193.60413651641025" width="127.26828642588521" x="0" y="0" /><path d="M39.30063885844317,156.2058587885104 m0.0,0.0 m0.014518900077284957,2.15057865874528 l4.138544788483587,10.247699069154574 m-18.453702547004045,-34.32546024036231 l0.4699468399577275,-3.595176190952412 2.398370028645909,-4.720667055816219 m-0.6649471106978899,-51.41504624604481 l2.2160589111005273,2.047795059663937 11.247989777052934,1.036801460694024 l15.660597609743313,2.225646230232948 7.064274092007395,-2.0385961187879644 l11.281518745189286,-0.9578341735212964 10.516604548654277,4.863330109159456 l-0.6898656412495341,1.5680839261964146 -2.6300778743646855,-2.368785199411577 l-4.201242731098053,-7.582892475764758 -5.914696829801573,-6.484306776626224 l-9.78545374797176,-7.651721546973667 -8.161459719793758,-8.96995296000413 l-3.4858270751416276,-9.871508639991395 -5.8220417958159105,1.928735042815829 l-2.1718393451287237,2.2808081954576602 -2.368971474238649,1.428022367187235 l-1.2440182614621096,4.253790382670337 -1.395111229299865,9.740419485148161 l3.3309918389612467,1.9534587992237362 16.957574007265947,2.5048407443435985 l8.361152398732406,4.927596850573225 10.26490209624801,0.6470331035884088 l8.120923354512515,1.9479483001700537 8.155087954973958,2.4349912276337102 l9.757847058903893,6.888389706505336 -3.771114519680161,6.441244910231913 l-6.500557851195272,-1.0652399395172885 0.19435242111463302,1.9910495635194625 l-8.515667172113185,-0.4452031379547669 -10.305448376540442,-1.1286261802643016 l-17.39693633714796,11.830415704404352 m-18.256667048722107,-73.92352080383698 " fill="none" stroke="black" stroke-width="1" /></svg>