<?xml version="1.0" encoding="utf-8" ?>
<svg baseProfile="full" height="289.61430657140625" version="1.1" width="132.5727867206857" xmlns="http://www.w3.org/2000/svg" xmlns:ev="http://www.w3.org/2001/xml-events" xmlns:xlink="http://www.w3.org/1999/xlink"><defs /><rect fill="white" height="289.61430657140625" width="132.5727867206857" x="0" y="0" /><path d="M90.5511678796903,264.61430657140625 m0.0,0.0 m-8.794537521209564,-48.169349504815955 l25.81615636220499,-99.34652601787371 -6.158488233332215,2.4598511428301078 l-2.858483035187816,3.9686817651819997 0.441921168033835,4.880635001478807 m-5.150129793408891,33.27374637531123 l5.788946709939185,-4.189672158598518 0.4188833038268025,-2.0182600154679453 l-3.4161187524009127,-11.957496228374906 -2.652624761673804,-6.8169888487335895 l-2.9793418618023075,-13.168902925213203 -9.395278149497837,-16.394247702684183 l2.766583286929458,-18.01705676909177 -2.2800264510632404,1.1873164333113406 l-9.598406867137706,19.201242629901866 -16.385244963542632,5.963565020953765 l-7.527463418692048,5.348119696424713 0.76346728027747,8.122667122877457 l-12.820863210083523,5.290323402797763 -6.760916357218796,12.201348054069223 l9.703833025554905,3.5171182018993212 5.603154943115913,7.307005658407155 l4.745523499730632,3.9873162848207726 0.852270620947288,3.196095887354604 l0.24141514958822968,-30.977997482493492 -4.808994132340639,2.8432833823629933 l-12.398421358476464,3.233071086935303 -8.707984362770599,12.283882139694194 l8.645796974557886,11.170465139254883 8.314406826438674,6.307689681079369 l-1.482355782175148,2.5400531436010043 -4.068316325996936,-1.9333017063495228 l-3.4244125764480957,-6.470057111468274 m-1.7347121321262706,-116.87767885136141 l7.398423590709104,-21.560248499427555 " fill="none" stroke="black" stroke-width="1" /></svg>