<?xml version="1.0" encoding="utf-8" ?>
<svg baseProfile="full" height="229.3604286323565" version="1.1" width="156.4917023721547" xmlns="http://www.w3.org/2000/svg" xmlns:ev="http://www.w3.org/2001/xml-events" xmlns:xlink="http://www.w3.org/1999/xlink"><defs /><rect fill="white" height="229.3604286323565" width="156.4917023721547" x="0" y="0" /><path d="M76.7021517481986,52.63984443371652 m0.0,0.0 m-0.757142529790964,-3.864849307491647 m-11.645252992011068,7.142099661840364 l-39.299756226396575,-30.91709478806524 m6.095605531079791,27.201444010360884 m3.7180578066362777,24.557277077252373 m22.44277747867132,63.17383550193253 l21.846810469737335,54.17461275202059 11.347392648716088,4.825368108529197 l6.350077320776398,-15.928883839004175 -23.48122731572155,-7.304272441660792 l8.044118792380495,-1.7513435426664872 3.260358814199252,3.5813556243940856 m-21.735448763501015,-0.9921592546636782 l6.0603503655895,-8.886170031618978 13.130097498982321,-18.589766690120122 l10.351972534956337,-22.31690226086711 2.538981446141714,-14.555023628196645 l-2.694277363909815,-17.804406268920236 -9.207763482066236,-7.123101246596219 l-2.7522150182515137,-0.2619884632657066 -0.18347588194173148,0.5731362514914504 l0.599635279892475,2.823424629500314 1.9625169224394896,15.848048313611342 l3.7185909720982244,20.891510018196414 13.120530836098203,11.48637790185513 l5.58670463647251,14.970967684935482 0.4238202834171767,12.478583131344294 l-3.5497628674341364,14.196051602875608 -1.3844164897356603,11.692541904464637 l2.39549272527242,4.653451057013227 12.093801041471401,5.79167290540024 l16.39259614968764,1.954787824758853 " fill="none" stroke="black" stroke-width="1" /></svg>