<?xml version="1.0" encoding="utf-8" ?>
<svg baseProfile="full" height="140.76477816367756" version="1.1" width="197.13729431258204" xmlns="http://www.w3.org/2000/svg" xmlns:ev="http://www.w3.org/2001/xml-events" xmlns:xlink="http://www.w3.org/1999/xlink"><defs /><rect fill="white" height="140.76477816367756" width="197.13729431258204" x="0" y="0" /><path d="M43.52154558548707,109.95540322050249 m0.0,0.0 m-11.91420619547309,-43.507071035866225 l1.1542004835264714,-3.3026769868198174 4.457359140033313,-1.030311466251323 l-12.218899013573765,-17.496187713191322 5.7305771850616845,-10.131937287223513 l13.078500881205818,-9.487218731150291 7.470449630120273,1.103296732923803 l10.121458114622579,8.905080201647593 8.941428179432396,3.2362417857625094 l-5.439081683973359,7.875493035524381 0.6624023528876472,9.023884829382895 l-1.8801840112741137,7.582529519038986 1.9218940632572379,3.291978699163006 l5.333599902277816,10.661052008991051 5.49285425161109,8.641921124772225 m-39.67766255410916,11.733692444291778 l7.831705466194246,0.33869410196172134 9.572574541222734,0.755008900815329 l9.249821459244115,10.444461712117258 m7.522759077331425,-6.9430245325689395 l12.989490084130573,-0.4776973737620105 16.79259283639161,2.6602449721993957 l9.504631253309372,7.720023066999793 -2.253575617384287,1.0637483252751678 l-6.558264046218328,1.7524952806471885 -5.942363320261246,-0.10351621847645834 l-2.246708163300068,-2.000467243281614 -5.394587322973616,1.3076406049677805 l-6.212609618512219,-0.23064043148123076 -17.51701323568986,2.42263661676596 l0.8276824506276744,-65.58721243036959 14.673114109167361,-16.099480209438866 l21.396794891362738,17.80449440035199 29.58542318006601,21.831074404507937 l41.559589976753884,9.687987676332158 " fill="none" stroke="black" stroke-width="1" /></svg>