<?xml version="1.0" encoding="utf-8" ?>
<svg baseProfile="full" height="165.7834479583123" version="1.1" width="92.48928739635151" xmlns="http://www.w3.org/2000/svg" xmlns:ev="http://www.w3.org/2001/xml-events" xmlns:xlink="http://www.w3.org/1999/xlink"><defs /><rect fill="white" height="165.7834479583123" width="92.48928739635151" x="0" y="0" /><path d="M53.196095734357755,140.7834479583123 m0.0,0.0 m9.023392898872785,-82.77296978954719 l-3.8638638443719677,8.728287481983502 -0.24214879866132355,0.5144703732692407 l0.24223270620415405,-4.007193806517391 -2.2539692056869796,1.3615444312636404 l0.3381454297614389,-3.3891291476332985 -5.5541929220518265,-1.000738101958009 l-5.207937608570822,-2.2901670719748592 1.458755645950729,-13.238265363855449 l-3.083402323004806,-7.587858100066318 3.638840486408047,-6.07363184038962 l-0.13344596278615103,-3.7653351304142704 -4.790737938058662,-2.262461892472298 l-3.423640613748368,2.4012129881910447 8.700669447391824,7.848399982631134 l10.817714175322935,10.84210535537844 -4.689274855558028,0.4359404138925124 l-7.240874950668632,2.1923009635570088 -9.471805145781113,-3.0589851133530885 l-3.8088079975154567,-1.8011507873863308 -7.32230088529657,2.24301280879717 l-1.3294434725089617,6.86163509207403 2.642813336018318,6.19242700458472 l6.967986680482867,0.9752355194387491 -4.0561001583281655,4.776138102551759 l-5.386801441535162,8.014487473512245 2.641427390103442,8.4005251260792 l4.671370983192077,14.152483029039724 9.653686169625457,-0.1990881977116854 l4.347843731437491,-4.913199883897144 1.6444427402157225,-6.897363980963702 l1.5266736615834233,-2.9779817128849984 5.916217247911195,-0.6008052355937207 l5.826164997295958,-3.1539005891690897 6.093562058348893,10.755336476364112 " fill="none" stroke="black" stroke-width="1" /></svg>