<?xml version="1.0" encoding="utf-8" ?>
<svg baseProfile="full" height="140.10820514010896" version="1.1" width="91.4380689430821" xmlns="http://www.w3.org/2000/svg" xmlns:ev="http://www.w3.org/2001/xml-events" xmlns:xlink="http://www.w3.org/1999/xlink"><defs /><rect fill="white" height="140.10820514010896" width="91.4380689430821" x="0" y="0" /><path d="M50.625860412739364,57.37070932164274 m0.0,0.0 m6.272554486175563,-19.275148392189248 l-4.271217400347455,-4.5330945160201095 4.531006673382725,1.1946398411241366 l2.085360473387895,-3.7259219586407264 -0.3860070604926402,-3.313720000341095 l-10.672564142257448,-0.27451261547076916 -1.0079637573070925,-2.4429516801049322 l0.23953991019661183,0.3519469083804923 2.861668925708979,3.301072851990828 l4.0624818583348405,5.414897128779685 0.9417101350888641,6.848955434593306 l0.006577379652981941,3.4934485636485744 -0.41773627250867224,4.264657772927383 l-6.407672172206744,14.679741743019802 -0.4401545110387962,4.822622292681702 l-2.2733665270656775,8.703885560050963 5.645379617566368,8.403358283522193 l9.259871564509147,7.456991768330001 5.782739349563291,1.5531061123920797 l-0.12950074697373795,6.847193396576223 -4.856969312933736,3.678067669157242 l-12.98621550845649,-14.194503342630437 -8.733224586081944,-24.087547078184354 l-13.90584827998389,12.687516298545551 -0.8263105086523076,12.496635313281264 l10.276183332353172,4.45460875784797 18.539526466424444,0.5545570838151216 l2.989541412689159,-0.3507494675167261 5.792548291395711,13.743865848165619 l1.718828853714065,4.983876240734467 -1.9974608871664827,-5.22223143657176 l-2.612582102728579,-4.799145950512351 " fill="none" stroke="black" stroke-width="1" /></svg>