<?xml version="1.0" encoding="utf-8" ?>
<svg baseProfile="full" height="171.181400617527" version="1.1" width="126.32215770573535" xmlns="http://www.w3.org/2000/svg" xmlns:ev="http://www.w3.org/2001/xml-events" xmlns:xlink="http://www.w3.org/1999/xlink"><defs /><rect fill="white" height="171.181400617527" width="126.32215770573535" x="0" y="0" /><path d="M47.439850910009994,26.11354217382853 m0.0,0.0 m13.789510086380794,34.295204209014706 l4.222781343686662,1.6101104812755833 -11.732590020743263,2.1840017912676926 l-8.296595328934785,-0.010237299684183448 -6.980741300868882,6.7307586832732635 l3.253466232891307,8.423470260242382 4.985915975643367,2.8131030350026185 l3.252410710482254,0.7187769660963039 2.27952819188041,8.622535744064011 l-0.36631537916678447,4.6440805670766245 3.2505326627934417,2.456668837980802 l15.008082220309381,-0.63916062730497 -0.6824409982782422,-6.093568357224199 m-44.42339530608566,-58.60377963724091 l2.370245720925043,-0.9690419061316091 4.9628427819894565,1.5890658335980437 l1.2767346523564433,6.437225809038834 8.305296603366005,3.3517469766677253 l8.741017658304493,1.0299023418412934 14.23088205547262,-2.5985239219997847 l7.196853776205666,-0.6865485304431371 6.357574462012152,-0.8395150835561411 l-5.509713793531132,-2.638609712089043 -2.5323140734096103,-9.021941437880809 l-4.962362331806535,-3.919267196713624 -0.6728812359178902,21.26971728976472 l0.3199858616086958,8.767636966458179 4.731132176171055,3.847489261430373 l10.899094075722108,25.97133580910596 6.332402819949161,3.0744526440408637 l0.8880080040229477,22.306032036703726 5.7329589202917,25.974370896580847 m0.16079620739905126,8.885660142380289 l7.493603364603918,1.0847055710620315 -9.170733191280117,-3.142613587967369 " fill="none" stroke="black" stroke-width="1" /></svg>