<?xml version="1.0" encoding="utf-8" ?>
<svg baseProfile="full" height="97.77143125663773" version="1.1" width="111.23494037531499" xmlns="http://www.w3.org/2000/svg" xmlns:ev="http://www.w3.org/2001/xml-events" xmlns:xlink="http://www.w3.org/1999/xlink"><defs /><rect fill="white" height="97.77143125663773" width="111.23494037531499" x="0" y="0" /><path d="M60.17408844430085,72.77143125663773 m0.0,0.0 m-33.48162715549096,-31.682528481925793 m10.694895783627866,-5.369798165629954 l15.875418351274863,-1.522687365383906 5.014406064107029,-7.317246230951446 l0.12949798961902403,12.01767760409103 6.414331601271535,7.7530810238714105 l0.8762703085095154,6.652679445010336 -4.572706103518965,7.83872139599253 l-12.549456136009486,3.004347202721518 -8.42392747924185,-7.407595176429378 l-4.478888169472712,-6.267804668548243 -3.2998607773217605,-4.263581146573565 l1.689729816955637,1.8818759699764405 6.947569354712811,-2.37392616343641 l-5.573695648615011,2.404544783443949 -4.310077176888508,5.474658599780736 l-4.444323922132091,4.517113420270117 -1.6816451456877795,-13.765717452120914 l1.3746815429397101,15.719884215608479 -0.0906875420985509,3.585849646710693 l-0.034866602721923025,-5.145385721335771 3.6263970819786153,-4.654534422074524 l1.894665538938506,-9.353287779317784 6.3063997387308754,-7.2072454155348415 l4.225839135511869,-1.2683508946031596 2.7300279877394433,-7.1278381426553095 l0.3283091417175074,11.07702829206552 -0.3836770930907718,5.1064205115443935 l-6.782467245323732,4.058737358276266 -0.8427723443271514,-5.59837617811616 l-3.8136641123181163,-1.38436293278272 m13.15612660836169,-3.380075139953623 l14.86144573531015,-0.8243165438688341 2.5197267498247116,-0.6746062904611008 l-1.0577068668885454,3.557118857445436 -1.047293159919465,5.010228605981292 l-4.325121793854671,6.50945585235625 7.786058176963544,4.1081302543720835 l14.950391345576545,2.4620573313103744 5.853128352264747,-3.9563549241836786 l-7.09817739610489,-6.332354668139303 m-31.153405703659924,-23.633067723440153 " fill="none" stroke="black" stroke-width="1" /></svg>