<?xml version="1.0" encoding="utf-8" ?>
<svg baseProfile="full" height="258.92069042066385" version="1.1" width="148.76238655954234" xmlns="http://www.w3.org/2000/svg" xmlns:ev="http://www.w3.org/2001/xml-events" xmlns:xlink="http://www.w3.org/1999/xlink"><defs /><rect fill="white" height="258.92069042066385" width="148.76238655954234" x="0" y="0" /><path d="M25,233.92069042066387 m0.0,0.0 m32.31661001358111,-16.139416422932634 l-12.749184161463546,-93.64821828595827 31.247495247250214,-5.568035718400723 l7.479740040093562,3.7057877991302357 3.4432257306622702,9.576336965589903 l1.7538560639718028,8.840099616352504 -1.741387292210364,7.563624894303663 l-2.0596369333963853,3.530586277454119 m-22.991446627007388,-55.75261119420679 l-3.767876512655076,-9.218073497548659 6.148454202462729,-9.906520835214849 l2.5395659246261313,-7.295254405405791 -4.1852137276949435,33.5572755610315 l2.0033820656125068,6.154975803691164 8.431061335583355,5.070907213342323 l10.88581260510883,11.529196472643127 10.172927607450827,10.605412845452175 l8.013299658402214,4.023022398210911 13.289244687058792,-2.726092101092017 l4.468366886723706,2.1554793741686478 3.5547880922539403,3.4880438069070916 l-0.6143312565804199,4.297229317436635 -1.284717077231099,6.876887778867526 l2.40834998693955,12.615782182296215 -5.132659195983727,62.00193791348069 l-15.65993158914073,4.047438640548959 -10.284108469590981,-0.9435862597328623 l-6.50204036726531,0.34516085523346646 3.162841053643648,-10.4199852432544 l6.34122593522052,-24.83379586672804 -6.122917092786095,-11.31135633372438 l-18.83911387648134,-17.084526579872986 -1.4281618024582026,-10.686431744102212 l3.623528859081534,-11.242092547044095 7.089103762951276,-122.12987910158604 " fill="none" stroke="black" stroke-width="1" /></svg>