<?xml version="1.0" encoding="utf-8" ?>
<svg baseProfile="full" height="153.3441154404588" version="1.1" width="90.46888132287026" xmlns="http://www.w3.org/2000/svg" xmlns:ev="http://www.w3.org/2001/xml-events" xmlns:xlink="http://www.w3.org/1999/xlink"><defs /><rect fill="white" height="153.3441154404588" width="90.46888132287026" x="0" y="0" /><path d="M35.89062482802134,50.450326550425544 m0.0,0.0 m21.961428769244353,44.96940906211543 l3.0089897596304316,4.208162942115306 4.326975215781295,22.99508370702127 l0.28086275019282747,-0.18510108208111067 -2.873466601295425,3.6844041230354385 l-1.7859991206156312,2.2218301378269194 -7.385603202007808,-1.2258173384059214 l-6.025958099152518,0.046320060935578174 -1.2775602888363424,0.03314113033810434 l9.561690208631637,0.9834705297656904 2.183664631343153,-4.150646288042632 l5.005798322829502,-1.4884340010703827 -7.54146632540842,-5.612931951502295 m-7.310861311394497,-47.48841008161152 l-2.1904284673068397,-9.417906544185776 -1.950780917052304,0.009522989159349154 l0.9124846493203285,1.34317426036672 -4.336231591003929,-3.1892987812134366 l-2.619350569845377,-2.081305193188856 11.136620997147872,-3.298650112678081 l5.007344115548846,1.5339313235172194 -8.93424000179148,-3.1017382545642023 l-13.148874236201019,-15.124975054499204 -6.895663515779993,-6.64242442341771 l2.0796537406830744,-2.149215512743766 6.098438603491522,-2.321922197417695 l1.680394405545157,3.128319424622113 10.504969631184187,7.950627507733252 l0.12627576480210734,42.131641641215296 16.133404647716805,4.018230325150227 l3.07230307090872,4.044568996898394 -2.4782732525953755,-3.8009472183081106 l-3.3795089215004745,0.06478870175710832 6.1169970231642,11.198645012221288 l-3.2739658861689227,-10.52553115545456 " fill="none" stroke="black" stroke-width="1" /></svg>