<?xml version="1.0" encoding="utf-8" ?>
<svg baseProfile="full" height="256.3916860096492" version="1.1" width="117.05525994720719" xmlns="http://www.w3.org/2000/svg" xmlns:ev="http://www.w3.org/2001/xml-events" xmlns:xlink="http://www.w3.org/1999/xlink"><defs /><rect fill="white" height="256.3916860096492" width="117.05525994720719" x="0" y="0" /><path d="M70.52297641133484,25 m0.0,0.0 m6.687247105766822,19.99492291784219 l-7.518526969656537,22.91086689355828 -1.44025915692241,14.659712335339714 l18.51557461047408,9.02435559074664 5.288247946210379,18.556131769260183 l-24.299050441013577,5.215570396993677 0.06962356439726869,2.0703846199731024 l3.6519861194688317,19.140071611417582 -7.20628495301237,0.33649907862687234 l-13.456892843884622,15.019064507791237 -0.9976953948681844,10.817468191091399 l-5.505020439708109,16.564768359340604 -10.498063294288693,6.56870347910707 l28.2531414833313,45.513166258560624 -16.12947332232408,-42.18515905487085 l-6.539734487823112,-18.893983209199856 -0.4187495872276428,-13.108158017928156 l9.000926945344784,-2.1975942031125686 2.8972770777513546,-1.3592189205063787 l-0.47287302958795463,6.731762471100089 -0.7090955555604213,8.069970469565385 l-3.694044172097127,4.923495556326722 -3.321972048699359,6.229234034406206 l-1.1392320973193548,7.437150515206816 0.3064270473002789,5.7928665648747675 l4.294710713513508,5.378034085470024 0.6733615275339564,1.8679843848388915 l-7.008333280869152,-13.13164973026739 -6.717848339310553,-6.040388529095069 l-5.461330309820097,-9.65214576561231 1.8550457423765758,-11.72205388094729 l1.5192827508672724,-8.492170140103555 -2.7586392305763963,-12.906995407575332 l-3.242710091101496,-17.379247529368243 m1.2775688590267853,-37.96566160316676 " fill="none" stroke="black" stroke-width="1" /></svg>