<?xml version="1.0" encoding="utf-8" ?>
<svg baseProfile="full" height="108.89211735246172" version="1.1" width="137.9092401913813" xmlns="http://www.w3.org/2000/svg" xmlns:ev="http://www.w3.org/2001/xml-events" xmlns:xlink="http://www.w3.org/1999/xlink"><defs /><rect fill="white" height="108.89211735246172" width="137.9092401913813" x="0" y="0" /><path d="M85.66273327429963,47.010782083568984 m0.0,0.0 m5.924748019895289,9.1681152790383 l16.133846551653164,11.200253279126615 5.187912345533219,-1.903729261731375 l-9.893804506345585,-3.548164560723855 -8.491232948891275,-4.174840441115636 l-3.240475295060524,-3.05021540153288 12.686085274844778,-3.719454584992331 l3.8278985425641396,-2.5075904406372382 m-35.076414673387184,21.323739359403223 l-5.480876829422343,-15.015604326270683 -5.7510145071289465,-4.099301203132872 l-7.399204351044553,6.555331820854414 -10.6121086689286,-0.10890169913982284 l-17.605578781003132,16.335434140976112 10.28410467381311,9.156531135746006 l12.78925753840304,1.2697321730247484 -4.589424795644842,-1.53242413217623 m5.738023386855691,-17.87034244410326 l7.996730488649618,-1.9406846982337678 3.638689900765525,-6.456695551826648 l-1.231941412076052,-7.155594325365171 -3.048114408012598,-3.6941770719925 l-3.433014126883414,-0.5176043555632106 -4.087252886402051,1.8146572948449693 l1.7008203117913938,3.731142860207298 -26.630392118837502,-25.270394928253193 l4.2668873204416595,15.831467609031044 -0.21015099247457708,3.9563521172919125 l10.296184478517793,-3.380037249227668 7.106197696507038,-3.2744451241954486 l5.862883503344345,2.4880160813498278 3.5987341080056012,3.7839384286482636 l4.458818290315321,-0.06379794803267613 -7.569806930282544,1.9503486601625486 l4.674907668534859,-0.4190377854539448 " fill="none" stroke="black" stroke-width="1" /></svg>