<?xml version="1.0" encoding="utf-8" ?>
<svg baseProfile="full" height="178.02831663235858" version="1.1" width="123.72216379153977" xmlns="http://www.w3.org/2000/svg" xmlns:ev="http://www.w3.org/2001/xml-events" xmlns:xlink="http://www.w3.org/1999/xlink"><defs /><rect fill="white" height="178.02831663235858" width="123.72216379153977" x="0" y="0" /><path d="M33.396963125415425,153.02831663235858 m0.0,0.0 m30.014987139897354,-38.40592373812794 l3.874855341800945,-2.969768361007201 11.65537946024347,-3.8306563410913865 l2.4852925573254034,2.418917474504738 1.8885300992789296,6.388858729936475 l10.968727803195508,4.4501593182474615 1.4907431999302194,-0.9216782446797667 l-5.6673812127113665,-9.975637308269901 -4.372206188997767,-4.718349819769547 l2.595690426154007,-7.943265241447663 3.8983082713370973,-7.087329223889453 l-5.533370552756997,-2.9294842917825568 -2.027645792625249,2.3827747072482675 l14.053290114052807,-5.008983743662463 -20.425795934063718,-13.339164831148445 l-10.195079766953201,-8.693163894489127 3.448629166815478,-8.100631336476031 l3.500979960624636,-11.165036832914865 7.7084191360193355,-6.969725213050286 l1.9019503215004088,-7.506926293919746 -3.5959099082558104,-4.10330214656915 l-1.7007520137936096,4.27140466306325 6.951497594222214,0.5444818945350224 l-1.2781651138230112,0.9889960495717699 -14.792899870067266,29.98973131660705 l11.972026964821541,14.537296694366564 2.4674023421649984,12.232225590141615 l3.895350896335157,2.779317614339558 -2.999106874579933,2.446061952657593 l-10.481989667871913,6.872860356598058 -8.223968004484492,-4.056894084901725 l-7.168069315638809,-1.2308176522616792 -0.9325860869144792,-7.8443014172321295 l-6.694869191693385,2.525773322240523 -12.545534311385907,-2.7544321176827036 l-4.712669846785465,6.4577416052425205 -9.048587047726654,6.806693941524858 l-0.772437220005876,7.867191257626652 11.14466498506367,2.0521903300603226 l14.771063121879468,-31.924675258278672 -6.353190880733412,26.338273986793485 l-2.3720774943807887,4.271287805568999 " fill="none" stroke="black" stroke-width="1" /></svg>