<?xml version="1.0" encoding="utf-8" ?>
<svg baseProfile="full" height="333.1953083395978" version="1.1" width="113.62603741623931" xmlns="http://www.w3.org/2000/svg" xmlns:ev="http://www.w3.org/2001/xml-events" xmlns:xlink="http://www.w3.org/1999/xlink"><defs /><rect fill="white" height="333.1953083395978" width="113.62603741623931" x="0" y="0" /><path d="M64.9976422544189,308.1953083395978 m0.0,0.0 m2.0763284739026373,-19.138547683366454 l2.4809504522466863,-0.7085934560806173 19.071116235671077,-90.44245577548537 l-1.0134189559546143,-2.5835157032906233 -4.247551165446909,-8.382110301926046 l-8.175213743616245,-11.424327685006856 m-8.54962027740615,-7.841683830104726 l-5.9631680264472084,-9.211148061605057 1.252242350965218,-2.20358282724751 l2.7500021220936848,-8.183708558268217 -5.156229594724575,-15.924016756965555 l0.7857866393780655,-2.125826478604943 -3.778837299972774,-4.596618148981684 l-5.245409928530931,-4.156152022336217 2.8319377601489846,-7.371974033343022 l-6.058680445470853,-20.270135792877902 -12.151462172685902,-6.3837969241236046 l-10.906414678569098,-0.9137491151075849 3.24661329577132,0.3134103870047386 l3.961346954067526,-0.49468576172038453 -0.05407003187382575,-2.5704223204559598 l5.652030782939746,-6.292034376165969 10.66175998343223,-10.484290819452335 l5.204717145647916,-10.92856314703731 1.701279028116952,-15.39425410864097 l10.118265902188119,-3.8858521039394356 2.6028923725648117,-11.596672934468133 l0.26191745550082773,4.107080343811829 1.6993072193056724,9.235826266634168 l-6.633717314163515,4.301957862683811 -3.663283680338593,5.208026307688109 l3.232488827947871,-0.3426965084192801 1.5188636344999145,-9.378249128675908 l-3.1055247048849752,-2.133784847403216 -0.8317378170099673,2.72977250590385 l-0.19987002582523755,2.3893209870003216 -3.5176780270435635,5.050686239382945 l-9.816962101550878,-3.5384004809795675 " fill="none" stroke="black" stroke-width="1" /></svg>