<?xml version="1.0" encoding="utf-8" ?>
<svg baseProfile="full" height="285.9509179606843" version="1.1" width="227.9211799879578" xmlns="http://www.w3.org/2000/svg" xmlns:ev="http://www.w3.org/2001/xml-events" xmlns:xlink="http://www.w3.org/1999/xlink"><defs /><rect fill="white" height="285.9509179606843" width="227.9211799879578" x="0" y="0" /><path d="M175.3521855135853,258.799987465992 m0.0,0.0 m8.362296365809083,2.1509304946923384 l-2.2365126621595453,-49.41782774545045 9.689040109956455,-8.554170553763162 l4.152030145654878,-0.3092737198923508 7.602140515111607,-16.62538109289618 m-30.229991500268966,7.636953285528012 l-11.4340804571489,5.664159681808837 -0.15354705251449274,-11.400468078799548 l-2.4211431372885253,-10.745589236897176 -3.090688338701717,-12.756282444517367 l-4.990827252008973,-4.408962669336929 -7.587158731102674,-12.891854094088044 l-9.125456071676094,-8.220582206785691 -15.794411110131307,-4.607549534971829 l-19.871265575469874,-41.94164881274167 0.808784887262779,-10.618226597326549 l-16.93877020885737,-0.025223333818198412 -6.563498978457041,5.943444109238759 l-24.05152718244889,0.689367910466479 -1.5273143363240893,-3.2333449836427843 l-3.7859984655694943,5.087365823390001 -14.441550238273413,6.339302462614099 l-4.968947351399633,1.9725933412205436 8.016304384757667,-2.2182084394349917 l3.914021613816793,0.06740668042461428 m2.559898643699463,58.232909113421414 l-12.571976049210921,11.411054553398998 -3.6162362933236625,6.1086130264630905 l-0.055801187318450275,8.675101784163283 8.685823032912076,1.8252397133226483 l7.13218040144979,-5.870592561509172 -13.703202813088446,-11.253246299632869 l1.2386142235658992,-3.641186129203312 -0.8795176687045966,-22.13615918231051 l-1.5788948825051954,-10.229242535732768 17.194158093141812,-37.29192229945081 l-0.47986520603468114,-2.098031130631217 7.548806546583797,-65.1094557633115 " fill="none" stroke="black" stroke-width="1" /></svg>