<?xml version="1.0" encoding="utf-8" ?>
<svg baseProfile="full" height="352.4621009112333" version="1.1" width="244.74610919724537" xmlns="http://www.w3.org/2000/svg" xmlns:ev="http://www.w3.org/2001/xml-events" xmlns:xlink="http://www.w3.org/1999/xlink"><defs /><rect fill="white" height="352.4621009112333" width="244.74610919724537" x="0" y="0" /><path d="M29.58957655286287,327.4621009112333 m0.0,0.0 m-4.58957655286287,-62.700682968671074 l43.83848538690399,-52.55579664750482 26.46644395633251,-60.41278204189963 l22.1704456839285,-10.422704764544926 2.803892139090951,-51.24644402380796 l-4.405060425711829,-2.8418588777537668 4.774458037105836,-46.74440598777289 l19.899534342301745,-6.724392730483239 9.463938574865455,20.2461980348801 l1.7397150796280625,-0.07393203749875288 11.536567440463216,-1.3455956826071385 l-1.5753875313985033,0.40685510094066346 -6.020021024349465,0.7213918200396331 l-5.7418743231067735,4.288810918258805 8.724503431946053,7.553895678495619 l4.208520552060489,9.132937927383752 -5.746356435271684,11.806799013348352 l-7.261868918021048,5.543694134565236 -5.562003234284194,1.0030047280567316 l0.919891704348438,0.9120428985164053 0.22838476670795638,-7.305597874086308 l-0.5759547910034509,-0.8886677719857433 -5.397877608841637,0.2540085734843023 l-8.636977321522116,-2.504025952422806 7.076470058411856,-7.183174094885427 l3.4603422168213402,-18.3189972256302 2.302632181051818,-13.23770427194574 l11.636888878954945,-6.539371112246833 1.9444333189029521,-6.539383848221267 l13.223458320591119,-6.57680215310329 10.567616855803482,-0.16941967213098708 l8.519741248197844,2.5777585656704685 -35.2496070235072,19.82286516985199 l18.038733448837473,19.877144659190392 47.37400021100721,32.67071754488517 " fill="none" stroke="black" stroke-width="1" /></svg>