<?xml version="1.0" encoding="utf-8" ?>
<svg baseProfile="full" height="172.5417618434169" version="1.1" width="146.88206300687295" xmlns="http://www.w3.org/2000/svg" xmlns:ev="http://www.w3.org/2001/xml-events" xmlns:xlink="http://www.w3.org/1999/xlink"><defs /><rect fill="white" height="172.5417618434169" width="146.88206300687295" x="0" y="0" /><path d="M79.72667076071457,117.05868439624675 m0.0,0.0 m-1.8523218674596231,-41.82929344442798 l0.7133884141004887,-0.5213568523182429 m-9.03740663551658,-30.18349809483031 l-10.95131332537651,-10.486989564021844 2.978112571698197,-9.037546440648367 l4.51588974427132,17.810660809430424 -2.5746820271523054,7.422757245836604 l-0.769306868948401,-0.08404086102534847 2.355031786335684,4.343086899103166 l10.34495415942347,3.0703839468917002 4.2982521443379405,4.843454262652001 l-2.4815016677355515,8.518583364198438 -2.921530389735328,2.731443301532146 l3.081902442997402,-8.960757239405197 12.321081773574587,6.146618017565779 l11.064460228521996,2.3806194133648435 -2.408089172073079,5.443677789830481 l2.4536165659845532,-1.3114495211504 -1.9284843209138296,7.243628078605819 l-5.055701402727949,2.3662946028212026 -3.647798858975996,-3.509429953900492 l3.617114159962048,-5.471885754887272 4.193986857047083,0.5367512694575599 l1.1770907425022858,2.3039208675732183 1.2526389875688004,9.821022141756933 l-8.275939445149705,6.431519591820032 -4.738988643742193,10.37255987250508 l1.1142269512848446,-0.8462932264718981 17.587563405297974,5.3063945575550004 l14.176856676365096,14.019470297819785 1.5522892603916687,-17.110369144681844 m-35.16937675385372,-4.528531285657464 l-3.9739026204944725,-6.024229858158854 -12.293209980363375,7.236625865088953 l0.3987419706067935,20.879902736132625 -2.2575979748673256,6.553966868676358 l-14.812172412071911,0.38019822093610245 -14.620830786247586,6.688531890661078 l-3.6990469767212044,6.378012073548736 -6.352949443369582,1.1586647033916186 l-0.23821707591399233,-3.2134639657437494 -3.863500953576576,0.2497436650239218 " fill="none" stroke="black" stroke-width="1" /></svg>