<?xml version="1.0" encoding="utf-8" ?>
<svg baseProfile="full" height="240.48332807241584" version="1.1" width="150.22681276233257" xmlns="http://www.w3.org/2000/svg" xmlns:ev="http://www.w3.org/2001/xml-events" xmlns:xlink="http://www.w3.org/1999/xlink"><defs /><rect fill="white" height="240.48332807241584" width="150.22681276233257" x="0" y="0" /><path d="M58.0684636912485,215.48332807241584 m0.0,0.0 m25.826153943482048,-6.44698032432031 l7.23362650724759,-105.25056504911392 25.322701178747757,-7.912055115512711 l7.405917159087639,3.4568600281069033 1.3699502825190442,7.598629446122161 l-4.556542987029777,7.53657696661274 -4.684220392625917,-3.722726491499988 l-3.0543644771588654,-9.644674328083985 -0.9833682025918827,-10.800817256876476 l-5.348513441508938,-10.526044549719161 3.981751670130315,-9.698799904919573 l2.434991590928437,-3.607073629732339 -0.24067069609435832,-10.293963893509055 l7.466663079760214,-5.46109194674032 0.9526922011869606,-6.583288464982806 l-4.8333684946058995,-15.42938874560484 6.0296652284925,-3.6979248126421904 m-29.7120486240934,52.31893657521173 l4.079349175172191,8.432628998578103 7.263203822611322,13.518540366579499 l0.20318722517586318,4.849503111436535 -0.6510412715343036,10.968047321222732 l-1.4839174905053258,9.036261235530654 -0.2032485071478067,9.104823292828906 l0.5462550978718389,6.341294995210077 1.2294053118427055,-0.7681322221649489 l-0.5922387034517806,-1.8270204995470933 -0.32610115258228767,-10.526966305358494 l4.9720914678448995,-7.534076311040068 2.9464563791014986,2.096623197964751 l-1.4944015779633701,10.451368071401056 m-30.477547507034917,6.772124788759022 l-7.737869793660375,1.207344203610799 -9.448786210486636,0.20875782252304742 l-4.9975815631733855,-9.171658716516669 -9.437917656473145,-5.2357733147265995 l-12.904648029188634,-2.5285943610574644 -9.164128233540325,-7.49640260719359 " fill="none" stroke="black" stroke-width="1" /></svg>