<?xml version="1.0" encoding="utf-8" ?>
<svg baseProfile="full" height="253.18898693833552" version="1.1" width="149.24031617970462" xmlns="http://www.w3.org/2000/svg" xmlns:ev="http://www.w3.org/2001/xml-events" xmlns:xlink="http://www.w3.org/1999/xlink"><defs /><rect fill="white" height="253.18898693833552" width="149.24031617970462" x="0" y="0" /><path d="M80.61884058687481,228.18898693833552 m0.0,0.0 m0.4058812379459646,-26.76303980061336 l6.180118133249947,-14.805030203563538 10.645232537928937,-34.12058200801217 l-0.26268412463002117,-18.877317934371145 11.757122870550456,-23.355883485868976 l11.959475937916313,-14.920241982805537 1.393176956791437,6.736350148869748 l1.5431520430767844,8.483567557896505 -3.275448337745051,8.415702154159062 m-44.346089978793024,-39.893330117989485 l0.7825186031022037,-1.256097158101474 1.2875757642894192,0.2007143289284477 l1.4070101369980708,6.4417494683035175 -6.829957089402892,9.722929610727324 l-2.3278635468776145,10.743559269206685 -0.3087993670767841,4.3240904668562905 l-0.8670298528895715,2.91161752704136 -9.422479362015775,-6.464663729592257 l-7.290122311585581,-9.677749015550093 -5.346001838645186,-7.390061464080235 m2.465603948796906,-6.497803833338804 l2.807351621086873,-9.690466285042527 1.8939007180765717,-8.719179755246383 l-10.394525389021034,-7.3840808994781835 -9.0142613139813,-8.078860701543649 l-0.6187922215719218,-17.33293729975876 5.673184783497547,0.9377777826784911 l2.3277224326369406,2.366121186417569 6.315743616043514,-1.308708995410257 l1.466473075346823,-7.937131769053689 7.446658058402571,63.57859561588871 l0.7333129529154048,9.477525839304205 0.010727157188234436,10.073711893822779 l2.1183108422195693,8.001634956797282 17.36514340050837,14.645049128109914 l-14.863874154559506,36.06244153473489 -14.496202528800774,12.199408803717173 l-23.940105997847628,0.8037468864012604 " fill="none" stroke="black" stroke-width="1" /></svg>