<?xml version="1.0" encoding="utf-8" ?>
<svg baseProfile="full" height="278.99970484618376" version="1.1" width="141.98205225951833" xmlns="http://www.w3.org/2000/svg" xmlns:ev="http://www.w3.org/2001/xml-events" xmlns:xlink="http://www.w3.org/1999/xlink"><defs /><rect fill="white" height="278.99970484618376" width="141.98205225951833" x="0" y="0" /><path d="M68.43717344471276,232.53725784969842 m0.0,0.0 m-1.3574768878703098,6.31631637888377 l16.84259175100479,-40.56995209742112 -39.59506952628666,-33.95214944783414 l-11.606627270849987,26.89513626376052 -6.4927483105279045,58.923409828450545 m-1.2278432001826844,3.8496860706457645 l13.851463525707263,-39.3380152688858 17.06216161529622,-39.57812364381004 m-16.185380330707506,-121.6158258581377 l7.027579010713746,4.292920799901504 0.9523980065415744,-0.5636265729244722 l11.633806369710344,-13.318917298429037 12.720983709370435,2.3271055786644768 l7.4188583450413965,-8.850935353562251 9.762114850754543,-3.2331671351633395 l1.918702872605057,-3.001706856966354 -1.3181239938289746,-5.076057192458796 l-0.9011996445184786,-1.0433560444119727 -6.619242545567451,1.3793174409866893 l-6.071480549836024,15.617749527571418 0.4131321401533139,3.5269917600725096 l-0.34590987534323075,13.971851939326235 1.730382966023009,2.306083567995404 l2.051595966012454,-11.913234172246904 7.88064452904111,-10.361423337422467 l21.207606951689296,-0.17218578038495913 2.301758787389209,5.402395714017074 l3.742405193138154,1.0609835234460556 1.7477943601328738,1.6696004829843207 l-3.536924964560996,4.705395173509302 -6.958259917395316,-0.09818825424244726 l-12.972518747840223,5.9423044127579665 " fill="none" stroke="black" stroke-width="1" /></svg>