<?xml version="1.0" encoding="utf-8" ?>
<svg baseProfile="full" height="246.20501873525598" version="1.1" width="127.17621803256839" xmlns="http://www.w3.org/2000/svg" xmlns:ev="http://www.w3.org/2001/xml-events" xmlns:xlink="http://www.w3.org/1999/xlink"><defs /><rect fill="white" height="246.20501873525598" width="127.17621803256839" x="0" y="0" /><path d="M25,165.45710468111528 m0.0,0.0 m18.11017213352601,55.7479140541407 m4.758506074661191,-11.208765368958549 m1.627914221277893,-44.25759811346557 l-2.6030355583618947,-45.25908931625752 m-1.8482334140640533,-37.94115214322057 l0.893784731089754,-15.950027537662082 6.165663808923448,-13.46181688108039 l15.912243816116662,-7.484159770390122 -4.55940179045846,-10.508155623932238 l-3.584647376880924,-10.134253980288937 -6.371404686942044,7.930747454075073 l-6.275024142298891,4.153494074431163 -7.1936122111312395,3.245310869200224 l-5.241723970669674,15.577295146981502 5.978023045545704,17.71824098628211 l10.141319716644697,32.51644216491554 25.72837935280198,0.8304341223893874 l-1.8496190468014295,-5.791174581062549 12.756493174355771,-0.863303195350843 l3.6502643993034405,2.9097002252606563 10.980155755930433,16.59616937575257 l-1.1359436746796567,-5.737401430562352 0.6500250863572311,0.8034221662564622 l-19.093244755955247,9.370708564282843 -19.547348959920694,7.33854166332121 l-17.960570700302892,-13.971915141526386 -12.04754976609241,6.297238336720865 l5.394630074020898,7.01706541085055 1.417617412612564,-18.117711466629896 l-9.499097540510014,-8.264874452781372 36.37756361846919,-27.375695508584467 l-0.1831093275645393,-16.245535849342204 4.4138867107736655,-10.024086180610292 l6.290468358497306,-8.097478070783609 19.66495190713278,-6.276129925284556 " fill="none" stroke="black" stroke-width="1" /></svg>