<?xml version="1.0" encoding="utf-8" ?>
<svg baseProfile="full" height="212.13909412233693" version="1.1" width="313.50110285410267" xmlns="http://www.w3.org/2000/svg" xmlns:ev="http://www.w3.org/2001/xml-events" xmlns:xlink="http://www.w3.org/1999/xlink"><defs /><rect fill="white" height="212.13909412233693" width="313.50110285410267" x="0" y="0" /><path d="M247.55116811298475,175.9142368577712 m0.0,0.0 m7.656660343880311,1.2639642145836882 l21.150266634184888,-10.447245121721075 2.4119136206650014,5.929348465897388 l1.8690478198211546,6.851372992703758 -4.428809858486976,7.627416713101982 m-28.718644278223262,-32.356874168973135 l1.8592077696609781,-2.3015758456287583 8.016945052768525,-2.4392502423951976 l12.543918325643949,0.8543893083471643 9.135684334877563,-2.8304460810780783 l8.589006308294769,-1.260243054859818 0.8647386680310531,17.128640534643612 l-1.3014962034180177,5.394508459714906 -17.683824900076193,0.5415672111549552 l-2.8278243330438433,-4.861335960077864 1.862459339479846,-5.833537886846558 l7.865252238131624,-5.0259187130965115 -7.01843061230923,-13.865881982182303 l-12.42300113701837,-10.817956615383753 -3.3917208536858725,-3.5971396202614434 l-12.479752532256544,-8.603695203219917 -6.079956303918485,-3.435207446995303 l-13.886873543786642,-6.145542122682431 -14.395947527184218,-7.950204944138723 l-14.53497855390314,-7.783213904656578 -9.643823363703728,-8.5260752936991 l-14.175307943248162,-0.911269255513642 -22.0749526323522,-11.038304666963203 l-17.98178137957615,-8.360422898488359 -14.623036774961538,-7.316481163405955 l-4.1105273973362815,-12.052000997003704 -7.781802991794644,-12.37331739261534 l-10.851927426171732,-1.9412000960379554 -15.726821422061095,-4.43110407999392 l-23.623862708180347,14.887948951638203 -26.611163891727692,11.282550482196658 l3.8498388211993464,4.59793014371658 11.978916332022512,-2.926343505746958 " fill="none" stroke="black" stroke-width="1" /></svg>