<?xml version="1.0" encoding="utf-8" ?>
<svg baseProfile="full" height="192.55486831949284" version="1.1" width="208.2123218080991" xmlns="http://www.w3.org/2000/svg" xmlns:ev="http://www.w3.org/2001/xml-events" xmlns:xlink="http://www.w3.org/1999/xlink"><defs /><rect fill="white" height="192.55486831949284" width="208.2123218080991" x="0" y="0" /><path d="M159.3995895638176,167.55486831949284 m0.0,0.0 m12.582813149738984,-33.2036323743578 l-3.7681348216324175,-5.092088542287089 m7.956599371624776,0.4865203791553713 m7.04145454455013,-49.95905410284108 l-5.559787642483697,-45.5401838674459 -1.6297430804307713,35.44339556528013 l0.8608326551617455,2.0814261596823105 1.4951477011740055,8.753745170743144 m-38.3861506479912,-25.499813043268073 l-0.9510662680449158,-9.498883172317246 -0.9538045503281539,-18.356139141522007 l-9.255269883477505,0.7378058726248149 -6.242955610921464,-2.9079672229394093 l0.5610831362980906,25.651671692358338 12.196627864323858,7.464650386721498 l3.363287438946002,8.181008168450745 -15.251625844595518,11.881236115680718 l-23.147425505653437,2.239500931528096 -5.416511944875295,4.0467252301703205 l-7.126128085629545,-22.660252812764092 -9.797176725452413,-11.73123430272551 l-10.012143689819963,28.744756774531 -3.130791016606248,7.872109055958553 l-11.766276346354516,9.467157930091187 -0.03907101806688851,6.858542656701074 l5.2730736094871515,1.479199393309516 -2.3989405735894462,-8.160184705993084 l-10.104687165875127,-0.5085754962164618 -20.79281861329384,-9.29805957400385 m20.624968943776707,-44.06494827838522 l10.535780147514313,-5.375725536092954 8.644858884696022,0.46521624232278125 l4.1473494440254655,2.4210612257735082 13.94988129050429,3.5043216344601236 l3.886078597953021,5.976609791390821 7.970624449187189,-4.273521397229506 l1.0204752283704555,-6.559957469524741 -4.657944458671729,-5.500084666574266 " fill="none" stroke="black" stroke-width="1" /></svg>