<?xml version="1.0" encoding="utf-8" ?>
<svg baseProfile="full" height="213.39679740552162" version="1.1" width="160.7505438921127" xmlns="http://www.w3.org/2000/svg" xmlns:ev="http://www.w3.org/2001/xml-events" xmlns:xlink="http://www.w3.org/1999/xlink"><defs /><rect fill="white" height="213.39679740552162" width="160.7505438921127" x="0" y="0" /><path d="M58.11295045965928,152.91369506945114 m0.0,0.0 m-25.444870697084365,35.48310233607048 l-7.668079762574916,-40.84982795307237 15.935011092143842,-1.4900984831317454 l-8.892990822546926,-30.21889700467002 2.8084190280755443,-15.47882386616946 l32.50520901124931,-24.35712697760634 -2.6235960913120526,-20.557647912565645 l3.9708735308287793,3.892612854975488 12.31249952065626,5.5676218051280895 l9.182882921409421,7.4260896082432515 10.530135557434344,1.4919591535995727 l6.303062439337029,0.5106311931100184 6.979518485813108,-0.4281237829303274 l7.76419249121876,3.451301032192912 5.2780618611772585,9.706066818519018 m-4.568984119586063,-5.9544124464635395 l0.8361987965622949,0.3181466761444741 12.430050189651785,-4.046855641522681 m-46.84969253906267,-42.33449984601792 l-5.87869678086804,-3.9276990246598573 -2.9208020572397935,-3.557915515257165 l6.084413527972157,-2.55929809336738 -0.42258773193225185,4.099045127813033 l-1.016336038701911,10.04945165113886 -10.820640998341734,12.575523722293822 l-10.498215928398187,4.644132312210523 5.3173084452597115,7.8162564857663615 l2.426391187693696,10.110386195362736 11.528633006186082,8.770057127844902 l-2.70900638895744,8.86669021633027 -15.018870587808566,6.0089121486539225 l-1.6621969602573095,0.20271047993640823 6.515143212153305,1.1279937283119246 l-4.293058641850506,-3.3002053089872176 -5.891820169363601,-6.586635376576102 " fill="none" stroke="black" stroke-width="1" /></svg>