<?xml version="1.0" encoding="utf-8" ?>
<svg baseProfile="full" height="172.76781137136544" version="1.1" width="177.99168086756538" xmlns="http://www.w3.org/2000/svg" xmlns:ev="http://www.w3.org/2001/xml-events" xmlns:xlink="http://www.w3.org/1999/xlink"><defs /><rect fill="white" height="172.76781137136544" width="177.99168086756538" x="0" y="0" /><path d="M25,147.76781137136544 m0.0,0.0 m22.367612159024123,-9.04214816669181 m17.66946212957371,-33.651693742352734 m15.593391421876063,-13.015203991470171 l2.606698555547287,-7.658464287854552 -0.2982875365240007,-2.9461499323767586 l-0.035405588548722,-25.97695987248566 1.6082185606440749,2.0576955447399934 l7.338589977013177,2.9427237102807813 9.82232588066139,-1.7046578504857923 l5.2639616141545,-4.217527317074271 2.3363559966891647,-3.14045432398029 l1.725331784393768,-4.776753472644585 0.767949023968137,-2.471727774933386 m-9.714066581744452,2.803775623838268 l-7.160960241601726,1.175316983023258 -2.426655345157983,1.7041539981479072 l2.4904031447715647,2.538166346778511 4.208644243266787,0.08018004913551594 l6.262688441412661,0.04841821447297917 4.674842709104631,3.3495843968789996 l4.970648412008442,4.1452440804877035 -1.1891875630194675,3.9021566703472637 l-0.620477653062755,6.309481739334398 24.07369615272516,3.6389838222017765 l11.54740382818695,3.457680756563243 -0.9668519489928242,8.920518961916343 l-1.571992866131352,6.427138972010844 2.0823907031144704,1.7388092803189874 l4.564951454212583,-2.510272656606741 -0.08413903596950378,-5.475841641004952 l-5.2632318525278015,2.390737816567896 -7.076546587243283,2.6780675983192364 l-8.32721078454378,0.29679440209364527 -10.461405292957986,-5.8778877140196535 l-9.927334805840134,-8.788610116839894 -6.922809034398203,-11.938691629516606 l-3.576684806181897,-13.186490703066482 2.7429012310624254,-26.993905145418662 " fill="none" stroke="black" stroke-width="1" /></svg>