<?xml version="1.0" encoding="utf-8" ?>
<svg baseProfile="full" height="175.36865235719011" version="1.1" width="91.50584298846206" xmlns="http://www.w3.org/2000/svg" xmlns:ev="http://www.w3.org/2001/xml-events" xmlns:xlink="http://www.w3.org/1999/xlink"><defs /><rect fill="white" height="175.36865235719011" width="91.50584298846206" x="0" y="0" /><path d="M44.068211091892294,63.04280894513657 m0.0,0.0 m-7.8068045188546025,10.600854200895675 l10.323048871732604,-0.6269099682149765 -14.30824550827013,-48.01675317781727 m-7.2762099365001625,16.117941929842335 l0.8976887087771648,15.007984284780974 7.519707799277746,1.1790280380077822 l3.810231726922929,8.912559126208274 1.5115080419536504,15.57168533008532 l6.005449527525613,10.439070666702651 -1.3764610021032724,13.126164870230538 l1.7896319798381448,1.288075822329916 -1.1404717619646538,7.781067531792225 l-6.430490455546749,11.373784909916921 -7.71869337194223,1.7129538460785887 l0.8179737204365728,1.8965417221521723 6.68772887382995,1.9868393400533653 l7.327873063260346,-2.0919601306107305 3.5166675717203155,-5.1917984626189035 l-8.879313661323414,-13.131461638226098 4.366278588876075,-14.219915751558707 l10.265308112017223,-2.506093454546392 12.535225526906656,-10.748313257681485 l-12.607296073865399,2.957458266298041 -2.9646408641748105,13.871003458685705 l7.826949617927379,25.47947224379808 -16.11170913945654,3.148853945822004 l-0.20131205173401945,-1.1016607877154028 8.33184901929655,7.821998238107734 l5.784475051368119,14.687372269255174 9.373992872250003,-0.45801596496834573 l-12.64028827835306,-0.3561462803061055 -9.626566841856452,0.6480708090594819 l1.4028690743672634,-4.349022828777572 7.563124871367537,-16.85571201406962 l-18.095217881793474,-11.777579495910228 " fill="none" stroke="black" stroke-width="1" /></svg>