<?xml version="1.0" encoding="utf-8" ?>
<svg baseProfile="full" height="261.08453833114635" version="1.1" width="147.22875290778683" xmlns="http://www.w3.org/2000/svg" xmlns:ev="http://www.w3.org/2001/xml-events" xmlns:xlink="http://www.w3.org/1999/xlink"><defs /><rect fill="white" height="261.08453833114635" width="147.22875290778683" x="0" y="0" /><path d="M110.82694571933771,236.08453833114635 m0.0,0.0 m-20.657550123717243,-105.60733694324911 l8.898966515163345,-67.68198186160923 -14.283197639604216,-6.898902020177878 l12.829829523305976,-10.441904943708568 10.722268967419751,-1.8959156247853806 l7.347972459133551,4.354271701816404 6.5435174867479615,8.13989365268813 l-6.346820601329802,8.490069121648403 -4.362372191294676,7.741187510956472 l4.812444427088565,7.333158361466608 3.5882690641832107,7.922252181525639 l-4.556021810992209,4.078502555302225 -4.88850954829271,5.506248616668687 l-3.0483775411144287,-2.093320864976196 -8.304403251859364,-7.523659600569046 l-6.554345690979007,-5.011043247308331 -12.868672466738293,-6.120570155964377 l-0.321484505595907,-0.6855778041749668 3.723983630460761,8.19170180091117 l4.426543458280549,10.19582460491352 7.907692758403336,-1.4465827657621233 m-30.38618110991915,-8.480875722635643 l0.6511435915620634,-3.713626442380087 -3.1792471057000347,-5.547288315941034 l5.862225118042909,-14.085608295299181 9.64501771767386,-9.66593027925256 l-7.5067047344963544,10.393992392700548 -29.997925839803322,4.609857040045695 l-1.452251532713235,4.26761306453646 -3.6641363087726995,3.092360308186005 l-5.854196663349421,0.5941337170725878 -1.4370636891000945,-9.844597063768127 l0.5134748737042372,-14.874043165934944 -3.6308329551356064,-11.802491738597084 l3.7005646957192755,-12.574348105491087 " fill="none" stroke="black" stroke-width="1" /></svg>