<?xml version="1.0" encoding="utf-8" ?>
<svg baseProfile="full" height="142.7267715024648" version="1.1" width="113.21737285775808" xmlns="http://www.w3.org/2000/svg" xmlns:ev="http://www.w3.org/2001/xml-events" xmlns:xlink="http://www.w3.org/1999/xlink"><defs /><rect fill="white" height="142.7267715024648" width="113.21737285775808" x="0" y="0" /><path d="M68.36553119544692,117.4511607506058 m0.0,0.0 m14.710138928963916,0.27561075185900563 l-24.35462220284573,-15.680097699672807 -0.6653668917774731,-6.2056178376055255 l-0.07425943005406846,-0.28751699859782937 -6.940023015236909,-0.4052735278870549 l-3.4237958394565027,0.8334130471400122 8.830884715770786,1.1692854894275653 l1.1580755999115697,-4.952472571812265 -11.386744418207867,-10.209854941752507 l-7.292322680091973,-1.7444624764722783 4.623466481410993,5.923903943389664 l9.978728742134644,0.6640249256076105 2.3472721118466477,2.5087917675796576 l-1.1370053841803989,2.5177101609104566 -2.0945757636857714,6.448938373737866 l-10.390150285269423,1.3504243287543234 4.263135314513506,6.065351934705548 l13.29035663337444,-0.18929862229291466 2.6752709518524513,-4.307738442308866 m11.841267730456373,-36.878561002698405 l-1.2872165477170063,-0.9932421196439536 m8.133586686413327,-26.11669650779115 l7.045740224185614,1.7371196462846596 -9.217126881074277,0.14089826867640265 l-9.824243036790886,2.3052787122578864 -14.351970206352275,-8.20303779933695 l-20.16036394452933,1.1423559350708723 -6.502769571380383,-4.011095908506927 l-1.0911168489408711,-2.9463904516285364 -0.5065950664996199,0.023749400355027456 l-1.5631873021904312,4.3414136307288524 1.3157706705476706,-6.768074159083229 " fill="none" stroke="black" stroke-width="1" /></svg>