<?xml version="1.0" encoding="utf-8" ?>
<svg baseProfile="full" height="171.6003162868321" version="1.1" width="115.45529412196203" xmlns="http://www.w3.org/2000/svg" xmlns:ev="http://www.w3.org/2001/xml-events" xmlns:xlink="http://www.w3.org/1999/xlink"><defs /><rect fill="white" height="171.6003162868321" width="115.45529412196203" x="0" y="0" /><path d="M39.79221703481361,31.78316626339906 m0.0,0.0 m-14.79221703481361,18.04893046243878 l11.297630427843806,19.101563037158105 -2.782333569466845,2.680739594073213 l7.792299077577602,-11.368761879505808 5.733084391463683,1.9507526161556594 l-0.09280467149042959,-17.337953030730446 -1.4638907082754438,-9.081776715106917 l-6.856851058174938,-0.3765608526138786 -6.4446511939781645,-2.988751085242126 l0.9790395476698793,-1.9759398762568225 11.522238899325714,1.381771177513127 l-1.438377626564186,-4.152538125689082 -9.45964261410337,5.224592578437795 l-2.7983733175094914,11.783544821143119 4.195686899001491,6.3337740261667514 l36.19134641418777,-1.36199780044486 6.125496459898125,-1.9822203711411586 l-4.630216424773789,-1.5239135116038982 -1.8080993555920855,2.343881733383102 l4.545016545441667,3.1228397783947512 10.925266696582643,-0.4711210246349959 l-9.954534195123964,3.8022256274068065 -6.4502987479669205,-1.8988866070264647 l-0.7669068646297647,0.8766755454714803 17.20917425645005,-0.38720079860003365 l3.885994854168995,-4.2803291649687285 m-34.12631230983482,-24.24650641757652 l-5.103723246441098,5.963164940969703 -7.433827780264762,6.1934452733835155 l2.5862024477416248,5.961810613196954 17.750827768499427,20.66067458108944 l2.9950991366264423,-1.3739277165484904 -23.339655352428966,27.734507912279707 l6.396649074433247,2.627546918666941 7.6813408526851745,2.9649960744491355 l1.2276781118278808,6.113204301547405 -0.5081923156055947,5.592286389622367 l0.9127411539652275,1.523816657882352 7.495243734378094,16.428366586093688 l-1.6517249139394015,11.016274499739946 5.517148513749384,3.1693532776070743 l7.8411618288141955,7.02479597685236 " fill="none" stroke="black" stroke-width="1" /></svg>