<?xml version="1.0" encoding="utf-8" ?>
<svg baseProfile="full" height="164.92871898977683" version="1.1" width="135.9495731931582" xmlns="http://www.w3.org/2000/svg" xmlns:ev="http://www.w3.org/2001/xml-events" xmlns:xlink="http://www.w3.org/1999/xlink"><defs /><rect fill="white" height="164.92871898977683" width="135.9495731931582" x="0" y="0" /><path d="M41.36764765740742,96.23641952483393 m0.0,0.0 m12.92097473544815,-19.774921272258148 l3.4813602204644734,-5.002287699243758 6.306176647957716,1.8441097963262254 l-1.5838142762383756,5.0485567521159656 -0.4245380263793812,4.351884425296264 l-1.8643434462733233,3.320862562915291 -6.095395714047729,-2.1554627978060017 l0.6711355775760491,15.620959280434398 -5.692630915837627,2.9017739866239793 l-1.974743228900015,-3.2911467793228493 0.3735451413060152,-10.411849628666928 l-0.5333958801045607,-4.377424701120846 -2.2528111859912454,-2.988621817737248 m-19.69916730638756,-24.096118787744828 l8.039020103887111,-5.827344246027508 6.981901410219189,4.63181832639795 l1.3514659734004364,4.540630677540592 2.973470798883261,4.384102756146748 l1.9635727068748834,4.560930989569775 0.8843580194341938,6.114491699204906 l5.56923284384189,3.4118288636396374 9.822556084909271,0.8827541546667059 l0.2697905119169998,-4.89995427263824 m3.0273334589048018,-50.02599179314601 l-0.17242165201084658,2.562677714418076 1.1300818011144689,4.138167702394222 l-8.419174760077752,12.987991631133458 2.121327090534288,8.733104351485128 l4.902210480691959,2.2196344379843915 16.187038252698596,1.4631792855693941 l9.339907771054163,16.648275185250636 -5.80338299508254,12.736372335246173 l9.54402445452251,4.1765142696489965 11.034367345754399,1.3394359005206806 l5.202893491686901,6.611242502686522 -0.7202540381210798,3.9551625594030853 l-0.6767467103698929,8.910275996682872 -2.955573690769092,-0.19505074599175942 l-5.00619097292082,5.819938592899279 -1.7024431701094724,9.1529868727947 l0.9781644041251033,5.804020065766471 -2.7594843609134476,7.86479033188449 " fill="none" stroke="black" stroke-width="1" /></svg>