<?xml version="1.0" encoding="utf-8" ?>
<svg baseProfile="full" height="206.0423393784166" version="1.1" width="117.0243675125353" xmlns="http://www.w3.org/2000/svg" xmlns:ev="http://www.w3.org/2001/xml-events" xmlns:xlink="http://www.w3.org/1999/xlink"><defs /><rect fill="white" height="206.0423393784166" width="117.0243675125353" x="0" y="0" /><path d="M72.64161235542467,181.0423393784166 m0.0,0.0 m6.168008903409881,-11.160728368710162 m-15.954145779475398,-12.890373774827268 l-0.3027408175379631,-14.32126106500791 -6.036339749776947,-10.600441376806579 l-6.06688759084562,-0.3128666458520435 -4.985825732626467,-14.20105632021281 l6.664437621034241,-14.730301586775608 8.769677067328994,-6.679996993087435 l-0.0035992526585654216,-6.908401335425692 -3.740845641304129,-0.8325540489573369 l9.974075056002615,15.483587524989426 12.381686610518935,16.640853300552802 l1.836822243179198,5.984296849454931 6.851297731131104,5.3148474243101695 l3.8271344887307546,-1.894474676562468 m-3.112212171358118,-16.002669200380762 l-4.216888133684021,-2.359375456530822 m-25.21420623052331,-53.56661805996262 l9.948627574891782,-2.3256241535959745 0.13467540458906635,-1.8938299557546445 l-0.075039063928545,6.68844766797234 2.7150626513814036,8.66186690175997 l-3.32798848213356,8.728667234954361 -0.36068198524595474,2.6503983591915525 l-4.310726653520788,-4.150350067668162 -7.052738876525884,-2.1602666343896106 m4.449694970483904,-10.45492162715867 l5.7903102949072345,-0.1562661160931733 8.808004845813425,0.2911327645153405 l5.9296483263552,3.9714076836369814 0.5540510613501006,2.5007700135081494 l-8.324674505429241,-1.1909567444786655 -11.625460282043134,-2.4545040236965656 l-12.300947746964242,1.5233564959259909 -12.02932408318944,-13.87828015925419 l3.531979720527001,-20.68320139121508 2.415313288718879,-0.9365772392477595 l-6.017791080710322,0.6557165603555439 -5.347854425374646,2.7406106450640064 l-5.245990232758274,-11.13240178295617 -2.7392116981638157,0.8237785911342299 l0.8159324530518763,1.822201207201605 " fill="none" stroke="black" stroke-width="1" /></svg>