<?xml version="1.0" encoding="utf-8" ?>
<svg baseProfile="full" height="164.1492816969614" version="1.1" width="140.0731658135772" xmlns="http://www.w3.org/2000/svg" xmlns:ev="http://www.w3.org/2001/xml-events" xmlns:xlink="http://www.w3.org/1999/xlink"><defs /><rect fill="white" height="164.1492816969614" width="140.0731658135772" x="0" y="0" /><path d="M36.30109212752767,67.18284051111625 m0.0,0.0 m-4.0817692457011745,-29.686244943214888 l-7.219322881826495,-12.496595567901363 5.116658669198298,2.3782627345877994 m4.271792021906622,2.437630311192638 l6.901614023055745,31.36685148646751 0.6189914696619317,4.287812737306679 l0.07828792390045906,5.045368446207122 7.209888198734757,14.889541459197714 l3.6429265551216266,13.067073792238244 6.171597034556888,15.70979411774004 l7.794345084628157,19.995154138935593 2.518273587796044,4.971792473088037 l6.320224707744069,-0.7489675920344979 14.113989606080699,-7.8598039905293104 l4.33251289767605,-4.171293833348937 -7.855734175392759,-0.6917203827937827 l-8.763745384578817,3.6266214868402527 3.801848411796355,-1.3044563588697704 l-0.484633890349955,-19.350596675072385 -19.469720535093153,-0.7615509969740608 l-1.7382337135458654,-2.5822298152348826 m-4.768976018541395,0.7656056863488092 l6.139059400479702,-3.5805706843188525 5.974348218807288,-0.5770075468039284 l-2.0392522972644427,3.9575530177533844 2.739248510931571,3.8596349082109307 l0.08857231408324108,3.7307955879301495 0.12821836559964345,4.732516235620641 l-0.41676034368099896,6.615472953168073 8.381306790346384,5.640576359111682 l9.342467420746038,-1.4167644271566615 -0.8728843797009802,-5.094344778054847 m7.6433968715711575,-36.05287718864758 l-5.121159297671427,-2.26081025856781 4.649454805152961,-5.626325282507348 l-0.9872127832399893,-6.752433197201178 5.452001500746286,-1.0482463909707447 l13.790487089271943,5.340033499957861 0.3250554846074441,3.551214471508531 l3.1300230111652163,3.5167314224645487 1.9148886572703632,6.010842298072759 l-2.7286518784379754,3.9251629850059935 " fill="none" stroke="black" stroke-width="1" /></svg>