<?xml version="1.0" encoding="utf-8" ?>
<svg baseProfile="full" height="136.75814367172723" version="1.1" width="204.08989455551492" xmlns="http://www.w3.org/2000/svg" xmlns:ev="http://www.w3.org/2001/xml-events" xmlns:xlink="http://www.w3.org/1999/xlink"><defs /><rect fill="white" height="136.75814367172723" width="204.08989455551492" x="0" y="0" /><path d="M179.08989455551492,92.33907069297402 m0.0,0.0 m-22.754343631142646,-7.562500126931697 l16.655901642704077,-4.694938881275286 -42.72027581533185,-38.982666163248076 m-1.219052085027526,-8.895233926539397 l3.4836988859089284,-7.20373159497957 11.025702490134252,3.7775931116434363 l5.937657365350521,6.642105602410583 3.5844077503590235,1.7975161767245778 l-0.8152550735913857,5.144295883259818 -1.0284945716124365,3.2990968762652444 l-1.5668870760987952,4.249801149127175 -3.741865408362629,5.9899721421345395 l-7.297460739887818,12.35687809374224 -0.7385873394286013,3.497087172795315 l-0.9138487097371428,9.77770989867603 -2.69625045365276,27.21012844060125 l-6.546468720395316,3.0159591243470256 -5.356155767050013,-6.261317507758362 l-11.428535585163328,-10.415777185969732 -8.187445310244884,-27.597280765255555 l-15.454602216626169,-4.471382786893151 -5.821221258900815,-6.444988579261049 l2.6757534856000187,9.925394546601913 0.010544499357257875,6.997713796644454 l-2.226350439669402,11.346698122468602 1.8800815005825557,8.577879856997379 l2.609661118065423,0.9464202678511147 7.589017301221597,3.1272214080285887 l2.212139196585197,-1.6811651434487191 -5.849252408516619,-4.949325079897102 m-64.10511913489543,-27.515168409247178 l-1.2869880460481855,-8.511121550574863 2.3647755337833867,-8.52848144848927 l-1.7549159540108272,10.227919091146585 5.833791170237819,6.110460125900284 " fill="none" stroke="black" stroke-width="1" /></svg>