<?xml version="1.0" encoding="utf-8" ?>
<svg baseProfile="full" height="197.33034860117206" version="1.1" width="145.47063097696682" xmlns="http://www.w3.org/2000/svg" xmlns:ev="http://www.w3.org/2001/xml-events" xmlns:xlink="http://www.w3.org/1999/xlink"><defs /><rect fill="white" height="197.33034860117206" width="145.47063097696682" x="0" y="0" /><path d="M120.47063097696682,172.33034860117206 m0.0,0.0 m-9.368147169813327,-11.266225532057652 m-18.4717877093854,-23.270389875081325 l2.735155728778622,-3.7813342161692924 m-17.14175037358921,-46.80650350294714 m-2.7488048779156635,2.0914037137146546 m1.2836735393947596,-46.579712163826485 m-0.9074533189350572,-2.1296613402221265 m1.786289874060231,3.389523201558977 l-1.1245457975139432,0.2305237505921659 6.55064184533968,5.264735167415082 l-5.962532959504637,3.687434330097964 -8.638905742581493,0.7920370046056596 l-8.642722178008881,3.716959285665018 -25.442183227688577,3.5940443399394426 l-6.405205779705165,5.4027128702546365 2.0796834019206063,-0.08543181484880563 l7.56561990065495,0.14707547141838861 14.022298520060211,-1.354316651673348 l17.801832823412745,-2.1004135556613477 5.309178295204267,-0.9018925400077702 l4.124641761878203,-1.24348252659448 -0.27128608203841786,-1.244713749262986 m-47.561215336840036,-18.02131034107185 l1.827061949515947,-8.832598963165351 -3.109381139311756,-5.697707666420976 l-2.514008850962628,-2.3311032974231325 -2.1197622197383215,4.920990478007442 l-0.12701585365454957,8.091323915868495 5.063166925972644,5.148704604197827 l13.945195869975466,3.6212864088505934 5.455587806197628,2.5004496389797035 l7.867715495622567,3.908736885594779 1.765880560440424,8.336613952682013 l-0.6418882798734096,6.097252142171176 -3.1739968732756068,4.100939988944626 " fill="none" stroke="black" stroke-width="1" /></svg>