<?xml version="1.0" encoding="utf-8" ?>
<svg baseProfile="full" height="140.27863741040574" version="1.1" width="106.4746919973112" xmlns="http://www.w3.org/2000/svg" xmlns:ev="http://www.w3.org/2001/xml-events" xmlns:xlink="http://www.w3.org/1999/xlink"><defs /><rect fill="white" height="140.27863741040574" width="106.4746919973112" x="0" y="0" /><path d="M75.05298794227018,115.27863741040575 m0.0,0.0 m-50.05298794227018,-74.03337247489581 l4.664207942333062,-4.345947779236131 -0.25275587208945155,4.466583242794082 l5.032229049247758,5.473639163201265 9.268732501488625,4.4605578925652285 l9.531488120482786,-11.05167401297128 -2.2314381300598463,-9.333108316371229 l1.3029614561122822,-5.9153151254918805 4.777964191983992,3.227685740117659 l-1.3250665630500338,1.6206052473536592 7.881286271312404,0.5634647741562793 l4.53677754987657,4.950089533449653 -11.060219460984717,5.716743058045046 l0.16951043559732606,1.2794498920269175 15.606964783546994,0.18289466023816897 l4.414698692345091,-0.33317529618705666 -8.8323382093302,-2.688252524998338 m-1.378439442827648,0.5794268419166548 l8.118435001099161,0.5764833236329239 6.2496936802270335,1.5022355123554136 l-12.481682056169161,18.39219991517006 3.295683063325013,6.19759300381163 l2.2897388897231754,-3.1923682358584538 -8.206992507916198,-20.186344891586376 m1.6850580297753637,-13.23074038747699 l-5.075330149875537,-4.741559740490567 m4.306636561334651,24.048668495390544 l3.372447831440287,6.633195672006589 3.809753557267284,8.12141534873608 l-2.5304827946593482,0.0735272062954593 -2.4883552499794135,-5.899841920107997 l1.6752813611495636,4.08861193147181 " fill="none" stroke="black" stroke-width="1" /></svg>