<?xml version="1.0" encoding="utf-8" ?>
<svg baseProfile="full" height="118.18154701087103" version="1.1" width="104.27334206394545" xmlns="http://www.w3.org/2000/svg" xmlns:ev="http://www.w3.org/2001/xml-events" xmlns:xlink="http://www.w3.org/1999/xlink"><defs /><rect fill="white" height="118.18154701087103" width="104.27334206394545" x="0" y="0" /><path d="M64.09346893172165,25 m0.0,0.0 m7.751323358094672,28.157689038255846 l-10.167210300801356,-2.355423368878584 -5.769753835481209,-2.913690773560352 l-7.338289975470819,7.101354650239946 3.4717354366666973,8.63419812902111 l0.7362003252455745,7.55425231759375 0.4119427118307678,3.3650833518630794 l9.174913412214844,-4.919845100479617 4.646876300636486,-7.259458088661244 l5.3358340289486055,-5.402069819015273 1.0079437082998877,-4.455041707311536 m-7.2794710202038,3.49401708315628 l-7.024432346132352,5.663346371388048 4.943509908512744,4.1923572167611995 l15.278751419863061,3.571877655118864 -0.3887945111178325,-4.7049216998363965 m-51.449720458409175,22.787904010661794 l-2.434827094418447,-5.607420725992909 4.535176263168962,-7.049588436653945 l7.949127263882293,-5.774408091080901 6.756398870664033,0.273376081762734 l7.4862536206200465,1.0869852233144848 1.5295009917313318,5.533486297022583 l-3.299386732552698,3.2349712134691844 3.115520829850647,7.090450536669764 l13.124489803283378,1.6296720427602391 2.319992162762611,-3.260264485247107 l-9.113058095279978,-6.715602119905795 m-24.54904790005227,15.178520843816331 l-3.674287337980376,0.04973936461943874 3.3491091781723568,-3.543429102316729 l-2.3482524409243295,-3.4968204209394407 5.192951005767795,-2.603422302333196 l0.205075279217371,-1.8281759506425979 -1.882158718475676,8.254664852874445 " fill="none" stroke="black" stroke-width="1" /></svg>