<?xml version="1.0" encoding="utf-8" ?>
<svg baseProfile="full" height="210.7694076329782" version="1.1" width="124.3309444729947" xmlns="http://www.w3.org/2000/svg" xmlns:ev="http://www.w3.org/2001/xml-events" xmlns:xlink="http://www.w3.org/1999/xlink"><defs /><rect fill="white" height="210.7694076329782" width="124.3309444729947" x="0" y="0" /><path d="M25.844186554383676,73.57460949812747 m0.0,0.0 m-0.14254875667846237,-16.622484606131092 m9.702613625571962,7.993996247167623 l-10.404251423277175,-12.932881638796147 4.9020355285043955,15.834123535798916 m13.12300236497767,23.640453132947094 m33.428017782059754,70.64333053691107 l-3.7300650409983658,23.638260926953265 -23.130229391042,-7.623420187987084 l16.54125449171043,-29.205160635285047 m3.7484369209429267,-46.465286865814626 m-5.153024781418619,-7.838763831264677 l5.439406068740218,0.363797013439241 4.259955367751693,-1.3729593857958178 l4.4163092129762305,-2.2582589802671373 8.67557616339755,4.851737977682804 l6.088396541264885,8.876193610211255 3.942996419183147,10.975831673091765 l1.7788768249447886,18.430411767173368 -0.8048353907867747,8.553000444540292 l-4.953706280502768,7.1173246036652955 -7.272116790458614,5.516167865245005 l-8.883339507909302,3.5545766601812883 -11.82802709062845,-2.6663286000643125 l-2.497359753961559,-16.933052336066694 1.2995623573609971,-8.38544706672045 l2.157623290975296,-37.03036704533727 4.98346218356842,-5.5991269599813505 l13.117738951931736,-9.399147884987999 0.652054260321725,-6.468262042416271 l2.7885618121026687,-17.89088347580637 2.8295816683637307,-19.33951796038776 l5.2983149652211,-10.532465990025619 " fill="none" stroke="black" stroke-width="1" /></svg>