<?xml version="1.0" encoding="utf-8" ?>
<svg baseProfile="full" height="190.41278783145316" version="1.1" width="138.97664905411457" xmlns="http://www.w3.org/2000/svg" xmlns:ev="http://www.w3.org/2001/xml-events" xmlns:xlink="http://www.w3.org/1999/xlink"><defs /><rect fill="white" height="190.41278783145316" width="138.97664905411457" x="0" y="0" /><path d="M108.89861571546669,103.2325101222333 m0.0,0.0 m5.078033338647878,-11.908144179917247 m-1.3811495883346214,-25.395336256456655 m-16.45208427273886,-40.92902968585939 m-2.0868281668764164,62.882637184666685 l4.981460504641484,3.3142898752439676 -3.2473610338901295,11.985508938041729 l-11.590337520153584,6.358011500781347 -32.911243221819184,-2.37018318974776 l-7.494423169155782,-0.24341925992631075 1.3132487117062663,-0.5826614199414437 l3.6609626104077653,-0.5526945958776084 -6.39649153959836,-3.069822300867405 l-7.427228676946653,0.6913398272461202 -0.5664654528924468,-0.002651111425767197 l14.709936904760283,4.113065409407262 -0.4714799096219342,-4.472387645688507 m-23.340256314048844,12.800888932744238 l8.692480354274883,4.1601877316245 8.079153901701309,-9.134394079040643 l0.10503945560648018,2.422886002109185 -8.1090328350153,4.073631258085031 l-0.014479003149725344,3.710427058458959 12.825166769253755,9.98451339334243 l-2.614473882778779,-24.307308865962014 -10.367095120260817,7.1170947975845555 m-8.87366855918534,23.644029539227617 l9.073290317507805,1.9799008081054095 14.187023916233725,-2.3093308064186915 l0.6218538958760556,-4.234473424848598 0.6877814738431295,2.7745863332393874 l4.631979334640591,9.252537734427033 -0.23354943879607035,2.333898173750557 l-2.29701508070068,6.9916468035382415 6.302618507196161,5.398642877715887 l9.303615595445436,5.702390351857747 " fill="none" stroke="black" stroke-width="1" /></svg>