<?xml version="1.0" encoding="utf-8" ?>
<svg baseProfile="full" height="290.1832754580889" version="1.1" width="157.0474664353226" xmlns="http://www.w3.org/2000/svg" xmlns:ev="http://www.w3.org/2001/xml-events" xmlns:xlink="http://www.w3.org/1999/xlink"><defs /><rect fill="white" height="290.1832754580889" width="157.0474664353226" x="0" y="0" /><path d="M109.65986602835079,229.07247120642796 m0.0,0.0 m21.378080470938844,36.11080425166091 l1.009519936032978,-27.713991533384558 -0.9994479123292562,-2.5966721927581218 l-11.37698830677139,0.6862068824639359 -8.294079492206649,1.695965555303182 l-8.447377200893795,6.298259365170306 m-2.135632677931374,-138.0882801881244 l2.571527795802854,3.73787525347745 5.692618975465342,0.7126226414174663 l-0.07670115170920422,-6.639462983869016 0.04945867000289636,-5.265207373056524 l-7.814144561137111,1.58881013775507 -21.24086615832068,17.92356333068931 l8.94442829733009,10.33229043064186 1.272781365082573,4.649379769847375 l-11.213356751473812,-5.215351162728368 -12.975544129490787,-6.2229590171154 l1.423839035583927,-3.5295202895561695 -0.28568180284457956,-5.543409787768184 l-6.151080867560969,-3.501505375157641 -8.160779660405225,-10.329097519409961 l-2.7314394505418482,-9.763032512196114 3.4606832824124356,-7.825890990301772 l10.648967303064744,-7.8872043663743945 -9.263896310772594,-9.557473444485698 l-4.848175977578828,-15.51759793557915 -5.38790814596192,-6.966948854873701 l-4.275416429524386,-3.9468003046188325 -1.7609885772113443,1.7622331831554765 l8.397661892163313,-7.788110946869109 8.778241538154466,-5.444936077136054 l10.064933098654818,-0.2270291526471585 8.509703789663062,3.0584893894158847 l-26.56815181680831,13.254475600604914 -22.854654097229066,10.712042586297079 " fill="none" stroke="black" stroke-width="1" /></svg>