<?xml version="1.0" encoding="utf-8" ?>
<svg baseProfile="full" height="137.73559638861934" version="1.1" width="132.99682981472594" xmlns="http://www.w3.org/2000/svg" xmlns:ev="http://www.w3.org/2001/xml-events" xmlns:xlink="http://www.w3.org/1999/xlink"><defs /><rect fill="white" height="137.73559638861934" width="132.99682981472594" x="0" y="0" /><path d="M96.98057214412265,88.17100887687752 m0.0,0.0 m11.016257670603297,14.467351320144934 l-17.579720221982473,-12.970595096384438 -2.3753568352894647,-9.001791767112577 l-21.142345963770286,-7.275549062133472 -6.948885965808185,-4.903941302270819 l-12.68580408384586,-8.257913114200695 -5.84484885743896,-0.4412803068247029 l-11.216562664173022,-0.7723076300729032 -5.203305222417698,-5.157876732345805 l2.4814742792967506,-1.4751306073796038 9.279131840564174,0.9827408393082476 l8.34159301031019,3.616015180336914 -5.36678270755186,5.109483447894109 l-0.6598841234324373,2.4009697635092153 10.96870793224521,5.4771795636328 l4.436650521450764,-4.077779054411019 -5.737756186262925,-4.036315747913079 m-21.383933124643118,-14.474894396965693 l4.052596296806815,-7.378277527368904 1.4896645278365594,-4.755094432616253 l-1.7814820877840922,12.402439349237738 8.530900123659903,5.494434344441554 l3.1988393953900887,7.713851011219123 9.161494273656283,-12.0679458015048 l-1.246323912929252,-5.016321978315166 -1.2722357847947456,-1.2997292053080538 l1.979290348073644,0.2939200404454988 5.254729836912939,-17.766649973919666 l2.5663715853462565,22.43625338194758 13.129480711145076,8.162928134875118 l6.5744204069280725,-1.888438226192373 6.606683370242073,-4.77405325685253 m0.45728782334920115,26.860953688102487 l0.9309645084644783,9.089185481999925 0.39692098721420055,6.693755499822865 l1.1303139651657272,4.846482072537152 -1.273343203520984,6.966303642896865 l10.356708417045832,8.02580789075015 -2.2120334072252943,1.316418078732125 l-4.819286731159896,-4.566370402613218 m-8.091231765764949,-53.05539897204952 l2.9827981042452656,3.580151952846471 " fill="none" stroke="black" stroke-width="1" /></svg>