<?xml version="1.0" encoding="utf-8" ?>
<svg baseProfile="full" height="175.3283204128112" version="1.1" width="133.274014931679" xmlns="http://www.w3.org/2000/svg" xmlns:ev="http://www.w3.org/2001/xml-events" xmlns:xlink="http://www.w3.org/1999/xlink"><defs /><rect fill="white" height="175.3283204128112" width="133.274014931679" x="0" y="0" /><path d="M35.52785243195637,53.82781583343205 m0.0,0.0 m9.363549156502584,1.4208013161897026 m12.832262962448368,11.645140881244375 l-5.279612048921696,0.9479234567977054 -1.2457100049749161,4.07367094245305 l-3.7616383562127425,-9.550890016666049 -6.477361392341623,-4.439862328759193 l-0.7575667352354831,-6.007122822635336 -4.225230633948846,4.259676712281868 l14.801831755336964,0.07001022296375392 16.393778723488897,1.3435259979157732 l5.503471687508507,-14.572373261948172 -1.3688064173004568,-7.043078942425136 l-6.292632973688275,-5.335728544959789 -6.959144316308593,-5.639509445884601 l-0.8847728162512847,1.6423377417256806 1.5376783107321212,30.62611134859364 l-12.359282315649303,3.4372374179687353 -10.121326398439269,25.66227364682914 l-4.322007980191591,14.214949631345876 -6.109801149307104,1.9106636066692595 l-0.79553148920263,-1.2142721128670741 3.8718636113181857,-4.471511474347902 l3.775668585265554,-8.279065696114568 14.552483320672662,-4.223852549188936 l3.9038861556761177,-4.199653980785073 4.973684217561072,-3.103166639345363 l9.55588051023849,-9.219028640212512 13.294502909570184,-5.1131915676324375 l3.3014044330853007,-0.6894837491012246 9.620362461244715,-3.479298335851355 l9.074985856872875,6.288052534351565 -5.281538181258437,5.5902094514537835 m-16.837227407683063,38.309441722213364 l-2.273762362022549,14.79606682946276 9.353922752199342,12.720745946280704 l12.587790196651289,-1.377686305816807 9.800107872287269,8.134727377339633 l-8.956068484429009,7.365714209840309 " fill="none" stroke="black" stroke-width="1" /></svg>