<?xml version="1.0" encoding="utf-8" ?>
<svg baseProfile="full" height="183.21858479302023" version="1.1" width="156.102961129894" xmlns="http://www.w3.org/2000/svg" xmlns:ev="http://www.w3.org/2001/xml-events" xmlns:xlink="http://www.w3.org/1999/xlink"><defs /><rect fill="white" height="183.21858479302023" width="156.102961129894" x="0" y="0" /><path d="M95.89868122413762,66.34541700930673 m0.0,0.0 m6.815753142646024,27.81993783833198 l5.954802081232189,-19.90800604281433 -6.821914607234968,-16.716553467266113 l3.8712286194421544,-5.247204333335375 8.374145529272848,9.593220111871657 m-34.70479022352132,-36.88681111609455 l7.784353372254766,5.684519901878169 9.141800383016509,1.2597645876990897 l4.315147036672122,7.236184584115011 9.76755827591007,8.746237040610124 l5.355160557248829,8.429906097410036 -2.790771582874195,3.529760085659513 l-6.645168185384889,5.296374154947398 -0.29180004033784845,1.727012028431237 l8.07084788451854,-2.2644189878231566 6.0104155621137565,-5.537812573149017 l2.291862097099928,-7.027750254322045 4.704795663143282,-9.674025618399204 l2.4516779648832236,4.497765499126019 1.5491763756553705,11.419052647147598 l-13.515100081397664,2.886860561340648 -13.453672732613601,9.643281973748715 l-15.329322581225545,16.657346351986046 -2.626523678210291,15.903929804284754 l-5.562864046393955,5.860121192085721 -2.4771762270354993,10.591674200282624 l-8.568759643266155,15.53954950768893 4.553733776623036,4.569882044890479 l2.979360753553765,5.803679888990125 10.719476486573129,12.439690074391393 m-16.017017074902185,-46.27707085545758 l-4.60434258865172,-10.848780705275608 2.857071546689026,-7.133907748332398 l-4.06250163997284,-10.187181259357674 -9.10927066917796,3.8471441422967767 l-31.886052730485552,16.960218501636966 1.7448499063214065,9.142838058253657 m7.621541282715818,-27.929031521693982 " fill="none" stroke="black" stroke-width="1" /></svg>