<?xml version="1.0" encoding="utf-8" ?>
<svg baseProfile="full" height="218.85131670505118" version="1.1" width="183.02976665349195" xmlns="http://www.w3.org/2000/svg" xmlns:ev="http://www.w3.org/2001/xml-events" xmlns:xlink="http://www.w3.org/1999/xlink"><defs /><rect fill="white" height="218.85131670505118" width="183.02976665349195" x="0" y="0" /><path d="M142.52519771681577,176.17433843965284 m0.0,0.0 m15.504568936676174,8.883915034416164 l-7.748489835600402,8.793063230982163 -12.768019619730318,-8.862970968591311 l-2.6943404887159077,4.985843706404011 6.445796284958823,3.3923628202436644 m-23.90591347505027,-55.368261718598504 l4.894307195059785,2.8165399366201385 7.295283162061331,1.231321751876583 l9.933052370888674,-0.22111008143618155 2.0922617384493445,-0.09320515116383682 l-6.836405680997021,-0.8114000437256658 -23.89583833965386,-12.090535798475978 l-8.137357367764196,0.0588712505339898 -7.698511837896122,8.785929585259819 l-5.973288298385833,10.71448912850198 -12.23707837412998,9.993415414003639 l2.5821102673056773,7.823769001377332 0.030853355108601543,7.635376444448156 l-9.913904701757618,-9.72903755151097 -4.677073450688845,-9.851268843933816 l-0.43850034521679265,-9.319356905751889 -1.354031340313953,-12.908758911951924 l4.3826752745140505,-10.403600451911604 16.96896348994988,2.1398090633656364 l2.3001588365802936,7.678488978398444 -0.18603405796278102,11.099242862050573 l-12.964973502683614,-2.9499374821134148 -8.082298814554173,-2.3967594323727845 l-12.040732876639138,-0.31354186239581416 -10.273160057803114,2.232629734070591 l-11.577435702955734,0.9853363123275257 -6.551840459868727,0.24259833823680965 l4.231505567810182,9.985481161269565 2.731378896765059,1.088834038221338 l3.9675861753704678,-12.974383352078561 12.171434617517138,-7.59387424925533 l-5.509326444401523,13.147612113155157 21.503113578777015,-119.00126554014855 " fill="none" stroke="black" stroke-width="1" /></svg>