<?xml version="1.0" encoding="utf-8" ?>
<svg baseProfile="full" height="107.65126888306598" version="1.1" width="110.65284634433229" xmlns="http://www.w3.org/2000/svg" xmlns:ev="http://www.w3.org/2001/xml-events" xmlns:xlink="http://www.w3.org/1999/xlink"><defs /><rect fill="white" height="107.65126888306598" width="110.65284634433229" x="0" y="0" /><path d="M30.91197256093539,71.74980502027644 m0.0,0.0 m-2.4708677904799257,-5.692868585872872 l-3.441104770455464,-10.239791342494836 m22.60607679988729,-17.28031301773843 m-0.6916034179425016,-9.180438969577295 l5.182394579752687,3.817176624268259 m4.316158273443165,-8.173569728861269 l-11.10811211829365,31.893131618765437 -2.5234520936954605,5.296721165204102 l0.7787102085323719,4.001264165872827 8.231760294827271,2.6772509042979844 l13.773055172701723,-1.2775044307288879 7.465757463024514,1.9354922868954594 l9.777548722384317,8.333888039924675 2.8445524597105463,4.448904775665465 l-1.1107403020268725,0.34212035716891825 -7.215095356320893,-2.3407478732624973 l-7.521613912355472,-5.911318349312817 -7.896340855312128,-5.284621660834055 l-9.407481634390379,-3.2714817000580023 -7.690194205463678,1.4289025910982285 l-3.2464979361874047,3.1297620106498534 3.117118296536842,-1.0672273193090047 l9.850445685397546,-4.618191152073854 5.438303831348584,-7.444883299064858 m3.15756151352105,16.79788306211134 l-5.020948097591516,2.8222273070773563 -14.075112423864287,-3.807650021307308 l-1.5193686959755859,-2.967423873497695 2.488230837908614,-0.16202373043862298 l12.361983098948595,-3.574091817204319 10.955557750556334,-7.330328899461534 l4.7430892576951695,-0.9216924272771748 2.513553263909339,0.46273376204840516 l-2.4230128349091093,-0.20946823849528992 -13.230296676964942,-1.6975879628332993 l-12.205924671058787,-1.0584772347724754 -9.043457733887259,0.5245335546536548 l-5.608340743052509,2.08605827309515 -0.46825626332472986,0.6123204761556339 l5.2862054893516035,-2.1535674759547296 11.776508304220512,-4.942975017548686 l15.642687973065014,-7.886066808224138 " fill="none" stroke="black" stroke-width="1" /></svg>