<?xml version="1.0" encoding="utf-8" ?>
<svg baseProfile="full" height="241.97169050778402" version="1.1" width="142.4430499470086" xmlns="http://www.w3.org/2000/svg" xmlns:ev="http://www.w3.org/2001/xml-events" xmlns:xlink="http://www.w3.org/1999/xlink"><defs /><rect fill="white" height="241.97169050778402" width="142.4430499470086" x="0" y="0" /><path d="M76.71589271101864,25 m0.0,0.0 m-15.863180884319663,47.817887821328874 l4.1891024609738325,-3.1699560902634736 2.5360044331254383,0.7810482865323167 l-0.9394158359550765,9.457028180150303 -2.5543167830369984,9.420619350746769 l-10.635137922711921,-2.6578082468693354 -6.741012295838276,-0.6066110851475306 l-1.5776917003646433,4.063620037151588 -1.2500436803342978,1.0986735933960834 l-2.2926328240392984,1.089466650124638 -11.409198874737324,4.923985677562436 l-5.178368803780414,24.696766660810543 17.333430272012993,17.424292026547093 l21.22337376021914,4.329508209375679 13.377216869158604,27.602273605048488 l-2.3421292139120142,2.5398825577084487 -7.461286293085124,-9.246539710006067 l0.3662075140990645,-4.002700966023135 7.8388640679918025,2.594378921517345 l13.895416774347433,-2.65864213490543 6.800111033716363,-2.117871564956162 l6.298109202293099,19.451272234866792 12.240138866475805,11.667668892140144 l2.873597093691436,1.5172932490468132 -9.95561463334132,6.41940209341105 l-3.152932776964082,-1.9682371605142064 -17.692905362622444,16.45431836491227 l3.356943611065204,5.050671054091698 8.59976728583408,-2.418796681355433 l-15.55379600233334,-4.954256427088614 -11.495441581193708,-4.678802213758797 l-0.8609220708185555,-9.378258145168806 6.000946409348651,-8.099538803264293 l4.478979086229378,-5.294072911323915 -10.589574977398279,18.038361414880512 " fill="none" stroke="black" stroke-width="1" /></svg>