<?xml version="1.0" encoding="utf-8" ?>
<svg baseProfile="full" height="355.3052619561439" version="1.1" width="167.4809697318544" xmlns="http://www.w3.org/2000/svg" xmlns:ev="http://www.w3.org/2001/xml-events" xmlns:xlink="http://www.w3.org/1999/xlink"><defs /><rect fill="white" height="355.3052619561439" width="167.4809697318544" x="0" y="0" /><path d="M25,330.3052619561439 m0.0,0.0 m8.531741444805442,-107.57555457076666 l57.80368679318029,-50.97819380411609 -4.175614030860926,4.818121258727277 l8.472005685724751,-81.6595017442322 -0.6465911252676217,-1.7170185450533009 l5.933870018448577,-1.2152729049887545 -0.6658040269544888,10.661224255274506 l-0.06545750253504214,6.796894857456943 14.53560702574774,-6.840405428941046 l7.020832855384551,-8.016985879944928 5.222594641868192,-4.431297060382036 l6.697081299213996,7.4054336424789335 4.60961731781056,7.048793004278551 l4.207399335288377,11.657264567709351 -6.94922343120017,4.428474770693291 l-8.11543902233304,1.0278832485577778 0.32177070182672796,0.5381150679156413 l-7.70744872076583,-2.1889998712229097 -2.625806417941464,-4.211631663831144 l-5.900838869192199,-7.161230756497847 -3.7879650739033135,-4.405913890270583 l-17.995616896616713,13.403659984939681 -15.010396855778177,4.731415284563718 l5.623269747615642,2.727099049839233 6.689957096626142,0.2954725817886239 l9.023171088929287,-0.01085892614010403 3.373039922035952,-1.0814505630367672 l4.44633838926447,4.481083092035317 -1.3922943318383407,-2.4539841006015384 l-6.669979550062341,-3.7207195002914117 -7.277399586034165,-2.1153736592652748 l-10.714931697731283,-3.263991559346655 -7.975132933836992,-9.6404421353328 l-9.122974628912285,-16.847810041189963 -4.232877602276893,-15.420106465230766 l-8.806174135903703,-9.988721011455992 -5.531736384939913,-11.065694262907254 m35.87337321814742,-29.315038277356734 " fill="none" stroke="black" stroke-width="1" /></svg>