<?xml version="1.0" encoding="utf-8" ?>
<svg baseProfile="full" height="116.32783598746985" version="1.1" width="173.19443607273962" xmlns="http://www.w3.org/2000/svg" xmlns:ev="http://www.w3.org/2001/xml-events" xmlns:xlink="http://www.w3.org/1999/xlink"><defs /><rect fill="white" height="116.32783598746985" width="173.19443607273962" x="0" y="0" /><path d="M55.922529428747325,25 m0.0,0.0 m-12.50575294707437,41.16815765473263 l0.14855505175565525,5.772510175467494 5.415689028736351,4.756008860059138 l4.439826281285602,-10.880601938905482 -1.8011304363428564,-14.07076550800238 l-0.02014496411485593,0.06775175355129393 1.7597729973426584,5.436674012565963 l-1.3241400882172627,4.123587865902049 -0.5442785679616389,10.075644177208703 l-4.343143846915736,8.127308923856782 -7.670427866879528,-1.3415687933838567 l-1.9751590596877477,-7.0443086068291105 -5.620097903961405,-3.2682038534828863 l-3.769450864680405,-1.4061191889657128 -3.112646242031785,1.3482367503183779 l1.2271775821285393,0.22227177571025686 4.556975967936443,-3.3682297002008967 l8.776787876888164,-0.8171424616336865 10.52519416182543,7.997135145869801 l-1.9673539200794004,4.358949455193054 5.406170710093803,8.347738161337722 l5.055091112060721,6.567428165505231 3.290984638125683,0.15537316159537468 l-1.552147060432764,-1.8435778454295433 m-29.51938515022487,-24.37993786829893 l-2.5535104813878204,-8.32150075783931 3.4142119282473504,-3.0815813341068865 l5.944519944330755,-3.3978356376410765 5.090548418836249,3.610505270017215 l8.366096712976338,6.577065455848686 1.3008407846335248,10.131970571786976 l3.169684921724992,1.8425017468834477 3.0814542421617546,4.725580190210805 l8.007537241679472,-2.466814352064587 -1.0889721802533563,-6.420087043497438 m52.398140793083684,-7.182852514605549 l1.05925118407239,-2.012918539569645 5.2738389946859305,-2.730759344644194 l10.033648480127345,-4.390250886588591 0.9135894192951418,1.2817008358858732 l1.7604403038882765,5.645973675167649 11.223619446315837,2.003256533610008 " fill="none" stroke="black" stroke-width="1" /></svg>