<?xml version="1.0" encoding="utf-8" ?>
<svg baseProfile="full" height="267.3697322943131" version="1.1" width="170.13508878434095" xmlns="http://www.w3.org/2000/svg" xmlns:ev="http://www.w3.org/2001/xml-events" xmlns:xlink="http://www.w3.org/1999/xlink"><defs /><rect fill="white" height="267.3697322943131" width="170.13508878434095" x="0" y="0" /><path d="M34.67902528474092,242.3697322943131 m0.0,0.0 m17.525346353658364,-23.07703046324594 l9.022820997474748,-55.51737629946076 7.403147109082024,-2.3292605669594066 l6.621100829513344,-5.025134950014608 6.697850359729647,7.685093069885276 l4.710056858523135,1.731377380319501 0.9380387708053503,2.4889660047105955 l8.820076430883631,5.980934370477626 2.9207553625288316,6.4770006191269225 l9.716864745199667,2.0784303836721594 13.641460760699728,4.872906301785459 l6.414700334553738,2.807895920694648 8.020017276745147,-0.27413825451558904 l8.003827310202645,7.350274975120953 -19.85215637998821,7.379804712299443 l-12.054107600580814,0.5492025211454016 -7.641270713787962,-8.604580036212631 l-3.96741713935775,-5.134489054225348 -2.5194441270174806,-14.173050337451134 l0.4759249249313882,-18.57517319903956 -1.2776111198517148,-5.143532312163885 l-20.49732576127847,-2.2020675080477385 -13.40071294067401,-0.3944774845727256 l0.4316234474810071,-5.090309364196847 -7.632469487008438,-2.5582704140055847 l-7.664473892611642,0.7670718107830299 -0.39352929898427536,-3.4834019571427235 l-0.5016311172634244,-7.413157486782683 -4.122840434722834,-13.4573701049373 l-2.9283369329206885,-8.091776298928686 -10.427831994036133,-8.990636198389833 l-3.8433588717594884,-4.95653061186454 -2.3181193449100217,-7.7336981271822065 l10.875385630810465,-41.655134954863165 0.7037489535274669,-23.65809438013124 " fill="none" stroke="black" stroke-width="1" /></svg>