<?xml version="1.0" encoding="utf-8" ?>
<svg baseProfile="full" height="158.2150142599364" version="1.1" width="122.29943644141716" xmlns="http://www.w3.org/2000/svg" xmlns:ev="http://www.w3.org/2001/xml-events" xmlns:xlink="http://www.w3.org/1999/xlink"><defs /><rect fill="white" height="158.2150142599364" width="122.29943644141716" x="0" y="0" /><path d="M56.35813052593626,57.46689087485415 m0.0,0.0 m25.35434067488803,6.645302992309264 m-0.14192928839614266,-34.653559137004585 l-0.01828295547711571,-4.45863473015883 2.8827192887444295,4.352574126859647 l8.545517734435819,8.408921834419074 4.318940461285874,4.891048317130151 l-3.095530365754957,-0.47366000531575764 -3.9231085408330677,1.8496522753857914 l-9.729238361164532,2.808546580997928 -0.766976545804432,7.909558056706169 l0.6808721095919656,3.0979286282649143 -0.9929935312013977,3.6036775508701457 l0.9313666865600922,5.4270202289996705 4.355305601902567,3.06871942239104 l12.109907443202562,-11.785264940378784 -3.7937074135925983,-7.57041548980411 l-9.741234488414708,-7.012520681322703 -24.598245482679985,-6.8498074368733075 l-7.537951411257884,-7.793539984906825 -3.723411406072333,-1.2258812429770416 l4.365744166533282,2.1813641844669394 3.787281549648238,5.879814620177539 l7.52429529393422,-2.454764500968393 -2.1771924205309223,-3.245589619483287 l-0.5902777062051043,-3.7237365750549998 6.186224091405612,4.526597986116442 l8.246259796889857,12.043463143613836 -7.981592269674631,11.131878677230658 l-9.502347071118178,8.99355060174388 1.130481615931368,0.8705485764786064 l5.914723631320484,-0.12890592166906273 m-33.955459401182914,69.43423584683823 l-0.7182769247060072,-2.3220471778145493 -4.704355088143752,-15.762031117878491 l11.588469228076574,-21.985553095694094 " fill="none" stroke="black" stroke-width="1" /></svg>