<?xml version="1.0" encoding="utf-8" ?>
<svg baseProfile="full" height="282.1495978410036" version="1.1" width="191.31175412277355" xmlns="http://www.w3.org/2000/svg" xmlns:ev="http://www.w3.org/2001/xml-events" xmlns:xlink="http://www.w3.org/1999/xlink"><defs /><rect fill="white" height="282.1495978410036" width="191.31175412277355" x="0" y="0" /><path d="M166.31175412277355,205.24170521542626 m0.0,0.0 m-0.6947596217237292,12.917927154114022 m-31.75880560741402,-8.574224973779158 l-30.686528950724792,-24.772832358231963 3.075540439533873,56.84055699501156 l7.48425163928891,15.49646580846289 6.096368619092343,-4.454546418813079 l6.179270079396351,-15.828684063697125 -1.9891223099301336,-3.4801598000424283 l5.050774458974715,0.8896006639586951 4.0052777418634555,1.347060728750527 l-0.8305971752194476,3.8370264534765273 2.6719559595213,3.833145798068627 l1.422151402129465,-0.16706119512751472 -3.547332553557768,1.118633706900087 l-6.801859268702371,-1.126823899189856 -6.5616639769386085,-4.572278406802739 l-9.822858484176118,-7.893351509642144 -8.193820165522405,-13.899771031591497 l-17.22049184235715,-10.876664991252513 -10.003683034578438,-13.777497113892707 l-8.145776158259615,-10.987053368364835 -3.694655787749297,-9.922425301626616 l-5.380581684634822,-5.033896454038185 -15.015135470512684,-13.030872458396821 l-4.09032226928156,-5.093896344678861 -12.859350101291007,-19.659608939429514 l10.081925093113288,-14.059524925164645 2.8486468862097545,-6.399308504147043 l13.698890503052183,-22.624863309139077 11.377112499387735,-12.260983188324154 l-7.70509314528003,-18.982469484776857 5.136366897908267,-19.485140409657777 l-7.967462252972104,-9.558184074362096 6.162375548598509,20.263296937728867 l1.7146940417534318,-11.337922939540746 " fill="none" stroke="black" stroke-width="1" /></svg>