<?xml version="1.0" encoding="utf-8" ?>
<svg baseProfile="full" height="238.95895343115083" version="1.1" width="146.5456491552792" xmlns="http://www.w3.org/2000/svg" xmlns:ev="http://www.w3.org/2001/xml-events" xmlns:xlink="http://www.w3.org/1999/xlink"><defs /><rect fill="white" height="238.95895343115083" width="146.5456491552792" x="0" y="0" /><path d="M62.22878878456849,213.95895343115083 m0.0,0.0 m-30.785444252605796,-17.89647332140533 l3.6722286946777616,-4.015980582318572 4.572260346202991,14.491988121168333 l7.078060079284489,6.076783740204304 5.182969152682742,-5.249469489925465 l6.835087419990424,-11.708665958261504 5.369724062384327,-21.952390526719796 l-6.05637332989348,-25.70077860856001 -4.785012811780171,-10.315700495984364 l-5.566375945333308,-2.9902753582869055 -0.49122396740941154,-7.547163118327274 l-0.39161409109985057,-12.195361795980041 10.960203057451958,-19.303018733602254 l0.883706564201655,-13.782573118770527 -5.65486152799846,-7.9278700881426385 l-10.57515079254026,-6.477470495099011 -5.469989599330942,1.6719557036304489 l-2.96727535976525,2.611979175281104 -9.03970648368791,9.35974425104114 l3.070099254973202,0.5899534480569313 11.433083316186842,3.1358536983271432 l10.794680400375853,-1.248206296817686 5.073452767306053,11.871189061543012 l3.3538778992814575,6.4713530582316965 -2.7666271509063947,6.779318581156374 l5.325504280314825,0.6793351572390077 8.420289064685289,14.901103333839831 l-4.912169943803335,22.06421473936077 -5.970827784625593,2.530109002751537 l-6.434785983754382,1.2418772570457874 -0.24444104936632238,4.490438097312619 l6.6018919353039935,-2.3847608067201063 6.920961259033723,-1.660104485250962 l8.263738751836582,-4.179996562652766 0.7800582273990327,-33.87184824396712 l9.761467686594871,-22.668961316326634 30.43759016792004,-57.82114118837338 l6.63780605652348,-7.027939265848547 " fill="none" stroke="black" stroke-width="1" /></svg>