<?xml version="1.0" encoding="utf-8"?>
<!-- Generator: Adobe Illustrator 24.0.0, SVG Export Plug-In . SVG Version: 6.00 Build 0)  -->
<svg version="1.1" id="Layer_1" xmlns:ev="http://www.w3.org/2001/xml-events"
	 xmlns="http://www.w3.org/2000/svg" xmlns:xlink="http://www.w3.org/1999/xlink" x="0px" y="0px" viewBox="0 0 113.4 150.5"
	 style="enable-background:new 0 0 113.4 150.5;" xml:space="preserve">
<style type="text/css">
	.st0{fill:none;stroke:#000000;stroke-width:2.4432;}
</style>
<path class="st0" d="M10.7,44.9c0-2.9-0.4-9.1,1.1-11.6c3.9-6.4,17.6-16.6,25.1-16.5c2.3,0,6.2,3.5,7.8,5.3c2.4,2.8,4.6,10,6.2,13.4
	c1.3,2.8,4.3,8.3,5.4,11.2c1.2,3.4,2.6,10.3,3.3,13.8c0.8,3.7,0.5,11.6,2.6,14.7c1.3,1.9,5.5,4.3,7.7,5.1c6.3,2.1,20.7,4.7,26.4,1.5
	c3.3-1.9,7.9-9.8,7-13.5c-1.4-6.2-20.6-8.7-20.6-15.1 M61.6,65.7c0,5.2-7.1,13.8-8.7,18.7c-1.6,4.9-6.2,15.4-4.1,20
	c2.2,4.9,15.1,6.8,18.3,11.1c3.7,5.1,10.7,20.1,6.2,24.4c-3.6,3.5-17-1.3-19.2-5.8c-0.9-1.8,1.5-6,3-7.3c4.6-4,17.7-4.5,23.7-5.7
	c2.4-0.5,9.5,0.8,9.5-1.6 M78.2,48c0-6.9-10.4-20-7.7-26.3c2.6-6.1,23.7-5.5,23.7-12.2"/>
</svg>
