<?xml version="1.0" encoding="utf-8" ?>
<svg baseProfile="full" height="216.37319658676677" version="1.1" width="159.10125582460893" xmlns="http://www.w3.org/2000/svg" xmlns:ev="http://www.w3.org/2001/xml-events" xmlns:xlink="http://www.w3.org/1999/xlink"><defs /><rect fill="white" height="216.37319658676677" width="159.10125582460893" x="0" y="0" /><path d="M131.05994967503656,54.18562689320501 m0.0,0.0 m-1.7277049340748043,-6.748339737186955 m2.6048462800463015,11.704784690983635 m2.16416480360086,52.25951997136447 l-23.30330242239702,-76.61545709565846 -3.715742866365369,-8.192957798257014 l-0.7615123413255953,-1.5931769244506861 m-10.916058621011892,1.484658519976918 l6.563924499112202,24.96370044111628 4.152588970818041,18.974212398742242 l0.5825174374667169,9.650011784922187 -2.223153678543308,18.156457712349386 l12.377356206608953,16.35559785282308 -5.803677799356342,0.809321266680848 l-3.279839156249685,-3.1390589735904384 0.5763291635060999,10.06238998739621 l3.62366661313114,10.537084589693512 12.262464528488136,16.437553364100726 l-7.1356749639715,-11.131920843296236 -10.391523996612099,-4.407041075255234 l-4.409085226070311,-3.332820996222614 -17.627578566923685,2.3364171188369975 l-1.5217173555962142,-4.6523244283297815 15.096472914931233,-15.168539916284333 l0.019276726803944544,0.43484335765937243 3.2007850815818473,-0.6330027702995911 l4.038320473550883,10.58354256759067 7.688258016318062,11.50524669586075 l-3.258249088845134,28.07312112225708 -1.0809403043187538,13.067899776854116 l-5.4999184436895465,-1.895500725012853 -23.5741253136607,5.625637527412686 l-22.952730792192853,4.3144929732433255 -31.828385519796164,7.361217257541431 l2.2239345931728365,-9.06816030868917 21.092407430993916,-15.089999330875647 " fill="none" stroke="black" stroke-width="1" /></svg>