<?xml version="1.0" encoding="utf-8" ?>
<svg baseProfile="full" height="190.05397161039377" version="1.1" width="170.87956534058281" xmlns="http://www.w3.org/2000/svg" xmlns:ev="http://www.w3.org/2001/xml-events" xmlns:xlink="http://www.w3.org/1999/xlink"><defs /><rect fill="white" height="190.05397161039377" width="170.87956534058281" x="0" y="0" /><path d="M145.87956534058281,117.85717079114082 m0.0,0.0 m-60.06082467552191,47.19680081925294 l-2.779167567886465,-6.785280749638652 -8.74229345569984,-19.355655663340894 l15.462476166436034,0.5648422626583088 6.000188640845728,0.00024477148333796814 l3.1267116117965776,-8.756487376861505 -2.310883385189158,10.13309134499551 l-3.6438588852004985,5.030671533331926 -7.410727321707512,4.703419706445288 l-7.0389328521266625,6.557496503666728 -0.31338366158654457,-3.796056655680694 l0.3124916013221767,-5.467401205349665 -5.120509368549267,-2.757550288200262 m-48.36085218751549,-115.25949069049064 l3.573940746078217,-2.581034481699303 11.103587918869746,0.46892492697847343 l7.638843242315724,11.82549669153941 2.3975191553229505,5.813855047292928 l0.4763733260123541,0.967857259013275 -1.5331417621958816,-4.5686415162302225 l7.815307588821033,-0.9764418523823437 16.847691867335815,-7.048485231861418 l-1.8301666412248532,-4.343193786543592 -9.137033044998505,-4.424152159519748 l2.045915169723496,5.328725602044417 8.367674354424537,5.761262191916949 l-0.8182746329044283,7.078800928671376 -6.89096374929089,4.5797403440430395 l4.788017825508321,-1.1868104602326301 4.837952748735218,0.6521364238377966 l-5.609901314268218,6.643528927904139 0.04044911293638664,13.59108489868458 l4.401704011950127,0.38977622741595663 -4.707561536752527,-6.648083543923127 m-22.56463588595829,-12.839938413806326 " fill="none" stroke="black" stroke-width="1" /></svg>