<?xml version="1.0" encoding="utf-8" ?>
<svg baseProfile="full" height="119.43847810629813" version="1.1" width="130.8603641499079" xmlns="http://www.w3.org/2000/svg" xmlns:ev="http://www.w3.org/2001/xml-events" xmlns:xlink="http://www.w3.org/1999/xlink"><defs /><rect fill="white" height="119.43847810629813" width="130.8603641499079" x="0" y="0" /><path d="M48.87967909557414,85.73156296471635 m0.0,0.0 m27.826259993269016,-27.51507002023408 l6.153605494466703,3.023010528605477 2.835981631131868,29.840174481530298 l1.9599906449383901,3.358800151680085 2.982304176946079,-0.3571175457417197 l3.3201972606151786,-26.334550011697075 -17.36330476444156,-11.466019876161416 l-10.468078262716206,2.9976895870987335 -7.570876884350337,2.5695355728678093 l7.041384497297376,-20.210506174377052 0.12523551407979477,-16.637509658287417 l16.81074527051976,6.516603922232128 -7.2746961911194985,18.428212271013333 l11.652241504026705,4.252936937624033 12.798044631198222,8.793123756293006 l6.151650538472247,2.7340722779776754 -11.941246682348282,9.928767594346963 l-5.3476048394909945,-0.73110009411822 -7.885450973150208,2.9605215351918077 l-10.013322067817189,-2.144588379842794 -6.823766925707844,-2.918523393708151 l-9.571171285298776,1.7752480661620331 -0.1903221894314039,2.87973063930301 l18.571947312200034,2.798085842257191 2.154228141994844,0.3636731264900736 l-11.451957592593553,-2.8347440432579374 m-12.582363300362895,-0.7411740777379938 l-0.6519247766048991,1.7020961407641821 5.933281996622326,2.3844950058498835 l-1.7115273503272947,1.491056564587554 8.66355733686587,0.005930527571151095 l4.656045884638258,-4.130968212273956 -8.274516125934458,-8.505117373178532 m-15.219494149697992,15.788309065710457 m-19.174756563463415,-3.9685173221852286 " fill="none" stroke="black" stroke-width="1" /></svg>