<?xml version="1.0" encoding="utf-8" ?>
<svg baseProfile="full" height="163.6032688024718" version="1.1" width="106.81184961887229" xmlns="http://www.w3.org/2000/svg" xmlns:ev="http://www.w3.org/2001/xml-events" xmlns:xlink="http://www.w3.org/1999/xlink"><defs /><rect fill="white" height="163.6032688024718" width="106.81184961887229" x="0" y="0" /><path d="M53.1479390375564,138.6032688024718 m0.0,0.0 m-3.278470284354217,-52.43377346870307 l2.0207072815189973,2.5386933853013227 -1.5507473589599274,8.313864623978803 l-9.089565592181753,6.728591584380926 4.492489460960656,-7.553720422744423 l-6.508219237266517,0.5623523728870788 -4.705254595262536,-4.671835800035294 l-4.363026457966408,-1.8071201838250366 -3.0373527135799594,3.1297945314449143 l10.311722038237258,2.9987712872466274 0.23972753651753054,-7.353132413224559 l-12.679949115219516,-20.648474208606803 m2.4381762589195297,-15.963864706425765 l7.215976252151486,-5.031142951499765 10.90031157523697,-4.534624257548285 l23.2598711226223,30.48103386633859 1.6973076063306825,7.376507185824391 l0.0807902219003267,7.202538231575654 -0.3371047066090485,7.170114914175978 l3.4232165779852766,2.654644933019472 8.133304710334768,-1.358797143005929 l-1.6027224549836754,-4.302140262134362 m-38.49343083539802,-24.479180466087513 l1.0686645388229044,-4.575830353138788 11.903506677127151,-4.263577825145794 l7.071131275005299,11.008684993511682 -1.9858802509665952,4.063536055097664 l-1.364504028908488,-5.161256141362111 9.648962426050277,-6.340298821436818 l-7.08955813303436,-0.416192317001034 -7.5364932433017415,-8.30176753029753 l14.296699701792871,-10.498618469691182 -2.082536541815315,-2.6293480007449803 l1.732955679067764,-0.7284109179670339 -9.700416280454164,-14.779290106628828 " fill="none" stroke="black" stroke-width="1" /></svg>