<?xml version="1.0" encoding="utf-8" ?>
<svg baseProfile="full" height="225.8258419827597" version="1.1" width="139.50964561455174" xmlns="http://www.w3.org/2000/svg" xmlns:ev="http://www.w3.org/2001/xml-events" xmlns:xlink="http://www.w3.org/1999/xlink"><defs /><rect fill="white" height="225.8258419827597" width="139.50964561455174" x="0" y="0" /><path d="M58.96025646714814,179.30558894315428 m0.0,0.0 m11.172437240394899,-6.793413694552297 l3.373310757276325,28.31366673415771 0.5745204230063113,-11.92003266870783 l9.472349415394374,-4.337269410946852 5.153481424976216,3.754859976941146 l5.174077350782798,4.841516697774758 -0.19814598991215854,1.614751776889642 l-0.8617330579939948,-4.829649237318782 m-8.720104253768294,-89.54014800773216 l0.456438502013878,0.18344669563635996 1.196263346867823,-16.796755343954725 l1.3260443792626342,-6.831777722254332 -0.43780608197655224,-4.835299193906897 l0.7558563311630737,-4.129067492206919 4.129393680403148,-8.83336239074298 l5.458892303114169,2.7109607192880967 7.790501562690812,-1.662040301723936 l8.604556867157662,3.7928994632247934 1.1290549465504873,3.3253396062223226 l-5.5232686121610985,3.4278825624485165 -12.044064886417173,-4.154771426096582 l-16.802900523915394,0.3501278758890747 -12.959308703804153,-1.0739645158223439 l-18.90554816257798,-3.9234600119846563 -4.198267484132596,-5.387519903377222 l4.948225316574513,-3.6817346556453914 8.796800136675152,-11.092987894436058 l4.604459769056692,-2.485216689027997 -5.160970582652484,-7.946025053599668 l-4.3805931873421615,-6.3665454375891155 -2.5293666361044886,2.8231444779214185 l1.0170544849431702,3.9479556564874296 -2.769261151592992,6.946235370103658 l-10.091973458080076,6.483187843206722 -13.510661933020689,8.177234057757744 l1.628447503480418,15.666470064574957 8.08611219331435,-0.08702311190069922 l8.378504923981215,49.3838002514633 " fill="none" stroke="black" stroke-width="1" /></svg>