<?xml version="1.0" encoding="utf-8" ?>
<svg baseProfile="full" height="114.12262337775519" version="1.1" width="104.72469214401627" xmlns="http://www.w3.org/2000/svg" xmlns:ev="http://www.w3.org/2001/xml-events" xmlns:xlink="http://www.w3.org/1999/xlink"><defs /><rect fill="white" height="114.12262337775519" width="104.72469214401627" x="0" y="0" /><path d="M60.46898936468569,89.12262337775519 m0.0,0.0 m-30.055026832382545,-32.75417112046084 l8.834391465616584,-4.518807391402017 0.799040105624079,5.931216264754992 l3.0289589439823708,10.279037797591547 11.649638764571947,2.329379989016474 l-13.740728936857744,18.12645244900547 -4.390759426258755,-0.16437344703692758 l-2.545893632547112,-3.871482460774867 0.8498712978082354,-5.057942611555975 l7.050024349679626,-6.4931777607601315 11.376426641415929,-5.717657448632736 l5.0135410785359795,0.6534293365920271 2.0449550507490084,1.791142361017617 l4.265751375736292,4.452936919007804 m-39.64917961035958,-41.29457108801046 l10.02714967285405,-7.324595711694431 10.984410921489548,-0.48943945441274855 l9.192836897702344,1.1834143419460632 6.656625323285088,3.784241753245967 l3.608432217096087,5.2747032718488756 0.5291919363691375,7.582040444879948 l-2.7810755974615944,7.216242482442333 -5.152154985132382,4.289265039857817 l-8.87168562502726,2.070616736919909 -7.495346623878558,1.0161843769583498 l-2.9475985365734445,0.480534218395142 1.2858711183002791,1.8746886420698132 l4.841928710997226,2.547888103195176 9.272985911264627,2.406613269754697 l13.383806143005748,-1.1564825832521364 7.1001183280197155,-3.0290157689112367 l3.4626682608300094,-3.783800805544427 1.6265280708756438,-5.023670149453415 l-2.078863409004611,-6.215677227085609 -5.6634949969740065,-4.994299861523247 l-12.578863036544503,-1.2513835031806932 -14.140281826585905,1.2276708525719457 l-8.61999343325699,6.504064775667595 -0.6987974293059525,9.899426938556191 l9.628409981262216,6.63775680960488 10.819181587760998,3.5712401172293577 l14.819055689371217,-3.1157268958604494 " fill="none" stroke="black" stroke-width="1" /></svg>