<?xml version="1.0" encoding="utf-8" ?>
<svg baseProfile="full" height="140.31369036107762" version="1.1" width="88.18586338890408" xmlns="http://www.w3.org/2000/svg" xmlns:ev="http://www.w3.org/2001/xml-events" xmlns:xlink="http://www.w3.org/1999/xlink"><defs /><rect fill="white" height="140.31369036107762" width="88.18586338890408" x="0" y="0" /><path d="M47.53496320050404,73.01362412540398 m0.0,0.0 m-22.53496320050404,-4.001203416926191 l1.308002712166368,-7.650420190502955 2.3801365986608833,-11.213209814491993 l17.902789157780735,12.443249720524458 4.52295407592982,-0.22213106576355696 l10.629243749229905,7.9233975224478685 0.11691126903416518,-1.1475827950951123 l1.3258258261022187,-5.8001691335027665 -7.3564546400349045,-1.2269934670887583 l0.8783484410195299,-5.234938689150563 -2.3193235347591155,-8.69268336914581 l-4.330125668852125,-3.3244834255827715 -6.311729953322785,4.014276879097716 l3.9942230100032505,2.3960478686251987 13.545812848012863,1.2595515872262604 l-1.223163915599594,-6.809641975002868 m-19.018793969210847,-20.726690361072134 m-10.160870454642122,9.84643977698811 l0.11758337470329061,11.444036146829472 19.700679821635724,1.8296723426096373 l4.941997987849794,11.486837997103567 0.49816231328412675,-1.6784843675358745 l-4.164038089694069,-0.17847045936058986 1.276956389536434,0.7603905392608667 l-0.5196669180433652,-4.343969852155853 m-8.226988209294928,12.341679154630745 l-3.634186037438599,10.161282872747751 5.319812588163586,6.9934742054573 l-0.02394480020896341,6.384434663817792 -11.746148170488997,25.2663673406847 l-2.7711718499439764,-7.034284797589117 4.361868136091999,-9.387835641120947 " fill="none" stroke="black" stroke-width="1" /></svg>