<?xml version="1.0" encoding="utf-8" ?>
<svg baseProfile="full" height="112.22001020335507" version="1.1" width="136.3909570757282" xmlns="http://www.w3.org/2000/svg" xmlns:ev="http://www.w3.org/2001/xml-events" xmlns:xlink="http://www.w3.org/1999/xlink"><defs /><rect fill="white" height="112.22001020335507" width="136.3909570757282" x="0" y="0" /><path d="M50.00599299791277,39.1471482620574 m0.0,0.0 m-15.062698807117131,2.265117872858181 l-9.943294190795639,0.7550549056518369 m22.043155660122665,5.639301085266695 l6.111185685937155,4.091168254049525 7.8539194189033275,2.3705852193953025 l10.476036877824923,9.085429335082724 0.9287893095855018,2.5803220385011385 l-9.723045992790128,-8.955044696124808 m20.608230916780244,-5.667850492203961 l6.006461220411346,-1.7628311109231705 -5.968442335293893,0.6296146010887382 m-0.15662326634178658,20.87838999326044 l7.098917314082499,3.845777581106401 19.719200064214252,-0.2505965784374763 l1.3931722022921078,-2.4934975580628347 -9.878940992349943,-5.04124191381309 l-10.867254188414483,0.6444135516687202 -2.9758766508961285,1.746095443935639 l-1.7924314381358109,-9.702250367662298 -2.804299409541293,0.8958275880932698 l-7.338172193193285,-0.4593008600316322 -12.961136086271319,-2.4817724304680593 l-10.216048356974312,-6.528763742758302 -6.0763708093397035,-12.456244248067865 l-2.195784224276325,-12.572256768629597 2.2355969380110174,6.598533668453077 l-5.253485084791598,40.03711391965308 14.719345001492849,4.021938290632501 l21.203529338021124,10.359829359783491 8.871653497395739,-0.5633827799595093 l-11.882947778011134,-18.057015763183884 0.9951655431866102,-7.770009139725849 l-2.045860551101395,-5.572346374464423 3.123221740025915,-10.3769524577446 l-4.796957321287725,-19.880303688276797 " fill="none" stroke="black" stroke-width="1" /></svg>