<?xml version="1.0" encoding="utf-8" ?>
<svg baseProfile="full" height="297.8833766635421" version="1.1" width="140.14415329258807" xmlns="http://www.w3.org/2000/svg" xmlns:ev="http://www.w3.org/2001/xml-events" xmlns:xlink="http://www.w3.org/1999/xlink"><defs /><rect fill="white" height="297.8833766635421" width="140.14415329258807" x="0" y="0" /><path d="M28.71694144639357,272.8833766635421 m0.0,0.0 m-3.71694144639357,-25.56037917709122 l25.941748402590246,-12.180455880919917 12.73399244596928,-59.16751088674113 l33.60751038458068,-28.60286753167589 6.646349028744686,3.2982898349787964 l6.888345981284805,3.6651747848082032 4.326207049418367,6.530579750665229 m-11.816003194435192,-11.951621454932727 l2.3966960960140917,-10.144607220600598 2.845438967967445,-10.51057258566764 l-3.193638385391423,-4.470478024763013 -3.968192781563285,-10.890313645960994 l-0.8482601677743048,-8.021076682370959 0.8063273451227815,-3.072950326154269 l-5.601965556480284,-6.761063832690156 -5.371401699131766,-4.1515666784118626 l-5.858130161733559,-6.139400990199202 -10.972214451815233,-8.212301670421358 l-2.796531156417661,-3.781923768225893 -3.630606897127626,-11.110388447650896 l-2.2685204671142323,-5.499858316644872 0.8570725567231336,-9.648940649081913 l4.725614026153006,-5.87127802784426 1.4311798827836724,1.70357701655948 l-0.8337305396329365,-0.00859255773077057 0.7126311838202106,-7.395191319334001 l5.672882627369896,-8.33703682480599 1.816783197755738,0.20767244038049026 l10.272501279330871,-1.7982939910148548 4.097004206508021,1.817450025937082 l11.112565033311078,7.099516868177267 1.1176449239193116,3.9314373796611224 l-4.723864492146965,1.0083621431972243 -5.4794203814443705,-10.705723807862539 l7.672356862762864,4.4854489069651065 " fill="none" stroke="black" stroke-width="1" /></svg>