<?xml version="1.0" encoding="utf-8" ?>
<svg baseProfile="full" height="149.33130807968274" version="1.1" width="91.74163335976428" xmlns="http://www.w3.org/2000/svg" xmlns:ev="http://www.w3.org/2001/xml-events" xmlns:xlink="http://www.w3.org/1999/xlink"><defs /><rect fill="white" height="149.33130807968274" width="91.74163335976428" x="0" y="0" /><path d="M50.77859924524365,25 m0.0,0.0 m-8.036159185090236,19.608228846905657 l-9.578332807525033,12.4684514131592 2.3505892408310247,1.0717394948036818 l12.407370906117514,5.399649484210465 0.6003712163084037,5.686273795814443 l3.825605131414697,5.409379054182906 -0.674911472115496,13.264342360896167 l-4.36560329066831,6.88787647833735 -0.8279634089378163,5.135422747830579 l6.9311413016499435,9.232912149816984 -0.38498312042946214,-5.5930131811893276 l-6.37758223847941,-8.709739953209766 m-9.37151219450518,22.58939983198416 l1.0369904528820884,0.3202484045333033 1.6124998912596118,-7.492073110704802 l0.8257231202399631,-5.44513853650139 7.140080234567496,1.5427812203122482 l1.6247993961098068,3.0831834711762376 1.0879753644987111,5.8198425763011405 l-0.007563019308578969,3.7881697699219674 3.0337787574655097,5.0748033297644835 l9.543451372597227,0.1885684313370885 3.567268465638154,-5.135456400750151 l-5.592283253557748,-5.7626157550951 m-23.066405716345415,-40.245527741364704 l-0.9618431234535171,-2.37821655951994 11.858817741874283,-3.7367493992580947 l-5.016587581603376,-5.918050022049393 -4.804127803161166,4.243817171598438 l-6.491721685374433,2.4545056726674694 -7.667481938142903,1.459944557230081 l3.0262910916988552,6.741987068625119 " fill="none" stroke="black" stroke-width="1" /></svg>