<?xml version="1.0" encoding="utf-8" ?>
<svg baseProfile="full" height="470.59178934855174" version="1.1" width="171.1213320364844" xmlns="http://www.w3.org/2000/svg" xmlns:ev="http://www.w3.org/2001/xml-events" xmlns:xlink="http://www.w3.org/1999/xlink"><defs /><rect fill="white" height="470.59178934855174" width="171.1213320364844" x="0" y="0" /><path d="M30.109535223300675,445.59178934855174 m0.0,0.0 m-5.109535223300677,-78.96847403585416 l8.277234988135476,-47.610236232897556 m-7.641930385812015,-128.45910923020696 l25.397924108814262,-103.86998254455162 7.834516783343397,-21.102265562262467 l1.4814899912241877,-2.115031993098295 0.10779297146235119,-0.8847608676557056 l-4.374063516031324,1.9101793397644935 4.575310250884103,-1.5454677222736464 l10.590457115942066,-3.064365399413369 13.286319550443787,-1.4644480119556924 l9.265012574749258,1.7906725647653436 7.4086858562224895,0.9512038564265886 l3.581609653423017,2.77165286152417 m2.8342355338804057,-10.471761067330135 l3.057785847283032,-7.460898034512957 -3.004430616980943,-6.17500919678248 l-6.231524700962225,-8.603681192764716 0.42558879246172615,-0.8248193461779593 l5.938289016684042,1.4890777953084422 0.4610510733937523,5.470319340263125 l1.2482676892910505,1.064915331727434 3.602520554617973,5.120404193417658 l0.5556695456242344,5.816181948894201 7.954282094484997,7.638470153186703 l2.8924554961146236,5.746775913306404 2.6164213017997264,4.500648224819283 l-4.787856239547158,2.7888501315959404 0.3299418839148263,6.931183045734072 l4.554204140035383,16.37590285680331 -1.2011334079022624,4.4521892268972785 l-4.7248819406414215,-0.33776727405464585 m5.195756939032711,-30.445768560715774 l-3.5220314325132476,-9.241953425781885 1.6265006754700995,-5.171886558778809 l2.0692010422467755,-1.2220189588843138 -11.754780769448674,-26.37071091703306 l31.19543957534396,7.921143325982323 " fill="none" stroke="black" stroke-width="1" /></svg>