<?xml version="1.0" encoding="utf-8" ?>
<svg baseProfile="full" height="190.39747475906856" version="1.1" width="115.29383854457637" xmlns="http://www.w3.org/2000/svg" xmlns:ev="http://www.w3.org/2001/xml-events" xmlns:xlink="http://www.w3.org/1999/xlink"><defs /><rect fill="white" height="190.39747475906856" width="115.29383854457637" x="0" y="0" /><path d="M90.29383854457637,67.41796987351515 m0.0,0.0 m-1.6303446261076338,0.3645150031262989 l-13.799889501525934,-12.919975679113733 -29.997986926620534,-29.862509197527707 m-6.4526231148530995,42.63584958238934 m-4.402349065177724,17.02066935782237 l6.9053561288380605,47.99928945782378 m-15.916001439129502,32.74166636103305 l5.806180634482507,-32.296857060962594 11.96673082288438,0.8431307420521925 l16.763194986104526,-8.382954941455102 m-19.846991285511077,-75.76354564712499 l5.0227883062360785,1.4202430434043005 1.4101859394887932,-0.7912295752936033 l-0.39799150233380054,-0.4868250200881359 -4.415837734130613,3.1354450344768647 l-4.285469403083015,4.309536265026244 -1.1062590491648197,2.7479356430843827 l0.6601154422533714,3.299646703923205 3.544853401095598,2.1076993114679086 l4.222802489795608,1.4874610633293743 6.637369766565599,-0.859100356749592 l5.003733172678797,-4.914036500217854 1.899012055164263,-6.200197218406729 l2.625515592299948,-4.907566657183097 -1.4630267913353028,-6.63482353888477 l-2.255545834544608,-8.0739897518143 -1.2601333798999332,-2.7730959270453273 l-3.8528719343419326,-0.9642721799703832 -5.091208820724161,-0.7617032845214219 l-1.6830725539016815,2.2990410967399932 0.07885848881507812,5.30632720757371 l-1.6158001817023981,4.6698581236742465 " fill="none" stroke="black" stroke-width="1" /></svg>