<?xml version="1.0" encoding="utf-8" ?>
<svg baseProfile="full" height="159.19950755714027" version="1.1" width="111.32701762467306" xmlns="http://www.w3.org/2000/svg" xmlns:ev="http://www.w3.org/2001/xml-events" xmlns:xlink="http://www.w3.org/1999/xlink"><defs /><rect fill="white" height="159.19950755714027" width="111.32701762467306" x="0" y="0" /><path d="M78.21626818134132,92.03693829087953 m0.0,0.0 m-3.7583727161414826,-5.898581574228744 l-7.940027133189044,31.698266247271455 6.315961477770478,6.5515705419612225 l-0.972585847545292,8.24156791554699 -16.72284772094563,1.5697461357098235 m-29.110133436804357,-25.985012245849433 l-1.028262804485996,-1.8695447800278653 3.5988028324403074,9.592762757751062 l10.614255805738814,-0.9337678774493208 10.776213802490476,0.15694388177845187 l-12.84797687052909,-10.661467088919231 -3.7651592874195763,-8.07741097173511 l-1.899035274064941,-2.3593893847180576 10.724452149220722,-2.001666620963336 l3.8453036634687066,-3.8304756397671644 -3.825968351544383,-6.073094713249964 m6.41027041674648,7.499214522882609 l15.363603620916914,11.97595776616974 7.490963010454133,4.662774399218549 l6.4446872600648115,-3.354973686691723 1.1303705392355692,-4.666556563644841 l5.448153142643252,-14.399122565262372 1.818081164810882,-7.633539935591278 l-8.792475905810324,-11.226909434114557 1.8009612021919346,-23.650471026709816 l0.9993323136140048,3.1944548586672994 1.745246738624645,5.421168762034156 l-1.4605624037061415,7.8611484023900635 -0.9727669319815119,8.39796577889909 l-0.9611491050592019,-0.4646773482235622 -7.56482178003635,-13.493126156140915 l-5.64762679704642,-0.5238105164166962 -5.880007216001897,-9.244458775999519 l-4.28712103729856,-0.7852947456131953 -7.633529302223032,-16.727128609843337 " fill="none" stroke="black" stroke-width="1" /></svg>