<?xml version="1.0" encoding="utf-8" ?>
<svg baseProfile="full" height="214.00810014477773" version="1.1" width="109.11785936930825" xmlns="http://www.w3.org/2000/svg" xmlns:ev="http://www.w3.org/2001/xml-events" xmlns:xlink="http://www.w3.org/1999/xlink"><defs /><rect fill="white" height="214.00810014477773" width="109.11785936930825" x="0" y="0" /><path d="M26.830311802064085,152.51649638717402 m0.0,0.0 m7.322143278809901,-2.02116831870547 m-9.152455080873985,-31.1268325932667 l14.072278399760275,-0.023095328309554457 7.453068164011858,7.529099267184045 l4.150990816819797,10.122845114641757 0.9907110723314453,10.492687308874347 l6.726257861403567,12.949454179526853 11.012411980123655,6.044359846232557 l8.915056641841508,3.4222869394676683 3.141253711154932,5.707053666001107 l-13.35854141432318,9.255867542970734 -13.592131354100953,4.1390461329863575 l-4.085533691781261,-4.818104903172459 8.81194823744779,0.2679470995547051 l6.957476890708845,0.2837845324040686 4.945776136053297,-6.322725449790599 l-0.8001571019711919,-8.330060383053528 3.203864602576082,-3.8437914556315125 l7.373849739918508,-8.81174926158644 -0.9926083392910989,-26.163184670627555 l-5.579275059223612,-12.874852362111321 -0.5107883059243018,-1.02763100718042 l2.6309218744713347,1.3316888086770902 7.651028507300938,-3.7663825195989564 l-6.657169938946672,-6.741936971409756 -4.501336496127875,-5.555941018496237 l-12.271139840254294,-4.0998338275348 4.936428158718851,-4.297257423148583 l6.119921382031619,-2.622447264953424 -8.611296259778758,3.7021283758753247 l-6.791121056084517,3.019946898773825 -4.473730045999805,0.8994820966245256 l-7.1617820707636515,-13.580819099458793 -8.669597809009678,-8.723072267202069 l-1.5526946143829528,-2.262046012330261 -2.8612255959729294,2.08491386284498 l6.596888574520663,-46.8576560245607 6.130321451983192,-4.898499897684823 " fill="none" stroke="black" stroke-width="1" /></svg>