<?xml version="1.0" encoding="utf-8" ?>
<svg baseProfile="full" height="188.68851093534923" version="1.1" width="153.58156512143597" xmlns="http://www.w3.org/2000/svg" xmlns:ev="http://www.w3.org/2001/xml-events" xmlns:xlink="http://www.w3.org/1999/xlink"><defs /><rect fill="white" height="188.68851093534923" width="153.58156512143597" x="0" y="0" /><path d="M25,80.379602317154 m0.0,0.0 m9.67222545233634,23.620521574635543 l2.8947034690189026,10.83420596855626 m24.28555608755528,-53.96368920487938 l4.075694499278609,-1.3820126202494076 1.599605344358015,-3.070557468505131 l-0.3757782701137452,-2.8312420066595765 4.074101325234447,6.477749175569422 l8.911741607999351,11.352601686896202 4.9028682845259155,7.903034554333653 m20.0947512044068,-38.021459394499956 l13.01761174582448,-11.086209521502276 7.1645901384424,-5.212545060849349 l3.263894232569169,9.013942375346135 -0.39601776880209105,10.426974147147053 l-0.22468512450212696,6.240690926416353 -7.3020967456472885,5.6454826473032504 l-1.9192571728064902,9.239790936033817 3.3486903395669256,3.9906968836494987 l-1.6475246361474123,4.409819602627139 -5.725083413128119,6.115732344594115 l-10.541082448944655,1.7002941948177424 -5.835859750920314,4.518023723619575 l-1.4964924959372539,5.639576683186407 -7.259665078026405,6.717048633795915 l-10.713744065064112,13.578159394234142 -8.844243578391353,7.203839492519981 l0.08561313863099079,2.447329880325788 10.603918123888066,-0.6945160809957354 l10.477983426896035,0.42408557503638883 2.53180339875661,13.156667341017771 l-3.100118563601316,5.7840123144518705 -15.681763354332372,9.758435277562088 l-18.334340928805833,5.09859431597337 -2.775651757106745,5.254488891500794 l10.693080664638464,3.0193414351857797 " fill="none" stroke="black" stroke-width="1" /></svg>