<?xml version="1.0" encoding="utf-8" ?>
<svg baseProfile="full" height="173.3393490174498" version="1.1" width="111.15013277213626" xmlns="http://www.w3.org/2000/svg" xmlns:ev="http://www.w3.org/2001/xml-events" xmlns:xlink="http://www.w3.org/1999/xlink"><defs /><rect fill="white" height="173.3393490174498" width="111.15013277213626" x="0" y="0" /><path d="M50.91633765002862,72.00778154612593 m0.0,0.0 m5.002776181628477,-3.1490654374168723 l-2.602189563969952,18.610596719710728 -1.9532311488664633,-5.329021991070002 l-1.569023402283062,3.180284461708874 -7.5178370158839725,8.70130535373489 l-3.635029507076023,-1.9721515486169232 -2.952440875588776,6.680535986288354 l1.266156773585734,5.47319424408734 1.5813782936481535,30.15038336156037 l3.904031913290725,6.862014298920256 9.583466975203509,-4.29939326132396 l5.674875975209558,-4.346698778234173 3.025736346508079,3.621590776577267 l5.620079729701148,7.390607584493418 3.2566544050285495,4.079366936694929 l5.3262963243054235,-3.800126900710162 m-19.40526806343928,-41.2429870211891 l8.580383616676746,45.72113268610863 -0.7042225947369726,-64.64302490793494 l3.55224153046377,-10.078205394806336 1.0709058056740166,-9.503864163257543 l2.0300244921189994,-5.364166028552528 7.590535513775348,-10.49949641926758 l2.00370886147707,-10.353288337019402 -3.6198872298941143,-6.386106481541585 l10.123671785550945,-6.511197285069863 -1.0001670714483568,3.4654465030184993 l-8.534293907922786,7.4942827608017915 -2.899763523328197,8.40113758681246 l-1.214873236300561,6.349912763443376 -5.083120041293779,9.15320451162858 m-20.490869113144157,-11.693899728651234 l-11.838742029455402,-5.663906204158093 5.172708444981906,-7.989474070335507 l-3.024956442228619,2.6031171797199426 -4.579948170046298,6.550017725622379 l-5.740017685916278,9.579130609885809 -1.9160899960337219,-1.1196426787353542 " fill="none" stroke="black" stroke-width="1" /></svg>