<?xml version="1.0" encoding="utf-8" ?>
<svg baseProfile="full" height="180.27858177093034" version="1.1" width="155.50091432889286" xmlns="http://www.w3.org/2000/svg" xmlns:ev="http://www.w3.org/2001/xml-events" xmlns:xlink="http://www.w3.org/1999/xlink"><defs /><rect fill="white" height="180.27858177093034" width="155.50091432889286" x="0" y="0" /><path d="M42.85274104920535,149.32238904290514 m0.0,0.0 m10.159855579319856,5.956192728025204 m17.846886526737265,-58.08637070090702 l-6.7711166628295425,13.589961758137843 -6.911941055702738,-62.772418007776736 l-7.32127479961346,-2.2846849374733744 -5.134826918841111,-0.9995407638400157 l-7.8697114463056606,-15.19627100073928 3.3193906225318113,-4.529258118331761 l9.841780449990344,3.0864257293658723 m-13.056961010326086,57.92548219494898 l-0.07783791838188975,4.426783901455392 13.369850847928399,8.542570332333634 l-2.322301518501849,1.2841124836110618 -8.858773099283447,1.8791729243249293 l-6.162807084807356,-7.755774786835557 -2.828351590163122,-10.68876476084184 l-4.08303055638122,-8.864410728515173 -0.9915714145755467,-3.709157996449795 l5.222697530297262,2.3592682319802125 12.74212745146054,0.4739815915761808 l7.841883363157984,8.785716154245781 5.857184475447622,9.23738316477705 l17.46244189955956,3.98864177684652 11.443792547020914,-5.641485055617377 l9.389877329116855,-7.393713111595723 4.481841746318402,3.83182176702198 l13.686550714957301,9.530550120218072 11.943519764448776,3.9070306680491074 l-7.437233779160746,0.3497165154236201 -2.0099334171936722,0.7908472674581302 l3.052056546759647,1.0787494472878143 11.824108156702424,1.5187161364222042 l-3.897215257869402,1.4038276413823174 -17.566546651699174,5.8594210421974875 l-9.40584534659852,20.440723640054486 -10.826852069095692,-4.352627122652906 l23.04406198527276,-55.28463228473125 -8.055141382573426,18.192949012905483 " fill="none" stroke="black" stroke-width="1" /></svg>