<?xml version="1.0" encoding="utf-8" ?>
<svg baseProfile="full" height="195.59412116598511" version="1.1" width="107.48985962591158" xmlns="http://www.w3.org/2000/svg" xmlns:ev="http://www.w3.org/2001/xml-events" xmlns:xlink="http://www.w3.org/1999/xlink"><defs /><rect fill="white" height="195.59412116598511" width="107.48985962591158" x="0" y="0" /><path d="M82.48985962591158,113.93934438668808 m0.0,0.0 m-29.007549053782107,26.583002148637778 l-0.4546481297544742,4.707709803910086 4.5063787291506445,-2.628048076283538 l3.3152977358740348,1.2418243021300672 1.0924478618105677,4.634021057793159 l-4.670597622249557,7.5023580210359375 -8.382647755019144,3.8759669245313577 l-0.8501067024327005,7.04149662353339 -6.142493192276082,3.696445974008804 l-4.641834046207271,-12.071638877186809 5.741303934963371,-21.79921205229559 l-3.3906296467250905,-8.69272387391542 14.451239140503809,-3.6478603061667263 l9.692991770064069,-19.379627710826554 -2.110157442861623,-4.540215253177339 l-6.4490323517990245,2.005235543623367 -5.425561303616788,0.9692373197473538 l-8.176383074789605,0.6358896265059111 1.0230364985408407,0.6683783395116869 l5.652750297190384,-8.749620841252781 -3.833984209150479,-9.629770045455066 l-9.753107808765717,-13.068593233179877 -1.4818743920606863,-5.313244464500239 l4.273745987437013,-4.908835118791324 6.469941575700317,-27.71001607487524 l-6.855280354471912,-1.2751802700394093 -10.160857635014828,0.3049612834161558 l-1.9222484361695291,2.4259575129529276 8.250196823691235,15.154826232239852 l10.147091677935835,6.168495641776765 4.9363283372870566,-1.6782340002427147 l-8.647715721203424,-4.238155777957969 -14.01099899236294,-0.8692293797963793 l3.8066316836861023,-6.173529561115949 -2.632242473992233,-20.181415824983755 " fill="none" stroke="black" stroke-width="1" /></svg>