<?xml version="1.0" encoding="utf-8" ?>
<svg baseProfile="full" height="219.86353707407903" version="1.1" width="144.0979723362402" xmlns="http://www.w3.org/2000/svg" xmlns:ev="http://www.w3.org/2001/xml-events" xmlns:xlink="http://www.w3.org/1999/xlink"><defs /><rect fill="white" height="219.86353707407903" width="144.0979723362402" x="0" y="0" /><path d="M65.35460605265865,178.26958758766852 m0.0,0.0 m-37.15122526030766,10.172165635609744 l8.33052211315246,6.421783850800751 m-11.533902905503448,-56.19040720465741 l24.611916080407426,-77.80157463249442 -6.037892384281758,-26.96546850993704 l13.147857658090265,-6.259708451275295 7.812181414893798,5.095196186463167 l7.553690640983889,1.8856222782063952 20.032284732600896,0.22362166215955998 l-7.437528983030394,2.042308078289452 -6.400485055140131,3.485132420232052 l-7.858981300779495,13.09205541249541 9.754695273911912,3.3868668888485898 l6.78820424301639,2.5249707222883453 -2.3213808632798494,9.690569602552836 l8.740472351230661,8.003773403240103 4.6924546835802445,16.454336972263608 l-0.7103499872223817,15.625374657801997 -7.359249400820654,0.22355979016827732 l-12.406936837464405,-1.7291439969406375 -2.6974613968144316,-10.158122684265031 l4.819711823858694,-10.868475437271972 6.8423819924573985,-8.774346348875937 l-4.024695057729015,-8.170465597372308 5.698098620030985,-11.198819527736873 l4.818859069715301,-6.205784407514317 13.028731820503449,-1.960460517564332 l-0.5557082438439054,-12.158742082285125 7.998016110009361,-4.888205291567547 l4.791641771181399,-5.424625066664297 0.77744356017454,-2.8425753926662756 l-14.049639766135233,11.142316957136801 -12.417639852576059,14.103875266058076 l6.621153728567914,2.0182795308640906 9.085551082511799,-4.733966055833074 " fill="none" stroke="black" stroke-width="1" /></svg>