<?xml version="1.0" encoding="utf-8" ?>
<svg baseProfile="full" height="164.18605359445138" version="1.1" width="198.37060825568372" xmlns="http://www.w3.org/2000/svg" xmlns:ev="http://www.w3.org/2001/xml-events" xmlns:xlink="http://www.w3.org/1999/xlink"><defs /><rect fill="white" height="164.18605359445138" width="198.37060825568372" x="0" y="0" /><path d="M149.2103959192158,139.18605359445138 m0.0,0.0 m-9.558865005486185,-83.9350901122669 l0.5455079892947942,-6.845278169428399 1.5328722678016937,-6.6169990561714735 l1.6955584559872556,-7.861847529504105 -3.1540793019432147,-6.584066653826072 l-8.128689563811317,-0.4045465782768415 -8.205419855377109,-1.9382254949775828 l4.986079853745502,13.101132852773357 5.816636452958069,5.2631254099031795 l7.3887142886547394,5.9991857343246195 8.753469820246847,4.0063661706555305 l13.387363207065729,3.848109077015709 1.8079682624415785,2.270885514909642 l2.7701400691716582,5.683118644308794 2.5300129410365138,14.128134817281177 l-8.42330701528676,26.6620611322826 -8.006883161207531,9.94260872297384 l-6.654599635289574,4.974645797429671 -6.762331200885414,0.992550497130329 l9.272990718180743,-2.427688658509739 1.3848331804790164,-0.26546417792933097 l2.149528453254191,-3.4319953993094665 5.113482730193355,-5.093571730793547 l12.343006943056215,-4.012493947564436 1.5762214421871206,-5.6170848319844575 l-1.535701021672316,-31.83522609550889 -1.4500570486063817,-12.031894285210651 l-6.879035375527411,2.111525066181743 -9.652559813815554,-0.7575996273542193 l-19.4952583218061,-2.710392940318883 -5.841789711624152,8.80031396692674 l1.5145172784972527,9.555435378068273 -32.82729742886964,14.546861745012642 l-32.20884479228134,16.04112178902089 -39.99458201997809,8.368413604331359 " fill="none" stroke="black" stroke-width="1" /></svg>