<?xml version="1.0" encoding="utf-8" ?>
<svg baseProfile="full" height="255.1418254786224" version="1.1" width="144.77243168203412" xmlns="http://www.w3.org/2000/svg" xmlns:ev="http://www.w3.org/2001/xml-events" xmlns:xlink="http://www.w3.org/1999/xlink"><defs /><rect fill="white" height="255.1418254786224" width="144.77243168203412" x="0" y="0" /><path d="M100.4443262911023,199.59186448536153 m0.0,0.0 m11.463435577921505,-3.2191472652870083 l7.864669813010312,25.04803007352092 -34.85359054772138,-22.364919457853258 l-3.4896883528793587,31.08599764288022 6.240924089544134,-40.675828265406565 l9.394489205955127,1.3912435895516402 6.665069090404693,4.254791352353989 m-20.52513608314164,-20.028895333429006 l6.701885075866799,-14.948257995898201 4.777989765183488,-10.759705600707187 l4.710239782996388,-4.922478906524038 0.16926954623781576,-9.83238535758094 l4.579735964846418,-7.4557968574248745 5.428575733657086,-4.534666828847318 l-0.9161488558077424,-2.5444814875163537 -0.5800691169511266,-4.290946429541835 l-0.1818954036835263,-2.8376635513307926 -12.3352421355409,-5.213783857014504 l-5.243623447011827,-6.66434527099208 -8.104457060427157,-3.5556287925376444 l-12.704572559484516,-9.671257377170729 -6.317066453525701,-9.221488399677291 l4.824999228046035,-20.83528510664631 8.77526981762936,-14.3962364065049 l9.118688234305505,-3.4207436710265635 0.2616581113034977,4.586806264454593 l13.355418174311854,1.25202978508678 -2.700113957913713,5.778117866034161 l-10.891773832009683,7.780541781249452 -12.307812907329057,9.26360588169957 l-8.513225551548464,3.114420087023978 -7.632295716112574,1.4565043177089536 l-10.206528300230888,-3.941421795455865 -5.54361374679516,-9.818517356770368 l-13.008485408974037,-4.369122684669988 -3.721304065233879,-12.83837975347192 l10.262712849241012,-10.030784700499552 0.33701665442823825,-7.211784617140697 " fill="none" stroke="black" stroke-width="1" /></svg>