<?xml version="1.0" encoding="utf-8" ?>
<svg baseProfile="full" height="169.69580078926123" version="1.1" width="129.58444539829557" xmlns="http://www.w3.org/2000/svg" xmlns:ev="http://www.w3.org/2001/xml-events" xmlns:xlink="http://www.w3.org/1999/xlink"><defs /><rect fill="white" height="169.69580078926123" width="129.58444539829557" x="0" y="0" /><path d="M70.56338625278673,144.69580078926123 m0.0,0.0 m-14.303583046086517,-21.846967358801223 l8.699068342551914,-38.19181485800955 21.304360811197167,-40.942139880614214 l-6.402480344458444,-16.648296513932426 5.290322855924417,-2.0665821779038076 l5.697024785887841,2.740522900311395 4.559828076522481,11.731585449253435 m6.065191527509673,4.14633137602779 l-2.753684227107105,2.6228583896921642 1.8497609177322274,4.521018692985909 l4.015249445835201,7.808951540269972 -3.272497258870639,-1.0587606507076597 l-9.972269600382214,-6.560901671362862 -9.909090610267135,-5.368777939441962 l-6.396241185357909,-2.9933758140227185 -12.65532272652445,-2.67399675021446 l-8.069041288624945,-4.204467655823685 -7.62257266717528,3.8393925609043533 l-10.82442301656235,2.7107869921474235 -2.832463898161726,-0.8027138291465441 l2.4142207958235855,-0.06901185301020421 15.382429110309031,12.501405968041151 l0.2711851651888786,7.825242067744466 -2.103577893277095,4.610273800308304 l-3.361016997104216,8.081241160881278 5.428761832694553,6.121370062461078 l-5.240634029594586,13.528006039587943 -4.449631050949707,-1.0822097703368594 l-1.7915755368443094,-2.5209657885844603 -0.9420592909318187,-2.8025325147410207 l3.596335993102058,-2.9864400418620676 9.436900449004234,-4.688864600251713 l3.613992089234456,-8.693164577517296 4.842207541954006,-8.501946903355464 l4.430380270882398,-3.8793050926301635 -15.001442856601127,-6.249880869161514 l-1.0136294977940286,3.064050888705261 -23.54336924146525,10.695919627258844 " fill="none" stroke="black" stroke-width="1" /></svg>