<?xml version="1.0" encoding="utf-8" ?>
<svg baseProfile="full" height="102.19950372163856" version="1.1" width="130.8481165161039" xmlns="http://www.w3.org/2000/svg" xmlns:ev="http://www.w3.org/2001/xml-events" xmlns:xlink="http://www.w3.org/1999/xlink"><defs /><rect fill="white" height="102.19950372163856" width="130.8481165161039" x="0" y="0" /><path d="M25,25 m0.0,0.0 m1.6870068067342614,7.1658011176214575 l3.7796757873031996,6.8891778020309635 11.438739305666866,0.5607635340663725 l6.719629052557088,-5.625064260418676 1.4111173589505583,-2.4675630419359793 l1.7012156404843195,-1.2651551905917624 5.94957113434327,-1.4051193326390339 l3.088799494279434,-1.8773673780545543 0.4264146941362418,1.5781228692978984 l0.5761961808418494,6.262662892378197 0.7455240762547963,4.362599340680735 l1.702341287365186,6.646694925508802 2.616015718558642,5.666542301846604 l4.8527905513005996,3.148617000770984 -9.345022963192609,0.03555466617460867 l-3.853279670414146,4.786841502486913 10.396018816548352,2.2973394495742547 l0.8947059259370006,-3.534473043047398 -10.329588459827924,-7.120071601345923 m-7.704911198092704,-3.952847723895163 l-4.1972681942771715,1.1505599885306022 -2.050728012128249,1.5691390624238082 l9.388227749163606,-4.698906000199661 4.95531156351072,5.788161632163664 l-0.6794239122774964,0.39915305631584796 -0.6023788765333282,2.180926215585947 l-2.48468779206335,10.054456807728384 15.087179377600483,2.998392012190062 l3.6338006960042644,5.770043417630061 13.482954811550188,4.834521698760554 l14.170928747529913,-10.914602872601135 3.391240818290018,-8.56702654172849 l-4.008476962114346,-5.682874543290213 -6.083396187261419,0.3529230733596411 l-10.924489210142166,-3.0851224239261956 " fill="none" stroke="black" stroke-width="1" /></svg>