<?xml version="1.0" encoding="utf-8" ?>
<svg baseProfile="full" height="194.6132328158006" version="1.1" width="128.49714104028695" xmlns="http://www.w3.org/2000/svg" xmlns:ev="http://www.w3.org/2001/xml-events" xmlns:xlink="http://www.w3.org/1999/xlink"><defs /><rect fill="white" height="194.6132328158006" width="128.49714104028695" x="0" y="0" /><path d="M50.762677975414014,145.8679459286181 m0.0,0.0 m8.508043159391848,23.745286887182495 l4.735096630002251,-66.45497913202779 -1.7193080600562876,4.057904476092739 l4.807929505817612,7.543370708267647 9.807217775977202,-1.6091979929147049 m-33.335485788744194,-88.15033087521847 l-8.884973889487734,9.394532142503936 0.24598728573805492,5.219177995656685 l-5.116308645158922,6.230193592492254 -2.510403464957144,2.1968405540110734 l-2.3004724839367054,2.350509363805914 15.42667960605761,8.671748759083778 l6.775215805966971,4.817650938726313 10.82777370503539,7.1018555650887745 l9.928856724708405,4.630581680077894 1.2105786858349445,0.504400758264294 l-1.4462874067064329,-0.7670079636950977 -8.95756828819179,7.023344658947434 l-2.875876844433074,8.266229110049542 0.9178862863385956,2.570631521969228 l0.30417557458321975,-1.6040504755213758 5.137414978592002,-1.2424905286716994 l3.7125400455495288,-0.6221419942452252 2.609396978842245,-2.032345440278265 l4.267746740604144,-5.082859380612008 -1.1168890401397658,-5.408214072445575 l3.5337623004771377,-8.036068264767243 1.8991478060384093,3.629910308405744 l8.462737002206916,-0.4376045105543147 7.520837350692617,8.981363036310452 l5.697696120031616,10.557282104586085 4.661316908198256,14.498848924395313 l-10.024614912522335,9.10016544312713 -4.509632281567481,-0.12431283161775497 l-11.343684113773593,-8.683622565056238 -16.375712308471055,-10.384285406284791 l-6.938088185239284,-39.64032468620514 36.3444539112014,-22.368229558656523 " fill="none" stroke="black" stroke-width="1" /></svg>