<?xml version="1.0" encoding="utf-8" ?>
<svg baseProfile="full" height="273.152617486308" version="1.1" width="196.9314941338365" xmlns="http://www.w3.org/2000/svg" xmlns:ev="http://www.w3.org/2001/xml-events" xmlns:xlink="http://www.w3.org/1999/xlink"><defs /><rect fill="white" height="273.152617486308" width="196.9314941338365" x="0" y="0" /><path d="M130.62092093735336,225.2801429458678 m0.0,0.0 m-22.422989259854102,-52.142774227026045 l25.824845214530175,-50.217534503644856 0.9967964582218911,4.748848024936119 l-6.176970611860519,1.2274663057954567 -8.90057849652413,0.6122207586847886 l-10.654754783348752,-24.79596638839834 m4.68607190657911,-11.199024185016144 l2.4215097392207676,-18.533361510642887 -1.348156770420124,-15.312027952096749 l2.850350044114461,-13.876357280054892 7.66523805060831,-4.138318021432091 l14.387000464541805,-3.306832719744404 8.939160814438784,-2.024305014637052 l6.407947581329882,-7.861455881743025 -5.995842270003597,-2.5751535857893875 l-15.837501764011014,-0.8855667650582755 4.183756366647713,8.10221688981993 l4.92145922282204,9.020470041403131 -6.847988059620747,7.594025604979686 l-3.8678713599053705,6.81550874672015 -0.5338708124766878,3.8655318252718005 l8.748107469524678,13.205993776119174 8.75737981535349,17.557283975786582 l21.120883251605377,-7.066285417060964 1.9525719954939307,-4.987239761739226 l0.03401898947578502,-1.983115590724162 -5.8821915849004,3.428315092604182 m-9.981776448405249,85.75923049613834 l-9.053948259895675,3.4514533939522956 -12.382608299679234,2.2995306617944604 l-29.83701592534855,2.060367675267934 -6.593866988958537,6.130739214620979 l-41.786373832384285,10.732920477671527 -23.301938826684754,19.511880935185406 l-8.11177396757984,37.65378944849669 " fill="none" stroke="black" stroke-width="1" /></svg>