<?xml version="1.0" encoding="utf-8" ?>
<svg baseProfile="full" height="144.3868705269809" version="1.1" width="108.06047239926377" xmlns="http://www.w3.org/2000/svg" xmlns:ev="http://www.w3.org/2001/xml-events" xmlns:xlink="http://www.w3.org/1999/xlink"><defs /><rect fill="white" height="144.3868705269809" width="108.06047239926377" x="0" y="0" /><path d="M45.085145920668076,81.53351870018236 m0.0,0.0 m-11.970446653657104,-24.51537607720555 l2.8770921459218415,-6.39506735599743 23.892720938127237,12.587690893008817 l1.8358188161439992,-3.132751151866686 -1.4129183975334203,1.6666894337608589 l2.42631165502867,-5.602198608550046 -8.684747249997159,-4.232145994175118 l-3.973265115104923,-5.709683467789335 -3.718934335007243,-0.8702417247714408 l-0.5863522487281637,-2.9074646491121423 0.20452595702101992,-6.79770164385651 l-1.2306183283875765,-0.6354855590012866 9.276473693274477,-3.355373592617964 l11.479050864820072,-6.634409202008511 4.731825525148555,1.526923253970296 l0.8869697342649857,7.823616032561971 4.059481965957765,13.684811409349903 l7.729776981933328,8.779781436511904 0.15256052936932968,10.315127749515291 l-10.02018399446973,-5.269134033365623 m-36.532683768423105,-25.25371684202381 l-6.117792047591613,-2.6195890988385915 -1.120236031241659,5.557369212700168 l9.659073637526186,1.8760347766804832 4.574738293949118,-5.744128973985616 l-9.937752439821653,-4.408577523802983 -4.706249166191063,38.68400611024139 l5.52528203309121,11.086078330864863 -0.09135778329205979,12.373278211318077 l-4.508724439910379,11.518710504002664 -3.021910984358088,12.685675925189273 l-1.7626757085309337,1.7706040460912265 " fill="none" stroke="black" stroke-width="1" /></svg>