<?xml version="1.0" encoding="utf-8" ?>
<svg baseProfile="full" height="165.29998555215542" version="1.1" width="105.8859725625354" xmlns="http://www.w3.org/2000/svg" xmlns:ev="http://www.w3.org/2001/xml-events" xmlns:xlink="http://www.w3.org/1999/xlink"><defs /><rect fill="white" height="165.29998555215542" width="105.8859725625354" x="0" y="0" /><path d="M40.711879897891706,140.29998555215542 m0.0,0.0 m0.11982244101809147,-97.92534179209854 l0.17374310109833901,4.014996939015265 2.371102758997521,3.714507154194944 l-1.5489105683670579,8.76648863364385 4.357421097142341,8.015392138021335 l14.674030907741935,-1.4003483391730667 1.1628242069515826,-3.7493939830039684 m-31.800598285154305,-11.646860767149418 l-2.1113345453145747,-8.427196974809878 -3.1099810120055746,-7.812108201921064 l7.604939627414465,-8.12920563208599 2.2600708660187574,-0.7209147267888889 l3.2916748887541813,11.091130280992001 10.226648485172353,8.570078323403271 l-2.961727173945783,1.6542301998142699 5.082296227802741,0.7423608096543477 l-1.8486093293088937,18.929920940596777 14.188156618196018,1.6931673067843116 l7.392003987263123,-4.68147550675845 2.478822122549468,-4.49676726519888 l-3.7062462439720587,-2.49445721307333 -4.570266287489493,2.7448684257935785 l0.3659877915624221,2.6078030447656264 14.009544325393133,1.6496616435339273 l2.072676657124952,-2.2704078782648462 -5.7716438880701,-8.271669568606951 m-30.37144427893575,-4.729148454200072 l-7.2895888187845275,-3.73768129327017 6.973704957931887,-6.389632942312679 l1.4300226451132838,5.31109397641365 0.9677477242615325,5.622040381119704 l-3.8912378243342527,6.869603901114757 2.488047301777586,7.970769583103714 l-3.1558926938059373,9.90261322033076 2.3222372599162,6.977136039998298 " fill="none" stroke="black" stroke-width="1" /></svg>