<?xml version="1.0" encoding="utf-8" ?>
<svg baseProfile="full" height="142.58814260241508" version="1.1" width="136.1510330507095" xmlns="http://www.w3.org/2000/svg" xmlns:ev="http://www.w3.org/2001/xml-events" xmlns:xlink="http://www.w3.org/1999/xlink"><defs /><rect fill="white" height="142.58814260241508" width="136.1510330507095" x="0" y="0" /><path d="M111.15103305070949,110.42065651536937 m0.0,0.0 m-23.278876971622715,7.16748608704572 m-18.977195209227904,-36.07182236158754 m-17.843126383361465,-23.233653776698812 l1.0197925882023418,-7.917731490269842 -5.119814648254648,-15.181375247462089 m-13.113953177089359,21.514535707513254 l-0.05998509108737615,-3.3244807247516377 -4.624503321580245,-16.35968010569329 m-4.153370836688116,-3.2547570795637517 l6.3874857725804395,-0.7409931201916772 8.102675752149286,-5.577607970931673 l15.869011285960749,-2.440576432778032 7.736457934712441,0.9671964873634126 l4.646428377375482,6.3684611507931015 3.662624108223197,15.262910758558107 l-0.7467878237371759,11.808967208404532 2.5160060667303323,9.999415533278363 l7.904064471864279,7.224366746964962 1.7950543913742667,4.1390146935744 l-7.051226156157194,6.876435161655962 -11.243849055469157,-2.143888072412504 l-8.254914673979311,-3.604090196284371 -6.788743727998395,0.9903153944758417 l-4.486036919990563,0.3373194795653612 1.699857314362031,-2.399713965161187 l11.660926085779577,-4.067267076586402 12.140528362356905,-7.896858061663767 l6.012683025072709,-4.452541846870677 6.538636023639058,-2.349301569881024 l2.1032636530973656,-1.452097799258897 -1.3486039281290934,-4.27287612068686 l-4.669464017769894,-3.218339089648381 -11.050896130350697,-1.4804418024895567 l-8.871175994373061,0.3222418173756207 -5.266277406874121,2.5500877510291997 " fill="none" stroke="black" stroke-width="1" /></svg>