<?xml version="1.0" encoding="utf-8" ?>
<svg baseProfile="full" height="240.33130373208712" version="1.1" width="153.6636689830426" xmlns="http://www.w3.org/2000/svg" xmlns:ev="http://www.w3.org/2001/xml-events" xmlns:xlink="http://www.w3.org/1999/xlink"><defs /><rect fill="white" height="240.33130373208712" width="153.6636689830426" x="0" y="0" /><path d="M84.63237335067745,196.73451368427854 m0.0,0.0 m-7.918467687537607,4.0337993383163075 l13.719847888338604,14.562990709492258 21.499875045275765,-2.994726983445109 l0.6250110519433735,-10.909145370171018 -2.98213548291309,-6.478700354983607 l7.189196687618744,-16.00822205410799 6.397660519091795,-13.218291053623643 l-22.71862669511112,-26.151370408037742 27.352908743923592,-3.283546309371257 l0.8660255617350887,0.6995594679222233 -1.4111008583605014,-6.613376099620039 l0.26038192582451103,-14.054241830029458 -4.94407437712958,-20.46533023522259 l-1.6053885384438134,-2.2088544380376205 -7.086635343456502,-5.543976746102631 l3.346597881923069,-8.433939745526029 8.691050901525086,-3.74659213197816 l1.0172081840361569,-11.169890337936597 -9.494379182277678,-12.50481132010405 l-21.208418380607437,-17.276596972812325 -11.79270720865722,-9.969250808899476 l-5.715948749889986,0.5607080544106802 -1.0827934858067878,7.447430775846655 l18.03297205910147,0.6067957523318157 -9.310872453413928,15.013646821591538 l7.572042620448496,15.262881139949934 10.296689465482798,8.623243044051966 l-2.6526867359889925,7.292195746555141 -10.635785544874192,7.450342861022928 l-7.697266737755353,10.780174632425329 -5.333793697097682,1.8703164137738648 l-13.749220493469032,6.564146109279553 -28.63285868298814,-8.15202114254815 l-10.526681551167373,-20.222146616977035 49.6163131807131,-44.730955027448616 " fill="none" stroke="black" stroke-width="1" /></svg>