<?xml version="1.0" encoding="utf-8" ?>
<svg baseProfile="full" height="250.56912511428166" version="1.1" width="200.64541526679162" xmlns="http://www.w3.org/2000/svg" xmlns:ev="http://www.w3.org/2001/xml-events" xmlns:xlink="http://www.w3.org/1999/xlink"><defs /><rect fill="white" height="250.56912511428166" width="200.64541526679162" x="0" y="0" /><path d="M102.20613099767547,25 m0.0,0.0 m-0.26357137998646346,7.07964704769209 m11.097560249247682,55.018972880907825 l1.3497324640495583,13.664717337557715 -5.30158435389533,5.9785239652370965 l5.601956574992817,4.707275529681481 9.841730916815191,5.4870052798564455 l0.2673839543638923,4.384475498442759 4.034255018511403,7.500237226699002 l-2.35651587537266,11.30583784738496 -3.516890692845694,11.304421911030582 l-40.658927245634736,68.36296627071481 3.397026778286835,1.3409238287000018 l-6.168489116357705,4.434120490376909 2.002592748901314,-3.360182626639039 l8.13429956095971,-13.632714506194166 -21.57463783696909,-4.195391518993846 l-14.868421484878068,-2.1753792396496117 6.794101177914693,20.138532818429095 l-11.932184108755553,-7.356328804616004 -10.45560067338376,-5.878749244537676 l-9.599513060268917,-6.21787300962553 -3.030434613370584,-7.341392955383337 m38.65996232007386,0.43731315435405094 l7.472493733550582,-13.097238480817127 10.004914473332214,-11.157288152543003 l12.466196358560861,-24.505393613985927 16.93445348038506,-18.552352947232688 l21.331970214751557,-17.763804508588237 -6.421550949624996,-3.571752933601091 l2.404559500173473,14.90265505498543 6.233781262349971,31.871516805332874 l19.77483470803789,1.030164828879171 21.783800165201146,6.461697648849361 l-4.596951036493486,0.5050883081767849 -3.390575971490255,-3.7559241500740326 " fill="none" stroke="black" stroke-width="1" /></svg>