<?xml version="1.0" encoding="utf-8" ?>
<svg baseProfile="full" height="271.456571415236" version="1.1" width="108.13766791871906" xmlns="http://www.w3.org/2000/svg" xmlns:ev="http://www.w3.org/2001/xml-events" xmlns:xlink="http://www.w3.org/1999/xlink"><defs /><rect fill="white" height="271.456571415236" width="108.13766791871906" x="0" y="0" /><path d="M82.38547676991183,246.45657141523603 m0.0,0.0 m0.7521911488072353,-19.171327429490265 l-3.2343445705610883,-3.129272015040506 0.09806370140484577,-2.4298834428336202 l-9.633025848861395,-10.401455441367306 m-6.141147344192494,-74.28085121635874 l2.6209219782861517,-2.567595714794851 m-20.741315955520243,-41.10445487635315 l-4.719758886282239,-3.902963492519732 7.585954603711225,1.2266169871975399 l-17.13870773369445,-15.204440768889063 -1.2350155877127085,5.364026414467099 l5.8382354866840664,-22.3517064414302 14.754762466002301,3.3483428707029854 m8.017292536394336,-36.85160684852618 l-4.223046916356191,22.879307317739368 1.910407026573812,9.831291329164808 l-6.672369528174917,1.7222717162523926 -0.7929438628556135,-1.075264726773404 l-11.611899099936496,9.899272781006122 7.707648890085151,9.2114223659572 l7.840997191159414,5.220598569534462 18.469523971925295,7.981654319490983 l1.244272206745749,7.422087731394547 6.3870319294570415,17.116296494731987 l-2.855833404448823,0.618482087923336 -1.2913429353974675,0.8789942540713336 l-13.852785327318566,-10.509388446614919 m-29.511994262070154,-72.08380210103421 l-5.940157211123785,4.972624757497384 -1.0170914326418152,10.439933992350955 l1.9664034313332095,6.438482189392472 10.39632282992964,3.5304076956610007 l4.335876343092437,2.5117274265552694 4.367684078198957,8.789430041914063 l2.347037328556706,7.940448123487931 " fill="none" stroke="black" stroke-width="1" /></svg>