<?xml version="1.0" encoding="utf-8" ?>
<svg baseProfile="full" height="142.50561222120086" version="1.1" width="127.71471385915454" xmlns="http://www.w3.org/2000/svg" xmlns:ev="http://www.w3.org/2001/xml-events" xmlns:xlink="http://www.w3.org/1999/xlink"><defs /><rect fill="white" height="142.50561222120086" width="127.71471385915454" x="0" y="0" /><path d="M25.88048276630103,117.50561222120088 m0.0,0.0 m-0.8804827663010284,-22.403761442687706 m24.289774314038002,-2.1252291250805078 l27.208441571595404,-19.330865905327197 3.598446289392987,2.4533388557458804 l8.525249567932635,17.454764667034116 5.75719783545148,-5.542883239574576 l8.335604280744036,-20.836526948437655 -6.353586364212973,-10.200167291157824 l-5.018382212652776,-2.67847801428045 -1.4172869032524338,1.778471423061354 l-3.4160672222611246,4.288365304599524 -5.317172505933271,7.0417188219208 l0.35083630536652116,2.0410529414622722 m-8.356554615172183,-31.179972997194152 l12.403528341102348,2.555027357166749 6.227983035589798,7.662619152238632 l-5.3991884963179,1.8953466688195086 -9.102130359174696,8.742887592065594 l-14.18815831997116,-1.3732389359672807 -6.1628251206030455,-4.382262110800843 l-3.2714027196757898,1.1762252423319997 2.019883501963082,3.3236657106211474 m23.07668738864357,-32.86570994776028 l7.123318966081255,7.534794343341914 1.0232414289068736,8.892533360667423 l-0.5632818514343017,5.097739358926083 -3.780879829998288,6.437147418884856 l-7.309622724681823,2.327912930442578 1.5252126376524948,-1.3469524851765982 l-2.9190018852685005,-7.291295320434947 -2.049509255058526,-7.46954130929362 l1.2909904820223619,-7.631983276310279 " fill="none" stroke="black" stroke-width="1" /></svg>