<?xml version="1.0" encoding="utf-8" ?>
<svg baseProfile="full" height="120.13590236316057" version="1.1" width="107.78467858486019" xmlns="http://www.w3.org/2000/svg" xmlns:ev="http://www.w3.org/2001/xml-events" xmlns:xlink="http://www.w3.org/1999/xlink"><defs /><rect fill="white" height="120.13590236316057" width="107.78467858486019" x="0" y="0" /><path d="M25.961013174293047,65.48053641424289 m0.0,0.0 m22.65169375937785,-33.561878470909505 l-2.0312823661029773,-6.363498357652642 3.286970351684303,-0.555159585680739 l2.7474008177126223,2.224936481495901 2.050814824651972,14.975212452468977 l-5.978164748296007,-0.7166136599699968 -15.604787660710366,-11.650029890232636 l-2.532633106637053,-2.0673635713280167 -2.243418839861601,-0.8980720342741207 l1.3416926133915292,6.020235544288806 0.2765296534168535,3.651608956081176 l-3.2484446655562813,14.381686962081004 -1.677383807363893,11.81733970271121 l12.624652827495348,7.158180859841333 6.071475346673113,-1.3325030226451444 l-4.66861117887121,-7.376692109101867 m9.718311402988395,6.545767988615365 l4.6183856710849875,-8.04678245694256 0.7584331012020834,-1.4816209854321476 l24.491174770391968,1.7621752280847192 4.1708566438955055,0.6985892853679174 l-2.550730525644587,-1.9014868427856928 -3.6637315315882546,4.739531524660617 l-8.447188601557292,-8.352656165828577 -8.229321918091749,0.4211311030783449 l-4.241684777348984,-6.034813898544129 -4.369576932305099,-0.05010176149550514 l9.718274689466464,1.7309292497280273 7.231366721674037,12.778410919383226 l-4.072514150163547,6.634473731891227 2.285751687562583,5.050773926539086 l0.6785001712967725,8.928855396300186 6.660693232561325,3.089229747647389 l-0.1251306975029276,0.5620709090631765 -0.6026358666999001,6.8734987924132644 " fill="none" stroke="black" stroke-width="1" /></svg>