<?xml version="1.0" encoding="utf-8" ?>
<svg baseProfile="full" height="266.06829036926047" version="1.1" width="160.6564714069355" xmlns="http://www.w3.org/2000/svg" xmlns:ev="http://www.w3.org/2001/xml-events" xmlns:xlink="http://www.w3.org/1999/xlink"><defs /><rect fill="white" height="266.06829036926047" width="160.6564714069355" x="0" y="0" /><path d="M135.6564714069355,241.06829036926044 m0.0,0.0 m-25.004935604863345,-52.729292513094315 l-32.335640840116106,-27.242459285144225 m3.8509980279463876,-11.187401959789067 l-38.31418831062377,22.653090015780943 m-5.402428376469306,-12.203469602574286 l8.601559750464984,-10.401571172316437 1.8942034391552491,4.593395395644387 l-6.493811998930152,-3.6471753140044902 -8.143033177877733,-3.7023996679850235 l-2.1969918711626586,8.123303376106037 7.244578685222561,11.324029926579229 l2.7524164117271526,-7.650965592429504 -6.973182404732157,-26.044845116594225 l4.959924598384404,-11.036858157653956 10.292926432672388,-11.246589042995213 l12.831034911907748,-14.489154148119631 -8.160228505878894,-13.749482080712419 l-2.8789633154665837,-12.536074213652268 5.026561521693577,-15.781329591643706 l-8.038559991777516,4.388465709169271 1.0914587554371382,0.7857570883578857 l-5.2752026437133015,6.479170718813823 -10.616229049204595,-1.7703275613671436 l-7.496312885977113,-5.464820426431611 -1.8724249647538993,-8.401955401976679 l0.9264688112300318,-2.5604661036307834 4.5929741821466985,-5.071546652495393 l3.3212940306760865,-7.572571984215493 -0.3053115311638688,-9.9247470108862 l15.43267038375276,11.804877798244723 24.43550301270004,11.142668747997014 l-5.247730033506697,15.495412719298315 -4.860255142875513,7.526394373156434 l-20.617284173067947,-6.414007368725098 9.288168197519497,-13.719044159537237 l3.634796560601979,-8.10692871407622 2.815572971126675,-5.5916245239437234 l4.693180623280428,-1.146348466376866 -2.209949910953011,-0.5511848454480179 l3.3871443963610774,-5.33325907587531 4.672687805390721,-0.047073970163150625 l7.955921309553379,2.9423217406062143 " fill="none" stroke="black" stroke-width="1" /></svg>