<?xml version="1.0" encoding="utf-8" ?>
<svg baseProfile="full" height="217.1741835252369" version="1.1" width="84.66392523377993" xmlns="http://www.w3.org/2000/svg" xmlns:ev="http://www.w3.org/2001/xml-events" xmlns:xlink="http://www.w3.org/1999/xlink"><defs /><rect fill="white" height="217.1741835252369" width="84.66392523377993" x="0" y="0" /><path d="M58.102789497143036,192.1741835252369 m0.0,0.0 m1.561135736636896,-83.0199786469606 l-2.671983173206316,10.117359307157127 -2.1144627106163307,4.631979356808644 l-1.9178894085103766,-2.2667184717577293 -0.941280946747887,-2.9856587685728275 l-2.462705405538085,-1.5974468083145847 3.6660016613581794,-2.297487508913777 l-2.7942711329944316,-15.063817976277907 -21.956346713309397,-6.0568755896338065 l-3.4709874042152857,-6.156346344384955 1.441429804867164,0.3005508930479722 l6.222241675916706,-0.8104982779764258 12.97546275737027,-4.3220675908232815 l3.688803526019501,-4.032054608857392 1.1997240935764233,-12.586947252826395 m-0.8044468546677286,-41.02817523695098 l-4.557595871123125,1.6011715974458962 3.8984860713407743,-0.08196864403659382 l-3.9168835911045434,2.5054843489231002 5.339926470621681,5.34613586912235 l5.704703193683214,2.244510848916189 -2.3104935581320984,0.12380036515814104 l-0.911573486531641,5.079872757368165 -5.478227193626872,6.566607242531799 l2.7138085656663455,0.7022673146491665 0.5476824840325228,-0.15899119658666833 l0.08656283451836347,-7.225921742361214 -3.9157237336744988,-8.18794364918219 m3.2409387112668853,37.117972072343214 l-1.1435244551236323,-0.3442425628774404 -10.568561163597403,5.121756459175478 l-1.782848600777766,3.4215203186343435 -6.161532826565607,35.36067292553616 l8.85678341709547,8.642886354210463 -1.5427613957545205,4.0621175510750245 " fill="none" stroke="black" stroke-width="1" /></svg>