<?xml version="1.0" encoding="utf-8" ?>
<svg baseProfile="full" height="252.66848100030103" version="1.1" width="116.88308489573447" xmlns="http://www.w3.org/2000/svg" xmlns:ev="http://www.w3.org/2001/xml-events" xmlns:xlink="http://www.w3.org/1999/xlink"><defs /><rect fill="white" height="252.66848100030103" width="116.88308489573447" x="0" y="0" /><path d="M25,224.28179872338922 m0.0,0.0 m3.308042832238987,3.386682276911824 l12.55218539913236,-32.012490303918916 8.899438803601203,1.074566000586843 l-2.8484704830468845,0.7002926704895709 -5.168237716355169,3.0386541882031928 l-2.3602524314726594,-2.748035876750002 -3.2410758446450663,-4.976269952075502 m-0.16620757217728988,-36.39849456703762 l2.080388258555008,-2.0719773612758763 5.598930036871426,0.712926113919054 l1.2450686792007581,-2.056248596619659 8.742330850569493,-8.556944069311854 l-5.040500745995559,-16.075895029822114 -0.5241803038265545,-4.712739183488757 l1.6448628609348364,-8.802446790103094 4.4267583883990484,-5.411903305799971 l3.4526418200305797,-2.194518220422279 7.836776571792455,3.259747338166462 l-3.157698032492272,-7.991331951675765 -12.98982495556434,-3.9409665299005683 l-7.0534514258315495,-0.623789510766391 -0.7520244548200872,1.1152302699532801 l-1.7534018186808975,-4.694866385093053 4.984117407217897,-7.99584370364917 l7.773081871286925,-5.310924779987894 7.4168068886723,-0.4971562084379144 l3.713314007421337,-3.9762699431435427 1.3504851572464416,-1.63582664944946 l2.705800105254626,-3.3991327893413494 0.8596784140747321,-8.014631124524486 l15.550919637088311,-6.623953175415898 -1.3359934712263877,-8.206206102422318 l-2.641731109868848,-8.709665786416018 -1.2614556068414422,-5.945615500188106 l1.5890104977321278,-8.985754184581918 11.446952381258628,1.4257678915932197 l-11.057121152812899,19.313533442089795 -22.624473903003523,11.18864565634008 " fill="none" stroke="black" stroke-width="1" /></svg>