<?xml version="1.0" encoding="utf-8" ?>
<svg baseProfile="full" height="303.3048508652248" version="1.1" width="129.4688403604374" xmlns="http://www.w3.org/2000/svg" xmlns:ev="http://www.w3.org/2001/xml-events" xmlns:xlink="http://www.w3.org/1999/xlink"><defs /><rect fill="white" height="303.3048508652248" width="129.4688403604374" x="0" y="0" /><path d="M64.34332016329209,117.43210689142724 m0.0,0.0 m24.72325793120737,-12.177624525931758 l7.02898086628827,-6.697062777875137 3.0934782633012308,-14.778125739436264 l5.279803136348424,-3.9298973173803806 -2.386035931981928,-0.30176511383000454 l-12.464927889521677,1.8317146474967276 -7.661617498394053,-5.338701130939622 l-6.408011706174623,-11.824364147274029 -3.612028665303256,-19.037154065018036 l-2.0807286197395736,-16.9561468885953 12.146751224010412,-3.2229798326434445 l13.340297694215996,12.692207365541307 -4.134600909297173,26.694142076390595 l-10.616016022115579,19.81262165713978 9.907939394248618,8.894271387633461 l4.203778764795186,10.151500073130512 -2.5272252447077297,18.42615168229785 l-18.635910575584234,13.174691866501036 -13.861410275661083,11.509876956983835 l-6.624040869596177,26.830592183256563 0.36872327538216104,11.678937563448647 l-2.690310401770567,3.5425538926606213 4.798308780011339,-2.3257990362864067 l-4.314572129404106,-15.434699536038334 11.371694953534954,-22.735196954963488 l-7.995014389127324,9.120457057613617 9.852485226630906,-2.4262742596799214 l-2.7655570895032815,-13.69852944412837 3.5023563634673294,-13.353148749127808 l-6.187384138456298,11.9236223766528 3.0182543758777403,21.925711486278228 l-37.01403805627338,45.23840619771901 18.17907516873105,-23.943433495916164 l1.4317973921350662,83.43442177159287 6.33352677479283,12.171766746524622 " fill="none" stroke="black" stroke-width="1" /></svg>