<?xml version="1.0" encoding="utf-8" ?>
<svg baseProfile="full" height="154.357386058083" version="1.1" width="178.57842384872254" xmlns="http://www.w3.org/2000/svg" xmlns:ev="http://www.w3.org/2001/xml-events" xmlns:xlink="http://www.w3.org/1999/xlink"><defs /><rect fill="white" height="154.357386058083" width="178.57842384872254" x="0" y="0" /><path d="M25,43.77999394105266 m0.0,0.0 m48.51703180837726,33.65954887501048 l-1.1414036747709668,3.2949711617342237 15.883121700551138,9.997949726999233 l-4.18627787921565,1.1619051000637621 -5.025732832199872,-10.89606189355992 l2.4424722712289304,-12.635106392663417 11.032125645083122,41.62391002069065 l-1.9607752915504468,1.0147003381950348 6.3389869302366675,-1.7311711501741056 l8.008967266153748,-0.6642753392374773 14.480486541818301,8.056484689193839 l-3.2548097748137814,5.228877514314441 3.183636570274199,5.715340637364569 l9.241282531150803,1.7503188290990446 1.6826652423710875,-2.457699611450005 l7.637122532337838,-18.782108155676728 -0.4059787360361842,-8.935175638260114 l-5.87243966945939,-10.50497606135235 3.3697285701140234,-0.3003654951959339 l0.08724700131077567,3.225384761046032 3.8470324355280794,-2.19508422124898 l0.9256483139379973,-13.360397292096623 7.901466335497389,-6.559488192689802 l5.846820010797458,3.674099787465642 -4.023920051745631,-0.16982551326679474 l-18.423181136682143,-11.776387976950252 -7.12414152379216,0.6856122427873634 l-9.992248841008722,6.4923626191244805 -10.907762170130026,-2.279714281306903 l-3.2566405921282326,-10.905257814947209 6.57416840455207,-10.80529054781149 l13.360875826341413,-12.794827015993796 -0.8527528784951238,7.143112117994661 l-0.5750685545450183,11.396080524702233 4.8017790163146294,3.9035633449121274 l-6.002590025613827,8.527009188588302 -11.673865473375411,0.1793830754235945 l-5.422186048388697,1.9797990941594945 11.02984579844127,4.87465625676058 l13.794408975663654,-5.394287362367769 -1.6309978764476807,-5.327059614386152 m-58.65382549418824,-33.89050427604663 " fill="none" stroke="black" stroke-width="1" /></svg>