<?xml version="1.0" encoding="utf-8" ?>
<svg baseProfile="full" height="227.9842680793634" version="1.1" width="145.9755937837846" xmlns="http://www.w3.org/2000/svg" xmlns:ev="http://www.w3.org/2001/xml-events" xmlns:xlink="http://www.w3.org/1999/xlink"><defs /><rect fill="white" height="227.9842680793634" width="145.9755937837846" x="0" y="0" /><path d="M57.722924082082265,182.91305168764282 m0.0,0.0 m31.450271747396354,20.071216391720565 l-4.236775756621507,-42.04896652630027 -0.12792379092825842,-1.8996843986162388 l-10.350279622666875,6.463422011685281 -7.84880751648939,0.9840105084045647 l3.1490029998217843,11.722869667347116 m15.228661791699688,-10.09436064196906 l7.579649190824431,-6.530832206690148 -0.38227860299977756,-6.798242868174076 l-6.650873956933899,-3.307016834714297 13.995929068118091,-0.7748026681799903 l18.898033033280544,-0.5542358182468737 2.5480611172011614,4.751379855177453 l-2.246932274582502,1.965609603022718 -11.902438776112726,-1.870352535103627 l-6.685640265263742,-1.4182953232772255 -10.754545440184513,0.9516434357378423 l-9.343427901309049,1.3388395731473401 -14.212392732708267,3.9171132829206248 l6.649097470790949,-2.967453555067631 8.870474588743598,-0.15718629456873023 l11.39628710012457,-5.982896618299216 5.491592584901421,-5.316152922152728 l-6.112865022961349,-10.752882997714313 -13.484253875890207,-3.528604778835476 l-3.4249058204808844,4.0592145812135705 -4.507869922618785,20.364455233139658 l-21.918255619390063,11.667120237359443 -2.952787569279578,6.9130246966148965 l-7.371960950405172,5.420602727071243 -13.464769357158302,3.725241667257598 l3.5451561536286067,-5.855267378509905 6.794673698482591,-11.276794129398686 l-0.8429945665660784,-4.0840884394283545 18.765142982947825,-56.738096612420414 l18.830591898568443,31.6203384163693 -11.591855527131548,-104.49803154222516 l25.928143215055012,-7.394908485939618 " fill="none" stroke="black" stroke-width="1" /></svg>