<?xml version="1.0" encoding="utf-8" ?>
<svg baseProfile="full" height="172.63207219658833" version="1.1" width="92.27791894273972" xmlns="http://www.w3.org/2000/svg" xmlns:ev="http://www.w3.org/2001/xml-events" xmlns:xlink="http://www.w3.org/1999/xlink"><defs /><rect fill="white" height="172.63207219658833" width="92.27791894273972" x="0" y="0" /><path d="M56.836148496268095,25 m0.0,0.0 m-9.905361138743878,79.94917204479154 l0.2266817900990642,8.598167078568745 -7.720440197393021,7.238230292458803 l1.878572327368867,7.680371117420601 6.702272756907974,-2.0854985096319556 l-1.9761339741758603,1.5478053161082905 -13.642730675470265,-4.76855551625644 l-4.735485476775688,4.15115323584056 3.080348315975643,-1.845766165367602 l-2.254386141389273,-11.289835070715988 -3.48948608267166,6.191112048638523 l2.695175733905899,5.187399334954574 11.520041431019363,0.8776221229003933 l-0.608697155258002,-4.455847165220126 m9.20558485989518,-16.39168523059991 l7.271385211201542,1.091568688430045 6.53127311055626,2.831845264225411 l1.4478340204845157,14.477515615790692 1.8526423711174138,0.07460443971607389 l-7.030531028202381,-11.908947301508945 -6.75137781353327,-19.792857625591882 l-0.8542768351900228,-6.68344288005397 6.285092282008177,-6.631731282647173 l3.5666860514037455,1.3184230584125518 2.121501226320616,10.769822180058108 l1.4958998141395476,6.051985784743439 3.5296856628711404,5.351289227652845 l-6.562195389769463,12.332677608462625 -16.46657184443862,0.6076430033621181 l-3.5548569362110487,-5.260176090517753 2.717039202544041,-8.39738525095098 l1.7031601975690176,-5.143840562276259 -5.786135000021171,-2.366760196655129 l-4.536086294938178,17.216655261805254 8.941845642983287,5.084399325950045 l18.048897772975227,3.1200010748245144 5.067051980017468,11.89433496159091 l-6.4901133324654126,1.6966240766466267 3.282685320667183,4.471813525664899 l-0.4982438586930425,9.842165355564237 0.7282242247987547,-1.2498361610554642 l-3.7179240739525237,-4.810845862977636 " fill="none" stroke="black" stroke-width="1" /></svg>