<?xml version="1.0" encoding="utf-8" ?>
<svg baseProfile="full" height="232.80886683157453" version="1.1" width="190.62190193178418" xmlns="http://www.w3.org/2000/svg" xmlns:ev="http://www.w3.org/2001/xml-events" xmlns:xlink="http://www.w3.org/1999/xlink"><defs /><rect fill="white" height="232.80886683157453" width="190.62190193178418" x="0" y="0" /><path d="M30.77385274106977,112.20739380390498 m0.0,0.0 m-0.7594335921963591,-0.47554010412870995 m-5.0144191488734124,20.211513469780964 m21.501183074394373,19.09258670561694 l3.642114109841,-0.8226926480472148 -2.606360332986041,-4.65302094811744 l-0.5829388332722113,-12.674362891947064 12.646914805642703,-1.5666916496134053 l14.927574561359739,0.4412494733675265 8.625876343133706,0.5719177391746938 l6.984836468436592,-2.7903944437202663 17.177148171139933,-5.612709307917114 l-6.121725362433576,3.332646547122323 -0.2872303215274874,-13.153906540443334 l10.358401988025241,-12.894267489306905 9.337067088556653,-11.712614770215534 l7.934058759430926,-6.731768304251309 0.5507980748914828,-13.842342175858255 l5.389204894763419,-11.84112541230598 8.017079090213176,-22.831358118831897 l10.047319153892952,-9.254512934263001 2.881264320146707,3.5797516883829705 l5.9353246705018154,-2.0170989308582965 4.2639912076330635,4.725496628925849 l-15.292768031129276,16.36195832905992 -8.175295083701371,35.99563006634387 l-31.27839398928567,22.149738052900013 -5.429377705746271,17.655289610263925 l10.94114593685719,19.10221054776817 -1.3007989182535522,3.4258712975369985 l4.6765418885659376,5.578191135862127 -1.663575181954401,5.853971138073253 l-6.631995880349915,15.191649219140077 -2.7191365241817764,24.453829139474934 l-9.75489510546742,10.752378908700717 -15.941921029255548,-14.476496034763715 " fill="none" stroke="black" stroke-width="1" /></svg>