<?xml version="1.0" encoding="utf-8" ?>
<svg baseProfile="full" height="92.83157290529864" version="1.1" width="90.09401742961603" xmlns="http://www.w3.org/2000/svg" xmlns:ev="http://www.w3.org/2001/xml-events" xmlns:xlink="http://www.w3.org/1999/xlink"><defs /><rect fill="white" height="92.83157290529864" width="90.09401742961603" x="0" y="0" /><path d="M33.609250174982265,27.191332668099157 m0.0,0.0 m-8.609250174982263,8.353080730673641 l2.1765544830483874,4.291976542986906 10.43252733150391,-8.562785748065318 m-7.964115034769039,-2.09475497120942 l4.392001413125397,9.75350883266989 -1.0794279346763684,9.727159172948511 l-1.5467775791624139,15.208640156604337 1.153429756438168,3.963415520590928 l10.905844234227695,-8.186635862036558 -0.9472264163483688,-7.381931041845752 m-11.443270459921726,-4.2425168094957195 l6.374460716333423,-7.078009687946871 13.936535470012053,-4.624948483547007 l-0.9275045902096555,3.4192424563741777 0.9967852500357579,5.56687862384315 l-2.9320611961459546,3.3964163651638257 -5.389366852327931,8.251968066015696 l6.640788554484772,7.869949823845467 12.913685315059645,0.7484863972159861 l2.4011549689082745,-3.8218412725760613 m-18.931698250079897,-4.140364504901353 l-0.1432057339361703,-1.3193242169845865 m-4.322247358990639,-8.071607575093998 l4.746841183411689,-2.6220083122132607 4.985474039393632,1.4586521284106402 l2.1057825369991083,6.4248384681924975 1.5019604647012774,10.035090263196373 l-7.53473656111969,-1.7137291844371294 -9.089538300680882,-7.055066021524646 l1.6228064717377422,-11.281089764402909 -1.0718091169548698,-9.538290107529587 l8.174761277971566,-4.966217515897549 2.431582378950824,-0.17242931321436192 l2.492897461568467,3.8445646379889453 -0.7208476912168063,3.753483644858533 l2.4201264093075827,-0.4657393327242326 -0.5006051309055926,-10.919394774032353 l-1.1155218768746358,5.485423263706487 8.156165604082052,5.972248787873564 l-2.7553857998493703,1.6845049675791328 -0.4388246344657039,0.6449245391637773 l4.190141229688692,8.497717447791821 " fill="none" stroke="black" stroke-width="1" /></svg>