<?xml version="1.0" encoding="utf-8"?>
<!-- Generator: Adobe Illustrator 24.0.0, SVG Export Plug-In . SVG Version: 6.00 Build 0)  -->
<svg version="1.1" id="Layer_1" xmlns:ev="http://www.w3.org/2001/xml-events"
	 xmlns="http://www.w3.org/2000/svg" xmlns:xlink="http://www.w3.org/1999/xlink" x="0px" y="0px" viewBox="0 0 96.9 143.8"
	 style="enable-background:new 0 0 96.9 143.8;" xml:space="preserve">
<style type="text/css">
	.st0{fill:none;stroke:#000000;stroke-width:1.046;}
</style>
<path class="st0" d="M28.3,6.6c0,0-7.3,2.4-8,4.8c-0.6,1.9,2.4,5.6,3.2,7.4c1.2,2.4,3.3,7.4,5,9.4c3.9,4.6,15.1,9.6,19.1,14.3
	c1.6,1.9,3.6,6.9,4.8,9.2c1.3,2.4,3.2,8,5.4,9.5c2.5,1.7,8.8,1,11.7,1.3c2.2,0.2,6.7,1.9,8.7,1c4.4-1.9,10.4-10.8,12.3-15.5
	c1.2-3.1,1.9-10.1,1.2-13.3c-0.5-2.4-4.1-6-4.8-8.4c-0.2-0.6,0.4-2.3-0.1-2.4c-1.9-0.5-3.7,5.1-4.2,7.2c-0.6,2.4-1.5,8.5,0.4,9.9
	c0.2,0.2,0.7-0.5,0.9-0.4c0.7,0.6-0.2,3-0.2,4c0.2,4.6,3.5,13.6,2.8,18.2c-0.8,4.7-6.7,12.5-8.7,16.7c-0.8,1.8-2.9,5.4-3.1,7.5
	c-0.1,0.8,1.1,2.4,0.8,3.1c-1.1,2-6.3,1.8-8.4,2.2c-3.5,0.7-10.9,0.2-14.2,1.6c-1,0.4-3.6,1.6-3.4,2.7c0.1,0.6,1.9,0.2,2.3,0.7
	c1,1.3,0.6,5,0.7,6.6c0.6,6.5,4.6,20,2.2,25.9c-1.3,3.3-7.1,8.2-10.3,8.6c-3.8,0.4-10.1-5.6-13.6-7.2c-4.6-2.1-14.6-3.9-18.6-7.1
	c-1.9-1.5-6.1-5.7-5.8-8.3c0.2-1.8,3.8-3.6,5.3-4.4c2.2-1.2,7.3-2.2,9.6-3.1c5.2-2,15.1-8,20.5-9.4c3.2-0.9,13.2,2.4,13.2-1.2"/>
</svg>
