<?xml version="1.0" encoding="utf-8" ?>
<svg baseProfile="full" height="312.18482681310235" version="1.1" width="133.7785875660058" xmlns="http://www.w3.org/2000/svg" xmlns:ev="http://www.w3.org/2001/xml-events" xmlns:xlink="http://www.w3.org/1999/xlink"><defs /><rect fill="white" height="312.18482681310235" width="133.7785875660058" x="0" y="0" /><path d="M108.7785875660058,266.1807472933827 m0.0,0.0 m-6.765874609859124,21.00407951971967 l-4.63055011765349,-5.854013457364823 -12.742869305160903,-0.6254696265630544 m-7.303694397125571,-21.37160976007447 l3.265366917280751,-5.095335884839619 m0.3667450458745014,6.80357007973444 l8.656790473568503,-5.134301848686015 m-7.742797715170213,-107.47682274062117 l-4.746835938919777,5.0239418013489745 -10.295434779785367,-3.6210023056085316 l-4.22035702334576,-3.174432214353853 4.240860068689798,-5.958156535114877 l4.180823285417262,-3.1206012564831545 9.698408037650772,-4.9627318254158235 l-8.3910056096793,-14.780582740198406 9.904216588429087,-31.153761745024102 l4.494587859274329,-1.901154482019917 -0.8963379853081077,-12.204485323427484 l-11.14328325499128,18.4003943590778 9.545454496317047,4.103147124004086 l4.613951010548934,3.1644408852982564 5.794152494440581,-0.9691553487991844 l-8.548025991788991,4.705775103849046 -6.173038156614164,0.04280075971197145 l1.759265105693979,-8.758315842155362 -0.5004590265713371,-10.407416829694242 l-14.359633968029542,-18.701065892992784 m-39.241310953175606,-0.8898120965534995 l-0.6793955860573233,-6.260827776966012 -1.9183045299554982,-15.331962049523206 l3.769599252484449,-9.081349104427675 3.094309995587495,-7.594530239219732 " fill="none" stroke="black" stroke-width="1" /></svg>