<?xml version="1.0" encoding="utf-8" ?>
<svg baseProfile="full" height="162.5479883255685" version="1.1" width="163.21645712646762" xmlns="http://www.w3.org/2000/svg" xmlns:ev="http://www.w3.org/2001/xml-events" xmlns:xlink="http://www.w3.org/1999/xlink"><defs /><rect fill="white" height="162.5479883255685" width="163.21645712646762" x="0" y="0" /><path d="M78.12712666752279,102.54782972201654 m0.0,0.0 m17.49447151338952,35.00015860355193 l6.930245745581445,-16.58918692574038 -9.132637440428306,-12.130617118604523 l3.3120833264182683,-2.1482031257468868 -2.367577726609406,-7.822764587347413 l-0.6113699211104617,-8.890526424452775 3.747044149152455,-14.619510859628253 l6.444441659206916,-5.520424746525173 14.55708076787013,-4.702300772144649 l10.840683584474254,0.06743065601302334 8.874864801000017,-8.45935455030781 l-7.394332871652984,-8.844358180012252 -0.5831217874068861,-8.330510361150022 l-20.560074346135558,-0.5084802538584027 -8.04161733766223,1.7073337296151603 l-6.1413526543635,6.287665547606321 -2.177881725277795,2.6978470114872852 l1.523406819205363,-9.053667767161661 11.300162905003788,-6.265218087913322 l-1.200611849535349,-1.5236774567422684 12.022543594662011,-7.899464052954486 l0.0048063986802349135,5.502079648120175 -5.927154694322232,14.995703876969428 l-13.35260494200288,5.8737612442808 -7.676596857304059,2.304743896821667 l-10.096945022345585,4.9655926026861374 2.0953121608927847,3.118657735173657 l-6.555222382584033,-3.702513862959126 -27.440301753653653,-8.514315277279215 l-22.244869522584658,1.0537535718939608 -0.770001258080405,14.936559897056114 l11.354989984624192,7.212947760878777 18.084711472240016,1.119064515426397 l9.091965947489653,-5.495104525444738 -1.306847960844335,24.2285423289972 " fill="none" stroke="black" stroke-width="1" /></svg>