<?xml version="1.0" encoding="utf-8" ?>
<svg baseProfile="full" height="103.93464071160881" version="1.1" width="103.36652113691306" xmlns="http://www.w3.org/2000/svg" xmlns:ev="http://www.w3.org/2001/xml-events" xmlns:xlink="http://www.w3.org/1999/xlink"><defs /><rect fill="white" height="103.93464071160881" width="103.36652113691306" x="0" y="0" /><path d="M49.63370838480849,49.73767124762145 m0.0,0.0 m-11.263710899110464,-20.08398261521841 l6.783720705465022,-4.6536886324030435 4.14768878923018,0.9125077180068892 l9.475003026534436,3.519024909541081 1.063327987486486,3.4563685270847966 l4.425365368505064,7.910541782484371 -0.8359343695267707,1.5941234584913024 l-2.979591313207499,3.9304668984201983 -2.565991436102557,1.17075617118103 l-7.837307662775041,1.7358922073108773 -7.011536104972353,-2.0556941817380134 l-4.085608725995532,-5.791499207582304 -4.819867321673133,-10.778659633182945 l5.580208484095231,-0.39887912336995124 -3.99993835248695,7.763945919213671 l-0.4469736910746708,9.556447656292534 0.20042370820872818,11.162873605906759 l3.1930246373910047,8.43835189884059 -0.48381877504930754,6.131834267303857 l4.858110851728417,3.4296104447575257 1.6611032953787452,0.5428484079235302 l8.810900984116579,1.7037789847230047 6.695380687189699,-1.160027791021085 l-3.729179454675605,-6.391379939199779 m-12.663144779540335,-18.409194611267242 l4.665983253040313,-6.323248647288276 2.7038814441960493,2.954064680760683 l4.617694055461464,3.10330518818949 0.844394385245525,3.1774020136746697 l2.861527387869676,3.5310307967361156 0.6983344823007228,5.162827576024 l2.3044818619093355,4.702501220893866 0.8754080304104115,5.355654436545159 l10.081868274487215,1.7044250541420363 4.907583938044492,-3.152068785864585 l-7.082661501419208,-3.0937280847175708 m-40.79174290073125,4.204485293423532 l-5.492116734762616,-4.793442336873844 1.144982192721629,-2.258544071657408 l9.542333568372689,-7.650252764399173 4.200844274494129,-4.042726606494358 l-5.887367166912519,7.989883409920715 " fill="none" stroke="black" stroke-width="1" /></svg>