<?xml version="1.0" encoding="utf-8" ?>
<svg baseProfile="full" height="132.38061400051106" version="1.1" width="200.67641423898732" xmlns="http://www.w3.org/2000/svg" xmlns:ev="http://www.w3.org/2001/xml-events" xmlns:xlink="http://www.w3.org/1999/xlink"><defs /><rect fill="white" height="132.38061400051106" width="200.67641423898732" x="0" y="0" /><path d="M74.0004570711357,39.97397269320615 m0.0,0.0 m24.5859708253973,35.15693800758333 l-15.575653992436262,-41.15720646495966 -1.9803453487721112,-2.0604669979885317 l0.714564599376834,-2.794309214182709 4.291898217256312,-4.118928023658582 l2.0223194439799066,0.0874084978258427 -0.2722427484426859,4.641540202684953 l-23.539721433834462,-0.2018787651196119 4.2855761351188315,-1.4239098902940528 l-6.723196770419602,16.646648664695835 1.7836964251109861,9.381727884998048 l-3.9343188189107403,-2.3332828079376235 -1.1951750046251397,-2.5190541537047864 l3.743711002865062,17.205627811391608 -12.906391026892207,4.69617865902948 l-13.636900340875222,-2.7936720744992454 -10.6642482350325,3.1383435004531854 l3.872647233455649,4.208772091071064 6.653528818406562,10.525911994706632 l9.006756012886262,8.85681793262442 2.7069609221203965,0.8094523255420671 l6.9183413324435445,-10.43720900472269 1.3674645598486463,-6.661823711229157 l4.038446149561907,-31.654300319472206 5.186935670136257,-6.524230723407243 l9.86610163526413,6.375576058786077 6.194834604998065,8.14422123256332 l13.24362866493436,5.771212845192341 6.052688894036305,-3.340204902669437 l11.18372509496918,2.9847957023879537 7.118515907739853,5.34833882185145 l7.937908880366997,10.305936227980496 8.299421968296357,7.315021285630275 l9.734015108354926,8.125568523344713 2.5546015142777847,6.912789758595537 l4.849982905619383,8.788290332211819 15.243385256506372,-56.365713719801654 l8.64652310476435,-3.5488754715893513 " fill="none" stroke="black" stroke-width="1" /></svg>