<?xml version="1.0" encoding="utf-8" ?>
<svg baseProfile="full" height="171.827260809026" version="1.1" width="119.46446760880457" xmlns="http://www.w3.org/2000/svg" xmlns:ev="http://www.w3.org/2001/xml-events" xmlns:xlink="http://www.w3.org/1999/xlink"><defs /><rect fill="white" height="171.827260809026" width="119.46446760880457" x="0" y="0" /><path d="M94.46446760880457,91.5884440757853 m0.0,0.0 m-11.118436713166924,-8.96610955275403 l4.599234856603125,-3.060496794008923 -10.80781713310711,40.24916073734038 l2.746711840155165,3.7693712581417804 -3.7966222393163207,3.129676544099217 l-10.36584112709706,-4.518314372692866 m1.6534958011232215,2.944826898876225 l2.2454796221999294,0.865112851529144 2.92135785889929,5.580582490506996 l-2.533516844853504,7.522164899991995 0.6760775399593392,7.722841772210765 l3.611431553211657,-1.0760097255352492 -6.016533420421643,-8.58938262216699 m-21.272262756300435,-12.967217918100442 m11.087868291170219,-11.815758999239785 l8.238741176963108,-1.0825567390475521 2.7836125748088727,1.1031872417300295 l-2.0311557488730116,0.8523036799321426 -4.053158884285424,6.389812796000641 l-0.6836865866421066,2.101194998289426 -3.415542977574989,-7.279004696884379 l-3.630725068097517,-6.884946706228907 -8.870200319630884,-20.478297542237087 l-21.432978904531574,-62.10058457553784 3.809621282711009,0.060451673826745767 l2.70007219707719,5.191583633802568 2.360618133898142,2.3569657116239506 l-2.423671214854676,8.65758330334167 1.9926194224926186,6.625196641506783 l7.641776825928864,2.0933165577060597 3.338261719959393,-5.744987848481902 l-8.5912975776497,-6.803879421045025 m-5.619540966692107,17.060490174383286 l7.000479916509412,3.7103423001393168 3.8068359646602565,4.01703502580618 l1.4279758096510708,9.096655030130814 9.298089603946044,0.41939405270591756 l9.582968044433791,1.4971661319829888 -6.08385411491601,3.792570558546267 l0.13635736029002365,0.9891128870298366 m25.882570542828873,52.88454110948425 l-5.672260720556124,-10.754534422218537 " fill="none" stroke="black" stroke-width="1" /></svg>