<?xml version="1.0" encoding="utf-8" ?>
<svg baseProfile="full" height="162.06053048660635" version="1.1" width="99.82012719992747" xmlns="http://www.w3.org/2000/svg" xmlns:ev="http://www.w3.org/2001/xml-events" xmlns:xlink="http://www.w3.org/1999/xlink"><defs /><rect fill="white" height="162.06053048660635" width="99.82012719992747" x="0" y="0" /><path d="M32.283110586100854,91.68948378207922 m0.0,0.0 m-2.9800858220317936,14.295641503502212 l7.28784363053437,-2.9796847075140547 5.8162473054954695,0.58681318258339 l-2.0065834883208904,3.3285550997427014 4.882802086341525,4.645380354250411 l-0.6196050383123686,6.94850302776386 5.329079164102672,11.838251425345092 l-0.0834462661182238,6.047040362806437 4.8511467274536395,0.6605464560471069 l6.260983202649651,-5.4939299597530615 0.6384895826559136,-7.969918769563038 l0.4952905262394913,-4.208007221546583 4.571441450227584,-3.6830070943991804 l0.5923615324114075,-4.136807521665784 m-35.73950903015524,-82.35437155468973 l2.8905893648957925,2.2209219050352966 -5.50569531366169,7.75865789052276 l-3.9644602005081673,-0.4076437474130018 21.113398842859343,-5.813554147426421 l0.9206027872222339,-1.9535432900192022 -4.8022225334285515,-6.01932697568842 m13.597441709723718,13.194815858280693 l1.4798309403228445,2.0262660183425742 -8.940498950733387,9.542549447730417 l-6.739492953909008,4.056536453392597 -2.7353555580025017,-8.600876980458084 l-5.507647892869941,-3.906357226156166 -0.19770237952368278,3.7585658416896006 l6.314089695096668,2.6444912554372344 -4.706686392603562,11.079915157549625 l5.7496194706420045,9.413921283665413 2.46507396588474,-3.879426181377388 l-5.32137830032856,-6.066748676939618 -6.061009413275548,-11.374483407719543 l-6.280884361689478,-7.689016439673073 3.39786580295359,12.787229281982496 l3.5163801475369114,6.371541940561196 1.514761927921097,-0.672872238962714 l-4.851530869261156,-4.039890228474389 -1.8135583311545627,-2.653161598028486 m14.543654389902207,16.314036989346555 m33.165375456642046,-1.3206189131266033 " fill="none" stroke="black" stroke-width="1" /></svg>