<?xml version="1.0" encoding="utf-8" ?>
<svg baseProfile="full" height="163.89378106660507" version="1.1" width="164.5944037356967" xmlns="http://www.w3.org/2000/svg" xmlns:ev="http://www.w3.org/2001/xml-events" xmlns:xlink="http://www.w3.org/1999/xlink"><defs /><rect fill="white" height="163.89378106660507" width="164.5944037356967" x="0" y="0" /><path d="M25,84.05717866801514 m0.0,0.0 m23.44905834230938,-16.002395944647763 l6.355390457253065,-2.6502405464580026 5.844590451826552,-0.8279704890985512 l1.712001788598639,6.319902480122744 -2.036990243071699,8.608352814981014 l-1.268752896910618,7.189216646371943 -0.23211130523237178,7.890632890311997 l-0.36728776945032626,20.849127443192874 1.2427322377699224,18.62461170598791 l-1.494169894045424,3.6129943869243855 -2.0525059792292346,1.222371010901391 l6.455757052435822,-0.8864337646943273 -5.3733109550638,-6.212044894646089 m13.849399266638303,-97.44976445052659 l0.7277489422266281,11.163321085579398 1.9640579354111116,3.638205652227503 l6.942073519556837,9.060876935044618 -0.5032453652418833,12.206749582301141 l4.53572489173174,7.6275277489180775 -2.578299318549777,6.377705328963801 l-3.876601658183657,-33.83752998973495 9.322319580629289,-22.681154811127595 l7.20977115387337,-2.901239488910068 4.980055557615095,11.571222227117076 l2.734741902442627,11.261697468923767 1.4446534271242961,-1.0609059820179372 l17.087582806231676,-1.4405276196879087 14.040248831590988,10.372050984752025 l4.479770975410129,-7.542034628756948 -4.534283045152732,-5.760285327588429 l-3.39354968103181,-1.0010581850232039 1.5361757862670704,0.9038247666626177 l-5.70430441661211,4.302880537397136 m-5.105441974731521,16.156971005752006 l2.246404856558568,7.48313945400955 " fill="none" stroke="black" stroke-width="1" /></svg>