<?xml version="1.0" encoding="utf-8" ?>
<svg baseProfile="full" height="128.8337822874727" version="1.1" width="135.36773026442808" xmlns="http://www.w3.org/2000/svg" xmlns:ev="http://www.w3.org/2001/xml-events" xmlns:xlink="http://www.w3.org/1999/xlink"><defs /><rect fill="white" height="128.8337822874727" width="135.36773026442808" x="0" y="0" /><path d="M110.36773026442809,55.836375879244684 m0.0,0.0 m-22.47699766359187,-14.0695226276226 l-21.73798712923001,-3.9744997023835604 m-26.444939536025007,13.686336883762316 l1.9018473996730019,13.107175939675999 9.334718706910165,5.8279463956157205 l6.494896586776187,-1.2022914092842156 4.631186953652067,-10.611274135143837 l3.7242496871104036,-5.10708859918062 8.073985127556972,-7.897339614870102 l0.5866212765225872,-2.7306372197799753 -3.1104805379194587,-5.88477847377102 l-4.0971121816272555,-5.095668059262915 2.3869169582355636,-6.884735256999874 l14.453964213823573,7.539524914296579 0.27088487605100975,12.526534596854217 l-0.44616077915501373,16.97503464578576 -11.616585518237914,15.306868785514284 l-6.667984651529791,-9.126211767767273 -1.2627679939692165,0.7947586588995958 l1.1404179841687,-5.9446490423665095 1.0551188327487735,-8.180651098773595 l1.9918880383245086,4.06078607703976 -5.3540274878479615,8.319318519507778 l-6.242868633373863,9.946158170784098 5.81606814400784,8.306358809648158 l11.055171728959198,-5.337948122359048 -0.6716733686260129,-7.7399997718040545 l-6.400598009778695,-10.030894421421847 -11.061331182766098,-9.936020954572315 l-14.764082136660267,11.89639927833472 4.820497058973242,11.046015815590811 l3.6598764951320186,6.888120643439295 7.106354251988868,21.524278550842286 l-30.070648991540246,-56.335719640338276 -1.4461487831640987,20.587265108964278 " fill="none" stroke="black" stroke-width="1" /></svg>