<?xml version="1.0" encoding="utf-8" ?>
<svg baseProfile="full" height="192.91059658778371" version="1.1" width="92.96488268161818" xmlns="http://www.w3.org/2000/svg" xmlns:ev="http://www.w3.org/2001/xml-events" xmlns:xlink="http://www.w3.org/1999/xlink"><defs /><rect fill="white" height="192.91059658778371" width="92.96488268161818" x="0" y="0" /><path d="M38.58225626940887,25 m0.0,0.0 m8.244764571075594,19.517864711330148 l-10.9779748116379,10.00911335558881 6.661895354808687,27.551936132065922 m-17.510941383655254,64.84373380427485 l16.311600891136962,-29.63037386373322 10.90760731538585,-28.761205744018365 l2.4681040872180495,-1.7024138624234404 2.661124545233283,-2.4159184216865035 l-3.986145118646629,-0.776206281807353 -4.2634210055959985,1.8278747853058146 l-6.508070293022596,10.41563296202303 0.12280459873781555,7.470361819494973 l2.3555348399766123,5.692516151802296 -0.9977814594100043,1.7964739241796883 l-1.7803122463227539,7.048321437062037 2.0906842366817293,7.4897435265418775 l0.7080327878036264,6.596997803676686 -2.97018868043107,5.435937155467563 l-0.07202997970974896,6.9965994159428275 3.262656116323778,7.504943338323828 l3.761237199349486,5.443661688720148 2.1016803391617267,4.573454506396477 l-2.4748504102510034,2.772915195998139 2.2189432643343387,2.336241831563606 l7.276781648788395,-0.9116444695103884 8.971954297587757,-5.911502367466218 l0.7989357072885729,-9.51487709095778 m-30.509875708325527,-42.59401533960682 l3.1458967823257478,-4.870258702277142 1.7533117161388867,-9.139270663707979 l0.05470327344044179,-12.885166565743669 4.844815597564934,7.836452657968516 l5.69375862738841,7.857748484838709 5.847817399056889,8.004851530746771 l-19.130373472157753,63.000073741409864 " fill="none" stroke="black" stroke-width="1" /></svg>