<?xml version="1.0" encoding="utf-8" ?>
<svg baseProfile="full" height="105.3316798669584" version="1.1" width="209.04844284129584" xmlns="http://www.w3.org/2000/svg" xmlns:ev="http://www.w3.org/2001/xml-events" xmlns:xlink="http://www.w3.org/1999/xlink"><defs /><rect fill="white" height="105.3316798669584" width="209.04844284129584" x="0" y="0" /><path d="M184.04844284129584,79.59913825598463 m0.0,0.0 m-20.3152139251762,-12.71962045575254 l-9.61631982936312,-2.4396695715982215 m-0.028172522493195573,0.9413945115510625 l-1.071818149183276,5.938634085235039 10.919604688483314,-1.6519612598917472 l2.6851099384285995,-19.56130517112315 -13.390967659138639,10.707188001418638 l-4.461603181430165,4.111750060817844 2.4642446486106606,8.644564383692547 l-3.209446911788804,6.7615670266242995 -11.199603492627556,-1.0028592670537884 m-6.7643851726027115,-24.440503920963284 l-0.49203073581119205,-2.856788216635777 -5.735161930632842,-0.5982463276798999 l1.0283994682159767,6.085056104589149 -1.0053422387580697,3.9149114046562965 m-3.2917892034724217,-16.07359317462316 l-1.7546973085121131,-6.044776280467335 2.3591453701204923,2.742904442238071 l5.207760473248913,2.4384927188448526 2.7044143838928885,-1.177788672576347 l-0.5558390467117126,1.0048516743499962 -8.376037739417308,-1.3506809617163855 l-4.285413316444132,-0.196288725249706 -3.7548808497289308,-2.434905709786514 l-5.11085265211413,-3.5553166546355506 -7.546510315971636,-0.6554945589436278 l-10.635393276157238,2.101852980289397 -1.5808206492189907,4.095631780859943 l-1.1496072747639585,-5.33834616224844 -9.460152056792436,1.2712079642736551 l-20.747595789135083,8.309296039570263 -9.319465958141917,-7.891056376778057 l-7.794718851058461,2.8262191008076285 -13.763281775650473,-9.750804730190088 l3.8237835476998487,-6.754654337889683 5.582183132841925,2.086772702260765 l3.914098566161995,3.089125520027749 -0.5068325497421455,11.440109064225414 l9.663114541994906,14.79951035560125 -9.256779041662481,0.35546239868205043 m-11.186052765161607,-29.621559142532597 " fill="none" stroke="black" stroke-width="1" /></svg>