<?xml version="1.0" encoding="utf-8" ?>
<svg baseProfile="full" height="192.79736865449948" version="1.1" width="110.70023762446789" xmlns="http://www.w3.org/2000/svg" xmlns:ev="http://www.w3.org/2001/xml-events" xmlns:xlink="http://www.w3.org/1999/xlink"><defs /><rect fill="white" height="192.79736865449948" width="110.70023762446789" x="0" y="0" /><path d="M85.35479477723234,120.80930300988882 m0.0,0.0 m-12.635660735274566,46.98806564461066 l-0.9082090845324022,-1.9686772470187541 3.8105977758230747,-10.88869141378917 l10.07871489121944,-20.836061396223194 -10.419274410829763,-1.1532290835949255 l-3.387671500649144,1.1849491502991485 -0.0885702369223551,-0.07041239235801147 l0.9782150544062962,-0.19864092786481857 m-11.239517455391898,-68.83867757900475 l0.861821234272175,-6.729956448595235 7.27802386209298,-2.619809448780188 l-21.4218624539925,12.777557425316541 0.8819090349579963,3.5561928934540297 l-1.3685674090000144,2.922971595418852 -1.4559828754575734,4.930125628638735 l8.567762494725214,1.44835302949525 3.9280220506325882,-2.9046685288328344 l-0.18139537167216602,-8.415763893850652 -9.19320764992123,-7.946300768084995 m-21.231870213021477,-24.281898790270898 m-1.5598221594151498,-9.967856281181104 l-1.6482496192818779,-2.7968741776725206 0.5472138063771642,0.6291890921186168 l0.28790281982210175,3.1311698511163133 1.8164608030439562,5.428663033772305 l-0.3461638212894815,5.1038666337940395 1.7699745604921735,5.285539638823194 l10.574283478069317,1.6414963438783403 0.5884421813147837,-4.623815540642002 m30.82022693612525,-0.08305906077204828 l4.406529139284627,0.09522884419313211 -0.6257502925366953,-11.463350675171275 l-1.6737972721364942,6.732372751459554 3.1238799998903444,3.0414396042364102 l-6.053527164135761,9.062002171743195 -5.929887171299428,3.253484949170019 l-0.21263283664704702,2.8875280204600315 3.7560781982478253,1.7307430129869932 m-1.7686139606692408,-16.636990503280998 l4.366578438564265,-2.648385213115223 -3.344735042457133,11.926846831283664 l9.218993240661872,4.2156940941285965 " fill="none" stroke="black" stroke-width="1" /></svg>