<?xml version="1.0" encoding="utf-8" ?>
<svg baseProfile="full" height="161.85407630647808" version="1.1" width="137.28251112189525" xmlns="http://www.w3.org/2000/svg" xmlns:ev="http://www.w3.org/2001/xml-events" xmlns:xlink="http://www.w3.org/1999/xlink"><defs /><rect fill="white" height="161.85407630647808" width="137.28251112189525" x="0" y="0" /><path d="M25,83.56877393186565 m0.0,0.0 m8.190596426788288,3.7737908928025052 l17.722995412561655,-58.47044610516408 2.7266702760683184,-0.4383672607318062 l-2.1325532332665706,8.481854105710822 -3.2084511714064567,10.976525845589498 l6.904892695169147,4.865557807334761 6.748132594178538,5.117019078906577 l7.767305678801477,8.49681890299018 1.1309815151727487,6.161030830254051 l10.921732640949125,1.1831581299709042 4.564905209723037,2.0288527250488917 l9.37342037627352,-0.5358145779772151 6.49300172843077,3.2851389969116727 l10.07888097245167,-2.485451580363809 -2.0534751472822053,-5.268141916235629 l-0.10149181151649089,-1.215602985148433 -6.073867545066532,-0.23297871303076034 l-5.943020712049642,-0.022395497891390947 -6.043247028353265,5.810099958726981 l-8.319490900199021,13.858171440758914 -2.1120272502559514,7.498250596116844 l-4.7057232899457375,-1.4168532081987917 -6.86235188740229,-5.4877980025332125 l-16.605665565066328,8.146520836640082 m-3.259614395102224,23.866480612682064 l1.7689536050677235,11.271007609322503 13.429755360150569,4.038873852120302 l10.48037107149509,-1.3285735062271187 m-28.493962101026284,-99.8821553809448 l8.642179516515188,-7.638862398040088 2.9306628953155847,-1.181593724180191 l-2.8243634885128763,-0.1381256144711432 -10.925315790064477,-1.6847656826147552 m5.309139303376274,13.353247955357016 l-23.300020831547066,4.750799374461767 " fill="none" stroke="black" stroke-width="1" /></svg>