<?xml version="1.0" encoding="utf-8" ?>
<svg baseProfile="full" height="114.83476110394412" version="1.1" width="137.4961298473233" xmlns="http://www.w3.org/2000/svg" xmlns:ev="http://www.w3.org/2001/xml-events" xmlns:xlink="http://www.w3.org/1999/xlink"><defs /><rect fill="white" height="114.83476110394412" width="137.4961298473233" x="0" y="0" /><path d="M35.7521981583994,78.51679287013302 m0.0,0.0 m-5.063322570053247,-30.18587169378359 l1.3358651620688315,-2.1464817947924733 4.010213198063311,-1.3368540022367954 l12.764228557349808,16.15565039053732 4.5077222481983075,0.726653199022765 l3.656064178375229,-2.5239907076936308 -2.23671352264723,-1.559070593649104 l0.762444796585216,-0.2757263024294583 6.723114268039714,2.026350581535293 l1.3578311606803917,-3.408768538933616 -12.783698751497186,-9.892458895388122 m-25.78594688356255,0.31595374383200037 l1.9958807367455527,-4.101787491994509 7.11241284774468,-9.77182785437592 l9.258709559142716,-7.520674313970717 2.472221028834115,16.124089622547434 l5.593306884655693,7.816759270226821 4.87116944472037,7.221350724328556 l6.775826475819846,1.7460485911190289 4.019346104165439,-2.4380106108223507 l-0.37517907128038624,1.1998877415723823 6.228762303528426,-1.9886745290181422 l4.617496274834194,-5.703081365020628 11.153130443839311,-11.058152777171719 l13.4135815204204,1.8071208899289364 1.3505745730996266,-9.803656581642203 l-0.18335519946824835,10.57970921012512 3.4756440615639783,16.835163841606004 l5.716601858957587,6.87115089174811 -1.4759753867356291,-0.6595953191518705 m-9.973022208306409,-9.36640886337476 l3.499289721898702,-6.946610821885063 -10.0457917924473,-7.8535642207686855 l1.8255906973728013,-4.535515997990561 6.716152316288413,2.1676719257367036 l3.4100231144838813,-2.278922418111339 -11.414473542841037,-6.254630680609347 l2.928362325341075,-3.5000171191848928 0.12036074653790092,5.226050379254842 m-14.398738238066198,40.40115320507662 l9.506259738396453,13.204431764701043 0.9790619344604796,6.003125754911611 " fill="none" stroke="black" stroke-width="1" /></svg>