<?xml version="1.0" encoding="utf-8" ?>
<svg baseProfile="full" height="104.72645185384926" version="1.1" width="109.66371837533868" xmlns="http://www.w3.org/2000/svg" xmlns:ev="http://www.w3.org/2001/xml-events" xmlns:xlink="http://www.w3.org/1999/xlink"><defs /><rect fill="white" height="104.72645185384926" width="109.66371837533868" x="0" y="0" /><path d="M76.06629745445215,33.0401251223751 m0.0,0.0 m-26.988281334360593,-2.9140268978462496 l-3.944969988868643,-5.126098224528854 m-4.202670300669445,13.86527699743134 l-0.6123591063115386,6.4554095623595975 2.6350837482597123,12.293221013596392 l8.997339076938404,10.257368808736732 13.669552330850113,-2.093534418487446 l2.5567182590926065,2.9734169179558503 5.060389583745503,3.2213475630376522 m0.2817329208028463,-37.15664829982625 l-14.510733564296835,8.26107426351738 m14.205901610292354,9.368109621464917 l0.3338524862128316,2.1432719115767016 -5.2710155975421475,6.128586416862831 l-11.856849758947584,-6.86132867060983 -3.167462202277828,-3.820846477004463 l-0.29611771609900933,-5.83694766175455 -0.9380007413985384,-13.12003634258513 l-3.243911372396032,-5.167142421474727 -5.137084019897036,0.5768649880805117 l-9.234983656633101,5.930359050145936 -2.310057555218256,6.981518446470145 l-2.1847413565646723,14.4254049082197 -2.206232441737438,4.925329536220819 l7.101558648476274,8.220018599439806 7.868055650726725,5.510416265037741 l15.661539260145966,0.39345566841467117 7.121016353726238,-2.57134341255259 l13.958087707099047,3.5660557296485593 4.392784029912845,3.9391133442070303 l0.859279967823764,1.6740829929534942 -9.027126814694357,0.24457695276641953 l-15.111708751589756,-5.395808575887256 -15.59560338008491,-6.5950918386972734 l-11.729547637917559,-3.386345840274625 -7.25488979159798,3.2004894783223334 l-0.9448419994541181,3.489063514284333 9.03523619920579,-1.854861813614039 l13.679748639971733,-3.6204083120309747 10.297369173925054,-10.289549665223117 l6.166149564239781,-4.174729708247949 2.9760484744048656,-0.17014545159760794 " fill="none" stroke="black" stroke-width="1" /></svg>