<?xml version="1.0" encoding="utf-8" ?>
<svg baseProfile="full" height="141.36412254447524" version="1.1" width="126.3829054982346" xmlns="http://www.w3.org/2000/svg" xmlns:ev="http://www.w3.org/2001/xml-events" xmlns:xlink="http://www.w3.org/1999/xlink"><defs /><rect fill="white" height="141.36412254447524" width="126.3829054982346" x="0" y="0" /><path d="M92.52250462259148,116.36412254447524 m0.0,0.0 m-19.71318034122586,-58.99314762648197 l4.4882869637736045,-5.6617645662214695 8.444830321144217,0.05702452573560506 l3.6720565558456646,8.904437809957216 3.1860842560869043,3.8575278605945633 l-1.4002278552684295,6.229436374846565 -4.857968983109015,0.03599686489735068 l1.6995513701969829,-0.6931428572404226 13.340968588199049,-6.079346797038895 l-4.279098970487947,-4.921345613789807 m-14.563530854078223,-18.739287440439274 l5.422870533105454,-6.744045288037337 9.070709244687963,1.0248428538747583 l-4.763903401127168,5.260268502846335 -4.57177357830383,3.965186975024859 l-8.119802714607207,22.750021163596035 -12.060193840884766,3.0354140087684542 l-6.101525565907992,-7.814074949078303 5.310949740106083,-9.916509231166343 l11.794874633564124,-6.858305773572298 2.4313617699685874,1.335009691112175 l-3.5547030652418607,10.329319460986321 -2.1309058729153403,-0.9055324160854894 l-12.194081612913283,-15.556549589863994 -6.957402401307863,-10.499791265051469 l-5.783957208338638,-1.8800271548953018 -2.610624279123018,-2.8857380677530817 l8.577969851234814,5.405131078414771 12.557489232157634,0.9666220993931542 l2.6583523777713727,5.996629277724945 -3.8185438310256927,6.547052061753763 l5.839150902142199,6.178296705375775 7.072154270697711,-0.7991733347642477 l-2.5417244114029174,-5.274513652359902 m-53.0670164460048,-13.770584157379165 " fill="none" stroke="black" stroke-width="1" /></svg>