<?xml version="1.0" encoding="utf-8"?>
<!-- Generator: Adobe Illustrator 25.2.3, SVG Export Plug-In . SVG Version: 6.00 Build 0)  -->
<svg version="1.0" id="Layer_1" xmlns="http://www.w3.org/2000/svg" xmlns:xlink="http://www.w3.org/1999/xlink" x="0px" y="0px"
	 viewBox="0 0 841.9 1190.6" style="enable-background:new 0 0 841.9 1190.6;" xml:space="preserve">
<style type="text/css">
	.st0{fill:none;stroke:#221F1F;}
</style>
<g>
	<path class="st0" d="M715.1,263.4c0,3.7,10.7,2.7,13.9,4.9c6.2,4.2,17.3,16.1,21.3,23.4c1.1,2,1.4,7.3,2.6,9.1
		c2.4,3.6,10.4,12.8,13,9.4c4.5-6-11.4-26.4-6.4-31.8c2.9-3.2,14.3,2.4,14.3,7.2 M785.6,303.7c0,2.2,5.3,0.4,7,0.9
		c1.1,0.3,3.2,1.5,4.2,2c0.9,0.4,2.8,2.4,3.5,1.6c1.1-1.1-0.3-5.5-1.1-6.9c-0.8-1.4-3.6-2.7-4.8-3.4c-2.1-1.1-6.5-2.4-8.7-3.2
		c-2.1-0.8-6.5-2.2-8.6-3.4c-1.8-1.1-5.5-3.5-6.7-5.6c-0.9-1.6-1.3-5.8-1.4-7.8c-0.1-2.6,0.9-7.7,0.7-10.2c-0.2-2-0.5-6.4-1.7-7.6
		c-1.1-1.1-4.1-0.3-5.5-0.4c-1.4-0.2-4.4-0.3-5.8-1c-1.6-0.8-4.5-3.3-5.6-4.9c-1.5-2-3.2-7.2-4.6-9.4c-0.6-1-2.3-2.5-2.8-3.6
		c-0.7-1.7-0.6-5.6-0.9-7.5c-0.3-2.2-1.1-6.5-1.6-8.6c-0.7-2.7-2.6-7.8-3.3-10.5c-0.5-1.8-2.7-6.5-1.4-7.4c0.6-0.4,1.6,1.7,2.3,2.1
		c1.8,0.9,5.8,1.5,7.7,1.4c3.1-0.2,9-2.5,11.9-3.5c1.2-0.4,3.5-1.8,4.7-1.4c1.6,0.5,3.7,4.2,4.2,6.1c0.4,1.6,0.1,5-0.1,6.6
		c-0.4,2.6-2.3,7.4-3,9.9c-0.8,2.9-2.7,8.8-3.1,11.9c-0.8,6.4,2.7,20.1,0.4,26c-0.5,1.2-2.3,3.2-3.3,3.1c-1.2-0.1-4.2-3.4-3.3-4.4
		c1.7-2.1,4.9,6.9,7.1,8.2c1.9,1.1,6.9-0.8,8.3,1.2c3.6,5.3-1,21-1,28"/>
	<path class="st0" d="M706.7,399.2c0-1.1,2.5-1.1,3.3-1.2c2-0.2,6,0.5,7.8,1.3c1.3,0.6,3.7,2.6,4.8,3.5c1.8,1.4,5.3,4.2,6.9,5.9
		c1.6,1.7,4.4,5.8,5.9,7.7c2.2,2.8,6.2,8.7,8.8,10.9c2.5,2.1,8.2,5.1,11.2,6c2.9,0.9,9,1.1,12,1.3c1.6,0.1,4.9,0.5,6.4,0.1
		c1.1-0.3,3.3-1.3,3.9-2.4c0.7-1.2-0.3-4.6,0.2-5.9c0.6-1.3,2.7-3.6,3.9-3.5c2.1,0.3,4.7,5.5,5.7,7.8c1.2,2.8,0.9,9.9,2.8,12.1
		c1.4,1.6,5.6,2.7,7.5,2.1c2-0.6,5.5-4.5,6.3-6.7c0.5-1.5,0.2-4.8,0.6-6.3c0.7-3.2,4.1-8.9,4.4-12.1c0.3-2.7-0.7-8.3-1.7-10.7
		c-0.9-2-3.9-5.2-5.3-6.9c-1.2-1.6-3.4-5.3-5.1-6.2c-1.4-0.8-4.7-0.5-6.3-0.5c-1.6,0.1-4.9,0.5-6.5,1c-1.5,0.5-4.3,2.5-5.8,3
		c-3.2,1.1-9.9,3-13.2,2.7c-3.7-0.4-10.8-8.2-13.9-5.8c-0.6,0.4-0.9,2.9-0.3,3.3c0.7,0.4,2-1.6,2.2-2.5c0.7-3.8-4.2-10.7-4.5-14.5
		c-0.1-2.3-0.4-9,1.5-9.2c4.4-0.3,6,15.2,5.6,20.6c-0.2,2.8-3.3,7.4-4.4,9.8c-0.8,1.7-2.8,5-3.2,6.9c-0.9,5.4,1,16.4,2,21.7
		c0.5,2.6,2.6,7.3,3,9.9c0.4,2.8-1.6,9.5,0.2,11.3c0.4,0.4,1.8,0,2-0.5c0.9-2.5-4.7-6.9-4.2-9.5c0.6-3,6.1-8.4,8.4-7.1
		c5.5,2.9,2.7,21.7,3.3,29c0.3,3.4,0.5,10.3,0.5,13.7"/>
	<path class="st0" d="M748.8,642.4c0-0.3,1.3,0.2,1.4-0.2c0.6-2.8-7.1-4.8-9.8-5.8c-3-1.1-10.8,0.3-12.4-2.5c-0.7-1.2,1.4-4.4,2.7-5
		c1.6-0.7,5,1.2,6.7,1.6c3.6,0.7,11-0.3,14.6-0.8c1.6-0.2,5-0.3,6.3-1.4c2-1.6,2.9-7.1,3.9-9.5c2-4.7,7.8-13.7,8.4-18.8
		c1-8.1-5.3-23.9-6-32c-0.4-4.7-1.9-14.7,0.4-18.7c1.9-3.2,9.1-7.2,12.7-7.8c2.3-0.4,7.5,0.4,9.1,2.1c1.6,1.7,1.6,7,1.3,9.4
		c-0.6,4.3-3.9,12.5-6.7,15.8c-2.7,3.4-10.6,7.5-14.3,9.8c-3.4,2.1-10.4,5.9-13.9,7.7c-2.1,1-7.9,1.6-8.6,3.8
		c-1.1,3.5,6.5,9,7.8,12.4c1.3,3.6,2.2,11.2,2.3,15c0.1,3.4-0.6,10.1-1.4,13.4c-1,4.2-9.1,14.1-5.4,16.2c1.3,0.7,3.7-3,3.7-4.4"/>
	<path class="st0" d="M714.7,762.2c0,5.9,11.2,14.4,12.5,20.1c1.1,4.6-2.1,14-1.8,18.7c0.2,3.5,0.1,11.5,2.8,13.6
		c1.3,1,5-0.4,6.6-0.1c2.2,0.3,6.2,3.3,8.3,2.8c1.6-0.4,3.8-3.3,4.4-4.8c1.1-2.5,0.8-8.1,0.7-10.8c0-2.7-0.2-8.2-1-10.8
		c-0.5-1.4-3.4-3.6-3-5.1c0.3-1.2,3.3-1.8,4.4-2.4c2.3-1.3,6.3-5.6,8.9-5.3c2.4,0.3,5.1,5.2,6.9,6.7c3.8,3.3,11.3,10.2,15.9,12.1
		c2.2,1,7.2,1.7,9.6,1.5c2.2-0.2,6.8-1.4,8.3-3c1.4-1.5,1.9-6,2.2-8.1c0.4-3.1,0.9-9.5,0-12.6c-0.6-2-3.9-5.1-4.3-7.1
		c-0.7-3.2,1.2-9.8,1.6-13.1c0.3-2.3,1.1-7,1.1-9.3c0-1.2-0.1-3.6-0.7-4.7c-1.1-2.3-4.6-6.3-6.9-7.6c-4-2.2-13.7-1.9-18.1-3
		c-4.2-1-12.8-2.9-16.4-5.2c-2.8-1.8-6.8-7.1-8.9-9.6c-0.7-0.8-3-2.6-2.4-3.4c1.3-1.6,5.9,2.2,7.9,2.6c2.1,0.4,6.8-1.2,8.4,0.2
		c1.9,1.6,0.9,7.5,1.7,9.9c1,3.1,4.2,8.7,5.4,11.7c1.2,2.9,2.6,9.1,4.1,11.8c1.7,3.2,6.6,8.7,8.8,11.7c2.1,2.9,11.3,9.6,8.4,11.7
		c-6.3,4.7-11.5-24.9-19.4-25"/>
	<path class="st0" d="M777.1,884.5c0-1.4-3.5-2.9-4.8-2.5c-1.8,0.5-3.6,4.7-3.5,6.6c0.1,1.3,2.1,3.6,3.3,4.3
		c2.2,1.3,7.5,1.5,10.1,1.6c1.8,0.1,5.5-0.4,7.3-0.6c1.3-0.2,4.1-0.1,5.1-1c0.7-0.6,1.3-2.5,1.3-3.5c0-1.7-2.3-4.7-2.6-6.4
		c-0.1-0.8-0.7-3.2,0.2-3.4c1-0.2,1.9,2.7,1.6,3.7c-0.2,0.7-1.6,1.4-2.3,1.6c-1,0.3-3-0.2-4,0c-3.2,0.4-11.1,0.6-12.6,3.5
		c-0.2,0.5,0.6,1.5,0.8,2c0.3,0.9,1,2.6,1.3,3.5c0.5,1.8,2,5.5,1.5,7.3c-0.4,1.4-3,3.3-4.2,4.1c-1.8,1.2-6.2,2-8.1,3
		c-2.3,1.1-7.7,2.9-8.7,5.2c-0.9,2.2,1.8,6.9,2.1,9.3c0.2,2.1,0.6,6.5-0.1,8.6c-0.6,1.8-3,5.1-4.5,6.2c-3.4,2.6-11.9,4.5-16,5.9
		c-1.4,0.5-4.5,0.6-5.5,1.7c-2.4,2.8-1.1,11.1-2.2,14.7c-1,3.3-3.9,9.6-5.6,12.6c-1.2,2.2-4.8,5.9-5.7,8.2c-0.5,1.1-1.6,3.7-0.8,4.6
		c0.3,0.3,1.2,0.1,1.6,0c0.4-0.2,1-0.9,1.3-1.2c1.9-2.4,4.8-7.9,5.8-10.8c0.5-1.2,0.7-3.9,1.2-5.1c0.6-1.8,2.5-5.3,3.4-7
		c0.8-1.5,2.3-4.7,3.5-6c1.8-2,6.4-4.9,8.4-6.6c2-1.8,5.9-5.7,7.8-7.6c2.4-2.5,6.1-9.7,9.6-10.2c1.8-0.3,5.6,1.9,6.3,3.5
		c1.9,4.4-4.6,13.7-4.6,18.4 M762.4,955.5c0,1.7,4,3.7,4,5.4"/>
	<path class="st0" d="M756,1096.1c0,1.7,4.6,2.2,6,3c1.6,0.9,4.7,3.1,6.2,4.2c2.6,2,7.9,5.8,9.8,8.4c1.2,1.6,2,5.7,3,7.5
		c0.9,1.7,3.7,4.5,4.5,6.2c0.6,1.4,1.1,4.5,1.4,6c0.2,0.8,0.5,2.4,0.7,3.2c0.5,2,2.5,6,2.3,8.1c-0.2,1.6-2.8,4.1-3.1,5.7
		c-0.2,1.1-0.5,3.7,0.3,4.5c0.6,0.6,2.7,0.9,3.4,0.5c1-0.5,1.8-2.9,2.1-4c0.4-1.4,1-4.3,0.7-5.7c-0.3-1.4-1.8-4.1-2.7-5.2
		c-1-1.3-3.8-3.1-5.1-4c-1.1-0.9-3.5-2.6-4.6-3.4c-1.1-0.9-3.4-2.7-4.5-3.6c-1.1-0.8-3.2-2.3-4.3-3c-1-0.7-3.1-2-4.2-2.5
		c-1-0.5-3.2-1.1-4.2-1.5c-0.8-0.3-2.4-1.1-3.2-1.4c-0.6-0.3-1.9-1-2.5-1.4c-0.7-0.4-2.1-1.5-2.9-1.9c-0.8-0.4-2.4-1.1-3.2-1.2
		c-0.8-0.1-2.3,0.3-3.1,0.4c-0.3,0-1.1-0.1-1.1,0.2c0.1,0.9,2.7,0.3,3.5-0.1c1.4-0.6,3.7-3,4.4-4.4c0.7-1.5,0.8-4.8,0.9-6.4
		c0-2-0.3-5.9-0.7-7.8c-0.3-1.7-1.3-5.2-2-6.8c-0.7-1.6-2.3-4.6-3.3-6c-0.8-1.2-2.6-3.7-3.8-4.5c-0.6-0.4-2.2-0.8-2.9-1
		c-1.2-0.4-3.9-0.9-5-1.6c-0.6-0.3-1.5-1.3-1.9-1.9c-0.7-1.3-0.9-4.3-1.4-5.7c-0.6-1.5-1.8-4.4-2.8-5.5c-0.9-1-3.4-2.1-4.3-3.1
		c-1.2-1.2-3.2-4-3.8-5.6c-0.7-1.6-1.4-5.2-1.4-7"/>
	<path class="st0" d="M689.7,311c0-3-3.5-8.2-4.4-11c-0.8-2.6-2-7.9-2.2-10.6c-0.2-2.7,0-8.2,0.3-11c0.3-2.6,1.5-7.8,2-10.4
		c0.5-2.4,1.7-7.1,2.3-9.5c0.5-2.3,1.9-6.9,2.2-9.2c0.3-2.3,0.4-7,0.2-9.3c-0.2-2.2-1.5-6.5-1.8-8.8c-0.4-2.8-0.7-8.3-0.8-11.1
		c0-2.1-0.4-6.4,0.3-8.4c0.5-1.6,2.7-4.3,3.9-5.5c0.3-0.3,1-1.3,1.3-1c0.8,0.9-2.3,2.7-3.1,3.7c-1.9,2.5-5.5,7.5-7.1,10.2
		c-1.7,2.9-3.7,9.5-6,11.9c-2.6,2.7-10.1,5.4-13.4,7.3c-3,1.8-9,5.7-11.9,7.7c-2.7,1.9-7.6,6.2-10.4,7.9c-1.4,0.9-4.3,2.5-5.9,3
		c-1.2,0.4-3.6,0.7-4.8,1c-0.7,0.1-2.3,0.2-3,0.6c-0.5,0.3-0.9,2.1-1.5,1.9c-1.2-0.4-0.4-3.7-0.5-5c-0.1-1.6-1.3-5.7,0.1-6.5
		c2.1-1.2,6.3,3.4,8.6,4.3c4.2,1.5,13.1,2.6,17.2,4.1c3,1.1,8.5,4.1,11.3,5.6c0.9,0.5,3.8,1.1,3.5,2c-0.8,3.1-10.3,2.6-13,0.8
		c-6.1-4.1-1.8-27.6-9.2-27.5c-4.9,0-4,14-5.9,18.4c-2.9,6.8-14.3,18.6-14.3,25.9"/>
	<path class="st0" d="M611.7,373.3c0,1.9,1.7,5.6,2,7.5c0.2,1.5,0.2,4.6,0.1,6.1c-0.2,2.6-1.6,7.6-1.6,10.2c0,2.4,0.6,7,1.2,9.3
		c0.9,3.6,3.1,10.8,5.1,13.9c1.6,2.6,6.4,6.5,8.4,8.8c1.3,1.6,3.4,5.2,4.9,6.6c2.4,2.2,8.1,5.3,11.1,6.5c1.1,0.4,3.3,1.2,4.5,1.1
		c1,0,3-0.7,3.8-1.3c1-0.9,1.3-4.4,2.6-4.9c0.5-0.2,2.2,0.2,2.1,0.7c-0.1,0.8-2.3,0.3-3,0.3c-0.8,0-2.5-0.1-3.4-0.2
		c-3-0.4-8.9-3-11.9-2.8c-1.6,0.1-4.5,1.7-6,2.3c-2,0.9-8.2,1.8-7.9,4c0.1,0.8,2.3,0.3,3,0.6c1,0.3,2.8,1.4,3.7,2
		c1.1,0.6,3.5,1.9,4.5,2.7c2.5,2.1,6.4,7.3,8.3,9.9c1.4,1.9,3.7,5.8,4.9,7.8c1.3,2,3.5,6.4,5.2,8.1c1.8,1.9,6,5.1,8.5,5.9
		c2.8,0.9,8.7,0.4,11.6,0.4c2.9,0,9.4,1.1,11.7-0.7c1.2-0.8,1.2-4.3,2.1-5.3c1.2-1.4,4.7-2.7,6.3-3.5c1-0.4,3.2-0.8,4.1-1.5
		c2.1-1.4,4.9-5.7,6.5-7.6c0.3-0.3,1.2-0.9,1.1-1.3c-0.4-1.5-4.9-0.8-5.9-2c-1.1-1.3-0.3-5.3-1-6.9c-0.5-1.2-2.3-3-2.9-4.1
		c-0.6-1.3-0.7-4.4-1.7-5.5c-0.6-0.6-2.5-0.4-3.1-1c-1.7-1.5-3.3-6-4-8.1c-0.6-1.8-1.3-5.6-1.4-7.4c-0.1-1.1-0.7-4.6,0.4-4.5
		c1.6,0.1,1,6-0.5,6.6c-1.2,0.4-3.4-2.6-3.4-3.9"/>
	<path class="st0" d="M638.4,555.1c0,2.7-2.7,7.6-3.8,10.1c-0.6,1.4-2.5,3.8-2.9,5.3c-0.9,3.2-1,9.9-0.4,13.2
		c0.2,1.2,0.8,3.7,1.7,4.4c1.2,0.9,4.5,0.2,5.9,0.4c1.2,0.1,3.5,1.1,4.7,0.9c1.6-0.2,4.7-1.9,5.9-3.1c0.9-0.9,1.3-4.1,2.5-4.6
		c1.5-0.7,4.9,1.1,6.4,1.8c3.1,1.4,8.2,6.5,11.6,7.3c2.1,0.5,6.5-0.2,8.6-0.7c2.7-0.6,7.6-3.1,10.3-3.9c2.3-0.6,8.4-3.8,9.3-1.7
		c1.9,4.8-13.1,8.3-17.5,11c-1.4,0.8-4.2,2.5-5.5,3.4c-1.5,1-4.1,3.8-5.8,4c-1,0.1-2.9-0.8-3.8-1.4c-2.3-1.5-5.9-5.8-7.4-8
		c-1.4-2-3.9-6.3-4.2-8.6c-0.3-2.4,3.2-7.3,2.1-9.4c-0.1-0.2-0.7-0.4-0.9-0.4c-0.8-0.2-2.5,0.3-3.3,0c-0.4-0.2-1.2-0.8-1.3-1.3
		c0-0.5,0.9-1.2,1.2-1.6c0.4-0.5,1.1-1.6,1.6-2.1c7.2-7.7,24.4-34.7,31.9-27.3c5.9,5.8-13.7,22.1-21.4,25.4c-1.8,0.8-6-1.4-7.6-0.5
		c-2.4,1.4-3.9,7.4-4.6,10.1c-0.9,3.8,0.7,12-0.9,15.6c-0.5,1.2-2.4,3.1-3.6,3.5c-2.2,0.8-6.9-1-9.2-0.7c-3.2,0.4-9.1,3.6-12.3,4.4
		c-1.2,0.3-4.2-0.1-5,0.9c-2.9,3.9-1.8,16.5,2.1,19.5c1.4,1.1,5.4-1.4,7.2-1.1c2.3,0.4,6.3,3.4,8.3,4.7c3.7,2.5,11.6,7.4,14.2,11.1
		c1.3,1.9,1.2,7.6,3.2,8.7c2.4,1.3,9.4-4.9,10.6-2.5c0.9,2-6.8,3.2-6.8,5.4"/>
	<path class="st0" d="M694.8,814.3c0,1.7-4.6,3.2-6.2,2.8c-3.4-0.9-7-8-8.5-11.2c-1.1-2.4-1.6-7.6-2.6-10.1c-1.2-2.8-5.2-8-6.7-10.7
		c-1.4-2.6-2.5-8.3-5.1-10.6c-1.6-1.4-7.5-2.6-9.1-4.1c-2.3-2.1-3.3-7.3-3.7-9.8c-0.3-2.1,1.1-6.3,0.5-8.3c-0.3-1.1-3.4-3.1-2.9-4.2
		c0.6-1.3,6-2,7.3-3.1c2.2-1.8,3.1-6.5,4.1-8.7c1.4-3,3.6-9.1,5.4-12c1.5-2.5,6.8-7,7.3-9.6c0.2-0.9,0.2-3.2-1.2-3.4
		c-3.9-0.7-9,5.1-11.3,7.1c-2.4,2.2-6,7.1-7,9.6c-0.5,1.2-0.2,3.8-0.4,5c-0.3,1.8-1.9,5.3-2.1,7c-0.2,1.3,0.7,3.9,0.2,5.2
		c-1,2.5-4,8.4-8.2,9.1c-2.4,0.4-6.9-1.9-8.8-2.9c-2.3-1.1-6-3.9-7.5-5.4c-2.1-2.1-7.3-6.8-6-9.2c0.4-0.7,3.3-1.3,4.4-1.7
		c1.9-0.6,6-1.8,8.1-1.8"/>
	<path class="st0" d="M692.2,958.1c0,1.5-3,3.3-4.1,4.3c-1.2,1.1-3.7,4.1-5.3,4c-6.7-0.3-17.3-11.9-19.8-18.1
		c-2-4.9,1.8-15.9,1.1-21.2c-1-7.6-10.7-21.8-9.2-29.3c0.6-3,8.2-6.4,7.8-9.5c-0.6-3.9-9.1-9.5-12.9-8.8c-3.6,0.7-8.9,8.4-8.3,12
		c1.1,6.3,17.1,9.7,20.8,15c2.2,3.1,3.4,11,4.4,14.7c1,3.7,4,11.2,3.7,15c-0.4,4.2-4.1,12.3-7.1,15.3c-2.4,2.4-9.7,3.5-12.3,5.6
		c-2.6,2.1-7.1,7.4-8,10.6c-1.2,4.2,5.6,15.9,1.5,17.4c-7.9,2.9-19.6-19.2-19.6-27.6"/>
	<path class="st0" d="M644.7,1135.8c0,1.5-4.2,3.8-5.1,2.8c-1-1,1.8-5.4,3-4.7c4.4,2.6-9.4,13.1-9.4,18.2 M629.5,1153.5
		c0-1.2,1.7-3.1,2.2-4.1c0.6-1.1,1.6-3.5,2.4-4.4c0.7-0.8,2.6-2.3,3.6-2.7c1.4-0.6,4.5-0.5,6-0.7c1.2-0.2,3.7-0.6,5-0.9
		c1.2-0.3,3.8-0.5,4.8-1.2c1.3-0.9,2.5-3.9,3.5-5.1c0.4-0.4,1.3-1.1,1.7-1.6c1.4-1.5,3.7-4.8,5.1-6.3c1.4-1.5,4.5-4.3,6-5.7
		c1.4-1.3,4.2-3.7,5.6-4.9c1.2-1,3.6-3,4.5-4.2c0.8-1,2-3.4,2.5-4.6c0.8-1.7,1.5-5.5,2.4-7.2c0.5-1,2.2-2.5,2.5-3.5
		c0.2-0.9,0.1-2.9-0.4-3.7c-0.7-1.2-3.2-2.8-4.4-3.6c-1.4-0.9-4.7-1.8-5.8-3c-0.6-0.6-0.9-2.3-1.3-3c-0.6-1.1-1.9-3.3-2.7-4.3
		c-0.6-0.7-1.8-2.1-2.5-2.7c-1.2-1-4.1-2.4-5.4-3.4c-0.9-0.7-2.9-2.3-3.4-3.3c-0.8-1.4-1.3-4.6-1.3-6.2c0-1.3,0.4-3.8,0.7-5
		c0.3-1.6,1.2-4.7,1.8-6.2c0.5-1.1,1.1-4.2,2.3-4.4c0.3,0,0.6,0.5,0.7,0.7c0.4,0.7,0.8,2.3,0.8,3.1c0,1.2-0.6,3.7-1.1,4.9
		c-0.5,1.1-1.8,3.5-2.9,4.1c-1.4,0.7-4.9,0.2-6.5,0c-1.5-0.2-4.5-1.1-6-1.4c-1.5-0.3-4.9-2.2-6.1-1.2c-5.6,4.8,1,22.2,1,29.7
		 M638.9,1081.3c0,4-0.7,12-0.7,16"/>
	<path class="st0" d="M491.1,284.7c0,1.5,4.6,0.7,6.1,0.8c10.7-1.5,10.6,7.7,13.9,14.8c8.4,9.3,13.7,16,24,4.3
		c7.3-6.9,9.3-7.5,6.1-17.4c0.9-9.7,6-19.3,8.1-28.8c0.8-3.4,1.4-10.4,2.3-13.7c1.7-4.6,3.9-10,4.7-14.8c0.3-1.8,1.1-5.3,1-7.1
		c-0.8-4.2-2.4-9.6-3.1-13.8c-0.9-1.2-6.5-3.9-1.9-3.9c1.3,1.3-1.8,5.2-2.3,7c-0.9,3.4-1.4,8.1-3.9,10.6c0.5,3.9,0.6,8.9-0.2,12.8
		c-0.7,7.2-3.6,14.9-7.7,20.8c-2.9,3.8-5.1,11.8-11.1,10.9c-5.1-4.8-7.4-17.2-6.1-23.8c0.4-1.2,2.6-2.7,3.6-3.5
		c9.5-6.5,15.8-16.9,27.9-19.4c2.4-1.1,6.9-4.1,9.2-5.4c2.1-1.1,6.2-5,8.5-4.3c3.1,0.9,6.8,8.1,6.5,11.3c-0.2,1.7-4.5,3.3-4.5,5"/>
	<path class="st0" d="M497.3,711.4c-0.4,1,0.5,3.1,0.6,4.2c0.1,0.8-0.3,2.5,0,3.3c2.9,1.7,1.5,6.1,1,8.8c-0.6,2.2-4.4,6-3.8,8.3
		c0.7,2.4,6.6,4.2,8.4,6c3.1,3.3,5.4,7.9,6.8,12.2c0,2.2-0.2,4.7,1.9,6.1c1.9,1.6,8.2,2.4,8.7,4.7c-2.2,2.2,0.3,8.1,1.3,10.7
		c2.4,3.9,7.2,7.6,9.7,11.4c2.8,9.5,10.4,2.3,10.4-4.1c-0.2-1.8-2.1-4.6-4.1-4.3c-1.7,3,1.4,8,3,10.7c3.6,3.9,8.6,8.1,12.3,11.9
		c1.9,1.2,4.5,3.7,6.5,4.4c0.5-0.2,0.2-1.5,0.3-2c0.2-0.9,1.4-2.5,1.3-3.4c-0.2-2.6-3.2-4.7-5.7-4.5c-6.3,3.2,0.5,11.5,3.5,15
		c3.2,3,9.1,7.5,13.4,6"/>
	<path class="st0" d="M521.8,435.1c-2.3-7.8-13.1-11.9-18.4-15.8c-2-1.2-7.3-2-8-4.8c2-15.5,23.1-3.9,30.6-10.6
		c6.7-5.8,12.7-19.1,20.3-22.5c10.1,0.8,8.7,9-0.8,7.9c-1.5-0.4-5.1-3-5-5.1c0.1-1.9,5-1.9,4.8-3.8c-0.2-2.6-5.7-1.5-7.2-3
		c-5.1-5.6,3.4-3.7,5.9-3.2c2.6,0,8.9-2.2,10.5,0.7c0.8,1.5-1.1,5.4-1.2,7.3c-0.1,2.6,0.1,8,1,10.2c3.3,8.1,16.7,14.9,18.2,23.2
		c-0.4,4.2-8.5,5.9-10.6,8.9c-4.8,9.9-9.6,22.2-12.5,33.3c1.2,4.9,4.1,10.5,6,15c0.8,1.6,3.3,4.2,3.5,6.2"/>
	<path class="st0" d="M553,541.5c0,2.4,5.6,4.4,7.1,6.2c2,2.3,7.3,7.3,6.6,10.3c-5.3,9-23.4,11.3-33.4,13.1
		c-7.7,1.6-16.5,2.7-23.7,5.8c-3.8,3.5-7,9.3-8.3,14.3c-0.3,2.2,0.6,6.5,0.7,8.7c-0.4,5.3,0.3,11.2,4,15.3
		c6.8,7.2,16.1,17.3,27,14.8c2-0.7,5.4-4.9,7.3-4.1c2.4,1,3.7,7.5,3.1,10c-0.3,2.7-3.5,9.8-3.9,3.3c-1.1-1.8-5.5-3.8-6.5-5.7
		c-2.6-5.2,5.7-2.9,8.4-3.3c3.1-0.3,3.7-0.4,4.2-3.5c1.6-2.4,8.1-4.1,9.4-6.7c0.6-3-1.3-20.4-6.7-16.2c-7.5,5.2-14.1,13.4-21.7,18.5
		c-1.6,0.8-6.5,0.4-6.7,2.2c-0.4,2.9,7,5.7,9.9,6.3c4.8,1,15.4-1,19.5,1.7c1.8,1.1,2.9,5.7,4.3,7.3c0.7,0.8,3.8,1.6,3.3,2.5
		c-1.7,2.6-7.8-5.8-10.9-5.8c-3,0-10.7,2.4-10.7,5.5 M526.7,647.3c0-1.4,2.7-3.4,2.7-4.8"/>
	<path class="st0" d="M546.9,985.4c0-4.7,3.9-13.5,4.5-18.1c0.6-4.7-0.1-14.2,0.5-18.9c0.9-6.4,9.2-19.3,6.4-25.1
		c-1.7-3.5-11.9-3.4-14.1-6.6c-4.6-8.1-1.8-33.9,7.3-37.1c2.7,0,4.3,7.2,4.7,9.9c2.8,14.1-9,17.7-19.8,21.8
		c-18.8,4.2-34.7-3.9-23.8,23.1c1.7,7.9,3.3,24.9,8.3,31.2c3.2,3.9,17.9,4.2,17.9,9.2"/>
	<path class="st0" d="M508.5,1047.7c-0.5,14.2-0.8,12.1,9.8,19.9c3.3,5.5,5.8,15.9-1.1,19.8c-2.1,1.4-5.3,2.8-7.9,1.9
		c-1.4-0.8-1.2-2.6-0.4-3.8c0.4-7,3.5-2.7,6.6,0.1c4.6,3.4,11.5,6,15.9,9.8c1.7,2,2.8,7.2,3.9,9.6c1.3,2.7,5,7.7,5.8,10.6
		c0.6,7.1-1.1,9.1,4.3,15c1.3,3.5,5.9,13.3,1.7,15.6c-1.2-2.4,1.2-6.5,3.2-8.2c2.7-3.4,5.7-7.8,7.7-11.7c5.8-9.3-6,3.1-8,4.5
		c-2.5,1.7-5.8,3.3-8.7,4.5c-3.1,1.3-5.2,2.3-8.2,0.4c-0.9,0-2.6,0.9-3.5,1.1c-1,0.2-3.1,0-4,0.5c-4.3,4-4.3,10.9-3.3,16.2"/>
	<path class="st0" d="M459.5,264.1c0-14.9,4.1-54.7-10.2-58.8c-5.1-1.5-12.5,10.9-14.3,15.9c-1.2,3.2-3.1,13.4,0.4,13.7
		c1.2,0.1-0.3-4.7,0.9-4.5c1.2,0.2,0.1,4.2-0.9,5c-1.4,1-5.1-1.1-6.8-0.9c-3.7,0.5-10.1,5-13.8,5.8c-2.8,0.6-8.7,0.3-11.5,0.3
		c-2.2,0.1-6.7,0.8-8.8,0.2c-1.6-0.4-4.3-2.5-5.5-3.6c-1.6-1.5-5.6-4.8-5.5-7c0.1-2.5,5.6-5,6.9-7c0.8-1.3,2.2-4.2,2.1-5.8
		c-0.2-2.1-3.8-5.2-4-7.2c-0.1-0.8,1.6-2.7,0.9-3.1c-1.2-0.7-3.5,2.5-4,3.8c-0.6,1.5-0.4,5.1,0.3,6.5c1.2,2.2,5.7,5.1,8,6.2
		c2.8,1.3,10,0.6,12,2.9c2.9,3.3,1.4,13.3,1.9,17.7c0.5,4.6,2.2,13.7,2.3,18.3c0.1,4.5-1.2,13.5-1.3,17.9
		c-0.1,4.4,0.4,13.2,0.1,17.6c-0.3,3.3-2.1,9.7-2.1,13"/>
	<path class="st0" d="M393.7,428.7c0,3-3.3,8.8-2.4,11.6c0.5,1.5,3.5,3.5,4.7,4.7c1.6,1.6,5,4.7,6.6,6.4c2,2.1,5.6,6.6,7.6,8.6
		c1.6,1.7,4.8,5.1,6.7,6.4c1.6,1.2,5.3,3,7.2,3.8c1.9,0.9,5.8,2.3,7.8,3c2.1,0.7,6.5,1.9,8.7,2.3c1.5,0.3,5-0.3,6.2,0.5
		c0.4,0.3,1.2,1.4,0.9,1.8c-1,1.4-5.8,1.7-6.9,0.4c-0.6-0.8,0.7-2.9,1.1-3.9c0.7-1.8,3.2-5.1,3.6-6.9c0.3-1.2,0.1-3.6,0.1-4.8
		c0-1.6,0-4.9-0.3-6.5c-0.3-1.8-1.6-5.2-2.2-6.9c-0.4-1.2-1.4-3.5-1.7-4.7c-0.1-0.6,0.1-1.9-0.2-2.4c-1.1-1.6-7.3-1.9-7.2-3.8
		c0.1-1.5,4.4-1.6,5.7-2.3c2.3-1.3,6.5-4.5,8.2-6.4c1.3-1.5,4.7-4.8,4.1-6.6c-0.3-1.1-3.1-1.8-4.3-2.1c-1-0.2-3.7-0.9-4.1-0.1
		c-1.1,2.2,6.4,5,6.7,7.5c0.2,1.5-1.4,5.1-2.9,5.4c-2.6,0.6-6.4-4.6-8.7-5.9c-2-1.1-6.2-2.6-8.2-3.6c-0.9-0.5-2.4-1.7-3.4-2.1
		c-0.6-0.3-2.1-0.3-2.7-0.7c-1-0.8-1.4-3.6-2.2-4.5c-1.9-2.1-7.4-4.7-9.8-6.4c-0.2-0.1-0.8-0.3-0.7-0.5c0.3-0.8,2.8,0.3,3.7,0.2
		c2.3-0.2,8.4-0.3,9.1-2.4c0.6-1.9-4.8-4.1-5.5-5.9c-0.3-0.8-0.2-2.7,0-3.5c0.6-2.1,4.2-5.4,4.3-7.5c0-0.9-0.8-2.8-1.6-3.5
		c-1.3-1.2-6.1-1.2-6.8-2.7c-1.3-2.7,4.1-8.3,4.1-11.3"/>
	<path class="st0" d="M391,548.3c0-2.8,7-8.3,9.1-6.5c2.7,2.4-5,9.6-6.8,12.8c-1,1.8-3.7,5.1-4,7.1c-0.3,1.6,0.5,4.9,1.1,6.4
		c1,2.4,4.1,6.7,6.2,8.2c2.2,1.6,8,1.9,10.2,3.5c1,0.8,2.3,3.1,2.8,4.3c0.6,1.5,1,4.7,1.1,6.3c0.1,1.6-0.5,4.8,0,6.3
		c1,3.7,7.1,9.3,8,13c0.7,2.5-1.6,8-0.4,10.4c1.3,2.7,7.2,5.5,9.7,7.1c2.4,1.5,7.3,4.6,10,5.4c3.4,1,11.1-0.1,14.1,1.8
		c0.8,0.5,2.1,2.4,2,3.3c-0.1,1-1.8,2.5-2.6,3.1c-1.5,0.9-5.2,1.8-7,1.7c-1.2-0.1-3.3-1.4-4.5-1.7c-1.1-0.3-3.2-1.2-4.3-1.1
		c-1.2,0.1-3.2,1.6-4.4,2c-1.6,0.6-5.1,1.5-6.8,1.9c-3.6,0.9-10.8,3-14.6,3.2c-2.5,0.1-8.3,0.9-9.9-1c-0.7-0.9,0.4-3.3,0.5-4.4
		c0.1-1.6-0.6-5-0.1-6.5c0.4-1.2,2.7-2.9,3.3-4.1c0.3-0.5,0.3-1.8,0.7-2.2c1.1-1.3,4.6-2.2,6-3c3-1.7,9.1-4.8,11.4-7.3
		c0.9-1,2.3-3.5,2.6-4.9c0.2-0.9-0.5-2.8-0.2-3.7c0.4-1.5,2.4-3.9,3.2-5.2c0.9-1.3,4.1-3.6,3.7-5.2c-0.6-2.1-5.8-3.4-8-3.7
		c-3.2-0.5-9.9,0.6-13.1,1.6c-2.2,0.7-7.6,2.1-8.2,4.4c-0.4,1.5,2.3,4.2,3.4,5.3c1.9,2.1,6.4,5.8,9,6.8c2.2,0.9,7.1,0.7,9.5,1
		c1.7,0.2,6.6-0.4,6.6,1.3"/>
	<path class="st0" d="M383.9,753.1c0-0.5,1.4-0.7,1.5-1.1c0.1-1-2.4-2.1-2.7-3.1c-0.4-1.1-0.4-3.9,0.4-4.8
		c2.6-2.6,10.9-1.7,14.5-1.2c2.6,0.4,7.6,2.5,10,3.7c1.4,0.7,3.8,2.6,5,3.6c0.6,0.5,2.9,1.5,2.4,2.1c-0.3,0.4-1.1-1-1.5-1.1
		c-0.9-0.2-2.7,0.2-3.5,0.5c-0.8,0.3-2.2,1.1-2.9,1.5c-0.7,0.4-2.7,1.1-2.6,1.9c0.2,1.3,3.7,1.3,5,1.6c2.1,0.5,6.4,1.1,8.6,1.3
		c1.5,0.1,4.7,0.7,6.1,0.2c1.4-0.4,3.8-2.4,4.9-3.4c0.7-0.7,1.8-2.4,2.4-3.2c1.1-1.4,3.4-4,4.5-5.3c1.6-1.8,5.2-5.3,6.7-7.3
		c1.6-2.1,4.3-6.7,5.5-9c1.3-2.6,5.3-7.9,4.4-10.6c-0.5-1.4-3.9-2.4-5.3-3c-1.2-0.6-4.4-1-5.1-2.2c-0.3-0.6-0.1-2.1,0.4-2.5
		c0.7-0.5,2.7-0.1,3.4,0.4c1.8,1.1,5.1,5.2,4.7,7.3c-0.2,1.3-3,2.7-4.2,2.9c-2.3,0.5-7-2.3-9.4-1.9c-3,0.5-8.4,4.1-10.4,6.4
		c-0.6,0.7-1.2,2.5-1.4,3.5c-0.4,2.1-0.6,6.5,0.2,8.4c1,2.4,5,5.8,7,7.4c2.2,1.7,8.2,3.2,9.8,5.5c1.5,2.2,2,7.8,1.6,10.4
		c-0.4,2.8-4.4,7.5-5,10.3c-0.4,1.7-0.2,5.2,0.2,6.8c0.5,2.4,2.5,7.1,4,9.1c1.6,2,6.6,4.1,8,6.3c1.2,2,0.7,7.1,1.9,9
		c1.3,2,7.9,3.3,7.5,5.7c-0.7,5.5-20.5,2.6-20.5,8.1"/>
	<path class="st0" d="M452.4,954.7c0,1.8,2.4,5.3,1.9,7c-0.5,1.7-4,3.7-5.3,4.9c-1.5,1.3-4.8,3.7-6.3,5c-1.3,1.1-4.9,2.8-4.9,4.5
		 M434.4,981.8c0,1,1.2,3.9,2.2,3.6c3.8-1.1-2.7-12.5-0.5-15.8c1.2-1.9,6.5-2.1,8.3-3.5c2.5-2,7.2-7.2,7.5-10.4
		c0.3-3.2-4.1-8.6-5.3-11.6c-1-2.6-3-7.8-3.4-10.5c-0.3-2.4,0.4-7.3,0.4-9.7c0-1.9-0.1-5.6-0.2-7.5c0-0.9-0.3-2.7-0.2-3.6
		c0.7-4.1,4.8-11.5,6.4-15.4c0.6-1.6,1.3-5,2.4-6.3c1-1.2,4.8-2,5.2-3.5c0.2-0.7-1.5-1.9-1.2-2.5c0.5-1.1,4.1-2.4,4.4-1.3
		c0.6,2-7.2,0.8-7.7,2.8c-0.3,1.1,2.9,2.5,2.8,3.6c-0.1,0.8-2.1,1.4-2.7,1.9c-1.3,1.2-3.3,4.3-4.6,5.6c-1.8,1.7-5.8,4.5-7.8,6
		c-1.5,1.1-4.2,3.7-5.9,4.3c-1.4,0.5-4.5,0.3-6,0.4c-2,0.2-5.8,1.2-7.8,1.4c-2.5,0.2-7.7-1-9.9,0.2c-1.1,0.6-2.5,3.1-2.9,4.3
		c-0.6,2.5-1.3,8.9,0.9,10.3c1.7,1.1,6.2-1.6,7.6-3.1c1.9-1.9,2-8.1,3.9-10.1c1.5-1.6,6.3-2.4,8.2-3.4c1.2-0.7,4.8-1.9,4.5-3.2
		c-0.5-1.8-5.6-0.8-7.5-1.1c-1.2-0.1-3.8,0.2-4.8-0.5c-1-0.6-1.8-2.8-2.5-3.7c-2.3-2.9-7.3-8.2-10.1-10.7c-0.9-0.8-2.8-2.2-3.8-2.8
		c-2.1-1.1-6.6-2.4-8.8-3.1c-3.1-1-12.6-0.2-12.6-3.5"/>
	<path class="st0" d="M411.9,1153.5c0-3.4,6.3-7.1,7.2-10.2c0.4-1.3-0.7-4.5,0-5.7c2.7-4.4,13-4.8,17.3-6.7c1.2-0.5,3.6-2,4.9-2.3
		c2-0.4,7.7-2.2,7.9,0.2c1,11.7-38.1-1.5-38.1,10.2 M413.1,1087.1c0-2.7,4.2-6.2,5.5-8.3c1-1.6,2.6-5.6,4-6.7c1.2-1,4.2-1.6,5.6-1.6
		c1.7,0,5.1,1.3,6.8,1.8c1.8,0.5,5.4,1.6,7.1,2.5c1.8,1,5.1,3.9,6.9,5.1c1.8,1.2,5.5,3.2,7.2,4.4c1.1,0.8,3.1,3,4.3,3.6
		c0.7,0.4,2.6,0,3.2,0.7c0.4,0.5,0.6,2.3,0.4,2.9c-0.8,2.6-5.3,5.5-7.1,7.3c-1.9,2-5.9,5.7-7.8,7.7c-1.2,1.3-3.2,4.2-4.5,5.2
		c-2.2,1.7-7.1,3.8-9.6,4.5c-2.7,0.8-8.4,1.2-11.2,1.2c-2.1,0-6.3-0.3-8.4-0.8c-2.5-0.6-7.6-2.2-9.9-3.7c-1.9-1.2-5-4.8-6.6-6.6
		c-1.7-1.9-4.9-6.3-6.6-8.3c-1.8-2.1-5.4-6-7.3-7.9c-1.4-1.4-5.8-3-6-5.2c-0.2-2.1,3.1-5.3,4.8-6.1c2.7-1.2,8.7,2,11.6,1.3
		c1.3-0.3,3.7-2.2,4.9-3c1.4-1,4.4-2.8,5.6-4.3c0.7-1,1.5-3.5,2.1-4.6c0.8-1.3,2.9-3.5,3.6-4.9c1.6-3.1,1.8-12.2,4.6-13.7
		c1.4-0.7,4.2,2,5.6,2.5c1.3,0.4,4,1.6,5.1,0.8c0.7-0.5,0.6-2.9,1.2-3.5c1.2-1.2,4.8-2.8,6-1.6c3.5,3.5-0.7,16.5-0.7,21.9"/>
	<path class="st0" d="M267.2,300.4c0,2.9,4.5,7.7,4.5,10.6 M264.9,303.1c0-3.4-0.5-10.2-0.2-13.6c0.3-3.1,1.5-9.3,2.3-12.4
		c0.5-2,2.2-5.8,2.5-7.8c0.5-3.3,0-10,0.1-13.3c0.2-3.1,1.1-9.3,1.2-12.4c0.2-4-0.6-11.9-0.2-15.8c0.4-3.7,1.9-10.9,3-14.5
		c0.4-1.1,1.4-3.2,1.9-4.3c0.5-1,1.1-4.1,2.3-4c1.9,0.2,1.6,5.6,2.3,7.4c0.6,1.4,2,4.1,2.7,5.4c0.8,1.5,2.6,4.5,3.5,5.9
		c0.7,1.2,1.6,4.8,3.1,4.8c0.3,0,0.5-0.7,0.7-0.9c0.9-1.6,1.9-5,2.8-6.6c0.9-1.6,2.7-5.1,4.2-6.2c0.8-0.6,2.9-1.7,3.8-1.2
		c1,0.6,0.8,3.4,1,4.5c0.3,1.9,0.1,5.7,0.6,7.6c0.5,2,2.1,5.8,3,7.6c1.1,2.3,4.1,6.5,5.4,8.7c1.1,2,2.8,6.4,4.1,8.4
		c1.2,1.8,4.2,4.9,5.5,6.6c1,1.3,2.8,4.1,3.6,5.6c0.8,1.4,1.7,4.7,2.7,6c1,1.2,3.5,3.3,5,3.8c0.9,0.3,3.1,0.6,3.9,0
		c1.6-1.3,1.6-6.1,1.9-8.2c0.3-1.9,1.1-5.7,0.7-7.5c-0.2-0.8-0.9-2.9-1.7-2.8c-1.9,0.1-2.6,5-3.3,6.7c-1.1,3-3.2,9.2-3.4,12.4
		c-0.1,1.1,0.2,3.3,0.7,4.3c1.3,2.6,5.1,8.7,8,8.7c1,0,1.8-2.5,2.7-3c0.6-0.4,2.2-1,2.9-0.8c2.2,0.4,7,3.3,7,5.5"/>
	<path class="st0" d="M302.5,610.8c0,3.8,8.9,11.3,12.1,9.2c2.7-1.8-2.2-9.6-3.5-12.7c-2.2-5.6-16.5-18-11.3-21.1
		c1-0.6,1.8,2.9,2.5,3.7c1.7,2,5.1,6.3,7.6,7.2c2.4,0.9,7.8,0.1,10.3-0.4c2.8-0.6,8.3-2.6,10.6-4.4c1-0.8,3.3-3,3-4.2
		c-0.3-1.1-3.1-1.7-4.2-2.1c-2.2-0.8-6.8-1.9-9.1-2.5c-3.6-0.9-11.5-1-14.4-3.3c-1.3-1-1.3-5.7-2.9-5.9c-0.9-0.1-1.9,2.1-2.1,3
		c-0.8,2.4-0.3,7.6,0,10.1c0.4,2.7,2.5,7.9,3.1,10.5c0.7,3.5,1.8,10.7,1.9,14.4c0.1,2.4,0.3,7.2-0.5,9.4c-0.9,2.5-4.2,6.9-6,8.9
		c-2.4,2.5-7.6,7.3-10.4,9.4c-2.7,2-7.9,7.2-11.2,7.2c-1.1,0-2.9-1.6-3.7-2.4c-1.5-1.4-4.4-4.4-4.9-6.4c-0.5-1.9,0.5-5.8,1-7.6
		c0.6-2.4,2.9-6.9,3.9-9.2c0.5-1.3,1.4-4.1,2.2-5.3c1.8-2.8,7.1-7.2,9.3-9.7c2.8-3.2,8.3-9.8,10.8-13.2c1.5-2.2,4.2-6.8,5.6-9
		c1.8-2.9,5.1-8.8,7.2-11.5c2.5-3.2,8.5-8.7,11.5-11.3c3-2.6,9.6-7.2,12.7-9.7c3.3-2.6,12.9-6.3,12.9-10.4"/>
	<path class="st0" d="M282.3,711.4c0,3.9,10.6,4.9,13.7,7.2c2.2,1.7,7.8,5.5,7.7,8.3c-0.3,5.3-14.3,8.6-16.3,13.5
		c-0.8,2,0.6,6.6,1.7,8.5c2.2,3.8,9.7,9,13.2,11.7c2,1.6,6.5,4.4,9.1,5c3.5,0.8,10.8-1.7,14.4-1.2c0.5,0.1,2,0.2,2,0.8
		c0.3,5.7-15.4,7.4-20.6,9.8c-6.9,3.2-23.8,11.3-23.8,18.9c0,2.2,5.5,3.8,6.8,5.6c1.3,1.8,2.1,6.4,3.5,8.1c2.9,3.4,11,11.2,15,9.4
		c2.2-1,1.3-7.3,2.7-9.3c3.7-5.1,22.6-8.2,20.7-14.2c-1.1-3.4-10.9,1.2-14.3,0c-2.7-1-7-5.2-9-7.3c-2.1-2.1-7.8-5.8-8.2-8.7
		c-0.7-6.1,9.2-16.2,12.8-21.2c4.5-6.2,20.1-15.4,20.1-23"/>
	<g>
		<path class="st0" d="M334.6,445.5c0,0.5,0.1,1.6-0.2,2c-3,3.7-12.5,2.1-16.2,0c-1.9-1.1-4.9-5.6-5.9-8.1
			c-2.1-5.3-1.1-19.1-4.1-23.5c-4.4-6.6-19.9-5.5-24.9-11.3c-0.8-1-2.7-4.2-2-5.3c1.5-2.4,8.3,1.2,8.7,4.4c0.5,3.4-6.3,6.3-7.3,9.5
			c-2.2,7.2-1.5,23.9,0.4,31.3c0.7,2.6,4,6.2,5,8.6c0.7,1.6,1.3,5.6,2.2,7.1c2.2,3.5,8.5,7.4,11.3,10c2.2,2.1,6.3,10.4,8.7,8.8
			c1.4-0.9,0.3-6.2,0.5-8.3c0.3-3.1,0.4-9.3,1.3-12.2c1.3-4.1,10.1-10.2,8.3-13.9c-0.7-1.4-4.7,0.5-4.7,2.2"/>
		<path class="st0" d="M284.7,373.3c3.2,2.5,6.9,12.4,10.1,15c4.7,3.9,15.7,6.3,21.1,7.7c2.4,0.6,7.3,1.8,9.7,1.4
			c1.5-0.3,5.2-0.9,5.6-2.9c0.7-3.8-7.3-8.2-7.3-12.1"/>
	</g>
	<path class="st0" d="M351.1,960.6c0-2,1.3-5.7,1.9-7.6c0.5-1.7,1.1-5.5,2.2-6.9c0.8-1,3.9-1.7,4.3-2.9c2.2-6.7-9-19.6-9-26.6
		c0-1.9,2.5-5.3,2.3-7.2c-0.2-2.7-2.8-7.8-4.6-9.8c-1.3-1.5-5.2-3.1-6.9-4.2c-2.2-1.4-7.2-3.7-8.6-5.9c-1.4-2.1,0.5-9.9-2.1-10
		c-2,0-1.4,5.8-1.8,7.7c-0.2,1.1-0.5,3.4-0.8,4.5c-0.4,1.5-1.6,4.3-2,5.8c-0.4,1.7-2,5.2-1.3,6.7c0.6,1.4,3.8,2.5,5.2,3.2
		c1.2,0.6,3.9,1.3,5,2c1.5,0.9,3.6,3.8,5.2,4.3c1.6,0.5,5.5-1.7,6.7-0.5c0.8,0.8-1.5,3.9-0.6,4.6c0.9,0.8,4.4-2.5,4.7-1.4
		c0.1,0.5-1.5,0.2-1.9,0.6c-2,1.9-3.2,7.7-3.9,10.4c-0.8,2.7-1,8.6-2.1,11.2c-0.7,1.6-2.9,4.5-4.2,5.7c-1.5,1.4-5.1,3.8-7.2,4.1
		c-3.6,0.6-11-1.7-14.5-2.7c-2.1-0.6-5.9-3.9-8-3.3c-2.3,0.7-4,6-5.4,7.9c-1.6,2-4.7,6-6.7,7.6c-1.5,1.2-5.8,2-6.7,3.7
		c-0.1,0.2,0.3,0.8,0.1,1c-2.7,3.3-13.1-0.1-17.2,1.1c-3.3,1-9.3,4.9-12.1,7c-1.3,1-4.3,3.1-4.8,4.7c-0.7,2.4-0.6,10,1.9,9.8
		c6.7-0.7-0.4-20.2-0.4-27"/>
	<path class="st0" d="M310.5,1153.5c0-3-7.3-5.9-8.5-8.7c-1.4-3.2-2.1-10.5-0.9-13.8c1.1-2.9,7.3-6,8.8-8.7c1.2-2.2,3.4-7.4,2.3-9.6
		c-1.1-2.3-6.7-4.3-9.2-4.5c-8.7-0.6-24.3,10.2-33,10.8c-3,0.2-10,0.4-11.9-2c-2.1-2.5-0.7-9.8,0.2-12.8c1.2-3.9,5.9-10.7,8.7-13.6
		c2.1-2.2,8-4.6,9.9-6.9c2.3-2.9,1.9-12.8,5.4-13.7c3.1-0.8,7.6,5.7,9.7,8.1c2.4,2.8,4,11.4,7.4,12.7c2.4,0.9,7.3-3.3,9.9-3.2
		c2.2,0,6.1,3,8.2,2.8c3.9-0.4,10.3-5.6,13.5-7.8c3.6-2.6,9.7-9.3,13.4-11.8c3-2,10.9-3.4,12.7-6.5c2-3.6,2.7-14.5-1-16.3
		c-3.4-1.6-9.9,5.8-12.4,8.6c-1.8,2-4.8,6.8-5.4,9.5c-0.3,1.2-0.1,3.7,0.4,4.8c0.2,0.4,0.9,0.8,1.2,1c0.8,0.7,2.2,2.4,3.2,2.7
		c2.5,0.8,9.1-3.1,10.3-0.9c6,11-36.9,29.1-30.4,39.8c1.3,2.2,10.2,0.8,10.2-1.7"/>
	<path class="st0" d="M150,300.6c0,0.7-2,1.3-2.2,2c-0.3,0.8,0.1,2.6,0.5,3.4c0.7,1.3,2.9,3.3,4.2,4c0.9,0.5,3.9,1.6,4.1,0.6
		c0.3-1.4-4.6-0.4-5.4-1.5c-0.7-0.9-0.7-3.6,0-4.4c1.9-2.2,11.2,1,11.6-2c0.1-0.9-2.5-2.3-3.2-1.6c-0.4,0.5,0.7,2.1,1.3,2.1
		c2.2,0.1,4.1-5.2,5.3-7c1.9-2.9,5.3-9,6.9-12.1c1.3-2.4,4-7.2,5.1-9.8c0.8-1.9,1.4-6,2.3-7.8c1.1-2.2,4.8-5.7,5.9-7.9
		c1.1-2.2,2.6-6.9,2.8-9.3c0.2-2.3-0.5-6.8-0.9-9.1c-0.5-2.7-3.6-7.9-3-10.6c0.7-3.1,6.2-7.4,8.5-9.6c2.5-2.4,7.9-6.7,10.6-8.8
		c2-1.6,8.4-3.4,8.4-6 M204.5,241.4c0,1.9,5.2,2.5,6.4,3.9c1,1.2,1.8,4.5,2.4,6c1.5,4.1,4.5,12.4,5.8,16.6c0.3,0.9,0.9,2.7,0.8,3.6
		c-0.2,1.5-3.9,4.4-2.8,5.5c1.7,1.6,6.4-3.3,8.2-4.8c1.5-1.3,6.3-4.6,5.1-6.2c-2.9-3.7-17.8,3.4-17.2,8.1c0.1,0.7,2,0.8,2.6,0.5
		c1.7-0.8,3.8-4.5,3.8-6.3c0-3.3-4.1-9.4-6.6-11.6c-2.4-2.2-9.5-3.1-12-5.1c-1.2-1-2.5-4-3.7-5c-3.7-3.1-12.5-8.2-17.3-8.9
		c-2.8-0.4-8.4,1.6-11.2,2.1c-2.5,0.5-7.4,1.7-9.9,2c-1.9,0.2-5.8,0.4-7.7,0.4c-1.9,0-5.8,0.3-7.6-0.4c-1.6-0.7-4.8-2.9-5.3-4.6
		c-1-3.1,2.7-9.5,2.7-12.8"/>
	<path class="st0" d="M170.6,452.2c0,1.8-1.1,5.3-1.1,7.1c0,1.1,0.3,3.3,0.7,4.3c0.2,0.7,0.9,2.2,1.4,2.7c0.8,0.8,3.1,1.7,4.1,2.3
		c1.3,0.7,3.6,2.7,5,2.9c1.6,0.3,5.1-1.9,6.4-0.9c1.5,1.3,1.5,6.6,0.1,8c-0.9,0.9-3.8,0.4-5,0.1c-1.6-0.3-4.3-2.1-5.7-2.8
		c-1.4-0.7-4.2-2.3-5.7-2.9c-0.8-0.3-2.6-0.4-3.1-1c-0.2-0.2-0.3-0.9-0.3-1.2c-0.1-1.2,0.5-3.5,0.7-4.7c0.3-2.3,1.1-6.9,1.3-9.2
		c0.1-1.2,0.4-3.7,0.2-4.9c-0.4-2-2.3-5.8-3.4-7.6c-0.8-1.2-2.9-3.1-3.7-4.3c-1-1.6-2.7-5.1-3.3-7c-0.5-1.5-1.7-4.6-1.2-6.1
		c0.5-1.6,3.1-4.1,4.6-4.8c1.2-0.5,3.9-0.5,5.2-0.2c3.9,0.7,10.7,5,14.5,5.9c1.9,0.4,5.7,0.7,7.7,0.5c2.5-0.3,7.2-2,9.5-2.9
		c2.4-0.9,8.2-2,9.2-4.4c0.4-0.8-0.9-2.6-1.2-3.4c-0.5-1.9-0.2-6.2-1.5-7.7c-0.6-0.6-2.7-0.4-3.3-1c-1.5-1.7-1.8-6.6-1.8-8.8
		c0-2.5,1.6-7.4,2.1-9.9c0.4-2.4-1.2-9.3,1.2-9.6c2.2-0.3,2.4,6.1,3.5,8.1c0.8,1.5,4,3.8,3.8,5.5c-0.1,0.6-1.4,1.3-1.9,1.6
		c-3.7,2-15.9,0.9-15.9,5.1 M195.1,395.8c0,5.2-17.6,4.9-20.7,0.8c-3.1-4.1,2.8-15.9,6.4-19.5c1.7-1.7,6.9-2.3,9.3-2.8
		c1.8-0.4,5.4-0.9,7.3-0.9c0.4,0,1.6-0.2,1.6,0.2"/>
	<path class="st0" d="M203.1,580.4c0,1.8,6.3,3.4,7.1,1.7c1.2-2.3-6.1-4.6-7.7-6.6c-1.2-1.5-2.5-5-3.6-6.6c-1.6-2.3-5.8-6.1-7.2-8.4
		c-1.2-1.9-3.3-6.1-3.5-8.4c-0.3-2.6,4.3-9,2.1-10.3c-6.8-3.8-16.3,17-23.1,20.8c-2.2,1.2-7.7,4.7-9.6,3c-0.5-0.5-0.2-2.6,0.5-2.7
		c0.6,0,0.3,2,0.8,2.5c1.3,1.3,5.2,2,7,2.5c1.7,0.4,5.2,0.3,6.8,0.8c3.6,1.1,11.7,3.4,13.3,6.8c0.5,1.2-0.4,3.9-1.2,5
		c-1.1,1.5-5.3,2.6-6.1,4.2c-0.6,1-0.1,3.5-0.1,4.6c-0.1,2,0.1,6.2-0.3,8.2c-0.5,2.1-4.5,6.1-3.3,7.9c1.4,2.1,9.2,2.1,10.2-0.2
		c0.8-1.9-5.1-4.2-5.3-6.3c-0.1-1.7,2.4-4.5,3.6-5.7c1.3-1.4,5.2-2.7,6.3-4.2c0.4-0.6,0.1-2.2,0.5-2.7c1.3-1.5,5.6-2.1,7.6-2.5
		c1.6-0.3,5.6-1.9,6.5-0.5c0.8,1.3-3.7,3.9-3.3,5.4c0.2,0.9,2.5,1.5,3.3,2c3.8,2.4,13.9,5.5,14.9,9.8c0.3,1.1-1.4,3.2-2.2,3.9
		c-2.6,2.1-9.6,2.8-12.6,4.2c-2.2,1-6.3,3.8-8.3,5.1c-3.1,2.1-9,6.6-12.1,8.7c-2,1.3-6.1,3.6-8.2,4.8c-2.4,1.4-7.8,3.5-9.8,5.4
		c-1.6,1.5-3.7,5.5-4.4,7.6c-0.5,1.5,0.4,5.5-1,6.4c-2.4,1.6-11.1,0.1-11.1-2.8 M158.4,637.2c0,2.8,8.5,0.2,11.3,0.6
		c2.5,0.3,10-0.3,10,2.2"/>
	<path class="st0" d="M144.4,747.1c0-2,3-5.2,4.1-6.8c1.5-2.3,5.7-6.3,6.6-8.9c1.1-2.9,0.2-9.5,1.1-12.5c0.4-1.5,1.7-4.7,2.9-5.6
		c1.4-1,5.5-2.4,6.8-1.4c2.8,2.2,0.6,10.6,0.8,14.1c0.2,2.2-0.3,6.8,0.8,8.8c0.8,1.4,3.7,3.1,5,3.9c1.8,1.1,6.2,2,7.8,3.4
		c1.3,1.1,3.4,4.2,3.9,5.8c0.4,1.3,0.2,4.3,0.3,5.7c0.2,1.8,0.6,5.4,1.3,7.1c0.8,2.1,3.2,6,4.8,7.5c2.1,2,7.6,4,10.1,5.5
		c1.2,0.7,4.6,1.8,4.5,3.2c0,0.4-1,0.6-1.4,0.7c-0.9,0.2-2.8,0-3.7-0.1c-1.2-0.1-3.7-1.6-4.9-1c-1.1,0.6-1.8,3.4-2.1,4.6
		c-0.9,2.8-0.8,8.8-2,11.5c0,0,0,0,0,0c-1.5,0.1-2.9-4.1-4.4-4.4c-2.5-0.4-6.9,3.1-9.2,4.2c-1,0.5-3,0.9-4,1.2
		c-2.6,0.9-8.1,2.2-10.5,3.6c-1.7,1.1-4.4,4.2-5.9,5.7c-1.8,1.9-6.7,5.3-7,7.9c-0.2,1.8,1.7,6.6,3.5,6.4c1.7-0.2,1.9-4.8,1.9-6.4
		 M168.4,732.4c0,2.9,5.3,6.8,6.5,9.4c1.5,3.3,2.2,10.9,3.6,14.3c1.9,4.5,7.8,13,7.6,17.9c0,1.8-2.9,4.7-3.1,6.4
		c-0.3,2.3,2.3,6.6,3.7,8.4c0.6,0.8,2.2,2.4,3.3,2.4c3.6-0.1,8.4-6.6,11-9.1c1.8-1.7,5.1-5.3,6.7-7.2c1.1-1.4,2.2-5.1,3.8-5.8
		c3-1.3,13-1.1,13,2.2"/>
	<path class="st0" d="M148.4,880.1c0,0.6,1.5,1.7,2,1.4c0.4-0.2-0.3-1.8,0.2-1.9c1-0.2,1,2.9,1.6,3.7c1.7,1.8,6.4,3.7,8.7,4.8
		c3.4,1.7,10.9,4.1,14,6.4c1.6,1.1,4.4,4,5.3,5.7c0.6,1.3,1,4.2,1,5.6c0.1,1.5-0.7,4.5-0.7,6c0.1,1.5,0.4,4.6,1.1,5.9
		c0.8,1.4,3.7,3.3,5,4.4c1.2,1,3.6,3.2,5,4.1c2,1.3,7.4,2,8.5,4.1c0.6,1.2-1.2,4-0.8,5.3c0.5,1.5,3.1,3.7,4.3,4.7
		c1.3,1,4.3,2.5,5.9,3c1.1,0.4,3.6,1,4.8,0.7c1.2-0.3,3.4-1.9,4.2-2.9c0.7-0.8,1.4-2.9,1.7-3.9c0.3-0.9,1-2.7,0.9-3.7
		c-0.1-1.3-0.9-4-1.8-5c-1.1-1.1-4.1-2.3-5.7-2.6c-2.3-0.4-7,0.2-9.3,0.5c-1.8,0.2-5.2,1-7,1.3c-1.3,0.2-4,0.4-5.4,0.6
		c-1.5,0.3-4.6,0.8-6,1.4c-1.3,0.5-3.7,2.2-5,3c-1.7,1-5.2,2.8-6.8,4c-2.3,1.6-6.5,5.3-8.4,7.3c-1.6,1.6-4.2,5.4-5.7,7.1
		c-1.6,1.8-5,5.1-6.5,7c-1.7,2.2-5.6,6.5-6,9.3c-0.3,2.4,1.5,7.1,2.7,9.1c0.7,1.1,3.2,2.8,3.1,4.1c-0.1,1-3.6,2.1-2.9,3
		c0.7,0.9,2.9-1.6,3.8-2.2c1.4-1,4.4-3.1,5.2-4.6c1-1.8,0.8-6.1,1.3-8.1c0.3-1.5,1.4-4.3,1.7-5.7c0.2-1.1,0.9-3.3,0.6-4.4
		c-0.2-1.1-1.5-3.1-2.4-3.7c-2.3-1.4-10.6,1.8-10.6-0.8"/>
	<path class="st0" d="M213.3,1150.6c0-2.4-6.5-3.5-7.8-5.5c-1.1-1.7-1.6-5.8-1.4-7.8c0.2-1.6,2.4-4.5,2.5-6.1
		c0.1-1.1-0.6-3.3-0.8-4.4c-0.6-2.9-1.1-9-2.6-11.6c-1.5-2.8-7-6.5-9-9.1c-2-2.6-4.9-8.6-6.5-11.5c-4-7.3-11.5-22.1-15.3-29.5
		c-1.4-2.6-5-7.6-5.4-10.5c-0.2-1.7-0.2-6.2,1.4-6.7c2.2-0.8,7,3.5,7.1,5.7c0.1,1.9-4.3,3.9-5.2,5.5c-1.2,2.1-3.3,7.1-2.7,9.4
		c0.7,2.6,5.7,5.7,7.8,7.4c1.6,1.4,5.1,4,6.9,5.1c2,1.1,6.5,2.3,8.3,3.6c1.1,0.8,3.8,2.6,3.6,3.9c-0.6,5-13,7.9-16.9,11.2
		c-2.2,1.9-6,6.4-8,8.5c-1.6,1.6-4.6,5.1-6.6,6.2c-1,0.6-4.3,0.3-4.5,1.4c-0.2,0.8,1.7,2,2.4,2.3c1.4,0.7,4.8,1.3,6.4,1.2
		c2.3-0.1,6.7-1.5,8.7-2.6c2-1.2,4.3-5.7,6.5-6.4c0.9-0.3,3.9-0.2,3.8,0.8c-0.1,0.8-2.6,0.8-3,0.1c-0.3-0.4,0.8-1.2,0.8-1.7
		c0.1-2.4-1.2-9.1-3.6-8.9c-2.7,0.2-1.5,7.9-2.3,10.5c-0.9,2.9-2.6,8.9-4.3,11.4c-2.1,2.9-9.2,6.1-11.1,9.1
		c-1.2,1.9-1.4,6.7-2.3,8.7c-0.9,2-4.8,5.2-4.9,7.5c-0.1,1.5,1.6,4.6,2.9,5.5c1.8,1.1,8.7-2,8.7,0.2"/>
	<path class="st0" d="M772.2,134.8c0,1.4-2.7,3.2-3.4,4.3c-0.5,0.8-0.6,3-1.5,3.5c-0.9,0.5-3.4,0-4.2-0.7c-3-2.8-3.3-11.8-4-15.8
		c-0.4-2.6-0.7-7.8-0.7-10.4c0-1.9-0.2-5.9,0.5-7.6c1.1-2.6,6.2-6,7.5-8.6c1-2,0.5-7,1.8-8.9c1.5-2.2,7.6-3.4,8.9-5.7
		c0.8-1.4-0.7-5,0.2-6.4c0.2-0.3,1-0.9,1.4-0.7c1,0.5,0.9,3.1,0.9,4.2c0,0.8-0.6,2.3-0.4,3.1c0.2,1.3,2.5,3.5,2.4,4.8
		c0,0.6-0.9,1.5-1.2,2c-0.8,1.4-1.8,5.5-3.4,5.5c-2,0-3.6-4.9-4.5-6.7c-0.9-1.8-0.8-6.8-2.6-7.8c-1.6-0.9-5.4,1.4-7.2,2
		c-1.7,0.7-5,2.5-6.6,3.3c-2.3,1.3-7.9,3.1-9.1,5.4c-0.5,0.9-0.1,3,0.2,3.9c0.4,1.3,1.3,4.9,2.6,4.7c3.2-0.5,1.7-9.6,2.3-12.8
		c0.5-3,1.2-9.2,2-12.1c0.2-0.6,1-1.7,1-2.4c0.1-1.7-1-5-1.6-6.6c-0.7-2-2.9-5.6-3.7-7.5c-0.7-1.6-1.2-5.2-2.3-6.6
		c-1.5-2-6.9-3.7-8.4-5.8c-1.8-2.4-6.5-10.5-3.7-11.5c2-0.7,4.8,7.4,2.8,8.1c-0.2,0.1-0.4-0.6-0.3-0.7c1.4-1,5.5,2.5,5.5,4.3"/>
	<path class="st0" d="M622.5,45c0,2.3,3.2,5.7,4.2,7.7c0.7,1.4,2.3,4.1,2.3,5.7c0.1,2.2-1.6,6.5-2.6,8.3c-0.6,1.2-2.7,2.8-3.4,3.9
		c-0.8,1.2-2.5,3.7-2.5,5.2 M618.1,71.2c0,0.8-0.2,2.8,0.2,3.4c1.3,1.7,5.6,0.5,7.5,0.8c0.9,0.1,2.7,0,3.5,0.5
		c2.5,1.4,5.7,7.7,8.2,8.9c2.1,1,6.9,1.3,9,0.4c1.4-0.6,3.2-4.6,4.7-4.7c0.5,0,1.3,1.6,1.8,1.3c0.4-0.3,0.1-1.9,0.4-2.4
		c0.8-1.3,3.5-1.9,4.6-2.7c1.1-0.8,3.1-2.7,4.1-3.7c0.9-1,2.7-3.1,3.5-4.3c1.9-3,5.6-9.2,6.5-12.8c0.3-1.2,0-3.7,0.1-4.8
		c0.2-1.3,1.1-3.7,1.3-5c0.1-1-0.1-3-0.3-4c-0.3-1.3-0.9-4.2-1.9-4.7c-1.1-0.5-3.7,0.6-4.3,1.8c-0.4,0.6-0.2,2.4,0,3.2
		c0.3,0.9,1.8,1.9,2.3,2.7c1.3,1.9,3.8,5.8,4.7,8c1,2.5,1.4,8.3,2.7,10.6c1.8,3,7.8,5.9,10,8.5c1.1,1.3,2.5,4.8,3.6,6.2
		c0.8,0.9,2.6,2.4,3.6,3c1.2,0.8,4.6,0.8,4.9,2.4c0.7,3.7-5.6,9.2-8.2,11.2c-0.5,0.4-1.8,0.3-2.2,0.7c-0.7,0.7-1.3,2.9-1.8,3.8
		c-0.4,0.7-1.5,1.9-1.5,2.7c-0.3,5.5,7.9,14.1,8.3,19.6c0.1,1-0.8,2.9-1,3.9c-0.6,4.3,0.9,13.1,0.9,17.4"/>
	<path class="st0" d="M482.3,136.3c0-2.9-1.2-11.1,1.7-11.7c3.1-0.6,4.2,8.5,6.4,10.7c2,2.1,7,5.2,9.6,6.3c6.1,3.9,9.4-3.2,13-7
		c2.7-1.4,2.4-3.9,2.5-6.5c3-8.2,0.9-17.6-1.3-25.7c-0.3-2.2,1.9-8.9-0.4-9c-1.1-0.1-0.1,3.4-0.7,4.4c-1.5,2.7-3.1,0.4-4.1-1.3
		c-0.2-0.3-0.9-1.3-0.6-1.5c0.9-0.5,1.5,3.3,2.5,3.3c1.6,0,3-3.6,3.9-4.9c1.1-1.7,2.7-5.3,3.5-7.1c0.6-1.5,0.8-5.6,2.3-5.9
		c4.6,0.8,5.9,8.4,7.3,12.2c6.1,10,14.6,21,12.3,33.6c-0.1,1.6,1.2,6.1-0.4,6.5c-0.8,0.2-1.5-2-1.7-2.7c-0.5-2.1,0.7-6.5,0.8-8.7
		c0.1-4-0.9-12.1-0.6-16.1c0.3-4.1,1.7-12.1,2.7-16.1c4.2-12.6,8.4-26.8,15.9-37.9c1.1-2,2.6-6.6,4.2-8.3c0.5-0.5,2.4-0.6,2.5-1.3
		c0.3-1.5-2.7-4.7-4.2-4.5c-1.8,0.3-2.8,4.8-3.3,6.6c-2.5,8.4-3.5,12.2,5.8,15.2c10.7,4.2,23.7,11.3,24,24.3"/>
	<path class="st0" d="M393.7,71c0-2,6.2-1.7,7.8-0.6c1.9,1.4,1.2,7.2,2.4,9.2c1.2,2.1,6.2,4.4,6.7,6.7c1,4-5.3,11.5-5.2,15.6
		c0.1,2.4,2.8,6.6,3.7,8.8c0.1,0.3,0.1,1.1,0.4,1.1c1,0.3,2.5-2,3.2-2.8c1.1-1.5,2.2-5.2,2.9-6.9c0.7-1.7,2.3-5.2,3-6.9
		c1.3-3.4,2.8-10.8,4.7-14c1.7-2.8,7.2-6.8,9-9.5c1.4-2,3.4-6.6,4.2-8.9c0.5-1.6,0.8-4.8,1.2-6.4c0.4-1.3,1.8-3.9,1.9-5.2
		c0.1-1.3-0.9-3.9-1.2-5.3c-0.2-1-0.7-3.1-0.9-4.2c-0.3-1-0.5-3.1-1.2-3.9c-0.3-0.3-1.1-0.9-1.5-0.7c-0.8,0.5-0.4,2.9-0.5,3.8
		c0,0.6,0.2,1.7,0.1,2.2c-0.5,2.2-2.9,6.2-3.8,8.3c-1.1,2.4-3.3,7.2-4,9.7c-0.3,0.8-0.5,2.5-0.7,3.4c-0.2,0.7-0.6,2.2-0.8,2.9
		c-0.6,1.8-1.5,5.4-2.4,7.1c-1,1.7-4,4.5-5,6.2c-0.9,1.6-1.8,5.3-2.2,7.1c-0.3,1.4-0.9,4.3-1,5.8c-0.1,1.4-0.2,4.2,0,5.5
		c0.2,1.2,1.1,3.4,1.5,4.6c0.5,1.6,1.6,4.8,1.9,6.4c0.2,1.4,0.2,4.2,0.4,5.7c0.1,1.3,0.7,4,0.7,5.3c0,1.5-0.8,4.4-0.7,5.8
		c0.1,1.2,0.7,3.5,1.2,4.6c0.4,0.9,1.6,2.3,2.2,3.1c0.8,1,2.4,2.9,3.3,3.8c1,0.9,3.2,2.7,4.5,3.2c1.3,0.6,4.2,1.4,5.6,1.2
		c2-0.2,5.6-2.6,7.4-3.5c1.8-0.9,7.1-2,7.1-4"/>
	<path class="st0" d="M345.2,37c0,1.6,3.8,1.1,4.8,2.1c0.8,0.8,1.5,3.1,2,4.1c0.3,0.6,1,1.7,1.2,2.4c0.2,1.1-0.2,3.3-0.3,4.4
		c0,0.5-0.4,1.7-0.2,2.2c0.3,0.7,1.5,1.1,2,1.6c0.3,0.3,0.6,1.4,1,1.4c0.3,0,0.8-0.8,0.6-1c-0.3-0.4-1.1,1-1.5,0.9
		c-0.9-0.3-1.5-3.2-2.3-3.9c-1.9-1.5-6.6-1.6-8.7-2.5c-2.5-1-7.2-3.9-9.8-4.7c-1-0.3-3.1-1.3-3.9-0.7c-1,0.6-2.5,3.7-2,4.9
		c2.6,6.2,19.2-1.9,22.3,3.9c0.4,0.8-0.3,3.1-0.8,3.9c-1,1.6-4.5,2.7-5.9,3.8c-1.5,1.2-4.2,4.4-5.9,5.2c-1,0.5-3.3,0.6-4.4,0.8
		c-2.3,0.5-6.7,2.3-9,2.2c-1.8-0.1-5-1.9-6.7-2.4c-1-0.2-3-1.1-4-0.6c-1.2,0.6-2.7,3.4-3.2,4.8c-0.7,1.8-0.1,6.3-1.1,7.9
		c-1.2,2.1-5.6,3.3-7.4,4.5c-1.5,1-4.5,3.4-6,4.5c-1.6,1.2-6.5,2.4-6.6,4.7c0,0.2,0.4,0.3,0.5,0.4c1,1,3.1,3,3.5,4.4
		c0.3,1.1-0.3,3.4-0.4,4.5c-0.2,1.9-0.3,5.9-0.7,7.8c-0.3,1.8-1.3,5.2-2,6.9c-0.2,0.6-0.8,1.7-1.1,2.2c-0.6,0.9-2,2.7-2.8,3.3
		c-1.5,1.2-5,2.8-6.8,3.4c-1.3,0.5-4.2,0.7-5.5,1.5c-1.6,1.1-4.3,4.7-5.3,6.5c-0.7,1.4-2.9,4.5-2.3,6c0.2,0.6,2.2,1.1,2,1.7
		c-0.6,2.2-8.9,3.6-8.9,1.3"/>
	<path class="st0" d="M166.2,137.3c0,1.3-0.8,4.7,0.4,5.4c1.8,1,7.1-2.1,7.1-4.1 M169.3,135.3c0-0.9-2.3-1.7-2.7-2.5
		c-0.3-0.7,0-2.4,0.1-3.2c0.1-0.6,0.6-1.6,0.6-2.2c-0.2-1.5-2-4-3-5c-1-0.8-3.6-1.2-4.6-2c-0.9-0.7-2.5-2.5-3-3.6
		c-0.5-1.3-0.7-4.1-0.5-5.5c0.2-1.4,1.7-4,2.3-5.3c0.8-2,1.9-6.4,2.9-8.3c0.7-1.2,2.4-3.4,3.3-4.3c0.9-0.9,3-2.6,4.2-3.2
		c1.4-0.7,4.5-1.4,6-1.6c1.3-0.2,3.8-0.5,5.1-0.4c0.7,0,2.2,0.2,2.8,0.5c0.9,0.5,2.1,2.5,2.9,3.2c1,1,3.2,2.6,4.3,3.5
		c0.9,0.8,2.8,2.3,3.8,3c0.8,0.6,2.5,1.4,3.1,2.1c0.5,0.5,1.3,1.6,1.5,2.3c0.2,1.1-0.4,3.3-0.6,4.4c-0.4,1.7-1.7,4.8-2.4,6.4
		c-0.4,1-1.2,3.2-1.8,4.1c-0.5,0.9-1.8,2.5-2.5,3.2c-0.6,0.6-1.9,1.8-2.7,2.1c-0.7,0.3-2.4,0.6-3.1,0.3c-0.8-0.3-2.4-1.5-2.8-2.4
		c-0.4-1-0.2-3.2,0-4.2c0.4-1.8,2.5-4.8,3.3-6.4c1.1-2.1,3.7-6,4.6-8.2c0.6-1.4,1.3-4.5,1.9-6c0.7-1.7,2.2-4.9,3-6.4
		c1-1.8,3.6-4.9,4.7-6.6c1-1.5,3.2-4.3,4-5.9c1.1-2,2.5-6.5,3.5-8.6c1-2.1,3.8-5.8,4.4-8.1c1.4-5.7,0-23.6,0-23.6"/>
	<path class="st0" d="M32.7,140.6c0-3.8,9-6.8,12.5-7.1c3.1-0.3,8.7,3.1,11.7,4.1c1.6,0.6,4.9,1.6,6.5,2.2c1.9,0.7,5.6,3,7.6,3
		c6.2,0,17.3-8.4,23.5-9.1c0.3,0,0.9,0.2,1.2,0.2c1.2-0.1,3.7-0.9,4.8-1.4c1.8-0.7,5.3-2.5,6.9-3.6c1.4-1,3.7-3.5,5-4.6
		c1.8-1.5,6-3.9,7.6-5.8c1-1.2,3-4,2.9-5.6c-0.2-2.8-4.2-7.4-6.4-8.9c-2.6-1.7-8.9-1.8-11.8-2.4c-3.8-0.8-11.3-2.7-15.2-3.1
		c-1.5-0.2-4.4-0.1-5.9-0.1c-1.1,0-2.1,0.1-3.1,0.5c-0.9,0.3-2.8,0.7-3.7,1.2c-2.3,1.2-6,7.5-8.5,6.6c-2.1-0.8-3.1-6.8-2.6-9.1
		c0.5-2.6,5-5.6,6.6-7.6c1.5-1.9,5.6-5.3,5.9-7.8c0.2-2-2.7-5.4-3.1-7.3c-0.2-1.2,0.1-3.6-0.1-4.9v0c-0.7-3.2-2.6-5.8-5.3-7.3
		c-0.4-0.2-1.1-0.7-1.5-0.8h0c-2.3,0-4.4,1-5.9,2.9c-1.2,1.4-4,4.1-4.9,5.8c-0.7,1.5-1.8,4.9-1.3,6.5c1.2,3.7,8.1,8.1,11.2,10
		c2,1.3,6.6,4.4,8.7,3.5c1.2-0.5,1.6-3.7,2.2-5c0.7-1.7,2.1-5.1,2.7-6.9c0.4-1.4,1.6-4.1,1.4-5.6c-0.3-2.8-3.8-7.4-5.1-9.9
		c-0.9-1.7-2.6-5.3-3.6-7c-1.3-2.5-4-7.4-4.8-10c-0.7-2.2-1.6-6.7-1.6-9"/>
	<path class="st0" d="M36.4,291.8c0,3.9,3.6,11.6,6.4,14.2c1.2,1.2,4.4,2.5,6,3.2c1.1,0.5,3.5,1.9,4.7,1.7c1.4-0.2,3.8-2,4.6-3.2
		c2.5-3.6,3.1-12.7,4.1-16.9c1-4.2,2.9-12.7,4.3-16.8c0.8-2.4,3.1-7,3.8-9.5c0.4-1.2,0.9-3.8,1.2-5c0.7-3.7,1.3-11.3,2.4-15
		c1-3.7,2.1-13,5.8-14.1c1.6-0.5,3.9,4,5.6,3.7c2.3-0.4,4.4-5.6,5.6-7.6c0.9-1.6,2.5-5,3-6.7c0.4-1.3,0.7-4.1,0.8-5.5
		c0.1-1.6,0.5-5-0.4-6.4c-0.6-1.1-2.9-2.8-4.2-2.6c-1.2,0.2-2.7,2.2-3.3,3.2c-1,1.6-2.2,5.4-2.3,7.4c-0.4,7,2.1,21.3,5,27.8
		c1.1,2.5,4.1,7.6,6.6,8.5c3.8,1.2,6.7-1.7,10.1-3.8c3.9-2.4,4.6-17,9.2-16.8c2.2,0.1,2.1,10.9,3.1,12.9c3.4,6.5-10.7,22.4-9.4,29.7
		c1,5.2-3.5,11.7-3.4,17c0.1,7.3,8.7,14.5,8.7,19.9"/>
	<path class="st0" d="M113.3,479.1c0-2.7-5.1-6.4-7.2-8.2c-1.7-1.5-6.5-2.8-7.7-4.7c-2-3,0.1-11.5-2.1-14.4
		c-2.1-2.7-10.5-2.8-12.7-5.5c-7.6-9.6-10.4-35.9-8.9-48c0.4-3.4,4.6-9.1,5.8-12.3c1.1-3,5.2-9.9,3.1-12.2c-1.6-1.7-6.9,1.2-9.1,1.6
		c-3.1,0.7-9.2,2.6-12.3,3.1c-3.7,0.7-11.5,0.1-14.9,1.6c-1,0.4-2.4,2.3-3.3,2.8c-1.7,0.9-7.1,0.5-7.3,2.4c-0.5,5,12.9,7.9,17.5,10
		c3.6,1.6,11.8,2.8,15.1,5.1c4.2,2.9,9.6,11.9,12.9,15.8c1.9,2.3,5.4,7.2,7.6,9.3c2,2,6.6,5.3,8.9,6.9c2.9,2.1,9.1,5.7,11.8,8.1
		c2.3,2.1,10.3,7.3,8.1,9.5c-3.8,3.8-11.6-15.9-16.5-13.7c-3,1.4-1.4,10.1-0.4,13.3c0.6,1.9,3,5.2,4.6,6.2c1,0.6,3.5,1.3,4.6,0.9
		c1.5-0.5,3.7-3.4,4.2-4.9c0.3-1,0.1-3.4-0.6-4.3c-0.8-1.1-3.5-2-4.7-2.4c-2.2-0.6-9.1,1.6-9.1-0.6"/>
	<path class="st0" d="M70,585.7c0-2.2-4.2-5-5.2-6.9c-0.6-1.3-1-4.3-1.6-5.6c-1.8-4.2-9.1-11.4-9.1-16 M57.8,553
		c0-1,2.1-2.1,2.6-2.8c0.8-1,2.1-3.1,2.6-4.2c0.3-0.8,1.1-2.5,0.8-3.3c-0.1-0.4-1-1.2-1.4-1.2c-1.1-0.1-2.9,1.4-3.8,2.1
		c-0.8,0.7-2.1,2.3-2.6,3.2c-0.5,0.8-1.2,2.7-1.4,3.6c-0.2,1-0.1,3.2,0.2,4.2c0.1,0.6,0.6,1.8,1,2.3c1,1.4,3.8,3.7,5.3,4.6
		c0.8,0.5,2.7,1.1,3.7,1.4c0.6,0.2,1.9,0.2,2.5,0.5c1.1,0.5,3.1,2.2,4.1,2.9c0.8,0.5,2.5,1.4,3.1,2.1c0.5,0.5,1.1,1.9,1.5,2.5
		c0.4,0.7,0.9,2.1,1.3,2.8c0.8,1.4,2.3,4.4,3.4,5.6c1.3,1.4,4.9,3,6.4,4.1c1,0.7,3.2,1.9,3.8,2.8c0.7,1,0.5,3.7,1.2,4.7
		c1.1,1.7,4.9,3.4,6.2,4.9c1,1.2,2.8,3.8,2.9,5.3c0.1,1.1-1.3,3.2-1.2,4.3c0,0.8,1,2.1,1.1,2.8c0.3,1.5,0.1,4.7-0.1,6.3
		c-0.2,1.1-0.9,3.1-1.2,4.1c-0.3,1-0.8,3.1-0.9,4.1c-0.2,1.3,0.1,4-0.2,5.3c-0.3,1.1-1.3,3.2-2,4.1c-0.8,1-2.8,2.9-4,3.5
		c-1.7,0.9-5.6,2.6-7.4,1.9c-0.4-0.2-0.4-1.3-0.8-1.5c-0.6-0.2-1.9,0.3-2.3,0.8c-0.4,0.5-0.1,1.9-0.2,2.5c0,0.5-0.2,1.4-0.2,1.9
		c0,0.7,0.3,2.2,0.5,2.9c0.2,0.8,1.2,2.4,1.2,3.2"/>
	<path class="st0" d="M76.5,817.2c0-0.9,0.3-2.9-0.1-3.8c-0.3-0.6-1.3-1.3-1.8-1.6c-0.7-0.4-2.8-0.5-2.9-1.3
		c-0.1-0.6,1.7-0.9,2.1-1.4c0.5-0.5,1.1-1.9,1.3-2.6c0.4-1,0.3-3.2,1-4.1c2-2.6,9-4,11.4-6.2c0.3-0.3,0.9-0.9,0.8-1.3
		c-0.7-2.8-9.7-2.9-9.8-5.8c-0.1-2.6,6.8-3.8,8.6-5.6c0.4-0.3,1.2-1.1,1.2-1.6c0-0.7-1.6-1.5-1.8-2.2c0-0.2,0.3-0.7,0.2-0.9
		c-0.5-1.1-3.1-2.9-4-2.2c-0.3,0.2-0.2,1.4,0.2,1.5c3.6,0.5,5.4-9.6,6.2-13.2c0.4-1.7,1.5-6.2,0-7c-2.4-1.3-6.5,5.8-9.3,5.8
		c-2-0.1-5.5-2.9-6.7-4.6c-2-2.9-3.5-10.3-3-13.8c0.7-4.2,4.6-13.3,8.6-14.8c1.7-0.6,5.3,1.5,6.9,2.4c0.6,0.3,2.2,1,2.1,1.7
		c-0.5,2.8-10.3,0.9-10.8,3.7c0,0.2,0.4,0.5,0.5,0.4c0.4-0.3-0.4-1.7-0.9-2c-0.6-0.4-2.3,0.5-2.7-0.1c-0.3-0.4,0.2-1.4,0.3-1.9
		c0.2-1.8,1.2-5.6,0.4-7.2c-0.9-1.8-4.9-3.6-6.6-4.7c-1.4-0.9-4.9-1.9-5.8-3.3c-0.7-0.9-1.5-3.4-0.9-4.4c0.5-0.9,3.1-1.5,4-0.9
		c0.2,0.1,0,0.8,0.1,1c1.1,1,4.5,0.2,6,0.5c0.8,0.2,2.3,0.8,3.1,1c1.7,0.2,5.2,0,6.9-0.1c1,0,3-0.2,4.1-0.3c1-0.1,3-0.2,3.9-0.5
		c0.9-0.3,2.6-1.2,3.3-1.9c0.6-0.5,1.9-1.7,1.9-2.5"/>
	<path class="st0" d="M72.6,985.4c0-4.2-0.1-12.8,1.5-16.7c1.2-3,6.6-7.3,8.2-10.1c4.2-7.5,8.7-24.9,12.7-32
		c4.2-7.5,20.1-16.3,20.1-25.9c0-7.2-16-12.7-14.7-19.6c0.2-1.3,2.6-1.3,3.5-1.4c2.6-0.1,8.1,0.9,10.2,3.1c0.8,0.8,1.3,3.7,1.7,4.9
		c1,2.5,3.8,6.8,4.2,9.6c0.5,3.6,0,11.6-1.8,14.3c-1,1.5-4.1,2-5.5,1.8c-2.4-0.3-6.6-3.7-8.7-5.3c-1.1-0.9-3.3-3-4.4-3.9
		c-2.5-2.2-7.5-6.7-10-8.8c-3.1-2.6-8.9-8.8-12.3-10.4c-4.3-2-14.1-5.5-18-2.3c-0.9,0.7-2,3.9-1.8,5.3c0.5,4,7.5,7.5,8.3,11.4
		c0.5,2.4,0.1,8.2-1.3,9.7c-3.8,4.2-14.6,1-19.2-0.9c-2.8-1.2-9.1-4.8-10-8.8c-0.9-4.1,5-11.3,5-15.6"/>
	<path class="st0" d="M57.8,1093.7c0-1.6,5.8-1,5.9-2.6c0-0.8-2.1-2.1-2.8-1.6c-0.8,0.6,0.7,3,1.1,4c0.2,0.4,0.5,1.4,0.9,1.7
		c2,1,6.9-0.6,8.9-1.5c2.2-0.9,5.6-4.7,7.8-5.6c1.4-0.6,4.7-0.5,6.1-1.1c2-1,4.7-5.1,6.8-6c2.5-1.1,9.1-2.9,10.8-0.8
		c0.2,0.3-0.1,1.2-0.4,1.5c-3.1,2.4-11.8,0.4-15.6-0.2c-2-0.3-6.3-0.9-7.9-2.2c-1.2-0.9-2.8-3.7-3-5.2c-0.1-0.6,0.4-1.9,0.5-2.6
		c0.5-5.1-0.6-15.6,0.2-20.6c0.1-0.7,0.2-2.5,0.9-2.8c2.9-1.2,8.4,4.3,11.3,5.5c2.4,1,7.3,2.9,9.8,3.5c1.7,0.4,6.2-0.7,7.1,0.8
		c0.7,1.1-1.3,3.8-2,4.9c-1.4,2.2-5.1,6-7,7.7c-2.5,2.2-8.5,5.3-10.9,7.5c-2.4,2.2-7.2,7.1-8.2,10.2c-0.7,2.2,0.3,7,0.7,9.3
		c0.8,3.7,3.9,10.8,5,14.4c0.5,1.8,0.8,5.8,1.9,7.2c1.3,1.6,5.9,2.4,7.2,4.1c1.1,1.4,1.9,5.1,1.7,6.9c-0.4,3-3.9,8.3-5.7,10.8
		c-1.8,2.6-6.1,7.5-8.8,9.2c-1.5,0.9-4.9,1.6-6.6,2c-1.9,0.5-5.7,1.4-7.6,1.5c-1.6,0.1-5,0-6.5-0.4c-1.5-0.4-4.2-1.8-5.5-2.5
		c-1.2-0.7-4.7-1.7-4.6-3.1c0-0.5,1.7-0.5,1.8-1c0.1-0.3-1-0.9-0.8-1.1c0.2-0.2,0.5,0.5,0.7,0.5c0.4-0.1,0.7-1,1-1.4
		c1-1,3.4-2.7,4.4-3.7c1.7-1.7,6.1-4.9,6.1-7.2"/>
</g>
</svg>
