<?xml version="1.0" encoding="utf-8"?>
<!-- Generator: Adobe Illustrator 25.2.3, SVG Export Plug-In . SVG Version: 6.00 Build 0)  -->
<svg version="1.0" id="Layer_1" xmlns="http://www.w3.org/2000/svg" xmlns:xlink="http://www.w3.org/1999/xlink" x="0px" y="0px"
	 viewBox="0 0 841.9 1190.6" style="enable-background:new 0 0 841.9 1190.6;" xml:space="preserve">
<style type="text/css">
	.st0{fill:none;stroke:#221F1F;}
</style>
<g>
	<g>
		<g>
			<path class="st0" d="M126.2,224.6l-5.9,8.1c0,0-19.6-10.8-23.5-17.1c-1.7-2.7-2.2-9.8-2-13c0.7-6.6,5.1-19.3,8.6-24.7
				c1.7-2.7,6.1-8.1,9.1-9.3c6.1-2.2,19.8,2.4,26.4,2.2c3.9-0.2,15.2-4.7,15.2-4.7l-22.5-67.3l-9.1-3.2l-6.1,4.7L94.6,85.1
				l-15.4-4.4l21.8,3.4l34,0.7c0,0,18.1-7.8,23-12.2c2.2-2,8.1-6.6,6.9-9.1c-1.7-3.2-11.5-2.2-14.7-0.2c-4.7,2.9-10,19.8-10,19.8
				l36.2,4.7l-11.3-2l-9.3,1.2l4.7-1.5l-23.7,8.3l-60.2,58.3l-13-36.7"/>
		</g>
		<g>
			<path class="st0" d="M317,188.8c0,0,2.4-9.2,3.3-12c1.1-3.3,4.8-13.3,4.8-13.3s6.8-0.2,9-0.4c3.5-0.4,13.3-3.5,13.3-3.5
				s-9-38.9-10.9-52c-0.9-6.6-1.7-26.2-1.7-26.2s14.2-4.4,19-4.8c3.5-0.4,11.6,0.7,14.4-1.7c1.1-0.9,2.4-4.2,2-5.7
				c-0.7-2.8-5.9-7-8.5-7.4c-2.8-0.4-10.5,1.3-11.1,4.4c-0.7,3.1,6.8,6.6,9,9c2.8,3.1,8.7,9,10.9,12.5c2.4,3.9,6.3,12.2,7,16.8
				c0.9,6.6-2.4,19.7-4.2,26c-2,7-6.8,20.8-10.5,27.1c-3.9,6.3-13.8,18.1-19.2,23.2c-5.5,5-17.5,14.2-24.3,17.3
				c-13.3,6.3-63.4,14.9-63.4,14.9 M388.5,209.5c0,0-13.3-0.7-17.7,0.4c-1.5,0.4-4.4,2-5.9,2.8c-6.8,4.2-24.7,19.9-24.7,19.9
				s2.6-3.5,3.1-4.8c1.3-4.2,1.5-13.1,0.4-17.3c-1.3-5.2-7.2-14.9-10.9-18.8c-2.6-2.6-9.2-6.1-12.7-7.7c-2-0.9-6.1-2.2-8.3-2.4
				c-2.8-0.4-8.3,0-11.1,0c-1.3,0-5.7,0.2-5.7,0.2"/>
		</g>
		<g>
			<path class="st0" d="M584.1,142.9l4.7-6.5c0,0,7-14.9,4.7-19.2c-3.2-5.7-17.2-4.5-22.6-3c-8.7,2.2-30.4,22.2-30.4,22.2"/>
			<path class="st0" d="M504.5,232.7L484,224c0,0,29.4-6.7,37.3-13.7c5.7-5,16.2-19.7,16.4-28.4c0.5-11.2-16.9-28.1-17.2-39.3
				c0-3.5,6.7-11.9,6.7-11.9l19.2,7.7"/>
			<path class="st0" d="M467.9,80.9l1,19.2c0,0,8.2,0.5,11,0.5c3.5,0,10.5-1.5,13.9-1c4.7,0.7,14.2,4,18.2,7.2c1,0.7,3,4.7,3,4.7
				l8.7-10.5c0,0-3.5-17.4-5.7-22.6c-1-2.2-2.7-8-4.7-8c-3.5,0.2-6,10.5-6,14.4c-0.2,3.2,1.5,10.7,3.7,12.7
				c3.7,3.2,18.4,3.7,18.4,3.7s2-6.2,3-8c3.5-7.7,16.4-28.9,16.4-28.9l-8.5-3"/>
		</g>
		<g>
			<path class="st0" d="M749.8,161.3c0,4.9,12.6,8,15.3,11.8c4.5,6,10.3,17.3,10.3,28s-18.1,22.9-19.8,23.3c-8,2.3-24.7-3.5-32.2-7
				c-4.9-2.3-17.3-13.4-17.3-13.4s9.9-37.7,14.6-49.7c1.6-4.1,6-11.8,7.4-16.1c1.4-4.1,3.5-12.6,3.5-16.9
				c-0.2-4.1-1.7-12.6-4.3-15.9c-1.9-2.7-8-6.8-11.3-7c-2.3-0.2-7,1.9-8.3,3.9c-2.7,3.9-1.6,14.4-1.6,19c0,2.3-1.4,8.9,1,9.1
				c0.6,0,0.6-1.7,0.8-2.3c2.1-5.6,7.8-16.1,9.3-21.7c1.4-5.2-1.2-17.9,2.7-21.7c0.8-0.8,3.5,0,4.5-0.6c5.6-3.5,8.5-19.4,14.6-22.3
				c0.8-0.4,2.7-0.2,3.5,0.4c3.1,1.9,4.3,12.6,8,12.4c2.7-0.2,2.9-8.5,5.2-9.9c4.1-2.1,18.2-2.7,18.2,1.9 M708.7,224.9l-12,7.8
				l8.9-25.6l-0.2-4.7c0,0-4.7-13.2-8.2-16.1c-3.1-2.5-15.1-4.7-15.1-4.7l-3.7,9.1l-5,17.9l9.1-4.7"/>
		</g>
	</g>
	<g>
		<g>
			<path class="st0" d="M74.7,410.6l-9,19.2 M103.5,405.3l-5.5-25l-1.2-20.1c0,0,46.5,26.5,62.8,22.7c5.2-1.2,15.7-9.9,14.5-15.1
				c-0.6-2.9-8.1-4.7-11-4.4c-16,2.6-50,41.3-50,41.3 M143.6,531.5L127.3,521l12.8-2.9l11-19.8c0,0,8.1-24.4,4.4-31.7
				c-5.2-9.9-28.5-20.1-39.5-19.8c-7,0.3-17.7,12.2-24.4,14.2c-4.1,1.7-17.7,1.2-17.7,1.2l4.9-17.2l5.8,2.6l-5.2-24.1l9.9-17.7
				l25.9,28.8c0,0,3.2-0.6,3.5-1.5c5.2-11-13.1-47.4-13.1-47.4l-4.9-13.1"/>
		</g>
		<g>
			<path class="st0" d="M322.7,393.4c1.4-0.7,4.1-2.5,5.4-3.5c3-2.3,12.1-6.2,11.5-9.9c-0.8-5.2-14.2-9.5-19.4-8.4
				c-2.9,0.6-8.1,5.7-8.1,8.6c0.2,10.9,24.6,22.2,30.7,31.3c5.3,7.9,14.7,25.7,14.5,35.2c-0.2,13.6-24.9,36.1-22.6,49.5
				c2.2,12.2,34.9,35.3,34.9,35.3 M353.5,446.6c-3.6,3.8-15.1-5.1-20.3-6.2c-4.1-0.8-12.7-0.7-16.8-1.4c-9.5-1.6-31.1-2-37.2-9.3
				c-5.1-6.2-1.7-24-1.7-32 M387,360.3c0.8,2-5.7,3.2-7.5,4.4c-4.8,3.1-13.7,10.5-19,12.8c-10.3,4.7-33.2,7.8-43.9,11.2
				c-12.1,3.8-35,17.9-47.7,18.1c-3.1,0.1-11.5-1-11.5-4"/>
		</g>
		<path class="st0" d="M573.6,472.9c-1.7,2.1-5.7,6.7-8.6,7.2c-7.4,1.4-19.8-4.1-24.1-10.2c-4.5-6.4-6.9-23.1-2.6-29.8
			c1.4-2.1,7.6-6.7,9.5-5c2.4,2.1-2.1,10-4.8,11.9c-5.7,3.6-25-8.1-27.4-1.7c-1.7,4.1,11,7.2,12.9,11c3.1,6,2.6,26.7,2.6,26.7
			l-42-0.2c0,0,1.9,6.7,0.2,8.1c-1,0.7-4.5-1.2-4.5-1.2l-2.4,42 M579.3,522.2c0,0-15.7,0-21-0.7c-6.9-1-27.2-6.9-27.2-6.9
			s-5.7-68.9-1.2-91.3c1-4.5,5-12.6,7.2-16.4c2.1-3.8,7.4-10.5,10-13.8c2.6-3.3,10-9.1,10.7-13.3c0.5-2.6-1.2-7.9-2.9-10
			c-3.1-3.8-12.9-11-17.4-9.1c-2.6,1.2-1.4,8.3-3.1,10.5"/>
		<g>
			<polyline class="st0" points="713.8,515.5 721.2,525.2 726.4,530.6 734.9,525.6 			"/>
			<path class="st0" d="M703.6,471.1l13.9,60.4c0,0-5.4-64.3-1.2-85.3c0.7-3.4,4.8-9.9,5.7-13.3c0.9-3,0.8-9.5,1.7-12.6
				c0.5-1.8,2.2-5.4,3.3-7.1c2.5-3.8,10.2-9.9,12.3-13.9c1.7-3.2,3.2-13.7,3.2-13.7s-5.5-6.1-5.8-8.5c-0.4-4.4,1.7-16.5,7.1-16.8
				c4.4-0.3,8.5,9.4,7.7,12.8c-0.8,3.7-13.7,9.9-13.7,9.9s-16,12.7-19.8,17.7c-2.9,4-7.8,17.2-7.8,17.2l-12.8,28"/>
		</g>
	</g>
	<g>
		<g>
			<polyline class="st0" points="146.8,724.7 128.8,733.3 108.4,719.9 			"/>
			<path class="st0" d="M72.3,659.1l13.7,2.9l4.8,23l76.9,145.2l-27.9-55.2c0,0-4.6-13.9-4.3-18.5c0.5-7.5,7.2-21.7,10.5-28.7
				c2.1-4.3,10.2-16.3,10.2-16.3s10.5-13.9,9.1-19c-0.8-2.7-6.7-7.5-9.1-6.4c-4.3,1.9-1.9,19-1.9,19l3.8,37.2l6.4-21.4"/>
		</g>
		<g>
			<path class="st0" d="M264.7,663.7c0-2.1,5.2-4.3,7.3-4.6c2.1-0.3,6.4,1.2,7.9,2.7c2.1,2.4,4,9.8,3.4,13.1
				c-0.6,3-5.2,7.9-6.7,10.7c-3,5.8-14.6,18.6-10.7,23.8c1.8,2.7,10.1-0.6,12.8-1.8c9.1-4,24.7-16.8,30.5-24.7
				c1.8-2.1,6.1-8.2,4.3-10.7c-2.4-3-11.9,0.3-15.2,2.4c-3.7,2.4-9.1,11.3-8.5,15.5c0.3,1.5,2.4,3.4,3.7,4c8.2,3.7,27.4,4.3,36,1.2
				c1.5-0.6,4.3-2.4,4.3-4 M379.6,758.5c0,0-10.4,7-13.7,9.4c-2.1,1.8-7.9,7.3-7.9,7.3s-8.8-26.2-13.4-34.1
				c-2.1-3.7-7.6-9.8-11.3-11.6c-7.6-3.7-29.3,4.9-33.8-2.1c-2.4-3.4,1.2-16.8,5.5-15.8c12.5,2.7-6.4,37.8-4.9,50.3
				c0.6,5.2,3.4,16.2,6.4,20.4c2.7,3.7,11.9,7,14.6,11c1.2,1.8,3.7,6.7,2.4,8.8c-2.7,5.5-20.1,3-22.2,8.5c-1.8,4.3,2.7,15.2,7,17.4
				c9.1,4.9,41.1,0.6,41.1,0.6l1.5-15.5"/>
		</g>
		<g>
			<path class="st0" d="M577.8,747.7c0,0-8.4-6.5-9.3-9.5c-0.8-3.6,5-10.5,5-14.2c-0.1-3.3-5.3-12.6-5.3-12.6s-19.5,0.3-25-2.2
				c-3.2-1.5-7.7-6.8-9.1-9.7c-4.4-9.3-4-39.8-4-39.8l13.1-0.6c0,0-25.3,29.6-23.2,40.8c0.4,2.2,5,5.4,7.3,6.5
				c10.1,4.7,45,7.6,45,7.6l-1.7,0.8l-31,29.7l-4,14l4.7,10.4 M536.2,732.2l5-1.2l-0.4,1.9l6.4-7.5l-10.9,18.3l5.4,29.2
				c0,0-6.6,17.8-7.3,23.9c-1,8.3,2.6,33.5,2.6,33.5l14.2-1.8L541,755.2c0,0-10-16-16.3-17.4c-5.5-1.1-21.3,8-21.3,8l-16.9-2.8H484
				c0,0,21.6,15.4,30.4,17.3c3,0.7,12.6-0.8,12.6-0.8L513.8,748"/>
		</g>
		<g>
			<path class="st0" d="M715.4,659.1l10.1,6.9c0,0-8.7,6.3-12.1,7.6c-2.7,0.9-8.6,0.1-11.1,1.2c-2.4,1.1-7.8,4.2-8.3,6.9
				c-0.2,1.1,2,3,2.2,4.1c0.4,2.6-1.9,7.6-1.7,10.1c0.3,3.3,3.2,9.7,5,12.6c1.4,2.2,6.6,5.1,7.2,7.7c0.8,2.7-3,8-2.3,10.7
				c0.9,3.2,10,6.6,8.9,9.7c-0.8,2.3-8.1,3.6-9.9,1.7c-1.8-1.9,2.2-7.3,2.2-9.9 M704.8,816.2l13.9-8.8l-7.9-13.4l7.4-28.7l2.8-2.6
				c0,0-7.7-4.8-10.3-4.2c-2.2,0.4-4.9,4.6-6.2,6.3c-1.6,1.9-3.3,6.7-5.2,8.3c-1.7,1.6-8,4.2-8,4.2s2.1-6.8,3.3-8.8
				c1-1.8,4.4-4.3,5.4-6.1c1.4-2.7,1.3-9.3,3.3-11.6c1.7-1.9,9.2-3.8,9.2-3.8l0.2-0.3c0,0,1.1,6.9,2.9,8c0.8,0.4,2.8-1,3.6-0.6
				c2.1,1.2,3.3,9.3,3.3,9.3s6.2,3,8.1,4.2c1.9,1.3,7,6,7,6s1.8,10.9,2.8,14.4c1.2,4.6,5.2,13.1,6.4,17.6c0.7,2.4,1.9,7.3,1.7,9.8
				c-0.1,1.4-1.8,5.7-1.8,5.7s2.2,3.4,3.2,4.3c1.7,1.6,7.7,4.7,7.7,4.7"/>
		</g>
	</g>
	<g>
		<path class="st0" d="M142.8,1127.9l16.3,1.2l13.7-5.9c0,0,7.3-2.5,8.1-5.1c1.5-3.9-1.7-13.2-3.4-17c-1.4-3.1-7.1-7.1-8-10.3
			c-2.2-7.8,2.4-31.9,2.4-31.9l-1.9-16.5l-21.7,1.4l-2.7-14.9c0,0-8.8-26.3-3.9-32.1c4.6-5.4,21.2,9.2,26,3.9
			c2.5-2.7,1.2-12.6-0.7-16.1c-1.7-3.4-8.7-6.8-11.9-8.5c-3.9-2-12-5.3-16.3-5.9c-4.1-0.7-16.5,0.3-16.5,0.3l-5.6-5.1l5.8,5.8
			c0,0,9.7-6.6,8.7-10c-0.8-2.9-8-3.4-10.7-3.2c-1.9,0-5.9,1.5-7.8,2.2c-2,0.8-6.3,3.6-6.6,5.9c-0.3,1.7,2.7,5.9,2.7,5.9l4.6,2.4
			l-8.8,6.1c0,0-20.9,37-15.3,48c2,4.2,16.3,3.1,16.3,3.1l-8,18l-10,14.1l-4.9,10l-13.2-9.7l-10.9-0.2"/>
		<g>
			<path class="st0" d="M318.7,1129.1c-0.3-19-0.3-38.2-0.3-57.1"/>
			<path class="st0" d="M299.1,1019.4c0-4.3-0.1-13,1-17.1c1-3.9,3.9-11.6,6.6-14.5c3.3-3.3,17-8,17-8l-4.9-11.2l-3.9-10.7
				c0,0-4.8,6.6-6.9,8.5c-1.5,1.4-4.9,3.4-6.7,4.5c-1.8,1.1-6.3,1.9-7.7,3.4c-3,3.2-5.7,12.3-5.6,16.7c0,5,4.8,14.2,6.4,19
				c2.8,8.7,3.6,29.3,10.8,34.8c5.5,4.2,23.3,6.4,27.5,0.9c1-1.3-2.9-4.8-1.9-6.2c1.9-2.8,10.4-1.9,13.7-1c1.2,0.3,3.1,2.1,4,3.1
				c3.6,4,6.9,19.8,11.8,17.8c1.5-0.6-2.7-5.5-1.2-6.1c0.2-0.1,0.7,0.6,0.7,0.9c-1.2,5.6-15.2,7.8-20.5,10.1
				c-5.1,2.2-15.4,8.7-20.9,7.8c-6-1-13.2-14.5-19.3-15c-3.6-0.3-12.1,3.2-12.8,6.7c-0.5,2.4,3.5,8.1,5.8,7.5
				c4.7-1.4,3.3-14.9,1.5-19.4c-1.3-3.1-10.3-5.5-10.2-8.9c0.2-12,33.3-18.2,38.8-29.1c1.9-3.9-0.7-13.1-0.2-17.3
				c0.4-2.9,4.7-10.7,4.7-10.7s4.5-7.1,6.7-8.7c4.5-3.2,21.1-6.7,21.1-6.7"/>
		</g>
		<path class="st0" d="M474.4,957.8l0.4,11c0,0,20.3,22.9,27.5,29.6c12.6,11.7,53.2,15.2,52.2,40.9c-0.2,5-9.3,1.3-10.6,5.6
			c-3.5,11.3,8.4,37.7,7.1,50.6c-0.7,6.7-5.9,18-8.9,22.1c-4.1,5.4-14.5,12.8-19.5,11.3c-4.1-1.1-10.2-12.6-13.6-16.9 M566.8,1078.3
			c3.3-0.2,17.7,4.3,20.8,4.5c1.5,0,5.6,0.9,5.9-1.7c1.1-5.4-5.8-14.1-8.4-17.7c-3.3-4.5-11-10.8-15.1-12.6
			c-7.3-3.3-22.7-2-30.1-3.9c-5.6-1.3-16.4-6.7-21.9-8c-3.9-0.9-11.7-3.3-15.4-1.7c-2.2,0.9-7.1,4.6-8.2,8.6c-0.2,0.9,0,3.2,0.4,3.9
			c1.5,2.4,6.1,1.5,8,0.6c5-2.2,13-14.7,17.7-19.1c8.2-8,25.7-20.3,33.8-28.6c3.9-4.1,10-16.9,14.5-18.4c3.5-1.1,11.3,2.6,14.1,6.7
			c1.5,2.2,4.1,8.9,3.5,12.3c-0.7,4.8-9.5,6.1-9.5,11.2 M468.2,981.3l17.3-13.4"/>
		<g>
			<path class="st0" d="M752.3,985.1c0,0,4.7-10.5,6-14.2c1.1-3.2,3.9-9.6,3.9-13 M726.8,998.6l-15.9,15.8l12,11.5l17.9,18.8
				l11.2,25.5l4.2,18.1 M666.6,1122l-1-1.1l5.4-11.5l6-3.6l2-20.1l-0.4-7.9c0,0-1.1-15.9,0.9-20.7c1.9-4.2,9.2-9.2,12.5-12
				c4.6-3.9,13.5-15.6,19.1-14.2c0.3,0.1,0.3,1.1,0.6,1.1c1.6,0.1,4.2-3.4,4.3-5.3c0.1-7.5-16.9-23.7-16.9-23.7 M665.6,978.5
				c0-4.7,11.2-6.9,15.3-7c1.7-0.1,4.7,2.2,6.5,2.2c2.3,0.1,6.6-2.4,8.7-2.2c2.2,0.3,8.2,3.9,8.2,3.9 M783.3,1119.6l-21.2,9.5v-32.4
				l-38.6-98.1c0,0-2-4-2.2-5.6c-0.3-2.3,1.4-8.2,3.4-8.3c2.2-0.1,4.9,5.6,4.7,8c-0.3,4.3-7.2,15.2-7.2,15.2"/>
		</g>
	</g>
</g>
</svg>
