<?xml version="1.0" encoding="utf-8" ?>
<svg baseProfile="full" height="109.70839365182002" version="1.1" width="177.0981943295639" xmlns="http://www.w3.org/2000/svg" xmlns:ev="http://www.w3.org/2001/xml-events" xmlns:xlink="http://www.w3.org/1999/xlink"><defs /><rect fill="white" height="109.70839365182002" width="177.0981943295639" x="0" y="0" /><path d="M152.0981943295639,47.423882838257924 m0.0,0.0 m-18.832787309119585,19.689975385828358 l-2.0497870860970435,2.085138229557932 -6.074644688095394,2.1514765971965697 l-6.437595209332708,-0.2507796835223557 -6.2521615460549,4.897787758435152 l-5.485214887743577,5.202904582386563 -3.120881894279873,3.5080079436798703 l-2.194146927376661,-2.486916168915141 -5.997104375577412,-5.920437557288621 l-9.531198653509046,-4.155665579410921 -1.8488072980076549,1.277321980809797 l2.915964919491476,-9.642698437379368 1.3579352169388883,-6.039169105759592 l-2.2216571156792084,-12.105028615549127 3.1661900277560373,-6.4431707913929515 l-8.544436802959742,-3.06376688954644 -10.717623027951836,2.0772829867805407 l-7.850757097306895,-0.7068222830188178 -8.292587056958304,-5.933097170983286 l0.8318855611622,-0.583927718866239 8.526776262693224,-5.9822983012998465 l5.81477891534236,0.21635159747617774 -0.3620498196527461,17.363589215753354 l4.474277783709802,4.713753909815983 10.908979080065443,-0.4308353974789486 l-4.982448157863172,-3.8257543079600054 -17.46509696817166,6.758393954991813 l-8.196034928905526,9.594161202985832 -9.601344769950465,-0.6829158840227367 l-13.166129449071535,3.060681147385481 -5.870487027058375,6.339110664395777 l0.6444702161895172,1.1931748424861421 " fill="none" stroke="black" stroke-width="1" /></svg>