<?xml version="1.0" encoding="utf-8" ?>
<svg baseProfile="full" height="372.6674305944176" version="1.1" width="323.3583365789427" xmlns="http://www.w3.org/2000/svg" xmlns:ev="http://www.w3.org/2001/xml-events" xmlns:xlink="http://www.w3.org/1999/xlink"><defs /><rect fill="white" height="372.6674305944176" width="323.3583365789427" x="0" y="0" /><path d="M46.12759024970491,291.3451441491105 m0.0,0.0 m-21.12759024970491,-47.809981941142084 m51.93724926386368,-58.861794501365104 l67.3368219459068,-18.521662838301218 31.03718384298387,-36.13388314248461 l11.392206952153279,-28.23601896884803 2.089031332451214,-13.442602696244572 l19.299688205913245,-27.51889992353349 18.559898538639956,-17.26043228130048 l0.4034291122296897,-18.516328094289037 -9.430462252161945,-0.043539761601919975 m-23.485285255762722,12.54575275477206 l-6.67411472393898,15.799315110856615 -5.686546035900993,26.494540798241523 l2.7255971694233896,24.882349288371213 12.880146563413541,30.400100707469772 l-0.14379965288511487,28.113682677027832 7.056448918831203,24.503221568492165 l3.2763633649810435,20.813310216367455 3.296074631926562,17.352059943253483 l3.104614999839629,14.682573740806975 6.106733861017536,11.00350774067278 l11.8508835745595,4.61656893649345 8.096060991412497,-0.2954004253729182 l11.933961515520831,-2.5842841864879196 3.1279878339795455,-5.560351017616571 l-1.6694221772156204,-17.067040120248265 2.924812315312753,3.7312338426330065 l2.4382476991492457,1.0253501922511814 3.164440418460829,2.682881798068003 l0.15690903430634498,2.1522428097137105 -4.563444582248736,6.846191592576421 m-24.483176222331355,14.974414221613616 l1.670109793622794,8.4104366708704 1.3618414972192283,8.241506365270249 l3.0707677515183085,4.545652673650761 7.942366049387862,1.1790386665100006 l12.52246491381949,-5.738374764445597 9.436232448112522,-6.539177158463283 l4.983259071947675,-5.638164243543265 7.198888881900177,-4.038389878557534 l4.3384288565125235,12.832069221127275 -0.1378042266408261,7.643596059679108 l-5.924612237041957,9.671390591276552 -6.167175172471184,7.227328368911606 l0.8695223600963922,3.336553892071959 3.0178267115705335,-2.2499692036905174 l6.645469913549028,3.1621522899167425 0.7718882489749723,0.3279531936279892 l-9.144315701530576,-7.715659752286855 -2.8253936541622804,3.3216429591483414 l-10.216741230927942,6.197677454062307 -4.502170773447176,6.601716219628913 l-1.3557252041873329,5.787659222241382 2.4726709185614,4.953702493895085 l3.0371387450979164,4.126708716580542 14.466880652488964,-0.2862481363735554 l11.534119890881387,-0.49660285495147893 9.768499018510846,3.1285929313672027 l0.4653578717492719,1.4578599727595827 -1.3282222620522202,2.0087596657899867 l-3.234553602026299,0.8321323990814864 -13.891020084284452,2.4868497670635423 l-6.91926418626738,1.4323787177662812 m-21.316856896698994,9.344435884476813 l7.433433736863255,-2.664597140305106 -1.7424131711057944,-3.6909011703484844 l-1.0064267452617874,-3.1152439869696673 -6.278341040190505,-5.114399081698387 l-9.095919203329569,-6.878424585258514 -2.845231191695703,-5.819612081084503 l-0.6451286625422937,-4.9241939124452685 4.449975152823746,-3.786957213665162 l3.958089526740997,-5.8074377058202336 11.188421351814775,-6.711652833313598 l14.701483820309218,-17.220740656538567 " fill="none" stroke="black" stroke-width="1" /></svg>