<?xml version="1.0" encoding="utf-8" ?><svg baseProfile="full" height="107.72935768479579" version="1.1" width="97.68105201374595" xmlns="http://www.w3.org/2000/svg" xmlns:ev="http://www.w3.org/2001/xml-events" xmlns:xlink="http://www.w3.org/1999/xlink"><defs /><rect fill="white" height="107.72935768479579" width="97.68105201374595" x="0" y="0" /><path d="M72.68105201374595,82.72935768479579 m0.0,0.0 m-16.428234657439646,-8.437114617662607 l-3.673727566071271,-4.236142195255928 -1.0187658729226186,-8.149130395785313 l1.1110106694546074,-5.281651561705239 -2.90572604692414,-3.122681775211391 l-7.606029019430928,0.5353351070605309 -6.682088627263184,-2.125253014201385 l-0.07177190401360482,-3.0880730787372173 2.8110227161570744,-3.5718318896617816 l7.5253121905581475,-5.997830500908304 -0.12435630969450526,-4.98870927908642 l-6.43314647954725,-5.607961755183246 -7.912992590068748,-3.658312728457488 l-4.352651560595572,2.646151309159268 -0.5907527144256804,7.054588210368068 l4.69494956888899,6.883671369333967 10.538607291084018,8.35313441901835 l12.889925840747287,2.199181491742532 11.099164675325248,-0.8883614182055274 l4.444879069409756,-0.9999108361025095 0.36052611050942013,0.7877415219032761 l-5.576591629841086,2.13452110763085 -8.23199790561205,2.456660059802689 l-8.929942770453598,1.2979091530342768 -8.124913702188064,2.4410679393751256 l-6.7754505340081534,1.7052997774183476 -4.910462468130873,2.991003616239417 l-2.8068477872495414,3.9847771884212406 1.634462154638589,3.0844787293312272 l5.6885869947746475,2.3955113277623568 5.51932069865616,0.9421300362343334 l6.10807499073319,-1.4766061545539804 " fill="none" stroke="black" stroke-width="1" /></svg>