<?xml version="1.0" encoding="utf-8" ?>
<svg baseProfile="full" height="121.3343760084286" version="1.1" width="163.4282025687242" xmlns="http://www.w3.org/2000/svg" xmlns:ev="http://www.w3.org/2001/xml-events" xmlns:xlink="http://www.w3.org/1999/xlink"><defs /><rect fill="white" height="121.3343760084286" width="163.4282025687242" x="0" y="0" /><path d="M46.69608824612813,64.19955962291185 m0.0,0.0 m-8.122662815117037,3.2063172766789587 l5.9667800838084,-12.01362331622057 -0.6922171388560048,-5.7039359598617665 l-2.929361134415012,1.5017990386322355 -0.3043623452734587,6.0018902100689875 l-0.19330280109778664,9.997233710942238 1.9201976940199277,8.604309934960236 l0.4274705966503048,7.904058413745629 m-15.826326766249062,-12.465114516395918 l-0.33517359563097304,-6.300249293171703 -1.5284411907105289,-7.974457399543067 l-0.07868883325689253,-9.1001830794786 m5.428042720729076,-10.423167099228138 l4.118144634842634,-2.9937336093683355 7.372405035439227,-0.21747082760748188 l7.155714045820631,1.535353638573001 7.559926855228749,1.1305816021842277 l3.037865607866539,1.8792985337785963 3.121626093020552,-1.0750055424446425 l10.698821854317844,-0.3826232541660801 2.5558432846263632,2.5628839981026155 l-2.627332147488442,5.7768523396599525 -5.816820184929599,5.882794082910999 l-5.97680320812475,2.963565160502527 0.7700697470935192,-0.9860514919153659 l10.100439868798007,0.3689422223369318 0.8762418136831174,-0.5014540904132248 l5.562913711082975,-5.379004583083522 1.5495051917301121,-5.134885879996038 l-3.010246214862854,-2.6657202073433695 2.3483823781949242,-2.536006390966153 l-3.8207543061197144,-12.662753244785007 -3.790756884509394,2.313786381028112 l-7.000698198602537,4.724461072426109 -0.17530819230603872,2.7264009438193697 l4.158797793022376,2.06213441630367 7.178256085822989,6.597818416804586 l1.2621025599940805,6.22903517499514 -1.563569878148947,2.735626632267856 l-3.7565678833519502,3.894516716270403 -9.238320904196293,-0.6258007470237009 l-5.358756842329038,-4.857925959006429 -0.03336394545867982,32.50624890437443 l-0.895034181863892,7.250638391899438 3.698851326022337,5.204839957502229 l10.87781003532387,0.5725957067673981 13.673544816963904,-0.22893588189222602 l10.047720659615846,-1.674188752610878 10.426973120502142,-2.648892558951189 l4.508334420526077,-2.0160169185035475 1.9445463953265874,-2.9067549583594037 l13.23236377619749,-18.53282289667155 m5.11864200746668,-5.33284983885201 l-3.6159748902873092,3.064451625303557 11.724624592044993,-5.898089943121351 " fill="none" stroke="black" stroke-width="1" /></svg>