<?xml version="1.0" encoding="utf-8" ?><svg baseProfile="full" height="78.9059393021412" version="1.1" width="122.83837615363302" xmlns="http://www.w3.org/2000/svg" xmlns:ev="http://www.w3.org/2001/xml-events" xmlns:xlink="http://www.w3.org/1999/xlink"><defs /><rect fill="white" height="78.9059393021412" width="122.83837615363302" x="0" y="0" /><path d="M88.41349877849933,38.18339386399413 m0.0,0.0 m6.06755596793598,-9.665366591274633 l3.35732140719771,0.36677858993416596 -5.15643284872895,10.930040593134972 l-2.917801643453118,3.4230902791026594 -1.9768657866880441,0.3296526799100781 l-6.541995194365504,2.47012221097195 -11.121402952854238,1.0758988986604445 l-6.670933443607973,1.9568148793139089 1.9982727481606728,4.835513898393537 l-6.533554118848498,-5.175986785924547 -3.674124263280727,-7.195872148050704 l0.02439768383020291,-5.521155984431246 1.0890870294258452,-4.480704566972049 l-5.721279681593618,-2.426748514404254 -6.734924367157016,-0.3374899534109522 l6.073450059582199,0.7185014934570927 -2.4021138823961343,10.46987313432361 l4.480088034692813,1.4895854315474881 9.632798836948709,-3.0046454436705865 l3.9414894373713865,-4.022545077052654 5.286272312387839,0.06307505052410171 l2.4314335990195435,-0.2673161784959112 -0.9969107324657173,0.3843495157081282 l-0.3303971207108618,6.881985845244102 1.0599133216724943,5.494529377639094 l-4.224886733205541,0.9489100364914989 -17.98938266788716,-1.0300688688458064 l-4.790197036498531,-2.1898270653370986 -3.2665203654592903,-4.072494441442712 l-5.7263667271563,-4.0198441582442594 -7.787602055146114,-5.079016853834403 l-4.291887595221398,-6.533033146959144 " fill="none" stroke="black" stroke-width="1" /></svg>