<?xml version="1.0" encoding="utf-8" ?>
<svg baseProfile="full" height="124.90277508593346" version="1.1" width="99.85298784806416" xmlns="http://www.w3.org/2000/svg" xmlns:ev="http://www.w3.org/2001/xml-events" xmlns:xlink="http://www.w3.org/1999/xlink"><defs /><rect fill="white" height="124.90277508593346" width="99.85298784806416" x="0" y="0" /><path d="M71.22989129552784,99.90277508593346 m0.0,0.0 m2.194330161606658,-21.435437534083253 l-3.851506364571743,-7.060900926475322 -1.0642419996830383,-3.9651284753987417 l-1.4863400645455205,-6.449359380530624 -9.217428624556932,-6.396405068252817 l-6.822638821089037,-6.778579017311768 -4.613084965982349,-2.2584470833275283 l-5.961118577840609,-2.5652880373260967 -0.5706587995339483,-5.3316094909333716 l1.672852551376794,-3.1676200400389245 6.60158728367684,-3.352233588597345 l3.3687951817503827,-0.8134574654362969 3.9010730739244437,-4.0603819823988685 l1.5032915723959899,0.03967979885732842 -5.4598661657188075,-1.3076067946798344 l-3.580333265426701,2.021992755057572 -2.0974896646262917,2.4833325312964276 l0.7483914812634774,0.859803710769417 1.7191893069250224,4.970707179224794 l-3.391500940332717,6.731000016735807 -4.754279990519584,8.266723708843644 l0.455963387552614,6.357719835581952 3.801372637302849,3.089225667288077 l10.707388428247398,-1.4517553596477484 8.343039022422317,-4.061961867611974 l8.729086750874169,-3.2949063775368646 2.7472239576446458,-0.5954374922741144 l-3.1073690417427855,-2.457994183520107 -7.217808816255326,-1.0314841746470353 l-7.62337161498534,-2.659340599156475 -9.307826289140639,-4.799928925548091 l-1.1583826685806946,-5.1646196689277195 -2.4744969517642663,0.07190239409574528 l-5.70429828907262,0.2908723621017295 -10.714167442097224,3.2212435266238395 l-2.5452667344252515,5.79976111612015 8.486449867179298,4.920354263374018 l9.771317675049445,2.3984417987988076 6.457425132513068,-0.11555688994092983 l8.515438951653657,0.7974852695073267 6.729950451935954,3.2450577136131242 l-0.133088575637427,-0.46542007265031216 " fill="none" stroke="black" stroke-width="1" /></svg>