<?xml version="1.0" encoding="utf-8"?>
<!-- Generator: Adobe Illustrator 24.0.0, SVG Export Plug-In . SVG Version: 6.00 Build 0)  -->
<svg version="1.1" id="main" xmlns="http://www.w3.org/2000/svg" xmlns:xlink="http://www.w3.org/1999/xlink" x="0px" y="0px"
	 viewBox="0 0 17 35" style="enable-background:new 0 0 17 35;" xml:space="preserve">
<style type="text/css">
	.st0{fill:none;stroke:#1D1D1B;stroke-linecap:round;stroke-linejoin:round;stroke-miterlimit:10;}
</style>
<path class="st0" d="M1.7,15.8c-0.2,0.7,0,1.5,0.6,2s1.3,0.7,2,0.7s1.4-0.2,2.1-0.5c0.2-0.1,0.4-0.2,0.5-0.3
	c0.2-0.2,0.7-1.3,0.7-1.6c0-0.4-0.1-0.7-0.4-1.1c-0.6-0.9-1.9-1.4-3-1.2C3.3,14,2,14.9,1.7,15.8z"/>
<path class="st0" d="M4.1,13.7c-0.7-1.1-1.2-2.3-1.6-3.6c-0.3-0.9-0.4-2-0.1-2.9c0.1-0.4,0.4-0.8,0.6-1.2c1.2-1.6,3.1-2.8,5.1-2.5
	c1.1,0.2,2.1,0.7,3.1,1.4c0.5,0.4,1.1,0.8,1.4,1.3"/>
<path class="st0" d="M4,18.6c-0.3,0.6-0.7,1.1-1,1.6c-1.4,2.7-0.1,6.1,1.6,8.5c0.2,0.3,1.5,1.5,2,1.7c2,0.9,4.2,1.3,6.3,1"/>
<path class="st0" d="M6.6,14.2c0.1-0.5,0.4-1,0.9-1.4s1-0.5,1.5-0.6c2.1-0.4,4.3,0.1,6,1.3"/>
<path class="st0" d="M6.4,18.4c0.2,1,0.8,2,1.5,2.7c0.8,0.8,1.9,1.3,3,1.6c1.1,0.3,2.2,0.4,3.4,0.5"/>
</svg>
