<?xml version="1.0" encoding="utf-8"?>
<!-- Generator: Adobe Illustrator 24.0.0, SVG Export Plug-In . SVG Version: 6.00 Build 0)  -->
<svg version="1.1" id="Layer_2" xmlns="http://www.w3.org/2000/svg" xmlns:xlink="http://www.w3.org/1999/xlink" x="0px" y="0px"
	 viewBox="0 0 17 35" style="enable-background:new 0 0 17 35;" xml:space="preserve">
<style type="text/css">
	.st0{fill:none;stroke:#1D1D1B;stroke-linecap:round;stroke-linejoin:round;stroke-miterlimit:10;}
</style>
<path class="st0" d="M13.5,1.1c-0.7-0.2-1.4-0.4-2-0.3C10.1,1,9,2,8.6,3.3s0.1,2.7,1,3.6c0.9,0.9,2.3,1.3,3.6,1
	c1.4-0.3,2.8-1.7,3-3.2C16.3,3,14.9,1.6,13.5,1.1z"/>
<path class="st0" d="M8.5,3.9c-1,0.1-2,0.3-3,0.7C4.5,5,3.5,5.7,2.9,6.7C2.5,7.5,2.3,8.5,2.2,9.4C2,10.7,1.9,12,1.8,13.3
	c-0.2,3.4-0.2,6.8-0.1,10.2s0.2,6.8,0.1,10.2"/>
<path class="st0" d="M15.5,34c0-0.8,0.1-1.7,0-2.5C15.4,30,15,28.5,14.3,27c-0.7-1.6-1.8-3.1-3.2-4.2c-1.2-1-2.6-1.8-4.1-2.3
	c-1.7-0.5-3.5-0.7-5.2-0.4c0.1,0,0.1,0,0.2,0"/>
<path class="st0" d="M15.7,12.5c-1.8,0.1-3.5,0.1-5.3,0c-1.1-0.1-2.2-0.2-3.2-0.7c-1.8-0.8-3-2.5-4.8-3.3c0.2,0.1,0.3,0.2,0.5,0.3"
	/>
<path class="st0" d="M16.1,16.6c-1.5-0.2-3.1-0.2-4.6-0.2c-1.9,0-3.7-0.2-5.4-0.8c-1.4-0.5-2.6-1.4-4-1.7c0.2,0.1,0.4,0.2,0.6,0.2"
	/>
</svg>
