<?xml version="1.0" encoding="utf-8"?>
<!-- Generator: Adobe Illustrator 24.0.0, SVG Export Plug-In . SVG Version: 6.00 Build 0)  -->
<svg version="1.1" id="Layer_2" xmlns="http://www.w3.org/2000/svg" xmlns:xlink="http://www.w3.org/1999/xlink" x="0px" y="0px"
	 viewBox="0 0 17 35" style="enable-background:new 0 0 17 35;" xml:space="preserve">
<style type="text/css">
	.st0{fill:none;stroke:#1D1D1B;stroke-linecap:round;stroke-linejoin:round;stroke-miterlimit:10;}
</style>
<path class="st0" d="M1.8,19c0.7,0.7,1.8,0.7,2.7,0.6c0.5-0.1,1.1-0.2,1.6-0.5c1.1-0.6,1.6-2,1.4-3.2c-0.1-0.9-0.6-1.8-1.3-2.2
	c-0.5-0.3-1-0.4-1.6-0.4c-1,0-2,0.2-2.8,0.8c-0.7,0.6-1.1,1.5-0.9,2.5C1.1,17.3,1.3,18.4,1.8,19z"/>
<path class="st0" d="M2.1,9.9c1.4-0.4,2.9-0.4,4.4,0C7,10,7.6,10.3,8.2,10.6c0.8,0.6,1.4,1.5,1.8,2.5s0.4,2,0.5,3
	c0.1,1.7,0.1,3.5-1.1,4.7c-0.6,0.7-1.7,1.4-2.5,1.8c-1.5,0.6-3,0.9-4.6,1"/>
<path class="st0" d="M1.6,2.1c1,0,2.1,0,3.1,0c0.9,0,3.7,0.5,4.4,1c2.1,1.5,2.5,2.1,3.3,4.1c0.2,0.7,0.7,3.1,0.9,3.8
	c0.6,3.9,0.8,6.2,0.2,10.1c-0.3,1.8-0.8,3.6-1.6,5.2c-1,1.9-2.4,3.6-4.2,4.7c-0.9,0.5-1.9,1-2.8,1.4c-0.9,0.4-1.7,0.7-2.6,1.1"/>
<path class="st0" d="M7.6,16.1c0.7-0.1,1.3-0.1,2-0.2c0.7-0.1,1.3-0.1,2-0.2c1-0.1,1.9-0.2,2.9-0.3c0.4,0,0.9-0.1,1.3-0.1"/>
</svg>
