<?xml version="1.0" encoding="utf-8"?>
<!-- Generator: Adobe Illustrator 24.0.0, SVG Export Plug-In . SVG Version: 6.00 Build 0)  -->
<svg version="1.1" id="Layer_2" xmlns="http://www.w3.org/2000/svg" xmlns:xlink="http://www.w3.org/1999/xlink" x="0px" y="0px"
	 viewBox="0 0 17 35" style="enable-background:new 0 0 17 35;" xml:space="preserve">
<style type="text/css">
	.st0{fill:none;stroke:#1D1D1B;stroke-linecap:round;stroke-linejoin:round;stroke-miterlimit:10;}
</style>
<path class="st0" d="M7,2.1c-0.8,0.1-1.6,0.4-2.1,1c-1,0.9-1,2.5-0.4,3.7S6.3,8.7,7.6,9c1.2,0.3,2.6,0.3,3.7-0.5
	C12.2,8,12.7,7,12.7,5.9c0-0.8-0.2-1.5-0.6-2c-0.5-0.7-1.2-1.2-2.1-1.5C9.1,2,8,1.9,7,2.1z"/>
<path class="st0" d="M8.9,9.2c0,0.7,0,1.4-0.1,2.3c-0.1,0.9-0.1,1.8-0.1,2.7c0,1-0.1,1.9-0.1,2.7c-0.1,1.9-0.1,3.3-0.2,3.4
	c0,0.1-0.8,1.4-1.9,3.3c-0.5,0.8-1,1.6-1.5,2.6c-0.7,1.3-1.5,2.7-2.1,4c-0.7,1.3-1.2,2.6-1.6,3.6"/>
<path class="st0" d="M8.5,20.3c0.6,0.8,1.2,1.7,1.7,2.6c0.7,1.1,1.3,2.2,1.8,3.4c0.5,0.9,0.9,1.8,1.3,2.8c0.4,0.8,0.8,1.7,1.2,2.5
	c0.4,0.8,0.7,1.5,1.1,2.3"/>
<path class="st0" d="M1,19.8c0.8-1,1.6-2,2.4-2.9c0.9-0.9,1.8-1.9,2.7-2.8c0.9-0.8,1.8-1.7,2.6-2.5"/>
<path class="st0" d="M9,11.9c0.7,0.5,1.1,1.1,1.6,1.7c0.7,0.9,1.3,1.8,2,2.7c0.6,0.9,1.3,1.9,1.9,2.8c0.4,0.6,0.7,1.2,1.1,1.8"/>
</svg>
