<?xml version="1.0" encoding="utf-8"?>
<!-- Generator: Adobe Illustrator 24.0.0, SVG Export Plug-In . SVG Version: 6.00 Build 0)  -->
<svg version="1.1" id="Layer_2" xmlns="http://www.w3.org/2000/svg" xmlns:xlink="http://www.w3.org/1999/xlink" x="0px" y="0px"
	 viewBox="0 0 17 35" style="enable-background:new 0 0 17 35;" xml:space="preserve">
<style type="text/css">
	.st0{fill:none;stroke:#1D1D1B;stroke-linecap:round;stroke-linejoin:round;stroke-miterlimit:10;}
</style>
<path class="st0" d="M10.2,11.1C9.7,11.4,9.3,12,9,12.5c-0.2,0.4-0.4,1.7-0.3,2c0.2,0.7,0.3,1.4,0.7,1.9c0.8,1.2,2.5,1.4,3.9,1.2
	c0.4-0.1,0.8-0.2,1.2-0.4c0.7-0.4,1.2-1,1.5-1.8c0.3-0.7,0.4-1.4,0.3-2c0-0.7-0.5-1.3-1.1-1.7c-0.6-0.4-1.4-0.7-2-0.9
	C12.2,10.5,11.1,10.5,10.2,11.1z"/>
<path class="st0" d="M9.9,17.1C9,18,8.1,18.9,7.2,19.8c-1.4,1.4-2.7,2.9-3.6,4.5C2.5,26,1.9,28,2,29.9c0,0.4,0.1,0.8,0.2,1.2
	c0.3,0.7,1,1.1,1.7,1.4c2.3,1,4.9,1.1,7.4,1.2c1,0,1.9,0.1,2.9,0.1"/>
<path class="st0" d="M1.5,1.7C3.4,1.8,5.2,1.9,7.1,2c0.4,0,0.8,0,1.2,0.1c0.8,0.2,1.6,0.7,2.2,1.4c0.8,1,1,2.3,1.2,3.5
	c0.2,1.2,0.3,2.4,0.4,3.6"/>
<path class="st0" d="M12.3,17.7c-0.1,1-0.1,2.1-0.2,3.1c-0.1,1-0.1,2.1-0.5,3.1s-1,1.9-2,2.3c-1,0.4-2.2,0.1-3.1-0.6
	c-0.9-0.7-1.4-1.7-1.7-2.8c-0.3-1.1-0.4-2.2-0.5-3.3C4.1,15.9,4.1,12.2,4,8.5c0-0.7,0-1.4-0.1-2.1"/>
<path class="st0" d="M6.4,33.1C6.8,32.3,7.2,31.5,8,31c0.7-0.5,1.6-0.5,2.4-0.6c1.3-0.1,2.7,0,4,0"/>
</svg>
