<?xml version="1.0" encoding="utf-8"?>
<!-- Generator: Adobe Illustrator 24.0.0, SVG Export Plug-In . SVG Version: 6.00 Build 0)  -->
<svg version="1.1" id="Layer_2" xmlns="http://www.w3.org/2000/svg" xmlns:xlink="http://www.w3.org/1999/xlink" x="0px" y="0px"
	 viewBox="0 0 17 35" style="enable-background:new 0 0 17 35;" xml:space="preserve">
<style type="text/css">
	.st0{fill:none;stroke:#1D1D1B;stroke-linecap:round;stroke-linejoin:round;stroke-miterlimit:10;}
</style>
<path class="st0" d="M3.9,8c0,0.4,0,0.8,0.2,1.1C4.3,9.5,4.5,9.7,4.7,10c1.1,1,2.6,1.3,4.1,1.1c0.4,0,0.9-0.1,1.3-0.3
	c1-0.5,1.6-1.7,1.7-2.9c0-0.5,0-1-0.2-1.4C11.4,6.2,11.2,6,11,5.8c-0.8-0.7-1.8-1.1-2.9-1.2C7.1,4.6,6,4.8,5.2,5.4
	C4.5,6,3.9,6.9,3.9,8z"/>
<path class="st0" d="M8.3,11.2c0,0.5,0,1,0,1.5c0,0.5,0,1,0,1.5c0,0.8,0,1.5,0.1,2.3c0,0.7,0,1.5,0.1,2.2c0,0.7,0,1.3,0.1,2
	c0,0.8,0,1.5,0.1,2.3"/>
<path class="st0" d="M2.9,33.1c-0.1-1.5-0.2-3.1-0.2-4.6c0-1.3,0.1-2.6,0.2-4C3,23.8,3.1,23,3.4,22.3c0.4-1.1,1.3-2,2.3-2.7
	c0.8-0.5,1.6-0.9,2.5-1.1c0.6-0.2,1.3-0.3,1.9-0.2c1.1,0.2,2,1.1,2.5,2.1s0.6,2.2,0.8,3.3c0.1,1,0.3,1.9,0.4,2.9
	c0.2,1.2,0.3,2.5,0.5,3.7c0.1,1,0.3,2.1,0.4,3.1"/>
<path class="st0" d="M2.6,14.5c0.9,0,1.8,0,2.6,0c0.8,0,1.6,0,2.4-0.1c0.9,0,1.9-0.1,2.8-0.2c0.8-0.1,1.6-0.1,2.3-0.2
	c0.7-0.1,1.4-0.2,2.1-0.3"/>
</svg>
