<?xml version="1.0" encoding="utf-8"?>
<!-- Generator: Adobe Illustrator 24.0.0, SVG Export Plug-In . SVG Version: 6.00 Build 0)  -->
<svg version="1.1" id="Layer_2" xmlns="http://www.w3.org/2000/svg" xmlns:xlink="http://www.w3.org/1999/xlink" x="0px" y="0px"
	 viewBox="0 0 17 35" style="enable-background:new 0 0 17 35;" xml:space="preserve">
<style type="text/css">
	.st0{fill:none;stroke:#1D1D1B;stroke-linecap:round;stroke-linejoin:round;stroke-miterlimit:10;}
</style>
<path class="st0" d="M7.3,26.4c-1.1-0.1-2.2-0.1-3.2,0.3c-1.1,0.5-2,1.5-2.2,2.7s0.2,2.5,1.2,3.3c0.3,0.3,0.7,0.5,1.2,0.6
	c1.3,0.5,2.7,0.5,3.9,0c1.2-0.6,2.1-1.9,2.1-3.2c0-0.8-0.4-1.7-0.9-2.4C8.8,27,8.1,26.5,7.3,26.4z"/>
<path class="st0" d="M6.1,26.1c-0.1-1.3-0.1-2.6,0-3.9c0.1-1.3,0.2-2.6,0.3-3.9c0.1-1.3,0.3-2.5,0.6-3.7c0.2-0.7,0.5-1.4,0.8-2.1
	c0.5-1,1-2,1.5-3c0.6-1,1.3-2,2-3c0.7-0.9,1.4-1.8,2.2-2.7c0.7-0.8,1.5-1.6,2.2-2.4"/>
<path class="st0" d="M6.6,1.7C6,2.4,5.5,3,5,3.7c-0.7,1-1.2,2-1.7,3.1C2.9,7.8,2.6,9,2.9,10.2c0.4,1.3,1.7,2.1,3,2.6
	c1.3,0.4,2.7,0.6,4,1.1c0.9,0.4,1.8,1,2.4,1.8c0.5,0.6,0.9,1.4,1.2,2.2c0.3,0.8,0.5,1.7,0.5,2.6c0.2,1.7,0,3.4-0.1,5.2
	c-0.1,1.5-0.1,3-0.1,4.4c0,1.2,0.1,2.3,0.2,3.5"/>
<path class="st0" d="M2.4,16.3c-0.1,0.6-0.2,1.2-0.3,1.8c-0.1,0.8-0.1,1.5,0.1,2.2C2.6,21.6,3.6,22.9,5,23c0.5,0.1,1-0.1,1.5-0.2
	c0.6-0.2,1.1-0.5,1.7-0.8c0.4-0.3,0.8-0.6,1.1-0.9c0.8-0.8,1.5-1.7,2.1-2.6"/>
</svg>
