<?xml version="1.0" encoding="utf-8"?>
<!-- Generator: Adobe Illustrator 24.0.0, SVG Export Plug-In . SVG Version: 6.00 Build 0)  -->
<svg version="1.1" id="Layer_2" xmlns="http://www.w3.org/2000/svg" xmlns:xlink="http://www.w3.org/1999/xlink" x="0px" y="0px"
	 viewBox="0 0 17 35" style="enable-background:new 0 0 17 35;" xml:space="preserve">
<style type="text/css">
	.st0{fill:none;stroke:#1D1D1B;stroke-width:1.0259;stroke-linecap:round;stroke-linejoin:round;stroke-miterlimit:10;}
</style>
<path class="st0" d="M3.6,27.4c-1,0.3-1.9,1.1-2.2,2s-0.2,2.2,0.5,2.9c0.4,0.4,0.9,0.6,1.4,0.8c0.7,0.2,1.4,0.4,2.1,0.4
	c0.6,0,1.2-0.1,1.7-0.3c0.6-0.3,1.1-0.8,1.5-1.4C8.9,31.2,9,30.6,9,30c0-1.1-0.7-2.3-1.8-2.8c-0.4-0.2-1-0.2-1.5-0.2
	C4.9,27,4.2,27.2,3.6,27.4z"/>
<path class="st0" d="M5.4,26.9c0-1.3,0-2.6,0-3.9c-0.1-1.7-0.2-3.4-0.3-5.1c-0.1-1.2-0.2-2.5-0.3-3.7C4.7,12.6,4.6,11,4.6,9.4
	c0-1.1,0-2.1,0-3.2c0-0.6,0-1.2,0.3-1.7C5.3,3.5,6.2,3,7.2,2.7C8.1,2.3,9.1,2.1,10,2.3c1.1,0.3,1.8,1.2,2.2,2.3s0.5,2.1,0.5,3.2
	c0.1,2,0.3,4.1,0.4,6.1c0.1,1.6,0.2,3.3,0.3,4.9c0.1,1.1,0.1,2.2,0.2,3.3c0,1,0,1.9,0.1,2.9c0.1,1.5,0.2,3.1,0.4,4.6
	c0.2,1.4,0.4,2.8,0.7,4.2"/>
<path class="st0" d="M8.9,9.4c0.2,1.4,0.4,2.9,0.5,4.3c0.1,1.5,0.2,3,0.2,4.5c0,1.3,0,2.8-0.8,3.9c-0.9,1.3-2.6,1.7-4.1,2
	c-1,0.2-1.9,0.4-2.9,0.6"/>
<path class="st0" d="M8.3,2.6c0,0.5,0,1,0,1.4c0,0.5,0.1,0.9,0.1,1.4"/>
</svg>
