<?xml version="1.0" encoding="utf-8"?>
<!-- Generator: Adobe Illustrator 24.0.0, SVG Export Plug-In . SVG Version: 6.00 Build 0)  -->
<svg version="1.1" id="Layer_2" xmlns="http://www.w3.org/2000/svg" xmlns:xlink="http://www.w3.org/1999/xlink" x="0px" y="0px"
	 viewBox="0 0 17 35" style="enable-background:new 0 0 17 35;" xml:space="preserve">
<style type="text/css">
	.st0{fill:none;stroke:#1D1D1B;stroke-width:1.0259;stroke-linecap:round;stroke-linejoin:round;stroke-miterlimit:10;}
</style>
<path class="st0" d="M1.3,18.5c0.5,0.8,1.5,1.2,2.5,1.2c1,0,1.9-0.5,2.6-1.1c0.6-0.5,1.1-1.2,1.4-2c0.2-0.8,0.2-1.7-0.3-2.4
	C7,13.4,6,13,5,12.9c-0.9-0.1-1.9,0.1-2.6,0.5c-0.7,0.4-1.3,1.4-1.5,2.3C0.7,16.8,0.8,17.8,1.3,18.5z"/>
<path class="st0" d="M8,16.4c1.1-0.2,2.2-0.7,3-1.4c1-0.8,1.8-1.8,2.4-2.9c0.6-1.1,0.9-2.3,1.2-3.5c0.3-1.1,0.4-2.3,0.6-3.5
	c0.1-1.2,0.2-2.4,0.3-3.6"/>
<path class="st0" d="M2.5,7.8c1.5,0,3,0.2,4.3,0.7c1.5,0.5,2.8,1.4,3.7,2.7c1.1,1.6,1.5,3.5,1.8,5.4c0.3,1.7,0.4,3.5,0.4,5.2
	c0,1.7-0.2,3.5-0.7,5.1c-0.4,1.1-0.9,2.3-1.7,3.1c-0.7,0.7-1.5,1.2-2.4,1.5c-1.2,0.5-2.2,0.7-3.6,0.2c-1.2-0.4-1.9-1.8-2-3.1
	c0-1.3,0.7-2.6,1.9-3.1s2.7-0.3,3.5,0.7"/>
<path class="st0" d="M3.1,1.9c1.4-0.1,2.7,0.1,4,0.5c1.5,0.5,3,1.2,4.3,2.2c1.4,1,2.5,2.3,3.1,4.3"/>
<path class="st0" d="M7.5,22.6c1-0.4,2-0.9,2.9-1.4c0.8-0.4,1.5-0.9,2.2-1.4"/>
</svg>
