<?xml version="1.0" encoding="utf-8"?>
<!-- Generator: Adobe Illustrator 24.0.0, SVG Export Plug-In . SVG Version: 6.00 Build 0)  -->
<svg version="1.1" id="Layer_2" xmlns="http://www.w3.org/2000/svg" xmlns:xlink="http://www.w3.org/1999/xlink" x="0px" y="0px"
	 viewBox="0 0 17 35" style="enable-background:new 0 0 17 35;" xml:space="preserve">
<style type="text/css">
	.st0{fill:none;stroke:#1D1D1B;stroke-width:1.0259;stroke-linecap:round;stroke-linejoin:round;stroke-miterlimit:10;}
</style>
<path class="st0" d="M5.7,31.1c0.5,0.9,1.5,1.4,2.4,1.8c1.4,0.6,3,1,4.4,0.4c0.9-0.4,1.6-1,2.1-1.8c0.7-0.9,1.2-2.1,0.9-3.2
	c-0.2-0.9-0.9-1.5-1.8-2c-0.9-0.5-2-0.7-2.9-0.8c-0.7,0-1.6,0.1-2.4,0.5c-1.1,0.4-2.1,1.1-2.6,2C5.3,28.9,5.1,30.2,5.7,31.1z"/>
<path class="st0" d="M1.2,1.5c0,0.7,0,1.5,0,2.2c0,1.2,0,2.4,0.1,3.6c0.1,1.2,0.4,2.3,1,3.4c0.9,1.6,2.3,2.8,3.5,4.2
	c1,1.1,1.9,2.4,2.7,3.8c0.6,1.1,1.1,2.3,1.5,3.5c0.3,1.1,0.6,2.1,0.7,3.2"/>
<path class="st0" d="M15.6,1.3c-0.2,1.8-0.6,3.6-1.1,5.3c-0.5,1.6-1,3.1-1.7,4.6c-0.7,1.7-1.6,3.3-2.6,4.8c-0.7,1.1-1.5,2.2-2.2,3.2
	c-0.7,1-1.4,1.9-2.1,2.9c-0.6,0.9-1.3,1.9-1.8,2.9c-0.4,0.6-0.7,1.3-1,2"/>
<path class="st0" d="M8.5,1.6C8.3,2.7,8.2,3.9,8.3,5C8.4,6,8.7,7.1,9.3,8c0.9,1.3,2.3,2.1,3.3,3.2c1.2,1.3,1.8,2.9,2,4.6
	c0.2,1.5,0,3.1-0.5,4.5"/>
<path class="st0" d="M1.1,20c0.9,0.2,0.6,0.1,1.4,0.4c0.1,0.1,1.5,0.7,1.6,0.8c0.7,0.5,0.7,0.5,1.3,1.2"/>
</svg>
