<?xml version="1.0" encoding="utf-8"?>
<!-- Generator: Adobe Illustrator 24.0.0, SVG Export Plug-In . SVG Version: 6.00 Build 0)  -->
<svg version="1.1" id="Layer_2" xmlns="http://www.w3.org/2000/svg" xmlns:xlink="http://www.w3.org/1999/xlink" x="0px" y="0px"
	 viewBox="0 0 17 35" style="enable-background:new 0 0 17 35;" xml:space="preserve">
<style type="text/css">
	.st0{fill:none;stroke:#1D1D1B;stroke-width:1.0259;stroke-linecap:round;stroke-linejoin:round;stroke-miterlimit:10;}
</style>
<path class="st0" d="M7.4,27.8c-0.8,0.5-1.5,1.2-1.8,2.1c-0.3,0.9-0.1,2,0.5,2.7c0.3,0.3,0.6,0.5,0.9,0.7c0.8,0.4,1.6,0.8,2.5,0.9
	c0.9,0.1,1.8-0.1,2.6-0.7c0.3-0.2,0.6-0.5,0.8-0.8c0.3-0.3,0.6-0.6,0.8-1c0.4-0.7,0.5-1.6,0.2-2.4c-0.3-0.9-1-1.5-1.8-1.9
	C11.5,27,10.7,27,9.8,27C8.9,27.1,8,27.4,7.4,27.8z"/>
<path class="st0" d="M1.4,1.5c0.1,0.7,0.1,1.4,0.2,2.1c0.1,0.8,0.1,1.5,0.2,2.3C1.9,6.9,2,8,2.2,9.1c0.2,1.2,0.4,2.3,0.8,3.5
	c0.3,1,0.8,2,1.4,2.9c0.6,1,1.4,1.9,2.2,2.7c0.7,0.7,1.5,1.3,2.1,2C9.3,21,9.9,22,10.2,23c0.4,1.2,0.5,2.5,0.3,3.8"/>
<path class="st0" d="M7,1.1c0.1,1,0.2,2.8,0.2,3.8c0,1.2,0,2.4,0,3.6c0,0.6-0.1,1.2-0.1,1.7c0,1.8,0.2,3.6,0.6,5.4
	c0.3,1.2,0.6,2.4,1.1,3.6c0.3,0.9,0.7,1.7,1,2.5"/>
<path class="st0" d="M1.5,19.4c0.4,0.6,0.7,1.1,1.1,1.6c0.5,0.6,1,1.1,1.6,1.6c0.7,0.5,1.4,0.8,2.2,1c0.7,0.2,1.4,0.5,2.1,0.6
	c0.7,0.2,1.4,0.3,2.1,0.5"/>
<path class="st0" d="M13.1,4c0.3,1,0.4,2,0.3,3c-0.1,1.1-0.2,2.2-0.4,3.3c-0.2,1.2-0.4,2.3-0.4,3.5c0,1.3,0.1,2.7,0,4
	c-0.1,0.9-0.4,1.8-0.8,2.7c-0.4,0.8-1,1.6-1.6,2.2"/>
</svg>
