<?xml version="1.0" encoding="utf-8"?>
<!-- Generator: Adobe Illustrator 24.0.0, SVG Export Plug-In . SVG Version: 6.00 Build 0)  -->
<svg version="1.1" id="Layer_2" xmlns="http://www.w3.org/2000/svg" xmlns:xlink="http://www.w3.org/1999/xlink" x="0px" y="0px"
	 viewBox="0 0 17 35" style="enable-background:new 0 0 17 35;" xml:space="preserve">
<style type="text/css">
	.st0{fill:none;stroke:#1D1D1B;stroke-width:1.0259;stroke-linecap:round;stroke-linejoin:round;stroke-miterlimit:10;}
</style>
<path class="st0" d="M12.6,12.3c-1.1-0.1-2.2,0.1-3,0.7c-0.9,0.6-1.4,1.7-1.3,2.8c0.1,0.9,0.6,1.7,1.4,2.2c0.7,0.5,1.6,0.7,2.5,0.7
	c1,0,2-0.3,2.8-0.9c0.4-0.3,0.8-0.8,1-1.4c0.3-0.6,0.4-1.3,0.1-1.9c-0.4-0.7-0.9-1.3-1.6-1.7C13.8,12.5,13.2,12.3,12.6,12.3z"/>
<path class="st0" d="M8.2,15.6c-1,0.2-1.8,0.7-2.6,1.4c-0.9,0.8-1.7,1.8-2.3,2.9c-0.5,0.9-0.8,1.9-1,2.9c-0.3,1.2-0.5,2.4-0.6,3.6
	c-0.1,1.2-0.2,2.5-0.3,3.7c-0.1,1.2-0.1,2.5-0.1,3.7"/>
<path class="st0" d="M15.5,34"/>
<path class="st0" d="M3.6,19.3c-0.5,1.4-0.5,3,0.4,4.2c0.5,0.7,1.3,1.2,2.2,1.6C7,25.4,7.9,25.7,8.8,26c0.8,0.3,1.6,0.7,2.3,1.2
	c0.8,0.5,1.4,1.1,2.1,1.8c0.7,0.8,1.3,1.8,1.7,2.8c0.3,0.7,0.5,1.4,0.6,2.1"/>
<path class="st0" d="M15.8,9.2c-2-0.6-4.1-0.7-6.1-0.2c-1.2,0.3-2.3,0.8-3.2,1.7c-0.9,0.9-1.4,2.1-1.1,3.3c0.2,0.8,0.6,1.5,1.2,2
	c0.1,0.1,0,0,0.1,0.1"/>
<path class="st0" d="M16,3.8c-0.7-0.1-1.4-0.3-2.1-0.4C13,3.2,12.1,3.1,11.2,3c-0.8,0-1.5,0-2.3,0.1C8,3.2,7.2,3.4,6.4,3.7
	c-0.6,0.2-1.2,0.6-1.7,1C4,5.1,3.4,5.7,2.9,6.4C2.6,6.7,2.4,7.1,2.2,7.5c-0.5,0.9-0.7,2-0.8,3c0,0.4-0.1,0.9,0,1.3
	C1.4,13,1.9,14.1,2.6,15c0.7,0.9,1.4,1.6,2.4,2.2"/>
</svg>
