<?xml version="1.0" encoding="utf-8"?>
<!-- Generator: Adobe Illustrator 24.0.0, SVG Export Plug-In . SVG Version: 6.00 Build 0)  -->
<svg version="1.1" id="Layer_2" xmlns="http://www.w3.org/2000/svg" xmlns:xlink="http://www.w3.org/1999/xlink" x="0px" y="0px"
	 viewBox="0 0 17 35" style="enable-background:new 0 0 17 35;" xml:space="preserve">
<style type="text/css">
	.st0{fill:none;stroke:#1D1D1B;stroke-width:1.0259;stroke-linecap:round;stroke-linejoin:round;stroke-miterlimit:10;}
</style>
<path class="st0" d="M4.5,17.8c-0.8,0-1.7,0.2-2.3,0.7c-0.5,0.4-0.8,1-1,1.6c-0.1,0.3-0.2,0.7-0.3,1.1c-0.1,1.2,0.5,2.4,1.4,3.1
	c1,0.7,2.2,0.9,3.4,0.6c1-0.2,1.8-0.8,2.4-1.6c0.5-0.8,0.6-1.7,0.4-2.4c-0.2-0.9-0.9-1.6-1.7-2.2C6.2,18.1,5.3,17.8,4.5,17.8z"/>
<path class="st0" d="M1.9,1.5c1.2-0.1,2.5,0,3.7,0.2C6.8,1.9,8,2.2,9.1,2.6c1.3,0.5,2.5,1.1,3.6,2.1s1.8,2.2,2,3.5
	c0.2,1.3-0.1,2.6-0.5,3.9c-0.3,0.8-0.6,1.5-1.1,2.2c-0.5,0.7-1,1.3-1.6,2c-0.5,0.5-1,1.1-1.5,1.6c-0.6,0.6-1.3,1.2-2,1.7"/>
<path class="st0" d="M1.4,6.6c1.4-0.1,2.9,0.1,4.2,0.5C6.9,7.5,8,8,9.1,8.6c1,0.6,1.9,1.2,2.8,1.9c0.6,0.5,1.2,1,1.7,1.6
	c0.8,0.9,1.3,1.9,1.9,3"/>
<path class="st0" d="M1.3,12.9c1.1-0.2,2.3-0.1,3.4,0C5.9,13.1,7,13.5,8,14c1,0.5,1.9,1.2,2.7,2c0.8,0.8,1.5,1.8,2,2.8
	c0.6,1.1,0.9,2.3,1.2,3.5c0.3,1.5,0.4,3,0.6,4.6c0.1,1.1,0.2,2.2,0.3,3.3c0.1,1.1,0.2,2.3,0.3,3.4"/>
<path class="st0" d="M1.5,31.7c0.7,0.5,1.5,0.9,2.3,1.2c0.9,0.2,1.8,0.3,2.7,0.2C7.3,33,8.1,32.7,9,32.5s1.7-0.2,2.5,0.2"/>
</svg>
