<?xml version="1.0" encoding="utf-8"?>
<!-- Generator: Adobe Illustrator 24.0.0, SVG Export Plug-In . SVG Version: 6.00 Build 0)  -->
<svg version="1.1" id="main" xmlns="http://www.w3.org/2000/svg" xmlns:xlink="http://www.w3.org/1999/xlink" x="0px" y="0px"
	 viewBox="0 0 17 35" style="enable-background:new 0 0 17 35;" xml:space="preserve">
<style type="text/css">
	.st0{fill:none;stroke:#1D1D1B;stroke-linecap:round;stroke-linejoin:round;stroke-miterlimit:10;}
</style>
<path class="st0" d="M1,9.6c-0.1,0.2-0.2,0.4-0.2,0.6c-0.1,0.6,0.2,1.1,0.5,1.5c0.4,0.4,0.9,0.6,1.5,0.8c1.4,0.4,3.1-0.1,3.9-1.3
	c0.3-0.5,0.4-1.1,0.3-1.6c-0.3-1-1.7-1.9-2.7-1.9C2.9,7.7,1.6,8.5,1,9.6z"/>
<path class="st0" d="M4.1,7.6C4.2,6,5,4.5,6.4,3.7s3.2-0.6,4.3,0.5c0.6,0.6,0.9,1.4,1.1,2.2c1.1,3.4,1.1,6.9,1.1,10.5
	c0,5.5,0,11.1,0,16.6"/>
<path class="st0" d="M1.3,17.5c0.9,0,1.8,0,2.7-0.1c1.9-0.2,3.8-0.8,5-2.3c0.5-0.7,0.9-1.4,1.4-2.1c0.5-0.7,1.3-1.2,2.1-1.2
	c-0.1,0-0.1,0.1-0.2,0.1"/>
<path class="st0" d="M1,20.6c1-0.1,2-0.2,3.1-0.3c2.2-0.2,4.5-0.5,6-2.1c0.3-0.3,0.6-0.7,1-1c0.5-0.4,1.2-0.6,1.9-0.6"/>
<path class="st0" d="M12.9,22c-3.4-0.3-6.9,1.4-8.4,4.4c-0.6,1.1-0.8,2.3-1,3.6c-0.2,1.3-0.4,2.5-0.5,3.8"/>
</svg>
