<?xml version="1.0" encoding="utf-8"?>
<!-- Generator: Adobe Illustrator 24.0.0, SVG Export Plug-In . SVG Version: 6.00 Build 0)  -->
<svg version="1.1" id="Layer_2" xmlns="http://www.w3.org/2000/svg" xmlns:xlink="http://www.w3.org/1999/xlink" x="0px" y="0px"
	 viewBox="0 0 17 35" style="enable-background:new 0 0 17 35;" xml:space="preserve">
<style type="text/css">
	.st0{fill:none;stroke:#1D1D1B;stroke-linecap:round;stroke-linejoin:round;stroke-miterlimit:10;}
</style>
<path class="st0" d="M6.2,16.9c-0.5,0.5-0.8,1.2-0.7,1.8c0,0.7,0.3,1.3,0.9,1.8c0.5,0.4,1.1,0.6,1.7,0.7c1,0.2,2.2,0.2,3.1-0.3
	c1-0.5,1.7-1.4,1.7-2.5c0-1-0.5-1.7-1.2-2.2c-0.8-0.5-2-0.6-3.1-0.5C7.6,16,6.7,16.4,6.2,16.9z"/>
<path class="st0" d="M3.1,6c0-1.9,1.5-3.7,3.4-4.1c0.4-0.1,0.8-0.1,1.1,0c1,0.4,1.2,1.6,1.3,2.6C9.3,8.3,9.5,12,9.5,15.7"/>
<path class="st0" d="M14.9,29.2c0,1.5-0.8,3.1-2.1,4c-0.7,0.5-1.7,0.8-2.3,0.2C10,33,9.9,32.2,9.9,31.5c-0.2-3.3-0.3-6.6-0.4-9.9"/>
<path class="st0" d="M8.9,3.7C8.9,3.3,9,2.9,9.2,2.5c0.3-0.5,0.8-0.9,1.4-1.1s1.2-0.2,1.8-0.1C13,1.3,13.6,1.5,14,1.9
	c0.5,0.5,0.6,1.2,0.7,1.8c0.1,0.5,0.1,1.1,0.1,1.6"/>
<path class="st0" d="M2.2,29.1c0,0.7,0,1.4,0.1,2.1c0.1,0.8,0.4,1.6,1.1,2c0.4,0.2,0.8,0.2,1.2,0.2c1.1,0,2.2-0.2,3.1-0.7
	c0.9-0.5,1.7-1.4,2-2.4c0-0.1,0-0.1,0.1-0.1c0.1,0,0.1,0.1,0,0.1"/>
</svg>
