<?xml version="1.0" encoding="utf-8"?>
<!-- Generator: Adobe Illustrator 24.0.0, SVG Export Plug-In . SVG Version: 6.00 Build 0)  -->
<svg version="1.1" id="Layer_2" xmlns="http://www.w3.org/2000/svg" xmlns:xlink="http://www.w3.org/1999/xlink" x="0px" y="0px"
	 viewBox="0 0 17 35" style="enable-background:new 0 0 17 35;" xml:space="preserve">
<style type="text/css">
	.st0{fill:none;stroke:#1D1D1B;stroke-linecap:round;stroke-linejoin:round;stroke-miterlimit:10;}
</style>
<path class="st0" d="M11.3,21.8c0.3-0.2,0.5-0.4,0.7-0.5c0.9-0.7,1.5-1.9,1.6-3.1c0.1-1.4-0.6-2.9-1.8-3.7c-0.5-0.3-1.1-0.5-1.6-0.7
	C9,13.5,7.9,13.2,6.7,13c-1-0.1-1.9-0.2-2.8-0.7C2.8,11.8,2,10.8,1.7,9.7c-0.2-0.8-0.1-1.6,0-2.4c0.2-1.1,0.5-2.2,1-3.2S4,2.2,5,1.7
	"/>
<path class="st0" d="M11.3,21.8c-0.5-0.4-0.9-0.7-1.6-0.8c-1.2-0.1-2.7,0.4-3.5,1.2c-0.9,1-1,2.7-0.2,3.9s2.4,1.6,3.7,1.2
	c0.6-0.2,1.1-0.5,1.5-0.9c0.5-0.3,0.9-0.7,1.1-1.3c0.1-0.3,0.1-0.7,0-1C12.3,23.6,11.8,22.3,11.3,21.8z"/>
<path class="st0" d="M15.5,33.3c-1.9,0.1-3.9,0-5.8-0.3c-1.4-0.2-2.8-0.4-4.1-1s-2.5-1.4-3.3-2.5c-0.9-1.2-1.2-2.7-1.4-4.2
	c-0.1-0.6-0.1-1.1,0-1.7c0.3-2,1.8-3.7,3.6-4.7c1.8-1,3.9-1.2,5.9-1.3c1-0.1,2.1-0.1,3.1,0"/>
<path class="st0" d="M15.7,1.6c-2.4,1-4.9,2-6.8,3.6c-0.5,0.4-1.1,1-1,1.7c0.1,0.5,0.5,1,1,1.2c0.5,0.2,1,0.3,1.6,0.4
	c0.4,0.1,0.8,0.2,1.2,0.3c0.5,0.1,1,0.3,1.4,0.6c0.8,0.6,1,1.8,0.6,2.8c-0.3,0.9-1.1,1.7-1.9,2.2c0.1,0,0.2-0.1,0.2-0.1"/>
<path class="st0" d="M10.5,30.4c0.8-0.2,1.6-0.5,2.4-0.9c0.6-0.3,1.1-0.5,1.6-0.9c1-0.8,1.7-2.1,1.7-3.4c0-1.3-0.5-2.6-1.5-3.5
	c-0.5-0.5-1.1-0.8-1.7-1.1"/>
</svg>
