<?xml version="1.0" encoding="utf-8"?>
<!-- Generator: Adobe Illustrator 24.0.0, SVG Export Plug-In . SVG Version: 6.00 Build 0)  -->
<svg version="1.1" id="Layer_2" xmlns="http://www.w3.org/2000/svg" xmlns:xlink="http://www.w3.org/1999/xlink" x="0px" y="0px"
	 viewBox="0 0 17 35" style="enable-background:new 0 0 17 35;" xml:space="preserve">
<style type="text/css">
	.st0{fill:none;stroke:#1D1D1B;stroke-linecap:round;stroke-linejoin:round;stroke-miterlimit:10;}
</style>
<path class="st0" d="M6.8,1.8C6.3,1.9,5.9,2,5.5,2.2C5.1,2.4,4.8,2.7,4.6,3.1C4,3.8,3.7,4.9,4.1,5.8c0.2,0.6,0.6,1,1.1,1.4
	c1,0.8,1.3,1.1,2.5,1.5C8,8.8,9.3,9.1,9.7,9c0.5-0.1,1-0.4,1.4-0.6c0.3-0.2,0.7-0.4,1-0.7c0.4-0.4,0.6-0.8,0.9-1.3
	c0.3-0.7,0.5-1.5,0.3-2.2c-0.2-0.8-1-1.9-1.8-2.3c-0.7-0.3-1.8-0.3-2.6-0.3C8.2,1.6,7.5,1.7,6.8,1.8z"/>
<path class="st0" d="M8.2,8.9c-0.4,1-0.7,2-1,3c-0.3,1.1-0.6,2.3-0.7,3.5c-0.1,1.6,0,3.1,0.4,4.6c0.4,1.7,1.1,3.4,2,5
	c0.6,1,1.3,2,2,2.9c0.9,1.1,1.8,2.1,2.8,3.1c0.6,0.6,1.1,1.1,1.7,1.7"/>
<path class="st0" d="M6.3,8.2c-1.2,1.1-2.2,2.5-3,4c-1,1.9-1.6,4-1.8,6.1c-0.3,2.3-0.2,4.6,0.2,6.8c0.2,1.5,0.6,3,1,4.4
	c0.2,0.6,0.4,1.2,0.6,1.7C3.6,31.9,4,32.5,4.5,33"/>
<path class="st0" d="M6.5,14.9c1,0.2,2.3,0.3,2.9,0.2c0.5-0.1,2-0.6,2.4-0.9c0.9-0.5,1.7-1.3,2.4-2c0.7-0.7,1.2-1.5,1.5-2.1"/>
<path class="st0" d="M1.4,20.2c0.9,0.2,1.9,0.4,2.9,0.6c1,0.2,1.9,0.3,2.9,0.3c1.5,0.1,2.9,0,4.3-0.2c1.4-0.2,2.9-0.7,4.3-0.9"/>
</svg>
