<?xml version="1.0" encoding="utf-8"?>
<!-- Generator: Adobe Illustrator 24.0.0, SVG Export Plug-In . SVG Version: 6.00 Build 0)  -->
<svg version="1.1" id="Layer_2" xmlns="http://www.w3.org/2000/svg" xmlns:xlink="http://www.w3.org/1999/xlink" x="0px" y="0px"
	 viewBox="0 0 17 35" style="enable-background:new 0 0 17 35;" xml:space="preserve">
<style type="text/css">
	.st0{fill:none;stroke:#1D1D1B;stroke-linecap:round;stroke-linejoin:round;stroke-miterlimit:10;}
</style>
<path class="st0" d="M6.2,21.3c-0.3,0.3-0.5,0.7-0.7,1.1c-0.4,1-0.2,2.2,0.4,3.2c0.6,0.9,1.7,1.5,2.8,1.5c0.8,0,1.6-0.2,2.3-0.6
	c0.5-0.2,0.9-0.6,1.2-1c0.8-0.9,1-2.2,0.5-3.3c-0.3-0.7-0.9-1.2-1.6-1.6c-0.8-0.4-1.8-0.5-2.7-0.4C7.5,20.4,6.7,20.8,6.2,21.3z"/>
<path class="st0" d="M2.8,4.1c0.7-0.9,1.8-1.4,2.9-1.7S7.9,2.1,9,2.2c0.9,0.1,1.9,0.2,2.6,0.7c1.5,0.9,2,2.8,2.1,4.5
	c0,0.6,0,1.2-0.2,1.8c-0.2,0.6-0.6,1.2-0.9,1.7c-0.2,0.3-0.4,0.6-0.6,0.8c-0.8,0.9-1.9,1.6-2.6,2.7c-0.2,0.4-0.4,0.9-0.5,1.4
	c-0.3,1.4-0.5,2.8-0.4,4.3"/>
<path class="st0" d="M15.1,33.3c-1,0.1-1.9,0.2-2.9,0.2c-1.2,0-2.5,0-3.7-0.3c-1-0.2-2-0.6-3-1.1c-1-0.6-1.9-1.3-2.6-2.3
	c-0.9-1.3-1.4-2.9-1.7-4.5c-0.2-1.2-0.2-2.5,0.1-3.6s1.1-2.2,2.2-2.7c0.4-0.2,0.9-0.3,1.4-0.3c0.7-0.1,1.4-0.1,2,0.1
	s1.2,0.6,1.5,1.3"/>
<path class="st0" d="M10.2,33.4c0.3-0.6,0.8-1.2,1.3-1.7c0.4-0.3,0.8-0.7,1.2-0.9c0.6-0.4,1.2-0.6,1.9-0.8"/>
<path class="st0" d="M2.4,13.2c0.5-1,1.3-1.8,2.2-2.5C5.3,10.2,6.1,9.8,7,9.6c1-0.3,2-0.3,3-0.1c1,0.2,1.9,0.6,2.7,1.3"/>
</svg>
