<?xml version="1.0" encoding="utf-8"?>
<!-- Generator: Adobe Illustrator 24.0.0, SVG Export Plug-In . SVG Version: 6.00 Build 0)  -->
<svg version="1.1" id="Layer_2" xmlns="http://www.w3.org/2000/svg" xmlns:xlink="http://www.w3.org/1999/xlink" x="0px" y="0px"
	 viewBox="0 0 17 35" style="enable-background:new 0 0 17 35;" xml:space="preserve">
<style type="text/css">
	.st0{fill:none;stroke:#1D1D1B;stroke-linecap:round;stroke-linejoin:round;stroke-miterlimit:10;}
</style>
<path class="st0" d="M7.8,12.7c-0.4,0.1-0.9,0.2-1.2,0.4c-0.8,0.4-1.4,1-1.9,1.7c-0.4,0.7-0.6,1.4-0.5,2.2c0,0.9,0.4,1.8,1.1,2.5
	c0.5,0.5,1.1,0.9,1.8,1.1c0.5,0.1,0.9,0.2,1.4,0.2c0.8,0,1.7-0.1,2.5-0.4c0.6-0.2,1.2-0.5,1.7-1c0.9-0.8,1.4-1.8,1.6-3
	c0.1-0.7,0-1.4-0.3-2c-0.3-0.7-0.8-1.4-1.5-1.7c-0.6-0.3-1.4-0.4-2.3-0.4C9.3,12.4,8.4,12.5,7.8,12.7z"/>
<path class="st0" d="M9.4,20.8c0,0.6,0,1.1,0,1.7c0,0.7,0,1.3,0,2c0,1.2,0,2.4-0.1,3.7c0,0.5,0,1.1-0.2,1.5
	c-0.2,0.7-0.8,1.2-1.3,1.6S6.5,32,5.8,32.3c-0.8,0.3-1.5,0.6-2.3,0.9c-0.8,0.3-1.6,0.7-2.4,1"/>
<path class="st0" d="M9.3,12.3c0.1-1.1,0.2-2.2,0.4-3.3c0.1-1,0.2-2.1,0.8-3c0.4-0.7,1-1.2,1.5-1.7c1.3-1.1,2.7-2.1,4.1-3"/>
<path class="st0" d="M8.2,1.3c-0.5,0.5-1,1-1.5,1.5C6.1,3.4,5.5,4,4.9,4.7C4.4,5.2,4,5.8,3.5,6.4C3.1,7,2.6,7.7,2.3,8.4
	C2.1,8.9,2,9.4,2.2,9.8c0.2,0.4,0.7,0.5,1.1,0.5c0.4,0,0.8-0.1,1.3-0.1c0.7,0,1.4,0.2,2,0.6c0.6,0.4,1,1.1,1.1,1.8"/>
<path class="st0" d="M3,27.5c0.8-0.1,1.5-0.1,2.3-0.2c0.8,0,1.6,0,2.4,0c0.5,0,1,0,1.4,0.1c0.5,0.1,0.9,0.2,1.4,0.3
	c0.5,0.2,1.1,0.5,1.5,0.9c0.3,0.3,0.5,0.6,0.7,0.9c0.2,0.5,0.3,1,0.4,1.5c0.1,0.8,0.1,1.6,0.1,2.4"/>
</svg>
