<?xml version="1.0" encoding="utf-8"?>
<!-- Generator: Adobe Illustrator 24.0.0, SVG Export Plug-In . SVG Version: 6.00 Build 0)  -->
<svg version="1.1" id="Layer_2" xmlns="http://www.w3.org/2000/svg" xmlns:xlink="http://www.w3.org/1999/xlink" x="0px" y="0px"
	 viewBox="0 0 17 35" style="enable-background:new 0 0 17 35;" xml:space="preserve">
<style type="text/css">
	.st0{fill:none;stroke:#1D1D1B;stroke-width:1.0259;stroke-linecap:round;stroke-linejoin:round;stroke-miterlimit:10;}
</style>
<path class="st0" d="M3.6,20.4c-0.6,0.3-1.1,0.6-1.5,1.1c-0.3,0.5-0.4,1-0.4,1.6c0,0.5,0.1,1,0.3,1.4c0.3,0.6,0.9,1,1.5,1.2
	C4,25.9,4.6,26,5.2,26.1c0.7,0.1,1.3,0,1.9-0.2c0.6-0.2,1.2-0.6,1.7-1c0.4-0.4,0.7-1,0.9-1.5c0.1-0.6,0.1-1.2-0.1-1.8
	C9.4,21,9,20.4,8.4,20.1c-0.8-0.5-1.8-0.6-2.7-0.4C5,19.8,4.3,20.1,3.6,20.4z"/>
<path class="st0" d="M5.7,19.5c-0.3-1.6-0.3-3.2-0.2-4.8c0.1-1.9,0.5-3.8,1.2-5.6C7.3,7.7,8,6.2,8.8,4.9c0.5-0.7,1-1.4,1.7-1.8
	c0.7-0.4,1.7-0.4,2.3,0.1c0.4,0.4,0.6,0.9,0.7,1.4c0.4,1.6,0.5,3.2,0.5,4.9c0,2-0.1,4-0.1,6c0,1.1,0,2.1,0,3.2
	c0,1.4,0.1,2.7,0.2,4.1c0.1,1.9,0.2,3.8,0.4,5.7c0.1,1.7,0.3,3.4,0.4,5.1"/>
<path class="st0" d="M1.8,2.2c0.5,0,0.9,0.1,1.3,0.2C3.5,2.5,3.8,2.6,4,2.9c0.5,0.5,0.7,1.3,0.5,2C4.4,5.6,4,6.2,3.6,6.8
	c-0.4,0.5-0.7,1-1,1.5s-0.4,1.2-0.1,1.8c0.3,0.9,1.4,1.3,2.4,1.6c1,0.2,2,0.3,2.9,0.6c0.9,0.3,1.9,0.8,2.4,1.7
	c0.6,0.9,0.6,2.1,0.6,3.2"/>
<path class="st0" d="M1.4,33.7c0.2-0.8,0.5-1.6,1-2.2C2.8,30.8,3.3,30.4,4,30c0.7-0.4,1.6-0.5,2.4-0.6c0.8-0.1,1.7-0.1,2.5-0.3
	c1.1-0.2,2.1-0.7,3-1.4c1-0.7,1.8-1.8,2.4-2.8"/>
</svg>
