<?xml version="1.0" encoding="utf-8"?>
<!-- Generator: Adobe Illustrator 24.0.0, SVG Export Plug-In . SVG Version: 6.00 Build 0)  -->
<svg version="1.1" id="Layer_2" xmlns="http://www.w3.org/2000/svg" xmlns:xlink="http://www.w3.org/1999/xlink" x="0px" y="0px"
	 viewBox="0 0 17 35" style="enable-background:new 0 0 17 35;" xml:space="preserve">
<style type="text/css">
	.st0{fill:none;stroke:#1D1D1B;stroke-width:1.0259;stroke-linecap:round;stroke-linejoin:round;stroke-miterlimit:10;}
</style>
<path class="st0" d="M6.5,17.2c-1-0.6-2.3-0.7-3.4-0.2s-1.8,1.7-1.7,2.8c0.1,0.9,0.6,1.7,1.2,2.3c0.9,0.9,2,1.5,3.2,1.7
	c0.9,0.2,1.8,0.2,2.6,0c0.4-0.1,0.8-0.2,1.1-0.6c0.2-0.2,0.3-0.5,0.3-0.8c0.1-1.1-0.6-1.9-1.2-2.7C8,18.8,7.6,17.8,6.5,17.2z"/>
<path class="st0" d="M8.7,19.4c0.8-0.6,1.6-1.4,2.2-2.3c0.5-0.8,0.9-1.6,1.2-2.5c0.3-0.8,0.4-1.6,0.5-2.5c0.1-0.9,0-1.8-0.2-2.6
	c-0.1-0.6-0.3-1.3-0.6-1.9C11.4,7,11,6.4,10.6,5.8c-0.5-0.6-1.1-1.1-1.8-1.5C8,3.8,7.2,3.5,6.3,3.2C5.5,2.9,4.7,2.7,3.9,2.6
	C3.1,2.4,2.2,2.3,1.4,2.2"/>
<path class="st0" d="M2.2,10.7c1.4-0.3,2.8-0.1,4.2,0.5c1,0.4,1.9,0.9,2.7,1.6c0.9,0.8,1.7,1.7,2.3,2.7c0.7,1.1,1.2,2.3,1.6,3.5
	c0.4,1.2,0.7,2.4,0.9,3.6c0.2,1.2,0.4,2.4,0.5,3.7c0.2,1.5,0.3,3.1-0.4,4.4c-0.4,0.6-0.9,1.2-1.5,1.6c-0.9,0.6-1.9,1-2.9,1.2
	c-1.3,0.2-2.6,0.1-3.8-0.5c-0.9-0.5-1.7-1.2-2.3-2.1c-0.7-1.1-0.9-2.5-0.6-3.8"/>
<path class="st0" d="M13.7,1.6c0.7,0.6,1.2,1.4,1.5,2.3c0.3,0.8,0.5,1.6,0.6,2.5c0,0.5,0,1.1,0,1.6c-0.1,1-0.3,1.9-0.8,2.7
	c-0.6,0.8-1.5,1.4-2.3,1.9"/>
</svg>
