<?xml version="1.0" encoding="utf-8"?>
<!-- Generator: Adobe Illustrator 24.0.0, SVG Export Plug-In . SVG Version: 6.00 Build 0)  -->
<svg version="1.1" id="Layer_2" xmlns="http://www.w3.org/2000/svg" xmlns:xlink="http://www.w3.org/1999/xlink" x="0px" y="0px"
	 viewBox="0 0 17 35" style="enable-background:new 0 0 17 35;" xml:space="preserve">
<style type="text/css">
	.st0{fill:none;stroke:#1D1D1B;stroke-width:1.0259;stroke-linecap:round;stroke-linejoin:round;stroke-miterlimit:10;}
</style>
<path class="st0" d="M5.8,27.4c-0.8,0.5-1.3,1.4-1.3,2.3c-0.1,0.9,0.4,1.9,1.1,2.5c0.6,0.5,1.4,0.8,2.2,1c1.1,0.3,2.2,0.4,3.3,0.2
	s2.1-0.9,2.6-1.9c0.2-0.6,0.3-1.2,0.3-1.8c0-0.8-0.3-1.7-0.7-2.4c-0.5-0.7-1.2-1.2-2.1-1.3c-0.7-0.1-1.6,0-2.5,0.2
	C7.5,26.6,6.5,27,5.8,27.4z"/>
<path class="st0" d="M1.1,1.3C1,2.7,1.2,4.1,1.7,5.5C2.2,6.7,3,7.9,3.9,8.8c0.9,0.9,2,1.6,3,2.3c1,0.7,2,1.6,2.9,2.4
	c0.8,0.8,1.6,1.6,2.3,2.5c0.6,0.8,1.2,1.5,1.8,2.4c0.6,0.8,1.1,1.6,1.4,2.6c0.4,1.2,0.3,2.6-0.2,3.8c-0.4,1.1-1.1,2-2.1,2.6"/>
<path class="st0" d="M1,13.8c0.5,0.9,1,1.9,1.6,2.8c0.8,1.1,1.7,2,2.9,2.6c0.9,0.5,1.9,0.7,2.9,0.9c0.9,0.1,1.7,0.3,2.6,0.4
	c0.8,0.2,1.7,0.5,2.4,0.9c0.9,0.5,1.7,1.2,2.1,2.2"/>
<path class="st0" d="M15.9,1.7c0.2,0.8,0.1,1.7,0,2.5c-0.2,0.8-0.5,1.6-1,2.3c-0.6,0.9-1.5,1.7-2.1,2.6c-0.8,1.1-1.1,2.5-1.1,3.9
	c0,1.4,0.5,2.8,1.4,4"/>
<path class="st0" d="M6.5,1.3c0.1,1.2,0.2,2.5-0.2,3.6c-0.3,0.9-1,1.6-1.3,2.6C4.7,8.2,4.7,9,5,9.7"/>
</svg>
