<?xml version="1.0" encoding="utf-8"?>
<!-- Generator: Adobe Illustrator 24.0.0, SVG Export Plug-In . SVG Version: 6.00 Build 0)  -->
<svg version="1.1" id="Layer_2" xmlns="http://www.w3.org/2000/svg" xmlns:xlink="http://www.w3.org/1999/xlink" x="0px" y="0px"
	 viewBox="0 0 17 35" style="enable-background:new 0 0 17 35;" xml:space="preserve">
<style type="text/css">
	.st0{fill:none;stroke:#1D1D1B;stroke-width:1.0259;stroke-linecap:round;stroke-linejoin:round;stroke-miterlimit:10;}
</style>
<path class="st0" d="M5,2.3C4.3,3,3.8,4.1,3.9,5.1c0.2,1.3,1.4,2.2,2.6,2.6C7.7,8,9,8,10.1,7.4c1.1-0.5,2-1.5,2.3-2.7
	C12.7,3.4,12.3,2,11,1.4C9.7,0.8,8.7,0.7,7.3,1.1C6.5,1.4,5.7,1.7,5,2.3z"/>
<path class="st0" d="M8.6,8c-0.1,1.2-0.1,2.4-0.1,3.6c0,1.3,0.1,2.5,0.2,3.7c0.1,1.5,0.3,2.9,0.6,4.4c0.2,1.1,0.4,2.2,0.8,3.2
	c0.3,0.9,0.7,1.7,1.2,2.5c0.5,0.9,1.1,1.8,1.6,2.6c0.5,0.8,1,1.7,1.4,2.5c0.5,0.9,0.9,1.8,1.3,2.7"/>
<path class="st0" d="M6,7.9c-0.4,1-0.5,1.5-0.9,2.5C4.5,12.2,4,14,3.6,15.8c-0.5,2.1-0.9,4.3-1.3,6.4C2.1,23.8,1.9,25.4,2,27
	c0.1,1.2,0.3,2.5,0.7,3.6c0.4,1.1,0.9,2.1,1.5,3"/>
<path class="st0" d="M0.8,17.6c0.1-0.9,0.3-1.8,0.6-2.7c0.2-0.7,0.4-1.5,0.7-2.2c0.3-0.7,0.6-1.3,1.1-1.8s1.3-0.8,1.9-0.6"/>
<path class="st0" d="M8.7,10.2c1.2-0.1,2.2,0.6,2.9,1.6c0.7,0.9,1,2.1,1.4,3.2c0.2,0.7,0.4,1.4,0.6,2.1c0.2,0.8,0.5,1.6,0.7,2.4
	c0.2,0.6,0.3,1.1,0.6,1.7c0.2,0.5,0.4,0.9,0.7,1.3"/>
</svg>
