<?xml version="1.0" encoding="utf-8"?>
<!-- Generator: Adobe Illustrator 24.0.0, SVG Export Plug-In . SVG Version: 6.00 Build 0)  -->
<svg version="1.1" id="Layer_1" xmlns:ev="http://www.w3.org/2001/xml-events"
	 xmlns="http://www.w3.org/2000/svg" xmlns:xlink="http://www.w3.org/1999/xlink" x="0px" y="0px" viewBox="0 0 72 107.7"
	 style="enable-background:new 0 0 72 107.7;" xml:space="preserve">
<style type="text/css">
	.st0{fill:none;stroke:#000000;stroke-width:0.9576;}
</style>
<path class="st0" d="M50.2,22.5c0,0.7,2.2,1.3,2.1,2c-0.4,1.9-5.3,2.2-7.1,2.9c-2.4,0.9-8.2,1.2-9.5,3.3c-1.1,1.8,1,6.3,1.3,8.4
	c0.3,2.1,0.9,6.2,1,8.3c0.1,2.8,0.4,8.5-0.5,11.1c-0.5,1.3-3.4,2.9-3.4,4.3c-0.1,2.9,5.1,7.1,6.4,9.6c0.6,1.2,1.1,3.8,1.7,4.9
	c1.3,2.2,5.4,5.3,6.6,7.5c0.9,1.6,1.1,5.6,2.1,7.2c1.5,2.3,5.7,7.6,8.4,7c1.2-0.3,1.4-3.6,2.2-4.6c0.2-0.2,0.7-0.5,0.7-0.7
	c0.1-1.6-2.9-3.9-3.9-5.1c-1-1.2-2.6-4-3.9-4.9c-1.7-1.1-5.9-1.6-7.9-1.8c-3.7-0.3-11.2,0-14.9,0.7c-1.7,0.3-4.9,3-6.4,2.3
	c-1.2-0.5-1.8-3.6-2.1-4.8c-0.6-2.1,0.3-6.9-0.9-8.7c-2.6-4-16.5-4.6-16.5-9.3 M50.6,22.4c0,2.8,8.3,1.8,10.8,3
	c0.7,0.3,2.2,2.3,2.7,1.7c0.5-0.5-1.4-1.8-1.8-2.4c-1.6-2.4-6.1-7-6.1-9.9 M43.5,27.3c0-6.3-18.7-16.6-18.7-16.6"/>
</svg>
