<?xml version="1.0" encoding="utf-8"?>
<!-- Generator: Adobe Illustrator 24.0.0, SVG Export Plug-In . SVG Version: 6.00 Build 0)  -->
<svg version="1.1" id="Layer_1" xmlns:ev="http://www.w3.org/2001/xml-events"
	 xmlns="http://www.w3.org/2000/svg" xmlns:xlink="http://www.w3.org/1999/xlink" x="0px" y="0px" viewBox="0 0 81.4 146"
	 style="enable-background:new 0 0 81.4 146;" xml:space="preserve">
<style type="text/css">
	.st0{fill:none;stroke:#000000;stroke-width:0.9613;}
</style>
<path class="st0" d="M5.5,111.4L30,127c0,0-15.3-33.9-3.4-38c3.8-1.3,12.6,8.1,12.6,8.1s12.3,6.9,14,10.3c3.3,6.8-3.8,28.8-3.8,28.8
	l16.7,4.3"/>
<path class="st0" d="M39.1,97.1c4.3-15.8,6.5-31.3,18.9-45.2c2.3-4.1,2.3-8.2,4.5-12.3c1.1-4.1,5.6-12.3,12.4-8.2
	c4.5,3.3-1.1,8.2-4.5,10.6c-6.8,4.1-14.7,9-23.7,8.2c-5.6-0.8-10.2-4.1-11.3-8.2c-1.1-12.3,1.1-24.5,6.2-37.2"/>
</svg>
