<?xml version="1.0" encoding="utf-8"?>
<!-- Generator: Adobe Illustrator 24.0.0, SVG Export Plug-In . SVG Version: 6.00 Build 0)  -->
<svg version="1.1" id="Layer_1" xmlns:ev="http://www.w3.org/2001/xml-events"
	 xmlns="http://www.w3.org/2000/svg" xmlns:xlink="http://www.w3.org/1999/xlink" x="0px" y="0px" viewBox="0 0 64.1 87.4"
	 style="enable-background:new 0 0 64.1 87.4;" xml:space="preserve">
<style type="text/css">
	.st0{fill:none;stroke:#000000;stroke-width:0.9317;}
</style>
<path class="st0" d="M30.1,40.6c0,0-11.4,19.4-16.8,24c-1.2,1-4,2.1-5.5,2.5C6.7,67.4,3,67.5,3,67.5l1.3,5.7"/>
<path class="st0" d="M41.5,37.7l7.5,5.7c0,0-0.6-5.2-1.5-6.6c-3.1-5.1-15.2-8.8-17.9-14.2c-1.2-2.4-0.9-8.3-1-11.1
	c-0.1-2.1,0-8.5,0-8.5"/>
<path class="st0" d="M37.4,13c0,0-0.5,7.5,0.7,9.4c3.8,5.9,19.1,8.8,21.8,15.5c0.9,2.2,0.1,7.8-1.1,9.8c-0.1,0.2-0.6,0.4-0.8,0.4
	c-1.8,0.2-7.2-1.9-7.2-1.9L49,43.4l-2.8-2.1c0,0,0.1,8.4,0.1,11.1c0,2.2-0.1,8.6-0.1,8.6s-4.9-9.9-5.5-13.6
	c-0.4-2.4,0.7-9.7,0.7-9.7s-4.3-2.7-5.8-2.4c-2.2,0.4-6.9,6.5-6.9,6.5s-0.9,7.8-0.5,10.4c0.4,2.5,2.7,7.1,3.7,9.4
	c0.5,1,1.9,2.9,2.2,4c0.7,2.3,1.4,7.4,0.7,9.8c-0.9,2.9-7.5,9-7.5,9"/>
</svg>
