<?xml version="1.0" encoding="utf-8"?>
<!-- Generator: Adobe Illustrator 24.0.0, SVG Export Plug-In . SVG Version: 6.00 Build 0)  -->
<svg version="1.1" id="Layer_1" xmlns:ev="http://www.w3.org/2001/xml-events"
	 xmlns="http://www.w3.org/2000/svg" xmlns:xlink="http://www.w3.org/1999/xlink" x="0px" y="0px" viewBox="0 0 70.3 141.5"
	 style="enable-background:new 0 0 70.3 141.5;" xml:space="preserve">
<style type="text/css">
	.st0{fill:none;stroke:#000000;}
</style>
<path class="st0" d="M14.8,137.7C12,131.8,12,122.8,5,119.8c0-5,2-9,5-13c12-14,24-27,29-45c1-5-1-10-4-14c-3-3-6-5-8.2-9.3"/>
<path class="st0" d="M15,6.3c1,1.9,6.5,0.7,8.7,0.6c2.4-0.1,7.2-2.3,9.6-1.6c0.8,0.2,2.2,1.4,2.6,2.2C36,8,35.5,9.3,35.7,9.8
	c1,2.2,5.7,4.3,7.5,5.9c1.2,1.1,4.2,3.2,4.3,4.8c0.1,2.9-5.6,6.5-7,9.1c-0.5,0.9-1.5,2.9-1.3,3.9c0.4,2.4,5.5,5.2,6.2,7.5
	c1.6,4.9,0,15.7-1.4,20.7c-1.1,4.2-7.3,11.2-7.6,15.5c-0.3,6.4,8.8,17.7,8.7,24.1c-0.1,5-11.5,11.1-7.4,18.6
	c3.3,5.9,9.9,6.4,14.9,3.6c5.4-3.1-0.6-13.7-1.8-15.9c-0.7-1.2-0.6-4.1-0.5-5.4c0.1-3.9,1.9-11.6,2.7-15.4
	c1.8-8.2,14.3-26.7,8.4-32.7c-2.1-2.1-9.5,0.6-11.5,2.8c-1.4,1.6-1.3,6.3-1.1,8.4c0.4,6,6.8,17.1,6.4,23.1
	c-0.1,1.5,6,16.4,10.2,16.4c0.4,0,1.5-0.7,1.3-1.1"/>
</svg>
