<?xml version="1.0" encoding="utf-8"?>
<!-- Generator: Adobe Illustrator 24.0.0, SVG Export Plug-In . SVG Version: 6.00 Build 0)  -->
<svg version="1.1" id="Layer_1" xmlns:ev="http://www.w3.org/2001/xml-events"
	 xmlns="http://www.w3.org/2000/svg" xmlns:xlink="http://www.w3.org/1999/xlink" x="0px" y="0px" viewBox="0 0 38.3 53.9"
	 style="enable-background:new 0 0 38.3 53.9;" xml:space="preserve">
<style type="text/css">
	.st0{fill:none;stroke:#000000;stroke-width:1.1867;}
</style>
<path class="st0" d="M35.2,48.4c0-7.1-12.4-11.6-17.5-11.4c-2.8,0.1-8.1,3.7-10,6.6c-1,1.4-1.4,7.5-2.7,6.7
	c-2.4-1.3,0.7-11.3,2.5-13.9c1.4-2,5.6-2.3,7.5-3c1.2-0.5,4.6-0.1,4.9-1.9c0.3-2.2-3.7-6.6-5.1-5.5c-2.4,1.9,0.2,11.8,1.5,15.2
	c0.7,1.9,3.1,5.7,4.6,5.8c1.7,0.1,4.6-3.5,5.4-5.5c0.7-2,0.9-6.9,0.1-8.8c-1.6-4.3-8.1-10-11.5-10.7c-1.3-0.3-3.9,2.6-5.2,2.1
	c-1.8-0.8-4.4-5.4-4.8-8C4.5,12.9,8,3.4,8,3.4"/>
</svg>
