<?xml version="1.0" encoding="utf-8"?>
<!-- Generator: Adobe Illustrator 24.0.0, SVG Export Plug-In . SVG Version: 6.00 Build 0)  -->
<svg version="1.1" id="Layer_1" xmlns:ev="http://www.w3.org/2001/xml-events"
	 xmlns="http://www.w3.org/2000/svg" xmlns:xlink="http://www.w3.org/1999/xlink" x="0px" y="0px" viewBox="0 0 74.2 128.1"
	 style="enable-background:new 0 0 74.2 128.1;" xml:space="preserve">
<style type="text/css">
	.st0{fill:none;stroke:#000000;stroke-width:1.0305;}
</style>
<path class="st0" d="M4.2,124.6L19.8,81c0,0,5.3,1,6.6,2.2c1.6,1.6,2.5,6.8,2.3,9.2c-0.2,2.4-3.8,8.9-3.8,8.9l15.6,1.4 M45.8,88.6
	l5.1-7.8c0,0,5.8-5.6,6.6-8.2c0.3-0.9-0.4-3-0.2-3.9c0.5-2.4,4-8.9,4-8.9l-3.1-5.6l-8.5-0.7l-8.5-0.3L31.9,52L26,50.1l-3.6-2.9
	c0,0-4.4-6.1-6.4-7.5c-2.3-1.6-10.5-4-10.5-4l1.9-6l6.1-10.8c0,0,2.8-7.6,4.7-9.5c1.9-2,7-4.9,9.7-4.9c2.4,0.1,7,2.9,8.6,4.9
	c1.5,1.9,1.9,7.1,2.7,9.5c0.6,1.8,1.2,5.9,2.6,7c2.4,1.8,8.9,0.5,11.9,0.4c1.3,0,4.1-1,5.3-0.3c1.1,0.6,1.8,3.4,2.3,4.6
	c0.5,1.3,1,4.3,1.7,5.5c1.2,2,5.5,4.4,6.3,6.6c0.6,1.8-0.7,7.7-0.7,7.7L35.1,63.9L20.6,100"/>
</svg>
