<?xml version="1.0" encoding="utf-8"?>
<!-- Generator: Adobe Illustrator 24.0.0, SVG Export Plug-In . SVG Version: 6.00 Build 0)  -->
<svg version="1.1" id="Layer_1" xmlns:ev="http://www.w3.org/2001/xml-events"
	 xmlns="http://www.w3.org/2000/svg" xmlns:xlink="http://www.w3.org/1999/xlink" x="0px" y="0px" viewBox="0 0 45.4 89.2"
	 style="enable-background:new 0 0 45.4 89.2;" xml:space="preserve">
<style type="text/css">
	.st0{fill:none;stroke:#000000;}
</style>
<path class="st0" d="M7.1,2.8L2,6.7l7.1,7.4l3.6-1.4c0,0-2.4,4.4-2.5,6.1c0,1,0.9,2.9,1.4,3.8c0.7,1.2,2.6,3.4,3.9,4
	c2.2,1,9.7,0.1,9.7,0.1l2.3,2.1c0,0,12.4-3.8,14.5-7.2c0.9-1.5,0.7-5.3,0-6.9c-0.4-0.8-1.7-2.1-2.6-2.2c-2-0.3-6.4,1.8-7.4,3.7
	c-0.9,1.7,0.6,5.9,1.1,7.8c0.8,2.6,4.6,10,4.6,10l-1.8-1.9l-8-3 M6.2,29.9c0,0,3.8,10.3,6.9,11.8c3.9,1.9,17.2-2.1,17.2-2.1
	s2.2,5.1,2.1,6.9c-0.1,1.7-2.1,4.7-2.5,6.4c-1.1,5.5-2.5,17.2-0.5,22.5c1.2,3.1,6.2,8.3,9.2,9.8c0.2,0.1,1,0.2,1,0.2L42,80
	 M27.1,6.8l-3.4-4.7L21,6.4l4.5,4.8l-2.2,11.4l1.8,4.4"/>
</svg>
