<?xml version="1.0" encoding="utf-8"?>
<!-- Generator: Adobe Illustrator 24.0.0, SVG Export Plug-In . SVG Version: 6.00 Build 0)  -->
<svg version="1.1" id="Layer_1" xmlns:ev="http://www.w3.org/2001/xml-events"
	 xmlns="http://www.w3.org/2000/svg" xmlns:xlink="http://www.w3.org/1999/xlink" x="0px" y="0px" viewBox="0 0 74.1 108.5"
	 style="enable-background:new 0 0 74.1 108.5;" xml:space="preserve">
<style type="text/css">
	.st0{fill:none;stroke:#000000;stroke-width:0.9452;}
</style>
<path class="st0" d="M34.6,7.3c0,3.1,8.6,3.4,9.6,6.3c0.5,1.6-2.1,4.7-2.1,6.4 M36.5,57.8c0,1.4,1.4,4,1.4,5.4 M48.7,60.8
	c0,3.8,2.9,12.3,6,13.8c2,0.9,8.3-0.7,8.3-3.1 M70.2,93.1c0-2.7-2.1-7.8-2.5-10.5c-1-7.5,2.6-24-1.3-30.2
	c-3.9-6.3-18.8-8.7-24.9-12.1c-2.9-1.6-8.1-5.8-11.1-7.1c-5.2-2.3-14.9-1.5-20.3-6C10,27,7.9,21.4,7.5,18c-0.3-2.9,4.7-7.1,6.6-9.1
	c1-1.1,3.2-3.5,4.6-3.6c0.7-0.1,2,0.8,2.5,1.2c1.4,1.1,3.9,3.9,5,5.4c1.1,1.5,3.2,4.7,3.9,6.5c0.4,0.9,1,2.9,0.8,3.9
	c-0.4,1.5-3.8,2.8-4.1,4.4c-0.7,3,3.5,8.7,3.5,11.8c-0.1,5.7-11.8,19.5-7,21.6c1.5,0.6,3.5-5.3,2.3-6.5c-1.5-1.6-5.6,2.9-7.4,3.9
	c-1.6,0.9-4.8,2.9-6.4,3.6c-2.3,1-9.3,0.3-9.4,3c-0.1,4.2,12.8,1.8,14.1,5.7c0.2,0.7-1,2-1.2,2.7c-2.1,5.4-9,16.7-6.9,22
	c0.8,2,7.3,1.2,7.4,3.4c0.2,3.9-12.2,8-12.2,8"/>
</svg>
