<?xml version="1.0" encoding="utf-8"?>
<!-- Generator: Adobe Illustrator 24.0.0, SVG Export Plug-In . SVG Version: 6.00 Build 0)  -->
<svg version="1.1" id="Layer_1" xmlns:ev="http://www.w3.org/2001/xml-events"
	 xmlns="http://www.w3.org/2000/svg" xmlns:xlink="http://www.w3.org/1999/xlink" x="0px" y="0px" viewBox="0 0 59.1 81.3"
	 style="enable-background:new 0 0 59.1 81.3;" xml:space="preserve">
<style type="text/css">
	.st0{fill:none;stroke:#000000;stroke-linecap:round;stroke-linejoin:round;}
</style>
<path class="st0" d="M25.7,78.1l4.7-1.6l6.9,1.6l-2.7-2.6l-4.4-4c0,0,0.1-7.1,1.7-8.7c0.8-0.9,3.6-0.9,4.8-1.2
	c0.8-0.2,2.4-0.4,3.1-0.6c2.1-0.6,6.2-2.1,8-3.4c1.3-0.9,4.5-4.7,4.5-4.7l-2.8,0.5l-5.8,0.8c0,0-6.4,1.5-8.4,0.9
	c-1.4-0.4-4.1-2.3-4.7-3.6c-0.8-2,0.9-6.4,1.1-8.6c0.3-3.9,0.4-15.7,0.4-15.7l-3,0.3c0,0-1.5-4.9-0.7-6.2c1.3-1.9,6.6-2,8.9-2.6
	c0.4-0.1,1.3-0.3,1.8-0.4c2.5-0.7,7.2-3.3,9.7-3.4c1.6-0.1,6.3,1.7,6.3,1.7l-1.9-9l-6.8,5.8 M2.5,22.5c0,0,3.3,1.8,4.3,1.4
	c2.2-0.9,2.8-6.9,4.6-8.5c1.1-1,5.4-2.1,5.4-2.1l4,0.5c0,0,3.9,1.1,4.9,0.5c1.3-0.8,2.7-4.3,2-5.7c-0.7-1.5-6.5-2.2-6.5-2.2l-6,5.1
	 M19.1,25.9c0,0-0.6-3.8-0.9-5c-1-4.1-4.7-16.4-4.7-16.4s3.5,0.6,4.7,0.4c1.7-0.2,6.4-2.3,6.4-2.3l-3.9,4.2"/>
</svg>
