<?xml version="1.0" encoding="utf-8"?>
<!-- Generator: Adobe Illustrator 24.0.0, SVG Export Plug-In . SVG Version: 6.00 Build 0)  -->
<svg version="1.1" id="Layer_1" xmlns:ev="http://www.w3.org/2001/xml-events"
	 xmlns="http://www.w3.org/2000/svg" xmlns:xlink="http://www.w3.org/1999/xlink" x="0px" y="0px" viewBox="0 0 88.7 106.6"
	 style="enable-background:new 0 0 88.7 106.6;" xml:space="preserve">
<style type="text/css">
	.st0{fill:none;stroke:#000000;}
</style>
<path class="st0" d="M3.6,26.2c0,0,10.2,5.7,13.8,7c4.9,1.8,16.3,0.2,20,4.6c5,5.9,6.2,24.9,6.7,33.6c0.4,7.4,2.5,25.6-2.4,29.6
	c-2.1,1.8-9.5-0.9-9.7-4.1C31.6,91,45,90.6,48.3,86.5c6.4-8,16.3-29,16.5-40.3c0.1-5.8-3.5-18.7-7.6-21.1c-3.6-2-11.7,2.3-14.9-0.7
	c-3.5-3.2-2.5-10.3-0.4-15.1c0.9-2.2,4.7-5.8,6.6-5.3c4.2,1.2,4.7,14.4,8.8,21.1C64,36.3,84.3,36.9,84.1,46
	c-0.1,5.1-12.5,20.5-12.5,25.7"/>
</svg>
