<?xml version="1.0" encoding="utf-8"?>
<!-- Generator: Adobe Illustrator 24.0.0, SVG Export Plug-In . SVG Version: 6.00 Build 0)  -->
<svg version="1.1" id="Layer_1" xmlns:ev="http://www.w3.org/2001/xml-events"
	 xmlns="http://www.w3.org/2000/svg" xmlns:xlink="http://www.w3.org/1999/xlink" x="0px" y="0px" viewBox="0 0 38.5 75.6"
	 style="enable-background:new 0 0 38.5 75.6;" xml:space="preserve">
<style type="text/css">
	.st0{fill:none;stroke:#000000;}
</style>
<path class="st0" d="M20.5,24c1.8,4,6.8,6,5.8,11c-2,13-15,4-23.3,1.9 M18.1,18.2C17.6,15,13.6,9.6,10.9,8c-4.2-2.5-2.7,6.5-2.1,8.5
	c2,6.2,8.8,4.2,12.5,0.7c4.5-4.1-0.9-6.1-4.2-7.9c-2.2-1.2-9-3.5-9.7-5.9c3.4,4,6.7,8.5,9.7,13C17.3,20,24.3,22,20.3,27
	c-5,5-10,9-17.4,9.2 M35.4,55.9c0,0-2.9-15.6-6.1-19.5c-0.5-0.6-2-1.5-2.7-1.5c-1.7-0.1-4.8,1.6-6.1,2.7c-1.9,1.5-4.7,5.6-5.8,7.8
	c-1.2,2.3-3.2,7.1-3.4,9.7c-0.2,2.5,0.6,7.6,1.8,9.7c1.1,1.9,7.3,3.9,6.6,6c-0.2,0.7-2.9-0.5-2.9,0.2"/>
</svg>
