<?xml version="1.0" encoding="utf-8"?>
<!-- Generator: Adobe Illustrator 24.0.0, SVG Export Plug-In . SVG Version: 6.00 Build 0)  -->
<svg version="1.1" id="Layer_1" xmlns:ev="http://www.w3.org/2001/xml-events"
	 xmlns="http://www.w3.org/2000/svg" xmlns:xlink="http://www.w3.org/1999/xlink" x="0px" y="0px" viewBox="0 0 72.2 131.8"
	 style="enable-background:new 0 0 72.2 131.8;" xml:space="preserve">
<style type="text/css">
	.st0{fill:none;stroke:#000000;stroke-width:1.0651;}
</style>
<path class="st0" d="M54,57l-9.3,51.1c0,0,5.6,5,6.3,7.4c0.7,2.2-1,9.3-1,9.3l-16.7,1.8 M3.2,95l3.6,10.9c0,0,8-0.9,10.6-1.1
	c2.7-0.1,10.8,0.2,10.8,0.2s-10.3-8.3-12.8-12.1c-1.4-2-2.6-7-3.8-9.2c-0.4-0.7-1.9-2.7-1.9-2.7s8.3-0.8,10.7-2.3
	c1.2-0.7,3.7-2.8,3.8-4.3c0.2-2-3.8-6.9-3.8-6.9 M29.7,79.3c0,0,9.2,8,12.4,10.4c1.8,1.4,7.5,5.3,7.5,5.3s5.3-2.2,6.4-3.8
	c0.7-1.1,0.8-4,1.1-5.3c1.1-4.2,4.3-12.2,5.4-16.3c0.6-2.1,1.8-8.7,1.8-8.7l-8.8-12.7c0,0-2.4-15.5-0.7-20.1
	c0.5-1.5,2.7-4.1,4.1-4.3c2-0.4,6.3,1.8,7.4,3.8c1.1,1.9,0.7,7.1,0,9.3c-1.1,3.8-8.7,12.8-8.7,12.8l-1-0.5l-7.6-15.3l-5.6-0.6
	l-5.9-10.5l-4.3-0.9l-7.6-19"/>
</svg>
