<?xml version="1.0" encoding="utf-8"?>
<!-- Generator: Adobe Illustrator 24.0.0, SVG Export Plug-In . SVG Version: 6.00 Build 0)  -->
<svg version="1.2" baseProfile="tiny" id="Layer_1" xmlns="http://www.w3.org/2000/svg" xmlns:xlink="http://www.w3.org/1999/xlink"
	 x="0px" y="0px" viewBox="0 0 52 75.3" xml:space="preserve">
<path fill="none" stroke="#010101" stroke-width="1.2712" d="M35.1,68.6L7.2,63.2c0,0,5.2-4.1,6.9-5.7c1.5-1.3,4.1-5,5.7-5.7
	c6-2.8,21.2,8.1,24.6-0.2c0.7-1.6-1.3-5.3-1.8-7c-0.9-3.4-2.3-9.6-2.9-13.3c-0.2-1.6,0.4-5.9-2.4-7.4c-1.2-0.6-4,2.2-4.1,7.2
	c-0.1,5.6,0.9,9.8,3.3,9.7c2.5-0.1,4-3.8,4.5-5.4c1.9-7,4.5-25.2,1-30.1c-0.7-1-2.7,1.1-3.7,1.1"/>
</svg>
