<?xml version="1.0" encoding="utf-8"?>
<!-- Generator: Adobe Illustrator 24.0.0, SVG Export Plug-In . SVG Version: 6.00 Build 0)  -->
<svg version="1.1" id="Layer_1" xmlns:ev="http://www.w3.org/2001/xml-events"
	 xmlns="http://www.w3.org/2000/svg" xmlns:xlink="http://www.w3.org/1999/xlink" x="0px" y="0px" viewBox="0 0 68 88.1"
	 style="enable-background:new 0 0 68 88.1;" xml:space="preserve">
<style type="text/css">
	.st0{fill:none;stroke:#000000;}
</style>
<path class="st0" d="M5.6,4.1L5.6,7.7c0,0,4.6,11.2,1.8,12.6c-0.7,0.3-2.5-1.7-2-2.2c1.6-1.6,4.4,5.4,6.5,6.4
	c2.3,1.1,7.7,1.1,10.2,1.4c0.8,0.1,2.5-0.3,3.2,0.2c0.3,0.2,0.4,1.2,0.8,1.4c1.1,0.7,4.1,0.9,5.4,0.5c1.3-0.4,3-2.9,4.3-3.5
	c1.6-0.8,6.7-0.2,6.8-2c0.2-1.6-4.2-3.3-5.7-3c-2.9,0.6-7.4,6.4-7.5,9.4c0,2,3.1,5.3,4.7,6.4c3.2,2.2,12.4,1.2,14.9,4.2
	c5.3,6.4,2.5,30.8,2.9,34.9c0.1,1.6,2.9,4,3.5,5.5c0.2,0.6,0.2,2,0.6,2.4c1.4,1.2,7.1,2.5,7.5,0.6c1.6-8.1-28.6-2-31.6-9.7
	c-0.7-1.9,5.5-5.4,4.2-6.9c-0.9-1-5,1-5,2.4"/>
</svg>
