<?xml version="1.0" encoding="utf-8"?>
<!-- Generator: Adobe Illustrator 24.0.0, SVG Export Plug-In . SVG Version: 6.00 Build 0)  -->
<svg version="1.1" id="Layer_1" xmlns:ev="http://www.w3.org/2001/xml-events"
	 xmlns="http://www.w3.org/2000/svg" xmlns:xlink="http://www.w3.org/1999/xlink" x="0px" y="0px" viewBox="0 0 67.3 93.7"
	 style="enable-background:new 0 0 67.3 93.7;" xml:space="preserve">
<style type="text/css">
	.st0{fill:none;stroke:#000000;}
</style>
<path class="st0" d="M62.8,89.2c0,0-8.2,1.4-10.6,0.4c-0.8-0.3-2.2-2.5-2.2-2.5l6.3-5.3l0.2,0.4l-2.6-5.6c0,0-2-10.6-3.8-13.7
	c-1.6-2.7-6.7-6.7-8.5-9.3c-1.4-2-3.4-6.6-4.5-8.8c-0.8-1.6-1.7-5.5-3.2-6.6c-1.7-1.2-6.2-0.4-8.2-1c-1.2-0.4-3.9-1.3-4.5-2.4
	c-1.7-2.6-2.1-9.7-0.6-12.3c1.2-2,6.2-3.2,8.4-4.2c0.9-0.4,2.6-1,3.5-1.4c1.1-0.5,3.5-1.3,4.4-2.2c1-1,2.6-3.6,2.7-5
	c0.2-1.6,0-5.8-1.5-6.3c-0.4-0.1-0.9,0.8-1.1,1.1c-2,2.5-5.3,8.1-6.6,11c-1.2,2.7-3.1,8.3-3.2,11.3c-0.1,2.9,2.2,8.3,2.7,11.1
	c0.5,2.9,3.2,9.6,1,11.6c-1.5,1.4-6.7-2.7-8.3-1.3c-3.8,3.4,0.8,20.2,0.8,20.2L4.2,69.6l10.3,12.9"/>
</svg>
