<?xml version="1.0" encoding="utf-8"?>
<!-- Generator: Adobe Illustrator 24.0.0, SVG Export Plug-In . SVG Version: 6.00 Build 0)  -->
<svg version="1.1" xmlns="http://www.w3.org/2000/svg" xmlns:xlink="http://www.w3.org/1999/xlink" x="0px" y="0px"
	 viewBox="0 0 30 64.3" style="enable-background:new 0 0 30 64.3;" xml:space="preserve">
<style type="text/css">
	.st0{fill:none;stroke:#000000;stroke-width:1.231;}
</style>
<g id="Layer_1" xmlns:ev="http://www.w3.org/2001/xml-events">
</g>
<g id="Isolation_Mode">
	<path class="st0" d="M27,37c-0.3,1.2,1.1,3,1,4.2c-0.3,3.1-2.9,9.5-4.7,11.8C21,56.2,13.3,63.9,12,60.6c-1-2.6,7.7-6.9,7.2-9.9
		c-0.3-2.2-5.2,0.4-6.5-0.8c-1.3-1.2-1.8-6.3-2.8-8C9.2,40.6,7.6,38,6.4,38c-1.1,0.1-4,2.2-4.1,3.8c-0.3,4,6.1,8.8,8.8,7
		c1.9-1.2,2.8-8,3-10.7c0.7-9-4.4-33.5-4.4-33.5"/>
</g>
</svg>
