<?xml version="1.0" encoding="utf-8"?>
<!-- Generator: Adobe Illustrator 24.0.0, SVG Export Plug-In . SVG Version: 6.00 Build 0)  -->
<svg version="1.1" id="Layer_1" xmlns:ev="http://www.w3.org/2001/xml-events"
	 xmlns="http://www.w3.org/2000/svg" xmlns:xlink="http://www.w3.org/1999/xlink" x="0px" y="0px" viewBox="0 0 69.4 175.7"
	 style="enable-background:new 0 0 69.4 175.7;" xml:space="preserve">
<style type="text/css">
	.st0{fill:none;stroke:#000000;}
</style>
<path class="st0" d="M7.4,166.2c0,0,42.8-20,43.8-33.7c0.3-4.1-9-8.5-11.5-11.8c-3.2-4.2-9.4-12.9-10.7-18
	c-3-11.9,1.2-36.7,2.2-48.9c0.9-10.9-1.3-34.4,5-43.3c0.4-0.6,1.9-1.6,2.6-1.3c3.1,1.5,1.5,10.3,3.1,13.3c0.7,1.4,2.8,3.8,4.2,4.7
	c1.7,1.1,7.7,0.2,7.7,2.2 M61.2,61c2.4-2.3,2.6-10.5,0.9-13.3c-0.6-0.9-2.9-1.8-3.9-1.9c-1.5-0.1-4.3,1.2-5.7,1.6
	c-4.2,1.4-16.3,2-16.4,6.4c0,2.4,7,2.1,8.8,3.7c1.6,1.5,3,5.7,3.9,7.7c0.5,1.1,2.2,3.5,1.7,4.6c-1.3,3.2-9.3,4.3-12.6,5.5
	c-1,0.4-3.3,1.9-4.1,1.2c-0.9-0.9,1.1-3.5,1.5-4.7c0.1-0.4,0.8-1.5,0.4-1.8c-1.1-1.1-4.4,1.6-6,1.9c-4,0.9-13-0.6-16.2,1.9
	c-3.3,2.5-4.9,11.5-5.9,15.5c-0.5,1.8-1.5,5.4-1.2,7.2c0.2,1.1,1.3,3.3,2.3,3.7c0.7,0.2,2.1-0.5,2.7-0.9c3.4-2.1,8.3-8.8,11.3-11.5
	c2.1-1.9,6.5-5.3,8.7-7C35.5,77.6,42.8,68.7,48,68c2.7-0.3,7.5,5.4,10.1,4.3c2-0.8,3.9-5.8,3.3-7.8c-1-3.3-11.5-4.1-11.5-7.6"/>
</svg>
