<?xml version="1.0" encoding="utf-8"?>
<!-- Generator: Adobe Illustrator 24.0.0, SVG Export Plug-In . SVG Version: 6.00 Build 0)  -->
<svg version="1.1" id="Layer_1" xmlns:ev="http://www.w3.org/2001/xml-events"
	 xmlns="http://www.w3.org/2000/svg" xmlns:xlink="http://www.w3.org/1999/xlink" x="0px" y="0px" viewBox="0 0 88.2 140.3"
	 style="enable-background:new 0 0 88.2 140.3;" xml:space="preserve">
<style type="text/css">
	.st0{fill:none;stroke:#000000;stroke-width:1.741;stroke-linecap:round;}
</style>
<path class="st0" d="M6.5,60.8c0-3,1.8-9,2.5-12c1-4.4-0.5-15.9,4.6-17.6c9.8-3.1,24.5,17.1,34.6,19.5c2.1,0.5,6.6-0.9,8.7-0.3
	c6.1,1.5,14.7,14.5,20.5,12.4c0.5-0.2,0.1-1.4,0.2-1.8c0.5-2.3,4.2-7.2,2.6-9.1c-2-2.4-12.1,0.5-14.2-1.9c-1.5-1.7,1.8-6.1,1.7-8.2
	c-0.2-3.5-2.1-10.7-4.5-13.6c-1.5-1.8-5.7-5.1-8.4-5.2c-3.6-0.1-12.2,3.4-12.2,6.3c0,1.8,5.6,3.2,7.7,3.8c6.2,1.7,21.7,5.9,26.2,2
	c2.3-2-2.4-8-2.4-10.7 M17.9,7.3c0,4.5-3.5,14.6,0.2,17.9c6.5,5.7,30.3-1.7,38.1,2.9c4.9,2.9,3.5,18.3,9.6,18c0.8,0,1.5-2.1,1-2.6
	c-1.2-1.3-7.5-1.8-8-0.3c-0.2,0.6,1.9,1.5,2.5,1.2c1.8-0.9-1-5.1-1-6.8 M44.2,56.9c0,4.2-7.8,11.7-7,15.9c0.6,3.4,8.9,7.7,10.3,11
	c1,2.4,0.6,7.6,0,10c-2.9,10.7-9.2,39.6-22.7,39.6c-3.7,0-5.5-8.1-5.4-11c0.1-4.1,8.4-10.7,8.4-14.7"/>
</svg>
