<?xml version="1.0" encoding="utf-8"?>
<!-- Generator: Adobe Illustrator 24.0.0, SVG Export Plug-In . SVG Version: 6.00 Build 0)  -->
<svg version="1.1" id="Layer_1" xmlns:ev="http://www.w3.org/2001/xml-events"
	 xmlns="http://www.w3.org/2000/svg" xmlns:xlink="http://www.w3.org/1999/xlink" x="0px" y="0px" viewBox="0 0 73.7 113.7"
	 style="enable-background:new 0 0 73.7 113.7;" xml:space="preserve">
<style type="text/css">
	.st0{fill:none;stroke:#000000;}
</style>
<path class="st0" d="M19.6,12.2l1.8-7.4l-0.4,17.4l5.5-0.7l4.5,4.4l3.5,5.5c0,0,9.8,8,11.8,11.7c0.5,1,1.2,3.3,1,4.5
	c-0.4,1.6-2.7,4.7-4.3,5.2c-1.8,0.5-5.4-1.2-7-2.2c-2.5-1.6-6.3-6.2-8.1-8.5c-0.5-0.7-1.4-2.1-1.7-2.8c0-0.1-0.1-0.3-0.1-0.3
	c1.4-1.6,6.7-0.7,8.6,0.4c1.8,1,5.2,4.9,4.7,7c-1,4.4-12,6.6-15.5,9.4C19.2,59.3,7,72.6,7,72.6l0.2-0.8l-0.3,10l-0.9,7l1,6l2.5,6.3
	l2.2,4.1l-5.6,3.6l7.3-4l4.6,0l13.9-27l-0.3-1.4l7.9,13.8l7.5,4.3l21.3,8l-9.7-3"/>
</svg>
