<?xml version="1.0" encoding="utf-8"?>
<!-- Generator: Adobe Illustrator 24.0.0, SVG Export Plug-In . SVG Version: 6.00 Build 0)  -->
<svg version="1.1" id="Layer_1" xmlns:ev="http://www.w3.org/2001/xml-events"
	 xmlns="http://www.w3.org/2000/svg" xmlns:xlink="http://www.w3.org/1999/xlink" x="0px" y="0px" viewBox="0 0 103.7 133.3"
	 style="enable-background:new 0 0 103.7 133.3;" xml:space="preserve">
<style type="text/css">
	.st0{fill:none;stroke:#000000;}
</style>
<path class="st0" d="M84.7,127.2c0,0-2.3-28.6-7.9-35.8C74,87.9,62.3,87.7,61,83.5c-4.7-15.4,21.9-43.3,31.7-56.1
	c0.6-0.8,3.3-1.9,2.9-2.9c-0.2-0.6-2,0-2.7-0.1c-1.8-0.2-6.6,0.2-7-1.6c-0.7-3.5,10.7-4.8,11.7-8.2c0.7-2.4-1.2-8.6-3.5-9.4
	c-2.2-0.7-6.5,3.1-7.5,5.1c-1.5,2.9,1.9,10.1,0.6,13.2c-0.7,1.5-4.1,3-5.2,4.3c-1.3,1.6-2,3.3-1.7,3.8c0.3,0.5,0.8,0.9,1.1,1
	c2.5,0.5,10.3,2.1,10.4-0.5c0.2-3.8-11.2-2.6-14.9-2.1c-0.1,0-0.5,0.1-0.5,0.2c-0.2,0.7,1.4,2,1.7,2.6c1.2,2.4,3.3,7.6,2.5,10.2
	c-0.7,2.2-5,4.6-6.5,6.3c-2.6,2.9-7.2,9.4-9.6,12.5c-1.2,1.5-3.5,4.5-4.6,6.1c-0.7,1-1.7,3.3-2.5,4.2c-2.2,2.3-8.2,5.2-10.7,7.2
	c-2.8,2.1-8.7,6.3-10.6,9.3c-2.3,3.6-2.3,13-4.8,16.5c-1.1,1.5-4.2,3.9-6,4.1c-2.5,0.3-7.1-2.4-9.3-3.5c-2.6-1.2-9.7-3.1-9.7-5.9"/>
</svg>
