<?xml version="1.0" encoding="utf-8"?>
<!-- Generator: Adobe Illustrator 24.0.0, SVG Export Plug-In . SVG Version: 6.00 Build 0)  -->
<svg version="1.1" id="Layer_1" xmlns:ev="http://www.w3.org/2001/xml-events"
	 xmlns="http://www.w3.org/2000/svg" xmlns:xlink="http://www.w3.org/1999/xlink" x="0px" y="0px" viewBox="0 0 49.9 82.3"
	 style="enable-background:new 0 0 49.9 82.3;" xml:space="preserve">
<style type="text/css">
	.st0{fill:none;stroke:#000000;}
</style>
<path class="st0" d="M31.3,22.6c0-5.2-10.6-14.6-8-19.1C24,2.2,28,2,29.3,2.8c1.6,0.9,3.5,5.1,3.1,6.9c-0.1,0.7-2.2,1.3-2.1,2.1
	c0,1.8,4.9,3,5.3,4.8c0.3,1.4-1,4.3-2,5.3c-1.9,1.9-8.5,1.4-10,3.5c-0.8,1.2-1.2,4.8-0.1,5.8c3.9,3.4,16,0,20.4-2.7
	c1.2-0.8,3.3-3.4,3.3-4.8 M12.3,25.6c0,0.6-0.5,1.9-0.1,2.2c1.7,1.3,6.3-1.7,8.4-2.4c1.3-0.5,5-0.8,5.1-2.2c0.1-1.7-4.2-2.8-5.8-3.4
	c-2.2-0.8-9.3,0.9-9.3-1.5 M9.6,34.1c0,1.8,0.7,5.8,2.3,6.6c2.8,1.5,9.1-3.7,12.2-3.2c4.9,0.8,11.9,12.9,16.5,11.1
	c0.5-0.2,1-1.9,0.5-2c-1.2-0.4-0.9,3.7-1.8,4.5c-1.8,1.5-7,2.7-9.1,1.9c-2.2-0.8-4.1-5.8-5.8-7.5c-1.6-1.6-4.7-5.8-7-5.9
	c-2.2-0.1-10.2,11.8-11,15.8c-0.2,0.8,0.1,2.5,0,3.3c-0.5,3-4.3,8.8-3.6,11.8c0.7,2.8,7.9,8.1,7.9,8.1"/>
</svg>
