<?xml version="1.0" encoding="utf-8"?>
<!-- Generator: Adobe Illustrator 24.0.0, SVG Export Plug-In . SVG Version: 6.00 Build 0)  -->
<svg version="1.1" id="Layer_1" xmlns:ev="http://www.w3.org/2001/xml-events"
	 xmlns="http://www.w3.org/2000/svg" xmlns:xlink="http://www.w3.org/1999/xlink" x="0px" y="0px" viewBox="0 0 81.8 160.4"
	 style="enable-background:new 0 0 81.8 160.4;" xml:space="preserve">
<style type="text/css">
	.st0{fill:none;stroke:#000000;}
</style>
<path class="st0" d="M7.6,115.3c0-8.7-2.2-26.8,1.1-34.9c0.6-1.4,3-3.4,4-4.5c1.6-1.7,4.9-5,6.8-6.4c1.3-1,5.6-1.7,5.6-3.3"/>
<path class="st0" d="M19.8,94.1c0,1.6-1.1,4.8-0.6,6.3c0.2,0.5,1,1.4,1.5,1.7c3.4,1.4,14.8,2.8,14.8-0.9"/>
<path class="st0" d="M34.9,119.2c-2.9,5.2-10.9,4.2-13.9,9.2c-1,3,2,5,4,7c4,2,10,2,13,6c2,4,1,9-2,13c-6-2-11-5-17-7c-4-2-2-8-4-12
	c-2-2-4-4-2-8c4-6,10-10,17-12c4-2,7-5,7-9c-1-5,0-9,0-14c0-2-3-3-2-4c1-6,4-12,10-12c11,0,30-4,32,11c-7,5-17,5-25,8c-3,0-6,1-8-2
	c-6-13-1.6-28.2,2-41c0.9-3,2.5-5.9,3-9c0.2-1,1.5-2.7,2-4c0.8-1.8,0-3,1-5c3-6,5-11,8-17c1-2,0-4,1-5s3-3,3.1-5.5"/>
</svg>
