<?xml version="1.0" encoding="utf-8"?>
<!-- Generator: Adobe Illustrator 24.0.0, SVG Export Plug-In . SVG Version: 6.00 Build 0)  -->
<svg version="1.1" id="Layer_1" xmlns:ev="http://www.w3.org/2001/xml-events"
	 xmlns="http://www.w3.org/2000/svg" xmlns:xlink="http://www.w3.org/1999/xlink" x="0px" y="0px" viewBox="0 0 60.7 117.4"
	 style="enable-background:new 0 0 60.7 117.4;" xml:space="preserve">
<style type="text/css">
	.st0{fill:none;stroke:#000000;}
</style>
<path class="st0" d="M57.9,55c0,0.2-0.6,0.2-0.8,0.4c-5.1,4.7-9,18.8-13.3,24.2c-7.9,10-37.7,34.1-37.7,34.1 M2.7,97.3
	c0-2.2,3.1-5.9,4.9-7.2c1.9-1.4,6.8-2.2,9.2-2.6c1.7-0.3,5.4,0.2,7-0.4c2.7-0.9,7.4-8.6,9.3-6.5c0.7,0.8-2.1,4-2.9,3.3
	c-3.7-3.1,12-10.1,12.3-14.9c0.5-7.3-12.9-17.8-15.5-24.6c-1.9-5.1,1.8-21-3.6-21.6c-1.2-0.1-1.2-0.4-2.5-0.7
	c-2.2-0.5-5.3,5.5-4.7,7.7c0.4,1.3,3.5,2.2,4.9,2.3c2.9,0.3,9-0.9,11.4-2.6c1.8-1.2,4.7-5,4.9-7.2c0.4-5.1-4.1-20-9.1-18.5
	c-1.9,0.6-2.1,6.6-1.9,9.8s0.6,8.7,2,11.3c0.6,1.1,2.7,2.4,3.5,3.3c0.8,1,1.7,3.7,2.7,4.4c1.8,1.3,6.6,1.2,8.7,1.7"/>
</svg>
