<?xml version="1.0" encoding="utf-8"?>
<!-- Generator: Adobe Illustrator 24.0.0, SVG Export Plug-In . SVG Version: 6.00 Build 0)  -->
<svg version="1.1" id="Layer_1" xmlns:ev="http://www.w3.org/2001/xml-events"
	 xmlns="http://www.w3.org/2000/svg" xmlns:xlink="http://www.w3.org/1999/xlink" x="0px" y="0px" viewBox="0 0 48.7 86"
	 style="enable-background:new 0 0 48.7 86;" xml:space="preserve">
<style type="text/css">
	.st0{fill:none;stroke:#000000;}
</style>
<path class="st0" d="M28.5,39l-4.7-4.8l6-1l-1.6-1.1l-8.6-8L12,19.5l7.1-5.6c0,0,3.8-4.7,3.3-6.5c-0.5-1.9-4.6-4.1-6.5-4.3
	c-1.5-0.1-5,1-5.7,2.4c-1,2.2,3,9.5,3,9.5l5.1,4.4l-9.6,7.9l9.8,33.6l14.2-1.6l3,1.9l2.6,1l2.6,3.3L44.7,81l-3.4-14.7
	c0,0-3.2-0.2-4-0.9c-1.2-1-1.1-4.7-2-5.9c-0.8-1.1-3.7-2.1-4.6-3.2c-1.7-1.9-3.5-7-5.5-8.7c-1.6-1.3-5.8-4.3-7.6-3.2
	C15.5,45.8,16.9,55,16.9,55l2.2,9.1l14.6,19l-14.6-19c0,0-7.5-1-10.3-2.4c-1.2-0.6-3.2-2.6-3.7-3.8c-1.3-3.5,0.6-15,0.6-15"/>
</svg>
