<?xml version="1.0" encoding="utf-8"?>
<!-- Generator: Adobe Illustrator 24.0.0, SVG Export Plug-In . SVG Version: 6.00 Build 0)  -->
<svg version="1.1" id="Layer_1" xmlns:ev="http://www.w3.org/2001/xml-events"
	 xmlns="http://www.w3.org/2000/svg" xmlns:xlink="http://www.w3.org/1999/xlink" x="0px" y="0px" viewBox="0 0 67 97.3"
	 style="enable-background:new 0 0 67 97.3;" xml:space="preserve">
<style type="text/css">
	.st0{fill:none;stroke:#000000;}
</style>
<path class="st0" d="M4.2,26.7l2.6,2.9c0,0,4.2,1.8,5.3,2.8c1,0.9,1.8,3.7,3,4.4c2.6,1.4,9-1.1,11.8,0c6.2,2.5,16.4,12.7,19,18.9
	c0.3,0.7,0.2,2.4,0,3.2c-0.6,1.7-4.4,3.8-4.4,5.6c0,1.6,4.2,3.5,4.1,5.1c-0.2,1.9-4.4,3.7-5.9,5c-2.2,2-8.4,5.1-8.7,8.1
	c-0.2,2.2,3.4,5.7,5.1,7.1c1.8,1.4,6.1,3.6,8.3,3.2c4.5-0.7,11.7-7.7,14.4-11.4c1.2-1.7,2.3-5.7,2.5-7.7c0.1-1.1,0.5-3.7-0.4-4.4
	c-1.2-1-4.7-0.2-6.1,0.4c-1.4,0.6-4.5,2.7-4.6,4.3c-0.2,3.3,5.4,9.7,8.7,10.1c1.1,0.1,3.3-1.6,3.6-2.7c0.7-2.9-5.1-6.9-3.5-9.4
	 M42.4,13c0.9-1.5,5.7,2.2,7.1,1c1.7-1.4-1.5-7.5,0.2-9c1.3-1,4.9,0.4,6.4,1.1c0.8,0.4,2.7,1.3,2.9,2.2c0.4,2.5-4.6,6-6,8.2
	c-1.4,2.3-4.8,6.8-4.9,9.4c-0.1,3.9,4.8,10.6,6.3,14.1c0.4,1,1.9,2.9,1.7,4c-0.4,2.5-5.7,5.2-6.8,7.6c-0.8,1.7-1.3,5.5-0.9,7.3
	c0.4,1.8,4.9,4.5,4,6"/>
</svg>
