<?xml version="1.0" encoding="utf-8"?>
<!-- Generator: Adobe Illustrator 24.0.0, SVG Export Plug-In . SVG Version: 6.00 Build 0)  -->
<svg version="1.1" id="Layer_1" xmlns:ev="http://www.w3.org/2001/xml-events"
	 xmlns="http://www.w3.org/2000/svg" xmlns:xlink="http://www.w3.org/1999/xlink" x="0px" y="0px" viewBox="0 0 85.4 120.4"
	 style="enable-background:new 0 0 85.4 120.4;" xml:space="preserve">
<style type="text/css">
	.st0{fill:none;stroke:#000000;stroke-width:0.8956;}
</style>
<path class="st0" d="M30.7,3.4c0,2.9,5.7,5.9,6,8.8c0.2,2-2.7,5.3-2.7,7.3c0,1.2,1.1,3.6,1.9,4.3c1.7,1.7,6.5,1.6,8.3,3.1
	c1.1,0.9,2.5,3.7,3.4,4.8c1.9,2.3,5.7,7,8,8.4c2,1.2,7.8-0.1,8.9,2.4c0.5,1.3-1.7,4-1.9,5.4c-0.2,1.5,1,4.6,0.4,5.9
	c-0.6,1.2-3,2.6-4.1,2.4c-1-0.2-2.8-2.3-2.9-3.5c-0.1-1.6,1.7-4.8,2.9-5.5c0.8-0.4,2.7-0.1,3.4,0.5c0.4,0.4,0.8,1.7,0.9,2.3
	c0.6,2.4,1.8,7.5,1,9.8c-0.8,2.4-5.3,4.4-6.6,6.4c-1.4,2.2-5.6,8.6-3.8,10.4c0.2,0.2,0.6-0.8,0.9-0.8c3.6-0.8,10.9,3,14.1,5.3
	c3.4,2.5,7.6,15.7,11.4,14c3.2-1.5,1.2-17.1,1.2-17.1 M53.3,73.6c0-1.8-1.8-5.6-3.2-6c-2.8-0.8-8.5,4.1-9.9,7.2
	c-2,4.6,1,15.7,0.3,20.9c-0.2,1.7-0.7,5.5-1.8,6.6c-2.4,2.2-9-0.5-11.9,0.4c-3.1,0.9-9.3,4-11.7,6.7c-1.1,1.2-1.8,5.3-3,6.4
	c-1.1,0.9-4.1,2.1-5.1,1.2c-0.5-0.5,0.3-2.7-0.2-3.2c-0.6-0.6-3.1-0.7-3.1,0.2"/>
</svg>
