<?xml version="1.0" encoding="utf-8"?>
<!-- Generator: Adobe Illustrator 24.0.0, SVG Export Plug-In . SVG Version: 6.00 Build 0)  -->
<svg version="1.1" id="Layer_1" xmlns:ev="http://www.w3.org/2001/xml-events"
	 xmlns="http://www.w3.org/2000/svg" xmlns:xlink="http://www.w3.org/1999/xlink" x="0px" y="0px" viewBox="0 0 53.8 139.9"
	 style="enable-background:new 0 0 53.8 139.9;" xml:space="preserve">
<style type="text/css">
	.st0{fill:none;stroke:#000000;}
</style>
<path class="st0" d="M18.7,52.1c0-2.6,7.3,3.2,8.8,1c7.2-10.3-14.3-48-14.3-48 M37.4,134.6c2,1.3,9.4-2.2,9.4-4.6
	c0-3.2-9.5-0.4-12.6-0.4c-2.4,0-8.1,2.5-9.6,0.6c-0.7-0.9,1-3.3,1.4-4.3c1.7-4.3,8.9-12.4,7.6-16.9c-1.5-5.2-18.1-6.4-18.1-11.8
	 M24.2,81.6c0.8-2,2.6-3.9,3.6-4.9c1.9-1.8,4.8-1.2,7.1-2.4c3.7-1.9,14.4-7.1,12.5-10.7c-1.5-2.9-10.3,0.6-12.6,3
	c-2.5,2.5-3.1,10.3-3,13.9c0.3,6.7,11.3,19.8,7.8,25.5c-1.3,2.1-2.2,2.8-6.1,3.2 M5.9,21.3c0,3.8-1.6,12.2,0.9,15
	c1.3,1.4,6,0,7.5,1.2c1.9,1.5,3.2,6.6,3.8,8.9c1,3.8,0.3,11.8,1.5,15.6c0.9,2.9,5.4,7.5,6,10.4c0.5,2.2-1,6.1-1.5,9.3"/>
</svg>
