<?xml version="1.0" encoding="utf-8"?>
<!-- Generator: Adobe Illustrator 24.0.0, SVG Export Plug-In . SVG Version: 6.00 Build 0)  -->
<svg version="1.1" id="Layer_1" xmlns:ev="http://www.w3.org/2001/xml-events"
	 xmlns="http://www.w3.org/2000/svg" xmlns:xlink="http://www.w3.org/1999/xlink" x="0px" y="0px" viewBox="0 0 110.3 193.5"
	 style="enable-background:new 0 0 110.3 193.5;" xml:space="preserve">
<style type="text/css">
	.st0{fill:none;stroke:#000000;stroke-width:0.92;}
</style>
<path class="st0" d="M4.7,132.2l3.1-0.8l-2.2-4.7L5.1,114l10.7-1.6l12.6,0.4l7.3,0.6c0,0,4.4-11.5,6-12c23.6-7.1,24.2,5.6,20.2,10.7
	c-2.7,3.5-5.8,5.8-10.1,2.6c-8-6-1.9-16.4-1-19.5c1.1-3.9,6.6-9.7,8.8-12.9c2-2.9,5.7-9,7.9-11.7c1.5-1.9,5.8-4.4,6.7-6.7
	c1.3-3.1-0.2-10.5,0.5-13.8c0.6-3.2,3.5-8.8,4.6-11.8c1.9-5.6,4-17.8,6.8-22.8c1.6-2.9,5.6-9.5,8.5-9.3c1,0.1,1.5,3.3,2.4,3.6
	c1.3,0.4,3.7-2.4,5-2c1.3,0.4,3.6,3.1,3.6,4.7c0,5.6-10.7,11.4-12.9,16.4c-3.7,8.2-2.6,28.3-6.9,36c-4.5,8-21.7,14.4-26.5,22.1
	c-2.3,3.7-5,13.1-4.6,17.7c0.5,5.5,9.3,19.1,9.3,19.1l-1.1,3.4l4,5.6l-1.4,5.9l-5.6,15.2l-2.3,24.5l-8.3,10.8l-13.5-14.5"/>
</svg>
