<?xml version="1.0" encoding="utf-8"?>
<!-- Generator: Adobe Illustrator 24.0.0, SVG Export Plug-In . SVG Version: 6.00 Build 0)  -->
<svg version="1.1" id="Layer_1" xmlns:ev="http://www.w3.org/2001/xml-events"
	 xmlns="http://www.w3.org/2000/svg" xmlns:xlink="http://www.w3.org/1999/xlink" x="0px" y="0px" viewBox="0 0 149.6 296.2"
	 style="enable-background:new 0 0 149.6 296.2;" xml:space="preserve">
<style type="text/css">
	.st0{fill:none;stroke:#000000;}
</style>
<path class="st0" d="M50,286.5c0,0-10.9-39.5-9.2-52.9c1.4-10.8,9.3-33.1,18-39.7c1.9-1.4,7-1.9,9.3-1.4c1.4,0.3,4,2.1,4.8,3.3
	c0.5,0.8,0.6,2.7,0.8,3.6c0.8,2.9,23.2,78.9,23.2,81.9 M59.9,186.7c0-3,0.8-8.9,0.7-11.9c-0.1-4-0.9-12-1.8-15.9
	c-0.5-2.1-1.4-6.5-2.8-8c-1.7-1.8-6.8-3.1-9.1-4.1c-1.9-0.8-5.8-2-7.7-2.9c-3.5-1.8-12-5.1-12.9-8.9c-0.7-2.8,5.9-7.3,5.5-10.2
	c-0.3-2.7-5.5-6.2-7.5-8.1c-1.5-1.5-4.4-5.7-6.5-5.4c-4.3,0.6-10.7,10.4-9.6,14.6c1.2,4.9,13,7.7,17.7,9.6
	c3.7,1.5,11.4,3.7,15.3,4.2c3.6,0.4,10.8-0.6,14.4-0.3c3.6,0.3,10.7,3,14.3,3c2.7,0,8-2.2,10.7-2.1c4.6,0.2,13.4,3.4,17.6,5.3
	c1.4,0.6,3.8,2.5,5.1,3.1c2.9,1.4,8.9,5.6,11.9,4.5c0.5-0.2,1.1-1.2,0.9-1.7c-0.2-0.8-2.9-0.8-2.9-1.7 M129.2,11.2
	c0,2.4,8.6-0.2,9.5,2.1c0.9,2.4-3.8,6.9-5.9,8.3c-5.1,3.4-17.9,4.2-23.9,5.7c-1.7,0.4-5.1,1-6.7,1.7c-1.3,0.6-3.9,2.3-4.7,3.5
	c-1.5,2.3-2,8-2.6,10.7c-0.4,1.5-0.5,4.6-1.4,5.8c-1.6,2-7.1,3.1-8.9,4.9c-1.3,1.2-2.1,5.1-3.5,6.2c-7.4,5.9-27.9,6.6-36.3,10.8
	c-7,3.5-25.1,11-25.1,18.9"/>
</svg>
