<svg viewBox="-660 -408.5 1320 817" width="1320pt" height="817pt" xmlns="http://www.w3.org/2000/svg" style="touch-action: none; background-color: rgb(255, 255, 255);"><path d="M-31.892465166193517,-3.884786116313364e-14L-30.331536413974078,9.855313372501222L7.751779359547167,-2.518705878714597zM-30.331536413974078,9.855313372501222L-25.801545955598023,18.745920382084062L6.594057475459664,-4.790862860241534zM-25.801545955598023,18.745920382084062L-18.745920382084098,25.801545955597984L4.790862860241495,-6.594057475459704zM-18.745920382084098,25.801545955597984L-9.85531337250126,30.331536413974042L2.5187058787145573,-7.751779359547208zM-9.85531337250126,30.331536413974042L-1.952850349918601e-15,31.892465166193485L4.990866303735426e-16,-8.15070271223988zM-1.952850349918601e-15,31.892465166193485L9.85531337250126,30.331536413974042L-2.5187058787145573,-7.751779359547208zM9.85531337250126,30.331536413974042L18.745920382084098,25.801545955597984L-4.790862860241495,-6.594057475459704zM18.745920382084098,25.801545955597984L25.801545955598023,18.745920382084062L-6.594057475459664,-4.790862860241534zM25.801545955598023,18.745920382084062L30.331536413974078,9.855313372501222L-7.751779359547167,-2.518705878714597zM30.331536413974078,9.855313372501222L31.892465166193517,-3.4942160463296435e-14L-8.150702712239841,-3.984900401812096e-14zM31.892465166193517,-3.4942160463296435e-14L30.331536413974078,-9.8553133725013L-7.751779359547167,2.5187058787145187zM30.331536413974078,-9.8553133725013L25.801545955598023,-18.74592038208414L-6.594057475459664,4.7908628602414565zM25.801545955598023,-18.74592038208414L18.745920382084098,-25.801545955598062L-4.790862860241495,6.594057475459627zM18.745920382084098,-25.801545955598062L9.85531337250126,-30.33153641397412L-2.5187058787145573,7.75177935954713zM9.85531337250126,-30.33153641397412L5.858551049755804e-15,-31.892465166193567L-1.4972598376911032e-15,8.150702712239802zM5.858551049755804e-15,-31.892465166193567L-9.85531337250126,-30.33153641397412L2.5187058787145573,7.75177935954713zM-9.85531337250126,-30.33153641397412L-18.745920382084098,-25.801545955598062L4.790862860241495,6.594057475459627zM-18.745920382084098,-25.801545955598062L-25.801545955598023,-18.74592038208414L6.594057475459664,4.7908628602414565zM-25.801545955598023,-18.74592038208414L-30.331536413974078,-9.8553133725013L7.751779359547167,2.5187058787145187zM-30.331536413974078,-9.8553133725013L-31.892465166193517,-4.665926256280805e-14L8.150702712239841,-3.68544842358797e-14zM-31.892465166193517,-3.884786116313364e-14L-72.71605170099186,-3.884393918507528e-14L-30.331536413974078,9.855313372501222zM-30.331536413974078,9.855313372501222L-69.1570791830079,22.47049664834517L-25.801545955598023,18.745920382084062zM-25.801545955598023,18.745920382084062L-58.82852249884114,42.74142411077092L-18.745920382084098,25.801545955597984zM-18.745920382084098,25.801545955597984L-42.74142411077095,58.82852249884111L-9.85531337250126,30.331536413974042zM-9.85531337250126,30.331536413974042L-22.470496648345204,69.15707918300787L-1.952850349918601e-15,31.892465166193485zM-1.952850349918601e-15,31.892465166193485L-4.452573982826394e-15,72.71605170099184L9.85531337250126,30.331536413974042zM9.85531337250126,30.331536413974042L22.470496648345204,69.15707918300787L18.745920382084098,25.801545955597984zM18.745920382084098,25.801545955597984L42.74142411077095,58.82852249884111L25.801545955598023,18.745920382084062zM25.801545955598023,18.745920382084062L58.82852249884114,42.74142411077092L30.331536413974078,9.855313372501222zM30.331536413974078,9.855313372501222L69.1570791830079,22.47049664834517L31.892465166193517,-3.4942160463296435e-14zM31.892465166193517,-3.4942160463296435e-14L72.71605170099186,-2.9938791219422494e-14L30.331536413974078,-9.8553133725013zM30.331536413974078,-9.8553133725013L69.1570791830079,-22.470496648345247L25.801545955598023,-18.74592038208414zM25.801545955598023,-18.74592038208414L58.82852249884114,-42.741424110771L18.745920382084098,-25.801545955598062zM18.745920382084098,-25.801545955598062L42.74142411077095,-58.828522498841174L9.85531337250126,-30.33153641397412zM9.85531337250126,-30.33153641397412L22.470496648345204,-69.15707918300794L5.858551049755804e-15,-31.892465166193567zM5.858551049755804e-15,-31.892465166193567L1.335772238987319e-14,-72.7160517009919L-9.85531337250126,-30.33153641397412zM-9.85531337250126,-30.33153641397412L-22.470496648345204,-69.15707918300794L-18.745920382084098,-25.801545955598062zM-18.745920382084098,-25.801545955598062L-42.74142411077095,-58.828522498841174L-25.801545955598023,-18.74592038208414zM-25.801545955598023,-18.74592038208414L-58.82852249884114,-42.741424110771L-30.331536413974078,-9.8553133725013zM-30.331536413974078,-9.8553133725013L-69.1570791830079,-22.470496648345247L-31.892465166193517,-4.665926256280805e-14zM-72.71605170099186,-3.884393918507528e-14L-69.1570791830079,22.47049664834517L-30.331536413974078,9.855313372501222zM-69.1570791830079,22.47049664834517L-58.82852249884114,42.74142411077092L-25.801545955598023,18.745920382084062zM-58.82852249884114,42.74142411077092L-42.74142411077095,58.82852249884111L-18.745920382084098,25.801545955597984zM-42.74142411077095,58.82852249884111L-22.470496648345204,69.15707918300787L-9.85531337250126,30.331536413974042zM-22.470496648345204,69.15707918300787L-4.452573982826394e-15,72.71605170099184L-1.952850349918601e-15,31.892465166193485zM-4.452573982826394e-15,72.71605170099184L22.470496648345204,69.15707918300787L9.85531337250126,30.331536413974042zM22.470496648345204,69.15707918300787L42.74142411077095,58.82852249884111L18.745920382084098,25.801545955597984zM42.74142411077095,58.82852249884111L58.82852249884114,42.74142411077092L25.801545955598023,18.745920382084062zM58.82852249884114,42.74142411077092L69.1570791830079,22.47049664834517L30.331536413974078,9.855313372501222zM69.1570791830079,22.47049664834517L72.71605170099186,-2.9938791219422494e-14L31.892465166193517,-3.4942160463296435e-14zM72.71605170099186,-2.9938791219422494e-14L69.1570791830079,-22.470496648345247L30.331536413974078,-9.8553133725013zM69.1570791830079,-22.470496648345247L58.82852249884114,-42.741424110771L25.801545955598023,-18.74592038208414zM58.82852249884114,-42.741424110771L42.74142411077095,-58.828522498841174L18.745920382084098,-25.801545955598062zM42.74142411077095,-58.828522498841174L22.470496648345204,-69.15707918300794L9.85531337250126,-30.33153641397412zM22.470496648345204,-69.15707918300794L1.335772238987319e-14,-72.7160517009919L5.858551049755804e-15,-31.892465166193567zM1.335772238987319e-14,-72.7160517009919L-22.470496648345204,-69.15707918300794L-9.85531337250126,-30.33153641397412zM-22.470496648345204,-69.15707918300794L-42.74142411077095,-58.828522498841174L-18.745920382084098,-25.801545955598062zM-42.74142411077095,-58.828522498841174L-58.82852249884114,-42.741424110771L-25.801545955598023,-18.74592038208414zM-58.82852249884114,-42.741424110771L-69.1570791830079,-22.470496648345247L-30.331536413974078,-9.8553133725013zM-69.1570791830079,-22.470496648345247L-72.71605170099186,-5.665423511638086e-14L-31.892465166193517,-4.665926256280805e-14zM-72.71605170099186,-3.884393918507528e-14L-114.69369743710251,-3.883897971565197e-14L-69.1570791830079,22.47049664834517zM-69.1570791830079,22.47049664834517L-109.08018932720339,35.442301924635125L-58.82852249884114,42.74142411077092zM-58.82852249884114,42.74142411077092L-92.78914657698859,67.41526285560295L-42.74142411077095,58.82852249884111zM-42.74142411077095,58.82852249884111L-67.41526285560296,92.78914657698856L-22.470496648345204,69.15707918300787zM-22.470496648345204,69.15707918300787L-35.44230192463516,109.08018932720336L-4.452573982826394e-15,72.71605170099184zM-4.452573982826394e-15,72.71605170099184L-7.022963314568848e-15,114.69369743710249L22.470496648345204,69.15707918300787zM22.470496648345204,69.15707918300787L35.44230192463516,109.08018932720336L42.74142411077095,58.82852249884111zM42.74142411077095,58.82852249884111L67.41526285560296,92.78914657698856L58.82852249884114,42.74142411077092zM58.82852249884114,42.74142411077092L92.78914657698859,67.41526285560295L69.1570791830079,22.47049664834517zM69.1570791830079,22.47049664834517L109.08018932720339,35.442301924635125L72.71605170099186,-2.9938791219422494e-14zM72.71605170099186,-2.9938791219422494e-14L114.69369743710251,-2.4793053086514265e-14L69.1570791830079,-22.470496648345247zM69.1570791830079,-22.470496648345247L109.08018932720339,-35.44230192463521L58.82852249884114,-42.741424110771zM58.82852249884114,-42.741424110771L92.78914657698859,-67.41526285560302L42.74142411077095,-58.828522498841174zM42.74142411077095,-58.828522498841174L67.41526285560296,-92.78914657698863L22.470496648345204,-69.15707918300794zM22.470496648345204,-69.15707918300794L35.44230192463516,-109.08018932720346L1.335772238987319e-14,-72.7160517009919zM1.335772238987319e-14,-72.7160517009919L2.106888904082925e-14,-114.69369743710257L-22.470496648345204,-69.15707918300794zM-22.470496648345204,-69.15707918300794L-35.44230192463516,-109.08018932720346L-42.74142411077095,-58.828522498841174zM-42.74142411077095,-58.828522498841174L-67.41526285560296,-92.78914657698863L-58.82852249884114,-42.741424110771zM-58.82852249884114,-42.741424110771L-92.78914657698859,-67.41526285560302L-69.1570791830079,-22.470496648345247zM-69.1570791830079,-22.470496648345247L-109.08018932720339,-35.44230192463521L-72.71605170099186,-5.665423511638086e-14zM-114.69369743710251,-3.883897971565197e-14L-109.08018932720339,35.442301924635125L-69.1570791830079,22.47049664834517zM-109.08018932720339,35.442301924635125L-92.78914657698859,67.41526285560295L-58.82852249884114,42.74142411077092zM-92.78914657698859,67.41526285560295L-67.41526285560296,92.78914657698856L-42.74142411077095,58.82852249884111zM-67.41526285560296,92.78914657698856L-35.44230192463516,109.08018932720336L-22.470496648345204,69.15707918300787zM-35.44230192463516,109.08018932720336L-7.022963314568848e-15,114.69369743710249L-4.452573982826394e-15,72.71605170099184zM-7.022963314568848e-15,114.69369743710249L35.44230192463516,109.08018932720336L22.470496648345204,69.15707918300787zM35.44230192463516,109.08018932720336L67.41526285560296,92.78914657698856L42.74142411077095,58.82852249884111zM67.41526285560296,92.78914657698856L92.78914657698859,67.41526285560295L58.82852249884114,42.74142411077092zM92.78914657698859,67.41526285560295L109.08018932720339,35.442301924635125L69.1570791830079,22.47049664834517zM109.08018932720339,35.442301924635125L114.69369743710251,-2.4793053086514265e-14L72.71605170099186,-2.9938791219422494e-14zM114.69369743710251,-2.4793053086514265e-14L109.08018932720339,-35.44230192463521L69.1570791830079,-22.470496648345247zM109.08018932720339,-35.44230192463521L92.78914657698859,-67.41526285560302L58.82852249884114,-42.741424110771zM92.78914657698859,-67.41526285560302L67.41526285560296,-92.78914657698863L42.74142411077095,-58.828522498841174zM67.41526285560296,-92.78914657698863L35.44230192463516,-109.08018932720346L22.470496648345204,-69.15707918300794zM35.44230192463516,-109.08018932720346L2.106888904082925e-14,-114.69369743710257L1.335772238987319e-14,-72.7160517009919zM2.106888904082925e-14,-114.69369743710257L-35.44230192463516,-109.08018932720346L-22.470496648345204,-69.15707918300794zM-35.44230192463516,-109.08018932720346L-67.41526285560296,-92.78914657698863L-42.74142411077095,-58.828522498841174zM-67.41526285560296,-92.78914657698863L-92.78914657698859,-67.41526285560302L-58.82852249884114,-42.741424110771zM-92.78914657698859,-67.41526285560302L-109.08018932720339,-35.44230192463521L-69.1570791830079,-22.470496648345247zM-109.08018932720339,-35.44230192463521L-114.69369743710251,-6.693083297392736e-14L-72.71605170099186,-5.665423511638086e-14zM-114.69369743710251,-3.883897971565197e-14L-158.24761738406707,-3.883286971051551e-14L-109.08018932720339,35.442301924635125zM-109.08018932720339,35.442301924635125L-150.50241814334635,48.90120284835773L-92.78914657698859,67.41526285560295zM-92.78914657698859,67.41526285560295L-128.02500736273052,93.01561692653259L-67.41526285560296,92.78914657698856zM-67.41526285560296,92.78914657698856L-93.0156169265326,128.02500736273052L-35.44230192463516,109.08018932720336zM-35.44230192463516,109.08018932720336L-48.90120284835776,150.50241814334635L-7.022963314568848e-15,114.69369743710249zM-7.022963314568848e-15,114.69369743710249L-9.689871405790323e-15,158.24761738406704L35.44230192463516,109.08018932720336zM35.44230192463516,109.08018932720336L48.90120284835776,150.50241814334635L67.41526285560296,92.78914657698856zM67.41526285560296,92.78914657698856L93.0156169265326,128.02500736273052L92.78914657698859,67.41526285560295zM92.78914657698859,67.41526285560295L128.02500736273052,93.01561692653259L109.08018932720339,35.442301924635125zM109.08018932720339,35.442301924635125L150.50241814334635,48.90120284835773L114.69369743710251,-2.4793053086514265e-14zM114.69369743710251,-2.4793053086514265e-14L158.24761738406707,-1.9453126898934868e-14L109.08018932720339,-35.44230192463521zM109.08018932720339,-35.44230192463521L150.50241814334635,-48.901202848357805L92.78914657698859,-67.41526285560302zM92.78914657698859,-67.41526285560302L128.02500736273052,-93.01561692653266L67.41526285560296,-92.78914657698863zM67.41526285560296,-92.78914657698863L93.0156169265326,-128.0250073627306L35.44230192463516,-109.08018932720346zM35.44230192463516,-109.08018932720346L48.90120284835776,-150.5024181433464L2.106888904082925e-14,-114.69369743710257zM2.106888904082925e-14,-114.69369743710257L2.906961607262503e-14,-158.24761738406713L-35.44230192463516,-109.08018932720346zM-35.44230192463516,-109.08018932720346L-48.90120284835776,-150.5024181433464L-67.41526285560296,-92.78914657698863zM-67.41526285560296,-92.78914657698863L-93.0156169265326,-128.0250073627306L-92.78914657698859,-67.41526285560302zM-92.78914657698859,-67.41526285560302L-128.02500736273052,-93.01561692653266L-109.08018932720339,-35.44230192463521zM-109.08018932720339,-35.44230192463521L-150.50241814334635,-48.901202848357805L-114.69369743710251,-6.693083297392736e-14zM-158.24761738406707,-3.883286971051551e-14L-150.50241814334635,48.90120284835773L-109.08018932720339,35.442301924635125zM-150.50241814334635,48.90120284835773L-128.02500736273052,93.01561692653259L-92.78914657698859,67.41526285560295zM-128.02500736273052,93.01561692653259L-93.0156169265326,128.02500736273052L-67.41526285560296,92.78914657698856zM-93.0156169265326,128.02500736273052L-48.90120284835776,150.50241814334635L-35.44230192463516,109.08018932720336zM-48.90120284835776,150.50241814334635L-9.689871405790323e-15,158.24761738406704L-7.022963314568848e-15,114.69369743710249zM-9.689871405790323e-15,158.24761738406704L48.90120284835776,150.50241814334635L35.44230192463516,109.08018932720336zM48.90120284835776,150.50241814334635L93.0156169265326,128.02500736273052L67.41526285560296,92.78914657698856zM93.0156169265326,128.02500736273052L128.02500736273052,93.01561692653259L92.78914657698859,67.41526285560295zM128.02500736273052,93.01561692653259L150.50241814334635,48.90120284835773L109.08018932720339,35.442301924635125zM150.50241814334635,48.90120284835773L158.24761738406707,-1.9453126898934868e-14L114.69369743710251,-2.4793053086514265e-14zM158.24761738406707,-1.9453126898934868e-14L150.50241814334635,-48.901202848357805L109.08018932720339,-35.44230192463521zM150.50241814334635,-48.901202848357805L128.02500736273052,-93.01561692653266L92.78914657698859,-67.41526285560302zM128.02500736273052,-93.01561692653266L93.0156169265326,-128.0250073627306L67.41526285560296,-92.78914657698863zM93.0156169265326,-128.0250073627306L48.90120284835776,-150.5024181433464L35.44230192463516,-109.08018932720346zM48.90120284835776,-150.5024181433464L2.906961607262503e-14,-158.24761738406713L2.106888904082925e-14,-114.69369743710257zM2.906961607262503e-14,-158.24761738406713L-48.90120284835776,-150.5024181433464L-35.44230192463516,-109.08018932720346zM-48.90120284835776,-150.5024181433464L-93.0156169265326,-128.0250073627306L-67.41526285560296,-92.78914657698863zM-93.0156169265326,-128.0250073627306L-128.02500736273052,-93.01561692653266L-92.78914657698859,-67.41526285560302zM-128.02500736273052,-93.01561692653266L-150.50241814334635,-48.901202848357805L-109.08018932720339,-35.44230192463521zM-150.50241814334635,-48.901202848357805L-158.24761738406707,-7.75923553336768e-14L-114.69369743710251,-6.693083297392736e-14zM-158.24761738406707,-3.883286971051551e-14L-203.8680784704244,-3.882546162831613e-14L-150.50241814334635,48.90120284835773zM-150.50241814334635,48.90120284835773L-193.89006115905855,62.99869936004914L-128.02500736273052,93.01561692653259zM-128.02500736273052,93.01561692653259L-164.93273859526136,119.83064952058815L-93.0156169265326,128.02500736273052zM-93.0156169265326,128.02500736273052L-119.83064952058815,164.93273859526136L-48.90120284835776,150.50241814334635zM-48.90120284835776,150.50241814334635L-62.99869936004916,193.89006115905852L-9.689871405790323e-15,158.24761738406704zM-9.689871405790323e-15,158.24761738406704L-1.2483319420333177e-14,203.8680784704244L48.90120284835776,150.50241814334635zM48.90120284835776,150.50241814334635L62.99869936004916,193.89006115905852L93.0156169265326,128.02500736273052zM93.0156169265326,128.02500736273052L119.83064952058815,164.93273859526136L128.02500736273052,93.01561692653259zM128.02500736273052,93.01561692653259L164.93273859526136,119.83064952058815L150.50241814334635,48.90120284835773zM150.50241814334635,48.90120284835773L193.89006115905855,62.99869936004914L158.24761738406707,-1.9453126898934868e-14zM158.24761738406707,-1.9453126898934868e-14L203.8680784704244,-1.3858822787649773e-14L150.50241814334635,-48.901202848357805zM150.50241814334635,-48.901202848357805L193.89006115905855,-62.99869936004921L128.02500736273052,-93.01561692653266zM128.02500736273052,-93.01561692653266L164.93273859526136,-119.83064952058825L93.0156169265326,-128.0250073627306zM93.0156169265326,-128.0250073627306L119.83064952058815,-164.93273859526147L48.90120284835776,-150.5024181433464zM48.90120284835776,-150.5024181433464L62.99869936004916,-193.8900611590586L2.906961607262503e-14,-158.24761738406713zM2.906961607262503e-14,-158.24761738406713L3.744995538809488e-14,-203.8680784704245L-48.90120284835776,-150.5024181433464zM-48.90120284835776,-150.5024181433464L-62.99869936004916,-193.8900611590586L-93.0156169265326,-128.0250073627306zM-93.0156169265326,-128.0250073627306L-119.83064952058815,-164.93273859526147L-128.02500736273052,-93.01561692653266zM-128.02500736273052,-93.01561692653266L-164.93273859526136,-119.83064952058825L-150.50241814334635,-48.901202848357805zM-150.50241814334635,-48.901202848357805L-193.89006115905855,-62.99869936004921L-158.24761738406707,-7.75923553336768e-14zM-203.8680784704244,-3.882546162831613e-14L-193.89006115905855,62.99869936004914L-150.50241814334635,48.90120284835773zM-193.89006115905855,62.99869936004914L-164.93273859526136,119.83064952058815L-128.02500736273052,93.01561692653259zM-164.93273859526136,119.83064952058815L-119.83064952058815,164.93273859526136L-93.0156169265326,128.02500736273052zM-119.83064952058815,164.93273859526136L-62.99869936004916,193.89006115905852L-48.90120284835776,150.50241814334635zM-62.99869936004916,193.89006115905852L-1.2483319420333177e-14,203.8680784704244L-9.689871405790323e-15,158.24761738406704zM-1.2483319420333177e-14,203.8680784704244L62.99869936004916,193.89006115905852L48.90120284835776,150.50241814334635zM62.99869936004916,193.89006115905852L119.83064952058815,164.93273859526136L93.0156169265326,128.02500736273052zM119.83064952058815,164.93273859526136L164.93273859526136,119.83064952058815L128.02500736273052,93.01561692653259zM164.93273859526136,119.83064952058815L193.89006115905855,62.99869936004914L150.50241814334635,48.90120284835773zM193.89006115905855,62.99869936004914L203.8680784704244,-1.3858822787649773e-14L158.24761738406707,-1.9453126898934868e-14zM203.8680784704244,-1.3858822787649773e-14L193.89006115905855,-62.99869936004921L150.50241814334635,-48.901202848357805zM193.89006115905855,-62.99869936004921L164.93273859526136,-119.83064952058825L128.02500736273052,-93.01561692653266zM164.93273859526136,-119.83064952058825L119.83064952058815,-164.93273859526147L93.0156169265326,-128.0250073627306zM119.83064952058815,-164.93273859526147L62.99869936004916,-193.8900611590586L48.90120284835776,-150.5024181433464zM62.99869936004916,-193.8900611590586L3.744995538809488e-14,-203.8680784704245L2.906961607262503e-14,-158.24761738406713zM3.744995538809488e-14,-203.8680784704245L-62.99869936004916,-193.8900611590586L-48.90120284835776,-150.5024181433464zM-62.99869936004916,-193.8900611590586L-119.83064952058815,-164.93273859526147L-93.0156169265326,-128.0250073627306zM-119.83064952058815,-164.93273859526147L-164.93273859526136,-119.83064952058825L-128.02500736273052,-93.01561692653266zM-164.93273859526136,-119.83064952058825L-193.89006115905855,-62.99869936004921L-150.50241814334635,-48.901202848357805zM-193.89006115905855,-62.99869936004921L-203.8680784704244,-8.875873930964886e-14L-158.24761738406707,-7.75923553336768e-14zM-203.8680784704244,-3.882546162831613e-14L-252.13923499525785,-3.8816563761981605e-14L-193.89006115905855,62.99869936004914zM-193.89006115905855,62.99869936004914L-239.79866580765002,77.91531126669842L-164.93273859526136,119.83064952058815zM-164.93273859526136,119.83064952058815L-203.98491981407713,148.20372051902717L-119.83064952058815,164.93273859526136zM-119.83064952058815,164.93273859526136L-148.2037205190272,203.98491981407716L-62.99869936004916,193.89006115905852zM-62.99869936004916,193.89006115905852L-77.91531126669845,239.79866580765005L-1.2483319420333177e-14,203.8680784704244zM-1.2483319420333177e-14,203.8680784704244L-1.5439074577683322e-14,252.13923499525782L62.99869936004916,193.89006115905852zM62.99869936004916,193.89006115905852L77.91531126669845,239.79866580765005L119.83064952058815,164.93273859526136zM119.83064952058815,164.93273859526136L148.2037205190272,203.98491981407716L164.93273859526136,119.83064952058815zM164.93273859526136,119.83064952058815L203.98491981407713,148.20372051902717L193.89006115905855,62.99869936004914zM193.89006115905855,62.99869936004914L239.79866580765002,77.91531126669842L203.8680784704244,-1.3858822787649773e-14zM203.8680784704244,-1.3858822787649773e-14L252.13923499525785,-7.938414606614952e-15L193.89006115905855,-62.99869936004921zM193.89006115905855,-62.99869936004921L239.79866580765002,-77.9153112666985L164.93273859526136,-119.83064952058825zM164.93273859526136,-119.83064952058825L203.98491981407713,-148.20372051902729L119.83064952058815,-164.93273859526147zM119.83064952058815,-164.93273859526147L148.2037205190272,-203.98491981407727L62.99869936004916,-193.8900611590586zM62.99869936004916,-193.8900611590586L77.91531126669845,-239.79866580765017L3.744995538809488e-14,-203.8680784704245zM3.744995538809488e-14,-203.8680784704245L4.631722671408212e-14,-252.13923499525794L-62.99869936004916,-193.8900611590586zM-62.99869936004916,-193.8900611590586L-77.91531126669845,-239.79866580765017L-119.83064952058815,-164.93273859526147zM-119.83064952058815,-164.93273859526147L-148.2037205190272,-203.98491981407727L-164.93273859526136,-119.83064952058825zM-164.93273859526136,-119.83064952058825L-203.98491981407713,-148.20372051902729L-193.89006115905855,-62.99869936004921zM-193.89006115905855,-62.99869936004921L-239.79866580765002,-77.9153112666985L-203.8680784704244,-8.875873930964886e-14zM-252.13923499525785,-3.8816563761981605e-14L-239.79866580765002,77.91531126669842L-193.89006115905855,62.99869936004914zM-239.79866580765002,77.91531126669842L-203.98491981407713,148.20372051902717L-164.93273859526136,119.83064952058815zM-203.98491981407713,148.20372051902717L-148.2037205190272,203.98491981407716L-119.83064952058815,164.93273859526136zM-148.2037205190272,203.98491981407716L-77.91531126669845,239.79866580765005L-62.99869936004916,193.89006115905852zM-77.91531126669845,239.79866580765005L-1.5439074577683322e-14,252.13923499525782L-1.2483319420333177e-14,203.8680784704244zM-1.5439074577683322e-14,252.13923499525782L77.91531126669845,239.79866580765005L62.99869936004916,193.89006115905852zM77.91531126669845,239.79866580765005L148.2037205190272,203.98491981407716L119.83064952058815,164.93273859526136zM148.2037205190272,203.98491981407716L203.98491981407713,148.20372051902717L164.93273859526136,119.83064952058815zM203.98491981407713,148.20372051902717L239.79866580765002,77.91531126669842L193.89006115905855,62.99869936004914zM239.79866580765002,77.91531126669842L252.13923499525785,-7.938414606614952e-15L203.8680784704244,-1.3858822787649773e-14zM252.13923499525785,-7.938414606614952e-15L239.79866580765002,-77.9153112666985L193.89006115905855,-62.99869936004921zM239.79866580765002,-77.9153112666985L203.98491981407713,-148.20372051902729L164.93273859526136,-119.83064952058825zM203.98491981407713,-148.20372051902729L148.2037205190272,-203.98491981407727L119.83064952058815,-164.93273859526147zM148.2037205190272,-203.98491981407727L77.91531126669845,-239.79866580765017L62.99869936004916,-193.8900611590586zM77.91531126669845,-239.79866580765017L4.631722671408212e-14,-252.13923499525794L3.744995538809488e-14,-203.8680784704245zM4.631722671408212e-14,-252.13923499525794L-77.91531126669845,-239.79866580765017L-62.99869936004916,-193.8900611590586zM-77.91531126669845,-239.79866580765017L-148.2037205190272,-203.98491981407727L-119.83064952058815,-164.93273859526147zM-148.2037205190272,-203.98491981407727L-203.98491981407713,-148.20372051902729L-164.93273859526136,-119.83064952058825zM-203.98491981407713,-148.20372051902729L-239.79866580765002,-77.9153112666985L-193.89006115905855,-62.99869936004921zM-239.79866580765002,-77.9153112666985L-252.13923499525785,-1.005728620727149e-13L-203.8680784704244,-8.875873930964886e-14zM-252.13923499525785,-3.8816563761981605e-14L-303.77416938647406,-3.8805926915105537e-14L-239.79866580765002,77.91531126669842zM-239.79866580765002,77.91531126669842L-288.90641217776977,93.8713800515921L-203.98491981407713,148.20372051902717zM-203.98491981407713,148.20372051902717L-245.75846474482918,178.55398337200214L-148.2037205190272,203.98491981407716zM-148.2037205190272,203.98491981407716L-178.5539833720021,245.75846474482918L-77.91531126669845,239.79866580765005zM-77.91531126669845,239.79866580765005L-93.87138005159213,288.9064121777698L-1.5439074577683322e-14,252.13923499525782zM-1.5439074577683322e-14,252.13923499525782L-1.8600804093779776e-14,303.77416938647406L77.91531126669845,239.79866580765005zM77.91531126669845,239.79866580765005L93.87138005159213,288.9064121777698L148.2037205190272,203.98491981407716zM148.2037205190272,203.98491981407716L178.5539833720021,245.75846474482918L203.98491981407713,148.20372051902717zM203.98491981407713,148.20372051902717L245.75846474482918,178.55398337200214L239.79866580765002,77.91531126669842zM239.79866580765002,77.91531126669842L288.90641217776977,93.8713800515921L252.13923499525785,-7.938414606614952e-15zM252.13923499525785,-7.938414606614952e-15L303.77416938647406,-1.6043187275459754e-15L239.79866580765002,-77.9153112666985zM239.79866580765002,-77.9153112666985L288.90641217776977,-93.87138005159218L203.98491981407713,-148.20372051902729zM203.98491981407713,-148.20372051902729L245.75846474482918,-178.5539833720022L148.2037205190272,-203.98491981407727zM148.2037205190272,-203.98491981407727L178.5539833720021,-245.7584647448293L77.91531126669845,-239.79866580765017zM77.91531126669845,-239.79866580765017L93.87138005159213,-288.9064121777699L4.631722671408212e-14,-252.13923499525794zM4.631722671408212e-14,-252.13923499525794L5.58024102078114e-14,-303.77416938647417L-77.91531126669845,-239.79866580765017zM-77.91531126669845,-239.79866580765017L-93.87138005159213,-288.9064121777699L-148.2037205190272,-203.98491981407727zM-148.2037205190272,-203.98491981407727L-178.5539833720021,-245.7584647448293L-203.98491981407713,-148.20372051902729zM-203.98491981407713,-148.20372051902729L-245.75846474482918,-178.5539833720022L-239.79866580765002,-77.9153112666985zM-239.79866580765002,-77.9153112666985L-288.90641217776977,-93.87138005159218L-252.13923499525785,-1.005728620727149e-13zM-303.77416938647406,-3.8805926915105537e-14L-288.90641217776977,93.8713800515921L-239.79866580765002,77.91531126669842zM-288.90641217776977,93.8713800515921L-245.75846474482918,178.55398337200214L-203.98491981407713,148.20372051902717zM-245.75846474482918,178.55398337200214L-178.5539833720021,245.75846474482918L-148.2037205190272,203.98491981407716zM-178.5539833720021,245.75846474482918L-93.87138005159213,288.9064121777698L-77.91531126669845,239.79866580765005zM-93.87138005159213,288.9064121777698L-1.8600804093779776e-14,303.77416938647406L-1.5439074577683322e-14,252.13923499525782zM-1.8600804093779776e-14,303.77416938647406L93.87138005159213,288.9064121777698L77.91531126669845,239.79866580765005zM93.87138005159213,288.9064121777698L178.5539833720021,245.75846474482918L148.2037205190272,203.98491981407716zM178.5539833720021,245.75846474482918L245.75846474482918,178.55398337200214L203.98491981407713,148.20372051902717zM245.75846474482918,178.55398337200214L288.90641217776977,93.8713800515921L239.79866580765002,77.91531126669842zM288.90641217776977,93.8713800515921L303.77416938647406,-1.6043187275459754e-15L252.13923499525785,-7.938414606614952e-15zM303.77416938647406,-1.6043187275459754e-15L288.90641217776977,-93.87138005159218L239.79866580765002,-77.9153112666985zM288.90641217776977,-93.87138005159218L245.75846474482918,-178.5539833720022L203.98491981407713,-148.20372051902729zM245.75846474482918,-178.5539833720022L178.5539833720021,-245.7584647448293L148.2037205190272,-203.98491981407727zM178.5539833720021,-245.7584647448293L93.87138005159213,-288.9064121777699L77.91531126669845,-239.79866580765017zM93.87138005159213,-288.9064121777699L5.58024102078114e-14,-303.77416938647417L4.631722671408212e-14,-252.13923499525794zM5.58024102078114e-14,-303.77416938647417L-93.87138005159213,-288.9064121777699L-77.91531126669845,-239.79866580765017zM-93.87138005159213,-288.9064121777699L-178.5539833720021,-245.7584647448293L-148.2037205190272,-203.98491981407727zM-178.5539833720021,-245.7584647448293L-245.75846474482918,-178.5539833720022L-203.98491981407713,-148.20372051902729zM-245.75846474482918,-178.5539833720022L-288.90641217776977,-93.87138005159218L-239.79866580765002,-77.9153112666985zM-288.90641217776977,-93.87138005159218L-303.77416938647406,-1.1320914329022464e-13L-252.13923499525785,-1.005728620727149e-13zM-303.77416938647406,-3.8805926915105537e-14L-359.66445240520846,-3.8793224787869324e-14L-288.90641217776977,93.8713800515921zM-288.90641217776977,93.8713800515921L-342.0612370114633,111.14242959559624L-245.75846474482918,178.55398337200214zM-245.75846474482918,178.55398337200214L-290.974645996419,211.40545025284095L-178.5539833720021,245.75846474482918zM-178.5539833720021,245.75846474482918L-211.40545025284092,290.974645996419L-93.87138005159213,288.9064121777698zM-93.87138005159213,288.9064121777698L-111.14242959559625,342.0612370114633L-1.8600804093779776e-14,303.77416938647406zM-1.8600804093779776e-14,303.77416938647406L-2.202309610246631e-14,359.6644524052085L93.87138005159213,288.9064121777698zM93.87138005159213,288.9064121777698L111.14242959559625,342.0612370114633L178.5539833720021,245.75846474482918zM178.5539833720021,245.75846474482918L211.40545025284092,290.974645996419L245.75846474482918,178.55398337200214zM245.75846474482918,178.55398337200214L290.974645996419,211.40545025284095L288.90641217776977,93.8713800515921zM288.90641217776977,93.8713800515921L342.0612370114633,111.14242959559624L303.77416938647406,-1.6043187275459754e-15zM303.77416938647406,-1.6043187275459754e-15L359.66445240520846,5.252967417063307e-15L288.90641217776977,-93.87138005159218zM288.90641217776977,-93.87138005159218L342.0612370114633,-111.14242959559631L245.75846474482918,-178.5539833720022zM245.75846474482918,-178.5539833720022L290.974645996419,-211.405450252841L178.5539833720021,-245.7584647448293zM178.5539833720021,-245.7584647448293L211.40545025284092,-290.9746459964191L93.87138005159213,-288.9064121777699zM93.87138005159213,-288.9064121777699L111.14242959559625,-342.0612370114634L5.58024102078114e-14,-303.77416938647417zM5.58024102078114e-14,-303.77416938647417L6.606928830739894e-14,-359.66445240520864L-93.87138005159213,-288.9064121777699zM-93.87138005159213,-288.9064121777699L-111.14242959559625,-342.0612370114634L-178.5539833720021,-245.7584647448293zM-178.5539833720021,-245.7584647448293L-211.40545025284092,-290.9746459964191L-245.75846474482918,-178.5539833720022zM-245.75846474482918,-178.5539833720022L-290.974645996419,-211.405450252841L-288.90641217776977,-93.87138005159218zM-288.90641217776977,-93.87138005159218L-342.0612370114633,-111.14242959559631L-303.77416938647406,-1.1320914329022464e-13zM-359.66445240520846,-3.8793224787869324e-14L-342.0612370114633,111.14242959559624L-288.90641217776977,93.8713800515921zM-342.0612370114633,111.14242959559624L-290.974645996419,211.40545025284095L-245.75846474482918,178.55398337200214zM-290.974645996419,211.40545025284095L-211.40545025284092,290.974645996419L-178.5539833720021,245.75846474482918zM-211.40545025284092,290.974645996419L-111.14242959559625,342.0612370114633L-93.87138005159213,288.9064121777698zM-111.14242959559625,342.0612370114633L-2.202309610246631e-14,359.6644524052085L-1.8600804093779776e-14,303.77416938647406zM-2.202309610246631e-14,359.6644524052085L111.14242959559625,342.0612370114633L93.87138005159213,288.9064121777698zM111.14242959559625,342.0612370114633L211.40545025284092,290.974645996419L178.5539833720021,245.75846474482918zM211.40545025284092,290.974645996419L290.974645996419,211.40545025284095L245.75846474482918,178.55398337200214zM290.974645996419,211.40545025284095L342.0612370114633,111.14242959559624L288.90641217776977,93.8713800515921zM342.0612370114633,111.14242959559624L359.66445240520846,5.252967417063307e-15L303.77416938647406,-1.6043187275459754e-15zM359.66445240520846,5.252967417063307e-15L342.0612370114633,-111.14242959559631L288.90641217776977,-93.87138005159218zM342.0612370114633,-111.14242959559631L290.974645996419,-211.405450252841L245.75846474482918,-178.5539833720022zM290.974645996419,-211.405450252841L211.40545025284092,-290.9746459964191L178.5539833720021,-245.7584647448293zM211.40545025284092,-290.9746459964191L111.14242959559625,-342.0612370114634L93.87138005159213,-288.9064121777699zM111.14242959559625,-342.0612370114634L6.606928830739894e-14,-359.66445240520864L5.58024102078114e-14,-303.77416938647417zM6.606928830739894e-14,-359.66445240520864L-111.14242959559625,-342.0612370114634L-93.87138005159213,-288.9064121777699zM-111.14242959559625,-342.0612370114634L-211.40545025284092,-290.9746459964191L-178.5539833720021,-245.7584647448293zM-211.40545025284092,-290.9746459964191L-290.974645996419,-211.405450252841L-245.75846474482918,-178.5539833720022zM-290.974645996419,-211.405450252841L-342.0612370114633,-111.14242959559631L-288.90641217776977,-93.87138005159218zM-342.0612370114633,-111.14242959559631L-359.66445240520846,-1.268856091977346e-13L-303.77416938647406,-1.1320914329022464e-13zM-359.66445240520846,-3.8793224787869324e-14L-420.95143236653644,-3.8778025444287486e-14L-342.0612370114633,111.14242959559624zM-342.0612370114633,111.14242959559624L-400.3486218510177,130.08115293003317L-290.974645996419,211.40545025284095zM-290.974645996419,211.40545025284095L-340.55687946963667,247.42904666922936L-211.40545025284092,290.974645996419zM-211.40545025284092,290.974645996419L-247.4290466692293,340.55687946963667L-111.14242959559625,342.0612370114633zM-111.14242959559625,342.0612370114633L-130.0811529300332,400.3486218510177L-2.202309610246631e-14,359.6644524052085zM-2.202309610246631e-14,359.6644524052085L-2.577584117748443e-14,420.95143236653655L111.14242959559625,342.0612370114633zM111.14242959559625,342.0612370114633L130.0811529300332,400.3486218510177L211.40545025284092,290.974645996419zM211.40545025284092,290.974645996419L247.4290466692293,340.55687946963667L290.974645996419,211.40545025284095zM290.974645996419,211.40545025284095L340.55687946963667,247.42904666922936L342.0612370114633,111.14242959559624zM342.0612370114633,111.14242959559624L400.3486218510177,130.08115293003317L359.66445240520846,5.252967417063307e-15zM359.66445240520846,5.252967417063307e-15L420.95143236653644,1.2773656910681385e-14L342.0612370114633,-111.14242959559631zM342.0612370114633,-111.14242959559631L400.3486218510177,-130.08115293003326L290.974645996419,-211.405450252841zM290.974645996419,-211.405450252841L340.55687946963667,-247.42904666922942L211.40545025284092,-290.9746459964191zM211.40545025284092,-290.9746459964191L247.4290466692293,-340.5568794696368L111.14242959559625,-342.0612370114634zM111.14242959559625,-342.0612370114634L130.0811529300332,-400.3486218510178L6.606928830739894e-14,-359.66445240520864zM6.606928830739894e-14,-359.66445240520864L7.73275304311584e-14,-420.9514323665366L-111.14242959559625,-342.0612370114634zM-111.14242959559625,-342.0612370114634L-130.0811529300332,-400.3486218510178L-211.40545025284092,-290.9746459964191zM-211.40545025284092,-290.9746459964191L-247.4290466692293,-340.5568794696368L-290.974645996419,-211.405450252841zM-290.974645996419,-211.405450252841L-340.55687946963667,-247.42904666922942L-342.0612370114633,-111.14242959559631zM-342.0612370114633,-111.14242959559631L-400.3486218510177,-130.08115293003326L-359.66445240520846,-1.268856091977346e-13zM-420.95143236653644,-3.8778025444287486e-14L-400.3486218510177,130.08115293003317L-342.0612370114633,111.14242959559624zM-400.3486218510177,130.08115293003317L-340.55687946963667,247.42904666922936L-290.974645996419,211.40545025284095zM-340.55687946963667,247.42904666922936L-247.4290466692293,340.55687946963667L-211.40545025284092,290.974645996419zM-247.4290466692293,340.55687946963667L-130.0811529300332,400.3486218510177L-111.14242959559625,342.0612370114633zM-130.0811529300332,400.3486218510177L-2.577584117748443e-14,420.95143236653655L-2.202309610246631e-14,359.6644524052085zM-2.577584117748443e-14,420.95143236653655L130.0811529300332,400.3486218510177L111.14242959559625,342.0612370114633zM130.0811529300332,400.3486218510177L247.4290466692293,340.55687946963667L211.40545025284092,290.974645996419zM247.4290466692293,340.55687946963667L340.55687946963667,247.42904666922936L290.974645996419,211.40545025284095zM340.55687946963667,247.42904666922936L400.3486218510177,130.08115293003317L342.0612370114633,111.14242959559624zM400.3486218510177,130.08115293003317L420.95143236653644,1.2773656910681385e-14L359.66445240520846,5.252967417063307e-15zM420.95143236653644,1.2773656910681385e-14L400.3486218510177,-130.08115293003326L342.0612370114633,-111.14242959559631zM400.3486218510177,-130.08115293003326L340.55687946963667,-247.42904666922942L290.974645996419,-211.405450252841zM340.55687946963667,-247.42904666922942L247.4290466692293,-340.5568794696368L211.40545025284092,-290.9746459964191zM247.4290466692293,-340.5568794696368L130.0811529300332,-400.3486218510178L111.14242959559625,-342.0612370114634zM130.0811529300332,-400.3486218510178L7.73275304311584e-14,-420.9514323665366L6.606928830739894e-14,-359.66445240520864zM7.73275304311584e-14,-420.9514323665366L-130.0811529300332,-400.3486218510178L-111.14242959559625,-342.0612370114634zM-130.0811529300332,-400.3486218510178L-247.4290466692293,-340.5568794696368L-211.40545025284092,-290.9746459964191zM-247.4290466692293,-340.5568794696368L-340.55687946963667,-247.42904666922942L-290.974645996419,-211.405450252841zM-340.55687946963667,-247.42904666922942L-400.3486218510177,-130.08115293003326L-342.0612370114633,-111.14242959559631zM-400.3486218510177,-130.08115293003326L-420.95143236653644,-1.4188139015422525e-13L-359.66445240520846,-1.268856091977346e-13zM-420.95143236653644,-3.8778025444287486e-14L-489.1326732692952,-3.8759748427320864e-14L-400.3486218510177,130.08115293003317zM-400.3486218510177,130.08115293003317L-465.1928415169029,151.15030601811236L-340.55687946963667,247.42904666922936zM-340.55687946963667,247.42904666922936L-395.7166536759391,287.50497033303793L-247.4290466692293,340.55687946963667zM-247.4290466692293,340.55687946963667L-287.50497033303793,395.71665367593914L-130.0811529300332,400.3486218510177zM-130.0811529300332,400.3486218510177L-151.15030601811236,465.19284151690294L-2.577584117748443e-14,420.95143236653655zM-2.577584117748443e-14,420.95143236653655L-2.9950738410922266e-14,489.1326732692952L130.0811529300332,400.3486218510177zM130.0811529300332,400.3486218510177L151.15030601811236,465.19284151690294L247.4290466692293,340.55687946963667zM247.4290466692293,340.55687946963667L287.50497033303793,395.71665367593914L340.55687946963667,247.42904666922936zM340.55687946963667,247.42904666922936L395.7166536759391,287.50497033303793L400.3486218510177,130.08115293003317zM400.3486218510177,130.08115293003317L465.1928415169029,151.15030601811236L420.95143236653644,1.2773656910681385e-14zM420.95143236653644,1.2773656910681385e-14L489.1326732692952,2.114172839452369e-14L400.3486218510177,-130.08115293003326zM400.3486218510177,-130.08115293003326L465.1928415169029,-151.15030601811242L340.55687946963667,-247.42904666922942zM340.55687946963667,-247.42904666922942L395.7166536759391,-287.50497033303805L247.4290466692293,-340.5568794696368zM247.4290466692293,-340.5568794696368L287.50497033303793,-395.71665367593926L130.0811529300332,-400.3486218510178zM130.0811529300332,-400.3486218510178L151.15030601811236,-465.19284151690306L7.73275304311584e-14,-420.9514323665366zM7.73275304311584e-14,-420.9514323665366L8.985221278512935e-14,-489.13267326929537L-130.0811529300332,-400.3486218510178zM-130.0811529300332,-400.3486218510178L-151.15030601811236,-465.19284151690306L-247.4290466692293,-340.5568794696368zM-247.4290466692293,-340.5568794696368L-287.50497033303793,-395.71665367593926L-340.55687946963667,-247.42904666922942zM-340.55687946963667,-247.42904666922942L-395.7166536759391,-287.50497033303805L-400.3486218510177,-130.08115293003326zM-400.3486218510177,-130.08115293003326L-465.1928415169029,-151.15030601811242L-420.95143236653644,-1.4188139015422525e-13zM-489.1326732692952,-3.8759748427320864e-14L-465.1928415169029,151.15030601811236L-400.3486218510177,130.08115293003317zM-465.1928415169029,151.15030601811236L-395.7166536759391,287.50497033303793L-340.55687946963667,247.42904666922936zM-395.7166536759391,287.50497033303793L-287.50497033303793,395.71665367593914L-247.4290466692293,340.55687946963667zM-287.50497033303793,395.71665367593914L-151.15030601811236,465.19284151690294L-130.0811529300332,400.3486218510177zM-151.15030601811236,465.19284151690294L-2.9950738410922266e-14,489.1326732692952L-2.577584117748443e-14,420.95143236653655zM-2.9950738410922266e-14,489.1326732692952L151.15030601811236,465.19284151690294L130.0811529300332,400.3486218510177zM151.15030601811236,465.19284151690294L287.50497033303793,395.71665367593914L247.4290466692293,340.55687946963667zM287.50497033303793,395.71665367593914L395.7166536759391,287.50497033303793L340.55687946963667,247.42904666922936zM395.7166536759391,287.50497033303793L465.1928415169029,151.15030601811236L400.3486218510177,130.08115293003317zM465.1928415169029,151.15030601811236L489.1326732692952,2.114172839452369e-14L420.95143236653644,1.2773656910681385e-14zM489.1326732692952,2.114172839452369e-14L465.1928415169029,-151.15030601811242L400.3486218510177,-130.08115293003326zM465.1928415169029,-151.15030601811242L395.7166536759391,-287.50497033303805L340.55687946963667,-247.42904666922942zM395.7166536759391,-287.50497033303805L287.50497033303793,-395.71665367593926L247.4290466692293,-340.5568794696368zM287.50497033303793,-395.71665367593926L151.15030601811236,-465.19284151690306L130.0811529300332,-400.3486218510178zM151.15030601811236,-465.19284151690306L8.985221278512935e-14,-489.13267326929537L7.73275304311584e-14,-420.9514323665366zM8.985221278512935e-14,-489.13267326929537L-151.15030601811236,-465.19284151690306L-130.0811529300332,-400.3486218510178zM-151.15030601811236,-465.19284151690306L-287.50497033303793,-395.71665367593926L-247.4290466692293,-340.5568794696368zM-287.50497033303793,-395.71665367593926L-395.7166536759391,-287.50497033303805L-340.55687946963667,-247.42904666922942zM-395.7166536759391,-287.50497033303805L-465.1928415169029,-151.15030601811242L-400.3486218510177,-130.08115293003326zM-465.1928415169029,-151.15030601811242L-489.1326732692952,-1.5856270207100994e-13L-420.95143236653644,-1.4188139015422525e-13zM-489.1326732692952,-3.8759748427320864e-14L-566.2251625707745,-3.873759846090972e-14L-465.1928415169029,151.15030601811236zM-465.1928415169029,151.15030601811236L-538.5121200986364,174.973193158332L-395.7166536759391,287.50497033303793zM-395.7166536759391,287.50497033303793L-458.0857744437192,332.8187865667102L-287.50497033303793,395.71665367593914zM-287.50497033303793,395.71665367593914L-332.8187865667102,458.08577444371923L-151.15030601811236,465.19284151690294zM-151.15030601811236,465.19284151690294L-174.97319315833198,538.5121200986365L-2.9950738410922266e-14,489.1326732692952zM-2.9950738410922266e-14,489.1326732692952L-3.467129003951773e-14,566.2251625707744L151.15030601811236,465.19284151690294zM151.15030601811236,465.19284151690294L174.97319315833198,538.5121200986365L287.50497033303793,395.71665367593914zM287.50497033303793,395.71665367593914L332.8187865667102,458.08577444371923L395.7166536759391,287.50497033303793zM395.7166536759391,287.50497033303793L458.0857744437192,332.8187865667102L465.1928415169029,151.15030601811236zM465.1928415169029,151.15030601811236L538.5121200986364,174.973193158332L489.1326732692952,2.114172839452369e-14zM489.1326732692952,2.114172839452369e-14L566.2251625707745,3.060498161812574e-14L465.1928415169029,-151.15030601811242zM465.1928415169029,-151.15030601811242L538.5121200986364,-174.97319315833207L395.7166536759391,-287.50497033303805zM395.7166536759391,-287.50497033303805L458.0857744437192,-332.81878656671034L287.50497033303793,-395.71665367593926zM287.50497033303793,-395.71665367593926L332.8187865667102,-458.08577444371934L151.15030601811236,-465.19284151690306zM151.15030601811236,-465.19284151690306L174.97319315833198,-538.5121200986366L8.985221278512935e-14,-489.13267326929537zM8.985221278512935e-14,-489.13267326929537L1.0401387799980151e-13,-566.2251625707746L-151.15030601811236,-465.19284151690306zM-151.15030601811236,-465.19284151690306L-174.97319315833198,-538.5121200986366L-287.50497033303793,-395.71665367593926zM-287.50497033303793,-395.71665367593926L-332.8187865667102,-458.08577444371934L-395.7166536759391,-287.50497033303805zM-395.7166536759391,-287.50497033303805L-458.0857744437192,-332.81878656671034L-465.1928415169029,-151.15030601811242zM-465.1928415169029,-151.15030601811242L-538.5121200986364,-174.97319315833207L-489.1326732692952,-1.5856270207100994e-13zM-566.2251625707745,-3.873759846090972e-14L-538.5121200986364,174.973193158332L-465.1928415169029,151.15030601811236zM-538.5121200986364,174.973193158332L-458.0857744437192,332.8187865667102L-395.7166536759391,287.50497033303793zM-458.0857744437192,332.8187865667102L-332.8187865667102,458.08577444371923L-287.50497033303793,395.71665367593914zM-332.8187865667102,458.08577444371923L-174.97319315833198,538.5121200986365L-151.15030601811236,465.19284151690294zM-174.97319315833198,538.5121200986365L-3.467129003951773e-14,566.2251625707744L-2.9950738410922266e-14,489.1326732692952zM-3.467129003951773e-14,566.2251625707744L174.97319315833198,538.5121200986365L151.15030601811236,465.19284151690294zM174.97319315833198,538.5121200986365L332.8187865667102,458.08577444371923L287.50497033303793,395.71665367593914zM332.8187865667102,458.08577444371923L458.0857744437192,332.8187865667102L395.7166536759391,287.50497033303793zM458.0857744437192,332.8187865667102L538.5121200986364,174.973193158332L465.1928415169029,151.15030601811236zM538.5121200986364,174.973193158332L566.2251625707745,3.060498161812574e-14L489.1326732692952,2.114172839452369e-14zM566.2251625707745,3.060498161812574e-14L538.5121200986364,-174.97319315833207L465.1928415169029,-151.15030601811242zM538.5121200986364,-174.97319315833207L458.0857744437192,-332.81878656671034L395.7166536759391,-287.50497033303805zM458.0857744437192,-332.81878656671034L332.8187865667102,-458.08577444371934L287.50497033303793,-395.71665367593926zM332.8187865667102,-458.08577444371934L174.97319315833198,-538.5121200986366L151.15030601811236,-465.19284151690306zM174.97319315833198,-538.5121200986366L1.0401387799980151e-13,-566.2251625707746L8.985221278512935e-14,-489.13267326929537zM1.0401387799980151e-13,-566.2251625707746L-174.97319315833198,-538.5121200986366L-151.15030601811236,-465.19284151690306zM-174.97319315833198,-538.5121200986366L-332.8187865667102,-458.08577444371934L-287.50497033303793,-395.71665367593926zM-332.8187865667102,-458.08577444371934L-458.0857744437192,-332.81878656671034L-395.7166536759391,-287.50497033303805zM-458.0857744437192,-332.81878656671034L-538.5121200986364,-174.97319315833207L-465.1928415169029,-151.15030601811242zM-538.5121200986364,-174.97319315833207L-566.2251625707745,-1.7742275861898064e-13L-489.1326732692952,-1.5856270207100994e-13zM-566.2251625707745,-3.873759846090972e-14L-655.025490552995,-3.8710459570816955e-14L-538.5121200986364,174.973193158332zM-538.5121200986364,174.973193158332L-622.9662488827624,202.41400779830002L-458.0857744437192,332.8187865667102zM-458.0857744437192,332.8187865667102L-529.9267658962991,385.01433370029645L-332.8187865667102,458.08577444371923zM-332.8187865667102,458.08577444371923L-385.0143337002964,529.9267658962992L-174.97319315833198,538.5121200986365zM174.97319315833198,538.5121200986365L202.4140077983,622.9662488827626L332.8187865667102,458.08577444371923zM332.8187865667102,458.08577444371923L385.0143337002964,529.9267658962992L458.0857744437192,332.8187865667102zM458.0857744437192,332.8187865667102L529.9267658962991,385.01433370029645L538.5121200986364,174.973193158332zM538.5121200986364,174.973193158332L622.9662488827624,202.41400779830002L566.2251625707745,3.060498161812574e-14zM566.2251625707745,3.060498161812574e-14L655.025490552995,4.150702886671814e-14L538.5121200986364,-174.97319315833207zM538.5121200986364,-174.97319315833207L622.9662488827624,-202.4140077983001L458.0857744437192,-332.81878656671034zM458.0857744437192,-332.81878656671034L529.9267658962991,-385.01433370029656L332.8187865667102,-458.08577444371934zM332.8187865667102,-458.08577444371934L385.0143337002964,-529.9267658962993L174.97319315833198,-538.5121200986366zM-174.97319315833198,-538.5121200986366L-202.4140077983,-622.9662488827627L-332.8187865667102,-458.08577444371934zM-332.8187865667102,-458.08577444371934L-385.0143337002964,-529.9267658962993L-458.0857744437192,-332.81878656671034zM-458.0857744437192,-332.81878656671034L-529.9267658962991,-385.01433370029656L-538.5121200986364,-174.97319315833207zM-538.5121200986364,-174.97319315833207L-622.9662488827624,-202.4140077983001L-566.2251625707745,-1.7742275861898064e-13zM-655.025490552995,-3.8710459570816955e-14L-622.9662488827624,202.41400779830002L-538.5121200986364,174.973193158332zM-622.9662488827624,202.41400779830002L-529.9267658962991,385.01433370029645L-458.0857744437192,332.8187865667102zM-529.9267658962991,385.01433370029645L-385.0143337002964,529.9267658962992L-332.8187865667102,458.08577444371923zM202.4140077983,622.9662488827626L385.0143337002964,529.9267658962992L332.8187865667102,458.08577444371923zM385.0143337002964,529.9267658962992L529.9267658962991,385.01433370029645L458.0857744437192,332.8187865667102zM529.9267658962991,385.01433370029645L622.9662488827624,202.41400779830002L538.5121200986364,174.973193158332zM622.9662488827624,202.41400779830002L655.025490552995,4.150702886671814e-14L566.2251625707745,3.060498161812574e-14zM655.025490552995,4.150702886671814e-14L622.9662488827624,-202.4140077983001L538.5121200986364,-174.97319315833207zM622.9662488827624,-202.4140077983001L529.9267658962991,-385.01433370029656L458.0857744437192,-332.81878656671034zM529.9267658962991,-385.01433370029656L385.0143337002964,-529.9267658962993L332.8187865667102,-458.08577444371934zM-202.4140077983,-622.9662488827627L-385.0143337002964,-529.9267658962993L-332.8187865667102,-458.08577444371934zM-385.0143337002964,-529.9267658962993L-529.9267658962991,-385.01433370029656L-458.0857744437192,-332.81878656671034zM-529.9267658962991,-385.01433370029656L-622.9662488827624,-202.4140077983001L-538.5121200986364,-174.97319315833207zM-622.9662488827624,-202.4140077983001L-655.025490552995,-1.9914543644588713e-13L-566.2251625707745,-1.7742275861898064e-13zM-655.025490552995,-3.8710459570816955e-14L-759.5411600193751,-3.86767193045058e-14L-622.9662488827624,202.41400779830002zM-622.9662488827624,202.41400779830002L-722.3665463332413,234.71112574913195L-529.9267658962991,385.01433370029645zM-529.9267658962991,385.01433370029645L-614.4816917062915,446.4470990085434L-385.0143337002964,529.9267658962992zM385.0143337002964,529.9267658962992L446.4470990085433,614.4816917062916L529.9267658962991,385.01433370029645zM529.9267658962991,385.01433370029645L614.4816917062915,446.4470990085434L622.9662488827624,202.41400779830002zM622.9662488827624,202.41400779830002L722.3665463332413,234.71112574913195L655.025490552995,4.150702886671814e-14zM655.025490552995,4.150702886671814e-14L759.5411600193751,5.43402460396432e-14L622.9662488827624,-202.4140077983001zM622.9662488827624,-202.4140077983001L722.3665463332413,-234.71112574913204L529.9267658962991,-385.01433370029656zM529.9267658962991,-385.01433370029656L614.4816917062915,-446.4470990085434L385.0143337002964,-529.9267658962993zM-385.0143337002964,-529.9267658962993L-446.4470990085433,-614.4816917062916L-529.9267658962991,-385.01433370029656zM-529.9267658962991,-385.01433370029656L-614.4816917062915,-446.4470990085434L-622.9662488827624,-202.4140077983001zM-622.9662488827624,-202.4140077983001L-722.3665463332413,-234.71112574913204L-655.025490552995,-1.9914543644588713e-13zM-759.5411600193751,-3.86767193045058e-14L-722.3665463332413,234.71112574913195L-622.9662488827624,202.41400779830002zM-722.3665463332413,234.71112574913195L-614.4816917062915,446.4470990085434L-529.9267658962991,385.01433370029645zM-614.4816917062915,446.4470990085434L-446.4470990085433,614.4816917062916L-385.0143337002964,529.9267658962992zM446.4470990085433,614.4816917062916L614.4816917062915,446.4470990085434L529.9267658962991,385.01433370029645zM614.4816917062915,446.4470990085434L722.3665463332413,234.71112574913195L622.9662488827624,202.41400779830002zM722.3665463332413,234.71112574913195L759.5411600193751,5.43402460396432e-14L655.025490552995,4.150702886671814e-14zM759.5411600193751,5.43402460396432e-14L722.3665463332413,-234.71112574913204L622.9662488827624,-202.4140077983001zM722.3665463332413,-234.71112574913204L614.4816917062915,-446.4470990085434L529.9267658962991,-385.01433370029656zM614.4816917062915,-446.4470990085434L446.4470990085433,-614.4816917062916L385.0143337002964,-529.9267658962993zM-446.4470990085433,-614.4816917062916L-614.4816917062915,-446.4470990085434L-529.9267658962991,-385.01433370029656zM-614.4816917062915,-446.4470990085434L-722.3665463332413,-234.71112574913204L-622.9662488827624,-202.4140077983001zM-722.3665463332413,-234.71112574913204L-759.5411600193751,-2.2471064999280383e-13L-655.025490552995,-1.9914543644588713e-13zM-759.5411600193751,-3.86767193045058e-14L-885.7415672060396,-3.863396223035901e-14L-722.3665463332413,234.71112574913195zM-722.3665463332413,234.71112574913195L-842.3903011271381,273.70920655438414L-614.4816917062915,446.4470990085434zM-614.4816917062915,446.4470990085434L-716.5799901574039,520.6258338669622L-446.4470990085433,614.4816917062916zM446.4470990085433,614.4816917062916L520.6258338669622,716.579990157404L614.4816917062915,446.4470990085434zM614.4816917062915,446.4470990085434L716.5799901574039,520.6258338669622L722.3665463332413,234.71112574913195zM722.3665463332413,234.71112574913195L842.3903011271381,273.70920655438414L759.5411600193751,5.43402460396432e-14zM759.5411600193751,5.43402460396432e-14L885.7415672060396,6.983809562973176e-14L722.3665463332413,-234.71112574913204zM722.3665463332413,-234.71112574913204L842.3903011271381,-273.7092065543842L614.4816917062915,-446.4470990085434zM614.4816917062915,-446.4470990085434L716.5799901574039,-520.6258338669622L446.4470990085433,-614.4816917062916zM-446.4470990085433,-614.4816917062916L-520.6258338669622,-716.579990157404L-614.4816917062915,-446.4470990085434zM-614.4816917062915,-446.4470990085434L-716.5799901574039,-520.6258338669622L-722.3665463332413,-234.71112574913204zM-722.3665463332413,-234.71112574913204L-842.3903011271381,-273.7092065543842L-759.5411600193751,-2.2471064999280383e-13zM-885.7415672060396,-3.863396223035901e-14L-842.3903011271381,273.70920655438414L-722.3665463332413,234.71112574913195zM-842.3903011271381,273.70920655438414L-716.5799901574039,520.6258338669622L-614.4816917062915,446.4470990085434zM520.6258338669622,716.579990157404L716.5799901574039,520.6258338669622L614.4816917062915,446.4470990085434zM716.5799901574039,520.6258338669622L842.3903011271381,273.70920655438414L722.3665463332413,234.71112574913195zM842.3903011271381,273.70920655438414L885.7415672060396,6.983809562973176e-14L759.5411600193751,5.43402460396432e-14zM885.7415672060396,6.983809562973176e-14L842.3903011271381,-273.7092065543842L722.3665463332413,-234.71112574913204zM842.3903011271381,-273.7092065543842L716.5799901574039,-520.6258338669622L614.4816917062915,-446.4470990085434zM-520.6258338669622,-716.579990157404L-716.5799901574039,-520.6258338669622L-614.4816917062915,-446.4470990085434zM-716.5799901574039,-520.6258338669622L-842.3903011271381,-273.7092065543842L-722.3665463332413,-234.71112574913204zM-842.3903011271381,-273.7092065543842L-885.7415672060396,-2.5557807795054053e-13L-759.5411600193751,-2.2471064999280383e-13zM-885.7415672060396,-3.863396223035901e-14L-1042.9450679862268,-3.8578403718624866e-14L-842.3903011271381,273.70920655438414zM-842.3903011271381,273.70920655438414L-991.8997080536566,322.2877252388046L-716.5799901574039,520.6258338669622zM716.5799901574039,520.6258338669622L843.7602945111363,613.0277150408522L842.3903011271381,273.70920655438414zM842.3903011271381,273.70920655438414L991.8997080536566,322.2877252388046L885.7415672060396,6.983809562973176e-14zM885.7415672060396,6.983809562973176e-14L1042.9450679862268,8.914552986973277e-14L842.3903011271381,-273.7092065543842zM842.3903011271381,-273.7092065543842L991.8997080536566,-322.28772523880474L716.5799901574039,-520.6258338669622zM-716.5799901574039,-520.6258338669622L-843.7602945111363,-613.0277150408522L-842.3903011271381,-273.7092065543842zM-842.3903011271381,-273.7092065543842L-991.8997080536566,-322.28772523880474L-885.7415672060396,-2.5557807795054053e-13zM-1042.9450679862268,-3.8578403718624866e-14L-991.8997080536566,322.2877252388046L-842.3903011271381,273.70920655438414zM-991.8997080536566,322.2877252388046L-843.7602945111363,613.0277150408522L-716.5799901574039,520.6258338669622zM843.7602945111363,613.0277150408522L991.8997080536566,322.2877252388046L842.3903011271381,273.70920655438414zM991.8997080536566,322.2877252388046L1042.9450679862268,8.914552986973277e-14L885.7415672060396,6.983809562973176e-14zM1042.9450679862268,8.914552986973277e-14L991.8997080536566,-322.28772523880474L842.3903011271381,-273.7092065543842zM991.8997080536566,-322.28772523880474L843.7602945111363,-613.0277150408522L716.5799901574039,-520.6258338669622zM-843.7602945111363,-613.0277150408522L-991.8997080536566,-322.28772523880474L-842.3903011271381,-273.7092065543842zM-991.8997080536566,-322.28772523880474L-1042.9450679862268,-2.9402627089534015e-13L-885.7415672060396,-2.5557807795054053e-13zM-991.8997080536566,322.2877252388046L-1185.5606206000625,385.21198927877407L-843.7602945111363,613.0277150408522zM843.7602945111363,613.0277150408522L1008.4981068743194,732.7167014162699L991.8997080536566,322.2877252388046zM991.8997080536566,-322.28772523880474L1185.5606206000625,-385.2119892787742L843.7602945111363,-613.0277150408522zM-843.7602945111363,-613.0277150408522L-1008.4981068743197,-732.71670141627L-991.8997080536566,-322.28772523880474zM-1185.5606206000625,385.21198927877407L-1008.4981068743194,732.7167014162699L-843.7602945111363,613.0277150408522zM1185.5606206000625,-385.2119892787742L1008.4981068743197,-732.71670141627L843.7602945111363,-613.0277150408522z" style="fill:none;stroke:rgb(0,0,0);stroke-opacity:1;stroke-width:1;stroke-linecap:round;stroke-linejoin:round"></path></svg>