<svg viewBox="-660 -408.5 1320 817" width="1320pt" height="817pt" xmlns="http://www.w3.org/2000/svg" style="touch-action: none; background-color: rgb(255, 255, 255);"><path d="M-39.52655806729214,-13.569355884976314L-4.222718545759815e-14,0.0001335981810115662L6.8118687847322965,-19.842163285352406zM-4.222718545759815e-14,0.0001335981810115662L-6.81186929259253,19.84242998332717L39.526560082585505,13.569613855182325zM6.8118687847322965,-19.842163285352406L-4.222718545759815e-14,0.0001335981810115662L46.12630585774041,-6.6192171282162215zM-46.12630700496812,6.619472643386597L-6.81186929259253,19.84242998332717L-4.222718545759815e-14,0.0001335981810115662zM-32.334449136928605,-33.55482720404567L6.8118687847322965,-19.842163285352406L13.617058449024308,-39.66500654720709zM-6.81186929259253,19.84242998332717L-13.617060478473809,39.66527171668822L32.3344532136224,33.555086785157364zM-39.52655806729214,-13.569355884976314L-46.12630700496812,6.619472643386597L-4.222718545759815e-14,0.0001335981810115662zM-4.222718545759815e-14,0.0001335981810115662L39.526560082585505,13.569613855182325L46.12630585774041,-6.6192171282162215zM-32.334449136928605,-33.55482720404567L-39.52655806729214,-13.569355884976314L6.8118687847322965,-19.842163285352406zM-6.81186929259253,19.84242998332717L32.3344532136224,33.555086785157364L39.526560082585505,13.569613855182325zM13.617058449024308,-39.66500654720709L6.8118687847322965,-19.842163285352406L52.1193246183478,-26.981877365431867zM-52.11932990230045,26.98212964329553L-13.617060478473809,39.66527171668822L-6.81186929259253,19.84242998332717zM6.8118687847322965,-19.842163285352406L46.12630585774041,-6.6192171282162215L52.1193246183478,-26.981877365431867zM-46.12630700496812,6.619472643386597L-52.11932990230045,26.98212964329553L-6.81186929259253,19.84242998332717zM-24.55678043818198,-53.30481526074367L-32.334449136928605,-33.55482720404567L13.617058449024308,-39.66500654720709zM-13.617060478473809,39.66527171668822L24.556785356593775,53.30507547942636L32.3344532136224,33.555086785157364zM-24.55678043818198,-53.30481526074367L13.617058449024308,-39.66500654720709L20.40758299316283,-59.44513380635856zM-13.617060478473809,39.66527171668822L-20.407587551377905,59.44539631530671L24.556785356593775,53.30507547942636zM13.617058449024308,-39.66500654720709L52.1193246183478,-26.981877365431867L57.48223596401169,-47.48740190933571zM-52.11932990230045,26.98212964329553L-57.482246220511044,47.48765016220243L-13.617060478473809,39.66527171668822zM20.40758299316283,-59.44513380635856L13.617058449024308,-39.66500654720709L57.48223596401169,-47.48740190933571zM-57.482246220511044,47.48765016220243L-20.407587551377905,59.44539631530671L-13.617060478473809,39.66527171668822zM-77.99835485190019,-26.776755519367164L-39.52655806729214,-13.569355884976314L-32.334449136928605,-33.55482720404567zM39.526560082585505,13.569613855182325L32.3344532136224,33.555086785157364L77.99836269939786,26.776985259865896zM-16.19412061717106,-72.780523877251L-24.55678043818198,-53.30481526074367L20.40758299316283,-59.44513380635856zM-20.407587551377905,59.44539631530671L16.19412504569804,72.78078355993252L24.556785356593775,53.30507547942636zM-84.54425865053128,-5.735429127184649L-46.12630700496812,6.619472643386597L-39.52655806729214,-13.569355884976314zM46.12630585774041,-6.6192171282162215L39.526560082585505,13.569613855182325L84.54426047251495,5.73565453275514zM-70.24013650789871,-47.40189374392689L-32.334449136928605,-33.55482720404567L-24.55678043818198,-53.30481526074367zM32.3344532136224,33.555086785157364L24.556785356593775,53.30507547942636L70.24014901820854,47.402127468555555zM52.1193246183478,-26.981877365431867L46.12630585774041,-6.6192171282162215L89.84908489437736,-15.656709669191388zM-89.84909018008521,15.656930562171935L-52.11932990230045,26.98212964329553L-46.12630700496812,6.619472643386597zM-16.19412061717106,-72.780523877251L20.40758299316283,-59.44513380635856L27.17275433953934,-79.151411825681zM-20.407587551377905,59.44539631530671L-27.172762420798318,79.15167036581364L16.19412504569804,72.78078355993252zM20.40758299316283,-59.44513380635856L57.48223596401169,-47.48740190933571L62.18119898874867,-68.09908829902477zM-57.482246220511044,47.48765016220243L-62.18121489937007,68.0993316627274L-20.407587551377905,59.44539631530671zM27.17275433953934,-79.151411825681L20.40758299316283,-59.44513380635856L62.18119898874867,-68.09908829902477zM-62.18121489937007,68.0993316627274L-27.172762420798318,79.15167036581364L-20.407587551377905,59.44539631530671zM-77.99835485190019,-26.776755519367164L-84.54425865053128,-5.735429127184649L-39.52655806729214,-13.569355884976314zM39.526560082585505,13.569613855182325L77.99836269939786,26.776985259865896L84.54426047251495,5.73565453275514zM-61.286928975853264,-67.54176423415825L-24.55678043818198,-53.30481526074367L-16.19412061717106,-72.780523877251zM24.556785356593775,53.30507547942636L16.19412504569804,72.78078355993252L61.286944529312464,67.54200134691358zM-70.24013650789871,-47.40189374392689L-77.99835485190019,-26.776755519367164L-32.334449136928605,-33.55482720404567zM32.3344532136224,33.555086785157364L70.24014901820854,47.402127468555555L77.99836269939786,26.776985259865896zM-7.242307577489815,-91.93220420193428L-16.19412061717106,-72.780523877251L27.17275433953934,-79.151411825681zM-27.172762420798318,79.15167036581364L7.242310079166789,91.93246189650391L16.19412504569804,72.78078355993252zM46.12630585774041,-6.6192171282162215L84.54426047251495,5.73565453275514L89.84908489437736,-15.656709669191388zM-84.54425865053128,-5.735429127184649L-89.84909018008521,15.656930562171935L-46.12630700496812,6.619472643386597zM57.48223596401169,-47.48740190933571L52.1193246183478,-26.981877365431867L93.87117191106012,-37.334285171524385zM-93.87118507928668,37.33450147542702L-57.482246220511044,47.48765016220243L-52.11932990230045,26.98212964329553zM-61.286928975853264,-67.54176423415825L-70.24013650789871,-47.40189374392689L-24.55678043818198,-53.30481526074367zM24.556785356593775,53.30507547942636L61.286944529312464,67.54200134691358L70.24014901820854,47.402127468555555zM52.1193246183478,-26.981877365431867L89.84908489437736,-15.656709669191388L93.87117191106012,-37.334285171524385zM-89.84909018008521,15.656930562171935L-93.87118507928668,37.33450147542702L-52.11932990230045,26.98212964329553zM-7.242307577489815,-91.93220420193428L27.17275433953934,-79.151411825681L33.897614104665756,-98.74026842024311zM-27.172762420798318,79.15167036581364L-33.897626680881906,98.74052142292358L7.242310079166789,91.93246189650391zM-51.146282244376415,-87.11883356011022L-16.19412061717106,-72.780523877251L-7.242307577489815,-91.93220420193428zM16.19412504569804,72.78078355993252L7.242310079166789,91.93246189650391L51.14629898658347,87.11907314423775zM-51.146282244376415,-87.11883356011022L-61.286928975853264,-67.54176423415825L-16.19412061717106,-72.780523877251zM16.19412504569804,72.78078355993252L51.14629898658347,87.11907314423775L61.286944529312464,67.54200134691358zM27.17275433953934,-79.151411825681L62.18119898874867,-68.09908829902477L66.17025689383823,-88.76973326598223zM-62.18121489937007,68.0993316627274L-66.17027896444678,88.76997072097794L-27.172762420798318,79.15167036581364zM62.18119898874867,-68.09908829902477L57.48223596401169,-47.48740190933571L96.55467649457944,-59.22572331270875zM-96.55469798131456,59.22593497695106L-62.18121489937007,68.0993316627274L-57.482246220511044,47.48765016220243zM33.897614104665756,-98.74026842024311L27.17275433953934,-79.151411825681L66.17025689383823,-88.76973326598223zM-66.17027896444678,88.76997072097794L-33.897626680881906,98.74052142292358L-27.172762420798318,79.15167036581364zM2.305932177948986,-110.69437904195166L-7.242307577489815,-91.93220420193428L33.897614104665756,-98.74026842024311zM-33.897626680881906,98.74052142292358L-2.305933137037368,110.69463292870316L7.242310079166789,91.93246189650391zM57.48223596401169,-47.48740190933571L93.87117191106012,-37.334285171524385L96.55467649457944,-59.22572331270875zM-93.87118507928668,37.33450147542702L-96.55469798131456,59.22593497695106L-57.482246220511044,47.48765016220243zM-39.81794995861561,-106.04249698387392L-51.146282244376415,-87.11883356011022L-7.242307577489815,-91.93220420193428zM7.242310079166789,91.93246189650391L39.817965823807825,106.04273772028823L51.14629898658347,87.11907314423775zM-39.81794995861561,-106.04249698387392L-7.242307577489815,-91.93220420193428L2.305932177948986,-110.69437904195166zM7.242310079166789,91.93246189650391L-2.305933137037368,110.69463292870316L39.817965823807825,106.04273772028823zM-114.00226935814071,-39.13694091870219L-77.99835485190019,-26.776755519367164L-70.24013650789871,-47.40189374392689zM77.99836269939786,26.776985259865896L70.24014901820854,47.402127468555555L114.00228612251412,39.1371218459797zM-120.6531216395783,-16.701665208374337L-84.54425865053128,-5.735429127184649L-77.99835485190019,-26.776755519367164zM84.54426047251495,5.73565453275514L77.99836269939786,26.776985259865896L120.65312921115873,16.701839983626375zM-105.47068555466767,-60.9265600731733L-70.24013650789871,-47.40189374392689L-61.286928975853264,-67.54176423415825zM70.24014901820854,47.402127468555555L61.286944529312464,67.54200134691358L105.47070969954837,60.926747747942734zM2.305932177948986,-110.69437904195166L33.897614104665756,-98.74026842024311L40.56110211807836,-118.15035753535217zM-33.897626680881906,98.74052142292358L-40.561120124659205,118.15060307342657L-2.305933137037368,110.69463292870316zM66.17025689383823,-88.76973326598223L62.18119898874867,-68.09908829902477L97.828361809758,-81.24888563201831zM-97.8283916751853,81.24909254937015L-66.17027896444678,88.76997072097794L-62.18121489937007,68.0993316627274zM89.84908489437736,-15.656709669191388L84.54426047251495,5.73565453275514L125.37347829921103,-6.245214311487027zM-125.37348124122575,6.2453838451472246L-89.84909018008521,15.656930562171935L-84.54425865053128,-5.735429127184649zM33.897614104665756,-98.74026842024311L66.17025689383823,-88.76973326598223L69.3895714930583,-109.43611590473138zM-66.17027896444678,88.76997072097794L-69.3896000256579,109.43634618490195L-33.897626680881906,98.74052142292358zM62.18119898874867,-68.09908829902477L96.55467649457944,-59.22572331270875L97.828361809758,-81.24888563201831zM-96.55469798131456,59.22593497695106L-97.8283916751853,81.24909254937015L-62.18121489937007,68.0993316627274zM-95.10133496330259,-81.9343062992946L-61.286928975853264,-67.54176423415825L-51.146282244376415,-87.11883356011022zM61.286944529312464,67.54200134691358L51.14629898658347,87.11907314423775L95.10136424113328,81.93450091066711zM40.56110211807836,-118.15035753535217L33.897614104665756,-98.74026842024311L69.3895714930583,-109.43611590473138zM-69.3896000256579,109.43634618490195L-40.561120124659205,118.15060307342657L-33.897626680881906,98.74052142292358zM93.87117191106012,-37.334285171524385L89.84908489437736,-15.656709669191388L128.10549257614989,-29.567891861500986zM-128.10550680845583,29.56805728316489L-93.87118507928668,37.33450147542702L-89.84909018008521,15.656930562171935zM-27.296166693933735,-124.20418125724838L-39.81794995861561,-106.04249698387392L2.305932177948986,-110.69437904195166zM-2.305933137037368,110.69463292870316L27.296179432610447,124.20442133470543L39.817965823807825,106.04273772028823zM12.458988264648855,-128.98040492057302L2.305932177948986,-110.69437904195166L40.56110211807836,-118.15035753535217zM-40.561120124659205,118.15060307342657L-12.458994302646758,128.98065270899488L-2.305933137037368,110.69463292870316zM-114.00226935814071,-39.13694091870219L-120.6531216395783,-16.701665208374337L-77.99835485190019,-26.776755519367164zM77.99836269939786,26.776985259865896L114.00228612251412,39.1371218459797L120.65312921115873,16.701839983626375zM-27.296166693933735,-124.20418125724838L2.305932177948986,-110.69437904195166L12.458988264648855,-128.98040492057302zM-2.305933137037368,110.69463292870316L-12.458994302646758,128.98065270899488L27.296179432610447,124.20442133470543zM-105.47068555466767,-60.9265600731733L-114.00226935814071,-39.13694091870219L-70.24013650789871,-47.40189374392689zM70.24014901820854,47.402127468555555L105.47070969954837,60.926747747942734L114.00228612251412,39.1371218459797zM-82.93219751812151,-102.01721237136303L-51.146282244376415,-87.11883356011022L-39.81794995861561,-106.04249698387392zM51.14629898658347,87.11907314423775L39.817965823807825,106.04273772028823L82.93222930757453,102.01741361319974zM-120.6531216395783,-16.701665208374337L-125.37348124122575,6.2453838451472246L-84.54425865053128,-5.735429127184649zM84.54426047251495,5.73565453275514L120.65312921115873,16.701839983626375L125.37347829921103,-6.245214311487027zM-95.10133496330259,-81.9343062992946L-105.47068555466767,-60.9265600731733L-61.286928975853264,-67.54176423415825zM61.286944529312464,67.54200134691358L95.10136424113328,81.93450091066711L105.47070969954837,60.926747747942734zM96.55467649457944,-59.22572331270875L93.87117191106012,-37.334285171524385L128.78271781292824,-53.12288255250654zM-128.78274351841583,53.12304510831373L-96.55469798131456,59.22593497695106L-93.87118507928668,37.33450147542702zM69.3895714930583,-109.43611590473138L66.17025689383823,-88.76973326598223L97.60474962125839,-103.30493540576187zM-97.6047875072318,103.30513731818216L-69.3896000256579,109.43634618490195L-66.17027896444678,88.76997072097794zM66.17025689383823,-88.76973326598223L97.828361809758,-81.24888563201831L97.60474962125839,-103.30493540576187zM-97.8283916751853,81.24909254937015L-97.6047875072318,103.30513731818216L-66.17027896444678,88.76997072097794zM89.84908489437736,-15.656709669191388L125.37347829921103,-6.245214311487027L128.10549257614989,-29.567891861500986zM-125.37348124122575,6.2453838451472246L-128.10550680845583,29.56805728316489L-89.84909018008521,15.656930562171935zM12.458988264648855,-128.98040492057302L40.56110211807836,-118.15035753535217L47.13384431579085,-137.29611560011205zM-40.561120124659205,118.15060307342657L-47.13386863097248,137.2963512711515L-12.458994302646758,128.98065270899488zM-82.93219751812151,-102.01721237136303L-95.10133496330259,-81.9343062992946L-51.146282244376415,-87.11883356011022zM51.14629898658347,87.11907314423775L82.93222930757453,102.01741361319974L95.10136424113328,81.93450091066711zM40.56110211807836,-118.15035753535217L69.3895714930583,-109.43611590473138L71.76347368139372,-130.01242440038016zM-69.3896000256579,109.43634618490195L-71.76350873839017,130.0126458846445L-40.561120124659205,118.15060307342657zM-68.99885427082843,-121.02136959564577L-39.81794995861561,-106.04249698387392L-27.296166693933735,-124.20418125724838zM39.817965823807825,106.04273772028823L27.296179432610447,124.20442133470543L68.998885646305,121.02157657935072zM-13.572606558522407,-141.47216018131857L-27.296166693933735,-124.20418125724838L12.458988264648855,-128.98040492057302zM-12.458994302646758,128.98065270899488L13.572613773261661,141.47239719703256L27.296179432610447,124.20442133470543zM93.87117191106012,-37.334285171524385L128.10549257614989,-29.567891861500986L128.78271781292824,-53.12288255250654zM-128.10550680845583,29.56805728316489L-128.78274351841583,53.12304510831373L-93.87118507928668,37.33450147542702zM97.828361809758,-81.24888563201831L96.55467649457944,-59.22572331270875L127.33029001675281,-76.7545502106517zM-127.33032673841208,76.75471115074112L-97.8283916751853,81.24909254937015L-96.55469798131456,59.22593497695106zM47.13384431579085,-137.29611560011205L40.56110211807836,-118.15035753535217L71.76347368139372,-130.01242440038016zM-71.76350873839017,130.0126458846445L-47.13386863097248,137.2963512711515L-40.561120124659205,118.15060307342657zM-68.99885427082843,-121.02136959564577L-82.93219751812151,-102.01721237136303L-39.81794995861561,-106.04249698387392zM39.817965823807825,106.04273772028823L68.998885646305,121.02157657935072L82.93222930757453,102.01741361319974zM23.223867484572082,-146.6760874142436L12.458988264648855,-128.98040492057302L47.13384431579085,-137.29611560011205zM-47.13386863097248,137.2963512711515L-23.22388028369634,146.67632622250525L-12.458994302646758,128.98065270899488zM-13.572606558522407,-141.47216018131857L12.458988264648855,-128.98040492057302L23.223867484572082,-146.6760874142436zM-12.458994302646758,128.98065270899488L-23.22388028369634,146.67632622250525L13.572613773261661,141.47239719703256zM96.55467649457944,-59.22572331270875L128.78271781292824,-53.12288255250654L127.33029001675281,-76.7545502106517zM-128.78274351841583,53.12304510831373L-127.33032673841208,76.75471115074112L-96.55469798131456,59.22593497695106zM69.3895714930583,-109.43611590473138L97.60474962125839,-103.30493540576187L95.77958744388356,-125.27159260611899zM-97.6047875072318,103.30513731818216L-95.77963252679163,125.27178899457452L-69.3896000256579,109.43634618490195zM-53.33782058646713,-138.77797688550692L-27.296166693933735,-124.20418125724838L-13.572606558522407,-141.47216018131857zM27.296179432610447,124.20442133470543L13.572613773261661,141.47239719703256L53.33784839910493,138.77818805465589zM71.76347368139372,-130.01242440038016L69.3895714930583,-109.43611590473138L95.77958744388356,-125.27159260611899zM-95.77963252679163,125.27178899457452L-71.76350873839017,130.0126458846445L-69.3896000256579,109.43634618490195zM-53.33782058646713,-138.77797688550692L-68.99885427082843,-121.02136959564577L-27.296166693933735,-124.20418125724838zM27.296179432610447,124.20442133470543L53.33784839910493,138.77818805465589L68.998885646305,121.02157657935072zM97.60474962125839,-103.30493540576187L97.828361809758,-81.24888563201831L123.66594637249689,-100.28950116895147zM-123.66599297314373,100.28966162227312L-97.6047875072318,103.30513731818216L-97.8283916751853,81.24909254937015zM1.359894413253602,-157.6859045351821L-13.572606558522407,-141.47216018131857L23.223867484572082,-146.6760874142436zM-23.22388028369634,146.67632622250525L-1.3598952189741886,157.686135385956L13.572613773261661,141.47239719703256zM23.223867484572082,-146.6760874142436L47.13384431579085,-137.29611560011205L53.57546105767143,-156.05992092269048zM-47.13386863097248,137.2963512711515L-53.57549247314831,156.06014370910157L-23.22388028369634,146.67632622250525zM-145.35785644829528,-49.90136520627533L-114.00226935814071,-39.13694091870219L-105.47068555466767,-60.9265600731733zM114.00228612251412,39.1371218459797L105.47070969954837,60.926747747942734L145.35788370274207,49.90147444879614zM47.13384431579085,-137.29611560011205L71.76347368139372,-130.01242440038016L73.19841172120151,-150.38231245692182zM-71.76350873839017,130.0126458846445L-73.19845308160457,150.38252303874862L-47.13386863097248,137.2963512711515zM-152.28612942263698,-25.488425464904573L-120.6531216395783,-16.701665208374337L-114.00226935814071,-39.13694091870219zM120.65312921115873,16.701839983626375L114.00228612251412,39.1371218459797L152.2861440070904,25.488526898971784zM97.828361809758,-81.24888563201831L127.33029001675281,-76.7545502106517L123.66594637249689,-100.28950116895147zM-127.33032673841208,76.75471115074112L-123.66599297314373,100.28966162227312L-97.8283916751853,81.24909254937015zM-135.83048686308467,-73.42203243449237L-105.47068555466767,-60.9265600731733L-95.10133496330259,-81.9343062992946zM105.47070969954837,60.926747747942734L95.10136424113328,81.93450091066711L135.83052433535363,73.42215168286143zM-156.536907015509,-0.4316039719748557L-125.37348124122575,6.2453838451472246L-120.6531216395783,-16.701665208374337zM125.37347829921103,-6.245214311487027L120.65312921115873,16.701839983626375L156.53690726939368,0.43170029089809236zM-123.79471858641801,-95.80625878573548L-95.10133496330259,-81.9343062992946L-82.93219751812151,-102.01721237136303zM95.10136424113328,81.93450091066711L82.93222930757453,102.01741361319974L123.7947631502257,95.80638959245611zM128.10549257614989,-29.567891861500986L125.37347829921103,-6.245214311487027L158.0438229183513,-25.014222749426377zM-158.0438377726208,25.014316975049642L-128.10550680845583,29.56805728316489L-125.37348124122575,6.2453838451472246zM-35.99067997193062,-155.09967552530088L-53.33782058646713,-138.77797688550692L-13.572606558522407,-141.47216018131857zM13.572613773261661,141.47239719703256L35.99070094622134,155.09988857430758L53.33784839910493,138.77818805465589zM-35.99067997193062,-155.09967552530088L-13.572606558522407,-141.47216018131857L1.359894413253602,-157.6859045351821zM13.572613773261661,141.47239719703256L-1.3598952189741886,157.686135385956L35.99070094622134,155.09988857430758zM53.57546105767143,-156.05992092269048L47.13384431579085,-137.29611560011205L73.19841172120151,-150.38231245692182zM-73.19845308160457,150.38252303874862L-53.57549247314831,156.06014370910157L-47.13386863097248,137.2963512711515zM1.359894413253602,-157.6859045351821L23.223867484572082,-146.6760874142436L34.602933876044474,-163.63215236817695zM-23.22388028369634,146.67632622250525L-34.60295515096368,163.6323785831634L-1.3598952189741886,157.686135385956zM34.602933876044474,-163.63215236817695L23.223867484572082,-146.6760874142436L53.57546105767143,-156.05992092269048zM-53.57549247314831,156.06014370910157L-34.60295515096368,163.6323785831634L-23.22388028369634,146.67632622250525zM-109.3546822393725,-116.81223184932314L-82.93219751812151,-102.01721237136303L-68.99885427082843,-121.02136959564577zM82.93222930757453,102.01741361319974L68.998885646305,121.02157657935072L109.35473023613946,116.81237499387163zM71.76347368139372,-130.01242440038016L95.77958744388356,-125.27159260611899L92.2319369368665,-146.99541005135612zM-95.77963252679163,125.27178899457452L-92.23198787833061,146.99560000520543L-71.76350873839017,130.0126458846445zM95.77958744388356,-125.27159260611899L97.60474962125839,-103.30493540576187L117.70214458638992,-123.53084214493677zM-117.70219921826171,123.53100297879078L-95.77963252679163,125.27178899457452L-97.6047875072318,103.30513731818216zM128.78271781292824,-53.12288255250654L128.10549257614989,-29.567891861500986L156.75315961454652,-50.585780755199636zM-156.75318940870545,50.58587605475327L-128.78274351841583,53.12304510831373L-128.10550680845583,29.56805728316489zM73.19841172120151,-150.38231245692182L71.76347368139372,-130.01242440038016L92.2319369368665,-146.99541005135612zM-92.23198787833061,146.99560000520543L-73.19845308160457,150.38252303874862L-71.76350873839017,130.0126458846445zM97.60474962125839,-103.30493540576187L123.66594637249689,-100.28950116895147L117.70214458638992,-123.53084214493677zM-123.66599297314373,100.28966162227312L-117.70219921826171,123.53100297879078L-97.6047875072318,103.30513731818216zM-92.62979739353912,-136.19904124273322L-68.99885427082843,-121.02136959564577L-53.33782058646713,-138.77797688550692zM68.998885646305,121.02157657935072L53.33784839910493,138.77818805465589L92.6298447971082,136.1991966276904zM-145.35785644829528,-49.90136520627533L-152.28612942263698,-25.488425464904573L-114.00226935814071,-39.13694091870219zM114.00228612251412,39.1371218459797L145.35788370274207,49.90147444879614L152.2861440070904,25.488526898971784zM-135.83048686308467,-73.42203243449237L-145.35785644829528,-49.90136520627533L-105.47068555466767,-60.9265600731733zM105.47070969954837,60.926747747942734L135.83052433535363,73.42215168286143L145.35788370274207,49.90147444879614zM17.502524422620258,-172.65004116108707L1.359894413253602,-157.6859045351821L34.602933876044474,-163.63215236817695zM-34.60295515096368,163.6323785831634L-17.502535776746484,172.65026192699824L-1.3598952189741886,157.686135385956zM-152.28612942263698,-25.488425464904573L-156.536907015509,-0.4316039719748557L-120.6531216395783,-16.701665208374337zM120.65312921115873,16.701839983626375L152.2861440070904,25.488526898971784L156.53690726939368,0.43170029089809236zM127.33029001675281,-76.7545502106517L128.78271781292824,-53.12288255250654L152.62535222150552,-76.00857745642894zM-152.62539581036935,76.00867694613144L-127.33032673841208,76.75471115074112L-128.78274351841583,53.12304510831373zM-123.79471858641801,-95.80625878573548L-135.83048686308467,-73.42203243449237L-95.10133496330259,-81.9343062992946zM95.10136424113328,81.93450091066711L123.7947631502257,95.80638959245611L135.83052433535363,73.42215168286143zM-17.00928341897533,-169.77731954981084L-35.99067997193062,-155.09967552530088L1.359894413253602,-157.6859045351821zM-1.3598952189741886,157.686135385956L17.009294269531924,169.77753135068474L35.99070094622134,155.09988857430758zM125.37347829921103,-6.245214311487027L156.53690726939368,0.43170029089809236L158.0438229183513,-25.014222749426377zM-156.536907015509,-0.4316039719748557L-158.0438377726208,25.014316975049642L-125.37348124122575,6.2453838451472246zM-109.3546822393725,-116.81223184932314L-123.79471858641801,-95.80625878573548L-82.93219751812151,-102.01721237136303zM82.93222930757453,102.01741361319974L109.35473023613946,116.81237499387163L123.7947631502257,95.80638959245611zM-17.00928341897533,-169.77731954981084L1.359894413253602,-157.6859045351821L17.502524422620258,-172.65004116108707zM-1.3598952189741886,157.686135385956L-17.502535776746484,172.65026192699824L17.009294269531924,169.77753135068474zM34.602933876044474,-163.63215236817695L53.57546105767143,-156.05992092269048L59.83129614385384,-174.28256563786698zM-53.57549247314831,156.06014370910157L-59.83133532423657,174.2827717399905L-34.60295515096368,163.6323785831634zM53.57546105767143,-156.05992092269048L73.19841172120151,-150.38231245692182L73.5809648809067,-170.38934602473464zM-73.19845308160457,150.38252303874862L-73.58101198885869,170.38954295469017L-53.57549247314831,156.06014370910157zM128.10549257614989,-29.567891861500986L158.0438229183513,-25.014222749426377L156.75315961454652,-50.585780755199636zM-158.0438377726208,25.014316975049642L-156.75318940870545,50.58587605475327L-128.10550680845583,29.56805728316489zM-73.75737899519547,-153.72584850000956L-53.33782058646713,-138.77797688550692L-35.99067997193062,-155.09967552530088zM53.33784839910493,138.77818805465589L35.99070094622134,155.09988857430758L73.75742159804548,153.72601507541577zM123.66594637249689,-100.28950116895147L127.33029001675281,-76.7545502106517L145.6374891224112,-100.9952822145081zM-145.6375443887252,100.99538875348658L-123.66599297314373,100.28966162227312L-127.33032673841208,76.75471115074112zM-92.62979739353912,-136.19904124273322L-109.3546822393725,-116.81223184932314L-68.99885427082843,-121.02136959564577zM68.998885646305,121.02157657935072L92.6298447971082,136.1991966276904L109.35473023613946,116.81237499387163zM92.2319369368665,-146.99541005135612L95.77958744388356,-125.27159260611899L109.34947192999624,-146.252286786185zM-109.34953202047079,146.25244844901366L-92.23198787833061,146.99560000520543L-95.77963252679163,125.27178899457452zM17.502524422620258,-172.65004116108707L34.602933876044474,-163.63215236817695L46.589608493536076,-179.65548697069045zM-34.60295515096368,163.6323785831634L-46.58963994318963,179.65569608798887L-17.502535776746484,172.65026192699824zM95.77958744388356,-125.27159260611899L117.70214458638992,-123.53084214493677L109.34947192999624,-146.252286786185zM-117.70219921826171,123.53100297879078L-109.34953202047079,146.25244844901366L-95.77963252679163,125.27178899457452zM128.78271781292824,-53.12288255250654L156.75315961454652,-50.585780755199636L152.62535222150552,-76.00857745642894zM-156.75318940870545,50.58587605475327L-152.62539581036935,76.00867694613144L-128.78274351841583,53.12304510831373zM59.83129614385384,-174.28256563786698L53.57546105767143,-156.05992092269048L73.5809648809067,-170.38934602473464zM-73.58101198885869,170.38954295469017L-59.83133532423657,174.2827717399905L-53.57549247314831,156.06014370910157zM73.19841172120151,-150.38231245692182L92.2319369368665,-146.99541005135612L86.82526014464058,-168.28300715432277zM-92.23198787833061,146.99560000520543L-86.82531504467902,168.28318921663268L-73.19845308160457,150.38252303874862zM46.589608493536076,-179.65548697069045L34.602933876044474,-163.63215236817695L59.83129614385384,-174.28256563786698zM-59.83133532423657,174.2827717399905L-46.58963994318963,179.65569608798887L-34.60295515096368,163.6323785831634zM-73.75737899519547,-153.72584850000956L-92.62979739353912,-136.19904124273322L-53.33782058646713,-138.77797688550692zM53.33784839910493,138.77818805465589L73.75742159804548,153.72601507541577L92.6298447971082,136.1991966276904zM-52.89582837357622,-169.15183686571135L-35.99067997193062,-155.09967552530088L-17.00928341897533,-169.77731954981084zM35.99070094622134,155.09988857430758L17.009294269531924,169.77753135068474L52.89586199254768,169.15201258688447zM3.5379405472134695,-182.5774188496071L-17.00928341897533,-169.77731954981084L17.502524422620258,-172.65004116108707zM-17.502535776746484,172.65026192699824L-3.5379429742924877,182.57762539365797L17.009294269531924,169.77753135068474zM73.5809648809067,-170.38934602473464L73.19841172120151,-150.38231245692182L86.82526014464058,-168.28300715432277zM-86.82531504467902,168.28318921663268L-73.58101198885869,170.38954295469017L-73.19845308160457,150.38252303874862zM127.33029001675281,-76.7545502106517L152.62535222150552,-76.00857745642894L145.6374891224112,-100.9952822145081zM-152.62539581036935,76.00867694613144L-145.6375443887252,100.99538875348658L-127.33032673841208,76.75471115074112zM117.70214458638992,-123.53084214493677L123.66594637249689,-100.28950116895147L135.7867371728715,-125.24406394809503zM-135.78680107285209,125.24417992737294L-117.70219921826171,123.53100297879078L-123.66599297314373,100.28966162227312zM34.84425437116325,-186.12810233548288L17.502524422620258,-172.65004116108707L46.589608493536076,-179.65548697069045zM-46.58963994318963,179.65569608798887L-34.84427873969915,186.1283081614151L-17.502535776746484,172.65026192699824zM-52.89582837357622,-169.15183686571135L-73.75737899519547,-153.72584850000956L-35.99067997193062,-155.09967552530088zM35.99070094622134,155.09988857430758L52.89586199254768,169.15201258688447L73.75742159804548,153.72601507541577zM3.5379405472134695,-182.5774188496071L17.502524422620258,-172.65004116108707L34.84425437116325,-186.12810233548288zM-17.502535776746484,172.65026192699824L-34.84427873969915,186.1283081614151L-3.5379429742924877,182.57762539365797zM123.66594637249689,-100.28950116895147L145.6374891224112,-100.9952822145081L135.7867371728715,-125.24406394809503zM-145.6375443887252,100.99538875348658L-135.78680107285209,125.24417992737294L-123.66599297314373,100.28966162227312zM92.2319369368665,-146.99541005135612L109.34947192999624,-146.252286786185L98.52167770698586,-168.19234651078725zM-109.34953202047079,146.25244844901366L-98.52173996916177,168.1925088587943L-92.23198787833061,146.99560000520543zM-30.228297921863028,-182.23707908272078L-17.00928341897533,-169.77731954981084L3.5379405472134695,-182.5774188496071zM17.009294269531924,169.77753135068474L-3.5379429742924877,182.57762539365797L30.228318620260502,182.2372609075594zM86.82526014464058,-168.28300715432277L92.2319369368665,-146.99541005135612L98.52167770698586,-168.19234651078725zM-98.52173996916177,168.1925088587943L-86.82531504467902,168.28318921663268L-92.23198787833061,146.99560000520543zM109.34947192999624,-146.252286786185L117.70214458638992,-123.53084214493677L123.09482891153813,-148.43769679403903zM-123.09489756623312,148.4378239272977L-109.34953202047079,146.25244844901366L-117.70219921826171,123.53100297879078zM-30.228297921863028,-182.23707908272078L-52.89582837357622,-169.15183686571135L-17.00928341897533,-169.77731954981084zM17.009294269531924,169.77753135068474L30.228318620260502,182.2372609075594L52.89586199254768,169.15201258688447zM46.589608493536076,-179.65548697069045L59.83129614385384,-174.28256563786698L65.82846000772105,-191.75172991648773zM-59.83133532423657,174.2827717399905L-65.82850743620804,191.75191455646728L-46.58963994318963,179.65569608798887zM59.83129614385384,-174.28256563786698L73.5809648809067,-170.38934602473464L72.7761330307319,-189.82553341715933zM-73.58101198885869,170.38954295469017L-72.77618493820455,189.82571311497907L-59.83133532423657,174.2827717399905zM25.558446484357805,-193.24064592166107L3.5379405472134695,-182.5774188496071L34.84425437116325,-186.12810233548288zM-34.84427873969915,186.1283081614151L-25.558465041847636,193.24084228639072L-3.5379429742924877,182.57762539365797zM34.84425437116325,-186.12810233548288L46.589608493536076,-179.65548697069045L59.16267421309698,-194.49903784632392zM-46.58963994318963,179.65569608798887L-59.16271744969743,194.49922429295438L-34.84427873969915,186.1283081614151zM117.70214458638992,-123.53084214493677L135.7867371728715,-125.24406394809503L123.09482891153813,-148.43769679403903zM-135.78680107285209,125.24417992737294L-123.09489756623312,148.4378239272977L-117.70219921826171,123.53100297879078zM73.5809648809067,-170.38934602473464L86.82526014464058,-168.28300715432277L79.40999804103947,-188.89122563622266zM-86.82531504467902,168.28318921663268L-79.41005440133229,188.89139762325505L-73.58101198885869,170.38954295469017zM-168.65816780672867,-57.900422142214566L-145.35785644829528,-49.90136520627533L-135.83048686308467,-73.42203243449237zM-176.06683288482716,-30.906627234105027L-152.28612942263698,-25.488425464904573L-145.35785644829528,-49.90136520627533zM152.2861440070904,25.488526898971784L145.35788370274207,49.90147444879614L176.06685333114623,30.906630823235552zM145.35788370274207,49.90147444879614L135.83052433535363,73.42215168286143L168.6582044990443,57.90043473870296zM-157.92469786505336,-83.75280716643931L-135.83048686308467,-73.42203243449237L-123.79471858641801,-95.80625878573548zM-180.0338638563789,-3.197135232795995L-156.536907015509,-0.4316039719748557L-152.28612942263698,-25.488425464904573zM156.53690726939368,0.43170029089809236L152.2861440070904,25.488526898971784L180.03386601910304,3.197135271203234zM135.83052433535363,73.42215168286143L123.7947631502257,95.80638959245611L157.92474756266085,83.75283352276146zM-144.0357077616715,-108.05607768214068L-123.79471858641801,-95.80625878573548L-109.3546822393725,-116.81223184932314zM158.0438229183513,-25.014222749426377L156.53690726939368,0.43170029089809236L180.49667482879838,-24.791060412111953zM-180.49669164199418,24.791062721390134L-158.0438377726208,25.014316975049642L-156.536907015509,-0.4316039719748557zM123.7947631502257,95.80638959245611L109.35473023613946,116.81237499387163L144.03576624141573,108.05612155384412zM65.82846000772105,-191.75172991648773L59.83129614385384,-174.28256563786698L72.7761330307319,-189.82553341715933zM-72.77618493820455,189.82571311497907L-65.82850743620804,191.75191455646728L-59.83133532423657,174.2827717399905zM-5.96678146304582,-192.74458772641765L-30.228297921863028,-182.23707908272078L3.5379405472134695,-182.5774188496071zM-3.5379429742924877,182.57762539365797L5.966785784287948,192.74477165912808L30.228318620260502,182.2372609075594zM-5.96678146304582,-192.74458772641765L3.5379405472134695,-182.5774188496071L25.558446484357805,-193.24064592166107zM-3.5379429742924877,182.57762539365797L-25.558465041847636,193.24084228639072L5.966785784287948,192.74477165912808zM59.16267421309698,-194.49903784632392L46.589608493536076,-179.65548697069045L65.82846000772105,-191.75172991648773zM-65.82850743620804,191.75191455646728L-59.16271744969743,194.49922429295438L-46.58963994318963,179.65569608798887zM-127.21022820674273,-130.42695643588695L-109.3546822393725,-116.81223184932314L-92.62979739353912,-136.19904124273322zM156.75315961454652,-50.585780755199636L158.0438229183513,-25.014222749426377L177.4479850301674,-52.616564817357926zM-177.4480201117816,52.61657521969699L-156.75318940870545,50.58587605475327L-158.0438377726208,25.014316975049642zM109.35473023613946,116.81237499387163L92.6298447971082,136.1991966276904L127.21029054799513,130.42702035354506zM72.7761330307319,-189.82553341715933L73.5809648809067,-170.38934602473464L79.40999804103947,-188.89122563622266zM-79.41005440133229,188.89139762325505L-72.77618493820455,189.82571311497907L-73.58101198885869,170.38954295469017zM25.558446484357805,-193.24064592166107L34.84425437116325,-186.12810233548288L53.3537565460863,-197.83634100756612zM-34.84427873969915,186.1283081614151L-53.35379620651074,197.83652599262777L-25.558465041847636,193.24084228639072zM98.52167770698586,-168.19234651078725L109.34947192999624,-146.252286786185L107.61339897724727,-170.24371496401983zM-107.61346781452256,170.24385408936718L-98.52173996916177,168.1925088587943L-109.34953202047079,146.25244844901366zM-107.71361047883252,-150.51264332749867L-92.62979739353912,-136.19904124273322L-73.75737899519547,-153.72584850000956zM152.62535222150552,-76.00857745642894L156.75315961454652,-50.585780755199636L170.93587240928923,-79.84054853871312zM-170.93592368867024,79.84057249023321L-152.62539581036935,76.00867694613144L-156.75318940870545,50.58587605475327zM92.6298447971082,136.1991966276904L73.75742159804548,153.72601507541577L107.71367139460139,150.51272844760013zM86.82526014464058,-168.28300715432277L98.52167770698586,-168.19234651078725L85.14270848931388,-189.04889200451902zM-98.52173996916177,168.1925088587943L-85.14276896876724,189.0490541158776L-86.82531504467902,168.28318921663268zM53.3537565460863,-197.83634100756612L34.84425437116325,-186.12810233548288L59.16267421309698,-194.49903784632392zM-59.16271744969743,194.49922429295438L-53.35379620651074,197.83652599262777L-34.84427873969915,186.1283081614151zM109.34947192999624,-146.252286786185L123.09482891153813,-148.43769679403903L107.61339897724727,-170.24371496401983zM-123.09489756623312,148.4378239272977L-107.61346781452256,170.24385408936718L-109.34953202047079,146.25244844901366zM-85.85332730772397,-167.99636920956792L-73.75737899519547,-153.72584850000956L-52.89582837357622,-169.15183686571135zM145.6374891224112,-100.9952822145081L152.62535222150552,-76.00857745642894L161.063040241766,-106.03367997518986zM-161.06310441084688,106.0337222200391L-145.6375443887252,100.99538875348658L-152.62539581036935,76.00867694613144zM73.75742159804548,153.72601507541577L52.89586199254768,169.15201258688447L85.85338150072721,167.99647525353987zM79.40999804103947,-188.89122563622266L86.82526014464058,-168.28300715432277L85.14270848931388,-189.04889200451902zM-85.14276896876724,189.0490541158776L-79.41005440133229,188.89139762325505L-86.82531504467902,168.28318921663268zM19.643769667517027,-200.44371509665626L-5.96678146304582,-192.74458772641765L25.558446484357805,-193.24064592166107zM-25.558465041847636,193.24084228639072L-19.643784462128238,200.44389628509748L5.966785784287948,192.74477165912808zM-61.97412649232648,-182.6024128224704L-52.89582837357622,-169.15183686571135L-30.228297921863028,-182.23707908272078zM135.7867371728715,-125.24406394809503L145.6374891224112,-100.9952822145081L147.98519401602223,-130.78288078298374zM-147.9852667362613,130.78294504996992L-135.78680107285209,125.24417992737294L-145.6375443887252,100.99538875348658zM52.89586199254768,169.15201258688447L30.228318620260502,182.2372609075594L61.97416901329441,182.60253810751786zM48.926679842644944,-201.48186524455218L25.558446484357805,-193.24064592166107L53.3537565460863,-197.83634100756612zM-53.35379620651074,197.83652599262777L-48.926716882389805,201.4820455997682L-25.558465041847636,193.24084228639072zM19.643769667517027,-200.44371509665626L25.558446484357805,-193.24064592166107L48.926679842644944,-201.48186524455218zM-25.558465041847636,193.24084228639072L-48.926716882389805,201.4820455997682L-19.643784462128238,200.44389628509748zM-36.45259907360753,-194.10043352676982L-30.228297921863028,-182.23707908272078L-5.96678146304582,-192.74458772641765zM123.09482891153813,-148.43769679403903L135.7867371728715,-125.24406394809503L131.9085719438847,-153.6978317348913zM-131.90864812142212,153.6979204957824L-123.09489756623312,148.4378239272977L-135.78680107285209,125.24417992737294zM30.228318620260502,182.2372609075594L5.966785784287948,192.74477165912808L36.452625658887534,194.10057508634404zM98.52167770698586,-168.19234651078725L107.61339897724727,-170.24371496401983L89.43015173669143,-190.31584020183797zM-107.61346781452256,170.24385408936718L-89.43021568736906,190.31599110652587L-98.52173996916177,168.1925088587943zM-168.65816780672867,-57.900422142214566L-176.06683288482716,-30.906627234105027L-145.35785644829528,-49.90136520627533zM145.35788370274207,49.90147444879614L168.6582044990443,57.90043473870296L176.06685333114623,30.906630823235552zM-157.92469786505336,-83.75280716643931L-168.65816780672867,-57.900422142214566L-135.83048686308467,-73.42203243449237zM-176.06683288482716,-30.906627234105027L-180.0338638563789,-3.197135232795995L-152.28612942263698,-25.488425464904573zM152.2861440070904,25.488526898971784L176.06685333114623,30.906630823235552L180.03386601910304,3.197135271203234zM135.83052433535363,73.42215168286143L157.92474756266085,83.75283352276146L168.6582044990443,57.90043473870296zM85.14270848931388,-189.04889200451902L98.52167770698586,-168.19234651078725L89.43015173669143,-190.31584020183797zM-89.43021568736906,190.31599110652587L-85.14276896876724,189.0490541158776L-98.52173996916177,168.1925088587943zM-144.0357077616715,-108.05607768214068L-157.92469786505336,-83.75280716643931L-123.79471858641801,-95.80625878573548zM156.53690726939368,0.43170029089809236L180.03386601910304,3.197135271203234L180.49667482879838,-24.791060412111953zM-180.0338638563789,-3.197135232795995L-180.49669164199418,24.791062721390134L-156.536907015509,-0.4316039719748557zM123.7947631502257,95.80638959245611L144.03576624141573,108.05612155384412L157.92474756266085,83.75283352276146zM-127.21022820674273,-130.42695643588695L-144.0357077616715,-108.05607768214068L-109.3546822393725,-116.81223184932314zM158.0438229183513,-25.014222749426377L180.49667482879838,-24.791060412111953L177.4479850301674,-52.616564817357926zM-180.49669164199418,24.791062721390134L-177.4480201117816,52.61657521969699L-158.0438377726208,25.014316975049642zM109.35473023613946,116.81237499387163L127.21029054799513,130.42702035354506L144.03576624141573,108.05612155384412zM-107.71361047883252,-150.51264332749867L-127.21022820674273,-130.42695643588695L-92.62979739353912,-136.19904124273322zM156.75315961454652,-50.585780755199636L177.4479850301674,-52.616564817357926L170.93587240928923,-79.84054853871312zM-177.4480201117816,52.61657521969699L-170.93592368867024,79.84057249023321L-156.75318940870545,50.58587605475327zM92.6298447971082,136.1991966276904L107.71367139460139,150.51272844760013L127.21029054799513,130.42702035354506zM65.82846000772105,-191.75172991648773L72.7761330307319,-189.82553341715933L70.62633956892837,-208.41787583448684zM-72.77618493820455,189.82571311497907L-70.62639487692364,208.41803367008552L-65.82850743620804,191.75191455646728zM59.16267421309698,-194.49903784632392L65.82846000772105,-191.75172991648773L71.47114550469611,-208.18833731467228zM-65.82850743620804,191.75191455646728L-71.4712014126235,208.18849451273164L-59.16271744969743,194.49922429295438zM-85.85332730772397,-167.99636920956792L-107.71361047883252,-150.51264332749867L-73.75737899519547,-153.72584850000956zM152.62535222150552,-76.00857745642894L170.93587240928923,-79.84054853871312L161.063040241766,-106.03367997518986zM-170.93592368867024,79.84057249023321L-161.06310441084688,106.0337222200391L-152.62539581036935,76.00867694613144zM73.75742159804548,153.72601507541577L85.85338150072721,167.99647525353987L107.71367139460139,150.51272844760013zM72.7761330307319,-189.82553341715933L79.40999804103947,-188.89122563622266L69.8283185796776,-208.5164841215808zM-79.41005440133229,188.89139762325505L-69.82837328860909,208.51664291829718L-72.77618493820455,189.82571311497907zM53.3537565460863,-197.83634100756612L59.16267421309698,-194.49903784632392L72.27880173058966,-207.85058510580708zM-59.16271744969743,194.49922429295438L-72.27885817857522,207.85074205411573L-53.35379620651074,197.83652599262777zM-9.691234608034055,-202.30908855301033L-5.96678146304582,-192.74458772641765L19.643769667517027,-200.44371509665626zM107.61339897724727,-170.24371496401983L123.09482891153813,-148.43769679403903L113.08671123219658,-174.4171509652666zM-113.0867853439291,174.4172652700964L-107.61346781452256,170.24385408936718L-123.09489756623312,148.4378239272977zM5.966785784287948,192.74477165912808L-19.643784462128238,200.44389628509748L9.69124197486572,202.30924233909394zM46.32145624219606,-205.11506791305501L19.643769667517027,-200.44371509665626L48.926679842644944,-201.48186524455218zM-48.926716882389805,201.4820455997682L-46.3214919420171,205.11524080626722L-19.643784462128238,200.44389628509748zM-61.97412649232648,-182.6024128224704L-85.85332730772397,-167.99636920956792L-52.89582837357622,-169.15183686571135zM145.6374891224112,-100.9952822145081L161.063040241766,-106.03367997518986L147.98519401602223,-130.78288078298374zM-161.06310441084688,106.0337222200391L-147.9852667362613,130.78294504996992L-145.6375443887252,100.99538875348658zM52.89586199254768,169.15201258688447L61.97416901329441,182.60253810751786L85.85338150072721,167.99647525353987zM79.40999804103947,-188.89122563622266L85.14270848931388,-189.04889200451902L69.15606784058733,-208.4746757522748zM-85.14276896876724,189.0490541158776L-69.15612201196174,208.4748357374376L-79.41005440133229,188.89139762325505zM48.926679842644944,-201.48186524455218L53.3537565460863,-197.83634100756612L72.96911920256927,-207.438246376764zM-53.35379620651074,197.83652599262777L-72.96917607662367,207.43840348829755L-48.926716882389805,201.4820455997682zM-36.45259907360753,-194.10043352676982L-61.97412649232648,-182.6024128224704L-30.228297921863028,-182.23707908272078zM135.7867371728715,-125.24406394809503L147.98519401602223,-130.78288078298374L131.9085719438847,-153.6978317348913zM-147.9852667362613,130.78294504996992L-131.90864812142212,153.6979204957824L-135.78680107285209,125.24417992737294zM30.228318620260502,182.2372609075594L36.452625658887534,194.10057508634404L61.97416901329441,182.60253810751786zM17.88792542799351,-207.09892231956607L19.643769667517027,-200.44371509665626L46.32145624219606,-205.11506791305501zM89.43015173669143,-190.31584020183797L107.61339897724727,-170.24371496401983L91.81644876445645,-192.61409335988478zM-91.81651521442586,192.6142327597507L-89.43021568736906,190.31599110652587L-107.61346781452256,170.24385408936718zM-19.643784462128238,200.44389628509748L-46.3214919420171,205.11524080626722L-17.887939347507533,207.09908347388003zM-9.691234608034055,-202.30908855301033L-36.45259907360753,-194.10043352676982L-5.96678146304582,-192.74458772641765zM123.09482891153813,-148.43769679403903L131.9085719438847,-153.6978317348913L113.08671123219658,-174.4171509652666zM-131.90864812142212,153.6979204957824L-113.0867853439291,174.4172652700964L-123.09489756623312,148.4378239272977zM5.966785784287948,192.74477165912808L9.69124197486572,202.30924233909394L36.452625658887534,194.10057508634404zM85.14270848931388,-189.04889200451902L89.43015173669143,-190.31584020183797L68.67555905668083,-208.29705728336307zM-89.43021568736906,190.31599110652587L-68.67561280583013,208.29721856626966L-85.14276896876724,189.0490541158776zM46.32145624219606,-205.11506791305501L48.926679842644944,-201.48186524455218L73.47394070322967,-206.99234877288222zM-48.926716882389805,201.4820455997682L-73.47399784765628,206.9925064440256L-46.3214919420171,205.11524080626722zM17.88792542799351,-207.09892231956607L-9.691234608034055,-202.30908855301033L19.643769667517027,-200.44371509665626zM107.61339897724727,-170.24371496401983L113.08671123219658,-174.4171509652666L91.81644876445645,-192.61409335988478zM-113.0867853439291,174.4172652700964L-91.81651521442586,192.6142327597507L-107.61346781452256,170.24385408936718zM-19.643784462128238,200.44389628509748L-17.887939347507533,207.09908347388003L9.69124197486572,202.30924233909394zM45.84994427665921,-208.3944076379236L17.88792542799351,-207.09892231956607L46.32145624219606,-205.11506791305501zM89.43015173669143,-190.31584020183797L91.81644876445645,-192.61409335988478L68.43323098835683,-208.00167799081783zM-91.81651521442586,192.6142327597507L-68.43328447189647,208.00184055315566L-89.43021568736906,190.31599110652587zM-46.3214919420171,205.11524080626722L-45.849980178038315,208.39457081471176L-17.887939347507533,207.09908347388003zM45.84994427665921,-208.3944076379236L46.32145624219606,-205.11506791305501L73.74403464853427,-206.55704817285047zM-46.3214919420171,205.11524080626722L-73.74409188241151,206.55720674348441L-45.849980178038315,208.39457081471176zM91.81644876445645,-192.61409335988478L91.98908149451859,-195.7615005291875L68.45167731756653,-207.61800891035452zM-91.9891491572911,195.76162928659454L-68.4517307168434,207.61817260932276L-91.81651521442586,192.6142327597507zM47.64688560927498,-210.98418910272946L45.84994427665921,-208.3944076379236L73.75384037410505,-206.17511127593704zM91.81644876445645,-192.61409335988478L113.08671123219658,-174.4171509652666L91.98908149451859,-195.7615005291875zM-91.9891491572911,195.76162928659454L-91.81651521442586,192.6142327597507L-113.0867853439291,174.4172652700964zM-45.849980178038315,208.39457081471176L-73.75389750974973,206.17527099572743L-47.64692338133558,210.9843411250115zM20.82598195567607,-212.50696245455453L17.88792542799351,-207.09892231956607L45.84994427665921,-208.3944076379236zM113.08671123219658,-174.4171509652666L131.9085719438847,-153.6978317348913L114.08984888718366,-180.48944970813804zM-114.08992625939344,180.4895400662597L-113.0867853439291,174.4172652700964L-131.90864812142212,153.6979204957824zM-17.887939347507533,207.09908347388003L-45.849980178038315,208.39457081471176L-20.825998584628294,212.50710009105129zM91.98908149451859,-195.7615005291875L89.83732197059317,-199.472732077509L68.7278695703773,-207.18384580312556zM-89.83738930337316,199.47285222331107L-68.72792307299521,207.1840103864457L-91.9891491572911,195.76162928659454zM51.624407565876105,-212.59123648643242L47.64688560927498,-210.98418910272946L73.5036297212648,-205.88367221256644zM-47.64692338133558,210.9843411250115L-73.50368658258624,205.88383321691725L-51.624448802839275,212.591376943424zM47.64688560927498,-210.98418910272946L20.82598195567607,-212.50696245455453L45.84994427665921,-208.3944076379236zM113.08671123219658,-174.4171509652666L114.08984888718366,-180.48944970813804L91.98908149451859,-195.7615005291875zM-114.08992625939344,180.4895400662597L-91.9891491572911,195.76162928659454L-113.0867853439291,174.4172652700964zM-45.849980178038315,208.39457081471176L-47.64692338133558,210.9843411250115L-20.825998584628294,212.50710009105129zM-6.508855910705614,-210.25523483257047L-9.691234608034057,-202.30908855301035L17.88792542799351,-207.09892231956607zM131.9085719438847,-153.6978317348913L147.98519401602223,-130.78288078298374L134.2778373498585,-161.92312087632945zM-134.27791904558174,161.92317101920392L-131.90864812142212,153.6979204957824L-147.9852667362613,130.78294504996992zM9.69124197486572,202.30924233909394L-17.887939347507533,207.09908347388003L6.508861052772029,210.25535256400957zM-33.85514525548396,-204.10228622017073L-36.45259907360754,-194.10043352676985L-9.691234608034057,-202.30908855301035zM147.98519401602223,-130.78288078298374L161.063040241766,-106.03367997518986L152.07868407597056,-140.27114506740503zM-152.07876422951594,140.2711551133299L-147.9852667362613,130.78294504996992L-161.0631044108469,106.03372222003912zM36.452625658887534,194.10057508634404L9.69124197486572,202.30924233909394L33.85517121871472,204.10237886009784zM89.83732197059317,-199.472732077509L85.499706747805,-203.37675406126345L69.23391771816316,-206.7415209431486zM-85.49977208374506,203.37686864278538L-69.23397149965881,206.7416860741094L-89.83738930337316,199.47285222331107zM57.44529209467779,-213.00784256577347L51.624407565876105,-212.59123648643242L73.01900716834116,-205.71069704370672zM-51.624448802839275,212.591376943424L-73.01906360730833,205.71085934157443L-57.445338071215225,213.0079722153232zM91.98908149451859,-195.7615005291875L114.08984888718366,-180.48944970813804L89.83732197059317,-199.472732077509zM-89.83738930337316,199.47285222331107L-91.9891491572911,195.76162928659454L-114.08992625939344,180.4895400662597zM-60.66816109053057,-194.00650942892895L-61.97412649232648,-182.6024128224704L-36.45259907360754,-194.10043352676985zM161.063040241766,-106.03367997518986L170.93587240928923,-79.84054853871312L167.03696848709484,-115.83526513966672zM-167.03704118792297,115.8352373190891L-161.0631044108469,106.03372222003912L-170.93592368867024,79.84057249023321zM61.97416901329441,182.60253810751786L36.452625658887534,194.10057508634404L60.66820531506608,194.00657261501482zM20.82598195567607,-212.50696245455453L-6.508855910705614,-210.25523483257047L17.88792542799351,-207.09892231956607zM131.9085719438847,-153.6978317348913L134.2778373498585,-161.92312087632945L114.08984888718366,-180.48944970813804zM-134.27791904558174,161.92317101920392L-114.08992625939344,180.4895400662597L-131.90864812142212,153.6979204957824zM-17.887939347507533,207.09908347388003L-20.825998584628294,212.50710009105129L6.508861052772029,210.25535256400957zM85.499706747805,-203.37675406126345L79.38143319426958,-207.05450796831806L69.92012152345617,-206.3338255801808zM-79.38149495178736,207.05462072725715L-69.92017573089223,206.33399087013922L-85.49977208374506,203.37686864278538zM64.53239092705749,-212.15218837360115L57.44529209467779,-213.00784256577347L72.34798284575469,-205.67246149747785zM-57.445338071215225,213.0079722153232L-72.34803875566969,205.67262497182338L-64.53244236830447,212.1523091620161zM-86.37537651000834,-180.02449304537606L-85.85332730772397,-167.99636920956792L-61.97412649232648,-182.6024128224704zM170.93587240928923,-79.84054853871312L177.4479850301674,-52.616564817357926L178.73564342967475,-89.01179065300758zM-178.7357032081107,89.01172933449786L-170.93592368867024,79.84057249023321L-177.4480201117816,52.61657521969699zM85.85338150072721,167.99647525353987L61.97416901329441,182.60253810751786L86.37543493620984,180.02452372922863zM79.38143319426958,-207.05450796831806L72.12535369265882,-210.0940033014113L70.71989499692789,-206.0000137189301zM-72.12541062877271,210.09411821850424L-70.71994973570837,206.0001787642671L-79.38149495178736,207.05462072725715zM72.12535369265882,-210.0940033014113L64.53239092705749,-212.15218837360115L71.55606012380866,-205.77220739232916zM-64.53244236830447,212.1523091620161L-71.55611544855063,205.7723718126535L-72.12541062877271,210.09411821850424zM-110.39515593946685,-162.32059530572948L-107.71361047883252,-150.51264332749867L-85.85332730772397,-167.99636920956792zM177.4479850301674,-52.616564817357926L180.49667482879838,-24.791060412111953L186.81666721068478,-60.28767139048006zM-186.81670952913746,60.28758292902609L-177.4480201117816,52.61657521969699L-180.49669164199418,24.791062721390134zM107.71367139460139,150.51272844760013L85.85338150072721,167.99647525353987L110.3952232696337,162.3205921872217zM51.624407565876105,-212.59123648643242L28.565863362531044,-215.9789912177917L47.64688560927498,-210.98418910272946zM-47.64692338133558,210.9843411250115L-51.624448802839275,212.591376943424L-28.565886544219882,215.97910383592077zM28.565863362531044,-215.9789912177917L20.82598195567607,-212.50696245455453L47.64688560927498,-210.98418910272946zM-20.825998584628294,212.50710009105129L-47.64692338133558,210.9843411250115L-28.565886544219882,215.97910383592077zM-132.1587338904446,-141.17153916058024L-127.21022820674273,-130.42695643588695L-107.71361047883252,-150.51264332749867zM180.49667482879838,-24.791060412111953L180.03386601910304,3.197135271203234L191.00117031608167,-30.230623884024165zM-191.00119201151404,30.23051628439999L-180.49669164199418,24.791062721390134L-180.0338638563789,-3.197135232795995zM127.21029054799513,130.42702035354506L107.71367139460139,150.51272844760013L132.15880399221678,141.17150300958826zM-6.508855910705614,-210.25523483257047L-33.85514525548396,-204.10228622017073L-9.691234608034057,-202.30908855301035zM147.98519401602223,-130.78288078298374L152.07868407597056,-140.27114506740503L134.2778373498585,-161.92312087632945zM-152.07876422951594,140.2711551133299L-134.27791904558174,161.92317101920392L-147.9852667362613,130.78294504996992zM9.69124197486572,202.30924233909394L6.508861052772029,210.25535256400957L33.85517121871472,204.10237886009784zM-151.13433549649005,-116.9648429296036L-144.0357077616715,-108.05607768214068L-127.21022820674273,-130.42695643588695zM-191.1075256585306,-0.5270397624346944L-180.0338638563789,-3.197135232795995L-176.06683288482716,-30.906627234105027zM180.03386601910304,3.197135271203234L176.06685333114623,30.906630823235552L191.1075260369371,0.5269221737193098zM144.03576624141573,108.05612155384412L127.21029054799513,130.42702035354506L151.13440191733162,116.96477674377867zM-166.85146607733603,-90.1902846269831L-157.92469786505336,-83.75280716643931L-144.0357077616715,-108.05607768214068zM-187.0652536612956,-31.309596686530035L-176.06683288482716,-30.906627234105027L-168.65816780672867,-57.90042214221458zM176.06685333114623,30.906630823235552L168.6582044990443,57.90043473870296L187.06527566803626,31.309478768772863zM157.92474756266085,83.75283352276146L144.03576624141573,108.05612155384412L166.8515226199077,90.19019358954216zM-178.9233227844207,-61.424515772940914L-168.65816780672867,-57.90042214221458L-157.92469786505336,-83.75280716643931zM168.6582044990443,57.90043473870296L157.92474756266085,83.75283352276146L178.92336407911733,61.42440699807248zM114.08984888718366,-180.48944970813804L110.11454866520495,-187.9833040672206L89.83732197059317,-199.472732077509zM-110.11462644201644,187.98337419226007L-89.83738930337316,199.47285222331107L-114.08992625939344,180.4895400662597zM89.83732197059317,-199.472732077509L110.11454866520495,-187.9833040672206L85.499706747805,-203.37675406126345zM-85.49977208374506,203.37686864278538L-89.83738930337316,199.47285222331107L-110.11462644201644,187.98337419226007zM-33.85514525548396,-204.10228622017073L-60.66816109053057,-194.00650942892895L-36.45259907360754,-194.10043352676985zM161.063040241766,-106.03367997518986L167.03696848709484,-115.83526513966672L152.07868407597056,-140.27114506740503zM-167.03704118792297,115.8352373190891L-152.07876422951594,140.2711551133299L-161.0631044108469,106.03372222003912zM36.452625658887534,194.10057508634404L33.85517121871472,204.10237886009784L60.66820531506608,194.00657261501482zM114.08984888718366,-180.48944970813804L134.2778373498585,-161.92312087632945L110.11454866520495,-187.9833040672206zM-110.11462644201644,187.98337419226007L-114.08992625939344,180.4895400662597L-134.27791904558174,161.92317101920392zM57.44529209467779,-213.00784256577347L40.615299003688996,-216.95547052359242L51.624407565876105,-212.59123648643242zM-51.624448802839275,212.591376943424L-57.445338071215225,213.0079722153232L-40.615332112718086,216.95555919606403zM-60.66816109053057,-194.00650942892895L-86.37537651000834,-180.02449304537606L-61.97412649232648,-182.6024128224704zM170.93587240928923,-79.84054853871312L178.73564342967475,-89.01179065300758L167.03696848709484,-115.83526513966672zM-178.7357032081107,89.01172933449786L-167.03704118792297,115.8352373190891L-170.93592368867024,79.84057249023321zM61.97416901329441,182.60253810751786L60.66820531506608,194.00657261501482L86.37543493620984,180.02452372922863zM4.175435894546729,-215.47582200989174L-6.508855910705614,-210.25523483257047L20.82598195567607,-212.50696245455453zM6.508861052772029,210.25535256400957L-20.825998584628294,212.50710009105129L-4.175439275090378,215.47590052345478zM85.499706747805,-203.37675406126345L101.20560721044035,-196.154800465909L79.38143319426958,-207.05450796831806zM-79.38149495178736,207.05462072725715L-85.49977208374506,203.37686864278538L-101.20568180199473,196.15485685123522zM40.615299003688996,-216.95547052359242L28.565863362531044,-215.9789912177917L51.624407565876105,-212.59123648643242zM-28.565886544219882,215.97910383592077L-51.624448802839275,212.591376943424L-40.615332112718086,216.95555919606403zM28.565863362531044,-215.9789912177917L4.175435894546729,-215.47582200989174L20.82598195567607,-212.50696245455453zM-20.825998584628294,212.50710009105129L-28.565886544219882,215.97910383592077L-4.175439275090378,215.47590052345478zM110.11454866520495,-187.9833040672206L101.20560721044035,-196.154800465909L85.499706747805,-203.37675406126345zM-101.20568180199473,196.15485685123522L-85.49977208374506,203.37686864278538L-110.11462644201644,187.98337419226007zM-86.37537651000834,-180.02449304537606L-110.39515593946685,-162.32059530572948L-85.85332730772397,-167.99636920956792zM177.4479850301674,-52.616564817357926L186.81666721068478,-60.28767139048006L178.73564342967475,-89.01179065300758zM-186.81670952913746,60.28758292902609L-178.7357032081107,89.01172933449786L-177.4480201117816,52.61657521969699zM85.85338150072721,167.99647525353987L86.37543493620984,180.02452372922863L110.3952232696337,162.3205921872217zM64.53239092705749,-212.15218837360115L55.794564132397646,-215.15107799404836L57.44529209467779,-213.00784256577347zM-57.445338071215225,213.0079722153232L-64.53244236830447,212.1523091620161L-55.79460923707492,215.1511467244206zM79.38143319426958,-207.05450796831806L88.118746021688,-204.05417721965065L72.12535369265882,-210.0940033014113zM-72.12541062877271,210.09411821850424L-79.38149495178736,207.05462072725715L-88.11881358328985,204.05422847109688zM134.2778373498585,-161.92312087632945L129.05296447683668,-172.60532976773533L110.11454866520495,-187.9833040672206zM-129.0530481735236,172.60534576873488L-110.11462644201644,187.98337419226007L-134.27791904558174,161.92317101920392zM134.2778373498585,-161.92312087632945L152.07868407597056,-140.27114506740503L129.05296447683668,-172.60532976773533zM-129.0530481735236,172.60534576873488L-134.27791904558174,161.92317101920392L-152.07876422951594,140.2711551133299zM72.12535369265882,-210.0940033014113L72.32434018929287,-210.67366128714693L64.53239092705749,-212.15218837360115zM-64.53244236830447,212.1523091620161L-72.12541062877271,210.09411821850424L-72.32439744000212,210.6737168746963zM-110.39515593946685,-162.32059530572948L-132.1587338904446,-141.17153916058024L-107.71361047883252,-150.51264332749867zM180.49667482879838,-24.791060412111953L191.00117031608167,-30.230623884024165L186.81666721068478,-60.28767139048006zM-191.00119201151404,30.23051628439999L-186.81670952913746,60.28758292902609L-180.49669164199418,24.791062721390134zM107.71367139460139,150.51272844760013L110.3952232696337,162.3205921872217L132.15880399221678,141.17150300958826zM-132.1587338904446,-141.17153916058024L-151.13433549649005,-116.9648429296036L-127.21022820674273,-130.42695643588695zM180.03386601910304,3.197135271203234L191.1075260369371,0.5269221737193098L191.00117031608167,-30.230623884024165zM-191.1075256585306,-0.5270397624346944L-191.00119201151404,30.23051628439999L-180.0338638563789,-3.197135232795995zM127.21029054799513,130.42702035354506L132.15880399221678,141.17150300958826L151.13440191733162,116.96477674377867zM55.794564132397646,-215.15107799404836L40.615299003688996,-216.95547052359242L57.44529209467779,-213.00784256577347zM-40.615332112718086,216.95555919606403L-57.445338071215225,213.0079722153232L-55.79460923707492,215.1511467244206zM-151.13433549649005,-116.9648429296036L-166.85146607733603,-90.1902846269831L-144.0357077616715,-108.05607768214068zM-187.0652536612956,-31.309596686530035L-191.1075256585306,-0.5270397624346944L-176.06683288482716,-30.906627234105027zM176.06685333114623,30.906630823235552L187.06527566803626,31.309478768772863L191.1075260369371,0.5269221737193098zM144.03576624141573,108.05612155384412L151.13440191733162,116.96477674377867L166.8515226199077,90.19019358954216zM-21.113225348009273,-210.7407410110225L-33.85514525548396,-204.10228622017073L-6.508855910705614,-210.25523483257047zM33.85517121871472,204.10237886009784L6.508861052772029,210.25535256400957L21.11324206619765,210.74077941499232zM101.20560721044035,-196.154800465909L88.118746021688,-204.05417721965065L79.38143319426958,-207.05450796831806zM-88.11881358328985,204.05422847109688L-79.38149495178736,207.05462072725715L-101.20568180199473,196.15485685123522zM-166.85146607733603,-90.1902846269831L-178.9233227844207,-61.424515772940914L-157.92469786505336,-83.75280716643931zM-178.9233227844207,-61.424515772940914L-187.0652536612956,-31.309596686530035L-168.65816780672867,-57.90042214221458zM168.6582044990443,57.90043473870296L178.92336407911733,61.42440699807248L187.06527566803626,31.309478768772863zM157.92474756266085,83.75283352276146L166.8515226199077,90.19019358954216L178.92336407911733,61.42440699807248zM110.11454866520495,-187.9833040672206L129.05296447683668,-172.60532976773533L101.20560721044035,-196.154800465909zM-101.20568180199473,196.15485685123522L-110.11462644201644,187.98337419226007L-129.0530481735236,172.60534576873488zM72.32434018929287,-210.67366128714693L55.794564132397646,-215.15107799404836L64.53239092705749,-212.15218837360115zM-55.79460923707492,215.1511467244206L-64.53244236830447,212.1523091620161L-72.32439744000212,210.6737168746963zM88.118746021688,-204.05417721965065L72.32434018929287,-210.67366128714693L72.12535369265882,-210.0940033014113zM-72.32439744000212,210.6737168746963L-72.12541062877271,210.09411821850424L-88.11881358328985,204.05422847109688zM152.07868407597056,-140.27114506740503L167.03696848709484,-115.83526513966672L146.10091991989782,-153.33607437836844zM-146.10100409492748,153.3360342539945L-152.07876422951594,140.2711551133299L-167.03704118792297,115.8352373190891zM4.175435894546729,-215.47582200989174L-21.113225348009273,-210.7407410110225L-6.508855910705614,-210.25523483257047zM6.508861052772029,210.25535256400957L-4.175439275090378,215.47590052345478L21.11324206619765,210.74077941499232zM40.615299003688996,-216.95547052359242L21.995649055605796,-216.9716787981104L28.565863362531044,-215.9789912177917zM-28.565886544219882,215.97910383592077L-40.615332112718086,216.95555919606403L-21.99566698749176,216.97171899660705zM152.07868407597056,-140.27114506740503L146.10091991989782,-153.33607437836844L129.05296447683668,-172.60532976773533zM-146.10100409492748,153.3360342539945L-129.0530481735236,172.60534576873488L-152.07876422951594,140.2711551133299zM21.995649055605796,-216.9716787981104L4.175435894546729,-215.47582200989174L28.565863362531044,-215.9789912177917zM-4.175439275090378,215.47590052345478L-28.565886544219882,215.97910383592077L-21.99566698749176,216.97171899660705zM-46.76371698074795,-201.52559139851732L-60.66816109053057,-194.00650942892895L-33.85514525548396,-204.10228622017073zM60.66820531506608,194.00657261501482L33.85517121871472,204.10237886009784L46.76375239069706,201.52558461799993zM129.05296447683668,-172.60532976773533L115.90907075444483,-184.73117400517822L101.20560721044035,-196.154800465909zM-115.9091512077099,184.73116554133222L-101.20568180199473,196.15485685123522L-129.0530481735236,172.60534576873488zM-21.113225348009273,-210.7407410110225L-46.76371698074795,-201.52559139851732L-33.85514525548396,-204.10228622017073zM33.85517121871472,204.10237886009784L21.11324206619765,210.74077941499232L46.76375239069706,201.52558461799993zM167.03696848709484,-115.83526513966672L160.6826961612838,-130.30917262815518L146.10091991989782,-153.33607437836844zM-160.68277483505415,130.30907705271474L-146.10100409492748,153.3360342539945L-167.03704118792297,115.8352373190891zM-67.01585544130374,-276.4992623452495L-109.66518943332836,-266.37296551136023L-141.17543832661883,-257.60663761701437zM109.66529919357305,266.37295567435444L141.17557497430008,257.60657134464805L67.01592506508096,276.4991279145875zM269.6325035250701,-116.57614845589065L250.15087834122747,-142.84800649879278L240.26548934494676,-152.9174802835281zM-240.26562739418122,152.91707919161587L-269.6326216298482,116.57588390172621L-250.151012605959,142.84780672952417zM-95.67949969920558,-268.2474896918395L-141.17543832661883,-257.60663761701437L-172.35550073180997,-243.45482193474007zM141.17557497430008,257.60657134464805L172.35565839471744,243.45469283800296L95.67959613550182,268.2472711073416zM88.73753403928842,-258.4837950810337L32.92323615336052,-272.7096818016085L18.629897619702604,-275.05366853623536zM-32.9232698890163,272.709607810309L-18.629916873390627,275.0535114570283L-88.737620223299,258.48366805047016zM250.15087834122747,-142.84800649879278L222.71420039601298,-177.03485591096575L240.26548934494676,-152.9174802835281zM-222.7143485428491,177.0345519826317L-240.26562739418122,152.91707919161587L-250.151012605959,142.84780672952417zM141.5205954587095,-235.4281811540753L88.73753403928842,-258.4837950810337L88.31848647700747,-257.2631992790879zM-88.737620223299,258.48366805047016L-88.31857184896162,257.2629737911515L-141.52072064710453,235.42803598225177zM18.629897619702604,-275.05366853623536L-40.05830093458324,-278.79590257715444L-67.01585544130374,-276.4992623452495zM40.05834289743639,278.79584108322877L67.01592506508096,276.4991279145875L-18.629916873390627,275.0535114570283zM285.5457305325874,-86.25718510912316L269.6325035250701,-116.57614845589065L254.59378621885358,-123.05091890214874zM-254.59390393005842,123.05042283031321L-285.5458230782622,86.25686126722941L-269.6326216298482,116.57588390172621zM-95.67949969920558,-268.2474896918395L-67.01585544130374,-276.4992623452495L-141.17543832661883,-257.60663761701437zM141.17557497430008,257.60657134464805L95.67959613550182,268.2472711073416L67.01592506508096,276.4991279145875zM154.2397309405625,-228.4987785697941L141.5205954587095,-235.4281811540753L88.31848647700747,-257.2631992790879zM-88.31857184896162,257.2629737911515L-154.23986336435274,228.49853340676088L-141.52072064710453,235.42803598225177zM-125.33097055633814,-253.4792010790886L-172.35550073180997,-243.45482193474007L-202.2897736188206,-223.89038616110912zM172.35565839471744,243.45469283800296L202.28994379363493,223.89019079481844L125.33108992397352,253.4788895331212zM88.31848647700747,-257.2631992790879L88.73753403928842,-258.4837950810337L18.629897619702604,-275.05366853623536zM-18.629916873390627,275.0535114570283L-88.31857184896162,257.2629737911515L-88.737620223299,258.48366805047016zM222.71420039601298,-177.03485591096575L202.85153881800008,-195.40489078207315L165.51660692461235,-215.61152811961486zM-165.51674101550637,215.61117002793338L-222.7143485428491,177.0345519826317L-202.8516877539641,195.404680705634zM202.85153881800008,-195.40489078207315L154.2397309405625,-228.4987785697941L165.51660692461235,-215.61152811961486zM-154.23986336435274,228.49853340676088L-165.51674101550637,215.61117002793338L-202.8516877539641,195.404680705634zM297.1513543057102,-52.432080124370785L285.5457305325874,-86.25718510912316L264.7718734273893,-87.78023561011253zM-264.77196075531435,87.7796535633483L-297.1514128465862,52.43170674151273L-285.5458230782622,86.25686126722941zM269.6325035250701,-116.57614845589065L240.26548934494676,-152.9174802835281L254.59378621885358,-123.05091890214874zM-240.26562739418122,152.91707919161587L-254.59390393005842,123.05042283031321L-269.6326216298482,116.57588390172621zM-125.33097055633814,-253.4792010790886L-95.67949969920558,-268.2474896918395L-172.35550073180997,-243.45482193474007zM172.35565839471744,243.45469283800296L125.33108992397352,253.4788895331212L95.67959613550182,268.2472711073416zM1.8153182640964944,-271.8102227379469L18.629897619702604,-275.05366853623536L-67.01585544130374,-276.4992623452495zM67.01592506508096,276.4991279145875L-1.8153201180742158,271.8099675703887L-18.629916873390627,275.0535114570283zM-155.02662010348504,-231.89719209684057L-202.2897736188206,-223.89038616110912L-230.0000483303193,-199.12638683239933zM202.28994379363493,223.89019079481844L230.0002204151294,199.12612570150014L155.02675518237822,231.89678315625142zM1.8153182640964944,-271.8102227379469L-67.01585544130374,-276.4992623452495L-95.67949969920558,-268.2474896918395zM67.01592506508096,276.4991279145875L95.67959613550182,268.2472711073416L-1.8153201180742158,271.8099675703887zM88.31848647700747,-257.2631992790879L18.629897619702604,-275.05366853623536L1.8153182640964944,-271.8102227379469zM-18.629916873390627,275.0535114570283L-1.8153201180742158,271.8099675703887L-88.31857184896162,257.2629737911515zM303.808292171889,-15.869793437646896L297.1513543057102,-52.432080124370785L269.9515439975313,-47.864393472914394zM-269.95159254665316,47.863741911265265L-303.80831028742676,15.869384267874644L-297.1514128465862,52.43170674151273zM154.2397309405625,-228.4987785697941L88.31848647700747,-257.2631992790879L85.87697734120682,-250.1513765400688zM-88.31857184896162,257.2629737911515L-85.87705805829279,250.15103667371704L-154.23986336435274,228.49853340676088zM-183.63092900903334,-203.579412026784L-230.0000483303193,-199.12638683239933L-254.50793311666536,-169.64114628503876zM230.0002204151294,199.12612570150014L254.508095341809,169.64082452539643L183.6310694730986,203.57890758000352zM285.5457305325874,-86.25718510912316L254.59378621885358,-123.05091890214874L264.7718734273893,-87.78023561011253zM-254.59390393005842,123.05042283031321L-264.77196075531435,87.7796535633483L-285.5458230782622,86.25686126722941zM240.26548934494676,-152.9174802835281L222.71420039601298,-177.03485591096575L174.68324627008238,-196.07240003026524zM-174.68337496259062,196.07191928131084L-240.26562739418122,152.91707919161587L-222.7143485428491,177.0345519826317zM-269.4769714842003,4.495895626946453L-305.0382209571287,-22.45169818166789L-303.80831028742676,15.869384267874644zM305.0382466898224,22.451270185687505L303.808292171889,-15.869793437646896L269.47696693162123,-4.496593253943838zM-155.02662010348504,-231.89719209684057L-125.33097055633814,-253.4792010790886L-202.2897736188206,-223.89038616110912zM202.28994379363493,223.89019079481844L155.02675518237822,231.89678315625142L125.33108992397352,253.4788895331212zM165.51660692461235,-215.61152811961486L154.2397309405625,-228.4987785697941L85.87697734120682,-250.1513765400688zM-85.87705805829279,250.15103667371704L-165.51674101550637,215.61117002793338L-154.23986336435274,228.49853340676088zM-209.8934755902581,-169.06464404575635L-254.50793311666536,-169.64114628503876L-274.90855054369274,-136.1773058835186zM254.508095341809,169.64082452539643L274.90869120622176,136.17693342054676L209.89360892306797,169.06405373926495zM222.71420039601298,-177.03485591096575L165.51660692461235,-215.61152811961486L174.68324627008238,-196.07240003026524zM-165.51674101550637,215.61117002793338L-174.68337496259062,196.07191928131084L-222.7143485428491,177.0345519826317zM85.87697734120682,-250.1513765400688L88.31848647700747,-257.2631992790879L1.8153182640964944,-271.8102227379469zM-1.8153201180742158,271.8099675703887L-85.87705805829279,250.15103667371704L-88.31857184896162,257.2629737911515zM-262.99573293624167,-40.743870714484686L-300.58321251564905,-61.38970218908065L-305.0382209571287,-22.45169818166789zM300.58328184940103,61.38927420869319L305.0382466898224,22.451270185687505L262.99577319803615,40.743155683613786zM-232.5657297810395,-129.38330734143625L-274.90855054369274,-136.1773058835186L-290.44687052750254,-99.71075974214817zM274.90869120622176,136.17693342054676L290.4469793437728,99.71035080786984L232.56584284101478,129.38264897166383zM-250.542152235311,-86.0115941566092L-290.4468705275026,-99.7107597421481L-300.58321251564905,-61.38970218908065zM290.44697934377285,99.71035080786977L300.58328184940103,61.38927420869319L250.5422332049156,86.01089264692664zM-17.419655082631408,-262.02137764202075L1.8153182640964944,-271.8102227379469L-95.67949969920558,-268.2474896918395zM95.67959613550182,268.2472711073416L17.41967223255163,262.0210104067848L-1.8153201180742158,271.8099675703887zM297.1513543057102,-52.432080124370785L264.7718734273893,-87.78023561011253L269.9515439975313,-47.864393472914394zM-264.77196075531435,87.7796535633483L-269.95159254665316,47.863741911265265L-297.1514128465862,52.43170674151273zM-17.419655082631408,-262.02137764202075L-95.67949969920558,-268.2474896918395L-125.33097055633814,-253.4792010790886zM95.67959613550182,268.2472711073416L125.33108992397352,253.4788895331212L17.41967223255163,262.0210104067848zM-183.63092900903334,-203.579412026784L-155.02662010348504,-231.89719209684057L-230.0000483303193,-199.12638683239933zM230.0002204151294,199.12612570150014L183.6310694730986,203.57890758000352L155.02675518237822,231.89678315625142zM85.87697734120682,-250.1513765400688L1.8153182640964944,-271.8102227379469L-17.419655082631408,-262.02137764202075zM-1.8153201180742158,271.8099675703887L17.41967223255163,262.0210104067848L-85.87705805829279,250.15103667371704zM254.59378621885358,-123.05091890214874L240.26548934494676,-152.9174802835281L181.0019933142127,-169.4261416794104zM-181.00210853983367,169.42553427921666L-254.59390393005842,123.05042283031321L-240.26562739418122,152.91707919161587zM303.808292171889,-15.869793437646896L269.9515439975313,-47.864393472914394L269.47696693162123,-4.496593253943838zM-269.95159254665316,47.863741911265265L-269.4769714842003,4.495895626946453L-303.80831028742676,15.869384267874644zM165.51660692461235,-215.61152811961486L85.87697734120682,-250.1513765400688L81.08152882218056,-236.1827636507502zM-85.87705805829279,250.15103667371704L-81.0816007763244,236.1822953926339L-165.51674101550637,215.61117002793338zM-209.8934755902581,-169.06464404575635L-183.63092900903334,-203.579412026784L-254.50793311666536,-169.64114628503876zM254.508095341809,169.64082452539643L209.89360892306797,169.06405373926495L183.6310694730986,203.57890758000352zM240.26548934494676,-152.9174802835281L174.68324627008238,-196.07240003026524L181.0019933142127,-169.4261416794104zM-174.68337496259062,196.07191928131084L-181.00210853983367,169.42553427921666L-240.26562739418122,152.91707919161587zM174.68324627008238,-196.07240003026524L165.51660692461235,-215.61152811961486L81.08152882218056,-236.1827636507502zM-81.0816007763244,236.1822953926339L-174.68337496259062,196.07191928131084L-165.51674101550637,215.61117002793338zM-269.4769714842003,4.495895626946453L-262.99573293624167,-40.743870714484686L-305.0382209571287,-22.45169818166789zM305.0382466898224,22.451270185687505L269.47696693162123,-4.496593253943838L262.99577319803615,40.743155683613786zM-232.5657297810395,-129.38330734143625L-209.8934755902581,-169.06464404575635L-274.90855054369274,-136.1773058835186zM274.90869120622176,136.17693342054676L232.56584284101478,129.38264897166383L209.89360892306797,169.06405373926495zM81.08152882218056,-236.1827636507502L85.87697734120682,-250.1513765400688L-17.419655082631408,-262.02137764202075zM17.41967223255163,262.0210104067848L-81.0816007763244,236.1822953926339L-85.87705805829279,250.15103667371704zM-38.772529288144526,-244.87479776516855L-125.33097055633814,-253.4792010790886L-155.02662010348504,-231.89719209684057zM125.33108992397352,253.4788895331212L155.02675518237822,231.89678315625142L38.77256496231689,244.87430781499836zM-262.99573293624167,-40.743870714484686L-250.542152235311,-86.0115941566092L-300.58321251564905,-61.38970218908065zM300.58328184940103,61.38927420869319L262.99577319803615,40.743155683613786L250.5422332049156,86.01089264692664zM-38.772529288144526,-244.87479776516855L-17.419655082631408,-262.02137764202075L-125.33097055633814,-253.4792010790886zM125.33108992397352,253.4788895331212L38.77256496231689,244.87430781499836L17.41967223255163,262.0210104067848zM-250.5421522353109,-86.01159415660929L-232.5657297810395,-129.38330734143625L-290.44687052750254,-99.71075974214817zM290.4469793437728,99.71035080786984L250.54223320491553,86.01089264692673L232.56584284101478,129.38264897166383zM264.7718734273893,-87.78023561011253L254.59378621885358,-123.05091890214874L183.73145223346032,-135.6168208998937zM-183.73154585632565,135.61609127235198L-264.77196075531435,87.7796535633483L-254.59390393005842,123.05042283031321zM81.08152882218056,-236.1827636507502L-17.419655082631408,-262.02137764202075L-38.772529288144526,-244.87479776516855zM17.41967223255163,262.0210104067848L38.77256496231689,244.87430781499836L-81.0816007763244,236.1822953926339zM254.59378621885358,-123.05091890214874L181.0019933142127,-169.4261416794104L183.73145223346032,-135.6168208998937zM-181.00210853983367,169.42553427921666L-183.73154585632565,135.61609127235198L-254.59390393005842,123.05042283031321zM-61.692591886992055,-219.87097021760994L-155.02662010348504,-231.89719209684057L-183.63092900903334,-203.579412026784zM155.02675518237822,231.89678315625142L183.6310694730986,203.57890758000352L61.69264285367829,219.87035312863344zM174.68324627008238,-196.07240003026524L81.08152882218056,-236.1827636507502L73.66083616759624,-214.56707497851525zM-81.0816007763244,236.1822953926339L-73.66089555375102,214.56646897328298L-174.68337496259062,196.07191928131084zM181.0019933142127,-169.4261416794104L174.68324627008238,-196.07240003026524L73.66083616759624,-214.56707497851525zM-73.66089555375102,214.56646897328298L-181.00210853983367,169.42553427921666L-174.68337496259062,196.07191928131084zM-61.692591886992055,-219.87097021760994L-38.772529288144526,-244.87479776516855L-155.02662010348504,-231.89719209684057zM155.02675518237822,231.89678315625142L61.69264285367829,219.87035312863344L38.77256496231689,244.87430781499836zM269.9515439975313,-47.864393472914394L264.7718734273893,-87.78023561011253L182.22534457660268,-95.14574397796638zM-182.22540972177438,95.1449071292984L-269.95159254665316,47.863741911265265L-264.77196075531435,87.7796535633483zM73.66083616759624,-214.56707497851525L81.08152882218056,-236.1827636507502L-38.772529288144526,-244.87479776516855zM38.77256496231689,244.87430781499836L-73.66089555375102,214.56646897328298L-81.0816007763244,236.1822953926339zM-85.36192845004794,-187.0085436233312L-183.63092900903334,-203.579412026784L-209.8934755902581,-169.06464404575635zM183.6310694730986,203.57890758000352L209.89360892306797,169.06405373926495L85.36198843065795,187.00780416396833zM264.7718734273893,-87.78023561011253L183.73145223346032,-135.6168208998937L182.22534457660268,-95.14574397796638zM-183.73154585632565,135.61609127235198L-182.22540972177438,95.1449071292984L-264.77196075531435,87.7796535633483zM269.47696693162123,-4.496593253943838L269.9515439975313,-47.864393472914394L176.0531631416641,-49.178436123928925zM-176.05319567289183,49.177518400700805L-269.4769714842003,4.495895626946453L-269.95159254665316,47.863741911265265zM73.66083616759624,-214.56707497851525L-38.772529288144526,-244.87479776516855L-61.692591886992055,-219.87097021760994zM38.77256496231689,244.87430781499836L61.69264285367829,219.87035312863344L-73.66089555375102,214.56646897328298zM-85.36192845004794,-187.0085436233312L-61.692591886992055,-219.87097021760994L-183.63092900903334,-203.579412026784zM183.6310694730986,203.57890758000352L85.36198843065795,187.00780416396833L61.69264285367829,219.87035312863344zM-108.72492684481368,-146.94285776940072L-209.8934755902581,-169.06464404575635L-232.5657297810395,-129.38330734143625zM209.89360892306797,169.06405373926495L232.56584284101478,129.38264897166383L108.72498687399138,146.9420120888279zM181.0019933142127,-169.4261416794104L73.66083616759624,-214.56707497851525L63.4692988442968,-184.8801882372706zM-73.66089555375102,214.56646897328298L-63.46934293421264,184.87944311073204L-181.00210853983367,169.42553427921666zM-165.11592723457662,-0.45521814342828765L-262.99573293624167,-40.743870714484686L-269.4769714842003,4.495895626946453zM262.99577319803615,40.743155683613786L269.47696693162123,-4.496593253943838L165.1159275166974,0.4542558051942865zM183.73145223346032,-135.6168208998937L181.0019933142127,-169.4261416794104L63.4692988442968,-184.8801882372706zM-63.46934293421264,184.87944311073204L-183.73154585632565,135.61609127235198L-181.00210853983367,169.42553427921666zM-130.57894747802757,-101.05791227711744L-232.5657297810395,-129.38330734143625L-250.5421522353109,-86.01159415660929zM232.56584284101478,129.38264897166383L250.54223320491553,86.01089264692673L130.57899706042258,101.05698831082711zM-149.72033280274766,-51.39954243821271L-250.542152235311,-86.0115941566092L-262.99573293624167,-40.743870714484686zM250.5422332049156,86.01089264692664L262.99577319803615,40.743155683613786L149.7203617176628,51.39857783510724zM63.4692988442968,-184.8801882372706L73.66083616759624,-214.56707497851525L-61.692591886992055,-219.87097021760994zM61.69264285367829,219.87035312863344L-63.46934293421264,184.87944311073204L-73.66089555375102,214.56646897328298zM269.9515439975313,-47.864393472914394L182.22534457660268,-95.14574397796638L176.0531631416641,-49.178436123928925zM-182.22540972177438,95.1449071292984L-176.05319567289183,49.177518400700805L-269.95159254665316,47.863741911265265zM-108.72492684481368,-146.94285776940072L-85.36192845004794,-187.0085436233312L-209.8934755902581,-169.06464404575635zM209.89360892306797,169.06405373926495L108.72498687399138,146.9420120888279L85.36198843065795,187.00780416396833zM63.4692988442968,-184.8801882372706L-61.692591886992055,-219.87097021760994L-85.36192845004794,-187.0085436233312zM61.69264285367829,219.87035312863344L85.36198843065795,187.00780416396833L-63.46934293421264,184.87944311073204zM269.47696693162123,-4.496593253943838L176.0531631416641,-49.178436123928925L165.1159275166974,0.4542558051942865zM-176.05319567289183,49.177518400700805L-165.11592723457662,-0.45521814342828765L-269.4769714842003,4.495895626946453zM-130.57894747802757,-101.05791227711744L-108.72492684481368,-146.94285776940072L-232.5657297810395,-129.38330734143625zM232.56584284101478,129.38264897166383L130.57899706042258,101.05698831082711L108.72498687399138,146.9420120888279zM182.22534457660268,-95.14574397796638L183.73145223346032,-135.6168208998937L50.55950137227728,-147.27527408138138zM-50.55952935032274,147.2743996696031L-182.22540972177438,95.1449071292984L-183.73154585632565,135.61609127235198zM183.73145223346032,-135.6168208998937L63.4692988442968,-184.8801882372706L50.55950137227728,-147.27527408138138zM-63.46934293421264,184.87944311073204L-50.55952935032274,147.2743996696031L-183.73154585632565,135.61609127235198zM-165.11592723457662,-0.45521814342828765L-149.72033280274766,-51.39954243821271L-262.99573293624167,-40.743870714484686zM262.99577319803615,40.743155683613786L165.1159275166974,0.4542558051942865L149.7203617176628,51.39857783510724zM-149.72033280274763,-51.39954243821282L-130.57894747802757,-101.05791227711744L-250.5421522353109,-86.01159415660929zM250.54223320491553,86.01089264692673L149.72036171766277,51.398577835107346L130.57899706042258,101.05698831082711zM50.55950137227728,-147.27527408138138L63.4692988442968,-184.8801882372706L-85.36192845004794,-187.0085436233312zM85.36198843065795,187.00780416396833L-50.55952935032274,147.2743996696031L-63.46934293421264,184.87944311073204zM50.55950137227728,-147.27527408138138L-85.36192845004794,-187.0085436233312L-108.72492684481368,-146.94285776940072zM85.36198843065795,187.00780416396833L108.72498687399138,146.9420120888279L-50.55952935032274,147.2743996696031zM176.0531631416641,-49.178436123928925L182.22534457660268,-95.14574397796638L35.24258350032528,-102.65864871123789zM-35.24259709432351,102.65766810934667L-176.05319567289183,49.177518400700805L-182.22540972177438,95.1449071292984zM182.22534457660268,-95.14574397796638L50.55950137227728,-147.27527408138138L35.24258350032528,-102.65864871123789zM-50.55952935032274,147.2743996696031L-35.24259709432351,102.65766810934667L-182.22540972177438,95.1449071292984zM35.24258350032528,-102.65864871123789L50.55950137227728,-147.27527408138138L-108.72492684481368,-146.94285776940072zM108.72498687399138,146.9420120888279L-35.24259709432351,102.65766810934667L-50.55952935032274,147.2743996696031zM35.24258350032528,-102.65864871123789L-108.72492684481368,-146.94285776940072L-130.57894747802757,-101.05791227711744zM108.72498687399138,146.9420120888279L130.57899706042258,101.05698831082711L-35.24259709432351,102.65766810934667zM165.1159275166974,0.4542558051942865L176.0531631416641,-49.178436123928925L18.11073107054433,-52.755287947885385zM-18.110734660454778,52.75423718903506L-165.11592723457662,-0.45521814342828765L-176.05319567289183,49.177518400700805zM18.11073107054433,-52.755287947885385L-130.57894747802757,-101.05791227711744L-149.72033280274763,-51.39954243821282zM130.57899706042258,101.05698831082711L149.72036171766277,51.398577835107346L-18.110734660454778,52.75423718903506zM176.0531631416641,-49.178436123928925L35.24258350032528,-102.65864871123789L18.11073107054433,-52.755287947885385zM-35.24259709432351,102.65766810934667L-18.110734660454778,52.75423718903506L-176.05319567289183,49.177518400700805zM3.2820009417351007e-15,-0.0005376617353574947L-149.72033280274766,-51.39954243821271L-165.11592723457662,-0.45521814342828765zM149.7203617176628,51.39857783510724L165.1159275166974,0.4542558051942865L3.890929180738303e-14,-0.0005376617354612734zM18.11073107054433,-52.755287947885385L35.24258350032528,-102.65864871123789L-130.57894747802757,-101.05791227711744zM130.57899706042258,101.05698831082711L-18.110734660454778,52.75423718903506L-35.24259709432351,102.65766810934667zM165.1159275166974,0.4542558051942865L18.11073107054433,-52.755287947885385L3.890929180738303e-14,-0.0005376617354612734zM-18.110734660454778,52.75423718903506L3.2820009417351007e-15,-0.0005376617353574947L-165.11592723457662,-0.45521814342828765zM3.890929180738303e-14,-0.0005376617354612734L18.11073107054433,-52.755287947885385L-149.72033280274763,-51.39954243821282zM149.72036171766277,51.398577835107346L3.2820009417351007e-15,-0.0005376617353574947L-18.110734660454778,52.75423718903506z" style="fill:none;stroke:rgb(0,0,0);stroke-opacity:1;stroke-width:1;stroke-linecap:round;stroke-linejoin:round"></path></svg>