<?xml version="1.0" encoding="utf-8" ?>
<svg baseProfile="full" height="113.24029627938752" version="1.1" width="142.72470893859375" xmlns="http://www.w3.org/2000/svg" xmlns:ev="http://www.w3.org/2001/xml-events" xmlns:xlink="http://www.w3.org/1999/xlink"><defs /><rect fill="white" height="113.24029627938752" width="142.72470893859375" x="0" y="0" /><path d="M54.77693632884492,71.09932679662235 m0.0,0.0 m-29.77693632884492,-4.628807155647777 l3.996868711730234,-5.742204533441582 8.09640987187439,-1.6276350838726474 l2.5220214545959116,4.973720664707684 -0.04291974691595892,9.830710735102496 l5.049578339858076,6.327487288903795 4.457171128786407,4.963653487580408 l10.430364863113596,1.9141040964866654 8.709194106473745,-1.1268029744364587 l11.975664624610474,1.5813957768229392 0.4354860022163212,0.6753471805596458 l0.5605637455551837,-34.652360162645245 -14.695219636106835,6.104644770306172 l10.9920044111854,-4.693625193441907 5.439743692543595,-11.358605626594445 l-6.801773532720709,-10.809480181015802 m6.624370161219983,-6.418214883198022 l9.682999340465937,-0.20086466050712418 1.7398041850831962,16.659801817060835 l3.0082187594611534,7.009077873245688 3.836328935106427,3.6544993390318297 l-3.224069823165551,8.646011079122545 1.8854396657843822,-2.178897244293279 l4.019568689286384,-6.045214005589275 1.4753253676818452,-7.363818993946253 l1.2026990835025577,-2.4018456622320636 9.340765222540728,-0.9782000247251132 l2.008101314826888,4.913448691815036 -8.09487364783279,16.667651784597517 l4.909747266697407,7.733908130448057 1.5084293122070447,3.148434217066772 l0.9513914189424102,-5.607758916553703 -2.4102321234708337,-1.1163215515872262 m-0.6977161798050391,-24.352883085477835 l0.9387995193610834,-7.705255120260707 -5.7869941199703785,-11.894428670013983 l-2.4210796020914116,4.913130464488479 0.5970155844397507,6.179079699022993 l1.5852053132882074,8.652456308059904 -1.8363629120790383,7.164836940780408 l-7.402235448474462,3.4330501278519345 0.07609752048850875,-0.6421448532795656 " fill="none" stroke="black" stroke-width="1" /></svg>