<?xml version="1.0" encoding="utf-8" ?>
<svg baseProfile="full" height="158.75975201096014" version="1.1" width="138.92361178441357" xmlns="http://www.w3.org/2000/svg" xmlns:ev="http://www.w3.org/2001/xml-events" xmlns:xlink="http://www.w3.org/1999/xlink"><defs /><rect fill="white" height="158.75975201096014" width="138.92361178441357" x="0" y="0" /><path d="M113.92361178441357,133.75975201096014 m0.0,0.0 m-26.816777481698832,-11.46256917889 l-1.9047811727229702,-2.2758260714931597 -3.2284325557691416,-32.71806156757024 l-7.635544319984612,4.60383711151134 -10.331337465459129,1.4482239962350478 l-12.122536746106942,-1.2836050258136713 -7.243180914328456,-0.5189929470668828 l-5.469137784926696,-1.27155624381455 -7.672376314747649,-1.6902353315711451 l-2.615927423145281,0.33764804209055155 10.316005970756585,2.8874857187464698 l7.127910997033415,-3.606046287516656 -7.790896686791189,-7.814811723247305 m-8.214710048319688,-39.17680197836044 l-5.321889838202971,-6.004056666198528 6.490080688436482,-10.214383858000978 l-3.903338721053036,14.793181981541458 9.415224815165514,6.803712321980063 l0.34801665359654693,7.459677019971839 2.7707266344705865,4.52046013992484 l0.672805989913231,6.511664810593174 16.256663032868122,6.337986277774901 l2.1045833478026696,-0.7362865523651769 -7.997500800676787,-7.47879718485947 m-22.09652086593982,15.020305251025512 l-3.816885605395506,-6.030261947064213 4.953707393429242,-4.978917275858292 l10.060415707578189,2.664405838346826 3.043588770331309,3.979102855270256 l1.9332697703588402,3.98928379601236 0.6667301576802522,5.088934212068891 l-3.774373533989564,2.1772160557305695 2.513680212777408,1.258885867248259 l11.835156558380188,-0.1617108018234186 5.79201007047715,-5.353873347928878 l-9.918390363343352,-5.543311020759343 m-19.161207428535345,-6.924503491203443 l0.2795730127107864,-7.640292101151209 9.68341284706593,-2.822558157793821 l6.720203454947646,1.4235427712353332 -0.01718830260798776,-15.137888485834745 m8.8322997715549,-7.4371642479870355 " fill="none" stroke="black" stroke-width="1" /></svg>