<?xml version="1.0" encoding="utf-8" ?>
<svg baseProfile="full" height="171.90909604437914" version="1.1" width="121.3208877135462" xmlns="http://www.w3.org/2000/svg" xmlns:ev="http://www.w3.org/2001/xml-events" xmlns:xlink="http://www.w3.org/1999/xlink"><defs /><rect fill="white" height="171.90909604437914" width="121.3208877135462" x="0" y="0" /><path d="M63.19103358501882,105.4355331602303 m0.0,0.0 m-38.19103358501882,8.543281267361984 l8.842281922897225,-5.249658178644851 10.518898855587253,-1.779944294713392 l12.81593102828742,15.007716540594062 -2.7611207307431775,1.711532792399394 l6.351573156080694,1.322257836899629 -3.0123018058801234,9.434891620780594 l6.869850258352886,6.408854879052644 13.715465294098967,5.960290147833189 l5.102677832180654,0.11434027258558906 3.4002991668963354,-0.8632815355705294 l-2.25829582450506,-6.2872297235237395 m-11.819246228271522,-27.455450086600543 l-5.945816129926325,-14.8992989417733 1.8100250813492464,-5.91610599643585 l4.1631388275883285,-5.028502647031543 8.757763259406236,0.2976099990597096 l1.3903766625963068,4.599881509699167 3.0186760610996335,2.8729427644859804 l-1.404617054392179,3.9893953761323977 1.422001591786008,5.244443548033016 l-1.378055702821821,4.793343380592828 6.799865398520015,2.628127663826206 l4.921516793359189,-3.7126204702615064 -7.576545269948372,-5.626008629556002 m-17.617903277183963,-11.264258000089097 l-9.677830087194497,-1.067208828609442 7.59278836357451,-12.583912922831457 l-5.362011878352442,-8.289237565904731 -4.632236375762096,-10.215527048776506 l1.4370249382024018,-33.12619788924422 17.0200243819503,2.431024807128339 l1.204578250446754,2.3548496630918123 0.874274856143736,9.78515244639951 l5.9637657665294,5.203656027979978 4.26316273481517,-0.511435196461944 l0.5390748519417832,-7.152343611602503 4.871860107560999,-2.5935801803673963 l-12.62778955089415,5.436086508751871 -4.167765851586031,1.841401051991367 l-0.21883361360950926,6.746157024977732 -6.865043525537572,12.928798093547783 " fill="none" stroke="black" stroke-width="1" /></svg>