<?xml version="1.0" encoding="utf-8" ?>
<svg baseProfile="full" height="258.51780809646544" version="1.1" width="154.81520053896142" xmlns="http://www.w3.org/2000/svg" xmlns:ev="http://www.w3.org/2001/xml-events" xmlns:xlink="http://www.w3.org/1999/xlink"><defs /><rect fill="white" height="258.51780809646544" width="154.81520053896142" x="0" y="0" /><path d="M124.87867738276185,233.51780809646544 m0.0,0.0 m-0.6972656763091445,-31.820053956947646 l-16.48833337499635,1.7311043274631615 -5.364116527506849,-5.274084024623507 l2.1466698888944618,-2.101548253139907 -1.6042094412343781,-0.20161089600750248 l-4.849043304329311,-2.790006355462365 -4.193466034856212,2.4225176302997067 l9.771287597213586,6.37679562196493 18.442248321864742,-6.045743344613261 l7.772751707459027,-10.145435711177958 -0.546031818046544,-18.22478509691939 l-4.962228158595139,-11.613852463883273 -18.216737859871195,-6.3880322654104935 l-1.456119477945686,-16.867854899333373 -23.888811898913733,-28.14258293816977 l-4.937443272027214,-6.827969150764074 1.4237233570739034,-13.765234578022422 l5.185265082184977,-5.122543378864204 8.850343522479402,-15.60469389462012 l1.7735032672990005,-5.768136888556327 -3.9529451343439437,33.42959123016754 l1.9149178291655222,7.184081187547144 6.817332447513669,1.0876998141245526 l3.4664726384759015,-4.074852605978885 -4.199775086945925,-12.70663650625464 l-2.8108441931463273,-6.781881176428872 -5.444260403873053,-5.174080157459567 l0.7489557189127799,-5.496219187921856 0.6653088340500387,-11.505326524275613 l-0.7403747221962498,-28.30643365319749 1.826600883254294,1.6202595265630766 l-16.297651159959877,30.199490559361887 -1.6783992268665888,3.7678625855134276 l-4.862118341262794,3.9258994516977475 -8.451955625592154,-10.194427802190583 l-11.958979567061897,0.4164139125691263 -7.499297284999124,-4.065484106358029 l-7.008087893391812,-0.909995716061573 -4.7022329156331155,-0.33389897840221455 l-3.873330078698524,1.8504193388648864 11.380697556452441,15.123374449840965 l6.011519970950798,-3.1572766632996694 " fill="none" stroke="black" stroke-width="1" /></svg>