<?xml version="1.0" encoding="utf-8" ?>
<svg baseProfile="full" height="212.24585337017194" version="1.1" width="172.88970830632383" xmlns="http://www.w3.org/2000/svg" xmlns:ev="http://www.w3.org/2001/xml-events" xmlns:xlink="http://www.w3.org/1999/xlink"><defs /><rect fill="white" height="212.24585337017194" width="172.88970830632383" x="0" y="0" /><path d="M25,25 m0.0,0.0 m19.587378806622358,27.449693154365615 l9.115278122217154,16.770066040852267 -3.6675294938056933,1.3622318664908335 l3.7440951408335663,3.9352408270997605 0.7510850212751713,4.114001750633022 l21.673395776953264,-3.3456144706596755 -0.8313863168637745,-6.717963231112791 m6.123526547354832,36.655885935423456 l3.151727551454109,2.5106221598285363 2.85902105441866,-1.5499840754026843 l8.456683761446623,-2.3287088991765814 1.0170702707512354,-2.512852055136916 l-4.155105481017909,2.6660890409437785 2.909550129616468,4.970385615495617 l7.409910796264319,-4.850020992654228 -2.861637581507924,-4.463743607966616 l-4.853080994732028,-6.0461041229704335 -4.370712737509924,-2.046622478022896 l5.865515061148986,-5.418797620027374 1.3164719666314406,-9.768227180706187 l-1.4884442865964411,-6.066080840211415 -5.4400262990988875,4.580959885665721 l-3.4439657820457903,18.035932332660753 2.9572264030558886,9.80892819017551 l0.9107561372058515,-2.2086120850265756 -1.126491294738207,14.72448322596603 l2.47447252932845,7.547698256687354 0.3263946477283583,6.091012128047675 l1.8170431339260107,10.115210014994988 12.225824076700329,-6.36113746261514 l-4.91150792323755,2.2004525488180215 -1.949364596308613,-3.0712672851538168 l-0.34624040006050083,2.222061102643963 6.838055514773826,0.10708215195528614 m34.421566041166315,44.00113413293732 l0.28431436293384693,1.9152283484734194 0.6555782663684343,7.217191066856385 l5.443260373671605,-2.9470077182759162 -7.045340583784923,-0.448306971228849 m1.842906030306728,-143.1740699449724 l0.37402664957044435,12.688286194312747 -1.314765806713845,5.810073830692413 " fill="none" stroke="black" stroke-width="1" /></svg>