<?xml version="1.0" encoding="utf-8" ?>
<svg baseProfile="full" height="285.4076404398842" version="1.1" width="139.94773773826697" xmlns="http://www.w3.org/2000/svg" xmlns:ev="http://www.w3.org/2001/xml-events" xmlns:xlink="http://www.w3.org/1999/xlink"><defs /><rect fill="white" height="285.4076404398842" width="139.94773773826697" x="0" y="0" /><path d="M72.41301872682641,245.74554520537933 m0.0,0.0 m5.7169554186105636,14.662095234504866 l14.767775826446211,-60.60925993326575 9.287791035931775,4.762023318300769 l7.474326637788954,6.792103483653539 5.287870092663063,8.851935596937404 m-6.5226139229161895,-87.86507373348921 l2.906437529022775,-6.901685353050251 -4.708368114298117,-5.859241698979713 l-19.83564941237212,-9.158050052890815 -18.61376193466327,-7.631695967512721 l-9.045180418049489,-10.583765080426058 -10.444176763152896,-6.472512929641576 l-11.469707197109198,-4.619211853703951 -4.236014258747459,-5.5414927667687195 l-4.607575492862123,-11.618956954354669 -3.371127753118886,-6.343109925864124 l4.988002026337543,-4.516124409045729 15.159197658521085,-6.503332469039119 l-20.126500031586538,20.106365881282358 8.76958756298967,8.694706830131526 l6.382494417117832,8.210029985329545 8.054920436467606,9.262630065193823 l3.067480711853191,7.662283075758257 2.358209919551024,0.351542261294962 l-9.199433339191103,4.910537207506261 -12.643599765635795,-6.7329314850031 l-3.2951099315607704,-11.978503832320705 6.509926167522369,-3.767043567876408 l9.950371003974862,-3.9778646712619414 4.275382804726828,-9.657784043763309 l3.1995900792452785,-10.057543321482848 1.0349939823124488,-9.834042391531682 l4.750605244602351,-7.0179747585430725 12.486959966970046,-1.4950941365007269 l8.59537369509269,-4.0709676538732715 0.5738980622728573,-10.711945865473641 m7.1866380088915625,-1.4865892896095363 m2.557093896350373,39.711058705927194 " fill="none" stroke="black" stroke-width="1" /></svg>