<?xml version="1.0" encoding="utf-8" ?>
<svg baseProfile="full" height="156.43525024258102" version="1.1" width="105.63925564347161" xmlns="http://www.w3.org/2000/svg" xmlns:ev="http://www.w3.org/2001/xml-events" xmlns:xlink="http://www.w3.org/1999/xlink"><defs /><rect fill="white" height="156.43525024258102" width="105.63925564347161" x="0" y="0" /><path d="M80.63925564347161,25 m0.0,0.0 m-14.605716370871928,25.299414725027813 l6.320338133878898,12.945770229928538 -0.5176309350402533,1.695299660500571 l-3.582610829595865,-0.06509646914985623 4.674106521206014,-3.1513041858942397 l-0.8756314075229421,-8.84650871373267 -9.582437839083816,15.725370729151754 l-0.1449686365368883,3.202290252332397 -3.7033625621436093,-0.12323416532541653 l-6.998867654847598,1.0149199209329909 -11.179118112619213,-1.770026795702142 l-4.002884213517888,-3.311745321303432 -2.7996121659919986,-6.895862529429171 l-2.4038223844654594,-2.509904820377662 -6.237037186319079,6.214738294450122 l5.850551411566231,0.8401951135621866 10.177635916912013,-12.532559048296346 l4.082897419683169,3.7429530763639507 3.8427798522237557,17.22869825500869 l-3.105433138717489,0.6094742530077124 -4.3782845304012445,38.45620696556298 l-7.670677342147168,7.6133112383523 3.5660384392102507,4.207560076697916 l1.2169712215535768,3.868868910370026 -3.879406925652909,2.976420590542018 l2.109623208281914,-2.955808447523424 5.563589801733448,-9.727843803878214 l4.021788740046722,-2.677783255689066 -1.2000211134370256,1.8956014962694185 l-5.761165651010029,2.816898423604308 10.5292669103776,5.425927033355518 l9.222868516342423,-6.807560309642715 -8.982794866560067,-15.860747553143705 m-11.371744956639429,-7.3630921870764325 m3.5165056085173796,-16.325010061494964 l6.568326045367121,-4.6123048913858575 -1.8766162254643763,4.820893735038561 l-4.5660096495274916,-3.766712471525718 -6.151078217545136,-22.9511910475012 l3.8231083074352665,10.635194164447833 5.288953493614079,6.206093413511902 l3.1324466198842447,10.044662716577987 " fill="none" stroke="black" stroke-width="1" /></svg>