<?xml version="1.0" encoding="utf-8" ?>
<svg baseProfile="full" height="109.91052084322432" version="1.1" width="128.11511140405523" xmlns="http://www.w3.org/2000/svg" xmlns:ev="http://www.w3.org/2001/xml-events" xmlns:xlink="http://www.w3.org/1999/xlink"><defs /><rect fill="white" height="109.91052084322432" width="128.11511140405523" x="0" y="0" /><path d="M25,84.91052084322432 m0.0,0.0 m6.1068374333797255,-59.91052084322432 l-1.0555008688618523,1.717107546034729 10.481932138813791,8.062000990746272 l11.19167975658945,0.0815246773885163 0.3322691409883712,3.0513488801521635 l1.2382817261351755,11.004857374441336 -2.397638245364601,6.762665811157502 l-0.933302857484318,5.7515620084329155 -8.69527814883136,0.5633019088670774 l-6.080431732206304,1.5449647332678798 -1.866350033807543,-0.09814977201359508 l-1.6839912051599537,-8.208756381165893 -0.13477392777305355,-2.6175118080443993 l8.544382201749304,2.852614817113018 10.912341887936167,13.647492768455844 l0.30852001209323743,7.189638443558161 2.5515225575162663,7.694843615749446 l14.564827315893657,-6.259203071419447 7.859602588970984,-4.569879824869203 l4.368428008331574,-2.685818505201795 -0.3575157942399561,-1.1126224938938978 m9.334044729584331,-14.914134377490306 l-5.1257542584783655,-12.256058762107246 -1.4872965350523615,-3.752697722158939 l7.237170445958864,18.061075001541987 -2.2535513708008583,8.807390283227136 l4.3203320740727955,0.7392064520442643 6.821482421345949,3.3940843350710357 l-2.5759643130923227,-0.4887016278768738 -5.033320174499425,2.498525757918343 l-1.1370516593946856,4.509712693404066 12.759178089742528,2.226125710551328 l-1.4608059959553144,-5.190087002104143 m-27.906400434878947,2.743508968356556 m-20.195711672121973,-20.47855417820598 l-3.3397170587814764,-4.685021050795546 2.2252036630360514,-5.66489988185406 l1.137935751160889,-1.8552224722166548 " fill="none" stroke="black" stroke-width="1" /></svg>