<?xml version="1.0" encoding="utf-8" ?>
<svg baseProfile="full" height="286.6428809649419" version="1.1" width="159.44731659211797" xmlns="http://www.w3.org/2000/svg" xmlns:ev="http://www.w3.org/2001/xml-events" xmlns:xlink="http://www.w3.org/1999/xlink"><defs /><rect fill="white" height="286.6428809649419" width="159.44731659211797" x="0" y="0" /><path d="M44.04672944962757,230.6985451443539 m0.0,0.0 m29.960641152685437,-3.1680500624309946 l14.89349199137465,34.112385883018995 -10.157337249396292,-2.1814182401615407 l-4.2696141787979425,-0.21406948296725598 -10.364631908961842,0.07604649789525166 m-39.10927925653158,-73.71827999916464 l3.5439251950724184,-1.921486638409175 14.984315465416167,2.654098732901058 l3.8853398898433156,2.6032589568425712 15.586582207852597,0.8135153743437362 l13.650160754009137,10.014222695577281 8.725663695147807,7.001882120988992 l-5.441203373013163,1.1448239597443544 -10.063679127556222,-0.08798614547493845 l-2.703286200341747,4.52873885492425 -2.957352594099903,1.5557720431040567 l0.8017655076221974,-10.363455528040332 5.3162410932784105,-4.440035048286279 l3.002600540292391,-12.015223198774967 -3.239212013063538,-6.761142869212376 l-0.07756836776120157,-5.873019185494287 0.9061642101353092,3.431893830518361 l2.9540040680360113,-1.1927401372406752 0.22573397708547271,-4.82565006922046 l7.170341030487608,-9.088562830779818 4.5482909576730455,-6.1914823598513395 l0.40492816742522586,-3.1394085376341088 1.2153886775995149,-6.878895127578543 l10.806621263671333,-14.882264719130225 5.737205953998288,-4.450004937139244 l4.885209281915169,-6.689134466562903 1.7538295224498806,-1.0067520084912518 l-1.4897833620921235,-6.878812195353136 2.6084160779406393,-6.325748132303081 l-0.03333524251511816,2.348600062846309 -4.447110188763077,2.4983605830176234 l25.427760090895916,-61.880001968050514 1.7593594334762304,-24.308520852324662 " fill="none" stroke="black" stroke-width="1" /></svg>