<?xml version="1.0" encoding="utf-8" ?>
<svg baseProfile="full" height="136.08306917277486" version="1.1" width="105.66953468679225" xmlns="http://www.w3.org/2000/svg" xmlns:ev="http://www.w3.org/2001/xml-events" xmlns:xlink="http://www.w3.org/1999/xlink"><defs /><rect fill="white" height="136.08306917277486" width="105.66953468679225" x="0" y="0" /><path d="M44.196200884218705,37.62111142949672 m0.0,0.0 m-8.669122918682001,17.894694498110212 m15.861096155274794,3.9769354764695772 l7.9769654640163985,-1.3610251970432452 m4.686294390495931,18.849493169583006 l2.5079227490341713,1.648056145235034 8.407724913738091,4.614043284617304 l2.935797453475022,-4.928033895054709 -2.645880983236083,-0.7796934243688908 l4.335359518213116,0.9841933514494119 0.2680753206396569,2.963785201161122 l0.8091017396044314,-7.809260722585707 -6.068273054246906,-2.22927176274621 l-2.4785155061570996,4.736295345142552 2.375770009896683,2.0672791966063904 l-6.220913007446916,10.551881464690444 -3.2891569571257384,5.545151629771103 l3.208105343118729,9.716824489848594 -5.599950657844497,7.020609492392138 l-5.609829499944167,-0.5144518649463296 8.755069287969887,0.08799513063397872 l1.5047226017179245,-5.086382951042599 m-30.435099648438566,-45.2681014654472 l1.0783942613602748,-1.8771540570819525 9.325935545804077,2.0440424579052805 l-5.721930276830292,7.977610687390304 -0.07370831566825849,5.628560494867623 l3.060826225816156,0.21458447191739505 -6.10330034884806,-4.2098967506182765 l-5.633638888968583,-4.806920071719527 -6.674470317766753,-3.5697980010435884 m-1.0695714831901382,-36.703157253589985 l0.9989568204364128,2.0511981228833074 3.9145130233461742,0.5829138105427117 l2.627815009969135,3.829425982277922 3.359732686653778,2.2334512413180296 l-2.970523217497805,3.0818855282557336 0.817238799062191,5.455418970725303 l-1.5289726730025914,6.585856839496739 9.158027404816034,9.446315666819345 l-0.04358077653631444,-2.6758251036942893 -8.783212414044998,-9.305693150684503 m9.508431221569328,-20.18958496135852 " fill="none" stroke="black" stroke-width="1" /></svg>