<?xml version="1.0" encoding="utf-8" ?>
<svg baseProfile="full" height="250.04022706144488" version="1.1" width="141.08886170809694" xmlns="http://www.w3.org/2000/svg" xmlns:ev="http://www.w3.org/2001/xml-events" xmlns:xlink="http://www.w3.org/1999/xlink"><defs /><rect fill="white" height="250.04022706144488" width="141.08886170809694" x="0" y="0" /><path d="M40.11342621768223,225.04022706144488 m0.0,0.0 m44.470060939391566,-36.10894199665757 l15.43570763279645,-20.75442045779405 5.121686040261591,0.07295888006462255 l1.693984924676966,0.8462973307817399 2.546766441524813,2.9304291473995003 l6.707229511763338,7.339956809216447 m-40.78843240363325,-6.265053740488362 l-6.7394005034853866,-0.7984349310474916 -5.460781538442969,-7.915337927209332 l-0.19674499240601093,-6.40074194968783 -3.8635591572602968,-8.007133974486829 l-2.7240597872722203,-11.585457090808221 -2.0444997971557153,-6.7218013486443935 l10.508354537109005,-15.152444580884605 -2.265358206795841,3.413685230874436 l-0.21630880970046715,5.756251801759357 -2.142763022892134,5.257896374634301 l-4.2337517202278265,3.0047154580924764 2.360690403457242,1.0072214738875578 l9.32501278427361,0.5911830887214056 3.735870663524162,-1.0177313213817374 l10.902733191441484,-2.499806625305815 11.034186881404153,-4.145753103917839 l-2.8811975770511333,-1.229559638537245 -12.010016092981044,-9.838893549907631 l-11.462444400732364,-1.4607504853484476 1.8848151392113126,4.748197157382155 l-7.329479891494659,4.438568225168573 -3.585844628145196,3.8442217236769687 l-11.797683562314129,-0.8809876004022704 -6.5499570392017725,-3.0350559723315333 l-8.053515134862886,-2.4278080769445918 -6.494727042462621,2.7367231789480106 m38.95908933699916,87.71784521654479 l-28.349898578873713,1.135851608469991 5.299347150829519,-104.69134958445409 l17.21074133843426,-37.81166079868529 8.534545589722141,-46.13310501214207 " fill="none" stroke="black" stroke-width="1" /></svg>