<?xml version="1.0" encoding="utf-8" ?>
<svg baseProfile="full" height="149.37251840759976" version="1.1" width="121.25101976298595" xmlns="http://www.w3.org/2000/svg" xmlns:ev="http://www.w3.org/2001/xml-events" xmlns:xlink="http://www.w3.org/1999/xlink"><defs /><rect fill="white" height="149.37251840759976" width="121.25101976298595" x="0" y="0" /><path d="M71.1716054293388,98.42804237702828 m0.0,0.0 m-35.57048968370806,6.532918096223508 l5.019996049196593,-5.841780726129433 1.5012433467440363,12.182171539119617 l-5.227723019034707,4.888193990528283 4.500903389726638,5.046741038955869 l-2.4162010696314296,-5.335049187321258 -13.979334442631863,-14.805944597714236 l4.336693439820086,-9.48373388644807 1.0731018457063983,-21.74513838363751 l-2.619046284583043,-10.915008660240503 -1.331555477573801,-26.907489975609167 l4.353795879837746,-7.043921624755365 -0.6506151326312484,5.281869811059399 l11.485321548163485,4.739149522868896 3.2409510724501303,3.6265150815482596 l0.23517270525200168,5.336392363464151 6.2559056471110726,4.440451854084918 l3.797607456776891,2.702790332916228 1.8476146129036026,8.683220060190921 l10.697605122969557,2.33207970463979 10.22464990569063,-4.664866436138351 l-2.381149793993139,-4.953296022594232 -7.688681895169567,-5.6693544521056936 l-3.78579821016448,3.2447219647189938 -0.42587736345470195,9.143031766933925 l0.7043787588134923,8.970003460918608 10.695062377846556,10.12286347196846 l4.999304239955413,6.562563027572634 1.2087791596800639,2.255200683338867 l-4.336185333223355,-1.770139731230046 -2.568971699837924,-7.191691992493719 l-5.9457611363471825,-0.8562742315597988 3.359268726120808,-2.8434282051181308 l15.345995013407098,-0.7084214921299203 -2.486219915430498,-2.345642446353739 l-7.272467309882777,4.706060586976388 -4.574186016868677,7.8744434571372235 l0.505418800124355,13.068538356873072 -2.8576337876629454,11.515641404182896 l5.362589790524577,3.944277409888331 12.030697719920749,11.825819096041425 l8.415255296734568,-4.352129258534935 " fill="none" stroke="black" stroke-width="1" /></svg>