<?xml version="1.0" encoding="utf-8" ?>
<svg baseProfile="full" height="115.2178723928064" version="1.1" width="101.580878865093" xmlns="http://www.w3.org/2000/svg" xmlns:ev="http://www.w3.org/2001/xml-events" xmlns:xlink="http://www.w3.org/1999/xlink"><defs /><rect fill="white" height="115.2178723928064" width="101.580878865093" x="0" y="0" /><path d="M40.39873878808496,77.35727063496296 m0.0,0.0 m-8.326023807359206,-33.11904844223184 l8.174832085221995,-1.918297840438714 5.414371598674364,-4.807752660384072 l19.070313473254597,11.429850713145957 0.5469915043558188,3.3665887162363255 l5.362950294377062,4.131680269307753 5.938704928483399,3.185827923062585 l-4.96148999528941,7.3794081242596 m-14.720003611866614,-21.725683748927608 l-8.31420364770501,-7.053708804989092 3.719635552150838,-9.670482906187015 l8.627242736772033,-3.55565197781683 5.3852317182579155,9.683954335593118 l-2.441633400659962,2.8684383547010084 0.6911546935508985,12.142695698662477 l-0.7500267880250042,3.736334485437898 -4.507350720018684,-1.2585017939504353 l-10.290321236274803,-8.090580512455553 0.3417837595163171,0.5015937257847825 m-14.65577376543659,4.7438200311232555 l-2.819436259766131,-3.0099075547288883 1.6786771105546634,-4.747069673281536 l-7.965651031080951,6.482655219189824 1.9280836747892516,10.442328571933086 l0.26488843285713554,8.65814256281616 6.853240544500801,5.9975102387486094 l2.64047885424998,8.888677161440405 10.305285398658647,-0.5575205655676324 l7.1394306156252,-2.604264351629529 3.776534905167678,-3.198007942361559 m-32.22935152841158,-35.29286722281267 l-1.2773048772096107,-0.0068867223986837645 2.549466719508208,3.804637152531402 l-1.955954334780075,34.521746156426154 2.3420032317449797,6.440592867312016 l0.5860602135867268,5.070352170292683 4.18881628449406,-6.073886807020202 l-3.672257185214652,-1.4453900191334514 m0.7024294366312556,-9.850848964076732 l5.178989082070777,-5.567134491533626 -3.3102752835380365,-14.39813502458057 l-3.5425342208986543,-4.169650390233016 " fill="none" stroke="black" stroke-width="1" /></svg>