<?xml version="1.0" encoding="utf-8" ?>
<svg baseProfile="full" height="102.41669083243946" version="1.1" width="126.50002706924732" xmlns="http://www.w3.org/2000/svg" xmlns:ev="http://www.w3.org/2001/xml-events" xmlns:xlink="http://www.w3.org/1999/xlink"><defs /><rect fill="white" height="102.41669083243946" width="126.50002706924732" x="0" y="0" /><path d="M79.30987437031447,67.5547166713772 m0.0,0.0 m-3.7442476794556443,-24.21275139077725 m18.333386768152632,-15.312149992506262 l-0.5494693588023453,11.669931347642324 -1.9869337996502006,4.272505146586003 l0.6727264336350026,10.732313759636682 5.536423077732733,7.764336118457604 l3.9282672573206767,5.953717703852191 -3.571080598976475,6.242253490585888 l-9.608865740834393,2.7518179775850826 -7.9871594110966075,-3.9699771878083667 l-3.4613861918926774,-4.659560201526919 -3.497293513467815,-3.9119061132787714 m-48.37424161297937,-31.671795048498794 l1.3199355528352312,-6.599476282597017 11.226099852558137,-0.11302228044880153 l9.966622569000034,-1.4909537182807868 9.418919906214832,2.4066686560088644 l3.223232823557605,4.817164123710591 0.17586235228835265,7.4425990601909096 l-4.8237799244063595,7.31539857470326 -8.08589577154221,1.7657648303367313 l-7.140361393972518,1.1198045394992249 -5.447372974758629,1.5611867016067533 l-1.1629552633731504,2.431858227741554 3.772168808354025,3.505490418028259 l8.093712611588277,4.085203245355691 11.114230880390311,1.1276292218917592 l11.166800346023512,-2.6965741912077648 4.211918232356958,-2.5584264768985645 l1.8903281383514077,-5.782256214945159 -0.7914430655162721,-7.493085920429215 l-5.258382774805455,-7.291293700567046 -5.654392425530009,-2.365924332168757 l-15.169423027055373,1.0344245079422734 -12.297376964049732,4.194846382480796 l-2.700781753088804,10.538993565571223 3.2809862455989633,8.798623606589668 l15.765373639906015,7.279545888933632 17.877826412423268,-4.814738641431944 l12.131156434096283,1.4974491455630996 9.85609122064746,6.4189455088908005 l2.9579322175794096,6.4485111033360605 " fill="none" stroke="black" stroke-width="1" /></svg>