<?xml version="1.0" encoding="utf-8" ?>
<svg baseProfile="full" height="141.11701105935276" version="1.1" width="105.14368014628593" xmlns="http://www.w3.org/2000/svg" xmlns:ev="http://www.w3.org/2001/xml-events" xmlns:xlink="http://www.w3.org/1999/xlink"><defs /><rect fill="white" height="141.11701105935276" width="105.14368014628593" x="0" y="0" /><path d="M77.74193563098774,89.13774330247314 m0.0,0.0 m-5.80950148147733,12.78683902530028 l8.211245996775514,9.391750218170127 -8.220927879462103,4.800678513409199 l4.815539193622341,-1.3184299107054591 1.7193260801727062,-4.396375016424809 l-1.1135408283236565,-3.471207079375272 -2.101730775309194,-0.6000597910842158 l-8.775271680249716,-3.4026198958516822 -9.600053272896078,-1.4514075938626987 l-1.0152904800488287,2.147931268317005 2.6238078098019373,-4.283054962629001 l-11.031976726965095,-14.382704146993118 -8.339188492298954,-1.674867583375987 m21.05536196717501,-45.87540203612413 l5.667610211549633,4.262731480746288 1.9016428525928863,9.917592957547756 l1.5359619265409503,5.324692630389488 -1.4010578992423517,6.0322375766025536 l-2.5036787885149696,3.499754454952464 -1.816696216196755,3.9087547734700534 l8.357209005745027,3.465842086779328 1.6451312742641901,-6.094756968697331 l-10.042521721611525,-5.049862623112241 m1.2052489027146862,-35.48689427083663 l3.789113467918587,1.733444043323142 -0.2590684358639708,20.78544960777386 l-1.2794275073754797,6.676470580981842 -1.862215084955231,3.286831687818326 l-10.579868096696071,-11.283443920761899 -8.00734673974437,-6.928562120214299 l-4.806623984209937,-0.5352674110729094 1.8626313000393946,-0.8577548353616948 l2.2800505572177414,4.859753058609912 -0.9139950455105353,2.9908078747133593 l2.25565437070637,-10.36682722246578 -5.15954179279696,-3.0945847601825127 l-4.298957618625237,-4.547723297654644 -12.728989999450366,-4.907499694591815 " fill="none" stroke="black" stroke-width="1" /></svg>