<?xml version="1.0" encoding="utf-8" ?>
<svg baseProfile="full" height="160.8358819597786" version="1.1" width="96.02538294360224" xmlns="http://www.w3.org/2000/svg" xmlns:ev="http://www.w3.org/2001/xml-events" xmlns:xlink="http://www.w3.org/1999/xlink"><defs /><rect fill="white" height="160.8358819597786" width="96.02538294360224" x="0" y="0" /><path d="M39.32186507876648,124.14845358162962 m0.0,0.0 m-14.321865078766477,11.687428378148974 l7.64120025734367,-1.7365766029460572 6.486650714234716,-2.2402017842317004 l8.399312237523588,-2.930971130327448 5.573582062516287,1.0920333799158057 l-1.0619534297185023,-2.5819794520474804 10.011188102737407,0.626630744262483 l3.5063229571520873,-7.312065697930975 1.5160433430504432,2.458005096101757 l-13.413033493630664,6.020457206554362 -15.321341492509832,4.588934488628221 l10.934631933313549,-7.3815385046924895 18.256088918140154,3.1365834814036564 l-6.82401610452706,-1.1348565895548663 -7.687487293051497,0.039382722813577076 m2.0437341836927847,-22.254824810192897 l-1.4544030992590378,2.804442368505174 8.002597378371059,-3.4718266803884434 l3.5903534445437484,-11.431214144877053 -0.019410257555568106,1.1741094104119876 l5.003425462868212,4.7085888231559565 0.8418971183666853,1.6774287361557387 l-1.5886091700542175,-3.236801970391474 -2.7347284706211936,-7.69114240133858 l-7.014655836255029,-4.930952616460811 -7.170340966416122,-3.6338766101360833 l-2.8501933665168777,4.903112866994091 0.014248336198744719,8.246410975576074 l17.388653305279536,4.774689288647131 2.315279298629052,-1.0839234445770927 l-2.8577961067323723,-0.1816182831188745 -12.589398273138604,-5.4318804415098 l-7.305166625722972,-0.6126867127852268 0.32286568043917085,-5.502002068352485 l0.36778987605181723,-12.54049106236534 -1.9359470511103896,-3.8390428561037706 l-1.3157301781848851,9.518383268340921 6.010983395888238,2.168607038354963 l14.08988032688086,-4.094521908377138 4.342883227608489,-3.7241329541411194 l-3.505220621051118,-3.7878810840403423 m-18.748319568953654,-46.00667204471295 " fill="none" stroke="black" stroke-width="1" /></svg>