<?xml version="1.0" encoding="utf-8" ?>
<svg baseProfile="full" height="134.43106235985397" version="1.1" width="162.23319591189005" xmlns="http://www.w3.org/2000/svg" xmlns:ev="http://www.w3.org/2001/xml-events" xmlns:xlink="http://www.w3.org/1999/xlink"><defs /><rect fill="white" height="134.43106235985397" width="162.23319591189005" x="0" y="0" /><path d="M113.2247489276891,52.14732117678087 m0.0,0.0 m-26.221277453176455,15.751286786335426 m15.216649569250828,3.4382146375809697 l-1.7812909573500935,-8.143444128622495 -1.0601638307879664,-1.515629634726684 l5.587307159248003,2.677266026257164 -0.5965043013622895,21.64797852938355 l8.653901317684037,6.8871546128492405 10.323150944836726,-1.9477097588516161 l9.676155552647735,-6.415685186462796 4.210518983210413,-7.140295404114001 l-18.83037177964774,-15.677193576356666 -1.51041799823386,-10.788378613933679 l-22.450400921532587,-4.279853333357531 -6.011343241320661,3.436055407374753 l-6.75367837080294,4.0640532284412485 -5.318096171517777,3.056288525188418 l-7.426094654952309,9.262591436019015 -2.267687188596106,5.807552842138602 l-0.4101148801941108,14.15518642796298 -7.939871840926012,9.671018594987837 l3.8142132829513997,-0.32787943023334404 3.0084017953599984,4.787866344419284 l-2.6553875443661537,4.264120620707382 1.029127820105355,4.613176230086034 l-6.595907577651181,-1.4480630538129207 m-21.315145710455283,-33.95270780579171 l4.673049228134333,-6.395491390782286 18.06412657444726,-15.323915195632786 l-5.65735663781535,7.073830143032491 4.343066233272812,3.5761184434746243 l-5.519398543590508,3.248337151157053 2.9061507739045047,4.933037093717623 l19.59290814937809,1.9523626188858894 7.680212830223578,-5.872257125910966 l-7.972971787716821,-8.198743182555638 m-47.05522164472594,-22.052478949300774 l-1.6549861056220228,-4.863621087703757 11.53842701179664,-7.107470018630808 l1.7434776997655699,2.7020891801577984 1.5847003844725296,5.607616017675947 l-1.0825060384437468,6.155728924849186 -5.088784526587957,2.68492795928107 " fill="none" stroke="black" stroke-width="1" /></svg>