<?xml version="1.0" encoding="utf-8" ?>
<svg baseProfile="full" height="132.24580725288976" version="1.1" width="126.1557915048375" xmlns="http://www.w3.org/2000/svg" xmlns:ev="http://www.w3.org/2001/xml-events" xmlns:xlink="http://www.w3.org/1999/xlink"><defs /><rect fill="white" height="132.24580725288976" width="126.1557915048375" x="0" y="0" /><path d="M99.01658436694947,43.01287512325306 m0.0,0.0 m2.139207137888024,-1.4228862124380905 l-24.094749322767086,0.7276412849387826 -0.0032614181517021112,-16.755644538241175 l2.801532277095949,-0.5619856575125796 4.08805348326948,2.6707355176377066 l-0.7535876125047847,13.40227062538549 3.1151785834870562,2.7902490310072117 l3.829002015422803,5.130771895796434 0.6621062580646301,5.118437535330418 l-6.719835046323879,3.2359572836618766 -7.452772284503514,2.187140679732811 l16.170461213047894,2.8407869192888433 1.550030841657303,-2.374049725528992 l-10.252100456398695,-3.8600257722932922 m-20.80821397695172,4.097992693173218 l-4.1591869394639405,-3.8775436393793004 7.07415707981907,-6.2864282808745795 l6.643231101186992,2.702762197165164 4.407268473368795,1.6951963828575884 l1.7212836521283452,2.7526781713166724 -0.7213951120434343,4.7374070283664675 l-3.080990911545407,6.556323865322905 8.73181951255719,3.7209441886766137 l11.59947388539838,-2.29688251336886 -3.9805203261739774,-6.52473308965469 m-16.074000904321856,0.6886253128517172 m-27.981716290826,13.257861479176661 l-7.128747513082449,0.38942608979179993 -3.0253717454724525,-5.707832482817206 l-3.799373834279051,-4.762881902607909 -7.059033714412181,1.053274069814606 l-1.454532472119261,3.204676199383918 15.626343693121898,6.069385440157726 l5.579046127162914,-3.6440186669313777 -7.896948303942281,-15.935006515575655 m3.8965700153332627,4.709938480583077 l-0.548427257973678,9.68531538111562 2.2996434302347124,8.805323249950183 l6.034118980341275,0.6314949113105317 -2.1528794275727674,-3.4540946492208566 l12.071859219295925,10.443090194543183 -0.07425227286198877,18.391239667744046 " fill="none" stroke="black" stroke-width="1" /></svg>