<?xml version="1.0" encoding="utf-8" ?>
<svg baseProfile="full" height="219.2793755368786" version="1.1" width="164.03701008741965" xmlns="http://www.w3.org/2000/svg" xmlns:ev="http://www.w3.org/2001/xml-events" xmlns:xlink="http://www.w3.org/1999/xlink"><defs /><rect fill="white" height="219.2793755368786" width="164.03701008741965" x="0" y="0" /><path d="M25,161.2898893371201 m0.0,0.0 m22.212861449373946,-7.841212797564617 l0.6100335846918433,2.052531195203926 3.2079549164568433,8.193160413673896 l11.152276795033513,-1.8367358141813144 9.465523086721593,1.4094876639557268 l3.7587988901790257,1.9017525807809237 7.547289344916038,8.409630711985999 l-4.747767658306157,7.150442606080551 8.482638728324797,13.550429639823415 l13.304696092355519,-2.670625221091869 4.499362882547364,-5.08088030153893 m-44.24686290980146,-35.59462921321861 l2.1007827852383465,-8.765370477858955 10.76088986551257,-1.6007780890251149 l-2.99523986527104,4.745824677210845 -2.0577070201786776,7.390521511473387 l2.9504010462862396,6.133939838023423 14.8256889251631,3.39579736417007 l6.274632876435976,-2.8965374494095317 -6.132555134427991,-3.5153822086963546 m5.326461581265917,1.1872590736999244 l8.9777626510943,5.379862411031173 -1.820945728083543,5.904842715683341 l1.1656018692137684,1.6752533672512244 0.8706246992986394,-6.424367650074655 l-0.5457058327862205,-3.2489990048342685 -2.117257392401728,1.5931946507178665 l2.3589184579533873,3.734160246760312 -1.0430550192043686,2.768760802281849 m13.168687399573592,-143.39122257943373 l-2.755432760594919,6.994478093259167 8.82288305854273,6.139919549025482 l5.346952884874863,4.856711509878837 -0.1491766440095615,4.467607204863905 l-5.592184311472921,6.1497629356861765 4.18148101833695,1.6239691669363125 l13.322315993757858,2.745633956326126 -0.698265367327915,-3.7478965206219215 m-8.170609330668468,0.6807953603151362 l0.7769930854191343,-1.8341732576165897 4.239358533208493,-15.004409721747004 l7.397902560178274,-0.39180381793768926 " fill="none" stroke="black" stroke-width="1" /></svg>