<?xml version="1.0" encoding="utf-8" ?>
<svg baseProfile="full" height="143.28235627177446" version="1.1" width="128.19946475037227" xmlns="http://www.w3.org/2000/svg" xmlns:ev="http://www.w3.org/2001/xml-events" xmlns:xlink="http://www.w3.org/1999/xlink"><defs /><rect fill="white" height="143.28235627177446" width="128.19946475037227" x="0" y="0" /><path d="M72.54345527814998,113.77792593991269 m0.0,0.0 m-4.26450791625355,-44.94583810303444 l7.782698845687321,-0.7980852672737562 14.044254195574537,21.32669628293069 l-0.41178718410168524,7.901727198860687 0.36448615020391845,8.248386717062383 l-6.250763742857917,6.538172184408124 -0.791934432319788,-2.837732262382249 l-1.3099540785115675,-5.405322018310371 -2.0804755780398665,-4.393135970965532 l-3.647934316274941,-3.776668510384068 -3.3321735145896705,-0.8745152748549936 l2.0447244084628355,3.100362547181035 14.631530758930888,2.5937913046758685 l7.650269484687709,-22.338630841149573 2.6924113129930425,1.1731463079246478 l3.535165078631013,1.5424606586315952 -2.2791907728248018,-3.534283311961721 m-18.120100478505528,-4.674560218255228 l-1.1385540896975699,-1.5566656167029114 m-26.333170055647205,11.677238380916432 l-9.518384510222491,1.208660645509243 6.434701919062502,-1.2794604320411544 l2.6350610020687686,9.968811037415328 1.929820362410376,11.36289112250564 l7.1618838193357846,6.628370253483139 -3.7319237473368916,5.809885522063894 l-4.857607140573797,1.47376140388407 -3.7182612490686275,0.36496659172498613 l2.174785351093562,-4.202312079148339 -0.8862943826189612,0.38246134690970185 l-1.1986772310257043,-4.932097685365162 -2.4296535918130395,-4.416018693706951 l7.224728853689039,-5.316698565368034 2.166111182613046,0.8029326827443922 l0.19999973640098798,4.0211819646925555 -6.550267410354118,8.835948079922778 l-13.473938033809818,-2.2077449594627385 -6.55559876334789,-5.309517415144296 l-4.813719643468448,-9.164614143864972 -2.5212158767314383,-7.944570282320151 m55.36147949374579,-58.99699514423484 l-24.949397599542856,-4.834311377428416 " fill="none" stroke="black" stroke-width="1" /></svg>