<?xml version="1.0" encoding="utf-8" ?>
<svg baseProfile="full" height="132.76222526552635" version="1.1" width="147.43012023693657" xmlns="http://www.w3.org/2000/svg" xmlns:ev="http://www.w3.org/2001/xml-events" xmlns:xlink="http://www.w3.org/1999/xlink"><defs /><rect fill="white" height="132.76222526552635" width="147.43012023693657" x="0" y="0" /><path d="M92.59917488856935,107.76222526552635 m0.0,0.0 m11.43342950485811,-48.19396106866083 l1.6410630621958322,-1.6618164878641677 3.97270995399463,1.2733925097979275 l6.06177168633792,-3.494264975569408 -2.7422550265034706,-0.268050503515453 l-4.076091913317875,-0.5933431879566714 -18.369514350203833,-12.285469970607743 l-8.965960575537887,4.27713961881285 -2.1102778472776307,-10.796303830297264 l-11.158969355094221,-9.506102510440938 -8.799089635362375,-1.3367582218864416 l-4.1066887686450455,7.639130469502839 -1.9587920595807367,14.124113545824386 l-3.7384327483346236,14.546510094410007 -19.718656058767102,9.257924313217405 l-4.963420757331041,-1.7748803960958517 8.305615196653124,1.348047572793704 l5.787460836573439,-29.695646115319636 6.644156112242475,-2.8445461451032092 l11.897101340421115,-12.777339976567879 -1.6135280029800532,6.5740385495807745 l5.043641013378646,4.638911605820095 4.879157606039451,18.39766478630245 l-6.33892652001121,3.2283934336196163 -3.660052524325003,-1.6068245565010975 l3.626620871603979,-4.825259189032229 17.317299813203235,2.5961682121320933 l1.7220297380538208,5.204353248922684 14.420520919341286,6.076879286605745 l4.034200745952172,9.784510946415095 2.2106343787837273,11.893447882547704 l-0.8233688805600876,8.005232650085373 4.368683674893832,-2.9370276646112075 l3.225657290060866,-3.802041468442531 0.6848426188044379,0.02672415142441542 l-1.4919605966301737,2.766202762226005 -0.9559973729103086,3.2059020153654263 l-1.535412735365859,3.615147442466374 15.047416810881783,-9.83732607715321 l4.634327902831889,-8.809803975819483 -3.521434971856191,-8.588132909070927 m-14.212365996125946,-18.580377687391113 " fill="none" stroke="black" stroke-width="1" /></svg>