<?xml version="1.0" encoding="utf-8" ?>
<svg baseProfile="full" height="228.40740341292172" version="1.1" width="96.69752759436062" xmlns="http://www.w3.org/2000/svg" xmlns:ev="http://www.w3.org/2001/xml-events" xmlns:xlink="http://www.w3.org/1999/xlink"><defs /><rect fill="white" height="228.40740341292172" width="96.69752759436062" x="0" y="0" /><path d="M49.255255648597306,166.63759900898458 m0.0,0.0 m3.57084671868803,-83.63022407831261 l13.427934249185551,2.1213909454491664 5.443490977889742,5.419502365680124 l-1.7033467865563814,8.407771785340987 m-4.480843992412442,-11.759672396884495 l-11.928325807178066,-4.786011569756367 -2.4968229433990112,4.220872945013839 l4.206078529838444,8.9776744697792 2.3147981245211118,8.217209049258086 l-6.460195271894471,16.199620275311517 -1.8811075790984504,7.001030188448409 l1.2927596028965456,6.893257300138298 1.6422551248896338,3.82512015273372 l4.982931613043362,9.724387607456958 0.6134683565287413,8.81159596485799 l-11.015536270749408,11.479661138867812 -4.132299919055422,7.805851766412922 l3.560815473676518,12.06389932862724 5.755588940852494,10.945700110057674 l-4.976292922207605,4.079293734681709 -6.150469876687567,0.7518733207749639 m-4.151954345117976,-74.26360721450168 l18.985393548559433,-9.531354142295987 3.5676036455251996,3.7738452839990133 l-2.430657982679437,7.443171643076448 -12.889351422615766,7.446479538212754 l-13.247966049744292,-1.4531389029106867 -2.020527549897718,-3.163221011206584 l3.372520002249372,-9.612222667849709 5.947076184645337,-17.801956224251676 l5.907523022305889,-5.522672838280634 -1.4761632008320813,-11.547567572723676 m-7.7957900237706,-28.41563304185854 l-9.608687819996016,3.009457541379774 11.726497122136967,-6.9502343964183195 l8.498073288897077,5.658637088559977 5.090517722840415,-9.590824117016426 l19.26002292092701,-27.886562378835745 " fill="none" stroke="black" stroke-width="1" /></svg>