<?xml version="1.0" encoding="utf-8" ?>
<svg baseProfile="full" height="128.2559773562432" version="1.1" width="114.85782023515291" xmlns="http://www.w3.org/2000/svg" xmlns:ev="http://www.w3.org/2001/xml-events" xmlns:xlink="http://www.w3.org/1999/xlink"><defs /><rect fill="white" height="128.2559773562432" width="114.85782023515291" x="0" y="0" /><path d="M26.91076593895358,42.780402368584376 m0.0,0.0 m-1.9107659389535825,0.20652332554455421 l1.7465914826428086,6.30277158689557 4.387707288001551,3.0191969171804 l1.918356189273252,4.607058041217013 -1.708123101980358,5.51327078123082 l2.9095431208771485,2.215093055405256 10.706062266535673,-2.0179790794877808 l-1.1478220868271312,-4.0707121543859355 m7.233239291615341,-33.55562484218427 l0.25920451841102804,0.06779963101193595 3.132211506571845,5.184838530287839 l3.309653340693857,3.3879423181127475 10.544485036845956,2.986264454504809 l7.7022606155359545,3.2902946631407537 -3.133335727028357,-3.78286833349068 m-21.39640846217586,33.833109244504676 l5.348209641262237,7.8664428992709 -1.221447205879534,6.002473454336988 l-10.115666584574875,0.841161696674797 -3.4869069626106697,-1.3757760710236877 l11.692643375563778,-0.2640921508465556 9.598342384446234,0.22247511110612725 l-7.982564087776944,1.5764879645964813 -16.872549743293366,-0.6854138358658318 l-4.483930925641651,1.6990452940456406 4.4814823975137745,-2.2837192487470217 l-9.809008123931337,-10.665422442437555 m15.454053399095823,20.17431716854722 l4.3059340516299685,-8.220341285858956 11.795058663720242,-7.063842609964623 l6.330273296532156,-11.553658163207158 -10.380624472305126,3.8484138889997297 l10.238812649831818,5.207235119550628 10.282516681914373,0.5194086622284624 l2.5691977233275995,-2.5136177019809933 m10.6503687973357,26.841727332288563 l-4.127238466969127,3.1152917664579336 -3.5882891596518096,-6.138517517127939 l-8.419444689633636,-5.487645044797382 12.16280844649739,-35.75256903454046 l1.7346354602929992,-3.552309549875363 0.5041160854616833,-10.180383119077902 " fill="none" stroke="black" stroke-width="1" /></svg>