<?xml version="1.0" encoding="utf-8" ?>
<svg baseProfile="full" height="118.41431911025771" version="1.1" width="131.8844976695591" xmlns="http://www.w3.org/2000/svg" xmlns:ev="http://www.w3.org/2001/xml-events" xmlns:xlink="http://www.w3.org/1999/xlink"><defs /><rect fill="white" height="118.41431911025771" width="131.8844976695591" x="0" y="0" /><path d="M106.88449766955908,40.60417917978115 m0.0,0.0 m-8.404343357689847,-12.015364251124486 l-3.177060940998269,-3.5888149286566633 1.4889301867666982,9.734175638886466 m-7.777729230704203,10.745659528039004 m-35.67266309228968,38.07238078055275 l-4.77048933007015,-2.805520067526951 -3.4383423663315225,-2.5478675679079035 l-3.744697611062028,0.7058757009359986 -1.1500357971478343,3.4721244919151864 l-7.407350832572251,2.8334919682945836 7.228695936561175,4.639027415639534 l11.754461138376424,3.5649712214290306 -0.043615265710472674,-4.75882824672476 m-23.85368484445574,-18.208074776253678 l-1.0358508187694566,-5.698736339362825 9.795914552209037,-5.290794424181435 l6.927350901009903,3.7919279419705667 5.604538216023253,6.07768726344594 l2.365797397628022,4.516055690110252 0.8462781075218415,6.159210166934288 l-0.48196615498400935,5.190731714714199 6.4497310170075846,4.052171206556377 l10.616194362624613,0.10766901438431536 -2.4066888121704375,-3.429021982635876 m-17.710340600269117,-8.156725004994989 m-10.998184672327138,-9.69014691556314 l1.1656313387698318,-8.146577793711113 0.4270062333161496,-6.482544864392386 l4.778698899134953,-3.1992212611536863 0.2438885701460622,0.8339924254522566 l-2.341315657546097,10.093577195561283 8.963612980394705,3.02160782789947 l2.919812107176892,6.760314287515505 1.668729080883024,-1.465074417443819 l4.710430993653614,-5.914451215295236 -7.450868223524448,1.6970818296610657 l3.4120783872254488,1.6050535194804867 -0.9785833426663682,-4.766512378282999 l-1.0533797830370228,3.268477635053005 -7.089115816886371,0.7280703795452137 l-5.085170175539033,1.1445419150737743 -17.180801349236813,8.774937538875074 " fill="none" stroke="black" stroke-width="1" /></svg>