<?xml version="1.0" encoding="utf-8" ?>
<svg baseProfile="full" height="137.9084732621813" version="1.1" width="115.13380033115097" xmlns="http://www.w3.org/2000/svg" xmlns:ev="http://www.w3.org/2001/xml-events" xmlns:xlink="http://www.w3.org/1999/xlink"><defs /><rect fill="white" height="137.9084732621813" width="115.13380033115097" x="0" y="0" /><path d="M55.23033287772485,86.17527561328245 m0.0,0.0 m0.770872434342853,2.8069988421841874 l-9.962677943633642,-0.1634734221747551 1.7430449661155274,0.13669828438447085 l13.471505594977975,2.987370014245268 4.3657925366573895,6.932528672333274 l-1.595746161054188,9.76366819565535 7.917122152377335,4.269407062271075 l12.429133295444897,-1.1643165538924771 1.1823919478766816,-4.651258723096752 m-15.723155382018696,-29.83452739918239 l1.7877951910141083,-4.51341063700223 8.888918817100981,1.317529163211979 l7.042270249491878,3.0734204397679576 2.586199754733017,7.498925575770468 l-6.128945018133565,9.91573227476668 -12.044545619780273,-3.584613663351822 l-5.318735192517079,-6.295655772746184 -0.7834631998136024,-0.9074963420435701 l-3.045932666167158,-7.854203719914549 m-31.724967015452464,-20.522840596747283 l2.5884724646829715,-6.078610623694671 -8.675684083969799,17.467077093133398 l1.1234053454720978,4.454806388031234 15.823771668218933,3.971970410601645 l10.925636514742145,-3.86065657056222 5.4644982559133535,0.14365595474172793 l4.672360710129844,2.1871134770139355 -3.6356834931018867,3.6105936786136064 l-7.120026416719328,4.436375793770017 6.960939843307242,6.112991196005797 l8.8214430657698,-3.7289120159014812 -2.4689652563188798,-7.997822481235388 m-10.96098643755508,-50.94773988349774 m2.812853763213298,-0.1565997247410162 l0.6150022034471141,3.1007955576045525 0.22947189860427805,3.913596130224323 l-6.190948113739135,1.7603587022232658 -0.33234794199976336,1.8101037925533605 l15.251664256000048,4.653299293535642 4.086873639334502,-4.253982426220016 l-1.8877927646433104,-7.059630446305429 m-18.36136179289652,1.1508459505680024 " fill="none" stroke="black" stroke-width="1" /></svg>