<?xml version="1.0" encoding="utf-8" ?>
<svg baseProfile="full" height="101.42796133290172" version="1.1" width="113.52431117541488" xmlns="http://www.w3.org/2000/svg" xmlns:ev="http://www.w3.org/2001/xml-events" xmlns:xlink="http://www.w3.org/1999/xlink"><defs /><rect fill="white" height="101.42796133290172" width="113.52431117541488" x="0" y="0" /><path d="M80.08844176192733,44.04220225330319 m0.0,0.0 m-31.568958587400367,2.3486466906826142 l-14.451215818107356,-4.342329769236943 -1.5251836423363354,-9.940589441599686 l3.229497800157087,-7.107929733149172 -10.772581514240349,25.73535505003342 l2.4245972110430114,8.785487181653734 16.782160006705315,1.5266100079078178 l3.4617209099762962,-2.7262060145222256 -5.10231165847749,-8.167274511636636 l-6.4197067201463165,-7.130406723508485 m28.688728104065902,11.50033658938573 l3.9797294852899183,-7.421543333123542 -3.179830126180131,-6.888178268322879 l-5.285152905074637,-6.373619130950625 -9.254377170087853,4.227749615021843 l3.749878329721679,1.7302246516707531 22.000634534693926,12.727236689021243 l-2.0582322327918106,16.420797350306227 -7.808420707309761,-0.6617269405740633 m9.886340011119827,-1.3394803217591789 l11.65855410286699,1.945155543677616 -4.203953986088461,4.736889099692491 l-7.247680235442671,2.8005547989284816 -9.417132942819268,-4.419795909404029 l-5.170980003222456,-3.9519090182907433 1.3987189346995617,-1.0945318565863742 l16.819956134997668,0.4019330793737047 1.3625158119007585,-5.722605780447856 m-22.098800753107998,-18.180345712756367 l1.118851773592671,-10.341615185064033 5.1345902551872395,-1.8123788201527027 l0.6573743590120551,4.474667194435429 0.6471126501427173,0.8502873777854414 l-5.017375264467067,1.9231276797652597 -1.276428064321621,-0.29336430665445146 l10.274125833641104,-6.202169903837396 -1.466025985216331,-5.426687641688189 m-1.9618615532974615,26.885920031318495 l2.5150009073771327,4.56367921546523 1.7887634667529144,-0.7578948834333512 l8.725885484846808,-7.126020031928199 0.012985568889112842,1.0921970666236296 " fill="none" stroke="black" stroke-width="1" /></svg>