<?xml version="1.0" encoding="utf-8" ?>
<svg baseProfile="full" height="170.087802891857" version="1.1" width="107.35913357196453" xmlns="http://www.w3.org/2000/svg" xmlns:ev="http://www.w3.org/2001/xml-events" xmlns:xlink="http://www.w3.org/1999/xlink"><defs /><rect fill="white" height="170.087802891857" width="107.35913357196453" x="0" y="0" /><path d="M75.23349647487359,145.087802891857 m0.0,0.0 m-29.994468213684407,-19.036061595055536 l-0.1594023305371775,-8.02650074560286 29.18469016323782,-14.424751440578275 l-1.14793784868129,0.011206441591660177 -12.491041872935993,-7.174287933273715 l-0.053742294407363445,-0.9204787668831961 0.7106443522928835,-1.4198574556625934 l5.085687030781068,14.963334642450825 -3.951478898110665,7.0439821207817355 l-2.1948541443822833,-4.11885505653738 -15.453719540221606,-20.96796073710597 l-0.8908535440702106,-8.84176177927459 15.365607714146288,5.803519180516173 l-17.46489291722729,-16.07506547267917 5.281597491998138,-0.5532269438910792 l6.396726809481918,15.767381980878625 -0.05871735496799091,3.7687572394392155 l-3.6658146524435087,-7.692941447117125 -14.803003689931455,-11.906307186551263 l-9.134312374748252,-1.9004373734301145 -0.794210360462217,1.3171076537340969 m16.59194923573779,-17.280344614936894 l11.111924535552628,0.28987893607381676 11.284943514226354,6.982327923339704 l0.7388933402412947,4.932974180295807 3.116976022812894,2.9069276470692778 l-0.15482035624605575,5.492109742989229 0.8459017024631238,4.147008148343268 l7.124363965475006,2.3870316328162136 6.699001611701504,-2.549087146235159 l-7.650669288254277,-4.6132393283012485 m-23.066060451601118,-3.686478692393996 m-12.297561531580827,-14.649849960313048 l1.5949147803557688,-7.17619336832466 -1.6600120736487323,-9.980308037793447 l-5.824770780513273,-12.907355280235342 16.246142922945328,3.0499261586309903 l0.7764318200298939,3.1262175721311896 2.4194251651307996,5.215856983513311 l0.251782322444576,2.8183423977266573 7.695112844868757,-8.108755288182099 l7.545415638788883,-4.419082755345376 " fill="none" stroke="black" stroke-width="1" /></svg>