<?xml version="1.0" encoding="utf-8" ?>
<svg baseProfile="full" height="118.27828294990802" version="1.1" width="169.2894528774652" xmlns="http://www.w3.org/2000/svg" xmlns:ev="http://www.w3.org/2001/xml-events" xmlns:xlink="http://www.w3.org/1999/xlink"><defs /><rect fill="white" height="118.27828294990802" width="169.2894528774652" x="0" y="0" /><path d="M25,93.27828294990802 m0.0,0.0 m44.97488615170584,-30.23901893114873 l-7.50747530189417,10.482643233152755 m9.292810406223765,-43.15093838450634 l-3.167537278524175,-0.7495370686961944 2.0592556919713014,-4.621431798709508 l0.576483875834516,0.4164071401979258 4.499237928515736,0.7603052090855678 l-1.1503290596584186,3.0908102968062376 1.229588530212097,1.7729785985862456 l-2.24973581393429,8.18611558893429 0.4629484877945726,3.005281902285868 l-2.3594159528690803,3.4291392590729184 7.706173300747947,3.000692895458592 l7.189983151902837,1.4879783464496137 8.331099020893706,-3.199779212698231 l-3.8978633829334894,-1.7590587298802756 2.430837154266934,-3.3619596211067186 l5.164223325156427,2.1601153849611285 1.0428735558351758,6.010935972296926 l-2.530177881290459,3.6760482639101135 -12.23161767654231,-2.3980284453494827 l-13.348386335323982,18.260623317127447 -6.066166464916149,4.851959891859544 l-9.510627317541886,1.127452076509187 -7.0509109085674355,-8.220697392469184 l0.7492089654184366,-4.347279876123212 11.667982305972448,-8.115662236648015 l2.6025164191035,-11.356883152141672 5.825531300847732,9.71835776815897 l-0.49356270109015205,2.2396827497733116 -4.287255473644899,2.2166010805577683 l0.7038630904655158,5.887530656976987 5.611020077699897,-3.6324729968025657 l-8.551343729499814,-0.13077068412519155 m-2.216763241751082,-8.361256028969041 l0.35998425816974794,0.5615555168639558 8.61794426210396,-6.218646581684428 l6.304233023836426,-3.8678117396147926 11.619209465757043,4.792263310125069 l37.37824723741516,16.158271244945574 13.362148976244736,-0.43559201837905914 l6.146331433351541,-3.3305684522119066 " fill="none" stroke="black" stroke-width="1" /></svg>