<?xml version="1.0" encoding="utf-8" ?>
<svg baseProfile="full" height="178.71069806289307" version="1.1" width="160.6418726853165" xmlns="http://www.w3.org/2000/svg" xmlns:ev="http://www.w3.org/2001/xml-events" xmlns:xlink="http://www.w3.org/1999/xlink"><defs /><rect fill="white" height="178.71069806289307" width="160.6418726853165" x="0" y="0" /><path d="M75.38571408179708,100.53151271825197 m0.0,0.0 m-10.88037717762532,24.861382232019267 l30.9989679257121,14.813124501996299 12.659216786708374,-6.248030483334635 l8.489421059643357,0.8140761740588172 18.988930009080907,9.679141933498 l-1.2615718394586688,6.389249481059134 -0.6602195659808285,1.273382901106639 l-10.594050893540006,1.596858604237589 m-11.158438656939307,-25.939083220628074 l1.4839691256854144,-5.3279902870754325 2.771865944730396,8.179876814578794 l-6.309672111233504,10.859175356528006 -0.20138865865545974,5.919303457534278 l-4.316113790351711,-1.8841102479589344 -9.08889285962784,1.095668823603392 l-8.674615270236249,-4.4826630028915275 -7.847565142075884,-4.862403114979482 l-3.9572015050111267,-4.808115867003799 -6.892720792528298,-4.21807807897861 m-38.72440530537282,-49.002308905945945 l-4.01019503399204,-8.044694570515793 3.8670982639153055,-5.861132060365072 l-3.249900398579252,0.33910990655656126 -0.023936269455253952,6.287770176108262 l-1.7939179266093555,9.261673276836339 6.485524744267593,3.972583088512436 l7.736547190575269,-1.1913568649152284 1.715916115610467,-7.776978263764122 l-6.951792690947158,-6.784714613268173 m-1.8820262549717903,-1.03225144401208 l-1.3077112073520847,-6.383798633830559 0.3038442048316484,-5.645457176773135 l3.344687759035173,-6.0950702816371125 8.687232976942223,-5.771884571470666 l5.018373529175147,1.1035392203692025 1.8422992070561424,5.8983646323702095 l-0.8885290246752842,5.217001839366158 -0.04452273607717929,7.64537726140871 l3.2900314928565813,6.324239110289161 10.095750342300883,0.29197344827268285 l0.3894781628286395,-5.230438608557892 m13.036724227817418,-40.763824660655615 " fill="none" stroke="black" stroke-width="1" /></svg>