<?xml version="1.0" encoding="utf-8" ?>
<svg baseProfile="full" height="130.67368117951966" version="1.1" width="114.09382988672617" xmlns="http://www.w3.org/2000/svg" xmlns:ev="http://www.w3.org/2001/xml-events" xmlns:xlink="http://www.w3.org/1999/xlink"><defs /><rect fill="white" height="130.67368117951966" width="114.09382988672617" x="0" y="0" /><path d="M89.09382988672617,98.17672438139655 m0.0,0.0 m-21.304981986216493,-8.506437971247621 m-4.921298424659014,3.5186420907881 l-15.15275050332518,12.484752678582637 -11.21235108454718,-26.081064551267062 l1.5244501477978774,-3.5656440057884407 7.632871285468431,4.4703862984641844 l5.9590209743640905,3.698521749222901 1.5597442331633005,2.0458291466379874 l-6.382895510828771,1.726401435275446 -2.72490712432659,4.661949715478023 l4.676331969176048,4.749336369055387 9.796956310600454,-0.4942838892924438 l2.2043722414115985,-4.705076683141159 -9.857077696514866,-6.359911417574235 m-3.6012179712429293,-5.254009261609509 l4.652906766798413,0.4040693651882705 -4.398458396035434,-12.159864702739446 l-1.3407061818179355,-7.645061295572516 -7.223900724708462,-15.239334238549075 l-0.5320231761765354,-15.159072044415232 3.3836063544358277,-2.8936868484747658 l5.922220877522457,-2.8731663204179725 7.719389895478399,3.7170090847493507 l0.6008113379544328,7.107388000389811 0.07044888715330964,5.98576505473286 l1.592486869140114,4.045430629008299 7.058193989233675,3.0972775532430084 l0.912146415510919,-4.617410312963479 -9.82971285267619,-7.790343981677193 m-14.694036021131408,-2.6922892466080404 l-4.775566301373576,1.4346468699792494 -11.407904486354937,9.40603692565554 l3.5672231228127407,3.9223450442183436 10.829578512417187,-1.423914579693475 l-3.381325076268418,2.8794909409780356 -3.8980708849518684,2.1876474444557124 l2.1200184924279966,-6.278465833632098 0.2232689809913807,7.911819471456611 l2.6939171677140403,2.541836316055838 -0.30077786294272607,8.017332737698162 l7.635511584852086,2.5434792369913337 10.644369017918528,-1.5823613797654383 " fill="none" stroke="black" stroke-width="1" /></svg>