<?xml version="1.0" encoding="utf-8" ?>
<svg baseProfile="full" height="138.22550117487498" version="1.1" width="137.409876770935" xmlns="http://www.w3.org/2000/svg" xmlns:ev="http://www.w3.org/2001/xml-events" xmlns:xlink="http://www.w3.org/1999/xlink"><defs /><rect fill="white" height="138.22550117487498" width="137.409876770935" x="0" y="0" /><path d="M99.2549807250946,113.22550117487498 m0.0,0.0 m-53.42934696807033,-37.24384874870367 l8.577845992726024,-4.231563345028624 12.216143170119858,-2.0032469404609414 l14.400795452806998,9.912842967423394 5.905910822167024,2.6846161877739414 l-0.4063362257183022,0.5241084758650918 0.10211595404431506,-2.537760726482455 l16.605289635656817,-10.44349646808801 -0.9830042398188504,-5.375802952627899 l-4.595734624426002,-5.133831427856528 -4.535993579519888,0.45146339805811897 l2.8623645101872057,1.9454839620793143 0.2139679332035012,-10.762749230805895 l-0.18444632634331382,-9.299864951018089 -0.16115114463408908,-1.5887089728075487 m-2.2340736761430424,2.642297045696117 l5.010846541533933,4.729952361551814 9.172208598820154,6.822970757599349 l2.261052578835039,3.2225063653281465 -6.586537696422321,-3.2973599649126295 l1.4263006863368983,5.739649903688835 4.937627063150766,-5.115648489093265 l-3.707560186287105,-7.202425050914385 m6.286611773635131,19.84955773664086 l-4.272968786266007,2.7284317012377937 -13.270385421703246,-5.85716663041922 l-9.185793712997329,-2.0301216517196217 -11.838610656032383,0.06399675953828898 l-14.904518251215718,-5.065840314214995 1.37396930095838,-6.424882506954656 l-4.686838661094976,-0.6219713452709111 0.13529379894666543,4.8013809122788516 l0.4903188017692457,9.891495927806709 5.0774829810930076,-5.135185796784862 l12.50497160989537,-2.150017913076705 10.192493690685968,-1.709397727444826 l-0.7113990492084493,1.0983600480171762 -11.508592422602417,-14.537429200962736 l-22.950315444706515,-12.894402643573608 -0.2406605882213911,-4.671892686236686 l-18.038003905203723,8.635487534964472 -5.576320055031508,5.712972272849172 " fill="none" stroke="black" stroke-width="1" /></svg>