<?xml version="1.0" encoding="utf-8" ?>
<svg baseProfile="full" height="174.16351808412998" version="1.1" width="121.2661862568994" xmlns="http://www.w3.org/2000/svg" xmlns:ev="http://www.w3.org/2001/xml-events" xmlns:xlink="http://www.w3.org/1999/xlink"><defs /><rect fill="white" height="174.16351808412998" width="121.2661862568994" x="0" y="0" /><path d="M63.64568673405762,148.68565129905718 m0.0,0.0 m-14.032097323086917,-24.55133780083721 l5.135978056417878,-2.1868910500026844 3.9443237350739144,5.9864717807909225 l-0.7272031685373398,8.095548022706083 -1.5158757024272402,5.922530703624449 l-8.994331301351503,7.211545128791241 -12.583736855646457,-16.65381029652348 l-3.853295935742259,-10.917443005968575 -1.0662288928670842,-9.50217414165761 l4.218373695378322,-9.917721723883437 -3.835466021013559,-9.591385916008784 l-5.3361270202553746,-6.011660555964686 8.921979944428125,-8.007277706963075 l9.287142823992328,3.768078902150812 7.525260811824756,7.075976733552836 l1.4163340263643582,1.072818940924486 3.2486711604516354,-2.732123992475622 l12.023278901977172,-3.7961617125910716 0.26742597641215127,-6.383938057210515 l-6.89211367367897,-4.67340691903223 -4.543914182430744,5.098609792693829 l-2.180823408613961,-8.965538560016514 1.419448621027482,-1.9572972854948367 l-1.8003287518658495,3.802972273298674 5.313972546580078,11.037599609273574 l1.7858880689945484,3.8293539320127357 -2.395772321781949,8.04915946406045 l-3.6108815141604738,-9.778547979077407 m1.1785782588743965,-28.200544872224857 l0.8450965624925956,-7.427819260150602 7.696228642125293,-4.447524825119593 l8.492664702275315,-4.271615608680004 3.5224859310137067,-1.024479692285386 l-7.431213408737356,5.753262077054298 5.778638920234718,-12.770889569433805 l7.208338041266613,7.679512505145671 4.666202551295121,-1.6713425770063273 l-1.6567645317754458,-12.628158056528976 4.7019937374654495,2.346419151946215 l5.369258443171341,2.308570123529475 1.109109377676962,8.898075765859875 l-3.1591852153049937,5.026979718551196 " fill="none" stroke="black" stroke-width="1" /></svg>