<?xml version="1.0" encoding="utf-8" ?>
<svg baseProfile="full" height="134.0709489101574" version="1.1" width="113.38931282326189" xmlns="http://www.w3.org/2000/svg" xmlns:ev="http://www.w3.org/2001/xml-events" xmlns:xlink="http://www.w3.org/1999/xlink"><defs /><rect fill="white" height="134.0709489101574" width="113.38931282326189" x="0" y="0" /><path d="M51.51148471084584,109.0709489101574 m0.0,0.0 m-26.511484710845842,-47.5114554589331 l5.7444412179734545,-3.0723770696683776 6.487134969718418,-3.4999830516526225 l8.576239756203247,-0.2989346176709638 2.7634406735385006,0.9318423464963874 l-1.3688899141596622,5.500631021450936 6.028767944195286,4.730691706660826 l-2.0802483496688393,1.0332622088886325 -5.652257987210503,7.834076885039478 l-0.4070496331084489,1.1004809000769367 -4.386893854354789,1.424009956771875 l-1.9896500572665254,-2.6797957605431892 3.794980977968168,-6.184513810227806 l-1.3901071012424981,-13.826030588549635 7.517797061146038,-18.35544591780446 l2.9426622556669444,-3.968899196509231 3.6588593631595576,-7.228508463983104 l6.189163116628296,4.617029668453239 -0.516016088329912,4.435064314624371 l-1.051336466413453,6.097179394178728 -6.140413955232231,6.872964321951042 l-10.832101429170386,-1.9977374677139854 -0.8223605025053982,-2.3935746179603377 l13.596336750731895,-2.4103013396502178 -2.086405771775781,-8.372797783815278 m-6.175123339810691,3.8579446222311176 l7.80628750077546,-3.453728636586831 9.534562060660715,-0.7847427207807663 l0.6478741361802183,2.5577650499867333 1.8195325284613721,3.848128146208077 l3.256741812790166,4.860497609453431 6.660908727254081,5.200017515553393 l11.26243642045918,-0.6137601943838426 -3.02484333385295,-4.809789569786944 m-22.30736271870385,2.1277134514898832 l-4.476682605328816,-3.4073436931260024 2.802402346426726,-0.9970184688633402 l3.179550013280823,-5.956437208464318 m-22.033632424415497,12.348755739232598 l-9.513699125918865,11.292832833202544 3.791239114085031,2.119525259026398 l4.075215677216181,-13.09616616859047 " fill="none" stroke="black" stroke-width="1" /></svg>