<?xml version="1.0" encoding="utf-8" ?>
<svg baseProfile="full" height="121.99271804106421" version="1.1" width="108.58071821619626" xmlns="http://www.w3.org/2000/svg" xmlns:ev="http://www.w3.org/2001/xml-events" xmlns:xlink="http://www.w3.org/1999/xlink"><defs /><rect fill="white" height="121.99271804106421" width="108.58071821619626" x="0" y="0" /><path d="M25,96.99271804106421 m0.0,0.0 m10.392841375027668,-61.81999577141982 l3.3364715464386387,3.8629401103019645 -0.08329332411033091,10.964814373663923 l6.297616462430168,4.29302653621938 11.117627030641053,-7.520926838230498 l4.286892740993445,18.80459766094996 5.179723595581473,7.7761950221117475 l10.37941366510408,5.0461035017953435 5.61395126388095,0.5824116168559853 l-0.640654685673814,-4.782660972228441 m-41.20464496590994,-12.734985852577552 l-1.9559847961532641,-4.921102194780293 9.704585930214234,-4.0703045470204975 l0.4900048227360303,1.5282887598927388 0.11762193408658739,5.450903675889861 l2.6704908265769323,8.363146412380887 13.054346479383364,2.573647075341151 l4.015845806881327,-5.23341935007299 -9.066135265496698,-3.9649583128140864 m-18.05642663726654,9.181265883456007 l2.646052803263539,8.39887491691185 5.2943185125782355,-4.867459650988005 l8.412491078014094,-3.074656174122286 3.6499708772625863,-4.995423064808446 l-3.7982871766489077,-5.667858072855956 m-4.989042545379935,-13.26920624867973 l5.176715968746908,-3.7501677227611117 7.913258382437496,-0.8791255904948349 l6.581722031375984,7.8943865523575 2.0106667740575634,5.275188042470242 l-1.2475082510364153,8.147999318270317 3.5226277453961163,0.6247285901540126 l7.682102687463606,0.592887092466745 0.07533552330003468,-5.65758472730765 l-11.043204156115104,-4.5252490543666495 m-13.742469674142082,-15.201039516580193 l3.6919576471703275,-4.760357882786491 -11.725495517899084,-9.65764163765829 l0.8228089322121214,7.479282627722623 -4.044762700670723,8.112937323829076 l-12.912316319059437,-6.388781569242033 7.223611117538813,3.45228759868635 " fill="none" stroke="black" stroke-width="1" /></svg>