<?xml version="1.0" encoding="utf-8" ?>
<svg baseProfile="full" height="707.4869970550175" version="1.1" width="315.28969009975697" xmlns="http://www.w3.org/2000/svg" xmlns:ev="http://www.w3.org/2001/xml-events" xmlns:xlink="http://www.w3.org/1999/xlink"><defs /><rect fill="white" height="707.4869970550175" width="315.28969009975697" x="0" y="0" /><path d="M25,682.4869970550175 m0.0,0.0 m13.698434834863114,-7.773125618199539 m11.308209133030141,-4.161088185880743 l9.706686624199149,-32.526308291224474 42.00570335766359,-37.87923039770027 l-9.737759780547623,-85.00590732497717 5.64619694454862,-39.68271720599163 l-0.8159329116642777,-15.896784205645426 23.070396764473777,-46.12326694251525 l33.596268162172564,-73.23708740722941 28.194001516200082,-67.15185427869163 l30.765843580538643,-73.96878641668177 8.301231586287962,-53.278205077038336 l24.80312234717614,-59.59564204234125 -9.471226379174649,-31.824720201205537 l13.495806073670257,0.3904305173176019 -0.5615972014331505,-8.85411412714643 l7.151432740279426,-1.0447026296458262 -0.46845385516182875,26.445678329097664 l10.75245387648493,-5.218005236962562 3.0260539635089305,-5.69364030960534 l-5.995702928482874,-5.531825236518887 -1.444349285907837,-5.686912743387947 l-9.352975410715203,-4.53107360728892 -5.761633108928999,-2.6660163072722187 l-5.397805787129815,1.2520876592777945 -0.8040459223470123,1.7020716642514577 l3.218817498616431,-2.5690216718905443 8.93450362342332,-1.627589934619497 m16.05054868649825,-15.524806786141651 l7.019047403253316,-0.22483303915937092 7.632681065047314,4.093879243286498 l4.250169752311026,6.5775464790564575 2.473563137003266,9.877926204906947 l-1.8949032855938737,8.9278250589221 -2.570862358590676,6.120838745106045 l-2.7283588537163728,5.842422555659632 -5.009736038426891,5.352358216879131 l-7.484082298502444,1.4804067163803292 " fill="none" stroke="black" stroke-width="1" /></svg>