<?xml version="1.0" encoding="utf-8" ?>
<svg baseProfile="full" height="284.89582740091714" version="1.1" width="201.76379255953066" xmlns="http://www.w3.org/2000/svg" xmlns:ev="http://www.w3.org/2001/xml-events" xmlns:xlink="http://www.w3.org/1999/xlink"><defs /><rect fill="white" height="284.89582740091714" width="201.76379255953066" x="0" y="0" /><path d="M154.34985345920302,259.89582740091714 m0.0,0.0 m-1.0093396106487567,-37.671719939934114 l-7.409041469000549,-40.670262954186285 26.370512177443395,-28.89538971954217 l-5.973800655870994,3.942141619298959 5.366081464677729,2.540789705986122 l5.0695271937268105,1.6418430680103617 m-33.60001693825328,-135.78322918055002 l-2.1225875684623476,11.401546084070446 7.521992707593019,7.059480092385934 l5.777018397160498,9.753866359123183 4.095688871601221,9.897869253937564 l-3.5955147985713576,16.48812152333474 -6.098206159548997,13.341611945593057 m-3.85439023339757,-7.468647985599752 l1.2647024788324228,-5.327289089950094 -5.81437353593561,-11.182597727425529 l0.23393629146383432,-4.210039981647717 9.296493932991465,-7.56297222251483 l5.070992225938913,-4.183909658911634 -3.0623729329767437,-7.205679053572423 l-5.25926713799727,0.6257391817050073 -2.367977834134616,8.155765158737779 l-4.207014898983757,11.950090535736175 -6.820620680966357,4.25721629952966 l-7.508817800919954,7.349264995620621 -3.1003959320912458,1.3339651505743804 l-13.985689425656313,-1.69026632662584 -4.964564679322598,5.789085626778543 l6.226332839516733,-2.1477304167195364 5.154743318964641,-6.032389638273548 l-10.584670189527937,-0.5814334292087442 -7.917225498923893,0.23861859246725542 l3.9844476802216033,-4.568134348541785 1.0749560233807516,-10.352735828657185 l-6.1536701689623525,-12.09622966519651 -31.90822693617814,33.39885032560698 l-23.69576568748122,12.752617804001481 -14.8437282889042,-27.519127148684845 " fill="none" stroke="black" stroke-width="1" /></svg>