<?xml version="1.0" encoding="utf-8" ?>
<svg baseProfile="full" height="223.4311628915223" version="1.1" width="135.52550345944064" xmlns="http://www.w3.org/2000/svg" xmlns:ev="http://www.w3.org/2001/xml-events" xmlns:xlink="http://www.w3.org/1999/xlink"><defs /><rect fill="white" height="223.4311628915223" width="135.52550345944064" x="0" y="0" /><path d="M91.09008042887268,198.4311628915223 m0.0,0.0 m-20.470964815731758,-21.410390527247838 m-6.228525451564369,-15.507452102103784 l7.477411732812152,-20.817310722976398 -0.09595315235046323,2.3856214158006206 l4.924856217591553,4.305693851067464 0.5491478352441487,5.391042755767459 l4.168032276630521,5.4300147312368034 -0.47210126051377005,7.8241230603102645 l-1.7477079653022427,-8.303306095580364 -1.5465815690836593,-19.20954062880434 l-4.431205441176542,-14.863869235648412 2.871497151653866,-3.4084717193046985 l2.1003739498849607,-1.6615854655109723 4.807010674422693,-3.8701679973413983 l8.881769128486516,4.669753814656643 -3.298301153794249,2.208525602054394 l7.676727283440332,11.101387601195626 8.134382951494148,4.805442245036742 l5.382442362142453,-1.5501027501051683 0.7531122762816657,-8.945710997829387 m-54.104605541723224,-20.908625900568467 l-2.4916042744145344,-5.830368614805935 -1.6691884915227828,-3.173756020203975 l7.406958060495309,-6.151149034925481 -10.928543557367245,-19.094216070138938 l-1.8655181926078934,-0.6738737597435637 -1.5632218259020232,-7.609286749742746 l-6.060370090733243,-5.9817146386161655 5.479704635974465,-0.8408563275973102 l-0.186467065165839,-0.7681585063750218 -2.707716152198044,7.203490850136003 l-14.283741288238842,14.389983922040441 1.5103488421280145,8.075679662064697 l10.087900362939381,6.362790211789222 2.122894685182054,4.637429003563456 l-10.208530814784176,-4.477987847618466 m-6.063802751502003,-21.78171376517061 l3.0228223727565404,-4.362814187765944 9.74528824182373,1.2708368621546888 l-9.575529193608958,-39.90365671562928 5.1675784923914625,-2.3868920990421763 l0.7530739131941875,1.9219976655606419 " fill="none" stroke="black" stroke-width="1" /></svg>