<?xml version="1.0" encoding="utf-8" ?>
<svg baseProfile="full" height="125.46842500207728" version="1.1" width="113.76520297794224" xmlns="http://www.w3.org/2000/svg" xmlns:ev="http://www.w3.org/2001/xml-events" xmlns:xlink="http://www.w3.org/1999/xlink"><defs /><rect fill="white" height="125.46842500207728" width="113.76520297794224" x="0" y="0" /><path d="M25,58.73328551932642 m0.0,0.0 m15.301908902562209,-11.999419913894942 l9.975748210929204,-2.8234702174631607 7.546499060595547,3.564320869196367 l3.932588302872189,3.574385374980944 2.482052148834384,1.8874469305993054 l1.1887726308216504,1.0475096044410523 -0.05931327779602098,2.6499592086025068 l-2.2659385618665304,4.148681648282784 2.7219668733992113,2.2074684089147287 l10.411807585435001,0.8224478910949542 -1.0154445004240387,-4.152587708053845 m-8.173268358980694,-2.603274763786685 l6.094575861530035,5.541814362501688 -4.078134124898104,9.464445061505117 l1.0610761172873935,0.5885927886153697 -4.70922972418604,-3.2634566526404085 l0.5894839980582997,-3.2244827179803583 -3.357485562682634,-6.323836836922237 l-4.0756399244291,-2.959109042884932 -5.227001716481353,13.76103545560186 l-1.1975614811828532,11.091134678261227 3.4646347020640587,14.664059708596186 l3.105107806535788,-1.5838599484493037 16.123586161966685,-3.627076630073719 l2.0549818863149727,-5.639188839343297 -8.150083347983136,-0.7870894576547545 l-5.967217708698096,0.057589310454701365 -13.670147550198628,15.651100910249705 l5.639598781560699,-7.816028675843271 -2.1094427633958257,-2.194733820871394 l-2.8527830337242537,-0.21893725049267676 -1.3872788248158303,1.0631694079752882 l1.5075957459113836,4.179397816048528 9.048645618254856,-25.173873840284568 l15.123122584076585,-0.9971973917503341 0.3151749256145431,6.814167975224487 l2.5287727974128806,-19.711185060635135 -0.12183093343074297,-6.650637886082712 l6.843524976127711,-12.362110476913596 3.6199862303262273,-6.2965708505571465 l-0.9240664595337152,-5.576741515805888 2.4258589241583057,-0.5271434320888725 " fill="none" stroke="black" stroke-width="1" /></svg>