<?xml version="1.0" encoding="utf-8" ?>
<svg baseProfile="full" height="172.30629658716933" version="1.1" width="118.67724818383553" xmlns="http://www.w3.org/2000/svg" xmlns:ev="http://www.w3.org/2001/xml-events" xmlns:xlink="http://www.w3.org/1999/xlink"><defs /><rect fill="white" height="172.30629658716933" width="118.67724818383553" x="0" y="0" /><path d="M25,147.30629658716933 m0.0,0.0 m26.349889338807206,-56.324290098413975 l-3.0008527834105005,-3.6397737897069415 6.668358694380376,-9.467699665412148 l9.340806227654305,6.333199041642512 3.2938840050071465,7.243206590095168 l0.5999537677712363,5.752422067775679 -2.770771417891825,6.112768038934071 l-8.538629072018487,1.8466825415992423 -7.725658892833633,-3.8836930997717714 l-5.54087257620823,-2.391158741322602 -1.8105574864678147,-0.5168124080641576 l2.732118461859137,-0.11574121304340479 12.347761261782255,-1.4892697965388169 l23.398062640523978,1.993446552017634 7.649176635810857,-2.0400619023399478 l5.684579379069515,-3.264776102605425 -0.8087753921089637,-6.853003982497341 l-8.109609079751054,-6.063365284771383 m-21.19620007102115,10.840140632425701 l-9.030317797421382,-10.959062325074441 -3.355155752598399,-5.240295052079962 l-1.7392118802234369,-3.769462028106341 2.2688130897608603,-3.3116317394234684 l5.5699072189546355,-3.9332030022401923 -2.371395699258556,-5.198777343107208 l-8.45737079471508,-6.4695585363531265 -0.4625582265830763,-7.898829359658341 l6.504273332006763,-7.786428595037323 11.731577103484067,-8.410571852657874 l8.402044365077536,-3.400696133433178 6.3404176087487905,1.259586763967039 l4.5246260421434386,4.000247930513159 -0.20796276073081973,9.889181538096947 l-1.1447492169219338,11.062443638872486 1.8346092347508305,8.647055303782913 l3.1184684386006287,6.3202392847530575 -4.233089580654034,7.839049241784442 l-4.1920489317432414,9.65257811901612 -1.4748360992693894,7.25241446974378 l0.7669028104064447,8.596449023032841 2.515836673373961,10.401345482242217 l5.989319160571017,4.727458786603472 " fill="none" stroke="black" stroke-width="1" /></svg>