<?xml version="1.0" encoding="utf-8" ?>
<svg baseProfile="full" height="219.8678957907843" version="1.1" width="132.94224075682942" xmlns="http://www.w3.org/2000/svg" xmlns:ev="http://www.w3.org/2001/xml-events" xmlns:xlink="http://www.w3.org/1999/xlink"><defs /><rect fill="white" height="219.8678957907843" width="132.94224075682942" x="0" y="0" /><path d="M27.582275709621996,150.32560702020817 m0.0,0.0 m16.25004817295592,-31.807099841681616 l-11.279305646980585,1.3153412438265526 -2.3329198494232637,13.04722918710295 l-5.220098386174068,14.57852401231571 0.8135295308837373,6.549136001933868 l-0.26251978139827187,7.28818431720836 2.0192236305549436,4.667461908134346 l8.816970675665425,1.7777652599504723 3.370079344348503,-1.615774558708238 l-3.261263709726172,4.812237433205209 3.792046177576565,7.935661690211442 l5.583441516673611,3.8700559473674767 -0.17735644153244695,4.027229068817865 l7.640270246434088,8.096337100891729 24.008892827191314,-4.8057693892558895 l4.957527752191318,-4.219105607327147 1.981466735311277,-7.812478717754288 l-1.6703515191586262,-2.1889282503516414 m-7.752910787401393,-53.74595404989357 l0.702248568349386,-0.06565341375257952 -15.12886555844586,-0.7381637716015121 l-12.691716368948512,-4.847293577191334 6.429274418561307,0.1735600428874573 l9.881110073986084,-6.4008685733321125 8.769742685521825,-6.732596578253892 l0.08551396456543128,-6.27886847022604 m-19.048768849646553,-50.076810395809204 l2.5135501821032324,-7.746533284421365 14.367443000713905,-2.590138214786085 l-4.045790079377551,-11.792293539715104 -3.631640506593481,8.224261627166527 l6.960014979807319,11.576038722287704 4.367070391823197,4.968822664530483 l8.280287960524149,3.6691273919866094 4.562345838130597,-4.410468068211448 l-0.8218227546216789,-1.0351269359276982 -0.2007598790020261,1.24449774726208 l16.2550629312346,-0.7559468363749473 5.478893560530181,0.3357116126754192 l-7.266233154846384,3.391263196674622 6.031033831065879,-14.467640019966863 l-5.871359487515806,-11.325319367539928 " fill="none" stroke="black" stroke-width="1" /></svg>