<?xml version="1.0" encoding="utf-8" ?>
<svg baseProfile="full" height="140.73861895598662" version="1.1" width="115.52855212543082" xmlns="http://www.w3.org/2000/svg" xmlns:ev="http://www.w3.org/2001/xml-events" xmlns:xlink="http://www.w3.org/1999/xlink"><defs /><rect fill="white" height="140.73861895598662" width="115.52855212543082" x="0" y="0" /><path d="M67.2391257766305,25 m0.0,0.0 m10.64889727135321,21.16472827584762 l-3.1033811052813185,14.0706155542757 12.732283811174305,32.95346465614748 l0.11142525284601357,6.406425542391325 2.900201118708108,3.9045204651076912 l-2.875774392013209,6.1687733900395 -10.506465025372673,2.3243239370982205 l5.303767392822941,3.745767135079058 6.534554854028,-7.3121186125190984 l-8.815006837636053,-8.313764862334635 m-50.91565030962355,-14.316005730127989 l-4.253977807636277,-2.67424312986848 4.7188800237874275,-5.136065010418702 l12.313844405939586,-5.185799468891797 4.350255206455025,2.950511948089064 l0.4934140190762863,6.769389773077071 2.8840539066959527,6.214840994811142 l-0.7138859227350997,5.286133830264982 7.131086555782989,3.662844451030214 l11.760696984256795,0.4783048800250224 6.00611993391677,-4.8785505880744795 l-9.300997213682225,-6.234875148771426 m-12.312303966280492,-7.502378652509205 l-6.013490979862808,-0.03686856338247363 0.2296362574137606,-2.416346984731815 l-2.414092751411548,-1.141153562252233 -9.778759283962444,1.249984925689443 l-1.1418037135716017,4.52391977106244 13.492414855922929,3.9399903136051533 l5.4920041320102575,-16.756128488433095 -10.865205294135265,-11.763946406169984 m6.188023593046275,-12.984235193563114 l6.068197738080273,1.3028158954027769 3.386725111175949,6.773379441832345 l3.720522307152163,1.6896231426493105 2.7982428118230387,2.325774056837917 l0.017774681042262448,2.8587132897391903 -7.614156043973988,3.2912151280411486 l6.916080347449017,5.563600229886194 11.956814789474924,1.4003613156905987 l1.1882103734594158,-4.166985565454602 m-7.700765688415873,1.092910132331899 " fill="none" stroke="black" stroke-width="1" /></svg>