<?xml version="1.0" encoding="utf-8" ?>
<svg baseProfile="full" height="243.72406914053593" version="1.1" width="128.59912240741266" xmlns="http://www.w3.org/2000/svg" xmlns:ev="http://www.w3.org/2001/xml-events" xmlns:xlink="http://www.w3.org/1999/xlink"><defs /><rect fill="white" height="243.72406914053593" width="128.59912240741266" x="0" y="0" /><path d="M68.80104778107676,218.72406914053593 m0.0,0.0 m-17.38528780969452,-19.144516130339575 m5.014643329419229,-47.07326614900909 l2.560929484552937,-9.033067154141285 7.677454892797025,-0.4776746858006292 l1.5523649513739546,5.314589997655747 6.652623724216668,8.189826860758686 l0.7319897441176373,5.428205076882702 -0.8500006928271505,7.2026953545715156 l-4.254447496588522,7.724659578309573 10.369856204562891,7.641693960034603 l0.008469846991331215,2.332133371020473 -5.516739756389766,-5.397226785237444 m-50.36290420360847,-45.23180391809442 l2.3990359443702447,-3.9652072960843614 7.558014953061268,-5.048831054342059 l11.72997143018636,3.964286085190554 4.791294736055809,1.92552207729544 l-9.426679873502422,2.4982612730226075 -2.4916780999525643,1.5225551797201236 l7.799682589965658,7.212992137647847 14.427691322296791,0.11220148576070482 l0.7683251171163255,-3.168778303716567 m-5.398658294099922,-59.035882582574466 l-0.03093366070858798,4.820866313505587 -8.18671381538253,1.1365479213541656 l-11.541864051670393,11.849062894976365 7.968599403887082,4.803736932805554 l6.074474848889477,5.522919726318915 14.89953575719688,1.236736054698814 l9.218817344385274,-5.613682428264046 -4.003341162020042,-15.133038426500844 m15.794876181943973,-65.84058650796112 l1.6148371004867434,9.165200953869205 1.0624347557039993,12.103931302642582 l4.3797427013683565,8.316394782335271 -4.454156838229737,4.523095927751248 l6.614812980957326,1.5878679115944372 6.635805177744992,-6.937872030470072 l-4.712707764695946,-5.150457068045691 -7.064776253031211,2.884176721239997 l-0.20372423420740166,4.489569001760359 12.376404109296853,10.210138890500124 " fill="none" stroke="black" stroke-width="1" /></svg>