<?xml version="1.0" encoding="utf-8" ?>
<svg baseProfile="full" height="160.2104630112182" version="1.1" width="102.53393292512158" xmlns="http://www.w3.org/2000/svg" xmlns:ev="http://www.w3.org/2001/xml-events" xmlns:xlink="http://www.w3.org/1999/xlink"><defs /><rect fill="white" height="160.2104630112182" width="102.53393292512158" x="0" y="0" /><path d="M31.654634603069347,25 m0.0,0.0 m-6.654634603069349,54.66293442452213 l12.546506189472483,4.948369073160832 8.594886655591866,2.8784826270693653 l0.8160926806119515,7.743014655300778 1.0698729250429475,4.1991744965183315 l-4.479000775652293,0.5177420325640786 -6.716284484776624,0.6100629205833132 l10.372973323522272,-2.5368521854841295 7.617233427544876,-4.633802814499104 l-6.827614403889253,-0.9635969916246678 m-19.524156978274547,13.882686181413687 l4.67418067813303,3.814183524112158 12.741549052690184,-6.791210706101974 l7.153198869569387,11.067964312179264 0.18581780967373696,7.708552046863526 l3.4759192437894098,6.806368203261962 -1.1008939577688204,5.259258075600908 l2.822957099708232,0.10034831992314544 8.632803615827518,0.9367848158545906 l1.0980649106594125,-4.842307416362954 -7.5272553835503135,-7.964617371778979 m4.866232052727981,-84.22004672851635 l-1.9553001030618233,2.103387803527533 -1.263382149881082,8.665711311142177 l-2.8355204926114035,10.018390786421094 0.7702820660842602,13.015140128296345 l6.24017717899288,6.828022355120132 11.084593874945305,5.632864209320337 l-2.713556506263978,-4.055143055359318 m-39.460297886805705,19.77396754644993 l-3.1854386620650996,-6.773298937360744 -0.6543851174818427,-4.792219240318594 l5.97370925518646,-7.3186054703064505 4.780885486326777,9.77179627352036 l-0.4806278640342192,6.7514215075759365 3.022826699004857,5.856353031830071 l-0.09053634015211047,4.808649818690305 4.235255024665288,3.536273430672266 l8.58530969180635,2.1636875898431973 1.5277506011652642,-6.115926279944461 l-10.510150298187924,-7.763615971054591 m-9.411569449742142,30.69367465180659 " fill="none" stroke="black" stroke-width="1" /></svg>