<?xml version="1.0" encoding="utf-8" ?>
<svg baseProfile="full" height="169.70573475055863" version="1.1" width="104.34467191073998" xmlns="http://www.w3.org/2000/svg" xmlns:ev="http://www.w3.org/2001/xml-events" xmlns:xlink="http://www.w3.org/1999/xlink"><defs /><rect fill="white" height="169.70573475055863" width="104.34467191073998" x="0" y="0" /><path d="M45.1090859775573,144.70573475055863 m0.0,0.0 m-17.61970074126604,-38.23417452008935 l5.6724871948022,-1.3183223550883938 2.7254772896753243,-18.24617086904847 l-7.227123878291269,-8.005056785917027 0.39990984969306614,-18.637967356104067 l-4.060135692170583,-11.171947089085895 21.55930678527402,21.385123397630394 l10.818473449659521,-6.5408489469438456 6.1167853195415685,-8.763721990328985 l0.8343256652057774,-3.7868797481759624 0.6741484891574554,-0.5535019902210822 l2.871692590699926,-1.690919771121956 -3.4445396322858324,-6.521631256212981 m-27.408797555197452,-5.232783347314485 l1.5414121733278845,-7.929968693829893 10.80576569648967,-4.456963428706674 l-3.5907991299524555,9.020154748078722 5.69938829202089,4.516121962444997 l0.5784258115469695,6.237270251376695 -0.2518450226993164,4.436326027662929 l16.88147191982894,-3.7746011919486766 3.8930861637741487,-2.617148426911014 l-5.167418789232704,1.2940564746392509 -4.609130332749342,8.53587474860031 l3.9377694872023574,3.6566311888879954 -0.2711817845127379,3.6256159769773815 l-2.585550403865209,10.75423105275614 0.2592452741555862,4.8615222081797995 l4.136851201890854,1.3520172832226673 4.452463287260573,-0.7012626878261414 l2.5742351869426736,-2.535121238405567 -13.927097808835697,-0.2523576920982734 l-2.9838936426426774,5.675361530048787 -0.33854386833781924,10.439654519496807 l16.51745270162922,6.8149492765655095 4.7711703854431775,-3.9989471201280113 l-5.884161779270234,-5.010660731155592 m-20.199159525397533,1.472710063415097 l-1.1147196244972113,7.691638309184719 3.919194646945657,1.8044119102249505 l3.2285588829549687,10.458545986975505 2.0244661425501462,2.0462878975233765 " fill="none" stroke="black" stroke-width="1" /></svg>