<?xml version="1.0" encoding="utf-8" ?>
<svg baseProfile="full" height="152.12134162905556" version="1.1" width="131.3038089677267" xmlns="http://www.w3.org/2000/svg" xmlns:ev="http://www.w3.org/2001/xml-events" xmlns:xlink="http://www.w3.org/1999/xlink"><defs /><rect fill="white" height="152.12134162905556" width="131.3038089677267" x="0" y="0" /><path d="M106.30380896772671,127.12134162905555 m0.0,0.0 m-22.83289831339247,-40.40376221952872 l12.401042807670892,-4.117591524985789 2.222517045339606,-5.98140291441642 l-10.69111231789105,-11.440117617304765 0.20637226884047344,-0.06426891114672317 l0.6063444690990774,-8.983353094947732 -4.145678319179595,-2.19369593771478 l-6.917150530150959,20.769191953483794 7.933049467641425,5.1661864644756745 l0.7658472765198632,-17.77829914465689 -5.634512526656517,-3.7579962685765587 l-18.426355897621196,-14.248101367472687 -2.561522163092785,-7.891663976739 l-0.5820829669631999,31.909868873921553 12.258896179674895,8.85739490786404 l9.987391796200196,2.500208592147029 4.82356273071435,-1.7823720602278748 l-1.309528272825724,-3.868103156325916 m2.460203810286774,-30.895653227770968 l-0.40689481420611995,-1.485373849270706 4.031299007844076,-2.494947249218819 l3.5746766658222895,10.308664799711517 1.8466342960172635,5.258428336274264 l7.192311872493661,4.988164564670086 -0.9415495984532888,2.717134379205024 l-4.853928441475215,6.493031482804324 -0.12376629585242878,8.841955764896788 l6.2927607612075205,3.2044250241697907 -4.037136456956539,-5.277064044885571 m-36.57022316120583,9.612635899378894 l-7.8953822143799,-0.10661984350002818 0.8225374482922057,1.226611151137096 l-10.683079521113296,-9.635365399509123 2.47903378180416,-6.964740218513913 l-3.29791352644634,-1.7465554883441303 1.5580831515037186,-0.8500411775255453 l-8.698203071437328,-2.5217313439860156 -9.223452457479503,-12.516501761761475 l-2.9340029379198818,-21.764684626302355 3.9812534614610606,-5.205237398562923 l2.5843556263373277,0.010700317998123612 -6.471133690942051,2.6329613409563555 " fill="none" stroke="black" stroke-width="1" /></svg>