<?xml version="1.0" encoding="utf-8" ?>
<svg baseProfile="full" height="150.17739242448354" version="1.1" width="111.96743777422293" xmlns="http://www.w3.org/2000/svg" xmlns:ev="http://www.w3.org/2001/xml-events" xmlns:xlink="http://www.w3.org/1999/xlink"><defs /><rect fill="white" height="150.17739242448354" width="111.96743777422293" x="0" y="0" /><path d="M76.2342119705266,125.17739242448354 m0.0,0.0 m2.356094025237537,-37.978204126134656 l0.8303125881805437,-1.0763417524561272 -11.729373199997175,-35.095781014176275 l4.729175890785798,-9.059927933239816 11.212905063026385,-0.95517458690632 l-1.5144213796255512,-8.076707470406038 2.0306843875730363,-7.935255541164312 l-9.238536914462083,9.081941856781903 7.94079801642755,11.711677161058226 l1.4423938447083806,4.855494368985563 0.13534837482648865,5.448306120903338 l-4.770065861131206,10.074483572714025 6.085096395052623,-0.5069138940764667 l1.2228145730940074,1.7892831992510918 -2.577768976352067,4.419624780471107 l-3.4741909898378025,2.843728481584126 4.09616060467808,-4.017793779511482 l-1.9114871033444425,-1.1537821042611567 2.5687957864468114,-13.102140012885197 l-8.344285935726768,-1.975722789222143 0.6570725143072131,-0.6208885356063983 l-5.200684968753163,-0.6366720026679268 -4.18159708285653,-3.207526945294421 l-6.502583981745231,0.38156139656634935 -2.105468692095095,6.977315084914633 l7.0042234598830015,1.4273245125088212 -1.9435904423743655,3.930591225301392 l-3.5471347670090903,-0.0734480590507166 -8.415516360532193,3.3111662346966284 l6.103347012898024,7.145168783638899 1.286442328624684,11.619812928951037 l-2.1540360711357622,3.532094022933967 6.540705944036714,7.8098547597191885 l12.235615523295976,2.8892673945754574 -1.5365558704136488,0.3373646463476965 l-7.928097046357118,-8.913919403453203 m-30.603915991590778,1.0989309434530004 m-12.032886668269382,-18.792322571044718 l2.4740325648809067,-9.7063033612558 -1.3821924550159752,-8.696012740165708 l1.1093753283707986,-4.593459589555636 6.7596039513473904,-0.8021757501371787 " fill="none" stroke="black" stroke-width="1" /></svg>