<?xml version="1.0" encoding="utf-8" ?>
<svg baseProfile="full" height="129.1715557535034" version="1.1" width="114.99792046777986" xmlns="http://www.w3.org/2000/svg" xmlns:ev="http://www.w3.org/2001/xml-events" xmlns:xlink="http://www.w3.org/1999/xlink"><defs /><rect fill="white" height="129.1715557535034" width="114.99792046777986" x="0" y="0" /><path d="M71.9374160228111,100.2909359560763 m0.0,0.0 m-46.9374160228111,-11.124712505110622 l7.349639491451303,-8.755084887049737 7.667853590519498,-3.4517039513442414 l9.669437207549208,-0.1639737307696515 7.886755724642411,9.814425149220659 l0.7704576990532352,6.082042213559551 0.2904155948911206,6.459713849044551 l2.1770312193855994,5.019913659876616 -0.45335435257972373,-1.910008360175971 l-2.7987448382275715,-1.8838798457265087 -1.722420739811902,-12.615173350087105 l-1.731961394455516,-11.864665564369318 -3.0160281665876973,-14.670314335744159 l8.608976706248557,-12.120612185586241 13.115890550234743,-1.4716706031783813 l-0.3658453969243447,3.608952417135175 0.9161803166733673,7.412253349953318 l-3.567664486994643,4.5294221164895765 10.978742343887058,4.225818444556467 l9.222559398825142,-1.1074422936063189 -4.630422060154967,-4.030858905223239 m-42.29340158650469,-30.959937814716607 l4.629310730466174,-6.116286507445521 9.690227725183291,-0.19715231577858636 l0.14729861614376302,6.899799098576682 10.427439739382457,8.526019874259108 l0.034725801105103815,2.333768412226746 -5.819004622962989,11.906791614336406 l3.1362695266722533,3.1544897234067384 11.455972470653482,14.838598701349168 l-6.46702105471427,4.680877811439236 -15.559850902645262,-8.994307549397403 l-12.88090724125695,-5.84882435026924 -4.062335806815551,-10.293143282478171 l2.2322497904911023,-2.5790597097043757 0.9700973631516326,-2.0524637874741347 l1.8935170023878727,-4.3162423889148815 -2.4608904254803368,2.1330220607766113 l2.2893079910223326,0.4609299716359197 25.024499998503558,-1.951307851372 l1.9979742010404034,0.8976311979264967 1.6077422234048424,2.0976300921573867 " fill="none" stroke="black" stroke-width="1" /></svg>