<?xml version="1.0" encoding="utf-8" ?>
<svg baseProfile="full" height="159.93436509699086" version="1.1" width="103.9288786087852" xmlns="http://www.w3.org/2000/svg" xmlns:ev="http://www.w3.org/2001/xml-events" xmlns:xlink="http://www.w3.org/1999/xlink"><defs /><rect fill="white" height="159.93436509699086" width="103.9288786087852" x="0" y="0" /><path d="M25,25 m0.0,0.0 m6.329334820601047,58.60894419221971 l-2.6623512963785676,-8.67559543326688 4.056655836228876,-8.639040972720055 l1.0591691459784036,9.395536089755328 17.17580494227447,4.938723499772926 l6.4665800027811216,7.127274597907529 -2.62984783230742,0.5979532291073741 m-6.839938450247889,23.000032594038753 l3.4214213891633127,6.791434485874751 0.5777762897148205,6.059845860293526 l-8.451443329642588,2.549487419750497 3.2657802739039967,4.661930392863125 l17.86771338610614,3.5178391413942824 -0.9263637165697576,-4.64249168586551 m-12.668951419407689,-73.61867309285309 l-2.9792747136830546,1.0846925849636253 8.527943834221622,-6.6029706769945635 l9.280583227434484,9.590385386382467 1.2222981990074184,6.032499288171175 l2.8050589814966287,4.646490248624778 -0.7691373827051731,5.940548739927511 l-4.134669818319382,3.3094560675447107 2.742514607496958,1.7029147319220446 l11.034267425614958,-1.727514169720706 0.15795420602247312,-4.798327241193287 m-33.483236961885545,-30.332075585419325 m-3.1602279892560503,-5.283217953682575 l5.968816786965385,-3.7123483620672357 -0.25066897303147134,3.0988774105701045 l1.5500053641472291,2.397242095376979 -2.2349931708389095,5.387943979260994 l3.104087780514196,6.527822209255383 16.413219705148,1.6133658117876564 l0.6970473598079933,-4.707639359313962 m-28.229571077924042,39.749276416840516 l-0.1661621404879842,5.269275946205287 4.03577727383257,-6.304017787157426 l6.703182743380404,-5.674962690868542 -2.4468818880613377,1.7800616066712927 l-0.7084079102434239,5.806465262105694 8.989401803248628,6.276377640149941 l3.750838914884574,-3.1989088986851564 " fill="none" stroke="black" stroke-width="1" /></svg>