<?xml version="1.0" encoding="utf-8" ?>
<svg baseProfile="full" height="226.48424102519982" version="1.1" width="135.78690643049651" xmlns="http://www.w3.org/2000/svg" xmlns:ev="http://www.w3.org/2001/xml-events" xmlns:xlink="http://www.w3.org/1999/xlink"><defs /><rect fill="white" height="226.48424102519982" width="135.78690643049651" x="0" y="0" /><path d="M54.64468342721845,201.48424102519982 m0.0,0.0 m-29.64468342721845,-91.23350103170623 l10.076373876084977,0.9761610073711763 1.1395874752112534,1.4995371320352957 l9.596520406804306,-0.6438801809623574 0.5824992804918496,0.4079103562042431 l16.339377048118713,14.06888398869887 -2.9033893770171697,0.06089678169304946 l-7.706023188060327,3.7628741531982577 0.8587450365855559,18.818709366507683 l8.436719964767963,3.82110507683306 7.418017863595543,-4.098623849825776 l3.0493068370132903,-6.1215154828460205 m1.527445198785734,-67.42813643437685 l0.37002315328567736,-4.459746185581903 9.213337604552164,8.050201107500508 l12.505922777659165,2.1297187902974715 5.082706744575085,-14.34021166757343 l1.6937854460005621,1.9611429803246323 5.187934062679479,20.82264215519246 l-7.73099920692752,3.9346816751470692 11.049015426290222,-7.166756217346771 l-1.8282278181628404,0.5897943620791697 -0.6290219303806862,-0.05746069243262743 l-0.5908106974684155,-0.4543730694435874 -5.122778305938283,-3.360207610399615 m-8.335930164025042,-15.196717241639943 l-0.9363179066232665,-3.966019445836609 4.635429492624491,-3.529625746320467 l-0.9738221379099693,0.2864112199614026 -9.334003552476537,2.418775215377043 l1.2077208602773328,4.819549843041046 13.69725150613512,-0.08365832049136518 l-0.16974072001274632,-5.8559596971918575 m-13.453357368628884,-36.91684336268684 l-1.113037921859306,0.9714556251676306 4.458114248255291,1.8529825627068315 l1.3454271566774456,0.9814053135790091 2.1570226668996795,-0.8835697256713004 l-5.197280248610343,3.24168161382003 -19.72299436232877,20.129006956605217 l-6.169574777822326,3.049544972904782 3.497968826020006,-2.557306806988318 " fill="none" stroke="black" stroke-width="1" /></svg>