<?xml version="1.0" encoding="utf-8" ?>
<svg baseProfile="full" height="129.08204937582948" version="1.1" width="127.5094124589914" xmlns="http://www.w3.org/2000/svg" xmlns:ev="http://www.w3.org/2001/xml-events" xmlns:xlink="http://www.w3.org/1999/xlink"><defs /><rect fill="white" height="129.08204937582948" width="127.5094124589914" x="0" y="0" /><path d="M75.73231635134586,98.34064989071679 m0.0,0.0 m0.8002142242029198,5.741399485112694 l4.231342544702838,-14.670743686661408 8.689147354573052,0.20454856503256957 l10.553768930719356,-5.017444437102685 0.28422699054664213,-12.916388804192609 l-11.223299821425067,2.115898138863481 1.2899673855852658,13.55013459369579 l-7.638350763961263,7.853830917549912 -1.4768627801616712,-4.185865481509679 l-11.608874566653723,-3.241954233187101 -10.005428155503266,-0.30660462477524186 l-5.9919658356919925,4.283033922285857 4.2888601301967,0.22700119203961616 l2.478425168586947,1.3982453684123357 -12.50310588899491,-0.3413213604479582 l-9.909078164290298,0.15005667444754922 -0.14519388041697986,2.9412375933755364 m-12.846109223360404,-23.531106660654352 l6.0569300644917785,-6.810217317114848 33.50078354231126,6.4040789174722486 l2.7724308865884932,3.7421585399723303 -0.03812513928545905,4.425463284508344 l-1.2344532893854332,8.804909983392427 3.8484498563935623,4.106676999957517 l10.070555146321789,-0.03382047222746605 -1.0896942214726986,-5.989577892981586 m5.593095718982273,-52.65259348867868 l-5.320955494406243,-3.5400665815112355 9.994323040502126,-0.9290685588219622 l2.6628289068911797,0.6751789649443625 -6.9401738947978675,10.224269824527482 l1.5042294477797604,4.929739125088664 10.625863235442306,5.831435068120136 l5.503324652634583,-24.095155834280064 -7.372731112522537,-2.688017615368764 m-27.549161816284474,15.042504355544718 l-5.206158679573416,-0.910476754243173 -0.4768893429620467,-6.509739691342777 l1.423519888885162,-0.6618819002350104 -0.6919267721987291,1.665075886037884 l-0.7530377419368154,2.3748265283579717 m32.4012020017424,11.164890237269773 " fill="none" stroke="black" stroke-width="1" /></svg>