<?xml version="1.0" encoding="utf-8" ?>
<svg baseProfile="full" height="209.96336889454932" version="1.1" width="127.52967104174371" xmlns="http://www.w3.org/2000/svg" xmlns:ev="http://www.w3.org/2001/xml-events" xmlns:xlink="http://www.w3.org/1999/xlink"><defs /><rect fill="white" height="209.96336889454932" width="127.52967104174371" x="0" y="0" /><path d="M33.28935124596681,157.84134187679717 m0.0,0.0 m18.9344470384229,20.228834556776835 l-21.259995808407915,6.89319246097532 -5.963802475981799,-6.615231364850334 l4.904855967942536,-4.124416962032633 5.454077681406699,-31.84648835716918 m3.5345006992424244,-17.18324686216401 m21.680335514917875,-19.024181202418934 l-13.74798020654555,-26.520557960161437 m-4.405039950993287,-10.48353023417649 l8.723106291411066,-4.553985359941209 6.69195592696421,22.846079644652928 l5.59072377392445,10.146418947571295 11.573967548850243,-2.4026299951882235 l-2.927562050504786,3.8206964908979977 -5.348874511089658,-0.9657603319897734 l-5.447150331063077,-0.30742524362526785 5.4348152370027565,-1.9961986917812138 l4.189262843463418,-0.2802736512642102 22.339373899955664,-7.738206009396209 l9.07842350359332,1.4252239538543776 -2.3175900926321846,8.170184252331287 l-0.6371774032823502,9.71259696256067 3.165646699179938,8.986671523163617 l-1.467688951117334,-3.7933887858648863 -16.751859133478447,-13.55908728613381 l-5.287876641813614,-5.187729065575231 -7.2728545469012085,-12.984560784855068 l1.6004038154257132,-16.148785196740647 3.1485701942980358,-10.970162860346289 l-3.0645211865216293,2.477277402093779 4.004588866865332,5.193460601447218 l-4.238853023890523,7.21588863558096 -6.430020701837136,5.879709333805758 l0.24910543487821235,-2.478441272649149 -0.8647939516450059,-9.261038550417057 l-3.2849868636740047,-7.010489739503442 1.5698266822289837,-0.7391385802440572 l7.261298958936455,-3.496338054891007 6.675923747243033,-26.166284239129464 l-5.689798718880486,1.9448913460236785 -2.2566645516122956,12.604269286775565 l2.247277228406269,5.29691787698353 " fill="none" stroke="black" stroke-width="1" /></svg>