<?xml version="1.0" encoding="utf-8" ?>
<svg baseProfile="full" height="335.09058594470184" version="1.1" width="164.0379777624526" xmlns="http://www.w3.org/2000/svg" xmlns:ev="http://www.w3.org/2001/xml-events" xmlns:xlink="http://www.w3.org/1999/xlink"><defs /><rect fill="white" height="335.09058594470184" width="164.0379777624526" x="0" y="0" /><path d="M25,231.8319637395727 m0.0,0.0 m9.69937458687335,-36.82087169548814 l16.403464610705196,-13.440521195412133 7.676107746654866,-1.6195221928510333 l4.876438807246394,-1.7135048344939554 9.234699670796749,0.25116159658289006 l7.823677537748825,2.7156593270135834 2.5198834714449734,0.586679500546396 l6.4179164734099325,5.196998888847922 11.988787022933543,7.168739422157187 l11.540187483120828,11.959684065947048 -0.323482180513322,-0.6952088876379092 l10.718066869005813,-3.9426620319975014 m-3.196100262899373,14.14428454240942 l-5.923515007402727,8.989576237920216 -1.3011206123518582,10.108313807176659 l-3.080903997488602,1.1436699050099575 1.307608695909388,-4.026306791732479 l5.531353742213391,0.33477890209089867 4.713640389615719,1.8263832379526295 l5.0537874345686244,10.832051946156271 12.358105280860903,-3.2517310350906525 l-0.9429725756599677,-9.74394736082225 -6.715230864896773,-5.707142403874895 l-20.688018327740227,-5.325136337973961 -7.384597883784642,13.08939297110065 l-9.55402175831671,13.326389248696184 6.281267919339673,11.146577140965992 l2.298141970156235,12.247833877867134 -9.433544404099287,11.849757877229552 l-5.019976589939172,20.502364597816904 -17.733477688478875,7.1248798790165875 l-5.918941073031316,-5.490834367823894 8.377398191969103,-39.46846290711851 l18.76454669756028,-57.367980030853936 14.11581024894628,-25.949386422077566 l10.188040236955635,-10.346689035826534 14.485635572479627,-80.67612754282742 l-3.1372734915140734,-65.79110563817403 " fill="none" stroke="black" stroke-width="1" /></svg>