<?xml version="1.0" encoding="utf-8" ?>
<svg baseProfile="full" height="220.59160922273193" version="1.1" width="127.46062057497511" xmlns="http://www.w3.org/2000/svg" xmlns:ev="http://www.w3.org/2001/xml-events" xmlns:xlink="http://www.w3.org/1999/xlink"><defs /><rect fill="white" height="220.59160922273193" width="127.46062057497511" x="0" y="0" /><path d="M84.48094935893693,193.97046096100064 m0.0,0.0 m-5.947799924771957,1.6211482617312858 l9.919564937428188,-57.634134721526046 14.007906203381962,-54.93256389092129 l-14.403829186106313,-14.826835752589828 2.6833858863625215,-5.510293619748346 l0.45571940686255596,-3.00621783585185 -6.492856640365267,2.533061587352725 l1.6879547279656693,7.453460270880514 2.6379354736723304,4.711093403097296 l-8.094184940605592,-7.887954082601849 -2.6755023693084143,1.0242045593373073 l-4.441285455595633,3.921286072411042 5.446115270654057,9.725098471525856 l5.5998670174602365,8.867156019350233 5.579206650722983,23.131118205149832 l-2.030139892508008,6.583284717326429 9.813565586853557,2.4776128196844196 l3.907679684564187,-2.723149777163294 -2.0060538791753473,2.809750154943381 l-8.691066716445025,3.06587968612252 1.4339137912621458,-1.9964072287316172 l0.1279713593140075,-5.107897737510727 -8.245463065973585,0.08974524522116001 l-14.646486133361739,-4.338744957035237 -5.8038948223511255,2.960955785673869 l-8.5674445301511,3.4238267719811186 -2.495127678775315,-3.1578782680410367 l-7.1459151435505595,-1.390131023066378 -18.683382696378718,-8.729654562941063 l-2.4113022800176243,-2.530175618788497 0.4672378393780574,-4.799026410826183 l1.1216879588290534,-7.1545324006832915 -1.0785688173096768,-9.172141911507182 l9.227839513931967,-13.151094387544102 8.641449978959251,-0.3195121201301354 l3.3109852677823994,-3.800323087178962 10.688649273643176,-0.4704265755945247 l3.9758130920018235,-40.73004702280817 " fill="none" stroke="black" stroke-width="1" /></svg>