<?xml version="1.0" encoding="utf-8" ?>
<svg baseProfile="full" height="209.15280634353513" version="1.1" width="205.8523130482157" xmlns="http://www.w3.org/2000/svg" xmlns:ev="http://www.w3.org/2001/xml-events" xmlns:xlink="http://www.w3.org/1999/xlink"><defs /><rect fill="white" height="209.15280634353513" width="205.8523130482157" x="0" y="0" /><path d="M25,182.0036084687389 m0.0,0.0 m14.7496826838914,2.1491978747962492 m20.468868909502334,-55.22025485768141 l4.375473291715787,-8.341997910440785 -3.319494631299874,-2.6167469665574705 l-5.61384725942412,-2.254477690193771 -7.0712161112600125,0.6959568341137423 l2.6232701562697835,-1.3369020008289294 4.439420825517842,0.6014174346718985 l3.9669621257021785,-4.687181326030541 5.6944567649278115,-7.678955654491674 l3.6986218179534904,-3.070560136896821 8.857373183717714,2.838474018826903 l-4.770354619467485,4.875885758079866 -3.5751051365772146,1.5660888025081576 l5.16948925488646,-0.39828180261134744 -7.708751411009693,0.5231171688504954 l-8.631636882983424,-2.8957903086966597 -4.991303396270468,-0.2579042915858154 l12.597571326085745,-1.700751414547397 5.989280187882446,1.1418490783874606 l3.4169884272071003,0.5272798601758666 7.771969709790176,4.834526446471778 l4.757645145524065,3.5059054553112783 -6.588243187503251,-1.2134660321723134 l-15.264352489639068,0.6142249730157917 6.113749347703356,-5.589887300725101 l4.225228880295551,-3.625963616415769 4.256387972705998,-7.998010158250923 l3.86910863524544,-7.498021622870935 3.6870250943017866,-10.485079900735785 l7.039333369625178,-6.314984575292281 12.700180587998767,-2.7940552122095017 l2.755356628604945,-10.193442892291348 7.5490556682808005,-11.345517025523135 l5.476386835276581,-10.14758465123514 14.733657120360277,-13.211714825663549 l36.890938827439506,21.904711343076997 5.513135395237786,49.92274072116885 " fill="none" stroke="black" stroke-width="1" /></svg>