<?xml version="1.0" encoding="utf-8" ?>
<svg baseProfile="full" height="153.43863418150363" version="1.1" width="132.53301020575424" xmlns="http://www.w3.org/2000/svg" xmlns:ev="http://www.w3.org/2001/xml-events" xmlns:xlink="http://www.w3.org/1999/xlink"><defs /><rect fill="white" height="153.43863418150363" width="132.53301020575424" x="0" y="0" /><path d="M100.19349402326559,128.43863418150363 m0.0,0.0 m-19.26500239691631,-17.7868547382678 m9.268830328186844,-16.46340612294022 l1.4696194968450875,3.2152481105730844 6.092760360190903,4.157717896220792 l7.759413819807537,10.910021196443592 -1.4962062066202697,6.305069366248082 l3.5101007809948728,1.0312505476864946 -1.3059470079387703,-8.344454268815289 l-5.7686298157490565,-5.06500667713108 m-20.58830607156914,-6.700073559063145 l0.5161474254101783,-8.885586753821938 -15.634861688586392,-0.13629676177667638 l-7.112358403412893,-1.547279359910067 1.260416064999622,9.104351522807587 l10.821883976316968,3.911286961867669 16.083419346711747,-3.3460157815620586 l-0.6363284347482157,0.9831199785890354 m-27.436569258495496,23.463262077658865 l-6.910531733074466,3.4028935406769776 11.948907290795251,-4.566693531371444 l9.592035334416675,-2.0687635111187443 -1.5015885918836709,-3.9880001442489332 l-4.829439911876863,-2.7077323065195027 m-16.368554779759997,-2.3670466003944632 l4.891496250225914,-6.364315536569922 3.5277494210245974,-2.6647022106100304 l10.85815381089533,5.214589607391985 0.12378763265140358,4.028227789582159 l1.3404162826101236,5.602249055689985 3.491863872638593,5.229796666184959 l10.226577240260859,1.9427330292891067 -2.0100541654876927,-4.814871831972931 m-57.11269429212887,-74.5039406567138 l4.771384399218595,-5.188920652742641 6.442514972019342,-4.129257687239279 l1.1304868772002574,-5.8751368945611375 -0.2015211967091863,-4.4260959410628935 l1.4450853317109948,8.56466632936101 2.778620277045874,8.651433840720985 l-2.0874519541305108,7.810666755108031 2.974103822489776,6.976122854451368 l-4.29948329966866,-1.5025234821021975 " fill="none" stroke="black" stroke-width="1" /></svg>