<?xml version="1.0" encoding="utf-8" ?>
<svg baseProfile="full" height="305.2136972087591" version="1.1" width="152.60863141821096" xmlns="http://www.w3.org/2000/svg" xmlns:ev="http://www.w3.org/2001/xml-events" xmlns:xlink="http://www.w3.org/1999/xlink"><defs /><rect fill="white" height="305.2136972087591" width="152.60863141821096" x="0" y="0" /><path d="M25,280.2136972087591 m0.0,0.0 m8.025391400868584,-46.320764870301815 l3.1989635796755325,-2.349665304354394 7.669011613123768,-20.891856494897784 l21.914702762201035,-43.004700296097646 15.501940101257876,-20.389419919662608 l9.890955047783793,-17.194411980313742 3.750142079431185,-20.213015618154888 l1.455147979760987,-7.623351222123086 3.3283803326598047,-4.183136429868745 m9.628580583122194,-2.4557544732245296 l4.606540424508694,-6.697474532164707 4.794705989610681,-0.2634518400118424 m-22.904321957735966,-52.0043374073056 l-7.5888644497198765,-5.7963602276405854 0.17545019479002472,-5.825996592637132 l3.5037587910326806,3.4694680213177764 -2.4093854322393407,10.259057332797413 l-0.8467520455820587,5.307585400540213 -7.4543257076333065,4.936305809172748 l-6.1060705226195395,5.527168817610815 -6.314279272064815,3.006117492058591 l-2.741210897498819,-1.6262946913778575 0.33730047480162617,7.17849160698878 l16.72473400743223,22.969786848145446 16.00333781892211,-5.919357699848957 l14.574612832841797,-4.256471305063679 4.079419939040028,-7.608444225040827 l2.1345369617453573,-10.640950630556926 7.6762287886947185,1.9315169091408235 l-2.587521322848141,16.034925691684393 -20.267868273631535,12.782852228550079 l-0.9565251305077516,5.767504108105427 0.9968868727078489,8.043280429490226 l-9.203674426170247,5.52964935913472 -4.510056888187382,1.2489341368768052 l-6.654046628030878,2.468966907189373 -0.7215994326363306,9.799100971356536 l-14.457226326016173,13.207282228978524 " fill="none" stroke="black" stroke-width="1" /></svg>