<?xml version="1.0" encoding="utf-8" ?>
<svg baseProfile="full" height="171.62855982832554" version="1.1" width="112.74569097948671" xmlns="http://www.w3.org/2000/svg" xmlns:ev="http://www.w3.org/2001/xml-events" xmlns:xlink="http://www.w3.org/1999/xlink"><defs /><rect fill="white" height="171.62855982832554" width="112.74569097948671" x="0" y="0" /><path d="M54.328214240760495,101.92181952234175 m0.0,0.0 m2.842651193317527,-39.42473598220916 l-1.5053642929315096,16.47816690334963 -1.9943363236291034,2.8130594027198863 l-13.3386291120731,1.5386613807111875 -6.87987132165667,-4.751133581090314 l-6.895285211493596,-6.501248348668006 9.185689845057414,-5.143021085348649 l17.066946256655406,2.3046947893715486 9.495573876475337,-14.51431651625682 l-0.517191056067865,-29.72194648492105 1.484106621688949,8.909315909707548 l-0.8398075416505235,1.04249369705958 -6.48453381812286,30.59629208957402 l3.7761401841922373,12.558678549525869 0.20528301019273276,16.620580007340216 l16.36177521355471,13.533202222545082 4.017873954494718,8.078107404956231 l7.436455260722403,23.633684333895147 -3.3919681762262766,6.656205613721851 l0.02270946271108909,-13.727919186556475 -22.366001880328923,-14.22710719163432 l-6.197699979739886,1.7122303999768662 -13.063923377452618,16.80307153646993 l-15.384430691395634,-37.23186319232838 -2.364376337054443,-4.525012941228786 l2.8747948168774164,-2.319810047788482 7.01522054484479,-14.36922720891697 l0.8649969032800573,-13.4232544189861 -1.014970463298102,-6.031894523137537 l-1.6819971731475296,0.7897373375199496 -0.9227673105269836,6.5353254547504775 l1.048409176885912,7.2250893106966645 2.739432575263454,0.9640750880102467 l-6.152524804935628,6.60074709438401 m7.326805706791006,-7.645974528171451 l12.099091863729848,2.490422000108498 2.7892932380388524,10.641071916390363 l-1.7003758150204136,7.800648809343265 -6.003207613771169,7.855609788418905 l-6.748173223450786,2.9274908594195135 -1.7287669982586529,3.1857219824524843 l-2.0622432243012194,1.4419519183259222 " fill="none" stroke="black" stroke-width="1" /></svg>