<?xml version="1.0" encoding="utf-8" ?>
<svg baseProfile="full" height="145.36747616590714" version="1.1" width="116.25062661611513" xmlns="http://www.w3.org/2000/svg" xmlns:ev="http://www.w3.org/2001/xml-events" xmlns:xlink="http://www.w3.org/1999/xlink"><defs /><rect fill="white" height="145.36747616590714" width="116.25062661611513" x="0" y="0" /><path d="M25,106.94947432281624 m0.0,0.0 m7.441158582245637,-2.559602468727743 l12.330991194957415,-23.4625597966522 8.221839024476289,-6.795373105886708 l7.1654550912298065,6.007149349507246 1.0796902412862646,9.81557701858155 l-7.6134757699899,13.200120286295055 2.071164796067979,6.310907380832802 l5.399231880291914,6.769023705418708 9.188344160073289,4.132759473722199 l6.308251153283979,-0.08851172861172568 6.403898790935099,-6.279481151310074 l3.0045903754168366,-3.7929889239309316 5.249487095840518,-1.486269902354505 l-5.768256201616276,1.8574396076693234 -11.131059795667273,0.4789196043066196 l-11.216822946416027,-6.172598880227402 -5.4033848515298475,-6.723873997523995 l-6.900801389240086,-5.162939740326043 -0.38618609202354937,-2.5980411358921596 l2.5718186070479914,-10.19329244711714 5.359098778323355,7.20866193002786 l-1.5248928358412643,0.9861875073298062 -1.9603406349372055,-0.6474904804841236 l3.58673906878193,-4.871408560442371 7.7269841871109195,-1.8781658397462302 l1.6083855085356602,-3.470475391668344 -2.2134509915370892,-4.024705343910211 l3.833364995045837,-0.9257249747812085 -0.6747227392234451,2.8335678584815414 l-9.225954045520014,-6.611523007814293 1.0703751033663456,-7.0526578725465034 l0.0857177444745999,-13.1091375922081 -3.913705336263247,-12.092755260052227 l2.4246986005458537,-5.634519677688276 12.186011902522557,-2.9181626851657287 l0.9773371235143452,-2.9975280799207047 -12.43285283131316,1.2028905649978505 l-19.608254600263464,16.688596023467284 " fill="none" stroke="black" stroke-width="1" /></svg>