<?xml version="1.0" encoding="utf-8" ?>
<svg baseProfile="full" height="280.2396567808188" version="1.1" width="113.03919929017361" xmlns="http://www.w3.org/2000/svg" xmlns:ev="http://www.w3.org/2001/xml-events" xmlns:xlink="http://www.w3.org/1999/xlink"><defs /><rect fill="white" height="280.2396567808188" width="113.03919929017361" x="0" y="0" /><path d="M25,109.76941409813185 m0.0,0.0 m8.94772438198537,-3.246752236330465 l12.573473454463103,-51.12354974222569 14.09377391722461,-16.61343524648124 l3.47440628568649,9.87636178686826 0.8413381086077282,11.526867415135317 l-3.9485280754009353,9.284666331024063 m5.732832007877309,6.736721451700216 l9.090802865808113,7.378426254093499 m-43.192206899939485,-46.49087265375508 l5.468624485393919,-2.150317831107669 5.420503817734416,1.7260593319160247 l5.144084469518162,-0.21269654307194408 5.530501693471083,5.760510631666407 l0.6881674472210633,3.442420218645501 -7.162517663198169,12.386137454004402 l6.770292506245743,-12.304554175181602 7.409714057634478,-0.8489572291538616 l9.23033720239129,-10.14395570718813 9.378698621072386,-9.752493608689825 l-4.163349767343545,1.2954789467635974 -1.192528557650648,0.7892795977490602 l-8.069621092509994,5.583941215668726 m20.972676023881135,165.43873439729686 l-10.88794828465951,-10.988874536675539 -2.244587344265553,-0.616408410561155 l10.656694250171235,5.757285684811176 -7.877784147902302,17.01493150374807 m-18.536349530491005,1.8937643059945575 l-1.2450351810906402,3.6990138444853295 -4.384070802356321,-0.06226291602255768 l1.6961478118803697,-1.6835520795581487 -0.8122654737230162,4.779939936780202 l4.271517028536502,7.760137780514673 -1.295849806968428,-3.8688730074532183 l1.7022128753141363,3.8968707365234754 5.367438458612321,7.971682618767174 l-11.710638787920162,10.096790326000336 -22.72677059829267,11.481776835986151 " fill="none" stroke="black" stroke-width="1" /></svg>