<?xml version="1.0" encoding="utf-8" ?>
<svg baseProfile="full" height="382.87915932616386" version="1.1" width="182.38423477702713" xmlns="http://www.w3.org/2000/svg" xmlns:ev="http://www.w3.org/2001/xml-events" xmlns:xlink="http://www.w3.org/1999/xlink"><defs /><rect fill="white" height="382.87915932616386" width="182.38423477702713" x="0" y="0" /><path d="M43.3919479147122,357.87915932616386 m0.0,0.0 m-4.548802086324947,-103.42664062561227 l7.828906658890847,-24.36440093723702 24.917422639842144,-90.54196947810456 l8.82551423437168,-4.0102501322300705 4.207378455723571,-2.438077623769421 l1.56330948202315,-6.736159202297094 7.18536125948736,3.799110657859001 l16.063498755117337,0.4411837448584921 6.250855816357528,0.5557976844926574 l3.3199985070602627,-2.978755437097078 14.70329829726538,-8.022195069717863 l9.446435955656812,1.7067074750573046 14.229108886843797,0.9567328062048192 l-1.9524168054895485,2.420572526999069 -6.603695351996044,-1.3053080119676985 l-9.608169991957404,-3.968871323800312 -10.932345748504643,-4.680968813092204 l-12.523113624094023,-1.5226798323541384 -9.580968756730686,3.402526621185903 l-15.810930686344044,-4.202837176678584 2.0119161004144503,-13.960058451853756 l2.2566807562127273,-1.2788734677105695 -3.4218906252045223,0.17331181344531502 l-1.8068089195337567,-8.178200910645334 -8.35779037265351,-4.764158628575403 l-6.2839118570003105,-8.07601312739151 -7.15508059257625,-6.669983655254131 l-10.639026685430997,-6.523739876317466 3.536524407173405,-8.98786320596391 l9.786670183262501,-9.309264748990351 4.866327008708418,1.1166831916559472 l4.140920343338721,4.622118187343258 3.0403529236288827,7.695677228732413 l-16.856731217549637,1.6104909101634879 m-38.63610156898409,-26.735882038043943 l-1.854643695716769,-0.2202663073900918 7.990124548847488,-5.643979525831739 l4.923962102069588,-2.8326745662349992 " fill="none" stroke="black" stroke-width="1" /></svg>