<?xml version="1.0" encoding="utf-8" ?>
<svg baseProfile="full" height="148.64172102257598" version="1.1" width="114.70388838209354" xmlns="http://www.w3.org/2000/svg" xmlns:ev="http://www.w3.org/2001/xml-events" xmlns:xlink="http://www.w3.org/1999/xlink"><defs /><rect fill="white" height="148.64172102257598" width="114.70388838209354" x="0" y="0" /><path d="M83.20620450763622,38.39469237709633 m0.0,0.0 m-28.313188177932034,3.8783829937964507 m-5.127243034309423,-5.149494319820445 l5.56996585995981,-6.2913329932183455 m-7.736330221908159,-5.832248057853986 l-1.6245601435789014,6.384525588557781 0.08021693621660289,4.879521570290924 l-3.398790077426048,0.463683724902024 -7.000461387441646,-4.725030798487306 m-9.057206654269542,15.325850742511129 l4.098151151733333,1.151843922006286 -2.1393997656394,6.115737611702687 l1.381702757958861,13.705864057851162 2.3258682224969474,1.6850721978033527 l-3.9742038488430262,0.1269333254971433 3.1304256617561363,4.698956208099645 l6.485541410625786,2.4566032490335568 4.2786403191789955,0.07064193187234899 l0.05123557004363375,-1.8309197573982987 m-17.236569086258136,29.226783822497342 l1.8599458551171124,4.095004494339484 6.599188130833876,4.2538901129101045 l13.142832851660092,-0.2544270097010657 -0.35032412615227493,2.507559456735225 l0.10205401761730075,6.827418668027283 -0.2579939959060382,1.4762079035251392 l-8.548558261132486,-2.0279252051104 m10.900508731908728,-47.197113512589 l-5.307573697148112,-5.745274988076319 -2.0310043564816778,-8.935869847682985 l-2.334819952236254,-5.27282469693199 -3.948579082340197,4.197707489922848 l8.33150290733725,3.190606000534816 20.921069205163658,-2.8914209017895964 l-6.670000692014981,-12.380162910493038 5.189242900346378,2.5123893919638522 l7.767412679293125,0.26697932752908826 4.749231702233495,0.10695398433303263 m9.67184311069032,-14.9551154593276 l4.00282600620091,4.2504240256405295 0.5929902743763631,3.666645831350718 l0.3220941727269559,6.833243870298082 -8.345241533821834,20.864948685603395 " fill="none" stroke="black" stroke-width="1" /></svg>