<?xml version="1.0" encoding="utf-8" ?>
<svg baseProfile="full" height="190.98648297857278" version="1.1" width="127.86702170588138" xmlns="http://www.w3.org/2000/svg" xmlns:ev="http://www.w3.org/2001/xml-events" xmlns:xlink="http://www.w3.org/1999/xlink"><defs /><rect fill="white" height="190.98648297857278" width="127.86702170588138" x="0" y="0" /><path d="M31.277722760392045,25 m0.0,0.0 m-6.277722760392043,4.164463327272798 m35.5832504699863,33.185913245571804 l7.140462324505462,1.1906422263415675 1.4976090949337666,11.746646455709685 l5.55044045347836,7.032472897441676 6.074128821083159,-0.5849737160126746 l0.42536620678099046,-3.9725253057106955 -8.826437118468812,13.188731699359124 l11.627223128106893,7.149525618340179 15.746749831691904,-1.5734120474179598 l3.0482284937833737,2.150381940849216 m-66.52874264384386,66.05347415348852 l5.076288355041455,-9.889208068923558 9.383120932418443,2.02603142100633 l3.0096945834734923,4.064924476317133 -7.1699822724775295,5.053394654939598 l-5.088595865093988,-1.613766417073021 0.6681477114265479,-1.2331405814640428 l-4.3046909329080245,-21.952231491826694 -0.14365109368513485,-15.12494696413807 l13.512622564965719,7.463910777757713 14.16911795115275,0.6417082325229136 l6.070288639854782,0.6091383334292039 -1.1345559453371945,10.560038642178368 l-1.0153643270031947,0.6415281203740575 -4.4430310063143175,-19.18567590839593 l-8.33947509275467,-16.513965404347108 12.473428743382126,-32.828525212320926 l-9.453151722045863,-6.276134973925494 -6.8023928208650775,-0.7597664783392185 l2.8834102323736115,-6.976974025695619 -5.936706188869319,-13.269120775452478 l-3.8535163930184972,2.772181185923209 5.335017303208127,-8.632593527818184 l9.955075179937442,0.09568677587171615 1.367557039143269,-0.03750052726970626 l-4.891800454008973,2.205727662074663 -1.2408184919233307,-2.5562639366425266 l-1.0784643512076904,-12.56504555822842 -2.3551287468326922,0.5690112656756113 l-0.5238491719484236,5.762382255494756 0.7038041711613032,6.816823989782666 " fill="none" stroke="black" stroke-width="1" /></svg>