<?xml version="1.0" encoding="utf-8" ?>
<svg baseProfile="full" height="96.93418943351625" version="1.1" width="122.26308402260378" xmlns="http://www.w3.org/2000/svg" xmlns:ev="http://www.w3.org/2001/xml-events" xmlns:xlink="http://www.w3.org/1999/xlink"><defs /><rect fill="white" height="96.93418943351625" width="122.26308402260378" x="0" y="0" /><path d="M61.54881760175609,71.93418943351625 m0.0,0.0 m-11.207969769484487,-46.934189433516245 m3.1530890743680975,8.76486010944823 m-3.0655052828045446,0.36999310233114535 l-21.419608135825683,19.607628071905705 -4.008823488009479,-3.963307972765402 l2.415742846197227,-2.3943480934061707 4.9295782956075085,-5.917905052351826 l5.405540533558343,-5.400792443162501 9.622999162376393,-6.835933517566503 l7.618327666433406,-2.7445802768548 4.451048988716754,3.043859430683698 l3.639820968480302,6.0810809750333545 6.166888100694187,14.130559208185 l1.1209374352943295,9.287990650709762 -0.9684201338919993,6.318273100133901 l-5.385846503664203,4.019519990047853 -9.791420470134069,1.1852231503041755 l-6.563642086207159,-2.0174943474219456 -3.7787111337051873,-1.979913100933556 l-0.10168419875917327,-1.6121410196896173 3.1545557093534446,-1.0009036724400224 l11.133078764888449,-3.3526091902095825 15.878716822474077,-3.6253862754696273 l5.011434835304783,-1.9523453090319123 3.645354782242424,-1.8024218080865988 l0.29390904078393454,-2.8028390195706754 -3.9142271610541637,-4.694737888945583 l-8.434566115759084,-2.491298433978644 -12.701681785915447,0.19276203121210536 l-8.31400423547506,0.4665402770598119 -3.9161924349349917,3.0069957441397963 l-1.7960468581748317,2.4033626506611925 2.5571864810198632,3.447685648130752 l7.236419639840088,1.0630940739489065 16.515840318573524,-6.060123171410419 l10.209184049654436,-5.405180829084501 11.509813256751634,2.0248224683541394 l5.413149442034051,4.159794202091275 -1.3616608790760387,2.62414775639507 l-8.780470395942741,2.076910125328125 -15.787837735297272,-1.1430962302471523 l-11.882393766002787,-6.620983811043072 " fill="none" stroke="black" stroke-width="1" /></svg>