<?xml version="1.0" encoding="utf-8" ?>
<svg baseProfile="full" height="161.19220873471522" version="1.1" width="176.84488965562463" xmlns="http://www.w3.org/2000/svg" xmlns:ev="http://www.w3.org/2001/xml-events" xmlns:xlink="http://www.w3.org/1999/xlink"><defs /><rect fill="white" height="161.19220873471522" width="176.84488965562463" x="0" y="0" /><path d="M25,124.86610608383737 m0.0,0.0 m52.35563507295339,-29.419415075346244 l6.931782682960777,0.08716393662894117 m1.059462122255177,-11.125936586611626 l3.8092401860319756,-4.1193129898306 -4.5604238331676665,-5.390596159581986 l2.6900340875821596,-0.4157574756477223 3.2959865696837958,0.9798074357422248 l3.4811138655453844,3.096757621715558 -4.704276462358563,1.2700610442078113 l-5.76310336187653,1.9613965409342677 -2.870077645881776,1.209892711640896 l-2.641428316184327,3.2967244882380324 -0.2364430857646263,6.737393273687888 l8.453068179247321,6.483673556713256 11.890910062439414,3.82199815548534 l10.84119372238468,-2.912693070993065 9.612615108341771,-2.6024278802382983 l9.28464882726911,7.145961946825645 0.9841311338218857,-1.9238663366120594 m17.145061919783338,-78.04693122079564 l0.6099862457353052,8.49052942438568 -6.287560532337981,0.6760954711898695 l-13.908518200687988,1.3980980693142804 -11.675691159512766,0.8621472157372632 l-5.541129648973162,0.08185541716946773 -2.287197191180778,-2.547027897701818 l8.192506253390867,-2.626135052626679 11.823203063958116,-2.6079642036320796 l9.667427220141613,-2.8455249223963475 -0.04036328240814891,3.0082334800090518 l2.358414287016747,9.279280129610799 0.504591483179524,13.656875744953764 l-1.4024333239093771,5.413432180983739 0.5469238619518626,9.864152886541074 l-0.23585293989890427,10.475255601324577 -3.514460738650252,8.130859472021482 l-2.1745390266266207,11.397026234415234 0.9876990268056873,9.51061965911377 l8.271931797391018,10.03188849218609 7.677882307433606,6.527339893974633 l2.2129393177395826,9.679027718349184 -9.473689445869113,3.3361437197921804 " fill="none" stroke="black" stroke-width="1" /></svg>