<?xml version="1.0" encoding="utf-8" ?>
<svg baseProfile="full" height="162.09026102907333" version="1.1" width="159.6146849453664" xmlns="http://www.w3.org/2000/svg" xmlns:ev="http://www.w3.org/2001/xml-events" xmlns:xlink="http://www.w3.org/1999/xlink"><defs /><rect fill="white" height="162.09026102907333" width="159.6146849453664" x="0" y="0" /><path d="M36.323295047307255,119.33185998593433 m0.0,0.0 m-11.323295047307257,-14.282148662141037 m9.188976663428022,-42.15395291787702 l5.889097335885261,-4.5187051580422315 13.700097617742442,-3.3328568071161806 l5.71995862696936,-1.5211738333749392 5.385733247495408,7.00632640399898 l9.244002410868502,6.082801749622626 -2.901733561464817,6.480595244407656 l-7.681906774217386,-3.543154291177356 -7.452022272773786,-9.438087612929168 l-4.299142774505584,-11.597756251645261 4.4458254386188765,-2.9361865490508237 l0.14972246202284753,1.4184716665154264 3.5324150485498373,-21.996032967125007 m-12.011780832639788,42.9213264074731 l2.9338727203931696,7.845383147407815 7.340289020056476,-2.440694249144818 l13.258388388019945,1.9732161325888127 5.648126020671618,6.160214112166381 l-3.6229349625300746,5.444813139686942 -0.632675611272246,4.989808334461671 l17.280887482254332,6.511661080808786 15.760224634315177,-2.813347174958688 l-10.657766201707608,13.856757998849282 -8.826463934865052,-4.274057454908746 l-8.453316797812798,-2.4878287413771463 -4.229869157748434,-7.141838296318877 l3.5194200708571404,-4.81255014866985 12.642691896256327,-4.1717837008095024 l16.280333770311994,1.0514279028092537 0.3907501154091955,3.767022738460235 l3.011244300149523,4.541934435663564 1.510911023315737,2.984019593383372 l-1.8354863047559762,4.860207434718149 0.285190407867828,4.825988563778895 l11.003562452041233,2.912899998515859 0.5501802698293068,-4.460134341978382 m8.579189875568414,25.31995913481455 l-1.1009459444584118,4.72585498165268 2.6712119257025813,-4.107836754508975 l3.398426851517814,-5.115272667285003 -14.13028963635774,-1.3612996458339472 " fill="none" stroke="black" stroke-width="1" /></svg>