<?xml version="1.0" encoding="utf-8" ?>
<svg baseProfile="full" height="131.24120245442853" version="1.1" width="122.17621920949341" xmlns="http://www.w3.org/2000/svg" xmlns:ev="http://www.w3.org/2001/xml-events" xmlns:xlink="http://www.w3.org/1999/xlink"><defs /><rect fill="white" height="131.24120245442853" width="122.17621920949341" x="0" y="0" /><path d="M25,90.225457777647 m0.0,0.0 m13.879124120267322,-39.2329965800975 l2.801769920718028,3.7244500517341947 0.008662419635247776,11.77020599832788 l2.6902428241114955,7.010405999453695 -6.276802454323478,5.754058896647612 l-3.515827204761175,-1.321276917630713 6.648017321917222,-2.48297288116375 l9.421341581564345,-1.0090648620498193 -4.395646637521806,-4.8484494533578415 l-14.941051256503819,4.504454381387287 -6.00395409769472,-6.161951089356711 l6.316427699382283,-11.32969321339834 9.951047034564818,-1.1682901824901821 l5.705298853153727,7.5955212726071 -1.9065468096438098,1.590306064764501 l-0.6611917800754608,6.855613236494329 10.431134985643421,16.143753499076567 l7.790831950931342,4.244174496598069 3.3471227821038108,0.5280468677564742 l-2.798646024821778,5.4231323193271095 1.9250435439815468,5.207597785371679 l-1.591842395680363,2.88029818762207 2.6854515199198574,-0.3726543324827048 l23.3583050158383,0.7110751316405197 7.307906296787052,-3.4322242123644244 l-13.94582543703771,-10.299900904158413 m-18.536327487185346,-56.49349878019272 l0.6851404109741482,-4.656458178521732 -5.910379566557675,0.7483807979013712 l1.823070159489201,-1.8237252702510558 0.838849256122392,1.0484901567055303 l-4.1902796986611195,4.683395917785748 -9.616133898091972,1.194511369917704 l-1.702669116379441,0.32809575984584827 8.96587379584727,-1.984486155463692 l4.162733887812819,-2.948066347399282 5.3509577139530595,-5.128796922122459 l4.303133207941937,-2.4769196861109477 -9.778416304698274,4.890954338149956 l-0.517381307859483,-0.014104480883522785 2.665265774573589,3.2153342474198814 l-2.819601841072384,-2.1502603897117853 " fill="none" stroke="black" stroke-width="1" /></svg>