<?xml version="1.0" encoding="utf-8" ?>
<svg baseProfile="full" height="158.70139985299645" version="1.1" width="114.91988237376825" xmlns="http://www.w3.org/2000/svg" xmlns:ev="http://www.w3.org/2001/xml-events" xmlns:xlink="http://www.w3.org/1999/xlink"><defs /><rect fill="white" height="158.70139985299645" width="114.91988237376825" x="0" y="0" /><path d="M60.76977014025204,77.01625977193237 m0.0,0.0 m-4.87996721013743,14.830678546067242 l-5.277750219778203,9.302934036521462 -3.83630505704758,-3.8589649749584995 l-4.490156994132737,-12.1021864750414 3.561697984567397,-1.771790206275804 l7.805893645902985,4.372653052975754 m-28.65318228962647,-47.04579714957504 l7.623614847918447,-12.329528471588182 12.317302860027821,-0.5101250826868908 l11.06848370372548,-2.904133047371015 5.726798202191033,1.9295719959940498 l1.5777384002120716,6.212934861469616 2.710790606818817,12.292815458156294 l1.5370386108256209,11.76809828040779 7.371212974584867,7.403115092566132 l11.955114451376083,3.378927741350109 0.2750971518653165,4.174388482988693 l2.7566905642226893,8.726365805627774 -1.8443104127268624,8.30388924786209 l-2.5472944765278016,2.336243535924433 -2.3121209513905527,1.4349394949969843 l-6.087862618574096,-2.37501110487816 -4.772695493772609,-4.534205857677369 m1.775749759530505,47.53819073625424 l2.396845539826983,0.11113608195376212 m-14.530596181576554,-59.11911237774125 l-0.23675834841654536,1.651788403727154 1.0424276784049091,3.001517408379847 l-5.824566206668933,-1.0501651455569905 -6.923161610344508,-1.0861234242667028 l-2.9325561462692344,-0.705070642350451 -2.2446398277155444,-3.0698286209265326 l1.3907620666919254,-6.293552945025684 1.7570319796613787,-7.7901654242771645 m29.309651675625148,-4.128238747117807 l-0.47468243746235983,5.907600451642449 0.01565077276687865,-0.44497366083850587 l-6.118123248911648,9.733317238469379 -3.141245470457956,10.476305501834796 l4.570815527986991,8.10223187841476 10.06190367054523,7.671528212919636 l2.910441844411089,2.4030032838663717 " fill="none" stroke="black" stroke-width="1" /></svg>