<?xml version="1.0" encoding="utf-8" ?>
<svg baseProfile="full" height="131.98854606082335" version="1.1" width="96.19013695068617" xmlns="http://www.w3.org/2000/svg" xmlns:ev="http://www.w3.org/2001/xml-events" xmlns:xlink="http://www.w3.org/1999/xlink"><defs /><rect fill="white" height="131.98854606082335" width="96.19013695068617" x="0" y="0" /><path d="M71.19013695068617,25 m0.0,0.0 m-32.512004627012544,49.54063824803575 l5.651015816703141,-0.3442583380291636 1.3005427863123213,3.289402203847609 l6.332202898488763,-3.2152631930101436 0.11886193973925138,1.5119527263143429 l4.6863815679288905,0.4516582431090446 6.2470163229042015,-2.6708945613131587 l0.668887700473037,0.03403641394654405 0.600045827056105,-0.22337097867984218 l5.838987080666727,-4.802687090090441 -1.9329301836492985,-2.9583164615637867 l-17.150235123239565,7.902619335223353 -0.10946078623877808,6.668921071468601 l-1.002730580828271,7.9572171455351715 -7.4864899836326515,1.7188193602523276 l3.5651249987429687,2.147498122345972 -0.9110072003166686,-11.838676791094404 l-7.4294972465554565,1.943024270482634 -8.614838975913964,1.4241747330293721 l-3.178247485705794,0.033983529286168955 6.211303282982339,-0.9339655888493028 l-0.7979407256390848,0.8045888225744344 -3.719420034645365,0.5054720786452344 l5.905346810060523,-11.379834048417623 -5.535504622282217,13.506944141689484 l1.6601952115773033,3.252511143882839 5.7691126100903185,5.909408926499526 l2.1209201479113706,1.2646191144882584 -6.349381671932939,0.755598816163753 l-3.8825006873399297,4.068652653550002 6.728667507572462,5.664072011500794 m-0.13120615840390454,-2.0218742142478705 l-3.9017726226120035,-5.284586500962407 m13.722716817618638,-5.429163365352374 l2.9224242722418903,-4.1349866607595605 3.663109600773019,-5.87005452399796 l-6.781194609599219,-3.112355209621154 -18.476636824981778,8.788190418663028 " fill="none" stroke="black" stroke-width="1" /></svg>