<?xml version="1.0" encoding="utf-8" ?>
<svg baseProfile="full" height="151.09233480469405" version="1.1" width="94.46979300196358" xmlns="http://www.w3.org/2000/svg" xmlns:ev="http://www.w3.org/2001/xml-events" xmlns:xlink="http://www.w3.org/1999/xlink"><defs /><rect fill="white" height="151.09233480469405" width="94.46979300196358" x="0" y="0" /><path d="M69.46979300196358,126.09233480469405 m0.0,0.0 m-27.609713659355197,-47.23690678214404 l6.05525120361309,-3.6228838329792903 11.547846228474512,30.86005706913367 l3.0432914361817596,1.5314442619433792 5.563372494298125,-1.8820355661170736 l-2.34111019249129,-6.159249145405692 m-2.862384778582412,-67.59475710383956 l-4.298646522757182,-4.172040476646153 8.654685989897876,-2.815963228639303 l-3.5378531755982876,17.83002458144192 1.3383806147773818,7.9524398793505355 l-3.5214912591062575,8.791456331333654 -15.424829179692447,-1.5890319815427734 l-2.0029721542923182,-8.363857302545147 -4.303470778146873,-4.022332971629658 l-4.356605070503349,-4.206466073847458 -7.001454411178038,0.8476803050065131 l-0.9058425480000237,1.7981362086501502 6.486247680264914,-1.388448778660917 l17.921725871917676,2.231908832052547 0.036462326499835454,-2.5031717229046127 l-11.302582848327493,2.730941549821185 -14.132862177538247,-1.277263243157693 l-1.5152380923193305,-4.544850691402628 6.58493125930177,-1.0458147351179485 l1.2431177264993836,-6.850391371614468 -1.7770419723254671,-4.891377563982625 l-0.35742590164799193,3.929886914569998 0.5627206910552398,6.825772745400749 l14.346421269496666,0.8963018134226044 6.61001153434925,2.0708353817419765 l12.535120638802809,13.720848238474801 2.7151050758263797,1.23457830503987 l0.25042439155534196,-2.7900857733245843 0.22934323592014708,2.9641141628814505 l-1.5052360019210453,4.7308498880855625 -6.79805554659709,4.457514684781914 l2.096518545351398,5.028074077570635 -2.7493954767380773,4.86836517461629 l-2.2411550334308674,-0.7601582071261928 -2.0064136113377087,6.099786782799078 l-1.5309303702091397,-6.915381862076476 " fill="none" stroke="black" stroke-width="1" /></svg>