<?xml version="1.0" encoding="utf-8" ?>
<svg baseProfile="full" height="146.00208211360763" version="1.1" width="186.80076594436966" xmlns="http://www.w3.org/2000/svg" xmlns:ev="http://www.w3.org/2001/xml-events" xmlns:xlink="http://www.w3.org/1999/xlink"><defs /><rect fill="white" height="146.00208211360763" width="186.80076594436966" x="0" y="0" /><path d="M129.69117994685965,25 m0.0,0.0 m-59.565110695179314,46.23580096488517 l-1.476660095542392,-6.810246371409416 3.872088438391906,2.90959566713483 l2.8549386692646386,4.149011410702692 -6.2153126513259505,-1.207384135666997 l-6.4006223871542645,-2.433055668871651 -5.76430831956898,13.684507992826799 l-12.403170733444911,2.5552203278759933 -9.303275664348707,-12.92237792872101 l-10.289746507951675,-1.9466092323877355 1.4431794531133773,0.9395681428841132 l9.922621059890174,-11.309841353482115 4.350795762137814,-3.186172809775427 l-4.639882495083453,-3.063248764563978 -1.534159568790147,11.4114340923294 l13.198207081941089,1.2604873767208928 5.800125989032678,2.8231245430347562 l4.802636431839125,2.441515253952559 -4.863751326706005,0.8016889123336268 l-1.9879636786751564,6.237877447949642 -0.011103849891542505,3.9238120135600054 l-9.560013057123037,15.747806560496942 2.0214462254019314,8.922385234872184 l13.518950257707733,6.695039878185118 6.574578839050261,0.4830102319488072 l7.20514415857418,1.4456223214569475 -8.989569502645518,6.213510005335499 l2.6307150456647252,-14.97340262072121 -7.452265943744978,-8.265867336397461 l10.614253441071364,-20.73655070644901 35.67041636883527,5.013203301723063 l8.500359930463162,1.512989468007943 3.2406534863679313,6.933877534820676 l7.421676293261834,6.998247499981549 6.525386240709776,7.6320430382117195 l7.071523373805257,-3.2368756438805266 11.541507695697028,-8.306851139650332 l7.282637290235688,-3.933403006248486 6.502660942229099,1.4058621746167779 l-3.111136286539413,2.08189044001771 -1.5195926769300374,1.3929682804504075 m-35.2353261853059,8.729599563535034 " fill="none" stroke="black" stroke-width="1" /></svg>