<?xml version="1.0" encoding="utf-8" ?>
<svg baseProfile="full" height="167.18775461491214" version="1.1" width="110.98540003807511" xmlns="http://www.w3.org/2000/svg" xmlns:ev="http://www.w3.org/2001/xml-events" xmlns:xlink="http://www.w3.org/1999/xlink"><defs /><rect fill="white" height="167.18775461491214" width="110.98540003807511" x="0" y="0" /><path d="M47.988885076791995,66.7694432723656 m0.0,0.0 m-14.914061871947432,-11.912303131080666 l7.082468943596528,-16.845818649567022 5.957941963737001,2.4761987086475727 l11.044839338933949,-12.982151596994491 -1.418767686014985,10.93788819446298 l7.586559603592976,4.885197636335044 5.983010405053413,7.490750448725267 m-15.423289945371952,69.66179732685215 l5.789566559339687,6.19846715088731 6.469853505888855,-2.0518611538720712 m-10.839774504412224,-20.832209821431825 l1.820823622473113,-5.70177827100992 2.846194059846313,0.3322090474535541 l-0.488234059718076,5.060479528527579 5.2182212907954355,3.253269465708036 l-2.3913318286249496,2.086895187941816 -0.48992568142623316,9.386232569699718 l-1.8802602198037526,4.056470176597633 -1.756315107876011,9.634988295563018 l1.3826533726890589,9.582615329542605 6.163206924018666,0.7009748995582263 l2.233546522460962,-0.46831125768468934 m-42.96581028402233,-100.28488668870304 l6.296155309350344,-5.367063260453368 16.74451832451772,-2.0437079600535983 l4.624747148044139,5.683236362797424 -1.0376297803989474,8.677384522978155 l3.345810426049747,4.467329903291882 -1.9636272025406523,6.402312388920992 l8.124189902148894,7.141748181245839 10.86898610405129,-1.9343390461973542 l-1.2385503657417647,-6.113789830430525 m-9.143641517648126,-16.328211776748287 l-3.882794829624591,-8.293721846331579 4.6786998101832635,-2.800369308924374 l11.363233510810167,-5.925364998619608 0.3232970148256781,2.697028893153708 l-3.2957038423422906,8.278179818521513 -0.7254829029111381,4.387890413835229 l1.4999520971498708,6.93854576283458 14.4032408321515,8.322617823780586 l-5.063070725524368,-12.382984495795059 " fill="none" stroke="black" stroke-width="1" /></svg>