<?xml version="1.0" encoding="utf-8" ?>
<svg baseProfile="full" height="120.09568112046134" version="1.1" width="127.85656934854202" xmlns="http://www.w3.org/2000/svg" xmlns:ev="http://www.w3.org/2001/xml-events" xmlns:xlink="http://www.w3.org/1999/xlink"><defs /><rect fill="white" height="120.09568112046134" width="127.85656934854202" x="0" y="0" /><path d="M77.08463451993603,90.47242396334167 m0.0,0.0 m-37.97522241886796,-3.2214954256917427 l-10.616592365267618,-2.0960494678199915 -3.492819735800455,-1.0250979619038292 l12.979990251844047,-15.561568221315424 2.3859806033627464,-15.660288910640583 l-3.039162220464283,18.643808287180004 12.925640199989896,10.880613298879709 l-0.30681489997981515,7.424527934781941 -0.60352058160086,5.238807623649577 l0.9367127443658165,-13.179940329144001 -4.984622315493595,-2.7488819867828327 l1.1910947798963585,-1.011686153103069 14.886624932417229,-4.893982873862542 l3.291891841746684,-16.87288236352167 13.44012076307123,-3.161331001492869 l5.6419421650290795,-5.1480277922575635 3.7142355145175463,1.3514933332880301 l-1.9338452042017762,-3.008498151910255 5.819095605802858,3.4392255475968447 l-1.9924541550142172,7.592216950810534 -6.569806750202984,6.311761646704268 l5.192485038841648,-0.31594560765484114 -4.220860206928242,-0.335586072296693 l-9.762549338766055,-2.74278701608554 m-11.556471258228372,-29.4881299625636 l2.2547319399580545,-5.882699288185537 -0.17135862499522592,5.96662216633123 l-1.1710516307851326,13.985581060810894 -4.490933858589312,5.029807989493236 l-6.448644401479484,-4.336729227581755 1.8027015565338562,-6.52249141556038 l14.727346956308391,-4.438199373154117 13.95805007394783,18.54271149161067 l-2.1631274258157593,1.4348030211357765 3.9449893601086075,19.401555817640013 l6.7110412681373575,15.52732345477134 2.1439716465098027,4.461530270920295 l9.323144978698107,-2.525845173519262 " fill="none" stroke="black" stroke-width="1" /></svg>