<?xml version="1.0" encoding="utf-8" ?>
<svg baseProfile="full" height="134.6457373767555" version="1.1" width="127.63649195225675" xmlns="http://www.w3.org/2000/svg" xmlns:ev="http://www.w3.org/2001/xml-events" xmlns:xlink="http://www.w3.org/1999/xlink"><defs /><rect fill="white" height="134.6457373767555" width="127.63649195225675" x="0" y="0" /><path d="M36.675486216264346,25 m0.0,0.0 m-11.675486216264343,27.76659060471575 l10.349903947449745,1.7700053280395123 13.620618944440833,-7.32665897850878 l2.478273247873297,1.4172819771579397 -1.3950947587917224,9.108607621847312 l4.015338803367086,3.42674324909648 -1.3449244273321892,6.456872642170646 l-6.167484539570768,10.07133211677072 7.669703757302386,4.573442210472394 l13.147861043581553,-1.4152139084778363 4.744982831551337,-1.4557145299581402 l0.533997112394515,-2.0473683793008095 -2.421966804348109,2.4213354461257306 l-6.62156645140545,10.376498213574159 3.814849176916365,7.919993738208935 l14.34093902548419,2.3989471120283388 5.984263607179668,-4.337544010475178 l4.381884854509786,-0.7762504675635529 2.608921132433105,-1.9226545627553164 l-18.974956001544772,-20.316400273185494 1.6890121610642717,-18.401021566262717 l-2.7144745336883256,-2.352041338804387 -4.329988787510469,-11.01533629004241 l-0.2834084533688522,-2.3640325882808835 2.488830467316204,3.6964751363938353 l-5.4116542642303145,5.403601567396962 -3.0308609352979325,3.2126756242994947 l12.202685608376385,5.00188885371209 18.87738468285438,-7.2646329088451544 l-6.6251294460679455,-8.554799835307595 m-8.593941350053807,49.742411454735596 l3.2216887373373337,2.219725491795088 8.445109259317064,2.102638520957575 l0.922520995284197,1.2037539671825723 -5.375819669391643,2.4361651372709563 l-2.293060549324705,6.0136621825334355 9.525783551369571,5.454758818038233 l-3.4980214660456155,-24.838869551091012 -7.995173342805499,-1.0026791402511182 m14.38293308907495,-40.36646739484773 l5.266531696556644,2.9262982717513495 -4.692153418445362,25.817377242591277 " fill="none" stroke="black" stroke-width="1" /></svg>