<?xml version="1.0" encoding="utf-8" ?>
<svg baseProfile="full" height="207.17017484756522" version="1.1" width="179.72439098404232" xmlns="http://www.w3.org/2000/svg" xmlns:ev="http://www.w3.org/2001/xml-events" xmlns:xlink="http://www.w3.org/1999/xlink"><defs /><rect fill="white" height="207.17017484756522" width="179.72439098404232" x="0" y="0" /><path d="M25,182.17017484756522 m0.0,0.0 m14.100585974326671,-0.862688670389658 l3.44362216127109,0.5474031951509808 m10.79979013155841,-49.019347679441665 l1.745908119345289,-12.044356546017324 -4.566212599971755,-2.934417162847779 l2.9380084413336025,27.414900782398437 -0.6011913249783191,5.604980841017278 l0.11825938325839752,-3.2756328613368084 2.9433744149631904,-2.151858789209103 l4.462806626917889,6.734103217892507 -3.633963679857801,5.3227649525965415 l3.238247955450361,0.930594389621982 13.776295769896429,-1.639689467280916 l7.878676172241073,3.450793880609897 -1.3314802750088388,5.8221413570587774 m-19.05454868301118,-16.133133336119435 l-13.063306092380996,-9.366188042254482 3.072667107003604,1.518707404103156 l3.3128176071653312,-2.9886934911142746 11.004969476073537,-4.896967817525493 l5.087627713614281,-8.700888505140147 7.880840997266798,-9.512460757322966 l3.054060610107782,-3.2670284612086675 4.8681638393197435,-2.817949752447538 l9.456184819939583,-0.08118576402018601 m10.396771589126024,-70.29605399816057 l4.5690596773426515,-9.108239037826031 4.884989012947462,-3.546325018072479 l1.4296418388530647,-1.8734597102792743 -4.036342002829256,7.4202069120368845 l0.324611925853569,6.704018735347163 4.316622283108852,6.316666536810731 l5.641229178803126,10.545480213846785 5.521240981276945,3.906727338005467 l14.198766458498213,7.405646682807024 4.773185885151668,7.295980468786611 l6.7724094900658365,5.452628730378806 -7.819246517587318,5.507635671748523 " fill="none" stroke="black" stroke-width="1" /></svg>