<?xml version="1.0" encoding="utf-8" ?>
<svg baseProfile="full" height="146.17818527073496" version="1.1" width="129.5067656093214" xmlns="http://www.w3.org/2000/svg" xmlns:ev="http://www.w3.org/2001/xml-events" xmlns:xlink="http://www.w3.org/1999/xlink"><defs /><rect fill="white" height="146.17818527073496" width="129.5067656093214" x="0" y="0" /><path d="M35.53188038899637,121.17818527073494 m0.0,0.0 m-10.53188038899637,-20.67720440528947 l3.9725543830526577,-3.689705075992491 -2.6512796420930362,-23.881760209189697 l2.66348090136112,-5.400414953846558 7.346048863808767,-5.715609053928525 l6.67447287635748,14.51708897022212 5.932241333223844,0.2399274366881246 l-7.195820497413899,-15.134911172211526 -10.121950876050496,-14.9438193988454 l-0.4855346320396456,-8.54417337413131 17.220151744221262,-12.947604034210213 l9.209299938453087,13.917572355795498 2.852757883157535,7.621655251666939 l9.247515382416104,-0.02217844439433174 3.2639682410882824,0.5192559248240255 l-5.942337011262506,-5.640448755479409 -0.016025154084252646,-6.825682094743947 l3.9999496639028775,-7.47546214747053 5.096988628849211,1.9543033207617766 l-1.6839401399296154,-1.278960834432891 -1.8940937767341326,2.38254677987718 l6.389937601084937,1.8573376411512414 -9.052721758322416,18.22307813083916 l-10.465488940215119,3.2511430343638 -7.474826242457027,-10.159779745640215 l2.560279755546385,-14.774016273663275 5.91241497020319,7.6833473788414075 l-6.334957486820077,13.783950261943213 0.4874998342601443,3.8485853736929934 l-3.4107639219400734,6.376837232515147 0.08546835419699778,0.24064954701274482 l-0.948456652739289,2.239614381710832 4.013382050233873,-3.5767084181693996 l-1.3021441264753293,-6.497900634883191 0.7599489328655001,10.425998698159557 l5.435368830019148,10.93740783444089 2.5573467838850577,3.5947951241150267 l-3.8249787346476203,-7.2389519387737495 m39.875481403287424,5.08826393982571 l6.755526847071039,0.9001374372887035 -7.713214420196006,4.383357985679202 l5.583959801386023,-4.217835957179312 " fill="none" stroke="black" stroke-width="1" /></svg>