<?xml version="1.0" encoding="utf-8" ?>
<svg baseProfile="full" height="122.7504498898318" version="1.1" width="115.5214176410948" xmlns="http://www.w3.org/2000/svg" xmlns:ev="http://www.w3.org/2001/xml-events" xmlns:xlink="http://www.w3.org/1999/xlink"><defs /><rect fill="white" height="122.7504498898318" width="115.5214176410948" x="0" y="0" /><path d="M90.5214176410948,25 m0.0,0.0 m-28.908716699027703,39.08528274071646 l2.787548432581064,0.6609861348212237 -2.0848423596824084,-6.840064431142472 m-10.548928690033042,34.80889936467219 l3.649646127083293,5.035346080764403 18.00319336069892,-11.380287744134803 l5.265275617428487,-7.434215079113122 0.6300580202365331,-1.2694064128701361 l-4.30938986722452,-0.09162985195125112 -0.48388860170553494,2.9573634392075188 l11.252802331867299,2.2081159425829613 1.0449420290721443,-5.545990800801489 l-5.026441981551889,-8.177181884940508 m-18.441732506017527,-11.735025842307337 m-21.763781223765104,-17.96623190218849 l0.04689500297579016,-5.176046703592287 1.332246691613516,6.083419362811749 l-1.1958188174339288,5.450671757022822 -1.637442560379994,5.517976111525923 l10.042032638793653,5.141419232199481 9.724878742312352,-3.0731034463877704 l-3.3176850189227256,-9.491627859238648 m-21.00449707147531,-7.390052367526028 l-10.577771238538144,-6.148643210870161 0.790309755177863,-3.602706846898911 l7.173071969399923,2.858492514119392 -2.9597371186790977,8.349994493271092 l11.765641206040254,-2.2367777215303852 2.6323074821519925,4.532644946630448 l-4.311040843320667,2.224114282218077 1.0942715531180054,8.153828416624224 l1.0356174424476339,5.733206823959403 8.963303684276148,5.708168527008619 l-0.09429562420024284,-2.844136226178747 2.6736348677649957,0.3916650383567455 l7.221194378709908,10.408488325022562 4.092688815125985,2.5206186506613615 l10.725060567819044,-1.084316442363688 1.0615675710707129,1.0671472979170165 l-7.676824431051915,4.7616488110023125 3.487881125035118,6.869283569482089 l14.788069827906105,2.396211649151837 " fill="none" stroke="black" stroke-width="1" /></svg>