<?xml version="1.0" encoding="utf-8" ?>
<svg baseProfile="full" height="210.50615977951807" version="1.1" width="116.47698276314402" xmlns="http://www.w3.org/2000/svg" xmlns:ev="http://www.w3.org/2001/xml-events" xmlns:xlink="http://www.w3.org/1999/xlink"><defs /><rect fill="white" height="210.50615977951807" width="116.47698276314402" x="0" y="0" /><path d="M25,185.50615977951807 m0.0,0.0 m21.526379119813093,-80.04297459187933 l11.106824790441571,-2.229333816020591 2.610053242721926,7.973391224831948 l0.5135877580683701,6.308609939092441 -5.391844652047346,6.221782586972744 l-9.094831889782444,-18.620980077145035 m-7.045965920743922,-24.042838296218132 l4.57058677849387,-6.653376816921148 5.9008453179419185,-3.615217141450082 l3.935841109995316,-8.678314795452692 4.915584774856709,-6.215277315165972 l4.0708548872637556,-6.772876352064541 1.4659847260062109,-5.417062470615039 l6.5256465523052265,-5.849281612567468 0.09884012782334028,-12.872410244915153 l-4.763496172122263,4.349120927661747 -0.6763458281554154,7.186846123565946 l-8.106405227768834,-0.7531638772150617 0.6575987311867215,4.077868064793334 l7.211409116619115,5.439293982535189 -0.30773942745200733,10.92834998705893 l6.753495934889083,5.251436061226413 14.576221118415965,8.677972861239791 l0.8325831927583804,1.690891157475899 -5.599331709416294,1.7007047317006478 l-7.749642897143787,0.32887489311957463 0.19657103064989023,-0.3808935406671667 l-11.149312165780726,26.25403416830708 3.756584929429191,3.962861991034161 l19.98556135203263,3.159884259664949 5.150844061844779,4.052041426382755 l-0.4444526035417934,3.945072242095978 -17.60349093740268,-16.175507057928993 l-5.745830531649287,-2.370719466671267 12.04505999189615,-4.803525892449936 l1.785973219305872,10.35734071001766 -32.78464773267733,13.761924497019807 l3.39354341595841,16.073291500208992 " fill="none" stroke="black" stroke-width="1" /></svg>