<?xml version="1.0" encoding="utf-8" ?>
<svg baseProfile="full" height="134.96020746516325" version="1.1" width="109.40877245520761" xmlns="http://www.w3.org/2000/svg" xmlns:ev="http://www.w3.org/2001/xml-events" xmlns:xlink="http://www.w3.org/1999/xlink"><defs /><rect fill="white" height="134.96020746516325" width="109.40877245520761" x="0" y="0" /><path d="M71.18791200624159,78.04299730789054 m0.0,0.0 m-30.66935857659037,-18.93168839293955 l4.7506349859035435,-4.975625712860425 5.06305864628979,4.277576789939078 l0.6511780691971027,4.979929437778499 0.0006224026576824582,1.1107107044688183 l-0.9929819905516155,6.058935734333781 -4.920286500148623,5.142331800259467 l22.302555390728735,14.348806352489389 8.195858300070107,1.2570111548220733 l-1.1790379977662457,-1.673965022726185 m-3.484672964949882,-10.286458718450406 l-0.21619302042638566,-3.2143879984333203 6.089188755402066,-2.940237288981119 l-3.2788054403181364,7.660446934046649 3.197275849236517,14.855745766884608 l7.711824540231743,5.701432724109747 -2.00585219656494,-3.5650389453757083 m-53.33388392078929,3.5400716283609324 l-4.069036337853387,-3.4991528473376268 4.194151703240603,-1.3601477884272912 l-3.8279911991636175,3.8384835537479933 1.6153443110524213,9.592430291563312 l4.557949855172247,-0.1493617435290454 3.02208547205795,-4.8466945195311615 l11.72509275961204,-1.9908491209906765 17.271181181659074,-0.36708881925695075 l3.3516629031620098,-5.580341839327019 -6.084126433066928,-6.771262739749321 l-4.8283142607958585,2.4318124214927006 -1.821904491976315,2.8504317534738868 l12.465960935735334,0.3663357922964054 2.6438886342534427,1.454902265949523 l0.15674396963615056,-11.607341542867877 0.5611583527218531,0.600252854872421 m-24.68304085202274,-26.204064315207447 l5.758854256253329,-0.7133852838508453 -2.1617994869609656,-6.554734386914169 l6.744559169628488,-23.963107880740026 -3.7485004160815305,7.202852494547558 l-5.28476813560461,2.3129318423116794 -6.575411375929909,-1.2876373036368254 l13.450642346192438,-12.143857394506075 " fill="none" stroke="black" stroke-width="1" /></svg>