<?xml version="1.0" encoding="utf-8" ?>
<svg baseProfile="full" height="171.10086538080932" version="1.1" width="143.60964752853124" xmlns="http://www.w3.org/2000/svg" xmlns:ev="http://www.w3.org/2001/xml-events" xmlns:xlink="http://www.w3.org/1999/xlink"><defs /><rect fill="white" height="171.10086538080932" width="143.60964752853124" x="0" y="0" /><path d="M83.38848797947917,34.30460726647554 m0.0,0.0 m3.8431088097560115,-9.30460726647554 m-14.993079537079902,24.481531934617795 l8.269803345887647,1.8948247779511556 5.033323779357693,2.0402601792058244 l-10.596504221670676,24.805374314731548 6.950154134363229,5.071160601139614 l-4.8986849623979385,17.264629738020165 -15.950787460079585,4.413761765461348 l-9.803844433491529,4.605191046717234 -2.5871346976083,6.2175351921625515 l-6.432498652982432,7.006296405552994 -1.3245957543635027,3.295208663799566 l-11.540338443691596,-1.0053385083903243 -4.357409885478287,0.5801837017937955 l0.37514913329205657,9.828441560607931 21.863307697179604,5.522299370144967 l9.832074946298235,-34.86577653419787 -2.349524991367349,-7.166591017745919 l6.649771337069961,-9.081086819556642 0.9900965736435731,-4.590818259783673 l-4.474336877717472,-0.1597069073400251 -0.39751155306799957,5.187540710346244 l15.435019769604956,5.604363255443721 1.203710045126933,-3.4697115226829736 m1.3346647591225014,34.45432802214553 l4.598655374747646,-1.9581757379799225 6.877043053003005,-0.8578998444694552 l9.51898816689517,13.628662076079362 4.489805385043469,4.292974972089432 l-2.0353093517242704,3.7744186230325205 3.3249684753659836,0.2869836219128612 l16.37307558601525,-2.2683954644805358 -1.778581418001639,-5.612838811504959 m-11.787889877280907,-14.890857120606169 l-0.5570127937951475,3.6747125553514604 4.609569254700563,-1.2770687940595686 l1.6793549877480562,0.767009108735199 3.002944443646559,2.4607287945212373 l-2.3409959563853957,-4.907537921785847 -11.366902021317586,-6.107541122627451 l-5.339258979286643,-12.207305662596507 -3.4520372933667045,-11.023979855144152 " fill="none" stroke="black" stroke-width="1" /></svg>