<?xml version="1.0" encoding="utf-8" ?>
<svg baseProfile="full" height="319.62802143218306" version="1.1" width="185.47360726637865" xmlns="http://www.w3.org/2000/svg" xmlns:ev="http://www.w3.org/2001/xml-events" xmlns:xlink="http://www.w3.org/1999/xlink"><defs /><rect fill="white" height="319.62802143218306" width="185.47360726637865" x="0" y="0" /><path d="M34.43714298626517,294.62802143218306 m0.0,0.0 m-9.437142986265172,-28.58041529470926 l20.374004510729442,-37.88341563200389 13.939176213945235,-16.20273399971034 l-2.2698219327853946,-21.386360030983543 1.4974529103506051,-74.66230954675973 l8.563606295427189,-8.937354116563418 26.317154205841938,-1.3300777152262113 l16.752650369786018,-33.78984426709968 10.706617081028572,-14.531531169058876 l14.152327071039506,2.567987814223718 11.345575746169809,-11.38321054028192 l6.062943326037926,-19.381622649079414 2.89820430275058,4.251859134975599 l-0.6102090817576491,9.78948745631475 -2.104140607109778,13.689824242371275 l-5.343138833929541,11.154821534448352 m-2.74091786059664,-21.22849554541047 l11.0663390302155,3.312027376416251 4.865784519235323,3.229021033247828 l-6.902421783285186,10.324480269838809 m-43.84422025039069,-20.407871564468653 l5.994737844218397,5.6043814650032235 10.982724971375903,5.344846363168252 l6.700696653070645,1.8924999674367942 13.644127600068803,4.076170043619985 l3.1712737971244365,3.5822674289759764 5.7942771802340225,4.480791915863399 l-0.7437239215677434,9.863686489988028 -2.0139425900674226,0.6840476793853589 l-3.3872436692501466,-2.752350687514107 1.5265548302176735,-11.275779657107883 m-29.60558427306463,-39.742849231483305 l-8.533600752135154,15.144590098929003 -3.1009772419126063,10.241024976035845 l2.6940640493182024,7.881620302485066 " fill="none" stroke="black" stroke-width="1" /></svg>