<?xml version="1.0" encoding="utf-8" ?>
<svg baseProfile="full" height="247.99102946838076" version="1.1" width="109.74888915533542" xmlns="http://www.w3.org/2000/svg" xmlns:ev="http://www.w3.org/2001/xml-events" xmlns:xlink="http://www.w3.org/1999/xlink"><defs /><rect fill="white" height="247.99102946838076" width="109.74888915533542" x="0" y="0" /><path d="M31.165815020114948,191.1579450616927 m0.0,0.0 m14.391216381202598,10.741547391259555 m8.191444466036527,-10.055509878414279 l3.4342550782739,-26.073502950363252 -16.587398333865888,-36.15482120240346 l-3.7092064078071707,-27.732695280403057 5.317315978672322,-7.124878856706843 l2.9593443385719,-3.8678575600966285 2.304737859880414,-3.7834475420542337 l11.080725229731497,-3.1527789868142113 11.11715107826637,1.815633730191254 l0.21623006271583478,2.7174258268185363 1.9139322661266784,4.54830914846484 l-7.5044928930104655,4.739172309679379 -6.450400490847204,5.469216173060525 l-4.408239301597804,2.6937069729709795 -6.090233762662168,-4.343965447437662 l-8.83206308046708,-4.75052013684484 -0.7077899011160018,-6.965955588272634 l1.7019455517188713,-8.938369958725549 9.285898993203444,-4.366335158790523 l6.872918074311989,-10.261825227989727 -0.5381426415498433,-7.797905499470961 l0.03911243766802297,-9.596380644376818 0.3691716533196815,-3.5897171592512045 l5.7088924103923695,0.07154573010163534 2.13437657742936,-0.5778602752805334 l15.412438517860462,-6.325139088522432 5.959933992761856,-13.495035902020552 m-18.81029134516681,151.36422108364678 l3.39559599428021,1.659762174807175 14.344470713688233,6.868990516817706 l-4.901079488308168,5.357715915875352 -18.132345084152888,14.033587987459459 l-2.0307331589834097,6.606969450065579 -33.61450678669259,12.0997823397087 " fill="none" stroke="black" stroke-width="1" /></svg>