<?xml version="1.0" encoding="utf-8" ?>
<svg baseProfile="full" height="242.00566185054143" version="1.1" width="139.8413997629429" xmlns="http://www.w3.org/2000/svg" xmlns:ev="http://www.w3.org/2001/xml-events" xmlns:xlink="http://www.w3.org/1999/xlink"><defs /><rect fill="white" height="242.00566185054143" width="139.8413997629429" x="0" y="0" /><path d="M25,119.58614305652807 m0.0,0.0 m6.158899790103344,-10.006968410268353 l14.616035221118421,-84.57917464625972 16.32892753546488,4.919321545135207 l1.2161397171975636,4.098778934903158 3.824872238824753,9.431313800792354 l1.5077955379333292,7.394199974862194 5.716151802442195,3.931754430538671 l5.211734060156849,5.582501409109096 5.183119599050044,9.775374176647944 l3.7440742654571713,11.604973358628161 0.44432172912348605,2.376280377031633 l7.6409356775308055,-7.130219181398389 6.638604571115729,-5.556241976147329 l9.781408945905204,9.125934295983472 1.828379071519121,11.182722462835605 l-1.2973609407150613,11.275827114695637 -9.885051274571707,9.217499099205684 l-26.08981391682932,0.8235084997081454 -6.577740008600306,0.536126314450156 l-8.912165646405665,1.5924818313859186 -12.744381413598067,-1.6283498530895975 l4.963025358856347,-3.851132837056479 4.663846107494278,1.2475938683822472 l4.364245854341601,3.038323008074733 9.187901562774424,5.008417500555418 m1.0936833565204809,-5.249513530762677 l-1.4144259789708646,-2.5394173167963294 10.769356286663001,-1.5868657140730464 l7.892007947441956,-4.566967499395267 m-5.480741284836988,7.99735587967819 l6.088723440676943,11.770211332981841 0.1563709001879556,6.570029154192321 l-11.865127629470948,13.24836700954597 -3.7787203025372507,40.91304130070931 l-11.984769882266487,4.69655544972194 -4.852214883810711,4.461297815670745 l1.34139226877448,7.783299259569801 -31.7359278240305,14.511280554264998 " fill="none" stroke="black" stroke-width="1" /></svg>