<?xml version="1.0" encoding="utf-8" ?>
<svg baseProfile="full" height="136.62772837722366" version="1.1" width="115.71324892339568" xmlns="http://www.w3.org/2000/svg" xmlns:ev="http://www.w3.org/2001/xml-events" xmlns:xlink="http://www.w3.org/1999/xlink"><defs /><rect fill="white" height="136.62772837722366" width="115.71324892339568" x="0" y="0" /><path d="M66.99070320175629,111.62772837722368 m0.0,0.0 m5.166754212620083,-33.86543491108336 l3.403656393096992,-7.950194156218315 -0.6878209568340441,-15.154035515352987 l6.2035868158855765,0.46530896266740285 -1.7316230907971446,1.967356438643083 l-2.793050072015356,2.9593927888547955 -5.51347172864469,5.008348857732989 l-4.862969145425626,3.0320020949155717 -7.66167593762527,-3.512023262543591 l-5.9483775597030935,-1.1713077072290345 -0.2546885676063759,4.242912925422222 l3.8350632827151347,3.448221359461577 6.986209421918088,3.597547301396305 l-0.664304780314155,4.587249890506822 0.8782489030511372,6.128701316683734 l6.692179172838431,5.848739652089462 11.108251806042379,1.0088908785989847 l0.0037862013102318674,-5.234342331847698 m7.142036003649825,-35.27026195902423 l-5.008672796059046,-7.335444920948295 5.198757067524943,-3.9444587353181264 l-4.0752350897023595,-3.0390617727468205 4.8618518350708175,0.955227543998637 l1.4440543306429223,7.835654282326598 -1.4582871071334904,0.7603709959858307 l-4.668716275021879,10.125731961774024 -15.713986557409003,-4.359759870255228 l-7.801141319302177,-9.409951195838625 -5.668537414665162,-6.7538771758394365 l-1.500029400496819,-2.380707533574015 9.561534985904988,0.2668440349580877 l-5.90583294086734,10.540664339956368 -4.2167140814958985,8.328675041032568 l6.215984887036186,4.8885084967695125 -6.7862088771980655,9.189510723082082 l-16.230374219637113,-12.794883694781106 -1.8653632485055338,-7.926056008507787 l-8.647797274466374,-0.17284709228666317 -1.0277800801380121,-6.493583844895287 l5.36121340246,-13.616247875919838 0.8890506612215349,-1.4291086998698594 l-4.954025037783593,11.395370480445157 " fill="none" stroke="black" stroke-width="1" /></svg>