<?xml version="1.0" encoding="utf-8" ?>
<svg baseProfile="full" height="159.83934997935768" version="1.1" width="147.10020336301127" xmlns="http://www.w3.org/2000/svg" xmlns:ev="http://www.w3.org/2001/xml-events" xmlns:xlink="http://www.w3.org/1999/xlink"><defs /><rect fill="white" height="159.83934997935768" width="147.10020336301127" x="0" y="0" /><path d="M67.95944118770112,25 m0.0,0.0 m28.545722180074947,38.41698081931732 l5.627481451595827,-6.939077702961792 -12.850193904248483,6.671908102600313 l-3.907416987174844,8.312286080848091 4.343901785300154,3.4545969973961586 l0.1972412844007551,15.487465861959466 0.6567761832702801,11.026465193720538 l-0.6275494280344032,9.835531211501163 -0.9428204938425286,6.753240546099574 l9.598361359733868,6.9305769169670395 13.279059692840866,0.3919962722723842 l-2.01017350132883,-2.276918853362647 m12.230372552722555,11.774298533000053 l-4.123757509517491,-1.7579014058219329 m-21.58239074700683,-25.4374382288363 l-0.4283522917868735,-3.962194332244361 -3.7589411389638374,-8.788108636763186 l-2.266739881244623,-3.8139479601897 4.540471540624671,1.9400201522183513 l-1.6104691421750288,2.514888082546196 -0.6176577602680022,3.529910534607401 l-3.899066493828267,0.09802126339440997 0.3176929167882375,5.2740903281653955 l-8.394162958012528,-7.70168389319448 -8.085406138511775,-7.394871578674126 l-14.807143702511755,-15.673023785844924 -2.4713434786055553,-9.899418121203325 l4.739189619897335,-8.590102843020727 -4.981653339768002,-6.631062965157693 l7.187916559039886,-5.1415615861345625 0.5259585594820495,1.1116014066919573 l-6.716551749956759,18.153558932671974 11.902518850492493,11.327299032709465 l-4.713355270611729,0.4222704611438821 -9.738742667474622,-17.091372812639147 l-14.156620852417499,-4.838165459905295 -4.519695378048943,-0.9315230967523134 l-0.9039245610233966,8.082220717147818 1.206730991454621,4.855011785097302 l6.923056408047361,-0.7474926207756588 -5.65263045872941,2.0164826375450544 l-11.01513328837501,9.987193782116261 " fill="none" stroke="black" stroke-width="1" /></svg>