<?xml version="1.0" encoding="utf-8" ?>
<svg baseProfile="full" height="139.95494984315658" version="1.1" width="112.85588909732141" xmlns="http://www.w3.org/2000/svg" xmlns:ev="http://www.w3.org/2001/xml-events" xmlns:xlink="http://www.w3.org/1999/xlink"><defs /><rect fill="white" height="139.95494984315658" width="112.85588909732141" x="0" y="0" /><path d="M74.53677859072332,85.5178902783008 m0.0,0.0 m-0.8922623920242123,-3.9545493565039824 m4.579980360218938,-27.948034564046942 l5.4173871274282455,-2.634635347156778 -10.50637381437669,8.89878650391623 l2.1690393524028537,8.485184079298778 2.1388774382482603,7.917640635531137 l-1.1494101516874904,5.6389024874398075 -4.079251011561645,25.54100532290051 l0.8515140868531513,7.492759803477035 -2.0288511876736,-11.90008501085074 l-14.157254541926587,-13.48071302610666 -4.216811827571198,-2.868651453511758 l-5.242595536319109,3.5167785473764135 -12.475858458485044,-9.850918402658328 l-9.944908034249197,-1.9882010297017016 3.3421781078454993,-1.7740886952249424 l8.398607869769796,1.2468066797212252 10.991307220566009,-5.928276312092906 l-6.745014550106461,3.0346782149942286 -5.446361777571773,3.35425584988421 l4.222189735809248,6.529924579175213 13.099768400752279,-1.1087578617156784 l2.576706015246092,-4.523159043863982 m-2.9883872447502546,-54.214542878581184 l1.1932414502147182,6.9324174144614465 -1.9200321971851713,4.081784063107783 l11.480231254659511,9.926589762432888 8.88893401797309,-0.8829221912140406 l7.2967174072472405,-3.372197700075672 4.82688840643851,-1.5581290477952048 l3.638914980413072,2.1336217343938797 -7.144235829785664,2.137768018250462 l-7.599072368957139,2.7189769202386027 -9.85645706705968,-0.7389006780973552 l-0.45928596704347957,-0.8943575375153182 1.1901434984331871,4.545571241501479 l-10.289846877192721,5.50164545723542 -3.545978522434033,2.5603083851513855 l1.7289609888878343,3.516369407687826 2.506911459638387,-1.2975120280896228 l-0.9213863521399623,2.528473566640044 11.757354477823835,13.343614128442992 " fill="none" stroke="black" stroke-width="1" /></svg>