<?xml version="1.0" encoding="utf-8" ?>
<svg baseProfile="full" height="402.86227785450023" version="1.1" width="108.15995081295763" xmlns="http://www.w3.org/2000/svg" xmlns:ev="http://www.w3.org/2001/xml-events" xmlns:xlink="http://www.w3.org/1999/xlink"><defs /><rect fill="white" height="402.86227785450023" width="108.15995081295763" x="0" y="0" /><path d="M42.16544731988752,365.47717343991235 m0.0,0.0 m4.31146137642964,-26.911810857901887 l-4.616169962686816,39.29691527248978 14.102691005977718,-23.29292097345228 l12.040323839012618,-11.516254036668908 m4.623368669753861,-101.6411398000986 l10.532828564583081,-0.6931126399817001 m-46.334306703572956,-92.6322628033215 l-2.0020311625576417,1.6203072764664057 -3.625911632999706,-2.6951872543894737 l3.5872853711671397,4.076186729843785 2.068040787950919,2.9069670807638834 l1.939511948193291,1.7003807553239725 3.055055560224147,-0.5728377834764826 l0.7150276764144214,-3.94351484418115 1.2528483835084696,-15.76209669011512 l6.804774255047931,1.819894618058131 3.2028943735804885,-0.06992298768260075 l-7.730456085504169,-3.6355945595692782 -3.0003726712334067,-5.46013822284016 l3.0171462412340877,-1.1488065236809424 1.038065933067287,-6.671606745233836 l-6.19775339466263,-6.246749529529632 -8.474706151296232,-1.6499360225426045 l-2.1300711272534816,-11.348708012006414 1.0553096057437754,-17.539402879956548 l4.96752790876843,2.197620081544409 3.7233582025721157,6.861371122783135 l1.9929090053883962,7.800521814951091 1.4316087487274691,12.13549557334717 l-0.7419643390154707,3.2058601673756457 -5.070013154063669,-2.0533725731277372 l-8.869094735394961,1.8775176988479119 -0.08012653488177174,-0.4737248793191917 l3.120900892044408,2.0644255548383788 6.323317714393515,0.23959959400636388 l1.1816337078289396,-0.07055697147037354 -14.380359436376757,-9.93873707843122 l14.163092096195886,-82.31184211157472 " fill="none" stroke="black" stroke-width="1" /></svg>