<?xml version="1.0" encoding="utf-8" ?>
<svg baseProfile="full" height="136.93272281085896" version="1.1" width="111.53079157267709" xmlns="http://www.w3.org/2000/svg" xmlns:ev="http://www.w3.org/2001/xml-events" xmlns:xlink="http://www.w3.org/1999/xlink"><defs /><rect fill="white" height="136.93272281085896" width="111.53079157267709" x="0" y="0" /><path d="M64.63532571677393,59.67634255461143 m0.0,0.0 m-8.700382190726362,-13.164578772104527 l-2.027960429857181,14.845710677288407 -0.9030417800452567,-7.993633243583786 l2.4925093725310266,-22.63485853023866 3.367360252888763,-5.728982685972868 l-0.3685579158060878,0.125113981910029 8.798489094690822,5.726498041956074 l3.657904585770757,-1.196947597554682 0.3483347169709061,2.7816653263921833 l-2.125299551120304,2.4603293663800474 2.080427102405788,3.8805902180395657 l-4.9894999495314485,10.336068395355046 -3.149513078309353,4.908155244674277 l16.60476833141904,3.432937144046769 6.7491365858536865,-4.383980003292273 l-2.5752904218591435,-6.72957370216432 -15.556871268519998,-0.9268958206804401 l-7.5424576591377805,0.8748317698383965 3.3938935296835857,1.9460673082544893 l0.8762889353284983,21.792332148577287 6.063141565942603,6.187915533400742 l2.2831150748849143,-5.978658737428485 1.2336742064512416,-5.914516571988267 l-2.294619646750363,-6.076004251752991 -1.1938454073420863,-8.513854659411285 l-0.06544560537194488,5.435560092379446 9.538439913479566,-3.271322967576101 l1.3462996293016931,27.734751858382456 3.5491397950137147,17.784947820344453 l1.0053280676638576,-0.5182666357506901 -4.598072662582056,9.342014934943224 l-10.186156869373427,5.3326433176330985 -8.53887605997303,0.36032125595093945 l-8.002065781139454,-0.6210399146307002 -2.5975768679156808,-0.531713556415617 l10.378092106740546,-2.153799900858275 5.801374669695072,-2.6330385022755474 l1.366686864153609,-1.9314618042825904 -22.961726113032523,-29.861912376394464 l-13.488808989666289,-1.0925166492461247 -8.70366186958386,-4.730406338218662 l1.2134016182166778,0.8163090949104315 " fill="none" stroke="black" stroke-width="1" /></svg>