<?xml version="1.0" encoding="utf-8" ?>
<svg baseProfile="full" height="107.2625310138279" version="1.1" width="138.98581405902922" xmlns="http://www.w3.org/2000/svg" xmlns:ev="http://www.w3.org/2001/xml-events" xmlns:xlink="http://www.w3.org/1999/xlink"><defs /><rect fill="white" height="107.2625310138279" width="138.98581405902922" x="0" y="0" /><path d="M25,79.62660035298498 m0.0,0.0 m7.535245152814549,-27.799257284081733 l-5.869544850761069,-1.3170635722786688 11.68403998708432,5.999799006288474 l8.059050119362421,-8.917466489652101 8.589932676545125,-0.07189487420979773 l1.3759568640822606,4.190925012206256 14.106726780717231,-4.906485897219907 l0.06058801661389619,20.240919993672154 -3.986224198387434,1.6072011013853393 l-18.325347037395066,-7.9316254770104395 -7.3051876280808985,-8.808524831704007 l-5.433176390302246,-1.9506920261623597 5.329763669000382,-1.0235646873799231 l12.75219073322668,6.704154391923168 3.8429855467235754,3.147038126552224 l-8.444668586620221,-1.3932947583289734 m-3.3649059129056402,-21.655450828835818 l-3.2935559091487177,-4.673555545946304 5.562159861966565,-2.1162148255480835 l11.015593837787938,6.512978032868689 1.1501528419974576,6.595224195214222 l2.9060058600534,4.439064030216402 0.4395893235772253,2.032397347875741 l-1.5476104877719068,4.178220774444751 7.511686964240454,1.5689196703519377 l4.18400314336704,-5.162852277824701 -9.894297615259983,-0.9662185383922134 m9.690850794286984,13.181261909523728 l0.8161953624511853,3.7280145720352675 -3.7179822836382193,4.904224188151367 l-5.690361546855846,2.3621119782566007 -3.8275413529664695,3.2805149413601145 l5.936081137269646,3.0175469281762877 17.34155727931495,3.6395763749152326 l-2.0552875837992173,-2.2493622238210706 m29.85913315690082,-43.8731402364099 l-1.428978847040988,1.3645545816391358 3.420995180579056,-7.633734286869244 l-8.280658154923035,-4.870848848366808 -4.27160567441873,1.187633930032123 l-3.422533512302538,-0.5472773677717797 5.942264801059906,0.29202502928915736 " fill="none" stroke="black" stroke-width="1" /></svg>