<?xml version="1.0" encoding="utf-8" ?>
<svg baseProfile="full" height="224.43596271496855" version="1.1" width="98.87499293217034" xmlns="http://www.w3.org/2000/svg" xmlns:ev="http://www.w3.org/2001/xml-events" xmlns:xlink="http://www.w3.org/1999/xlink"><defs /><rect fill="white" height="224.43596271496855" width="98.87499293217034" x="0" y="0" /><path d="M48.51380287933621,25 m0.0,0.0 m-18.88327014677094,38.77103537843006 l15.58892991177545,6.740623101216023 3.4273096742168896,1.0608748295457648 l-4.528065735699538,-8.66234161739738 -5.733186731683137,0.7842730988700547 l5.961132053283567,2.9097680351471844 3.2811896345014926,-2.6988998145350256 l-9.041507479251344,-11.582243490057396 m-9.500929777779872,18.00957977657716 l-4.085404281928786,7.174633342392787 5.981458136640277,2.239851416607944 l9.875539056804895,13.672728326012802 0.270730923396906,5.357335302692352 l0.7594894982621976,10.941252260260612 5.296257609671187,7.215771693010843 l-6.087835261497624,3.198651511271469 -9.612965898121383,3.0116023220958867 l0.9998646765451924,5.391253583834745 -0.5040597730558558,-3.36512559651616 m-2.397544183537519,-43.870553627274994 l2.255862352697497,5.4065179732530995 3.0192947721859773,2.2790720233452646 l12.456777688527799,-3.345924381719774 0.34402923310203604,-6.200505411667714 m-9.976405902247377,38.14806439169678 l3.5286331295353395,1.586832901435274 -0.6155447336113808,10.715165032312962 l2.3222811842424997,5.018008893541303 3.040610243284849,1.106161118032029 l3.021710975192197,1.7798300700422005 2.9620119832338387,3.2394547358384767 l-0.3373553346970504,5.589253876242887 -5.632864614128723,7.630020083074595 l5.069651835144595,7.100961059091347 17.219585663331483,0.7231120537073057 l-1.9223418371739087,11.829121630594047 -0.9025874519223324,7.106604056600131 l2.6490913734768253,8.215466031545876 5.791617586887909,8.176185851882044 l-2.299460266700156,2.0324908939356923 -6.227312207748797,-4.558809305799884 m-8.702584230438939,-66.79687473280777 " fill="none" stroke="black" stroke-width="1" /></svg>