<?xml version="1.0" encoding="utf-8" ?>
<svg baseProfile="full" height="265.12795993268196" version="1.1" width="182.74386265617864" xmlns="http://www.w3.org/2000/svg" xmlns:ev="http://www.w3.org/2001/xml-events" xmlns:xlink="http://www.w3.org/1999/xlink"><defs /><rect fill="white" height="265.12795993268196" width="182.74386265617864" x="0" y="0" /><path d="M111.1472605376467,237.9805304196228 m0.0,0.0 m-3.215944270198765,2.147429513059147 l10.089066866541707,-36.20686820213306 5.341727407172881,0.23550419727735028 l3.901013465311761,3.150722815063867 13.290749913133066,2.0671627419260385 l2.307502238814787,1.3575198832813185 11.106384191745686,7.156571242876498 l3.4445383456065497,-2.5635695116148125 -13.501960035065483,-16.876868879028795 l2.19947245998381,-8.803997654026245 -1.5010147070625013,-10.134695520837319 l13.135066242548454,-7.513802738806015 -13.340722993487523,-4.948372385363176 l-4.362676314260022,-6.9800949523486056 -4.52634885515825,-8.54702285563229 l-6.46673129952757,-7.955252365305858 -13.902011591863099,-8.460620778356578 l-7.666088993054932,-3.9887565822715536 -13.09934092935925,-10.142362922504235 l2.7449167778895465,-10.138268017561613 3.114943715782702,3.9669596545532237 l-8.745518928852242,0.31980384843772636 -0.3081595198189868,-1.483229179218395 l5.617913046142313,1.4425680853904066 1.3239879018696665,-13.580636278711602 l1.5937777364248489,-8.828178709441191 5.7595215806889914,-14.088894555200161 l-2.7111842965715427,-4.226254343799146 -11.385784868916971,-3.8652748188199553 l-0.5448469296779457,-5.248788774190138 3.92044098152892,2.660566270969576 l0.24251619688967108,7.455392522746389 -11.278961692766858,8.144069647517098 l-24.28972066803403,-2.485138615258413 -14.446278017623172,-1.212043831651419 l-5.888403305046233,7.785382476745271 -14.099101389376667,-32.89335115383862 l3.579153066176387,-29.69783969354748 " fill="none" stroke="black" stroke-width="1" /></svg>