<?xml version="1.0" encoding="utf-8" ?>
<svg baseProfile="full" height="264.3764126291636" version="1.1" width="151.84354327444663" xmlns="http://www.w3.org/2000/svg" xmlns:ev="http://www.w3.org/2001/xml-events" xmlns:xlink="http://www.w3.org/1999/xlink"><defs /><rect fill="white" height="264.3764126291636" width="151.84354327444663" x="0" y="0" /><path d="M25,239.32302065642898 m0.0,0.0 m1.192300580889154,0.05339197273460661 m3.874350168352464,-96.15859294501523 l8.405203133144338,-5.848185717574735 5.646420558097449,1.5684138944720454 l4.688370528170567,0.9380644258221821 3.2790842068203183,-0.007686417783135564 l6.969977712599502,11.616620132547043 9.465616641230907,4.919216907247241 l15.839666595962482,-2.6585340341328356 8.954436193420431,-0.7799430867448918 l-2.2843381070444817,6.518355012416013 -2.7102535989055263,3.6469532558028805 l3.330846503453091,0.8975168031281369 7.382515267696875,7.891383240496866 l1.9818274992409524,2.154778875966011 0.00972074004966135,1.361849482750701 l0.6501759887454711,1.3256093937688855 -6.743404283870536,0.97754800037916 l-13.601758369420516,-1.7188788940758744 -17.16566737673853,-2.294284904571646 l-9.885812874622742,-2.2771934983831796 -3.8898197915054222,-4.469639478710068 l-1.497848757390251,0.45278814558772973 8.16663702652565,-3.2558794151452783 l12.268846589861132,-10.305533697834711 4.076870689108416,-7.704911472038911 l2.382206269753476,-6.341218734866457 3.946384552748124,-5.288719349129863 l7.221765401896165,-10.175446998813568 13.192868056047663,-48.984817509338825 l8.71048590779215,-19.676167732473505 0.40740034796390434,-22.512219553566524 l5.562346244199681,-7.017034688048641 8.722314184993337,-1.1706220713005964 l3.293808845181272,6.171023647473593 -21.912624736689217,12.471945850608206 l10.70056724380391,3.46747264869622 m-13.059006164422883,4.01996907979062 " fill="none" stroke="black" stroke-width="1" /></svg>