<?xml version="1.0" encoding="utf-8" ?>
<svg baseProfile="full" height="140.24476854403562" version="1.1" width="137.70517824132497" xmlns="http://www.w3.org/2000/svg" xmlns:ev="http://www.w3.org/2001/xml-events" xmlns:xlink="http://www.w3.org/1999/xlink"><defs /><rect fill="white" height="140.24476854403562" width="137.70517824132497" x="0" y="0" /><path d="M91.99449564694974,84.8297953639599 m0.0,0.0 m-2.093746198792843,-59.82979536395991 l7.183826187654121,9.193521868903858 5.383712600675981,5.601851908694044 l5.666198802763179,2.0929157856080183 4.57069120207477,7.66942769890093 l-0.02174756667210953,3.373730978260819 -21.039126831315798,-15.283900539008625 l-11.554971671088296,-2.0610899456514895 -6.1167902502635725,1.314656009548011 l-11.91422179597868,-4.960521378960667 -4.375370858512563,1.4833950698299219 l-4.117254962101084,3.917764759886998 -13.997291692369044,5.435145467315512 l-8.794952637030642,-2.1474555893102147 -4.628443515254813,0.6084116962590663 l-1.1450064607383486,5.176080346255685 1.0838768737730287,11.723280045787824 l6.690715442685652,0.1780866395107411 18.63521752247517,-11.601103521595034 l6.820058840241566,-2.5165267819385004 11.125998244102508,9.237744149850714 l4.782799608294559,5.762626930155513 -10.08441673035002,11.598825969932955 l0.9796765828565215,8.209005904534765 2.2793393467333134,-19.47820163065027 l-12.430330102376095,-9.44256938632217 0.19649047574185563,-7.66773464268709 l-4.879386843339866,-6.136687392476022 3.106729759897122,8.374167787226368 l-2.9845724510507003,6.699780532915264 -3.091187678632401,18.42679211674769 l2.1877814061397394,5.021965427846282 11.386655719094847,2.428543388947461 l9.804803029806141,2.9392466185953663 -1.1403557631546528,6.476617654364802 l7.514135638691604,11.537458707005163 -8.349765624982982,4.509946886426488 l-18.852617876080142,-5.503963830361874 -0.6675499197175239,3.5057953279897363 l1.4392623553704937,6.401646570635175 2.3965088288246847,7.377632472868429 l-0.555165672058815,0.7684584621939613 " fill="none" stroke="black" stroke-width="1" /></svg>