<?xml version="1.0" encoding="utf-8" ?>
<svg baseProfile="full" height="108.07172251070034" version="1.1" width="103.39778291160061" xmlns="http://www.w3.org/2000/svg" xmlns:ev="http://www.w3.org/2001/xml-events" xmlns:xlink="http://www.w3.org/1999/xlink"><defs /><rect fill="white" height="108.07172251070034" width="103.39778291160061" x="0" y="0" /><path d="M57.81317219675979,67.39242509093845 m0.0,0.0 m-32.81317219675979,-36.3593599164138 l9.086495929585896,-4.311102016705523 -0.0720956935843789,-1.7219631578191086 l-1.6383968959506534,10.17484398228067 13.336218855829166,1.8282755491159997 l-3.2202110034008147,4.573340864080913 -5.708237981100004,1.8956535008473696 l8.885405336836122,7.03756199254435 17.544875334094527,-5.549283044469931 l-0.7066855613189077,8.982562544267875 -8.114682932980836,-0.5283614202429295 l4.3777642988919725,5.478929195407553 1.2706807570457068,7.926078719269861 l7.857527308951299,3.2809631311440883 -1.6444496767025012,1.3625850002133373 l-1.9085615458463636,4.228037473955172 11.461096625917152,7.380535022285995 l2.591039755333245,-2.526669074527448 -2.8184823097068925,-6.534680970699569 m-26.00410711360338,-22.202143122078038 l-5.350993248274072,-1.6442442819266239 5.051529396381192,-3.878363110441659 l6.798446193466137,-11.664472091533899 1.8191704675765592,1.3796277161563952 l0.33170603844711355,3.7998416744041275 2.495011664596328,5.363995613713601 l-1.6001199535855282,6.425125082769492 5.741887069198435,7.956851037559327 l11.919177225605756,1.380479870886118 -0.41105630665402276,-4.781188545699667 m-24.347453125094287,-5.788411590076141 l-6.630895807333764,-3.9724174550742775 1.4100851543111896,-5.627258110094774 l3.697608070934556,-3.1763101832522675 3.1358555570950424,0.88011234735551 l0.8450692289439311,4.511683060000718 1.5565960377713424,5.358013306597341 l-1.7590296737368478,4.145353166167844 -1.5886169705878868,3.516182996836925 l-4.8012707083941635,4.175599655091687 1.3093120733829038,-2.4044647016113947 l-0.7511152763866763,4.1528657789702015 " fill="none" stroke="black" stroke-width="1" /></svg>