<?xml version="1.0" encoding="utf-8" ?>
<svg baseProfile="full" height="144.38381420281968" version="1.1" width="108.60783960553191" xmlns="http://www.w3.org/2000/svg" xmlns:ev="http://www.w3.org/2001/xml-events" xmlns:xlink="http://www.w3.org/1999/xlink"><defs /><rect fill="white" height="144.38381420281968" width="108.60783960553191" x="0" y="0" /><path d="M42.619171071852776,119.38381420281968 m0.0,0.0 m14.253678945568948,-17.07252102665183 l-0.8406489348191004,3.8801531685613013 0.25279925268006015,3.232616848447271 l-6.5559002138041285,-1.6576381905346975 -4.556884562161741,-3.2884051016004734 l2.2145165809685663,-2.52392051987827 6.26988928495012,1.3486743067353435 l8.078740187893372,0.5476652000381882 1.9469871106697927,4.116427411386651 l-2.294823574913344,6.425434639247358 2.0673573407396595,4.623377086815968 l14.361972132859751,-0.6904638343501573 5.790984983047179,-3.1999532961448685 l-6.927137953908273,-6.185047650000844 m-24.964857010212242,-22.340320170002315 l-2.651673548808427,-2.819331253791891 4.538670548517438,-0.4381222888529749 l3.8048554784026836,-9.856222289559847 -13.346233462843788,10.30256897614295 l-0.32212240852312757,-1.5531897689981804 3.8592293653753673,-3.222226437453628 l0.11294066439765105,-7.944013201675517 -3.516520456248764,-6.324895054309863 l-6.3072622812193675,-11.515197627550048 2.2878969357702252,2.3275107673336235 l1.7508648495368728,12.28564783763085 1.5371398440545883,11.572435114111405 l0.8222859302118368,4.6225591125194 -4.25983125326292,7.468623225380445 l-1.216594535763314,5.264795259317366 5.458087989699699,2.4719784436372794 l2.4313706893139373,-5.394578126594869 -9.104263578898122,-6.264468257392617 m-12.594685411123864,-16.363806587315974 l2.6486090851002553,-6.654195819976351 5.502058699562587,-2.8562347788550313 l2.227072806245163,1.201759424088457 14.548771712667573,-14.094369174319967 l8.841706176462205,0.1923022032638294 -1.8205325806257184,-0.4059030454047835 l-1.5451842394131299,-10.99351262169169 -11.142149259332642,-12.609807104570676 " fill="none" stroke="black" stroke-width="1" /></svg>