<?xml version="1.0" encoding="utf-8" ?>
<svg baseProfile="full" height="162.67722398895768" version="1.1" width="117.19281091587503" xmlns="http://www.w3.org/2000/svg" xmlns:ev="http://www.w3.org/2001/xml-events" xmlns:xlink="http://www.w3.org/1999/xlink"><defs /><rect fill="white" height="162.67722398895768" width="117.19281091587503" x="0" y="0" /><path d="M25,25 m0.0,0.0 m7.616571646989365,10.216948219024152 m13.00356996419822,45.06123210116813 l-3.655963441551403,5.59574827543665 -0.10021537284164633,5.056508953827777 l-5.001029920418301,-10.606178345325246 -3.724132596917039,-7.648069234276021 l-2.0150282196763123,-7.171439846252681 19.333669479785108,-3.9521506627939256 l0.028967739939399495,37.81793867451308 4.226177644347045,22.343729405485927 l1.5334916952821316,6.071791547743272 4.916664173863898,7.623702714311504 l7.164604821444397,-3.1540137434446116 4.182053520428536,0.8423118753397709 l-0.3182164913500816,3.11817658754801 1.244854698347781,1.4609874666518945 m-9.012486573794115,-82.75906737333538 l3.4435063267318697,11.140989000344776 6.167340896934033,3.359675632253841 l-2.5111374183791746,7.560253024375745 11.239752685182868,4.833934599348041 l1.4809918050121225,-0.4820285518436804 5.280009775231848,-1.810978666507335 l-5.5559865802776995,-9.68041655919649 -7.076933510818428,-4.220007039219315 l0.4750047192033191,-0.3950483062483115 -0.34597461579278815,2.208604539841356 l-0.15939329598720636,3.941228621373084 -4.586789282452465,6.979924115391789 l-2.2204420094523756,11.050097313381842 6.445354112146699,-0.429016438823267 l8.430649451704246,-0.7127068150722038 4.372503031203932,-2.572499882406568 l-5.901164098347905,-1.7881721293486974 m-13.18974010052188,-22.632129400940222 l-0.3896503528139636,-6.968173050925024 5.1764512514168555,-2.967199325235559 l-1.0419449237206342,13.594517069028775 -5.625255269133409,7.168913095989511 l2.883424336374597,5.627322048068701 4.267204324203804,3.0093207106420543 l16.71147689014979,1.0345401027586376 " fill="none" stroke="black" stroke-width="1" /></svg>