<?xml version="1.0" encoding="utf-8" ?>
<svg baseProfile="full" height="112.80617463064632" version="1.1" width="112.48264044319129" xmlns="http://www.w3.org/2000/svg" xmlns:ev="http://www.w3.org/2001/xml-events" xmlns:xlink="http://www.w3.org/1999/xlink"><defs /><rect fill="white" height="112.80617463064632" width="112.48264044319129" x="0" y="0" /><path d="M75.03852134490273,41.75834205732272 m0.0,0.0 m-1.145740377856153,1.8722716566619657 l5.698955111964789,1.6965725907357776 -3.8462481307073046,2.9720779911014907 l-9.079955367621976,4.17456038637447 -10.465823130231847,-3.3467909724994174 l-9.84578657562437,0.09630254362794688 -6.898586696552864,-2.8689130154326894 l-1.750929853435722,1.1911886052203586 1.5332732837417409,3.3766715336795308 l3.7674740425229825,1.5887213445552695 6.461767267646426,6.172324548214464 l4.259650875732956,10.52086717960323 1.824388695605497,9.274361335989278 l-1.8638556513727969,3.246671518251051 -9.791472983187926,1.230550862093177 l-6.88937566158675,1.9449607030213707 -10.52491541147127,2.9054337621263353 l-1.4813407824681402,-4.901679814736453 0.2148999441752905,3.108075242052112 l19.1710108176766,-7.269873121869621 8.76947951562753,-8.412423551597506 l5.927791400721315,-7.970512611568605 4.000774199243705,-1.4931470216761005 l-7.940449768638149,2.8610531486908553 m-5.327559884880473,16.561038152446788 l11.94664262042265,5.945486172144962 7.05024894068949,-3.0000644363598994 l-6.454023425143918,-7.7331731720120676 m-24.11623681113362,-39.515978056685576 l0.016504536526232155,-7.546262862086023 7.099993245935426,-3.4387126973891817 l5.094596544407348,0.8825144349067193 2.700584272008959,9.213205128286756 l-1.9100208491599657,10.759349865304934 8.588145545363215,4.0719636560366705 l12.519945752445878,-4.694074387317687 -7.904151680948075,9.904849292333866 l4.60437603254429,-1.5213506295271872 m2.9303173621977594,-1.5098678723001469 m-6.523799306788547,25.815897071658792 l14.912416128232069,-3.8336153777439974 7.111155311666264,6.933703632869124 " fill="none" stroke="black" stroke-width="1" /></svg>