<?xml version="1.0" encoding="utf-8" ?>
<svg baseProfile="full" height="114.088929990971" version="1.1" width="155.18277094434208" xmlns="http://www.w3.org/2000/svg" xmlns:ev="http://www.w3.org/2001/xml-events" xmlns:xlink="http://www.w3.org/1999/xlink"><defs /><rect fill="white" height="114.088929990971" width="155.18277094434208" x="0" y="0" /><path d="M74.69535054319476,74.99014133755065 m0.0,0.0 m-49.69535054319477,-46.03299336635663 l6.30817405999372,-2.7643379771051224 11.196288877835885,5.542515787570745 l3.0454526513854385,5.298290000053569 1.0776826928655305,5.541079070324882 l-0.5188308257834012,5.706569574857434 7.046723118738347,1.635847232100644 l2.1134077915726373,-5.064535863210957 -9.322854664411288,-8.179213035153005 m-5.424805922994094,23.61319547088354 l3.7065347196591163,1.444963995606843 7.682300396211413,-2.4487546944851766 l-4.512700516505597,-3.8980809364862212 3.723883821924537,15.400477653925892 l9.073896287484628,10.314270504374102 -2.5821502622708072,3.3591743442807034 l1.9044497983943753,4.630320892239114 -1.2698844908678366,-4.045913194357729 l-6.136748480149672,-0.8421877349322027 -2.3390747292799627,-1.1020081434719775 l8.020346221180143,-5.658885616615212 -5.060268867222977,-9.903111863690818 m14.58323365738297,-4.598652220417499 l7.50382514525537,-3.4025015677668855 26.67531099448671,-34.535669649718685 l-9.001248945918844,11.218309164543903 -1.7467236716473822,5.576443856054883 l-3.7980521592961596,6.322110242893878 5.017389338481474,7.65319852767496 l11.25675278523893,3.5249372279919275 -2.181826238973613,-3.087650789449663 m10.650691889033345,-1.4940551972284521 l12.071575004983057,3.3096449114601403 6.420021467556093,-6.591120949201916 l-19.20199090261348,3.932895030790445 -4.375432463846661,0.2810342692060769 l-4.200376786747296,0.17122518377075235 -0.7354670356653383,2.860125914353101 l-3.2750791086551976,2.6590053294569227 -8.865979412448866,1.999862174156205 l0.1462912788692794,-2.950720960410366 0.9617333769413146,-3.4582473138765906 " fill="none" stroke="black" stroke-width="1" /></svg>