<?xml version="1.0" encoding="utf-8" ?>
<svg baseProfile="full" height="223.07211595988522" version="1.1" width="118.6026757578194" xmlns="http://www.w3.org/2000/svg" xmlns:ev="http://www.w3.org/2001/xml-events" xmlns:xlink="http://www.w3.org/1999/xlink"><defs /><rect fill="white" height="223.07211595988522" width="118.6026757578194" x="0" y="0" /><path d="M61.629144362961014,193.71181222678564 m0.0,0.0 m-32.06151017115795,1.1281157628288374 l-4.567634191803062,-0.7839814172870705 9.170556313320212,4.01616938755781 l-0.9124767456132604,-2.041000778484573 m29.046934591883005,-119.61899339122755 l1.3686039676591966,2.5341821782854703 9.28629231891489,-3.4508472329903954 l-0.3351480593119266,1.0443894706654218 5.618239813684696,-0.6646551154596838 l3.0693488956406787,-4.45750441815196 -8.838395573579863,-6.742976886965293 m-11.031402785142555,-36.71338569914939 l6.170491150442278,-2.961324086407265 17.290192426728705,12.887096426830343 l0.7848536441849487,7.515442068282767 -6.999336647618734,4.0936841664535 l-3.814164139407431,-8.141496977386621 -0.5797637467031808,-4.42455391984815 l3.771808520113929,-0.07293828296001534 5.3451622241954375,1.5796394555352713 l5.278498663820988,2.379424733384271 0.6231801527531989,3.5498796373217036 l2.24441834930857,2.9702531913501864 1.4603947854863686,-1.0021558090717064 l-4.676907802158836,-0.3428434815753151 -17.240974823010543,-3.6302440926745065 l-1.0802094064295245,-8.476652654304214 -2.2920998301851587,-3.447804347605934 l-6.969907588361646,-3.281197358014001 -1.5454711546520277,2.1344195981196212 l0.740092197665913,2.8867023552300464 -4.6057224523319995,-4.446856331865137 l-0.5668320838327684,-1.4069513737488974 1.5077692154714184,15.812174712468376 l4.959714123857379,8.289772089803407 3.6833448743779207,11.261727044873687 l-4.242317736002532,17.198528852844234 11.076330990902392,-5.148675568802776 l7.533945346075153,-8.429835002595235 7.758865990843986,-5.363901480128088 l4.798502431306373,-7.68675983395498 1.7462653435237436,7.051989815315169 " fill="none" stroke="black" stroke-width="1" /></svg>