<?xml version="1.0" encoding="utf-8" ?>
<svg baseProfile="full" height="144.45482930663536" version="1.1" width="124.41938854650596" xmlns="http://www.w3.org/2000/svg" xmlns:ev="http://www.w3.org/2001/xml-events" xmlns:xlink="http://www.w3.org/1999/xlink"><defs /><rect fill="white" height="144.45482930663536" width="124.41938854650596" x="0" y="0" /><path d="M81.35923945913075,93.86074441040233 m0.0,0.0 m3.8256114085256443,13.57682419011768 l0.1748268700920321,3.0064819739280706 1.0611989261713606,5.988507771518262 l-6.192074464288122,-1.9426318355656302 -9.039957984990243,-6.52895193656003 l9.25467015822505,-24.574122157806432 3.058295759152385,-21.016544726506474 l-2.982058054577919,-3.80273776776462 3.8520712503530308,-17.498997864443442 l-4.02987882014839,-2.3768751723657076 -1.9318489514609212,6.923635574628643 l6.706289167195377,5.079305787326692 -0.4079509593083308,-4.762505447812273 l10.079883272587384,5.170162464312587 0.4068321556632244,2.3460505712589472 l4.224239354183648,-28.448345834668594 -4.152884820807745,7.630721979622783 l-9.521363580431839,1.4636008278740564 -10.871103303755449,2.2311429398103773 l-10.32878670697797,-0.32158410050335523 -7.74939282555062,4.815740022472454 l-0.09330996925843549,3.143722841341081 9.840258489958487,-1.9824384507209791 l7.837016000425386,2.277332736879928 5.784882910980292,3.1458227249896757 l-3.7507990424914874,14.128098193385727 2.842087428000418,6.404916681073868 l-11.246887509979157,10.149474042624771 -7.3462528709337525,0.876419627593869 l-8.809835660965039,-2.749539425281883 -10.987395963059535,4.044633030110305 l-8.133391329077925,5.81948931526255 3.3416212282847413,11.272595694522138 l6.1398412716099875,-21.933999162535144 -9.103254014684778,11.027755861054144 l3.14318690503831,8.99032720812113 13.842366542894375,17.14749471971432 l-0.28757093319023913,6.873101999223532 -11.017918935226087,-5.384258052023441 m-0.6731294137173749,-38.11421696909343 m-13.11737244359052,-11.786957528953952 l15.440756118375118,-37.90391090508198 " fill="none" stroke="black" stroke-width="1" /></svg>