<?xml version="1.0" encoding="utf-8" ?>
<svg baseProfile="full" height="129.6441034260177" version="1.1" width="117.14752370607494" xmlns="http://www.w3.org/2000/svg" xmlns:ev="http://www.w3.org/2001/xml-events" xmlns:xlink="http://www.w3.org/1999/xlink"><defs /><rect fill="white" height="129.6441034260177" width="117.14752370607494" x="0" y="0" /><path d="M42.441400028251145,37.61308383320056 m0.0,0.0 m-11.739014134170482,-7.881369342242761 l-5.702385894080662,-0.8657996266494439 8.930812904037627,6.953879522995294 l5.635926842744072,1.792654302208297 -2.3527558537666757,1.4883764029167852 l-6.433486596715845,0.17087183659062458 5.767734338370265,4.476615677454146 l-2.141862741208387,12.671971887681064 -8.069207001542146,-2.402210699797125 m17.829573540004738,-28.80083561270613 l0.9341339732268463,1.240426351198225 10.960839827227753,-1.4576645328495434 l8.034662269179128,4.721006907048928 0.9923777056114431,2.8721952467742797 l2.651190445275481,4.15942045046551 0.7059517209837999,4.685253803783557 l-1.5728471272643065,2.762960075375274 10.07326696333138,2.137025631426307 l15.201212496579775,-1.9429395318747922 -2.687459268394662,-4.716274023608892 m-35.08323366472619,41.899958539353165 l1.1218269120880453,0.8833839557487774 2.184198077909599,-0.06506325561812211 l3.1058031821224796,4.4046669224586905 3.341169535571703,3.549999844834506 l-1.9494663161611365,5.647926092854845 -0.28722691282979795,5.093084141650925 l10.753186975008488,3.551498625344729 3.1648279117221714,-4.214634441621711 l-7.661169862776785,-9.447993080611937 m-24.27013354425914,-13.358228258086564 l-3.290281671472374,-6.35700734399126 9.549471536670497,-10.191616454579068 l-3.088192291472134,-7.217045968845492 -9.660650176000694,-0.8440972179180206 l-5.1700619196942466,3.127420275137317 13.032468759493733,-2.392380397500976 l1.3275356876648081,7.6245406646786895 3.5186695385085396,6.40587983368881 l-2.6442235996319594,9.492642555523217 4.34819226276596,-5.152203402289543 l2.0459931073292745,-2.413413480321518 " fill="none" stroke="black" stroke-width="1" /></svg>