<?xml version="1.0" encoding="utf-8" ?>
<svg baseProfile="full" height="158.5409587139082" version="1.1" width="183.80081398681995" xmlns="http://www.w3.org/2000/svg" xmlns:ev="http://www.w3.org/2001/xml-events" xmlns:xlink="http://www.w3.org/1999/xlink"><defs /><rect fill="white" height="158.5409587139082" width="183.80081398681995" x="0" y="0" /><path d="M158.80081398681995,44.35698462032294 m0.0,0.0 m-43.663748620021366,35.08247202465839 l-35.79701587786227,15.898260682756682 -37.670679309687415,10.114238620427898 l-9.393426802658357,15.299651976613779 -7.275943376590524,0.5790676290063125 l0.5958745050793085,12.210283160122186 27.00498199360081,-26.751549267709517 l36.98854707047513,-31.671813243760813 21.398751850830127,-16.44075042807418 l6.229001212851598,-18.445904430233956 2.35697495985057,-6.734827152519115 l7.536266962890648,-7.107207594537937 8.731113994612445,-1.3889065970726677 l2.332292710531856,4.596947039633674 -5.593910269192614,6.068111327255141 l-9.615635261389718,7.091032993538011 -9.660286444302407,5.325963389953448 l-3.4300910600302967,4.5192982208378565 0.8085759423709966,4.293765194492559 l4.834236560800845,6.199989469543534 8.119633038261496,3.3778020984330994 m8.568676600271923,16.198037950753434 l5.287537970363989,5.190097501511929 0.4831551467742491,5.455542265553578 l2.8052572514033844,12.652983387068153 m-8.311849331284945,-2.0392301598371434 l-12.294251484445743,0.6444663696069682 -3.4821286481046707,-1.2299552754370964 l-3.410262079764629,-4.490436394591641 -0.48080744123907126,-7.282370703334267 l0.5630989428060695,-7.39475704486235 2.6426236512372467,-7.686686658076362 l4.251860137856069,-3.2775528836691414 6.216403562059469,1.5804787875802713 l6.43082513504925,3.1985544160653565 0.40523962380957596,9.881064752843866 l3.096846071271373,7.781999787776634 2.4826444049361367,6.218355648605189 " fill="none" stroke="black" stroke-width="1" /></svg>