<?xml version="1.0" encoding="utf-8" ?>
<svg baseProfile="full" height="149.09392553695574" version="1.1" width="129.507608485624" xmlns="http://www.w3.org/2000/svg" xmlns:ev="http://www.w3.org/2001/xml-events" xmlns:xlink="http://www.w3.org/1999/xlink"><defs /><rect fill="white" height="149.09392553695574" width="129.507608485624" x="0" y="0" /><path d="M56.01264254925218,124.09392553695574 m0.0,0.0 m-31.01264254925218,-28.435015993577196 l8.960652485870948,-13.616771345858659 m8.506976265381878,-20.793647302051628 l3.4315056402336688,-1.6164330205283564 9.306787309006268,-13.626932945580158 l6.583951186479893,-1.1716307719436863 0.6951806800323226,40.58213958669075 l15.157696316355969,-2.343326811383677 11.881141063370926,-6.501484307970311 l4.860131426327914,-7.136243872741434 0.49728926202512247,-6.69383490078365 l5.413239108364146,2.7115194051964213 4.213057742174954,-9.79201416614508 l-15.104768119545811,-2.4515932115350156 -6.39965477075841,-2.03243000121792 l-5.110010464318034,2.4922249673667283 3.458229025352938,7.9435695292919055 l17.147230297092367,7.151676563707023 -0.4634847021838212,0.03373692912476384 m-25.70415674030534,-20.073869271101348 l-4.26603678828565,3.0911770229365834 1.0685188985219989,6.170831577014726 l-5.344964269031134,5.570600754984063 1.6556896326605233,2.651322957506028 l-8.236522734687764,3.7100087692589954 3.5356191307604212,3.3235081044108683 l17.829263122731465,1.006344422695702 -0.71467758201001,-2.404732775090529 m3.0586148211734643,-36.55767280917086 l2.8777947420801375,-5.766394049688188 3.4460148889473095,-2.030558926744994 l-1.571995356719212,2.147470762717621 -0.022873977110485395,5.814202336861958 l-1.544530646587865,2.6875899394545546 10.543872200259242,0.944863760857181 l1.759955250386476,-6.340996728695521 -9.877847048709578,-7.741129715223393 m-18.788471441509962,44.8907589839864 l9.701940587666513,-0.685988862110545 8.69261993014351,-2.8081214838657518 l0.9997688093341842,1.6456263689727157 0.8512562009129169,-1.2108539515655947 " fill="none" stroke="black" stroke-width="1" /></svg>