<?xml version="1.0" encoding="utf-8" ?>
<svg baseProfile="full" height="179.16145909759035" version="1.1" width="115.03769694877803" xmlns="http://www.w3.org/2000/svg" xmlns:ev="http://www.w3.org/2001/xml-events" xmlns:xlink="http://www.w3.org/1999/xlink"><defs /><rect fill="white" height="179.16145909759035" width="115.03769694877803" x="0" y="0" /><path d="M25,39.433153611201234 m0.0,0.0 m9.770580240574063,-14.433153611201236 l1.6780656960248963,4.961461032918053 m15.330864761914675,16.11355806376539 l-0.11925745337845794,18.70030129529103 3.339050402184201,6.306604875343114 l5.688264044965227,7.223708060955607 0.35773287876557935,3.719727306454296 l3.3230483847877346,5.986029285493768 1.9380570327215458,-3.695363735080451 l-6.535261551696503,-5.586781250865618 -0.6083734754738368,-4.856705421135043 l-0.2292933326372916,-1.0568762616635674 1.7929197354998367,-0.7449148429610016 l1.2907953123121974,4.614615547957082 -2.9977467379639,9.596364877284604 l-2.0035650617203773,7.7299385731182095 -1.4921904875948244,8.27422719467043 l3.5424519208349636,8.1264024393418 1.7548095662719736,13.432585233361573 l14.068349616383037,7.540982745851991 7.869243449069083,4.635673807849211 l5.979676592034482,8.39049332990132 1.2994754148997378,9.749426939738512 l-9.477143158313295,-1.4078846197505617 -9.126869608887095,-17.872359003408008 l-10.42115324863996,-30.242007947273624 -10.132436542614892,-6.969502304603384 l-13.415101577006583,9.340927736194265 -7.402163469178978,12.249128216227405 l2.695830705668677,4.347690863864317 14.57995270215606,-6.506864814320888 l10.166092841988666,-3.032285130172576 7.808959742188729,-5.115348299054288 l0.41062108415446774,-10.117976435201713 -7.030744832380337,-7.42961111605492 l-2.3123571782243335,-9.645620552984726 -4.843646705413907,2.4080044058683083 l-21.749968473901824,17.65281107392311 -1.5376085436677212,6.880058365877296 l0.6559576276737222,9.367544783802856 9.33370742274337,11.438394802855314 l4.3352511522167045,0.37561748833527253 " fill="none" stroke="black" stroke-width="1" /></svg>