<?xml version="1.0" encoding="utf-8" ?>
<svg baseProfile="full" height="114.33612972868495" version="1.1" width="137.7353540148671" xmlns="http://www.w3.org/2000/svg" xmlns:ev="http://www.w3.org/2001/xml-events" xmlns:xlink="http://www.w3.org/1999/xlink"><defs /><rect fill="white" height="114.33612972868495" width="137.7353540148671" x="0" y="0" /><path d="M35.2117331959322,57.331069459446454 m0.0,0.0 m-10.211733195932196,-20.981373980540276 l5.906787944604989,-11.349695478906176 8.995702319669064,10.779487099870385 l-2.4966600740635694,10.733359086688996 0.07087046917085116,10.945287919479494 l19.83982788429141,16.907922830727994 2.1413994155741465,-0.7389006234474899 l1.7548612577713179,-4.664369699918006 -3.4851359099683386,-10.23844589162171 l1.9463029843832163,-14.892811182035603 4.046823972684066,-3.0178342284165236 l12.228822019957684,-0.3944769181642414 1.6667860279499052,2.435791498385348 l1.271019621343726,5.1823383316505245 3.3458772664179914,4.003488368739578 l-1.0873577694675478,6.648700721978211 1.3820240566998976,3.2686127724477743 l3.8955080646206777,8.24142148854524 5.002796465931288,1.2935252357707698 l-4.550390913137468,-3.5134659534111927 -5.874552368497801,4.086618661416543 l0.7559925466333206,-0.38840938827962634 -2.3323522392783156,-4.82229032486469 l-5.824932246633871,-2.972591202646683 -0.8769331960891293,-0.03600719786358786 l15.764004773493205,-2.228953121035825 5.5936932787838165,4.156300367802532 l-1.4341100950130399,8.191158926186729 4.091173482884976,4.363185731632288 l-2.8355986162278892,5.747153762379604 7.554314992968445,5.158255363352567 l11.075754098677306,0.10207729333554061 0.20303449873278082,-5.143862308490759 m-31.78960390207977,-2.714593347256151 l-2.4805028812322334,-3.5606435200477775 2.9142274276231563,-1.6052406797469458 l10.628329231778084,-4.6039119981370895 -2.8495756792497464,5.707798244087067 l3.612083341096861,0.4124925574708693 m1.6314299144761457,-4.743327753330121 l-6.721937257203097,-7.404498114350205 -3.7242681292151905,-3.150533051022436 " fill="none" stroke="black" stroke-width="1" /></svg>