<?xml version="1.0" encoding="utf-8" ?>
<svg baseProfile="full" height="136.89993783799304" version="1.1" width="122.94990526908788" xmlns="http://www.w3.org/2000/svg" xmlns:ev="http://www.w3.org/2001/xml-events" xmlns:xlink="http://www.w3.org/1999/xlink"><defs /><rect fill="white" height="136.89993783799304" width="122.94990526908788" x="0" y="0" /><path d="M68.59655721770298,68.7101965247765 m0.0,0.0 m25.089786066241636,-43.710196524776514 l-10.845366782375017,15.189743183560191 -6.557309294055106,2.337443928031307 l12.917836024843501,-9.350080254819444 m-4.738838207716116,14.471565489754502 l-0.6686150059923823,-10.883896074435208 3.4895657739336006,-0.07045053545791102 l-0.2778155151897328,2.460478959018785 2.4254610126770775,-0.8823032771004776 l0.8636380076315595,1.6342594479649213 -0.8175769161969612,4.799505821896154 l-1.096192956052461,4.693883594118696 2.032133080691474,3.193808787486925 l7.536642762943831,3.5102984488764233 -2.2711219514045897,-2.448420934414817 m-22.62427957203466,20.543716124760966 l-3.25972409831813,6.562198286702898 -6.293420871240332,11.279716434082957 l4.292125773570426,4.7241429320053845 7.208830765880015,3.21228297406587 l14.860658167085925,0.6712385068430957 3.328345994581752,-6.072741815099136 m-14.865422478224634,-5.822059635230503 l-18.166784499755753,-1.690550140283818 -8.506911571131734,-4.399661582115685 l-3.474078386996793,-2.42874010409788 4.386427484600575,0.49160300212226726 l6.024039242871928,0.8347259780153649 1.2469400748819808,8.223322775261412 l-7.147275609552826,4.2956240172432025 -1.2450195956076104,12.019288791715365 l1.813813649223295,-8.036639949143082 -0.6875240477403513,-7.047758675542568 l-2.3088749153728765,-0.017933564305154873 9.22665415407295,0.7623180885639336 l9.27406529168383,-2.88145682302439 -11.537678723766183,-7.1251063833574655 l-8.927882493101643,7.9817257542857005 -12.273956175201542,-4.4585909432518305 l-6.035438553161978,5.125754723132636 m-4.986412324928927,19.15523038399212 l2.1495593773590964,2.342452096171323 " fill="none" stroke="black" stroke-width="1" /></svg>