<?xml version="1.0" encoding="utf-8" ?>
<svg baseProfile="full" height="214.65796244498685" version="1.1" width="113.82257526026595" xmlns="http://www.w3.org/2000/svg" xmlns:ev="http://www.w3.org/2001/xml-events" xmlns:xlink="http://www.w3.org/1999/xlink"><defs /><rect fill="white" height="214.65796244498685" width="113.82257526026595" x="0" y="0" /><path d="M87.18268546703167,189.65796244498685 m0.0,0.0 m-21.796143665957068,-14.952016229093594 l7.876910330211884,-8.06190855577795 10.723491410787714,0.08728409177843066 l3.117278378881632,3.06126430489363 1.7183533393101114,3.2314021935737527 l-5.069607571751079,7.21074767775118 -7.1329599566356805,2.581541495004497 l2.1126237712605764,-0.309984773359352 -0.325048402825762,-10.74068378906374 l-10.986692914170183,-7.615183426857066 m-2.1671166643907247,-34.2944916793085 l4.114459989368047,-0.25177668844179435 3.881709651182318,2.896582556842178 l-8.958032062990357,22.761918477708914 -0.3000877178964717,3.7488750664989157 l7.362280759695053,-24.865892450248108 -20.798899478321662,-36.1120245080439 l-5.4440203505524485,-2.4601321581696936 -5.2607692866502935,-7.598024930478582 l-5.372184281362662,-12.67987066761675 -2.480987442537085,-7.117400313745013 l14.183905132386167,-21.42774153006643 2.7890794975434554,-3.560021833993994 l0.3141531054748964,-1.7335360675361562 -6.344264033542375,-0.027890341637575033 l-2.167124470613519,5.809135254271627 16.22395276101436,3.7100153167772243 l4.441181977195755,-5.782894714128337 -10.383657195504169,-6.263355506531931 m-23.216835804859794,0.5916845716129671 l-2.837634270782301,0.39019075675573117 4.4012165973126205,-0.07790967159501658 l3.9728465979817,8.205637827778213 4.446827354265688,7.488644393873251 l-0.9348285823738228,-10.255828666034965 -2.759484465237281,-5.0858733684010655 l9.879945322472993,-1.423124715649479 10.298927473831636,-2.4141604696283165 l2.5117938223695306,1.6402630413101822 -3.7146073225983893,-1.0179556813922412 m-14.141879682528389,-11.943466734618 l-0.9971045539275081,2.4588607495822012 " fill="none" stroke="black" stroke-width="1" /></svg>