<?xml version="1.0" encoding="utf-8" ?>
<svg baseProfile="full" height="128.47307456030546" version="1.1" width="138.79001561774666" xmlns="http://www.w3.org/2000/svg" xmlns:ev="http://www.w3.org/2001/xml-events" xmlns:xlink="http://www.w3.org/1999/xlink"><defs /><rect fill="white" height="128.47307456030546" width="138.79001561774666" x="0" y="0" /><path d="M81.63910714571028,103.47307456030546 m0.0,0.0 m-31.896312319356976,-30.7483968209999 l1.3084569742343237,-7.695549571749917 6.296066853491481,14.707472284882714 l-14.651059094889666,4.703641707109938 -3.1337224773540777,1.8772099849932073 l-8.35495770254109,-3.9689615987523474 -5.926290472988691,-2.4194134205922593 l-0.28128890630558023,2.777631761915719 10.820135783242515,6.082194623764168 l-3.1962630614091516,-5.981635756868836 m10.818244305573991,-42.23723519311836 l2.963609937179527,5.227562975587013 5.092337837656286,0.5971732113183975 l0.38364458393639916,1.927566780647011 -3.1437844753665893,4.509951149620724 l-2.102094505490713,5.942255427115411 4.111941189489788,5.727731409738339 l11.138794089269103,-4.403439217596385 -1.6635036776031327,-7.53910933486982 m-0.8897549841041297,0.6346113459525493 l4.149388463845467,2.8325990140162194 2.5926939902469357,2.929582241116423 l1.9278071833716326,6.05258113561185 2.0178215975663263,8.000102433508177 l-3.7174052884393936,5.616598321623425 4.528323258835905,3.3384436729152513 l14.195254287883351,-18.66523672131578 4.914414787463294,-9.088348448910898 l1.875955664995237,-7.481033759807425 -0.9700798908111288,0.6772722406754561 l5.470882510614896,-4.712803033164019 -3.563029109618452,-7.136801748344717 l14.346154145124107,1.9443654118318836 6.688526994294588,15.290898534257863 l-2.6326719523985602,7.611969210382734 -20.08860874562752,-35.404524812799266 l6.4305390449562,2.8755411110870597 11.474264467003369,-0.803868984531368 l1.202412116937958,3.767626159944269 0.39244937595780904,8.56937494947383 l-3.4774911375903974,5.039681957650562 -1.0397713313217254,5.185235292041945 " fill="none" stroke="black" stroke-width="1" /></svg>