<?xml version="1.0" encoding="utf-8" ?>
<svg baseProfile="full" height="200.11407324499675" version="1.1" width="120.55348078989175" xmlns="http://www.w3.org/2000/svg" xmlns:ev="http://www.w3.org/2001/xml-events" xmlns:xlink="http://www.w3.org/1999/xlink"><defs /><rect fill="white" height="200.11407324499675" width="120.55348078989175" x="0" y="0" /><path d="M95.55348078989175,175.11407324499675 m0.0,0.0 m-49.66441890901097,-51.155252345610315 l8.786757343415204,-6.538488035226724 1.6221861077028599,-5.255978895413995 l18.15912606467649,-2.052579914308008 5.924914225812472,-5.1487125828526334 l-3.170810939252678,-6.72895175067134 0.2857844394582443,-2.8593753825817836 l-9.610576402991786,7.113709267964909 -11.833670804619159,5.1867557067104615 l-12.457013067942386,-2.226894248611474 -12.165383472396824,-2.9277583891417014 l-0.2878325589726477,-7.482515246110332 4.479506753032984,2.2812040122992077 l-9.136963771683224,21.489974745491036 7.701249420098805,-1.9945682018656574 l7.479495062559707,-10.788420545879841 12.04440838856785,51.375475928027164 l-5.6515170511563655,1.8926731512165018 -0.3595093875758887,-8.307937500400682 l-5.125561173742448,-9.125485768015254 -2.0671047177129473,-6.730809213811214 l-1.5958520130612945,-3.4607036789549377 -0.9496124929022783,-6.573253311608136 m23.691930109035077,12.484903788908012 l8.252957488601146,5.582475301583956 -0.21032691775543796,-3.5230658908919263 m-11.599352493921439,-55.894029032029565 l-1.5206418694112174,-2.847009715535061 7.842796439830815,1.6401749141846327 l-1.8304923302614318,16.54666987311498 4.779668524828271,3.7432930525581347 m-1.227906497426825,-7.123390533268108 l-9.099666012021185,-22.890598893403904 -8.641965582493404,-7.9480226357451205 l-3.0950516698307706,-3.7689772865502382 -1.8409237766882873,1.4028975751668749 l-3.78301190803214,2.7844785198308477 m-14.67909533664864,-28.753271272003868 l5.773837998001034,-7.515388710986649 6.689262936173039,-4.017320100574973 l-1.0722374870851674,2.2249677732616226 -0.7028003968356824,8.023707868434409 " fill="none" stroke="black" stroke-width="1" /></svg>