<?xml version="1.0" encoding="utf-8" ?>
<svg baseProfile="full" height="129.08887095552285" version="1.1" width="114.52100393823117" xmlns="http://www.w3.org/2000/svg" xmlns:ev="http://www.w3.org/2001/xml-events" xmlns:xlink="http://www.w3.org/1999/xlink"><defs /><rect fill="white" height="129.08887095552285" width="114.52100393823117" x="0" y="0" /><path d="M68.82060595945946,28.34771989472448 m0.0,0.0 m-43.820605959459456,-3.3477198947244817 l2.1208182256620014,6.270689086746933 7.823967430632011,15.863564441321369 l11.065279178315825,7.344958800312364 12.320666325081703,2.2846463587540025 l-0.5627791968524979,5.37002442834279 7.203518464192082,6.543166973981034 l11.846101851931703,0.07911638885007927 3.876723982233557,6.256704827077845 l-6.358538073441205,-21.07120126068318 m-2.010662183494054,6.414371827236218 l6.678731279308471,-5.143093312135349 5.883184736372622,2.21326366598413 l2.729902340935325,6.144581511712214 1.3129407216384243,4.577220517883982 l0.591148855715218,4.424082505626047 -2.253925329438143,1.2245474667671477 l-5.38872229982577,-12.459593931795387 -8.30040811446973,-9.670169209787536 m4.104436508107289,2.492937635598058 l6.9066652803631,2.6286201218210414 -10.544762680515554,-9.791756406103778 l-1.3359705555360712,0.6530653655023116 -4.979149811966873,16.076236800103374 l-7.4514756117052325,6.460319494361624 -6.132827577503037,4.664681446104522 l-3.2696149909787944,7.938159579351001 5.518438107812098,3.8058256085279267 l3.5445307104950885,5.380016640183199 2.6169258458795794,9.38511760345303 l2.4607268323481715,2.7287659804258193 4.154852382597604,-1.7722015167225138 l3.3335441079853156,-10.613417205436768 -0.7085802284750664,-3.757257654760765 l-8.089860493737646,7.891524436085802 -1.4252380111564533,3.723757336656491 l-2.83676535727796,-1.133227385550526 -4.7843943330534175,-6.354785237842185 " fill="none" stroke="black" stroke-width="1" /></svg>