<?xml version="1.0" encoding="utf-8" ?>
<svg baseProfile="full" height="285.16581441269204" version="1.1" width="148.2586480906935" xmlns="http://www.w3.org/2000/svg" xmlns:ev="http://www.w3.org/2001/xml-events" xmlns:xlink="http://www.w3.org/1999/xlink"><defs /><rect fill="white" height="285.16581441269204" width="148.2586480906935" x="0" y="0" /><path d="M25,260.16581441269204 m0.0,0.0 m3.3553082025370737,-103.41404883238421 l10.817490050513841,-20.249652910421148 3.316113971389889,-3.185525867046836 l8.12288148105732,1.7735934773370525 6.135399461634956,2.8483770924802885 l7.1072193083785935,2.8082090898386363 -2.6113396951461363,-9.052010406521779 l3.3040045361092383,-11.064410676657225 6.750121897807284,-27.85219661013116 l2.7665258755373854,-8.338735520720215 0.20382854821419605,-1.1780709131388234 l1.9626580419139332,-0.2566459565868273 3.0484434868431576,-7.355713090134279 l6.625047525447704,2.2528855469456652 5.294322671008433,10.604489943286923 l5.842449462616122,3.694165199847581 0.3345266921195217,1.7933538625774463 l7.3078326394460325,-4.51926119928362 9.284905745863808,-5.969293695753142 l4.472271577596512,-7.474464753404156 2.465283177290701,3.2550348174563735 l-1.8725402639140405,-2.59522016203355 m-0.5068871494162741,5.83835237275432 l-4.656505824952362,7.575623778647933 -2.402097835007134,8.289547879732085 m-2.569353242826269,45.5494931226922 l-26.14400347903147,-23.455611883248057 -6.8195465254371195,-3.0729711993866315 l-3.5143468610196447,-6.623129452371361 9.735261600011041,0.16495069278571917 l9.679332505303313,1.991644270041361 17.204234736856474,5.9209271470357345 l-4.0822166475747075,8.781424678568689 -4.466702432059056,1.6802252289174564 l-6.85859807776912,-40.67662096453065 12.463489743714057,-3.9045813284770436 l6.663061867866663,-56.30654847061398 10.500771317769594,-3.443398720792822 " fill="none" stroke="black" stroke-width="1" /></svg>