<?xml version="1.0" encoding="utf-8" ?>
<svg baseProfile="full" height="254.80226976361536" version="1.1" width="148.10287281756706" xmlns="http://www.w3.org/2000/svg" xmlns:ev="http://www.w3.org/2001/xml-events" xmlns:xlink="http://www.w3.org/1999/xlink"><defs /><rect fill="white" height="254.80226976361536" width="148.10287281756706" x="0" y="0" /><path d="M69.86689275776627,204.45456767314147 m0.0,0.0 m27.60705944445207,-3.857942236274131 l-1.444070445413167,-0.9552264816921328 6.225606142681884,4.258419071538082 l6.489453134747138,9.819552799390214 3.6409723863935004,2.239781187691641 l-1.5105626146974331,4.416908096267103 -1.4892141591819867,3.7444872338696715 l11.9234730715469,5.681722419683444 0.9650280847449227,-5.321800465796615 l-9.280417194707951,-4.608247795060746 m-16.88148365828954,1.7304868563396458 l-2.9946741212793215,2.7118301588688936 8.550105193266177,-2.3598146635007353 l12.098422220749917,4.1212110925932155 9.336282574787692,-0.6216594203152807 l-1.8625706109959697,-3.3084803086504904 m-30.728644660737253,-50.360421275633165 l5.913537813477122,-1.9951003348013008 15.7380795653929,1.3814555303089382 l-0.9172185675942734,8.647407366307332 -5.495692382690468,-3.5373771881064577 m-25.82980226159206,-25.148336218568446 l-1.9858991246241304,-9.764972080830164 2.2248913970760187,-3.72857746854122 l1.992488562907354,-14.743727602605976 -24.56684010316594,-4.048000161699465 l-4.580728180228722,-3.9499317918868964 -10.67892121461885,-42.83807235334405 l-4.844586646195111,-4.599968951842596 1.4161806626655034,-12.68553715413801 l-1.4030912810689404,-8.876005228713383 -3.4121796661055024,-3.159347941097226 l-0.44487046282754017,0.6057198426106029 2.4142177205569513,-2.48320438602182 l-8.85126849799161,-8.628934452145169 -2.1999548792065373,-7.232863367344799 l2.946041900894963,8.753125644975714 4.234977136825552,7.596603858860629 l-1.505689187306003,5.084042051902764 2.032510840763624,-7.281446682366213 l1.0049067497404491,-0.9352429835335435 4.333790727118668,-2.199703175436726 " fill="none" stroke="black" stroke-width="1" /></svg>