<?xml version="1.0" encoding="utf-8" ?>
<svg baseProfile="full" height="142.12967964883757" version="1.1" width="124.90077628423342" xmlns="http://www.w3.org/2000/svg" xmlns:ev="http://www.w3.org/2001/xml-events" xmlns:xlink="http://www.w3.org/1999/xlink"><defs /><rect fill="white" height="142.12967964883757" width="124.90077628423342" x="0" y="0" /><path d="M51.82945747970689,117.12967964883757 m0.0,0.0 m-9.432890335827352,-68.30754292982516 l0.27062346662991,1.2531798272189993 -3.1459316836264675,-2.310417483086978 l-1.4405817138974186,0.15496572040156045 4.5196386938219195,1.5220122491826242 l9.815646029736003,-0.2716381312060232 -0.6996341375897847,-13.27847922990074 l1.2092885010991108,-7.290832301125212 -0.7490030237921788,-2.877006886572871 l-4.709631146570867,-0.7239204839237708 -12.284726764161075,1.188571237669096 l-7.082547426242674,4.5338412166619095 -3.0997079392860103,9.272102007137844 l1.690120671414248,10.941568650903195 10.461016209040379,9.570903328395907 l14.275612744075886,3.113412480369545 9.833918452906794,2.538088310030342 l13.972017720858389,3.409590446921025 7.946149521884937,4.670790942747198 l5.156805226213725,4.594907713774889 -3.2681136030039464,1.6144582147878712 m3.266134943298553,-28.70401380536338 l-11.508965063447043,-0.2231896963515144 -9.705739550681605,2.449357556861547 l-12.625477156622804,4.093684584867098 -6.223616295442493,3.8627486101137842 l0.7961549981043811,-0.15707231766854282 6.856040166799708,-4.9471101798656845 l6.938586213077557,-6.404579879130192 8.624720952491444,-10.769855074976961 l3.9701436421875167,-2.7998152724974426 -1.8897755274194628,0.20613930140244194 l-3.849628447681238,2.0272070537790725 -12.954958624254903,3.7562970493867978 l-7.051131888716182,1.8873499876298745 -1.2511391044311804,6.6357408684451356 l6.908832141500397,6.576031912156759 14.17346823102861,3.8250946098959804 l10.368053215632857,-3.580175333335455 12.101965208992988,1.9462439392387298 l6.597755130154895,5.826335218744068 1.2918261562710087,3.79955170197208 " fill="none" stroke="black" stroke-width="1" /></svg>