<?xml version="1.0" encoding="utf-8" ?>
<svg baseProfile="full" height="168.7347624374711" version="1.1" width="144.69917770677318" xmlns="http://www.w3.org/2000/svg" xmlns:ev="http://www.w3.org/2001/xml-events" xmlns:xlink="http://www.w3.org/1999/xlink"><defs /><rect fill="white" height="168.7347624374711" width="144.69917770677318" x="0" y="0" /><path d="M69.66273746225193,102.7008205113566 m0.0,0.0 m-12.746014578565772,-3.9627291453740208 l-0.1794635971262698,-36.77377333540437 -1.646219240453332,2.892955211169582 l4.136716252387742,-2.3331608893536258 -3.5768307698894573,-27.03795083143853 l0.564763838371954,-10.486161520955637 4.360754558455944,1.996880455215261 l5.610908004601247,3.9671917917493342 5.468192413464179,7.099727278868391 l1.4365296102394138,19.28757444811411 1.7213943711449702,15.381621304082417 l6.545484237090617,14.11287781270326 11.373722341188373,9.001478240236457 l15.135883629473996,5.610406711010896 6.7513723542347135,2.3175215953521136 l5.079246819902955,5.303517518875595 -3.747168952420319,1.1414395272338533 m-30.55365484872971,33.514525754029414 l-9.5096153414145,-11.691133081202711 0.23923466822194706,-11.995527856924113 l-5.550192306642645,-10.768896923435337 -1.7093587976590467,-5.661570495288319 l-3.0041695317808523,-4.37058353119087 -1.6601131780905403,-1.7066437406890593 l-1.2772022628384498,-0.004735899045745645 m-24.719640104055724,-35.06224781735842 l4.076308592187026,-11.07613178527895 11.497718790040983,-3.3735684058859716 l11.844067738435253,-0.27166521035206503 8.055653153187206,2.532794344532901 l2.7732723585286583,4.796899863634832 0.8427616106267807,10.046721929594844 l-0.7458029582164755,10.02018864840919 -3.930301562585781,12.483248297298601 l-0.9101678687588312,4.592056374627062 -20.716699369257014,11.447641716109018 l-1.4057051125866615,-2.412536100152906 -5.414707502822885,-15.955768316514426 l-11.066526575227279,-4.745314540900491 -2.794479980804767,-5.67817066397685 l-5.312688364109559,18.217607215837408 25.150441626126614,-21.298340385981927 " fill="none" stroke="black" stroke-width="1" /></svg>