<?xml version="1.0" encoding="utf-8" ?>
<svg baseProfile="full" height="129.52922067064185" version="1.1" width="108.33091246440777" xmlns="http://www.w3.org/2000/svg" xmlns:ev="http://www.w3.org/2001/xml-events" xmlns:xlink="http://www.w3.org/1999/xlink"><defs /><rect fill="white" height="129.52922067064185" width="108.33091246440777" x="0" y="0" /><path d="M83.33091246440777,45.594549570510466 m0.0,0.0 m-41.582230287461336,13.652223996323144 l5.4293531005170355,-6.982942758882179 9.359671892272244,-0.12810468584172707 l12.097443690782272,2.1161509323318053 2.8080641617045248,5.880728771878925 l0.3853794204013733,3.2149027351304302 -3.9485030506547583,4.53504857446076 l4.116359235818258,5.228549775105866 -5.010410804685763,-4.342403475774199 l-5.108194044133706,-6.542955033140611 m-36.877845778967924,20.103888057873096 l2.533881757659584,-2.915852367817555 8.742996560023592,-0.5545919057482925 l-0.11454279869551078,1.7134467563853224 3.9474690168359143,8.051543723278128 l-0.46085433795318737,6.421304877139624 -4.162556567169573,4.809483990904775 l6.486028051814374,4.674249136524092 12.542258974957411,-1.1350571996148757 l0.5510753986142106,-4.502173540530628 m-16.659533398654034,-17.223123592314558 l1.0184035376788991,-3.148810692153661 9.755971950472116,-3.4707093918936542 l3.843923453051908,-4.749976755924021 -0.7415786121851855,0.20819479648825043 l0.5131458355218491,5.806603033767159 2.2478879562329857,5.382797017662266 l-3.034296464062338,5.546440908214942 2.9963055356286343,-0.29215529547442637 l12.417154070406076,0.5453351348997426 -0.4604587541200912,-4.758995258044911 m-1.8971884625913593,-16.603059903306477 l-1.9412094398025215,-6.738372550395875 7.6497764182985195,-7.425820173437253 l-1.9544747664504976,-23.41481257631421 -6.476531498247874,-3.5555246322696887 l-1.8971795703152368,4.264284809225982 -1.3091442421359591,6.069250623183991 l0.47979444375978186,5.571939932936557 12.833220484740998,0.8303885903569814 l4.333563953851451,0.1463929792185674 -2.9626819675708282,-7.068405597976288 " fill="none" stroke="black" stroke-width="1" /></svg>