<?xml version="1.0" encoding="utf-8" ?>
<svg baseProfile="full" height="119.46859838113724" version="1.1" width="94.58120946204211" xmlns="http://www.w3.org/2000/svg" xmlns:ev="http://www.w3.org/2001/xml-events" xmlns:xlink="http://www.w3.org/1999/xlink"><defs /><rect fill="white" height="119.46859838113724" width="94.58120946204211" x="0" y="0" /><path d="M25.324329912592805,75.10444393617513 m0.0,0.0 m7.349466435872496,-50.10444393617514 l4.539880438157267,5.369784437306295 -2.890875420118646,1.7485124267357581 l-4.360645123266251,2.207714104074261 -4.878295455510353,-4.321221311973119 l-0.08386078772731675,9.370807485059528 4.450066650984631,4.950682074943702 l4.13741660638415,4.563353160824272 -1.6346108888842892,2.340701646475395 l3.7215432862854914,6.9516606573572925 7.573662676681532,9.699737824728915 l-5.410483494710149,8.273539416532369 -1.4794988559172022,1.6841493719487866 l6.645203592813209,-3.722680058218313 1.2694658232553142,-1.9658610242447583 l-8.976192989491693,-10.944799676138336 -6.999055620450797,3.0905248477579206 l-0.873011143274911,3.261955118123757 13.222090271766142,-3.6323071804176696 l-5.447339809242196,-0.7171230449260693 -8.398643266359723,-9.058876887285523 m15.391218227827865,-28.259614275192327 l-8.260413166949688,1.0640686296487396 -0.7283888326393637,-1.2695313455842383 l-3.379494630775253,5.597152460191969 8.175860275740295,5.893288310289619 l4.923433114251902,6.492528357863555 12.48481569664933,20.301499352686978 l-1.8436385511030364,1.5543149520723034 1.5920422439478688,8.453554193912863 l-0.8115108052079802,7.821187591520037 7.631036947450093,6.431814152229093 l3.375798153460178,1.1850888993519042 -5.245874202593571,-9.052562514171738 m-22.432973151545,12.794499851280401 l2.712108151391031,-9.003611594949964 12.311045606864793,-6.881966395516096 l1.98384688153209,1.3353070597905803 2.3692237792295177,7.698876110303086 l2.978201310541229,2.4489231041274118 7.898123497370226,-0.07177386965538934 l1.6561360767600724,5.785301962273987 " fill="none" stroke="black" stroke-width="1" /></svg>