<?xml version="1.0" encoding="utf-8" ?>
<svg baseProfile="full" height="140.4106763033667" version="1.1" width="121.76667771098933" xmlns="http://www.w3.org/2000/svg" xmlns:ev="http://www.w3.org/2001/xml-events" xmlns:xlink="http://www.w3.org/1999/xlink"><defs /><rect fill="white" height="140.4106763033667" width="121.76667771098933" x="0" y="0" /><path d="M25,85.83360930870165 m0.0,0.0 m26.10477815354435,2.3065375184160786 l5.617548233666857,-5.239017213605314 1.1278248270374716,-17.1477687084085 l5.288238308466623,-8.287881315653665 5.7194615603706,-5.459648516248975 l7.718586308214202,-13.00101838469629 -1.5556449978136078,-3.5829554125714274 m-11.138317076280508,-4.953597651106576 l-2.3374946434561537,-5.468259624826983 6.5712170519399065,1.4607202975154165 l-8.042524070244532,11.264640331599928 4.684157273310253,-0.8773869339249374 l7.31807905411318,-1.9909012968413076 5.602263765891971,-0.29729955718757983 l0.22161659320210525,-0.9253620265315221 -4.9717456044442425,3.42598352376397 l-1.593694156534305,5.141245718739783 2.469638772309335,1.5883992851691675 l-0.3258699601401571,1.5439018122666122 -4.62587651037026,4.693048334110593 l-0.9446708442619689,4.803882345115859 2.426342961392184,5.457163110601509 l3.688031468814509,4.824158320684998 7.1537349637358965,1.6850853634560732 l6.4841462636609215,0.6866927979639521 5.251453170091624,-0.3338348277019544 l-2.4005356271065295,-7.861400140431624 m-26.94158094724468,11.496816298683695 l-11.082783487997034,-16.167036933123697 -3.3498423800832535,-4.571700620892039 l3.0838592541891376,-1.120042805493433 8.502222124670418,0.1368384598296843 l10.54305974479167,-0.04956485440096633 2.9676733436858607,2.2635105848333383 l0.30440219318766853,7.870751959898163 -5.108796748422338,16.26013540279338 l0.7660857813927624,4.924953010064 7.680365205974901,13.016773569861533 l10.99880457664689,3.022213256355293 3.985372399517688,0.2522516797932009 l3.9070914115699305,9.829424001855424 -5.798695412238622,8.956616834940194 " fill="none" stroke="black" stroke-width="1" /></svg>