<?xml version="1.0" encoding="utf-8" ?>
<svg baseProfile="full" height="244.14557722820223" version="1.1" width="113.12080333228869" xmlns="http://www.w3.org/2000/svg" xmlns:ev="http://www.w3.org/2001/xml-events" xmlns:xlink="http://www.w3.org/1999/xlink"><defs /><rect fill="white" height="244.14557722820223" width="113.12080333228869" x="0" y="0" /><path d="M28.018646324750772,172.9675403214237 m0.0,0.0 m11.619384284718949,22.41934301490799 l24.43556498071023,23.758693891870514 -15.895071596604053,-68.27861227847974 l3.8393655151358397,-2.138390201425451 -3.29392301174551,-2.8698637347828653 l-7.567083341211107,7.321867722656248 5.436306917684386,2.9390549619167454 l3.516440003309045,-2.3565924888484457 5.303263098363617,1.6002379895213725 m-30.41289317511217,-122.05237552143205 l10.41819234309145,3.122075903239735 17.649043406969774,1.4835404348131003 l7.915622399111981,1.5817779185618255 3.0481157734757396,6.96774978432031 l4.119011727607398,3.336908859738058 0.9879997929967704,3.6764980324694476 l7.420131169435855,11.989716710099824 m-6.647212154332465,24.291457692151614 l5.699782235552407,6.165584581459284 -0.3140074334820486,2.7052076533969704 l-4.288625267159225,-2.5432983532311315 -14.391807275253564,-10.46660176959234 l-0.021448280078704696,-13.686843026839565 -0.0875669039617054,-5.417967759470824 l2.0139193087788585,-8.211089834656082 7.469525842372342,-9.721350122179444 l10.7993547755891,-3.858463841125872 0.5753619980036939,-1.9687007272806114 l-3.4933977750382414,-6.688643411094134 -3.9616294625286628,-6.336990387524236 l-11.045797650940498,-4.7314720145839155 1.877973824948939,5.046209931241512 l6.439180158680556,8.14953459296809 9.597064837556301,4.597215158913341 l3.116216111778574,1.2483803315450817 -9.001044153451518,-16.946506377661716 l12.60694000319866,25.853025144402338 4.619903979366901,-25.890908613818162 " fill="none" stroke="black" stroke-width="1" /></svg>