<?xml version="1.0" encoding="utf-8" ?>
<svg baseProfile="full" height="116.97169436357748" version="1.1" width="105.0752930731881" xmlns="http://www.w3.org/2000/svg" xmlns:ev="http://www.w3.org/2001/xml-events" xmlns:xlink="http://www.w3.org/1999/xlink"><defs /><rect fill="white" height="116.97169436357748" width="105.0752930731881" x="0" y="0" /><path d="M63.839171890172,25 m0.0,0.0 m-25.930573154192096,45.534487400490846 l9.5673190633994,-0.23423324026957978 14.535982145813692,3.7468050162828983 l0.6475672315087664,5.5466923595619475 3.229476076550051,4.307239591160327 l0.903931382269794,4.192858524915512 -0.7470963146463491,3.1492774118731752 l5.5301516538341815,0.7285672995623582 8.499363098478666,-3.6528127521354725 l-1.9421892453276073,-6.21645559027515 m-33.33476539747418,5.079004116387087 l-5.014540070052684,-3.5336066862080067 4.760755440613083,-2.009047059476422 l-19.544553800946716,-34.68060791620145 3.426905028792463,-10.858040694691637 l4.645116267777378,-2.623086766430327 5.175024789511284,4.885996071726588 l2.6632750560284584,4.341022370803473 0.8520053655100776,4.8742653324750345 l-1.0170976158369072,4.035479032496701 -10.988163042049445,1.188917400174331 l-3.119349024266956,-1.205200858765983 7.073192091770949,-1.3591958055612696 l12.539130636147226,2.343587129865537 16.757176470324346,-1.5773613277104628 l4.105015378366088,-0.141373945338378 -0.6816929956196891,-6.373922854429268 l-8.806756434590056,-5.369261673387071 -5.800671794806278,4.335356524974845 l0.1026120854280535,2.522435198988128 10.338563162319476,8.352013590386179 l-5.345921066201017,6.790452298504817 -6.513478190659246,2.552257884653905 l3.3953385220830343,5.302562878354343 12.869383243603329,2.6237936713585546 l1.423200739274015,-2.347373949924348 -5.529525357911278,-7.627794006476465 m-26.508218875090165,-0.2090933099194736 m-0.6872910057821835,-8.975493511713436 l-5.889100437131308,-7.356912401362204 3.3084530760077455,1.8638304634324672 l1.3054455869395505,5.710083332392576 " fill="none" stroke="black" stroke-width="1" /></svg>