<?xml version="1.0" encoding="utf-8" ?>
<svg baseProfile="full" height="131.97540982213496" version="1.1" width="126.32912225616755" xmlns="http://www.w3.org/2000/svg" xmlns:ev="http://www.w3.org/2001/xml-events" xmlns:xlink="http://www.w3.org/1999/xlink"><defs /><rect fill="white" height="131.97540982213496" width="126.32912225616755" x="0" y="0" /><path d="M59.8806735304959,99.12058013583291 m0.0,0.0 m-34.17011093333948,-44.95825491430203 m8.540418866024568,-5.296567722841662 l11.992337886618149,-5.644230468101534 0.8167541140659396,5.588969807819326 l3.7428201581107,5.522688269256831 11.533418212377914,6.230102386845647 l0.0571825392602663,-0.25670284403237686 4.714213192694509,6.884916869571089 l2.848129067283137,-1.3818498213534984 5.38098547782623,19.598564238214387 l-2.466610964075606,3.896116157055564 -1.628409007498357,3.301324767686634 l3.7284219783486083,7.553735335792724 0.978140811023886,4.4933980580068305 l6.214670192977137,-2.2603726703426323 3.163431325638981,4.582992237026771 m-1.1273188046102052,-60.573438454707976 l-0.21419748204905234,5.095470754160445 2.7148478730284786,7.453197105225629 l-5.687030626908383,6.002626001272957 2.5817064329114605,5.742812881483066 l12.891390171884227,2.3125982393924898 4.843258244078554,-3.736467231019734 l-6.404986158672268,-0.26540978903737367 m-27.692776619118938,-11.182395693341354 l-1.3967018864841678,-2.64817155388117 -1.2317489907111678,-1.810893165316061 l-2.8731245887939907,-2.168071353073394 -7.656452193681505,-8.616419507028024 l-3.3034982429075908,-2.732660042831554 -2.302709867746192,0.09950998608258654 l-10.307199918409149,-3.344153632795923 -11.269067108770091,-5.222578613429747 l-1.5622632195843378,2.5270596398183787 7.528658832408954,5.645682586365672 l9.317340503407122,-3.4801315439392475 -4.711206313524189,7.0426589722695665 l-12.463386483580052,-1.4905559636888237 2.2398180866891124,0.20710017090574837 m13.552109928609967,-16.832779615021117 l2.305721630518134,4.238120281833518 3.1058708524048093,-0.24561807351662163 " fill="none" stroke="black" stroke-width="1" /></svg>