<?xml version="1.0" encoding="utf-8" ?>
<svg baseProfile="full" height="261.9479263835451" version="1.1" width="107.67204752081338" xmlns="http://www.w3.org/2000/svg" xmlns:ev="http://www.w3.org/2001/xml-events" xmlns:xlink="http://www.w3.org/1999/xlink"><defs /><rect fill="white" height="261.9479263835451" width="107.67204752081338" x="0" y="0" /><path d="M74.14178231246856,236.94792638354508 m0.0,0.0 m4.0965815782269495,-19.322414835674476 l4.433683630117855,0.008569037230193866 -0.08321145290117515,-4.80576094248788 l-1.1421029160407896,0.8452577156469637 -4.273830093357502,7.177729230376064 l-10.445618031650294,8.752468428083628 3.6164458978251637,-4.379822981318826 l-12.141479497786287,-15.17238464896994 -16.43746318210524,-15.360485621260015 l-10.502041161123271,-2.0574833192225674 -5.988800368998614,-7.688865867162736 l0.28408123748279573,-7.0377626575774554 -0.5580279521581619,-4.495933330251886 l5.967241755020309,-4.676673906957516 13.867085699862917,-1.1067479664364155 l0.5598494202361628,3.9094672335542833 -4.2171744131353135,8.578174938294273 l3.375583453608316,4.931240288075118 8.895962796930693,2.51689663931215 l2.337764466348119,-2.3670803683999466 -8.404600748405993,-5.583044950021829 m-7.9583452078058645,-10.319965118951066 l-0.8388047602965921,-1.7402980671490746 -2.276999994034569,3.159086894154291 l-2.276218702215772,1.0631345837977715 4.695885421673054,-5.029842885405545 l-3.9462676181008693,-10.72215398550743 -4.044665132846648,-6.9166456903431355 l6.813281360532814,-6.171360809282997 -6.051361234978152,-20.427312705532295 m4.380392438668587,-24.56113034006078 l1.9565134191321198,-1.7032045576891557 5.592830739909441,-1.6283789911745206 l5.193018352085398,1.4905149157974473 -4.662037701462628,0.8340281974879 l-4.217413368026593,5.976708230505268 3.1639604835435917,2.637205737652871 l12.003774463389751,2.1181590306445237 5.657145714677837,-8.015570398955667 l-10.048917638090522,-7.67780595502309 m-18.184052027336985,-66.97843658334156 l2.8399603023816278,1.1422117004379628 " fill="none" stroke="black" stroke-width="1" /></svg>