<?xml version="1.0" encoding="utf-8" ?>
<svg baseProfile="full" height="179.8060766665616" version="1.1" width="110.17337934195342" xmlns="http://www.w3.org/2000/svg" xmlns:ev="http://www.w3.org/2001/xml-events" xmlns:xlink="http://www.w3.org/1999/xlink"><defs /><rect fill="white" height="179.8060766665616" width="110.17337934195342" x="0" y="0" /><path d="M46.494335019485426,154.8060766665616 m0.0,0.0 m3.0289246062611874,-58.386731002067 l6.178513431894663,9.96070177337495 5.6178047209799695,-2.8333546621614025 l10.208540661014167,-0.8393937469706382 0.3453772722212152,2.3582323836653116 l-4.672139824899902,9.513702481239218 3.044038015326427,6.788932191026071 l7.279613870655635,14.49488267831636 5.110457218948273,3.7377344460893203 l-0.8630287046243191,-2.2747532929662344 m3.4009430546906905,-31.864672717517966 l-0.748594050193353,-0.2471795714840673 -8.910108229351975,6.8283003326975376 l-7.065603157705952,1.3444793773461963 -7.224976468709665,-1.114366268301319 l-4.171338631443151,5.936521835744606 -0.3173911844954555,6.168570724213588 l-4.287999935412223,-1.6566399252053687 m24.60388228519766,-18.427324097622595 l-4.892269785509006,7.543272521926667 -4.279427176173687,0.45481377158835 l-1.8143000801308384,-25.25524010812575 -8.661161744441232,-3.668640652041809 l-16.435704867578607,6.320149933321193 -6.292311383099398,-18.655057068757255 l-9.019701447942737,-11.845885827327953 -0.49358955417672545,-8.943554365070952 l-0.16278393078708708,-5.324378470256718 0.7240910783891675,-1.2918680425673124 l7.768651674461595,-4.590961029355418 5.6985868707608285,-12.642890031797966 l5.329070273850274,-1.393480237513244 -5.829090778040866,11.366329874625922 l5.866343176332361,10.694395081036884 -3.3826812076553585,12.445298920230533 l0.7850138834665573,6.071818404445391 -1.8484401856329418,5.296527569565838 l7.818387249280394,5.593007309582672 3.312674296489219,3.026245435092772 l-4.433380357240228,0.39419962287591676 -3.57315689839434,-0.12054584603166493 l-5.422780026092609,2.7716787620507333 " fill="none" stroke="black" stroke-width="1" /></svg>