<?xml version="1.0" encoding="utf-8" ?>
<svg baseProfile="full" height="172.43879963228767" version="1.1" width="160.44507921828307" xmlns="http://www.w3.org/2000/svg" xmlns:ev="http://www.w3.org/2001/xml-events" xmlns:xlink="http://www.w3.org/1999/xlink"><defs /><rect fill="white" height="172.43879963228767" width="160.44507921828307" x="0" y="0" /><path d="M135.44507921828307,29.674730304100944 m0.0,0.0 m-20.708373554441497,10.13805990524924 m-9.803327156699991,-14.812790209350183 l3.0922709378869095,8.88656676698869 -8.17732215376519,7.664484222936975 l-3.656084058338336,5.51281793986272 -4.006582234333603,-2.995896385278035 l0.24592516942405607,11.391366481515378 -4.428477748733828,-0.21393924248936713 l-5.871202577047534,-2.5253862384023216 -7.438885397099688,0.11241387639812711 l3.902366712871028,0.5604924203404871 -19.073707189227953,8.575736101224733 l-3.32438691884267,11.900960396957078 -9.465812042711462,-1.6078116954153199 l-1.7721291462778501,-6.59805490688307 -3.796182587106418,-2.5632418564056483 l2.6067881842593565,3.8460355362597056 11.385765670225034,-10.418032754006314 l14.295655033725229,1.2732249561023445 -4.847205069263217,2.9996997537145895 l5.31954048185293,11.899625220531162 0.9411312308212161,1.426099844094166 l-17.226959063871885,32.037291819773294 -5.048396004701347,6.664045693996215 l4.737855551298891,4.46369444869116 2.354892744372716,7.591471001875788 l-2.012713288966182,5.848635654548171 0.08166576013790676,4.3355623294142465 l11.060798320157486,11.510439263831246 1.677415330697545,0.8604989821114892 l-3.1975287645058583,-3.5444006714054512 m-38.291875390078886,-39.309259582678074 l4.492675479669045,-4.456995170416446 8.190385626079212,-4.220135573823526 l2.5734064526292313,-0.779705489151738 1.9609857320299184,-0.9486045886941687 l6.209201955632336,2.3665922473150505 -1.2343327330609966,4.667427288952941 l-4.094609273561744,4.034939158472309 6.776684309551412,7.001131441704655 l-5.060568682732864,6.599747264612038 -4.440254992016619,0.9919915087546362 " fill="none" stroke="black" stroke-width="1" /></svg>