<?xml version="1.0" encoding="utf-8" ?>
<svg baseProfile="full" height="128.3060519033151" version="1.1" width="154.35079622840678" xmlns="http://www.w3.org/2000/svg" xmlns:ev="http://www.w3.org/2001/xml-events" xmlns:xlink="http://www.w3.org/1999/xlink"><defs /><rect fill="white" height="128.3060519033151" width="154.35079622840678" x="0" y="0" /><path d="M25,83.58444481185045 m0.0,0.0 m14.873629769654872,-58.584444811850446 l3.9331356829203536,0.6377924453651825 9.40725728672291,10.220148027289001 l0.1813203147808629,3.5371925259387873 -3.318493001953146,8.554010440681484 l4.192657472317998,2.6485193152152746 11.589096663643128,-1.0809154788098605 l-1.6498545884344422,-4.73899325362851 m-30.269185104690244,12.646542807671025 l-6.09584671364267,1.0192877903799336 4.690011373637321,-3.4388804105645057 l5.933517541888465,-11.243480343560046 9.127024135592103,-7.153689305355291 l9.982507604346399,2.6471166762401235 7.540499260149398,8.230803418629035 l-1.1609714802103577,11.030631734769006 3.6339135582755366,15.171158792020755 l-1.1517972012356859,6.184531796083761 -0.4771519561033598,8.247943544306645 l17.405647613393224,4.917294411566524 6.74573778768707,-4.300395773037917 l-4.286167004725593,-4.330905262472709 m10.573619265196884,-20.64270976107354 l8.744034442678709,-1.182306641855661 8.874661798744194,8.170621227259053 l6.17954312418046,3.5324834766235558 -6.971536948558185,6.760845738938395 l4.7608313673506135,7.031658698260654 7.004152990539081,3.2394497214077 l-1.5933205580250005,-1.9603111027968094 m0.5308223672861456,-9.312628442595491 l3.523089111296576,-3.4601685134713236 -6.386499117810948,0.1892515255390692 l-2.229854543855184,-3.737709574859378 -8.697780092479874,-0.358862281319339 l-2.5016456776344835,2.329458324295376 -0.15221708478299179,2.323276073253553 l-3.931926265354848,0.04365161295419186 -4.177408412215957,5.517251276366337 l0.43794032689836965,-3.3446422637728914 m29.53780112093903,20.16111420127864 l-5.864019209022643,3.600614710155301 " fill="none" stroke="black" stroke-width="1" /></svg>