<?xml version="1.0" encoding="utf-8" ?>
<svg baseProfile="full" height="142.55789533606062" version="1.1" width="140.87397720687625" xmlns="http://www.w3.org/2000/svg" xmlns:ev="http://www.w3.org/2001/xml-events" xmlns:xlink="http://www.w3.org/1999/xlink"><defs /><rect fill="white" height="142.55789533606062" width="140.87397720687625" x="0" y="0" /><path d="M115.87397720687626,104.97895139825667 m0.0,0.0 m-29.910130526589114,-6.180752356363471 l-4.546243451955263,-4.498730580012012 2.3447779180253385,4.431827927332346 l-4.840278927181313,9.671810245077056 -7.516940016447773,9.15478870177004 l4.513870062633409,-2.4076742140048504 -0.17074757432762072,-6.424195995794603 m-29.785699765496666,-20.429910669674687 l-2.3295893070050386,-7.21250782079905 3.4107749785562795,4.000210715784808 l0.9569214997746451,3.7868993809196865 -0.8084838218464061,5.903039661742646 l0.520950484885679,5.126753887654539 7.439801544908999,4.757700458811744 l6.844721302660612,-3.9373362300936026 -4.007709531846722,-6.126034073063405 m-29.79301259231427,-21.78827807655671 l0.18743567328520436,-5.818111312966884 -1.9337015689211223,-1.6907122888750261 l12.395238606826767,-5.596908583833585 0.6464747311148039,3.830086905757739 l-0.025571808235798285,8.391409401973608 4.888383658931084,7.010535574682378 l2.023109310323422,5.451873355608452 6.739293348493751,0.8742728813768149 l5.194499494738044,-2.912657032779978 m-11.905830483043895,-26.29113474907376 l2.0818593143017163,-9.241628445442315 9.753112376707241,-3.842376238392411 l-2.399400921559477,-5.112001308568757 -7.78729884926134,7.383959089989687 l-3.0601345802729196,2.939172336822231 -13.83203568640534,-12.806359182404133 l3.58285480925009,-7.054375681468411 5.03689237728792,-3.321607083392773 l-1.5680750707046536,1.5127116658502626 3.7978741883755363,2.427016873339715 l4.961683174112599,-0.6333405177773718 2.6026879345675877,11.160902789785148 l-11.163395141021235,3.352990812790153 -3.231125278276398,-1.8354957283095878 l-10.181789093924607,-4.6671431889416 " fill="none" stroke="black" stroke-width="1" /></svg>