<?xml version="1.0" encoding="utf-8" ?>
<svg baseProfile="full" height="136.66879740985522" version="1.1" width="107.36692980545274" xmlns="http://www.w3.org/2000/svg" xmlns:ev="http://www.w3.org/2001/xml-events" xmlns:xlink="http://www.w3.org/1999/xlink"><defs /><rect fill="white" height="136.66879740985522" width="107.36692980545274" x="0" y="0" /><path d="M52.96453833985182,111.66879740985522 m0.0,0.0 m7.504112051858434,-13.43673260503771 l18.720490017634866,6.00271617233339 -2.6468346218244414,-43.174310746301124 l0.9099060812078106,-3.5224824006121924 -1.2570470582546014,1.9122324904451664 l-2.039342885786354,5.200056287832749 -7.371236700309496,8.49137037974197 l2.9600606611604428,6.069915889630262 2.621224633063175,1.2741241316308163 l-1.8249160020463484,3.199809288086989 0.9007524130642508,-2.2955079299880103 l0.046244850911034696,-4.20730380048713 0.1444827482455882,-3.314090939885742 l8.149685194968884,-3.707466320927038 2.584810081707658,0.04504422595535407 l-11.542970610503522,11.463238288529471 -2.2145538136101504,3.767046290434187 l3.47534025403677,-4.921612656686349 -2.457619795325597,-8.480515260338741 l5.491835076416012,-12.914346622904297 2.950974525104403,8.935808685895227 l-2.1310843836994886,-0.8252145045231529 -0.538150640429391,1.5341814235195332 l-2.1482910972578226,6.399750915892843 -17.47727736128209,3.351085046372506 l-29.664050073441967,12.415290857535096 -0.9932601696406385,5.680027243323596 l-0.11782171581924572,-1.682320420523885 4.130823100618938,-0.5521113956416618 l4.808522365255284,-6.83545392120561 6.153887119216415,-2.2521653510902953 l4.969099045213432,-6.636397470388152 4.79429852764973,-6.483212917313804 l1.7117532956006531,-4.064666897262369 -4.421774105769953,-16.985597771121192 l-5.354666198433895,-2.714092437077841 -0.42955113727364297,-7.997513656210455 l14.094736783066754,-15.40737900148762 " fill="none" stroke="black" stroke-width="1" /></svg>