<?xml version="1.0" encoding="utf-8" ?>
<svg baseProfile="full" height="127.23360300090042" version="1.1" width="112.46697421152737" xmlns="http://www.w3.org/2000/svg" xmlns:ev="http://www.w3.org/2001/xml-events" xmlns:xlink="http://www.w3.org/1999/xlink"><defs /><rect fill="white" height="127.23360300090042" width="112.46697421152737" x="0" y="0" /><path d="M61.140700081245825,97.51881122120885 m0.0,0.0 m-18.23794899888534,-2.35827090690786 l4.395500356274726,-7.53060148182237 4.100258392654914,-3.755216941106545 l-2.0052370156014203,5.057992070360783 -2.30428390341341,5.246312467104806 l8.011570317262784,6.567775404889143 7.537081529742739,1.4868011671736017 l1.4696757731405774,-2.6118943070015326 -0.43042720134924217,-0.8265256829237697 m-6.116739593550382,-21.570319837628222 l-3.4161737588601375,-3.031772600649704 9.956755217187006,-5.486685867039203 l-0.9988335311013598,1.4568516897475847 -9.356292098437947,2.2835925706931453 l0.8981901434595815,1.931865584551502 12.644324083572617,0.7005045336929119 l-3.8301691922578582,1.6197309238245683 -13.11824923131453,-10.722562244075723 m-6.709414169782703,-18.09057620142169 l2.3336296811897905,-1.9335734302956775 5.843657648267368,26.258455035574737 l-1.0034607919627987,6.4902106195171925 -8.96280660700462,10.41440772377384 l1.5334743828187893,-4.764364126393417 -6.479971277049721,-4.6000747733624365 m-11.73252741211991,-43.239738861241584 l-0.16228282412534387,-11.054416171035376 9.511064558734963,-0.4567175792075507 l3.514287806769376,5.008427363676035 -1.4783320709094916,13.00135171334403 l11.489165847717405,6.9524209129608465 1.9624945713755575,5.8032501311985785 l0.7615650281687225,-6.046036760776157 4.085157914837276,-4.812992750619167 l16.622574448649278,-15.10855334654273 -9.61092126779788,0.7758879005508823 l-0.6073926858742507,-5.3258934156163935 -8.853647904934746,11.422590251515889 l17.670097774198652,-0.20666504993787416 3.756288659825764,-2.689065003479855 l4.549067397779304,0.32233788309420364 9.095504132987436,-3.20072613276234 " fill="none" stroke="black" stroke-width="1" /></svg>