<?xml version="1.0" encoding="utf-8" ?>
<svg baseProfile="full" height="203.7907002232704" version="1.1" width="130.54928210274568" xmlns="http://www.w3.org/2000/svg" xmlns:ev="http://www.w3.org/2001/xml-events" xmlns:xlink="http://www.w3.org/1999/xlink"><defs /><rect fill="white" height="203.7907002232704" width="130.54928210274568" x="0" y="0" /><path d="M105.54928210274569,33.25100456355947 m0.0,0.0 m-15.588919926971922,-1.6769402502161768 l-10.924796916924716,-2.2821400575851056 -1.4604585216191057,-4.291924255758188 l-2.496710226534331,9.035871104322514 2.8587901031915535,7.109990264691906 l-0.39686570693711926,7.871387055639163 5.624843314674095,5.820384648104221 l-0.2629035477455287,14.703742677296075 4.584245771622866,7.6779415854246365 l8.269727826430062,5.662547991439515 0.5345143663210931,0.9384613179916679 l-6.692140229989924,0.1468515582750224 m-13.162014140186939,21.266319285693253 l4.272199965203641,5.150087637085714 3.745628340187015,-7.310911215795315 l3.457569851015961,1.302518057252325 -3.7880808424985593,4.731577697955978 l-5.490368644818485,0.537547276612241 2.9666633933640587,1.62009963002594 l14.102446383005022,1.2458157001343062 -0.06256418740921155,-4.884214056105682 m-17.09214165000745,0.5096561048220827 l-8.206586466392034,4.138926197511121 -8.50688602739397,13.007825163222988 l-9.072929134820921,12.293581448059916 3.8954646398880977,6.1310930805285135 l7.7761832876578225,5.086036306531772 16.29000819727801,1.3751773600902375 l4.608604658349254,-5.084289991216382 -8.811522678867139,-23.72871403955107 m-16.992724174639797,9.442698449400737 l-1.9984006307760611,8.011803081028104 -3.241022347767997,9.852431588525015 l0.8257026684486396,7.544497901635046 -13.350031864461775,6.212625297015579 l4.054419974809293,3.823101078210401 -2.214869189227571,1.2063633565862897 l-12.183047812596428,-0.45486029751729085 -6.420309975605174,4.4177413271537205 l2.8104771551479315,5.003180207240068 12.456760694372965,2.375808387950058 l2.0212696249293383,-41.14384982202402 " fill="none" stroke="black" stroke-width="1" /></svg>