<?xml version="1.0" encoding="utf-8" ?>
<svg baseProfile="full" height="184.94819558730057" version="1.1" width="178.827193336142" xmlns="http://www.w3.org/2000/svg" xmlns:ev="http://www.w3.org/2001/xml-events" xmlns:xlink="http://www.w3.org/1999/xlink"><defs /><rect fill="white" height="184.94819558730057" width="178.827193336142" x="0" y="0" /><path d="M60.63275326864123,62.017434900484155 m0.0,0.0 m8.900723302716514,9.444431669340036 l4.8883240309016065,-32.54706026220822 5.125586244897888,-6.914084360352246 l-1.542080137361424,-2.5307356309498594 -2.110833452889797,-4.469986316313865 l-1.4770306348099518,2.273586020689399 -5.702409817866578,11.873976542596361 l0.38897572011899567,16.218797020512465 0.11571764775934461,11.513449770094951 l3.9291202307293753,5.152081156689065 4.703015040727311,5.659133880427465 l10.870435820442765,9.053454871727215 11.389776459414692,7.99051397882355 l4.860507253889065,6.335448295870001 2.159357460126725,3.485605006656223 l8.353206277959941,6.912406652686016 7.950016050192945,10.872488690149327 l5.937518952723636,1.3536595703409064 13.500252099496022,1.6180261729943057 l10.954261518331666,6.219300739190083 -6.681741121009613,3.1130227897461658 l-6.618287809062937,4.847191446755461 -12.861803878953856,14.96727925540414 l-6.936274886344653,5.488773725947502 -8.525702297446335,-0.05798865197232772 m-19.704634276580027,-51.30520890964313 l6.058855213621827,-5.829561180953353 7.2014305965346015,-8.489275993051312 l13.441375178370418,-8.15417050726827 -2.6392417035063307,-5.305934116739177 l-4.47407001783189,-14.837117793957937 -11.139729008486993,-7.770450531159916 l-7.527192359043596,-5.833480833817493 -12.41388060398707,2.228423194113057 l-15.581798825200902,14.502096888263951 -8.434107189026113,15.565064716389092 l-31.990390348188512,15.918750660817716 9.816581014638857,-6.443665632521152 " fill="none" stroke="black" stroke-width="1" /></svg>