<?xml version="1.0" encoding="utf-8" ?>
<svg baseProfile="full" height="162.22885563105035" version="1.1" width="102.21205428783449" xmlns="http://www.w3.org/2000/svg" xmlns:ev="http://www.w3.org/2001/xml-events" xmlns:xlink="http://www.w3.org/1999/xlink"><defs /><rect fill="white" height="162.22885563105035" width="102.21205428783449" x="0" y="0" /><path d="M54.471478521587656,137.22885563105035 m0.0,0.0 m-29.47147852158766,-28.302361306963757 l5.998870190324347,-5.38832300666389 6.829890820853542,-6.1033763640060865 l23.8678809093497,-13.625012525575414 3.8474936680270786,2.7351677001689376 l-1.5182066536025913,3.7935216148934274 -8.595914159805309,12.958372111138035 l-3.8962797238505176,-12.517577241088404 -2.716748562178942,-6.647678365098529 l-6.876244699713588,-6.267330558944921 -1.4957293626580344,0.8374236833081861 l1.4289635838872665,-1.192924531891651 -2.4548247421214673,-18.25032762300646 l4.5580109363328525,-5.848943352535385 10.270889254877975,-28.40948586478446 l14.672433011459768,23.1563358941485 6.117189640954612,8.044149443906443 l-4.340349632249095,10.461589110612403 -0.050125444556077814,-1.9402351836443434 l-1.9037251344350736,-2.1251073456791008 -4.373864259020113,-1.0678712334696243 m-7.861849305247622,-20.429334820653295 l1.7355245549045988,-7.47402793964594 6.110671415427637,-4.690950516055754 l1.3137107656168128,0.923970989932125 2.5720803263595347,1.8436438923004708 l-5.466742738267508,1.9855112925461575 1.1099611349881624,9.085655969449272 l-3.354292904293861,6.182316999747945 2.53306293073003,7.525728139956332 l14.150318465740368,3.7460759133541948 -1.1880461392757118,-4.719311215841401 m-38.48865896171148,-9.721316178257347 l-9.138347807195665,-3.7212126370484846 6.122424455783042,-3.6840758750939706 l1.8717598684571537,9.139854892468456 3.373291503373692,12.50268732945194 l-2.525429587554685,5.169390011965814 -6.521023186165025,4.676736727090192 l1.9926345383389472,6.810787204629465 16.842277860773688,6.93557329053963 l-2.2674387989220195,5.898259549531876 " fill="none" stroke="black" stroke-width="1" /></svg>