<?xml version="1.0" encoding="utf-8" ?>
<svg baseProfile="full" height="198.5471589840895" version="1.1" width="101.33330035628903" xmlns="http://www.w3.org/2000/svg" xmlns:ev="http://www.w3.org/2001/xml-events" xmlns:xlink="http://www.w3.org/1999/xlink"><defs /><rect fill="white" height="198.5471589840895" width="101.33330035628903" x="0" y="0" /><path d="M50.99345610399584,123.98236214398142 m0.0,0.0 m-25.99345610399584,-30.668787995875164 l5.809670015097594,-9.35030023952661 12.056856361185739,-4.875398523114985 l5.762909400199484,0.8798442953645188 1.1034292415253921,8.768522717724734 l6.013342329416511,3.659836326413866 -1.5741680752545812,6.187823807133823 l-6.629150854771407,35.774760404065425 2.261523282304108,5.953696659808873 l-0.040265681613121385,2.336250071052046 -3.6795978244241345,16.80843867709342 l-0.31692854462755826,8.649970905894163 -0.2974052032026264,5.440139734073948 l-8.519337419102401,-1.7086591918069594 m4.9433964793076,-135.31554399652597 l0.252043375891861,7.031009171393023 -0.6060909529503211,9.88687260845174 l4.944667733194913,6.689892706165013 -1.6346931388163082,5.247496755354179 l-9.61440689030599,2.2148366951994363 3.0470158215077636,4.411505957339651 l12.888804391525618,2.2283181184595424 3.9053681404166367,-2.105244769513311 l3.536152742280452,-4.3657645075714875 m-13.550145293882885,-23.01528362882 l2.436409141152552,-10.990811337679819 4.857294908093856,-1.9993899990171926 l7.63338067016548,4.671116680197597 0.3790240882151589,4.347924450313485 l3.3703418861896304,4.4573171071366495 -1.4862652713795712,5.761066264093648 l-0.5442612943522811,4.425385082357504 0.8345902235026745,5.133519232206188 l9.999287862163792,4.2366097484381555 3.790508707635396,-3.677386907838217 l-7.275451506336369,-7.154784766266748 m-17.478624058779587,-13.413632500135312 l-1.382884174455778,-6.134317626677601 6.590147899882351,-7.279496107434936 l-1.040620201135149,-2.129714221907732 -5.175740255706827,3.125573466819327 l15.26298035023115,0.09118693026441249 " fill="none" stroke="black" stroke-width="1" /></svg>