<?xml version="1.0" encoding="utf-8" ?>
<svg baseProfile="full" height="128.8834021151144" version="1.1" width="119.10213339247369" xmlns="http://www.w3.org/2000/svg" xmlns:ev="http://www.w3.org/2001/xml-events" xmlns:xlink="http://www.w3.org/1999/xlink"><defs /><rect fill="white" height="128.8834021151144" width="119.10213339247369" x="0" y="0" /><path d="M50.70631871253356,64.70742636206148 m0.0,0.0 m16.457550806025523,6.956228970720959 l-6.282273083824685,7.356543391523178 11.885056458203511,-28.838448560615948 l4.281575629429712,-3.0593151854622223 15.058661602322147,14.371668319231281 l1.9952432677839216,5.087410435658552 -4.651574429524275,12.457270788499128 l-10.399722098944855,0.50083722276061 12.972222155492672,-16.89328855598244 l-4.626222739785944,-1.9978611606250096 -2.6400368412010633,1.940560930664156 l0.5699207820527797,-0.671305455187198 m-49.86883974708722,-36.91772750324654 l0.6126548372572346,1.7060953966351382 3.862608575238081,3.857323332660153 l2.3929881399419575,1.7745189054603197 0.14027985424781259,2.2064282311871892 l0.6549545123965457,2.9115235020652843 2.7493251391230564,4.346290852228464 l11.23007456381333,0.728266924569414 3.8550987707669804,-6.862898322005508 l-8.177302614356297,-1.83643801555594 m-27.778562251904482,49.38002393863894 l1.6300912236470322,1.9650081397085697 10.2803338915886,-4.691355672664868 l5.981590903354808,0.21198063658601346 5.860863117640075,0.14309816913363416 l1.7644453476385868,3.2340004444819535 1.2824899180220946,5.072271976260441 l0.9884244361346098,4.863776808321058 -1.7290057986014085,6.507265596535555 l7.4559340062937745,3.3662212708685946 12.164685518140656,-0.3296969705925956 l-2.1576408491408237,-6.012072436982107 m-26.780044458534203,-23.1334521219609 l4.991341881146442,-5.937753384151093 5.950448925125969,2.1734595596129016 l1.4956406416433077,2.4882868633023003 1.0408652354491663,3.5572064748512235 l2.335627345351632,4.434520772536635 -0.45559645139962635,4.690423475824881 l2.2241424776757706,5.577571453684409 " fill="none" stroke="black" stroke-width="1" /></svg>