<?xml version="1.0" encoding="utf-8" ?>
<svg baseProfile="full" height="124.76031274353541" version="1.1" width="112.93493163585006" xmlns="http://www.w3.org/2000/svg" xmlns:ev="http://www.w3.org/2001/xml-events" xmlns:xlink="http://www.w3.org/1999/xlink"><defs /><rect fill="white" height="124.76031274353541" width="112.93493163585006" x="0" y="0" /><path d="M75.08445491254315,64.7762513528611 m0.0,0.0 m-18.47056910013856,13.956847604413314 l4.427380918568698,5.760432597328659 13.018538104068542,-1.36724278752639 l6.789057463130412,-1.5536962200326954 -3.1756183109994205,7.043957150397102 l6.0697448655153945,6.43139382812339 4.1919427831618545,3.807784409941779 l-2.2111650768071986,0.9045848080291563 m-42.450009831753746,-57.713616230187704 l1.4781365557375614,-6.187824020063806 6.691251278970403,-5.282924473741184 l-21.366848592784983,-5.575948019542718 -5.076295969212101,2.015614570500746 l5.18695798426698,7.656910247585535 13.118270608027055,1.083659052472115 l4.081864660790166,0.9830161775425407 10.616600891359546,4.542656665543502 l-2.086249306835433,4.13434800897758 -15.615123413043293,18.855354940477074 l-0.2837071735413388,3.6959931080782042 9.05760664905214,2.2605799324132847 l7.122859449736554,2.9676603246109967 -5.558084100778502,2.0911800684380037 l-1.0345615024325094,3.7974856826515024 3.5902316146704254,6.1008922658820985 l14.614363433794303,5.2088524293677505 2.2744117563044646,-4.2831780239973165 m-36.27690095962665,-2.410006547775514 l-3.103517589962125,-5.214145001769071 5.654186377517095,-5.103302390089047 l-4.27153079212519,-11.366618043441171 3.315828138399629,-5.9308883614852865 l10.47030127392456,1.5934580752441774 1.8336499100758896,4.4933447103667525 l2.6983555014371094,4.2033580512208815 1.0576373208316288,5.859608046850799 l-2.6610798168992904,4.984747554656484 5.632458698932608,5.40070439315653 l13.424521937739101,-1.3694417682836029 -0.7002631853801422,-1.974847644344531 l15.974762628491591,-10.303661322582688 -2.639607726053265,-20.193385353443134 " fill="none" stroke="black" stroke-width="1" /></svg>