<?xml version="1.0" encoding="utf-8" ?>
<svg baseProfile="full" height="172.13509067151796" version="1.1" width="135.567173076384" xmlns="http://www.w3.org/2000/svg" xmlns:ev="http://www.w3.org/2001/xml-events" xmlns:xlink="http://www.w3.org/1999/xlink"><defs /><rect fill="white" height="172.13509067151796" width="135.567173076384" x="0" y="0" /><path d="M25,143.86585077121288 m0.0,0.0 m1.1256033850172997,-48.209884573398554 l37.724441190263,-67.02829707222965 11.975461833375899,-3.627669125584693 l5.217663591142507,5.080867176059813 0.9411123992564637,4.897133784681766 m0.14694838143224254,3.2085843822283944 l-1.0955623844226159,5.820568935945816 1.0796454867610945,7.6947884370029715 l7.52281771196599,4.963445472762808 7.635821558982259,13.065705432563899 l-0.8458304223271751,10.585475798373158 -15.043380658315028,10.065853175243458 l4.676858508567229,7.862978963618941 1.835519988948933,7.094432274995057 l-0.2114199088679021,7.084534792224965 2.9013463625476144,3.558079293678287 l-0.21152878781382833,-1.4318402100487126 14.121650101572104,-0.5908926842156476 l2.723783673925068,-2.168986905901585 -2.1083359127282866,5.629385085164412 l-1.218166224980024,0.8688179637604018 -8.302059638658452,-4.25991397810051 l-1.662104335880844,-7.658512371351822 5.3411440159775525,-8.190162026965947 l3.2922823222520794,-12.383012558510904 2.560275463823091,-7.717697228764666 l-4.952479991762227,-5.466797366422663 -1.5413567457706818,1.7496309885229737 l-0.5632478774028283,3.3647965163699305 7.146047606471424,4.8174167559093855 l5.354222383032064,13.586032835870498 -7.741797920304064,8.771838369522946 l-6.973092400010487,6.7441555035015766 0.21508237760975185,6.86179826996463 l-16.417195799332383,0.9721385070076771 -17.784433503943042,0.4795984419681851 l-1.4899882207816721,-4.39510455134247 22.882368157115273,31.569953396200926 " fill="none" stroke="black" stroke-width="1" /></svg>