<?xml version="1.0" encoding="utf-8" ?>
<svg baseProfile="full" height="155.3980547227978" version="1.1" width="141.97671740570058" xmlns="http://www.w3.org/2000/svg" xmlns:ev="http://www.w3.org/2001/xml-events" xmlns:xlink="http://www.w3.org/1999/xlink"><defs /><rect fill="white" height="155.3980547227978" width="141.97671740570058" x="0" y="0" /><path d="M25,106.53301126568387 m0.0,0.0 m23.88660502234071,-7.7157047254567095 l4.207704659595417,16.25107122074475 -3.1634331304241505,-32.51417564845875 l1.2058193213110613,-3.911942651219962 -5.644954743407174,1.4105671329932623 l-1.1256711336972691,4.337941175247604 9.577541925772655,6.948154985690391 l9.726759423931195,8.709632697968912 4.076607437238398,9.903165042007242 l4.1131366128546425,6.874394167510494 15.164460789587103,6.605059139945577 l12.509081893617813,1.2314573704237097 7.19984483653256,-0.8207430646286817 l3.6167542570531706,-0.05698966918664422 -3.984901774452903,6.613156283532763 l-0.14269109762271331,-3.792471465337387 -6.750653620142272,-3.4142814602202134 l-4.3362722141994405,-5.72400312345954 6.517631091892655,-6.771484144254469 l10.6384761845601,-1.9459064298533002 4.6848716633590435,-1.3874257346897727 l-0.47879602754733575,-3.0685975234191285 -5.313455033541965,1.480523705398225 l-7.829171140607426,3.6039504427964446 0.32547560674390436,-0.8531465379490923 l-4.464366460962956,-16.546245866465366 -6.19400926638678,-6.276192081228529 l-24.844813896010226,0.09262978299980379 -7.064807309025882,2.3387885018856207 l1.6480936144617535,-5.535995471246109 3.5733646779959782,-13.404587124797722 l1.232111113486588,-6.583245905725638 6.08315514672989,-2.8979919708906468 l1.2042522617758011,-10.261968135976504 -8.708879929155444,-5.31311083306558 l-9.349629696018761,-5.62976012703512 -6.617984980404887,-3.87137231894638 l-1.7975007776820322,-9.636160901317412 " fill="none" stroke="black" stroke-width="1" /></svg>