<?xml version="1.0" encoding="utf-8" ?>
<svg baseProfile="full" height="196.6245741771068" version="1.1" width="131.93964678321257" xmlns="http://www.w3.org/2000/svg" xmlns:ev="http://www.w3.org/2001/xml-events" xmlns:xlink="http://www.w3.org/1999/xlink"><defs /><rect fill="white" height="196.6245741771068" width="131.93964678321257" x="0" y="0" /><path d="M47.886623458604696,51.64582504615076 m0.0,0.0 m-10.788647753472373,17.71431100478693 l-2.682005226370343,-0.2956023137896979 -1.8106896939201,-34.180187106398904 l-2.6581318280369857,-1.022674922182974 3.197171665809223,-8.861671708566115 l3.4532033628555645,2.0391033709721653 -4.972295758413389,5.719346989590953 l-6.625228227056293,0.827956702065208 5.928621820780206,4.553372319555358 l12.670469156897047,0.7868069882619219 0.4585428100245779,-4.487121540529036 m-7.40006834015484,120.71245275828583 l1.8263089912410368,-0.32650927477607405 11.055493495084809,-6.185309114651179 l6.981301044192536,3.060153912597269 1.1285296451425397,2.4913521161495713 l1.383011882558334,6.26964033468747 0.0864589956797836,5.474722980988848 l-3.858208697670513,3.6533435949961643 5.223914271366718,2.0352620389123572 l12.573984365793214,-1.3042507938452386 -0.4662990728634057,-4.332629049615752 m1.8375339934891066,-45.886915427550825 l-3.2603525449429864,2.743351314799709 0.9578014718440009,1.8670080200629493 l2.890098205293008,5.089919851452733 2.1400356238608054,4.765329601037297 l-1.7769181474217615,4.218986866456905 5.544345729551321,6.616535076733628 l14.938130770747915,-0.3790340072206652 1.2983325266629777,-5.654067938184459 m-1.3163380343305153,9.69950969774984 l-1.3754511794883166,7.651057116879174 4.067074635590046,-4.786670732917416 l5.8214484981032655,-7.065272569079353 -1.0026384022796238,-1.7912794321510577 l-4.998363078343742,6.6235108922582 5.784398276783362,4.2416751236907295 l-6.093609688172139,-13.073122264966338 8.892057758193777,-0.8231464853056447 l-3.874723786663812,-0.5078205454092344 -7.525971508181401,0.5412008638216883 " fill="none" stroke="black" stroke-width="1" /></svg>