<?xml version="1.0" encoding="utf-8" ?>
<svg baseProfile="full" height="149.88273828524592" version="1.1" width="147.16710897926936" xmlns="http://www.w3.org/2000/svg" xmlns:ev="http://www.w3.org/2001/xml-events" xmlns:xlink="http://www.w3.org/1999/xlink"><defs /><rect fill="white" height="149.88273828524592" width="147.16710897926936" x="0" y="0" /><path d="M122.16710897926937,121.1624831412973 m0.0,0.0 m-40.8466818471544,-29.758861106837145 l7.881463911912563,-9.70420546571437 7.5519699249325045,5.602905605849801 l-2.46764859781908,0.21154734628526214 -3.646970761228334,0.2119905585488674 l-0.6412695726209738,-2.8775454497883066 -1.4304373874311596,-1.6945767973496286 l1.4421969960605585,-0.9249977309031755 -0.5999784953347718,-4.70049832098942 l-4.663486032648731,-6.963341640000018 -3.994227911159666,-2.752132785180215 l-1.2400044875402978,8.012042132798832 5.514834993337063,8.01138295564126 l13.606026304981468,-7.4967867341252425 1.5690739496449815,-6.326869181569729 m-59.327189167372154,54.87020175728184 l5.279037091277665,-4.967510193537533 0.3663414760256453,-10.906543680259876 l1.6265782777545668,-6.5235052107655385 -2.783564113154793,-2.696855561001791 l-8.470707584336578,2.0067520463686517 0.033520811078807944,6.297040720565899 l7.582526491494,10.365383817117353 -4.064160758038905,-3.291008088724685 m0.8763654680005706,0.7849838319588931 l-15.53346140372029,-15.93556539854209 -0.7872565562095631,2.2416798038539296 l3.680699347220198,-3.211635660786943 1.64267718209072,-0.7804262693992484 l0.2136830610378001,5.927886886704343 15.899066368793413,4.897999011742091 l-1.7875025970951475,-24.48896514647524 0.9042695609946033,-36.65665142035286 l5.594769752810792,3.020535765706388 3.485465875918452,-6.396544245799678 l14.728805531249831,-19.003871340853582 -3.850175485817692,5.570276391888936 l-8.406899279143811,1.7061580891871413 -9.663597928374262,-1.6564152255352818 l-3.6144412086203546,4.59825743304561 -1.0898765370334735,-2.736206270880719 l4.553121943747264,-8.047988370470113 " fill="none" stroke="black" stroke-width="1" /></svg>