<?xml version="1.0" encoding="utf-8" ?>
<svg baseProfile="full" height="116.3448981122933" version="1.1" width="139.99619645014093" xmlns="http://www.w3.org/2000/svg" xmlns:ev="http://www.w3.org/2001/xml-events" xmlns:xlink="http://www.w3.org/1999/xlink"><defs /><rect fill="white" height="116.3448981122933" width="139.99619645014093" x="0" y="0" /><path d="M75.8294566987419,78.59963214175059 m0.0,0.0 m35.42051555633762,-1.5252679611660036 m-14.163751230335292,0.3386139756458123 l7.957946068967023,-0.5646967208352958 -11.28580860875453,-0.7315454012370726 l-5.505932025669109,-10.101529915627255 -3.757192340036053,-5.569593534940706 l-2.393225262679015,-3.002453655318967 -0.3932572526679028,-5.735692743778656 m-9.257131347207594,14.389395289112352 l2.9956391047833195,7.871135796079624 12.064919099684003,6.371380616393949 l-6.385311553013027,7.441193346168788 -2.12097565539923,-0.28715469571057795 l8.365503905530487,3.8514815757567153 -1.1762012628199299,-6.5974515510151 l-4.1370292776980255,-6.172579764743922 m-22.998146734788726,-53.574866796534266 l-0.5586584976688782,1.4440929378092262 -6.084744655946374,4.465344511415327 l-5.959820814712267,-0.5207995694598749 -10.328800249171666,4.015618993426988 l-7.012810278275153,-0.03780583023094322 -4.115183387201575,-4.112405165249986 l10.153625732108038,10.06081331960757 22.446085918346117,-2.9377802026826854 l4.026199641248051,-0.6656727531489335 1.278199632659816,3.471187235373477 l13.117683151466638,12.824491664465109 17.54506097706869,-3.2210742791052396 l3.3573517921711082,5.216694435275914 7.641152037243476,-7.331315262816227 l8.72232576182881,9.121515016456813 1.708511806000177,5.0816352653189085 l-12.0065366060223,1.197953078068225 -7.138435306024691,0.8448032431740378 l-2.0668751991870353,0.835348475073789 -0.47608929672837214,-0.07606902041220567 l12.108482376730239,3.493740264981892 1.533011132211838,-4.3959063309521484 m-33.510309118494895,5.051882877084886 l-9.0497960268588,-1.5790112192404526 -2.5920660985754376,4.314994641723944 " fill="none" stroke="black" stroke-width="1" /></svg>