<?xml version="1.0" encoding="utf-8" ?>
<svg baseProfile="full" height="120.41206879612928" version="1.1" width="157.95209218169518" xmlns="http://www.w3.org/2000/svg" xmlns:ev="http://www.w3.org/2001/xml-events" xmlns:xlink="http://www.w3.org/1999/xlink"><defs /><rect fill="white" height="120.41206879612928" width="157.95209218169518" x="0" y="0" /><path d="M25,64.18307477691485 m0.0,0.0 m0.052353782620901956,-8.07982013005712 l12.118745625400544,2.7723550317181744 3.8718554036926,5.830954331529041 l0.780298295398365,8.179094925985293 6.856525790385766,-2.7747342996889754 l0.13915176682803343,-2.3729463556800936 -4.826410769043774,-8.380671372351722 l2.1049658200765275,-11.806037345410116 19.071636140129947,-5.983908174166937 l-0.18801619567312203,-5.722513498371879 -1.5459703757737908,35.16767021043943 l5.90219628911959,7.705846466080604 2.683535512848617,-0.6830914141107775 l9.179109111007886,-6.545747276587739 5.342145361835133,0.3472669243465676 l3.9420644309497144,16.167347399530765 6.538890570890993,7.407928596009907 l-2.737809657498725,-4.126110093499552 0.2335809720679738,-9.10309317179288 l-6.034664616916117,-14.754096489021801 0.6388155651053015,-8.611130910765901 l10.10713548173571,-10.45389513036234 10.195366148980984,0.8267779562569288 l2.8955888024647285,3.5693323347431343 0.762425760953546,7.848438822959449 l3.1682008096595746,5.195644771276453 -0.8568734640150651,6.361692484114523 l12.206376549357252,4.495797337387797 5.35087326910608,-1.0568162154480913 l-4.658641999797009,-3.3634935950206013 m-50.95556545221216,-36.642718311747494 l-1.8191711250701355,-6.438508319612124 6.7477500920474975,-3.0838308688373686 l-0.48505074722748676,2.2256138252025526 -2.981074264736712,4.483282191029117 l2.5493633187745326,7.661658195888806 17.128198476211722,0.11577617684732852 l3.3744202273694244,-3.900649795320321 -7.807697223212293,-11.661739990406884 m-9.26310130212093,58.69553776953186 l-1.4682701636400977,1.4658836579499612 -4.547733053123603,-2.5074684219408443 " fill="none" stroke="black" stroke-width="1" /></svg>