<?xml version="1.0" encoding="utf-8" ?>
<svg baseProfile="full" height="202.97911452651002" version="1.1" width="159.13122088382863" xmlns="http://www.w3.org/2000/svg" xmlns:ev="http://www.w3.org/2001/xml-events" xmlns:xlink="http://www.w3.org/1999/xlink"><defs /><rect fill="white" height="202.97911452651002" width="159.13122088382863" x="0" y="0" /><path d="M25.098176069239102,82.51457829924394 m0.0,0.0 m-0.09817606923910066,-57.514578299243944 l39.46801675551212,32.57711119960543 2.633303594580365,-5.127737978846865 l5.818636737120962,6.05475705364749 2.0751276748687366,5.159651749780265 l5.550213614702644,6.929102685543779 5.131014615386543,7.238982103721848 l4.281614841535457,2.1774372254554435 4.6695550769966205,0.7844383718060779 l11.128868180776092,6.5909327571541905 12.351016715281276,0.2907044280723192 l9.021853437875654,-0.7491778153776529 7.001999639192188,-2.689417072747572 m-11.895452001474665,-0.12951949813958308 l-11.004153392845692,-3.4410659399458763 -6.930372582668732,-5.376044719734214 l-13.487250731967867,-2.0552201324663235 -3.0203403297246956,-0.6664025927170593 l1.4528410942940209,6.937023713552641 2.5093132959779716,17.102259841929683 l4.516621472426658,10.942656636558622 -0.4302678803588026,8.767101646810564 l-6.097553596553089,6.942771210915414 -3.665575985040997,7.603838840603903 l-3.448095529544437,9.781594645491571 -1.5005969071142438,12.622755416838073 l-1.8741421571022416,9.275804514169904 1.8133925708232173,1.7815748028965062 l4.990315874374282,10.046677204992093 8.0971401343273,2.5410119441492904 l8.354313506442406,1.0655122827900503 8.856582880714209,-20.852629871145307 l-2.795961065889177,-3.011427000885539 -7.0837494091683535,-15.411830996659148 l3.828153500347622,-21.972464747014424 3.892569247895284,-14.75540886402177 l6.77958984495121,-7.644901208066087 6.540010476596752,-58.2948410601046 " fill="none" stroke="black" stroke-width="1" /></svg>