<?xml version="1.0" encoding="utf-8" ?>
<svg baseProfile="full" height="163.74494395658914" version="1.1" width="114.3192081042547" xmlns="http://www.w3.org/2000/svg" xmlns:ev="http://www.w3.org/2001/xml-events" xmlns:xlink="http://www.w3.org/1999/xlink"><defs /><rect fill="white" height="163.74494395658914" width="114.3192081042547" x="0" y="0" /><path d="M47.79675387406613,103.17707286969056 m0.0,0.0 m-22.796753874066127,-56.49512630480228 m3.830976756984673,-6.625259339433819 l1.971335369421967,-1.679980122164321 2.973270617764978,3.3050371363660034 l3.5765676438892022,0.3083546668134542 4.392025249089723,-5.568091785733271 l0.3239000812495686,-8.299596711174596 -4.656751483648552,-3.122410409561731 l-1.365723348893149,6.8745202981665 1.2675104031550581,2.7085463171710016 l10.553073222451616,2.9105251888983283 -0.053055638675718886,0.7123236785955445 l-7.4210152899793025,-1.1148565843847904 m-9.893893383170647,52.06968487532102 l4.930459027192744,1.016892223967965 7.524017445878527,11.343145795670422 l5.361993174666335,3.79289812321855 1.5720130514215451,1.5863575331957585 l2.6726495801317527,4.321412807370737 -2.2581673111729987,5.028939306989968 l-0.9068044569883932,-8.134809011711832 -3.5137843123384362,-2.9881861172095636 l-2.9347795122681406,11.39173483094412 5.73089322685751,15.99106649557434 l-1.3560391952189754,2.559377081431753 -3.7388961942856613,-1.4773994809964475 m8.877194518903446,-40.33489427522963 l2.252660646991042,-1.0101130096200561 6.046306961009951,-1.9487333022612818 l7.16644171789247,2.1197300436569257 6.566292967239917,13.221061191427781 l0.9983929440286582,0.13353099528137735 3.0391503632337025,9.835645597303689 l2.5150616170843745,3.4313978335266007 -2.639032274489191,1.9397991084100166 l-9.067313814385942,0.4646325640830305 -5.663611788986676,2.6735846979300857 l4.318018326070228,3.6269677588742413 12.680922647523584,0.2816666889794819 l8.646948548623902,4.118481163251097 -1.523941195502259,6.600013538762417 l0.5703239559816461,-3.2795015322327408 " fill="none" stroke="black" stroke-width="1" /></svg>