<?xml version="1.0" encoding="utf-8" ?>
<svg baseProfile="full" height="140.55861591996114" version="1.1" width="116.54624260460633" xmlns="http://www.w3.org/2000/svg" xmlns:ev="http://www.w3.org/2001/xml-events" xmlns:xlink="http://www.w3.org/1999/xlink"><defs /><rect fill="white" height="140.55861591996114" width="116.54624260460633" x="0" y="0" /><path d="M91.54624260460633,99.73250565965388 m0.0,0.0 m-56.96763245084025,-15.58234842463162 l8.577601887592026,-12.87015395189258 1.614242461707375,3.6696783735185727 l2.992433121784427,9.103121485795906 -1.3480373386899565,1.7092584669102917 l-1.35640362907392,0.16729390915040016 1.661861312461257,2.543846715617831 l6.569340429095481,-2.0008385558367396 7.369291388356302,4.086145500184355 l3.626816444128824,-7.401742521760308 m-9.738444651094419,-53.09440901908664 l-0.4467977545268609,-5.062357637623346 7.131696851027509,3.327200216637066 l11.598707362918335,-0.059284622285808164 2.240704056581153,9.34783337310455 l0.5629739487740006,3.7894748638487705 -3.1543771835223127,9.247693193888317 l0.7612514864273447,5.373203950192661 9.379421077560561,1.4840350736466756 l5.501906683526667,-3.337393811651327 -10.712906983102394,-6.007328683153631 m-15.081740980101765,8.86292082168007 l0.6103438895718858,8.717363905015008 -0.43408046995199184,10.180057268763038 l5.861505162366623,6.916360913302944 8.376345764016959,7.890527841700313 l-2.565097619099518,0.5972556923302904 -6.089381453192018,-9.076545945432892 l-2.729667047602674,1.6948201722662175 3.7171887942406037,3.209535609821459 l-10.531176863206996,5.810626466098868 5.426473583289635,1.9507418767192248 l-2.9145349215880847,4.721480207955457 -10.274200974074336,1.130039596016759 l-1.864633576858498,1.8832440978810407 -3.150676332327349,4.908865747647269 l-9.909310788659715,-3.3284407248090067 -6.891820185141519,-0.5903903988499044 l-1.1722575211498902,3.7176549779260157 15.030860916901464,5.736693407338048 l1.4542214525463348,-2.13439730539462 -19.27825195567663,4.594768137758277 " fill="none" stroke="black" stroke-width="1" /></svg>