<?xml version="1.0" encoding="utf-8" ?>
<svg baseProfile="full" height="237.36856297473872" version="1.1" width="107.42844139499334" xmlns="http://www.w3.org/2000/svg" xmlns:ev="http://www.w3.org/2001/xml-events" xmlns:xlink="http://www.w3.org/1999/xlink"><defs /><rect fill="white" height="237.36856297473872" width="107.42844139499334" x="0" y="0" /><path d="M50.433235890763456,188.6196164726346 m0.0,0.0 m11.179521882968558,23.74894650210414 l9.054352503576863,-52.70323590300756 1.9026797058274294,3.7364240871169856 l9.858651411857029,5.2422489590090855 m-32.91542161859836,-78.72458811128318 l-2.039295602739882,5.290699144549149 3.6104429328855914,0.8158249777112573 l13.024008750029907,4.100702566619064 7.8930627834185305,4.254821436888316 l1.1946855440381698,1.5363405130888421 m-32.531854352193946,-66.89869245012116 l1.4428362503146197,-7.512677265116234 -0.5863901124266002,2.351236885915593 l5.138341386323934,-1.018093831493902 4.520375299101477,-7.839573984615025 l-1.2853890467621436,1.9463859653056648 2.182745057028382,10.836363312254024 l2.5458760543309147,1.9844116546271753 -0.8166468115734377,2.2115901650975998 l-0.29065204175812515,2.9947395153461174 -4.113982414761269,8.482415004642858 l5.24030768613245,6.964789496361503 8.870095560157075,10.7622786003992 l5.286876963226225,12.72190425260454 0.19463615716284827,7.000471403253153 l-9.151874237964387,10.193885257181309 -13.985746960612392,8.526531956567062 l-4.340914146867786,-0.6052648694819751 -5.771454399974278,3.6997132851558243 l-1.839256921919834,9.473403529339699 -8.903853150991022,-0.49731093063974385 l2.348450379517122,-2.8017397045040964 7.3496687396309035,-5.554754218659187 l2.835689169317275,-14.393857167043695 3.2290385572791345,-2.604777312058658 l6.957519854960359,-3.8415940263105632 -1.364718444370412,-1.561549910706716 l-11.181906309739926,-4.789079898415561 " fill="none" stroke="black" stroke-width="1" /></svg>