<?xml version="1.0" encoding="utf-8" ?>
<svg baseProfile="full" height="243.02147181302317" version="1.1" width="136.94906686644717" xmlns="http://www.w3.org/2000/svg" xmlns:ev="http://www.w3.org/2001/xml-events" xmlns:xlink="http://www.w3.org/1999/xlink"><defs /><rect fill="white" height="243.02147181302317" width="136.94906686644717" x="0" y="0" /><path d="M75.50264090243815,218.02147181302317 m0.0,0.0 m3.7445530668085145,-78.28794352406618 l1.3592215239855656,2.0712443932388562 3.400694249782999,9.896847312477203 l-0.9960857538558862,8.621254174156011 8.489562036114592,4.601394867663693 l-3.566603246666613,11.736205384436435 -6.702824170799424,7.96640440180953 l-6.938539184275642,3.817994709974873 6.354635398001097,2.9074402915820783 l15.19985049648398,0.2988286834688167 5.800550148099992,-7.146072944964188 l-4.527518457568582,-6.838535824910443 m-6.5938687131733715,-11.464338446999797 l4.900182700770978,-5.454183955157279 8.011295276416645,0.2833673290947066 l6.835386130887995,4.713684555135649 1.6759344629961732,3.588874343770783 l-10.63908612268512,5.309236344209913 -3.2750133744723864,-1.3544488015450062 l4.6354308047170765,-1.8658197327759054 -0.06653603077824116,-1.031583205352861 m-77.47282118078287,-129.2872815128692 l-0.1310409624455993,8.671257816879509 1.6803367966708473,3.3952829398137983 l15.765625960950556,-13.275605954160982 -2.2437681144265085,-3.523837318404764 l-4.46015310494489,-11.371138139528409 -0.5217017380038317,2.0281860828308154 l4.137432595898679,4.039842792661164 -4.579063670005879,4.396454668962992 l-1.7843897475126402,7.011064015583792 7.541231403417839,7.868193353515825 l12.693803512984717,1.9603666760432616 -0.7855414861097905,-1.4822814892285237 m10.199710842873028,113.75959785424631 l1.02249963013214,-1.8408391472094678 -1.4468291768488066,-10.319283988131494 l0.6830587250501615,-7.223629927139817 4.898937419738861,-8.094429932896995 l2.2650437573166258,-1.5323293289694975 -10.012069857315197,-59.60798894003657 l-2.140649362312868,2.8472116192583994 " fill="none" stroke="black" stroke-width="1" /></svg>