<?xml version="1.0" encoding="utf-8" ?>
<svg baseProfile="full" height="171.13378054521107" version="1.1" width="119.37886841028006" xmlns="http://www.w3.org/2000/svg" xmlns:ev="http://www.w3.org/2001/xml-events" xmlns:xlink="http://www.w3.org/1999/xlink"><defs /><rect fill="white" height="171.13378054521107" width="119.37886841028006" x="0" y="0" /><path d="M63.8883320247003,85.39056341334907 m0.0,0.0 m-38.8883320247003,-59.88000850278963 l1.992968013341894,-0.5105549105594431 6.049188994615082,3.2770466576121975 l30.43998696745105,3.580288600181939 12.129955273702048,-2.244879616165609 l8.595064446366164,-4.052002014921124 -11.77276081225043,10.383977306669205 l-14.16873713612552,6.511433768711489 0.44286889493360665,18.30660061209377 l-2.794883863061046,0.14199032580076043 -10.108390909224045,-5.196443421894094 l-3.434725985247631,-5.995312387553529 6.825706508808378,-13.781585301993902 l-1.8143402797203625,-6.273364040467564 0.194678916954667,-1.8936545721093356 l6.582670772325848,-0.5237874420258976 7.567648323500051,10.157848399982123 l-1.8765559407632915,3.201214712892498 m-4.060962152017833,26.884881034875683 l9.987515430475304,3.2978870030438356 5.878854102135539,4.375004979275394 l2.428181182174114,3.3632354799329387 1.3694745344102637,2.9125361057356614 l5.691184351514337,2.352334588861048 -1.2329764487241646,2.3429060505061714 l-0.5808713168252418,5.322216411365552 -1.6894427192352695,6.666315791441863 l4.412872087929158,6.716124687261855 11.966335305427126,2.0494628436100712 l0.35836186741027565,-4.14356024885805 m-37.78466191928582,36.63052178809778 l0.29450790805519256,-4.352623716898137 6.183742998069906,-6.076876134273959 l4.822963684310249,-11.759704656890461 8.15319700116033,-4.544305325721466 l5.868965808542408,3.4122809710444506 1.6233512677002777,6.240723775654293 l3.666509180182723,4.07835533045054 -2.7773800667948705,2.140965460862153 l-2.9591997745574425,7.596032589660203 4.33410022383175,7.160973254576926 l1.3830193375655,2.8687208947837832 " fill="none" stroke="black" stroke-width="1" /></svg>