<?xml version="1.0" encoding="utf-8" ?>
<svg baseProfile="full" height="134.35686634498018" version="1.1" width="112.37378156076767" xmlns="http://www.w3.org/2000/svg" xmlns:ev="http://www.w3.org/2001/xml-events" xmlns:xlink="http://www.w3.org/1999/xlink"><defs /><rect fill="white" height="134.35686634498018" width="112.37378156076767" x="0" y="0" /><path d="M61.253908519646785,102.09290636977369 m0.0,0.0 m1.4314647020345443,2.1479243888454795 l14.290026517461198,-25.346468719418286 10.398381821625149,-39.37325629296673 l-14.411747792935618,1.4656830796036424 -6.108787628603596,2.523119604853655 l-7.5261639861838985,0.06446876663704831 -2.259581215216621,0.129134456682293 l-12.091105190326758,-2.6161521032776607 -14.31507915863459,-9.842327889156506 l0.2831615207060718,12.951999295325397 6.88350764042047,11.065961943281044 l-1.5745681649028143,9.928769063389243 -7.653758762283442,8.415643526113126 l-3.599658822806878,-3.755770938322993 0.2635356026086935,-6.194049199120047 l1.6121281476367748,-5.548423770926687 2.5976189996955736,-5.296702160464588 l9.56964753794817,-4.764966878716212 1.2811848850370378,-5.5066743401306315 l1.4180163233521785,-7.773601221258508 6.359114404366098,-1.6183894400209768 l7.627780280812051,-3.1711314247714104 12.533965043404644,-1.9098293892541633 l8.456919772327973,2.318856001605905 -9.207490887139883,-2.247207972154005 l-16.498585429105905,-3.139514756151116 -1.3895551474190038,5.798220819759252 l-3.3365866923946843,9.613605983477006 -3.9267446954416476,5.903209528652964 l-1.4389578314021316,12.050672604060658 6.583535615329075,4.361125765166422 l1.6791767733312812,3.1556596817181592 5.400921364407476,1.1113519750464145 l4.440809918589077,9.073196610551676 4.499001707550684,18.580094240510036 l7.167783249940793,4.496428671240677 -5.377770526576488,1.9840200690402787 l-26.628460874135175,8.229280395756607 " fill="none" stroke="black" stroke-width="1" /></svg>