<?xml version="1.0" encoding="utf-8" ?>
<svg baseProfile="full" height="154.04430884003497" version="1.1" width="101.19295164392636" xmlns="http://www.w3.org/2000/svg" xmlns:ev="http://www.w3.org/2001/xml-events" xmlns:xlink="http://www.w3.org/1999/xlink"><defs /><rect fill="white" height="154.04430884003497" width="101.19295164392636" x="0" y="0" /><path d="M49.038505788804585,109.38791800652342 m0.0,0.0 m12.114855725951172,1.72204548515416 l6.754866541239964,-2.2271809594145378 6.991789612272092,-1.4885563550535286 l-2.144062684767686,6.346481335672049 3.4369966604262396,11.510308466706231 l-0.892568617848944,3.793292860447178 -13.34187345964378,-4.2698562811595995 l-6.80013569405945,-4.932709262454271 -5.4928422911815,-8.265268492021738 l-5.5408104576858515,-7.398568894174479 m-15.160709301074471,-62.28560689437839 l0.6546364201595933,0.7713116779642454 6.45905623440367,-1.849034171817644 l14.081915509924414,-1.4579884849292308 2.0397585943382204,2.5482361830059634 l1.226198845955048,1.0388668138934714 -2.3384645095918533,6.323064252089548 l-5.534954327567023,6.380529552820298 -1.464184527789311,4.810649304669843 l10.101007889856835,2.4376250025021475 -1.1574905583836117,-9.885964427311198 l-8.712285544396087,-13.691938499147325 m-3.7775668832111506,-4.634174713674366 l6.257845818907304,-4.794504363561136 0.9149667613840458,-0.8164269683084563 l-1.4961288500046346,3.231839208784856 0.46987976057834585,4.016429666479948 l2.148880132892579,5.066393709658038 12.609109761016043,-6.575158022803049 l-5.7246629487018685,-9.812054736162462 m-30.72152940220293,30.950793921083715 l6.659209250977172,3.4259844425925716 3.1825328654814675,7.898502998981025 l3.5185020735161374,3.1640746700486733 -1.467448617673962,4.378651621070356 l7.935808683872287,3.4408182168897627 14.472487364342284,-5.883203337174999 l-5.836408250355332,-13.214932947963462 m-13.557589383659296,1.3594204541582222 l-4.35638106785237,4.039424517751778 5.652854713484827,2.523974105889316 m22.65290477208702,-4.5025177620338 " fill="none" stroke="black" stroke-width="1" /></svg>