<?xml version="1.0" encoding="utf-8" ?>
<svg baseProfile="full" height="142.24085904488243" version="1.1" width="90.9829294629235" xmlns="http://www.w3.org/2000/svg" xmlns:ev="http://www.w3.org/2001/xml-events" xmlns:xlink="http://www.w3.org/1999/xlink"><defs /><rect fill="white" height="142.24085904488243" width="90.9829294629235" x="0" y="0" /><path d="M39.1626768941728,117.24085904488243 m0.0,0.0 m12.332302792186937,-51.09927872659578 l5.867310367502639,12.929408210707892 -4.594476655585713,8.15561563491001 l-4.402227051582491,-0.7864305721089345 -6.841572028820436,-7.544108210161583 l-1.9098617940594744,-9.678933117382892 -2.8794708872759656,-4.217151455011592 l0.7617045352416798,-5.205468739938448 6.403172390918541,8.888193590326296 l-4.805868779308002,7.257370383534962 -4.191727470978603,5.4655916102707796 l-1.7740571678270216,3.8784083309928628 -4.260086197604735,5.532721490381466 l-3.867818946980153,3.7676612356488537 7.603907126213949,-2.0764723677963324 l1.1782783765443505,2.956808732851186 -1.8389571141183847,-2.87954913019553 l1.3525747469478033,6.2488597756625675 2.5210239943607995,0.04237900202856193 l4.839876076597188,-1.3535259251262723 5.448180347271818,0.4037715823703633 l5.454867896935512,-0.8233098138328234 -1.87295776360231,-0.5363935005639757 l5.0981744644586575,2.4785710800621024 11.197961311314112,-2.6857518648029632 l-2.3473773447100292,-5.956564992832175 m-22.82417208722431,-14.110846679178703 l-2.594763878160058,-1.8525618213360007 0.34423931287974774,-2.7868214379348477 l1.7649651763502487,1.276841214571841 -8.837552229156044,6.801375531983007 l8.687523645839757,2.731727544091862 12.420139162933108,1.1750040229557672 l-0.7474648174351542,-5.368540312103955 m-24.24555005175103,-0.9883524444072922 l2.373025694718636,2.6620505300983996 m14.259650842895049,-45.90398820313006 l-1.0350370423972546,-1.2633458419045756 -13.131982071632123,0.9757467734111669 l-1.1855689599490897,-8.751570165397617 1.7007187223508553,1.606145025899931 l5.6063040000294535,10.481008636307552 " fill="none" stroke="black" stroke-width="1" /></svg>