<?xml version="1.0" encoding="utf-8" ?>
<svg baseProfile="full" height="146.342190618311" version="1.1" width="108.65796858428449" xmlns="http://www.w3.org/2000/svg" xmlns:ev="http://www.w3.org/2001/xml-events" xmlns:xlink="http://www.w3.org/1999/xlink"><defs /><rect fill="white" height="146.342190618311" width="108.65796858428449" x="0" y="0" /><path d="M83.65796858428449,121.342190618311 m0.0,0.0 m-42.73903515573428,-60.58034194375357 l8.93828630641877,-12.031414435525676 -19.58597177375165,-2.265429745788054 l-2.7437987579781513,4.443103223187467 -2.5274492032391693,0.3753865273047941 l0.5082080903629579,1.9954230728288707 5.692065933520443,5.750503378786012 l0.47825165923460045,8.769938233056426 -5.846779353306985,4.419762083595765 l6.919255782106882,5.366158395448813 7.5367878098377235,-11.918657385095445 l-4.079290057846519,-6.115965721058501 m-3.5609085485235403,-14.700521837759993 l1.39668938308736,0.5568031094637085 5.532045256313018,-2.8204389288270257 l5.7450471067591575,-10.230733170210975 1.943162807400095,-5.6214713311760995 l0.03736069481557802,1.061308278143538 0.5134697685912174,7.054470462661449 l-1.1612375217776383,5.371640317825378 7.7032959480813865,2.6957464264737276 l7.6427120340171335,-3.3954068440926264 -6.2507396885147415,-6.34896839127141 m-13.314169913780187,7.800764755203217 l-3.592314347905566,-4.739504958876903 6.094724861045214,-6.109737304971947 l-4.613895720914096,-4.649343392715135 2.5650613190308933,-0.4752634911668089 l5.417630929610638,0.9576266632258341 -1.2910898100525499,6.228614996034923 l7.568213085085944,6.284633998522421 0.005843236745121279,8.471744038082981 l-3.5520208122009276,1.9247102344936622 4.407478980598578,-5.743666759485729 l0.9840424721692307,1.9120817658479228 3.5438974212905805,2.916416221043222 l-3.785376560947211,3.8008305501776345 -4.783931606205572,2.293072867403324 l-8.743265980187918,-4.592182426010572 -5.741848313382604,-1.254152504772501 l3.618069807546982,-4.281815257004742 -1.3670582345338627,-10.078087638089084 " fill="none" stroke="black" stroke-width="1" /></svg>