<?xml version="1.0" encoding="utf-8" ?>
<svg baseProfile="full" height="99.7991422627691" version="1.1" width="120.49881927508132" xmlns="http://www.w3.org/2000/svg" xmlns:ev="http://www.w3.org/2001/xml-events" xmlns:xlink="http://www.w3.org/1999/xlink"><defs /><rect fill="white" height="99.7991422627691" width="120.49881927508132" x="0" y="0" /><path d="M50.50050364351374,55.59589213528459 m0.0,0.0 m-25.50050364351374,-20.085145001246982 l8.085514317608109,-10.510747134037613 13.160832551424576,12.005944904069551 l-1.6789492189296622,7.11127092203075 1.2668730175794074,7.449636016718313 l5.082026443535002,4.858134646384068 7.924059483533316,4.167636371155816 l0.23248797918196784,-0.0889741639836153 m1.6334133801611261,-12.137161692908274 l4.285847152414853,-5.624858463634228 3.5272475318564065,-4.245157612959547 l-3.014886822817445,7.309008530942666 4.140788632061678,10.152633161456306 l-11.63661143314749,15.433746676616462 1.576484412543937,1.666889256566653 l4.500531658019426,-4.413778376907886 -2.9975646547437127,-3.5915767490765624 l-0.4185239767484082,2.903560868388481 m16.17094595309243,-14.595942395516339 l8.686719007372256,-3.7615518285735106 -4.588421762514854,5.2493151404054545 l-0.10612254838632612,10.549972557178844 0.8373350182587859,7.201861775760855 l9.074818426749653,2.198532718654825 4.753974726976279,-4.186788897227556 l-5.393771944394096,-8.890551798593435 m-28.841456242265036,-11.341939431486963 l-3.376693924141395,-2.2797850566064506 0.7242172816409116,-6.427886579634596 l1.6777084722432005,-5.109430548235398 3.584281640131383,-5.8492222083994765 l7.771572125267065,-0.8175777445498622 5.9130557819546326,3.1760892218220382 l-0.28744898901098115,5.621899117537132 0.6448864123967215,6.554597137132941 l-0.2718374989827684,6.9031199215462165 5.136513119812036,4.336375122387592 l9.181121243538092,-0.8835937850738129 -0.9611044917940778,-6.033701054862369 m-16.486986183469714,8.636960534387805 l3.0693890994878146,5.2807586631988945 m0.9301705711960168,1.0183335161608897 " fill="none" stroke="black" stroke-width="1" /></svg>