<?xml version="1.0" encoding="utf-8" ?>
<svg baseProfile="full" height="123.4212644890168" version="1.1" width="121.11760596347798" xmlns="http://www.w3.org/2000/svg" xmlns:ev="http://www.w3.org/2001/xml-events" xmlns:xlink="http://www.w3.org/1999/xlink"><defs /><rect fill="white" height="123.4212644890168" width="121.11760596347798" x="0" y="0" /><path d="M44.053414558024656,46.46021645801064 m0.0,0.0 m-14.551010248612899,-15.229888068899815 l5.184143612781198,1.5515387699746508 3.058579673553595,-6.855168329659973 l6.065209469885922,-0.9266988294255026 -18.810337065632474,10.25302227870781 l1.1867337063281018,8.65209966656049 11.06702503104473,-6.0488289763570675 l-8.991403884032731,11.976921893943253 6.687790424642923,8.06030091213413 l10.195678019669549,-0.6517357235164278 9.578315747938454,2.551060853415852 l2.494006454594087,6.038958219955219 6.535330214646924,-6.63142519396811 l6.800710049328758,-8.013740401955388 -0.9649241161076272,11.79682747156796 l-0.5900714227851028,5.063837751063864 -0.9920099298958646,8.202290692146397 l12.102979415561071,3.4686804178628425 7.1588890566496985,5.970350141169956 l1.20165532831644,-1.3507294260715879 m-25.982447819501527,-3.958149833954483 l5.7391075241479115,-0.6861901420630789 -6.2639402171297665,-6.206758584313101 l2.1057635055608923,-5.187843729997745 -2.6344592701051504,-11.78019486280891 l-0.9209855910680076,-4.169061973880071 0.5240822000002221,3.538208375318302 m-1.2586982564466553,-10.16167893104277 l7.897464386738166,-1.8263606706274371 -2.2470466234154807,4.922609067526448 l0.3461712396342755,7.531425657816159 4.353816275777206,8.955989049582387 l7.578926844926442,6.91204837096481 0.4299723972880377,2.6662181002383267 l3.586475669268857,-0.7470788841648796 1.6972849574180986,-1.1504285858114105 l-0.42565198828798834,5.046827498997752 5.4911862871400325,-1.6079004830730592 l1.0840314848218435,11.280606603129666 -4.305862600436124,5.148645511366312 l1.2275380818779076,5.5624423591543675 9.624173379369376,-6.341309296192291 " fill="none" stroke="black" stroke-width="1" /></svg>