<?xml version="1.0" encoding="utf-8" ?>
<svg baseProfile="full" height="203.27123906175905" version="1.1" width="114.1683206653945" xmlns="http://www.w3.org/2000/svg" xmlns:ev="http://www.w3.org/2001/xml-events" xmlns:xlink="http://www.w3.org/1999/xlink"><defs /><rect fill="white" height="203.27123906175905" width="114.1683206653945" x="0" y="0" /><path d="M58.27849299242003,178.27123906175905 m0.0,0.0 m-15.22610937307709,-53.04678665929418 l4.18167771557781,-5.424674483906774 3.764028542028942,3.7781417483354334 l-5.298881849109465,13.802281011767713 3.145993957642401,6.840506271497174 l-0.24546543362850892,7.655890126146964 -5.750944400761432,3.8268098514247484 l-6.048144306609649,0.427116131675184 -4.965567816094258,9.215008966387025 l9.286718075025506,-16.31004331686608 5.014768608926432,-6.7237972901745 l7.2524605892782095,-3.982474144226703 5.075785870046478,-1.9962422449034583 l8.200019424770272,-5.19456508464752 10.401128274906991,5.785768955129225 l-3.2732686276738034,3.415607346646865 1.9003983174142642,12.11577718501978 l3.1011807105025633,6.744840671055082 10.374049393808814,-8.716947187713524 l-19.203528550852887,1.9763607949597772 -10.62634286850939,-15.100779601292436 l-0.5481712708345893,-19.436647733299353 -3.1091081461173875,-16.72981661094416 l-3.0040340865213,-11.065664302699009 -1.1893799600250616,-9.540509821843626 l-7.341282530191688,-4.314480171317123 -2.3126435108082197,-26.274571712134325 l-5.962424325114853,-10.450824052560128 2.4169451613060833,8.22207097457429 l4.262929400659122,8.624433564828204 -4.1335649730070605,5.035515600276408 l-2.796930764459864,8.521709810562578 m18.882880705654888,-9.49322692589142 l8.398044121985015,-7.32192655047364 -2.506919054022998,-6.676425490342158 l-3.7001474436471318,-4.716926730033901 -8.944208631695913,-1.5959941609545258 l4.2280678321844,-8.472087993861726 -25.26913636756954,4.453517246307347 l-1.7093654038061294,-0.6695825635249449 14.399904471047437,-10.094072248979996 l9.090443616042881,-0.36352823646764454 " fill="none" stroke="black" stroke-width="1" /></svg>