<?xml version="1.0" encoding="utf-8" ?>
<svg baseProfile="full" height="228.2562648209663" version="1.1" width="260.54366022180545" xmlns="http://www.w3.org/2000/svg" xmlns:ev="http://www.w3.org/2001/xml-events" xmlns:xlink="http://www.w3.org/1999/xlink"><defs /><rect fill="white" height="228.2562648209663" width="260.54366022180545" x="0" y="0" /><path d="M25,203.2562648209663 m0.0,0.0 m22.60825987750963,-1.6774945643717147 l41.28025282777505,-49.27505489549725 10.304229411284972,-20.85046345208715 l20.451318205876813,-100.05117719775406 -0.34460679440485614,-6.402074711256129 l3.4280795511893114,5.031967655346989 -1.2998401378786366,1.791804669311105 l6.598653538637437,11.561923043237398 m-2.5607727164130054,-0.4956128057043241 l3.0878676953062105,2.124204989887724 3.9810354220010566,-0.21666507478539848 l9.369834783815886,-1.1207161624230921 -0.8683352146791923,-4.327740348493843 l4.353816085632843,-1.003821424043777 5.845226323302511,0.5860121445952334 l7.970532596194597,2.6316837647948232 -1.343733253205056,8.501451228118336 l-9.825157030593363,1.0258141014296673 -1.913142843434913,-6.376982232927428 l-1.5838327885958265,-11.834523276311632 4.756553459875377,-2.7545226866667507 l2.3521391946998134,-0.5857472059533215 7.890461099280302,4.646211885681662 l3.9576127588601673,1.3006958852101886 8.052507861562384,4.934137914882271 l2.8324903853042116,10.400990531032113 7.1821409570735835,5.72862479335678 l9.248800563786128,9.335719822010638 6.464928797622574,-3.8281622266658375 l3.7874699721184357,-7.421365656042141 8.567452854073018,-11.776621462658134 l3.2457921216772023,-8.029446547330718 7.679331932001135,-1.6528449890303243 l-0.18975983428959675,6.948039372353778 1.7351698838148344,7.079291343401968 l2.2451534800974837,4.401344324146689 5.154113797156825,-2.7203830180114363 l6.041615397769992,0.20998111511718098 " fill="none" stroke="black" stroke-width="1" /></svg>