<?xml version="1.0" encoding="utf-8" ?>
<svg baseProfile="full" height="115.23467897263103" version="1.1" width="133.5423847042914" xmlns="http://www.w3.org/2000/svg" xmlns:ev="http://www.w3.org/2001/xml-events" xmlns:xlink="http://www.w3.org/1999/xlink"><defs /><rect fill="white" height="115.23467897263103" width="133.5423847042914" x="0" y="0" /><path d="M25,90.23467897263103 m0.0,0.0 m10.654723518903578,-11.955510423162611 m10.82984879251015,4.0986215066333616 l-10.026873095501573,-5.691965914676393 5.648642134152665,-2.981521966144341 l8.889022400628695,-15.483227898181319 1.613869320671384,-11.146766858620763 l6.065057449471711,-2.0514181095775785 11.415805750312181,-2.9108071884211126 l11.238078465389991,-4.692012658333544 4.0653106723062695,-4.903908860957192 l1.9229417442103736,12.657792980243775 5.312248981886474,9.18086851718678 l8.15003746288137,2.1658574580360863 2.9021118577968124,0.5927366332275931 l0.3493473357776103,-2.4395248765549313 -5.7779491321370955,-10.269576859058708 l-8.47625890697534,-1.8032183205454884 -5.574868053277154,3.4991219680925534 l-7.120025647154657,7.142347570509024 14.250824336680571,-8.16255511677942 l4.468024519192879,-4.692569838961058 4.038256901142126,0.5068636220370989 l4.118183330809068,-8.064916292773162 2.691745117849466,-4.924773181389134 l0.8221479970999124,-2.9046148644605565 1.0721314496639323,0.13706600469584385 l-3.0287646585766392,2.452676714686679 -2.074824857777157,5.692513703968225 l-7.790654300953369,7.651580157679053 -4.67352691272386,6.297358950886742 l-12.069629437542758,4.694864697848879 2.0444231799277293,5.87724479830001 l-1.7888173747778717,2.7854416045288315 1.2909126406413174,2.559478252878921 l3.4144794550568105,1.3050756371614787 3.939472976076513,3.7261317230225903 l-3.776176762759441,6.042063228797271 -1.2194497893542684,3.132967360330228 " fill="none" stroke="black" stroke-width="1" /></svg>