<?xml version="1.0" encoding="utf-8" ?>
<svg baseProfile="full" height="172.46486123580294" version="1.1" width="129.51430331118658" xmlns="http://www.w3.org/2000/svg" xmlns:ev="http://www.w3.org/2001/xml-events" xmlns:xlink="http://www.w3.org/1999/xlink"><defs /><rect fill="white" height="172.46486123580294" width="129.51430331118658" x="0" y="0" /><path d="M52.12106271667095,147.46486123580294 m0.0,0.0 m-27.121062716670952,-22.047392720990832 l1.9906749777488437,-5.836826230305625 10.2958852455948,-0.4785967773023242 l1.4096840877212882,4.2147144974188855 -1.5990285197155842,3.8246941551869207 l0.6231823002000455,6.0057072495151305 5.6348971414133295,6.584647735987331 l11.983617706384836,1.8760264095768668 -0.4327007636420947,-4.6613306816017985 m-11.75728129393919,-77.55286748440744 l2.5852322618108907,-1.663446708295148 5.148396068680743,-1.812842457192574 l5.490904119124798,5.673160848343941 2.745277223427774,6.117386343751071 l-5.53084868094985,4.197826066090225 -4.159428854842518,3.2029191548605986 l8.445892814755807,5.271638540095156 7.0674257874293795,0.6084439184068424 l-2.0800020790511526,-5.181646250660346 m6.588032276587659,-50.80707684427981 l0.3452559538900666,7.231241095204983 6.993261506088217,3.3551259366755337 l1.371823465081406,8.123037096038473 4.557714283922281,3.756078977327505 l7.1531629999445085,-2.0974011707252473 8.602714207389235,-3.213354203386498 l5.573213490449902,-3.121621553158299 0.46734558568117046,-5.190719832961881 m-13.247716060494279,0.1559147125815974 l-6.283433171034544,14.317280344286528 5.632746929705224,12.550081610891981 l-2.75419986773646,4.167755354101158 -7.075882650076997,-7.3123779616555655 l-9.352458507769231,4.104275358743871 -5.693325077365815,4.734797611968805 l-3.68423727977898,12.21399475965317 3.3203162227324645,8.23981434299558 l1.5252610308115158,12.70535534584334 8.062004465327332,-5.17854123635163 l8.997613371363089,-26.693017788217535 -4.639989639860286,-9.141251463575424 l-11.48417446690501,-4.825443047111649 " fill="none" stroke="black" stroke-width="1" /></svg>