<?xml version="1.0" encoding="utf-8" ?>
<svg baseProfile="full" height="113.07004334764162" version="1.1" width="164.6922013870533" xmlns="http://www.w3.org/2000/svg" xmlns:ev="http://www.w3.org/2001/xml-events" xmlns:xlink="http://www.w3.org/1999/xlink"><defs /><rect fill="white" height="113.07004334764162" width="164.6922013870533" x="0" y="0" /><path d="M100.1181364018214,31.27355236641097 m0.0,0.0 m9.892820858336822,-6.273552366410971 l10.247376350603762,10.760320470762842 -10.258392901734998,-10.139788066733471 l-2.2121098013837046,2.6131437687334382 6.108762535049975,6.707775638923754 l8.431529693594717,9.412581175423314 3.0886881660540193,8.122953673435278 l6.751588025135,4.803690947490922 6.334006357324295,3.131913441591643 l-0.35056594560307963,-2.1749129043629902 -4.195605687099531,-3.4812995506295183 l4.833547717255368,3.983410455259547 0.8267721186266891,1.1928200396655868 l0.07564749907255641,1.2404740230728688 -8.557038550126398,6.835256309113375 l-0.9492111603007614,8.078193688772272 2.3486243796599475,1.6987387990892926 l1.7829198251808727,2.050174356012765 -4.3772135403769346,-1.8943603027280076 l-13.215943410583977,-1.1305672226485304 -11.756427624610447,-13.38314975737957 l0.301082549658912,-21.8677322073483 4.469461060604741,5.6529107368851035 l-1.9653921802203649,-2.1272599377021852 -2.2817924771599096,0.6624710484187043 l3.4120018568152433,-6.606796557305263 8.887986021432049,-0.240389756866793 l3.3664942216829856,7.00682135607708 6.5238199566551165,4.255432858496326 l7.458524513980633,-1.5176846142540246 -6.815199681947557,0.2517092640928567 l-4.876073521823729,3.971919800795939 -8.44205369588791,4.1666649575247074 l-8.882065472793105,-0.30118882079476617 -12.071511080254966,-3.219975880636393 l-33.982986934826876,20.83553116897802 -35.07020644181085,13.720240948415814 l9.371489892054381,-1.1383094705543475 " fill="none" stroke="black" stroke-width="1" /></svg>