<?xml version="1.0" encoding="utf-8" ?>
<svg baseProfile="full" height="163.1823395975437" version="1.1" width="110.2660175865264" xmlns="http://www.w3.org/2000/svg" xmlns:ev="http://www.w3.org/2001/xml-events" xmlns:xlink="http://www.w3.org/1999/xlink"><defs /><rect fill="white" height="163.1823395975437" width="110.2660175865264" x="0" y="0" /><path d="M25,88.16141263905573 m0.0,0.0 m10.468118926633926,-7.4394558834021325 l8.542745800501562,0.43679605637367624 -9.051547425795631,21.791351285384444 l5.8956602882611895,0.5458401517130373 -2.3511218252563038,4.393416876496493 l-1.6951859973172068,-1.6599862335945648 5.169483650124911,13.457175295440546 l-1.1178024007524414,6.072701259701071 -1.2059206288279767,1.5691738024025959 l-4.755141612500874,3.1786460206774807 1.7895549150120176,4.349757659896465 l17.456060877810103,3.3255106673988486 4.699898120096277,-6.68913890232911 l-10.985036163257561,-5.507545068468655 m-12.736945423157042,-47.85076214410022 l0.20550836740043316,-8.862420306450991 11.34904555658748,-2.9933303437533643 l-0.33855550628418607,-10.518680576840294 4.419059240957262,2.908164274727932 l0.974909784392396,-6.299052097976243 -1.7852860980470455,-2.6112508813969115 l12.015146517379105,-14.89408854348435 15.841020758803301,-9.864235007471475 l7.4623478637627,0.37969072400700604 -4.515828118139248,12.677398674644298 l-4.571922197332912,13.62815049034014 5.024399558693038,7.732131885812135 l-5.093241795439629,12.480676333560691 -7.727504821453738,-5.243726606711215 l-2.4453726504473723,-2.705158014634015 -5.577096195183759,-3.1365033704313525 l-6.301925356140576,-2.327681271455542 -5.649050979888173,-4.537201454247304 l-5.385648579265074,-3.28598176285071 -6.709842859995716,-2.0379673151215205 l-4.5726452683954895,4.410185838571996 6.8020259792601285,5.756700088360745 l11.237734577391976,2.7379048739030676 4.46279512328058,4.171765930305752 l5.070721376087232,2.626410134167648 2.6358013190668,4.5356163361941455 l9.353908756361175,-5.888657101970933 " fill="none" stroke="black" stroke-width="1" /></svg>