<?xml version="1.0" encoding="utf-8" ?>
<svg baseProfile="full" height="135.23484453567397" version="1.1" width="119.4894827222107" xmlns="http://www.w3.org/2000/svg" xmlns:ev="http://www.w3.org/2001/xml-events" xmlns:xlink="http://www.w3.org/1999/xlink"><defs /><rect fill="white" height="135.23484453567397" width="119.4894827222107" x="0" y="0" /><path d="M67.8745569667809,110.23484453567396 m0.0,0.0 m9.226965860756495,-17.444338688194456 l-3.969171230215581,0.927761404420012 -2.8632411771445696,-0.6391281027367907 l8.29520365857679,-25.453208913374496 3.2751367613075004,8.773612211004606 l5.867036438277391,3.7080599429797854 4.3224126081358305,-14.40818535991527 l-6.871939863766621,-11.978905516891691 m9.332522699502558,6.747214653642573 l-2.8468052035312286,-6.2747831467320525 -32.853511848256886,-29.192943019876168 l3.0766453971208905,1.9991138123996282 3.1332518652248798,11.347212065754645 l-0.36869014200309774,0.5560682555321195 7.283489486870076,-3.091773059924824 l9.139375850177219,-2.700683951910557 2.9812034532391922,-0.6589042477098132 l-9.235033592190428,1.0815160772628938 -5.116144779996415,2.587847138347575 l1.3114732425903157,3.508711799597267 13.837273528174425,4.371801498509529 l-2.0533556135862012,-4.098339663795271 m-53.76046306338413,17.353462514903004 l-2.961556206099639,-2.3900212264525713 2.361776547199085,-1.951951700715775 l-3.418411643758753,-9.053439502015376 6.949914124891324,-5.417647806935333 l7.866954358993193,-7.5981336459846345 -1.7714217198854945,5.955431519329437 l4.155152442390719,3.5835750100251307 1.4805944712607735,6.718522578511022 l-13.569303032365658,10.494911488609647 3.706869339928095,13.86236033349256 l15.485536583028017,0.4553812829164955 6.425554462859259,-5.627256729928507 l5.36644070356618,-2.066220890062585 -1.0613862292910614,13.079558946487962 l9.694130879645998,4.849428085327286 4.684896396465127,6.222652364966073 l-5.15539903245489,4.6779821511539215 -2.429794370343189,5.356354310432656 l4.432912592724715,4.626254234383493 " fill="none" stroke="black" stroke-width="1" /></svg>