<?xml version="1.0" encoding="utf-8" ?>
<svg baseProfile="full" height="544.8511881193191" version="1.1" width="228.5689041466213" xmlns="http://www.w3.org/2000/svg" xmlns:ev="http://www.w3.org/2001/xml-events" xmlns:xlink="http://www.w3.org/1999/xlink"><defs /><rect fill="white" height="544.8511881193191" width="228.5689041466213" x="0" y="0" /><path d="M25,512.553551800955 m0.0,0.0 m18.430999576810294,7.2976363183640425 m-11.573334361216745,-59.10873810040777 l21.880098666847395,13.1198665928289 12.116037484916983,-87.02149863346543 l29.65087899656992,-110.68424460198743 8.996532129399291,-42.618197136338274 l22.830364601317115,5.701478843117626 7.777687456623279,0.8666700979705335 l6.873194049333573,-0.9822564030926026 3.5304879023804525,4.640689194080463 l0.057768839516212714,4.562993449927342 -2.804346825429125,6.673374403797228 l1.8732874639614951,9.060984579433397 m2.6009851559493855,1.9368376374932463 l2.236835062409409,-1.5350649258735978 4.429337877390053,-4.676876937867657 l1.061482610059545,-12.675487769925404 -1.090575222058633,-15.8230355889334 m-3.653596277449983,-12.928919366099537 l-3.0594747919988463,8.694803757778944 -2.2810340291137843,5.748056865446235 l1.4361938965551084,8.385518298148185 -3.3055182542092045,8.273609183905288 l4.446590830212005,12.11262374373499 11.471231919422117,5.890524606150797 l9.365873713690977,1.7498626733554927 0.7501870658277482,-8.134823149148493 l-6.6641009393761514,-5.688944269037077 -9.233386598999175,-14.886815499412144 l1.6847277789329052,-6.244271036852034 5.855017075753943,-17.614280262634978 l3.1979927201962135,-9.959548681296457 m11.39653191301677,2.727665073932608 l0.48293018267476784,-2.0314954875004245 -5.341929836012436,-116.55761402248373 l16.105921503647583,-12.686711526435728 17.0370248090708,-2.0409194116214215 m-6.249618408693161,-51.09700431000695 " fill="none" stroke="black" stroke-width="1" /></svg>