<?xml version="1.0" encoding="utf-8" ?>
<svg baseProfile="full" height="116.97214401467679" version="1.1" width="129.52753626636598" xmlns="http://www.w3.org/2000/svg" xmlns:ev="http://www.w3.org/2001/xml-events" xmlns:xlink="http://www.w3.org/1999/xlink"><defs /><rect fill="white" height="116.97214401467679" width="129.52753626636598" x="0" y="0" /><path d="M51.715923126726985,91.17124116338762 m0.0,0.0 m7.732656248007941,-15.915953082327592 l-16.901572551204122,-39.26446938040235 11.223883531510072,-5.105748070232191 l8.406543207388872,-5.885070630425482 14.229040464250033,17.647422943763893 l5.562688685562374,-0.8268495083706674 3.309443175566063,6.416460145453753 l5.72151473850124,2.09844680497533 -2.409651949562366,2.1530533389170072 l-4.4535369844305155,4.889489955801715 8.393053234502686,6.616544809761252 l10.192424297563237,-1.771628962069304 1.8051270419834766,-2.1155117229077347 m-43.97100793259366,12.122602264181754 l-5.189662010030347,-4.559640795247185 1.9911584929936947,-4.90107697297607 l0.28343392786723126,-4.373478069831922 -5.507415402985929,-2.1593768312098436 l3.742102005008715,3.898294686999396 0.8422179809426883,10.476216319575242 l-0.2990559599026324,12.472718623612765 2.6416579873054213,5.248850920636388 l12.450709610894357,2.748545391071676 6.783944211596107,-2.1284609163054444 l0.9945351067067639,-6.966614886112752 -4.3152256120976,-5.894346062772683 l-6.771285173192731,2.9909927821697746 -1.011756431966462,8.120740481552048 l11.160361642573934,4.768749274008382 5.572835674726628,-2.5025219279406588 l-2.242018405442781,-7.1753797913758275 m-16.54668832148382,-38.18765768421087 l-1.1382266951791302,-0.22052267844829332 -12.787340768179584,2.8234922148470067 l-7.0444583204815885,2.902381737289399 -7.43997620244202,-3.820822057877087 l-4.76546638679006,-6.748061584120371 -4.54670108466254,-1.0167037818311981 l-2.414208199550637,2.073354981371901 7.65553178557037,-1.033975213685742 l-0.5996351977337613,-1.992416565820872 16.939397062769057,5.801074228877843 " fill="none" stroke="black" stroke-width="1" /></svg>