<?xml version="1.0" encoding="utf-8" ?>
<svg baseProfile="full" height="150.61382535937886" version="1.1" width="136.68761403262423" xmlns="http://www.w3.org/2000/svg" xmlns:ev="http://www.w3.org/2001/xml-events" xmlns:xlink="http://www.w3.org/1999/xlink"><defs /><rect fill="white" height="150.61382535937886" width="136.68761403262423" x="0" y="0" /><path d="M111.68761403262423,89.97124560328697 m0.0,0.0 m-14.113425774749626,0.24544558517343162 l-1.027285404179391,3.950878258656968 6.904200812995884,-5.717254724010767 l-5.799349735351043,-3.9752608351989416 -3.423219009546475,-7.067636904492962 l-18.539264678486315,24.606242589977583 -14.049156372602308,-42.412547517048736 l6.360348886192419,-6.707021197957835 -3.4208675455756943,-7.4190412152562955 l-11.422201021660001,10.428854711378547 2.595731693839518,-3.7104729391214395 l2.5465508115579842,-8.426163295166157 -2.0306191648250618,-4.6661525110335385 l-5.3909278270914625,-3.1447709909263803 -1.9767113633995863,0.11738872363511783 l6.021721042391338,-0.7736212138552041 m-3.006158357606271,-10.30011212804037 l-26.285605963522077,19.842636298872 -0.6313750610060745,-3.3507693079205803 l4.611981630322084,4.2107221080007475 4.0256897812988806,6.9402442256645 l9.706809477731962,9.362565741976535 6.921241733614812,-2.913134742117867 l4.768174133508385,-19.60965423385287 -5.667895028611478,11.504964188451416 l14.932337219587003,28.53852386790289 3.5236591016794994,4.393329744643579 l0.6033128530367488,7.173999071077569 12.396541508982052,6.418952042438489 l0.5743355420296733,3.0137959039731963 -6.537163130958616,3.0497205778226344 l-4.477240119164041,-5.026739829808038 -2.6156144652335604,5.405023223855394 l7.259186219110034,-3.112892545953814 -4.8810887190379235,-16.267654578346182 l-4.878446234308191,-5.680314709147456 3.958924524281512,-3.789105765079398 l-18.59858617597955,31.1835945029045 4.137133359901782,7.230545456688657 l5.797932319338577,5.762250295382875 3.7470639482798775,5.763967787412338 l-2.9774202150620974,0.5692560345377473 " fill="none" stroke="black" stroke-width="1" /></svg>