<?xml version="1.0" encoding="utf-8" ?>
<svg baseProfile="full" height="128.64726715163408" version="1.1" width="137.88639516085397" xmlns="http://www.w3.org/2000/svg" xmlns:ev="http://www.w3.org/2001/xml-events" xmlns:xlink="http://www.w3.org/1999/xlink"><defs /><rect fill="white" height="128.64726715163408" width="137.88639516085397" x="0" y="0" /><path d="M90.95785388984842,103.64726715163407 m0.0,0.0 m16.627615119607107,-21.6963025255682 l-1.4284100143460012,2.3051884522221453 -2.553284271588092,4.362414458852597 l9.28262043733253,5.673388685999208 -2.6074328978902876,-5.453637676666277 l-10.29881677278,-7.008572452285057 m-47.89357665709833,4.537436643481307 l-1.6796948960416263,-8.203669037617031 -7.780195956828379,-2.3777985399118773 l-2.940621579228538,-0.056239139817755635 -4.512311578355889,-0.0018315241016984146 l-8.309934358405714,2.872826375970275 1.5420933943572284,5.124497019998276 l17.592382166022137,-3.4200788082294613 2.323400514780966,-3.942494081639774 m-4.650653775108462,-15.593820599983845 l1.1484317750604156,-3.1736896947130058 3.961637215492367,2.447923014678829 l-6.211324526146216,-9.394313888736217 -3.508383450957361,-1.005647624766286 l2.2046686912093847,3.5561471667233846 -4.382545691726804,17.403602711538344 l12.354779731475425,2.4438348577444966 11.315372592940795,1.1238573137864927 l3.3465565052579835,-3.7854458591011717 m-37.59528485898857,-37.08382695949219 l6.300926876059194,-6.30602950372356 14.655134261826829,-1.9949859362760065 l3.8295084041407854,0.506154643579573 -1.2659122878502755,4.666731902270663 l-3.5537465101927967,3.1548961854203417 -16.227517146275904,6.574544418751597 l-5.043334345602324,4.386459289687871 1.5328619915743382,-0.3445061548289871 l5.383406852517914,-0.59905550542243 1.3486522387630442,3.8840511323837923 l6.850708210209107,7.043894425733874 4.050673202292156,-6.584307214949332 l13.66005652698948,-8.969613994245838 0.158390851679861,2.2595492195640285 l8.37913262654828,6.287879494747168 5.127182809931746,9.435730741509886 " fill="none" stroke="black" stroke-width="1" /></svg>