<?xml version="1.0" encoding="utf-8" ?>
<svg baseProfile="full" height="103.69000158172395" version="1.1" width="191.15077013325734" xmlns="http://www.w3.org/2000/svg" xmlns:ev="http://www.w3.org/2001/xml-events" xmlns:xlink="http://www.w3.org/1999/xlink"><defs /><rect fill="white" height="103.69000158172395" width="191.15077013325734" x="0" y="0" /><path d="M25,54.0526272208052 m0.0,0.0 m10.472662275118926,2.202239719464769 l18.87068704756858,-5.9152466338369925 7.151857115853879,-3.3349230386357798 l20.879762051819725,-21.328449546598875 -2.82944429463718,5.725252789509816 l-4.168495241778687,5.304841656133732 -3.5970358949260373,-4.206970436457296 l-13.289689765782015,-7.499371730384574 -1.1501473185179467,2.3815639904829444 l10.318638874507302,28.610788231186167 4.942714861674369,2.508133986520995 l4.605704594609962,0.7615059122667597 -2.670122429549917,-7.926984385524031 l6.287184311010737,-7.1685718301932395 8.52290884688981,-4.094664518462312 l-0.5243892841162276,3.04609638093883 1.14234010302878,9.130442086941947 l8.550358945399578,2.4012567533602596 -1.5274463416503308,10.102962066628956 l4.927144793783101,11.111750694322684 -9.572488398854409,2.8257222132539925 l-4.381512768198985,-3.173819772465949 m33.050337596494685,-49.935653688558034 l-2.3456547178917697,4.798701546277571 -3.72362014515341,7.048093515431134 l4.4368831200110765,4.154906117497014 11.481111521149185,0.8925443483743389 l2.92262648866652,2.2024056405441708 7.370943697765093,0.46805553426888563 l16.1533509018501,-8.871348455735864 5.1052762345861575,2.377275895417253 l3.738323352526659,11.369481830840373 -1.8901268058118552,10.424534460391072 l-2.801379587006109,3.272362957449274 -3.4417485867841013,-1.9734990078814358 l-2.911229087436679,-12.827231380020825 0.7646590382636422,0.7984715522946673 l1.784808652765757,8.937015221638429 0.670345245917409,6.874553655719251 l-3.3868864402900956,1.8904540367818734 -7.702766727729151,-0.6795130868033161 l-6.427153674108248,-5.093935039225992 " fill="none" stroke="black" stroke-width="1" /></svg>