<?xml version="1.0" encoding="utf-8" ?>
<svg baseProfile="full" height="146.59950538052817" version="1.1" width="176.509200181758" xmlns="http://www.w3.org/2000/svg" xmlns:ev="http://www.w3.org/2001/xml-events" xmlns:xlink="http://www.w3.org/1999/xlink"><defs /><rect fill="white" height="146.59950538052817" width="176.509200181758" x="0" y="0" /><path d="M25,105.7929035471083 m0.0,0.0 m6.747390590695401,15.806601833419856 m21.133134734749643,-49.11991731497043 l8.68773513474097,-36.32682372571365 9.371205462640084,-6.796909453676624 l9.319667257568138,-4.355854886167453 2.9843396812925103,3.9850907296691127 l0.0767839768432925,7.277759815650211 7.570665978977911,2.7695931718507842 l3.48203485064139,10.02583248897749 1.678278306346731,5.982450592913053 l15.965738869608424,14.953855322898486 -11.233063495499316,16.70413692515829 l8.253049703013756,-0.8763133368458742 8.859417058724736,-1.4727369880292274 l4.952802042140482,-7.497043293709092 0.5384950429105753,-4.5183211316318035 m-26.044282109937527,-23.355832946094395 l7.013184226275819,-2.1950292550062755 -2.1841357956001883,-0.7887637027673966 l18.378391083885877,5.271565478361748 9.893171329792365,1.8318698758748897 l10.421907940559862,10.038899638605624 -1.1071904202862615,5.524179770178277 l-1.752542384426037,10.589119914902492 6.731064975758885,17.817873185148862 l0.10916036749476055,-17.762275069425407 -0.7999404165378519,-12.988064983209446 l-6.46026316051207,-6.163142929064859 -8.29398481389426,-3.0000232776052704 l2.379879075494198,-15.668883200755133 12.794015394073611,-4.629778592090119 l7.043089694222089,3.4290293768777023 -1.0742853730000612,8.396896794447716 l-0.21663808062957868,5.655971887802607 -14.577444353780647,8.25649308134674 l-21.34274033742238,-3.508200670511908 -8.097119208832305,-25.672644739794848 m-29.1832626576181,44.54198345179259 " fill="none" stroke="black" stroke-width="1" /></svg>