<?xml version="1.0" encoding="utf-8" ?>
<svg baseProfile="full" height="163.37832535673087" version="1.1" width="106.58246104662553" xmlns="http://www.w3.org/2000/svg" xmlns:ev="http://www.w3.org/2001/xml-events" xmlns:xlink="http://www.w3.org/1999/xlink"><defs /><rect fill="white" height="163.37832535673087" width="106.58246104662553" x="0" y="0" /><path d="M71.35298545252178,97.25551738475949 m0.0,0.0 m-9.222955118993376,19.01369721406333 l-0.3404126939316642,6.708593895374566 9.029898356615913,14.059263582768509 l7.268725982978084,1.3412532797649745 -4.441689959943902,-6.8488204836887645 m-6.368872837613427,-49.80762127739953 l2.3725490404527663,-4.403252845081297 5.757301102396562,-3.7487640848748143 l2.349924506712295,-1.6389260433842618 -6.052253330511097,-2.0171192164746135 l-9.092715435278981,1.4641688076595907 -3.577560921305323,3.990786412219062 l6.744032462607771,4.786961567193147 15.803504439918134,-0.6452260154042958 l-0.8356235029045017,-4.03669530902139 m-28.930185547157027,-27.54496163105039 m2.071257965591972,-3.6204036601249188 l11.465493652851286,-1.6887203893670861 3.0789162992794004,4.2578443871873075 l-2.530342294754604,8.886654472676396 4.655679957161852,10.064133647956682 l0.5949735525215699,2.7716387696438325 6.687778533044558,-2.1219256620652747 l-1.0875981116270128,-8.903752015530054 -7.047431691818866,-6.077263971746443 m-21.26759089912798,-15.477380787417884 l1.6706767645038738,-8.426144218020314 10.783244059437012,-2.5935358106155486 l1.9212591148971259,9.096270797795135 9.755079387276572,7.145008341775379 m-9.250755891834176,40.62909156745424 l-1.648254853589774,5.082528105051378 7.553531341806849,6.102479099778668 l6.032834342627813,0.8340936779187426 -5.130348263164426,-4.448520669689844 m-9.835930158439336,-15.122451773588427 l-3.32470923034183,2.2685593444137595 -4.986983788076163,3.6939961488202413 l-15.494924740266367,3.0722848157088776 -8.829585359501191,2.2567631717553183 l-2.6529216850221657,-2.716889948671342 1.6245659773867842,-6.122037047926213 " fill="none" stroke="black" stroke-width="1" /></svg>