<?xml version="1.0" encoding="utf-8" ?>
<svg baseProfile="full" height="152.41806483314267" version="1.1" width="220.7126886581042" xmlns="http://www.w3.org/2000/svg" xmlns:ev="http://www.w3.org/2001/xml-events" xmlns:xlink="http://www.w3.org/1999/xlink"><defs /><rect fill="white" height="152.41806483314267" width="220.7126886581042" x="0" y="0" /><path d="M55.41697446804554,107.71399865083697 m0.0,0.0 m-9.909238871626483,-71.26607717172925 l-20.507735596419057,-9.463674879699179 15.495995399326642,35.12946520102703 l16.57654220641093,-12.204079150005528 8.058316451783703,-3.7886123267885967 l8.635520844326093,-0.17231837488574853 11.120826678308227,-0.4039994014077683 l-1.2013557978548173,-20.54470254734794 1.3279941653041187,9.117632232614895 l1.50733095163613,13.370735004838972 -1.0642659437100717,15.367490008321859 l0.658727691390189,5.624228500216987 -3.12376625380235,21.17608272574392 l2.537872098049692,-4.306169698364388 11.390397141838212,2.738131928414552 l-6.44101871941984,-1.5270445074971701 -1.0470645821804532,-0.4560619407631594 l2.231203453380691,1.8586697054102908 1.575612760066104,2.537348223281415 l7.533706669222768,1.0238277809417944 8.106289993325491,1.2488396630058611 l12.35178901877455,-4.0323974165489584 9.403093662300199,-9.678863272721218 l13.246363604881477,-3.625719143713138 15.88747701390701,4.46429580962063 l5.271436674797012,0.2490527757919736 11.696302773292432,1.527308736811804 l6.638546585091071,22.915570979283856 12.338814117659009,14.872046168398478 l-15.736063623507563,1.800888209071626 -9.131070962153872,6.152172360981792 l-2.7178492601698827,-12.83880333792009 -5.245450760902545,-9.629035986265547 l3.033867624276798,-24.74804718649861 m3.326776594912565,-31.38653522711476 l7.3314094133932945,-1.2350596516378198 6.415629462183393,4.773899192507192 m-0.016394433469172978,-19.558782329207 " fill="none" stroke="black" stroke-width="1" /></svg>