<?xml version="1.0" encoding="utf-8" ?>
<svg baseProfile="full" height="263.56377118193734" version="1.1" width="209.0350046419325" xmlns="http://www.w3.org/2000/svg" xmlns:ev="http://www.w3.org/2001/xml-events" xmlns:xlink="http://www.w3.org/1999/xlink"><defs /><rect fill="white" height="263.56377118193734" width="209.0350046419325" x="0" y="0" /><path d="M69.07929657576747,238.56377118193737 m0.0,0.0 m-39.419338583812625,-52.79066462658103 l-4.659957991954842,-6.858793440939476 35.40518901847773,-104.68483765402716 l3.825728625959186,3.2942616782854475 0.5650498722963337,8.895701139578449 l1.8857029836666055,5.244082258921248 7.9268523181737205,8.920127147093204 l4.437321813071406,2.3553638710687803 4.561334156422081,1.4070939356946566 l5.722188904805576,1.8973222446948503 9.003307270533362,-5.95641686700654 l10.423944449805882,-2.6859337021686325 3.192915030651854,5.675923496993729 l13.923348857172861,7.2159522070526565 11.237995101297992,0.8670108322633215 l6.5925222519592035,2.97610859037498 9.19248476869508,-0.433850622355392 l6.781496056608837,4.900439324119304 4.983580750318248,6.640627658030245 l7.126126073195427,7.068691555650501 0.6178643824254282,7.774905446100515 l-6.007490099117683,7.941763551972538 1.4440531949396451,2.6200778687788655 l-0.6008854617835424,6.70609061344898 -6.783352200391146,4.710984988265173 l-6.239611995004248,16.299062897985948 -6.776459005158498,9.468960042738912 l-6.155196381386794,-4.6276843727311165 0.9506020394858417,-5.361011233092817 l25.756214294550958,-52.174060055430594 7.495547912253926,-53.65602026599875 l3.909880753798492,-4.2551913850687395 4.636748904208727,6.837876531662481 m-1.9260840548850156,7.339064197860938 l-37.93535454717384,24.549917494720006 -31.627248322683837,-37.08535323654425 l-2.697642714046945,-44.60136329334863 8.68808404306984,0.24975238843237374 " fill="none" stroke="black" stroke-width="1" /></svg>