<?xml version="1.0" encoding="utf-8" ?>
<svg baseProfile="full" height="103.62788568157896" version="1.1" width="148.46590503384044" xmlns="http://www.w3.org/2000/svg" xmlns:ev="http://www.w3.org/2001/xml-events" xmlns:xlink="http://www.w3.org/1999/xlink"><defs /><rect fill="white" height="103.62788568157896" width="148.46590503384044" x="0" y="0" /><path d="M123.46590503384044,26.01147793370935 m0.0,0.0 m-26.80453589316014,4.34055658531924 l6.943465177373788,-5.35203451902859 6.697425266317365,2.7698212941948444 l-0.4572529625560894,10.846592959238999 -0.8332185725559538,17.557815440201544 l-3.9480298021813196,13.024240981121592 -6.52508297024706,4.66281756315803 l-8.495054411062519,-2.1054216121740583 -4.2612466734129875,-0.295875202351642 l2.490209555918248,0.28431559976912807 20.51915204662136,-1.251766308378968 l4.827950956751668,-5.080901013715414 -4.079316432041573,-5.9537697614831036 m-52.47230275756543,1.2272376862082457 l-3.5453237032446903,-1.3514422788288465 -3.3765184838169597,-8.358654572335064 l-5.343877425477427,2.4807975556391835 -7.2462822841444225,2.741790402011258 l-8.159470423699693,-5.923545528037722 -4.396595241656596,-3.8929980372328625 l0.42130725618594794,-0.18851175095601838 7.380017636561709,-0.7579954974767552 l5.865300275713811,-1.9986644435184913 4.544652225116212,3.6684680008430526 l14.970857386469385,8.500120298446847 -0.32568856831510573,1.222660979318649 l1.6832484333222346,3.0029685124179797 1.4909219966259248,5.348933208070374 l-13.732198782714237,13.37947571759444 0.7225510536815057,-3.678323194173855 l1.891271942047074,-5.434590007791474 7.410976746458255,-4.942272125608295 l1.115560487156777,-2.7740332410967277 -8.817753759016641,-2.1977603712246063 l-6.899762096076747,4.65832251821241 5.4528812163132,2.7822398812732705 l11.91990673613255,-0.8790192506875523 -2.1716783128361303,-6.721236847822039 m-18.99089491472755,19.256048128752614 l3.3351737471171603,-15.058566339763361 -8.647037622138143,-1.8646229833312724 l10.485172814771566,2.653474714000873 " fill="none" stroke="black" stroke-width="1" /></svg>