<?xml version="1.0" encoding="utf-8" ?>
<svg baseProfile="full" height="126.14677914560723" version="1.1" width="102.11824600604243" xmlns="http://www.w3.org/2000/svg" xmlns:ev="http://www.w3.org/2001/xml-events" xmlns:xlink="http://www.w3.org/1999/xlink"><defs /><rect fill="white" height="126.14677914560723" width="102.11824600604243" x="0" y="0" /><path d="M77.11824600604243,25 m0.0,0.0 m-13.520751075004895,6.662054187327069 l-1.3307993217039993,0.2116913923809515 1.8641506411398316,5.467723713948935 l1.1970251684975515,8.90639285778541 3.204608714038898,4.861105657442896 l-5.092619688584923,2.168808710556063 -6.171286291297272,0.0798742787833849 l-12.61721365552574,0.5311345603174545 -5.726132299509626,5.690574886110797 l-2.1793564986678433,6.869816543699182 16.67031044103709,3.177288446646143 l6.268421968268075,-2.465504869052545 -9.05632210627542,-7.481421180151393 m-17.588777299666404,-16.03516067038473 l4.675520955377331,-6.7558810733872665 0.4654551138921975,-0.7532785694480582 l-0.39535489915051986,3.776032730495271 -1.5533659797374473,3.6366113787917764 l-8.137964070270579,-3.116013159819523 -3.0937958228987386,0.8874136238685859 l7.453168263502634,11.981667180855968 -2.0912228375540014,-1.3285029042512013 l-2.0248006370407117,7.305600468312608 12.611567522775857,-2.341937405788438 l-0.7961269910097951,-8.552436855518874 4.0889627459140785,2.5877925913734545 l-3.3234982663240817,18.57478572684857 -5.495376053865528,4.320107003801221 l-2.4978399330218513,-7.4292749728200995 -4.188427144583515,-5.797153140780475 l2.676151269803349,-0.6985830818207373 7.027437763124415,-1.9691533737036562 l3.493952107434198,-0.6880521305151976 5.5891086777152506,2.451425301548675 l-1.8737699103500638,2.5739646090240833 -1.2658154039535157,8.695669632233104 l-3.846544612396101,5.039519925461412 -1.6050650037046204,5.365970040336017 l4.282054900364767,2.246244426181243 -3.1267029865747817,17.48986265891914 l6.431462722883546,-9.123099858926404 m-0.4745020558505573,-2.2566629606105884 " fill="none" stroke="black" stroke-width="1" /></svg>