<?xml version="1.0" encoding="utf-8" ?>
<svg baseProfile="full" height="133.75550417896693" version="1.1" width="141.72346730118178" xmlns="http://www.w3.org/2000/svg" xmlns:ev="http://www.w3.org/2001/xml-events" xmlns:xlink="http://www.w3.org/1999/xlink"><defs /><rect fill="white" height="133.75550417896693" width="141.72346730118178" x="0" y="0" /><path d="M85.36236668994226,76.63025554441 m0.0,0.0 m-17.913493794219413,-8.225704049404152 m-1.007129395909872,20.897749132478975 l2.206715159957573,5.393122400320983 -4.178712960802398,5.133984506654401 l1.5711091078903798,7.2338881224938305 10.35826700005683,1.6922085220128837 l2.276462127735462,-4.472609138394392 -7.736246978676036,-8.884811212675908 m-43.03925221211339,-3.8245760588436273 l-2.900084743861398,-4.390113627222716 8.426648464467435,-11.675612428317486 l19.502004303042494,-8.210641506572326 8.067936146607574,2.6260065700554778 l0.7070948704331428,0.48355737819600564 -7.416995589948861,5.099323819615234 l3.8683570870548123,3.856350102270104 14.21207216587992,0.9819877827588993 l2.0719777593070257,5.494977679106645 -2.744631494931492,6.959872155344049 l-2.9787142939897127,3.546179676925665 11.60224177070858,9.013258420079296 l15.066892221412115,-1.5832154703190038 8.29333591295788,3.0923348142046745 l-9.25389679217597,1.2118763898553033 -13.37051363659102,-0.9382911205936719 l-8.11791306644614,-0.023826293413820396 3.6877317071223557,-1.4974341323424647 l15.687236264584032,-7.514813690394347 8.248624130655267,-4.075256610175442 l-3.9708337857467977,-4.0902731115825315 -10.137222009171087,-2.0184970504987363 l-2.7154706306972742,7.711695051001766 9.153906362267998,4.785601808470474 l9.646434683984998,0.9668087931857174 -2.1221381262193693,-5.249641986622224 m-21.331495086584155,-64.0819089516195 l5.5708511467484385,-2.706591344000605 11.838570843268483,-4.347220886447415 l15.55189392412423,0.020254966207726433 1.8189666656139285,4.153568890586201 l2.860515383442963,30.61850557280616 -6.933621187727572,-19.59917625825172 " fill="none" stroke="black" stroke-width="1" /></svg>