<?xml version="1.0" encoding="utf-8" ?>
<svg baseProfile="full" height="206.7137932551888" version="1.1" width="174.15347978589676" xmlns="http://www.w3.org/2000/svg" xmlns:ev="http://www.w3.org/2001/xml-events" xmlns:xlink="http://www.w3.org/1999/xlink"><defs /><rect fill="white" height="206.7137932551888" width="174.15347978589676" x="0" y="0" /><path d="M86.06360838384185,181.7137932551888 m0.0,0.0 m25.690967700647924,-6.9184522426866435 l18.937209257322554,-15.960801288954642 2.8241013965610082,6.185625345364561 l5.8845602345479735,8.94589299499371 m9.089167559202686,0.25988757654105354 l0.6638652537727487,-4.848713472221906 -2.8849840679698913,-0.9182270371632064 l-8.992430832049946,-0.11787813112012463 -11.46844760304066,2.7621767201381924 l-11.480768233735086,1.3240592277666263 -4.1625943788338615,-1.2916877216991896 l-6.589606776099886,1.2687495194627978 -1.5871644056417633,-4.057161688279147 l-2.1741398805345105,-10.151389865133757 -8.739865274401396,-4.945484708082297 l-13.765655889031304,1.0403470727129094 -10.362393903810267,0.5447655777694496 l-8.105112300662626,-2.2950023371201502 -8.777622508268466,-4.271647412987398 l-12.322986818440786,-11.541955469042843 -12.739706913376311,-6.537582197199497 l6.826790475392728,-5.397487112120751 2.6712345313729577,-14.620285680257501 l11.895080723797285,-13.24554190089811 5.488349483823889,-3.4375778188307673 l4.62118582164808,0.9114931924972663 5.964543305451495,-0.2068410607664306 l8.040023504642686,-45.20009748249713 3.5641221856999894,-15.328109592950726 l6.046469602126718,-4.44218753690887 -1.159534506979965,-0.5236101397618128 l-3.765357486477965,-0.5466197500079217 0.716986094839489,-3.15244883574454 l5.154653459213653,0.6102393713019139 1.6634195220193926,1.2906354009983323 l2.4184805961850007,3.3819706549781134 -10.972342116222555,10.221089167961043 l-3.476822035851346,30.41135452112079 " fill="none" stroke="black" stroke-width="1" /></svg>