<?xml version="1.0" encoding="utf-8" ?>
<svg baseProfile="full" height="136.29729298140705" version="1.1" width="151.02979612339146" xmlns="http://www.w3.org/2000/svg" xmlns:ev="http://www.w3.org/2001/xml-events" xmlns:xlink="http://www.w3.org/1999/xlink"><defs /><rect fill="white" height="136.29729298140705" width="151.02979612339146" x="0" y="0" /><path d="M119.19186488882181,111.29729298140705 m0.0,0.0 m-10.058548631516244,-26.42411080175273 l2.195353692710724,-2.414384119557418 14.70112617337518,1.0143217165307998 l-23.82915837201064,3.171844785745009 -0.5851144273011275,-0.5325147839063351 l2.8952733236409616,0.5823138131582717 -1.2565042926225893,1.4535338082984817 l-0.9317669696092062,0.8800144770074044 m-30.039563843218904,-23.536565515277506 l1.303487095118212,-4.271865557564978 -15.502606600970141,7.601234042227982 l-0.5570155783351709,1.3958884455461051 -4.61543145518792,-2.2775731876339833 l-3.003785068909524,-2.8722590622299076 9.111730684175248,-5.8073868441509555 l-6.978057691829785,-8.493120453376571 0.7653367637922853,-0.3038907391840584 l-1.6716812661773135,-14.33083911964666 -0.7648781842638661,-7.250117237158815 l-2.6235701644249434,-2.9338717172163133 5.216640520661671,-0.9479449312648719 l13.197128950225418,1.2140501103724792 14.815946228396907,1.2629543340903462 l-9.437853470713597,3.545448472818107 0.876121043134146,2.050281359902217 l-5.394951224070172,14.836089217204336 -2.3370593683793395,11.302411125073316 l8.383011444703454,7.713079978549402 4.166632039423384,4.041760687794265 l-5.76815338923943,0.4915958007144657 m-43.12149385147357,-23.93412651997089 l-3.3424589979259443,-5.361319566601537 5.232828340368314,-6.624217839186284 l6.4558264421376705,-4.034530596626824 2.3708754690976703,1.0871419556217758 l2.432173910167262,6.775136146563208 3.746797574308594,3.9672628631847355 l0.8192931660010172,6.2747735617699645 -5.121830752119846,7.017505615149707 l-10.311115858917312,-6.05203895319467 0.7025230520766396,-10.540330483619233 l3.223891307993864,-3.1893204163233477 " fill="none" stroke="black" stroke-width="1" /></svg>