<?xml version="1.0" encoding="utf-8" ?>
<svg baseProfile="full" height="135.54937215564456" version="1.1" width="145.0770297249982" xmlns="http://www.w3.org/2000/svg" xmlns:ev="http://www.w3.org/2001/xml-events" xmlns:xlink="http://www.w3.org/1999/xlink"><defs /><rect fill="white" height="135.54937215564456" width="145.0770297249982" x="0" y="0" /><path d="M56.4868460220056,100.59831158916025 m0.0,0.0 m5.35354433380896,9.117011786293826 l13.175640134180473,-36.213690905271555 -14.046733988466343,3.8145121776776882 l1.3378070075770288,6.172205264794992 7.172512925417276,3.6596643090856307 l4.32550936499009,9.65581446718898 -1.5886861158843204,7.323804401166154 l-2.1943610883034004,6.421739065548581 -6.0390902364155625,-0.5582353584524902 l-11.482829215083083,-4.2021695553421905 -9.436070907324645,-7.141874670349197 l-1.2706761658552428,-2.915915294271261 -2.4111717705283713,-14.58497802008001 l-10.321153990015985,-6.214249698437714 -4.061086310102475,-6.041465370587612 l14.408149978606836,-8.15166004748655 4.5350916035002475,-1.7360677031032368 l7.035644505642383,-3.6368086699788984 10.126795051522123,-3.905741497863254 l1.060704694067488,-7.220869411906887 7.129398079869931,-0.3350923977842113 l11.341047226895572,2.1690541521393825 21.155190172149936,1.0509528904965533 l4.020936319822826,-3.2988105613370076 6.956950094951377,-3.4542139937937364 l-5.34423691539412,-5.332293980333099 -2.0815200560607496,-10.03893296717312 l-8.530152441342334,66.3927355898927 -6.31618086857209,1.7127551453180918 l2.5158995130260107,-0.47520286455727534 6.527022279200018,1.6517098968855262 l5.277314680363356,2.7020765846803116 5.330530667121247,-14.41927625858837 l6.127509137376481,-2.6821006878170914 -1.7066020846813568,-0.28691579559874697 l-0.44272337780964344,-3.6410653291882205 5.950261464742665,-10.560402147769967 l-12.926894387535185,14.37098210815646 " fill="none" stroke="black" stroke-width="1" /></svg>