<?xml version="1.0" encoding="utf-8" ?>
<svg baseProfile="full" height="157.4047071376006" version="1.1" width="114.0257836831911" xmlns="http://www.w3.org/2000/svg" xmlns:ev="http://www.w3.org/2001/xml-events" xmlns:xlink="http://www.w3.org/1999/xlink"><defs /><rect fill="white" height="157.4047071376006" width="114.0257836831911" x="0" y="0" /><path d="M25,25 m0.0,0.0 m6.773052960614741,18.78179665573129 l7.585112569295621,0.7280608692041494 15.724275974261278,0.15981610638272248 l3.95358670043082,-0.5411744928157283 3.0023427041993083,8.760994217024342 l-3.6782558916754757,10.662083723959052 6.1205654606841176,11.551907764325868 l1.0712698989900868,1.4299941511573926 2.0676809221171024,-2.5164483422060404 l9.929904146927399,-4.91069815033756 -2.721063952529584,-9.984437617288032 m-17.504050047813575,2.918348182816324 l-0.04196488608759697,1.3721648720355266 3.4524430355444626,-3.798564281947132 l5.03525806821531,6.722106038473939 0.8509584491357715,5.508573016432046 l2.520531199060531,4.8934244946349645 0.35054903448486946,6.979590364676008 l2.3061353315598296,5.770233792968186 3.4385112336383643,4.578274153801845 l8.426601651435387,2.8640007396136524 5.155436350724309,-5.287167440731957 l-4.314779967140996,-5.382203773109184 m0.12930490052736276,2.756055307634343 l-1.4247286386890645,2.2505220134442045 -2.765512281974709,-9.494682586532575 l-12.385435966473985,10.445057603536846 0.36501101991453383,0.8458527446329968 l20.603043703814862,6.470425030726614 -2.2156633476046332,6.179374425034052 l-5.971957926162316,9.227718981505745 1.1909387624595618,-0.19628298324283866 l0.46516663549188875,-8.034163570711778 -6.285082264235961,9.277972796015616 l-1.9242813763820754,8.16194810396017 -1.5326840683780967,8.254234226795539 l-4.988509340534166,-5.390774089502105 -1.7849381999930019,-5.246136670845026 l-1.689545728172791,0.3893567936834659 5.555961172311639,3.7807324543105483 l-5.865760318673485,-3.3461840132719587 8.016715942603469,-4.040419443327184 " fill="none" stroke="black" stroke-width="1" /></svg>