<?xml version="1.0" encoding="utf-8" ?>
<svg baseProfile="full" height="178.51332360538825" version="1.1" width="171.45846099764404" xmlns="http://www.w3.org/2000/svg" xmlns:ev="http://www.w3.org/2001/xml-events" xmlns:xlink="http://www.w3.org/1999/xlink"><defs /><rect fill="white" height="178.51332360538825" width="171.45846099764404" x="0" y="0" /><path d="M25,50.56948274362468 m0.0,0.0 m17.733899072191168,-3.1206268765382887 m11.161281558702187,33.667871569647524 l12.376293366344548,-56.11672743673392 2.150844754809014,4.72783140936379 l-0.24807701637102497,5.139916773998255 -3.642705806079957,6.0609375605318965 l5.819641258384585,12.898249455009866 7.2579919619780116,4.947836022384464 l10.129943523521106,0.7556662107415046 8.901956157768334,4.0251371723629275 l3.4364865145135113,3.8318962509716523 -10.57891264903859,-0.5240839824563316 l-1.1526249875092676,7.628070623433771 7.40719580393455,9.873417371916041 l4.877546195995238,14.279109565975682 9.78983628289258,13.008003973871611 l7.498144728829201,2.8339786932086275 1.0969936424532805,5.4754560375876355 l11.361729090191242,1.3792106993222286 -2.428227938276839,0.9453873374019652 l3.4007722953694883,-6.21115099234137 6.952098823480362,0.3760398119027303 l3.9142815030433296,0.132226364899814 4.242072860517963,-12.530309083507847 l-3.7615553696033475,4.944560266147453 -2.328132861298556,1.2397948642547165 l-4.410819408797495,0.7937663710553605 -3.8930459359224576,0.8652131363530082 l-0.563251485291269,-0.46993483715009443 -6.4741802506603445,1.1532461890103924 l-7.09971979501892,-1.088743413287594 -2.8661520197098223,-7.381947327924754 l2.1876839354649666,4.714229191695291 10.917096173380626,8.220945773278014 l1.5623032822944616,10.373395836188383 2.076423432760933,16.556673202173368 l1.0047673214118813,9.539297077015801 0.30501126694888636,-11.55680775241104 " fill="none" stroke="black" stroke-width="1" /></svg>