<?xml version="1.0" encoding="utf-8" ?>
<svg baseProfile="full" height="193.85992712161476" version="1.1" width="133.78280936486442" xmlns="http://www.w3.org/2000/svg" xmlns:ev="http://www.w3.org/2001/xml-events" xmlns:xlink="http://www.w3.org/1999/xlink"><defs /><rect fill="white" height="193.85992712161476" width="133.78280936486442" x="0" y="0" /><path d="M25,72.38246882873476 m0.0,0.0 m11.833602926330236,23.723607161929642 l5.680449487131563,-41.216142426738195 4.024497136164672,-0.13295798326795968 l2.0025439810323538,11.538779836468699 m5.94398406214758,30.5854812033898 l-1.8417317455322162,7.9276786708473175 -0.06372833416482954,2.464135076143507 l5.8179094809778595,11.392564413501413 m14.020512049100109,-10.323192305659315 l4.295536215450948,-5.25351271340756 9.609542147177738,-0.631360804014639 l4.014573800123578,0.18340435268005717 8.504385678718954,-5.141886957055682 l5.749188596748929,-4.028628837931547 3.279164789311555,6.249849092656377 l0.9123790941454107,9.925611069946854 -8.808673002103262,9.094363635167658 m-13.54348930395828,-20.80421525518135 l-15.84731047566355,-13.728967151755525 -3.5879676193551373,-8.483412918901415 l-3.477611830167117,-10.011664046074763 -1.6046915120297651,-7.694872610562477 l2.628538556649175,-1.7885000599039924 -1.7835698248481668,-4.9417454329604 l1.9444282463833318,-0.04505831174727859 1.041326949575854,3.694540243192435 l3.990683926527241,9.08639904258129 1.4734911988223776,1.1950409082058937 l-4.994006799036678,7.172910215145863 0.4066677020958065,16.17264345400897 l8.956173723142223,9.822750476666657 5.726736858888242,2.9070424589551824 m-11.811139693970176,67.56677479655447 l-18.281903836779655,-3.72837095054944 -4.273955142891977,-13.113930949996572 l3.5779947453286147,-15.018159653449906 m-6.9902258071314956,-90.33928541285263 l37.49125321487277,-21.66018015476619 " fill="none" stroke="black" stroke-width="1" /></svg>