<?xml version="1.0" encoding="utf-8" ?>
<svg baseProfile="full" height="176.64111123460356" version="1.1" width="151.45018692785425" xmlns="http://www.w3.org/2000/svg" xmlns:ev="http://www.w3.org/2001/xml-events" xmlns:xlink="http://www.w3.org/1999/xlink"><defs /><rect fill="white" height="176.64111123460356" width="151.45018692785425" x="0" y="0" /><path d="M126.45018692785423,119.65429026569434 m0.0,0.0 m-36.8134114769761,4.7474514679825015 l-13.306413979708635,3.4153111445008153 -2.4801884133151173,-0.8599126480376579 l-3.5257615415667263,1.685777646220065 -3.530319108644203,5.407327887528554 l-1.2155151394860675,3.6838075964794204 -5.333395288138543,5.842385439749891 l-11.835066701336189,-2.5409314495134403 -9.392570977918679,-0.7770610857663209 l-4.726271869423209,5.410638078668233 5.470517087630131,5.972026891097165 l13.852298252683674,-4.833991407447084 0.40274214212238757,-5.390511778214182 l0.7454284370981812,-9.519920377072062 -2.131100340420269,-37.14631239174951 l-0.14832668150976835,-18.843802942221004 -4.104977978317352,12.429903141836915 l-6.486836081976064,0.258641880824626 1.1935084409515102,-3.6686964924822005 l-6.279390957748428,-8.722659934711757 -6.698551874386746,-8.104926172310597 l-5.1065828774679884,8.591759649165237 1.4324161391568313,7.142888460295926 l0.7692760386891029,33.766659975559286 9.162229109565011,7.144500487512031 l5.845166673107196,13.852316022270127 -5.030765556923584,-11.18816810172524 l-10.104231233963203,-6.657632526885595 m23.589577732912552,-87.52669715690908 l-8.143243112323603,4.392753306100843 -1.7418247846134198,-4.394111344908779 l6.601503264818526,-8.223103531531484 10.041001827891641,0.37184910633750917 l10.280487704425537,1.7446287742042526 -8.80686101954764,15.022821713059443 l-11.442227292190292,-0.5817520900742033 -19.610292450442387,1.2893094377473815 l-2.7987028469063917,17.471372216547287 5.010429779936367,-0.40467674843170515 l8.391491167928091,10.934101555513799 11.739779464915934,5.109482042183162 l-1.466169180514586,-1.243211846316164 " fill="none" stroke="black" stroke-width="1" /></svg>