<?xml version="1.0" encoding="utf-8" ?>
<svg baseProfile="full" height="238.69073463078854" version="1.1" width="104.12873401147532" xmlns="http://www.w3.org/2000/svg" xmlns:ev="http://www.w3.org/2001/xml-events" xmlns:xlink="http://www.w3.org/1999/xlink"><defs /><rect fill="white" height="238.69073463078854" width="104.12873401147532" x="0" y="0" /><path d="M54.53916234173589,213.69073463078854 m0.0,0.0 m-1.954719740819485,-95.2648044033366 l-3.8425347680837088,3.4081653073143796 -1.4570906399190393,5.179056197255023 l1.8286480630780406,1.348040123211356 8.833307661488318,0.027204134804655455 l0.7823276383788117,-3.857500898675147 m-17.196167198076626,0.1979068454122035 l-2.095550968231592,4.453289686494468 5.23823012006861,0.39109238604768726 l-1.3493313184121802,5.5044047177124975 7.159033075746115,3.0209211516370087 l7.3307710191152315,-2.223774750417853 -8.02984104871669,-6.455740598128063 m-17.033649143475955,-62.418134163692166 l3.8718920196406716,3.0512506528054297 -0.2889931853726483,-4.225920541665491 l-1.068815082926573,-14.723362134870642 -6.166203947684661,-11.272495378455833 l-4.1004748975325365,-5.976122518068188 1.9690418828843574,-1.931688461281701 l5.216280502106703,1.1105377774932648 0.5125940980952718,2.1655399950607723 l-0.8258868901970751,0.9560794005632065 0.6518744876245292,-0.8545344701580139 l5.059832996826495,-10.30014468785084 -12.366403916985792,29.856076588615085 l0.947952372621147,6.497407221737854 10.059943754286014,-5.340819539911711 l4.130782745153565,-3.2449579560124775 -1.6940568043136988,5.451207438403518 l1.506934300933044,4.110886403603969 12.56435894843519,-19.531367851119754 l6.188423315119809,-1.1553073680640649 10.320966707890701,8.290244418394515 l9.886095510995068,20.53497067905994 -1.259050172666999,15.974571860946467 l-5.269413282098809,5.782432344065099 0.9208342406218725,-5.569817264027737 l2.2134074498259952,-0.31714908192545355 -0.27707408196006517,4.423272772893253 l-10.48646498878145,4.821570297182683 -0.5621456439309115,-3.0038172352772596 " fill="none" stroke="black" stroke-width="1" /></svg>