<?xml version="1.0" encoding="utf-8" ?>
<svg baseProfile="full" height="164.2896251687726" version="1.1" width="118.92387128177221" xmlns="http://www.w3.org/2000/svg" xmlns:ev="http://www.w3.org/2001/xml-events" xmlns:xlink="http://www.w3.org/1999/xlink"><defs /><rect fill="white" height="164.2896251687726" width="118.92387128177221" x="0" y="0" /><path d="M93.92387128177221,75.23496338116199 m0.0,0.0 m-36.19664040851904,25.34734742144142 l0.09589710208490476,-2.277183941991443 3.2434381731669264,1.9913551499095277 l3.9850268437977374,8.373088326356793 0.4046243515682704,6.937294082336671 l7.319865675236081,5.856942280583597 -8.594412113169074,4.2902674391310125 l0.7027104154990133,-3.361995529848331 -6.688712715516863,9.3014353403948 l-4.962467974139987,2.004324194674133 -4.100866683346785,1.5070390041286446 l-6.556219935084848,4.084748020493786 -3.331786231276294,-1.9735691755666318 l1.80616396432285,-3.634752569234946 9.553072220490769,-9.658454143273277 l3.281048634719377,-7.4948025272073835 -3.528188509064931,-3.9728406381129955 l-2.3616757389514875,-7.23933776342547 -3.521034497113658,4.1159767786829535 l10.34263297586652,14.73998226548303 -2.676276779472532,-1.6913315469219086 l-9.476791919113598,-3.872810472149557 m-17.56465533564767,-67.75383850490974 l-0.09862279810788026,-0.36794052550999407 10.338563927225652,-11.176029979680521 l-2.227211801086968,-9.354191868869593 12.196421172293306,-1.2976885494245138 l6.448033868118747,-3.6579959486520495 -2.9066868532434245,4.131434684022313 l2.2002681188151554,5.856205246604101 -6.947633768369874,1.2226629862146177 l-8.675489522612136,2.377857534127247 -4.597822514139611,11.766603106030894 l2.5708279714185434,-2.608844763035023 m13.45947489144621,-11.653537441543316 l10.033608298948257,-0.9350731160235967 1.5783182379728744,2.233679059238627 l0.7520974893286378,6.219193648607395 2.392044101204043,2.026898275723744 l-1.4266535644300862,-12.441252921653273 -1.2512643159736025,0.8982964169469604 l3.4583768623100695,9.077951360013069 " fill="none" stroke="black" stroke-width="1" /></svg>