<?xml version="1.0" encoding="utf-8" ?>
<svg baseProfile="full" height="130.61753663409647" version="1.1" width="149.33535345290284" xmlns="http://www.w3.org/2000/svg" xmlns:ev="http://www.w3.org/2001/xml-events" xmlns:xlink="http://www.w3.org/1999/xlink"><defs /><rect fill="white" height="130.61753663409647" width="149.33535345290284" x="0" y="0" /><path d="M124.33535345290285,25 m0.0,0.0 m-29.910733238801495,17.350715295362562 l-5.359794362620951,-0.24999124515294938 6.099269519338698,-7.175459414358054 l3.3467736629165636,41.58729741096304 4.5012021026190485,6.753427452078844 l3.261423419379373,4.221667859662601 -4.8255303180659315,2.6462616286511396 l1.0330261465201958,4.448750697865332 16.048895230650025,-0.4933376187263606 l1.575257879713276,-5.055817209488565 m-25.482694152418805,-40.052585123322366 l3.7554183670244825,-3.454767214200072 1.6595423869984183,4.3562954483880105 l2.6465678898730327,5.3640459799199025 -12.402072788155133,6.017168196685927 l-11.012030503682848,-6.72416040310206 -1.8135992848463345,-4.448661990726549 l7.376103324688101,-10.855537101342211 -1.1911805182380448,-4.271083232098222 l-11.771361049528362,4.4751758196361235 -2.5974970771424135,7.280620297679553 l1.7677090061493623,10.30761488545246 -0.4111978867643362,6.785849111389573 l-2.1744658066241813,4.424266853255891 4.441068136392628,-6.198069959881627 l-6.341765623816726,7.157380295160955 -2.5823651331993296,0.33842571141661115 l-1.4880039616889191,-1.6526409784059763 -5.143537190261,-6.558313816491067 l-2.8922428501298785,-5.921314962265652 -4.004650715162326,-1.7343013183566265 l5.051156581501224,-1.2547299805312617 3.8816804043155027,-0.5039697699965024 l-14.27240336192483,-1.4929877326683867 -20.10332168791093,20.827261786105467 l4.744857471378819,6.581949227493144 11.937181072304455,0.06112956269635664 l2.005389118893759,7.76492705845524 -5.253278858461689,11.789488787513198 l-5.797061154590026,6.782223884961693 6.074366799955357,1.3933224544173164 l2.4029465330740662,-5.165117144185901 " fill="none" stroke="black" stroke-width="1" /></svg>