<?xml version="1.0" encoding="utf-8" ?>
<svg baseProfile="full" height="132.47559356303321" version="1.1" width="121.76120003511068" xmlns="http://www.w3.org/2000/svg" xmlns:ev="http://www.w3.org/2001/xml-events" xmlns:xlink="http://www.w3.org/1999/xlink"><defs /><rect fill="white" height="132.47559356303321" width="121.76120003511068" x="0" y="0" /><path d="M62.813574608520376,107.4755935630332 m0.0,0.0 m-37.813574608520376,-55.412998628856414 l9.577455785795278,1.3698248320661566 12.89812884607628,-6.296441937976307 l9.60422021402516,3.7924689539054017 1.8399029361022567,5.136794201459401 l1.8886401260517294,6.031504068681972 2.4029664816169993,4.753391850792256 l3.5313476252819247,5.531091130702792 0.6375417374718308,4.401588864943083 l1.400295568653317,7.3302468192443975 2.392042625232098,-1.7615631529322098 l5.625960380952969,-6.132756537833935 -8.377420720344531,-8.809857436342101 m-3.107234991069908,-16.15749239131622 l6.5575635592659,-3.429266243235405 5.534911473595299,-7.521891265479413 l18.999413975867103,-15.300236690856647 -6.834907029866564,4.848295548371003 l4.431416503818906,15.655178969742941 2.758954936584611,-2.8855312510794207 l-20.018866314182624,-14.938700629877557 -6.972912756474848,2.9704072353767885 l-7.936157490322309,-0.8452596257686729 0.8032724933219428,-2.952443233507547 l1.9446699977042325,0.6976150697462538 m18.593261283378023,17.886110194730893 l-1.5771771640690684,1.5873765147339514 4.410780351711583,7.975459604181859 l1.6522515674091365,-4.03683935961116 -23.324163677262717,17.337698882448134 l3.888167990962644,7.4725316821941545 -5.10870100374836,-0.1791354765336825 l-5.4401174612864995,-2.4227208057668195 1.242838369857736,5.32627988114202 l9.441251518080295,1.2000809829297554 4.814247182043996,2.404419885823901 l-3.2218880040321394,7.353929682911109 3.829888882903732,0.24171196167141196 l-4.339805771476519,8.79374014377792 -8.863391118801822,2.2712172298209636 l-14.84373042803124,2.5685582871678356 -10.884681650612192,-18.183695554063235 " fill="none" stroke="black" stroke-width="1" /></svg>