<?xml version="1.0" encoding="utf-8" ?>
<svg baseProfile="full" height="402.2185850692879" version="1.1" width="186.05479109009937" xmlns="http://www.w3.org/2000/svg" xmlns:ev="http://www.w3.org/2001/xml-events" xmlns:xlink="http://www.w3.org/1999/xlink"><defs /><rect fill="white" height="402.2185850692879" width="186.05479109009937" x="0" y="0" /><path d="M25,377.2185850692879 m0.0,0.0 m8.517812857531334,-8.484242352481862 m55.0235939968076,-42.64151999221956 l-8.233119599304684,-9.446442344836722 15.717682032456175,-86.12185719753009 l20.384958543701476,-38.21736476745478 3.484757168447945,-11.502545905696007 l15.338152404091279,-79.60830213335531 7.682268130858885,0.46165235727050846 l5.487897222033814,5.545493275169837 0.6225856094176522,10.142168534956339 l0.3560816634595355,7.490433448521485 m-6.832198902376454,-64.28024771989271 l1.982495717568377,-10.459760292423978 4.497604207177952,-10.489700076094378 l1.5766403107934839,-4.142557758348616 -0.12485404631858654,-0.4943291519969781 l-9.576832547132321,1.1088363274063595 -4.062758824685079,-1.430315467419 l0.21208997409630392,-3.1770697750513963 2.393279749623077,3.255134946170007 l3.4252828436245775,11.747141721217488 3.171360918567941,13.889710449488241 l0.298823507611408,16.033821566229307 -4.4886954959579555,-3.597755179667297 l-4.3985074806197595,-10.768664199255417 -2.526288315305246,-7.751915526771894 l-4.872135033365544,-4.03263795308995 10.60745130569248,-9.959541457766287 l-0.8013458652988681,-0.002952325478504615 4.450181678849182,8.470758942354916 l-2.2015900590297055,3.471701229609211 3.1022260507987647,4.320669546996658 l-4.121610650656784,9.22987591156533 2.6954411736676995,-13.45902388709595 l9.701346253633467,-2.6409139190202313 1.7331060332064403,-6.832437096397418 l2.279895918280766,-5.900464600583593 3.5517126381527575,-11.943422246315674 " fill="none" stroke="black" stroke-width="1" /></svg>