<?xml version="1.0" encoding="utf-8" ?>
<svg baseProfile="full" height="215.16078921124037" version="1.1" width="133.58612202267358" xmlns="http://www.w3.org/2000/svg" xmlns:ev="http://www.w3.org/2001/xml-events" xmlns:xlink="http://www.w3.org/1999/xlink"><defs /><rect fill="white" height="215.16078921124037" width="133.58612202267358" x="0" y="0" /><path d="M25,188.01084180105124 m0.0,0.0 m10.160682830618173,2.1499474101891214 l19.225103467337107,-38.62643165786672 6.705785828970114,-8.782178881026296 l3.966066501275247,-2.5270025064676553 -3.6328891037948394,-6.582423997200528 l7.927833881746378,9.887267025084478 5.780000276910339,2.2319451289589924 l-0.912745902347174,-10.204337962627918 -4.188918923353951,-9.382919185282715 l-1.918837368685226,-0.5890928699693965 3.6865377764762153,-1.8154674757808524 l1.9677551746282107,2.9462312363605467 -2.5223392754003253,8.119304183595363 l-1.148773728325676,12.274707903553725 -0.6267286580388831,8.047790157219865 l4.3401512040220265,4.083661640800388 8.430223285465779,3.0355019076328036 l-1.3472471215288784,10.865094881684637 3.9590596203606996,12.951039913105141 l0.08667238038722436,-2.3226706870636757 2.9083127313877557,-9.546422487497424 l10.6503895762703,-5.654008663104608 2.2249348103891906,-2.6941247326282367 l-1.3162569271070268,-2.642944112336961 -4.39786120389023,-5.949005698679666 l0.04205640269916322,-7.139252803168013 4.672162777075856,-10.612313217471785 l-2.056169459630884,-9.227374426619308 10.921161168756921,-5.572499758709226 l-19.274293255154046,-27.046871069739158 -11.821145499885212,-7.779083664711195 l2.034676738716242,-7.749942509162571 2.5892701910095637,-4.054061492980451 l-3.3423144712920316,-8.496436240228094 -12.446094989141697,-3.5408139165965578 l-11.347445892522648,-2.202492347633329 -14.755961583519483,4.9736012167492065 l-7.950656197412888,-43.83676204143315 " fill="none" stroke="black" stroke-width="1" /></svg>