<?xml version="1.0" encoding="utf-8" ?>
<svg baseProfile="full" height="110.32235243058588" version="1.1" width="124.72215837202339" xmlns="http://www.w3.org/2000/svg" xmlns:ev="http://www.w3.org/2001/xml-events" xmlns:xlink="http://www.w3.org/1999/xlink"><defs /><rect fill="white" height="110.32235243058588" width="124.72215837202339" x="0" y="0" /><path d="M76.38213254534011,54.758648040857196 m0.0,0.0 m-26.794855836302,10.233359042468901 l0.4657688249626245,-3.9314187556357383 16.418312982011358,-3.612723002322703 l5.589341034738888,7.104013059941505 16.974670973237277,10.313392188822222 l0.39773649287923946,-0.6289702881974909 -0.6190927643430999,-6.506796123981486 l-4.8229578296929505,-2.930424954452986 -11.86416597479088,-1.0733543579591864 l-6.49540979953718,2.6893880104361734 2.3542817599278547,3.202976255794896 l11.604864454093732,0.8973490301228206 -3.2528348359226165,-6.070050065320394 m-24.88527028779217,2.9274649214551784 m-23.83361918714117,-4.725799242028103 l-2.618902551669021,-5.7428907947158585 6.630427262749767,-5.136430838857799 l3.0283253198167968,-3.6605938331435848 5.485812407877955,1.1006810361528259 l9.502082031922301,2.6593384359918173 -2.763530339644753,5.191809461075041 l-0.9564211531788106,12.179240891060367 3.9599671288414933,9.450309949026844 l9.180357813677373,4.2178763386611084 1.2937869510663946,2.415958025334305 l-1.5341327506724123,-5.907210958294749 3.837159265686666,-1.5199330569164808 l10.234209563339993,-6.43750828687306 11.536385025654843,-6.624759640779505 l2.8315793371528155,-5.754785551637328 4.113510981699693,-4.429042291678684 l8.342639526033274,-3.176567693740758 -10.752373047705746,9.73316329979308 l1.441728846929498,8.142346459490629 -5.082138980369335,13.042584827111567 l2.855927811870498,-0.27656048678960543 m-11.111190377396635,-21.105634617336477 l-3.4471672371672755,-18.064299554528382 -2.3559598504073347,-6.654518334736045 l-0.8400103757622509,-3.0946552762594326 -0.638928276170131,-8.194971267410647 l3.7833085736510705,4.076710769960036 " fill="none" stroke="black" stroke-width="1" /></svg>