<?xml version="1.0" encoding="utf-8" ?>
<svg baseProfile="full" height="344.51676000633904" version="1.1" width="124.11498219990338" xmlns="http://www.w3.org/2000/svg" xmlns:ev="http://www.w3.org/2001/xml-events" xmlns:xlink="http://www.w3.org/1999/xlink"><defs /><rect fill="white" height="344.51676000633904" width="124.11498219990338" x="0" y="0" /><path d="M73.59891374277261,319.51676000633904 m0.0,0.0 m1.737594799947897,-14.280677364712457 m23.77847365718287,-52.99911265011405 l-1.7466301378364149,-5.119654708187628 -6.407643298899881,0.019913512388376516 l-2.6453567557968483,3.53751037912432 m-44.872721661069725,-98.94597956359291 l3.812227976015684,-5.3801402864341945 2.7131371981000707,-4.364915136524569 l5.689068576445571,-7.802408372294944 17.45777157929679,-9.502331952474817 l-11.770291015652639,-30.48476181147634 -11.008428354887485,-9.791154830977614 l-2.1418827472625,4.266694053956142 -2.8440594484857007,1.1857785306329243 l-1.5713882531230694,3.616394384661409 9.912288316668244,2.0078735618732773 l7.618407158059228,-3.747282747244908 -3.57059119165565,-9.179496214250193 l-5.121493092313614,-0.9624451644861853 m-13.19071631213506,21.042463517889942 l-14.426680735370377,26.615168272600236 8.651422920432367,8.356297364878687 l11.592765974383054,-11.18169439100313 1.3551371375661114,-6.44189107039182 l10.436463019746949,-2.1320951173092886 0.8274298297048943,-2.969326302104255 l2.6025959927530193,-5.530571054049946 10.50419974361254,-6.405050813016785 l-4.14625805900788,-4.1747902830095125 -6.61215296755191,-0.7267115662366858 l-12.641134098795787,-2.3852981402171762 -7.403088072158268,4.356916903089942 l-11.152516759542943,0.18925651320850445 2.8950388482794276,-2.3910999594356444 l15.852883279435003,-13.946680216743065 31.938077859807173,-58.865457284354775 l11.394688987784379,7.768679198587356 -7.019269357387984,12.904069819309937 " fill="none" stroke="black" stroke-width="1" /></svg>