<?xml version="1.0" encoding="utf-8" ?>
<svg baseProfile="full" height="251.06500602809814" version="1.1" width="245.8470516773673" xmlns="http://www.w3.org/2000/svg" xmlns:ev="http://www.w3.org/2001/xml-events" xmlns:xlink="http://www.w3.org/1999/xlink"><defs /><rect fill="white" height="251.06500602809814" width="245.8470516773673" x="0" y="0" /><path d="M119.37799511650917,212.31671257632382 m0.0,0.0 m10.192728105550094,-64.15018402934551 l22.453166474754376,23.84075846839946 -9.472322772148713,11.747641375278317 l-30.52254290695947,12.771402927641857 -38.62641635234929,9.551806914241473 l-21.65721843430988,14.201209605691602 -26.745389231046282,5.785658189867126 l18.46746846927747,-6.69194108598708 m35.649937526481246,-47.69768905531405 l12.075882582333186,-68.77765730927345 43.22276159588652,-28.340100279072068 l35.14835715970642,-27.9851109341774 15.651610245037512,-17.144612466231262 l10.214323460855132,-2.391916001084 12.767372494475216,-2.0359788969588264 l6.640297400550633,3.6823294431293077 6.009040742763956,3.8175886237194145 l-0.363477574581003,7.119673809937815 -5.126774387340958,8.043998255120723 l-6.118259042191832,6.082363852613921 -5.794684399478978,4.661748916840583 l-6.548904313554501,4.378212633441947 -13.058944914609949,-2.4235439591826626 l-8.476040415487573,-2.276973850645124 -5.4384035746552595,-2.434472047551134 l-1.836698946851966,-3.077267164049584 2.095080538094061,1.952203355057937 m-3.712631201518316,-2.453775172532764 l5.931951807262112,7.335388590615646 2.891027848251232,4.225528917604088 l0.843994174953591,5.886757959898025 -1.5331820694229938,7.226517435067139 l-4.317183231806703,7.566036173885144 -1.445752945241952,5.501592980902157 l-2.849864996708219,5.950732059203832 -1.3098201514063517,6.987655761148603 l-0.5628265349038499,4.625844775407227 -4.582051134962335,-1.1574830652427608 " fill="none" stroke="black" stroke-width="1" /></svg>