<?xml version="1.0" encoding="utf-8" ?>
<svg baseProfile="full" height="133.11149805129958" version="1.1" width="114.77072143002268" xmlns="http://www.w3.org/2000/svg" xmlns:ev="http://www.w3.org/2001/xml-events" xmlns:xlink="http://www.w3.org/1999/xlink"><defs /><rect fill="white" height="133.11149805129958" width="114.77072143002268" x="0" y="0" /><path d="M89.77072143002268,87.3056934160017 m0.0,0.0 m-0.08859840107207084,-17.663669398265604 m-41.95196301104996,-22.514271616130735 m4.801993002731248,-18.126421607764364 l-1.4557056711165228,-1.114705268065831 -3.8325227352739955,4.693951501765926 l2.4354716729246118,4.973043824847205 15.503396919891799,1.6960338036193596 l-6.354985061796805,-8.537122555023755 m-11.960980004152692,39.08392841767491 l5.093229388621855,0.7769891356278765 2.496549689560421,-6.093927558143482 l0.8953554884530551,7.8646503402960555 3.8618516529369744,6.888994170778356 l3.2552805007782264,8.228879339731824 1.7729673970457687,1.9737666355268226 l-8.479103000022235,12.922949243617055 7.925083529371153,5.752736225206246 l4.785075462298006,-1.5406539018629501 -7.632170722826075,-5.356667190095228 m-7.458667278902158,-18.409558613380458 l1.6740393249829613,-0.6553551901132302 -9.503636787561815,8.54859394633384 l4.158682345589164,9.069827194701313 -11.68646037278353,0.3554617994531184 l-10.216229749510077,-11.438738657504619 -2.8086750091399884,-6.300753651791653 l7.734176802711197,-16.848551013196705 8.09377634365791,-3.2804337622067603 l4.296707970711062,3.7358094103255572 -0.17782428372491016,2.629911198420086 l-2.906247716819942,2.939726138698307 3.4733183772132694,4.880440212740647 l12.379488107445876,0.3327447942124604 -1.8589147116029443,-5.636785424823387 m-19.282820352078907,-14.122161440236685 l0.4152693581596868,-15.134785889920748 1.332641645658479,-4.018245572193924 l7.85264952006033,-3.1343376296736336 -3.4177388884325257,2.2030515006277276 l-11.09021341771168,-2.7921310867869114 -2.80756451585079,-2.569151377059192 m7.505266455949468,-6.568753845966549 " fill="none" stroke="black" stroke-width="1" /></svg>