<?xml version="1.0" encoding="utf-8" ?>
<svg baseProfile="full" height="113.64925194104619" version="1.1" width="86.27684526600255" xmlns="http://www.w3.org/2000/svg" xmlns:ev="http://www.w3.org/2001/xml-events" xmlns:xlink="http://www.w3.org/1999/xlink"><defs /><rect fill="white" height="113.64925194104619" width="86.27684526600255" x="0" y="0" /><path d="M31.883726717835625,25 m0.0,0.0 m-6.883726717835626,10.785399896434157 l5.061205199657512,1.4875358360847701 9.098491860081861,-0.8008812693493778 l9.128008082890918,-1.4561714057960333 0.3205451783034964,-0.34232621938662944 l-0.9588905520741775,1.2763912322263062 -2.581254353902691,8.859343991658578 l6.040140917813288,4.116912620403161 6.6744238573415045,-2.9833606999534235 l1.276558074454899,1.034022636070599 -2.458497424563924,-6.935859826335352 l-9.433213301666918,-2.8679826165911635 -10.247383538860072,6.19303397232563 l-2.590980615216368,1.2716064339609814 6.160169811193296,-6.703126262397869 l1.6292079845845846,-5.749354679076986 -4.14946077509252,-2.868607402462716 l-4.2768606472608965,6.2428951188932125 6.076484117616396,2.1504075828581084 l12.79476949828358,-0.44495963549225526 -2.211143998532292,-6.621780647419784 m-10.19440219071285,23.34483220679469 l5.489915658346616,2.6396774246009502 4.076171724657369,-3.528803387236993 l-0.22253017060626934,14.393671040923143 6.226495444722868,7.808525390351264 l5.548875424543334,1.0001576042813465 -3.9206019968345944,1.5408683979044329 l-8.398177363361729,7.830608401040268 0.6600942426738173,2.976576205733175 l3.089994113738148,-2.7019774246283492 -7.68021061812931,-10.647068044742976 m-6.27178756382339,-14.475647924179848 l7.108760390427498,-5.307989815980485 10.071666935637886,11.6374831744319 l3.0916330989116902,6.234266805262174 -11.218996757207789,4.6786719580667615 l-6.352924393360489,-5.530657749763453 -1.8958769503760646,-0.84775010605344 l-3.575440649924746,-5.8074401841757135 1.8692507907502964,-3.938364981019381 l12.578180220696984,8.663077948972878 " fill="none" stroke="black" stroke-width="1" /></svg>