<?xml version="1.0" encoding="utf-8" ?>
<svg baseProfile="full" height="165.53610147526155" version="1.1" width="101.85577158655681" xmlns="http://www.w3.org/2000/svg" xmlns:ev="http://www.w3.org/2001/xml-events" xmlns:xlink="http://www.w3.org/1999/xlink"><defs /><rect fill="white" height="165.53610147526155" width="101.85577158655681" x="0" y="0" /><path d="M39.611926166119346,130.88067231646963 m0.0,0.0 m-2.0968984824831076,-8.72317841797711 l4.441912562017211,-6.940309402307641 5.975266945668136,-6.882024844576927 l8.814638391542283,-46.28215886919693 -8.22443910913591,5.828498222555516 l0.8594905526880783,6.121158600272765 -2.263371608927059,4.59888667241628 l1.8224238036369236,6.416456625630045 10.015837636201521,2.54478608337913 l2.376426710646002,-4.003170377849801 2.2946144827930435,-4.920618028873085 l3.830980689031532,-3.4185187071902554 3.9833057519263337,-1.5853985696254804 l2.663515154508934,-2.8755896530857092 2.750141940323544,-1.8681831520063745 l-2.6003303462398852,-4.053928813378438 -7.235095874918136,-0.9380565161935142 l-5.587935844838655,5.965881674923775 6.322032122461862,2.3137931977199764 l2.3574184829798788,-2.6163629623345797 -8.588769139382883,-10.491368253114878 m-19.57880220696817,-12.546470618731856 m-2.13546295429813,-13.081128421533942 l7.854874009644983,-5.588657495458299 2.8352518607053288,-2.5766816850137046 l-2.2256619657183636,-0.2783286049186018 -1.0272903825402875,5.401810859640946 l3.0026282597278784,8.570779146726872 -2.1379044616152987,2.4239465976341457 l2.5044985258607486,10.669009922376848 9.122383331750745,2.463013205190292 l-0.5315523587034016,-4.37159818070498 m-34.206052644465025,46.43632773450046 l14.778984563799389,3.713622038677793 6.664316223038467,1.0487306255650581 l5.931360063470914,6.976096879957512 -2.360652806178055,6.836935020112714 l-5.288614284109495,-3.825531322599324 m6.80356601152643,29.192958948183207 l3.6025324250753332,-7.30489542336146 -4.285270254477198,-10.55973748157726 l-11.699882362975677,-1.4572315158937965 " fill="none" stroke="black" stroke-width="1" /></svg>