<?xml version="1.0" encoding="utf-8" ?>
<svg baseProfile="full" height="228.74166260037765" version="1.1" width="116.80675207462077" xmlns="http://www.w3.org/2000/svg" xmlns:ev="http://www.w3.org/2001/xml-events" xmlns:xlink="http://www.w3.org/1999/xlink"><defs /><rect fill="white" height="228.74166260037765" width="116.80675207462077" x="0" y="0" /><path d="M84.68658529153294,203.74166260037765 m0.0,0.0 m7.120166783087842,-34.38910496091761 m-4.948807136214877,-6.62629048563071 l-2.403446791322348,7.654982746975951 1.2424235332818883,12.130573641357245 l4.393059621578941,1.220330074104306 -7.5034084266054855,4.237817222492272 l-10.544060604138604,-0.6463956584067567 -10.499339648394717,1.2414968288967219 l-1.11483487753634,-9.749966853365938 -7.414781868904019,7.468649670354015 l-7.772628395017646,1.4963765934563455 2.405661185600879,-3.939147232600364 l-3.4143133630155553,-1.6385768509447467 -5.355846718808295,-15.41906307083946 l3.2927451760211706,-5.815574873384355 17.813605927428505,15.349274892789525 l-4.607942265806919,7.642284914586511 -2.5725892619109145,1.47219899331131 l0.5673745548970038,-9.281235359899128 -10.129318030387887,-17.85906794159107 l2.9960659683445,-27.84516268190055 -12.32109913123699,-11.591063906590055 l-2.5865072437639096,-8.646781617515709 9.082297491545065,28.491757367238655 l-0.3840692948769933,7.993820123275636 8.54301248132813,3.3038645156107713 l9.23081117792114,-0.14195574926493204 9.440563187971133,0.211654091763675 l-5.550793008104373,-33.23214800727713 -5.2047936151665875,-3.839150337210534 l-11.62433570997938,-9.178808842908934 -7.526857009048733,-8.71043031036211 l-2.2644427977383494,-2.6593415986834237 -0.3846970329779951,-1.2700619136830507 l-7.391747643873374,-1.5041273442045981 -2.2937125057088377,7.046448600617106 l4.540111050837064,2.6269267129987504 m49.31684362131976,-28.71425010689121 l3.5756715578382794,-1.0221238773739414 6.687589332272894,-25.191146057179566 l-1.194025481237529,-13.014266760597687 -1.3097114964863854,-6.404877190982874 " fill="none" stroke="black" stroke-width="1" /></svg>