<?xml version="1.0" encoding="utf-8" ?>
<svg baseProfile="full" height="128.0414417518557" version="1.1" width="150.9819048049813" xmlns="http://www.w3.org/2000/svg" xmlns:ev="http://www.w3.org/2001/xml-events" xmlns:xlink="http://www.w3.org/1999/xlink"><defs /><rect fill="white" height="128.0414417518557" width="150.9819048049813" x="0" y="0" /><path d="M51.60248510303026,103.0414417518557 m0.0,0.0 m6.9825466685728355,-44.470537547245584 l-2.037429164693047,6.171402902408421 -9.386160746816048,5.991881080742359 l-2.178264746840766,-1.5989942310057352 -0.7330220008768856,-0.22587640275010368 l-8.238780880029019,-7.475749257616752 -11.011374232347336,-2.7401406144698246 m28.33970302490543,8.833105824001679 l6.313602961812632,1.2421239933516592 -7.8104294166857935,-32.32592644815943 l5.321270204885757,-0.08192788007092759 23.41842692992362,10.411358877432773 l1.402408331426599,-0.15886492295107138 -1.6233385548680268,4.835087819402031 l3.134395077005123,4.060476650923904 -4.025731990486572,4.074598903764244 l-6.216667540621843,-1.7982163556202837 2.039534437540461,-3.51820579773539 l0.43347130060131883,-1.6057822269709254 17.469154093051085,-2.7324333458059633 l8.064490059898798,5.031529478820942 18.97486146026913,12.233008053657652 l-6.089435207810025,-2.1756456450054174 9.057026651691586,3.420522288349388 l2.7791629824420205,-26.292529674083244 -14.495235468465314,2.728624670435296 l-9.364444626800568,0.9780906325739036 -6.01012248650553,12.178876736694068 l3.2502711415656114,-1.67008521852812 -1.58818373100879,-18.527575839623196 l-6.724771563604417,-8.612691776930605 -2.1780965501614142,-4.220946479841474 l-0.23361137680709035,2.8911315898669345 11.23449505110918,3.222670479786445 l10.662191605837492,0.18998962530651536 5.482186434455105,14.503913009312258 l-0.6506523613476719,5.30837998303324 -2.368141374763538,0.9359562343269863 l3.554975722975744,-0.1051237347979766 m-43.06568741098753,-14.16176713899343 l8.092430822208462,-2.687254128494714 8.43861627913496,-2.4648280258335262 " fill="none" stroke="black" stroke-width="1" /></svg>