<?xml version="1.0" encoding="utf-8" ?>
<svg baseProfile="full" height="166.81682506266685" version="1.1" width="122.24802943792545" xmlns="http://www.w3.org/2000/svg" xmlns:ev="http://www.w3.org/2001/xml-events" xmlns:xlink="http://www.w3.org/1999/xlink"><defs /><rect fill="white" height="166.81682506266685" width="122.24802943792545" x="0" y="0" /><path d="M32.257624438985694,130.84993110005024 m0.0,0.0 m-4.4581517135049396,-27.773178366254733 l-2.7994727254807548,-11.874491862085414 7.008944114679056,-2.0539796683986635 l12.23358490162448,4.448292647779658 -1.8310557401602496,7.577620437401272 l-2.758656028568771,3.2307726696229944 24.294116591733598,11.225900071979327 l12.766727557952581,-4.781427764641826 -4.154153237860287,-3.5659674587187533 l-9.66665058760026,-10.210188042387554 m-3.679475699817217,14.305538765265306 l12.22425234980378,12.01530148142851 13.034791591513743,-0.4504909723058884 l7.577940212908207,-7.918347352944132 5.197663411716774,6.448634321036308 l-4.912673086601791,-0.16129096055233438 m-25.537007632377993,20.47539066696147 l-6.77893352598826,-3.722520471532418 -0.1651168338397745,-5.458919297912373 l-1.3406593904567154,-4.117927106328916 5.892088949917564,-1.1444832546831092 l0.4006207988626965,6.63272600500314 0.13460197189860634,7.839929474884727 l5.385902406948811,-6.065551794136404 -2.9918063821614393,-6.487780806143421 l-13.50117088763652,1.1764124598243109 10.17891278034493,-9.532357013398041 l7.109843598292442,-11.913735781089295 2.6441760873473177,-8.532835625202203 l-3.7659344513113058,-27.991277089428735 0.5575391026108756,-4.307461703807853 l4.1798580442335656,-2.6420908528079754 3.8164955223603245,7.558866002173008 l4.265225063829506,5.004325827357352 6.405850777224657,7.6461081008686715 l1.3896681745975703,3.705240013674037 -1.342264335962742,0.47577085139315084 l-1.9437767388883793,2.5771393348797167 1.8204695844319496,-0.5133346690072543 m-21.24750451343923,-54.62255965078084 l2.9736652871695712,-8.183575526214845 5.773426547415098,-4.16812714082022 " fill="none" stroke="black" stroke-width="1" /></svg>