<?xml version="1.0" encoding="utf-8" ?>
<svg baseProfile="full" height="400.37393627204483" version="1.1" width="140.11501557215294" xmlns="http://www.w3.org/2000/svg" xmlns:ev="http://www.w3.org/2001/xml-events" xmlns:xlink="http://www.w3.org/1999/xlink"><defs /><rect fill="white" height="400.37393627204483" width="140.11501557215294" x="0" y="0" /><path d="M53.22832968969418,365.51454182021126 m0.0,0.0 m34.289748546463294,-5.8081677112786085 l20.42109988122825,15.667562163112159 m-23.566304845809142,-109.05514224402701 l5.784097741365112,-18.25758354356461 -15.912957069916748,-97.42267081521373 m25.01579912434454,-46.67607852742787 l3.733494740121307,-24.51162479962371 9.766218894122094,-10.140801348167498 l2.3554888705400594,3.3354430862834294 -8.775942380215422,3.523911920291596 m-15.587797658469988,-7.866138602489849 l-11.344073685740481,8.982855985070525 -3.428556248997252,11.218663301801778 l0.42839730321709957,16.238374259280413 0.6230525405112508,12.385956008370664 l0.7613128984401091,8.532931854870304 -3.84053418136894,1.398193919402515 m-30.14228902656506,-9.74415757713265 l-6.128709845341944,-5.542021846180328 0.9463753856070392,-12.175465589435625 l11.169274706111375,-8.403276119868677 2.9685788793865417,-4.754045063866037 l-3.5457138496385077,1.5189799772896944 -0.13535280737304922,1.8167420570163118 l-3.0810812354156685,5.642970283120992 -8.709103086703184,-4.625460243011818 l-0.18751734200449288,-8.567401754544433 4.932986659803982,-12.235483672549726 l2.2569692590381343,-12.399056417536322 -0.19149081286285063,-20.17568163898611 l-1.1050282540209322,-8.48662057784321 -2.649301409749658,-3.9302485433737657 l10.527545436188985,2.496539178097339 5.299108202540053,10.451061698599421 l-2.047184269252289,10.025876684293568 -16.240846378125536,-0.3558364897557109 l-3.9339935241982524,-3.442035735956738 -8.954100846953997,-5.369061087146118 " fill="none" stroke="black" stroke-width="1" /></svg>