<?xml version="1.0" encoding="utf-8" ?>
<svg baseProfile="full" height="173.01089554381795" version="1.1" width="115.62825889977005" xmlns="http://www.w3.org/2000/svg" xmlns:ev="http://www.w3.org/2001/xml-events" xmlns:xlink="http://www.w3.org/1999/xlink"><defs /><rect fill="white" height="173.01089554381795" width="115.62825889977005" x="0" y="0" /><path d="M29.274323752222422,148.01089554381795 m0.0,0.0 m16.667547302515718,-99.26803975465656 l-6.0863703370301785,-12.696287817094257 -4.56403537372533,-1.2230995184855955 l10.14295972893285,8.449968739821289 -0.43910077261562985,-0.2844885952045347 l-8.219693685454777,-14.980254218835313 -11.318429654130723,-3.0086943793629817 l-0.4572009607143529,2.0674127544707868 0.8249304502127924,-1.0788804162165007 l4.7482250385708165,2.5471229811776506 2.160872323642178,8.65871751626049 l3.399817796621134,5.797120931994646 7.891029112271275,-2.5994209181322523 l8.853098681959596,4.492175878370393 5.28987736505467,7.542118967204391 l15.480974269593824,3.2703767171337725 2.1661660039562745,10.464481910827038 l6.350959871911887,7.022775809021927 3.477978621506904,5.407116446537162 l3.3864418262982645,8.208697338431389 1.5978875381704183,6.76171273608452 l-5.133509058971863,2.5322242421571093 -7.156680402367079,7.565464788967102 l-0.5763648349414358,0.435859580588413 -0.31992688154104065,-7.681539068349397 l-0.732795513046362,-7.124665872873984 0.46945776433952285,-6.6020289948301665 l4.599416210173995,-3.3256382413853833 2.152984142849489,-5.463771702780767 l6.121530838279959,-6.816405238840764 -4.6650645343294235,-7.569615419816011 l-5.74547055493247,-8.529327407700418 -6.357212819434894,-6.8665463021755855 l-15.802051123949667,-5.578877625670914 -6.63506182877798,1.176357098743871 l4.79865987001261,-3.0118964014551155 m13.647003223880247,19.87624108792885 l1.432261971266577,-28.196403891855216 " fill="none" stroke="black" stroke-width="1" /></svg>