<?xml version="1.0" encoding="utf-8" ?>
<svg baseProfile="full" height="208.04722086250328" version="1.1" width="114.22027292412575" xmlns="http://www.w3.org/2000/svg" xmlns:ev="http://www.w3.org/2001/xml-events" xmlns:xlink="http://www.w3.org/1999/xlink"><defs /><rect fill="white" height="208.04722086250328" width="114.22027292412575" x="0" y="0" /><path d="M62.517469030618884,183.04722086250328 m0.0,0.0 m9.415834774231092,-68.9240786074727 l1.569499713891052,4.273138856122993 m1.5547757493328218,-80.54193929955719 l3.3124481494662525,-1.4450468103214646 -12.216540532425157,21.630525686043626 l10.587524202571034,7.660574211805524 7.552081178631633,-2.1880716370260735 l0.40983451654684905,7.930358055555906 -7.038516044744403,-6.807252415406417 m-15.311510259344837,-18.176166595325327 l2.7681019290372744,-9.869461983426042 4.702524090936162,1.7010300022800269 l0.7015808591417233,3.8190583303348644 0.1511112540230655,5.985141547642697 l-1.7494900506405693,6.06377780447195 7.287823251001306,3.2533926641353133 l13.00572111185157,-0.8130925773976495 -4.96531335960421,-3.5924449697053795 m-25.82461048200494,-3.4893663266438946 l-1.0497764808249288,-3.728869664076134 -3.1718244232661568,-10.172835080234147 l10.694782036328654,-10.615592054303766 0.17731925563828674,1.2048451290808941 l-2.065089399404457,6.7880982268116545 0.8780045408182182,2.4284393133004287 l-4.931751186419211,1.099493157508364 -5.090254322256236,-3.263214143763301 l-2.986009285128406,-7.395639824109754 -0.5595305975256274,-0.8512145823596763 l8.440911460686817,0.03610793944617691 6.1682985029737765,23.64657618871213 l-0.6772115280802273,8.7427546767794 0.39903241407137147,9.592582416162418 l-5.21778134947972,10.91203706937873 -16.392290605118102,23.566598089832393 l4.050915137702724,4.279097978043871 1.0123208568737396,-4.478299776660442 l-4.578410307537886,10.441495512669428 0.8881114905561727,9.292814399311412 l-6.054771848886344,9.8151757210883 -10.483277709816507,5.764832464004838 l-2.8820657344225533,2.0674057639686683 " fill="none" stroke="black" stroke-width="1" /></svg>