<?xml version="1.0" encoding="utf-8" ?>
<svg baseProfile="full" height="188.21612791275294" version="1.1" width="125.35028997232243" xmlns="http://www.w3.org/2000/svg" xmlns:ev="http://www.w3.org/2001/xml-events" xmlns:xlink="http://www.w3.org/1999/xlink"><defs /><rect fill="white" height="188.21612791275294" width="125.35028997232243" x="0" y="0" /><path d="M60.33443312259675,64.57001886305096 m0.0,0.0 m-15.41912133503652,-8.046318236001357 l8.391159994697206,-2.179514467756367 2.0821409601051246,1.927746196818312 l0.3803293184053362,6.3448580115561715 9.238040276516081,-3.8135276273687557 l-4.735723166298385,8.531967167104083 -20.25242663221059,30.6071177371552 l-6.884697184658104,6.872581781970945 -8.134135354116902,11.076855704219339 l3.900648851522226,6.155549310776996 2.358834874020256,-1.3831370003254395 l11.72047409667778,5.066744048828329 13.092304757391108,0.4824569036720545 l10.57842818998604,1.5403386873210871 7.342352269575072,8.910491462774274 l3.2675889570442695,3.2961427762962603 -0.3966938023380749,16.38716086216334 l-1.999256384055649,6.868595730497491 -4.177457636839837,-1.500446686381306 l-1.6432192359001108,-10.188464136507456 -4.848593549415803,-4.400924015045713 l8.24284250228421,-8.369025103001078 -6.258295440588288,-20.22012200540545 l-2.080193075278214,-12.871193240655723 36.25052459823744,-14.704489826483993 l-4.81685247228531,10.066103893239319 -3.406340582149318,3.471915321988278 l-1.8635627395203669,-1.8761192640979163 -12.99970117486752,0.28397861264786717 l-7.398487772890806,1.172092687550647 6.0385761750279805,23.501335744827507 l11.988698810334858,10.345234943992141 9.682797303927533,5.8046871358621965 l1.5788467618199735,0.7939753888977674 m-10.715288888791372,-119.52466736418 l-2.238734028230687,8.494331521580781 7.091738991484402,4.305555923714008 l4.682993239730915,2.413937998832602 -4.14814718223803,1.6416229622863412 l-2.788058000338441,-0.04019029780755273 -0.6899534942540128,5.184120867232724 l5.309604196427113,8.332250950644035 " fill="none" stroke="black" stroke-width="1" /></svg>