<?xml version="1.0" encoding="utf-8" ?>
<svg baseProfile="full" height="154.9146471361218" version="1.1" width="114.29156222765965" xmlns="http://www.w3.org/2000/svg" xmlns:ev="http://www.w3.org/2001/xml-events" xmlns:xlink="http://www.w3.org/1999/xlink"><defs /><rect fill="white" height="154.9146471361218" width="114.29156222765965" x="0" y="0" /><path d="M79.85320458234861,69.56420889976506 m0.0,0.0 m-22.59469219314674,-1.9787285598429083 l2.0780167568618655,0.9241536888036855 m-18.123314555295362,-14.634587155520279 m15.349751240684983,30.16554994212794 l-0.07048759955529671,6.658861539724663 -12.411519779658198,39.215188781063624 l-10.616271408273198,-16.76906460414805 m-8.464687043966654,-58.070717730089086 l7.70583249414569,-6.165533582514131 24.155465215369958,12.8701355058817 l3.541089170252797,1.9730760116164985 1.824830526031716,-0.5150331573818908 l1.4424488534596909,-5.792809985333511 -1.593648201563997,-8.56823585985774 l-1.712458966246238,-5.096062774050665 1.599255477827818,-3.827285946921192 l5.4136997162751666,1.520741585215976 16.910525500968877,0.5223860558021938 l4.630843771871914,-5.847594476765718 0.23871502370160214,-4.979696416520102 l-9.217611793435564,-6.1689517610560785 -6.22224765035528,11.712448684590024 l0.8159807834419505,7.51663090634005 -1.2307939430700514,8.811248752193329 l3.2691050989622137,9.624246895655817 3.9658899166482136,7.792707599278497 l4.108209205654752,5.641163724277816 -7.203121345032377,5.634982419741688 l-3.971053010682373,1.7167542320673723 8.484860371322084,6.483695019632971 l7.335746012111085,-0.1725894637053356 -9.878404983924987,-1.1694044977849694 m-5.163344161498751,-10.164245176847988 l1.2207434918465,-2.9031083489232428 3.0473198186320642,13.525297537994563 l6.157306843817055,8.382405222351103 -1.0720050638642442,5.812356728345769 l0.9459639281611026,2.8490423252087096 " fill="none" stroke="black" stroke-width="1" /></svg>