<?xml version="1.0" encoding="utf-8" ?>
<svg baseProfile="full" height="133.0891610481217" version="1.1" width="124.10553212571548" xmlns="http://www.w3.org/2000/svg" xmlns:ev="http://www.w3.org/2001/xml-events" xmlns:xlink="http://www.w3.org/1999/xlink"><defs /><rect fill="white" height="133.0891610481217" width="124.10553212571548" x="0" y="0" /><path d="M25,62.85425003225782 m0.0,0.0 m8.558930792527176,-3.214200959451059 l3.985488928098449,-1.5795766988542737 4.024650390433053,2.806523594132447 l3.165036692021893,9.339371765101799 -1.236479774395417,8.846842834761098 l3.8939485346405767,1.3526692558553262 4.433102279575707,-0.37824668382597293 l8.67168209118655,-4.193012922187484 3.0001613890429306,-2.60096818351477 l-7.91189288715992,0.9642167498934953 -5.574553788623243,8.559158775045702 l2.293149852684729,10.160766731861592 11.552330975704178,1.3407606194693034 l-2.127410052928075,2.4308386785193092 -15.207575719137855,-3.66902842756892 l-6.727828316965037,3.8629320023896128 11.588146539037071,11.205863884236656 l13.031141806093268,-8.439551260383617 -0.3060832542257848,-5.7412693299056805 m14.41668575963987,-48.37741443219367 l4.315276202339448,-0.21737477087801063 -4.1113127847266675,27.59912361171679 l2.7369517430015766,9.72818315882499 4.369293648773513,10.093932021633908 l4.550604039018224,5.2151930139257905 8.722087040059273,0.4821859558237185 l-2.769846324032439,-6.485593390849071 m-50.22201497856488,-30.179664245634452 l1.162327076631375,-5.5137040873857535 2.977766452536981,-2.301894316650398 l1.4415537968823378,7.013147644786685 1.0485349285425671,3.746533162721804 l1.1550954916706597,7.766011300300424 1.2244579779860456,-16.551943626363528 l-5.541187424638166,-5.971765565852736 -8.907000139396404,-2.074556413159202 l-3.852315120640298,-21.81249890140436 5.300366746589066,0.5921425666494534 l1.147964930715851,4.094250828364541 8.551253328145123,-4.445406990844119 l-9.03807778720412,-0.35582690787950677 -5.914249852593539,-0.9514000734856917 " fill="none" stroke="black" stroke-width="1" /></svg>