<?xml version="1.0" encoding="utf-8" ?>
<svg baseProfile="full" height="129.95010050029697" version="1.1" width="147.57508438508836" xmlns="http://www.w3.org/2000/svg" xmlns:ev="http://www.w3.org/2001/xml-events" xmlns:xlink="http://www.w3.org/1999/xlink"><defs /><rect fill="white" height="129.95010050029697" width="147.57508438508836" x="0" y="0" /><path d="M122.57508438508837,72.89101133824693 m0.0,0.0 m-21.797212489453273,-0.10492251983270307 l-8.113233823238364,-1.7967137925000427 -2.004052018024227,0.3486817640750778 l-18.117049181737894,-4.94869786147627 -8.099763571971534,-4.0729399979580565 l-2.0785613097386655,-2.4487028377977023 11.483438498715234,-1.7633397599147786 l0.21317054722403986,-2.8172390051119427 -4.605468010303431,-11.441461497124541 l-7.127846052335845,3.910855777126261 8.083456414032126,14.243674587647552 l0.22710878167687132,7.269655079301298 6.330144617434971,-10.674085634924907 l2.1494460418480497,-5.825459918510962 -6.070597476268782,-4.342819433670833 l-12.414382809287439,8.53090184592205 3.732513420121988,3.443604490994066 l9.334300310383611,5.630690726809815 -7.576512859190824,5.4933987148920504 l-2.1623069248000677,0.37143962603491204 4.174593885543289,-0.7108388139683706 l16.07771786069567,-0.3165521202238242 2.6393279823676554,-2.7557719863447283 m0.6826975327201557,-25.96580140670979 l1.6878394138404955,4.931654508797685 6.9553675094283705,3.142608568499892 l2.055913226894636,13.832465445257409 8.351975712091567,-7.623158245738222 l-19.993124318442447,-7.750275641459023 -9.973441606038257,3.9678140063173384 l-15.338702406308794,-2.297371169667626 -9.769129114008354,-12.951160734620771 l5.05045524150547,-12.000664406582183 -4.540212156454741,-0.4004796957850516 l-15.098250202057564,9.527233024204708 4.082024152993287,7.007907843977339 l1.6904779978891271,4.283574653899214 -3.0067194641579156,13.436131202257236 l5.510551251914397,11.143404541993526 3.0212566527486233,2.5026449467582625 l-19.065241364570777,26.431764849055586 -4.157054278768811,5.617439438151101 " fill="none" stroke="black" stroke-width="1" /></svg>