<?xml version="1.0" encoding="utf-8" ?>
<svg baseProfile="full" height="185.4153781574774" version="1.1" width="129.1201166616437" xmlns="http://www.w3.org/2000/svg" xmlns:ev="http://www.w3.org/2001/xml-events" xmlns:xlink="http://www.w3.org/1999/xlink"><defs /><rect fill="white" height="185.4153781574774" width="129.1201166616437" x="0" y="0" /><path d="M58.00899614442115,160.4153781574774 m0.0,0.0 m-6.862098232005994,-14.837497317177254 m-14.769322790879482,-4.647958671060044 l11.186996098135573,-5.045344948164359 10.760029717734636,-9.213668038264263 l10.343099886851247,-13.274564371180297 4.427522192965343,1.4543632453460709 l5.68719333616889,-0.8049355310376471 -2.311099209095763,7.0901203547847045 l-9.805777510098581,9.125574000142013 -7.633932998667394,0.7794026980652302 l-1.4911448306226283,-16.32160616156099 -5.521280399798412,-11.361248341671354 l-4.2495064363393995,-7.95204693117258 4.352835296308002,-0.4239759964142482 l14.572297791732133,-0.9143959266152453 12.475586091972671,-6.478745990569969 l4.709579200791915,13.021349827925736 2.399531914545937,10.851695231575826 l8.55350274489977,2.169841279395672 3.6102499343242314,0.7121028766585336 l-13.695046459983953,2.009350981107465 -15.159382802018397,12.887384520376997 l-20.593540149723744,1.3970060743641135 -2.037312204585087,-14.969064784617592 l-7.560622421820479,-50.95904809939566 3.636902378135099,-5.861057082254484 l-5.075768412162237,-12.883451346370013 1.3479300630805273,0.8089636874292113 l-2.353905321109431,5.632347489755647 -9.886723082632663,-1.6983482859623371 l-2.0657895305234737,-0.41494349576037814 17.508061294478118,-1.2442442611872429 l5.316447098392239,-4.090272780470615 -5.7513700551867375,-19.958462063498033 l6.209774937751185,1.3074491682089453 -0.8861392128985651,10.095788463621545 l11.002297540030273,1.2103987398737297 7.741871249056074,-5.285484618555471 l3.752005594796011,6.24828906010631 5.553314896706276,8.980191858290222 l10.257104766925535,-1.8003671035167057 18.416748551593287,17.249327823753948 " fill="none" stroke="black" stroke-width="1" /></svg>