<?xml version="1.0" encoding="utf-8" ?>
<svg baseProfile="full" height="137.4308145057184" version="1.1" width="150.79912416262226" xmlns="http://www.w3.org/2000/svg" xmlns:ev="http://www.w3.org/2001/xml-events" xmlns:xlink="http://www.w3.org/1999/xlink"><defs /><rect fill="white" height="137.4308145057184" width="150.79912416262226" x="0" y="0" /><path d="M65.1885667242565,63.74857350146566 m0.0,0.0 m-8.845021191107728,45.39487526227364 m-24.906058985049313,3.287365741979116 l-6.43748654809946,-6.356517820532337 1.6787211338422197,-5.519995356190545 l1.0898034190991746,-12.296447507392712 5.517265807460761,-5.411041346949608 l7.42637215331682,-7.866651691934218 2.861466990924945,-0.7611048953307306 l-2.6700559675153137,-7.453056334627522 1.68342548338324,-19.558064384888294 l2.4404472724683357,-19.131079477360654 8.164903420533342,-3.0768556905117785 l10.136025200875178,6.0976197239563295 5.787463807849245,6.250038789359198 l3.3034961708582244,8.628125643520674 0.7504438144699551,9.512919194714595 l1.0726921375892133,6.9749471849002935 3.485745951663807,4.359463649742997 l2.8875806007896165,3.727629410920793 -1.9590530243409736,6.609680193286061 l-1.5810117248059457,4.680777659791149 -2.2684240062692473,1.9822996554690098 l-2.19252785344336,3.0802637323358883 -0.5696569825701551,3.1603974390763234 l4.0686222692337,3.051686929698826 7.261087629069617,2.6607794108955245 l10.13375183596293,-0.4189371838260722 5.431233821080555,-2.9471225715384013 l2.5535907761631225,-6.24131978145777 -0.08850603460370227,-8.414924801143023 l-3.0491098357339634,-6.994893864494706 -2.4137237622263417,-2.2287260339203754 l-8.497973315070634,-1.041776549005655 -12.888783097658226,3.3427341959862065 l-3.586267782070739,8.832557921685572 -1.0246607594294161,6.671244616370458 l7.783751665926177,5.987555295748629 10.507637573639878,6.265408600752996 l13.2361511617642,-1.9126525719854255 12.334203672694338,0.522950853804636 l8.786124722137162,5.400402471345316 3.2068698155645303,5.5074267996204185 " fill="none" stroke="black" stroke-width="1" /></svg>