<?xml version="1.0" encoding="utf-8" ?>
<svg baseProfile="full" height="125.13717675743254" version="1.1" width="109.92890572785898" xmlns="http://www.w3.org/2000/svg" xmlns:ev="http://www.w3.org/2001/xml-events" xmlns:xlink="http://www.w3.org/1999/xlink"><defs /><rect fill="white" height="125.13717675743254" width="109.92890572785898" x="0" y="0" /><path d="M84.27987078391521,100.13717675743254 m0.0,0.0 m-22.801887024465874,-10.796834897599066 m-5.816055255373126,-7.51915329044537 l-3.769363267721265,-6.681689941680646 7.856700041323477,-0.9552253863545043 l9.27627575945166,0.67053409397409 -12.987066165278245,-0.7322391261519198 l5.173775779284187,2.9907029071986777 10.652548550747474,1.512371476537578 l-2.1102012668183043,-6.126983594599136 2.9360897161257875,-18.36282106523886 l-1.0857513732034,-21.33059967337222 3.486098815760296,-6.527887362252281 l3.435149941248825,0.3972605993171442 -5.171621446407326,4.944950127865729 l-3.4863734464706617,10.169828103310978 3.7588201445979985,1.6064317604574274 l5.7423409725453345,-12.89037176958724 5.154806890283756,7.4770658301755555 l0.40474757831317043,15.112947957524387 -1.8639014511451626,10.594760193162989 l-2.566258119501644,6.079622233392962 -1.928023852613589,-8.549378957058417 l-3.784675612902247,-3.093462567199213 -9.22210745134706,-10.376777271407295 l-9.395278217434162,-20.25598769714982 -0.5736649073923867,0.8093946550901521 l-6.532139835623871,2.546613503318097 -8.353717326754893,-1.9574265312501415 l-0.48639048002351915,-3.892821067412182 8.159865822712662,4.4853645560760995 l-2.568945602560105,7.644334985972356 4.151997662643114,2.645403222683729 l15.110040158435677,2.9695173644930293 6.597923707316724,-0.5589071150833643 l4.284046890263996,-1.7128026017529185 0.9262526753381595,0.9891497304446073 l-6.541918169807015,-0.3297136434550947 -5.040670375724745,0.1652227420003599 l-4.421137295338473,-0.8345402935082968 -12.062535529686093,-2.195630598674859 m-19.735679623977184,-2.1427288575486645 l-4.081988792737164,-2.872639561892091 " fill="none" stroke="black" stroke-width="1" /></svg>