<?xml version="1.0" encoding="utf-8"?>
<!-- Generator: Adobe Illustrator 24.0.0, SVG Export Plug-In . SVG Version: 6.00 Build 0)  -->
<svg version="1.1" id="Layer_1" xmlns:ev="http://www.w3.org/2001/xml-events"
	 xmlns="http://www.w3.org/2000/svg" xmlns:xlink="http://www.w3.org/1999/xlink" x="0px" y="0px" viewBox="0 0 50.5 138.3"
	 style="enable-background:new 0 0 50.5 138.3;" xml:space="preserve">
<style type="text/css">
	.st0{fill:none;stroke:#000000;stroke-width:1.1056;}
</style>
<polyline class="st0" points="16.8,121.3 22.4,128.6 26.3,132.7 32.8,128.9 "/>
<path class="st0" d="M9.1,87.7l10.5,45.7c0,0-4.1-48.7-0.9-64.6c0.5-2.6,3.6-7.5,4.3-10.1c0.7-2.3,0.6-7.2,1.3-9.5
	c0.4-1.4,1.7-4.1,2.5-5.4c1.9-2.9,7.7-7.5,9.3-10.5c1.3-2.4,2.4-10.4,2.4-10.4s-4.2-4.6-4.4-6.4C33.8,13.2,35.4,4,39.5,3.8
	c3.3-0.2,6.4,7.1,5.8,9.7C44.7,16.3,34.9,21,34.9,21s-12.1,9.6-15,13.4c-2.2,3-5.9,13-5.9,13L4.3,68.6"/>
</svg>
