<?xml version="1.0" encoding="utf-8"?>
<!-- Generator: Adobe Illustrator 24.0.0, SVG Export Plug-In . SVG Version: 6.00 Build 0)  -->
<svg version="1.1" id="Layer_1" xmlns:ev="http://www.w3.org/2001/xml-events"
	 xmlns="http://www.w3.org/2000/svg" xmlns:xlink="http://www.w3.org/1999/xlink" x="0px" y="0px" viewBox="0 0 89.8 178.3"
	 style="enable-background:new 0 0 89.8 178.3;" xml:space="preserve">
<style type="text/css">
	.st0{fill:none;stroke:#000000;stroke-width:1.622;}
</style>
<path class="st0" d="M39.6,147.4c0,6,1.8,24.2,11.2,22.8c20.9-2.9-3.9-39.6-2.6-52.8c0.1-0.8,0.9-2.3,0.8-3.1
	c-0.1-1.3-2.4-3.8-2.4-5.2 M7.9,10.1c0-3.3,15.3-3.3,20.7-3.2c6.3,0.1,17.7,4,23.9,4.6c3.8,0.4,11.8-0.8,15.5,0
	c4.1,0.9,12.2,4.1,13.7,6.6c1.7,2.9-2.2,9.1-3.8,11.9c-1.3,2.3-6.3,6.1-7.1,8.5c-2.8,7.7,8,24.6,1.6,31.4c-2.2,2.3-12.1,3.2-15.3,5
	c-2.2,1.2-5.1,4.4-6.4,6c-0.8,1-1.3,3.3-2.5,4.1C44.5,87.5,28,102.2,28.5,106c0.4,3.3,2.1,9.8,3.6,12.9c1.7,3.7,3.9,12.4,9.4,14.1
	c3.2,0.9,11.5-0.9,13.7-2.6c6.4-4.8,3.2-18.5,4.3-24.7c0.5-2.6-12.1-3.4-15.3-5c-1.7-0.8-0.2-3.9-0.8-5.2c-0.9-2.1-4-5.9-5.8-7.8
	c-0.9-0.9-4.9-13.3-0.9-13c2,0.1-4.8,10.3-7.2,11.6c-3.1,1.6-11.8,5.3-14.9,3.8c-2.4-1.2-0.9-7.1,2.1-7.6
	c4.9-0.7,6.5,10.5,11.5,10.1c18.6-1.5,25.8-31.9,25.8-43.5"/>
</svg>
