<?xml version="1.0" encoding="utf-8"?>
<!-- Generator: Adobe Illustrator 24.0.0, SVG Export Plug-In . SVG Version: 6.00 Build 0)  -->
<svg version="1.1" id="Layer_1" xmlns:ev="http://www.w3.org/2001/xml-events"
	 xmlns="http://www.w3.org/2000/svg" xmlns:xlink="http://www.w3.org/1999/xlink" x="0px" y="0px" viewBox="0 0 104.8 175.7"
	 style="enable-background:new 0 0 104.8 175.7;" xml:space="preserve">
<style type="text/css">
	.st0{fill:none;stroke:#000000;stroke-width:0.9345;}
</style>
<path class="st0" d="M100.1,89.8c0-20-14.2-57.9-20.4-76.6c-0.7-2.1-3.2-8.2-3.2-8.2l-0.7-1.6 M66.3,4.8c0,0,4.4,18.7,5.7,25
	c1,4.7,3,14.2,3.6,19c0.3,2.4,0.6,7.2,0.5,9.7c-0.1,4.6-3,13.7-1.9,18.2c1.2,5,12.5,11.6,10.8,16.4c-0.5,1.4-3.9,1.3-5.1,0.8
	c-0.9-0.3-2-3.6-2.9-3.1c-2,1.1,0.1,7.6,0.5,10.1c0.5,2.7,2,8.1,3.2,10.5c2.1,4.5-2.5,2.3-4.6,0.9c-1-0.7-2.7-3-3.9-3.3
	c-3.8-1.1-12.1,4.7-15.4,2.3c-0.9-0.7-1.6-3.5-1.3-4.7c1.1-5.2,8.8-17.1,13.2-15.2c0.1,0-0.1,0.4,0,0.4c0.6,0.5,2.2-1,2.8-0.6
	c2.2,1.4,2.4,8.1,3.5,10.6c1.4,3.1,6,8.1,6.7,11.5c1.4,6.9-2.2,21-2.8,28.1c-0.3,3.3,1.5,11.3-0.9,13.1c-1.1,0.8-3.5-1.8-4.8-1.9
	c-5.3-0.3-15.4,4.4-20.6,5.6c-5,1.2-15.1,3.1-20,4.3c-7,1.7-22.8,13.2-27.8,7.4c-1.4-1.7,0.8-7.1,1.9-9.1
	c3.2-5.4,18.4-8.6,18.4-15.1"/>
</svg>
