<?xml version="1.0" encoding="utf-8"?>
<!-- Generator: Adobe Illustrator 24.0.0, SVG Export Plug-In . SVG Version: 6.00 Build 0)  -->
<svg version="1.1" id="Layer_1" xmlns:ev="http://www.w3.org/2001/xml-events"
	 xmlns="http://www.w3.org/2000/svg" xmlns:xlink="http://www.w3.org/1999/xlink" x="0px" y="0px" viewBox="0 0 26.5 42"
	 style="enable-background:new 0 0 26.5 42;" xml:space="preserve">
<style type="text/css">
	.st0{fill:none;stroke:#000000;stroke-width:0.8851;}
</style>
<path class="st0" d="M17.7,39.2l-6.9-0.5c0,0-4.1-0.2-4.3-1.6c-0.1-0.7,1.2-1.7,1.8-2c0.7-0.4,2.4-0.1,3.1-0.3
	c1.1-0.3,3.2-1.7,4.3-1.6c1.2,0.1,3.1,2.7,4.2,2.4c1-0.3,2.3-2.6,2.7-3.8c1-2.8,2.5-9.9,0.9-12.1c-0.8-1-4.7,0.1-5.8,0 M4.3,17.5
	c-0.8,0-1.4-2.7-1.3-3.7C3.3,11,7.1,6.7,9,5.2c0.7-0.5,2.2-0.9,3-0.8C14,4.6,17.6,6.7,19.2,8c1.4,1.1,5.4,3.4,5.1,5.5
	c-0.3,1.7-4.3,0.9-5.2,2.2c-0.5,0.7,0.1,3.3-0.6,3.7c-1.7,1.2-5.6-2.4-7.1-3.9c-2.5-2.4-5.6-9.9-8-12.6C3.2,2.8,2.7,2,2.4,2.1
	C1.7,2.5,1.5,4.9,1.7,5.9c0.2,1,1,2,1.8,2.4c1,0.4,1.5,0.2,2.9-0.5"/>
</svg>
