<?xml version="1.0" encoding="utf-8"?>
<!-- Generator: Adobe Illustrator 24.0.0, SVG Export Plug-In . SVG Version: 6.00 Build 0)  -->
<svg version="1.1" id="Layer_1" xmlns:ev="http://www.w3.org/2001/xml-events"
	 xmlns="http://www.w3.org/2000/svg" xmlns:xlink="http://www.w3.org/1999/xlink" x="0px" y="0px" viewBox="0 0 63 103.4"
	 style="enable-background:new 0 0 63 103.4;" xml:space="preserve">
<style type="text/css">
	.st0{fill:none;stroke:#000000;}
</style>
<path class="st0" d="M8.8,3.6c0,0-4.3,14.7-4.5,19.8c-0.1,1.8,1.1,7.3,1.1,7.3s5.7-2.2,7.7-2.7c1.5-0.4,4.6-1.5,6.2-1.2
	c1.7,0.3,5.9,3.3,5.9,3.3s4.5-7.2,5.8-9.7c0.7-1.3,3-4.1,2.4-5.4c-1.2-2.6-9-5-11.1-3C15.7,18,29,47,29,47l4.2,8.3l17.1,1.8
	c0,0,2.5-2.2,3.6-2.3c1.2-0.1,4.3,1.9,4.3,1.9 M9.5,80.8L7.6,73c0,0,11.7,5.6,14.4,8.8c0.6,0.7,1.2,2.5,1.4,3.4
	c0.6,2.7-1.7,9.3,0.5,11c2.4,1.9,9.1-3.2,12-2.1c1.7,0.7,2.7,6.2,4.5,5.8c2.9-0.6,1.3-11.7,1.3-11.7l-3-12.2l-3.4-9.3l-0.6-4.4
	 M59.7,99.9l-8.9-29c0,0-5.1-1.6-6.5-2.6c-2.4-1.7-7.5-9-7.5-9"/>
</svg>
