<?xml version="1.0" encoding="utf-8"?>
<!-- Generator: Adobe Illustrator 24.0.0, SVG Export Plug-In . SVG Version: 6.00 Build 0)  -->
<svg version="1.1" id="Layer_1" xmlns:ev="http://www.w3.org/2001/xml-events"
	 xmlns="http://www.w3.org/2000/svg" xmlns:xlink="http://www.w3.org/1999/xlink" x="0px" y="0px" viewBox="0 0 57.7 98.9"
	 style="enable-background:new 0 0 57.7 98.9;" xml:space="preserve">
<style type="text/css">
	.st0{fill:none;stroke:#000000;}
</style>
<path class="st0" d="M11.4,32c5.2-5.1,22.1-11.2,28-7.1c0.7,0.5,0.6,2.7,0.4,3.6c-0.7,2.7-3.5,8.7-6.2,9.3c-3.8,0.9-9.6-9.1-13.4-8
	c-3.5,1.1-5.6,9.5-6.1,13.1c-0.4,2.3,0.5,7,1.2,9.3c1,3.2,6.1,8.5,6,11.9c-0.1,2.8-4.5,7.2-5.6,9.7c-0.9,2.1-4.9,7.9-2.7,8.6
	 M20.7,49.7c0.2-0.2,0.7-0.6,0.8-0.9c0.2-0.7-0.6-2.1-0.4-2.8c0.7-2.2,5.7-4.5,6.7-6.7c1.5-2.9,1.2-9.8,1.7-13
	c0.1-0.6,0.4-1.9,0.4-2.5c-0.1-1.7-1.4-5-2.1-6.6c-1-2.3-2.3-9.4-4.8-8.9c-2.6,0.4-3,8.1-1.7,10.4c1.4,2.3,10.3,0.5,10.2,3.2
	c-0.1,1.9-2.9,0.2-1.9,1.1c4.8,4.1,3.2,19.2,1.6,25.4c-0.7,2.7-6.5,6.8-6,9.6c0.6,3,8,4.6,9.9,7c1.4,1.8,2.3,6.6,3.3,8.6
	C41,78.6,51,92.2,51,92.2"/>
</svg>
