<?xml version="1.0" encoding="utf-8"?>
<!-- Generator: Adobe Illustrator 24.0.0, SVG Export Plug-In . SVG Version: 6.00 Build 0)  -->
<svg version="1.1" id="Layer_1" xmlns:ev="http://www.w3.org/2001/xml-events"
	 xmlns="http://www.w3.org/2000/svg" xmlns:xlink="http://www.w3.org/1999/xlink" x="0px" y="0px" viewBox="0 0 83.9 202.2"
	 style="enable-background:new 0 0 83.9 202.2;" xml:space="preserve">
<style type="text/css">
	.st0{fill:none;stroke:#000000;}
</style>
<path class="st0" d="M63.9,194.9c0,0-8.5-13.1-9.7-18.1c-2.3-8.9-0.2-27.6-0.2-36.8"/>
<path class="st0" d="M16.9,188.8c5.3-9.3,15.4-15.3,13.3-26.3c-2.9-15-6.6-30.2-4-45c1.7-9.7,10.7-16.1,13-25
	c2.6-10.1-6.1-16.4-5.7-27.7c0.1-3-0.2,1,0,0c0.7-3.9,9.1-7,12.7-4.3c2.3,1.7,2,5,1.8,8.1"/>
<path class="st0" d="M34.5,34.6c0,3.2-3.6,9-4.2,12.2c-0.3,1.5-0.3,4.5-0.4,6c0,1.2-0.1,3.6,0,4.8c0.1,0.9,0.2,2.8,0.7,3.6
	c0.6,0.9,3,1.5,3.8,2.2c1.6,1.5,3.1,6.3,4.9,7.5c1.6,1,5.9,1.8,7.7,1.2c0.3-0.1,0.7-0.6,0.9-0.9c0.7-1.1,1.9-3.5,2.1-4.8
	c0.3-1.8-2.6-6.6-0.9-7.2c2.5-0.9,5.8,6.4,5.8,9.1"/>
<path class="st0" d="M47.9,74.1c0,1.9,2.2,5.3,3.5,6.6c0.8,0.9,3.1,1.8,4.1,2.4c0.8,0.5,3.4,0.9,3.4,1.9"/>
<path class="st0" d="M32.7,5.9c0,2.3,6.4,2.6,8,4.2c1.2,1.2,2.5,4.4,3.4,5.8c0.8,1.2,2.2,3.6,3.2,4.5c1,0.9,4.7,1.5,4.7,2.9"/>
</svg>
