<?xml version="1.0" encoding="utf-8"?>
<!-- Generator: Adobe Illustrator 24.0.0, SVG Export Plug-In . SVG Version: 6.00 Build 0)  -->
<svg version="1.1" id="Layer_1" xmlns:ev="http://www.w3.org/2001/xml-events"
	 xmlns="http://www.w3.org/2000/svg" xmlns:xlink="http://www.w3.org/1999/xlink" x="0px" y="0px" viewBox="0 0 56 77.9"
	 style="enable-background:new 0 0 56 77.9;" xml:space="preserve">
<style type="text/css">
	.st0{fill:none;stroke:#000000;}
</style>
<path class="st0" d="M1.8,41.9c0,0,1.4-2.8,2.2-3.5c2.2-1.9,10.4-4.7,10.4-4.7l-0.5,0.1L17.2,46l3.9,1.9l4.6,3.4
	c0,0,7.7,0.4,9.3-1.3c1.2-1.3,1.3-5.3,0.7-6.9c-0.6-1.6-4.9-4.6-4.9-4.6L30.4,38 M13.5,11.9l2.8-5.9l5.3-4.2c0,0,4.8,10.6,6,14.2
	c0.3,1,0.8,3.2,0.9,4.2c0.3,2.3,0.3,6.9,0.8,9.1c0.2,1,0.6,3,1.3,3.7c2.1,2.1,8.4,3.6,11.4,4c2.7,0.3,9.5,1.2,11-1.1
	c0.9-1.4-2-6.2-2-6.2 M20.6,40.7l-1.4-4.2c0,0,2.6-0.5,3.3-0.1c0.6,0.3,1.4,1.7,1.5,2.4c0.3,1.6-1,6.5-1,6.5l-2.2,5.6
	c0,0,3.9,5.4,5.8,6.4c2.6,1.3,11.4,1.3,11.4,1.3l-0.3-4.6 M7.7,73L7,74.6l10.5-3.3l10.4-7.9"/>
</svg>
