<?xml version="1.0" encoding="utf-8"?>
<!-- Generator: Adobe Illustrator 24.0.0, SVG Export Plug-In . SVG Version: 6.00 Build 0)  -->
<svg version="1.1" id="Layer_1" xmlns:ev="http://www.w3.org/2001/xml-events"
	 xmlns="http://www.w3.org/2000/svg" xmlns:xlink="http://www.w3.org/1999/xlink" x="0px" y="0px" viewBox="0 0 54.4 82.3"
	 style="enable-background:new 0 0 54.4 82.3;" xml:space="preserve">
<style type="text/css">
	.st0{fill:none;stroke:#000000;}
</style>
<path class="st0" d="M24.5,45.5c2.7,1.5,9.5,6.9,7.9,9.6c-0.9,1.4-4.9-1-6.5-1.5c-1.3-0.3-3.9-1.3-5.2-1.6
	C17,51.2,8.3,52.3,5.6,49.6c-1.9-1.9-1.1-8-1.4-10.6C4,36.2,0.8,29.3,3.2,27.7c1.2-0.8,3.6,3.1,5,2.6c1.8-0.6,3.2-4.9,3.2-6.7
	c0-1.7-3.1-4.6-2.9-6.3C9,13.8,15.2,9,17.8,6.6c1.1-1,3.6-3.2,5.1-3.6c2.4-0.7,7.5-0.3,9.9,0.2c3.7,0.8,9.4,7.4,7.9,7.7
	C38,11.3,32.3,9.4,30,10.7c-2.1,1.3-6,6.8-4.5,8.7c2.2,2.8,11-1,13.9-3.1c2.3-1.7,2.8-9.6,5.6-9.9c2.3-0.2,5.6,4.8,6.2,7
	c0.8,2.9-2,8.9-2.6,11.9c-0.6,2.6-0.1,8.9-2.4,10.3c-0.4,0.3-1.5-0.3-2-0.4c-1.1-0.2-3.3-0.8-4.4-0.6c-2.1,0.2-6,3.6-8,3
	c-2-0.5-3.2-6.7-5.3-6.5c-1.7,0.2-2.6,4.4-3.1,6c-0.6,1.8-2,6-0.9,7.5c0.5,0.7,2.6,1.2,3.3,0.8 M34.1,80.1c0,0-9.6-22.2-25.4-22.2"
	/>
</svg>
