<?xml version="1.0" encoding="utf-8"?>
<!-- Generator: Adobe Illustrator 24.0.0, SVG Export Plug-In . SVG Version: 6.00 Build 0)  -->
<svg version="1.1" id="Layer_1" xmlns:ev="http://www.w3.org/2001/xml-events"
	 xmlns="http://www.w3.org/2000/svg" xmlns:xlink="http://www.w3.org/1999/xlink" x="0px" y="0px" viewBox="0 0 67.4 124"
	 style="enable-background:new 0 0 67.4 124;" xml:space="preserve">
<style type="text/css">
	.st0{fill:none;stroke:#000000;}
</style>
<path class="st0" d="M42.8,84.5L10.4,121 M38.9,68.5l6-8.3l7.4,1.6l-2,4.8l-2.4,9.6 M29.5,24.2c0,0-15.2,8.4-19.2,12.6
	c-1.8,1.9-5.1,6.5-5.4,9.1c-0.1,1.9,2.6,5.2,2.8,7.1c0.2,2.3-1.6,8.9-1.6,8.9 M35.1,83.3l-2.8-2c0,0-0.4-9.9-0.1-13.3
	c0.3-4.1,2.5-12.1,2.5-16.2C34.5,44.1,30.4,29,29,21.5c-0.6-2.9-3.4-9-2.3-11.8c0.9-2.2,5.5-5.6,7.9-5.4c2.3,0.2,6,4.1,6.6,6.2
	c0.6,2.1-1.1,6.6-2.3,8.3c-1.6,2.3-9.2,6.4-9.2,6.4l5.8,3.3c0,0,2.3,2.4,3.3,2.9c2.2,1.2,7.5,1.4,9.8,2.4c3,1.2,8.2,5.6,11.3,6.8
	c1.1,0.4,4.5,1,4.5,1"/>
</svg>
