<?xml version="1.0" encoding="utf-8"?>
<!-- Generator: Adobe Illustrator 24.0.0, SVG Export Plug-In . SVG Version: 6.00 Build 0)  -->
<svg version="1.1" id="Layer_1" xmlns:ev="http://www.w3.org/2001/xml-events"
	 xmlns="http://www.w3.org/2000/svg" xmlns:xlink="http://www.w3.org/1999/xlink" x="0px" y="0px" viewBox="0 0 71.9 79.1"
	 style="enable-background:new 0 0 71.9 79.1;" xml:space="preserve">
<style type="text/css">
	.st0{fill:none;stroke:#000000;stroke-width:1.0691;}
</style>
<path class="st0" d="M12.2,3.3l2.1,3.3l3.6,0.6c0,0,3.3,6.3,4.4,8.5c0.7,1.5,3.1,4.5,2.8,6.2c-0.1,0.9-1.6,1.9-2.2,2.5
	c-1.1,1.1-4.5,4-4.5,4s7,5.7,9.7,6c2.2,0.2,8.3-3.1,8.3-3.1"/>
<path class="st0" d="M3.5,74.2l3.9-15.4c0,0,16.7-3.7,21.8-6.5c1.3-0.7,3.6-2.6,4.4-3.9c0.8-1.5,1.5-6.8,1.5-6.8l-0.4,4.2
	c0,0,2.4,5.9,2.7,8c0.3,1.5,0.2,4.7,0.1,6.3c-0.1,2-1,8-1,8s3.9,4.5,5.5,5.3c2.5,1.3,10.7,1.7,10.7,1.7l0.6-5.4"/>
<path class="st0" d="M35.5,35.2l11.2,2.6c0,0,0.4,2.2,0.5,2.9c0.4,1.7,1.5,5,1.6,6.8c0.1,1.2-1,3.8-0.5,4.9c0.4,1,2.2,2.4,3.1,2.7
	c2.6,1,8.5,1.2,11.1,0.1c2-0.8,6.5-6,6.5-6l-9.7-8.1"/>
<path class="st0" d="M37.9,16.1c0-1.6,3.7-2.4,5.1-2.2c1.6,0.2,4.8,2.5,5.4,4.3c0.5,1.5-0.5,5.1-1.4,6.4c-0.9,1.4-3.9,3.5-5.4,3.5
	c-1.2,0-3.6-1.8-4-3.1c-0.4-1.2,1.1-3.8,1.1-5.1"/>
</svg>
