<?xml version="1.0" encoding="utf-8"?>
<!-- Generator: Adobe Illustrator 24.0.0, SVG Export Plug-In . SVG Version: 6.00 Build 0)  -->
<svg version="1.1" id="Layer_1" xmlns:ev="http://www.w3.org/2001/xml-events"
	 xmlns="http://www.w3.org/2000/svg" xmlns:xlink="http://www.w3.org/1999/xlink" x="0px" y="0px" viewBox="0 0 57.3 112.2"
	 style="enable-background:new 0 0 57.3 112.2;" xml:space="preserve">
<style type="text/css">
	.st0{fill:none;stroke:#000000;}
</style>
<path class="st0" d="M48.2,72.9l4-0.6c0,0-3.9-4.5-5.8-4.7c-5.5-0.5-19.3,10.7-19.3,10.7l-7.8-3.6l9-6.1l0.7-6.9L27.1,55
	c0,0,3-4.4,3.1-6.1c0-0.8-0.6-2.3-1.2-2.8c-0.6-0.4-2.1-0.5-2.8-0.4c-0.7,0.1-2.3,0.8-2.5,1.4c-0.4,1.6,3.4,5.7,3.4,5.7
	s14.2,2,18.6,0.4c2.4-0.9,6.2-4.7,7.3-7c1.2-2.4,1.7-7.9,1.1-10.5c-1.2-5.5-7.4-15.5-11.3-19.5c-2.1-2.1-10.1-6.1-10.1-6.1l1.8-6.2
	 M23.5,71.6L18.9,70l1-2.1c0,0-2-3.2-2-4.5c0-1.5,2.9-3.8,2.7-5.3c-0.1-1.5-2.3-3.9-3.6-4.6C14.1,52,3.9,53,3.9,53l0,6 M17.7,80.5
	l26.4,25.3l-5.5,2.1"/>
</svg>
