<?xml version="1.0" encoding="utf-8"?>
<!-- Generator: Adobe Illustrator 24.0.0, SVG Export Plug-In . SVG Version: 6.00 Build 0)  -->
<svg version="1.1" id="Layer_1" xmlns:ev="http://www.w3.org/2001/xml-events"
	 xmlns="http://www.w3.org/2000/svg" xmlns:xlink="http://www.w3.org/1999/xlink" x="0px" y="0px" viewBox="0 0 73.3 153.1"
	 style="enable-background:new 0 0 73.3 153.1;" xml:space="preserve">
<style type="text/css">
	.st0{fill:none;stroke:#000000;}
</style>
<path class="st0" d="M36.1,92.8l-19.6,1.4 M67.6,123.6l-13.9,1.6l5.6,22.9 M4.5,43.5L8.7,53c0,0,4.3-5.5,4.5-7.8
	c0.3-3.1-4-8.6-4.5-11.6C8.3,31,7.9,25.3,9.2,23.1c1.5-2.6,7.6-4.9,10.5-5.8c4.6-1.6,14.3-3.3,19.2-3c4.5,0.3,12.8,4,17.1,5.2
	c2.5,0.7,7.6,3.6,9.9,2.5c0.9-0.5,1.3-2.8,1.6-3.7c0.5-1.6,2.1-4.7,1.8-6.3c-0.3-1.6-2.7-4.1-4-5.1C63.7,5.6,59.9,4,58,4.2
	c-2.4,0.3-6.1,4.1-8.3,5.2c-1.6,0.8-5.5,0.9-6.5,2.4c-0.6,0.9,0.4,3.2,0.1,4.1c-0.7,2.1-3.7,5.5-5.4,6.8c-1.8,1.3-6.6,1.5-8.2,3
	c-1.1,1-2.3,3.8-2.6,5.2c-0.3,1.2-0.7,4,0.1,5c1.4,1.9,7,1.6,9,2.8c2.3,1.5,6.3,5.5,7.3,8c0.9,2.5,0.3,8.2-0.2,10.8
	c-0.3,1.8-1.8,5.3-2.6,7c-1,2.1-4,5.9-4.6,8.1c-0.6,2.3,0.1,9.4,0.1,9.4l0.4,9.1c0,0-3.5,11.4-4,15.3c-0.4,3.1-0.7,9.6-0.1,12.7
	c0.5,2.1,2.2,6.1,3.6,7.8c0.9,1.1,3.4,2.9,4.8,3.4c3.1,1.2,13.2,1.9,13.2,1.9l1.5,1.1"/>
</svg>
