<?xml version="1.0" encoding="utf-8"?>
<!-- Generator: Adobe Illustrator 24.0.0, SVG Export Plug-In . SVG Version: 6.00 Build 0)  -->
<svg version="1.1" id="Layer_1" xmlns:ev="http://www.w3.org/2001/xml-events"
	 xmlns="http://www.w3.org/2000/svg" xmlns:xlink="http://www.w3.org/1999/xlink" x="0px" y="0px" viewBox="0 0 83.5 232.8"
	 style="enable-background:new 0 0 83.5 232.8;" xml:space="preserve">
<style type="text/css">
	.st0{fill:none;stroke:#000000;stroke-width:2.2398;}
</style>
<path class="st0" d="M6.2,5.1c0,2.4,2.4,7.3,4.5,8.6c6.1,3.9,22.3-0.3,29.3,1.9c2.5,0.8,8.8,2.8,8.7,5.3
	c-0.2,6.6-22.5,6.4-23.9,12.8c-1.2,5.2,0.1,13.8,4.3,17.3C32,53.3,44,70.8,45.8,72.6c5.3,5.3,24.1-3.9,28.9-9.6
	c2.4-2.9,3.1-11.4,1.6-14.9c-2.3-5.4-13-17-18.6-14.9c-5.2,2-2.3,16.1-2.3,21.5c-0.1,4.8,1.8,14.5,1.5,19.3
	c-0.5,8.6-4.1,25.7-6.6,34c-1,3.4-4.2,9.7-5.4,13c-4.3,11.8-24,38.6-15.2,47.8c1.2,1.3,5.2-1.7,7-1.4c3.2,0.6,8.6,4.6,10.9,6.7
	c0.9,0.9,2,3.4,3,4.2c1.4,1.1,7.2,1,6.8,2.7c-1.9,7.8-26.7-6.7-33.3-1.8c-10.2,7.4-10.6,48-10.6,48"/>
</svg>
