<?xml version="1.0" encoding="utf-8"?>
<!-- Generator: Adobe Illustrator 24.0.0, SVG Export Plug-In . SVG Version: 6.00 Build 0)  -->
<svg version="1.1" id="Layer_1" xmlns:ev="http://www.w3.org/2001/xml-events"
	 xmlns="http://www.w3.org/2000/svg" xmlns:xlink="http://www.w3.org/1999/xlink" x="0px" y="0px" viewBox="0 0 48.3 63.3"
	 style="enable-background:new 0 0 48.3 63.3;" xml:space="preserve">
<style type="text/css">
	.st0{fill:none;stroke:#000000;}
</style>
<path class="st0" d="M45,15.8c0,0-10.3-4.9-11.5-8.2c-0.3-0.8,0.4-2.4,0.8-3.1c0.2-0.4,1.6-1.2,1.3-1.5c-1.3-1.2-3.4,4.4-5,5
	c-3,1.1-9.8-1.3-13-0.8c-3,0.5-10.2,1.7-11.4,4.5C3.5,17.9,14.9,30,16.6,36.6c0.8,3,3.2,9.6,1.5,12.2c-0.2,0.3-1,0.1-1.2,0.3
	c-2.2,2.1-0.9,10.6-3.8,11.6c-0.4,0.1-1.3-0.6-1.5-1c-0.6-1.9,1.3-6.2,2.6-7.8c2.1-2.5,8.2-6.7,11.5-6.3c3.5,0.5,7.6,7.5,10.3,9.7
	c1.1,0.9,3.5,3.9,4.6,3.1c0.5-0.3-0.4-1.7-0.6-2.2c-0.4-1.5-1.7-4.3-1.9-5.8c-0.3-2,0.8-6.2,0.4-8.2c-0.4-2.2-2.6-6.3-3.9-8.2
	c-0.8-1.2-3.5-2.9-4.1-4.2c-0.4-1-0.2-3.1,0-4.1c0.3-1.4,1.7-3.8,2.2-5.2c0.4-1.1,2-3.7,1.2-4.6c-0.8-0.9-3.8-0.2-4.7,0.4
	c-0.8,0.5-1.9,2.4-1.7,3.3c0.2,0.9,3,1,3,1.9"/>
</svg>
