<?xml version="1.0" encoding="utf-8"?>
<!-- Generator: Adobe Illustrator 24.0.0, SVG Export Plug-In . SVG Version: 6.00 Build 0)  -->
<svg version="1.1" id="Layer_1" xmlns:ev="http://www.w3.org/2001/xml-events"
	 xmlns="http://www.w3.org/2000/svg" xmlns:xlink="http://www.w3.org/1999/xlink" x="0px" y="0px" viewBox="0 0 49 89.3"
	 style="enable-background:new 0 0 49 89.3;" xml:space="preserve">
<style type="text/css">
	.st0{fill:none;stroke:#000000;}
</style>
<path class="st0" d="M3.4,6.4l7.9,8.7l8.7,1.6l1.6-4.3l9.4,12.9c0,0-5.8,0.5-7.4,1.5c-3.8,2.3-8.5,10.3-10.9,14.1
	c-2,3.1-6.8,13-6.8,13s1.2,1,1.7,1.1c1.5,0.5,4.7,0.3,6.2,0.2c1.9-0.2,5.8-1,7.6-1.7c1.7-0.6,6.2-3.4,6.2-3.4l-4.8-5.1 M11.5,19.6
	l1.5-5.9c0,0,2.6-5.3,3-7.3c0.1-0.8,0.6-2.6-0.1-3.1c-1.4-1-5.4,0.8-6.3,2.2C9,6.5,9.3,9,10,9.7c2.9,2.9,15.8,4.3,15.8,4.3l1.2,17.8
	 M32,28.2c0,0-0.4,2.7-0.5,3.6c-0.2,2-0.4,8.1-0.4,8.1l12.4,2.5l-3,42.4"/>
</svg>
