<?xml version="1.0" encoding="utf-8"?>
<!-- Generator: Adobe Illustrator 24.0.0, SVG Export Plug-In . SVG Version: 6.00 Build 0)  -->
<svg version="1.1" id="Layer_1" xmlns:ev="http://www.w3.org/2001/xml-events"
	 xmlns="http://www.w3.org/2000/svg" xmlns:xlink="http://www.w3.org/1999/xlink" x="0px" y="0px" viewBox="0 0 65 106.3"
	 style="enable-background:new 0 0 65 106.3;" xml:space="preserve">
<style type="text/css">
	.st0{fill:none;stroke:#000000;}
</style>
<path class="st0" d="M50.9,24.7L45,20.9l9.6,1.2l6.5-0.8L47.9,40.6L13.9,94.4c0,0,13,6.7,17.8,7.5c2.2,0.4,7.2,0.6,9.1-0.6
	c1.4-0.9,2.8-4.1,3.3-5.7c0.8-2.5,1-7.8,0.7-10.3c-0.6-4.4-2.9-13.7-6.1-16.7c-1.7-1.6-9-2.8-9-2.8s-2-24.3-7-30.3
	c-1.5-1.8-7.9-1.4-8.7-3.6c-1.1-2.8,4.3-8,4.7-11c0.3-2.1-0.2-6.5-1-8.5c-0.7-1.8-3-5.2-4.7-6.2c-1.2-0.8-4.4-1.9-5.6-1.1
	c-2.1,1.4-3.4,7.6-2.2,9.8c1.4,2.6,8.2,3.6,11.1,4.1c3.1,0.5,2.5-0.7,12.5-0.2c7.5,0.4,25.9,15.8,20.6,29.1c-1.2,2.9-5.5,5-7.5,5.6
	 M9.4,28.5c0,2.5-1,11.1-0.1,13.5c0.7,1.9,4.2,4.6,5.2,6.3c1.4,2.5,4.1,8.1,3.7,10.9c-0.4,2.8-6.3,9.5-6.3,9.5l-8.4-0.3l1.3-0.1"/>
</svg>
