<?xml version="1.0" encoding="utf-8"?>
<!-- Generator: Adobe Illustrator 24.0.0, SVG Export Plug-In . SVG Version: 6.00 Build 0)  -->
<svg version="1.1" id="Layer_1" xmlns:ev="http://www.w3.org/2001/xml-events"
	 xmlns="http://www.w3.org/2000/svg" xmlns:xlink="http://www.w3.org/1999/xlink" x="0px" y="0px" viewBox="0 0 93.3 278.9"
	 style="enable-background:new 0 0 93.3 278.9;" xml:space="preserve">
<style type="text/css">
	.st0{fill:none;stroke:#000000;}
</style>
<path class="st0" d="M8.2,273.4c0,0,22.4-20.7,25.3-30.1c4.6-14.5-9.6-45.9-5.5-60.6c3.8-13.9,31.2-32.3,34-46.5
	c2.2-11-17.3-34.5-10.6-43.5c1-1.4,5.3,0.5,6.8-0.3c2.7-1.4,4.7-8.3,7.5-9.6c1.7-0.8,5.6,0,7.5,0.2c1.5,0.2,4.4,0.7,5.8,1.2
	c0.9,0.4,3.4,1.1,3.4,2.1c0,1.6-3.9,2.9-5.4,3.7c-1.9,1.1-5.7,3.7-7.9,3.6c-2-0.1-5.3-2.9-6.9-4.1c-1.7-1.3-5.4-4.1-6.1-6.1
	c-0.7-2.1,1.4-6.6,1.4-8.8 M54.8,21.3c0-1.9-5.1-3.2-7-2.9c-0.7,0.1-1.8,1.3-2.2,1.9c-0.8,1.2-1.4,3.9-1.5,5.3
	c-0.1,1.6,0.4,4.8,0.7,6.4c0.3,1.5,0.9,4.7,1.8,6c1.2,1.6,4.7,3.8,6.5,4.6c1.8,0.9,5.8,1.9,7.8,2c2.1,0.1,6.2-0.5,8.2-1.1
	c1.7-0.5,4.9-2,6.2-3.1c1.4-1.2,3.9-4.3,4.5-6.1c0.6-2,0.4-6.4-0.3-8.4c-0.8-2.6-4.1-7.1-6.1-9c-2.1-1.9-7.4-4.4-9.9-5.7
	c-2.2-1.1-8.9-1.2-8.9-3.6"/>
</svg>
