<?xml version="1.0" encoding="utf-8"?>
<!-- Generator: Adobe Illustrator 24.0.0, SVG Export Plug-In . SVG Version: 6.00 Build 0)  -->
<svg version="1.1" id="Layer_1" xmlns:ev="http://www.w3.org/2001/xml-events"
	 xmlns="http://www.w3.org/2000/svg" xmlns:xlink="http://www.w3.org/1999/xlink" x="0px" y="0px" viewBox="0 0 65.9 130.4"
	 style="enable-background:new 0 0 65.9 130.4;" xml:space="preserve">
<style type="text/css">
	.st0{fill:none;stroke:#000000;}
</style>
<path class="st0" d="M3.6,116l9.6-1.3c0,0,0-6,1-7.7c0.6-1,2.9-1.9,3.8-2.6c2.5-1.9,7.8-5.4,9.6-8c3.3-4.8,7.1-22.3,7.1-22.3
	l17.3-6.6l3.3-1.1c0,0,3.4-17.5,2.7-23.3c-0.4-4.1-5.4-15.5-5.4-15.5 M23.5,56l-5.7-7.7c0,0,5.1,0.2,6.8-0.2
	c3.7-0.9,10.9-4,13.9-6.4c2.3-1.8,6.6-6.4,7.1-9.3c0.3-1.5-0.9-4.6-1.6-6c-1.1-1.9-6.1-6.3-6.1-6.3s3.6-7.4,5.5-9.3
	c1.4-1.5,4.9-4.2,6.9-4.3c2.1-0.2,5.8,2.2,7.6,3.3c1,0.6,3.4,1.8,3.6,2.9c0.4,3.7-5.6,10.6-9.2,11.6c-1.7,0.5-5.2-1.7-6.8-2.5
	c-1.4-0.7-5.3-3.4-5.3-3.4L23.5,3.7l-9.3,7.7l6.3-0.1l2.8,4.7l-1-1.2 M46.7,124.7l11.2-1.2c0,0-0.2-2.5-0.6-3.2
	c-1.1-1.8-5-4.1-6.9-5c-2.8-1.4-11.9-3.4-11.9-3.4l15.8-41"/>
</svg>
