<?xml version="1.0" encoding="utf-8"?>
<!-- Generator: Adobe Illustrator 24.0.0, SVG Export Plug-In . SVG Version: 6.00 Build 0)  -->
<svg version="1.1" id="Layer_1" xmlns:ev="http://www.w3.org/2001/xml-events"
	 xmlns="http://www.w3.org/2000/svg" xmlns:xlink="http://www.w3.org/1999/xlink" x="0px" y="0px" viewBox="0 0 91.9 146.6"
	 style="enable-background:new 0 0 91.9 146.6;" xml:space="preserve">
<style type="text/css">
	.st0{fill:none;stroke:#000000;}
</style>
<path class="st0" d="M72.5,93.2C75.2,82.2,71.6,62,74.3,51 M65.8,78.3c-0.6,2.4,4.9,5.8,7.2,6.7c0.9,0.4,3.1-0.3,4,0.2
	c4.9,2.9,4.4,7.7,4.9,9.6c1.4,4.7-4.2,13.9-5.9,18.5c-2.1,5.6-5.9,17.2-9.4,22c-1.4,1.9-5.1,7.4-7.1,6.2c-1.4-0.8,1.3-4.8,1.5-6.4
	c0.5-3.9-0.3-11.8,0.1-15.7c0.2-1.9,2.3-5.6,1.6-7.3c-1.1-2.8-8.5-4.2-10-6.8c-0.7-1.2-0.8-4.2-0.3-5.5c0.5-1.4,1.5-7.8,6.9-6.8
	c8.8,1.5,16.9,8.2,15.9,12.3c-0.7,3.2-10.2-2.7-13-1c-1.5,0.9-1.3,5.5-2.9,6.3c-3.7,1.7-13.5-1.1-15.4-4.7
	c-1.4-2.4,2.5-7.9,2.8-10.7c0.3-2.6-0.3-7.9-0.5-10.5c-0.5-5.5-2.8-16.5-2.8-22c0-4.6,0.3-14.2,2.7-18.2
	c3.4-5.6,16.6-10.7,21.3-15.3c5.5-5.4,24.2-19.7,18.3-24.7c-0.4-0.4-1.2,1.3-1.7,1.7c-2.1,1.5-7.1,3.3-9.4,4.6
	c-3.2,1.8-9.2,6.2-12.5,8.1c-0.4,0.2-1.3,0.7-1.8,0.9c-4.2,1.8-14.2,3.2-17.3,6.7c-2.2,2.5-0.3,12-3.5,12.9C28,42.5,4.9,5.8,4.9,5.8
	"/>
</svg>
