<?xml version="1.0" encoding="utf-8"?>
<!-- Generator: Adobe Illustrator 24.0.0, SVG Export Plug-In . SVG Version: 6.00 Build 0)  -->
<svg version="1.1" id="Layer_1" xmlns:ev="http://www.w3.org/2001/xml-events"
	 xmlns="http://www.w3.org/2000/svg" xmlns:xlink="http://www.w3.org/1999/xlink" x="0px" y="0px" viewBox="0 0 77.9 107.1"
	 style="enable-background:new 0 0 77.9 107.1;" xml:space="preserve">
<style type="text/css">
	.st0{fill:none;stroke:#000000;}
</style>
<path class="st0" d="M12.1,3.1c5,8.4,10.3,27.6,12.1,37.2C26.4,51.7,27,86.5,27,86.5s13.5,6.6,14,11c0.2,1.4-2.2,3.8-3.5,4.5
	c-1.4,0.8-4.8,1-6.3,0.6c-3-0.9-9.9-7.7-9.9-7.7 M14,94.3l1-3.7c0,0-2.9-2.2-3.9-2.9c-1.8-1.2-7.8-2.5-7.5-4.6
	c0.1-0.8,2.5-0.7,3.4-0.8c3-0.3,11.9,0.5,11.9,0.5l11.3-0.5c0,0,5.3-0.3,7-0.7c3.2-0.7,9.1-3.6,12.2-4.2c2.2-0.4,7.1,0.6,9.1-0.5
	c1.8-1.1,3.2-5.6,4.6-7.2c2.3-2.6,11.8-5.4,10.7-8.6c-1.6-5.2-17,1.2-21.7-1.5c-1.7-1-3.6-4.7-4.2-6.6c-0.4-1.2-0.4-3.8-0.6-5
	c-0.3-2.2,0.2-7-1.3-8.7c-1.3-1.6-6.5-0.9-7.8-2.5c-2.4-2.7-4.3-11.2-2.4-14.3c0.6-1,3.2-1.4,4.4-1.4c0.8,0,2.2,0.8,2.8,1.2
	c0.6,0.4,2.1,1.2,2.2,1.9c0.3,1.1-1,3.4-1.6,4.4c-1.2,2.4-5.1,6.3-5.7,8.9c-0.5,2.3,1.2,7,1.4,9.3c0.2,2.4,0.6,7.4,0.2,9.8
	c-0.2,1.5-2.8,4.5-1.8,5.6c2.6,3.1,13.8,1,16.1-2.3c0.5-0.7-0.9-2.4-0.7-3.2c1.2-6.3,18-15.7,14.7-21.3"/>
</svg>
