<?xml version="1.0" encoding="utf-8"?>
<!-- Generator: Adobe Illustrator 24.0.0, SVG Export Plug-In . SVG Version: 6.00 Build 0)  -->
<svg version="1.1" id="Layer_1" xmlns:ev="http://www.w3.org/2001/xml-events"
	 xmlns="http://www.w3.org/2000/svg" xmlns:xlink="http://www.w3.org/1999/xlink" x="0px" y="0px" viewBox="0 0 99.7 187.6"
	 style="enable-background:new 0 0 99.7 187.6;" xml:space="preserve">
<style type="text/css">
	.st0{fill:none;stroke:#000000;stroke-width:0.7802;}
</style>
<path class="st0" d="M20.9,143.7l-14.5,1c0,0,5,8.9,7.9,10.3c7.1,3.5,25.4,0,31.1,5.5c2.4,2.3-0.4,12.1,2.8,13.1
	c1.8,0.6,3.8-5.5,5.7-5.1c1.4,0.3,1.1,4.5,2.3,5.3c1.2,0.8,4.5-0.3,5.9,0c3.2,0.5,10.7,1.4,12.2,4.3c0.4,0.8-1.6,3.1-0.8,3.4
	c1.8,0.7,3-5.1,4-6.9c2.2-4.1,5.7-12.9,8.7-16.5c0.6-0.7,2-1.9,2.9-2.3c0.6-0.3,2.1,0.1,2.5-0.4c1.9-2.1,0.7-11.4,0.7-11.4
	s0-15-2.1-19.4c-0.7-1.4-2.8-3.9-4.3-4.2c-1-0.2-2.9,1.7-3.9,1.5c-1-0.3-2.1-2.2-2.7-3.1c-1.6-2.4-3.4-8-4.9-10.5
	c-2.2-3.7-7.3-10.6-10.3-13.7c-2.2-2.3-7.4-6.1-9.8-8.2c-2.5-2.2-6.7-8.5-10-9c-3.4-0.6-10.9,2.6-12.8,5.5c-0.5,0.8-0.2,2.9,0.1,3.8
	c1.5,5.3,6,19.1,11.6,18.9c3.3-0.1,5.2-8.7,6-12c0.7-2.8,0.1-8.7,0.1-11.6c0.1-4.3-0.4-13.1,0.3-17.3c0.4-2.8,2.5-8.2,3.1-11
	c0.6-3.5-0.2-11,1.2-14.2c1-2.3,5.2-5.4,7-7.2c5.5-5.1,23-19.4,23-19.4s-10.9-6.3-15-6.8C63,5.6,46,10.6,46,10.6"/>
</svg>
