<?xml version="1.0" encoding="utf-8"?>
<!-- Generator: Adobe Illustrator 24.0.0, SVG Export Plug-In . SVG Version: 6.00 Build 0)  -->
<svg version="1.1" id="Layer_1" xmlns:ev="http://www.w3.org/2001/xml-events"
	 xmlns="http://www.w3.org/2000/svg" xmlns:xlink="http://www.w3.org/1999/xlink" x="0px" y="0px" viewBox="0 0 119.4 180.5"
	 style="enable-background:new 0 0 119.4 180.5;" xml:space="preserve">
<style type="text/css">
	.st0{fill:none;stroke:#000000;}
</style>
<path class="st0" d="M4.9,174.2c0,0,39.9-27.7,50.2-39.9c1.1-1.4,2.8-4.5,3.4-6.2c6.9-19.3,11.1-61.3,8.5-81.7
	c-0.1-0.5-0.8-1.3-0.6-1.7c0.8-2.1,6.1-5.3,8.1-4.2c1.6,0.8,0.6,5.3,1.2,7c0.5,1.6,1.7,5,3.1,5.9c1.6,1,7.3,0.7,7.3,0.7s5.1-6.1,7-8
	c1.2-1.2,3.5-4.2,5.2-4.4c2.2-0.3,6.8,1.8,8.2,3.5c1.9,2.1,2.2,8.2,3.1,10.9c0.9,3,5.2,8.7,4.2,11.7c-0.7,1.9-5,3.7-6.9,4.4
	c-1.9,0.7-6.1,1.1-8.1,1c-1.9-0.1-7.4-1.7-7.4-1.7l-2.6-4.2l-1.6-6.9l-1.1-6.4c0,0-11.7,5-14,8.4c-1.2,1.9-1.1,6.7-1.3,8.9
	c-0.1,1.1,0,4.4,0,4.4L97.2,121L70.8,75.8l-3.6-1.7c0,0-5.4-1.7-7.3-2.1c-2.7-0.7-8.4-1.7-10.7-3.3c-2.6-1.7-6.2-7-8-9.6
	c-2.7-4-7.3-12.4-9.1-16.8c-1.5-3.7-2.3-11.9-4.2-15.4c-1.6-2.9-8.8-10-8.8-10L13.5,5.8"/>
</svg>
