<?xml version="1.0" encoding="utf-8"?>
<!-- Generator: Adobe Illustrator 24.0.0, SVG Export Plug-In . SVG Version: 6.00 Build 0)  -->
<svg version="1.1" id="Layer_1" xmlns:ev="http://www.w3.org/2001/xml-events"
	 xmlns="http://www.w3.org/2000/svg" xmlns:xlink="http://www.w3.org/1999/xlink" x="0px" y="0px" viewBox="0 0 65.9 92.2"
	 style="enable-background:new 0 0 65.9 92.2;" xml:space="preserve">
<style type="text/css">
	.st0{fill:none;stroke:#000000;}
</style>
<path class="st0" d="M5.6,5.9c0,0.9,1.9,2.4,1.7,3.3c-0.1,0.4-0.9,0.7-1.2,1C5.5,10.6,4,11,3.7,11.6c-0.2,0.5,0.4,1.8,0.7,2.2
	c2,3,11.3,5.5,11.3,9.2 M8,54.2c0,2.2-5.8,6.2-4.2,7.8c0.9,0.8,3.3-1.6,4.2-2.4c0.5-0.5,1.1-1.8,1.6-2.2c1.9-1.7,8-2.7,8.9-5.1
	c1.6-4.1-6.4-12.8-5-17c1.9-5.9,21.5-9.2,19.5-15.1c-0.5-1.4-4.8,1-5.8-0.1c-0.9-0.9-0.2-3.9,0.3-5.1C29,11.5,35,2.1,38.4,4
	C42.2,6.2,34,16.7,34,21c0,2.2,1.1,6.7,2.4,8.5c1.7,2.3,8.1,3.9,9.4,6.5c1,1.8,0.2,6.1,0.1,8.2c0,1.4-1.1,4.5-0.4,5.7
	c0.9,1.4,5.8,1,6.1,2.6c0.2,1-2.3,2.1-2.7,3c-0.6,1.4-0.1,4.7-0.9,6c-1,1.7-6.6,2.8-6.5,4.8c0.1,1,2.5,1.8,3.5,2.1
	c3,0.7,9.3-0.2,12.2-0.9c1.2-0.3,4.4-0.7,4.6-1.9c0.2-2-6.7-2.5-6.7-4.5 M10.9,88.2l0.7-1.3c0,0,2.5-3.4,3.5-4.3
	c2.6-2.5,11.3-5.2,11.3-8.8"/>
</svg>
