<?xml version="1.0" encoding="utf-8"?>
<!-- Generator: Adobe Illustrator 24.0.0, SVG Export Plug-In . SVG Version: 6.00 Build 0)  -->
<svg version="1.1" id="Layer_1" xmlns:ev="http://www.w3.org/2001/xml-events"
	 xmlns="http://www.w3.org/2000/svg" xmlns:xlink="http://www.w3.org/1999/xlink" x="0px" y="0px" viewBox="0 0 105.3 198.3"
	 style="enable-background:new 0 0 105.3 198.3;" xml:space="preserve">
<style type="text/css">
	.st0{fill:none;stroke:#000000;}
</style>
<path class="st0" d="M4.7,182.4l8.8-9.6l4.6,14.5l7.1,6.1l5.2-5.2l6.8-11.7l5.4-22l-6.1-25.7c0,0-2.8-8.2-4.8-10.3
	c-1.1-1.1-4.7-1.7-5.6-3c-1-1.6-0.4-5.7-0.5-7.5c-0.1-3-1.1-9.2-0.4-12.2c1.3-5.4,11-19.3,11-19.3L37,62.6c0,0-3.9-6.3-5.7-7.9
	c-2.3-2.1-7.5-6.1-10.6-6.5c-1.4-0.2-4.2,1-5.5,1.7c-0.9,0.5-2.4,1.8-3,2.6c-1.3,1.7-4,7.7-4,7.7s6.8,4.9,9.4,5.4
	c2.7,0.5,10.8-1.2,10.8-1.2l5.1,11.9l3.4,6.5l-2.8,6.8c0,0,4.2-0.1,5.3,0.7c3.6,2.4,7.8,10.7,8.4,14.9c0.8,5.6-1,17.9-4.9,22.1
	c-1.1,1.2-6,2.5-6,2.5s-5.4,0-6.4,1.2c-0.7,0.8-1.1,3.8-0.2,4.5c1.4,1,6.6-2.4,6.6-2.4s5.3-1,6.9-1.7c2.2-0.8,8.3-4.2,8.3-4.2
	s-1-25.6,0.8-33.9c1.3-6,7.1-17.1,9.8-22.7c7-14.7,20.9-44.6,30.4-57.8c1.4-2,6.6-7,6.6-7"/>
</svg>
