<?xml version="1.0" encoding="utf-8"?>
<!-- Generator: Adobe Illustrator 24.0.0, SVG Export Plug-In . SVG Version: 6.00 Build 0)  -->
<svg version="1.1" id="Layer_1" xmlns:ev="http://www.w3.org/2001/xml-events"
	 xmlns="http://www.w3.org/2000/svg" xmlns:xlink="http://www.w3.org/1999/xlink" x="0px" y="0px" viewBox="0 0 85.1 135.6"
	 style="enable-background:new 0 0 85.1 135.6;" xml:space="preserve">
<style type="text/css">
	.st0{fill:none;stroke:#000000;}
</style>
<path class="st0" d="M3.9,132.4l36-31.2l14.4-31.3 M59.5,74.1c0,0,10.5-8.5,11.7-12.6c0.6-1.9-3.2-6.9-1.4-7.8c2.5-1.3,6.6,5.6,8,8
	c1.6,2.8,2.6,9.3,2.9,12.5c0.3,2.8,0.7,8.7-0.3,11.3c-0.7,2.1-3.2,7.3-5.4,7.2c-1.3-0.1-1.7-3.4-2.5-4.4c-2.1-2.8-9.7-9.9-9.7-9.9
	l-5.4-4.6L52.8,68c0,0-4.2-5.6-4.6-7.9c-0.4-2.7,1.9-8.1,2.7-10.7c1.1-3.9,5.4-11.2,5.2-15.3c-0.2-4.3-3.7-12.9-6.8-15.9
	c-2.7-2.7-10.4-5.6-14.3-5.6c-2.5,0-9.4,3.8-9.4,3.8s-7.3,7.2-8.8,10.2c-0.9,1.9-3.3,7-1.5,8.2c2.3,1.5,7.6-4,9.2-6.3
	c2.3-3.3,4.2-15.7,4.2-15.7l10.7-5.7l1.7-3.5l5.5,1.6"/>
</svg>
