<?xml version="1.0" encoding="utf-8"?>
<!-- Generator: Adobe Illustrator 24.0.0, SVG Export Plug-In . SVG Version: 6.00 Build 0)  -->
<svg version="1.1" id="Layer_1" xmlns:ev="http://www.w3.org/2001/xml-events"
	 xmlns="http://www.w3.org/2000/svg" xmlns:xlink="http://www.w3.org/1999/xlink" x="0px" y="0px" viewBox="0 0 86.5 143.3"
	 style="enable-background:new 0 0 86.5 143.3;" xml:space="preserve">
<style type="text/css">
	.st0{fill:none;stroke:#000000;}
</style>
<path class="st0" d="M36.9,4.6L14.1,25.4l-8.9-7.9 M11,4.2l10.4,26.9l12.5,49.6 M22.7,77.2c0,0,1.8-7,2.2-9.4
	c0.7-4.8,0-14.7,1.5-19.3c0.7-2.2,3.9-6.3,6.1-7c1.7-0.5,5.3,0.8,6.8,1.7c0.6,0.3,1.4,1.3,1.7,1.9c1.7,2.9,3.9,12.9,3.9,12.9
	s0.2,18.7,1.2,24.8c0.4,2.6,1.8,7.7,2.8,10.1c0.8,1.9,3.8,7.4,3.8,7.4L40.3,9.2L37,19.6c0,0-3.3,7.7-3.5,10.4
	c-0.1,1.8,0.2,5.8,1.3,7.3c1.4,2.1,8.6,5.6,8.6,5.6s7.2,3.1,9.3,4.6c1.3,0.9,3.5,3.2,4.6,4.4c1.2,1.3,3.8,3.7,4.7,5.2
	c2.1,3.3,4.5,10.7,6.1,14.2c1.5,3.3,5.1,9.7,6.4,13.1c1.3,3.3,3.1,10,3.9,13.4c0.9,3.9,2.6,11.8,2.9,15.8c0.3,3.4-0.2,10.2-0.4,13.5
	c-0.1,2.8-0.8,11.1-0.8,11.1"/>
</svg>
