<?xml version="1.0" encoding="utf-8"?>
<!-- Generator: Adobe Illustrator 24.0.0, SVG Export Plug-In . SVG Version: 6.00 Build 0)  -->
<svg version="1.1" id="Layer_1" xmlns:ev="http://www.w3.org/2001/xml-events"
	 xmlns="http://www.w3.org/2000/svg" xmlns:xlink="http://www.w3.org/1999/xlink" x="0px" y="0px" viewBox="0 0 78.3 156.4"
	 style="enable-background:new 0 0 78.3 156.4;" xml:space="preserve">
<style type="text/css">
	.st0{fill:none;stroke:#000000;}
</style>
<path class="st0" d="M71.9,51.5L58.1,38.6l-30-29.9 M17.2,68.4l8.8,49.3 M8.2,149.1l5.8-32.3l12,0.8l16.8-8.4 M22.9,33.5
	c0,1.3,3.7,1.6,5,1.4c0.4,0,1.3-0.4,1.4-0.8c0-0.2-0.2-0.5-0.4-0.5c-1.3-0.2-3.4,2.3-4.4,3.1c-1.2,1-3.4,3-4.3,4.3
	c-0.4,0.6-1,2-1.1,2.7c-0.1,0.8,0.2,2.6,0.7,3.3c0.6,0.8,2.6,1.7,3.5,2.1c1,0.5,3.1,1.4,4.2,1.5c1.7,0.1,5.1-0.1,6.6-0.9
	c1.6-0.8,4.1-3.4,5-4.9c0.8-1.4,1.3-4.7,1.9-6.2c0.5-1.3,2.4-3.5,2.6-4.9c0.2-1.7-1.5-6.6-1.5-6.6L40,19.2l-1.3-2.8l-3.9-1l-5.1-0.8
	L28.1,17c0,0,0.3,4,0.1,5.3c-0.2,1.2-1.6,3.4-1.6,4.7"/>
</svg>
