<?xml version="1.0" encoding="utf-8"?>
<!-- Generator: Adobe Illustrator 24.0.0, SVG Export Plug-In . SVG Version: 6.00 Build 0)  -->
<svg version="1.1" id="Layer_1" xmlns:ev="http://www.w3.org/2001/xml-events"
	 xmlns="http://www.w3.org/2000/svg" xmlns:xlink="http://www.w3.org/1999/xlink" x="0px" y="0px" viewBox="0 0 107.5 127.4"
	 style="enable-background:new 0 0 107.5 127.4;" xml:space="preserve">
<style type="text/css">
	.st0{fill:none;stroke:#000000;}
</style>
<path class="st0" d="M12.3,123.1l-7.5-8.1c0,0,11.6-37.5,18.8-48.4C29.9,57,56.5,34,56.5,34s-2.6,24.4-1.1,32.3
	c0.1,0.4,0.6,1.2,0.8,1.7c0.3,1.1,0.4,3.4,0.3,4.5c-0.2,2.1-2.2,6-2.5,8.1c-1.5,10.2,0.3,41.2,0.3,41.2"/>
<path class="st0" d="M16.6,43.8l2.5-1.7c0,0,8.5-11.1,10.3-15.4c1.8-4.1,1.6-13.9,4.2-17.6c0.7-1,3-2,4.1-2.6c1.6-0.8,5.1-3,6.7-2.3
	c1.6,0.7,1.6,5.2,2.7,6.6c1.1,1.4,5.5,4.4,5.5,4.4l8.7,9.3c0,0-0.8-7.8,0.7-9.7c1.5-1.8,6.6-2.7,8.9-2.6c2.2,0.1,7.8,1.4,8.2,3.6
	c0.7,3.8-7.2,9.9-11,11c-1.3,0.4-5.4-1.3-5.4-1.3s7.8,10.2,9,14.3c0.4,1.5-0.3,4.7-0.1,6.3c0.2,1.6,1.3,4.6,1.7,6.2
	c0.4,1.7-0.5,6.1,1,7c0.9,0.6,3-1.6,4.1-1.5c1.4,0.1,3.8,2,4.9,2.9c2.9,2.3,6.5,9.8,10.1,10.8c1,0.3,4-1.1,4-1.1l7.2-16.5"/>
</svg>
