<?xml version="1.0" encoding="utf-8"?>
<!-- Generator: Adobe Illustrator 24.0.0, SVG Export Plug-In . SVG Version: 6.00 Build 0)  -->
<svg version="1.1" id="Layer_1" xmlns:ev="http://www.w3.org/2001/xml-events"
	 xmlns="http://www.w3.org/2000/svg" xmlns:xlink="http://www.w3.org/1999/xlink" x="0px" y="0px" viewBox="0 0 47.3 82.7"
	 style="enable-background:new 0 0 47.3 82.7;" xml:space="preserve">
<style type="text/css">
	.st0{fill:none;stroke:#000000;stroke-width:1.0123;}
</style>
<path class="st0" d="M2.6,47.3c0.9-1.2,0.4-4.8,1.5-5.8c1.4-1.3,5.8-0.2,7.4-1.1c5.1-2.9,12.1-13.1,14.8-18.4c2.2-4.1,1.8-15,5.3-18
	C32.8,3,36.7,2,37.4,3.3c0.6,1-1.9,3.1-2.7,3.9c-1.1,1-4.9,1.3-5.3,2.8c-0.6,2.6,6.9,5.8,6.3,8.4c-0.4,1.8-5.2,2-6.5,3.2
	c-1.4,1.4-3.9,5-4,7c-0.1,3.5,3.9,9.9,6,12.7c0.7,1,2.8,2.4,3.7,3.3c2.6,2.5,9.7,6.8,9.9,10.4c0,0.5-0.9,1.2-1.3,1.5
	c-1.3,1-4.2,2.4-5.7,2.8c-2.1,0.6-7.4-1.2-8.5,0.7c-0.9,1.6,1.9,5.1,2.8,6.6c2.2,3.6,10.8,13,10.8,13 M14.9,64.4
	c1.6-2-3.3-8.2-1.6-10.1c1.1-1.3,5.2,0.9,6.8,0.2c2.8-1.2,6.3-6.8,8.3-9.1c1-1.1,2.6-3.9,3.9-4.6c1.8-1,7.7,1,7.9-1
	c0.1-1.3-4-0.8-5-1.7c-0.5-0.5-1.5-2.3-1.1-2.8"/>
</svg>
