<?xml version="1.0" encoding="utf-8"?>
<!-- Generator: Adobe Illustrator 24.0.0, SVG Export Plug-In . SVG Version: 6.00 Build 0)  -->
<svg version="1.1" id="Layer_1" xmlns:ev="http://www.w3.org/2001/xml-events"
	 xmlns="http://www.w3.org/2000/svg" xmlns:xlink="http://www.w3.org/1999/xlink" x="0px" y="0px" viewBox="0 0 56.6 126.6"
	 style="enable-background:new 0 0 56.6 126.6;" xml:space="preserve">
<style type="text/css">
	.st0{fill:none;stroke:#000000;}
</style>
<path class="st0" d="M32,113.5l-7,3.3c0,0-4.9-3.3-5.7-5.1c-0.6-1.3,0.4-4.3,0-5.6c-0.5-1.4-3-3.4-3.5-4.8c-0.8-2.6,0-10.9,0-10.9
	l1.9-2l-5.4,0.2l-5.7-5.8 M16.4,119.6l-4.2,1.7l-1.2-4.8c0,0,0.6-11.6-0.9-15c-0.8-1.9-5.2-4-5.7-6C2.9,89.9,10,73.1,10,73.1
	l-0.4-3.6l14.2-6.8L25.3,48L29.8,26l0.8-5.6c0,0-3-15-7.2-16.9c-2.3-1-7.4,1.9-9.4,3.4c-1.6,1.2-4.7,4.3-5,6.3
	c-0.1,0.7,0.4,2.2,1,2.6c3.3,2.7,17,2.1,17,2.1 M52.6,102.6c0,0-7.6,0.5-9.4-1.1c-1.1-1-1.1-4.4-1.6-5.8c-0.4-1.1-1.2-3.3-2.1-4
	c-1.6-1.2-5.7-1.6-7.7-1.9c-2.5-0.4-10.1-0.7-10.1-0.7l5,12"/>
</svg>
