<?xml version="1.0" encoding="utf-8"?>
<!-- Generator: Adobe Illustrator 24.0.0, SVG Export Plug-In . SVG Version: 6.00 Build 0)  -->
<svg version="1.1" id="Layer_1" xmlns:ev="http://www.w3.org/2001/xml-events"
	 xmlns="http://www.w3.org/2000/svg" xmlns:xlink="http://www.w3.org/1999/xlink" x="0px" y="0px" viewBox="0 0 87.9 122.5"
	 style="enable-background:new 0 0 87.9 122.5;" xml:space="preserve">
<style type="text/css">
	.st0{fill:none;stroke:#000000;stroke-width:1.0289;}
</style>
<path class="st0" d="M6.2,116.9c0,0,17.9-32.5,24.3-42.6c1.3-2.1,4.1-5.9,5.4-7.9c0.9-1.4,2.9-4.2,3.7-5.9c0.6-1.2,2.1-3.5,2.1-5.2
	 M34.9,4.8c0,2.8,6.4,1.6,8.4,2.8c1.9,1.1,5.3,4.6,7,6.1c0.4,0.4,1.3,1.1,1.7,1.5c1.9,2.2,5.7,7,6.4,10.2c0.5,2.5-0.3,7.8-1.1,10.1
	c-0.6,1.7-2.4,5.2-3.8,5.7c-4.3,1.7-14.9-1.2-17.3-6.1c-1-2.1,0.2-7.9,1.2-10c0.9-1.8,4.2-3.5,5.7-4.5c1.5-1.1,4.4-4.6,6-4
	c2.7,1.1,4,9.7,5.2,13.1c0.8,2.3,2,7.2,2.6,9.6c0.8,3,1.6,9.5,2.8,12.2c0.6,1.4,3,3,3.5,4.4c0.7,1.9,0.8,6.2,0.6,8.3
	c-0.2,1.6-2.3,4.2-2.1,5.8c0.3,2.4,3.6,5.6,5.2,6.9c1.4,1.1,4.7,2.3,6.3,2.6c2.3,0.4,8.2,2.2,9.3-0.5c0.5-1.2-1.6-3.7-2.1-4.9
	C79.2,71,76.7,64,75.3,60.6c-1.1-2.8-3-8.8-4.9-10.8c-1-1.1-3.9-1.5-5.1-2.3c-1-0.7-2.6-2.8-3.4-3.8c-0.7-0.8-1.7-3.3-2.6-3.3
	c-0.3,0-0.7,0.7-0.9,0.9c-1.1,1.6-2.6,5.8-3.9,7.1c-5.9,5.6-27.7,1.8-27.7,11.3"/>
</svg>
