<?xml version="1.0" encoding="utf-8"?>
<!-- Generator: Adobe Illustrator 24.0.0, SVG Export Plug-In . SVG Version: 6.00 Build 0)  -->
<svg version="1.1" id="Layer_1" xmlns:ev="http://www.w3.org/2001/xml-events"
	 xmlns="http://www.w3.org/2000/svg" xmlns:xlink="http://www.w3.org/1999/xlink" x="0px" y="0px" viewBox="0 0 61.7 87.6"
	 style="enable-background:new 0 0 61.7 87.6;" xml:space="preserve">
<style type="text/css">
	.st0{fill:none;stroke:#000000;stroke-width:1.2;}
</style>
<path class="st0" d="M18.1,44c0-1.5,3.3-3.5,10-3.9c3.8-0.2,5.4,3.1,6.5,5.2c0.8,1.4,1.7,5.1,1.3,6.8c-0.4,1.8-2.9,4.1-4.2,4.6
	c-2.1,0.8-6.6-0.5-8.7-1.5c-2-0.9-8.5-6.1-10.4-7.5c-1.3-1-2.8-3.1-4.3-3.4c-0.7-0.1-1.7,3-1.2,3.3c1.7,0.8,3.7,0.2,5.5,0.2
	c4.9-0.2,18.7,0.6,23.5-1.1c2.3-0.8,6.6-3.9,8.6-5.9c1.3-1.3,4.3-4.1,4.8-6.3c0.5-2.5-0.9-7.7-1.6-10.2c-0.7-2.6-2.3-7.9-3.7-9.8
	c-1.5-2.1-5.7-4.3-7.7-5.2c-2.9-1.3-8.8-3-11.8-3.2c-2.6-0.2-8.2-0.8-10.4,1.1C12.4,9,10.1,15.7,9.3,19c-0.9,3.8-1.9,12-1.3,15.9
	c0.7,4.5,4.4,12.5,6.6,15.9C17.3,55,23.9,62.1,27.7,64c3.1,1.5,9.8,1.3,13,1.1 M46.8,79.5c-3.3,0.6-10.1-1.3-13.3-2.5
	c-3.5-1.3-9.9-6.2-13.4-7.7c-2.3-1-7.3-3.7-9.6-2.7c-1.6,0.8-4.4,4.7-4.6,7.1c-0.1,1.7,1.4,4.8,2.4,5.7c3.3,3.1,11.6,3,15.5,3.2
	c4.9,0.3,14.7-0.1,19.4-1.5c1.8-0.5,5.3-3,7.1-3.7c1.6-0.7,5.5-0.2,6.7-2c1-1.5,1-6.3,0.5-8.2c-0.7-2.3-3.9-4.9-5.5-6"/>
</svg>
