<?xml version="1.0" encoding="utf-8"?>
<!-- Generator: Adobe Illustrator 24.0.0, SVG Export Plug-In . SVG Version: 6.00 Build 0)  -->
<svg version="1.1" id="Layer_1" xmlns:ev="http://www.w3.org/2001/xml-events"
	 xmlns="http://www.w3.org/2000/svg" xmlns:xlink="http://www.w3.org/1999/xlink" x="0px" y="0px" viewBox="0 0 113 306.2"
	 style="enable-background:new 0 0 113 306.2;" xml:space="preserve">
<style type="text/css">
	.st0{fill:none;stroke:#000000;}
</style>
<path class="st0" d="M7.9,297.4c0,0,6-50.7,7.6-67.7c2.2-23.4-16.2-88.5,6.8-93.9c6-1.4,6.4,21.2,12.6,21.3
	c11.6,0.1,15.8-31.5,24.1-39.6c1.3-1.2,4.5-2.9,6.2-3.6c1.2-0.4,4-1.8,5-1c1,0.8,0,3.9,0.1,5.2c0.2,1.8,0.3,5.5,1.1,7.1
	c0.9,1.8,4.3,4.4,5.8,5.8c0.7,0.6,2.3,1.7,2.9,2.3c0.8,0.8,2.3,2.5,2.9,3.5c0.9,1.6,1.8,5,2.2,6.7c0.3,1.3,1,4,0.9,5.4
	c-0.1,1.5-1.7,4.3-1.7,5.8 M80.4,126.8c0-2.7,1.7-7.8,2.3-10.4c0.3-1.3,0.8-4,1.3-5.2c0.4-1,2.1-2.7,2-3.8c0-0.9-1.7-2.1-1.9-2.9
	c-0.5-1.8,0.3-5.5,0.5-7.3c0.3-1.8,1.2-5.2,1.7-7c0.3-1.3,0.5-4.2,1.3-5.3c0.7-1,2.8-2.3,4-2.7c2.1-0.6,7.1-1.3,8.9,0
	c1.9,1.4,2.8,6.7,2.8,9c0,2-0.9,6.3-2.6,7.4c-2.1,1.4-7.7,0.1-10.2-0.5c-1.4-0.3-5.1-0.8-5.1-2.2 M81.8,93.1
	c0-3.4-10.1-2.7-13.4-1.9c-0.7,0.2-1.6,1.5-2.3,1.7c-4.2,1.5-13.5,0.2-18,0.5c-1.8,0.2-5.4,1.6-7.1,1c-1.8-0.7-3.2-4.9-4.9-5.7
	c-1.5-0.7-5.4,0.7-6.6-0.4C18.2,77.5,17,40.8,22.1,26c2-5.8,17.3-11.2,17.3-17.3"/>
</svg>
