<?xml version="1.0" encoding="utf-8"?>
<!-- Generator: Adobe Illustrator 24.0.0, SVG Export Plug-In . SVG Version: 6.00 Build 0)  -->
<svg version="1.1" id="Layer_1" xmlns:ev="http://www.w3.org/2001/xml-events"
	 xmlns="http://www.w3.org/2000/svg" xmlns:xlink="http://www.w3.org/1999/xlink" x="0px" y="0px" viewBox="0 0 88.2 119.8"
	 style="enable-background:new 0 0 88.2 119.8;" xml:space="preserve">
<style type="text/css">
	.st0{fill:none;stroke:#000000;}
</style>
<path class="st0" d="M37.6,114.8c0.4-2,0.4-5,1.4-7c6-9,16-21,7-31c-4-3-9-5-13-7c-5-4-7-11-13-14c-3-1-7,1-10,3c-2,1-4,0-5-1
	c-1-2,0-4,1-5c3-2,5-5,8-6c13-4,28-9,41-4c5,5,6,14,1,19c-5,3-11,6-17,5c-2-1-6-2-4-6c9-18,8-39,2-57c-4-1-10,3-9,7c1,2,4,2,6,3
	c17,3,33,8,49.4,12.3"/>
<path class="st0" d="M40.4,96.1c-6.9,3.6-2.9,12.6-4.5,18.2"/>
</svg>
