<?xml version="1.0" encoding="utf-8"?>
<!-- Generator: Adobe Illustrator 24.0.0, SVG Export Plug-In . SVG Version: 6.00 Build 0)  -->
<svg version="1.1" id="Layer_1" xmlns:ev="http://www.w3.org/2001/xml-events"
	 xmlns="http://www.w3.org/2000/svg" xmlns:xlink="http://www.w3.org/1999/xlink" x="0px" y="0px" viewBox="0 0 135.3 259.1"
	 style="enable-background:new 0 0 135.3 259.1;" xml:space="preserve">
<style type="text/css">
	.st0{fill:none;stroke:#000000;}
</style>
<path class="st0" d="M122.9,247.5c0,0-35.2-28.4-46.2-38.6c-7.5-7-24.6-20-28.4-29.6c-1.2-2.9,0.7-9.4,0-12.5
	c-1.6-7.1-10.9-19.3-12.6-26.4c-0.5-2.2-1-7-0.2-9.2c0.8-2.4,5.5-5.6,6.4-8c0.5-1.3,1.1-4.4,0.1-5.3c-1.7-1.5-6.7,0.9-9,0.9
	c-1.8,0-5.3-0.8-7-0.6c-2.9,0.3-9.4,6-11.3,3.7c-0.7-0.9,1.6-2.9,2.2-3.9c2-3.5,7.7-9.9,7.8-13.9c0-3.1-4.3-8.2-5.7-10.9
	c-1.2-2.5-4.5-7.4-4.8-10.2c-0.4-4.1,3.5-11.8,4-15.9c0.5-4.6-1-13.8-0.5-18.4c0.6-6.2,2.3-18.9,5.4-24.3c0.8-1.5,3.6-3.6,5-4.6
	c1.4-0.9,4.4-2.6,6.1-2.8c3.9-0.6,11.8,3,15.6,2c2-0.6,7.2-3.2,6.5-5.2c-0.2-0.7-2.3-0.2-3,0c-2.2,0.6-6,3.1-7.8,4.5
	c-2.3,1.8-5.9,6.7-8.3,8.4c-1.8,1.2-8,1.4-7.8,3.5c0.8,7.2,21.2,7.7,28.3,6c1.7-0.4,3.8-4.6,5.5-4.6c0.7,0,1.6,2.5,2.1,2
	c1.6-1.7-5.5-4.3-6.6-6.4c-0.9-1.7-1.3-5.5-1.1-7.3c0.3-2.2,5.3-7,3.4-8.1"/>
</svg>
