<?xml version="1.0" encoding="utf-8"?>
<!-- Generator: Adobe Illustrator 24.0.0, SVG Export Plug-In . SVG Version: 6.00 Build 0)  -->
<svg version="1.1" id="Layer_1" xmlns:ev="http://www.w3.org/2001/xml-events"
	 xmlns="http://www.w3.org/2000/svg" xmlns:xlink="http://www.w3.org/1999/xlink" x="0px" y="0px" viewBox="0 0 68.1 117.9"
	 style="enable-background:new 0 0 68.1 117.9;" xml:space="preserve">
<style type="text/css">
	.st0{fill:none;stroke:#000000;}
</style>
<polyline class="st0" points="29.9,58.7 28.6,65 30.2,84.3 28.8,89.9 29.9,111.6 33.4,113.3 35.1,111.9 "/>
<path class="st0" d="M15.5,12.3l3.4-6.9l1.2-0.8c0,0,1.6,3,1.7,4.1c0.3,5.8-4.8,16.7-6.4,22.2c-0.4,1.3-0.9,4-1.5,5.3
	c-0.9,1.8-2.6,6.7-4.6,6.5c-1.4-0.1-2-3.9-2.7-5.1c-0.7-1.2-3-3.1-2.9-4.5c0.1-1.8,3.2-4.3,4.8-5.2c1.1-0.6,3.9-1.8,5-1.1
	c2,1.4,1.1,7.4,1.4,9.9c0.2,2.1-0.9,6.7,0.5,8.2c1.1,1.3,6.8,1.2,6.8,1.2l5.6,8.4l2.3,4.2l-5.4-13.7l-1.8,2.5l4.1,4.6
	c0,0,7.6-1.4,9.7-0.2c1.5,0.8,2.3,4.9,3.8,5.6c4.1,1.9,13.8,0.2,17.9-1.5c2.2-0.9,7.2-6.2,7.2-6.2"/>
</svg>
