<?xml version="1.0" encoding="utf-8"?>
<!-- Generator: Adobe Illustrator 24.0.0, SVG Export Plug-In . SVG Version: 6.00 Build 0)  -->
<svg version="1.1" id="Layer_1" xmlns:ev="http://www.w3.org/2001/xml-events"
	 xmlns="http://www.w3.org/2000/svg" xmlns:xlink="http://www.w3.org/1999/xlink" x="0px" y="0px" viewBox="0 0 55.6 78.3"
	 style="enable-background:new 0 0 55.6 78.3;" xml:space="preserve">
<style type="text/css">
	.st0{fill:none;stroke:#000000;stroke-linecap:round;stroke-linejoin:round;}
</style>
<path class="st0" d="M29.2,36.1c0,0-0.2-4.9,1.1-5.4c0.7-0.3,2.4,1.7,2.4,1.7 M27.9,2.7c0,0,2.3,8.4,1.5,11.1
	c-1.1,3.7-7.5,9.1-8.8,12.8c-0.9,2.4-1.3,7.6-0.9,10.1c0.3,2.1,3.2,7.9,3.2,7.9s4,6.4,5.8,8.1c1.9,1.8,6.4,4.3,8.7,5.4
	c1.8,0.9,5.8,2,7.6,3c1.6,1,4.8,3.1,5.7,4.8c1.1,1.9,1.1,8.7,1.1,8.7 M39.7,68l-13.9,6.2 M24.7,50.3c0,0-7-4.2-9.6-4.4
	c-2.3-0.2-7.6,0.3-9.2,2.1c-1.5,1.7-2.3,7.2-0.8,8.9c0.7,0.9,3.4,0.4,4.5,0.2c2.4-0.4,9.2-3.4,9.2-3.4l6.1-3.7c0,0,4.3-1.1,5.4-2
	c0.7-0.5,1.9-2,2.1-2.9c0.2-1-0.3-3.3-0.9-4c-1.1-1.2-6-2.1-6-2.1"/>
</svg>
