<?xml version="1.0" encoding="utf-8"?>
<!-- Generator: Adobe Illustrator 24.0.0, SVG Export Plug-In . SVG Version: 6.00 Build 0)  -->
<svg version="1.1" id="Layer_1" xmlns:ev="http://www.w3.org/2001/xml-events"
	 xmlns="http://www.w3.org/2000/svg" xmlns:xlink="http://www.w3.org/1999/xlink" x="0px" y="0px" viewBox="0 0 39.9 67.1"
	 style="enable-background:new 0 0 39.9 67.1;" xml:space="preserve">
<style type="text/css">
	.st0{fill:none;stroke:#000000;}
</style>
<path class="st0" d="M36.6,46c0,2.6-1.8,7.7-2.7,10.1c-0.4,1.2-0.9,4.5-2.1,4.6c-0.7,0.1-1.6-1.6-1.9-2.3c-0.4-0.7-0.5-2.4-0.9-3
	c-0.4-0.6-2.5-0.9-2.5-1.6c0-1.1,3.2-1.3,3.7-2.3c1.5-3.5-0.2-12.2-2.8-15.1c-3.9-4.2-17.8-2.2-22-6.1c-1.1-1.1-2.8-4.5-2-5.9
	c0.8-1.3,4.7-0.5,6.2-0.8c3.3-0.8,10.1-2.5,13-4.3c1.1-0.7,3.1-2.8,3.7-4c1.3-2.9,1.2-9.4,1.2-12.6 M27.1,7.5c0-0.3-0.8-0.4-1.1-0.3
	c-2.9,0.2-8.5,3.1-10.6,5.1c-0.7,0.7-1.5,2.5-1.8,3.4c-2.9,8.5-8.9,26.8-6.2,35.4c1,2.9,8.2,5.6,8.9,8.6c0.2,1.1-1.5,4.1-1.5,4.1"/>
</svg>
