<svg viewBox="-660 -408.5 1320 817" width="1320pt" height="817pt" xmlns="http://www.w3.org/2000/svg" style="touch-action: none; background-color: rgb(255, 255, 255);"><path d="M-180.79326692502588,-3.1957478664053823e-14L-171.94460812312764,55.86819343227835L401.204114356947,-130.3591216006891zM-171.94460812312764,55.86819343227835L-146.26483048683082,106.26761451092061L341.284585311728,-247.95776719214822zM-146.26483048683082,106.26761451092061L-106.26761451092065,146.26483048683076L247.9577671921482,-341.284585311728zM-106.26761451092065,146.26483048683076L-55.86819343227838,171.9446081231276L130.35912160068904,-401.20411435694706zM-55.86819343227838,171.9446081231276L-1.1070394467823164e-14,180.79326692502585L2.5830921488378034e-14,-421.85095615839367zM-1.1070394467823164e-14,180.79326692502585L55.86819343227838,171.9446081231276L-130.35912160068904,-401.20411435694706zM55.86819343227838,171.9446081231276L106.26761451092065,146.26483048683076L-247.9577671921482,-341.284585311728zM106.26761451092065,146.26483048683076L146.26483048683082,106.26761451092061L-341.284585311728,-247.95776719214822zM146.26483048683082,106.26761451092061L171.94460812312764,55.86819343227835L-401.204114356947,-130.3591216006891zM171.94460812312764,55.86819343227835L180.79326692502588,-9.816689728407491e-15L-421.8509561583937,-8.36193216408099e-14zM180.79326692502588,-9.816689728407491e-15L171.94460812312764,-55.868193432278424L-401.204114356947,130.359121600689zM171.94460812312764,-55.868193432278424L146.26483048683082,-106.26761451092071L-341.284585311728,247.95776719214814zM146.26483048683082,-106.26761451092071L106.26761451092065,-146.26483048683085L-247.9577671921482,341.28458531172794zM106.26761451092065,-146.26483048683085L55.86819343227838,-171.94460812312767L-130.35912160068904,401.20411435694706zM55.86819343227838,-171.94460812312767L3.321118499865547e-14,-180.79326692502593L-7.749276286994813e-14,421.85095615839367zM3.321118499865547e-14,-180.79326692502593L-55.86819343227838,-171.94460812312767L130.35912160068904,401.20411435694706zM-55.86819343227838,-171.94460812312767L-106.26761451092065,-146.26483048683085L247.9577671921482,341.28458531172794zM-106.26761451092065,-146.26483048683085L-146.26483048683082,-106.26761451092071L341.284585311728,247.95776719214814zM-146.26483048683082,-106.26761451092071L-171.94460812312764,-55.868193432278424L401.204114356947,130.359121600689zM-171.94460812312764,-55.868193432278424L-180.79326692502588,-7.623905653534649e-14L421.8509561583937,7.136620728945833e-14zM-106.26761451092065,146.26483048683076L-14419.58528778605,19846.856972553625L-55.86819343227838,171.9446081231276zM-55.86819343227838,171.9446081231276L-7580.824918098436,23331.380010781675L-1.1070394467823164e-14,180.79326692502585zM-1.1070394467823164e-14,180.79326692502585L-1.5021557549197311e-12,24532.06410891036L55.86819343227838,171.9446081231276zM55.86819343227838,171.9446081231276L7580.824918098436,23331.380010781675L106.26761451092065,146.26483048683076zM106.26761451092065,146.26483048683076L14419.58528778605,19846.856972553625L146.26483048683082,106.26761451092061zM-146.26483048683082,106.26761451092061L-19846.856972553633,14419.58528778606L-106.26761451092065,146.26483048683076zM146.26483048683082,106.26761451092061L19846.856972553633,14419.58528778606L171.94460812312764,55.86819343227835zM-171.94460812312764,55.86819343227835L-23331.380010781722,7580.824918098452L-146.26483048683082,106.26761451092061zM171.94460812312764,55.86819343227835L23331.380010781722,7580.824918098452L180.79326692502588,-9.816689728407491e-15zM-180.79326692502588,-3.1957478664053823e-14L-24532.06410891043,2.2995126969497127e-28L-171.94460812312764,55.86819343227835zM180.79326692502588,-9.816689728407491e-15L24532.06410891043,3.0043115098394715e-12L171.94460812312764,-55.868193432278424zM171.94460812312764,-55.868193432278424L23331.380010781766,-7580.824918098465L146.26483048683082,-106.26761451092071zM-171.94460812312764,-55.868193432278424L-23331.380010781766,-7580.824918098465L-180.79326692502588,-7.623905653534649e-14zM146.26483048683082,-106.26761451092071L19846.856972553698,-14419.585287786107L106.26761451092065,-146.26483048683085zM-146.26483048683082,-106.26761451092071L-19846.856972553698,-14419.585287786107L-171.94460812312764,-55.868193432278424zM106.26761451092065,-146.26483048683085L14419.585287786116,-19846.856972553716L55.86819343227838,-171.94460812312767zM55.86819343227838,-171.94460812312767L7580.824918098477,-23331.380010781802L3.321118499865547e-14,-180.79326692502593zM3.321118499865547e-14,-180.79326692502593L4.5064669400800544e-12,-24532.064108910497L-55.86819343227838,-171.94460812312767zM-55.86819343227838,-171.94460812312767L-7580.824918098477,-23331.380010781802L-106.26761451092065,-146.26483048683085zM-106.26761451092065,-146.26483048683085L-14419.585287786116,-19846.856972553716L-146.26483048683082,-106.26761451092071zM-7580.824918098436,23331.380010781675L-1.5021557549197311e-12,24532.06410891036L-1.1070394467823164e-14,180.79326692502585zM-1.5021557549197311e-12,24532.06410891036L7580.824918098436,23331.380010781675L55.86819343227838,171.9446081231276zM-14419.58528778605,19846.856972553625L-7580.824918098436,23331.380010781675L-55.86819343227838,171.9446081231276zM7580.824918098436,23331.380010781675L14419.58528778605,19846.856972553625L106.26761451092065,146.26483048683076zM-19846.856972553633,14419.58528778606L-14419.58528778605,19846.856972553625L-106.26761451092065,146.26483048683076zM14419.58528778605,19846.856972553625L19846.856972553633,14419.58528778606L146.26483048683082,106.26761451092061zM-23331.380010781722,7580.824918098452L-19846.856972553633,14419.58528778606L-146.26483048683082,106.26761451092061zM19846.856972553633,14419.58528778606L23331.380010781722,7580.824918098452L171.94460812312764,55.86819343227835zM-24532.06410891043,2.2995126969497127e-28L-23331.380010781722,7580.824918098452L-171.94460812312764,55.86819343227835zM23331.380010781722,7580.824918098452L24532.06410891043,3.0043115098394715e-12L180.79326692502588,-9.816689728407491e-15zM24532.06410891043,3.0043115098394715e-12L23331.380010781766,-7580.824918098465L171.94460812312764,-55.868193432278424zM-23331.380010781766,-7580.824918098465L-24532.06410891043,-6.008623019678943e-12L-180.79326692502588,-7.623905653534649e-14zM23331.380010781766,-7580.824918098465L19846.856972553698,-14419.585287786107L146.26483048683082,-106.26761451092071zM-19846.856972553698,-14419.585287786107L-23331.380010781766,-7580.824918098465L-171.94460812312764,-55.868193432278424zM19846.856972553698,-14419.585287786107L14419.585287786116,-19846.856972553716L106.26761451092065,-146.26483048683085zM-14419.585287786116,-19846.856972553716L-19846.856972553698,-14419.585287786107L-146.26483048683082,-106.26761451092071zM14419.585287786116,-19846.856972553716L7580.824918098477,-23331.380010781802L55.86819343227838,-171.94460812312767zM-7580.824918098477,-23331.380010781802L-14419.585287786116,-19846.856972553716L-106.26761451092065,-146.26483048683085zM7580.824918098477,-23331.380010781802L4.5064669400800544e-12,-24532.064108910497L3.321118499865547e-14,-180.79326692502593zM4.5064669400800544e-12,-24532.064108910497L-7580.824918098477,-23331.380010781802L-55.86819343227838,-171.94460812312767z" style="fill:none;stroke:rgb(0,0,0);stroke-opacity:1;stroke-width:1;stroke-linecap:round;stroke-linejoin:round"></path></svg>