<?xml version="1.0" encoding="utf-8"?>
<!-- Generator: Adobe Illustrator 24.0.0, SVG Export Plug-In . SVG Version: 6.00 Build 0)  -->
<svg version="1.1" id="main_1_" xmlns="http://www.w3.org/2000/svg" xmlns:xlink="http://www.w3.org/1999/xlink" x="0px" y="0px"
	 viewBox="0 0 17 35" style="enable-background:new 0 0 17 35;" xml:space="preserve">
<style type="text/css">
	.st0{fill:none;stroke:#1D1D1B;stroke-linecap:round;stroke-linejoin:round;stroke-miterlimit:10;}
</style>
<path class="st0" d="M1.3,33.1c0.3-0.2,0.6-0.4,0.8-0.6c1.2-1,2.2-2.4,3.1-3.8c0.5-0.8,1-1.5,1.5-2.3c2.8-4.9,3.7-10.7,2.7-16.3"/>
<path class="st0" d="M5.7,17.4c1.9,1,5.6,3.7,8.1,9.5c0.9,2.1,1.6,4.3,1.6,6.6"/>
<path class="st0" d="M0.7,15.8c0.6-0.5,1.3-1,2-1.5c2.6-1.6,5.8-2.4,8.9-2.2"/>
<path class="st0" d="M11.2,15.1c1.1,2.4,2.4,3.2,4.9,3.7"/>
<path class="st0" d="M9.7,2.1c-1.5-0.1-3,0.6-4,1.7c-0.3,0.3-0.5,0.6-0.6,1C5,5.2,5,5.5,5,5.9c0.1,1,0.7,2,1.6,2.6s1.9,0.9,2.9,0.9
	c0.5,0,1-0.1,1.5-0.3c0.3-0.2,0.6-0.4,0.9-0.7c0.7-0.9,1-2.2,0.7-3.4c-0.3-1.2-1.2-2.1-2.3-2.6"/>
</svg>
