<?xml version="1.0" encoding="utf-8"?>
<!-- Generator: Adobe Illustrator 24.0.0, SVG Export Plug-In . SVG Version: 6.00 Build 0)  -->
<svg version="1.1" id="Layer_2" xmlns="http://www.w3.org/2000/svg" xmlns:xlink="http://www.w3.org/1999/xlink" x="0px" y="0px"
	 viewBox="0 0 17 35" style="enable-background:new 0 0 17 35;" xml:space="preserve">
<style type="text/css">
	.st0{fill:none;stroke:#1D1D1B;stroke-linecap:round;stroke-linejoin:round;stroke-miterlimit:10;}
</style>
<path class="st0" d="M5.6,26.4c-0.7,0.1-1.4,0.2-2.1,0.5S2.3,27.7,2,28.4c-0.2,0.4-0.2,0.9-0.3,1.4c0,0.6,0.1,1.2,0.3,1.7
	c0.4,0.8,1.3,1.2,2.1,1.6c0.4,0.2,0.9,0.4,1.4,0.5c0.3,0,0.6,0,0.9,0c1.4-0.2,2.6-1.4,3-2.7c0.4-1.3-0.2-2.5-0.9-3.7
	C7.9,26.2,6.8,26.3,5.6,26.4z"/>
<path class="st0" d="M5.8,26.3c-0.5-6-2-11.9-2.9-17.9C2.7,7.4,2.6,6.3,2.6,5.2c0-0.4,0-0.7,0.2-1C3,3.8,3.2,3.6,3.5,3.3
	c1-0.9,2.2-1.3,3.5-1.7c0.7-0.2,1.4-0.4,2.2-0.4c1.3,0.1,2.4,1.3,2.8,2.6s0,2.7-0.6,3.9S9.8,10,8.9,11c-1.3,1.5-2.6,3.1-3.8,4.7
	c-1,1.3-1.9,2.7-2.7,4.2"/>
<path class="st0" d="M6.5,5.9c1.2,0.3,2,0.7,2.8,1.4c1.5,1.3,2.6,3,3.2,4.9c0.4,1.3,0.6,2.7,0.8,4.1c0.3,2.3,0.5,4.5,0.8,6.8
	c0.1,0.8,0.2,1.6,0.3,2.4"/>
<path class="st0" d="M7.7,12.5c0.6,1.9,1.2,3.7,1.8,5.6c0.6,2.1,1.1,4.2,1.6,6.3"/>
<path class="st0" d="M12,4.6c0.9,0.3,1.8,0.6,2.6,0.9"/>
</svg>
