<?xml version="1.0" encoding="utf-8"?>
<!-- Generator: Adobe Illustrator 24.0.0, SVG Export Plug-In . SVG Version: 6.00 Build 0)  -->
<svg version="1.1" id="Layer_2" xmlns="http://www.w3.org/2000/svg" xmlns:xlink="http://www.w3.org/1999/xlink" x="0px" y="0px"
	 viewBox="0 0 17 35" style="enable-background:new 0 0 17 35;" xml:space="preserve">
<style type="text/css">
	.st0{fill:none;stroke:#1D1D1B;stroke-linecap:round;stroke-linejoin:round;stroke-miterlimit:10;}
</style>
<path class="st0" d="M3.9,15.6c-0.8,0.7-1.2,1.8-1.3,2.8c0,0.4,0,0.8,0.1,1.1c0.3,1,1.2,1.7,2.2,1.9s2,0.1,3-0.3
	c1-0.3,2-0.9,2.4-1.9c0.3-0.7,0.2-1.4,0-2.1c-0.2-0.8-0.7-1.4-1.3-1.9c-0.7-0.5-1.6-0.7-2.5-0.7C5.6,14.6,4.7,15,3.9,15.6z"/>
<path class="st0" d="M6.7,14.6c-0.2-1.2-0.6-4.7-0.6-5.9c0-1.3-0.1-4.4,0.3-6C6.8,1.5,8,1.5,8.7,1.5c0.4,0,1.9,0.2,2.2,0.3
	c0.8,0.2,1.6,0.7,2,1.5C13.4,4,13.5,5,13.5,5.9c0,1.2,0,2.4,0.1,3.7c0,1.9,0.1,3.7,0.1,5.6c0,2.6,0.1,5.2,0.1,7.8
	c0,2.8,0.1,5.7,0.1,8.5c0,0.3,0,0.6-0.1,0.9c-0.2,0.3-0.6,0.5-0.9,0.6c-1.7,0.5-3.5,0.3-5.2,0.3c-1.7,0-3.3,0.1-5,0.3"/>
<path class="st0" d="M6.4,11.7c-1.6,0.3-3,0.8-4.6,2"/>
<path class="st0" d="M11.1,10.2"/>
<path class="st0" d="M6.4,9.5c0.8,0,1.7,0,2.5,0.2c0.8,0.1,1.6,0.3,2.3,0.5"/>
<path class="st0" d="M2,31c2.3-0.7,4.8-1.2,7-1.4c0.7-0.1,1.4-0.1,2,0.3c1,0.6,1.1,1.9,1.1,3"/>
</svg>
