<?xml version="1.0" encoding="utf-8"?>
<!-- Generator: Adobe Illustrator 24.0.0, SVG Export Plug-In . SVG Version: 6.00 Build 0)  -->
<svg version="1.1" id="Layer_2" xmlns="http://www.w3.org/2000/svg" xmlns:xlink="http://www.w3.org/1999/xlink" x="0px" y="0px"
	 viewBox="0 0 17 35" style="enable-background:new 0 0 17 35;" xml:space="preserve">
<style type="text/css">
	.st0{fill:none;stroke:#1D1D1B;stroke-linecap:round;stroke-linejoin:round;stroke-miterlimit:10;}
</style>
<path class="st0" d="M5.6,6.7c-0.4,0.2-0.7,0.4-1,0.8C4.4,7.6,4.2,7.9,4.1,8.2c-0.7,1.6-0.3,3.7,1.1,4.6c0.3,0.2,0.7,0.4,1,0.5
	c1,0.4,2.2,0.6,3.3,0.4c1.1-0.2,2.2-0.7,3-1.5c0.4-0.4,0.7-0.9,0.9-1.4c0.3-1,0.2-2.1-0.2-3c-0.7-1.2-1.9-1.8-3.3-2
	C8.3,5.7,6.7,6,5.6,6.7z"/>
<path class="st0" d="M5.7,13c-0.3,0.6-0.5,1.2-0.7,1.9c-0.7,2.3-1.1,4.6-1.4,6.9c-0.4,3-0.6,6-0.7,9c0,0.9-0.1,1.9-0.1,2.8"/>
<path class="st0" d="M12.2,12.7c0.4,0.4,1.1,4,1.2,4.7c0.1,0.8,0.2,1.9,0.2,3.4c0,1.1,0.1,2.4,0.1,3.8c0,1.7,0.1,3.3,0.2,5
	c0.1,1.4,0.2,2.8,0.3,4.2"/>
<path class="st0" d="M15.8,3.5c-0.4-0.5-1-0.9-2-1c-0.9-0.1-1.4,0.1-2.5,0.6c-0.6,0.2-1.1,0.6-1.5,1c-0.5,0.5-0.9,1-1.1,1.6
	c0.1,0-0.1-1-0.6-1.9C7.7,3.2,7.2,2.5,6.6,2.3c-0.5-0.1-1-0.2-1.5-0.1C4.4,2.3,3.7,2.4,3.1,2.7C2.4,3,1.7,3.4,1.2,3.8"/>
</svg>
