<?xml version="1.0" encoding="utf-8"?>
<!-- Generator: Adobe Illustrator 24.0.0, SVG Export Plug-In . SVG Version: 6.00 Build 0)  -->
<svg version="1.1" id="Layer_2" xmlns="http://www.w3.org/2000/svg" xmlns:xlink="http://www.w3.org/1999/xlink" x="0px" y="0px"
	 viewBox="0 0 17 35" style="enable-background:new 0 0 17 35;" xml:space="preserve">
<style type="text/css">
	.st0{fill:none;stroke:#1D1D1B;stroke-width:1.0259;stroke-linecap:round;stroke-linejoin:round;stroke-miterlimit:10;}
</style>
<path class="st0" d="M4.6,27.7c0.7,1.3,2.2,1.8,3.6,1.9c1.1,0.1,2.3,0,3.4-0.4c1.1-0.4,2-1.3,2.4-2.4c0.5-1.3,0.2-2.5-0.5-3.5
	c-0.7-0.9-1.7-1.5-2.7-1.9c-1-0.3-2.3-0.1-3.4,0.5c-1,0.5-1.8,1.2-2.4,2C4.3,25,4,26.5,4.6,27.7z"/>
<path class="st0" d="M0.8,1.2c0.7,0.2,2.5,0.7,3.3,1.1C5.2,3,5.6,3.5,6.1,4c0.5,0.5,0.8,1.1,1.1,1.8c0.6,1.5,1,3,1.3,4.6
	C8.7,12.2,8.9,14,9,15.8c0.1,0.9,0.1,1.7,0.2,2.6c0.1,0.9,0.1,1.8,0.2,2.8"/>
<path class="st0" d="M16.1,1.9c-0.7,0.2-1.3,0.5-1.9,1.1c-0.7,0.6-1.2,1.4-1.6,2.2c-0.4,0.8-0.8,1.6-1.1,2.4
	c-0.4,1.1-0.7,2.2-0.9,3.3c-0.3,1.4-0.5,2.8-0.7,4.3c-0.2,1.9-0.3,3.8-0.4,5.6"/>
<path class="st0" d="M4,16.4c-0.5,1-0.9,2-1.2,3.1c-0.4,1.3-0.7,2.6-0.9,4c-0.2,1.2-0.2,2.3-0.1,3.5c0.1,1.3,0.3,2.6,0.7,3.8
	c0.4,1.1,1,2.3,2,2.8c1,0.4,2.1,0.1,2.9-0.6s1.3-1.7,1.7-2.7"/>
<path class="st0" d="M15.3,28.9c0,0.8,0,1.5-0.1,2.2c-0.1,0.6-0.2,1.1-0.4,1.7c-0.1,0.2-1,1.1-1.4,1.1c-0.4,0.1-0.8,0.1-1.1,0
	c-0.8-0.2-1.4-0.8-1.9-1.5C10,31.8,9.8,31,9.5,30.2"/>
</svg>
