<?xml version="1.0" encoding="utf-8"?>
<!-- Generator: Adobe Illustrator 24.0.0, SVG Export Plug-In . SVG Version: 6.00 Build 0)  -->
<svg version="1.1" id="Layer_2" xmlns="http://www.w3.org/2000/svg" xmlns:xlink="http://www.w3.org/1999/xlink" x="0px" y="0px"
	 viewBox="0 0 17 35" style="enable-background:new 0 0 17 35;" xml:space="preserve">
<style type="text/css">
	.st0{fill:none;stroke:#1D1D1B;stroke-width:1.0259;stroke-linecap:round;stroke-linejoin:round;stroke-miterlimit:10;}
</style>
<path class="st0" d="M3.8,26.3c-0.6,0.2-1.2,0.6-1.6,1.1c-0.5,0.5-0.8,1.2-0.8,1.9c0,0.7,0.2,1.3,0.6,1.9c0.4,0.6,1,1,1.6,1.3
	c0.8,0.3,1.6,0.4,2.4,0.3c0.6-0.1,1.1-0.2,1.7-0.4c0.5-0.2,1-0.4,1.5-0.7c1-0.8,1.6-2.1,1.4-3.3c-0.2-1-0.7-1.6-1.4-2
	C8.6,26,7.8,25.8,7,25.8C5.8,25.7,4.7,26,3.8,26.3z"/>
<path class="st0" d="M15.7,1.8c-0.5,0.8-0.9,1.6-1.4,2.4c-0.5,0.9-1,1.7-1.5,2.6c-0.5,0.8-0.9,1.7-1.4,2.5c-0.5,1-1,2-1.4,3
	c-0.6,1.3-1.2,2.7-1.7,4.1c-0.6,1.6-1.1,3.2-1.5,4.8c-0.4,1.5-0.8,3.1-1.1,4.6"/>
<path class="st0" d="M0.9,1.2C0.8,2,0.7,2.8,0.7,3.5c0,1,0,1.9,0.4,2.8c0.5,1.3,1.4,2.5,2.5,3.4c1.1,0.9,2.4,1.5,3.7,2.1
	c0.8,0.4,1.7,0.7,2.5,1"/>
<path class="st0" d="M8.8,15.2c0.8,0.3,1.5,0.7,2.1,1.2c0.7,0.6,1.2,1.2,1.7,2c0.4,0.8,0.8,1.6,1,2.4c0.2,0.7,0.3,1.4,0.3,2.1
	c0.1,1.1,0.2,2.1,0.3,3.2c0.1,1.4,0.1,2.8,0.2,4.3c0,1,0,2.1-0.1,3.1"/>
<path class="st0" d="M1.3,14.3c-0.2,0.8-0.1,1.7,0.2,2.5c0.2,0.7,0.6,1.4,1.2,2c0.5,0.6,1.2,1.1,1.9,1.5c0.7,0.4,1.5,0.7,2.2,1"/>
<path class="st0" d="M12.6,7.2c0.6,0.3,1,0.8,1.3,1.4c0.4,0.7,0.5,1.4,0.6,2.2c0,0.8-0.1,1.6-0.2,2.3c-0.1,0.6-0.2,1.2-0.3,1.9"/>
</svg>
