<?xml version="1.0" encoding="utf-8"?>
<!-- Generator: Adobe Illustrator 24.0.0, SVG Export Plug-In . SVG Version: 6.00 Build 0)  -->
<svg version="1.1" id="Layer_2" xmlns="http://www.w3.org/2000/svg" xmlns:xlink="http://www.w3.org/1999/xlink" x="0px" y="0px"
	 viewBox="0 0 17 35" style="enable-background:new 0 0 17 35;" xml:space="preserve">
<style type="text/css">
	.st0{fill:none;stroke:#1D1D1B;stroke-width:1.0259;stroke-linecap:round;stroke-linejoin:round;stroke-miterlimit:10;}
</style>
<path class="st0" d="M4.9,5.4C4.7,5.7,4.5,6.1,4.5,6.6C4.4,7.4,4.8,8.2,5.3,8.8s1.3,0.9,2.1,1.1c1.4,0.4,3,0.2,4.1-0.7
	s1.9-2.3,1.6-3.8c-0.2-1-0.7-1.6-1.3-2.1c-0.7-0.5-1.7-0.6-2.6-0.6c-1,0.1-1.9,0.4-2.7,0.8C5.9,4,5.3,4.6,4.9,5.4z"/>
<path class="st0" d="M9.6,10.3c0,1-0.1,2-0.2,3c-0.1,1.1-0.3,2.1-0.5,3.2c-0.2,0.9-0.4,1.7-0.6,2.6c-0.3,1.1-0.6,2.1-0.9,3.2
	c-0.3,1-0.7,1.9-1.1,2.9C5.9,26,5.5,26.9,5,27.8c-0.6,1.2-1.2,2.3-1.9,3.5c-0.5,0.9-1.1,1.7-1.6,2.6c0,0-0.1,0.1,0,0.2
	c0,0,0.1,0,0.1-0.1"/>
<path class="st0" d="M9.6,13.5c0.3,0.6,0.7,1.3,1,1.9c0.5,0.8,0.9,1.7,1.3,2.5c0.4,0.7,0.7,1.4,1,2.1c0.4,0.8,0.7,1.6,1,2.4
	c0.3,0.9,0.6,1.8,0.8,2.7c0.3,1.2,0.5,2.4,0.6,3.7c0.1,1.3,0.2,2.6,0.3,3.9c0,0.4,0,0.8,0.1,1.2"/>
<path class="st0" d="M1.2,22.6c0.7-0.6,1.2-1.4,1.7-2.2c0.5-0.8,0.8-1.7,1.2-2.6c0.3-0.8,0.7-1.6,1.1-2.4c0.3-0.7,0.7-1.3,1.2-1.9
	c0.4-0.5,1-1,1.5-1.3c0.5-0.3,1-0.6,1.6-0.9"/>
<path class="st0" d="M9.9,11.8c0.6,0.5,1.1,1,1.8,1.3c0.5,0.2,1,0.2,1.5,0.2c0.5,0,1.1-0.1,1.6-0.2"/>
</svg>
