<?xml version="1.0" encoding="utf-8"?>
<!-- Generator: Adobe Illustrator 24.0.0, SVG Export Plug-In . SVG Version: 6.00 Build 0)  -->
<svg version="1.1" id="Layer_2" xmlns="http://www.w3.org/2000/svg" xmlns:xlink="http://www.w3.org/1999/xlink" x="0px" y="0px"
	 viewBox="0 0 17 35" style="enable-background:new 0 0 17 35;" xml:space="preserve">
<style type="text/css">
	.st0{fill:none;stroke:#1D1D1B;stroke-width:1.0259;stroke-linecap:round;stroke-linejoin:round;stroke-miterlimit:10;}
</style>
<path class="st0" d="M1.6,18.9c-0.7,0.8-0.9,2-0.5,3s1.2,1.8,2.2,2.2c1,0.4,2.1,0.3,3.1,0c1.1-0.4,2.1-1.2,2.4-2.4
	c0.1-0.4,0.1-0.8,0.2-1.2c0-0.5,0-1.1-0.2-1.5c-0.3-0.7-1-1.3-1.7-1.5c-0.8-0.3-1.8-0.2-2.8,0C3.2,17.7,2.2,18.2,1.6,18.9z"/>
<path class="st0" d="M1.2,14.5c0.4-0.8,1-1.5,1.6-2c0.7-0.5,1.5-1,2.3-1.2C6,11.1,6.9,11,7.8,11.2c0.8,0.1,1.6,0.4,2.3,0.9
	c0.6,0.4,1.2,0.9,1.5,1.5c0.3,0.5,0.4,1,0.6,1.6c0.2,1,0.3,2.1,0.3,3.2c0,1.4-0.3,2.7-0.8,4c-0.3,0.8-0.7,1.6-1,2.3
	c-0.4,0.9-0.8,1.7-1.4,2.5c-0.5,0.7-1,1.3-1.6,1.9c-0.8,0.9-1.7,1.7-2.6,2.5c-1.1,1-2.3,1.9-3.7,2.4"/>
<path class="st0" d="M0.9,6.9c0.7-1,1.6-1.9,2.6-2.6c0.8-0.6,1.7-1.1,2.7-1.5C7.3,2.4,8.5,2.1,9.7,2c1-0.1,2.1,0,3.1,0.3
	c0.7,0.2,1.5,0.4,2,1C15.3,4,15.3,5,15.2,5.9C15,7.1,14.5,8.3,14,9.4c-0.7,1.3-1.5,2.5-2.4,3.7c-0.5,0.7-1,1.4-1.5,2
	c-0.7,0.9-1.4,1.8-2.1,2.6"/>
<path class="st0" d="M11.7,13.3c1.2-0.2,2.4,0.7,3,1.7s0.6,2.4,0.7,3.6c0,1.2,0,2.4,0,3.6c0,1.8-0.1,3.7-0.2,5.5
	c-0.1,2-0.3,3.9-0.5,5.9"/>
<path class="st0" d="M8.4,5.6c0.9-0.4,2-0.1,2.6,0.7c0.5,0.7,0.5,1.7,0.5,2.6c0,0.6,0,1.2,0,1.8c0,0.8,0,1.6,0,2.4"/>
</svg>
