<svg id="Layer_1" data-name="Layer 1" xmlns="http://www.w3.org/2000/svg" viewBox="0 0 841.89 1190.55"><defs><style>.cls-1{fill:none;stroke:#010101;}</style></defs><title>Artboard 3</title><path class="cls-1" d="M82.24,133.8A12.06,12.06,0,0,1,84.05,129c.21-.3.72-1.11,1.06-1s.27,1,.23,1.38c-.2,1.8-2.42,4.94-2.7,6.73-.23,1.41.5,4.29.35,5.71-.19,1.75-2,5-1.92,6.78.14,3.06,2.51,9,4.43,11.42,2.55,3.14,10.93,5.78,13.53,8.89,1.48,1.77,2.26,6.62,3.6,8.51,2.1,2.94,8.3,7,10.76,9.68,2,2.21,6.22,6.75,7.34,9.55.9,2.23.42,7.24,1,9.57.67,2.56,3.41,7.19,4.16,9.73.9,3,1.09,9.47,2.17,12.44.74,2,3.39,5.56,4.36,7.5,1.27,2.54,3.11,8,4.44,10.47,1,1.86,3,5.72,4.57,7.1a11.56,11.56,0,0,0,5.11,2.36,7.85,7.85,0,0,0,4.21-1.46c1.06-1,1.82-3.92,2.36-5.25.46-1.13,1.62-3.34,1.68-4.55a5.82,5.82,0,0,0-.44-1.62c-.5-1.26-2.3-3.43-2.56-4.75-.29-1.52.73-4.6.71-6.14a29.19,29.19,0,0,0-1.1-7.75c-.53-1.37-2-4.16-3.32-4.84s-4.17-.21-5.53,0a24.4,24.4,0,0,0-6,2c-.86.48-2.19,2-3,2.55s-2.6,2.05-3.65,2.27c-1.41.29-4.29-1.15-5.7-.83-1.16.26-4,1.43-4,2.62m-9.11-10.41c0,3-12.05-2.58-12.05.43M88.8,215.38c0-5.36,15.85-2.82,21.14-3.69,2.42-.4,9.69.94,9.69-1.51m15.29-37.49c0-6.41,5.39-18.65,5.37-25.06,0-4-3.47-11.73-3.47-15.76"/><path class="cls-1" d="M321.54,273.24c0,5.7-1.12,17.07-1.12,22.78m.13,9.13a55.78,55.78,0,0,0,.47,5.62c.25,1.83.91,5.49,1.36,7.29.35,1.42,1.51,4.14,1.75,5.59s-.34,4.54.11,6a17.11,17.11,0,0,0,1.83,2.7,16.72,16.72,0,0,1,1,1.72c.41.94.83,3,1.16,3.93.46,1.39,1.8,4,2.05,5.48.39,2.17-.48,6.65-.06,8.82.23,1.24,1.77,3.43,1.89,4.7.14,1.48-1,4.38-1.14,5.87a40.2,40.2,0,0,0-.14,5.7,30.63,30.63,0,0,0,1.25,6.61c.57,1.44,2.51,3.9,3.32,5.22.94,1.55,2.61,4.78,3.68,6.24a23,23,0,0,0,4.18,4.61c1.57,1,5.26,2.36,7.13,2.29,2.21-.09,6.37-2.08,8.18-3.35a30.21,30.21,0,0,0,6.24-6.95,21.27,21.27,0,0,0,2.06-5.84,25.75,25.75,0,0,0-.34-6.67c-.54-2.56-2.88-7.32-3.69-9.81a82.13,82.13,0,0,1-2.31-8.21c-.38-2.14.46-6.83-.72-8.65-.6-.94-2.82-1.93-3.91-2.17-2.51-.54-7.69,1.1-10.23.75-1.41-.19-4.38-.89-5.35-1.93-.57-.62-.64-2.44-.9-3.24-.66-2.05-1.5-6.49-3-8.07s-5.36-3.05-7.35-3.38-6.38.41-8.46.84a64.42,64.42,0,0,0-8.68,2.77c-1.15.48-3.26,1.84-4.41,2.33-1.37.58-4.24,1.37-5.65,1.86s-4.53,2.62-6.12,2.24c-2.83-.69-6.14-6.27-7.89-8.6-1.29-1.72-4.3-5.2-4.45-7.34-.32-4.7,3.92-14.21,7.47-17.3.53-.46,2.7,0,2.7-.74"/><path class="cls-1" d="M269.71,237.47a24.06,24.06,0,0,1-.87,4.81,45.56,45.56,0,0,1-2.3,5.94c-.61,1.24-2.19,3.53-2.86,4.74-.28.5-.5,2.24-1,2-1.13-.44,1-3.5,1.28-4.67.38-1.37,1.66-4.07,1.49-5.48-.22-1.78-2.65-4.69-3.48-6.27-1.13-2.13-3.26-6.46-4.32-8.62-1.35-2.72-3.88-8.24-5.3-10.92-1.13-2.13-4-6.1-4.84-8.35-1-2.49-1.28-7.93-2.24-10.41-.89-2.29-3.64-6.42-5-8.5-1.7-2.72-5.3-8-7.2-10.62-1.3-1.78-3.56-5.85-5.5-6.92-1.27-.7-5.18.7-5.76-.62-.17-.39.94-.94,1-1.36a3.66,3.66,0,0,0-.78-2.64c-.54-.4-2,0-2.7,0a11.18,11.18,0,0,0-1.81-.22,9.34,9.34,0,0,0-2.42,1.08c-.46.28-1.63.77-1.69,1.3s.7,1.47,1.12,1.34c1.53-.45.4-4.77.76-6.33.42-1.82,2.15-5.21,2.44-7.06.12-.73.41-2.4-.07-3s-1.73-.16-2.19-.48a5.1,5.1,0,0,1-1.76-2.67,7.34,7.34,0,0,1,1.74-4.17c.68-.69,2.66-1.15,3.55-1.55,1.29-.57,4-3.15,5.14-2.31.34.24-.12,1.23-.19,1.64a17.18,17.18,0,0,1-.88,4.06c-.59,1.1-2.29,3.19-3.48,3.55-2.39.73-7.49-1.06-9.8-2-3.55-1.48-9.83-6.07-12.81-8.49-2.81-2.3-6.67-10.18-10.29-10.24-3.22,0-8.5,5.68-9.42,8.76-.27.89.59,2.73.88,3.61.6,1.8,2.9,5.08,3,7,.05,1.36-2.14,3.87-1.74,5.17.46,1.52,5,2.26,5,3.84"/><path class="cls-1" d="M390.26,317.11c0-3.24-.34-9.77-1.21-12.89a40.63,40.63,0,0,0-3.65-7.54c-1.16-1.9-5.93-5-5.38-7.13,1-4,11.11-7.58,15.22-6.86,1.45.25,3.14,3.11,4.25,4.09a53.87,53.87,0,0,0,5.13,4.07,26.89,26.89,0,0,0,5.12,2.34c1.85.52,5.74.56,7.63.91s5.94,2,8,2a9.48,9.48,0,0,0,1.17-.28c1.41-.26,4.28-1,5.68-.73a15.51,15.51,0,0,1,6.5,3.89c.38.47,1.28,1.89.82,2.3-1.37,1.21-4.8-2.8-6.55-3.34-.92-.28-3.19-1.24-3.8-.5s.77,3.47,1.42,4.42c.87,1.26,3.9,2.57,4.77,3.83,1.32,1.92,1.25,7.17,2.85,8.86s6.59,2.81,8.89,3.42c1.47.39,4.77,0,6,.89s2.36,3.76,2.65,5.19c.51,2.41,1.51,8.55-.6,9.83-1,.59-3.14-1.31-4.14-1.86-.6-.33-1.64-1.76-2.29-1.53-2.3.79-2.23,7-3.07,9.24-1.05,2.86-3.8,8.33-4.57,11.27a29.38,29.38,0,0,0-.51,4.2c-.08,1.2-.81,3.89,0,4.81a.94.94,0,0,0,.92.15c.58-.47-.54-2.71.15-3,.93-.36,1.88,2.54,2.84,2.79s2.94-.82,3.93-1.07c.63-.16,2-.94,2.51-.59,1.41.88.84,4.95,1.43,6.5a40.79,40.79,0,0,0,4.61,8.2c.62.78,2,2.38,3,2.69,3.06,1,12.85,2,12.85-1.27M462.39,313.9"/><path class="cls-1" d="M323.07,240.93c0-12.31-5.2-37.35-1.86-49.2.74-2.62,3.49-8.1,6-9.07s8,1.74,10.53,2.7c2.91,1.09,8.28,4.27,11.08,5.61,3,1.42,9.29,3.65,12.1,5.4,1,.64,3.77,1.89,3.73,3.1-.13,4.19-9.79,8-13.56,9.86a41.15,41.15,0,0,1-11.58,3.21c-2.59.15-7.84-2.56-10.26-1.62a5.31,5.31,0,0,0-2.59,3.27c-.09,2.09,3.45,5.26,4.64,7,1.61,2.35,5.91,6.53,6.57,9.3.71,2.94.91,10.54-1.75,12-2.34,1.27-7.49-2.94-9.65-4.48-2.95-2.11-7.63-7.75-10-10.46-3.27-3.68-11.18-10.49-12.45-15.24-.74-2.76,1.68-8.42,1.85-11.27.28-4.63.14-14-.79-18.54s-4.82-13-6.59-17.28c-1.67-4.05-5.13-12.12-7.11-16-1.3-2.54-5.69-7-5.69-9.89"/><path class="cls-1" d="M428.42,168.26c0-1.63,3.07-3.82,3.91-5.21.5-.83,1-2.77,1.66-3.48.38-.4,1.72-.57,1.93-1.09,1.07-2.61-2.95-8.06-3.08-10.88-.1-2.27,2.09-6.7,1.66-8.93-.27-1.41-1.78-4.22-3.07-4.85a2.89,2.89,0,0,0-1.32.13,13.49,13.49,0,0,0-2.41.76c-1.65.8-5.14,2.58-6.05,4.18-1.48,2.6-1.14,9-.83,11.93.4,3.73,4.1,10.66,4.16,14.41,0,1.26-1,3.66-1.26,4.89a59.68,59.68,0,0,0-1.45,6.4,59.49,59.49,0,0,0,.37,11.24c.52,3.31,3.29,9.58,3.68,12.91a11.74,11.74,0,0,1-.14,3.65c-.46,1.46-1.93,4.48-3.29,5.17-2.41,1.23-8.1-.85-10.8-.67-1.46.1-4.86,0-5.73,1.12-1.06,1.42.2,5.34.66,7.05s3,4.83,3.05,6.66c0,2.56-3,7.07-4.05,9.41-.52,1.14-1.53,3.45-2.15,4.54-2.56,4.59-14.34,13.2-11.49,17.61,2.15,3.35,12.79.25,15.74-2.42.59-.53.81-2.27.81-3.06,0-4.92-2.66-14.72-5.08-19-.42-.73-1.51-2.58-2.34-2.42-2.14.43-3.1,6-3.19,8.14,0,.93.88,2.66,1.09,3.57.17.7-.17,2.52.48,2.81,1.15.53,3.09-2.42,4.34-2.66,3.15-.59,9.44,1.87,12.62,2.2,3,.31,9.33,1.57,12.13.4,1.91-.8,4.19-4.59,5.62-6.1,1.15-1.22,3.25-3.91,4.65-4.83,3.33-2.17,11.3-3.84,14.92-5.46,2.18-1,6-4.58,8.39-4.48,3.1.12,9.31,3.81,10.43,6.7.71,1.82-2,5.59-2,7.54"/><path class="cls-1" d="M482,238.63a60.82,60.82,0,0,1,.76-8.3c.25-1.31.71-4,1.47-5.12a6.57,6.57,0,0,1,3-2.25c1.34-.22,4,.92,5.15,1.68,1.64,1.13,4,4.47,5,6.2,1.37,2.39,2.73,7.81,3.9,10.31.83,1.77,1.95,6.37,3.85,6.8,3.8.86,10.53-5.73,12.78-8.91,1.69-2.4,2.92-8.39,3.1-11.32.15-2.35-1-7-1.35-9.33s-1.18-7.37-1.35-9.84c-.27-3.79.8-11.48,0-15.19-1.2-5.42-7.5-14.89-9.36-20.12a60.47,60.47,0,0,1-1.85-7.3c-.53-3-1.77-9.1-1.27-12.1.58-3.51,3.95-10,6-12.91,1.42-2.06,4.49-7.34,7-7.17,3,.21,4.41,8.26,7.06,9.63,2.08,1.06,7,.31,9.36.09,3.19-.3,9.36-2.52,12.57-2.54,1.47,0,4.68.12,5.8,1.09,1.5,1.31,2,5.63,2.55,7.56a37.42,37.42,0,0,1,1,5.35c.19,2.89,2.19,11.7-.7,11.55-1.49-.07-.55-4.68.22-6s3.47-2.44,4.82-2.77a4.55,4.55,0,0,1,2.59.08c.48.31.65,1.6,1,2,1.14,1.26,4.52,2.49,5.72,3.69a9.08,9.08,0,0,1,2.11,3.3c.15.86.13,3.44-.74,3.41s-.8-2.28-.49-3c.16-.37,1.23-.5,1.38-.88.55-1.38-1-4.36-1.48-5.77-.24-.72-.93-2.07-1.2-2.78-.7-1.83-1.55-5.7-2.45-7.44a30.39,30.39,0,0,0-4.59-6.22c-1.89-1.74-8.74-2.87-8.74-5.45"/><path class="cls-1" d="M572.24,354.74c0-2.37,6.88-1.81,9.23-2.09a46.47,46.47,0,0,1,9.79-.15c1.16.2,3.71.67,4.42,1.61,2.19,2.86-1.35,11.77,1.16,14.34.66.66,2.9-.06,3.73.37.64.34,1.31,1.78,1.9,2.21a25.9,25.9,0,0,0,7.39,3.32,18.65,18.65,0,0,0,3.43.12c1.67,0,5-.25,6.67-.43a52.86,52.86,0,0,0,7.1-1.06c1.37-.4,3.85-1.9,5.2-2.38s3.7-1.62,4.92-1.27c1,.3,2.27,2.32,3,3.14,1.22,1.46,3.45,4.55,4.56,6.09.32.46,1.24,1.29,1.26,1.84.06,2.15-3.85,5.29-4.45,7.35-.45,1.55-1.14,5.19-.14,6.46s4.56.9,6,1.34c.37.1,1.28.87,1.45.53,1.94-3.93-12.45-5.68-14.79-9.38-3.39-5.37-2.74-18.9-3.09-25.25-.16-3,.21-9,.14-12,0-2.49,1.7-8.88-.55-9.94-2.72-1.29-8,4.68-9.72,7.12-.65.89-2.17,3.41-1.38,4.17,1.65,1.59,6.53-2.17,8.56-3.23,1.63-.86,6-2.33,6.06-4.17s-4.19-3.78-5.86-4.59c-2-1-6.72-1.12-8.75-2.1a13.81,13.81,0,0,1-3.33-2.62c-.94-1.1-3-3.62-2.82-5.05.24-2.1,4.33-4.63,5.68-6.26a37.33,37.33,0,0,0,3.43-4.52c1.54-2.87,3.35-9.18,4.34-12.28a36.57,36.57,0,0,0,1.75-6c.33-4.11-1.42-12.29-2-16.37-.33-2.3-1.27-6.88-1.52-9.19-.27-2.54-.49-7.65-.49-10.2"/><path class="cls-1" d="M590.64,252c0-4.37,2.48-12.87,3.22-17.17.39-2.28,1.85-6.85,1.42-9.12-.34-1.78-3.2-4.51-3.68-6.26-.62-2.29,0-7.11,0-9.48,0-2.64.4-7.92.27-10.56-.2-4-1.87-12-2-16.06,0-.91,1.1-3.4.22-3.61-3-.71-4.29,8.41-4.85,11.47-.44,2.38-.4,7.39.37,9.69.55,1.66,2.52,4.79,4,5.76.67.44,2.38.43,3.15.66,1.78.52,6,1,6.93,2.68.7,1.31-1.3,4.31-1.3,5.79,0,2.25,1.41,6.61,2,8.78a38.41,38.41,0,0,0,2.18,6.41,25.89,25.89,0,0,0,5.36,6.07,15.13,15.13,0,0,0,4.75,2c2.07.35,6.3-.88,8.36-.52,1.45.25,4,1.94,5.4,2.34a26.46,26.46,0,0,0,6.49.91,35.23,35.23,0,0,0,7.56-2,26.16,26.16,0,0,0,5.71-2.82c1.54-1.25,3.6-4.75,4.88-6.27s4.92-4.32,5.7-6.3c.6-1.52-.08-4.91.11-6.53.25-2,1.61-5.93,1.8-8s-.42-6.35-.3-8.46,1.22-6.53,1.34-8.73-.23-6.83-.38-9.1c-.14-2.08-.63-6.22-.78-8.29-.07-1-.1-3.1-.19-4.14-.11-1.42-.4-4.26-.64-5.66a86,86,0,0,0-2.51-11.26,58,58,0,0,0-5.17-10c-1.36-1.95-4.31-5.91-6.41-7-1.85-1-6.29-.81-8.33-1.33-1.38-.35-5.36-.46-5.36-1.88"/><path class="cls-1" d="M506.07,288.66c0,2.51,8,5.2,9.54,3.19,1.64-2.16-4.5-6.78-6.11-9-.42-.55-1.74-1.47-1.74-2.17m2.56-7.64c0,3.41,3.27,9.74,3.61,13.12a6.13,6.13,0,0,1-.13,1.86,6.73,6.73,0,0,1-1.66,2.83c-1.48,1-5.28,1.14-7.07,1.09a19.7,19.7,0,0,1-5.74-1.24,2.61,2.61,0,0,1-.9-.71,5.89,5.89,0,0,1-.79-3.54c1.45-4.55,10.35-9.94,14.13-12.85,1.19-.92,4-2.19,5.06-3.28.28-.29,1.16-1.18.82-1.39-1.83-1.16-3.9,5.24-4.81,7.21-1.18,2.55-2.4,8.08-3.05,10.82-.56,2.33-1.44,7.05-1.84,9.42a44.3,44.3,0,0,0-.94,6.95,15.79,15.79,0,0,0,.49,2.09c.25,1.09.77,3.26,1,4.35a25.63,25.63,0,0,0,.49,3.75,22.56,22.56,0,0,0,2.13,3.05,33.4,33.4,0,0,0,2.38,3.78c1.09,1.13,4.37,2.21,5.21,3.55s.58,5.12,1,6.78c.23.91.35,3.72,1.27,3.54,1.07-.2.86-3.91-.14-4.35-.81-.35-2.3,1.52-2.7,2.31a8.41,8.41,0,0,0-.31,4.91c.38,1,2.46,2.16,3.06,3.06a32,32,0,0,1,1.76,4.42,43.62,43.62,0,0,1,2.27,5.72,28.66,28.66,0,0,1,0,5.48c-.09,1.35-.89,4-.71,5.38a13.7,13.7,0,0,0,1.73,4.26c1.11,1.69,4.67,4,5.64,5.79s1.76,6,1.89,8.06a14,14,0,0,1-.56,5.09c-.42.91-2.71,1.89-2.78,2.89-.09,1.26,1.69,3.94,2.93,4.07,4.89.52,14.61-8.25,14.61-13.16"/><path class="cls-1" d="M710.56,253.3c0-3.43,6.76-8.1,7.62-11.43.4-1.52-.91-4.77-.49-6.3,1-3.72,6.68-9.45,8.86-12.63,2-2.86,5.39-8.92,7.68-11.51a50.94,50.94,0,0,1,9.37-8.05c2.55-1.45,11-.85,11.11-3.79.11-5.37-16.14-4.05-20.06-7.73-3.06-2.88-3.09-13.76-7-15.29-1.95-.76-5.79,2.42-7.71,3.26S714,183,711.8,183.5c-1.94.42-6.32,1.21-7.93.06-1-.69-.42-4.14-1.55-4.55-.81-.29-2.29,1.21-2.91,1.8-3.71,3.48-6.82,15.43-11.78,16.62-.83.2-2.27-2-3-1.61-1.43.67-.52,4.85-1.39,6.16s-4.25,2.5-5.23,3.77c-.84,1.09-2.05,3.76-2,5.13.1,2.16,3.37,5.65,3.86,7.76.43,1.85-1.94,7.54,0,7.61.89,0-.4-2.94.24-3.57.88-.88,3.81.08,5-.32a16.79,16.79,0,0,0,6-4c1.15-1.52,1.56-5.51,2.41-7.21a18.14,18.14,0,0,1,3.14-4.56c2-1.66,7.61-2.4,9.37-4.28,1.93-2,3.08-7.84,4-10.49s1.72-8.83,3.57-11.08c1.66-2,7.36-3.23,9.19-5.11,4.13-4.25,9.18-15.36,10.95-21,1.31-4.21.54-13.41,2.19-17.5.6-1.48,2.35-4.49,3.82-5.08,2.94-1.18,9.44,1.27,12.51,2.05,2.28.58,8.89.74,8.89,3.1"/><path class="cls-1" d="M222.43,908.62c0-2.9,1-8.64,1-11.53s.49-8.61-.6-11.18c-2-4.64-14-9.75-13.69-14.77.15-2.36,5.29-4.76,7.26-6.08,1.59-1.06,5.26-2.38,6.78-3.53a55,55,0,0,0,5.54-5.87c.63-.72,2.13-2,2.44-3,.5-1.47-.21-4.67-.21-6.23,0-2.64,1-8,.31-10.58-.8-2.73-4.23-7.59-6.41-9.43a16.33,16.33,0,0,0-6-2.75c-.57-.09-1.78.55-2.3.29-3.35-1.67-9.45-9.82-7.46-13,1.08-1.72,6.14,0,8.09.59,2.68.79,8.11,3.14,9.83,5.36,2,2.55,2.52,9.33,3.13,12.49.64,3.36,1.22,10.19,1.8,13.55.66,3.86,2.84,11.42,3.23,15.31a72.15,72.15,0,0,1-.07,9.64c-.28,3.58-1.5,10.67-2.14,14.21-.27,1.47-1.22,4.37-1.27,5.87,0,1.05.55,3.09.63,4.14.12,1.77-.19,5.32,0,7.09.23,2.81,1.46,8.34,1.94,11.12.52,3,.59,9.42,2,12.13,1.84,3.42,11.34,6.73,11.34,10.61"/><path class="cls-1" d="M196.74,392.37c0-10.07,8.68-29.26,8.76-39.33,0-4.53-4-13.22-3.68-17.74.08-1.29,1.31-3.65,1.68-4.89,1.46-4.75,2.79-14.81,5.14-19.18,2-3.73,8.06-9.87,11.25-12.66,3-2.63,10.55-6,13.28-8.93,3.25-3.48,6.71-12.64,9.53-16.47.13-.18.37-.65.58-.64,1.39,0,4.06,3,3.57,4.27-2.06,5.46-17.28,3-23.09,3.57-3.09.31-9.63-.72-12.42.64-2.11,1-6,4.76-6.15,7.1-.45,5.55,8.32,14.54,11.69,19,4.49,5.9,13.69,18.12,20.16,21.74,3.48,1.94,11.86,1.88,15.65,3.09a7.53,7.53,0,0,0,1,.46c2,.25,6-1,8-1.43,3.44-.75,13.65,0,13.65-3.51"/><path class="cls-1" d="M98.06,370.08c0,3.1,9.54,2.14,11.55,4.5,1.56,1.83,2.89,7.17,2,9.41-1.18,3-10.58,4.15-10.58,7.38"/><path class="cls-1" d="M93.51,380.85c0-3.32-3.08-9.49-3.71-12.75a55.86,55.86,0,0,1-1-9.9,45.18,45.18,0,0,1,1.92-9.55c1-2.78,4.21-7.8,5.5-10.46,2.25-4.65,6.07-14.26,8.41-18.86,3.55-7,11.42-20.47,15.6-27.06,3-4.7,14.54-13,12.72-18.29-.78-2.22-6.91-3.79-9-2.74C119,273.7,113.77,287.1,116.39,292c.19.34,1.32,0,1.54.35,2.17,3.16-1.07,11.48-2.1,15.17-1,3.46-6.23,9.66-5.68,13.22.45,3,5.42,7.47,7.91,9.21,4.14,2.87,15.09,3.68,18.9,7,3.6,3.12,7.6,12.24,9.1,16.76s2.64,13.8,2.64,18.47"/><path class="cls-1" d="M442.45,877.94c0-1.09,1.22-3.15,1.08-4.24a8.81,8.81,0,0,0-2.18-3.83c-3.58-3.28-15-4-17.63-8.11-1.39-2.14,1-7.91-.17-10.19-1-2.09-5.69-4.1-7.3-5.77-1.33-1.38-3.25-4.77-4.54-6.18-1.78-2-6-5.19-7.89-7-1.06-1-3.4-2.9-4.06-4.21a14.93,14.93,0,0,1-1.14-6.6c.28-1.91,2.42-5.28,3.43-6.92.71-1.16,2.79-3.09,3.27-4.37a8,8,0,0,0,.18-2.13,11.52,11.52,0,0,0-.38-3.48c-.12-.24-.88-.52-.75-.76s1.58,0,1.51.37c-.28,1.6-4.82-1-6.42-.73a20.74,20.74,0,0,0-6.22,2.76,7.94,7.94,0,0,0-2.34,2.35,5.81,5.81,0,0,0-.07,3.07c.5,1.54,2.82,4,3.92,5.17s4.06,3.57,5.36,4.82c1.5,1.43,4.68,4.18,5.83,5.91,1.75,2.65,3.67,8.8,4.84,11.75,1.08,2.7,3,8.22,4.17,10.86a77.2,77.2,0,0,0,5.31,9.91c1.74,2.4,6.36,6.26,8.19,8.6a73.58,73.58,0,0,1,5.91,9.18c1.2,2.34,2.72,7.41,3.83,9.8,1.21,2.62,4,7.66,5.5,10.14s4.66,7.17,6.23,9.55c1.46,2.21,4.56,6.49,5.86,8.79s2.1,8.58,4.56,9.61c3.42,1.44,14-1.13,14-4.85"/><path class="cls-1" d="M605.05,522.58c0-16.43,21.36-44.87,24.42-61,1.08-5.72,2.77-18.25-.15-23.28-5.49-9.46-26.9-22-37.83-21.94-4,0-14.18,4.23-13.63,8.16,1.59,11.4,34.91,5.54,44.48,11.95,15.3,10.25,44.77,40.11,44.77,58.54"/><path class="cls-1" d="M501.72,481.38c0,2.65,8-.43,10.59,0,1,.18,2.88,1.25,3.91,1.37.33,0,1-.28,1.34-.13,1.88.91,4.49,4.95,4.49,7"/><path class="cls-1" d="M501.44,488c0-1.9,1.78-5.43,2.37-7.24s1.8-5,2.25-6.75c.37-1.41.79-4.32,1.11-5.75.21-.95.76-2.83.92-3.8.23-1.36.33-4.12.51-5.49.15-1.12.5-3.34.76-4.44.18-.76.18-2.73.92-3,1.1-.39,2.82,2.1,3.85,2.64.61.33,2,.62,2.55,1s1.25,1.7,1.85,2c.31.17,1.12.45,1.39.23.68-.56.12-2.65.13-3.53,0-1.56-.12-4.67-.06-6.23s.52-5.09.62-6.79.21-5.24.24-7c0-1.29,0-3.87,0-5.16-.06-1.66-.32-4.95-.39-6.6s-.61-4.59-.14-6c.4-1.19,2.42-2.92,3.1-4s1.29-3.31,2.1-4.15a10.65,10.65,0,0,1,3.86-2.12,11.1,11.1,0,0,1,4.41,0c1.29.39,3.37,2.24,4.53,2.93a44.37,44.37,0,0,0,5.37,2.83,17.35,17.35,0,0,0,4.26.87c1.48,0,5.84.48,5.84-1"/><path class="cls-1" d="M518,506.43a33.21,33.21,0,0,1-1,6.73c-.47,1.65-1.29,5.32-2.7,6.27a6.36,6.36,0,0,1-5,.05c-3.2-2-4.89-10.25-6.37-13.74-.92-2.17-3.38-6.44-3.38-8.8"/><path class="cls-1" d="M766.92,520.34c0-3.76-11.1-2.06-14.78-2.83s-11.18-2.64-14.94-3.34c-3.05-.56-9.3-.91-12.27-1.8-4.34-1.3-15.21-3.31-16.4-7.67-.62-2.27,3.5-6.27,5.31-7.78,1.55-1.28,5.34-3.14,7.35-3.25,2.43-.14,9.19.47,9.3,2.9.11,2.65-7.24,3.43-9.82,4-3.73.85-11.46.93-15.28.88-2.62,0-8,.18-10.45-.88s-7.22-4.49-7.56-7.06c-.84-6.3,11.3-15.61,13.44-21.6,1.35-3.8,3.19-12.12,2.08-16-1.2-4.23-8.85-9.84-11.12-13.61a54.9,54.9,0,0,1-4.27-10.19c-.92-3.3-2.61-10.2-2-13.57.23-1.24,1.88-3.28,2.48-4.39s1.75-3.37,2.3-4.52a43.16,43.16,0,0,0,2.3-5.21c.1-.35-.08-1.2.18-1.46,1-1,5-1.87,5.52-.61.64,1.44-3.51,3.14-4.69,4.18-.6.53-2.31,1.33-2.42,2.12-.35,2.38,3.42,6.44,5.15,8.11,4.39,4.24,15.4,10.07,21,12.4,2.29.94,8.45.25,9.58,2.45s-3.61,6.77-3.61,9.26"/><path class="cls-1" d="M371.13,524.08c0-8.25-23.95-6.41-31.62-9.45-3.93-1.56-11.75-5-15.13-7.57-2.66-2-9.45-6.42-9-9.71.55-4.5,10.79-8.83,15.19-9.87,1.67-.4,5.16,1.15,6.83.76,2-.47,6-2.57,6.85-4.44,2.21-4.94-1.59-16.27-3.39-21.37-.93-2.61-4.17-7.18-5.53-9.59-1.63-2.92-4.2-9.22-6.41-11.72-.85-.95-3.39-4-4.16-3-2.44,3.22,10.86,6.44,12.6,10.09,2.8,5.88,1.36,19.74-.17,26.08-.65,2.69-4.32,7.2-5,9.88-1.22,4.89,0,15.12-.42,20.13-.29,3.4-.11,10.64-2,13.47-1.08,1.64-5.93,2.26-6.71,4.07-.2.46.86,1.72.42,2-1.17.69-3.37-2.39-4.1-3.54-2.1-3.33-3.77-11.28-4.19-15.2-.46-4.25-.24-13,.95-17.09a40,40,0,0,1,6.71-12.09c2.31-2.48,8.6-5.42,11.36-7.38,1.63-1.16,5.68-3,6.33-4.92,1.84-5.4-2-17.72-5.67-22.13-5.12-6.19-21.56-10.84-29.06-13.73-2.76-1.07-9.09-1.5-11.34-3.43-3.49-3-7.15-12-7.95-16.56-.66-3.68-1-12.05,1.42-14.87,3.48-4,20.63.31,20.63-5"/><path class="cls-1" d="M240.61,489.14c0-2.54-1.7-7.44-2-10-.69-6.84-1.63-20.77-.21-27.5.69-3.22,6.78-9,5.42-12-.52-1.15-3.58-1.4-4.85-1.46-1.73-.07-5,1.4-6.77,1.44-4.38.1-13.37-.91-17.3-2.86-2-1-4.72-4.92-6.56-6.22-2.29-1.62-7.75-3.38-10-5.07a23.32,23.32,0,0,1-4.1-4.49c-1.22-1.91-4.16-6.17-3.52-8.34.31-1,2.57-1.93,3.53-2.38a38.32,38.32,0,0,1,8.12-2.42c2.14-.31,6.77-1,8.68,0,3.08,1.65,6.14,8.53,7.74,11.63s4.4,9.3,4.86,12.66a15.2,15.2,0,0,1-.5,5.41c-.79,2.26-5.06,5.58-5.31,8-.46,4.35,3.75,12.85,6.5,16.26,2.88,3.58,11.32,7.86,15.2,10.32,2.53,1.6,8,4.23,10.3,6.1,1.57,1.27,4.68,4.08,5.53,5.92.71,1.56.79,5.11.74,6.83a56,56,0,0,1-1.35,7.67c-.57,2.53-2.15,7.49-2.8,10-.7,2.71-2.6,8.09-2.6,10.89"/><path class="cls-1" d="M86.94,517.52c0-3.56,8.29-6.86,11.46-8.49,2-1,6.68-1.62,8.62-2.8a25.82,25.82,0,0,0,6.55-6.51c2.57-4.35,3.91-14.65,5.57-19.42,1.3-3.73,3.18-11.87,6-14.63,1.38-1.35,6-1.28,7.2-2.76s1.51-5.84,1.48-7.84c-.12-9.29-4.61-27.62-7.9-36.31-.69-1.81-2.35-5.44-3.77-6.75-.31-.28-1.23-1-1.53-.69-1.15,1.18,2.54,4.32,2.94,5.93a34.27,34.27,0,0,1,.39,10c-.25,1.76-1.86,5-2.24,6.75-.07.28.11,1-.13,1.13-1.17.78-4.07-1.06-5.37-1.6-1.74-.72-4.77-3.89-6.63-3.59-1.38.23-3,2.93-3.83,4.09-1.3,1.89-3,6.18-4,8.26-1.66,3.66-7.92,11-6.41,14.73.19.49,1.41.88,1.93.8,2.12-.3,4.58-5,6.7-5.35,3-.42,8.25,3.43,11,4.57,2.5,1,7.37,3.52,10,4.14,2.24.52,6.91.16,9.17.58a58.08,58.08,0,0,1,7.49,2.36c2.49.94,7.72,2.6,9.7,4.38,1.25,1.13,2.72,4.27,3.39,5.81,1.43,3.29,3.09,10.31,4.12,13.75.66,2.21,2.63,6.53,2.63,8.84"/><path class="cls-1" d="M86.68,658.26c0-2.72,2.15-7.89,2.76-10.55.38-1.66.92-5,1.32-6.66a37.63,37.63,0,0,1,1.42-4.9c.64-1.44,2.59-4,3.34-5.37.59-1.09,1.45-3.44,2.07-4.52.43-.73,1.48-2.06,2-2.73,1.37-1.82,5.36-4.92,5.62-7.18.18-1.56-1.76-4.4-2.64-5.7-1.11-1.65-4.91-3.9-5.44-5.82-.61-2.23,1.38-6.8,2-9,1.19-4.17,5.54-12,5.69-16.39.19-5.71-4-16.69-6-22A87.72,87.72,0,0,0,93,545.66c-1.4-2.21-4-9-6.48-8.18-4,1.3-2.72,13.12-.54,16.68.74,1.23,4.14,1.48,5.18,2.47,1.73,1.63,3.23,6.36,4.57,8.32.93,1.35,2.71,4.4,4.23,5,3,1.23,9.83-.22,12.91-1.23,3.4-1.12,8.74-6.74,12.26-7.38,1.78-.33,5.32,1,7.1,1.3,2.21.36,7.93-.75,8.88,1.28.5,1-2.2,2.83-2.42,4-.25,1.35,0,4.46.95,5.44,1.3,1.31,5.41,1.18,7.25,1.35a45.44,45.44,0,0,0,7.56,0,71.39,71.39,0,0,0,7.54-2.08c2-.57,8-.29,8-2.37"/><path class="cls-1" d="M301.75,769.64c0,.66.95,1.76,1.37,2.29a56.8,56.8,0,0,0,6.35,6.25c1.34,1.12,4.31,3,5.71,4a32.42,32.42,0,0,1,3.38,2.69c1.1,1.19,2.38,4.38,3.67,5.36,1.76,1.34,6.17,3,8.38,2.85,1.4-.06,4.8-.91,5.16-2.28.19-.73-1.28-1.91-1.84-2.42s-2.52-.8-2.33-1.46c.29-1,3.67,1,4,.08.06-.17-.5-.28-.6-.43-1.5-2.34-1.39-8.22-2.21-10.87-1.59-5.16-6.57-14.82-8.34-19.93-1.09-3.13-3.43-9.48-3.57-12.8-.12-2.93,3-8.71,2.23-11.54-.34-1.23-2.19-3.49-3.43-3.81-3.06-.77-10,1.7-11.89,4.24-1.45,2-1.28,7.57-.33,9.84s5,7.06,7.62,7c4.4,0,9.83-8.84,12.81-12.08,2.13-2.31,6.82-6.86,7.83-9.83.83-2.42-.46-7.7-.14-10.24.38-3,3-8.69,3.17-11.72a50.4,50.4,0,0,0-1.81-13.59c-.74-2.37-3.31-6.68-4.52-8.84-1.43-2.56-5.28-7.21-6.09-10a30.3,30.3,0,0,1-.15-11.43c.63-2.68,5-7,5-9.79"/><path class="cls-1" d="M477.12,581.62c0,10.19-25.23,17.48-34.54,21.63-7.93,3.54-28,2.78-33.41,9.58-5.82,7.35,3.07,29.49-1.87,37.46-.24.4-1.39,1.32-1.63.92-1.73-2.84,9-4.72,11.13-7.3a11.61,11.61,0,0,0,2-5.19c.06-3.26-4.54-9.07-4.28-12.32.79-9.78,14.92-25.44,18.67-34.5s6.54-28.47,11-37c1.83-3.5,9.9-8.36,9.9-12.31"/><path class="cls-1" d="M386,540.87c0,6.74,11.88,16.39,15.32,22.19,2.37,4,6,12.56,8.36,16.58s6.48,13.47,10.57,16c3,1.85,10.57,1.93,14.1,1.55,5.3-.58,15.29-4.76,20.19-6.86,4.41-1.89,17-4.08,17-8.87"/><path class="cls-1" d="M241,642c0,7.38-29.21-3.13-29.21,4.25m1.51-8.68c0,3.2,2.65,9.32,2.65,12.52m7.63,7c0,2.48,7.09,2.49,9.57,2.6,2,.08,5.91-1.05,7.87-1.46,1.41-.29,4.22-.88,5.6-1.29a28.81,28.81,0,0,0,3.25-1.21c1.08-.53,3.54-1.47,4.11-2.53.75-1.41-.61-4.83-.27-6.39.05-.23.51-.63.43-.85-1.51-3.84-11.47-4.74-15.48-5.7-6.7-1.62-20.51-2.67-27.37-3.3-4.62-.42-16.26,2.9-18.5-1.15-.5-.91,1.28-2.87,2-3.64,2.34-2.62,8.68-6,11.51-8,2.37-1.72,7.68-4.66,9.34-7.07,1.81-2.63,2.82-9.18,3.58-12.29.72-2.9,2.54-8.73,2.35-11.7-.17-2.48-2.83-6.94-3.2-9.39a38.06,38.06,0,0,1,.31-10.66c.73-3.14,4.13-8.74,5.33-11.72.81-2,2-6.18,2.89-8.18.49-1.15,2.15-3.24,2.22-4.49.14-2.62-1.52-8.27-3.62-9.84a5.15,5.15,0,0,0-3.47-.22c-3.06,1-7.63,6-9.82,8.35-1.89,2-6,6.21-6.56,8.91-.4,1.81,1.07,5.47,1.45,7.29.22,1.07.27,3.41.93,4.29s2.76,2.51,3.45,1.82c.37-.36-1.14-1.35-1-1.83.76-1.95,5.81-3.16,7.88-2.83,1.83.28,4.43,3.34,5.86,4.5s4.54,4,6.14,5.27a11.57,11.57,0,0,0,2.83,2c1.08.28,3.34-.38,4.46-.47s4.28.77,4.83-.31c.38-.75-1.82-2-1.82-2.83"/><path class="cls-1" d="M330.66,539c0,7.24-16.36,16-17.36,23.15-.5,3.64,3,10.84,5.29,13.72,2.45,3.09,9.69,6.76,13,8.9s9.44,8.67,13.3,8.13c4.3-.6,10.46-8.61,11.77-12.75.83-2.61-3.47-9-1.45-10.86.72-.65,3.1.17,3.77.87,1,1,.53,4.29,1,5.63,1.14,3.06,8.37,8.53,6.61,11.28-1.51,2.36-8.39-.64-11.16-1.08-4.38-.71-12.94-4.77-17.29-3.93-3.86.74-12.25,5-12.93,8.91-.21,1.23,3.15,2.84,2.88,4-.52,2.37-7.18,2.7-8.43,4.78-.42.7.6,2.82-.08,3.26-1.13.72-4.35-.9-4.94-2.1s2.27-4.46,1.54-5.76c-1.74-3-10.55-2-13.51-3.86-4.44-2.83-11.62-11.15-13.81-16-1.75-3.84-5-13.4-2.38-16.73,1.18-1.51,6-1.75,7.66-.77,2.07,1.23,3.1,6.57,3.73,8.9,3,11.07,5.31,34,5.87,45.49.34,7.2-1.06,21.59-.91,28.79.08,3.67,1.08,11,1.08,14.63"/><path class="cls-1" d="M505.08,558.07c0-3.74,8.56-10,12.08-8.8,4.47,1.56,5,13.52,5,18.25"/><path class="cls-1" d="M522.89,568.59c0-1.18,1.47-3.22,2-4.26,1-2,3.69-5.71,4.43-7.84.62-1.79,1.45-5.62,1.15-7.49-.43-2.61-2.87-7.67-4.86-9.42-1.13-1-4.19-1.86-5.68-2.1-2.91-.47-9.06-.71-11.79.42-1.65.68-4.73,3.14-5.24,4.86-.93,3.16,2.42,9.6,3.28,12.79.93,3.46,3.05,10.33,3.9,13.81S512,580,513,583.39s3.69,10.48,5.15,13.88,5.06,10.28,6.72,13.71c1.56,3.23,4.74,9.66,6.17,12.94s3.87,9.84,5.17,13.11,4,9.9,5.24,13.22,3.64,10.2,5,13.55,5.83,10,5.83,13.66"/><path class="cls-1" d="M645.72,645.54c0-2.07-2.72-5.68-3-7.73-.33-2.33.53-7,.87-9.37.2-1.33,1.78-4.12,1.09-5.28-.27-.45-1.8-.11-2-.59-1.63-3.31,5.1-10.07,5.34-13.76.1-1.51-1.12-4.41-1.44-5.89-.39-1.76-1.18-5.3-1.38-7.09-.87-7.83-8.68-30-.95-31.48,1-.19,1.28,2.84,1.37,3.86.12,1.23,0,3.93-.74,4.91s-3.61,1.52-4.8,2.07c-1,.45-2.89,2.22-3.95,1.92-2-.56-3.44-5.24-4.48-7.05a63.89,63.89,0,0,1-3.46-6.8c-.44-1.17-.89-3.65-1.21-4.86-.22-.82-1.59-2.74-.94-3.29.38-.31,1.5.45,1.76.86.73,1.15-.46,4.18.06,5.44.62,1.53,3.2,3.85,4.59,4.76,1.65,1.07,5.64,1.82,7.39,2.73,1.91,1,5,4.32,7.06,5,1.76.55,6.11,1.27,7.37-.07.47-.5-.2-2-.14-2.72.3-3.49,5.06-10.8,3-13.66-3.69-5.27-19.14-2.57-25.53-3.31-3.27-.39-10.05-2.58-13.12-1.37-1.88.74-4.07,4.5-5.32,6.09-2.59,3.29-6.66,10.75-9.64,13.69-1.73,1.73-6.16,4-8,5.56a56.54,56.54,0,0,0-5.65,5.51,51,51,0,0,0-4.11,6.25c-1.05,1.92-3.53,5.81-3.53,8a6.89,6.89,0,0,0,1.45,3.28c1.54,1.73,5.85,3.81,8,4.71,1.69.72,6.23.32,7.08,1.95.2.38-.25,1.34-.57,1.63-1.37,1.22-5.61.65-7.15,1.63-4.3,2.74-7.73,14.36-12.52,16.1-3.3,1.2-13.71.53-13.71-3"/><path class="cls-1" d="M760.61,659c0-4.9-4.3-14.33-7.33-18.19s-13-7.7-16.11-11.6c-3.78-4.8-7.76-16.68-9.21-22.61-1-4.17-1.52-12.8-1.57-17.1,0-3,1.3-9.05.82-12s-4.87-7.82-4.34-10.65c.22-1.17,2.47-2.57,3.26-3.46,1.62-1.83,4.63-5.68,6.27-7.48,2.18-2.38,6-8.46,9.11-9.15,3.79-.84,14.51,1.52,14.53,5.39,0,2.45-6.91,2.48-9.13,3.5-4.7,2.17-13,10-18.18,9.9-9-.14-34.3-9.8-31.21-18.3.73-2,6.35,1,8.46,1.43,4.7.91,14.08,2.87,18.69,4.14,2.77.77,8.86,1.61,10.89,3.63,2.69,2.67,4.54,10.58,4.88,14.35.09,1-1.57,3.71-.6,4,1.56.5,4-4.56,3-5.83-3.51-4.3-16,7-21.41,6-3.84-.73-10-6.42-12.5-9.41-1-1.18-1.84-4.28-2.82-5.47a8.16,8.16,0,0,0-1-.81,18.43,18.43,0,0,0-2.19-1.77c-2.76-1.41-9-2.42-12-3.19-5.93-1.52-23.78.3-23.78-5.82"/><path class="cls-1" d="M181.52,766.87c0,.85,2.54.2,3.39.28,3.19.3,10-.31,12.73,1.36,2.89,1.77,5.11,8.88,7.44,11.33.86.9,2.77,2.77,4,2.91,2.14.25,6.57-1.65,7.92-3.32,1.77-2.2,1.95-8.28,2.08-11.09.11-2.3-1.31-6.91-.86-9.16A22.93,22.93,0,0,1,222.6,751c2-2.13,7-5.51,9.85-6.22,2.21-.55,7.34-.82,9.09.65,1.35,1.12,1.73,5.06,1.72,6.81,0,3.9-.39,13.43-3.92,15.08-1.08.5-3.13-1.79-4.29-2-1.52-.33-4.67.31-6.21.12-4.32-.54-13.34-1.95-16.79-4.59-1.87-1.43-4.13-5.85-4.78-8.11-1-3.5-.22-10.93-.46-14.57-.2-3.19-2.51-9.79-1.24-12.73.52-1.21,3-2.68,4.19-3.24,1.92-.9,6.29-1.08,8.26-1.85,2.72-1.07,7.33-5,10.1-5.91a20.46,20.46,0,0,1,2.24-.29,32,32,0,0,0,4.41-1.12,39.62,39.62,0,0,0,7.8-4.52,16.58,16.58,0,0,0,3.74-4.37c.71-1.61.56-5.27.84-7a29.77,29.77,0,0,1,.92-4.39c.43-1.14,2.76-3.06,2.4-4.22-1.7-5.41-20.48-4.09-20.48-9.77"/><path class="cls-1" d="M384.58,772.23c0-3.56,8.82-7.65,12.36-7.15,5.89.83,10.57,16.59,16.49,17.16,6.33.62,22.77-8.52,20.84-14.58-.35-1.07-4.5-1.09-4.5,0"/><path class="cls-1" d="M431.18,759.48c0-3.31-9.75-6.68-8.81-9.84.33-1.14,3.37-1.28,4.55-1.25,3.91.1,12.22,2,14.89,4.89,1.69,1.8,2.94,7.17,2.45,9.59-.27,1.31-2,3.76-3.22,4.24-3.22,1.26-12.1.69-13.59-2.42-2.15-4.49,7.22-13.05,9.53-17.46,2.17-4.13,5.68-12.88,8.39-16.68,2.87-4,9.44-11.8,13.79-14.11,2.69-1.42,9.95.11,12-2.16.62-.7.3-2.8.22-3.73-.19-2.26-.63-7.08-2.07-8.84-.89-1.08-4-1.48-5.11-2.33s-2.22-3.27-3.3-4c-1.8-1.18-6.14-2.22-8.29-2.36-7.93-.51-23.56,3.7-31.45,4.74-6.19.81-19.56,6.17-24.81,2.79-3.27-2.1-5.58-11-4.82-14.79.73-3.66,6.05-12.14,9.69-11.33,5.65,1.27,4,17,6.09,22.37.73,1.88,3,5.27,3.65,7.18,1.28,3.81,1.62,12,2.85,15.81,1.06,3.33,6,9.13,6,12.62.06,4.25-3.83,12.58-6.88,15.55-4.22,4.11-16.13,7.35-21.81,8.93-5.89,1.65-24.18-2.31-24.18,3.81"/><path class="cls-1" d="M154.83,769.11c0-3.87-12.75-1.21-14.82-4.48-.94-1.49-.72-7.16,1-7,4,.41.7,12.39-.94,16.07-1.57,3.53-7.33,9.46-10.88,11-3.8,1.62-12.38.1-16.51.28-7,.3-20.87,1.89-27.85,1.94-1.73,0-5.86,1-6.91-.39-.45-.59.34-2.23.64-2.9a7.15,7.15,0,0,1,1.3-1.78c1.67-1.49,6.08-3,7.8-4.38,3.74-3.1,11.3-10.17,12.47-14.87s-3-14-4-18.72c-.75-3.47-.87-11.06-3-13.87-.16-.22-.76-.33-1-.5-.82-.63-2.75-2.08-2.74-3.12,0-3,6.26-6.53,8.1-8.91,2.42-3.14,5.75-10.61,8.65-13.31,3.54-3.3,12.3-7.95,16.91-9.39,3.27-1,10.45-.16,13.66-1.38,2-.75,5-3.83,6.8-4.95,2.3-1.44,6.86-5,9.57-5.13,2.46-.17,7.32,1.9,9.25,3.44,3.17,2.53,9.64,9.57,8.9,13.55-.45,2.39-6.28,3.83-7.9,5.64s-4.62,5.6-4.34,7.82c0,.25.86.54.68.72-1.9,2-6.21-5.39-8.26-7.22-1.87-1.66-6-4.65-7.42-6.72-1-1.45-3-4.91-2.38-6.53.17-.47,1.25-.91,1.75-1,1.52-.15,4.89.59,5.82,1.8,1.28,1.68,1.39,6.61.32,8.43-1.15,2-6.1,3.09-8.12,4.15-3.25,1.7-9.38,6-12.92,6.94-3,.78-9.17.17-12.23.27-4.56.16-13.67,1.07-18.23.89-4.93-.2-15.85-5.8-19.58-2.56-1.34,1.17-.06,5.34-.06,7.12"/><path class="cls-1" d="M472.11,526.43c0-4.22-11.77-4.88-15.92-5.59-7.89-1.37-24.57,2.8-32-.14-8.85-3.5-24.69-17-27.89-25.91-2.7-7.58,1.68-24.31,4.38-31.88,1.87-5.22,12.55-13.46,11.57-18.92-.73-4.06-9.84-7.53-13-10.21-1.64-1.4-6.36-3.71-6.32-5.86.07-3.36,7.61-6.6,10.21-8.73,3.63-3,10.21-10.41,14.75-11.62,5-1.34,15.55,1.87,20.63,3.06,3.86.91,11.59,3.05,15.08,4.93,1.38.75,5.27,2.41,4.91,3.94-.67,2.84-8.67,1.45-11.42,2.42a98.09,98.09,0,0,0-13.24,6.74,221.28,221.28,0,0,0-19.31,13.73c-3.46,2.85-12.17,7.92-13,12.31-.39,2,1.88,6.14,3.43,7.49,3,2.6,11.63,2.73,15.15,4.54,1.13.59,2.79,2.77,4,3.13,1.63.48,5.09-.76,6.78-.59,5,.5,16.21,1.6,19.13,5.65,2.12,2.93-1.72,11.06-.47,14.45,1.19,3.21,9.23,6.67,9.23,10.08"/><path class="cls-1" d="M330.19,1059.13s-10.63-8.78-11.07-13,7.5-10.9,8.17-15.15c.75-4.67-3.08-13.91-3.4-18.64-.36-5.39.42-16.23,1-21.6.44-4,2.42-11.82,2.76-15.81.46-5.37,1.8-16.48,0-21.54-1.45-4-6.67-13.53-10.9-13.1C310.57,940.88,303.61,956,305,962c.81,3.43,8.16,7,11.51,8.11,6.62,2.14,27.83-6.62,27.83.34"/><path class="cls-1" d="M622.29,791.47c0-2.81-2.09-8.17-2.64-10.92-.93-4.57-2.27-13.82-3-18.43-.87-5.45-3-16.31-3.4-21.82a121.1,121.1,0,0,1,.26-15.71c.35-3.37,2-10,2.57-13.31.68-3.77,1.39-11.47,2.53-15.13.78-2.53,3.42-7.16,4.47-9.59a71.34,71.34,0,0,0,3.31-8.37c.28-1.15,0-3.64.46-4.74s1.81-3.67,2.91-3.44c1.57.34,1.58,4.58,1.8,6.17a30.15,30.15,0,0,1-.12,8.54c-.32,1.27-1.91,3.43-2.46,4.61-1.24,2.71-2.78,8.55-4.34,11.08-1.45,2.36-6.22,5.73-7.37,8.24-1.55,3.36-1.78,11-1.9,14.68-.13,3.95,1.06,11.82,1,15.78a111.15,111.15,0,0,1-1.54,14.9c-.71,3.43-2.51,10.29-4.16,13.37-1,1.87-3.92,5-5.35,6.59-2,2.18-8.5,5.26-8.5,8.21"/><path class="cls-1" d="M592.82,788.05c0-2.25,4.25-5.27,5.95-6.74,1.39-1.2,4.37-3.56,6.15-4s5.23-.27,6.69.56c2.19,1.24,5.84,5.69,5.84,8.21"/><path class="cls-1" d="M581.93,790.69c0-19.82,59.85-53.84,70.18-36.93.7,1.15-4.39,1.75-4.39,3.09"/><path class="cls-1" d="M531.48,808.45c0,2.18,5.27,3.95,6.65,5.64a20.16,20.16,0,0,1,2.37,4.32c.84,2.24.9,7.26,2,9.36,1.62,3,8.37,6.35,9.54,9.51,2.53,6.79-2.19,21.65-2.19,28.89"/><path class="cls-1" d="M581.93,878.52c0-6-15.57-9.3-21.34-10.91-3.64-1-11.68.61-15.06-1.07-3.85-1.93-8.08-10.14-11.31-13a43.23,43.23,0,0,0-8.41-5.67A51.61,51.61,0,0,0,511,844.51c-4.1-.06-12.49,1.21-16.08,3.2-2.71,1.51-7.12,6.26-8.49,9-2.3,4.7-3.9,15.47-3.28,20.67.45,3.85,2.21,13.25,5.94,14.36,1.19.35,3.05-2.14,4.1-2.8,1.41-.9,4.11-3.43,5.78-3.38s4.51,2.25,5.37,3.63c2.88,4.64,1.9,16.31,2.94,21.67.5,2.6-.05,10.21,2.6,10.28,1.45,0,1.28-4.18,1.72-5.57,1-3.06,2.62-9.27,3.86-12.22.77-1.84,3.15-5.14,3.74-7,1.41-4.48,1.66-14,2.25-18.66.74-5.91,3.12-17.65,3.1-23.6s-2-17.59-3.22-23.34c-.46-2.14-2.88-6.23-2.51-8.39.29-1.78,4.22-4,4.22-5.85"/><path class="cls-1" d="M536.72,856.17c0-7.34-4.29-27.4,2.82-29.24,8.86-2.31,20.82,21,20.82,30.13"/><path class="cls-1" d="M368.54,1060.47s-15.38-11.17-17.21-16.91c-.64-2,.9-6.25,1.48-8.26.48-1.72,2.1-4.93,2.62-6.63a69.14,69.14,0,0,0,2-9.3c.38-3.39.16-10.24.12-13.65,0-2.14-1.11-6.59-.28-8.56,1.13-2.69,6.07-6.42,8.58-7.9a23.13,23.13,0,0,1,6.77-2.28c.74-.08,2.4.77,3,.3,1.4-1.17,2.27-6.5.62-7.26-.44-.19-1.57,1-1.33,1.36,2.54,4.39,14.58-4.69,19.64-5.11A23.78,23.78,0,0,1,402,977a10.49,10.49,0,0,1,2.75,1.88,41.61,41.61,0,0,1,3.82,5.36c.78,1.17,1.85,3.95,3,4.78,4.64,3.35,16.52,5.52,22.24,5.48,2.26,0,8.08-.12,8.74-2.28,1-3.25-7.51-7.14-9-10.19-1-2.09-.86-7-1.65-9.13-1.43-3.9-6.61-10.59-8.26-14.4-.8-1.85-2.46-5.7-2.37-7.72a18.78,18.78,0,0,1,3.26-8c.71-.89,2.6-2.56,3.74-2.6s3.36,3.29,4,2.31-2.47-2.47-3.37-2.07c-1.56.7-1,5.06-1.19,6.76-.3,2.38-.37,7.19-.77,9.56-.68,4.09-3,12.09-4.09,16.1-.78,2.89-3.37,8.53-3.3,11.53.07,3.46,4.1,9.68,4.41,13.12.25,2.88-2.64,8.71-1.69,11.44.67,1.92,4.33,4.32,5.93,5.59a90.26,90.26,0,0,0,7.94,5.34c4.12,2.39,13.26,5.61,17,8.5,2.4,1.84,5.17,8.13,8.05,9,2.45.77,8.52-4.46,10-2.36,1.65,2.35-3.93,8-6.3,9.61-2.7,1.85-9.64,2-12.82,2.78-2.5.61-7.43,3.41-9.92,2.75-2.66-.69-7.78-5-7.78-7.75"/><path class="cls-1" d="M768.63,704.62c0-2-5.35-2.88-7.32-3-3.29-.12-9.48,2.84-12.57,4-3.69,1.38-10.56,5.9-14.49,6.24-1.59.14-4.94-2.45-6.19-1.47s.46,5.38,0,7.09c-.6,2.16-3.75,5.64-4.58,7.73-.57,1.42-2.29,4.74-1.39,6,2.46,3.38,16.68-2.76,16.68,1.43"/><path class="cls-1" d="M771.4,723.55c0,2.85-8.91,1.31-10.91,3.35-1.65,1.67-1.77,6.83-2.61,9-1.42,3.72-5.13,10.79-6.92,14.35-3.12,6.21-8.18,19.52-12.9,24.63-2.12,2.31-7.48,6.64-10.62,6.7-3.54.07-9.47-4.94-12.29-7.1-6-4.61-16.37-15.91-21.64-21.39-4.81-5-16-14.13-18.74-20.54-1.63-3.88-.54-12.6-.95-16.79-.19-2-.93-6-1.09-8-.15-1.81-.2-5.43-.19-7.24,0-1.19.18-3.56.17-4.75s-1-3.91-.26-4.92c1.14-1.63,5.65-1.9,7.59-2.31s6.12-.77,8.16-1c2.62-.28,7.9-1.43,10.48-.94,2.07.39,5.59,2.94,7.54,3.75,4.18,1.74,13.16,3.67,17.14,5.84,5.31,2.89,13,13.87,18.95,15,4.64.86,13.42-4.6,18-5.58,2-.43,8.29,1.12,8.29-1"/><path class="cls-1" d="M512.44,789c0-19.28,25.57-54.51,23-73.62-.36-2.7-3.71-7.5-5.87-9.15-6-4.6-22.19-12.67-28.89-9.14-5.25,2.77-8,16.9-6.9,22.74,1.47,8.09,14.18,20.32,20.07,26.06,5,4.87,16.07,19,22.56,16.46,8-3.21,5.59-25.44,6.24-34.08.6-8-4.53-24.88-1-32.1,2.7-5.54,19.86-8.42,19.86-14.57"/><path class="cls-1" d="M520.11,980.9c0-3.28,1.86-9.68,2.65-12.87.36-1.45,1.66-4.26,1.66-5.75m.59-5c0,2.53-7.48,4.28-7.48,6.81m-2.17,31.8c0,3.07-1.63,9.1-1.75,12.18-.13,3.59,1.9,10.86,1,14.34-.77,2.87-4.73,7.59-6.59,9.91-1.6,2-8.86,5.54-7.08,7.38.64.66,1.83-2.28,2.73-2.48,1.19-.26,3.43,1.66,4.64,1.5s2.78-1.83,3.72-2.41c1.74-1,5.15-3.36,7.07-4,2.39-.82,7.56-.79,10-1.45,1.91-.52,5.39-2.67,7.35-3a36.45,36.45,0,0,1,13,1.05c2.31.79,6.17,3.95,8.16,5.35,2.42,1.71,7,5.52,9.44,7.14,1.52,1,5.52,1.94,6.35,3.56.69,1.33,0,4.6-.63,6-.53,1.21-3.5,4-3.5,4a94.59,94.59,0,0,0-7.87-6c-4.22-2.35-13.76-4.73-18-7-3.72-2-9.95-8-13.81-9.7-4.12-1.83-14-1.21-17.57-4-2.61-2.09-4.28-9.07-5.75-12.07-2.27-4.62-5.82-14.58-9.28-18.39-3-3.3-14.95-5-15-9.5,0-1.24,2.93-2.33,4.07-2.81,1.34-.57,4.86.05,5.71-1.13,1.13-1.58-1.5-5.83-1-7.71a10.71,10.71,0,0,1,3.52-4.88c1.42-.83,5-1.48,6.52-.81,1,.46,2.11,2.61,2.49,3.65.2.56-.18,2,.23,2.38.95,1,4.08,1.1,5.38.7,5.33-1.61,12.63-11,16.78-14.67,2.12-1.9,6.16-5.92,8.38-7.69s9.71-3.48,8.71-5.91c-4.62-11.15-37.21,15.48-47.42,9-2.49-1.57-3-8.45-3-11.4"/><path class="cls-1" d="M349.27,801.55c0,2.43,4.46,6.21,4.46,8.64m6.7,2.61c0,1,1.78,2.33,2.12,3.23,1.06,2.74,2.31,8.7,1.83,11.6-.91,5.41-6.86,15.1-10.26,19.4-1.46,1.83-5.55,4.36-7.06,6.15-2.6,3.08-6.28,10.33-8.41,13.75-1.87,3-6.06,8.8-7.6,12-2,4.09-5.54,12.62-5.92,17.14-.14,1.67,1.43,5,1.1,6.62a13.22,13.22,0,0,1-3,4.82c-1.92,1.91-6.75,4.57-9.22,5.68s-8,3.11-10.87,3.29-9.48,0-11.61-2c-3.14-3-1-13.61-3.83-16.84-.47-.53-2.28-.36-2.66-1-1.35-2.1.57-7.47.86-10s1.49-7.26,1.45-9.72c0-1.28-1.26-3.8-.91-5,1-3.39,6.15-9.29,9.48-10.44,3-1,10.65-.56,12.3,2.09.55.87-1,2.93-1.16,4-.31,1.87-1,5.79-.31,7.58,1.12,3.15,6.73,7.46,8.88,10,2.78,3.31,10.4,9.24,10.77,13.55.22,2.58-5,6.5-5,9.09,0,1.32,1.85,3.53,2.63,4.6,1.21,1.67,4,7.49,5.58,6.12,1.08-.95-4-3-3.73-4.38.24-1.23,3.16-2.24,4.4-2.37,3-.33,8.86,4.43,11.68,3.31.73-.29,1.5-1.91,1.62-2.68a6.1,6.1,0,0,0-.67-2.79c-.51-1-1.89-3.38-3-3.24-2,.27-4.22,5.17-3.74,7.13s4.59,5.28,6.33,4.44c.55-.27-.33-2.05.14-2.44,1.55-1.32,8.09-1.12,8.09.92"/><path class="cls-1" d="M632.29,842.41c0-1.73-.6-5.37.18-6.91a4.48,4.48,0,0,1,2.46-1.92c2-.19,5.86,2,7.05,3.54,2.23,2.92,3.43,10.76,2.91,14.39-.32,2.19-1.91,7.81-4.12,7.81-1.55,0-2.09-4.15-2.89-5.48-3.26-5.42-12.76-14.76-14.19-20.92-.79-3.39,2.39-10.34,1.95-13.79-.35-2.65-2.14-8.09-4.15-9.86-1.68-1.48-6.47-3-8.65-2.43-2,.47-4.87,3.71-5.89,5.44-1.84,3.16-2.91,10.62-3.4,14.24s.92,11.35-.54,14.73c-.07.17-.6.37-.52.54,1.08,2.29,7.63-.27,10.1-.87,3.67-.91,11.36-3.08,13.94-5.85.23-.24.64-1,.42-1.25-1.67-1.94-7.61,1.1-10.07,1.82-2.64.77-7.42,4.41-10.16,4.2-1.39-.11-3.52-2.3-4.78-2.9-1-.44-2.9-1.54-3.93-1.39-1.93.28-4.51,3.85-6.31,4.59-.59.24-2.34-.25-2.5.36-.36,1.46,3.42,3.12,4.86,3.54,1.61.48,5.3-1.32,6.69-.4.48.32.56,1.63.76,2.16,1,2.7,2.6,8.38,4.31,10.7,2.15,2.91,8.7,6.51,11.23,9.09,1.68,1.72,4.38,5.72,5.86,7.6s4.57,5.52,6,7.42c2,2.68,6,8.11,7.68,11s4.46,9.37,6.27,12.32a76.8,76.8,0,0,0,4.62,6.28c2.16,2.6,6.85,7.49,9.23,9.9,1.37,1.39,5.63,3.46,5.63,5.42"/><path class="cls-1" d="M606.17,1055l1.71-.37,2.34,3,4.07,2,0,.4s-7.87-5.44-8.44-8.35c-.37-1.91,3.73-5.32,3-7.15-.09-.25-1-.22-1-.48.29-1.08,3.56.88,4.47.23.44-.31.37-1.58.6-2.06s.61-1.37,1-1.39c1-.05,1.66,2.95,2.63,2.87s1.46-2.36,2-3.08,2.12-1.58,2.33-2.39c.59-2.35-1.87-7-2.66-9.34s-3-6.26-3.4-8.51a25.54,25.54,0,0,1,0-6.36c.26-1.81,1.7-5.23,2.11-7,.49-2.21.57-6.81,1.36-8.92.54-1.44,2.78-3.73,3.28-5.18,1.09-3.2.78-10.13,1.28-13.47a28.43,28.43,0,0,0,.7-3.47c0-.92-1-2.63-.92-3.55a19.6,19.6,0,0,1,2.42-6.68,14.47,14.47,0,0,1,3.74-4,11.12,11.12,0,0,1,3.68-.69c1.61-.06,5.05-.18,6.38.73,1.52,1,3.77,4.69,3.44,6.5-.22,1.21-2.52,3.61-3.68,3.23-.23-.07,0-.8-.21-.94-1.68-1.31-6.62,1.27-8.51.3-3-1.55-5.46-8.68-7.59-11.35-1.38-1.72-4.89-4.54-6.06-6.4a19.46,19.46,0,0,1-1.62-4.18c-.27-1-.43-3.1-.61-4.13-.21-1.28-1.41-3.86-1-5.08.61-1.71,5.56-2.85,5.56-4.67m-4.91,3.7c0,1.45,4.38.22,5.77.63a41.58,41.58,0,0,1,6.93,3.4c1.86,1.09,7.11,2.77,7.11,4.93"/><path class="cls-1" d="M675.66,369c0-1.75,4.14-3,5.46-4.1.87-.71,2.29-2.71,3.35-3,2-.6,6.39.67,8.37,1.47,6.73,2.73,17.11,15.42,24.27,16.34,3.2.42,9.2-3.14,12.21-4.35,2.63-1,8-3,10.35-4.62,2.79-2,6.65-8.12,9.54-9.92,1.68-1,6.1-3.79,7.47-2.34.76.8-.2,4.18-1.27,4.31s-1.34-4.07-2.53-4.41c-1.51-.43-4.67,1.77-5.49,3.16-.63,1.08-.07,3.79-.15,5.06s-1.13,3.75-.51,4.77,3.32,2,4.38,1.53c1.35-.59,2.17-4,2.52-5.5.72-3.07.54-9.47.42-12.63a49.67,49.67,0,0,0-1-9c-.52-1.78-3-4.8-3.24-6.64-.62-4.59,1.79-13.85,3.36-18.18,1.2-3.3,6.4-8.67,6.91-12.17.8-5.57-2.21-17.13-5.05-21.93-.81-1.38-3.59-3.08-4.73-4.16-1.3-1.22-3.46-4.24-5-5.09a8.55,8.55,0,0,0-4.46-.9c-1.23.32-3,2.5-4,3.33-1.69,1.44-5.34,4-6.76,5.74-1.84,2.25-3.5,8.4-5.74,10.2-1,.84-3.76,1.23-5,1.48-1.77.35-5.71,1.87-7.16.75-2.36-1.84-3-9.1-2.27-12.06.72-2.8,5.83-6.28,7.31-8.73a62.82,62.82,0,0,0,2.78-6.77c.45-1.09.69-4.05,1.79-4.39,5.75-1.74,19.8,7.87,19.81,14.13"/><path class="cls-1" d="M185.48,1058.08s3.48-8.57,6.16-8.84c.61-.06,1.27,1.33,1.77,1.69a84.62,84.62,0,0,0,8.43,4.31s1.31-3.91,1.88-5.16c1.32-2.89,4.69-8.31,6.13-11.15s4.7-8.45,5.38-11.57c1.31-5.94.26-18.27-.07-24.34-.19-3.64-2.25-10.93-1.51-14.49,1.57-7.5,11.65-19.81,15.12-26.63,1.95-3.85,4.38-12.38,7.09-15.74,1-1.2,3.62-4.45,4.95-3.67,2.85,1.67-2.2,9.84-1.71,13.11.6,4,5.88,10.69,6.68,14.64.5,2.47.64,7.73-.29,10.07-.3.75-1.36,2.62-2.14,2.41-4-1,.26-14.57-3.57-16.12-1.21-.49-3.14,3.38-4.35,2.88-2.72-1.11-1.45-8.72-2.42-11.49-.43-1.22-1-4.65-2.33-4.63-2.09,0-3,5.56-3.57,7.58-1.16,4.21-2.43,13.08-1.73,17.39.53,3.28,4.12,9.07,5.42,12.12.93,2.2,2.21,6.9,3.58,8.86a28.35,28.35,0,0,0,4.28,3.82c1.63,1.33,4.74,4.37,6.73,5,2.8.93,9.29,1.55,11.81,0,1.87-1.13,2.69-6,4-7.78,2.32-3,7.5-10,11.3-10.23,3.42-.19,8.28,6.11,11.14,8,1.87,1.23,5.49,4.16,7.69,4.58,2.59.49,10.39.95,10.39-1.68"/><path class="cls-1" d="M742.63,874.23c0,1.79-4.2,3.53-5.92,4a11.58,11.58,0,0,1-5.52-.06c-1.29-.49-2.88-3.14-4.17-3.63-2.52-.94-8.09-.3-10.77,0-2.86.32-8.36,2.55-11.24,2.53-1.3,0-3.77-1.2-5.07-1.22a24.8,24.8,0,0,0-7.84,1.61c-1.45.63-5.93,2.32-5.14,3.68s4.64-3.73,6-2.81c1.8,1.21-.45,6.51-.39,8.69.16,6.12-1.31,19.53,2.41,24.4,2.45,3.21,11.09,5.2,15.09,5.78,2.76.41,8.52.13,11.14-.84,2.94-1.08,7.36-5.87,10.09-7.41,2.44-1.37,7.92-2.9,10.36-4.26,1.43-.79,3.7-3.48,5.29-3.83,2.6-.57,7.9,2.87,10.43,2.08,1.85-.57,6.22-3.82,5.38-5.56-.7-1.46-5.78,2.1-6.45.63-1.08-2.4,8.2-4.6,7.71-7.19-1.71-9-25.37-10.58-34.06-13.46-4.69-1.56-15.23-2.06-19.08-5.16-5.78-4.65-12.47-19-13.67-26.32-.21-1.24-.28-4.24.76-4.95.67-.47,2.42,1,3.2.7,2.65-.95,6.39-6.08,7-8.82.9-3.88-2.1-11.78-3.4-15.54-.67-2-1.66-6.71-3.59-7.46a1.1,1.1,0,0,0-.84.33c-4,5-2.87,18.9-4,25.17-.76,4.06-2,12.26-3.41,16.15-1.69,4.79-5.58,14.54-9.19,18.1-3,2.92-14.9,3.16-14.9,7.31"/><path class="cls-1" d="M662.16,885.9c0-3.31,9.69-4.44,10.89-7.52s-3-9.88-3-13.28"/><path class="cls-1" d="M747.57,1055.53s.82-4.28.85-5.73c0-3-1.58-9-1.41-12.07a25.4,25.4,0,0,1,1.52-6.61c.65-1.48,3.12-3.8,3.66-5.32a29.73,29.73,0,0,0,.94-10.75c-.38-2.53-2.86-7.1-3.81-9.48-.84-2.12-2.37-6.45-3.36-8.52-.7-1.46-2.75-4.06-3.2-5.62-.55-2-1-6.25-.31-8.15a6.12,6.12,0,0,1,2.82-2.82c1.19-.32,3.69.66,4.74,1.29,1.46.87,4.36,3.27,4.7,4.93s-1.65,4.71-2.3,6.25c-1.82,4.34-6.25,12.68-8.07,17-.86,2.06-3.55,6.22-3.06,8.4.17.76,1.62,2.7,2.21,2.19,1-.88-2.57-3.1-3.2-4.28-.82-1.52-1.15-5.25-2.32-6.52-1.42-1.56-5.94-2.27-7.64-3.51-2.9-2.11-6.74-8.56-9.69-10.61-4-2.79-13.81-5.13-18.22-7.29-2.74-1.33-8-4.49-10.53-6.13-2.93-1.89-8.71-5.8-11.38-8-1.43-1.2-3.65-4.39-5.31-5.25a23.56,23.56,0,0,0-9.72-1.76c-1.91.18-7.84,1-7.17,2.75s5-1.78,6.68-2.42c1.43-.56,4.84-1,5.67-2.34,2.73-4.23-.71-15.08-.71-20.11"/><path class="cls-1" d="M149.34,894.62c0-1.8,4.79-2.79,5.75-4.31.67-1,.59-3.69,1-4.86.77-2.16,3.73-5.9,4.23-8.13.25-1.08-.15-3.32-.14-4.43a44.88,44.88,0,0,1,.23-5.06c.32-2.17,1.79-6.34,2.15-8.5.31-1.82-.4-5.83.64-7.35,1.93-2.83,10-3.54,12.27-6.11,1.5-1.71,2.65-6.34,3-8.58.18-1.23-.3-3.73-.19-5,.16-1.73,1.71-5,1.52-6.76-.15-1.32-1.89-3.53-2.25-4.81-.28-.94-.21-3-.48-3.9-.38-1.35-2.56-3.71-2.36-5.1.24-1.57,3.06-3.68,4.25-4.74.59-.52,2.08-2.41,2.56-1.79s-2,1.87-2.74,2.44c-2.26,1.78-7.52,4.41-9.43,6.55-1.45,1.62-3,5.77-4.14,7.65-1.24,2.11-3.61,6.46-5.27,8.26-2.33,2.52-8.05,6.42-10.94,8.25-1.61,1-5,2.72-6.75,3.51-2.78,1.28-8.69,3.06-11.36,4.55a72.12,72.12,0,0,0-6.18,4.59c-1.48,1.14-4.29,3.6-5.84,4.64-.76.51-2.5,1.2-3.2,1.79a15.3,15.3,0,0,0-2.54,3,56.7,56.7,0,0,0-3.73,8.74c-.84,2.44-2.08,7.46-2.64,10s-1.27,7.94-1.93,10.54c-.62,2.39-2.48,7-3.12,9.36s-.94,7-1.88,9.14-4.17,6.25-5.86,8.09c-2,2.15-5.91,7.91-8.81,7.63-3.07-.28-8-6.61-7.65-9.67.88-7.08,22.65-10.24,22.65-17.38"/><path class="cls-1" d="M67.71,1003.23c0-4.21,12-5.23,16.2-4.65,5.83.81,15,9.24,20,12.44,2.42,1.56,7.31,4.65,9.6,6.42,9.56,7.4,25.08,37.13,36.11,32.17,8.35-3.77,4.92-29-.14-36.64-1-1.52-4.88-2.6-6.68-2.87-11.18-1.65-34.38,1-44.94,5-1.81.69-6.39,2.55-6.3,4.48.24,5,12.47,9.09,17.4,10,2.11.4,6.36-1.08,8.5-1.26,1.63-.13,5.65,1.27,6.55-.11,1.6-2.45-4.44-7.86-4.56-10.79-.28-7.35,7.47-20.81,9.31-27.94,1.74-6.76,6.77-20.68,5.06-27.44-1.17-4.62-12-10.09-12-14.85"/></svg>