<svg id="Layer_1" data-name="Layer 1" xmlns="http://www.w3.org/2000/svg" viewBox="0 0 841.89 1190.55"><defs><style>.cls-1{fill:none;stroke:#010101;}</style></defs><title>Artboard 1</title><path class="cls-1" d="M565.91,541.77c0,4.16-6.8,11-10.53,12.9-4.49,2.24-17.83-3.71-20.07.78-.09.18.5.46.45.64-1.19,3.9-13.88,2.08-15.21,5.94-2.2,6.36,13.27,16.47,13.66,23.19.28,4.76-5.13,13.46-7.72,17.47-3.08,4.76-11.14,12.86-15.16,16.85-2.69,2.67-9.57,6.7-11.34,10.05-1.18,2.22-1,7.47-1.28,10-.33,2.93-.55,8.84-1.08,11.74-.3,1.64-3.2,5.56-1.78,6.42,1,.6,3.12-2.05,3.37-3.17.38-1.72-1.08-5.63-2.58-6.55s-7.31-1-7.17.74c.4,5,15.52,1.22,19.94-1.11,6.11-3.21,15.77-15,16.89-21.81.22-1.39-1.29-4-1.86-5.35-1.54-3.51-5.94-9.93-7.28-13.53-1-2.78-1.31-8.9-2.58-11.58-.66-1.39-4.49-3.45-3.81-4.84,1.28-2.62,9,1.19,11.66,0,2.26-1,5.87-4.8,6.8-7.07,2.65-6.52,3.33-21.84.19-28.13-1-2-5.18-4.62-7.31-5.42-1-.37-3.93-1.37-4.14-.35-.48,2.24,8.17.77,8.66,3,.35,1.62-4.74,2.95-4.78,4.61-.05,2,4.61,3.93,5.41,5.73,1.1,2.45.47,8,.9,10.69.5,3,2.62,8.94,2.93,12,.38,3.78-.52,11.38-.58,15.18s.23,11.64.06,15.52c-.05,1.11-.74,3.36-.41,4.42a9.07,9.07,0,0,0,2.92,3.42c2.18,1.43,7.37,3.27,10,3,1.74-.15,5.64-1.54,6.23-3.19,2-5.46-11.58-16.11-9.11-21.37,1.4-3,12.56-.43,12.56-3.7"/><path class="cls-1" d="M328.5,406.49c0,2.72-.73,8.37-2.17,10.68-2,3.14-11.81,5.32-11.74,9,.1,5.46,15.59,7.67,17.83,12.65,1,2.24-1.5,7.33-1.06,9.74a21.38,21.38,0,0,0,3.81,7.44c.39.45,1.37,1.51,1.95,1.38,4-.89,8.43-10.22,8.17-14.34-.32-5-9.39-11.66-12-15.93-.89-1.47-1.37-5.46-2.92-6.22-2.93-1.42-10.19.84-12.7,2.92-1,.82-1.43,3.59-2.05,4.71-.72,1.33-3.87,3.59-3.37,5,1.48,4.21,12.58,5.78,17,5.35,5.47-.54,16-6.11,19.32-10.53.64-.88,1.74-3.61.87-4.28-1.14-.89-3.95,1.82-5.22,2.51-2.06,1.11-6.42,3.14-8,4.86-.89,1-2.86,3.51-2.33,4.71s4.18.23,4.73,1.33c1,2-1.52,7-3.27,8.41-4.17,3.37-16.33,1.05-21.15,3.38-1.74.85-5.34,3.34-5.69,5.24s3,5.25,3.56,7.16c1,3.33,1.38,10.33,1.66,13.79.32,4.1.5,12.33.65,16.44.14,3.8.15,11.41.5,15.2.28,3,3.21,9.35,1.83,12.07-.75,1.47-4.21,2.82-5.84,3-7.51,1.09-29.8,1.73-29.8-5.86"/><path class="cls-1" d="M351.59,665.33c0,1.19-2.86,2.43-3.11,3.6-.42,2,3.39,6,2.26,7.65-1.5,2.21-8.37-.46-10.65.93-1.34.82-3,3.77-3.36,5.31-.42,2,.55,6.27,1.32,8.2,1.07,2.72,5.27,7.07,6.55,9.7,1,2,3.91,6.63,2.73,8.54-3.38,5.48-20.68-.34-25.46,4-1.7,1.53-2.07,6.57-2.31,8.84s.41,6.82.39,9.09.35,7.27-.51,9.49c-.54,1.39-3.24,3.22-3.79,4.61-.31.79-1.07,3.25-.23,3.4s.08-3.44.95-3.36-.07,2.9.38,3.72,2,2.68,2.79,2.22c4.21-2.54.71-17.06-3.65-19.35-1.11-.58-3.79,1.07-4.59,2-4,4.79-5.34,18-5.86,24.26s.55,18.9,1.74,25.06c.42,2.14,3.1,6.14,2.7,8.28-.17.88-2.52,1.91-2.26,2.76a1.54,1.54,0,0,0,1.69.5c2.3-2-1.54-9-1.66-12-.14-3.39,1.46-10.22.76-13.54s-4.76-8.91-6.16-12c-1.28-2.79-1.66-10.51-4.6-11.37-2-.58-4.84,5.61-6.72,4.76-2.43-1.09,1.52-10.26-1.13-10.6-2.23-.29-1.22,7.39-3.22,8.42-.75.39-3.32,0-3.26-.82,0-.22.69-.23.85-.09,6.81,5.59,1,26.56,3.21,35.08.26,1,.69,3.41,1.66,3.73.69.23,2-.94,2.56-1.43,3.24-2.87,7.14-10.92,10.16-14,2.84-2.92,8.89-9.47,12.94-9.92,2.79-.3,7.47,4.05,10.19,4.72,3.31.81,10.32,1.57,13.59.64,2.91-.83,7.14-5.8,10-6.85,1.77-.66,7.51,1.08,7.51-.81"/><path class="cls-1" d="M435.79,311.35c0,3.15-1.22,9.39-1.49,12.53-.21,2.42-.37,7.27-.51,9.7-.06,1-.62,3-.26,3.91s2.41,1.75,2.76,2.63c.67,1.7.11,5.55-.42,7.3a20.91,20.91,0,0,1-2.67,4.65c-1.71,2.32-5.89,6.35-7.86,8.45-2.15,2.31-6.39,7-8.62,9.19a76.68,76.68,0,0,1-6,5.6c-1.29,1-4.46,2.13-5.55,3.33-1.89,2.06-2.64,8.37-4.85,10.07a5.88,5.88,0,0,1-3.43.66,11.68,11.68,0,0,1-3.09-1.85c-.32-.21-1.14-.56-1.24-.93s.74-1.42.83-1.94c.69-4.09,3.06-16.09-1.07-16.59-1.72-.2-3.62,5.87-2.05,6.6,3.06,1.43,4.72-9.2,7.3-11.38,1.56-1.33,5.59-2.6,7.54-3.24,1.67-.55,5.5-.46,6.84-1.59,2-1.69,2.58-7.58,4.15-9.7.82-1.11,3.26-2.55,4.21-3.55,1.33-1.41,3.23-4.88,4.63-6.22,1-1,3.58-2.14,4.6-3.08,1.64-1.52,3.83-5.58,5.56-7a35.11,35.11,0,0,1,8.09-4.14c2.26-.79,7.68-.2,9.4-1.87,3.08-3,3.29-12.55,3.74-16.83a105.52,105.52,0,0,0-.18-13.54c-.22-2.95-3.69-9.68-1.55-11.72.09-.09.37.15.47.08.57-.39.34-2.05.55-2.71.54-1.7,2.62-4.74,2.9-6.5.21-1.31.4-4.35-.56-5.28-2.29-2.21-9.87-2.32-12.73-.89-2.43,1.21-4.8,6.65-5.91,9.13-2.33,5.21-.34,21.55-6,22-1.75.15-2-4.88-2.95-6.35a21.84,21.84,0,0,0-2.87-3.28c-1.18-1.09-5.2-2.18-5.2-3.79"/><path class="cls-1" d="M650.23,577.58c0-1.3-3.72-1.25-5-1.53-2.65-.58-8.16-.66-10.74-1.48-1.36-.44-5-1.22-5-2.65M618.81,581c0,1.55-6.14,1.49-5.49,2.9,2.16,4.7,19.32-2.41,19.24-7.58,0-1.18-3.4-2.18-4.43-1.6-1.74,1-1.27,5.86-1.58,7.84-.21,1.36-1.81,4.82-.6,5.49,0,0,.13-.06.13-.1-.11-2.15-5.49-3.42-7.32-4.55-2.56-1.59-8.7-3.77-10.25-6.35-.93-1.56-1-5.52-.46-7.25.43-1.38,4.3-3.26,3.6-4.52s-5-.61-5.57.69c-.31.79,1.4,2.22,2.15,2.62s3.49,1.31,3.71.4c.15-.6-2.25-.3-2.29-.92-.07-1.24,3.22-1.91,4.38-2.37a27.56,27.56,0,0,1,5.81-1.55,43.77,43.77,0,0,1,4.83.44c1,.06,3.6,1.07,3.79.14.91-4.41-13.18-3.83-16.8-6.5a17.29,17.29,0,0,1-4.07-5.12c-.31-.69-.15-2.32-.52-3s-2.7-1.36-2.44-2.12c.57-1.61,5.29.47,6.82-.29,1-.51,2-2.88,3-3.58.41-.3,1.51-1.18,1.86-.81,1.7,1.76-3.38,6.53-4.28,8.81-1.42,3.58-4,10.9-4.6,14.7a39.37,39.37,0,0,0-.14,6.87c.17,2.6,1.43,7.71,1.58,10.31a75.08,75.08,0,0,1-.37,11.52c-.35,2.41-2,7-2.43,9.43-.39,2-.89,6.07-1.09,8.11-.25,2.49-.7,7.48-.63,10a54.12,54.12,0,0,0,.93,7.84,62.81,62.81,0,0,0,2.53,7.41c1,2.47,4,7.05,4.61,9.64s.49,7.83.49,10.45"/><path class="cls-1" d="M508,539m5.08-28.12c0-2.42-9.7.64-9.53-1.78.32-4.51,16.43,3.41,18.09-.8.83-2.12-6.63-4.23-6.39-6.5.13-1.26,4.54-1.57,4.22-2.79-1.26-4.78-14.92-.13-19.7-1.36-1.66-.43-5.33-1.44-6.23-2.9s-.68-5.31.26-6.7c.79-1.18,3.76-2.14,5.16-2.34a28.83,28.83,0,0,1,12.17,1.77c2.83,1.34,7.2,6.1,9.23,8.48,1.47,1.73,3.42,5.95,5,7.56,2.43,2.46,9.43,10.6,11.46,7.79,2.34-3.23-10.12-6.62-12.65-9.7a28.29,28.29,0,0,1-4.12-8.35c-.48-1.95-.94-6.18-.19-8.05,1.5-3.76,8.54-8.65,11.45-11.47,2-2,5.83-6.16,8.19-7.69,4-2.61,13.82-4.65,17.76-7.41,1.91-1.34,4.79-5.1,6.33-6.86.45-.52,1.15-1.78,1.75-2.13,1.92-1.12,8.75.69,8.77-1.54,0-7.42-23.91-.3-29.18-5.52-.94-.92-.48-4-1-5.17-2.26-4.83-9.46-13-13.37-16.65-4.31-4-20.12-7.56-19.36-13.4.4-3.13,12.53-1.24,11.84-4.31-.74-3.31-11.12-1.19-13.5,1.22-2.11,2.15-1.89,9.17-.91,12,1.34,3.89,7.85,9.62,11.1,12.14,1.68,1.31,5.41,3.85,7.54,4,3.33.28,12.14-.92,12.69-4.22s-7.51-8.1-10.94-8.37c-2.89-.23-7.79,3.88-10.17,5.51-1.29.89-3.28,3.53-4.75,4.06-3.26,1.18-10.48.49-13.88-.19-1.41-.28-3.94-1.75-5.32-2.14-3.32-1-13.62,1-13.62-2.46"/><path class="cls-1" d="M675.6,508.19c0,1.26,3.78.29,5,.46,1.58.21,4.7,1.29,6.29,1.12,4.8-.52,13.2-6.11,17.86-7.36,2.05-.55,6.39-.47,8.4-1.13,3.16-1,8.49-5.4,11.64-6.48,2-.7,6.47-.51,8.44-1.33,1.24-.51,3.81-1.93,4.34-3.16a5.59,5.59,0,0,0-.46-3.56,8,8,0,0,0-2.47-1.95c-.71-.4-2.25-1.39-3-1.18-1.09.3-2.32,2.53-2.8,3.56-.66,1.37-1.61,4.44-1.36,5.95.31,1.81,3.26,4.52,3.91,6.24.48,1.26-.22,4.58.92,5.28,2.58,1.6,8.6-3.23,11.62-3.48,2-.16,6.12.64,8.13,1a50.47,50.47,0,0,1,7.27,2,17.54,17.54,0,0,1,3.66,2.12c.32.29.69,1.13,1,1.37s1.23,0,1.21.32c0,.5-1.5.29-2,.22a10.07,10.07,0,0,1-3.67-1.61c-1.1-.91-2.49-3.48-3.22-4.7-1.3-2.18-3.57-6.73-4.64-9s-2.77-6.87-3.85-9.09c-1.27-2.61-4.29-7.6-5.63-10.18-1.25-2.43-3.47-7.43-4.78-9.83-1.42-2.62-4.66-7.65-6.16-10.24-1.6-2.75-4.55-8.39-6.22-11.1s-4.92-7.76-6.83-10.14a72.26,72.26,0,0,0-8.57-9c-1.75-1.36-5.55-3.91-7.72-4.35-1.21-.25-3.88-.14-4.9.55-1.43,1-2.59,4.5-3.26,6.1s-1.47,5.28-2.18,7c-1.07,2.55-4.37,7.1-5.26,9.72a9.17,9.17,0,0,0-.57,3.49,5,5,0,0,0,1.56,2.52c.94.6,4-.57,4.46.47.9,2.26-4.57,5.73-6.33,7.4-.65.62-2.84,1.29-2.84,2.19"/><path class="cls-1" d="M477.12,331.77c0,5.08,15.58,2.46,19.51,5.68,7,5.74,7.61,32.31,16.65,32.1,13.6-.32,10.8-43,22.77-49.41,4-2.13,13.42,3.83,17.77,2.68,4.15-1.1,10.84-7.28,13.49-10.66.93-1.17,2.82-4,2.49-5.42-1.88-8.38-17.72-22.77-26.27-22.1-11,.87-20.72,25.85-28.84,33.28-2.57,2.36-10,5-11.29,8.18-3.38,8.15.69,27.5,5.53,34.88,1.4,2.15,6.63,3.92,8.63,5.52,2.53,2,6.09,10.08,9.19,9.14,11.46-3.48,10.39-35,9.47-47-1.09-14.05-9.23-43.25-19.52-52.88-1.49-1.4-6.39-3.78-7.81-2.32-2.63,2.7,3.36,10.78,4.66,14.31,2,5.56,5.35,17.24,9,21.89,1.65,2.1,6.15,7.29,8.63,6.3,3.07-1.24-.66-11.66,2.34-13.06,4-1.87,13,5.1,15.38,8.8,8,12.22,1.73,44.31,6.52,58.12,1.5,4.31,5.14,14.69,9.64,15.51,4,.74,13-5.88,13-10"/><path class="cls-1" d="M599.41,510.3c0,1.81,4.43,3.14,6,4,1.73,1,5.32,2.7,7.16,3.45,1.44.59,4.35,2.19,5.9,2,2.88-.29,7.69-4.1,10-5.88,1.4-1.08,4.25-3.39,5-5,1.08-2.36.66-7.76.76-10.36.07-1.94-.53-5.91,0-7.78.71-2.39,5.11-5.9,5.43-8.38.4-3.19-4.12-9-4.08-12.2,0-2.78,3-7.82,3.77-10.48s2.14-7.86,2.63-10.53a72.1,72.1,0,0,0,.87-7.16,16.42,16.42,0,0,0-.1-3.29c-.51-2.18-3.17-6-3.76-8.14-.72-2.61-1-8.06-1.1-10.76s.21-7.84.2-10.45c0-1.1.62-3.61-.15-4.39-2.57-2.59-11.2-2-14.59-.62-1.25.5-2.57,3.21-3.74,3.88-2.14,1.21-7.14,2.18-9.6,2.22-2.94.05-12.07.61-11.54-2.28.75-4.05,12.15,2.24,16.23,2.78,3,.41,9.78-.86,12,1.18a4.63,4.63,0,0,1,.68,3.67c-.78,2.06-5.55,3.72-6.91,5.45s-2.83,5.65-3.51,7.64c-.4,1.18-1.78,3.78-1.14,4.84,1.45,2.37,8.24,1.52,10.75,2.69,1.7.79,6.3,2.52,6.08,4.38-.59,5-15.64,3.47-18.5,7.57-.61.87-.35,3.2-.15,4.25.55,3,5.13,8.12,4.78,11.12-.28,2.34-4.65,5.42-5.63,7.57s-2.62,7.06-2,9.39c.47,1.81,3.89,4.08,4.92,5.65,1.15,1.75,4.05,5.52,3.61,7.58-.75,3.53-11.19,5.79-11,9.4.15,2.71,9.73,3.44,9,6.05-.53,1.88-5.88.4-7.83.28-4-.24-15.56,1.48-15.76-2.5-.06-1.13,4.36,0,4.36-1.17"/><path class="cls-1" d="M456.17,654.93c0-1.65-5.12.39-6.6-.35-2.21-1.11-3.92-7-6.33-7.62-1.48-.36-4.39,3.25-5.63,2.36-1.74-1.23,1.27-6.51.51-8.49-.52-1.34-3.63-2.64-4.11-4-1.15-3.28,4-11.25,1.69-13.81-1.86-2-8.31-.14-11,.38s-7.8,2.13-10,3.59c-.9.59-2.86,2.07-3,3.14a4.56,4.56,0,0,0,2.24,3.37c3.84,1.22,11.06-5.28,15.06-5.73,1.56-.18,5.55-.54,6.21.88.53,1.15-2.81,3-2.72,4.29.14,1.87,3.49,4.42,4.86,5.69,1.07,1,3.57,4.32,4.7,3.41,1.56-1.26-2.5-5.46-3.22-7.33-2.57-6.68-4.62-21.54-9-27.18-1.23-1.57-5.06-3.22-6.75-4.28-4.44-2.78-13.43-8.17-17.83-11-2.12-1.37-7.63-3.22-8.34-5.64-1.13-3.86,4.65-11.14,6.36-14.78,1.35-2.88,5.29-8.2,5.75-11.34.3-2-.7-6.06-1.41-8-.52-1.36-2.62-3.58-3-5a2.69,2.69,0,0,1-.06-1.51c1.26-2.31,6.53-4.61,9.05-5.36a14.78,14.78,0,0,1,5.62-.24c1.9.43,5.25,2.58,6.83,3.71,1.79,1.27,4.71,4.62,6.49,5.9s5.61,3.11,7.44,4.21c2.65,1.59,7.68,5.21,10.42,6.63,1.72.89,6.27,1.21,7.14,2.93.55,1.08-.69,3.58-1.16,4.69-.88,2.09-3.1,6.16-4.75,7.71a12,12,0,0,1-4.48,2.41c-2,.36-6.2-1.73-8.18-1.13-2.29.68-5.28,4.86-7.18,6.31-1.05.81-3.34,2.18-4.43,2.94-1.79,1.26-5.38,3.76-7.05,5.18-2.07,1.74-6.39,5.22-7.78,7.54-2,3.25-4.2,10.77-4.2,14.55"/><path class="cls-1" d="M328.59,536.9c0,.86-2.14,1.52-2.72,2.16-.84.92-2.52,3-2.72,4.18-.27,1.63,1.87,4.77,1.63,6.4-.1.7-1.38,1.72-1.46,2.42-.18,1.76,1.44,5.14,2.29,6.69.71,1.29,2.91,3.33,3.69,4.57a20.53,20.53,0,0,1,2.2,4.67c.4,1.76-.47,5.48,0,7.22a21,21,0,0,0,1.87,3.2c.69,1.24,2.07,3.72,2.61,5a29.86,29.86,0,0,1,1.67,5.35,26.85,26.85,0,0,1-.18,5.94c-.23,1.5-1.6,4.33-1.69,5.85a31.78,31.78,0,0,0,.78,4.7c.17,1.23,1.34,4,.6,4.94-1.11,1.46-5.53.48-7.24,1.15-2.51,1-6.76,4.5-8.95,6.09-1.6,1.15-4.63,3.68-6.25,4.81-1.15.8-3.7,2.07-4.76,3a13.47,13.47,0,0,0-2.76,3.41c-.09.2-.25.69-.11.85.43.52,2,.13,2.68.17,1,.07,3.06.25,4.09.29,1.44,0,4.32-.08,5.76,0,1.7.14,5.08.73,6.77,1,1.91.33,5.71,1.1,7.6,1.48,2.22.44,6.61,1.62,8.86,1.83,1.91.17,5.78-.52,7.67-.17.65.13,2.37.35,2.46,1,0,.39-.87,1-1.27,1s-.75-1.15-1.13-1.36a10.29,10.29,0,0,0-5.18-.76c-1.81.35-5,2.49-6.38,3.7-3.44,3-6.93,12.78-11.19,14.43-.92.36-3-.26-3.91-.66-2.32-1-6.13-4.57-7.93-6.36a43.77,43.77,0,0,1-5.65-7c-1.54-2.72-1.92-9.7-4.28-11.75-1.86-1.61-9,.34-9.64-2-.16-.63,1.95-1.06,1.95-1.71"/><path class="cls-1" d="M431.48,509.14c0-2.62-7.67-2.23-10.28-2-3.18.29-8.73,4.15-11.88,4.63-1.66.25-6.71,1.22-6.69-.46,0-3.08,12.31,2.47,12.31-.61m20.62-.56c0-.7-.65-2-.65-2.72m3-23.77c0-2.71-9.64-1-10.22-3.68-1.71-7.83,24.51-14.57,22.92-22.43-.39-1.95-5.51-2.23-7.37-2.91-1.57-.58-4.69-2.48-6.32-2.13-2.58.55-5.46,8.46-7.74,7.15-4-2.27,5.12-13.38,3.94-17.77-.42-1.57-3.09-3.83-4.4-4.78-1.79-1.29-6.48-2.06-8-3.63s-2.67-5.94-3.43-8c-.85-2.24-.91-7.85-2.95-9.12-.77-.48-2.71.39-3.62.53-3.34.51-10.09,1.2-13.34,2.14a23.82,23.82,0,0,0-5.72,2.46c-1.84,1.36-5.21,4.83-5.9,7-.42,1.35,1.89,5.32.51,5.61-.53.12-1-1.57-.71-2.05,1.84-3.28,11.17-1.92,14.69-3.23,1.54-.58,5.27-1.58,5.77-3.14.13-.38-1-1.15-.7-1.46,1.15-1.33,5.09,1.38,6.71,2,3.12,1.27,10.1,3.37,11.94,6.19,1.08,1.66.47,5.93.48,7.91,0,2.16-.57,6.48-.4,8.63a101,101,0,0,0,2.22,11c.47,2.09,1.54,6.22,2.09,8.29.66,2.46,1.95,7.4,2.77,9.82.89,2.58,3.26,7.53,4.12,10.12s3.5,8.15,2.82,10.87c-.54,2.17-4.33,5.14-6,6.58-1,.89-3.48,2.2-4.59,3-1.41,1-5.46,2.54-5.46,4.27"/><path class="cls-1" d="M628.47,233.35,621,243c0,2.56-1.57,7.67-1.13,10.19.63,3.56,5.68,9.4,6.41,12.94,1.46,7-2.5,21.43-1.39,28.47a13.35,13.35,0,0,0,1.52,4c1.49,2.19,6,5.23,7.83,7.15.23.23.85.68.85,1m-8.9,1.06c0,2.78-3.63,9.48-6.37,9.08-1.33-.19-.38-5.38-1.69-5.09-2.56.58,3.17,8.57,1.32,10.43-1.7,1.7-8.19.81-9.52-1.18-3.29-4.9.28-22.53,6.17-22.78,2.51-.11,2.08,7.35,3.44,9.46,1.07,1.64,3.67,5.52,5.62,5.45,3.13-.12,5.78-7.55,8.34-9.35,1.51-1.06,5.38-1.6,6.84-2.73s2.56-6.33,4.37-6c1.35.27-.07,5.62,1.29,5.37s-1.08-4.38-.76-5.8c1.15-5.23,6.66-15.69,11.44-18.1.34-.17,1.36-.23,1.53.11,3.44,7-14.24,18.9-17.37,26.07-.86,2-1,6.47-2,8.38s-4.55,4.64-5.7,6.47c-2.07,3.31-4.31,10.91-6,14.41s-10.67,10.92-7.58,13.1c.38.27.82-1.7,1.22-1.44,4.63,3-6.62,15.14-9.32,19.93-1.41,2.5-4.21,7.65-6.36,9.54-1.14,1-4.06,2-5.41,2.71-.92.47-2.8,2.43-3.69,1.89-.53-.32-.58-2.24,0-2.46,1-.41,2.55,2.27,3.06,3.27,1.18,2.31-.24,8.85,2,10.21.54.33,2.43-.07,2.43-.7"/><path class="cls-1" d="M312.92,346.89c0-4.39,9.91-8.82,12.4-12.44a37.71,37.71,0,0,0,4.32-9.68,43.22,43.22,0,0,0,.34-9.85c-.25-3.23-2-9.52-2.42-12.72-.56-4-.8-12-1.41-15.92-.55-3.53-.5-11.48-3.09-13.94a6.88,6.88,0,0,0-5.41-.93c-2.72,1.2-6.06,7.07-6.41,10-.68,5.78,5,16.79,7.63,22,2.81,5.59,10,15.94,14.1,20.68,4.57,5.32,21.06,12.08,20.58,19.07-.09,1.29-4.72,1.76-4.22,2.94,1.32,3.13,11.49.33,13.32-2.53,1.39-2.17-1.92-7.5-2.51-10-.65-2.75-1.57-8.35-2.45-11a45.27,45.27,0,0,0-3.8-8.49,39.52,39.52,0,0,0-7.85-8c-.82-.55-2.76-1.9-3.66-1.49-2.86,1.32-3,9-4,11.94-1.27,3.68-5.42,10.77-5.23,14.65.1,2.22,1.74,7.1,3.75,8,5,2.32,21.85-.24,21.27-5.72,0-.1-.31-.07-.4,0-3.64,1.91-6.2,10.67-8.62,14a188.75,188.75,0,0,1-13.87,16.16c-2.3,2.33-8.17,5.81-9.84,8.61-1.89,3.17.11,12.89-3.26,14.37-1.26.56-3.65-2-4.79-2.74-1.65-1.09-5.32-3.08-6.26-4.83-.84-1.56-.06-5.35-.51-7.07-.57-2.15-3.07-5.95-3.83-8-.65-1.81-1.19-5.65-1.87-7.44-1.47-3.88-6.38-10.76-7.64-14.71-1.46-4.57-1.26-14.41-2.64-19-1.55-5.2-9.93-14.23-9.27-19.61.36-3,5.32-7.35,7.6-9.31,2-1.76,7.08-4,9.29-5.5,3.84-2.68,10-10.56,14.53-11.81,5.12-1.42,15.77,3.69,21,3,2.17-.3,5.86-3.22,8-3.54,4.77-.7,19.17-2.45,19.17,2.38"/><path class="cls-1" d="M748.56,564.36c0,.32-.79.63-.88.94a10.28,10.28,0,0,0,1.39,6.61c1,1.28,5.3,1.28,5.92,2.8,2.27,5.56-5.42,17.28-8.36,22.51-1.8,3.21-8,8-9.1,11.55-1.51,4.9,2.94,15.53,1.47,20.43-.51,1.7-2.57,5.36-4.32,5.61-5.08.74-11.66-10.75-16.64-12-2.34-.6-7.41.21-9.61,1.22-1.59.73-4.59,3.06-5.2,4.71-1.26,3.44-1.24,12.71,1.94,14.54.74.43,2.48-.76,3.14-1.29.3-.25.51-1.18.88-1.28,2.79-.75,8,3.32,10.46,4.91,1.2.8,4.94,2.56,4.3,3.86-.23.45-1.49-.26-2-.4-1.79-.49-5.75-1.09-7-2.48-3.12-3.5-2.29-14-4.2-18.3-3.32-7.46-18-18.62-18.75-26.75-.14-1.59,3.29-4.32,2.68-5.79-2-4.75-14.18-7.88-19.27-7.17-4.33.61-11.25,7.06-14.1,10.38-1.38,1.59-2.16,6.3-3.93,7.44-1.21.78-5.17,1.67-5.73.34-1.89-4.49,10.89-9.77,14.46-13.09.75-.7,2.55-1.89,3-2.83,1.38-3.24-1.34-10.83,0-14.08,1.25-3,7.31-6.58,9.21-9.23,2.22-3.1,4.55-10.57,6.77-13.68.33-.46,1-1.76,1.6-1.61,3.08.78,1.46,9.78,3.5,12.23s8.76,5.15,12,5.95c3.48.85,10.74.35,14.31.31,2.33,0,7-.67,9.31-.44,3.64.37,10.55,3.06,14.17,3.61s11.21,1.33,14.9.77c2.9-.45,8.3-5.21,11-4.1,1.72.71,3.21,4.88,3.14,6.73s-1.88,6.89-3.8,6.7c-2.32-.21-.66-9-3-8.82s-1.73,7.13-1.73,9.56"/><path class="cls-1" d="M252.3,563.16c0,4.17,5.75,11.41,9,14.07,3.37,2.79,11.91,6.89,16.26,6.46,3.54-.35,8.77-6.08,11.91-7.73,2.21-1.18,6.74-4,9.24-3.87s6.62,3.16,8.65,4.5c1.44.95,4.31,3,5.32,4.35s4.3,5.9,2.68,6.67c-2.46,1.15-2.67-10.56-5.18-9.54-2.93,1.21,6.1,10.36,3.52,12.19-1.73,1.23-5.39-3.44-6.93-4.9-1.17-1.11-2.49-4.52-4-5.05-2.74-.94-8.46,2-11.28,2.7-2.44.59-7.41,1.46-9.74,2.4-1.81.75-5.43,2.53-6.75,4-1.54,1.71-2.29,6.65-3.83,8.36-2,2.21-7.62,4.57-10.18,6.07-3.22,1.89-10.51,4.64-12.95,7.47-4,4.6-6.89,16.87-8.9,22.61-1.16,3.31-3.21,10-4.13,13.41-.78,2.85-5.27,9.94-2.75,11.48s8.24-4.89,9-7.76c1.29-4.71-8.11-14-6.2-18.52.63-1.49,4.27-2.32,5.82-2.78,1.24-.36,4.22.26,5.13-.66s.45-3.26.57-4.35.21-3.24.41-4.3c.56-2.84,3.28-8.2,3.34-11.1.11-5.41-5.71-15.56-5.34-21,.21-3,5.19-8.19,4.56-11.13-.45-2.06-4.79-4.16-6.13-5.77-3.32-4-11.8-12.33-11.22-17.49.08-.63,1.51-1.23,1.82-1.78,1-1.81,0-7.32,2-8.07s6.9,2.43,6.44,4.31c-.33,1.34-4.22,0-5.5.58-4.79,2-11,12.63-16.15,13-2.47.17-6.54-3.56-8.5-5.07-4.86-3.74-12.32-13.92-17.54-17.15-3.09-1.92-10.18-4.09-13.75-4.78-2.79-.54-9-2.07-11.36-.54-2.59,1.65-4.66,8.31-4.66,11.39"/><path class="cls-1" d="M672.23,269.17c0,3.43,9.84,4.42,11.58,7.38,2.2,3.76,2.69,13.38,1,17.4-.57,1.37-3,4.22-4.43,3.93-5.28-1-10.21-13.93-9.54-19.26.14-1.06,1.73-3.37,2.8-3.25,3.22.37,4.08,8.88,6,11.46a65.6,65.6,0,0,0,10.92,10.47A128.68,128.68,0,0,0,715,309.84c3.23,1.11,10.1,1.85,13.45,2.58,2.92.65,8.71,2.11,11.6,2.89,2.37.64,7.07,3.4,9.43,2.72a4.21,4.21,0,0,0,2.1-2.36c.48-2.36-3-6.75-3.07-9.16-.23-5.06-.36-19,4.65-19.72,2.29-.35,2.6,9,4.68,8,.69-.34-.37-2.94-1.14-2.86-2.69.27-1.34,8-1.9,10.65-1.79,8.42.18,31.85-8.28,33.39-2.11.39-3-6.05-4.88-7.06-1.73-.92-6.16-1.13-7.83-.09-2.18,1.36-2,10.2-4.42,9.27s5.3-8.73,3-9.7c-4.48-1.87-6.91,12.82-9.23,17.08-.63,1.16-3.67,3.95-2.53,4.62s1.67-5.13,3.09-4.87c.46.09.82,1.72.37,1.82-3.34.75-2.27-10-3.23-13.32-.8-2.71-3-7.94-3.68-10.68-.87-3.65,1.69-15-2.06-14.88-6,.23,1.09,18.56-1.51,24-1.23,2.56-7.15,5.08-8.4,7.63-4.52,9.22-4.51,30.77-3.15,40.95.33,2.47,1.38,7.88,3.35,9.42s7.81,2.78,9.21.94c1.2-1.58-1.43-6-2.87-7.39-1.11-1-4.58-1-5.79-1.92-2.86-2.2-4.46-13.1-7.92-12.07-4.26,1.25,1.35,13.56-.11,17.75-.92,2.63-4.28,9.86-6.85,8.79-3.56-1.48-1.91-15.22,1.94-15.27,1,0,.58,2.86.58,3.83"/><path class="cls-1" d="M404.31,646c0,2.54,3.27,7.58,2.25,9.9-.21.48-1.62.55-1.81,1-.44,1.13.69,3.7,1.46,4.65.52.64,2.38,1,2.9,1.64.4.5.44,1.9.73,2.48,1.06,2.09,6.86,5.39,5.71,7.43-.43.77-3.25-1.22-3.49-.38-.36,1.22,3.59,1.4,4.53,2.25a17.72,17.72,0,0,1,2.66,4.17,27.48,27.48,0,0,1,1.92,5.39,27.83,27.83,0,0,1,0,8.15c-.57,2.56-3.11,7.23-4.49,9.46-.91,1.49-3.3,4.07-4.27,5.52-.62.92-2.35,2.74-2.21,3.85.69,5.6,11.56,12.39,15.68,16.25,2.53,2.36,7.77,6.89,10.57,8.92,1.41,1,4.49,2.69,5.94,3.67,4.45,3,12.41,10.58,17.25,13,1.32.65,4.22,1.68,5.7,1.58.75,0,2.5-.46,2.78-1.16.57-1.45-1.41-4.63-2.57-5.67A6.9,6.9,0,0,0,462,747c-1.31,0-3.62,1.53-4.88,1.89A48,48,0,0,1,451,750c-1.73.19-5.22,0-7,.18-1.56.16-4.6,1-6.15,1.15-2.61.26-7.85,0-10.46.17-3.07.14-9.18.76-12.24.92s-9.55,0-12.71.35c-2.83.3-8.73,3.52-11.21,2.11-1.67-.95-2-5.39-2.63-7.2s-4.15-6.61-2.36-7.32c2.41-1,3.88,6.83,4.54,9.35a31.12,31.12,0,0,1,.34,5.8m-.89,0c0,2.74,3.61,7.41,5.18,9.64,1.09,1.56,6,4,5.07,5.65-.26.48-1.73-.7-2.16-.36-2.2,1.7-.94,8.29-.94,11.07m-1.88,2.67c0-1.41-.5-4.22-.5-5.64"/><path class="cls-1" d="M528.07,691.24c0,2.39-7.59,1.48-8.88,3.48-2.65,4.12,1.06,14.67,1.06,19.57m1.63,6.51c0-4.07,6.44-15.45,2.43-16.08-2.76-.44-3.67,8.92-1.83,11,1.59,1.81,7.36-1.14,9.63-.34s6.08,3.88,6.94,6c2.31,5.69-5.46,19.3-2.15,24.48,3,4.65,16.91,3.54,20.83,7.44,1.67,1.67.89,8.49,3.22,8.89,1.75.3,2.82-6.05,4.5-5.49,5.87,2,2.82,18.87.93,24.77-.73,2.3-3.59,6.92-5.9,7.63-1.61.5-4.79-1.71-6.44-2.09-2.37-.54-7.68.12-9.66-1.3a9.51,9.51,0,0,1-2.86-5.77c0-1.67,2.53-4.34,3.13-5.9.68-1.78-.07-7.65,1.82-7.4,2.15.29-2.35,8.4-.2,8.65,5.72.68,2.08-17.46,4.83-22.52,1.33-2.45,9.69-5.77,7.88-7.9-.41-.49-1.44,1.56-2.08,1.49-4.06-.48-6.9-10.93-10.74-12.34-2.75-1-9,3.17-11.6,1.74-2.24-1.25-2.8-7.19-4-9.45-.89-1.66-3.2-4.65-4.15-6.27-1.57-2.66-4.32-8.21-5.69-11-.56-1.14-.89-4.55-2.16-4.61-2.44-.12-3.23,6.67-5,8.38-1.26,1.25-4.39,3.46-6.16,3.51s-4.92-1.91-6.19-3.08c-2.6-2.4-4.45-10-7.3-12.13-1.76-1.3-6.9-.6-8.5-2.09s-2-5.77-2.48-7.74c-.9-3.66-1.11-11.39-2.67-14.82-.68-1.51-2.58-5.77-4.12-5.18-.06,0,0,.17,0,.23-.4,1.9-2.72,5.16-3.48,7-1,2.36-1.77,7.71-3.4,9.69-1,1.28-4.13,3.89-5.69,3.36-2.76-.92-4.39-7.85-4.39-10.75"/><path class="cls-1" d="M133.84,587.06c0-2.95,11.24,1,11.65-1.92,1.32-9.39-25.68-20.25-34.26-16.22-2.33,1.09-3,7.41-2.55,9.94.61,3.63,10.84,9.89,8.07,12.31-2.26,2-6.33-9-9.1-7.85-4,1.68-2.37,13.11-1,17.17a12.56,12.56,0,0,0,4.64,5.33c2.65,1.32,8.87.32,11.78.79,1.36.22,4.7.16,5.33,1.39.22.44-1.14,1.56-.73,1.84,1.14.8,3.26-2.64,4.15-3.71s1.52-4.11,2.77-4.59c.58-.23,1.78.88,2.38.73,3.82-1,6.95-11.6,10.9-11.43,7.53.34,11.27,23.63,18.81,23.6,2.27,0,3.9-5.63,5.59-7.13,1.87-1.65,7.46-2.9,8.55-5.14,1.54-3.17-.47-10.68-1.72-14s-4.32-11.51-7.7-11.16-2,13.5-5.42,12.83c-5.88-1.13,1.15-18.16-.42-23.94-.57-2.11-2.13-8-4.29-7.62-2.94.46.58,11.42-2.38,11.67-2.72.23-3.41-7.5-4-10.17s1.65-9.4-.46-11.28c-1.89-1.7-7.62.67-10.16.71-1.68,0-5.09.21-6.69-.28-3-.93-7.68-6.07-10.8-6.64s-10.08.47-12.59,2.46c-5.46,4.32-8,19.32-11.51,25.34-1.8,3.11-10.44,8.69-8.41,11.65.76,1.1,4.4-2.46,5.17-1.37,2.33,3.3-7.9,9.49-9.13,13.34a18.65,18.65,0,0,0-.19,8.34c1.29,4.11,6.71,11.3,10.11,13.93,3.7,2.86,15.81,2.42,17.44,6.81.62,1.69-2.33,4.9-3.37,6.36-.76,1.05-3.06,2.57-3.56,3.77-.83,2-.89,6.5-.3,8.56.32,1.1,2.45,2.65,2.58,3.78.24,2.07-3,5.69-3,7.77"/><path class="cls-1" d="M240.9,783.51c0-2-2.3-5.63-3.19-7.45-.48-1-1.66-2.87-2.12-3.88-.76-1.68-1.51-5.4-2.57-6.91s-4.64-3.6-6-5a35.41,35.41,0,0,1-3.36-4.69c-.72-1.23-1.47-4.1-2.43-5.16-1.62-1.77-6.09-3.86-8.28-4.84a33.23,33.23,0,0,0-3.92-1.28c-.44-.12-1.8.06-1.78-.4,0-.18.57,0,.71-.1,3.86-3.19,3.68-14.74,6.3-19,1-1.68,4.18-4.18,5.55-5.6,1.63-1.7,4.8-5.2,6.41-6.93,1.85-2,5.59-5.9,7.4-7.92,1.54-1.71,5.08-4.87,6-7,.47-1-.22-3.76.66-4.45,1.31-1,4.92.66,6.57.67,2.13,0,6.49-.06,8.5-.77,2.38-.84,6.3-4.2,8.42-5.59,1.67-1.09,5.14-3.11,6.73-4.33s4.7-4.62,6.47-5.91,5.27-4.33,7.4-4.22c2.76.15,6.82,4.73,9,6.48.8.65,2.63,1.83,3,2.78a6.65,6.65,0,0,1-.22,3,21,21,0,0,1-2.49,5.67c-1.3,1.74-5,4.2-6.64,5.65-1.41,1.25-3.86,4.25-5.54,5.12-1.27.66-4.28.66-5.61,1.2a44.55,44.55,0,0,0-4.72,2.93c-1.83,1.11-5.49,3.37-7.39,4.37-2.42,1.27-7.43,3.47-9.93,4.57-2.12.92-6.49,2.45-8.51,3.55a47.41,47.41,0,0,0-4.59,3.11c-1.27,1-3.69,3.08-4.83,4.21-1.38,1.38-3.77,4.48-5.15,5.85s-4.32,3.81-5.81,5a74.66,74.66,0,0,1-6.94,5.28c-2.13,1.24-6.82,2.82-9.05,3.86s-6.87,3.5-9.18,4.62c-2,1-7.92,1.53-7.92,3.72"/><path class="cls-1" d="M260.84,386.2c0-4.62-8.35-11.09-10.72-15.06a173.55,173.55,0,0,1-10.34-21.08c-1.28-3.44-1.72-11.09-3.69-14.18-2.61-4.08-11.19-9.3-15-12.31-3.48-2.76-11.22-7.42-14.09-10.81-2.48-2.93-4.9-10.52-7.23-13.58-1.53-2-5.49-5.17-7.32-6.89-1.29-1.22-3.4-4.93-5.18-4.86-.41,0-1,.83-1.12,1.23-.57,1.67.46,5.27.64,7,.31,2.89,1.16,8.64,1.41,11.54.24,2.61.41,7.85.58,10.47s.19,7.66.77,10.13c.79,3.35,4.27,9.44,5.21,12.75a92.09,92.09,0,0,1,2.34,13.8c.12,1.69-1.17,5.42-.14,6.76,2.19,2.87,10.87,1.71,14,3.46,1.66.92,3.58,5.13,5.48,5.3,5.39.48,16.43-6.89,18-12.08,1.31-4.44-7.84-12.43-7.27-17,.47-3.8,7.91-8.62,9.25-12.21,1.18-3.16,1.35-10.11.87-13.44-.61-4.29-3.4-12.76-5.92-16.28-4-5.65-16.32-13-21.66-17.4-.87-.72-2.34-3.28-3.42-3-.37.12-.31,1.14-.41,1.52-.4,1.63-1.66,4.86-1.46,6.52.28,2.42,3,6.68,4.27,8.73s5.22,5.65,6.3,7.95c1.41,3,2,9.69,2.78,12.91.49,2.11,2.12,6.25,2.12,8.43"/><path class="cls-1" d="M604.42,779.4c0-3.11,9.32-.31,12.43-.22,1.8.05,5.4.41,7.2.54,2.68.19,10.44-2,10.73.7.69,6.4-25.43.73-24.78,7.14.19,1.82,5.6,1.24,7.3.56,1.29-.51,3.05-2.9,3.75-4.1,1-1.79,2-5.89,2.54-7.89a84.36,84.36,0,0,0,2.32-10.84c.24-2.74-1.2-8.37-.37-11,.54-1.71,3.66-4.07,4.33-5.74,1-2.42.91-7.75,1.17-10.33.3-3.08.91-9.24,1.05-12.34a111.16,111.16,0,0,0,.08-11.83c-.21-2.25-1.52-6.61-1.77-8.86a85.12,85.12,0,0,1-.18-9.45c.14-3.09,1.33-9.22,1.33-12.31,0-2.61-1.14-7.76-1.15-10.36,0-2.2.89-6.54.94-8.74,0-.77.32-2.5-.21-3.06-.93-1-4.23-1.4-5.43-.75-1.52.84-2.64,4.58-2.89,6.3-.29,2,.85,6.11,1.21,8.13.23,1.28.34,4,1.09,5.11,2,2.87,9,5.42,12,7.37.91.6,3.6,1.45,3.54,2.54-.14,2.37-8.37,2.28-8.28,4.65.21,5.62,15.49,6.76,20.4,9.5,1.79,1,5.59,2.91,6.86,4.52.5.64,1.34,2.29,1.1,3.06-.75,2.31-6.68,3.46-8,5.5-1,1.5-.52,5.38-1.23,7s-3.6,4.13-4.37,5.77a31.74,31.74,0,0,0-1.66,7.29c-.32,2.64-1.62,8.43-.13,10.63.65,1,4,.52,4.31,1.64s-2.09,2.72-3,3.4c-2.53,1.89-9,3.28-11.43,5.34-1.55,1.34-3.66,5-4.51,6.83-1.57,3.42-2.22,11.22-4.1,14.48-2.52,4.4-14.07,9.54-14.07,14.61"/><path class="cls-1" d="M191.9,825.61c0,1.45,1.43,4.15,2.22,5.36,1.26,1.95,5.17,4.75,6.33,6.75s2.06,6.88,2.84,9.15c.91,2.66,2.79,8,4,10.54,1.08,2.3,3.89,6.57,5,8.85,1,2,3.11,6,3.47,8.18a22.93,22.93,0,0,1-.62,8.29c-.86,2.53-4.55,6.59-5.85,8.92-1.45,2.59-4.45,7.85-5.05,10.76-.3,1.49.14,4.56.2,6.08a32.32,32.32,0,0,1,.21,4,39.13,39.13,0,0,1-2.3,8.12c-.54,1.26-3,3.38-2.75,4.71.06.28.68.6,1,.67a2.67,2.67,0,0,0,1.9-.18c1-1,.16-4.35.45-5.76s1.67-4.26,1.86-5.75a31.24,31.24,0,0,0-.29-6,19.32,19.32,0,0,0-1-5c-1.24-2.37-6.21-5.33-7.42-7.72-.54-1.07-1.21-3.58-.83-4.71.87-2.6,6.22-5.39,8-7.45a131.81,131.81,0,0,0,7.73-11c1.95-3,5.51-9.09,7.43-12.07,1-1.52,3-4.53,4-6,1.56-2.18,4.92-6.37,6.52-8.52,2-2.68,6.14-8,7.8-10.85,1.22-2.13,3.47-6.57,4-9s-.32-6.92.09-9.18a55.18,55.18,0,0,1,2-5.34c.49-1.44,2.19-4.34,1.77-5.8-.74-2.59-5.55-7.94-8.11-7.09-.47.15-.27,1.46-.42,1.93-.45,1.41-1.69,4.11-2.3,5.46-1.38,3-3.8,9.39-5.85,12a18.35,18.35,0,0,1-4.79,4.08c-1.91.91-6.19,1.51-8.3,1.56-1.19,0-4.19-1.75-4.72-.68s2.83,2.67,3.7,3.63c4.78,5.27,14.29,16,17.91,22.13,1.75,2.95,5.18,9.27,5.18,12.7"/><path class="cls-1" d="M364.67,808.69c0,.92-1.46,2.35-1.8,3.2-1,2.44-1.66,7.73-2.6,10.19a119.86,119.86,0,0,1-7,13.34c-2.24,3.83-7,11.32-9.71,14.86-2,2.59-6,7.71-8.5,9.79-1.83,1.55-5.91,4.26-8.21,5-2.84.88-9,0-11.89.64-4.55,1.06-13.32,4.71-17.13,7.39-2.71,1.9-7.73,6.62-9.06,9.65-.61,1.38,1,5.66-.46,6-.37.08-.45-1.07-.76-1.28-1.63-1.1-6.16-.09-7.77-1.22-4.45-3.09-5.86-16.25-10.59-18.88-1.69-.94-5.8.35-7.73.34-1.35,0-5.46,1-5.4-.33,0-.88,2.65.07,3.53.12,1.65.1,4.95.79,6.59.57,2.6-.37,8.13-5.72,9.83-3.72,1.13,1.33-1.76,6.1-3.5,6-1.91-.07-3.39-5-3.29-6.92.05-.95,1.33-2.54,2-3.23a34.82,34.82,0,0,1,4.59-3.25,47.43,47.43,0,0,1,5.64-3.78c2.41-1.07,7.6-2.56,10.23-2.5,3.34.07,9.48,3.53,12.82,3.76s10.44-.46,13.48-2c1.23-.63,2.94-2.91,3.87-3.94,1.66-1.85,6-5.2,6.32-7.66.1-.68-.44-2.33-1.1-2.52-1.76-.5-4.53,3.12-6,4.15-2,1.35-6.34,3.66-8.07,5.36-1.57,1.55-5,5.07-5,7.28m-13.81,9.39c0,2.31-2,6.68-3.21,8.67-1.4,2.39-4.85,6.91-7.14,8.45-1.17.78-3.95,1.88-5.36,1.74-1.61-.16-4.08-3.66-5.64-3.19-2.46.74-4,6.69-4.69,9.17s-.16,8.21-.85,10.84c-.63,2.39-3.37,6.63-4.18,9-.75,2.15-2.13,6.56-2.13,8.83"/><path class="cls-1" d="M591.08,896.89c0,3-7.34,5.16-9.55,7.16a126.53,126.53,0,0,0-13.17,14.42,69.37,69.37,0,0,0-4.57,8.06,47.76,47.76,0,0,0-3.31,8.19c-.32,1.58-.69,4.95-.1,6.46.85,2.15,4.47,5.39,6.4,6.67s6.17,1.93,8,3c.87.51,2.15,2.24,3.09,2.61,2.57,1,8.51-.37,11.08.67s6.8,5.58,8.9,7.62c1.66,1.62,4.57,5.28,6.25,6.9s5.75,4.54,7.42,6.32c1.29,1.38,4,4.23,4.51,6,2,6.61,1.58,21.47-1.71,27.53-1.06,2-5.54,3.78-7.16,5.31-1.92,1.81-8.52,6.11-6.79,8.1.83.95,3-3,4.25-2.66,3.2.75,6.85,11.23,6.85,11.23s-7.14-4.06-8.89-2.54c-2.15,1.86,1.53,11.27,1.53,11.27l8.22,10.36,8.09,7.07,3.7,2.34,6.37-2.83,6.85-2.67,5.24-12.15,4.07-4.49s.78-8.86,2.92-10.58c1.35-1.08,6.14-1.91,6.91-.36.7,1.39-4,4.76-4,4.76s-7.46-1.5-9.25-3.16c-2.06-1.91-3.55-7.67-4.45-10.34-.48-1.44-1.5-4.4-1.45-5.92a3.55,3.55,0,0,1,.63-2.07c.48-.38,2,.23,2.45-.17,1-.8-.06-4.62,1.17-4.86,2-.39,4.13,4.68,4.75,6.62.48,1.5,1.11,5.21,0,6.29-1.67,1.59-6.92-.28-9.22-.42-1.53-.09-4.59-.5-6.13-.47-6.34.13-25.17-3.37-25.17,3"/><path class="cls-1" d="M760.36,736.72c0,.86-2.51.89-3.37.82-3.37-.3-11.81-2.1-12.36-5.43-.28-1.64,3.93-3.14,4.88-4.51,1.27-1.82,2.64-6.12,3.38-8.21s1.74-6.09,2.44-8.08c.57-1.62,1.9-4.8,2.56-6.39.56-1.36.86-5.21,2.32-5.4.5-.07.77,1.78,1.24,1.59s0-1.67-.19-2.17c-.65-1.58-4.43-3.53-4.37-5.24,0-1.31,2.88-2.71,3.61-3.8s2.33-3.3,2-4.5c-1.12-4.58-12.69-7.45-14.82-11.65-.82-1.64.79-5.78-.21-7.3-.54-.84-2.69-1.29-3.6-1.69-1.54-.68-5.63-1-6.2-2.61s2-4.19,2.85-5.47c1.35-2,3.86-7.35,6.24-7.22,2,.1,5.39,4.73,4.61,6.58-.86,2.05-9-.76-8.78,1.45.24,2.6,8.85-2.26,10.42-.18.39.51-.89,1.84-.74,2.47.7,3.06,6.41,6.89,8.48,9.25.41.47,1.88,1.36,1.61,1.94-.34.75-2.66-.46-3.31,0a5.17,5.17,0,0,0-1.21,4.32c.43,1,3.75,1.08,3.85,2.18.36,3.84-9,7.23-11.78,9.93s-8.26,8.24-10.17,11.59c-1.27,2.22-2.23,7.36-3.19,9.74-1.1,2.71-3.06,8.44-5.11,10.54-3.41,3.5-15.09,4.68-17.39,9-1.72,3.23,1.73,10.9,1.68,14.56,0,3-1.87,8.76-1.68,11.72s4.23,9,3.33,11.94c-.77,2.52-5.66,5.68-8,6.87-1.7.85-5.56,1.31-7.43,1.69a83.77,83.77,0,0,1-9.76,1.82,10.64,10.64,0,0,0-1.93-.17c-3.43,1.08-9.19,6.15-11,9.24a11.63,11.63,0,0,0-.92,4.46"/><path class="cls-1" d="M446.19,826.41c0-3.5-10.18-2.69-13.39-4.08-5.09-2.21-13.83-12.38-19.23-11.09-3.36.81-5.68,8.68-7.55,11.58-1.5,2.33-5.51,6.6-5.93,9.33-.22,1.4,1.5,4.06,1.46,5.47a13.39,13.39,0,0,1-1.66,5c-.49.75-2.54,1.53-2.62,2.42s1.54,3.68,2.49,3.28c4.26-1.76-2.12-13.65-2.55-18.24-.24-2.58-2.84-9.27-.49-10.37,2.55-1.2,6.47,5.47,8.32,7.59,2.23,2.54,5.39,8.64,7.7,11.1,2,2.17,7.09,5.45,9.35,7.4.34.3,1.18.81,1.31,1.24.63,2-.74,6.28-1.63,8.16-.57,1.2-2.9,2.85-3.34,4.09-1.2,3.34.49,10.68-.09,14.17-.8,4.83-2.53,15.34-6.21,18.57-.69.6-2.77.31-3.6.7a13.07,13.07,0,0,0-7.29,10.55c0,1.09.34,3.54,1.22,4.19a3.78,3.78,0,0,0,2.71,0c1.49-.6,4.12-2.93,4.65-4.45,1-3-3.87-10.13-1.82-12.55.78-.93,4.86,1.1,4.85-.12,0-3.25-10.3-1.91-13-.1-1.33.9-.84,5.45-2.36,6-2.4.86-6.8-3.54-8.93-4.95-2.47-1.65-6.68-8.73-9.32-7.37-4,2.09.55,13.65.94,18.18s-1.39,14.91,2.09,17.69c1.83,1.47,7-1,9.33-1,3.15.08,9.31,1.94,12.47,1.93s9-1.25,11.91-1.92c3.7-.83,10.88-3.37,14.56-4.29,4.12-1,12.44-2.65,16.61-3.42,3.75-.7,11.29-1.83,15-2.49,2.31-.41,7.09-.76,9.22-1.73,2.86-1.31,11.23-5,9.84-7.87-.74-1.49-6.48-.06-6.48,1.6"/><path class="cls-1" d="M702.19,788.6c0,1.43,4.06,2.15,4.49,3.51.23.71-.86,2.12-.87,2.87a6.63,6.63,0,0,0,.85,3.26c.53.63,2.28,1,3,1.41.32.22.78.87,1.12,1,2.37,1.13,7.77,1.75,10.38,1.53s7.28-3.33,9.86-3.17c1.69.1,4.6,2.17,6.15,2.86,2.57,1.14,7.71,3.39,10.33,4.39,1.94.73,6.41,1.18,7.88,2.65,1.78,1.77,2.59,7.08,3.27,9.5,1.83,6.47,6.22,19.53,5.87,26.24,0,.8-.29,2.67-1,3-.54.27-1.7-.66-2.3-.76a53,53,0,0,0-12.46-.05,19.18,19.18,0,0,0-5.81,1.86c-2,1.34-4.45,5.83-6.32,7.38a47.22,47.22,0,0,1-6.07,3.48c-2.95,1.59-9.18,4.19-12,6a60.62,60.62,0,0,0-9.64,8.22c-2.77,3.27-7.1,10.76-8.87,14.66-1.39,3.07-1.11,11.21-4.06,12.83-1.08.59-3.63-1.77-4.76-1.28-1.91.81-3.81,5.22-4,7.29-.29,3.2,4.51,9,4.06,12.21-.3,2.14-2.77,7.53-4.9,7.13-.74-.14-.62-2.2-.7-3-.49-4.79,2.14-14.71.53-19.25-.62-1.75-5-3.81-4.84-5.67.18-2,5.21-3.44,6.22-5.19.47-.82.4-2.8.62-3.71a85.83,85.83,0,0,1,3.91-12.27c.75-1.59,2.2-5.21,3.8-5.93,2.05-.93,7.22-.17,8.89,1.33,1.31,1.17,3,5.52,1.8,6.75-1.46,1.45-6.81-.41-7.94-2.13-1-1.49.75-5.31,1-7.08.43-2.63-.76-10.14,1.89-10.5,1-.14.77,3.26,1.72,3.56.52.16,1.54-.67,1.88-1.08a12.86,12.86,0,0,0,2.14-6.08"/><path class="cls-1" d="M124,174.75c0-.87,1.56-2.14,1.89-3a34,34,0,0,0,1.78-9.36,20.89,20.89,0,0,0-.89-4.49,54.11,54.11,0,0,0-2.64-6.23,29.26,29.26,0,0,0-2.07-3.5,8.81,8.81,0,0,0-2.38-2.41c-2.67-1.09-8.67.37-11.56.22-1.39-.07-5.55-.68-5.55-.68l-3.4-2-.57-1.17,1.84-2.2,6.84-.56,4.46,2.29,8.5-1.81,10.48-4.29,2.34.17,3.54.16,3,2.87.94,4.59a18.25,18.25,0,0,1,.79,3.87,10.59,10.59,0,0,1-1.13,2.86c-1.89,3.6-7,10-9.14,13.46-.74,1.24-2.11,3.8-2.69,5.14-.65,1.5-2.41,4.58-2.17,6.2.06.4.55,1.24.94,1.3,1,.15,2.69-3.36,3.39-2.56.46.53-1.46,1.51-2,2-.19.17-.61.49-.78.68a10,10,0,0,0-1.94,3c-.29,1.2.6,3.67.52,4.9a41.62,41.62,0,0,1-1.81,7.42c-.75,2.33-2.69,6.84-3.7,9.07-.39.85-2.13,2.51-1.69,3.32.31.57,2.16-.24,2.56.26.57.7-.19,2.72-.4,3.6a36.14,36.14,0,0,1-1.63,4.39,48.89,48.89,0,0,1-2.46,5c-.57.93-2,2.6-2.61,3.46-1.89,2.49-6.19,7.14-7.56,9.94-1.88,3.87-4.4,12.32-4.4,16.62"/><path class="cls-1" d="M549.72,940.39c0-1.45,1.27-5.6-.16-5.81-1.92-.26-1.84,5.51-2.34,7.38-1.9,7.26-6.19,21.85-6.19,29.35m-1.59-17.94c0-3.11-1.18-11.86-4.29-11.69-1.57.09-1.74,4.54-1.51,6.1.52,3.47,4.91,9.39,7.17,12.07,1.76,2.09,6.05,8.66,8.29,7.1,2.63-1.85-1.3-12.15-4.51-12-5.16.17-2.75,15.72-5.94,19.76-1.79,2.26-7.37,4.52-10,5.78-3.75,1.81-12.22,3.54-15.48,6.13-4.47,3.56-9.17,14.53-13,18.8-1.55,1.75-5.65,4.27-7,6.17a42.07,42.07,0,0,0-5,12.18c-.67,3.44.05,14,.05,14l3.94,6.06,5.41-1.77,14-1.68,7,7.26,10.82,2.39-4-11.16-8.07,9.77-9.8,9.29-3.51-.32,6.43,6.75,9.3-16.23,4.31-4.87,1-4.12s-1.32-12.6,1.78-14.56c1-.61,3.27,1,4.32,1.43,3.16,1.32,12.22,6.19,12.22,6.19l6.77,3.18s-8-17.54-12.19-22.29c-1.22-1.37-5.27-2.56-6-4.25-2.42-5.79,3.31-18.55,4-24.79.24-2.18,1-6.65.51-8.78-.74-3-3.37-10.06-6.42-10.75-3.49-.79-11.92,4.32-11.92,7.89"/><path class="cls-1" d="M566.62,831.05c0,2.68-5.77,5.64-7.39,7.78s-3.05,8.29-5.58,9.25c-6.74,2.55-20.3-8.71-27.51-8.67-4.23,0-12.32,3.3-16,5.3-4.8,2.58-12,11.57-17.12,13.49a22.68,22.68,0,0,1-10.23.54c-4.18-1.08-10.63-10.81-14.63-9.18-1.47.6-2.92,5.52-1.47,6.18,1,.44,1.74-2.8,2.5-3.58a45.2,45.2,0,0,1,6.54-4.85c1.74-1.09,5.24-3.82,7.3-3.77,1.28,0,3.23,2.12,4.44,2.52,2.94,1,9.66-.1,12.29,1.53S504.2,856,506.6,858c1.17,1,4.93,1,5.62,2.34,1.71,3.42-4.7,11.15-3.73,14.86.54,2.08,4.51,4.62,5.9,6.25,1.94,2.29,6.08,6.78,7.3,9.52,1.51,3.41,2,11,2.68,14.71.42,2.48,0,8,1.6,9.93.41.51,2.36.31,2.42,1,.17,1.89-4.77,4.91-6.42,4s0-5.18-.06-6.91c-.08-2.52-.69-7.56-.5-10.08.1-1.48,0-4.92,1.14-5.82.28-.2,1,.14,1.37.11a55.5,55.5,0,0,0,6.49-1.73c2.81-.73,8.41-2.41,11.28-2.84.59-.09,2.06.38,2.38-.12s-.6-1.77-.9-2.3a12.41,12.41,0,0,0-2.22-2.9c-3.07-2.34-10.44-5.49-14.29-5.87-4.38-.43-12.88,3.15-17.28,3.4-1.41.08-4.79.68-5.63-.46s2.11-4.57,1.3-5.82c-1.75-2.68-9.64-1.15-12.55-2.49-2.41-1.11-6.32-4.86-8.34-6.59-3-2.54-7.74-9.28-11.4-10.63-4.42-1.62-14.18,1.76-18.81.87-2.62-.5-9.73-1.71-9.73-4.38"/><path class="cls-1" d="M384.25,1055.74l.32-3.26,5-3.4,6.64-1,5.09-3.16v1l8.94,1.43,12.43,1.88L422,1048l.61-1,8-6.41,6.18-6.47s1-5.34,1.42-7.1c1-4.06,2.08-12.73,4.62-16,.54-.7,3.05-1,3-1.84,0-2.35-7.28-2.44-8.2-4.6s2.11-6.41,2.29-8.63c.11-1.31-.48-3.93-.52-5.25a99.86,99.86,0,0,1,.36-10.52c.16-1.53,1-4.52,1.06-6.06,0-5.28-3.52-15.61-3.22-20.88.12-2.14,1-6.5,2.24-8.24,1.71-2.45,6.85-6.23,9.77-6.87a3.72,3.72,0,0,1,2.39.44c1.34,1.15,2.25,4.92,2.26,6.68,0,2.73-3,7.69-3.35,10.4a36.39,36.39,0,0,0,.27,5.41c.13,1.86,1,5.61.65,7.46a16.41,16.41,0,0,1-3.06,6.46c-1.25,1.28-5.55,1.61-6.4,3.19-.66,1.23.5,4.15.7,5.54.27,1.86,1,5.57,1.24,7.44.27,2.45.41,7.37.53,9.83.08,1.62.15,4.87.31,6.48.05.53.59,1.67.29,2.11-.71,1-3.7.81-4.93,1.15A56.32,56.32,0,0,0,433,1013c-1.9.93-6.47,2.74-7,4.79-.28,1.25,2.43,3.18,2.5,4.45.12,1.86-2.34,5.08-2.83,6.87-.63,2.24-1.41,9.2-1.41,9.2l-1.5,7.8"/><path class="cls-1" d="M348.58,904.15c0,2,.71,5.88.59,7.84-.22,3.8.85,14.48-2.94,15-4.24.55-5.08-11.86-7.46-15.42-.78-1.18-3.75-2.81-3.75-4.22m-18.45-4c0,3.45.72,10.37.29,13.79-.41,3.25-3,9.38-3.53,12.6-.75,4.15-.92,12.63-1.39,16.83-.37,3.27-1.95,9.73-1.86,13s1.65,9.68,2.55,12.82c1.05,3.67,5.33,10.48,5.4,14.3,0,1.64-1.23,4.82-2.08,6.22-2.81,4.6-12.27,10.8-15,15.42a25.15,25.15,0,0,0-2.85,9c-.11,3.56,3.45,13.85,3.45,13.85l19.9,12.46,19.3,9m-6-21.21,2,12-.12-4.42-2.91,3.21-4,.33-1,2.53,2.07,7.12s-10.31-21.25-11.81-28.91c-.52-2.64.62-8.14,0-10.77-.48-2.1-2.87-5.79-3.74-7.76-.76-1.73-1-7.55-2.82-7-1,.31,1.7,3.55.85,4.21-.64.49-2.42-.75-2.9-1.39-.76-1-.73-3.76-.76-5,0-2.68-.76-8.85,1.22-10.66,2.38-2.17,9.72.35,12.88-.26s9.41-3.21,12.39-4.65c3.23-1.56,9.25-5.53,12.33-7.38,3.65-2.21,10.88-6.75,14.59-8.84,2.63-1.48,8.2-3.9,10.71-5.58,1.62-1.09,4.07-5.51,6-5,2.2.57,4.71,6.75,3.25,8.49-1.64,2-7.81-.71-10.05-1.94s-7.18-5-7.18-7.61"/><path class="cls-1" d="M632.3,825c0,4.59,13.66,2.15,18,3.58,3.75,1.23,11.39,9.38,14.3,6.71,5.22-4.79-2.69-26.83-9.77-26.58-11.26.4-1.27,42.5-12.5,43.3-8.47.6-5.7-33.08-13.92-31-3.79,1,3.79,12.59,1.25,15.57-1.89,2.23-9.43-1-11.64.94-4,3.4-4.26,15.15-4.81,20.35a117.6,117.6,0,0,0,.49,20.72c.36,2.7,2.63,7.86,2.64,10.59,0,2.95-3.1,8.5-2.8,11.43.21,2.11,3,5.64,3.63,7.67.21.68,1,2.47.41,2.81-1.36.74-5.42-2.7-4.69-4.06.45-.84,2.72.91,3.66,1a45.63,45.63,0,0,0,9.12-.28c1.81-.27,6.15-.35,7.09-1.92.32-.53-.75-1.81-.54-2.38.71-1.92,6.74-2.88,6.53-4.91-.3-2.91-9.72-2.18-10.57-5-.27-.86,1.26-2.41,1.84-3.09,1.82-2.14,6-8.12,8.61-7.21,2.05.7.18,7.06,1.83,8.46,2.59,2.18,10.44,2,13.55.61.86-.37,2.61-2,2.44-2.89-.13-.69-2-.84-2.46-1.32-3.76-3.67-7.28-14-10.42-18.21-4.2-5.62-12.93-17.58-19.41-20.23-7.26-3-23.89-1.48-31.36.89a7.57,7.57,0,0,0-3.06,2c-.94,1.41.41,6.93-1.26,6.66-2.27-.38.16-7.11,1.28-9.12,1.5-2.69,7.42-5.6,9.5-7.88a74.56,74.56,0,0,0,6.91-10.11c1.6-2.82,2.9-9.78,5.48-11.74,1.82-1.39,6.75-1.16,9-1.51,2.53-.39,7.89-2.69,10.12-1.45s3.4,6.39,3.84,8.73c1.54,8.2-1.3,25-1.46,33.3-.08,3.67.06,11,.06,14.65"/><path class="cls-1" d="M268.55,993c0,3-5.95,7.94-5.16,10.83.27,1,3.44,1.29,3.43,2.32,0,2.67-9,3.07-9,5.73m-38.75-25.6c0,3.61-1,11.21-3.15,14.08-.4.54-2,1.87-2.35,1.28-1.08-2,5.86-5.26,7.93-4.34,2.93,1.31,3.4,9.33,3,12.51-.52,3.7-6.2,9.47-7.28,13.05-.93,3.06-1,12.76-1,12.76l7.68,10.53,1.76,5.41,6.81-14,5.82-3.28s1.49-3.94,2.15-5.17a105.21,105.21,0,0,1,6.15-9.39c1.53-2.13,4.2-7,6.52-8.19,1.46-.75,5.26.65,6.55-.37s2.46-5,2-6.66c-1.26-4.77-9.54-12.33-14.32-13.6-3.33-.88-10.07,4.22-13.39,3.3-7.25-2-14-19.35-21.31-21.24-1.64-.43-4.94,2.41-6.55,1.86-5.07-1.74-9.91-12.69-12.69-17.27-2.28-3.75-3.94-13.6-7.76-15.76-2.14-1.2-8.15-1-9.75.87-2.27,2.62.41,10.4.8,13.84.42,3.67.26,11.61,2.47,14.57,1.4,1.88,6.2,3.36,8.42,4.11a89.1,89.1,0,0,0,11.38,2.25c4.1.63,12.34,1.7,16.48,1.83s12.69-.7,16.92-.86c3.79-.15,11.51.58,15.18-.41,4.5-1.21,16.37-4.26,16.37-8.92"/><path class="cls-1" d="M154.2,831.17c0-5.26-15.1-9.38-15.1-14.63m6.65-.6c0-4.81-11.81-12.12-16.26-10.28-1.17.48-1.09,3.67-1.12,4.94,0,.66,0,2.15.49,2.61,1.26,1.18,5.17.47,6.86.82,1.88.4,5.45,1.88,7.34,2.25,1.51.3,4.67.1,6.14.57a10.92,10.92,0,0,1,3.69,2.15,11,11,0,0,1,1.58,3.53,21.28,21.28,0,0,1,.43,4.36c0,1-.44,3-.51,4s-.07,2.59,0,3.46.18,2.51.19,3.34a42.79,42.79,0,0,1-.15,4.81,24.8,24.8,0,0,1-.78,2.93,66.45,66.45,0,0,1-3.11,8.06,58,58,0,0,1-4.08,5.91c-1.56,2.06-4.89,6-6.59,8-2,2.35-6.51,6.73-8.42,9.19-2.27,2.91-5.86,9.39-8.07,12.35-1.41,1.9-4.5,5.48-6.1,7.22-1.4,1.52-4.39,4.4-5.86,5.85s-4.42,4.32-5.9,5.76-4.07,4-5.52,5.28-5,3.61-6.46,5a24.17,24.17,0,0,1-1.91,2c-1,.63-3.37,1-4.39,1.54-.59.33-2.32,1.08-2.11,1.72.07.22.69.06.91,0,1.44-.12,4.2-1,5.63-1.22,2.22-.3,6.73-.43,9-.47,1.91,0,5.73.1,7.64.11s5.35.15,7.12,0c1.18-.12,3.5-.71,4.67-.91,2.41-.41,7.24-1.12,9.66-1.45,2.95-.4,8.85-1.13,11.81-1.43,1.79-.17,5.66-1.53,7.18-.55.29.19.12,1.29.47,1.31.87.05,1.58-2.25,1.58-3.12"/><path class="cls-1" d="M136.41,928.83c0,1.08-2.87,1.58-3.94,1.75-1.37.23-4.22-1-5.54-.52-4.14,1.37-10.74,7.93-12.94,11.69a28.35,28.35,0,0,0-2.78,12.32c.13,1.5,2.1,4.09,2.31,5.59a3.37,3.37,0,0,1-.19,1.64c-.64,1.11-4.41,1.8-4.12,3,.42,1.79,5.38,1.13,7.2,1.3,2.49.24,7.78-1,10,.11,3.79,1.93,8.56,9.7,10.11,13.65.76,1.92,2.27,6.64.92,8.2-1.8,2.09-8.26.15-11,.4-3.56.33-12.31-.94-14.14,2.13-.17.3.57,1,.48,1.3-.58,2.1-4.77,4.6-6.77,5.45-1.1.48-4.74-.58-4.76.62-.14,6.64,21.2.09,26.19,4.47,2.36,2.07,3.77,8.87,3.7,12-.08,3.79-4.17,10.6-5.1,14.27-1.09,4.33-2.71,17.66-2.71,17.66L119,1064.48l-5.16-1.14-9.14-4.11-8.16-4.15.15-6.89-1.51-9.41s2.25-8.37,3.4-11c.88-2,3.78-5.41,4.37-7.5.85-3-1.08-9.64.35-12.39,2.93-5.66,16.49-10.25,20.39-15.29,2.9-3.73,5.91-12.92,7.19-17.47.77-2.75,2.43-8.51,1.78-11.29-.39-1.68-4.82-4.12-4-5.63,1.15-2.06,7.06.65,9.42.58,2.6-.07,9.34-3.63,10.35-1.23.82,2-4.75,4.35-6.63,5.33a23,23,0,0,1-5.59,1.64,28,28,0,0,1-6.47,0c-2.22-.37-6.27-2.67-8.51-3-3.09-.43-9.37,1.12-12.47.76-2.47-.29-9.53-.38-9.53-2.86"/><path class="cls-1" d="M178,694.38c0,2-5.23,3.33-5.86,5.18-1.38,4.14,7.72,16.19,3.46,17.12-1.1.24.08-4.2-1-4.36-7.2-1-10.52,19.1-14.17,25.38-2.65,4.56-9.12,13.07-10.91,18-1.16,3.22-1.62,10.14-2,13.54s1.18,10.76-1.13,13.11c-1.39,1.41-5.95,1.16-7.9.8-1.29-.25-3.43-2.8-4.67-2.39-2.06.69-1.72,7.19-3.8,7.81-2.91.88-7.88-4.59-10.48-6.19-1.32-.81-4.62-1.91-5.23-3.34-1.16-2.73,1.18-8.93,2.33-11.68.83-2,3.85-5.25,4.82-7.18,1.91-3.77,4.29-11.92,5.73-15.89.59-1.64,1.77-4.94,2.39-6.58.55-1.47,1.24-4.67,2.3-5.83,2.4-2.6,9.16-6.25,12.7-6.26,2.93,0,7.62,5.5,10.53,5.13,3.4-.44,7.46-7.19,10.43-8.91s9.38-5.12,12.72-4.6,7.17,8.65,10.38,8c2.24-.45,2.25-7.66,4.52-8,.85-.11,3,1.81,2.39,2.46-1.87,2.14-6.35-6.21-9.14-6.76s-8.89,1.55-11.58,2.84c-3.27,1.59-8.32,7.13-11.49,8.91-3.64,2-11.76,4.29-15.59,5.94-3.07,1.32-8.79,6.59-12,5.81-5.61-1.34-11.34-13.21-14-18.35-3.23-6.35-5-20.9-8.15-27.32-3-6.19-10.13-18.65-15.81-22.53-2.64-1.81-9.59-4.57-12.41-3-4.05,2.18-5.09,12.87-6.15,17.34a87.43,87.43,0,0,0-1.57,12.7c-.08,2.07.23,6.2.37,8.27.45,6.86,3.94,20.71,2.35,27.4-.52,2.18-4.72,5.4-4.72,7.65"/><path class="cls-1" d="M746,136.36l5.09-10s2.83,20.45,1.56,27.12c-.36,1.87-2.65,5.08-3.21,6.89-1.19,3.81-3,11.75-2.66,15.72.4,5.09,3.72,15.09,6.52,19.36,1.12,1.72,4.63,4.07,6.08,5.53s4.5,4.37,5.49,6.18c.88,1.64,1.27,5.45,1.95,7.18A60,60,0,0,0,771.3,223c.82,1.24,3.58,3.1,3.79,4.58.43,3-4.07,8.21-4.82,11.15-.4,1.55-.18,4.82-.6,6.35a20.32,20.32,0,0,1-2,4.23c-.74,1.13-2.22,4.11-3.57,4.07-2.6-.07-5-6-6.41-8.18-2-3.05-9.48-10.45-6.75-12.85.32-.28,1.23.58,1.38,1,.88,2.4-.26,8.79-2.56,9.88-2,.95-6.12-2.79-8.14-3.78-.75-.36-2.49-.83-3-1.51-5-7.35-12.12-32.8-3.62-35.42,1.46-.45,1.4,5.59,2.9,5.36,3.32-.52.92-10.23,2.51-13.19,1-1.85,4-6.33,6.06-5.87,2.73.6,5.17,7.93,4,10.45-1.1,2.31-7.19,3.29-9.76,3.2-2.1-.07-5.67-3.16-7.77-3.17-3.69,0-11.29,2.62-13.73,5.39-1.47,1.66,0,8.42-2.21,8.59-1.9.14-1.53-5.79-3-7-1.9-1.57-7.61-.71-9.63-2.13-2.8-2-5.66-8.6-7.3-11.61-1.87-3.46-2.71-13.62-6.59-14.28-1.92-.33-4.14,4.14-5.42,5.6-1.64,1.87-3.69,8.1-6.16,7.81-2.84-.33-2.19-9.27-4.83-10.37-.76-.32-2.44.61-3.1,1.11a18.57,18.57,0,0,0-3.61,5,52.24,52.24,0,0,0-3.06,9.09c-.54,2.27-.83,7-1.27,9.24-.94,4.85-4.82,14.22-4.82,19.15"/><path class="cls-1" d="M94,305.91c0,3.64-2.72,10.65-2.72,14.28m-4.92,3.12c0,9,8.1,25.73,10.54,34.39,1.27,4.51.6,15.86,4.69,18.15,2.39,1.33,8.4-1.41,10.45-3.22,11-9.73,9.56-53.75,24.28-53.65,2.64,0,2.73,7.5,4.21,9.68,3.43,5,13.91,12.18,17.21,17.32,2.45,3.81,5.87,12.45,6.37,16.94.38,3.46-.7,10.51-1.91,13.77s-4.29,13-7.76,12.09c-15.4-4.14-.66-47.93-2.95-63.7-.19-1.29-.06-4.53-1.26-5.06s-3.14,2.46-4.39,2.43c-1.59-.05-3.8-3.5-5.39-3.39-2.1.14-4.84,4-6.44,5.39-2.06,1.76-5.8,5.83-8.19,7.11-2,1.08-6.52,2-8.75,2.44a87,87,0,0,1-11.83,1.19c-3.52,0-10.49-1.48-14-1.35-3,.11-12-.93-11.68,2,0,.16.51.06.63,0,1.83-1.54,1.67-7,2.23-9.3.78-3.24-.09-12.17,3.15-12.95.61-.15,1.08,2.16,1.66,1.9,2.68-1.17-2.71-9.06-1.33-11.64.72-1.35,4-3.41,5.44-2.81,1.71.74,1.35,5.43,2.06,7.15.85,2.09,2.42,6.66,4.28,7.94.75.52,2.83.94,3.62.48s1.31-2.77,1.58-3.75c1.12-4,.16-12.94,2.46-16.39.77-1.14,4.26-1.54,4.71-2.84.07-.19-.29-.56-.29-.77-.08-5.85,5.31-16.79,7.78-22.1C119.69,266,126,257.67,128,252.92c2.16-5,6.67-15.4,6.11-20.78-.22-2.06-1.9-6.81-3.91-7.27-.91-.22-2.26,1.67-3,2.19s-3.25,1-3.25,1.92"/><path class="cls-1" d="M158.79,489.11c0,1.69-3.28,3.86-4.48,5.06-1.9,1.89-6.59,4.84-8.08,7.08s-3.28,8-3.6,10.85a34.93,34.93,0,0,0,.69,6.89c.11.69,1.24,2.44.6,2.73-3.32,1.58-6.78-8.71-9.13-11.54-2.06-2.47-5.71-8-8.44-9.69a24.93,24.93,0,0,0-10-2.55c-1.7,0-4.89,1.39-6.51,1.88-2.56.79-7.57,2.78-10.2,3.32-1.64.33-5.06,1.05-6.67.6s-4.62-3-5.82-4.34c-.78-.88-2.85-3-2.3-4.06.43-.81,2.74-.21,3.66-.28,1.3-.1,4,.18,5.23-.38,1.81-.87,5-3.91,5.51-5.84.59-2.16-1.26-6.61-1.94-8.74a17.86,17.86,0,0,1-.83-2c-.17-1.21-.18-3.87.53-4.88,1-1.36,4.73-1.83,6-2.88s3.36-4.1,4.35-5.57c1.69-2.49,7.79-7.92,6.09-10.41-.26-.38-1.48-.05-1.79.28s-.74,2.24-.17,2.44c.75.25,1-2.39,1.73-2.65,1.33-.46,4,2.33,5.34,1.78s1.64-3.38,2.16-4.52c.22-.48,1-1.44.86-2-.32-1.28-2.83-3.31-4.16-3.29-.6,0-1.28,1.72-1.85,1.54-2.15-.68-.14-8.4-2.38-8.71-1-.15-1.19,3.92-2.16,3.55-2.24-.84,1.83-7.05,1.65-9.44-.27-3.77-2.49-11.34-4.76-14.37-1.53-2-6.44-4.1-8.37-5.76-1.27-1.09-3.11-5.63-4.6-4.87-.46.24-.12,2,.39,2,2.11.16.93-7.18,2.9-7.95,1.78-.69,5.62,2,6.76,3.51a12,12,0,0,1,1.37,7.37c-1,3.91-10.28,8.41-10.28,12.45"/><path class="cls-1" d="M294.83,382.59c0,4.48-1.58,13.85.28,17.93,1.38,3,7.2,7,9.91,8.88,1.62,1.16,6.67,1.89,7,3.86,1.49,10-18.89,24.81-28.05,29-2.35,1.08-8-.43-10.31.64-3.34,1.52-7.32,8.28-10.28,10.44s-10,4.18-12.81,6.43c-3.06,2.47-6.73,9.87-9.84,12.28-3.71,2.87-12.81,5.84-17.13,7.69-1.48.64-4.35,2.47-6,2.44s-5-1.76-6.34-2.92c-3.63-3.19-6.57-13.25-10.25-16.37-3.32-2.81-11.75-7.22-16.07-6.66-4.65.6-11.4,8.29-14.95,11.37-1.68,1.45-6.8,4.05-6.33,6.21.4,1.8,5.14,2.15,7,2.48.3.06,1.13.31,1.21,0,.28-1-2.66-2.47-3.61-2.06-3.76,1.6-2.68,12-4,15.83-.34,1-1.37,3-1.69,4.05-.13.41.09,1.74-.33,1.68-2.64-.38-.41-8.36,1-10.64,1.95-3.24,9-7.29,12.66-8.23,4.25-1.09,13.12,1,17.5,1.26,4.94.27,14.84.85,19.79.74,2.81-.07,8.47-.25,11.2-.93a59.21,59.21,0,0,0,6.75-2.95c2.32-1,8.1-1.85,9.27-4.1,1-1.93-3.83-8.09-1.7-8.57,4.94-1.11,6.59,14.87,4.91,19.65-.37,1.06-3.39,1.61-3.57,2.72-.6,3.6,4.89,10.44,8.14,12.08s10.85.07,14.38-.62c2.62-.52,10.61-1,10.06-3.61-.23-1.12-3.56-.2-4.58.32-1.82.93-4.88,4.27-5.25,6.29-.82,4.51,4.21,13.1,6.05,17.3,1.48,3.38,6.71,9.34,6.94,13,.24,3.88-5.34,10.64-5.54,14.52-.12,2.47,2.58,7.1,2.58,9.57"/><path class="cls-1" d="M601.39,160.86c0,1.43,3.58,2.64,4.11,4,1,2.43-.41,7.83-.56,10.45-.08,1.39-.38,4.16-.34,5.55,0,1.6.56,4.75.8,6.33.3,2,1.13,5.94,1.38,7.94.29,2.36,1,7.13.69,9.49-.42,3.29-2.2,10-4.23,12.58-.94,1.21-4.06,2.26-5.14,3.34a1.74,1.74,0,0,0-.44.67c-1.34,7.94,9.4,23.37,7.76,31.25-.09.47-1,1.07-1.17,1.54-.08.3.45,1.22.14,1.25-.71.09-.35-2.11-.38-2.83-.39-7.73-2.54-24.06,1-30.95.35-.67,2.21-1.11,2.4-1.84.22-.91-1.16-2.56-1.57-3.4-1.66-3.39-4.23-10.78-7-13.39-1.06-1-4-1.87-5.34-2.47-.92-.41-3.12-2.45-3.69-1.62-1.23,1.76,4.49,4.62,5.95,6.19.44.46,1.07,1.91,1.7,1.88,1,0,1.86-2.37,2.38-3.23,1.85-3.1,4.17-10,6.21-13s7.4-8.2,10.1-10.68a24.38,24.38,0,0,0,2.73-2.18c1-1.34,1.2-4.87,2.14-6.22,1.09-1.54,4.41-3.56,5.91-4.71.6-.46,2-1.14,2.44-1.78s.91-2.3.48-2.89c-.26-.37-1.33-.3-1.78-.29-1.05,0-3.46,1.8-4.09,1-.15-.18.34-.61.45-.82.77-1.44,2.23-4.38,3-5.83.91-1.69,2.2-5.57,3.74-6.72,2.86-2.12,10.8-1.29,13.92-3,1.56-.86,5-5.1,5-5.1l4.11-9-1.55-7.73,3.11,7,5.44,3.26,6.12-.31"/><path class="cls-1" d="M558.53,186.57c0-.67-1.58-1.29-2.21-1.51-2.23-.77-7.18.1-9.41-.67s-5.7-4.48-7.92-5.36c-2.39-.94-7.64-2.08-10.16-1.6-3.26.62-9.24,4.21-11.43,6.69-1.36,1.53-1.36,6.73-3.25,7.53-1.41.59-5.77-.67-5.73-2.21.2-6.17,18.28-4.2,23.56-7.39,1.15-.7,2.61-3.2,3.81-3.8.6-.3,2.44.24,2.63-.39.26-.85-2.38-1.52-2.64-2.37-.33-1.11,2.16-3.89,1.17-4.51-.48-.29-2.05,1-1.69,1.47,2.32,2.85,10.58-5.42,11.67-8.92s-2.09-11.27-4.52-14c-1.26-1.44-5.22-2.4-6.93-3.27-1.4-.72-5.51-3-5.51-3l6.93-5-2.28-4.87-14.23,4.29,5.72,3.11,6,3.69s6.62,3.42,8.17,5.3c.81,1,1.45,3.51,1.9,4.69.38,1,2,3,1.42,3.93-.83,1.35-4.83.21-6.32.78-3.18,1.21-10.08,4.54-11.22,7.75-.51,1.45,1.42,4.4,1.72,5.91.45,2.33.66,7.1,1,9.46s.25,7.53,1.39,9.7c1.36,2.61,7.46,5.3,8.62,8,1,2.24.47,7.38-.13,9.74-.42,1.67-2.88,4.4-3.18,6.09-.33,1.84,1.34,5.59.94,7.42-.33,1.52-3.18,3.73-3.28,5.28-.14,2.12,2.87,5.69,3.52,7.71s3.76,7.89,1.69,8.59c-.45.16-.43-1.46-.85-1.69-1.63-.94-5.72,0-7.53.49-2.59.75-7.28,3.58-9.45,5.18-1.58,1.18-5.65,3.53-5.65,5.5"/><path class="cls-1" d="M409.84,140.65l7.81,2.26L427.88,144l15.83-6.2,2,4s-6.3,5.81-7.84,8.18a52.75,52.75,0,0,0-5.55,13.56c-.19.95.49,3.09,0,3.89-2,3-10.47,3.21-13.31,5.41-7.23,5.61-22.27,20.28-21.8,29.41.15,2.81,5.05,7.11,7.6,8.3,4.64,2.17,15.36.46,20.46.91,2,.18,6,1.81,7.87,1.07.44-.18,1.54-1.18,1.19-1.52-1.07-1.06-3.5,2.9-4.7,3.82-2.78,2.13-9.39,5.31-11.35,8.22-1.64,2.43-4.06,8.74-2.81,11.39,2.41,5.08,15.24,7.23,20.32,9.65,2.52,1.21,7.6,3.57,10.09,4.85.78.4,2.29,1.33,3.09,1.7,2.32,1.07,8.4,1.36,9.54,3.64.29.58-1.13,2-.71,2.47,1.06,1.22,5.89.62,6.39-.92.65-2-4.28-5-6.22-5.94-2.3-1.09-7.57-1-10.09-1.29-3.37-.38-10.11-1-13.48-1.28-2.54-.21-7.62-.59-10.16-.74-4.73-.28-17.69,3.7-18.91-.87-1.11-4.16,12.25-5.61,14.51-9.27,1.33-2.15,1.42-7.57,1.06-10.08s-3.15-6.91-3.84-9.34c-.82-2.88-2.17-8.82-2-11.8.17-2.24,2.22-6.37,2.79-8.54.92-3.5,1.52-10.84,2.85-14.2,1.06-2.66,5.71-6.86,6-9.7.29-2.29-2.38-6.52-2.83-8.78-.36-1.77-.36-5.39-.59-7.18-.2-1.62-.81-4.83-1.12-6.44-.55-2.88-2.39-11.48-2.39-11.48l-1.43-13.58,4.19,6.35,14.71-2.36"/><path class="cls-1" d="M370.48,153.41c0-.74.59-2.46.06-3-3-2.89-12.43.24-16.54.71-2.83.32-8.36,2.08-11.21,2.1-1.74,0-5.15-.9-6.86-1.21-2.55-.46-7.6-1.71-10.18-1.88-2.09-.15-6.35-.23-8.35.38-1.15.35-3.46,1.48-4.1,2.5s-.57,3.5-.51,4.68a55.92,55.92,0,0,0,1.76,8.53c.58,2.25,2,6.7,2.81,8.88s2.94,6.73,4,8.93c.94,2,3,5.76,4,7.69s2.93,6.09,3.95,8.1,3.41,6.3,4.54,8.4c.92,1.71,2.78,5.13,3.68,6.85a51.08,51.08,0,0,1,3.11,6.07c.59,1.88.61,5.88,1.07,7.79a69.16,69.16,0,0,0,3,8.69c1,2.33,3.72,6.67,4.83,9,.74,1.56,2.88,4.62,2.72,6.34a6.15,6.15,0,0,1-2.19,3.28c-1,.62-3.54.3-4.67.63-1.31.39-3.65,1.92-4.95,2.33a19.89,19.89,0,0,1-4.39.76c-1.09,0-3.39-.08-4.28-.7-1.31-.92-2.28-4.26-3.16-5.61-1.21-1.85-4.28-5.12-5.31-7.08s-1.24-7.12-2.94-8.63c-2.83-2.51-11.3-1.71-14.8-3.15-1.58-.65-5.26-2.06-5.77-3.7-.18-.59.61-1.75.95-2.26,3.72-5.57,14.87-13.65,18.82-19.05A57.88,57.88,0,0,0,324.7,200a59.3,59.3,0,0,0,2.9-10.69c.41-3.44-1.24-10.5-.34-13.85,1-3.64,7.5-9.11,7.89-12.86s-2.13-11.7-5-14.05c-2.08-1.69-9.05.72-10.61-1.45-.59-.82.76-4,.76-4l-.43-5.72-6.09.22"/><path class="cls-1" d="M231.66,121.14l2.75,7,7.63,13s6.22,5.24,8.34,6.92c1.89,1.5,5.65,7.09,7.69,5.81,2.29-1.43-2.06-10.6-2.06-10.6a48.41,48.41,0,0,1,3.77,4.09c2.7,4,6.26,12.92,8.38,17.2.94,1.9,3,5.64,3.81,7.58a25.41,25.41,0,0,1,1.78,4.72c.22,1.46.92,5.18-.37,5.9-3.1,1.75-9.05-6.91-12.59-6.59-1.83.16-4.78,3-5.8,4.52-1.52,2.26-1,8.58-2.92,10.48-1.38,1.35-6.33.35-7.48,1.89-.64.85-.31,3.29.15,4.25a9.92,9.92,0,0,0,4.53,4c1.27.35,3.93-1.4,5.16-1,.91.33,1.78,2.28,2.48,2.93.94.88,2.85,3.06,4.14,3.06s3-2.24,4-3c1.3-1,3.56-3.71,5.17-4a5.66,5.66,0,0,1,3.62,1.34,4.92,4.92,0,0,1,.91,3.13c-.1.57-1.06,1.38-1.38,1.85-.82,1.2-2.38,3.65-3.09,4.91-1,1.78-2.73,5.48-3.65,7.3-.7,1.4-1.75,4.43-2.81,5.58s-4.84,2.16-5.8,3.57c-2,2.95-.67,11.06-2.56,14.11-1.6,2.56-7.73,4.89-9.71,7.17s-3.4,8.37-5.58,10.35c-1.52,1.37-5.51,3.39-7.54,3.14-2.58-.32-6.5-4.37-8.31-6.24-1.61-1.67-3.17-8.57-5.3-7.63-.63.28,1.28,2.49.62,2.7-2.85.94-3.68-8.18-4.8-11-1.43-3.58-3.72-11-5.3-14.48a51.38,51.38,0,0,0-3.25-6,83.6,83.6,0,0,0-8-9.44c-.92-.9-3.11-2.33-4-3.24-2.27-2.25-8.13-6.65-8.13-9.85"/><path class="cls-1" d="M699.12,1025.71c0-2.44-4.18-6.49-4-8.92.55-6.1,8-18.26,13.79-20.27,2.82-1,8.51,2.7,11.36,3.58,2,.63,6,1.95,8.07,2.47,1,.26,3.15.66,4.21.84,1.38.24,4.39,0,5.56.82s1.91,3.4,2.7,4.43c2,2.6,5.82,8.73,9,9.5,2.18.53,6.29-3.53,8.46-2.95,1.07.28,1.8,3.24,2.9,3.34,2.27.19,5.6-4,7.06-5.75s1.92-7.64,4-7.4c5.85.68,6.21,22.72,6.21,22.72l.94-22.47-2.6-13.43.51,3.79s-5.22-10.37-8.59-11.71c-2.9-1.15-9.75.39-12.25,2.25-2.7,2-2.91,11-6.14,12-1.43.43-3.73-2.63-5.18-3-2.93-.68-9,.49-12,.74-2.15.17-6.84-.39-8.59.87s-1.62,6.53-3.41,7.58c-1.32.77-4.76.22-6.09-.55-2-1.14-4.15-5.48-5.26-7.49-2.24-4-5.07-12.92-7.21-17-1.8-3.44-4.72-11.62-8.3-13.11-4-1.65-13.74.79-16.85,3.77-2.89,2.78-3.3,11.58-4.14,15.5-1.32,6.19-2.79,18.8-4,25-.26,1.28-1.13,3.78-1.23,5.09,0,.34-.17,1.19.12,1.38.48.3,1.72-.39,2.1-.81,1.41-1.53.26-7.59,2.31-8,1.59-.3,2.39,4.86,4,5.11,2.27.36,5.87-3.68,7.63-5.17.77-.65,2-2.3,2.8-2.9,1.19-.89,4.5-1.47,5.29-2.73.24-.38,0-1.34,0-1.79m-9.24-25.12c0,3.3.34,9.89.34,13.19"/></svg>