<svg id="Layer_1" data-name="Layer 1" xmlns="http://www.w3.org/2000/svg" viewBox="0 0 841.89 1190.55"><defs><style>.cls-1{fill:none;stroke:#010101;}</style></defs><title>Artboard 2</title><path class="cls-1" d="M354.6,130.38c0,1.89,4.57,1.31,5.75,2.5.92.93,1.83,3.76,2.44,5a16.37,16.37,0,0,1,1.41,2.92c.24,1.3-.26,4-.36,5.35a8.94,8.94,0,0,0-.2,2.65c.31.79,1.84,1.33,2.38,1.9.34.36.76,1.68,1.2,1.64s.93-1,.73-1.26c-.33-.48-1.36,1.23-1.85,1.07-1.13-.36-1.77-3.87-2.74-4.67-2.27-1.84-8-2-10.58-3-3-1.15-8.74-4.7-11.81-5.7-1.16-.38-3.7-1.53-4.77-.84s-3.05,4.42-2.44,5.89c3.14,7.49,23.21-2.33,27,4.7.54,1-.39,3.74-1,4.69-1.27,2-5.46,3.3-7.19,4.61s-5.09,5.27-7.11,6.3c-1.24.62-4,.73-5.29,1-2.72.59-8.09,2.77-10.85,2.63-2.12-.1-6.08-2.32-8.15-2.84-1.19-.3-3.67-1.32-4.79-.76-1.41.69-3.23,4.12-3.85,5.84-.81,2.22-.12,7.66-1.3,9.61-1.49,2.49-6.79,4-9,5.45-1.87,1.25-5.47,4.06-7.3,5.39s-7.86,2.86-7.93,5.7c0,.21.43.33.56.46,1.17,1.2,3.77,3.6,4.27,5.38.37,1.3-.33,4.12-.44,5.49-.2,2.35-.39,7.11-.81,9.41a60.32,60.32,0,0,1-2.36,8.3,19.47,19.47,0,0,1-1.38,2.69,22.68,22.68,0,0,1-3.39,4c-1.85,1.5-6.07,3.33-8.18,4.15-1.61.63-5.12.83-6.61,1.84-2,1.35-5.24,5.65-6.42,7.91-.9,1.73-3.53,5.47-2.8,7.28.3.73,2.6,1.32,2.38,2.08-.76,2.61-10.76,4.34-10.76,1.62"/><path class="cls-1" d="M196.53,250.22c0,1.67-1,5.86.49,6.64,2.24,1.19,8.8-2.54,8.8-5.09m-5.4-4c0-1.13-2.84-2.08-3.29-3.12s0-3,.17-4c.1-.69.78-2,.68-2.66-.27-1.83-2.45-5-3.76-6.14s-4.44-1.5-5.69-2.45a14.49,14.49,0,0,1-3.65-4.49,17.47,17.47,0,0,1-.6-6.76c.28-1.78,2.15-4.89,2.79-6.56,1-2.53,2.3-7.88,3.56-10.25a30.87,30.87,0,0,1,4.1-5.37A27.15,27.15,0,0,1,199.9,192a35.83,35.83,0,0,1,7.41-2,36.62,36.62,0,0,1,6.27-.47,10.48,10.48,0,0,1,3.49.65c1.13.64,2.62,3,3.58,3.94,1.25,1.18,4,3.21,5.33,4.28,1.16.94,3.45,2.86,4.65,3.74a37.49,37.49,0,0,1,3.86,2.57,8,8,0,0,1,1.85,2.84c.28,1.34-.47,4.1-.81,5.43-.52,2.05-2.13,6-2.91,7.91a48.94,48.94,0,0,1-2.2,5.08,27.57,27.57,0,0,1-3.13,4,14.57,14.57,0,0,1-3.31,2.64,7.64,7.64,0,0,1-3.89.43,7.48,7.48,0,0,1-3.4-3c-.51-1.18-.27-3.95,0-5.21.54-2.19,3-6,4.1-7.91,1.38-2.55,4.57-7.4,5.74-10.08.77-1.76,1.62-5.6,2.33-7.4a74.1,74.1,0,0,1,3.76-7.89c1.28-2.18,4.4-6.11,5.84-8.17,1.27-1.82,3.94-5.36,5-7.34,1.33-2.49,3.07-8,4.27-10.56s4.69-7.18,5.39-10c1.75-7,0-29.11,0-29.11m2.54-2.79"/><path class="cls-1" d="M70.87,247.2c0-4.33,10.13-7.62,14.08-8,3.44-.31,9.85,3.51,13.15,4.64,1.84.63,5.55,1.79,7.38,2.46,2.15.78,6.27,3.4,8.55,3.41,7,0,19.48-9.45,26.46-10.3.35,0,1,.21,1.4.18a24.57,24.57,0,0,0,5.44-1.55,50.17,50.17,0,0,0,7.82-4.09c1.54-1.1,4.16-4,5.62-5.21,2.06-1.74,6.77-4.45,8.53-6.55,1.13-1.34,3.37-4.54,3.24-6.35-.23-3.17-4.7-8.36-7.19-10-2.89-1.92-10-2.06-13.31-2.75-4.28-.88-12.78-3-17.11-3.51-1.65-.19-5-.11-6.63-.14a11,11,0,0,0-3.55.52,32.92,32.92,0,0,0-4.12,1.32c-2.64,1.4-6.81,8.45-9.59,7.42-2.33-.87-3.47-7.64-2.91-10.25.62-2.88,5.68-6.35,7.47-8.57s6.28-6,6.61-8.84c.26-2.27-3.07-6.07-3.54-8.3-.28-1.33.08-4.11-.07-5.47h0a12.05,12.05,0,0,0-6-8.2,10.63,10.63,0,0,0-1.67-.87h0a8.76,8.76,0,0,0-6.7,3.22c-1.38,1.64-4.56,4.58-5.5,6.54-.79,1.66-2,5.53-1.47,7.3,1.34,4.22,9.11,9.12,12.66,11.33,2.28,1.42,7.42,5,9.84,3.91,1.32-.6,1.84-4.23,2.42-5.65.79-1.92,2.37-5.75,3-7.73.49-1.54,1.79-4.66,1.61-6.28-.35-3.18-4.33-8.36-5.77-11.16-1-2-3-5.93-4-7.88-1.46-2.78-4.48-8.31-5.46-11.33a44.42,44.42,0,0,1-1.81-10.11"/><path class="cls-1" d="M373,171c0-2.34,7.42-2.09,9.33-.73,2.32,1.66,1.48,8.57,2.87,11.07s7.4,5.2,8.06,8c1.14,4.77-6.37,13.73-6.17,18.63.11,2.86,3.39,7.88,4.45,10.53.13.34.16,1.27.51,1.37,1.22.34,3-2.36,3.77-3.4,1.3-1.83,2.59-6.22,3.47-8.3s2.73-6.19,3.54-8.3c1.58-4.12,3.39-12.94,5.68-16.72,2-3.35,8.59-8.12,10.8-11.35a55,55,0,0,0,5-10.66c.61-1.86,1-5.79,1.47-7.68.43-1.6,2.12-4.61,2.21-6.27s-1.07-4.71-1.42-6.28c-.28-1.25-.79-3.77-1.12-5s-.66-3.71-1.45-4.62c-.32-.37-1.33-1.09-1.76-.86-1,.55-.52,3.42-.57,4.57a23.91,23.91,0,0,1,.06,2.67c-.55,2.67-3.45,7.41-4.54,9.91-1.26,2.86-3.92,8.56-4.84,11.55-.3,1-.56,3.05-.81,4.05s-.73,2.65-1,3.52c-.66,2.13-1.78,6.49-2.84,8.45s-4.82,5.34-5.93,7.44-2.1,6.34-2.63,8.5a59.91,59.91,0,0,0-1.25,6.91,34.85,34.85,0,0,0,0,6.62,53.62,53.62,0,0,0,1.8,5.46c.59,1.92,1.89,5.73,2.24,7.7.3,1.67.28,5.08.45,6.77s.81,4.76.83,6.36c0,1.76-.91,5.24-.79,7a21.09,21.09,0,0,0,1.44,5.45,26.56,26.56,0,0,0,2.65,3.7,48.74,48.74,0,0,0,3.94,4.54,27.69,27.69,0,0,0,5.37,3.84c1.56.7,5,1.67,6.69,1.48,2.42-.28,6.64-3.07,8.81-4.2s8.5-2.38,8.5-4.83"/><path class="cls-1" d="M447.63,251.57c0-3.6-1.47-13.56,2.07-14.25,3.74-.75,5.14,10.36,7.77,13.12,2.43,2.55,8.52,6.38,11.76,7.75,1.42.61,4.54,1.79,6,1.36,3.35-1,7.36-7.43,9.87-9.85.63-.6,2.18-1.59,2.56-2.37.61-1.26.22-4.19.44-5.57.31-2,1.66-5.77,1.82-7.75.28-3.43-.45-10.34-1-13.75-.39-2.51-2-7.35-2.39-9.87-.38-2.73,2.27-10.9-.49-11-1.35-.07-.14,4.15-.81,5.32-.32.56-1.35,1.69-2,1.64-1.11-.08-2.42-2.33-3-3.27-.26-.42-1.12-1.61-.69-1.85,1.1-.62,1.83,4,3.09,4,1.9,0,3.71-4.34,4.73-6a86,86,0,0,0,4.24-8.68c.78-1.77.93-6.84,2.83-7.21,2.26-.43,5.38,4.6,6.31,6.7s1.74,6.25,2.64,8.21c2.17,4.73,8.66,13,10.89,17.74a60.46,60.46,0,0,1,4,11.57c.5,2.88.26,8.77.11,11.69-.11,2,1.44,7.5-.5,8-1,.24-1.83-2.39-2-3.35-.57-2.6.88-8,1-10.62.11-4.93-1.11-14.79-.8-19.71a143.33,143.33,0,0,1,3.28-19.63c1.12-4.45,4.39-13.06,6-17.38s4.72-13.41,6.78-17.66c1.43-2.95,5.11-8.39,6.68-11.26,1.36-2.48,3.13-8.09,5.11-10.11.62-.63,3-.78,3.11-1.64.31-1.87-3.31-5.77-5.18-5.5-2.24.32-3.44,5.92-4.09,8.09-1,3.25-3,10.47-1.51,13.51,1.13,2.24,6.43,3.9,8.65,5.06,3,1.54,9.3,3.81,12.14,5.58,3.4,2.11,10.15,6.81,12.45,10.1,2.11,3,4.78,10.29,4.78,14"/><path class="cls-1" d="M584.82,139.92c0,2.82,4.9,6.92,6.33,9.36,1,1.69,3.45,5,3.55,7,.13,2.72-2.4,7.91-3.94,10.15-1,1.45-4,3.38-5.16,4.74s-3.81,4.52-3.81,6.37M578.11,172c0,1-.35,3.38.38,4.1,2,2,8.6.65,11.46.92,1.33.12,4.09,0,5.32.56,3.79,1.66,8.6,9.39,12.44,10.92,3.19,1.27,10.45,1.6,13.71.53,2.19-.72,4.91-5.58,7.2-5.74.79-.06,2,1.94,2.73,1.61s.08-2.36.54-3c1.19-1.55,5.37-2.36,7-3.36a61.37,61.37,0,0,0,6.2-4.56,54.11,54.11,0,0,0,5.3-5.3c2.9-3.62,8.55-11.26,9.92-15.69.43-1.42-.06-4.47.18-5.93s1.74-4.53,1.91-6.12a16.9,16.9,0,0,0-.46-4.86c-.43-1.53-1.35-5.09-2.82-5.7s-5.58.78-6.6,2.19c-.56.79-.36,3,0,3.88.48,1.1,2.7,2.38,3.49,3.27a64.24,64.24,0,0,1,7.19,9.82c1.55,3,2.15,10.19,4.18,12.91,2.76,3.69,11.9,7.18,15.2,10.39,1.68,1.63,3.82,5.92,5.5,7.55a31.45,31.45,0,0,0,5.45,3.73c1.78.94,7,1,7.49,2.93,1,4.51-8.54,11.27-12.5,13.66-.75.46-2.7.37-3.4.89-1.08.82-2,3.53-2.78,4.67-.55.85-2.27,2.31-2.34,3.32-.43,6.76,12,17.2,12.66,23.94.11,1.23-1.23,3.5-1.45,4.71-1,5.25,1.3,16,1.3,21.32"/><path class="cls-1" d="M758.68,248.6c0,1.68-3.29,3.86-4.14,5.31-.58,1-.76,3.73-1.78,4.29s-4.19,0-5.16-.87c-3.66-3.38-4.05-14.4-4.9-19.31a100.65,100.65,0,0,1-.88-12.75c0-2.34-.3-7.18.6-9.34,1.33-3.23,7.63-7.38,9.17-10.51,1.23-2.48.63-8.59,2.2-10.88,1.82-2.65,9.26-4.14,10.84-6.95,1-1.7-.82-6.16.21-7.82.26-.41,1.28-1.11,1.72-.9,1.19.55,1.05,3.84,1.1,5.16,0,.95-.68,2.83-.53,3.77.27,1.62,3,4.24,3,5.88,0,.72-1.11,1.87-1.49,2.49-1,1.7-2.18,6.72-4.17,6.75-2.47.05-4.4-6-5.49-8.21s-1-8.36-3.19-9.53c-2-1.07-6.65,1.65-8.78,2.48s-6.09,3-8.08,4.1c-2.85,1.56-9.65,3.74-11.19,6.6-.56,1-.07,3.62.26,4.76.45,1.59,1.55,6,3.18,5.78,3.92-.65,2.08-11.73,2.76-15.64.64-3.7,1.45-11.22,2.51-14.83.22-.76,1.17-2.12,1.24-2.9.18-2.06-1.21-6.11-1.91-8.05-.88-2.42-3.58-6.85-4.58-9.23-.82-2-1.5-6.41-2.8-8.11-1.89-2.48-8.42-4.55-10.29-7-2.2-3-8-12.89-4.51-14.05,2.48-.83,5.88,9,3.42,9.9-.22.08-.51-.74-.33-.88,1.73-1.27,6.79,3.09,6.79,5.23"/><path class="cls-1" d="M70.87,363.29c0,4.5,4.1,13.34,7.39,16.41,1.43,1.33,5.11,2.87,6.89,3.66,1.32.59,4,2.17,5.45,2,1.59-.21,4.36-2.35,5.26-3.67,2.83-4.14,3.55-14.61,4.76-19.47s3.36-14.66,4.92-19.42c.92-2.8,3.54-8.12,4.44-10.93.45-1.42,1.08-4.33,1.37-5.79.84-4.29,1.54-13.08,2.71-17.29s2.47-15,6.67-16.27c1.85-.57,4.55,4.58,6.45,4.24,2.69-.49,5.09-6.46,6.47-8.82a46.25,46.25,0,0,0,3.51-7.76,35.35,35.35,0,0,0,.89-6.33c.07-1.86.53-5.82-.41-7.42-.72-1.22-3.4-3.18-4.8-3s-3.16,2.57-3.86,3.71a24.55,24.55,0,0,0-2.62,8.48c-.5,8.11,2.44,24.57,5.75,32,1.27,2.84,4.69,8.82,7.63,9.79,4.34,1.43,7.76-2,11.63-4.42,4.48-2.81,5.29-19.58,10.58-19.36,2.56.11,2.44,12.55,3.61,14.83,3.89,7.53-12.38,25.88-10.84,34.21,1.12,6-4,13.48-3.87,19.61.16,8.41,10.07,16.7,10.07,23"/><path class="cls-1" d="M670.59,334c0,4.28,12.47,3.14,16.16,5.64,7.25,4.91,20.12,18.67,24.75,27.18,1.26,2.32,1.59,8.42,3,10.58,2.78,4.17,12.09,14.88,15,10.9,5.17-7-13.19-30.6-7.45-36.85,3.35-3.65,16.53,2.75,16.53,8.3m13.8,21c0,2.55,6.15.52,8.14,1.1a53.3,53.3,0,0,1,4.92,2.29c1,.47,3.28,2.74,4.1,1.85,1.25-1.33-.3-6.36-1.26-8s-4.13-3.18-5.62-4c-2.42-1.28-7.58-2.79-10.09-3.76s-7.58-2.54-9.92-4c-2.1-1.26-6.4-4.07-7.72-6.46-1-1.91-1.53-6.73-1.66-9-.17-3,1-8.91.78-11.88-.18-2.28-.57-7.38-2-8.83-1.24-1.25-4.81-.31-6.4-.51s-5.11-.36-6.68-1.13a25.14,25.14,0,0,1-6.54-5.68c-1.75-2.32-3.76-8.34-5.32-10.86-.71-1.16-2.72-2.91-3.23-4.22-.78-2-.71-6.53-1-8.69-.38-2.52-1.22-7.54-1.83-10-.77-3.13-3-9.06-3.83-12.18-.53-2.11-3.18-7.49-1.66-8.62.7-.52,1.87,2,2.62,2.38a23.45,23.45,0,0,0,9,1.66c3.55-.19,10.41-2.91,13.84-4.08,1.34-.46,4.07-2.09,5.43-1.66,1.82.59,4.28,4.91,4.91,7.12.51,1.8.15,5.77-.15,7.64-.48,3-2.71,8.56-3.53,11.46-1,3.41-3.12,10.2-3.54,13.77-.88,7.46,3.12,23.36.47,30.14-.53,1.35-2.66,3.75-3.86,3.62-1.41-.16-4.84-3.92-3.84-5.16,2-2.47,5.66,8.05,8.2,9.52,2.2,1.26,8-.91,9.62,1.4,4.22,6.18-1.16,24.32-1.16,32.44"/><path class="cls-1" d="M666.15,393.61c0-3.8-4.54-10.48-5.63-14.11a90.91,90.91,0,0,1-2.84-13.63,95.87,95.87,0,0,1,.38-14.07c.37-3.36,1.87-10,2.59-13.28.66-3,2.17-9.13,2.9-12.18s2.42-8.8,2.8-11.81a72.25,72.25,0,0,0,.24-11.95c-.26-2.86-2-8.4-2.36-11.24-.5-3.54-.94-10.69-1-14.27-.05-2.69-.5-8.2.37-10.75.69-2,3.47-5.51,5-7,.39-.36,1.3-1.69,1.67-1.3,1.06,1.11-3,3.49-3.94,4.71-2.43,3.16-7.1,9.65-9.14,13.06-2.2,3.69-4.73,12.21-7.73,15.3-3.38,3.49-13,6.87-17.15,9.38-3.89,2.33-11.5,7.3-15.2,9.92-3.42,2.42-9.74,7.95-13.28,10.19a50.19,50.19,0,0,1-7.54,3.88,60.74,60.74,0,0,1-6.14,1.26c-.95.19-3,.25-3.82.75-.67.41-1.21,2.67-2,2.45-1.57-.46-.54-4.81-.6-6.42-.08-2.08-1.67-7.27.15-8.34,2.64-1.56,8.1,4.41,11,5.46,5.33,1.94,16.75,3.38,22.09,5.31,3.8,1.37,10.93,5.22,14.49,7.12,1.16.62,4.85,1.36,4.55,2.62-1,4-13.17,3.3-16.61,1-7.82-5.21-2.3-35.34-11.76-35.29-6.31,0-5.13,17.95-7.59,23.66-3.76,8.7-18.31,23.8-18.31,33.24"/><path class="cls-1" d="M477.12,354.91c0,1.81,5.39.77,7.19,1s5.86-.2,7.54.67,3.87,4.08,4.8,5.69c1.48,2.56,2.24,8.75,4,11.13,3.15,4.28,11.67,12.7,17,12.81,3.41.07,8.71-5.47,11.24-7.77s8.25-7.46,9.12-10.91c.6-2.39-2-7.18-2-9.64,0-3.06,1.74-9,2.57-12,.66-2.37,2.45-6.95,3.2-9.29,1-3.15,3.06-9.45,3.82-12.67.94-4,1.68-12.23,2.76-16.19.61-2.21,2.59-6.38,3.28-8.57s1.77-6.67,2.22-8.92c.4-2.06,1.33-6.22,1.23-8.33-.13-2.66-2-7.75-2.6-10.36-.31-1.47-.33-4.58-1-5.89s-4.6-2.54-4.27-3.95c.13-.52,1.68-1,2.05-.6,1.5,1.55-2.07,6.13-2.69,8.2-.73,2.44-1.53,7.55-2.63,9.85-.36.75-1.76,1.89-2,2.69-.34,1.28.58,3.93.6,5.25a79.31,79.31,0,0,1-.83,9.85c-.51,3.36-1.76,10.09-3,13.28-1.12,3-4.5,8.5-6.11,11.28-1.09,1.86-3.31,5.57-4.56,7.34-.85,1.2-2.42,3.84-3.68,4.61-1,.63-3.66,1.39-4.79.93-1.53-.62-3.15-3.9-3.76-5.44-2.11-5.32-5.28-17.21-3.45-22.63.47-1.39,3.1-3.14,4.22-4.09,1.7-1.44,5.49-3.85,7.17-5.33,2.12-1.85,5.68-6.26,7.83-8.07a69.37,69.37,0,0,1,9.81-6.66c1.9-1,6.1-1.95,8-2.85,2.86-1.34,8.12-4.88,10.89-6.39,2.48-1.35,7.37-5.88,10.06-5.06,3.68,1.1,8,9.5,7.64,13.31-.21,2-5.28,3.9-5.28,5.88"/><path class="cls-1" d="M475.5,338.43c0-17.58,4.83-64.39-12.05-69.27-6.06-1.75-14.71,12.8-16.89,18.71-1.41,3.79-3.61,15.83.42,16.15,1.35.11-.33-5.59,1-5.34s.14,5-1.07,5.86c-1.63,1.2-6-1.29-8-1-4.36.6-11.93,5.91-16.24,6.84-3.32.72-10.19.31-13.59.4-2.59.06-7.87.95-10.36.24-1.86-.52-5.06-2.91-6.49-4.21-1.94-1.76-6.66-5.61-6.52-8.23.16-2.9,6.6-5.84,8.14-8.3,1-1.52,2.6-5,2.45-6.78-.2-2.42-4.47-6.07-4.74-8.49-.1-.94,1.89-3.13,1.09-3.63-1.39-.85-4.12,2.95-4.72,4.46a12.47,12.47,0,0,0,.38,7.66c1.37,2.63,6.74,6,9.43,7.26,3.28,1.57,11.75.66,14.15,3.4,3.46,3.93,1.63,15.63,2.24,20.84.62,5.38,2.53,16.09,2.67,21.51s-1.37,15.84-1.54,21.14.52,15.56.12,20.73c-.3,3.85-2.49,11.39-2.49,15.25"/><path class="cls-1" d="M276.91,377.36c0,3.37,5.24,9,5.24,12.39m-8-9.17c0-4-.54-11.94-.2-15.9a120.93,120.93,0,0,1,2.7-14.5c.59-2.34,2.57-6.8,3-9.18.63-3.85,0-11.68.18-15.57.19-3.65,1.26-10.9,1.41-14.56.19-4.64-.7-13.94-.25-18.56a109.15,109.15,0,0,1,3.57-17,48.37,48.37,0,0,1,2.21-5c.61-1.21,1.35-4.85,2.69-4.7,2.27.25,1.84,6.6,2.7,8.71.66,1.65,2.36,4.79,3.22,6.36,1,1.77,3,5.24,4.1,7,.88,1.43,1.93,5.63,3.61,5.67.34,0,.62-.81.78-1.1,1-1.83,2.26-5.88,3.26-7.72s3.18-5.93,4.95-7.23c.94-.7,3.45-2,4.46-1.4,1.18.69,1,4,1.15,5.33.32,2.21.15,6.74.65,8.92a53,53,0,0,0,3.53,8.93c1.34,2.68,4.84,7.58,6.28,10.21,1.32,2.41,3.32,7.56,4.81,9.87,1.36,2.11,4.94,5.69,6.42,7.72a77.56,77.56,0,0,1,4.18,6.57c.91,1.68,2,5.48,3.18,7a17.43,17.43,0,0,0,5.89,4.46c1.08.36,3.66.69,4.55,0,1.92-1.53,1.87-7.15,2.28-9.58.36-2.19,1.34-6.68.84-8.84-.22-.95-1.08-3.37-2-3.32-2.2.11-3.07,5.86-3.84,7.92-1.32,3.52-3.75,10.76-3.95,14.52a13.91,13.91,0,0,0,.82,5.09c1.51,3.1,5.93,10.19,9.39,10.15,1.19,0,2.13-2.94,3.14-3.57a6.46,6.46,0,0,1,3.41-.94c2.56.51,8.23,3.85,8.23,6.46"/><path class="cls-1" d="M639.6,430.75c0-1.24,3.15-1.3,4.25-1.4a29.86,29.86,0,0,1,10,1.48c1.69.66,4.66,3,6.16,4.07a104.5,104.5,0,0,1,8.74,6.89c2.06,2,5.57,6.68,7.47,8.88,2.76,3.21,7.92,10.16,11.2,12.68a56,56,0,0,0,14.25,7c3.71,1.06,11.45,1.28,15.28,1.49,2,.11,6.21.61,8.2.09,1.35-.35,4.2-1.49,5-2.8s-.44-5.35.29-6.87,3.39-4.21,4.91-4c2.7.31,5.94,6.38,7.26,9,1.58,3.2,1.19,11.55,3.56,14.07,1.77,1.87,7.13,3.1,9.49,2.44,2.59-.71,7-5.19,8-7.79.69-1.72.31-5.58.76-7.37.91-3.68,5.26-10.28,5.66-14a32.07,32.07,0,0,0-2.15-12.45c-1.1-2.38-5-6.05-6.73-8s-4.36-6.21-6.44-7.26c-1.83-.92-6-.6-8-.53a44.75,44.75,0,0,0-8.3,1.18c-1.95.59-5.49,2.88-7.42,3.51-4.09,1.32-12.55,3.52-16.79,3.14-4.67-.43-13.79-9.57-17.72-6.74-.72.52-1.11,3.36-.35,3.78s2.54-1.9,2.76-2.94c.89-4.4-5.37-12.4-5.68-16.89-.19-2.71-.46-10.47,2-10.63,5.63-.38,7.67,17.66,7.18,24-.26,3.24-4.16,8.57-5.57,11.42-1,2-3.61,5.79-4,8.05-1.12,6.21,1.22,19,2.53,25.21.63,3,3.26,8.46,3.77,11.46.55,3.21-2,11.07.26,13.09a2.23,2.23,0,0,0,2.53-.64c1.16-2.85-6-8-5.34-11,.76-3.54,7.71-9.76,10.69-8.3,7,3.42,3.46,25.24,4.16,33.71.33,4,.67,11.94.67,15.92"/><path class="cls-1" d="M187.78,372.3c0,.79-2.06,1.37-2.32,2.11A6.2,6.2,0,0,0,186,378a13.33,13.33,0,0,0,4.45,4.16c1,.48,4.11,1.73,4.34.66.31-1.46-4.83-.42-5.73-1.61-.7-.92-.73-3.76,0-4.64,2-2.37,11.75,1,12.23-2.06.15-.93-2.68-2.42-3.32-1.74-.45.49.72,2.22,1.38,2.25,2.31.11,4.29-5.47,5.56-7.4,2-3.06,5.54-9.49,7.3-12.7,1.39-2.55,4.25-7.62,5.34-10.31.8-2,1.5-6.29,2.46-8.21,1.16-2.31,5-6,6.17-8.32a36.89,36.89,0,0,0,2.95-9.79c.23-2.38-.54-7.17-1-9.53-.54-2.83-3.79-8.28-3.15-11.1.75-3.28,6.5-7.75,8.92-10.09,2.61-2.53,8.3-7.06,11.18-9.28,2.16-1.65,8.86-3.6,8.86-6.32m-8.88,38.15c0,2,5.46,2.6,6.74,4.11,1.09,1.29,1.93,4.69,2.52,6.27,1.62,4.33,4.77,13,6.05,17.45.27.93,1,2.8.87,3.75-.19,1.61-4.09,4.68-2.91,5.79,1.82,1.7,6.71-3.43,8.61-5.05,1.6-1.37,6.65-4.86,5.35-6.52-3.08-3.94-18.71,3.59-18.08,8.55.08.7,2.12.82,2.77.54,1.77-.8,4-4.73,4-6.67,0-3.5-4.31-9.86-6.93-12.18s-10-3.22-12.65-5.33c-1.29-1-2.67-4.16-3.92-5.21-3.91-3.29-13.16-8.59-18.22-9.31-3-.42-8.8,1.65-11.73,2.23-2.61.51-7.77,1.79-10.4,2.12-2,.25-6.06.39-8.09.39s-6.1.32-7.95-.42-5-3-5.61-4.79c-1.1-3.25,2.82-10,2.82-13.41"/><path class="cls-1" d="M166,526.71c0-3.35-6.29-7.92-8.86-10.08-2.14-1.8-8-3.5-9.55-5.83-2.47-3.74.12-14.18-2.61-17.74-2.59-3.4-13-3.5-15.65-6.84-9.36-11.79-12.88-44.28-11-59.21.53-4.16,5.71-11.24,7.13-15.2,1.3-3.65,6.44-12.19,3.8-15-2-2.09-8.46,1.43-11.26,2-3.84.83-11.36,3.18-15.23,3.88-4.56.82-14.16.17-18.41,2-1.23.53-2.91,2.79-4.07,3.44-2.06,1.16-8.74.65-9,3-.61,6.18,15.9,9.76,21.56,12.31,4.48,2,14.58,3.51,18.61,6.32,5.16,3.6,11.89,14.67,15.86,19.56,2.34,2.87,6.71,8.9,9.36,11.49,2.48,2.43,8.15,6.49,11,8.55,3.57,2.62,11.3,7.08,14.58,10.05,2.87,2.58,12.72,9,10,11.74-4.65,4.72-14.35-19.62-20.39-16.91-3.74,1.69-1.76,12.48-.54,16.39.71,2.29,3.66,6.43,5.69,7.71,1.23.78,4.35,1.59,5.72,1.1,1.89-.66,4.63-4.18,5.2-6.1a8.3,8.3,0,0,0-.7-5.29c-.94-1.33-4.27-2.52-5.86-2.95-2.7-.75-11.2,2-11.2-.8"/><path class="cls-1" d="M207.54,491c0,2-1.25,5.8-1.25,7.77a20,20,0,0,0,.76,4.73,10.12,10.12,0,0,0,1.59,3c.91.93,3.42,1.88,4.54,2.52,1.38.79,3.92,2.92,5.48,3.23,1.73.35,5.66-2.11,7-1,1.66,1.44,1.6,7.21.07,8.79-.95,1-4.13.41-5.47.12-1.71-.38-4.73-2.33-6.31-3.12s-4.64-2.48-6.27-3.15c-.84-.35-2.83-.46-3.46-1.12a2.78,2.78,0,0,1-.33-1.32,36.25,36.25,0,0,1,.72-5.15c.36-2.52,1.2-7.54,1.42-10.08a25.55,25.55,0,0,0,.18-5.38,33.24,33.24,0,0,0-3.72-8.33c-.83-1.32-3.2-3.44-4-4.75a44.92,44.92,0,0,1-3.65-7.67c-.54-1.62-1.83-5.05-1.34-6.69s3.44-4.48,5.1-5.23c1.3-.58,4.28-.5,5.67-.26,4.24.73,11.74,5.54,15.93,6.49a33.44,33.44,0,0,0,8.41.51c2.72-.32,7.92-2.16,10.46-3.15s9-2.22,10.07-4.79c.39-.92-1-2.81-1.29-3.77-.55-2.08-.22-6.84-1.65-8.44-.64-.71-3-.42-3.64-1.13-1.67-1.83-2-7.23-2-9.7,0-2.77,1.8-8.12,2.25-10.85s-1.29-10.22,1.35-10.59c2.38-.33,2.64,6.75,3.8,8.86.89,1.6,4.42,4.22,4.16,6-.09.68-1.52,1.41-2.12,1.74-4,2.18-17.43,1-17.43,5.59m1.92-5.78c0,5.7-19.35,5.44-22.78.89s3-17.47,7.06-21.4c1.91-1.87,7.62-2.54,10.24-3.09a53.76,53.76,0,0,1,8-1c.44,0,1.76-.24,1.76.2"/><path class="cls-1" d="M491.81,673.46c-.37,1,.5,3.28.58,4.38.06.86-.32,2.64,0,3.45.21.5,1.37,1.05,1.57,1.55.7,1.81-.09,5.74-.56,7.57-.59,2.29-4.64,6.29-4,8.61.73,2.48,6.83,4.35,8.75,6.2a26.2,26.2,0,0,1,2.85,3.7,52.59,52.59,0,0,1,2.79,5.24,25.19,25.19,0,0,1,1.42,3.76c.19,1-.21,3,.13,4a7.93,7.93,0,0,0,1.85,2.44c1.95,1.67,8.54,2.51,9.07,4.93.07.29-.68.61-.75.89-.63,2.5.95,7.86,2.14,10.23s5.2,5.91,6.89,7.91c.83,1,2.57,2.91,3.26,4,.57.88,1.07,3,1.86,3.71a5.66,5.66,0,0,0,3.16,1.2c.91-.12,2.26-1.5,2.87-2.15a15.85,15.85,0,0,0,2.37-3.72,9.28,9.28,0,0,0,.55-3.33,7.39,7.39,0,0,0-1.41-3.11c-.55-.57-2.19-1.76-2.87-1.4-.88.47-.41,2.93-.22,3.89a25.22,25.22,0,0,0,3.37,7.26c1.46,2,5.52,5.22,7.33,7,1.37,1.34,4,4.17,5.44,5.41,1,.87,3.33,2.36,4.45,3.12.58.39,1.7,1.76,2.33,1.51s.2-1.58.34-2.09c.25-.9,1.44-2.55,1.38-3.5a6.18,6.18,0,0,0-1.69-3.19c-.85-.72-3.17-1.71-4.24-1.47a5.12,5.12,0,0,0-2.7,2.84c-.4,1.56,1,4.85,1.68,6.34a30.67,30.67,0,0,0,4.64,6.46,37.35,37.35,0,0,0,5.9,4.59,20.82,20.82,0,0,0,4.74,1.76c.83.14,3.34.79,3.34,0"/><path class="cls-1" d="M392,464.13c0,3.49-3.84,10.37-2.81,13.73.56,1.82,4.13,4.17,5.52,5.54,1.93,1.9,6,5.56,7.81,7.52,2.35,2.45,6.57,7.73,8.92,10.18a81,81,0,0,0,7.92,7.58,65.83,65.83,0,0,0,8.46,4.52c2.22,1,6.83,2.73,9.17,3.48a101.47,101.47,0,0,0,10.27,2.72c1.82.31,5.84-.37,7.35.62.52.33,1.41,1.63,1.07,2.12-1.16,1.67-6.8,2-8.1.47-.77-.91.81-3.46,1.24-4.57.85-2.14,3.72-6,4.3-8.17a28.42,28.42,0,0,0,.14-5.69,62.17,62.17,0,0,0-.4-7.61,79.8,79.8,0,0,0-2.62-8.16c-.48-1.41-1.7-4.15-2-5.6-.16-.68.13-2.2-.27-2.8-1.32-1.92-8.6-2.25-8.47-4.53.1-1.72,5.18-1.86,6.74-2.77a52.52,52.52,0,0,0,9.7-7.52c1.57-1.73,5.57-5.65,4.9-7.83-.4-1.28-3.69-2.12-5.07-2.45-1.19-.28-4.36-1.11-4.89-.07-1.31,2.59,7.54,5.94,7.88,8.79.22,1.78-1.61,6-3.47,6.39-3.07.7-7.52-5.46-10.24-7-2.3-1.28-7.34-3.07-9.67-4.3-1-.55-2.89-2-4-2.46-.74-.32-2.51-.35-3.13-.84-1.18-1-1.6-4.19-2.6-5.31-2.25-2.52-8.69-5.56-11.51-7.5-.21-.14-.92-.36-.83-.59.39-1,3.32.36,4.42.25,2.76-.28,9.91-.34,10.71-2.84.71-2.23-5.66-4.83-6.52-7a8.78,8.78,0,0,1,0-4.14c.66-2.42,4.9-6.31,5-8.81a7.26,7.26,0,0,0-1.83-4.11c-1.53-1.45-7.13-1.36-8-3.23C415.6,409,422,402.38,422,398.87"/><path class="cls-1" d="M516.51,471.86c.09-3.11-7.06-6.17-9.7-7.84s-8.26-4-11-5.24c-2.23-1-8.16-1.69-9-4-.42-1.21,1.37-3.76,2.4-4.54,2.5-1.89,9.16-2.38,12.29-2.58,2.66-.17,8,1,10.65.82,2.23-.18,6.73-1.06,8.71-2.11,3.35-1.78,8.29-7.81,11.25-10.19,2.68-2.16,7.79-7.67,11.22-8,2.21-.2,8.2,1.56,8,3.77s-6.62,3.1-8.91,2.68c-1.72-.31-5.69-2.5-5.57-4.24.1-1.53,5.51-1.5,5.34-3-.22-2.12-6.37-1.32-8.1-2.54-.62-.43-2.15-1.73-1.82-2.41.92-1.88,6.27-.18,8.36-.14,2.94.06,10-1.67,11.74.66.92,1.2-1.21,4.42-1.26,5.93-.07,2.11.18,6.51,1.18,8.37,1.74,3.21,8.28,7.18,11,9.66,2.46,2.3,10,6.09,9.59,9.43s-9.37,4.71-11.79,7.17c-1.94,2-4.28,7.11-5.59,9.54s-3.69,7.26-4.82,9.73c-.87,1.93-3.32,5.7-3.25,7.81,0,1.24,1.6,3.36,2.19,4.45,1.08,2,3.31,6,4.59,7.83.9,1.34,3.7,3.49,3.95,5.08"/><path class="cls-1" d="M584.44,416.16c0,1.68,1.5,4.84,1.73,6.51a33.87,33.87,0,0,1,.12,5.33c-.15,2.24-1.36,6.62-1.4,8.86a43.82,43.82,0,0,0,1.05,8.14c.76,3.14,2.72,9.39,4.42,12.13,1.4,2.26,5.62,5.68,7.33,7.71,1.15,1.38,2.94,4.58,4.28,5.78a44.29,44.29,0,0,0,9.69,5.66,12.38,12.38,0,0,0,3.92,1,7.23,7.23,0,0,0,3.3-1.16c.91-.78,1.14-3.81,2.26-4.25.45-.18,1.88.13,1.83.61-.08.66-2,.24-2.65.25a22,22,0,0,1-2.93-.17c-2.65-.39-7.75-2.63-10.41-2.45-1.4.1-4,1.45-5.24,2-1.76.78-7.14,1.54-6.89,3.44.09.66,2,.29,2.61.51a30,30,0,0,1,3.22,1.7,31.65,31.65,0,0,1,3.92,2.37c2.14,1.83,5.58,6.35,7.24,8.62,1.19,1.62,3.22,5.08,4.29,6.77s3.07,5.58,4.53,7.1,5.26,4.4,7.39,5.11c2.4.79,7.58.37,10.11.35s8.16.92,10.24-.58c1-.73,1-3.71,1.83-4.65,1-1.18,4.09-2.39,5.53-3,.86-.39,2.79-.73,3.57-1.26,1.79-1.24,4.24-5,5.64-6.66.25-.29,1.08-.79,1-1.16-.36-1.3-4.25-.7-5.12-1.75s-.28-4.59-.84-6c-.4-1-2-2.58-2.52-3.56s-.57-3.88-1.45-4.76c-.49-.5-2.14-.39-2.68-.85-1.49-1.28-2.85-5.19-3.46-7.06a31.6,31.6,0,0,1-1.18-6.48c-.05-1-.63-4,.35-3.91,1.43.12.89,5.26-.47,5.71-1.07.36-3-2.25-3-3.38"/><path class="cls-1" d="M546.93,536.88c0,2.64,6.24,4.93,8,6.93,2.23,2.59,8.23,8.22,7.35,11.52-1.67,6.28-16.86,10-23,12.07-3.46,1.19-10.82,1.89-14.43,2.55-2.68.5-8,1.47-10.71,2-2.31.5-6.93,1.57-9.21,2.23-1.68.48-5.21,1.21-6.63,2.24-2,1.42-4.64,5.64-5.85,7.75-1.12,1.94-3.12,6-3.48,8.25-.39,2.42.64,7.33.78,9.77s-.27,7.23.35,9.53a30.86,30.86,0,0,0,4.13,7.66,63.54,63.54,0,0,0,7.92,7.81c2.67,2.22,8.1,6.85,11.39,8,2.59.89,8.35,1.74,11,.85,2.21-.77,6-5.48,8.17-4.62,2.74,1.09,4.11,8.37,3.49,11.24-.4,1.87-1.76,7-3.66,6.71-.76-.09-.35-2.32-.75-3-1.26-2.06-6.12-4.24-7.25-6.37-.34-.64-.8-2.29-.35-2.85,1.55-1.91,7.38-.45,9.8-.85,1-.16,3.23-.21,3.9-1,.51-.57.33-2.33.76-3,1.83-2.68,9.13-4.63,10.55-7.54.69-1.43,0-4.79-.29-6.34-.64-3.27-1.55-11-4.48-12.53-.64-.34-2.15.36-2.79.7-3.29,1.72-8.4,7.32-11.2,9.76-2.07,1.81-6.17,5.49-8.3,7.25a39.91,39.91,0,0,1-4.79,3.75c-1.76.94-7.31.5-7.56,2.48-.41,3.25,7.85,6.36,11.06,7,5.37,1.1,17.23-1.07,21.86,1.86,2,1.26,3.21,6.41,4.78,8.18.76.86,4.26,1.81,3.64,2.78-1.86,2.9-8.73-6.47-12.18-6.5s-12,2.75-12,6.11m-9.42,6c0-1.54,3.06-3.81,3.06-5.34"/><path class="cls-1" d="M247.31,576.45c0,2.25,7.72,4.14,8.75,2.14,1.42-2.77-7.5-5.68-9.46-8.1-1.46-1.79-3.12-6.2-4.43-8.1-1.94-2.81-7.09-7.47-8.88-10.39-1.46-2.37-4-7.52-4.29-10.29-.32-3.21,5.33-11.05,2.53-12.64-8.31-4.72-20.07,20.89-28.38,25.62-2.68,1.53-9.5,5.74-11.8,3.68-.62-.56-.2-3.25.64-3.3s.38,2.46.93,3c1.59,1.65,6.41,2.51,8.64,3,2.06.47,6.39.35,8.41,1,4.39,1.33,14.4,4.21,16.32,8.38.65,1.42-.55,4.81-1.44,6.1-1.3,1.88-6.47,3.15-7.57,5.15-.68,1.25-.12,4.26-.17,5.67-.08,2.52.17,7.61-.37,10.07s-5.48,7.53-4,9.7c1.77,2.59,11.27,2.64,12.57-.22,1-2.29-6.32-5.19-6.5-7.71-.14-2.07,3-5.54,4.43-7,1.62-1.67,6.42-3.28,7.7-5.22.47-.7.09-2.66.64-3.29,1.62-1.84,6.9-2.61,9.3-3.1,2-.4,6.9-2.34,8-.64s-4.52,4.77-4.05,6.67c.29,1.15,3.09,1.8,4.1,2.44,4.66,2.91,17.07,6.74,18.36,12.08.32,1.35-1.67,3.94-2.74,4.82-3.15,2.61-11.81,3.49-15.52,5.23a110.86,110.86,0,0,0-10.2,6.33c-3.81,2.54-11.07,8.17-14.92,10.66-2.46,1.59-7.57,4.45-10.11,5.9-3,1.71-9.61,4.28-12.09,6.69-1.93,1.87-4.56,6.75-5.46,9.29-.66,1.87.46,6.73-1.19,7.83-2.93,2-13.71.15-13.71-3.39m11-8.19c0,3.47,10.42.23,13.86.69,3.11.42,12.26-.43,12.26,2.71"/><path class="cls-1" d="M316.33,614.08c0,4.41,10.36,13.19,14,10.72,3.17-2.13-2.61-11.2-4-14.75-2.58-6.46-19.14-20.92-13.19-24.52,1.13-.68,2.1,3.35,2.95,4.35,2,2.33,6,7.33,8.83,8.39s9.05.13,12-.52c3.24-.72,9.68-3,12.28-5.1,1.19-.95,3.89-3.48,3.52-4.95s-3.61-1.93-4.88-2.41c-2.57-1-7.93-2.25-10.59-2.93-4.16-1.05-13.34-1.2-16.7-3.85-1.49-1.19-1.48-6.68-3.38-6.84-1.07-.08-2.17,2.48-2.5,3.5-.89,2.8-.4,8.84,0,11.74.45,3.17,2.92,9.15,3.58,12.28a134.16,134.16,0,0,1,2.21,16.7c.11,2.75.31,8.37-.56,11-1,3-4.87,8.07-7,10.33a137.41,137.41,0,0,1-12.09,10.92c-3.08,2.37-9.17,8.42-13.06,8.42-1.27,0-3.33-1.9-4.27-2.76-1.71-1.58-5.07-5.14-5.68-7.39s.54-6.73,1.11-8.89c.75-2.81,3.38-8,4.49-10.74.63-1.53,1.62-4.72,2.52-6.11,2.14-3.29,8.24-8.4,10.84-11.34,3.28-3.72,9.66-11.35,12.55-15.39,1.79-2.51,4.89-7.87,6.54-10.49,2.09-3.34,5.93-10.28,8.41-13.35,2.95-3.67,9.87-10.12,13.43-13.2s11.17-8.38,14.83-11.25,15-7.32,15-12.15"/><path class="cls-1" d="M389.87,538.45c0-3.36,8.43-10,11-7.77,3.27,2.87-6.05,11.57-8.15,15.39-1.17,2.15-4.41,6.1-4.83,8.51-.34,1.93.54,5.92,1.32,7.72,1.21,2.82,4.91,8,7.39,9.84s9.65,2.23,12.19,4.22a15.67,15.67,0,0,1,3.31,5.12,34.94,34.94,0,0,1,1.35,7.56c.16,1.89-.57,5.77-.06,7.6,1.24,4.43,8.5,11.19,9.66,15.64.78,3-1.89,9.62-.54,12.42,1.56,3.25,8.6,6.6,11.65,8.52,2.89,1.82,8.76,5.47,12,6.47,4.07,1.26,13.32-.13,16.89,2.19,1,.63,2.53,2.82,2.43,4s-2.12,3.06-3.15,3.69a19.12,19.12,0,0,1-8.36,2.07c-1.43-.09-4-1.66-5.36-2.1s-3.89-1.39-5.22-1.26-3.89,1.94-5.25,2.45c-2,.73-6.09,1.75-8.13,2.26-4.34,1.08-13,3.6-17.48,3.85-3,.17-10,1.09-11.86-1.23-.83-1,.52-3.94.58-5.26.1-2-.77-6-.12-7.79.51-1.48,3.23-3.48,4-4.86.34-.61.4-2.14.86-2.67,1.33-1.53,5.46-2.64,7.22-3.64,3.54-2,11-5.8,13.73-8.8a16.88,16.88,0,0,0,3.12-5.85c.24-1.09-.54-3.36-.27-4.44.45-1.77,2.82-4.69,3.83-6.21s5-4.37,4.49-6.22c-.67-2.56-7-4.05-9.56-4.47-3.9-.62-11.91.72-15.67,1.91-2.67.84-9.16,2.55-9.89,5.25-.49,1.83,2.75,5,4,6.42,2.29,2.5,7.63,7,10.77,8.21,2.65,1.06,8.53.81,11.36,1.24,2,.3,7.87-.48,7.87,1.52"/><path class="cls-1" d="M116.67,585.65c0-2.63-5.14-6.07-6.3-8.43-.79-1.59-1.26-5.18-2-6.81-2.16-5.17-11-13.91-11-19.51m4.48-5c0-1.18,2.49-2.51,3.21-3.45a32,32,0,0,0,3.15-5.15c.39-.94,1.28-3,1-4a3,3,0,0,0-1.75-1.48c-1.3-.13-3.57,1.7-4.58,2.53a19.61,19.61,0,0,0-3.2,3.84,17.14,17.14,0,0,0-1.7,4.41,17.46,17.46,0,0,0,.2,5.1,10.19,10.19,0,0,0,1.24,2.85,28.88,28.88,0,0,0,6.4,5.57,24,24,0,0,0,4.46,1.71c.75.22,2.35.29,3.07.6,1.4.59,3.71,2.64,5,3.49a30.09,30.09,0,0,1,3.82,2.53,18.17,18.17,0,0,1,1.81,3.08c.42.82,1.11,2.53,1.54,3.35.95,1.76,2.77,5.39,4.17,6.82,1.61,1.65,5.89,3.65,7.8,5,1.19.82,3.84,2.25,4.65,3.45s.63,4.51,1.43,5.76c1.3,2,6,4.11,7.5,5.93,1.19,1.4,3.35,4.62,3.57,6.44.16,1.36-1.52,3.91-1.44,5.27.05.93,1.22,2.52,1.39,3.42a31,31,0,0,1-.18,7.64c-.19,1.29-1.08,3.76-1.4,5s-.91,3.72-1.07,5c-.2,1.6.12,4.87-.25,6.43a17.91,17.91,0,0,1-2.46,5,20,20,0,0,1-4.82,4.22c-2,1.08-6.82,3.21-8.94,2.3-.48-.21-.52-1.63-1-1.82a3.41,3.41,0,0,0-2.75,1c-.46.6-.13,2.28-.2,3-.05.57-.29,1.7-.28,2.28a20.33,20.33,0,0,0,.59,3.53c.27,1,1.45,2.86,1.45,3.9"/><path class="cls-1" d="M601.51,549.84c0,3-3.06,8.6-4.33,11.36-.7,1.53-2.79,4.29-3.23,5.92-1,3.59-1.09,11.19-.46,14.84.23,1.32.86,4.2,1.94,5,1.35,1,5,.2,6.67.41,1.32.16,3.92,1.2,5.24,1a16.17,16.17,0,0,0,6.64-3.46c1-1,1.41-4.58,2.75-5.15,1.72-.74,5.5,1.24,7.21,2,3.53,1.56,9.28,7.33,13,8.26,2.35.58,7.28-.24,9.65-.77,3-.67,8.6-3.54,11.58-4.36,2.55-.7,9.47-4.33,10.42-1.86,2.1,5.43-14.77,9.33-19.72,12.38-1.55,1-4.69,2.79-6.22,3.77s-4.56,4.23-6.52,4.47c-1.12.14-3.3-.94-4.24-1.57-2.56-1.72-6.64-6.51-8.38-9.05-1.53-2.23-4.44-7-4.76-9.72s3.61-8.19,2.38-10.61c-.13-.26-.77-.4-1-.45-.9-.19-2.82.36-3.67,0-.47-.2-1.4-.93-1.44-1.43s1-1.36,1.3-1.81,1.25-1.81,1.75-2.35c8.06-8.62,27.45-39,35.83-30.71,6.62,6.57-15.47,24.84-24,28.52-2,.85-6.74-1.62-8.58-.51-2.67,1.62-4.37,8.37-5.12,11.4-1,4.26.75,13.51-1.06,17.5a10.06,10.06,0,0,1-4.06,4c-2.44.88-7.77-1.16-10.34-.82-3.63.49-10.26,4-13.79,5-1.37.37-4.73-.12-5.58,1-3.3,4.42-2,18.56,2.37,21.92,1.63,1.25,6.1-1.62,8.11-1.25,2.64.49,7.1,3.81,9.33,5.31,4.2,2.82,13,8.37,15.93,12.5,1.51,2.12,1.31,8.52,3.6,9.75,2.69,1.46,10.58-5.52,11.91-2.77,1.06,2.2-7.64,3.62-7.64,6.06"/><path class="cls-1" d="M707.82,648.33c0-.4,1.5.19,1.58-.2.67-3.21-8.2-5.54-11.26-6.72-3.41-1.31-12.47.3-14.34-2.84-.83-1.4,1.59-5.07,3.07-5.74,1.8-.81,5.76,1.42,7.7,1.8,4.13.81,12.64-.36,16.81-.92,1.84-.25,5.83-.38,7.24-1.57,2.26-1.9,3.29-8.22,4.45-10.94,2.33-5.45,9-15.75,9.7-21.64,1.11-9.33-6.12-27.58-6.89-36.94-.44-5.37-2.24-16.89.44-21.57,2.14-3.74,10.44-8.33,14.69-9,2.66-.43,8.66.47,10.47,2.46s1.81,8.08,1.45,10.78c-.65,4.9-4.55,14.4-7.67,18.23s-12.27,8.68-16.54,11.3c-3.9,2.4-11.94,6.8-16,8.83-2.44,1.21-9.14,1.81-9.93,4.4-1.24,4,7.49,10.37,9,14.33s2.59,12.91,2.71,17.28a80.66,80.66,0,0,1-1.56,15.42c-1.14,4.8-10.55,16.3-6.25,18.72,1.45.82,4.3-3.4,4.3-5.06"/><path class="cls-1" d="M116.19,787.18c0-1,.31-3.22-.14-4.15a6.66,6.66,0,0,0-2-1.79c-.74-.48-3.13-.6-3.2-1.47-.06-.71,1.86-1,2.33-1.57a11.55,11.55,0,0,0,1.49-2.85c.41-1.08.38-3.58,1.09-4.5,2.18-2.84,10-4.41,12.59-6.85.3-.28,1-1,.9-1.4-.73-3.06-10.78-3.23-10.85-6.37,0-2.85,7.51-4.21,9.57-6.18.4-.38,1.3-1.24,1.29-1.79,0-.78-1.79-1.7-2-2.47,0-.25.36-.76.26-1-.5-1.18-3.42-3.2-4.47-2.47-.35.23-.17,1.58.24,1.65,4,.59,6-10.67,6.86-14.61.42-1.89,1.66-6.83,0-7.77-2.64-1.46-7.25,6.46-10.27,6.38-2.24-.05-6.13-3.24-7.38-5.1-2.17-3.25-3.91-11.4-3.31-15.25.74-4.68,5.08-14.73,9.51-16.38,1.91-.7,5.89,1.7,7.67,2.67.65.36,2.47,1.1,2.34,1.84-.52,3.11-11.41,1-12,4.07,0,.18.42.55.56.44.48-.37-.49-1.89-1-2.23s-2.51.5-3-.07c-.34-.42.28-1.6.33-2.14.21-2,1.3-6.16.44-8-1-2-5.38-4-7.27-5.21-1.57-1-5.37-2.12-6.47-3.61-.74-1-1.69-3.8-1-4.84s3.46-1.64,4.39-1c.23.16,0,.94.15,1.13,1.21,1.14,5,.19,6.63.5.87.17,2.5.93,3.38,1.06a55.29,55.29,0,0,0,7.61-.12c1.13,0,3.37-.21,4.49-.32a27.25,27.25,0,0,0,4.34-.55,14.35,14.35,0,0,0,3.66-2.06c.67-.58,2.15-1.93,2.15-2.82"/><path class="cls-1" d="M177,709.83c0-2.33,3.47-6.06,4.76-8,1.81-2.7,6.63-7.36,7.79-10.39,1.32-3.44.28-11.16,1.32-14.71.52-1.79,2-5.49,3.45-6.61,1.64-1.23,6.41-2.87,8-1.62,3.27,2.52.66,12.38,1,16.5.18,2.57-.34,8,.9,10.27.89,1.64,4.3,3.63,5.91,4.58,2.15,1.27,7.26,2.38,9.19,4a19.92,19.92,0,0,1,4.56,6.85c.52,1.58.21,5,.4,6.64.25,2.1.71,6.36,1.48,8.33a31.63,31.63,0,0,0,5.66,8.83c2.46,2.29,9,4.64,11.81,6.42,1.37.86,5.39,2.14,5.28,3.76,0,.46-1.2.74-1.65.85a16.84,16.84,0,0,1-4.31-.11c-1.44-.17-4.38-1.85-5.68-1.2s-2.07,3.95-2.51,5.37c-1,3.27-1,10.36-2.32,13.5a.09.09,0,0,1,0,0c-1.81.13-3.39-4.8-5.18-5.12-2.92-.53-8.13,3.6-10.81,4.88-1.11.54-3.55,1-4.73,1.43-3.09,1-9.5,2.55-12.26,4.25-2,1.26-5.21,4.94-6.86,6.67-2.15,2.25-7.9,6.23-8.26,9.32-.24,2.12,2,7.71,4.07,7.49s2.22-5.58,2.22-7.55m14.94-91.93c0,3.35,6.25,8,7.64,11,1.77,3.93,2.53,12.74,4.18,16.72,2.17,5.28,9.09,15.29,8.95,21,0,2.09-3.38,5.45-3.64,7.52-.34,2.66,2.66,7.71,4.35,9.8.74.91,2.64,2.79,3.81,2.75,4.19-.13,9.88-7.77,12.92-10.65a104.31,104.31,0,0,0,7.8-8.49c1.25-1.59,2.62-5.94,4.47-6.74,3.55-1.54,15.24-1.24,15.24,2.62"/><path class="cls-1" d="M291.44,670.07c0,4.2,11.54,5.26,14.88,7.82,2.43,1.86,8.52,5.93,8.32,9-.38,5.74-15.51,9.36-17.71,14.67-.89,2.17.69,7.17,1.87,9.21,2.39,4.15,10.56,9.76,14.34,12.7,2.22,1.72,7.1,4.81,9.84,5.4,3.84.82,11.75-1.81,15.64-1.28.58.08,2.19.24,2.22.83.27,6.19-16.74,8.05-22.36,10.65-7.5,3.46-25.81,12.27-25.88,20.53,0,2.39,6,4.17,7.4,6.08s2.24,7,3.8,8.8c3.14,3.65,11.94,12.12,16.33,10.16,2.4-1.08,1.37-8,2.91-10.11,4-5.52,24.53-8.86,22.51-15.38-1.14-3.7-11.85,1.29-15.51,0-3-1-7.61-5.62-9.8-7.89s-8.49-6.25-8.87-9.47c-.8-6.67,9.94-17.56,13.9-23,4.88-6.69,21.77-16.7,21.77-25"/><path class="cls-1" d="M370.66,474.38c0,.71.12,2.35-.26,2.82-4.35,5.27-17.85,3-23.21,0-2.75-1.56-7-8-8.44-11.57-3.08-7.57-1.58-27.36-5.85-33.75-6.35-9.51-28.52-7.83-35.68-16.19-1.19-1.39-3.91-6-2.89-7.6,2.2-3.45,11.83,1.78,12.51,6.26.74,4.86-9.06,9.09-10.45,13.67-3.15,10.34-2.19,34.29.59,44.83,1,3.72,5.75,8.94,7.24,12.33,1,2.36,1.86,8,3.16,10.14,3.1,5.06,12.22,10.59,16.19,14.35,3.19,3,9,14.85,12.5,12.64,2-1.23.48-8.95.73-11.92.37-4.38.62-13.4,1.92-17.43,1.89-5.87,14.5-14.61,11.84-19.89-1-2-6.76.69-6.76,3.14"/><path class="cls-1" d="M274.47,444.33c4.6,3.65,9.87,17.7,14.42,21.47,6.69,5.54,22.51,9.07,30.19,11,3.43.87,10.41,2.63,13.87,2,2.11-.37,7.42-1.28,8-4.1,1.06-5.45-10.44-11.77-10.44-17.41"/><path class="cls-1" d="M671,728.15c0,6.73,12.7,16.31,14.23,22.87,1.21,5.19-2.37,15.9-2.08,21.22.21,3.94.07,13.09,3.23,15.46,1.5,1.13,5.66-.43,7.52-.15,2.46.37,7.05,3.76,9.47,3.14,1.79-.46,4.28-3.73,5-5.42,1.22-2.84.88-9.23.84-12.32s-.18-9.31-1.13-12.23c-.53-1.59-3.89-4.14-3.45-5.76.37-1.38,3.79-2.05,5-2.76,2.57-1.46,7.22-6.36,10.15-6,2.73.32,5.81,5.86,7.89,7.66,4.3,3.71,12.82,11.57,18,13.8a30,30,0,0,0,11,1.71c2.51-.24,7.77-1.58,9.48-3.44s2.21-6.84,2.53-9.21c.47-3.53,1-10.83,0-14.27-.63-2.28-4.4-5.8-4.89-8.11-.78-3.66,1.39-11.13,1.83-14.84.31-2.65,1.24-7.92,1.21-10.59a17,17,0,0,0-.75-5.34c-1.23-2.63-5.27-7.2-7.82-8.59-4.59-2.48-15.52-2.15-20.6-3.36-4.76-1.14-14.54-3.3-18.68-5.92-3.14-2-7.77-8-10.11-10.91-.74-.91-3.45-2.92-2.72-3.84,1.47-1.86,6.68,2.54,9,2.94s7.7-1.32,9.49.24c2.15,1.86,1,8.51,1.89,11.22,1.08,3.51,4.81,9.93,6.19,13.33s3,10.29,4.68,13.43c2,3.66,7.54,9.91,10,13.25s12.86,10.86,9.57,13.32c-7.2,5.38-13.08-28.35-22.07-28.4"/><path class="cls-1" d="M657,784.07c0,1.83-4.87,3.47-6.64,3-3.63-.92-7.5-8.52-9-11.93-1.15-2.54-1.66-8.13-2.81-10.76-1.29-2.95-5.52-8.52-7.11-11.41s-2.68-8.9-5.49-11.32c-1.71-1.48-8-2.83-9.68-4.34-2.45-2.26-3.55-7.83-4-10.52-.35-2.21,1.17-6.72.52-8.91-.36-1.18-3.63-3.3-3.06-4.46.67-1.37,6.45-2.15,7.84-3.32,2.34-2,3.33-7,4.4-9.3,1.48-3.19,3.9-9.68,5.78-12.8,1.59-2.65,7.29-7.46,7.82-10.25.17-.93.23-3.38-1.27-3.63-4.21-.7-9.64,5.41-12.06,7.59-2.6,2.34-6.43,7.55-7.5,10.28-.51,1.3-.16,4-.41,5.35-.36,1.9-2,5.62-2.27,7.53-.18,1.38.73,4.2.18,5.55-1.09,2.68-4.32,8.94-8.76,9.74-2.58.46-7.37-2-9.44-3a39,39,0,0,1-8-5.76c-2.23-2.28-7.77-7.32-6.38-9.83.44-.79,3.47-1.43,4.73-1.81,2.07-.61,6.38-1.87,8.69-1.89"/><path class="cls-1" d="M373.8,716.2c0-.56,1.7-.79,1.76-1.34.12-1.22-2.86-2.53-3.24-3.7-.45-1.36-.53-4.71.48-5.72,3.11-3.11,13.16-2.07,17.51-1.47,3.17.43,9.17,3,12,4.45a54.15,54.15,0,0,1,6.08,4.28c.75.59,3.48,1.79,2.88,2.54-.36.44-1.3-1.21-1.85-1.35a10.36,10.36,0,0,0-4.21.6,22.82,22.82,0,0,0-3.53,1.85c-.81.51-3.22,1.32-3.07,2.26.25,1.57,4.51,1.58,6.07,1.94A99.74,99.74,0,0,0,415,722.09c1.85.18,5.63.82,7.41.29s4.6-2.9,5.9-4.15c.87-.84,2.17-2.93,2.93-3.87,1.32-1.65,4.08-4.85,5.47-6.42,2-2.23,6.27-6.37,8.07-8.74a97.43,97.43,0,0,0,6.68-10.87c1.57-3.08,6.41-9.51,5.29-12.79-.59-1.73-4.72-2.83-6.37-3.65-1.48-.74-5.29-1.15-6.1-2.59a3.28,3.28,0,0,1,.44-3c.82-.64,3.26-.08,4.14.47,2.22,1.38,6.18,6.21,5.68,8.78-.3,1.51-3.57,3.2-5.08,3.51-2.81.58-8.44-2.76-11.27-2.26-3.61.65-10.13,4.91-12.5,7.71a12,12,0,0,0-1.69,4.16c-.46,2.5-.75,7.8.21,10.15,1.17,2.83,6,7,8.42,8.91,2.66,2.08,9.85,3.86,11.77,6.64,1.81,2.61,2.41,9.4,1.94,12.53-.52,3.41-5.31,9-6,12.39a25.39,25.39,0,0,0,.27,8.2c.66,2.91,3,8.57,4.8,10.92s8,5,9.62,7.54c1.47,2.36.82,8.55,2.32,10.9s9.47,4,9.1,6.81c-.88,6.57-24.66,3.15-24.66,9.78"/><path class="cls-1" d="M113.2,922.22c0-4.41-.09-13.47,1.57-17.56,1.29-3.17,7-7.63,8.63-10.62,4.42-7.91,9.13-26.12,13.38-33.68,4.45-7.91,21.09-17.12,21.15-27.23,0-7.52-16.77-13.33-15.49-20.63.23-1.33,2.76-1.42,3.72-1.46,2.74-.11,8.53.92,10.69,3.29.8.87,1.32,3.86,1.81,5.11,1,2.58,4,7.18,4.39,10.09.51,3.73,0,12.23-1.85,15-1,1.52-4.31,2.08-5.79,1.89-2.48-.31-6.95-3.89-9.16-5.53-1.2-.9-3.44-3.12-4.59-4.15-2.64-2.34-7.91-7-10.57-9.28-3.22-2.77-9.37-9.26-13-10.91-4.51-2.07-14.78-5.75-18.9-2.42-1,.77-2.08,4.08-1.88,5.61.55,4.23,7.85,7.84,8.78,12,.55,2.47.05,8.58-1.38,10.2-4,4.46-15.35,1.1-20.19-1-3-1.27-9.61-5-10.52-9.21s5.25-11.92,5.25-16.42"/><path class="cls-1" d="M186.46,807.9c0,.64,1.5,1.75,2.08,1.48s-.28-1.88.21-2c1-.16,1,3,1.68,3.77,1.72,1.87,6.63,3.77,8.91,4.91,3.54,1.78,11.23,4.24,14.44,6.57a22.36,22.36,0,0,1,5.44,5.88,18,18,0,0,1,1.05,5.74c.06,1.55-.76,4.6-.7,6.15s.38,4.7,1.14,6c.84,1.49,3.83,3.41,5.14,4.52A66.44,66.44,0,0,0,231,855.2c2,1.3,7.62,2.06,8.74,4.21.65,1.23-1.26,4.15-.86,5.47.48,1.57,3.15,3.83,4.46,4.82a27.19,27.19,0,0,0,6.07,3c1.18.38,3.68,1,4.89.75a10.94,10.94,0,0,0,4.3-3,16.16,16.16,0,0,0,1.75-4,13.67,13.67,0,0,0,1-3.77,10.82,10.82,0,0,0-1.87-5.14c-1.08-1.18-4.25-2.39-5.82-2.69-2.36-.46-7.21.2-9.59.48-1.81.21-5.37,1.06-7.17,1.33-1.38.2-4.17.38-5.54.62a39.81,39.81,0,0,0-6.15,1.43,53.63,53.63,0,0,0-5.14,3.07c-1.75,1-5.36,2.92-7,4.1a84.06,84.06,0,0,0-8.65,7.56c-1.61,1.69-4.3,5.53-5.82,7.29s-5.18,5.29-6.69,7.23c-1.75,2.24-5.78,6.72-6.19,9.54-.34,2.42,1.56,7.26,2.82,9.36.68,1.15,3.32,2.92,3.23,4.26-.07,1.07-3.7,2.21-3,3.06s3-1.64,3.91-2.3c1.45-1.06,4.5-3.21,5.36-4.78,1-1.84.86-6.24,1.35-8.28.36-1.5,1.4-4.4,1.72-5.91.24-1.12.88-3.44.63-4.56a7.8,7.8,0,0,0-2.46-3.8c-2.35-1.39-10.91,1.9-10.91-.83"/><path class="cls-1" d="M359,893.59c0-2.13,1.47-6.21,2.05-8.25s1.21-6,2.4-7.53c.84-1.13,4.22-1.81,4.67-3.14,2.44-7.25-9.8-21.33-9.85-29,0-2.07,2.68-5.79,2.55-7.85-.18-2.94-3-8.47-5-10.66-1.46-1.63-5.64-3.38-7.48-4.57-2.38-1.54-7.79-4.07-9.37-6.43s.54-10.8-2.23-10.84c-2.16,0-1.56,6.3-2,8.42-.26,1.22-.58,3.71-.9,4.92-.41,1.61-1.71,4.7-2.13,6.31-.47,1.8-2.13,5.64-1.38,7.35.68,1.53,4.2,2.76,5.69,3.52,1.31.67,4.2,1.46,5.47,2.22,1.59.95,3.94,4.17,5.71,4.73s6-1.9,7.24-.59c.88.93-1.62,4.22-.66,5s4.75-2.76,5.13-1.48c.16.51-1.63.27-2,.63-2.19,2.08-3.43,8.4-4.25,11.3s-1.06,9.34-2.3,12.17a24.13,24.13,0,0,1-4.61,6.2c-1.68,1.49-5.58,4.11-7.8,4.49-4,.67-11.95-1.84-15.81-3-2.25-.67-6.43-4.28-8.69-3.62-2.5.74-4.32,6.54-5.93,8.6s-5.16,6.5-7.31,8.22c-1.62,1.3-6.33,2.18-7.26,4-.12.24.32.87.15,1.08-3,3.63-14.25-.15-18.74,1.22-3.64,1.11-10.13,5.34-13.15,7.65-1.46,1.12-4.69,3.41-5.24,5.17-.8,2.58-.64,10.91,2,10.64,7.3-.76-.46-22-.46-29.37m-15.28-56.8a2.66,2.66,0,0,1,1.28-1.86c.69-.2,1.95.93,2.64,1.13,1.13.33,4.65-.38,4.65.8"/><path class="cls-1" d="M459.52,886.22c0,2.07,2.75,6,2.17,8s-4.53,4.26-6.1,5.61c-1.75,1.5-5.46,4.25-7.21,5.75-1.43,1.23-5.55,3.24-5.55,5.13m-3.78,6.48c0,1.2,1.38,4.41,2.53,4.07,4.32-1.31-3-14.26-.59-18,1.38-2.16,7.45-2.35,9.45-3.94,2.87-2.28,8.2-8.25,8.55-11.89s-4.73-9.82-6.05-13.21c-1.14-2.93-3.46-8.87-3.89-12-.37-2.75.46-8.33.49-11.11,0-2.13-.13-6.38-.21-8.51a26.66,26.66,0,0,1-.23-4.08c.8-4.69,5.52-13.17,7.27-17.6.7-1.77,1.5-5.65,2.69-7.14s5.48-2.24,5.95-4c.22-.78-1.72-2.17-1.4-2.9.54-1.21,4.66-2.74,5.07-1.49.72,2.23-8.18.9-8.84,3.15-.36,1.24,3.34,2.81,3.16,4.09-.14.94-2.38,1.57-3.08,2.22-1.5,1.41-3.78,4.91-5.26,6.34-2,2-6.65,5.16-8.89,6.85-1.66,1.25-4.74,4.19-6.69,4.91-1.61.6-5.15.3-6.85.52-2.25.28-6.67,1.38-8.92,1.59-2.8.28-8.78-1.17-11.24.18-1.3.71-2.91,3.48-3.28,4.91-.73,2.85-1.52,10.19,1,11.74,2,1.22,7-1.84,8.67-3.51,2.17-2.2,2.3-9.3,4.45-11.51,1.77-1.82,7.14-2.7,9.35-3.93,1.37-.77,5.5-2.14,5.12-3.67-.52-2.1-6.44-1-8.59-1.2-1.37-.16-4.31.19-5.5-.51s-2-3.2-2.83-4.19A129.47,129.47,0,0,0,409,811.19a30.29,30.29,0,0,0-4.33-3.15c-2.36-1.23-7.52-2.72-10.06-3.51-3.56-1.12-14.39-.25-14.39-4"/><path class="cls-1" d="M535.72,920.79c0-5.1,4.22-14.75,4.9-19.8s-.15-15.53.56-20.64c1-7,10-21.06,7-27.47-1.82-3.85-13-3.73-15.41-7.21-2.94-4.19-2.77-15.35-1.85-20.38,1-5.51,4.2-20.18,9.8-20.16,3,0,4.68,7.82,5.15,10.77.52,3.19.2,10.15-1.62,12.82-3.21,4.72-14.66,9-20,11-7,2.6-25.08-.05-29.29,6.13-2.74,4,2.2,14.39,3.23,19.13,1.88,8.63,3.57,27.24,9.11,34.11,3.45,4.29,19.57,4.57,19.57,10.08"/><path class="cls-1" d="M659.2,888.59c0,1.55-3.13,3.46-4.3,4.49s-3.82,4.24-5.55,4.15c-7-.33-18-12.32-20.6-18.77-2.09-5.09,1.86-16.53,1.17-22-1-7.91-11.08-22.59-9.57-30.42.61-3.12,8.53-6.69,8.08-9.84-.58-4-9.41-9.88-13.39-9.13-3.74.7-9.27,8.77-8.62,12.51,1.14,6.56,17.77,10.11,21.63,15.53,2.3,3.24,3.48,11.4,4.52,15.23s4.18,11.59,3.79,15.58c-.43,4.35-4.25,12.78-7.35,15.85-2.49,2.47-10,3.6-12.78,5.79s-7.38,7.71-8.33,11c-1.25,4.35,5.84,16.47,1.59,18-8.26,3-20.34-19.92-20.34-28.71"/><path class="cls-1" d="M737.43,810.85c0-1.6-4.13-3.44-5.66-3-2.08.65-4.28,5.54-4.09,7.71.13,1.58,2.5,4.21,3.86,5,2.59,1.54,8.89,1.8,11.9,1.91a65.53,65.53,0,0,0,8.61-.74c1.5-.2,4.78-.15,6-1.12a7,7,0,0,0,1.55-4.07c0-2-2.71-5.52-3.06-7.52-.17-1-.79-3.81.19-4,1.16-.21,2.18,3.2,1.85,4.33-.22.8-1.92,1.66-2.71,1.9-1.13.35-3.56-.21-4.74,0-3.82.49-13.1.69-14.83,4.12-.29.57.68,1.77.89,2.37.38,1,1.18,3.07,1.48,4.12.58,2.11,2.38,6.49,1.73,8.58-.51,1.65-3.5,3.9-5,4.82-2.16,1.35-7.27,2.4-9.56,3.5-2.7,1.28-9.07,3.38-10.25,6.12-1.1,2.58,2.17,8.14,2.46,10.93.27,2.51.67,7.7-.13,10.1a20.58,20.58,0,0,1-5.33,7.36c-4,3-14.05,5.28-18.79,6.9-1.6.55-5.34.75-6.44,2-2.84,3.33-1.34,13.12-2.56,17.33a93.08,93.08,0,0,1-6.58,14.8c-1.44,2.55-5.63,6.89-6.75,9.6-.53,1.28-1.84,4.4-1,5.47.3.35,1.42.17,1.84,0a5.26,5.26,0,0,0,1.5-1.44,65.94,65.94,0,0,0,6.87-12.66c.55-1.44.85-4.57,1.37-6a79.73,79.73,0,0,1,4-8.2c1-1.79,2.74-5.49,4.07-7,2.07-2.38,7.56-5.71,9.93-7.79s6.9-6.66,9.13-8.95c2.88-2.94,7.2-11.39,11.27-12,2.1-.32,6.54,2.23,7.38,4.17,2.21,5.14-5.39,16.11-5.39,21.7m-2.37,3.25c0,2,4.65,4.39,4.65,6.36"/><path class="cls-1" d="M720.25,991.48c0,1.92,5.21,2.47,6.86,3.45,1.82,1.08,5.32,3.5,7,4.79,2.9,2.23,9,6.56,11.11,9.54,1.32,1.86,2.27,6.49,3.36,8.5s4.18,5.09,5.08,7.07c.71,1.59,1.19,5.08,1.58,6.78.22.91.61,2.73.85,3.64.58,2.31,2.83,6.83,2.56,9.21-.21,1.84-3.15,4.68-3.56,6.49-.28,1.24-.58,4.15.29,5.09.66.73,3,1,3.9.54,1.14-.58,2-3.29,2.41-4.51a18.13,18.13,0,0,0,.8-6.48,17.7,17.7,0,0,0-3-5.93c-1.19-1.44-4.37-3.47-5.85-4.6-1.3-1-3.94-2.9-5.23-3.9s-3.82-3.09-5.13-4.07-3.64-2.6-4.89-3.41a55.08,55.08,0,0,0-4.75-2.88c-1.15-.54-3.62-1.21-4.8-1.68-.93-.37-2.74-1.2-3.64-1.64-.73-.36-2.18-1.12-2.89-1.53s-2.41-1.72-3.29-2.15a14.4,14.4,0,0,0-3.65-1.32,18.7,18.7,0,0,0-3.55.48c-.32,0-1.3-.09-1.27.23.1,1,3.09.29,4-.11a13.83,13.83,0,0,0,5-5c.82-1.66.95-5.48,1-7.33a55.71,55.71,0,0,0-.75-8.84,52,52,0,0,0-2.3-7.73,49.87,49.87,0,0,0-3.78-6.82c-1-1.37-3-4.15-4.35-5.09a16.51,16.51,0,0,0-3.35-1.13c-1.42-.47-4.42-1-5.69-1.8a8.1,8.1,0,0,1-2.13-2.16c-.82-1.46-1-4.93-1.64-6.49a26.52,26.52,0,0,0-3.23-6.29c-1-1.14-3.87-2.42-4.93-3.49a27.41,27.41,0,0,1-4.35-6.33,27.8,27.8,0,0,1-1.54-8"/><path class="cls-1" d="M607.57,1038.11c0,1.73-4.92,4.54-6.1,3.27s2.14-6.43,3.59-5.6c5.24,3-11.1,15.46-11.1,21.52M589.6,1059c0-1.39,2-3.64,2.66-4.85s1.84-4.11,2.81-5.23a15.08,15.08,0,0,1,4.27-3.17c1.66-.66,5.33-.59,7.09-.85,1.48-.22,4.42-.73,5.87-1s4.47-.63,5.67-1.47c1.51-1,3-4.63,4.2-6,.45-.51,1.56-1.35,2-1.85,1.64-1.74,4.41-5.67,6-7.43s5.27-5.06,7.07-6.69c1.63-1.49,5-4.33,6.66-5.81a54.33,54.33,0,0,0,5.38-5,33.08,33.08,0,0,0,2.94-5.47c.89-2.06,1.81-6.52,2.83-8.52.58-1.13,2.64-2.9,3-4.13a8,8,0,0,0-.44-4.38c-.79-1.47-3.78-3.29-5.18-4.21-1.62-1-5.56-2.13-6.88-3.54-.66-.7-1.09-2.67-1.54-3.52a46,46,0,0,0-3.15-5,26.3,26.3,0,0,0-2.91-3.15c-1.45-1.21-4.88-2.89-6.36-4.06-1.11-.88-3.37-2.71-4.06-4-.9-1.63-1.48-5.44-1.55-7.3a31.72,31.72,0,0,1,.79-6,56.46,56.46,0,0,1,2.18-7.32c.56-1.36,1.33-5,2.78-5.17.31,0,.71.62.86.89a10.36,10.36,0,0,1,1,3.63,17.75,17.75,0,0,1-1.26,5.74c-.59,1.35-2.1,4.15-3.41,4.83-1.71.88-5.78.22-7.69,0s-5.29-1.32-7.06-1.7-5.85-2.63-7.26-1.43c-6.67,5.7,1.24,26.3,1.24,35.08m-7.39-7.34c0,4.73-.88,14.18-.88,18.91"/><path class="cls-1" d="M495.47,933.06c0,4-.75,12.36,1.13,15.86,1.62,3,8.9,5.52,10.83,8.34,2.08,3,4.17,10.43,4.14,14.11a17.92,17.92,0,0,1-2.26,7.26,13.49,13.49,0,0,1-3.16,2.65,20.73,20.73,0,0,1-4.89,2.34c-1.14.25-3.64.49-4.67-.06a3.77,3.77,0,0,1-1.4-2c-.1-.68.65-1.94.86-2.59.37-1.16.27-4.27,1.42-4.66,1.91-.64,4.87,3.6,6.55,4.72,2,1.34,6.16,3.79,8.21,5,2.76,1.7,8.95,4.35,11,6.82s3.43,8.8,4.79,11.65c1.58,3.32,6,9.38,7,12.92.79,2.81-.33,8.9.62,11.66.65,1.9,3.7,4.78,4.59,6.57a53,53,0,0,1,3.83,11.9c.2,1.39.47,4.34-.12,5.62-.22.49-1.11,1.67-1.6,1.44-.91-.41-.1-3,.11-4a13.67,13.67,0,0,1,1.38-3.36c.46-.74,1.8-1.92,2.35-2.6,1.51-1.87,4.33-5.79,5.64-7.82,1-1.54,2.87-4.72,3.68-6.36.52-1,2.71-3.6,1.8-4.34-.53-.43-1.72,1.12-2.26,1.54-1.15.89-3.29,2.87-4.38,3.85s-3.52,3.44-4.83,4.41a47.29,47.29,0,0,1-4.72,2.76c-1.42.73-4.31,2.08-5.81,2.65s-4.86,2.1-6.57,2c-.94,0-2.5-1.47-3.43-1.52-1.11,0-3.12,1.14-4.2,1.39s-3.79,0-4.81.65c-1.4.9-2.93,4.08-3.53,5.63a28.74,28.74,0,0,0-1.31,7.07c0,1.76.83,5.21.83,7"/><path class="cls-1" d="M414.5,1047.64c0-3.16,7.08-6.64,8.18-9.59.47-1.26-.76-4.27,0-5.34,3-4.15,14.74-4.54,19.58-6.27,1.39-.5,4-1.92,5.5-2.18,2.2-.39,8.74-2,9,.21,1.08,11-43.06-1.42-43.06,9.61m2.11-48.87c0-2.49,4.74-5.79,6.25-7.77,1.18-1.55,2.94-5.23,4.56-6.3,1.36-.9,4.71-1.47,6.33-1.48,2,0,5.78,1.18,7.69,1.66a67.57,67.57,0,0,1,8.06,2.33c2.09.93,5.81,3.65,7.81,4.77s6.22,3,8.19,4.17c1.27.75,3.49,2.8,4.85,3.37.84.36,3,0,3.58.7a3.7,3.7,0,0,1,.4,2.77c-.94,2.46-6,5.13-8,6.82-2.2,1.84-6.72,5.38-8.88,7.28-1.33,1.18-3.64,3.94-5.14,4.9a46.26,46.26,0,0,1-10.84,4.24,74.27,74.27,0,0,1-12.65,1.12,64.64,64.64,0,0,1-9.52-.75c-2.87-.55-8.6-2.09-11.18-3.48-2.13-1.15-5.7-4.52-7.47-6.17-2-1.83-5.5-5.91-7.43-7.78s-6.09-5.69-8.26-7.43c-1.62-1.3-6.56-2.79-6.76-4.86s3.56-5,5.4-5.7c3.08-1.15,9.85,1.88,13.08,1.27,1.52-.29,4.16-2,5.5-2.82,1.62-.94,5-2.67,6.29-4,.84-.9,1.66-3.32,2.37-4.33.88-1.25,3.24-3.27,4-4.56,1.83-3,2-11.48,5.22-12.89,1.55-.69,4.72,1.91,6.36,2.32,1.42.35,4.53,1.51,5.8.78.77-.44.68-2.7,1.36-3.27,1.33-1.11,5.46-2.62,6.79-1.5,4,3.31-.82,15.47-.82,20.63"/><path class="cls-1" d="M327.33,1041.11c0-2.81-6.7-5.48-7.84-8-1.29-2.9-1.94-9.71-.8-12.68,1-2.65,6.68-5.5,8.08-8,1.12-2,3.12-6.79,2.15-8.86s-6.13-4-8.49-4.15c-8-.55-22.39,9.36-30.35,10-2.78.21-9.22.32-11-1.81s-.68-9,.17-11.84c1.07-3.56,5.45-9.84,8-12.52,1.93-2,7.41-4.21,9.14-6.4,2.11-2.67,1.72-11.8,5-12.64,2.82-.71,7,5.27,8.92,7.5,2.18,2.58,3.65,10.47,6.81,11.67,2.24.85,6.7-3,9.1-3,2,0,5.57,2.79,7.56,2.6,3.58-.35,9.5-5.12,12.41-7.21,3.35-2.4,9-8.52,12.38-10.83,2.72-1.85,10.08-3.15,11.71-6,1.86-3.27,2.46-13.38-.93-15-3.13-1.51-9.08,5.38-11.43,8-1.69,1.85-4.42,6.27-5,8.72a8.87,8.87,0,0,0,.38,4.43c.17.32.84.7,1.12.93.74.63,2.06,2.2,3,2.49,2.27.72,8.37-2.89,9.52-.79,5.53,10.11-34,26.76-28,36.63,1.23,2,9.35.76,9.35-1.61"/><path class="cls-1" d="M255.6,1047.72c0-2.46-6.71-3.65-8-5.73-1.09-1.74-1.63-6-1.4-8.09.19-1.71,2.44-4.64,2.61-6.34.11-1.15-.65-3.4-.88-4.53-.62-3-1.18-9.29-2.64-12-1.58-2.9-7.29-6.76-9.28-9.4s-5.07-8.9-6.7-11.9c-4.09-7.57-11.89-22.91-15.84-30.55-1.4-2.7-5.16-7.81-5.57-10.83-.25-1.76-.25-6.37,1.42-7,2.23-.8,7.23,3.59,7.38,6,.13,2-4.43,4-5.4,5.7-1.26,2.2-3.46,7.31-2.79,9.76.73,2.68,5.93,5.85,8.06,7.63a66.66,66.66,0,0,0,7.16,5.24c2,1.17,6.69,2.4,8.61,3.75,1.12.79,3.9,2.64,3.74,4-.61,5.19-13.44,8.17-17.44,11.53-2.32,1.95-6.17,6.66-8.3,8.8-1.65,1.66-4.77,5.27-6.78,6.45-1.07.62-4.42.27-4.71,1.46-.2.85,1.72,2,2.49,2.43a17.19,17.19,0,0,0,6.59,1.2,26.51,26.51,0,0,0,9-2.71c2-1.19,4.47-5.91,6.73-6.57,1-.29,4-.19,4,.82-.06.78-2.7.8-3.13.14-.26-.4.84-1.25.86-1.74.1-2.48-1.21-9.42-3.68-9.21-2.77.23-1.57,8.2-2.36,10.86-.9,3-2.64,9.21-4.49,11.76-2.17,3-9.5,6.28-11.52,9.41-1.26,2-1.44,6.89-2.39,9s-5,5.4-5.09,7.71a8.7,8.7,0,0,0,3,5.65c1.91,1.18,9-2,9,.21"/><path class="cls-1" d="M93.68,986.55c0-1.7,6.15-1,6.25-2.73.06-.85-2.24-2.24-2.92-1.73-.86.65.71,3.17,1.11,4.18.19.46.51,1.52.95,1.73,2.14,1,7.21-.61,9.41-1.53s5.87-4.9,8.19-5.89c1.51-.65,5-.49,6.47-1.21,2.14-1,4.91-5.42,7.11-6.35,2.63-1.11,9.55-3,11.38-.83.26.31-.07,1.32-.39,1.56-3.25,2.51-12.37.38-16.44-.2-2.15-.3-6.64-1-8.36-2.3a12,12,0,0,1-3.18-5.49,14.23,14.23,0,0,1,.5-2.7c.51-5.4-.68-16.36.19-21.72.13-.76.25-2.63,1-2.93,3-1.29,8.81,4.52,11.85,5.8a84.4,84.4,0,0,0,10.33,3.64c1.83.43,6.51-.76,7.47.85.71,1.19-1.34,4-2.07,5.13a51.07,51.07,0,0,1-7.38,8.11c-2.62,2.29-8.92,5.55-11.47,7.92S116,977.34,115,980.64c-.72,2.35.28,7.4.78,9.8.83,3.93,4.08,11.32,5.25,15.16.58,1.88.81,6.06,2,7.62s6.24,2.54,7.55,4.26a13.44,13.44,0,0,1,1.78,7.24c-.39,3.19-4.11,8.77-6,11.38s-6.37,7.88-9.21,9.62c-1.54,1-5.19,1.67-7,2.12a61.07,61.07,0,0,1-8,1.61,28.78,28.78,0,0,1-6.88-.4,31.75,31.75,0,0,1-5.81-2.67c-1.28-.71-4.91-1.79-4.86-3.25,0-.54,1.76-.55,1.88-1.07.08-.36-1.11-.94-.85-1.2s.52.55.74.51c.44-.07.75-1.1,1-1.42,1-1.1,3.56-2.81,4.63-3.88,1.76-1.75,6.4-5.11,6.4-7.59"/></svg>