<?xml version="1.0" encoding="utf-8"?>
<!-- Generator: Adobe Illustrator 24.0.0, SVG Export Plug-In . SVG Version: 6.00 Build 0)  -->
<svg version="1.1" id="Layer_1" xmlns:ev="http://www.w3.org/2001/xml-events"
	 xmlns="http://www.w3.org/2000/svg" xmlns:xlink="http://www.w3.org/1999/xlink" x="0px" y="0px" viewBox="0 0 67.5 121.6"
	 style="enable-background:new 0 0 67.5 121.6;" xml:space="preserve">
<style type="text/css">
	.st0{fill:none;stroke:#000000;}
</style>
<path class="st0" d="M31.9,13.5L19.2,3.9c0,0-1.4,13.5-2.5,17.9c-2.5,9.9-11.8,31.3-6.9,40.2c0.7,1.3,4,1.7,5.4,2.3
	c2.7,1.2,9.2,2.6,10.7,5.1c1.1,1.8,0.6,6.5-0.2,8.5c-0.5,1-2.3,3.4-3.3,3 M25.6,77.9c1.1,0.4,3.4,0.4,4.5,0.6
	c2.4,0.4,7.5,0.6,9.7,1.6c2,0.8,6.9,5.1,6.9,5.1s-1.1-10.4-0.2-13.7c0.8-2.9,6.2-10.4,6.2-10.4L63,62.4l-16.6,3 M55.4,105.3
	l-5.1,5.9l-5.9-4.8l-2.1,11.2l-0.9-7.7c0,0-10.2-24.7-17.1-29.9c-1.4-1.1-5.3-0.9-6.9-1.7c-1.8-0.9-4.8-3.5-6.2-4.9
	c-1.6-1.6-4.5-5.3-5.4-7.3c-0.4-1-1.6-3.4-0.9-4.2c0.9-1.1,4.3-0.3,5.6,0.2"/>
</svg>
