<?xml version="1.0" encoding="utf-8"?>
<!-- Generator: Adobe Illustrator 24.0.0, SVG Export Plug-In . SVG Version: 6.00 Build 0)  -->
<svg version="1.1" id="Layer_1" xmlns:ev="http://www.w3.org/2001/xml-events"
	 xmlns="http://www.w3.org/2000/svg" xmlns:xlink="http://www.w3.org/1999/xlink" x="0px" y="0px" viewBox="0 0 68.5 163.2"
	 style="enable-background:new 0 0 68.5 163.2;" xml:space="preserve">
<style type="text/css">
	.st0{fill:none;stroke:#000000;}
</style>
<path class="st0" d="M16.7,145.5l12.5-7.9l-7.1-12.1l6.7-25.8l2.5-2.3c0,0-6.9-4.3-9.3-3.8c-2,0.4-4.4,4.1-5.6,5.7
	c-1.4,1.7-3,6-4.7,7.5c-1.5,1.4-7.2,3.8-7.2,3.8s1.9-6.1,3-7.9c0.9-1.6,4-3.9,4.9-5.5c1.3-2.4,1.2-8.4,3-10.4
	c1.5-1.7,8.3-3.4,8.3-3.4l0.2-0.3c0,0,1,6.2,2.6,7.2c0.7,0.4,2.5-0.9,3.2-0.5c1.9,1.1,3,8.4,3,8.4s5.6,2.7,7.3,3.8
	c1.7,1.2,6.3,5.4,6.3,5.4s1.6,9.8,2.5,13c1.1,4.1,4.7,11.8,5.8,15.8c0.6,2.2,1.7,6.6,1.5,8.8c-0.1,1.3-1.6,5.1-1.6,5.1
	s2,3.1,2.9,3.9c1.5,1.4,6.9,4.2,6.9,4.2 M26.3,4.1l9.1,6.2c0,0-7.8,5.7-10.9,6.8c-2.4,0.8-7.7,0.1-10,1.1c-2.2,1-7,3.8-7.5,6.2
	c-0.2,1,1.8,2.7,2,3.7c0.4,2.3-1.7,6.8-1.5,9.1c0.3,3,2.9,8.7,4.5,11.3c1.3,2,5.9,4.6,6.5,6.9c0.7,2.4-2.7,7.2-2.1,9.6
	c0.8,2.9,9,5.9,8,8.7c-0.7,2.1-7.3,3.2-8.9,1.5c-1.6-1.7,2-6.6,2-8.9"/>
</svg>
