<?xml version="1.0" encoding="utf-8"?>
<!-- Generator: Adobe Illustrator 24.0.0, SVG Export Plug-In . SVG Version: 6.00 Build 0)  -->
<svg version="1.1" id="Layer_1" xmlns:ev="http://www.w3.org/2001/xml-events"
	 xmlns="http://www.w3.org/2000/svg" xmlns:xlink="http://www.w3.org/1999/xlink" x="0px" y="0px" viewBox="0 0 77.4 112.8"
	 style="enable-background:new 0 0 77.4 112.8;" xml:space="preserve">
<style type="text/css">
	.st0{fill:none;stroke:#000000;stroke-width:1.0152;}
</style>
<path class="st0" d="M6.9,33.6c10.7-1.9,25.1,0.8,32-8.4c4.4-5.8-2-18.7-8.3-18.8c-1.8,0,4.3-0.5,0,0c-9.8,1.1-10.3,20.1-4,28.4
	c5,6.5,12.1,9.9,15.3,17.9c0.8,2.1,2.3,6.1,6.4,4.8c4.3-1.3,7.6-6.6,12.2-4.5c3.8,1.7,6.7,12.2,8.2,7.4c0.5-1.6,0.2-3.6,0,0
	c-0.1,1.4-3.9-0.4-4.8,1.4C58,72.9,61.1,93.2,43.5,95.2c-4.2,0.5-6.7,5-10.2,8.5c-5.2,5.1-8.4-3.8-12.4-7.6"/>
</svg>
