<?xml version="1.0" encoding="utf-8"?>
<!-- Generator: Adobe Illustrator 24.0.0, SVG Export Plug-In . SVG Version: 6.00 Build 0)  -->
<svg version="1.1" id="Layer_1" xmlns:ev="http://www.w3.org/2001/xml-events"
	 xmlns="http://www.w3.org/2000/svg" xmlns:xlink="http://www.w3.org/1999/xlink" x="0px" y="0px" viewBox="0 0 50.1 72.5"
	 style="enable-background:new 0 0 50.1 72.5;" xml:space="preserve">
<style type="text/css">
	.st0{fill:none;stroke:#000000;}
</style>
<path class="st0" d="M12.4,44c0,0,11-1.7,13.5,0.6c1.3,1.2,0.7,5.3,0.7,7.1"/>
<path class="st0" d="M5.2,8.8L9,3.3c0,0,4.4,2,6,2.3c2,0.3,6-0.3,8-0.3c2.1,0,8.3-1.4,8.3,0.7"/>
<path class="st0" d="M47,10.3c0,0-3.8,5.8-5.1,7.8c-2.6,3.8-10.8,15-10.8,15s2.8,3.4,4,4.4c0.7,0.6,2.7,1,3.1,1.8
	c0.6,1.3-0.9,4.1-0.9,5.5c-0.1,1.5,0.5,4.4,0.5,5.9"/>
<path class="st0" d="M12.8,44.6c0,0-2,3.4-3.2,3.6c-1.2,0.2-3.7-1.3-4.4-2.3c-0.7-0.9-1.6-3.6-1.1-4.7c0.4-0.8,2.4-1.2,3.2-1.2
	c1.4,0,4.2,0.8,5.1,1.9C12.9,42.5,12.8,44.6,12.8,44.6l4.4-3.9c0,0,4.8-4.5,5.9-6.4c0.5-0.9,0.7-3,1-3.9c1.5-4.7,7.1-18.3,7.1-18.3"
	/>
<path class="st0" d="M26.9,51.7c0,7.1-22.7,17.1-22.7,17.1"/>
</svg>
