<?xml version="1.0" encoding="utf-8"?>
<!-- Generator: Adobe Illustrator 24.0.0, SVG Export Plug-In . SVG Version: 6.00 Build 0)  -->
<svg version="1.1" id="Layer_1" xmlns:ev="http://www.w3.org/2001/xml-events"
	 xmlns="http://www.w3.org/2000/svg" xmlns:xlink="http://www.w3.org/1999/xlink" x="0px" y="0px" viewBox="0 0 55.3 90.6"
	 style="enable-background:new 0 0 55.3 90.6;" xml:space="preserve">
<style type="text/css">
	.st0{fill:none;stroke:#000000;}
</style>
<path class="st0" d="M3.4,4.5l8.1,1c0,0,5.8,6.3,8.5,6.5c1.4,0.1,3.5-2.6,4.9-2.6c2.2,0,6.7,2.2,7.9,4.1c0.9,1.5,0.5,5.2,0.3,6.9
	c0,0.5-0.4,1.3-0.4,1.8c0,1.1,0.8,4.3,0.8,4.3l6.8-0.5l1.1,5.3c0,0,5.5-1.1,6.9-2.2c1-0.8,3.3-3.4,2.5-4.5
	C48.3,20.7,33,26.7,33,26.7S18.9,40.5,16.4,46.4c-1.2,2.8-1.2,11.9-1.2,11.9l2.8,0.3l8,10.9l2,3.4c0,0,5.2-8,5.8-11
	c0.8-4.1-1.4-16.6-1.4-16.6s-6.6,11.5-7.6,15.7c-0.5,2.1,0,8.7,0,8.7l-6-1.7c0,0-3.2-1.9-4.3-1.4c-1.7,0.7-3.4,6.3-3.4,6.3
	s2.1,0.9,2.8,1c1.5,0.2,6-0.6,6-0.6l4.8,2.3l-4.8-2.3l-4.8,4l1.8,9.3"/>
</svg>
