<?xml version="1.0" encoding="utf-8"?>
<!-- Generator: Adobe Illustrator 24.0.0, SVG Export Plug-In . SVG Version: 6.00 Build 0)  -->
<svg version="1.1" id="Layer_1" xmlns:ev="http://www.w3.org/2001/xml-events"
	 xmlns="http://www.w3.org/2000/svg" xmlns:xlink="http://www.w3.org/1999/xlink" x="0px" y="0px" viewBox="0 0 157.4 217.7"
	 style="enable-background:new 0 0 157.4 217.7;" xml:space="preserve">
<style type="text/css">
	.st0{fill:none;stroke:#000000;stroke-width:1.4439;}
</style>
<path class="st0" d="M150.5,149.8c0,14.4-21,10.6-27.4,5.8c-1.8-1.3-4.5-7.8-5.4-11.3c-1.3-5.1-2.3-17-1.8-22.7
	c0.5-5.7,4.1-15.2,5.4-20.3c1.1-4,4.2-11.4,4.2-15.9 M116.5,72.3c0-3.1-4-4.4-5.4-5.7C108,63.6,95,67.7,95,60.5 M83.5,194.4
	c0,5.3-4.2,14.9-6.7,15.9c-1.2,0.5-3.7-2.2-4.4-4.3c-0.1-0.3,0-1,0-1.3c0.1-9.7,1.7-28.9,1.4-38.6c-0.5-16,15.4-85.9,17.7-90.2
	c1.5-2.9,1.9-12.6,3.5-15.4c1.4-2.5,5.9-1.3,7-4.3c0.2-0.7-0.2-2.7,0.1-3.4c0.5-1.7,3.4-1.5,3.5-3.5c0.1-3.9-4.8-6.4-6.4-8.5
	c-2.8-3.7-8.4-11.1-11.3-14.4c-1.7-2-6.6-3.1-7.1-7.1C80.3,16,82.9,9.1,84.4,7.7c1.8-1.7,6.2-0.4,7.7,2.1c1.8,3.2,3.7,14.1,3.1,18.8
	c-0.5,3.5-3.9,7.4-5.4,9.3c-2.2,2.7-7.2,5.5-9.4,8.3c-3.3,4.2-9.1,14.6-11.7,20.5c-1.8,4.1-4.2,14.5-6.1,18.5
	c-2.8,5.9-10.1,13.5-12.8,19.6c-2.4,5.6-5.1,20.2-7.4,26c-2.4,6.1-8.4,15.8-11.3,20.9c-2.8,5-8.4,15.6-11.6,19.5
	c-2.8,3.4-11.9,10.3-11.9,10.3"/>
</svg>
