<?xml version="1.0" encoding="utf-8"?>
<!-- Generator: Adobe Illustrator 24.0.0, SVG Export Plug-In . SVG Version: 6.00 Build 0)  -->
<svg version="1.1" id="Layer_1" xmlns:ev="http://www.w3.org/2001/xml-events"
	 xmlns="http://www.w3.org/2000/svg" xmlns:xlink="http://www.w3.org/1999/xlink" x="0px" y="0px" viewBox="0 0 64.8 90"
	 style="enable-background:new 0 0 64.8 90;" xml:space="preserve">
<style type="text/css">
	.st0{fill:none;stroke:#000000;}
</style>
<path class="st0" d="M61.2,73.3c0,0-6.1-0.3-8.1,0.2c-0.7,0.2-2,0.9-2.7,1.3c-3.1,1.9-11.3,9.1-11.3,9.1s1.2-1.6,1.4-2.2
	c0.6-1.9,0.7-6,0.2-7.9c-0.6-2.4-3.3-6.8-5-8.6c-1.2-1.2-4.2-2.8-5.8-3.5c-0.9-0.4-2.8-1-3.8-1.1c-1.3-0.2-3.8,0-5.1,0
	c-0.6,0-2.6,0.1-2.6,0.1 M28.5,63.8c0,0,1.1-4.2,1.5-5.5c0.5-1.5,2.2-6.1,2.2-6.1s3.1-0.1,4.1-0.2c1.6-0.2,6.1-1.6,6.1-1.6
	s-4.1-17.8-5-23.8c-0.4-3-0.8-12-0.8-12s6.5-2,8.7-2.2c1.6-0.2,5.3,0.3,6.6-0.8c0.5-0.4,1.1-1.9,0.9-2.6c-0.3-1.3-2.7-3.2-3.9-3.4
	c-1.3-0.2-4.8,0.6-5.1,2c-0.3,1.4,3.1,3,4.1,4.1c1.3,1.4,4,4.1,5,5.7c1.1,1.8,2.9,5.6,3.2,7.7c0.4,3-1.1,9-1.9,11.9
	c-0.9,3.2-3.1,9.5-4.8,12.4c-1.8,2.9-6.3,8.3-8.8,10.6c-2.5,2.3-8,6.5-11.1,7.9c-6.1,2.9-26.3,6.8-26.3,6.8"/>
</svg>
