<?xml version="1.0" encoding="utf-8"?>
<!-- Generator: Adobe Illustrator 24.0.0, SVG Export Plug-In . SVG Version: 6.00 Build 0)  -->
<svg version="1.1" id="Layer_1" xmlns:ev="http://www.w3.org/2001/xml-events"
	 xmlns="http://www.w3.org/2000/svg" xmlns:xlink="http://www.w3.org/1999/xlink" x="0px" y="0px" viewBox="0 0 88.9 139.3"
	 style="enable-background:new 0 0 88.9 139.3;" xml:space="preserve">
<style type="text/css">
	.st0{fill:none;stroke:#000000;stroke-width:0.9368;}
</style>
<path class="st0" d="M54.5,133.4c0,0,39.5-82.4,22.7-99.3c-1.1-1.1-4.3,1.4-5.4,2.5c-0.8,0.8-2.2,2.8-2.5,4
	c-0.3,1.2,0.4,3.7,0.4,4.9 M71.1,82.4c0-1.8,7.3-1.2,9.5-4.9c1.2-1.9,2.1-2.6,2.1-4.8c0-4.6-13.4-9.8-15.2-12.2
	c-1.2-1.6-1.9-5.1-2.3-6.8c-0.9-3.2-1.5-10-2.6-13.2c-1.5-4.4-7.5-11.8-8.2-16.4c-0.7-4.5,5.7-15.4,2.4-18c-0.5-0.4-1.6,0.7-2,1.2
	c-3.3,3.8-4.9,15.6-8.4,19.2c-2.9,2.9-11,3.9-14.4,6c-1.8,1.1-5.8,3.2-6.6,5.3c-0.7,1.9,1.6,6.4,0.7,8.1c-1.6,3-9,3-11.3,5.3
	c-2.3,2.3-7,8.9-5.9,12.2c0.8,2.4,6.7,2,8.5,3.5c1.6,1.4,3.5,5.6,4.9,7.3c0.9,1.1,3.4,2.7,4.2,4c0.4,0.7,0,3.3,0.7,3.2
	c6.7-1,6.1-27.1,0.2-31c-1.1-0.7-3.1,2.3-4.2,2.8c-2.6,1.2-8.6,1.4-10.9,3.2C9.6,58.6,4.6,65,4.7,68.8c0.1,3.5,5.4,8.7,7.6,11.2
	c1.6,1.8,6.8,3.7,7.3,6.3c0.1,0.7-0.7,2.3-1.3,2.5c-0.9,0.3-2.9-1.2-3.6-1.9c-1.2-1.3-3-4.6-3-6.5"/>
</svg>
