<?xml version="1.0" encoding="utf-8"?>
<!-- Generator: Adobe Illustrator 24.0.0, SVG Export Plug-In . SVG Version: 6.00 Build 0)  -->
<svg version="1.1" id="Layer_1" xmlns:ev="http://www.w3.org/2001/xml-events"
	 xmlns="http://www.w3.org/2000/svg" xmlns:xlink="http://www.w3.org/1999/xlink" x="0px" y="0px" viewBox="0 0 52.6 77.3"
	 style="enable-background:new 0 0 52.6 77.3;" xml:space="preserve">
<style type="text/css">
	.st0{fill:none;stroke:#000000;}
</style>
<path class="st0" d="M28.6,51.6c0-10-7-39.8,3-39.9c3.1,0,3.7,10.5,1.2,12.4c-2.4,1.8-10.6-1.8-11-4.8c-0.5-3.2,9.4-5.3,9.9-8.6
	c0.4-2.4-5.3-5.9-5.3-8.4 M3.3,15.8c0,0,0.3,4.8,1.5,5.4c1.8,1,6.1-3.2,7.9-2.2c5,2.9,3,17.2,5.2,22.4c1,2.4,4.5,6.3,5.7,8.6
	c0.5,1,0.8,3.4,1.6,4.1c1.4,1.4,5.6,1.8,7.4,2.7c0.7,0.3,2.2,0.9,2.5,1.5c0.2,0.4,0,1.5-0.1,2c-0.3,1.7-2.2,4.8-2.1,6.5
	c0,1.5,1,4.6,2.1,5.5c2.1,1.7,8.2,2.8,10.8,1.9c1.6-0.6,4.7-3.4,4.3-5c-0.6-2.3-9.1-0.8-9.1-3.3 M18.9,22.6c0,1.6,2.4,4.4,2.8,6
	c0.5,1.9-1,6.9,0.7,7.7c1.5,0.7,4.2-2.9,5.6-3.9c1.7-1.1,6.5-4,7.7-2.4c0.3,0.4-1.2,1.3-1.2,1.8c-0.2,1.5,1.7,4.2,2.1,5.7
	c0.6,2.2,1.6,6.6,1.6,8.8"/>
</svg>
