<?xml version="1.0" encoding="utf-8"?>
<!-- Generator: Adobe Illustrator 24.0.0, SVG Export Plug-In . SVG Version: 6.00 Build 0)  -->
<svg version="1.1" id="Layer_1" xmlns:ev="http://www.w3.org/2001/xml-events"
	 xmlns="http://www.w3.org/2000/svg" xmlns:xlink="http://www.w3.org/1999/xlink" x="0px" y="0px" viewBox="0 0 61.6 85.2"
	 style="enable-background:new 0 0 61.6 85.2;" xml:space="preserve">
<style type="text/css">
	.st0{fill:none;stroke:#000000;stroke-width:0.7514;}
</style>
<path class="st0" d="M2,26.3c0,0,5.7-5,8-6c1.6-0.7,5.1-0.8,6.7-1.4c0.8-0.3,2.4-1.8,3.2-1.5c3,1,3.6,9,5.9,11.2
	c1.1,1.1,4,3.1,5.6,3c0.9-0.1,2.1-1.9,3-2.1c0.8-0.2,3.1,0,3.2,0.8c0.1,0.6-1.9,0.9-2.2,1.4c-0.3,0.4,0.2,1.8-0.2,2.1
	c-1.3,0.8-4.4-1.6-5.9-2.2c-1.8-0.7-6.1-1.3-7.1-3c-0.3-0.5,0-1.6,0.1-2.1c1.1-4,7.6-10.7,7.4-14.8c-0.1-2.5-3-7.2-5-8.6
	c-0.4-0.3-1.5-0.5-2.1-0.5c-0.5,0-1.7-0.2-1.8,0.3c-2.2,7.7,2.8,11.6,4.1,13.8c1.3,2.1,6.5,4,7.9,6c0.8,1.2,0.4,5.5,1.8,5.5
	c1,0,0.4-3.1,1.1-3.8c3.1-2.9,12.9-1.5,16.7-3.4c1.8-0.9,6.2-3.3,6.2-5.3 M34.8,38.8c0,2.7,1.6,7.5,2.2,9.9c1.1,4.3,3.9,12.5,4.7,17
	c0.3,2,0.1,6.4,0.7,8.2c0.5,1.6,3.5,2.6,3.3,4.4c-0.2,2.7-4.2,3.7-5.7,3.8c-1.8,0.1-5.2-2.2-6.8-3.6c-0.7-0.6-1.8-3.2-2.7-3.3
	c-0.9-0.2-2.3,2-3.2,2.3c-3.1,1-9.5-0.3-12.6-0.7c-1.8-0.2-7.3,2.1-7.3-1.2"/>
</svg>
