<?xml version="1.0" encoding="utf-8"?>
<!-- Generator: Adobe Illustrator 24.0.0, SVG Export Plug-In . SVG Version: 6.00 Build 0)  -->
<svg version="1.1" id="Layer_1" xmlns:ev="http://www.w3.org/2001/xml-events"
	 xmlns="http://www.w3.org/2000/svg" xmlns:xlink="http://www.w3.org/1999/xlink" x="0px" y="0px" viewBox="0 0 73.5 159.8"
	 style="enable-background:new 0 0 73.5 159.8;" xml:space="preserve">
<style type="text/css">
	.st0{fill:none;stroke:#000000;}
</style>
<path class="st0" d="M7,155.7l27.5-52.1l2-3.9l10.6,5.4l-1.8,1.1c0,0-2.4,0.9-2.6,1.7c-0.5,2.7,4.2,7.3,6.3,9
	c1.9,1.5,7.2,1.8,9.1,3.2c1.9,1.4,4.3,5.7,5.8,7.6c1.2,1.5,4.7,6,4.7,6l-2.7,7.9 M43.7,99.7c0,0,1.5-11.1,1-14.7
	c-0.5-3.8-2.6-11.4-4.9-14.5c-1-1.4-5.6-4.1-5.6-4.1L35,55.8l3.6-3.6l-1.7,1l5.4-1.3l-1.8-4.5c0,0,2.6-3.2,3.8-3.9
	c1.1-0.6,4.8-0.8,4.8-0.8l-1.7-3l3.6,4.8l-4.7,9l-0.4,0.7l1,2.2c0,0-4.8,1.2-6.2,2.1c-2.4,1.6-7.6,8.8-7.6,8.8s0.6,5.7,0.2,7.6
	c-0.3,1.3-1.5,3.8-2.3,4.9c-0.4,0.6-1.1,1.9-1.8,2.1c-0.8,0.2-2.4-0.5-3.1-0.9c-0.4-0.2-1-1-1.4-1.1c-1.1-0.2-4.3,1.5-4.3,1.5
	l3.2-15 M36.3,53.9V6.6"/>
</svg>
