<?xml version="1.0" encoding="utf-8"?>
<!-- Generator: Adobe Illustrator 24.0.0, SVG Export Plug-In . SVG Version: 6.00 Build 0)  -->
<svg version="1.1" id="Layer_1" xmlns:ev="http://www.w3.org/2001/xml-events"
	 xmlns="http://www.w3.org/2000/svg" xmlns:xlink="http://www.w3.org/1999/xlink" x="0px" y="0px" viewBox="0 0 64.7 113.7"
	 style="enable-background:new 0 0 64.7 113.7;" xml:space="preserve">
<style type="text/css">
	.st0{fill:none;stroke:#000000;}
</style>
<path class="st0" d="M47.6,61.2c0-3.3-9.4-7.8-13.7-8.7c-4.2-0.9-9.2-2-9.2,2.4c0,9,7.1,11.3,9.2,11c1.4-0.2,0.7-4.2,1.4-5.3
	c1.4-2,5.7-4.6,7.7-6c2.1-1.4,8.1-2.5,8.7-5c0.3-1.1-1.6-2.9-2.4-3.7c-1.1-1.1-4.3-2.2-5.4-3.4c-1.5-1.8-2.5-6.6-3.9-8.5
	c-1.4-2.1-5.6-5.1-7.2-7.1c-1-1.1-4.3-3.7-3.4-4.8c0.6-0.7,2.8,2,3.5,1.4c1.2-0.9-1.8-5.3-0.5-5.9c3-1.3,8.8,6.4,8.8,9.6 M8,6.3
	c0,1.2-2.9,2.6-3,3.8c-0.1,1.6,2.3,4.5,3.4,5.6c1.9,1.9,6.9,3.9,9,5.5c1.4,1.1,3.7,3.8,5,5c1.9,1.8,5.7,5.2,7.7,6.9
	c1.7,1.3,5,4,6.8,5.1c2.1,1.3,9.5,2.9,10.9,5.7c0.9,1.9,2.7,5.9,3.4,7.9c2.5,6.9,8.6,20.9,8.4,28.3c-0.1,2.4-2.2,7-3.4,9.2
	c-1.2,2.2-5.2,5.7-5.9,8.1c-0.4,1.4,0.6,5.7,0.6,5.7l0.5,6.9"/>
</svg>
