<?xml version="1.0" encoding="utf-8"?>
<!-- Generator: Adobe Illustrator 24.0.0, SVG Export Plug-In . SVG Version: 6.00 Build 0)  -->
<svg version="1.1" id="Layer_1" xmlns:ev="http://www.w3.org/2001/xml-events"
	 xmlns="http://www.w3.org/2000/svg" xmlns:xlink="http://www.w3.org/1999/xlink" x="0px" y="0px" viewBox="0 0 59.5 89.9"
	 style="enable-background:new 0 0 59.5 89.9;" xml:space="preserve">
<style type="text/css">
	.st0{fill:none;stroke:#000000;}
</style>
<path class="st0" d="M20.1,43.2c-2.8,0-2.4-8.2-2.4-11c0-1.8,0.6-5.4,1.6-6.8c1.4-2,6.3-3.6,8.2-5.1c0.7-0.6,1.7-2.5,2.6-2.9
	c1.1-0.5,3.5-0.3,4.6-0.1c1.3,0.2,4,2.1,5.2,1.5c1.6-0.9,2.1-5,2.1-6.8c-0.1-2.3-3.5-8.4-3.5-8.4l-3.9,3.8"/>
<path class="st0" d="M55.9,33.4c0,0-11.4-6.9-15.6-7.9c-2.1-0.5-7.6-1.8-8.5,0.1c-0.1,0.2,0.4,0.6,0.6,0.8c2.1,1.7,9.9,2.1,9.5,4.7
	c-0.2,1.5-4.4,0.9-5.8,1.3c-2,0.5-6.4,0.9-7.9,2.3c-1.9,1.7-4.6,6.9-4.2,9.4c0.1,0.8,1.8,1.9,1.8,2.7c-0.1,3.1-7.2,9.9-7.2,9.9
	L6.1,55.9l3.6-6.8l3.7,0.6l-3.3,5.6l2.6-2.7c0,0,10.9-2.9,13.9-1.1c2.7,1.6,3.9,9,3.4,12.1c-0.2,1.4-1.9,4.2-3.1,4.9
	c-0.4,0.2-1.3-0.1-1.7,0.1c-3.3,1.6-6.2,9.8-9.6,10.9c-0.9,0.3-2.7-0.7-3.6-0.7c-2.1,0-7.9,3-7.9,3l7.2,4.2"/>
</svg>
