<?xml version="1.0" encoding="utf-8"?>
<!-- Generator: Adobe Illustrator 24.0.0, SVG Export Plug-In . SVG Version: 6.00 Build 0)  -->
<svg version="1.1" id="Layer_1" xmlns:ev="http://www.w3.org/2001/xml-events"
	 xmlns="http://www.w3.org/2000/svg" xmlns:xlink="http://www.w3.org/1999/xlink" x="0px" y="0px" viewBox="0 0 57.4 109.7"
	 style="enable-background:new 0 0 57.4 109.7;" xml:space="preserve">
<style type="text/css">
	.st0{fill:none;stroke:#000000;}
</style>
<path class="st0" d="M8.7,6.2l6.9-0.2c0,0,3.8,15.1,3.3,20.2c-0.3,3.4-4.6,9.5-4.9,12.9c-0.2,2.6,0.7,8.1,2.3,10.2
	c2.4,3,10.2,5.3,13.7,7c3.1,1.5,9.4,4.1,12.6,5.5c2.2,0.9,3.6,1.5,5.6-0.9c1.9-2.3-0.2-5.2-2.8-7.6c-1.9-1.7-5.2-1.3-7.5,1.6
	c-1.1,1.4,1.4,6,2.4,7.4c2.1,2.8,5.5,10.8,8.9,10.7c1.7-0.1,2.7-4.2,3.9-5.4 M12.9,60.3l-5.1,5.5c0,0,8.2,2.3,10.9,3.4
	c2,0.8,7.7,4.1,7.7,4.1s-0.7,5.2-1.6,6.7c-0.8,1.4-4.1,2.8-4.8,4.2c-0.7,1.4,0,4.9-0.8,6.2c-1,1.7-5.7,2.8-6.3,4.6
	c-0.5,1.6,0.9,5.1,2,6.5c1.2,1.5,6.6,4,6.6,4l0.7-5 M42.2,65.8c-3,3-6.5,7.8-7.7,11.8c-0.8,2.6,0.1,8.1,0.5,10.8
	c0.2,1.5,0.4,4.6,0.9,6c0.5,1.5,3,5.7,3,5.7l5.3-1.2"/>
</svg>
