<?xml version="1.0" encoding="utf-8"?>
<!-- Generator: Adobe Illustrator 24.0.0, SVG Export Plug-In . SVG Version: 6.00 Build 0)  -->
<svg version="1.1" id="Layer_1" xmlns:ev="http://www.w3.org/2001/xml-events"
	 xmlns="http://www.w3.org/2000/svg" xmlns:xlink="http://www.w3.org/1999/xlink" x="0px" y="0px" viewBox="0 0 53.5 120.8"
	 style="enable-background:new 0 0 53.5 120.8;" xml:space="preserve">
<style type="text/css">
	.st0{fill:none;stroke:#000000;}
</style>
<path class="st0" d="M13.2,61.7c1-0.8-1.7-4.3-0.8-5.1c1-0.9,4.7,2.8,5.2,1.6c1-2.5-8.8-2.4-9.5-5c-0.9-3.5,5.2-9.7,8-11.9
	c1.1-0.9,4.3-1,5.2-2.1c1.2-1.4,0.7-5.5,1.4-7.2c1.4-3.6,6.3-9.9,8.2-13.3c0.6-1.1,2.2-3.1,2.1-4.3c-0.2-2.4-3.6-6.5-5.5-8
	c-0.9-0.7-3.3-2.2-4.3-1.7c-2.1,1.1-2.7,6.9-2.4,9.3c0.4,3.1,4.7,8,6.2,10.7c1.3,2.2,4.4,6.4,5,8.9c1.1,4.9-1.8,14.9-1.5,19.9
	c0.2,2.3,0.7,7.3,2,9.2c2.5,3.4,12,5.3,14.6,8.6c1,1.3,2.3,4.6,1.7,6.2c-0.5,1.5-4.3,2.4-5.3,3.7c-0.9,1.1-1.5,3.9-1.9,5.3
	c-0.7,2.4-1.3,7.4-2.4,9.6c-0.3,0.6-1.1,2.1-1.8,2.3c-1.1,0.3-3.2-1.6-4.2-1.3c-6.4,1.7-12.6,23.2-17.9,19.3
	c-4.3-3.1,13.4-14.5,10.1-18.6c-1-1.1-4.3,1.3-5.6,1.9c-2.2,1-6.8,3-8.3,4.9c-1.1,1.4-0.6,5.7-1.9,6.9c-0.9,0.8-4.6,0.8-4.6,0.8"/>
</svg>
