<?xml version="1.0" encoding="utf-8"?>
<!-- Generator: Adobe Illustrator 24.0.0, SVG Export Plug-In . SVG Version: 6.00 Build 0)  -->
<svg version="1.1" id="Layer_1" xmlns:ev="http://www.w3.org/2001/xml-events"
	 xmlns="http://www.w3.org/2000/svg" xmlns:xlink="http://www.w3.org/1999/xlink" x="0px" y="0px" viewBox="0 0 71.6 90.8"
	 style="enable-background:new 0 0 71.6 90.8;" xml:space="preserve">
<style type="text/css">
	.st0{fill:none;stroke:#000000;}
</style>
<path class="st0" d="M64.5,88.2l-10.7-8.7l1.5-6.5c0,0,2-8.4,1.4-11.1c-0.3-1.2-1.5-3.4-2.5-4.1c-0.8-0.6-4.1-0.8-4.1-0.8
	 M21.3,63.7c0,0,6.7-0.7,8.9-0.6c1.5,0.1,6,1.2,6,1.2s4.4-2.8,5.9-3.5c4-2.1,12.5-5.5,16.4-7.7c1.7-0.9,5.2-2.7,6.4-4.2
	c1.6-2.2,3.2-7.7,3.1-10.4c-0.1-2.1-2-5.9-2.9-7.7c-0.9-1.8-2.6-5.7-4.2-7c-2.5-2.2-12.3-4.9-12.3-4.9l-3.4-1.1l-8.7,5.4L33.4,34
	l-1.1,3.7l-1.6,3l2.5-0.6l5.3-8.8l8-8.8l-2.7-7.3l-6.6-3.4c0,0-2.7-1.9-3.3-2.8c-0.4-0.5-0.7-1.8-0.8-2.4c-0.1-0.7-0.2-2.5,0.4-2.9
	c1-0.7,3.9-0.1,4.7,0.8c1.3,1.3,1.4,7.3,1.4,7.3s-22.2,9.5-29.7,7.8c-2.3-0.5-7.2-6.1-7.2-6.1l4.5-4.2"/>
</svg>
