<?xml version="1.0" encoding="utf-8"?>
<!-- Generator: Adobe Illustrator 24.0.0, SVG Export Plug-In . SVG Version: 6.00 Build 0)  -->
<svg version="1.1" id="Layer_1" xmlns:ev="http://www.w3.org/2001/xml-events"
	 xmlns="http://www.w3.org/2000/svg" xmlns:xlink="http://www.w3.org/1999/xlink" x="0px" y="0px" viewBox="0 0 78.7 155.7"
	 style="enable-background:new 0 0 78.7 155.7;" xml:space="preserve">
<style type="text/css">
	.st0{fill:none;stroke:#000000;}
</style>
<path class="st0" d="M21.9,65.6l8.1-9.9c0,0-12.1-3.4-13.9-6.8c-1.7-3.2,0.2-11.2,2-14.4c0.8-1.4,4.4-2.6,5.2-4
	c0.8-1.2,0.6-5.6,0.6-5.6s-7.3-10.1-11-10.5c-1.6-0.1-4.3,2.5-5.5,3.6c-1.2,1.1-4,3.5-3.8,5.1c0.2,2.2,4.5,5.7,6.7,5.8
	c4.7,0.3,11-9,15.4-10.7c1.9-0.8,6.2,0,8.2,0.4c1.7,0.4,5.3,1.2,6.4,2.5c2.2,2.6,1.8,10.1,2.7,13.4c1.3,4.7,7.2,12.9,8.9,17.4
	c2.5,6.5,7,26.8,7,26.8 M29.9,151.8c0,0,2-4.2,3-5.4c1.9-2.3,6.6-6,9.1-7.7c2.7-1.9,8.6-5.1,11.4-6.9c1.1-0.8,3.1-2.8,4.4-3.2
	c1-0.3,4.1-0.1,4.1-0.1l-0.6-31.8l0-9.5l3-9.5l3.1-5.6c0,0-0.4-47.7,4.1-62.8c0.5-1.6,3.3-5.7,3.3-5.7"/>
</svg>
