<?xml version="1.0" encoding="utf-8"?>
<!-- Generator: Adobe Illustrator 24.0.0, SVG Export Plug-In . SVG Version: 6.00 Build 0)  -->
<svg version="1.1" id="Layer_1" xmlns:ev="http://www.w3.org/2001/xml-events"
	 xmlns="http://www.w3.org/2000/svg" xmlns:xlink="http://www.w3.org/1999/xlink" x="0px" y="0px" viewBox="0 0 69.5 97.8"
	 style="enable-background:new 0 0 69.5 97.8;" xml:space="preserve">
<style type="text/css">
	.st0{fill:none;stroke:#000000;}
</style>
<path class="st0" d="M19.4,88.9l0.1-5.6l5.6-5.8l-3.8,2c0,0-0.9-2.1-1.1-2.8c-0.6-4-0.8-12.6,1-16.3c1.1-2.2,5.5-4.9,7.3-6.5
	c1.4-1.2,5.2-2.8,5.6-4.6c0.3-1-1.6-3.9-1.6-3.9 M43.9,28.7c0,0,2.5,18.3-0.1,23.6c-1.1,2.3-6.7,4.2-7.8,6.5
	c-3.4,7.2-4.1,24.7-0.3,31.7c1,1.8,7.1,4.4,7.1,4.4l4.4-3.3l-4-4 M57.3,3.4c0,0,5.1,0.1,6.5,1c0.4,0.2,0.7,1,0.9,1.4
	c0.5,1.1,1.2,3.5,1.2,4.8c0.1,2.7,0.1,8.8-1.8,10.7c-2.5,2.5-10.5,2.2-14.1,2.6c-2.7,0.3-10.8,0.5-10.8,0.5s2.7-3.2,3.3-4.4
	c0.7-1.4,2.4-4.6,1.9-6.1c-0.7-2.4-5.2-6.3-7.7-6.5c-2.3-0.2-6.5,2.9-7.9,4.7c-1.1,1.3-2.9,4.9-2.1,6.5c1,2.1,8.6,3.4,8.6,3.4
	L18.3,39.4 M7.7,14.9l1.3-2.8L4.6,4.9c0,0,4.4-0.3,5.7,0.3c1.2,0.5,2.8,2.7,3.2,3.9c0.6,1.6,0.4,5.1,0,6.7c-0.3,1.4-2.3,5.4-2.3,5.4
	s6.5,3.1,7.1,5.2c0.4,1.4-2.1,4-2.1,5.4"/>
</svg>
