<?xml version="1.0" encoding="utf-8"?>
<!-- Generator: Adobe Illustrator 24.0.0, SVG Export Plug-In . SVG Version: 6.00 Build 0)  -->
<svg version="1.1" id="Layer_1" xmlns:ev="http://www.w3.org/2001/xml-events"
	 xmlns="http://www.w3.org/2000/svg" xmlns:xlink="http://www.w3.org/1999/xlink" x="0px" y="0px" viewBox="0 0 40.9 78.8"
	 style="enable-background:new 0 0 40.9 78.8;" xml:space="preserve">
<style type="text/css">
	.st0{fill:none;stroke:#000000;}
</style>
<path class="st0" d="M17.9,30c0,0,2.1,2.7,3,2.5c1.1-0.2,2.6-3,2.1-4c-0.6-1.2-5.1-0.9-5.1-0.9s-4.7,1.2-5.9,2.2
	c-0.9,0.8-1.6,3.3-2.2,4.4c-0.6,1.1-2,3.4-2.7,4.5c-0.9,1.4-3.2,4.1-3.7,5.7c-0.6,1.7-1.2,5.3-0.8,7c0.5,2.6,3.5,7.1,5.2,9.1
	c1.3,1.5,4.8,3.6,6.3,5c0.9,0.9,2.4,2.9,3.2,3.8c1.5,1.8,6,7.1,6,7.1l6.7-9.1 M3.1,44.4l8.2,8.4 M15,2l-2.1,1.3c0,0,0.1,6.8,0.7,9
	c0.4,1.7,2.3,4.7,2.9,6.3c0.7,1.7,2.6,5.1,2.4,6.9c-0.1,1.2-2.2,4.2-2.2,4.2s-3.1,4.7-3.7,6.5c-0.5,1.5-1.2,4.7-0.8,6.2
	c0.3,1.3,2,3.4,2.7,4.5c0.5,0.7,1.5,1.9,2,2.6c0.6,0.9,1.3,2.8,2,3.6c1.1,1.2,3.8,3,5.2,3.6c1.1,0.5,3.5,0.7,4.6,1.1
	c0.9,0.3,2.7,1.1,3.5,1.7c0.8,0.6,2.1,2.2,2.8,2.9c0.4,0.4,1.1,1.2,1.6,1.5c0.3,0.1,0.9,0.2,1.2,0.3c0.2,0.1,0.7,0.2,0.9,0.4"/>
</svg>
