<?xml version="1.0" encoding="utf-8"?>
<!-- Generator: Adobe Illustrator 24.0.0, SVG Export Plug-In . SVG Version: 6.00 Build 0)  -->
<svg version="1.1" id="Layer_1" xmlns:ev="http://www.w3.org/2001/xml-events"
	 xmlns="http://www.w3.org/2000/svg" xmlns:xlink="http://www.w3.org/1999/xlink" x="0px" y="0px" viewBox="0 0 38.3 62.1"
	 style="enable-background:new 0 0 38.3 62.1;" xml:space="preserve">
<style type="text/css">
	.st0{fill:none;stroke:#000000;}
</style>
<path class="st0" d="M19.9,13.2l4.9,23c0,0,2.4,1.6,3.1,2.2c1.7,1.2,4.9,4,6,5.7c0.6,0.9,1.4,2.8,1.4,3.9c-0.1,2.3-2.9,8.9-2.9,8.9
	s-1.4-7.7-2.9-9.7c-1.3-1.7-7.4-4.6-7.4-4.6 M4.8,32.1l-2.9-4.3c0,0,5.7-6.9,8.5-7.2c0.9-0.1,2.5,1,3.2,1.7c0.7,0.7,1.9,2.4,2,3.3
	c0.2,1.5-1.9,5.8-1.9,5.8l-0.6,4.8l8.9-0.4l0.8-8.7 M15.2,13.8c0,0,3.8-4.2,5.3-5.3c1.8-1.4,8.3-2.3,7.9-4.5
	c-0.2-1.1-3.4-1.4-4.4-0.9c-1.4,0.9-2.3,4.9-1.8,6.5c0.7,2.5,7.3,7.1,7.3,7.1"/>
</svg>
