<?xml version="1.0" encoding="utf-8"?>
<!-- Generator: Adobe Illustrator 24.0.0, SVG Export Plug-In . SVG Version: 6.00 Build 0)  -->
<svg version="1.1" id="Layer_1" xmlns:ev="http://www.w3.org/2001/xml-events"
	 xmlns="http://www.w3.org/2000/svg" xmlns:xlink="http://www.w3.org/1999/xlink" x="0px" y="0px" viewBox="0 0 79 151.8"
	 style="enable-background:new 0 0 79 151.8;" xml:space="preserve">
<style type="text/css">
	.st0{fill:none;stroke:#000000;}
</style>
<path class="st0" d="M5.5,64.9c0,2.6,7.4,3.7,10,3.5c3.1-0.2,8.4-4.4,11.3-5.5c2.5-0.9,9.1-0.2,10.2-2.6c0.7-1.4-2.6-4-2.5-5.5
	c0.1-0.8,1.5-2,1.9-2.7c0.8-1.4,1.7-4.5,2.6-5.8c1.3-1.8,4.9-4.6,6.5-6.2c1.5-1.5,4.2-4.8,5.7-6.3c0.8-0.8,3.1-1.9,3.4-3
	c0.5-1.7-1.1-5.5-2.3-6.8c-1.4-1.5-5.7-2-7.4-3c-2.5-1.4-8.5-4-9.2-6.8c-0.5-2.2,2-7.3,4.1-8.1c1.5-0.6,4.9,1.2,6.1,2.3
	c1.9,1.7,1.8,8.8,4.3,9.2c1.2,0.2,2.2-2.7,3.2-3.4c1.4-1,4.7-3.4,6.3-2.7c1.6,0.7,1.4,5.2,2.3,6.7c0.9,1.5,3.6,3.7,4.5,5.1
	c1.2,1.9,2.7,6.3,3.8,8.3c0.9,1.6,3.8,6.4,3.8,6.4 M57.5,72.7c0,6.9-1.5,20.5-2,27.4c-0.3,3.5,0,10.6-1,13.9c-0.6,2.1-3,5.9-4.3,7.7
	c-0.8,1.2-2.8,3.2-3.7,4.3c-1.9,2.4-7.1,7-7,10.1c0.1,2.6,4,8.8,6.5,8.1c26.2-7.4,13.8-80.8,13.8-108"/>
</svg>
