<?xml version="1.0" encoding="utf-8"?>
<!-- Generator: Adobe Illustrator 24.0.0, SVG Export Plug-In . SVG Version: 6.00 Build 0)  -->
<svg version="1.1" id="Layer_1" xmlns:ev="http://www.w3.org/2001/xml-events"
	 xmlns="http://www.w3.org/2000/svg" xmlns:xlink="http://www.w3.org/1999/xlink" x="0px" y="0px" viewBox="0 0 41.9 66.2"
	 style="enable-background:new 0 0 41.9 66.2;" xml:space="preserve">
<style type="text/css">
	.st0{fill:none;stroke:#000000;}
</style>
<path class="st0" d="M25.1,63.5l1.7-6.7c0,0,5.6-1.4,6.9-2.7c1.3-1.3,1.9-5,2.5-6.7c0.9-2.6,3.3-7.8,3.2-10.5
	c-0.2-3.8-3.6-11-5.8-14.1c-1.2-1.7-4.3-4.6-6.1-5.4c-0.8-0.3-3.5-0.2-3.5-0.2l-3.4-0.6c0,0,0.8,5.1,2.2,5.6
	c0.6,0.2,2.1-1.3,2.1-1.3L10.2,4.2c0,0-1.6-1.3-1.3-1.8c0.6-1.1,5,0,5,0L2.4,6.9c0,0,6.4,1,8,2.2c2.6,2,4.7,8.6,6.5,11.3
	C18,22.1,21,25,22,26.8c0.9,1.6,2.4,6.9,2.4,6.9l-14.7,9c0,0,8.5,4.3,8.6,7.1C18.6,54.9,3.8,64,3.8,64"/>
</svg>
