<?xml version="1.0" encoding="utf-8"?>
<!-- Generator: Adobe Illustrator 24.0.0, SVG Export Plug-In . SVG Version: 6.00 Build 0)  -->
<svg version="1.1" id="Layer_1" xmlns:ev="http://www.w3.org/2001/xml-events"
	 xmlns="http://www.w3.org/2000/svg" xmlns:xlink="http://www.w3.org/1999/xlink" x="0px" y="0px" viewBox="0 0 34.2 95.1"
	 style="enable-background:new 0 0 34.2 95.1;" xml:space="preserve">
<style type="text/css">
	.st0{fill:none;stroke:#000000;}
</style>
<path class="st0" d="M3.9,31.4c7.4,1,20.5,2.3,22.1,2.9c0.1-1.5-0.4-0.9-0.2-2.4"/>
<polyline class="st0" points="18.5,91.4 18.7,88.8 15.6,74.9 12.1,64.6 11.1,56.8 13.6,48.9 18,47.1 20,50.1 13.2,60.2 5.9,72.2 
	5.3,91.4 5.9,72.2 11.4,36.1 8,27.8 5.9,9.6 6.6,4.4 11.2,3.4 19.8,5.3 30,9 31,13.4 29.1,22.3 25.8,32 "/>
</svg>
