<?xml version="1.0" encoding="utf-8"?>
<!-- Generator: Adobe Illustrator 24.0.0, SVG Export Plug-In . SVG Version: 6.00 Build 0)  -->
<svg version="1.1" id="Layer_1" xmlns:ev="http://www.w3.org/2001/xml-events"
	 xmlns="http://www.w3.org/2000/svg" xmlns:xlink="http://www.w3.org/1999/xlink" x="0px" y="0px" viewBox="0 0 61.5 97.9"
	 style="enable-background:new 0 0 61.5 97.9;" xml:space="preserve">
<style type="text/css">
	.st0{fill:none;stroke:#000000;}
</style>
<path class="st0" d="M22.6,89.4l-6.2,4L21,80.2l-0.1-2.4c0,0-2.4-6.8-4.2-8.3c-1.6-1.3-7.8-2.4-7.8-2.4L7,71.8l-2.6,9.2l4.7-2.4
	 M43.8,56.6c0,2.5,6.5,4.1,7.9,6.1C54,65.8,57,71.6,57,77.1c0,5.5-9.3,11.8-10.2,12c-4.1,1.2-12.7-1.8-16.6-3.6
	c-2.5-1.2-8.9-6.9-8.9-6.9s5.1-19.4,7.5-25.6c0.8-2.1,3.1-6.1,3.8-8.3c0.7-2.1,1.8-6.5,1.8-8.7c-0.1-2.1-0.9-6.5-2.2-8.2
	c-1-1.4-4.1-3.5-5.8-3.6c-1.2-0.1-3.6,1-4.3,2c-1.4,2-0.8,7.4-0.8,9.8c0,1.2-0.7,4.6,0.5,4.7c0.3,0,0.3-0.9,0.4-1.2
	c1.1-2.9,4-8.3,4.8-11.2c0.7-2.7-0.6-9.2,1.4-11.2c0.4-0.4,1.8,0,2.3-0.3c2.9-1.8,4.4-10,7.5-11.5c0.4-0.2,1.4-0.1,1.8,0.2
	c1.6,1,2.2,6.5,4.1,6.4c1.4-0.1,1.5-4.4,2.7-5.1c2.1-1.1,9.4-1.4,9.4,1"/>
</svg>
