<?xml version="1.0" encoding="utf-8"?>
<!-- Generator: Adobe Illustrator 24.0.0, SVG Export Plug-In . SVG Version: 6.00 Build 0)  -->
<svg version="1.1" id="Layer_1" xmlns:ev="http://www.w3.org/2001/xml-events"
	 xmlns="http://www.w3.org/2000/svg" xmlns:xlink="http://www.w3.org/1999/xlink" x="0px" y="0px" viewBox="0 0 117.4 169.4"
	 style="enable-background:new 0 0 117.4 169.4;" xml:space="preserve">
<style type="text/css">
	.st0{fill:none;stroke:#000000;}
</style>
<path class="st0" d="M5.9,163.7c0,0,7.7-4.9,9.4-7.4c10.3-14.7,19.1-50.6,22.2-68.2c2.5-14.3-7.8-47.2,1.9-58c0.9-1,4.2-1.1,5.5-0.8
	c2.6,0.5,6.7,3.9,9,5.2c1.7,1,5.2,2.9,6.9,3.8c1.9,1.1,5.8,3.4,7.8,4.3c2.6,1.2,7.8,4,10.6,4c2,0,6-1.4,7.6-2.5
	c1.1-0.8,2.4-3.1,3.2-4.2c0.9-1.1,2.4-3.5,3.5-4.5c1.1-1,3.6-2.7,4.9-3.5c1.7-1,5.5-2.2,7-3.5c2.1-1.8,7.3-6.5,6.5-9.2
	c-0.4-1.5-4.3-1.9-5.8-2.4c-3.1-1.1-9.3-3.7-12.5-3.6c-1.4,0-4.1,1-5.4,1.7c-2.4,1.2-5.9,5.7-8.5,6.2c-4.4,0.9-12.9-3.6-17.3-4.2
	c-5-0.7-17.7,4-20.3-0.4c-1.3-2.2,2.9-7.1,4.8-8.8c1.3-1.1,4.7-2.5,6.4-2.6c4.6-0.1,14.2,2.8,17.5,6.1c0.9,0.9,1.3,3.6,1.6,4.9
	c0.7,3.3,2.4,10.1,1.4,13.3c-1,3.2-6.9,7.5-8.6,10.4c-0.3,0.5-0.4,1.7-0.9,2.1c-2.7,2.3-10.7,1.8-14,3.3c-3.9,1.7-10,8.4-14,9.7
	c-3.8,1.2-14.9,4.1-16,0.3c-0.5-1.6,4.2-2.8,5.7-3.4c0.7-0.3,2.9-0.1,3.1-0.9c0.2-0.9-2.7-1.6-2.7-2.6c0-0.6,1.1-1.7,1.7-2
	c2.9-1.3,9.8,1.1,12.7-0.1c3.2-1.3,10.5-6.1,9.9-9.5"/>
</svg>
