<?xml version="1.0" encoding="utf-8"?>
<!-- Generator: Adobe Illustrator 24.0.0, SVG Export Plug-In . SVG Version: 6.00 Build 0)  -->
<svg version="1.1" id="Layer_1" xmlns:ev="http://www.w3.org/2001/xml-events"
	 xmlns="http://www.w3.org/2000/svg" xmlns:xlink="http://www.w3.org/1999/xlink" x="0px" y="0px" viewBox="0 0 113.7 166.3"
	 style="enable-background:new 0 0 113.7 166.3;" xml:space="preserve">
<style type="text/css">
	.st0{fill:none;stroke:#000000;}
</style>
<path class="st0" d="M75.5,160.9l32-2.8c0,0-38.6-31-41.2-46.2c-0.5-3,3.5-8.4,4.6-11.2c0.7-1.7,2.8-5,2.6-6.8
	c-0.3-3-5.8-7.2-6.7-10.1C66.2,82,67,77.9,66.4,76c-0.1-0.3-0.8-0.9-0.7-1.2c0.5-2.4,6-4,7.9-5.6c1.6-1.4,4.2-4.7,5.7-6.2
	c1.9-1.8,6.3-4.8,7.7-7c2-2.9,3.1-10.1,4.9-13c1.5-2.4,6.5-5.8,7.9-8.3c1.7-2.9,4-9.4,3.8-12.7c-0.1-1.9-2.2-5.1-2.9-6.8
	c-1.1-2.5-2-9.7-4.8-10c-3.1-0.4-6.8,6.7-7.8,9.6c-1,2.7-0.4,8.8-0.4,11.7c0,1.8,0.4,5.3,0.5,7c0,0.5,0.1,1.5,0.2,2
	c0.4,2.1,2,6,2.1,8.1c0.1,2-0.5,6-1.3,7.9c-0.3,0.8-1.5,2.1-2,2.8c-1.1,1.2-3.6,3.2-4.6,4.4c-0.9,1-2.1,3.4-2.9,4.5
	c-2,2.5-7.7,6-9,8.9c-1.7,3.5-2,11.6-1.5,15.4c0.5,4.1,1.8,14.7-0.1,14.5c-2.7-0.3-7.8-3.4-10.5-3.1c-3.1,0.3-8.4,4.2-10.9,6
	c-1.9,1.4-5.7,4.3-6.9,6.3c-0.7,1.2-1.4,5.3-1.4,5.3l-0.9,4.5l-2.6-1.2L6,114.1"/>
</svg>
