<?xml version="1.0" encoding="utf-8"?>
<!-- Generator: Adobe Illustrator 24.0.0, SVG Export Plug-In . SVG Version: 6.00 Build 0)  -->
<svg version="1.1" id="Layer_1" xmlns:ev="http://www.w3.org/2001/xml-events"
	 xmlns="http://www.w3.org/2000/svg" xmlns:xlink="http://www.w3.org/1999/xlink" x="0px" y="0px" viewBox="0 0 77.3 144"
	 style="enable-background:new 0 0 77.3 144;" xml:space="preserve">
<style type="text/css">
	.st0{fill:none;stroke:#000000;}
</style>
<path class="st0" d="M50.8,138.3c0,0-10-19.6-10.6-26.8c-0.3-4.5,3.7-13.1,4.1-17.6c0.1-0.7,0.5-2.5-0.1-2.9c-1-0.6-3.2,1.7-4.4,1.9
	c-0.3,0.1-1.1-0.3-1.3-0.1c-0.9,0.9-0.4,4.1,0.4,5.1c0.6,0.8,3,0.7,4,1.2c1.5,0.8,3.9,3,5.1,4.2c1.1,1,2.9,3.5,4.1,4.4
	c1.9,1.4,5.9,4.3,8.3,4.3c2.8,0.1,9.3-2.1,10.1-4.8c0.8-2.5-3.9-6.7-5.1-9c-0.6-1-1.6-3.2-2.2-4.2c-0.9-1.5-2.6-4.7-3.7-6
	c-2-2.2-7-5.4-9.3-7.3c-1.8-1.5-5.4-4.5-7.2-6c-1.4-1.1-4.7-3-5.7-4.5c-1.3-1.9-2-6.5-2.5-8.7c-0.7-3-2.7-9-2.3-12
	c0.3-1.9,2-5.6,3.5-6.7c0.9-0.6,3.1-0.7,4.2-0.8c2.7-0.2,8.8-0.9,11,0.7c0.2,0.1,0.3,0.5,0.3,0.7c-0.3,2.6-7.7,7.3-5.7,9
	c1.3,1.1,4.8-2.9,4.8-4.6 M60.1,34l6.4-0.9c0,0-1.2,6.6-0.3,8.5c0.6,1.3,4.1,2.2,4.7,3.5c0.4,0.9-0.2,2.9-0.2,3.9 M36,28.6
	L15.8,41.8 M22.2,63.2L5.8,6.6"/>
</svg>
