<?xml version="1.0" encoding="utf-8"?>
<!-- Generator: Adobe Illustrator 24.0.0, SVG Export Plug-In . SVG Version: 6.00 Build 0)  -->
<svg version="1.1" id="Layer_1" xmlns:ev="http://www.w3.org/2001/xml-events"
	 xmlns="http://www.w3.org/2000/svg" xmlns:xlink="http://www.w3.org/1999/xlink" x="0px" y="0px" viewBox="0 0 48.9 69.3"
	 style="enable-background:new 0 0 48.9 69.3;" xml:space="preserve">
<style type="text/css">
	.st0{fill:none;stroke:#000000;stroke-width:1.0418;}
</style>
<path class="st0" d="M3.1,2.8L3,13.9c0,0,3.8-2.5,5.1-2.1c1.6,0.4,3.4,4.2,4.6,5.4c1,0.9,3.5,2.2,4.3,3.3c0.8,1.1,1.2,4,1.8,5.3
	c0.4,0.9,2.2,3.1,2.2,3.1l-3.1,5.3l10.5,2.2l4.1-7.2l-9.4-2.9"/>
<path class="st0" d="M34.7,17c0,0,8.7,0.3,10.7,2.3c0.7,0.7,1,2.9,1,3.9c0.1,3.2-2.6,12.6-2.6,12.6l0.6,0.5l-13.1-5c0,0-6.3-2-8.2-1
	c-1,0.6-2.2,4.5-2.2,4.5"/>
<path class="st0" d="M28.4,36.3l5.3,5.6l-1.9,0.4c0,0-3.3,1.2-4.1,2.1c-0.9,0.9-2.3,3.6-2,4.9c0.7,2.6,6.9,3.7,8.1,6.1
	c0.4,0.9,0.2,3-0.1,3.9c-0.6,1.9-3.2,7.3-3.2,7.3"/>
</svg>
