<?xml version="1.0" encoding="utf-8"?>
<!-- Generator: Adobe Illustrator 24.0.0, SVG Export Plug-In . SVG Version: 6.00 Build 0)  -->
<svg version="1.1" id="Layer_1" xmlns:ev="http://www.w3.org/2001/xml-events"
	 xmlns="http://www.w3.org/2000/svg" xmlns:xlink="http://www.w3.org/1999/xlink" x="0px" y="0px" viewBox="0 0 52.6 122.3"
	 style="enable-background:new 0 0 52.6 122.3;" xml:space="preserve">
<style type="text/css">
	.st0{fill:none;stroke:#000000;stroke-width:0.8636;}
</style>
<path class="st0" d="M47.4,115.9l-11.9,1.3l0.3-5.6c0,0,0.5-7.2,0.5-9.6c0-1.6,0.6-4.8-0.3-6.2C34,92.2,23,88.5,20.5,85
	c-0.1-0.2-0.2-0.6-0.2-0.8c0.1-0.9,0.9-2.5,1.2-3.3c0.2-0.4,0.1-1.6,0.7-1.5c0.8,0.1-0.6,2.3,0.1,2.3c3.8,0,0.2-8.7,1.2-11.4
	c1-2.9,5.5-8.2,6.8-11.1c1-2.2,1.8-6.8,3-8.9c0.9-1.6,4.6-4.1,4.8-5.7c0.7-4.9-6.1-17.1-11.5-20c-2.1-1.1,9.1-0.6,11.2-2.6
	c1.6-1.5,0.6-5.8,0.5-7.7c0-1.3,1-4.5-0.6-5.1c-2.2-0.7-6.1,2.9-7.4,4.4c-1.4,1.5-2.3,5.2-2.9,7c-0.5,1.4-0.6,4.7-1.8,5.9
	c-1.2,1.1-5.3,1.9-7.1,2.4c-2.7,0.8-8.5,3.6-10.9,2.5c-2.7-1.3-2.9-7.4-1.6-9.6c1.3-2.4,9.2-4,11-6.1c0.9-1.1,1.2-4.9,1.2-4.9L8.5,5
	"/>
</svg>
