<?xml version="1.0" encoding="utf-8"?>
<!-- Generator: Adobe Illustrator 24.0.0, SVG Export Plug-In . SVG Version: 6.00 Build 0)  -->
<svg version="1.1" id="Layer_1" xmlns:ev="http://www.w3.org/2001/xml-events"
	 xmlns="http://www.w3.org/2000/svg" xmlns:xlink="http://www.w3.org/1999/xlink" x="0px" y="0px" viewBox="0 0 82.5 129.2"
	 style="enable-background:new 0 0 82.5 129.2;" xml:space="preserve">
<style type="text/css">
	.st0{fill:none;stroke:#000000;}
</style>
<path class="st0" d="M61.5,4.6L72.3,4c0,0,7.6,9,5.9,11.9c-1.6,2.8-12.5,4-12.8,0.8c0-0.2,0.7-0.3,0.9-0.1
	c4.6,3.1,3.8,16.3,4.1,21.9C70.6,42,69.1,49.3,69,53c-0.1,2.5,0.3,7.5,0.5,10c0.2,2.1,0.2,6.3,0.8,8.3c0.5,2,2.3,5.8,3.4,7.6
	c0.6,1.1,3.5,3,3,4.2c-1,2.4-7.6,1.2-10.2,1.6C63.3,85,55.2,83,53.7,85.8c-1,1.7,2.4,5.4,3.5,7c1.8,2.6,8.7,6.4,8.4,9.6
	c-0.2,2.2-6,3.4-6.9,5.3c-1.2,2.6,2,8.8,0.8,11.5c-0.8,2-4.6,6.4-6.6,5.6c-2.6-0.9,0.3-9.3-2-10.9c-3.4-2.5-12.9,3.9-16.7,2.1
	c-1.4-0.7-2.4-4.1-3.2-5.4c-0.7-1.3-1.3-5-2.8-5.3c-1-0.2-2.2,2.6-3.2,2.6c-0.9,0-2.7-1.4-2.7-2.3 M59.2,72c0-2.2,3.4-5.9,3.9-8.1
	c0.6-2.8,0-8.5-0.1-11.3c-0.1-4.8,2.7-15.5,0.2-19.5c-1-1.5-5.2-2.7-7-2.7c-1.8,0-5.4,1.7-6.4,3.2c-1.5,2.3-2.8,9.3-0.6,10.9
	c1.9,1.4,6.1-0.5,8.4-0.9c2.4-0.4,6.7,3.8,5.9,3.5c-9.3-2.7-22.4,7.6-31.7,10.5c-2.3,0.7-7.3,0.5-9.7,0.1c-1.3-0.2-3.6-1.9-4.9-1.7
	c-2.3,0.3-7.4,5.3-7.4,5.3l4.5-5.9l-10-3.7"/>
</svg>
