<?xml version="1.0" encoding="utf-8"?>
<!-- Generator: Adobe Illustrator 24.0.0, SVG Export Plug-In . SVG Version: 6.00 Build 0)  -->
<svg version="1.1" id="Layer_1" xmlns:ev="http://www.w3.org/2001/xml-events"
	 xmlns="http://www.w3.org/2000/svg" xmlns:xlink="http://www.w3.org/1999/xlink" x="0px" y="0px" viewBox="0 0 39.6 52.3"
	 style="enable-background:new 0 0 39.6 52.3;" xml:space="preserve">
<style type="text/css">
	.st0{fill:none;stroke:#000000;stroke-width:0.5;}
</style>
<path class="st0" d="M2.1,21.8l4.6-8l0.8-1.5L32,14l4.2,0.7l-2.6-1.9L30,17.6c0,0-5.7-7.3-8.4-8.4c-1.9-0.7-6.4,1.3-8.2,0.4
	C11.6,8.8,8,5.1,9,3.6c0.8-1.1,4.3,0.8,5.3,1.7c2.9,2.3,7.5,9.1,7.2,12.8c-0.2,1.9-4,4.7-4.1,6.6c-0.1,1.4,1.9,3.7,2.3,5.1
	c0.6,2.2-0.6,7.1,0.7,8.9c1,1.5,6.7,3.1,6.7,3.1l-0.1,0.6l-0.6,6.9"/>
</svg>
