<?xml version="1.0" encoding="utf-8"?>
<!-- Generator: Adobe Illustrator 24.0.0, SVG Export Plug-In . SVG Version: 6.00 Build 0)  -->
<svg version="1.1" id="Layer_1" xmlns:ev="http://www.w3.org/2001/xml-events"
	 xmlns="http://www.w3.org/2000/svg" xmlns:xlink="http://www.w3.org/1999/xlink" x="0px" y="0px" viewBox="0 0 113.3 176.7"
	 style="enable-background:new 0 0 113.3 176.7;" xml:space="preserve">
<style type="text/css">
	.st0{fill:none;stroke:#000000;stroke-width:1.087;}
</style>
<path class="st0" d="M16.2,5.8c-4.7,0-11.6,14.8-8.9,19.3c10.5,18.2,57-20.4,74-11.3c8.3,4.4,11.1,35.5,20.1,35.6
	c3,0.1,6-8,6.9-11.4c0.4-1.6,0.2-5-0.1-6.7c-0.4-2.2-1.8-6.5-2.9-8.4c-1.8-2.9-6.1-10.1-9.1-9.6c-1.8,0.3-3.1,5.3-3.9,7.2
	c-0.8,1.9-2.2,6-2.3,8.2c-0.1,2.1,0.7,6.5,1.3,8.5c0.6,1.9,4.1,4.9,3.8,6.9c-0.3,2.3-4.4,4.8-6.3,5.4c-2.5,0.9-7.9,0.2-10.4-0.3
	c-2.9-0.5-8.2-4.3-11.1-4c-1.2,0.1-3.6,1.5-4.3,2.6c-0.6,1-0.8,3.7-0.8,5c0,1.7,0.4,5.2,1.1,6.7c0.9,2,4,4.8,5.5,6.2
	c0.8,0.7,2.3,2.1,3.3,2.3c0.7,0.2,2.2-0.5,2.9-0.2c1,0.4,2.6,2.1,3.2,3.2c1,1.7,1.7,5.9,2.1,7.9c1.1,4.9,3.5,14.7,3.5,19.7
	c0,1.5-0.3,4.7-1.1,5.7c-0.9,1.1-3.6,1.8-4.9,1.7c-1.4-0.1-3.8-2.6-5.2-2.6c-1.1-0.1-3.3,1-4.3,1.7c-2.1,1.4-5.8,5.2-7.5,7.2
	c-0.5,0.6-1.5,1.9-1.8,2.6c-1.7,4.3-1.6,14-2.8,18.6c-0.5,2.1-1.7,6.4-2.9,8.1c-0.6,0.8-2.4,1.3-3,2.1c-0.9,1.3-1.1,4.9-1.6,6.5
	c-0.6,2-1.7,6.1-2.6,8c-0.8,1.6-3,4.1-3.8,5.7c-0.9,1.9-2.8,8-2.8,8"/>
</svg>
