<?xml version="1.0" encoding="utf-8"?>
<!-- Generator: Adobe Illustrator 24.0.0, SVG Export Plug-In . SVG Version: 6.00 Build 0)  -->
<svg version="1.1" id="Layer_1" xmlns:ev="http://www.w3.org/2001/xml-events"
	 xmlns="http://www.w3.org/2000/svg" xmlns:xlink="http://www.w3.org/1999/xlink" x="0px" y="0px" viewBox="0 0 85.9 132.4"
	 style="enable-background:new 0 0 85.9 132.4;" xml:space="preserve">
<style type="text/css">
	.st0{fill:none;stroke:#000000;stroke-width:0.8715;}
</style>
<path class="st0" d="M40.6,81.8c0,11.4,5.3,45.2,5.3,45.2 M68.5,69.7c-2.4-0.4-12.3-3.6-14.6-4.5c-1.6-0.7-5.8-0.4-6.6-2.4
	c-1.4-3.7,3.2-11.9,5.4-14.9c1.2-1.7,4.6-5.8,6.2-4.7c2.8,1.9,1.7,12.5,1.5,16.7c-0.1,2.5-1.3,7.3-1.7,9.7
	c-0.9,5.3-2.4,15.9-3.7,21.1c-1.1,4.9-2.2,16.8-5.7,19c-4.6,2.9-19.4-8.2-19.4-8.2s4-17,4.7-22.8c0.4-3.1,0.7-9.3,0.4-12.4
	c-0.2-1.7-1.6-4.8-1.4-6.5c0.3-4.3,5.4-11.1,5.9-15.3c0.4-3.6-0.1-11.5-1.7-14.5C32.5,19.8,5.5,5.8,5.5,5.8 M79.6,105.5
	c2.8-0.3,0-11.3-0.7-14.9c-1.2-6.6-3.4-24.1-8.5-24.7c-0.9-0.1-1.8,2.7-1.9,3.8C68.1,73,72.9,80,71.2,82.4c-0.3,0.4-1.6,0-1.6-0.5"
	/>
</svg>
