<?xml version="1.0" encoding="utf-8"?>
<!-- Generator: Adobe Illustrator 24.0.0, SVG Export Plug-In . SVG Version: 6.00 Build 0)  -->
<svg version="1.1" id="Layer_1" xmlns:ev="http://www.w3.org/2001/xml-events"
	 xmlns="http://www.w3.org/2000/svg" xmlns:xlink="http://www.w3.org/1999/xlink" x="0px" y="0px" viewBox="0 0 80.5 154.4"
	 style="enable-background:new 0 0 80.5 154.4;" xml:space="preserve">
<style type="text/css">
	.st0{fill:none;stroke:#000000;}
</style>
<path class="st0" d="M53.2,104.8c-8.7,3.9-6.6,36-15.9,34.4c-2.7-0.5,1.4-9.6-1-10.8c-2.5-1.3-7.2,4.6-9.8,5.7
	c-2.4,1-7.8,1.4-10,2.8c-2.5,1.8-4.5,8.8-7.3,10 M16.7,122.8c2.3-1,4.9-5.7,6.2-7.9c1.5-2.6,3.6-8.5,4.7-11.3
	c0.5-1.3,1.7-3.8,2.1-5.1c0.5-1.8-0.2-6.2,1.2-7.3c0.9-0.7,3.5,0.7,4.7,0.6c1.8-0.3,5.2-1.9,6.7-3c1.8-1.3,4-5.5,5.9-6.5
	c1.8-1,6.1-0.7,8.1-1.2c1.4-0.4,4-1.5,5.3-2.1c2.1-1,6.9-2.8,8.2-4.7c1.2-1.8,2.9-7.1,1.3-8.5c-0.9-0.8-3.7,0.3-4.7,1
	c-1.6,1.3-3.2,5.6-3.5,7.7c-0.4,3.3,1.4,10,2.3,13.2c1,3.5,7.6,11,5.2,13.7c-1.4,1.5-6-1.1-7.8-2.1c-3.7-2.1-9-9.3-12.5-11.6
	c-3.3-2.1-10.7-4.4-14.3-5.9c-1.7-0.7-5.2-2.2-7-3c-4.2-2-14.2-4.4-16.3-8.4c-1.8-3.5,1.9-11.6,1.9-15.5c0-1.4-0.5-4.3-0.6-5.8
	c-0.1-2.4-0.3-7.4,0.3-9.8c0.6-2.3,2.3-6.8,4.1-8.4c1.4-1.3,5.6-1.8,7.3-2.9c3.4-2.1,9.9-7.4,12-10.8c1.2-2,0.5-7.8,2.4-9.1
	c0.6-0.4,2.3,1,3,0.7"/>
</svg>
