<?xml version="1.0" encoding="utf-8"?>
<!-- Generator: Adobe Illustrator 24.0.0, SVG Export Plug-In . SVG Version: 6.00 Build 0)  -->
<svg version="1.1" id="Layer_1" xmlns:ev="http://www.w3.org/2001/xml-events"
	 xmlns="http://www.w3.org/2000/svg" xmlns:xlink="http://www.w3.org/1999/xlink" x="0px" y="0px" viewBox="0 0 64.9 127.8"
	 style="enable-background:new 0 0 64.9 127.8;" xml:space="preserve">
<style type="text/css">
	.st0{fill:none;stroke:#000000;}
</style>
<path class="st0" d="M55.3,13.1l4.1-4.2c0,0,0.6-5-0.6-5.7C56,1.5,49.5,6.5,46.5,7.8c-2.2,0.9-7,1.9-8.6,3.7
	c-1.1,1.2-1.9,4.7-1.7,6.3c0.3,2.7,5.2,9.6,5.2,9.6l5.7,5.1c0,0,1.5,2.2,2.3,2.4c1.5,0.3,4.6-1.2,5.8-2.2c2-1.6,6.7-6.4,5.7-8.8
	c-0.8-1.8-5.6-1.2-7.5-1.4c-1.3-0.1-4.1-0.6-5.3-0.2c-1,0.4-2.7,2-3.2,3c-0.7,1.3-0.7,5.8-0.7,5.8l-0.6,2.7l-1.1,2.9l-2.2-0.2
	l-5.9,11.7 M34.3,42l-6.5-5.6l-2,7.2c0,0-1,7.5-2.5,9.5c-1.4,1.9-6,3.9-8.3,4.7c-2.3,0.9-7.1,1.7-9.5,1.9c-0.7,0.1-2.7,0-2.7,0
	s3.1,6.1,5.1,6.9c3.7,1.5,11.8-2.2,15.6-3.4c2.8-0.9,7.8-4.8,10.7-4.5c2.3,0.3,6.3,3.5,7.7,5.4c2.6,3.5,5.4,12.2,5.4,16.6
	c-0.1,4.1-4,11.8-5.6,15.6c-0.5,1.2-2,3.3-2.3,4.6c-0.3,1.4,0.1,4.3,0,5.7c-0.1,2.5-1.2,7.5-1.1,10.1c0.1,2.1,1.3,8.2,1.3,8.2"/>
</svg>
