<?xml version="1.0" encoding="utf-8"?>
<!-- Generator: Adobe Illustrator 24.0.0, SVG Export Plug-In . SVG Version: 6.00 Build 0)  -->
<svg version="1.1" id="Layer_1" xmlns:ev="http://www.w3.org/2001/xml-events"
	 xmlns="http://www.w3.org/2000/svg" xmlns:xlink="http://www.w3.org/1999/xlink" x="0px" y="0px" viewBox="0 0 88.9 178.7"
	 style="enable-background:new 0 0 88.9 178.7;" xml:space="preserve">
<style type="text/css">
	.st0{fill:none;stroke:#000000;}
</style>
<path class="st0" d="M41.6,168.7c-0.3-17.7-0.3-35.7-0.3-53.3"/>
<path class="st0" d="M23.3,66.3c0-4-0.1-12.1,0.9-16c0.9-3.6,3.6-10.8,6.2-13.5c3.1-3.1,15.9-7.5,15.9-7.5l-4.6-10.5L38.1,8.8
	c0,0-4.5,6.2-6.4,7.9c-1.4,1.3-4.6,3.2-6.3,4.2c-1.7,1-5.9,1.8-7.2,3.2c-2.8,3-5.3,11.5-5.2,15.6c0,4.7,4.5,13.3,6,17.7
	c2.6,8.1,3.4,27.4,10.1,32.5c5.1,3.9,21.8,6,25.7,0.8c0.9-1.2-2.7-4.5-1.8-5.8c1.8-2.6,9.7-1.8,12.8-0.9c1.1,0.3,2.9,2,3.7,2.9
	c3.4,3.7,6.4,18.5,11,16.6c1.4-0.6-2.5-5.1-1.1-5.7c0.2-0.1,0.7,0.6,0.7,0.8c-1.1,5.2-14.2,7.3-19.1,9.4c-4.8,2.1-14.4,8.1-19.5,7.3
	c-5.6-0.9-12.3-13.5-18-14c-3.4-0.3-11.3,3-12,6.3c-0.5,2.2,3.3,7.6,5.4,7c4.4-1.3,3.1-13.9,1.4-18.1c-1.2-2.9-9.6-5.1-9.5-8.3
	C9,77,39.9,71.2,45,61c1.8-3.6-0.7-12.2-0.2-16.2c0.4-2.7,4.4-10,4.4-10s4.2-6.6,6.3-8.1c4.2-3,19.7-6.3,19.7-6.3"/>
</svg>
