<?xml version="1.0" encoding="utf-8"?>
<!-- Generator: Adobe Illustrator 24.0.0, SVG Export Plug-In . SVG Version: 6.00 Build 0)  -->
<svg version="1.1" id="Layer_1" xmlns:ev="http://www.w3.org/2001/xml-events"
	 xmlns="http://www.w3.org/2000/svg" xmlns:xlink="http://www.w3.org/1999/xlink" x="0px" y="0px" viewBox="0 0 125.9 136.2"
	 style="enable-background:new 0 0 125.9 136.2;" xml:space="preserve">
<style type="text/css">
	.st0{fill:none;stroke:#000000;}
</style>
<path class="st0" d="M43.4,130.2c0,0-22.2-82.9-20.4-111c0.1-2,3.1-5.8,2.5-7.8c-0.5-1.7-3.7-4.3-5.4-4.6c-2.1-0.3-6.2,1.7-7.8,3.1
	c-1.4,1.3-4.2,4.9-3.7,6.7c0.7,2.7,6.9,4.7,9.4,5.8c2.9,1.3,12.1,3.6,12.1,3.6l5.4,0.7c0,0,7.5,1.6,9.8,0.9c2-0.6,5-3.9,6.6-5.3
	c2.1-1.7,6-5.4,8.2-6.9c1.4-1,6.1-3.2,6.1-3.2s10,2.6,13.2,3.9c2.7,1.1,7.4,4.7,10.3,5.3c3,0.7,9.2-0.6,12.3-0.3
	c2.4,0.2,7.9,0.4,9.5,2.2c1.2,1.5,1.1,5.8,0.5,7.6c-0.3,0.9-1.5,3.3-2.3,2.9c-0.7-0.4,0.2-3.1,1-3.1c3.5-0.2,4.9,9.5,5.8,12.9
	c1.2,4.3,5.1,14.4,2.3,17.9c-1.6,2-7.8-0.3-10.1,0.9c-0.9,0.4-1.6,2.8-2.5,3c-1.5,0.3-4-2.3-5.5-2.6c-2.9-0.7-8.9,0.3-11.8-0.4
	c-2.9-0.7-7.9-4.3-10.9-4.8C73.5,56.8,65,59,60.7,59.7c-1.9,0.3-5.7,1.4-7.6,1.6c-1.4,0.1-4.2,0.4-5.5,0c-0.5-0.2-1.3-1.2-1.8-1.2
	c-1.8,0-4.4,3.2-5.8,4.3c-2.8,2.2-10.9,9-10.9,9l2.4,11l-10.5,16.3l10.5-16.3l30.8,11.4"/>
</svg>
