<?xml version="1.0" encoding="utf-8"?>
<!-- Generator: Adobe Illustrator 24.0.0, SVG Export Plug-In . SVG Version: 6.00 Build 0)  -->
<svg version="1.1" id="Layer_1" xmlns:ev="http://www.w3.org/2001/xml-events"
	 xmlns="http://www.w3.org/2000/svg" xmlns:xlink="http://www.w3.org/1999/xlink" x="0px" y="0px" viewBox="0 0 50.1 74"
	 style="enable-background:new 0 0 50.1 74;" xml:space="preserve">
<style type="text/css">
	.st0{fill:none;stroke:#000000;}
</style>
<path class="st0" d="M2.9,56.5c0,0,9-5.5,11.8-4c3.4,1.8,6.1,11.8,3.9,15c-1.4,2.1-8.4,3.2-10,1.3c-0.3-0.4,0.4-1.5,0.7-2
	c3.3-5.3,14.6-12.3,17.5-17.9c2.6-4.8,5-16,4.6-21.5c-0.2-2.7-3.7-7.5-4-10.2c-0.2-1.9-0.5-7.4,1.4-7.7c1.5-0.2,2.7,3.9,2.9,5.4
	c0.3,2.3-3,6.9-1.9,8.9c0.9,1.6,5,2.8,6.8,2.7c2.3-0.1,6.9-2.4,8-4.4c1.9-3.3,1.7-11.8-0.3-15c-1.2-1.9-8.1-2-8.1-4.3"/>
</svg>
