<?xml version="1.0" encoding="utf-8"?>
<!-- Generator: Adobe Illustrator 24.0.0, SVG Export Plug-In . SVG Version: 6.00 Build 0)  -->
<svg version="1.1" id="Layer_1" xmlns:ev="http://www.w3.org/2001/xml-events"
	 xmlns="http://www.w3.org/2000/svg" xmlns:xlink="http://www.w3.org/1999/xlink" x="0px" y="0px" viewBox="0 0 49.7 77"
	 style="enable-background:new 0 0 49.7 77;" xml:space="preserve">
<style type="text/css">
	.st0{fill:none;stroke:#000000;}
</style>
<path class="st0" d="M41,35.3c0,2.4-2.9,6.6-3.9,8.7c-0.1,0.1-0.1,0.5-0.2,0.5c-1-0.2,1.1-3.5,0.2-4c-0.6-0.3-1.7,1.7-2.3,1.4
	c-0.7-0.5,0.9-2.7,0.3-3.4c-0.8-1.1-4.2-0.6-5.6-1c-1.4-0.4-4.5-1.1-5.2-2.3c-1.7-2.9,1.9-9.9,1.5-13.2c-0.3-2-3.2-5.5-3.1-7.6
	c0.1-1.8,3.2-4.4,3.6-6.1c0.2-0.9,0.4-3-0.1-3.8c-0.7-1.1-3.5-2.4-4.8-2.3c-1,0.1-3.4,1.4-3.4,2.4c-0.2,2.9,6.6,5.8,8.7,7.8
	c2.8,2.6,12.1,7.2,10.8,10.8c-0.4,1.1-3.5,0.2-4.7,0.4C31,24.2,27.6,26,25.7,26c-2.5,0-7.2-2.1-9.5-3.1c-1-0.4-2.8-1.7-3.8-1.8
	c-1.9-0.1-6,0.8-7.3,2.2c-1.2,1.3-1.5,5.1-1.3,6.9c0.2,1.7,1.3,5.2,2.6,6.2c1.4,1.1,6.3-0.7,7,1c0.6,1.5-3.1,3.5-4.1,4.8
	c-1.5,1.9-5,5.6-5.4,8c-0.3,2.2,2,6.3,2.6,8.4c1.1,3.5,1.6,12,4.7,14.2c2,1.4,7.5,0.8,9.7-0.2c1.5-0.7,3.6-3.5,4.3-4.9
	c0.8-1.6,1-5.2,1.6-6.9c0.3-0.8,0.8-2.5,1.5-3c1.2-0.8,4.5-0.2,5.9-0.6c1.6-0.5,4.2-3.6,5.8-3.2c3,0.9,6.1,10.8,6.1,10.8"/>
</svg>
