<?xml version="1.0" encoding="utf-8"?>
<!-- Generator: Adobe Illustrator 24.0.0, SVG Export Plug-In . SVG Version: 6.00 Build 0)  -->
<svg version="1.1" id="Layer_1" xmlns:ev="http://www.w3.org/2001/xml-events"
	 xmlns="http://www.w3.org/2000/svg" xmlns:xlink="http://www.w3.org/1999/xlink" x="0px" y="0px" viewBox="0 0 87 141.2"
	 style="enable-background:new 0 0 87 141.2;" xml:space="preserve">
<style type="text/css">
	.st0{fill:none;stroke:#000000;stroke-width:0.8717;}
</style>
<path class="st0" d="M51.5,33.8c0-2.1,0.5-7.1-1.2-8.2c-0.9-0.6-3.5,0.3-4.1,1.1c-1.4,2.1,2.7,8,1.1,10c-0.4,0.5-1.9,0-2.4,0.2
	c-1.9,0.6-4.6,3.9-6.6,4.3c-1.8,0.3-5.4-1.7-7.2-1.7c-0.7,0-1.9,0.5-2.5,0.7c-1.8,0.5-5.4,1.3-7.2,1.9c-0.9,0.3-2.7,1.7-3.6,1.4
	c-2.9-0.8-4.6-7.9-7-9.8C9.9,33.3,8,32,7.2,32.5C4.9,33.7,5.2,40,5,42.6c-0.2,2.9,0,8.9,0.7,11.8C7.8,62.7,20.3,77,20.1,85.6
	c-0.1,5.5-7.3,14.7-10,19.4c-1,1.7-3.4,4.8-4.1,6.6c-0.4,1.3-0.6,4-0.6,5.4c0,0.9,0.2,2.7,0.3,3.6c0.2,2.9-0.9,9.3,0.8,11.6
	c2,2.6,9.8,6,12.7,4.3c2.2-1.3-0.1-8.3,1.6-10.2c0.4-0.5,1.8-0.7,2.5-0.7c1.4,0,4,1,5.3,1.2c13.6,1.5,51.2,13,54.5-0.2
	c1.8-7-20.9-12.6-20.9-19.8 M21.4,31.2c0-1.4,0-4.3-0.4-5.6c-0.3-1.1-1.8-3-2.1-4.1c-0.6-3.1-0.7-9.8,0.7-12.6
	c0.9-1.7,4.1-4.9,6-4.7c3.1,0.3,7.8,6.2,8.2,9.3c0.5,3.8-6.8,10-6.8,13.9"/>
</svg>
