<?xml version="1.0" encoding="utf-8"?>
<!-- Generator: Adobe Illustrator 24.0.0, SVG Export Plug-In . SVG Version: 6.00 Build 0)  -->
<svg version="1.1" id="Layer_1" xmlns:ev="http://www.w3.org/2001/xml-events"
	 xmlns="http://www.w3.org/2000/svg" xmlns:xlink="http://www.w3.org/1999/xlink" x="0px" y="0px" viewBox="0 0 92.3 188.9"
	 style="enable-background:new 0 0 92.3 188.9;" xml:space="preserve">
<style type="text/css">
	.st0{fill:none;stroke:#000000;}
</style>
<path class="st0" d="M58.7,182.7l18.6-24.5 M65.7,165.3l0.7,11.6l8.8,4.6 M38.5,139.5c0,2.5,8,1.8,10,0.4c0.4-0.3,0.7-1.4,0.6-1.9
	c-0.3-1.7-3.9-3.8-4.1-5.5c-0.6-3.7,2.8-11,5-14.1c1.3-1.9,5-5.3,7.3-6c1.2-0.4,3.9-0.3,4.9,0.4c2.2,1.6,1.6,9.8,4.4,10.1
	c1.2,0.1,1.5-3.4,2.5-4.1c3.3-2.1,12.9-4.7,15.7-1.9c0.5,0.5,0.1,2.1-0.3,2.6c-0.4,0.5-1.7,0.5-2.3,0.6c-3.5,0.9-10.5,3.7-14,3.4
	c-5.1-0.5-13.9-10.6-18.6-8.7c-0.8,0.3-0.6,2.7-1.3,3.3c-2.5,1.9-9.5,2.6-12.3,1.4c-4-1.7-8.2-10.1-10.8-13.6
	c-1.3-1.7-4.3-4.9-4.9-6.9C19.2,96,20.2,89,21,85.7c0.8-3.3,2.2-11.6,5.5-12.3c2.2-0.5,5.1,4.7,7,6c2.1,1.4,6.6,4.9,9.2,4.7
	c3.7-0.2,10.7-5,12.3-8.4c1.3-2.6,0.6-9-0.8-11.5c-1.1-2.1-5.6-4.5-7.6-5.9c-2.7-1.9-9.2-4.6-11.3-7.3c-2.3-2.9-5-13.8-5-13.8
	l2.2-7.6L16.7,14.7l-9.3-3.8"/>
</svg>
