<?xml version="1.0" encoding="utf-8"?>
<!-- Generator: Adobe Illustrator 24.0.0, SVG Export Plug-In . SVG Version: 6.00 Build 0)  -->
<svg version="1.1" id="Layer_1" xmlns:ev="http://www.w3.org/2001/xml-events"
	 xmlns="http://www.w3.org/2000/svg" xmlns:xlink="http://www.w3.org/1999/xlink" x="0px" y="0px" viewBox="0 0 57.3 101.3"
	 style="enable-background:new 0 0 57.3 101.3;" xml:space="preserve">
<style type="text/css">
	.st0{fill:none;stroke:#000000;}
</style>
<path class="st0" d="M2.8,44l7.7,11.6l-3,0.5l3.5,3.6c0,0,2.9,2.5,3.4,3.7c0.4,0.8,0.2,2.8,0.6,3.6c0.9,1.7,4.8,3.7,5.6,5.4
	c1.4,3.2-0.2,10.5,0.6,13.8c0.5,2.2,2,6.7,3.7,8.2c3.5,2.9,13.1,4.1,17.6,4c2.3,0,8.7-2.4,8.7-2.4L49.1,89 M24.5,80.8
	c0,0,5.3-9.5,6.2-13c1.4-5.6-1.1-17.9,1.1-23.2c1-2.3,6.9-7.5,6.9-7.5s-8-10-9.4-13.9c-0.3-0.8-0.8-2.6-0.4-3.3
	c0.9-1.6,5.2-4.3,6.7-3.2c0.9,0.7-0.6,4.5-0.6,4.5s2.5,3.5,2.8,4.8c0.3,1.4-0.2,5.7-0.2,5.7s8,3,10.7,2.5c1.6-0.3,5.1-2.1,5.6-3.7
	c0.5-1.7-3-6.3-3-6.3 M33.1,31.8c0,0-6.7,2.4-8.6,1.4c-2.6-1.3-5.4-7.4-5.4-10.3c0-5.1,5-15.5,9.3-18.2c3-1.8,10.5-1,13.9,0
	c1.7,0.5,6,3.8,6,3.8"/>
</svg>
